<?xml version="1.0" encoding="utf-8" standalone="no"?>
<!DOCTYPE svg PUBLIC "-//W3C//DTD SVG 1.1//EN"
  "http://www.w3.org/Graphics/SVG/1.1/DTD/svg11.dtd">
<svg xmlns:xlink="http://www.w3.org/1999/xlink" width="259.2pt" height="172.8pt" viewBox="0 0 259.2 172.8" xmlns="http://www.w3.org/2000/svg" version="1.1">
 <metadata>
  <rdf:RDF xmlns:dc="http://purl.org/dc/elements/1.1/" xmlns:cc="http://creativecommons.org/ns#" xmlns:rdf="http://www.w3.org/1999/02/22-rdf-syntax-ns#">
   <cc:Work>
    <dc:type rdf:resource="http://purl.org/dc/dcmitype/StillImage"/>
    <dc:date>2024-02-12T13:52:29.544286</dc:date>
    <dc:format>image/svg+xml</dc:format>
    <dc:creator>
     <cc:Agent>
      <dc:title>Matplotlib v3.8.2, https://matplotlib.org/</dc:title>
     </cc:Agent>
    </dc:creator>
   </cc:Work>
  </rdf:RDF>
 </metadata>
 <defs>
  <style type="text/css">*{stroke-linejoin: round; stroke-linecap: butt}</style>
 </defs>
 <g id="figure_1">
  <g id="patch_1">
   <path d="M 0 172.8 
L 259.2 172.8 
L 259.2 0 
L 0 0 
z
" style="fill: #ffffff"/>
  </g>
  <g id="axes_1">
   <g id="patch_2">
    <path d="M 47.857271 140.653822 
L 256.19976 140.653822 
L 256.19976 3.00024 
L 47.857271 3.00024 
z
" style="fill: #ffffff"/>
   </g>
   <g id="matplotlib.axis_1">
    <g id="xtick_1">
     <g id="line2d_1">
      <path d="M 76.418936 140.653822 
L 76.418936 3.00024 
" clip-path="url(#p4244715375)" style="fill: none; stroke: #b0b0b0; stroke-width: 0.8; stroke-linecap: round"/>
     </g>
     <g id="line2d_2"/>
     <g id="text_1">
      <!-- −10 -->
      <g style="fill: #262626" transform="translate(64.811358 152.512104) scale(0.11 -0.11)">
       <defs>
        <path id="DejaVuSerif-2212" d="M 678 2259 
L 4684 2259 
L 4684 1753 
L 678 1753 
L 678 2259 
z
" transform="scale(0.015625)"/>
        <path id="DejaVuSerif-31" d="M 909 0 
L 909 331 
L 1722 331 
L 1722 4213 
L 781 3603 
L 781 4013 
L 1919 4750 
L 2350 4750 
L 2350 331 
L 3163 331 
L 3163 0 
L 909 0 
z
" transform="scale(0.015625)"/>
        <path id="DejaVuSerif-30" d="M 2034 219 
Q 2513 219 2750 744 
Q 2988 1269 2988 2328 
Q 2988 3391 2750 3916 
Q 2513 4441 2034 4441 
Q 1556 4441 1318 3916 
Q 1081 3391 1081 2328 
Q 1081 1269 1318 744 
Q 1556 219 2034 219 
z
M 2034 -91 
Q 1275 -91 848 546 
Q 422 1184 422 2328 
Q 422 3475 848 4112 
Q 1275 4750 2034 4750 
Q 2797 4750 3222 4112 
Q 3647 3475 3647 2328 
Q 3647 1184 3222 546 
Q 2797 -91 2034 -91 
z
" transform="scale(0.015625)"/>
       </defs>
       <use xlink:href="#DejaVuSerif-2212"/>
       <use xlink:href="#DejaVuSerif-31" x="83.789062"/>
       <use xlink:href="#DejaVuSerif-30" x="147.412109"/>
      </g>
     </g>
    </g>
    <g id="xtick_2">
     <g id="line2d_3">
      <path d="M 113.315692 140.653822 
L 113.315692 3.00024 
" clip-path="url(#p4244715375)" style="fill: none; stroke: #b0b0b0; stroke-width: 0.8; stroke-linecap: round"/>
     </g>
     <g id="line2d_4"/>
     <g id="text_2">
      <!-- −5 -->
      <g style="fill: #262626" transform="translate(105.207489 152.512104) scale(0.11 -0.11)">
       <defs>
        <path id="DejaVuSerif-35" d="M 3219 4666 
L 3219 4153 
L 1081 4153 
L 1081 2816 
Q 1244 2928 1461 2984 
Q 1678 3041 1947 3041 
Q 2703 3041 3140 2622 
Q 3578 2203 3578 1478 
Q 3578 738 3136 323 
Q 2694 -91 1894 -91 
Q 1572 -91 1234 -12 
Q 897 66 544 225 
L 544 1131 
L 897 1131 
Q 925 688 1179 453 
Q 1434 219 1894 219 
Q 2388 219 2653 544 
Q 2919 869 2919 1478 
Q 2919 2084 2655 2407 
Q 2391 2731 1894 2731 
Q 1613 2731 1398 2631 
Q 1184 2531 1019 2322 
L 750 2322 
L 750 4666 
L 3219 4666 
z
" transform="scale(0.015625)"/>
       </defs>
       <use xlink:href="#DejaVuSerif-2212"/>
       <use xlink:href="#DejaVuSerif-35" x="83.789062"/>
      </g>
     </g>
    </g>
    <g id="xtick_3">
     <g id="line2d_5">
      <path d="M 150.212448 140.653822 
L 150.212448 3.00024 
" clip-path="url(#p4244715375)" style="fill: none; stroke: #b0b0b0; stroke-width: 0.8; stroke-linecap: round"/>
     </g>
     <g id="line2d_6"/>
     <g id="text_3">
      <!-- 0 -->
      <g style="fill: #262626" transform="translate(146.713073 152.512104) scale(0.11 -0.11)">
       <use xlink:href="#DejaVuSerif-30"/>
      </g>
     </g>
    </g>
    <g id="xtick_4">
     <g id="line2d_7">
      <path d="M 187.109204 140.653822 
L 187.109204 3.00024 
" clip-path="url(#p4244715375)" style="fill: none; stroke: #b0b0b0; stroke-width: 0.8; stroke-linecap: round"/>
     </g>
     <g id="line2d_8"/>
     <g id="text_4">
      <!-- 5 -->
      <g style="fill: #262626" transform="translate(183.609829 152.512104) scale(0.11 -0.11)">
       <use xlink:href="#DejaVuSerif-35"/>
      </g>
     </g>
    </g>
    <g id="xtick_5">
     <g id="line2d_9">
      <path d="M 224.00596 140.653822 
L 224.00596 3.00024 
" clip-path="url(#p4244715375)" style="fill: none; stroke: #b0b0b0; stroke-width: 0.8; stroke-linecap: round"/>
     </g>
     <g id="line2d_10"/>
     <g id="text_5">
      <!-- 10 -->
      <g style="fill: #262626" transform="translate(217.00721 152.512104) scale(0.11 -0.11)">
       <use xlink:href="#DejaVuSerif-31"/>
       <use xlink:href="#DejaVuSerif-30" x="63.623047"/>
      </g>
     </g>
    </g>
    <g id="text_6">
     <!-- Drift angle $\beta$ $[deg]$ -->
     <g style="fill: #262626" transform="translate(100.163516 167.26976) scale(0.11 -0.11)">
      <defs>
       <path id="DejaVuSerif-44" d="M 1581 331 
L 2163 331 
Q 3072 331 3558 850 
Q 4044 1369 4044 2338 
Q 4044 3306 3559 3818 
Q 3075 4331 2163 4331 
L 1581 4331 
L 1581 331 
z
M 353 0 
L 353 331 
L 947 331 
L 947 4331 
L 353 4331 
L 353 4666 
L 2209 4666 
Q 3416 4666 4089 4050 
Q 4763 3434 4763 2338 
Q 4763 1238 4088 619 
Q 3413 0 2209 0 
L 353 0 
z
" transform="scale(0.015625)"/>
       <path id="DejaVuSerif-72" d="M 3059 3328 
L 3059 2497 
L 2728 2497 
Q 2713 2744 2591 2866 
Q 2469 2988 2234 2988 
Q 1809 2988 1582 2694 
Q 1356 2400 1356 1850 
L 1356 331 
L 2022 331 
L 2022 0 
L 263 0 
L 263 331 
L 781 331 
L 781 2994 
L 231 2994 
L 231 3322 
L 1356 3322 
L 1356 2731 
Q 1525 3078 1790 3245 
Q 2056 3413 2438 3413 
Q 2578 3413 2733 3391 
Q 2888 3369 3059 3328 
z
" transform="scale(0.015625)"/>
       <path id="DejaVuSerif-69" d="M 622 4353 
Q 622 4497 726 4603 
Q 831 4709 978 4709 
Q 1122 4709 1226 4603 
Q 1331 4497 1331 4353 
Q 1331 4206 1228 4103 
Q 1125 4000 978 4000 
Q 831 4000 726 4103 
Q 622 4206 622 4353 
z
M 1356 331 
L 1900 331 
L 1900 0 
L 231 0 
L 231 331 
L 781 331 
L 781 2988 
L 231 2988 
L 231 3322 
L 1356 3322 
L 1356 331 
z
" transform="scale(0.015625)"/>
       <path id="DejaVuSerif-66" d="M 2753 4078 
L 2450 4078 
Q 2447 4313 2317 4434 
Q 2188 4556 1941 4556 
Q 1619 4556 1487 4379 
Q 1356 4203 1356 3750 
L 1356 3322 
L 2284 3322 
L 2284 2988 
L 1356 2988 
L 1356 331 
L 2094 331 
L 2094 0 
L 231 0 
L 231 331 
L 781 331 
L 781 2988 
L 231 2988 
L 231 3322 
L 781 3322 
L 781 3738 
Q 781 4294 1070 4578 
Q 1359 4863 1919 4863 
Q 2128 4863 2337 4825 
Q 2547 4788 2753 4709 
L 2753 4078 
z
" transform="scale(0.015625)"/>
       <path id="DejaVuSerif-74" d="M 691 2988 
L 184 2988 
L 184 3322 
L 691 3322 
L 691 4353 
L 1269 4353 
L 1269 3322 
L 2350 3322 
L 2350 2988 
L 1269 2988 
L 1269 878 
Q 1269 456 1350 337 
Q 1431 219 1650 219 
Q 1875 219 1978 351 
Q 2081 484 2088 781 
L 2522 781 
Q 2497 328 2275 118 
Q 2053 -91 1600 -91 
Q 1103 -91 897 129 
Q 691 350 691 878 
L 691 2988 
z
" transform="scale(0.015625)"/>
       <path id="DejaVuSerif-20" transform="scale(0.015625)"/>
       <path id="DejaVuSerif-61" d="M 2547 1044 
L 2547 1747 
L 1806 1747 
Q 1378 1747 1168 1562 
Q 959 1378 959 997 
Q 959 650 1171 447 
Q 1384 244 1747 244 
Q 2106 244 2326 466 
Q 2547 688 2547 1044 
z
M 3122 2075 
L 3122 331 
L 3634 331 
L 3634 0 
L 2547 0 
L 2547 359 
Q 2356 128 2106 18 
Q 1856 -91 1522 -91 
Q 969 -91 644 203 
Q 319 497 319 997 
Q 319 1513 691 1797 
Q 1063 2081 1741 2081 
L 2547 2081 
L 2547 2309 
Q 2547 2688 2317 2895 
Q 2088 3103 1672 3103 
Q 1328 3103 1125 2947 
Q 922 2791 872 2484 
L 575 2484 
L 575 3156 
Q 875 3284 1158 3348 
Q 1441 3413 1709 3413 
Q 2400 3413 2761 3070 
Q 3122 2728 3122 2075 
z
" transform="scale(0.015625)"/>
       <path id="DejaVuSerif-6e" d="M 263 0 
L 263 331 
L 781 331 
L 781 2988 
L 231 2988 
L 231 3322 
L 1356 3322 
L 1356 2731 
Q 1516 3069 1770 3241 
Q 2025 3413 2363 3413 
Q 2913 3413 3172 3097 
Q 3431 2781 3431 2113 
L 3431 331 
L 3944 331 
L 3944 0 
L 2356 0 
L 2356 331 
L 2853 331 
L 2853 1931 
Q 2853 2541 2703 2767 
Q 2553 2994 2175 2994 
Q 1775 2994 1565 2701 
Q 1356 2409 1356 1850 
L 1356 331 
L 1856 331 
L 1856 0 
L 263 0 
z
" transform="scale(0.015625)"/>
       <path id="DejaVuSerif-67" d="M 3359 2988 
L 3359 72 
Q 3359 -644 2965 -1033 
Q 2572 -1422 1844 -1422 
Q 1516 -1422 1216 -1362 
Q 916 -1303 641 -1184 
L 641 -488 
L 941 -488 
Q 997 -813 1206 -963 
Q 1416 -1113 1806 -1113 
Q 2313 -1113 2548 -827 
Q 2784 -541 2784 72 
L 2784 519 
Q 2616 206 2355 57 
Q 2094 -91 1709 -91 
Q 1097 -91 708 395 
Q 319 881 319 1663 
Q 319 2444 706 2928 
Q 1094 3413 1709 3413 
Q 2094 3413 2355 3264 
Q 2616 3116 2784 2803 
L 2784 3322 
L 3909 3322 
L 3909 2988 
L 3359 2988 
z
M 2784 1825 
Q 2784 2422 2554 2737 
Q 2325 3053 1888 3053 
Q 1444 3053 1217 2703 
Q 991 2353 991 1663 
Q 991 975 1217 622 
Q 1444 269 1888 269 
Q 2325 269 2554 583 
Q 2784 897 2784 1497 
L 2784 1825 
z
" transform="scale(0.015625)"/>
       <path id="DejaVuSerif-6c" d="M 1313 331 
L 1856 331 
L 1856 0 
L 184 0 
L 184 331 
L 738 331 
L 738 4531 
L 184 4531 
L 184 4863 
L 1313 4863 
L 1313 331 
z
" transform="scale(0.015625)"/>
       <path id="DejaVuSerif-65" d="M 3469 1600 
L 991 1600 
L 991 1575 
Q 991 903 1244 561 
Q 1497 219 1991 219 
Q 2369 219 2611 417 
Q 2853 616 2950 1006 
L 3413 1006 
Q 3275 459 2904 184 
Q 2534 -91 1931 -91 
Q 1203 -91 761 389 
Q 319 869 319 1663 
Q 319 2450 753 2931 
Q 1188 3413 1894 3413 
Q 2647 3413 3050 2948 
Q 3453 2484 3469 1600 
z
M 2791 1931 
Q 2772 2513 2545 2808 
Q 2319 3103 1894 3103 
Q 1497 3103 1269 2806 
Q 1041 2509 991 1931 
L 2791 1931 
z
" transform="scale(0.015625)"/>
       <path id="DejaVuSans-Oblique-3b2" d="M 872 216 
L 572 -1331 
L -6 -1331 
L 928 3478 
Q 1206 4903 2538 4903 
Q 3888 4903 3659 3700 
Q 3503 2844 2894 2531 
Q 3713 2250 3553 1416 
Q 3272 -69 1759 -66 
Q 1097 -63 872 216 
z
M 1019 966 
Q 1259 422 1875 425 
Q 2775 425 2966 1406 
Q 3138 2288 1675 2219 
L 1778 2750 
Q 2909 2731 3106 3750 
Q 3241 4438 2509 4434 
Q 1691 4434 1503 3459 
L 1019 966 
z
" transform="scale(0.015625)"/>
       <path id="DejaVuSans-5b" d="M 550 4863 
L 1875 4863 
L 1875 4416 
L 1125 4416 
L 1125 -397 
L 1875 -397 
L 1875 -844 
L 550 -844 
L 550 4863 
z
" transform="scale(0.015625)"/>
       <path id="DejaVuSans-Oblique-64" d="M 2675 525 
Q 2444 222 2128 65 
Q 1813 -91 1428 -91 
Q 903 -91 598 267 
Q 294 625 294 1247 
Q 294 1766 478 2236 
Q 663 2706 1013 3078 
Q 1244 3325 1534 3454 
Q 1825 3584 2144 3584 
Q 2481 3584 2739 3421 
Q 2997 3259 3138 2956 
L 3513 4863 
L 4091 4863 
L 3144 0 
L 2566 0 
L 2675 525 
z
M 891 1350 
Q 891 897 1095 644 
Q 1300 391 1663 391 
Q 1931 391 2161 520 
Q 2391 650 2566 903 
Q 2750 1166 2856 1509 
Q 2963 1853 2963 2188 
Q 2963 2622 2758 2865 
Q 2553 3109 2194 3109 
Q 1922 3109 1687 2981 
Q 1453 2853 1288 2613 
Q 1106 2353 998 2009 
Q 891 1666 891 1350 
z
" transform="scale(0.015625)"/>
       <path id="DejaVuSans-Oblique-65" d="M 3078 2063 
Q 3088 2113 3092 2166 
Q 3097 2219 3097 2272 
Q 3097 2653 2873 2875 
Q 2650 3097 2266 3097 
Q 1838 3097 1509 2826 
Q 1181 2556 1013 2059 
L 3078 2063 
z
M 3578 1613 
L 903 1613 
Q 884 1494 878 1425 
Q 872 1356 872 1306 
Q 872 872 1139 634 
Q 1406 397 1894 397 
Q 2269 397 2603 481 
Q 2938 566 3225 728 
L 3116 159 
Q 2806 34 2476 -28 
Q 2147 -91 1806 -91 
Q 1078 -91 686 257 
Q 294 606 294 1247 
Q 294 1794 489 2264 
Q 684 2734 1063 3103 
Q 1306 3334 1642 3459 
Q 1978 3584 2356 3584 
Q 2950 3584 3301 3228 
Q 3653 2872 3653 2272 
Q 3653 2128 3634 1964 
Q 3616 1800 3578 1613 
z
" transform="scale(0.015625)"/>
       <path id="DejaVuSans-Oblique-67" d="M 3816 3500 
L 3219 434 
Q 3047 -456 2561 -893 
Q 2075 -1331 1253 -1331 
Q 950 -1331 690 -1286 
Q 431 -1241 206 -1147 
L 313 -588 
Q 525 -725 762 -790 
Q 1000 -856 1269 -856 
Q 1816 -856 2167 -557 
Q 2519 -259 2631 300 
L 2681 563 
Q 2441 288 2122 144 
Q 1803 0 1434 0 
Q 903 0 598 351 
Q 294 703 294 1319 
Q 294 1803 478 2267 
Q 663 2731 997 3091 
Q 1219 3328 1514 3456 
Q 1809 3584 2131 3584 
Q 2484 3584 2746 3420 
Q 3009 3256 3138 2956 
L 3238 3500 
L 3816 3500 
z
M 2950 2216 
Q 2950 2641 2750 2872 
Q 2550 3103 2181 3103 
Q 1953 3103 1747 3012 
Q 1541 2922 1394 2759 
Q 1156 2491 1023 2127 
Q 891 1763 891 1375 
Q 891 944 1092 712 
Q 1294 481 1672 481 
Q 2219 481 2584 976 
Q 2950 1472 2950 2216 
z
" transform="scale(0.015625)"/>
       <path id="DejaVuSans-5d" d="M 1947 4863 
L 1947 -844 
L 622 -844 
L 622 -397 
L 1369 -397 
L 1369 4416 
L 622 4416 
L 622 4863 
L 1947 4863 
z
" transform="scale(0.015625)"/>
      </defs>
      <use xlink:href="#DejaVuSerif-44" transform="translate(0 0.390625)"/>
      <use xlink:href="#DejaVuSerif-72" transform="translate(80.175781 0.390625)"/>
      <use xlink:href="#DejaVuSerif-69" transform="translate(127.978516 0.390625)"/>
      <use xlink:href="#DejaVuSerif-66" transform="translate(159.960938 0.390625)"/>
      <use xlink:href="#DejaVuSerif-74" transform="translate(196.972656 0.390625)"/>
      <use xlink:href="#DejaVuSerif-20" transform="translate(237.158203 0.390625)"/>
      <use xlink:href="#DejaVuSerif-61" transform="translate(268.945312 0.390625)"/>
      <use xlink:href="#DejaVuSerif-6e" transform="translate(328.564453 0.390625)"/>
      <use xlink:href="#DejaVuSerif-67" transform="translate(392.96875 0.390625)"/>
      <use xlink:href="#DejaVuSerif-6c" transform="translate(456.982422 0.390625)"/>
      <use xlink:href="#DejaVuSerif-65" transform="translate(488.964844 0.390625)"/>
      <use xlink:href="#DejaVuSerif-20" transform="translate(548.144531 0.390625)"/>
      <use xlink:href="#DejaVuSans-Oblique-3b2" transform="translate(579.931641 0.390625)"/>
      <use xlink:href="#DejaVuSerif-20" transform="translate(643.75 0.390625)"/>
      <use xlink:href="#DejaVuSans-5b" transform="translate(675.537109 0.390625)"/>
      <use xlink:href="#DejaVuSans-Oblique-64" transform="translate(714.550781 0.390625)"/>
      <use xlink:href="#DejaVuSans-Oblique-65" transform="translate(778.027344 0.390625)"/>
      <use xlink:href="#DejaVuSans-Oblique-67" transform="translate(839.550781 0.390625)"/>
      <use xlink:href="#DejaVuSans-5d" transform="translate(903.027344 0.390625)"/>
     </g>
    </g>
   </g>
   <g id="matplotlib.axis_2">
    <g id="ytick_1">
     <g id="line2d_11">
      <path d="M 47.857271 131.96575 
L 256.19976 131.96575 
" clip-path="url(#p4244715375)" style="fill: none; stroke: #b0b0b0; stroke-width: 0.8; stroke-linecap: round"/>
     </g>
     <g id="line2d_12"/>
     <g id="text_7">
      <!-- −0.4 -->
      <g style="fill: #262626" transform="translate(17.646178 136.14489) scale(0.11 -0.11)">
       <defs>
        <path id="DejaVuSerif-2e" d="M 603 325 
Q 603 500 722 622 
Q 841 744 1019 744 
Q 1191 744 1312 622 
Q 1434 500 1434 325 
Q 1434 153 1312 31 
Q 1191 -91 1019 -91 
Q 841 -91 722 29 
Q 603 150 603 325 
z
" transform="scale(0.015625)"/>
        <path id="DejaVuSerif-34" d="M 2234 1581 
L 2234 4063 
L 641 1581 
L 2234 1581 
z
M 3609 0 
L 1484 0 
L 1484 331 
L 2234 331 
L 2234 1247 
L 197 1247 
L 197 1588 
L 2241 4750 
L 2859 4750 
L 2859 1581 
L 3750 1581 
L 3750 1247 
L 2859 1247 
L 2859 331 
L 3609 331 
L 3609 0 
z
" transform="scale(0.015625)"/>
       </defs>
       <use xlink:href="#DejaVuSerif-2212"/>
       <use xlink:href="#DejaVuSerif-30" x="83.789062"/>
       <use xlink:href="#DejaVuSerif-2e" x="147.412109"/>
       <use xlink:href="#DejaVuSerif-34" x="179.199219"/>
      </g>
     </g>
    </g>
    <g id="ytick_2">
     <g id="line2d_13">
      <path d="M 47.857271 102.096114 
L 256.19976 102.096114 
" clip-path="url(#p4244715375)" style="fill: none; stroke: #b0b0b0; stroke-width: 0.8; stroke-linecap: round"/>
     </g>
     <g id="line2d_14"/>
     <g id="text_8">
      <!-- −0.2 -->
      <g style="fill: #262626" transform="translate(17.646178 106.275254) scale(0.11 -0.11)">
       <defs>
        <path id="DejaVuSerif-32" d="M 819 3553 
L 469 3553 
L 469 4384 
Q 803 4563 1142 4656 
Q 1481 4750 1806 4750 
Q 2534 4750 2956 4397 
Q 3378 4044 3378 3438 
Q 3378 2753 2422 1800 
Q 2347 1728 2309 1691 
L 1131 513 
L 3078 513 
L 3078 1088 
L 3444 1088 
L 3444 0 
L 434 0 
L 434 341 
L 1850 1753 
Q 2319 2222 2519 2614 
Q 2719 3006 2719 3438 
Q 2719 3909 2473 4175 
Q 2228 4441 1797 4441 
Q 1350 4441 1106 4219 
Q 863 3997 819 3553 
z
" transform="scale(0.015625)"/>
       </defs>
       <use xlink:href="#DejaVuSerif-2212"/>
       <use xlink:href="#DejaVuSerif-30" x="83.789062"/>
       <use xlink:href="#DejaVuSerif-2e" x="147.412109"/>
       <use xlink:href="#DejaVuSerif-32" x="179.199219"/>
      </g>
     </g>
    </g>
    <g id="ytick_3">
     <g id="line2d_15">
      <path d="M 47.857271 72.226478 
L 256.19976 72.226478 
" clip-path="url(#p4244715375)" style="fill: none; stroke: #b0b0b0; stroke-width: 0.8; stroke-linecap: round"/>
     </g>
     <g id="line2d_16"/>
     <g id="text_9">
      <!-- 0.0 -->
      <g style="fill: #262626" transform="translate(26.863834 76.405618) scale(0.11 -0.11)">
       <use xlink:href="#DejaVuSerif-30"/>
       <use xlink:href="#DejaVuSerif-2e" x="63.623047"/>
       <use xlink:href="#DejaVuSerif-30" x="95.410156"/>
      </g>
     </g>
    </g>
    <g id="ytick_4">
     <g id="line2d_17">
      <path d="M 47.857271 42.356842 
L 256.19976 42.356842 
" clip-path="url(#p4244715375)" style="fill: none; stroke: #b0b0b0; stroke-width: 0.8; stroke-linecap: round"/>
     </g>
     <g id="line2d_18"/>
     <g id="text_10">
      <!-- 0.2 -->
      <g style="fill: #262626" transform="translate(26.863834 46.535982) scale(0.11 -0.11)">
       <use xlink:href="#DejaVuSerif-30"/>
       <use xlink:href="#DejaVuSerif-2e" x="63.623047"/>
       <use xlink:href="#DejaVuSerif-32" x="95.410156"/>
      </g>
     </g>
    </g>
    <g id="ytick_5">
     <g id="line2d_19">
      <path d="M 47.857271 12.487206 
L 256.19976 12.487206 
" clip-path="url(#p4244715375)" style="fill: none; stroke: #b0b0b0; stroke-width: 0.8; stroke-linecap: round"/>
     </g>
     <g id="line2d_20"/>
     <g id="text_11">
      <!-- 0.4 -->
      <g style="fill: #262626" transform="translate(26.863834 16.666347) scale(0.11 -0.11)">
       <use xlink:href="#DejaVuSerif-30"/>
       <use xlink:href="#DejaVuSerif-2e" x="63.623047"/>
       <use xlink:href="#DejaVuSerif-34" x="95.410156"/>
      </g>
     </g>
    </g>
    <g id="text_12">
     <!-- Yaw rate ${r}'$ $[-]$ -->
     <g style="fill: #262626" transform="translate(11.358521 112.692031) rotate(-90) scale(0.11 -0.11)">
      <defs>
       <path id="DejaVuSerif-59" d="M 1209 0 
L 1209 331 
L 1806 331 
L 1806 2009 
L 366 4331 
L -72 4331 
L -72 4666 
L 1663 4666 
L 1663 4331 
L 1119 4331 
L 2284 2444 
L 3450 4331 
L 2925 4331 
L 2925 4666 
L 4281 4666 
L 4281 4331 
L 3841 4331 
L 2438 2069 
L 2438 331 
L 3034 331 
L 3034 0 
L 1209 0 
z
" transform="scale(0.015625)"/>
       <path id="DejaVuSerif-77" d="M 3072 3322 
L 3922 728 
L 4672 2988 
L 4191 2988 
L 4191 3322 
L 5394 3322 
L 5394 2988 
L 5025 2988 
L 4038 0 
L 3559 0 
L 2741 2484 
L 1919 0 
L 1459 0 
L 475 2988 
L 103 2988 
L 103 3322 
L 1606 3322 
L 1606 2988 
L 1069 2988 
L 1813 728 
L 2669 3322 
L 3072 3322 
z
" transform="scale(0.015625)"/>
       <path id="DejaVuSans-Oblique-72" d="M 2853 2969 
Q 2766 3016 2653 3041 
Q 2541 3066 2413 3066 
Q 1953 3066 1609 2717 
Q 1266 2369 1153 1784 
L 800 0 
L 225 0 
L 909 3500 
L 1484 3500 
L 1375 2956 
Q 1603 3259 1920 3421 
Q 2238 3584 2597 3584 
Q 2691 3584 2781 3573 
Q 2872 3563 2963 3538 
L 2853 2969 
z
" transform="scale(0.015625)"/>
       <path id="Cmsy10-30" d="M 225 347 
Q 184 359 184 409 
L 966 3316 
Q 1003 3434 1093 3506 
Q 1184 3578 1300 3578 
Q 1450 3578 1564 3479 
Q 1678 3381 1678 3231 
Q 1678 3166 1644 3084 
L 488 319 
Q 466 275 428 275 
Q 394 275 320 306 
Q 247 338 225 347 
z
" transform="scale(0.015625)"/>
       <path id="DejaVuSans-2212" d="M 678 2272 
L 4684 2272 
L 4684 1741 
L 678 1741 
L 678 2272 
z
" transform="scale(0.015625)"/>
      </defs>
      <use xlink:href="#DejaVuSerif-59" transform="translate(0 0.584375)"/>
      <use xlink:href="#DejaVuSerif-61" transform="translate(66.015625 0.584375)"/>
      <use xlink:href="#DejaVuSerif-77" transform="translate(125.634766 0.584375)"/>
      <use xlink:href="#DejaVuSerif-20" transform="translate(211.230469 0.584375)"/>
      <use xlink:href="#DejaVuSerif-72" transform="translate(243.017578 0.584375)"/>
      <use xlink:href="#DejaVuSerif-61" transform="translate(290.820312 0.584375)"/>
      <use xlink:href="#DejaVuSerif-74" transform="translate(350.439453 0.584375)"/>
      <use xlink:href="#DejaVuSerif-65" transform="translate(390.625 0.584375)"/>
      <use xlink:href="#DejaVuSerif-20" transform="translate(449.804688 0.584375)"/>
      <use xlink:href="#DejaVuSans-Oblique-72" transform="translate(481.591797 0.584375)"/>
      <use xlink:href="#Cmsy10-30" transform="translate(527.354974 38.865625) scale(0.7)"/>
      <use xlink:href="#DejaVuSerif-20" transform="translate(549.332513 0.584375)"/>
      <use xlink:href="#DejaVuSans-5b" transform="translate(581.119622 0.584375)"/>
      <use xlink:href="#DejaVuSans-2212" transform="translate(620.133294 0.584375)"/>
      <use xlink:href="#DejaVuSans-5d" transform="translate(703.922357 0.584375)"/>
     </g>
    </g>
   </g>
   <g id="line2d_21">
    <path d="M 149.84849 72.775726 
L 149.737782 72.891131 
L 149.530383 73.393153 
L 148.946485 76.084581 
L 148.096396 77.693585 
L 146.615643 79.866678 
L 144.89655 81.890014 
L 144.000856 83.116169 
L 143.015387 84.952087 
L 142.668968 85.982856 
L 142.065656 88.842032 
L 141.471744 90.105413 
L 140.838053 90.809243 
L 138.506132 92.271649 
L 135.582633 94.715441 
L 134.423649 95.046117 
L 133.727307 95.133909 
L 132.937679 95.38 
L 132.180081 95.625351 
L 131.807356 95.789094 
L 131.080621 96.146762 
L 130.475295 96.116918 
L 130.182363 96.380641 
L 129.794311 97.06755 
L 129.187063 97.98679 
L 128.852972 98.073641 
L 126.282119 99.232081 
L 125.524292 98.976069 
L 125.10945 99.100311 
L 123.120253 100.802603 
L 122.628756 100.89836 
L 121.335409 100.634117 
L 120.396236 100.889842 
L 120.146162 100.920181 
L 119.74773 100.688463 
L 119.472501 101.088345 
L 118.869191 102.12464 
L 118.496494 102.183275 
L 118.177565 102.04214 
L 117.340824 101.875497 
L 116.812445 101.792425 
L 116.593416 101.539463 
L 116.423145 100.960033 
L 116.220256 99.296825 
L 116.34943 98.38101 
L 116.74757 97.38278 
L 117.395446 95.852642 
L 118.134613 93.966535 
L 121.136518 86.634926 
L 122.588562 82.684979 
L 123.384995 80.784871 
L 124.912749 77.905603 
L 126.547898 74.759542 
L 130.278896 66.961407 
L 131.186679 65.903675 
L 132.509939 64.826399 
L 135.044518 63.134975 
L 137.028745 62.124305 
L 138.376293 60.8602 
L 139.284247 60.073818 
L 141.33767 58.669544 
L 142.765661 58.155076 
L 144.657805 57.787918 
L 145.696604 57.037412 
L 146.994269 55.935873 
L 148.225913 55.111454 
L 149.111984 54.74361 
L 149.488539 54.39341 
L 149.844108 53.858999 
L 150.522324 52.780677 
L 150.999898 52.462252 
L 153.135401 51.539413 
L 154.612592 51.170429 
L 157.965532 50.110193 
L 158.718151 49.990691 
L 159.868335 49.897757 
L 160.403986 49.771575 
L 161.925568 48.848591 
L 162.580883 48.513478 
L 164.387403 48.210493 
L 164.741627 48.117371 
L 165.254418 47.947298 
L 166.100103 47.800646 
L 166.559675 47.904218 
L 166.944536 47.758443 
L 168.244712 46.705581 
L 169.060911 46.514042 
L 170.363172 46.415547 
L 171.194317 46.394906 
L 173.526976 46.513631 
L 174.15238 46.619364 
L 174.463777 46.424796 
L 175.468414 45.456923 
L 176.180149 45.529962 
L 176.897325 45.538192 
L 177.595937 45.145808 
L 178.058745 45.232474 
L 178.531886 45.462776 
L 178.87021 45.434977 
L 179.047272 45.172345 
L 179.577092 44.461164 
L 180.338168 43.984132 
L 181.36958 43.902056 
L 182.88832 44.00381 
L 183.17437 43.844031 
L 183.485985 43.965698 
L 183.880484 44.023641 
L 184.127167 43.806419 
L 184.816759 42.684627 
L 185.084088 42.619592 
L 185.34078 42.848969 
L 185.583338 43.045367 
L 186.253066 43.299975 
L 186.547328 43.143456 
L 187.120737 42.774122 
L 187.532606 43.054938 
L 187.729241 43.056177 
L 187.955442 42.780806 
L 188.667662 41.834143 
L 188.977298 41.798881 
L 189.554925 42.018825 
L 190.665412 42.119801 
L 190.97806 42.475045 
L 190.992522 42.451849 
L 191.547397 41.5544 
L 191.975343 41.360438 
L 192.240958 41.382541 
L 192.829689 41.635846 
L 192.839769 41.669063 
L 192.923812 41.548643 
L 193.156793 41.367369 
L 193.299369 41.523974 
L 193.531136 41.927927 
L 193.73781 41.813895 
L 194.475081 40.881993 
L 195.056003 41.161013 
L 195.2241 41.256116 
L 195.491435 42.196286 
L 194.967895 43.79497 
L 194.505743 45.162393 
L 192.426489 49.738066 
L 189.062921 57.01714 
L 187.797497 59.949259 
L 185.80104 64.002585 
L 183.520214 67.968316 
L 179.427285 74.518329 
L 177.433711 77.174417 
L 175.956301 78.432029 
L 173.274877 80.475632 
L 167.517261 83.713723 
L 162.161709 85.797042 
L 160.246086 87.054104 
L 159.354499 87.81016 
L 157.279586 89.262898 
L 156.595925 89.47558 
L 155.899705 89.744641 
L 155.177771 90.331669 
L 154.438716 90.891223 
L 150.877091 92.228683 
L 150.019105 92.487987 
L 149.24367 92.929012 
L 145.791884 94.774463 
L 144.397522 95.280235 
L 143.66333 95.285613 
L 142.591423 95.36853 
L 139.479017 95.865689 
L 139.028049 95.961791 
L 138.593482 96.277562 
L 137.3119 97.097925 
L 135.467238 97.320193 
L 134.898148 97.385877 
L 134.076482 97.410212 
L 133.39796 97.363309 
L 132.83356 97.321981 
L 132.095722 97.139214 
L 131.553415 97.336487 
L 130.527517 98.039757 
L 130.07342 98.314332 
L 129.705802 98.345005 
L 128.772786 98.151269 
L 128.231385 97.907464 
L 126.700272 97.911418 
L 126.375384 97.908297 
L 125.751233 97.829226 
L 125.394528 98.201646 
L 124.462066 99.391998 
L 123.716686 99.693011 
L 123.007996 99.742998 
L 121.231899 100.069559 
L 120.699495 100.108523 
L 119.065441 101.329941 
L 117.813062 101.097909 
L 117.253712 101.296246 
L 116.9756 101.625073 
L 116.50267 102.000878 
L 116.369363 101.74002 
L 116.101359 101.375668 
L 115.709828 101.622523 
L 114.608269 102.762604 
L 114.364602 102.739273 
L 113.173074 102.458612 
L 112.39647 102.719419 
L 111.816001 102.499569 
L 111.611402 102.718627 
L 111.043484 103.719066 
L 110.822606 103.796558 
L 110.562343 103.717192 
L 109.479617 103.231851 
L 108.740478 103.305858 
L 108.703004 102.953238 
L 108.844645 102.876834 
L 109.018746 103.12935 
L 108.995998 103.494136 
L 108.772175 104.030077 
L 108.465801 104.234024 
L 108.114567 104.171859 
L 107.445224 103.971429 
L 106.801717 103.899868 
L 106.447885 103.878645 
L 106.250371 103.807636 
L 105.724039 103.183719 
L 105.704848 103.208952 
L 105.706334 103.438731 
L 105.854924 104.128916 
L 105.819849 104.124197 
L 105.675029 104.075973 
L 105.482732 104.055709 
L 105.330205 104.000009 
L 105.291882 103.414914 
L 105.492317 102.009916 
L 105.912999 100.802682 
L 106.301797 99.763179 
L 107.065881 97.628346 
L 107.862798 96.234972 
L 110.622802 91.183555 
L 111.808797 88.296639 
L 113.295033 84.585752 
L 116.553257 77.979991 
L 118.605778 74.209524 
L 119.510537 72.498605 
L 121.745678 68.592451 
L 122.918126 67.301437 
L 124.104679 66.332987 
L 128.426471 63.603054 
L 135.717131 59.998215 
L 137.09904 59.102857 
L 138.198423 58.644687 
L 140.414071 57.804378 
L 143.318174 55.574837 
L 144.133051 55.332676 
L 144.705361 54.823086 
L 145.681289 53.998148 
L 146.834185 53.317833 
L 148.423672 52.599726 
L 149.469097 52.324748 
L 152.306796 51.811785 
L 153.285496 51.560489 
L 154.7381 51.290786 
L 155.626803 51.166671 
L 156.263194 51.090162 
L 156.925859 50.855746 
L 157.494566 50.535644 
L 158.132971 50.049132 
L 159.011404 49.485212 
L 159.862767 49.320357 
L 160.566741 49.10868 
L 161.019138 49.001365 
L 162.411426 48.432276 
L 162.967016 48.411061 
L 163.689455 48.553547 
L 164.391715 48.452599 
L 164.954014 48.112356 
L 165.642417 47.644147 
L 166.723739 47.228072 
L 167.544726 47.284706 
L 168.705207 47.587457 
L 170.595439 47.654381 
L 170.951607 47.83212 
L 171.323608 48.061362 
L 171.486539 47.987562 
L 171.931485 47.376486 
L 172.222334 47.050683 
L 172.753402 46.786519 
L 173.337382 46.692303 
L 174.438353 46.83787 
L 175.793002 46.510663 
L 176.328861 46.554388 
L 176.998785 46.08872 
L 177.729632 45.403987 
L 178.041297 45.331554 
L 178.542297 45.441992 
L 179.175142 45.510269 
L 180.567775 45.191513 
L 180.77458 45.112339 
L 181.087566 45.385073 
L 181.139433 45.327145 
L 181.493999 44.614415 
L 182.222744 43.640322 
L 182.547435 43.635665 
L 182.944342 43.635812 
L 183.572996 43.279208 
L 184.210983 43.323113 
L 185.54978 43.758667 
L 185.98002 43.433957 
L 186.23338 43.221547 
L 186.672416 42.843754 
L 187.012075 42.854508 
L 187.702935 42.78289 
L 188.192117 42.854417 
L 188.457696 42.938318 
L 188.793028 42.904699 
L 188.988884 43.337752 
L 189.208316 43.181248 
L 189.384277 42.757206 
L 189.669939 42.004011 
L 190.313239 42.045017 
L 190.814686 42.21707 
L 191.174823 42.270743 
L 191.325224 42.249753 
L 191.592928 42.267473 
L 192.042826 42.581248 
L 192.1744 42.274282 
L 192.577404 41.515301 
L 192.775637 41.546765 
L 193.085151 41.64443 
L 193.479827 41.759947 
L 193.974263 42.087633 
L 194.100457 42.205744 
L 194.158206 42.2439 
L 194.194272 42.169831 
L 194.834611 40.914221 
L 194.988014 40.929006 
L 195.251303 41.373432 
L 195.395211 41.96177 
L 195.330814 42.941193 
L 195.055051 44.161125 
L 192.806749 49.147061 
L 189.19288 55.503617 
L 186.112001 61.825332 
L 184.232615 65.72316 
L 182.601428 68.707618 
L 181.303922 71.672234 
L 180.272295 73.480582 
L 178.448367 75.984575 
L 175.728478 79.164269 
L 174.31886 80.490073 
L 172.940693 81.529887 
L 171.162384 82.32763 
L 168.637777 83.214725 
L 166.827605 83.732782 
L 165.622364 84.384862 
L 162.732711 86.327149 
L 160.630841 87.239887 
L 159.902485 87.582893 
L 158.892697 88.413589 
L 157.461523 89.432959 
L 157.002852 89.509239 
L 156.392894 89.685272 
L 155.599827 90.312076 
L 153.59151 92.18932 
L 152.812314 92.684332 
L 152.042597 92.988195 
L 147.961983 93.793203 
L 146.91861 94.016272 
L 145.748951 94.358856 
L 144.721625 94.519575 
L 143.561468 94.417621 
L 142.613703 94.696444 
L 142.223916 94.944952 
L 141.59132 95.597104 
L 141.178716 95.915752 
L 140.630725 96.02414 
L 138.673293 96.336153 
L 137.538487 96.716366 
L 137.228368 96.738093 
L 135.924365 96.506436 
L 135.363843 96.881162 
L 134.641037 97.412333 
L 133.303862 97.953063 
L 132.432618 98.007718 
L 131.784661 97.816994 
L 131.201719 97.764396 
L 130.401595 97.672068 
L 129.801873 97.632603 
L 129.320677 97.641437 
L 128.651064 97.554084 
L 128.052474 98.027683 
L 127.429592 98.646276 
L 127.068815 98.697895 
L 126.425356 98.665592 
L 124.159268 98.807992 
L 123.796802 98.750535 
L 123.451501 98.931104 
L 123.149992 99.304739 
L 122.677877 100.100161 
L 122.184632 100.422728 
L 121.734117 100.502512 
L 120.357131 100.630127 
L 120.037326 101.012601 
L 119.75515 101.587992 
L 119.75515 101.587992 
" clip-path="url(#p4244715375)" style="fill: none; stroke: #2a2eec; stroke-width: 1.5; stroke-linecap: round"/>
   </g>
   <g id="line2d_22">
    <path d="M 150.273794 71.346364 
L 150.302342 71.44006 
L 150.249196 72.164352 
L 149.862478 73.711783 
L 149.27097 75.131702 
L 147.644667 78.199435 
L 143.235075 86.12708 
L 141.603543 88.941936 
L 138.446497 94.067833 
L 135.771821 98.106333 
L 132.847418 102.468703 
L 129.571472 107.341687 
L 128.17616 109.042177 
L 125.43222 111.833306 
L 124.56762 112.163976 
L 123.683969 112.537333 
L 122.495138 113.430832 
L 117.874909 117.525 
L 115.686928 118.866706 
L 114.313123 119.613963 
L 112.937132 120.096426 
L 111.174693 120.576326 
L 108.689661 121.56963 
L 105.835958 123.231099 
L 104.218205 123.984586 
L 103.804618 123.965109 
L 103.11165 124.242997 
L 102.559498 124.870443 
L 100.372756 127.55598 
L 99.865277 127.868394 
L 99.086936 128.080611 
L 97.384423 128.548453 
L 94.546733 128.93713 
L 93.399561 129.059341 
L 90.618143 129.6689 
L 89.392308 130.033986 
L 88.180256 130.378405 
L 87.744496 130.229745 
L 86.643385 129.628233 
L 86.312515 129.63621 
L 85.827941 130.004147 
L 85.387806 130.465577 
L 84.14625 132.017954 
L 83.176963 132.67119 
L 82.520973 132.752457 
L 80.17791 132.526942 
L 79.278519 132.910342 
L 78.335777 133.276114 
L 76.651928 133.907495 
L 75.913536 133.919932 
L 75.192666 133.435397 
L 74.450855 133.085669 
L 73.973345 133.079905 
L 73.75365 132.752478 
L 73.682165 131.866977 
L 73.706297 130.232371 
L 74.422077 124.625943 
L 75.67378 118.11454 
L 76.18133 116.170959 
L 76.954679 113.901427 
L 79.54146 106.300502 
L 80.973781 103.067745 
L 84.627935 95.610342 
L 85.919933 92.653428 
L 88.74869 86.966207 
L 91.672828 81.516737 
L 93.852563 77.761222 
L 96.754235 73.400343 
L 100.107062 68.733438 
L 102.238196 66.065887 
L 104.186081 64.076433 
L 107.87515 60.439185 
L 112.654085 55.16425 
L 114.968966 52.98794 
L 116.919885 51.29542 
L 119.094438 49.740435 
L 121.750896 48.089518 
L 129.076284 43.522407 
L 131.685123 42.095476 
L 134.046154 40.695374 
L 134.873145 40.320203 
L 138.44375 39.311823 
L 140.515071 38.222346 
L 143.199087 36.66066 
L 145.239819 35.40049 
L 147.269171 34.592272 
L 148.849309 34.005575 
L 154.182362 32.26561 
L 155.952424 31.302948 
L 159.048357 29.981163 
L 161.282935 29.015936 
L 162.201564 28.612103 
L 162.997107 28.511809 
L 164.189078 28.410869 
L 165.058217 28.174308 
L 166.39182 27.340769 
L 168.831779 25.701756 
L 170.551179 24.814231 
L 171.744907 24.545412 
L 173.242023 24.409846 
L 174.905221 24.241344 
L 179.671402 23.515463 
L 181.863164 22.928938 
L 184.267092 22.699299 
L 185.854465 23.026923 
L 186.589295 22.593331 
L 187.259338 21.847692 
L 187.967066 20.994461 
L 188.494152 20.687683 
L 189.030432 20.622613 
L 189.723886 20.607131 
L 191.991784 20.544452 
L 195.020928 20.053255 
L 198.601338 18.751612 
L 198.89184 18.80477 
L 199.901338 19.274023 
L 200.449292 19.277332 
L 201.431972 18.890733 
L 202.567811 17.769091 
L 203.797442 16.551251 
L 204.168021 16.405705 
L 204.770967 16.328941 
L 206.591865 16.462742 
L 208.469711 16.649393 
L 209.608808 16.305727 
L 211.019947 15.930242 
L 211.217121 16.063794 
L 211.91991 16.779475 
L 212.24521 16.76435 
L 212.714003 16.445269 
L 213.616978 15.423966 
L 214.289864 14.747908 
L 214.877364 14.404665 
L 216.256659 14.178233 
L 217.244399 14.14565 
L 217.715446 14.120202 
L 221.321368 13.558803 
L 222.742891 13.010487 
L 223.057835 13.295866 
L 223.683562 13.9751 
L 223.975385 13.890928 
L 224.337991 13.519479 
L 224.679773 12.728349 
L 225.123931 11.510812 
L 225.440689 11.107144 
L 225.785356 11.099205 
L 226.154503 11.228773 
L 227.616772 11.820829 
L 229.170278 12.240009 
L 230.478045 11.947416 
L 230.845363 11.781096 
L 231.571343 11.747367 
L 232.305809 12.758353 
L 232.36076 12.708251 
L 232.546417 12.401837 
L 233.140945 10.945666 
L 233.551671 10.536267 
L 233.926045 10.384943 
L 236.714053 10.826049 
L 237.355642 10.793539 
L 237.855471 10.676938 
L 238.371623 10.739827 
L 238.686185 11.161452 
L 238.993315 11.564769 
L 239.224446 11.586788 
L 239.360131 11.483382 
L 239.59899 11.067894 
L 240.063809 10.183177 
L 240.683194 9.463415 
L 240.700834 9.489804 
L 240.913183 9.635592 
L 242.235774 10.510524 
L 242.603755 10.436364 
L 242.86869 10.36451 
L 243.17712 10.327459 
L 243.372617 10.37472 
L 243.812302 11.288314 
L 243.853925 11.253093 
L 244.026052 10.983074 
L 244.256372 10.422039 
L 244.525043 9.685574 
L 244.789769 9.338595 
L 245.045025 9.2596 
L 245.285409 9.448986 
L 246.337229 10.808421 
L 246.727453 11.188251 
L 246.692027 11.228209 
L 246.552311 11.395565 
L 246.043092 12.983275 
L 245.505148 15.074823 
L 245.075817 16.023017 
L 244.477365 16.68762 
L 243.486272 17.587912 
L 242.979329 18.112169 
L 242.331761 18.984231 
L 241.20046 21.010417 
L 239.483262 24.451942 
L 238.14154 27.944862 
L 236.643685 32.775998 
L 235.55591 36.107182 
L 233.079576 42.530157 
L 230.474799 48.416334 
L 229.260568 50.627518 
L 226.770034 54.440169 
L 223.858921 58.584565 
L 215.750259 69.797587 
L 209.79335 76.97008 
L 207.277561 79.432196 
L 198.652022 87.105417 
L 197.156178 88.410507 
L 196.010865 89.111238 
L 194.711894 89.841615 
L 193.994124 90.395308 
L 192.778858 91.754076 
L 188.010569 96.815861 
L 186.797837 97.845215 
L 184.806787 99.105347 
L 181.639501 100.469264 
L 179.86519 101.006288 
L 176.899882 101.799467 
L 175.934863 102.19394 
L 174.49859 102.941198 
L 171.680609 104.35204 
L 169.70552 105.241507 
L 166.074864 106.61816 
L 164.431253 106.992172 
L 162.641122 107.118606 
L 161.6825 107.357303 
L 159.978944 108.160314 
L 158.670528 109.037417 
L 156.77214 110.412809 
L 152.620405 112.814797 
L 151.599886 113.181225 
L 149.701792 113.716803 
L 147.714374 114.340742 
L 146.657359 114.854595 
L 144.363207 115.687063 
L 143.378567 116.04834 
L 138.914779 116.985125 
L 138.022109 117.007661 
L 137.290871 117.195612 
L 136.568775 117.55739 
L 132.471174 119.944377 
L 131.053777 120.360148 
L 129.115916 120.757167 
L 128.551178 120.850958 
L 127.330677 120.821111 
L 125.991695 120.753757 
L 124.632929 120.631207 
L 123.753012 120.647505 
L 119.186831 121.554768 
L 117.370763 121.151185 
L 116.900115 121.399945 
L 116.444084 121.848341 
L 115.721684 122.556694 
L 115.167857 122.879 
L 114.04783 123.199648 
L 113.216408 123.291669 
L 112.780055 123.391455 
L 112.225769 123.553745 
L 110.99574 123.528445 
L 110.108019 123.480685 
L 109.063229 123.71065 
L 108.475848 123.869147 
L 107.799607 124.040296 
L 104.298917 125.251366 
L 103.838445 125.073765 
L 103.114428 124.634475 
L 102.562931 124.539029 
L 102.123897 124.734948 
L 99.717952 126.705584 
L 99.381177 126.7363 
L 98.835558 126.734982 
L 97.471008 126.706237 
L 95.531435 127.171368 
L 94.972939 127.295011 
L 94.261232 127.470336 
L 93.437283 127.752586 
L 92.342026 128.16372 
L 91.906969 127.873067 
L 91.328113 127.455933 
L 90.943962 127.3483 
L 90.637804 127.516242 
L 88.451236 129.869116 
L 87.461648 130.000123 
L 87.09105 129.918099 
L 86.515781 129.779037 
L 85.652306 129.76376 
L 85.040927 129.82034 
L 83.930462 129.73774 
L 83.41964 129.866483 
L 82.442333 129.925416 
L 81.133323 130.265978 
L 80.620484 129.741283 
L 80.453727 129.795062 
L 80.119067 130.329021 
L 79.207745 132.27674 
L 78.57408 132.761636 
L 78.246996 132.766431 
L 76.01073 131.705183 
L 75.663652 131.572186 
L 75.415719 131.56151 
L 74.401613 131.617551 
L 73.720336 131.910772 
L 72.696758 132.050016 
L 71.965799 131.012227 
L 71.805742 131.126028 
L 71.44964 131.69032 
L 70.692878 132.803837 
L 70.370554 133.132292 
L 69.387702 133.249819 
L 69.138447 133.025735 
L 68.364141 132.270121 
L 66.817449 132.761467 
L 66.602291 132.814115 
L 66.214098 132.522723 
L 65.810036 132.062749 
L 65.490317 132.107529 
L 65.331455 132.485862 
L 64.853505 133.929545 
L 64.523881 134.110667 
L 64.086818 134.070476 
L 63.494171 133.755251 
L 62.89128 133.488337 
L 62.39063 133.568301 
L 61.462781 133.324234 
L 60.779676 132.461303 
L 60.761477 132.487987 
L 60.421229 133.400999 
L 60.176712 134.074292 
L 59.520391 134.201778 
L 59.308664 134.396841 
L 59.002483 134.146342 
L 58.545677 133.794107 
L 58.291605 133.515907 
L 58.124044 133.499484 
L 57.798695 133.287448 
L 57.600423 133.244714 
L 57.365992 133.065222 
L 57.34285 131.82413 
L 57.575198 131.100612 
L 58.213062 130.068315 
L 58.883407 129.079973 
L 59.770973 127.278523 
L 61.320078 123.978684 
L 62.269126 121.932521 
L 63.202509 119.819448 
L 71.92434 98.816907 
L 73.308854 96.282678 
L 75.14423 93.223096 
L 77.766679 88.874709 
L 80.914974 83.622031 
L 84.743736 77.585869 
L 86.540396 75.224422 
L 89.233868 72.245218 
L 93.407598 67.649474 
L 97.035076 63.449292 
L 99.239069 61.30099 
L 101.305383 59.725371 
L 103.83935 57.805627 
L 106.037087 55.919004 
L 110.641511 51.739307 
L 114.679661 47.980306 
L 115.882673 47.214396 
L 122.092839 44.130745 
L 126.168508 42.326973 
L 131.323529 39.722156 
L 132.234618 39.541954 
L 134.646497 39.161893 
L 135.463448 38.893428 
L 136.459734 38.441255 
L 139.560563 36.806505 
L 142.404176 35.156017 
L 150.45867 32.453992 
L 152.260703 31.489774 
L 155.807591 29.892299 
L 157.220079 29.500835 
L 158.849268 29.468092 
L 160.005385 29.06289 
L 160.669523 28.533754 
L 161.985233 27.361949 
L 163.090761 26.607721 
L 163.983158 26.235837 
L 166.002814 25.863786 
L 171.589331 25.346732 
L 173.992856 24.867484 
L 175.190721 24.768693 
L 177.006608 24.626899 
L 178.43138 24.279358 
L 178.779536 24.426041 
L 179.156028 24.773087 
L 179.492443 25.065984 
L 179.855461 25.01009 
L 180.148246 24.783522 
L 180.924012 24.082726 
L 181.510063 23.710923 
L 182.825982 23.143717 
L 183.511048 22.999696 
L 184.603238 22.613263 
L 186.733095 22.532391 
L 188.469867 22.232904 
L 189.025524 22.300372 
L 189.388372 22.164709 
L 190.458137 21.760785 
L 191.685812 21.665031 
L 192.225684 21.633254 
L 192.604437 21.593625 
L 193.513105 22.004656 
L 194.316528 21.798346 
L 195.724306 21.190701 
L 196.579792 20.540242 
L 198.46164 19.275183 
L 199.072551 19.084832 
L 199.843384 19.102559 
L 200.584847 19.193204 
L 201.681976 19.28109 
L 205.037643 18.615283 
L 205.726635 18.224845 
L 206.985015 18.599019 
L 207.201689 18.420032 
L 208.182182 17.612683 
L 210.474006 16.078931 
L 211.086038 16.039881 
L 211.732061 16.228975 
L 212.332837 16.280072 
L 212.737183 16.327739 
L 213.549841 16.525489 
L 213.845348 16.524072 
L 214.68189 16.587921 
L 216.323271 15.921631 
L 216.960684 15.629859 
L 217.263361 15.76961 
L 217.581267 16.105317 
L 217.865121 16.313035 
L 218.097661 16.124065 
L 219.375654 14.177482 
L 219.737373 13.749132 
L 220.233578 13.507786 
L 220.694651 13.389711 
L 221.069738 13.457329 
L 221.551328 13.597829 
L 221.950879 13.609106 
L 222.605281 13.653538 
L 223.075107 13.813238 
L 223.962594 13.904155 
L 224.939079 13.845227 
L 225.14958 13.809564 
L 225.428466 13.737985 
L 226.343833 14.392382 
L 226.952709 14.111003 
L 227.225714 13.831327 
L 227.974 12.433835 
L 229.286086 12.886064 
L 230.422341 13.424408 
L 230.756153 13.369632 
L 231.980622 12.617156 
L 232.508097 13.024325 
L 232.923634 13.879709 
L 233.071825 13.806986 
L 233.336923 13.484118 
L 233.596444 12.897094 
L 234.108172 11.657736 
L 234.538595 11.338725 
L 235.356795 11.696033 
L 235.805233 12.11299 
L 236.049119 12.149155 
L 237.232738 12.343863 
L 237.844119 12.167451 
L 238.101385 12.075571 
L 238.372895 11.979392 
L 238.425874 11.648447 
L 238.512881 11.863305 
L 238.730483 12.880249 
L 238.763723 12.833732 
L 238.908701 12.195409 
L 239.244025 11.467079 
L 239.538136 11.244867 
L 240.253167 11.330881 
L 240.584688 11.13549 
L 240.764753 11.066627 
L 240.784177 11.089456 
L 240.902306 11.299412 
L 241.19598 11.792542 
L 242.252256 11.791068 
L 242.376388 11.757751 
L 242.905194 12.494503 
L 243.010223 12.369883 
L 243.100364 12.092769 
L 243.33647 11.117795 
L 243.602145 10.908751 
L 243.799517 11.213029 
L 243.925448 11.889079 
L 243.686569 13.21626 
L 242.578154 16.828975 
L 240.454878 20.993177 
L 239.57879 22.383163 
L 238.24785 25.126375 
L 235.11807 32.139924 
L 234.192007 33.819235 
L 232.960698 36.518862 
L 226.90467 50.335475 
L 225.110932 54.132014 
L 222.293315 59.18258 
L 220.532903 61.699121 
L 215.999928 67.518662 
L 212.835754 71.457441 
L 210.580556 74.582508 
L 208.574747 77.405652 
L 206.726781 79.567098 
L 204.313413 81.938103 
L 198.19033 87.512463 
L 196.447314 88.819782 
L 194.031253 90.617946 
L 187.751955 95.737859 
L 185.659288 97.344354 
L 183.174997 98.941547 
L 181.515991 99.800572 
L 179.337907 101.082235 
L 176.767137 102.813926 
L 175.149328 103.868083 
L 173.268809 104.793346 
L 170.26812 105.999439 
L 165.826312 107.314683 
L 164.064086 107.852289 
L 160.483475 109.411118 
L 159.057407 110.018279 
L 153.272185 111.966258 
L 152.49548 112.306458 
L 150.666126 112.61802 
L 150.008648 112.959607 
L 148.688966 114.210219 
L 147.480694 115.187971 
L 144.71787 116.605698 
L 143.710026 117.091065 
L 138.872713 118.277856 
L 137.660184 118.448639 
L 136.768197 118.721095 
L 135.503478 119.086525 
L 134.170091 119.34472 
L 132.670671 119.78537 
L 130.48648 119.971316 
L 130.050497 119.881047 
L 128.828675 119.478463 
L 127.941763 119.452097 
L 127.334599 119.697903 
L 126.379779 120.445027 
L 124.68733 121.86055 
L 123.83265 122.163154 
L 123.205313 122.238009 
L 122.587943 122.208792 
L 122.059602 122.161079 
L 120.821641 122.159121 
L 119.562323 122.201677 
L 119.562323 122.201677 
" clip-path="url(#p4244715375)" style="fill: none; stroke: #fa7c17; stroke-width: 1.5; stroke-linecap: round"/>
   </g>
   <g id="patch_3">
    <path d="M 47.857271 140.653822 
L 47.857271 3.00024 
" style="fill: none; stroke: #000000; stroke-linejoin: miter; stroke-linecap: square"/>
   </g>
   <g id="patch_4">
    <path d="M 47.857271 140.653822 
L 256.19976 140.653822 
" style="fill: none; stroke: #000000; stroke-linejoin: miter; stroke-linecap: square"/>
   </g>
  </g>
 </g>
 <defs>
  <clipPath id="p4244715375">
   <rect x="47.857271" y="3.00024" width="208.342489" height="137.653582"/>
  </clipPath>
 </defs>
</svg>
