<?xml version="1.0" encoding="utf-8" standalone="no"?>
<!DOCTYPE svg PUBLIC "-//W3C//DTD SVG 1.1//EN"
  "http://www.w3.org/Graphics/SVG/1.1/DTD/svg11.dtd">
<svg xmlns:xlink="http://www.w3.org/1999/xlink" width="216pt" height="144pt" viewBox="0 0 216 144" xmlns="http://www.w3.org/2000/svg" version="1.1">
 <metadata>
  <rdf:RDF xmlns:dc="http://purl.org/dc/elements/1.1/" xmlns:cc="http://creativecommons.org/ns#" xmlns:rdf="http://www.w3.org/1999/02/22-rdf-syntax-ns#">
   <cc:Work>
    <dc:type rdf:resource="http://purl.org/dc/dcmitype/StillImage"/>
    <dc:date>2024-02-12T13:43:11.246224</dc:date>
    <dc:format>image/svg+xml</dc:format>
    <dc:creator>
     <cc:Agent>
      <dc:title>Matplotlib v3.8.2, https://matplotlib.org/</dc:title>
     </cc:Agent>
    </dc:creator>
   </cc:Work>
  </rdf:RDF>
 </metadata>
 <defs>
  <style type="text/css">*{stroke-linejoin: round; stroke-linecap: butt}</style>
 </defs>
 <g id="figure_1">
  <g id="patch_1">
   <path d="M 0 144 
L 216 144 
L 216 0 
L 0 0 
z
" style="fill: #ffffff"/>
  </g>
  <g id="axes_1">
   <g id="patch_2">
    <path d="M 54.856021 111.853823 
L 212.99976 111.853823 
L 212.99976 3.00024 
L 54.856021 3.00024 
z
" style="fill: #ffffff"/>
   </g>
   <g id="matplotlib.axis_1">
    <g id="xtick_1">
     <g id="line2d_1">
      <path d="M 76.535941 111.853823 
L 76.535941 3.00024 
" clip-path="url(#pa8774fbd64)" style="fill: none; stroke: #b0b0b0; stroke-width: 0.8; stroke-linecap: round"/>
     </g>
     <g id="line2d_2"/>
     <g id="text_1">
      <!-- −10 -->
      <g style="fill: #262626" transform="translate(64.928363 123.712104) scale(0.11 -0.11)">
       <defs>
        <path id="DejaVuSerif-2212" d="M 678 2259 
L 4684 2259 
L 4684 1753 
L 678 1753 
L 678 2259 
z
" transform="scale(0.015625)"/>
        <path id="DejaVuSerif-31" d="M 909 0 
L 909 331 
L 1722 331 
L 1722 4213 
L 781 3603 
L 781 4013 
L 1919 4750 
L 2350 4750 
L 2350 331 
L 3163 331 
L 3163 0 
L 909 0 
z
" transform="scale(0.015625)"/>
        <path id="DejaVuSerif-30" d="M 2034 219 
Q 2513 219 2750 744 
Q 2988 1269 2988 2328 
Q 2988 3391 2750 3916 
Q 2513 4441 2034 4441 
Q 1556 4441 1318 3916 
Q 1081 3391 1081 2328 
Q 1081 1269 1318 744 
Q 1556 219 2034 219 
z
M 2034 -91 
Q 1275 -91 848 546 
Q 422 1184 422 2328 
Q 422 3475 848 4112 
Q 1275 4750 2034 4750 
Q 2797 4750 3222 4112 
Q 3647 3475 3647 2328 
Q 3647 1184 3222 546 
Q 2797 -91 2034 -91 
z
" transform="scale(0.015625)"/>
       </defs>
       <use xlink:href="#DejaVuSerif-2212"/>
       <use xlink:href="#DejaVuSerif-31" x="83.789062"/>
       <use xlink:href="#DejaVuSerif-30" x="147.412109"/>
      </g>
     </g>
    </g>
    <g id="xtick_2">
     <g id="line2d_3">
      <path d="M 132.549393 111.853823 
L 132.549393 3.00024 
" clip-path="url(#pa8774fbd64)" style="fill: none; stroke: #b0b0b0; stroke-width: 0.8; stroke-linecap: round"/>
     </g>
     <g id="line2d_4"/>
     <g id="text_2">
      <!-- 0 -->
      <g style="fill: #262626" transform="translate(129.050018 123.712104) scale(0.11 -0.11)">
       <use xlink:href="#DejaVuSerif-30"/>
      </g>
     </g>
    </g>
    <g id="xtick_3">
     <g id="line2d_5">
      <path d="M 188.562844 111.853823 
L 188.562844 3.00024 
" clip-path="url(#pa8774fbd64)" style="fill: none; stroke: #b0b0b0; stroke-width: 0.8; stroke-linecap: round"/>
     </g>
     <g id="line2d_6"/>
     <g id="text_3">
      <!-- 10 -->
      <g style="fill: #262626" transform="translate(181.564094 123.712104) scale(0.11 -0.11)">
       <use xlink:href="#DejaVuSerif-31"/>
       <use xlink:href="#DejaVuSerif-30" x="63.623047"/>
      </g>
     </g>
    </g>
    <g id="text_4">
     <!-- Drift angle $\beta$ $[deg]$ -->
     <g style="fill: #262626" transform="translate(82.062891 138.46976) scale(0.11 -0.11)">
      <defs>
       <path id="DejaVuSerif-44" d="M 1581 331 
L 2163 331 
Q 3072 331 3558 850 
Q 4044 1369 4044 2338 
Q 4044 3306 3559 3818 
Q 3075 4331 2163 4331 
L 1581 4331 
L 1581 331 
z
M 353 0 
L 353 331 
L 947 331 
L 947 4331 
L 353 4331 
L 353 4666 
L 2209 4666 
Q 3416 4666 4089 4050 
Q 4763 3434 4763 2338 
Q 4763 1238 4088 619 
Q 3413 0 2209 0 
L 353 0 
z
" transform="scale(0.015625)"/>
       <path id="DejaVuSerif-72" d="M 3059 3328 
L 3059 2497 
L 2728 2497 
Q 2713 2744 2591 2866 
Q 2469 2988 2234 2988 
Q 1809 2988 1582 2694 
Q 1356 2400 1356 1850 
L 1356 331 
L 2022 331 
L 2022 0 
L 263 0 
L 263 331 
L 781 331 
L 781 2994 
L 231 2994 
L 231 3322 
L 1356 3322 
L 1356 2731 
Q 1525 3078 1790 3245 
Q 2056 3413 2438 3413 
Q 2578 3413 2733 3391 
Q 2888 3369 3059 3328 
z
" transform="scale(0.015625)"/>
       <path id="DejaVuSerif-69" d="M 622 4353 
Q 622 4497 726 4603 
Q 831 4709 978 4709 
Q 1122 4709 1226 4603 
Q 1331 4497 1331 4353 
Q 1331 4206 1228 4103 
Q 1125 4000 978 4000 
Q 831 4000 726 4103 
Q 622 4206 622 4353 
z
M 1356 331 
L 1900 331 
L 1900 0 
L 231 0 
L 231 331 
L 781 331 
L 781 2988 
L 231 2988 
L 231 3322 
L 1356 3322 
L 1356 331 
z
" transform="scale(0.015625)"/>
       <path id="DejaVuSerif-66" d="M 2753 4078 
L 2450 4078 
Q 2447 4313 2317 4434 
Q 2188 4556 1941 4556 
Q 1619 4556 1487 4379 
Q 1356 4203 1356 3750 
L 1356 3322 
L 2284 3322 
L 2284 2988 
L 1356 2988 
L 1356 331 
L 2094 331 
L 2094 0 
L 231 0 
L 231 331 
L 781 331 
L 781 2988 
L 231 2988 
L 231 3322 
L 781 3322 
L 781 3738 
Q 781 4294 1070 4578 
Q 1359 4863 1919 4863 
Q 2128 4863 2337 4825 
Q 2547 4788 2753 4709 
L 2753 4078 
z
" transform="scale(0.015625)"/>
       <path id="DejaVuSerif-74" d="M 691 2988 
L 184 2988 
L 184 3322 
L 691 3322 
L 691 4353 
L 1269 4353 
L 1269 3322 
L 2350 3322 
L 2350 2988 
L 1269 2988 
L 1269 878 
Q 1269 456 1350 337 
Q 1431 219 1650 219 
Q 1875 219 1978 351 
Q 2081 484 2088 781 
L 2522 781 
Q 2497 328 2275 118 
Q 2053 -91 1600 -91 
Q 1103 -91 897 129 
Q 691 350 691 878 
L 691 2988 
z
" transform="scale(0.015625)"/>
       <path id="DejaVuSerif-20" transform="scale(0.015625)"/>
       <path id="DejaVuSerif-61" d="M 2547 1044 
L 2547 1747 
L 1806 1747 
Q 1378 1747 1168 1562 
Q 959 1378 959 997 
Q 959 650 1171 447 
Q 1384 244 1747 244 
Q 2106 244 2326 466 
Q 2547 688 2547 1044 
z
M 3122 2075 
L 3122 331 
L 3634 331 
L 3634 0 
L 2547 0 
L 2547 359 
Q 2356 128 2106 18 
Q 1856 -91 1522 -91 
Q 969 -91 644 203 
Q 319 497 319 997 
Q 319 1513 691 1797 
Q 1063 2081 1741 2081 
L 2547 2081 
L 2547 2309 
Q 2547 2688 2317 2895 
Q 2088 3103 1672 3103 
Q 1328 3103 1125 2947 
Q 922 2791 872 2484 
L 575 2484 
L 575 3156 
Q 875 3284 1158 3348 
Q 1441 3413 1709 3413 
Q 2400 3413 2761 3070 
Q 3122 2728 3122 2075 
z
" transform="scale(0.015625)"/>
       <path id="DejaVuSerif-6e" d="M 263 0 
L 263 331 
L 781 331 
L 781 2988 
L 231 2988 
L 231 3322 
L 1356 3322 
L 1356 2731 
Q 1516 3069 1770 3241 
Q 2025 3413 2363 3413 
Q 2913 3413 3172 3097 
Q 3431 2781 3431 2113 
L 3431 331 
L 3944 331 
L 3944 0 
L 2356 0 
L 2356 331 
L 2853 331 
L 2853 1931 
Q 2853 2541 2703 2767 
Q 2553 2994 2175 2994 
Q 1775 2994 1565 2701 
Q 1356 2409 1356 1850 
L 1356 331 
L 1856 331 
L 1856 0 
L 263 0 
z
" transform="scale(0.015625)"/>
       <path id="DejaVuSerif-67" d="M 3359 2988 
L 3359 72 
Q 3359 -644 2965 -1033 
Q 2572 -1422 1844 -1422 
Q 1516 -1422 1216 -1362 
Q 916 -1303 641 -1184 
L 641 -488 
L 941 -488 
Q 997 -813 1206 -963 
Q 1416 -1113 1806 -1113 
Q 2313 -1113 2548 -827 
Q 2784 -541 2784 72 
L 2784 519 
Q 2616 206 2355 57 
Q 2094 -91 1709 -91 
Q 1097 -91 708 395 
Q 319 881 319 1663 
Q 319 2444 706 2928 
Q 1094 3413 1709 3413 
Q 2094 3413 2355 3264 
Q 2616 3116 2784 2803 
L 2784 3322 
L 3909 3322 
L 3909 2988 
L 3359 2988 
z
M 2784 1825 
Q 2784 2422 2554 2737 
Q 2325 3053 1888 3053 
Q 1444 3053 1217 2703 
Q 991 2353 991 1663 
Q 991 975 1217 622 
Q 1444 269 1888 269 
Q 2325 269 2554 583 
Q 2784 897 2784 1497 
L 2784 1825 
z
" transform="scale(0.015625)"/>
       <path id="DejaVuSerif-6c" d="M 1313 331 
L 1856 331 
L 1856 0 
L 184 0 
L 184 331 
L 738 331 
L 738 4531 
L 184 4531 
L 184 4863 
L 1313 4863 
L 1313 331 
z
" transform="scale(0.015625)"/>
       <path id="DejaVuSerif-65" d="M 3469 1600 
L 991 1600 
L 991 1575 
Q 991 903 1244 561 
Q 1497 219 1991 219 
Q 2369 219 2611 417 
Q 2853 616 2950 1006 
L 3413 1006 
Q 3275 459 2904 184 
Q 2534 -91 1931 -91 
Q 1203 -91 761 389 
Q 319 869 319 1663 
Q 319 2450 753 2931 
Q 1188 3413 1894 3413 
Q 2647 3413 3050 2948 
Q 3453 2484 3469 1600 
z
M 2791 1931 
Q 2772 2513 2545 2808 
Q 2319 3103 1894 3103 
Q 1497 3103 1269 2806 
Q 1041 2509 991 1931 
L 2791 1931 
z
" transform="scale(0.015625)"/>
       <path id="DejaVuSans-Oblique-3b2" d="M 872 216 
L 572 -1331 
L -6 -1331 
L 928 3478 
Q 1206 4903 2538 4903 
Q 3888 4903 3659 3700 
Q 3503 2844 2894 2531 
Q 3713 2250 3553 1416 
Q 3272 -69 1759 -66 
Q 1097 -63 872 216 
z
M 1019 966 
Q 1259 422 1875 425 
Q 2775 425 2966 1406 
Q 3138 2288 1675 2219 
L 1778 2750 
Q 2909 2731 3106 3750 
Q 3241 4438 2509 4434 
Q 1691 4434 1503 3459 
L 1019 966 
z
" transform="scale(0.015625)"/>
       <path id="DejaVuSans-5b" d="M 550 4863 
L 1875 4863 
L 1875 4416 
L 1125 4416 
L 1125 -397 
L 1875 -397 
L 1875 -844 
L 550 -844 
L 550 4863 
z
" transform="scale(0.015625)"/>
       <path id="DejaVuSans-Oblique-64" d="M 2675 525 
Q 2444 222 2128 65 
Q 1813 -91 1428 -91 
Q 903 -91 598 267 
Q 294 625 294 1247 
Q 294 1766 478 2236 
Q 663 2706 1013 3078 
Q 1244 3325 1534 3454 
Q 1825 3584 2144 3584 
Q 2481 3584 2739 3421 
Q 2997 3259 3138 2956 
L 3513 4863 
L 4091 4863 
L 3144 0 
L 2566 0 
L 2675 525 
z
M 891 1350 
Q 891 897 1095 644 
Q 1300 391 1663 391 
Q 1931 391 2161 520 
Q 2391 650 2566 903 
Q 2750 1166 2856 1509 
Q 2963 1853 2963 2188 
Q 2963 2622 2758 2865 
Q 2553 3109 2194 3109 
Q 1922 3109 1687 2981 
Q 1453 2853 1288 2613 
Q 1106 2353 998 2009 
Q 891 1666 891 1350 
z
" transform="scale(0.015625)"/>
       <path id="DejaVuSans-Oblique-65" d="M 3078 2063 
Q 3088 2113 3092 2166 
Q 3097 2219 3097 2272 
Q 3097 2653 2873 2875 
Q 2650 3097 2266 3097 
Q 1838 3097 1509 2826 
Q 1181 2556 1013 2059 
L 3078 2063 
z
M 3578 1613 
L 903 1613 
Q 884 1494 878 1425 
Q 872 1356 872 1306 
Q 872 872 1139 634 
Q 1406 397 1894 397 
Q 2269 397 2603 481 
Q 2938 566 3225 728 
L 3116 159 
Q 2806 34 2476 -28 
Q 2147 -91 1806 -91 
Q 1078 -91 686 257 
Q 294 606 294 1247 
Q 294 1794 489 2264 
Q 684 2734 1063 3103 
Q 1306 3334 1642 3459 
Q 1978 3584 2356 3584 
Q 2950 3584 3301 3228 
Q 3653 2872 3653 2272 
Q 3653 2128 3634 1964 
Q 3616 1800 3578 1613 
z
" transform="scale(0.015625)"/>
       <path id="DejaVuSans-Oblique-67" d="M 3816 3500 
L 3219 434 
Q 3047 -456 2561 -893 
Q 2075 -1331 1253 -1331 
Q 950 -1331 690 -1286 
Q 431 -1241 206 -1147 
L 313 -588 
Q 525 -725 762 -790 
Q 1000 -856 1269 -856 
Q 1816 -856 2167 -557 
Q 2519 -259 2631 300 
L 2681 563 
Q 2441 288 2122 144 
Q 1803 0 1434 0 
Q 903 0 598 351 
Q 294 703 294 1319 
Q 294 1803 478 2267 
Q 663 2731 997 3091 
Q 1219 3328 1514 3456 
Q 1809 3584 2131 3584 
Q 2484 3584 2746 3420 
Q 3009 3256 3138 2956 
L 3238 3500 
L 3816 3500 
z
M 2950 2216 
Q 2950 2641 2750 2872 
Q 2550 3103 2181 3103 
Q 1953 3103 1747 3012 
Q 1541 2922 1394 2759 
Q 1156 2491 1023 2127 
Q 891 1763 891 1375 
Q 891 944 1092 712 
Q 1294 481 1672 481 
Q 2219 481 2584 976 
Q 2950 1472 2950 2216 
z
" transform="scale(0.015625)"/>
       <path id="DejaVuSans-5d" d="M 1947 4863 
L 1947 -844 
L 622 -844 
L 622 -397 
L 1369 -397 
L 1369 4416 
L 622 4416 
L 622 4863 
L 1947 4863 
z
" transform="scale(0.015625)"/>
      </defs>
      <use xlink:href="#DejaVuSerif-44" transform="translate(0 0.390625)"/>
      <use xlink:href="#DejaVuSerif-72" transform="translate(80.175781 0.390625)"/>
      <use xlink:href="#DejaVuSerif-69" transform="translate(127.978516 0.390625)"/>
      <use xlink:href="#DejaVuSerif-66" transform="translate(159.960938 0.390625)"/>
      <use xlink:href="#DejaVuSerif-74" transform="translate(196.972656 0.390625)"/>
      <use xlink:href="#DejaVuSerif-20" transform="translate(237.158203 0.390625)"/>
      <use xlink:href="#DejaVuSerif-61" transform="translate(268.945312 0.390625)"/>
      <use xlink:href="#DejaVuSerif-6e" transform="translate(328.564453 0.390625)"/>
      <use xlink:href="#DejaVuSerif-67" transform="translate(392.96875 0.390625)"/>
      <use xlink:href="#DejaVuSerif-6c" transform="translate(456.982422 0.390625)"/>
      <use xlink:href="#DejaVuSerif-65" transform="translate(488.964844 0.390625)"/>
      <use xlink:href="#DejaVuSerif-20" transform="translate(548.144531 0.390625)"/>
      <use xlink:href="#DejaVuSans-Oblique-3b2" transform="translate(579.931641 0.390625)"/>
      <use xlink:href="#DejaVuSerif-20" transform="translate(643.75 0.390625)"/>
      <use xlink:href="#DejaVuSans-5b" transform="translate(675.537109 0.390625)"/>
      <use xlink:href="#DejaVuSans-Oblique-64" transform="translate(714.550781 0.390625)"/>
      <use xlink:href="#DejaVuSans-Oblique-65" transform="translate(778.027344 0.390625)"/>
      <use xlink:href="#DejaVuSans-Oblique-67" transform="translate(839.550781 0.390625)"/>
      <use xlink:href="#DejaVuSans-5d" transform="translate(903.027344 0.390625)"/>
     </g>
    </g>
   </g>
   <g id="matplotlib.axis_2">
    <g id="ytick_1">
     <g id="line2d_7">
      <path d="M 54.856021 87.268262 
L 212.99976 87.268262 
" clip-path="url(#pa8774fbd64)" style="fill: none; stroke: #b0b0b0; stroke-width: 0.8; stroke-linecap: round"/>
     </g>
     <g id="line2d_8"/>
     <g id="text_5">
      <!-- −0.25 -->
      <g style="fill: #262626" transform="translate(17.646178 91.447402) scale(0.11 -0.11)">
       <defs>
        <path id="DejaVuSerif-2e" d="M 603 325 
Q 603 500 722 622 
Q 841 744 1019 744 
Q 1191 744 1312 622 
Q 1434 500 1434 325 
Q 1434 153 1312 31 
Q 1191 -91 1019 -91 
Q 841 -91 722 29 
Q 603 150 603 325 
z
" transform="scale(0.015625)"/>
        <path id="DejaVuSerif-32" d="M 819 3553 
L 469 3553 
L 469 4384 
Q 803 4563 1142 4656 
Q 1481 4750 1806 4750 
Q 2534 4750 2956 4397 
Q 3378 4044 3378 3438 
Q 3378 2753 2422 1800 
Q 2347 1728 2309 1691 
L 1131 513 
L 3078 513 
L 3078 1088 
L 3444 1088 
L 3444 0 
L 434 0 
L 434 341 
L 1850 1753 
Q 2319 2222 2519 2614 
Q 2719 3006 2719 3438 
Q 2719 3909 2473 4175 
Q 2228 4441 1797 4441 
Q 1350 4441 1106 4219 
Q 863 3997 819 3553 
z
" transform="scale(0.015625)"/>
        <path id="DejaVuSerif-35" d="M 3219 4666 
L 3219 4153 
L 1081 4153 
L 1081 2816 
Q 1244 2928 1461 2984 
Q 1678 3041 1947 3041 
Q 2703 3041 3140 2622 
Q 3578 2203 3578 1478 
Q 3578 738 3136 323 
Q 2694 -91 1894 -91 
Q 1572 -91 1234 -12 
Q 897 66 544 225 
L 544 1131 
L 897 1131 
Q 925 688 1179 453 
Q 1434 219 1894 219 
Q 2388 219 2653 544 
Q 2919 869 2919 1478 
Q 2919 2084 2655 2407 
Q 2391 2731 1894 2731 
Q 1613 2731 1398 2631 
Q 1184 2531 1019 2322 
L 750 2322 
L 750 4666 
L 3219 4666 
z
" transform="scale(0.015625)"/>
       </defs>
       <use xlink:href="#DejaVuSerif-2212"/>
       <use xlink:href="#DejaVuSerif-30" x="83.789062"/>
       <use xlink:href="#DejaVuSerif-2e" x="147.412109"/>
       <use xlink:href="#DejaVuSerif-32" x="179.199219"/>
       <use xlink:href="#DejaVuSerif-35" x="242.822266"/>
      </g>
     </g>
    </g>
    <g id="ytick_2">
     <g id="line2d_9">
      <path d="M 54.856021 57.742905 
L 212.99976 57.742905 
" clip-path="url(#pa8774fbd64)" style="fill: none; stroke: #b0b0b0; stroke-width: 0.8; stroke-linecap: round"/>
     </g>
     <g id="line2d_10"/>
     <g id="text_6">
      <!-- 0.00 -->
      <g style="fill: #262626" transform="translate(26.863834 61.922046) scale(0.11 -0.11)">
       <use xlink:href="#DejaVuSerif-30"/>
       <use xlink:href="#DejaVuSerif-2e" x="63.623047"/>
       <use xlink:href="#DejaVuSerif-30" x="95.410156"/>
       <use xlink:href="#DejaVuSerif-30" x="159.033203"/>
      </g>
     </g>
    </g>
    <g id="ytick_3">
     <g id="line2d_11">
      <path d="M 54.856021 28.217549 
L 212.99976 28.217549 
" clip-path="url(#pa8774fbd64)" style="fill: none; stroke: #b0b0b0; stroke-width: 0.8; stroke-linecap: round"/>
     </g>
     <g id="line2d_12"/>
     <g id="text_7">
      <!-- 0.25 -->
      <g style="fill: #262626" transform="translate(26.863834 32.396689) scale(0.11 -0.11)">
       <use xlink:href="#DejaVuSerif-30"/>
       <use xlink:href="#DejaVuSerif-2e" x="63.623047"/>
       <use xlink:href="#DejaVuSerif-32" x="95.410156"/>
       <use xlink:href="#DejaVuSerif-35" x="159.033203"/>
      </g>
     </g>
    </g>
    <g id="text_8">
     <!-- Yaw rate ${r}'$ $[-]$ -->
     <g style="fill: #262626" transform="translate(11.358521 98.292031) rotate(-90) scale(0.11 -0.11)">
      <defs>
       <path id="DejaVuSerif-59" d="M 1209 0 
L 1209 331 
L 1806 331 
L 1806 2009 
L 366 4331 
L -72 4331 
L -72 4666 
L 1663 4666 
L 1663 4331 
L 1119 4331 
L 2284 2444 
L 3450 4331 
L 2925 4331 
L 2925 4666 
L 4281 4666 
L 4281 4331 
L 3841 4331 
L 2438 2069 
L 2438 331 
L 3034 331 
L 3034 0 
L 1209 0 
z
" transform="scale(0.015625)"/>
       <path id="DejaVuSerif-77" d="M 3072 3322 
L 3922 728 
L 4672 2988 
L 4191 2988 
L 4191 3322 
L 5394 3322 
L 5394 2988 
L 5025 2988 
L 4038 0 
L 3559 0 
L 2741 2484 
L 1919 0 
L 1459 0 
L 475 2988 
L 103 2988 
L 103 3322 
L 1606 3322 
L 1606 2988 
L 1069 2988 
L 1813 728 
L 2669 3322 
L 3072 3322 
z
" transform="scale(0.015625)"/>
       <path id="DejaVuSans-Oblique-72" d="M 2853 2969 
Q 2766 3016 2653 3041 
Q 2541 3066 2413 3066 
Q 1953 3066 1609 2717 
Q 1266 2369 1153 1784 
L 800 0 
L 225 0 
L 909 3500 
L 1484 3500 
L 1375 2956 
Q 1603 3259 1920 3421 
Q 2238 3584 2597 3584 
Q 2691 3584 2781 3573 
Q 2872 3563 2963 3538 
L 2853 2969 
z
" transform="scale(0.015625)"/>
       <path id="Cmsy10-30" d="M 225 347 
Q 184 359 184 409 
L 966 3316 
Q 1003 3434 1093 3506 
Q 1184 3578 1300 3578 
Q 1450 3578 1564 3479 
Q 1678 3381 1678 3231 
Q 1678 3166 1644 3084 
L 488 319 
Q 466 275 428 275 
Q 394 275 320 306 
Q 247 338 225 347 
z
" transform="scale(0.015625)"/>
       <path id="DejaVuSans-2212" d="M 678 2272 
L 4684 2272 
L 4684 1741 
L 678 1741 
L 678 2272 
z
" transform="scale(0.015625)"/>
      </defs>
      <use xlink:href="#DejaVuSerif-59" transform="translate(0 0.584375)"/>
      <use xlink:href="#DejaVuSerif-61" transform="translate(66.015625 0.584375)"/>
      <use xlink:href="#DejaVuSerif-77" transform="translate(125.634766 0.584375)"/>
      <use xlink:href="#DejaVuSerif-20" transform="translate(211.230469 0.584375)"/>
      <use xlink:href="#DejaVuSerif-72" transform="translate(243.017578 0.584375)"/>
      <use xlink:href="#DejaVuSerif-61" transform="translate(290.820312 0.584375)"/>
      <use xlink:href="#DejaVuSerif-74" transform="translate(350.439453 0.584375)"/>
      <use xlink:href="#DejaVuSerif-65" transform="translate(390.625 0.584375)"/>
      <use xlink:href="#DejaVuSerif-20" transform="translate(449.804688 0.584375)"/>
      <use xlink:href="#DejaVuSans-Oblique-72" transform="translate(481.591797 0.584375)"/>
      <use xlink:href="#Cmsy10-30" transform="translate(527.354974 38.865625) scale(0.7)"/>
      <use xlink:href="#DejaVuSerif-20" transform="translate(549.332513 0.584375)"/>
      <use xlink:href="#DejaVuSans-5b" transform="translate(581.119622 0.584375)"/>
      <use xlink:href="#DejaVuSans-2212" transform="translate(620.133294 0.584375)"/>
      <use xlink:href="#DejaVuSans-5d" transform="translate(703.922357 0.584375)"/>
     </g>
    </g>
   </g>
   <g id="line2d_13">
    <path d="M 132.273128 58.17724 
L 132.1762 58.29014 
L 132.008375 58.882623 
L 131.860334 60.035459 
L 131.49412 61.003352 
L 130.562725 62.68681 
L 129.415022 64.298052 
L 128.061186 66.001121 
L 127.287699 67.360703 
L 126.848355 68.497524 
L 126.097856 71.574692 
L 125.607743 72.299212 
L 125.267498 72.521684 
L 124.53906 72.898877 
L 123.466026 73.775459 
L 122.060878 75.125515 
L 121.376529 75.554077 
L 120.631656 75.780579 
L 119.57002 75.998882 
L 118.23305 76.593802 
L 117.957416 76.645124 
L 117.507768 76.673133 
L 117.152551 77.148491 
L 116.610753 78.109806 
L 115.826812 78.357374 
L 114.521012 79.130201 
L 113.538024 78.962426 
L 113.045318 79.461122 
L 112.258936 80.189638 
L 111.652034 80.418543 
L 111.225156 80.283742 
L 110.778758 80.164464 
L 110.424418 80.28573 
L 110.027444 80.362585 
L 109.705445 80.411653 
L 109.424948 80.25005 
L 109.409125 80.265557 
L 108.534822 81.44431 
L 107.055716 80.96563 
L 106.914858 80.535541 
L 106.747395 79.149571 
L 106.868835 78.340389 
L 107.374737 77.129022 
L 112.983956 62.933935 
L 115.042738 58.770565 
L 117.546625 53.400665 
L 118.264758 52.594554 
L 120.104185 51.170766 
L 121.22254 50.468965 
L 122.447228 49.836466 
L 123.657987 48.656597 
L 124.56087 47.88751 
L 125.812933 47.022365 
L 126.989161 46.60201 
L 128.526556 46.200038 
L 129.304615 45.558405 
L 130.318776 44.688299 
L 132.168827 43.41558 
L 132.876555 42.281195 
L 133.261738 42.058291 
L 134.080777 41.636827 
L 134.768079 41.384006 
L 136.235941 40.991584 
L 138.689238 40.183874 
L 140.215669 40.012537 
L 140.850443 39.66407 
L 141.982872 38.980565 
L 143.308985 38.751565 
L 143.60779 38.660043 
L 144.469525 38.368563 
L 145.063905 38.498389 
L 145.282518 38.363026 
L 146.693223 37.425795 
L 148.720306 37.34611 
L 149.239764 37.312515 
L 149.910948 37.303745 
L 150.207099 37.391115 
L 150.684552 37.505922 
L 150.988296 37.303926 
L 151.827523 36.568964 
L 152.804724 36.638365 
L 153.394297 36.323773 
L 153.761617 36.448527 
L 154.279593 36.576605 
L 154.514392 36.231152 
L 154.960957 35.674497 
L 155.592636 35.379827 
L 156.319031 35.347564 
L 157.454432 35.313348 
L 157.634064 35.312508 
L 158.105337 35.44069 
L 158.318762 35.215595 
L 158.86911 34.33343 
L 159.039207 34.339678 
L 159.983691 34.850233 
L 160.672459 34.511595 
L 161.063117 34.641373 
L 161.879601 33.660391 
L 162.32089 33.805182 
L 162.746839 33.913267 
L 163.288365 33.990967 
L 163.492799 34.216093 
L 163.503776 34.197749 
L 163.983826 33.444758 
L 164.277171 33.325154 
L 164.534647 33.411019 
L 164.960496 33.502029 
L 165.159813 33.345464 
L 165.241862 33.434229 
L 165.477479 33.782727 
L 165.496538 33.771495 
L 165.744068 33.405623 
L 166.093239 32.93334 
L 166.111156 32.944804 
L 166.385589 33.177761 
L 166.41553 33.213583 
L 166.349746 33.164964 
L 166.499298 33.198417 
L 166.672218 33.193631 
L 166.808962 33.469063 
L 166.946936 33.884597 
L 166.782334 34.35054 
L 165.416446 38.078405 
L 162.242616 45.202893 
L 160.514906 49.308929 
L 159.332815 51.669196 
L 155.935679 57.769379 
L 153.785391 60.97303 
L 152.969477 61.883131 
L 149.860815 64.388236 
L 146.35913 66.536266 
L 144.502235 67.281965 
L 141.785919 68.368526 
L 140.213945 69.413725 
L 139.488727 70.066156 
L 137.789716 71.277259 
L 136.560331 71.82323 
L 135.688736 72.531507 
L 134.84099 72.848765 
L 132.908723 73.584039 
L 132.258712 73.83878 
L 129.489711 75.45794 
L 128.207384 75.962021 
L 127.441147 75.97964 
L 126.700684 76.055978 
L 124.691833 76.441338 
L 123.967046 76.563889 
L 122.721365 77.417412 
L 121.901714 77.550214 
L 120.638601 77.677788 
L 119.40699 77.607746 
L 118.762226 77.449689 
L 118.34383 77.624739 
L 117.070969 78.400429 
L 116.249696 78.226007 
L 115.69118 78.039687 
L 115.048923 78.053631 
L 114.001478 77.972694 
L 113.611806 78.428211 
L 113.003395 79.224832 
L 112.364435 79.464563 
L 111.153754 79.622476 
L 110.35597 79.755016 
L 110.113752 79.820573 
L 109.590223 80.34757 
L 109.186331 80.687415 
L 108.907052 80.757317 
L 107.883879 80.58479 
L 107.436855 80.846265 
L 106.961763 81.28788 
L 106.927304 81.241881 
L 106.591614 80.801818 
L 106.359951 80.988685 
L 105.496315 81.89832 
L 104.917084 81.772003 
L 104.434412 81.649846 
L 103.81986 81.84084 
L 103.404317 81.682234 
L 103.232049 81.893899 
L 102.777886 82.682028 
L 102.515878 82.679752 
L 101.687877 82.247773 
L 101.342849 82.377351 
L 101.108273 82.381006 
L 101.021693 82.094192 
L 101.128819 81.972375 
L 101.168967 81.998101 
L 101.297916 82.272323 
L 101.199695 82.682185 
L 100.926472 83.038326 
L 100.550144 82.99178 
L 100.246961 82.885449 
L 99.794902 82.782028 
L 99.179688 82.716626 
L 98.780173 82.223246 
L 98.756045 82.268296 
L 98.801782 82.508217 
L 98.910514 82.947858 
L 98.75871 82.93363 
L 98.469299 82.746611 
L 98.486986 81.976129 
L 98.740719 80.81328 
L 100.029732 77.378344 
L 102.570418 72.567169 
L 103.465407 70.265065 
L 104.441111 67.710161 
L 106.751244 62.769502 
L 110.859907 54.975578 
L 111.9172 53.765261 
L 112.829323 53.015565 
L 116.58553 50.636073 
L 120.800638 48.561032 
L 123.506324 46.975748 
L 125.169034 46.289676 
L 126.365033 45.230912 
L 127.104868 44.620997 
L 128.118536 44.237687 
L 129.404814 43.128696 
L 130.922041 42.333633 
L 131.884813 42.020646 
L 134.38585 41.520033 
L 135.13501 41.361933 
L 138.024959 40.628403 
L 139.36363 39.753906 
L 139.912124 39.61138 
L 140.344523 39.466739 
L 140.752281 39.37697 
L 141.925282 38.90436 
L 142.286838 38.930894 
L 143.015245 39.01424 
L 143.536641 38.82986 
L 144.604198 38.134502 
L 145.190972 37.973714 
L 145.903203 38.085705 
L 146.397217 38.236341 
L 148.431263 38.567026 
L 148.642424 38.62142 
L 148.854169 38.420542 
L 149.338049 37.787073 
L 150.031163 37.539168 
L 150.47346 37.638479 
L 150.97418 37.653994 
L 151.837271 37.378805 
L 152.421191 37.416472 
L 152.915708 37.032741 
L 153.4052 36.552774 
L 153.710932 36.474934 
L 154.092187 36.572778 
L 154.464782 36.623104 
L 155.382162 36.49902 
L 155.782568 36.338473 
L 155.97845 36.523003 
L 156.014148 36.48137 
L 156.163774 36.191394 
L 156.469175 35.586155 
L 156.779806 35.172906 
L 157.061436 35.124007 
L 157.394753 35.134003 
L 157.899444 34.849465 
L 158.987779 35.160215 
L 159.256257 35.315537 
L 159.825498 34.885729 
L 160.257126 34.497958 
L 161.258086 34.462642 
L 161.745245 34.522061 
L 161.816443 34.501045 
L 161.834236 34.555854 
L 162.012714 34.894224 
L 162.16958 34.742742 
L 162.367596 34.142348 
L 162.561313 33.838235 
L 163.98068 34.07515 
L 164.250827 34.315138 
L 164.356053 34.188893 
L 164.706791 33.457147 
L 164.879967 33.496251 
L 165.499413 33.752252 
L 165.747779 33.897742 
L 165.914407 34.027814 
L 165.949091 33.924481 
L 166.184543 33.392851 
L 166.296232 33.238252 
L 166.500408 32.966556 
L 166.616344 33.112913 
L 166.840188 33.735871 
L 166.796786 34.584713 
L 166.529497 35.691551 
L 164.952336 39.36671 
L 162.137747 44.518816 
L 159.536648 50.115312 
L 158.211345 52.882753 
L 157.24837 54.674758 
L 155.778636 58.029071 
L 154.795401 59.590152 
L 153.121478 61.828032 
L 151.044951 64.094507 
L 149.913758 65.031793 
L 148.800601 65.590907 
L 145.75674 66.61899 
L 144.804854 67.018112 
L 144.055662 67.504092 
L 142.444598 68.662685 
L 141.214881 69.270354 
L 139.438153 70.264642 
L 138.282445 71.257024 
L 137.757465 71.412168 
L 137.359702 71.488229 
L 136.761579 71.931645 
L 135.755489 72.948995 
L 134.602935 73.876381 
L 133.852672 74.180949 
L 131.690204 74.67385 
L 129.591271 75.120906 
L 128.450056 75.381488 
L 127.318739 75.323418 
L 126.446652 75.740934 
L 126.107736 76.090866 
L 125.692278 76.47589 
L 125.116374 76.591684 
L 122.561469 77.070579 
L 121.925775 76.882097 
L 121.444381 77.105651 
L 120.085514 77.957145 
L 119.359568 78.176362 
L 118.609986 77.994041 
L 118.068637 77.938549 
L 116.561686 77.778999 
L 116.267152 77.735884 
L 115.825418 78.028605 
L 115.138481 78.663127 
L 114.419208 78.660039 
L 113.796344 78.737372 
L 112.950565 78.830403 
L 112.498422 78.717577 
L 112.236319 78.860367 
L 111.985738 79.205449 
L 111.582427 79.849831 
L 111.187232 80.081538 
L 110.52812 80.099547 
L 110.181139 80.072348 
L 109.677514 80.451016 
L 109.43058 80.961378 
L 109.43058 80.961378 
" clip-path="url(#pa8774fbd64)" style="fill: none; stroke: #2a2eec; stroke-width: 1.5; stroke-linecap: round"/>
   </g>
   <g id="line2d_14">
    <path d="M 132.595958 57.04693 
L 132.619397 57.1456 
L 132.544965 57.874832 
L 132.191552 59.185974 
L 131.586428 60.557127 
L 130.010058 63.518143 
L 127.468911 68.276193 
L 126.663075 69.784367 
L 122.205914 77.272325 
L 116.541776 85.988129 
L 115.377776 87.368437 
L 113.845584 89.006233 
L 112.97233 89.363598 
L 112.412776 89.619889 
L 111.396914 90.434917 
L 107.748507 93.74114 
L 105.561701 95.081511 
L 104.646403 95.475901 
L 101.682393 96.452095 
L 99.545255 97.656299 
L 98.30044 98.416073 
L 97.699112 98.679038 
L 97.060934 98.718931 
L 96.549207 99.117275 
L 95.065863 101.15018 
L 94.254854 101.7776 
L 92.157141 102.338667 
L 87.998589 103.000364 
L 85.295634 103.692366 
L 84.045727 103.141324 
L 83.612013 103.489084 
L 81.796665 105.470011 
L 81.417499 105.606673 
L 80.631974 105.503728 
L 79.532899 105.396627 
L 78.381622 105.840056 
L 77.159483 106.392384 
L 76.009456 106.44346 
L 75.172495 105.903734 
L 74.512838 105.605604 
L 74.454997 104.810023 
L 74.507097 103.3532 
L 75.931146 94.221383 
L 76.466546 92.125314 
L 79.713203 82.752421 
L 81.224311 79.696864 
L 82.176088 77.702562 
L 84.357579 72.594123 
L 89.76905 62.119666 
L 92.332228 58.126034 
L 94.155122 55.486474 
L 96.134221 52.871239 
L 97.785445 51.127829 
L 100.412987 48.42176 
L 104.337624 43.947734 
L 107.11998 41.314388 
L 109.623065 39.498407 
L 113.857307 36.694059 
L 116.034329 35.32507 
L 119.984495 32.969161 
L 121.067672 32.469091 
L 124.313488 31.37414 
L 127.844398 29.152336 
L 128.622486 28.687921 
L 131.654965 27.473113 
L 135.315323 26.266822 
L 140.229706 23.912664 
L 142.13407 23.183769 
L 143.70766 22.947267 
L 144.26377 22.65892 
L 147.215637 20.615391 
L 148.352069 20.136419 
L 149.463665 19.971076 
L 153.770343 19.465398 
L 154.614359 19.278786 
L 155.820833 18.960219 
L 156.671415 18.746047 
L 158.653213 18.659148 
L 159.26207 18.844393 
L 159.6037 18.836923 
L 160.232079 18.424699 
L 160.777674 17.74264 
L 161.424977 17.061527 
L 161.882024 16.934144 
L 166.228069 16.607769 
L 166.91385 16.328893 
L 169.42761 15.465695 
L 170.597288 15.882663 
L 171.189073 15.704083 
L 171.580693 15.426784 
L 173.579063 13.578104 
L 174.342739 13.543615 
L 177.057119 13.708336 
L 178.213092 13.374822 
L 178.705725 13.225016 
L 178.893968 13.378162 
L 179.388848 13.896572 
L 179.635769 13.884611 
L 180.057452 13.565161 
L 180.604838 12.923112 
L 181.187777 12.290051 
L 181.708136 11.999807 
L 182.361123 11.887475 
L 184.512177 11.752313 
L 185.545097 11.607297 
L 187.202693 11.047132 
L 187.655001 10.943834 
L 188.026463 11.394024 
L 188.36167 11.683045 
L 188.584084 11.580627 
L 188.854855 11.243281 
L 189.161393 10.40386 
L 189.579744 9.474422 
L 189.773889 9.381666 
L 190.046672 9.447199 
L 191.019267 9.881225 
L 192.791538 10.287045 
L 193.09242 10.260081 
L 193.35298 10.152066 
L 193.8721 9.902125 
L 194.305397 9.917286 
L 194.862899 10.716752 
L 194.927658 10.656401 
L 195.06669 10.369518 
L 195.55438 9.202696 
L 195.871344 8.904199 
L 196.170447 8.83669 
L 196.484947 8.902758 
L 196.991521 9.005872 
L 198.171714 9.191605 
L 199.535685 9.192746 
L 200.014282 9.814948 
L 200.251681 9.667891 
L 200.457465 9.23533 
L 201.053424 8.232521 
L 201.263859 8.140727 
L 201.956105 8.762553 
L 202.628894 8.889524 
L 203.243416 8.79869 
L 203.503531 9.44672 
L 203.596979 9.554276 
L 203.645297 9.512231 
L 203.802699 9.2408 
L 203.977437 8.681818 
L 204.27381 8.059869 
L 204.560802 7.960219 
L 204.808495 8.24125 
L 205.231915 8.928025 
L 205.782853 9.506747 
L 205.756963 9.527747 
L 205.620471 9.797648 
L 205.427222 10.298702 
L 205.290274 10.894616 
L 204.841805 12.670367 
L 204.494277 13.388133 
L 202.221884 16.060442 
L 200.585928 19.343976 
L 199.803433 21.262589 
L 198.852638 24.149217 
L 197.107094 29.823417 
L 195.264937 34.723915 
L 193.716647 38.389612 
L 192.551389 40.662898 
L 190.354737 44.144945 
L 183.662675 54.026324 
L 180.82229 57.722271 
L 178.209832 60.99965 
L 176.503618 62.819403 
L 174.630478 64.559872 
L 170.204798 68.576947 
L 168.18234 70.540898 
L 167.16808 71.166295 
L 166.053555 71.867792 
L 165.391931 72.545559 
L 162.478146 75.848684 
L 160.319773 78.001668 
L 158.625801 79.086917 
L 156.404305 80.076712 
L 154.672771 80.604948 
L 152.257533 81.357451 
L 150.801927 82.134417 
L 147.676581 83.701591 
L 145.389544 84.661462 
L 143.498853 85.223176 
L 141.401948 85.481407 
L 140.523084 85.842695 
L 139.399393 86.538448 
L 136.518909 88.589578 
L 134.763336 89.65275 
L 133.475654 90.158549 
L 131.22318 90.821559 
L 130.653213 91.045987 
L 129.850879 91.452332 
L 127.981977 92.171021 
L 126.995739 92.49261 
L 125.353272 92.874569 
L 124.208684 93.145165 
L 122.960738 93.217678 
L 122.080335 93.661722 
L 119.994319 95.046319 
L 118.478925 95.711183 
L 117.184815 95.938452 
L 115.693492 96.183948 
L 114.363544 96.139757 
L 112.184131 96.082727 
L 111.403984 96.264951 
L 109.847787 96.632237 
L 109.083563 96.764555 
L 108.485331 96.566713 
L 107.922291 96.435373 
L 107.481271 96.476786 
L 107.055358 96.834724 
L 106.16196 97.688933 
L 105.098401 98.051425 
L 103.420431 98.355537 
L 101.581524 98.372003 
L 98.577093 99.419674 
L 97.698424 99.673881 
L 97.265442 99.46491 
L 96.659922 99.138334 
L 96.309995 99.12611 
L 95.69347 99.566601 
L 94.671094 100.540147 
L 94.180998 100.841721 
L 91.612679 100.986931 
L 90.619479 101.289953 
L 89.959766 101.462266 
L 88.550978 101.94381 
L 88.230409 101.685879 
L 87.61468 101.341625 
L 87.411872 101.399524 
L 87.156815 101.638008 
L 86.135796 102.932438 
L 85.669138 103.325502 
L 84.846212 103.4312 
L 83.612079 103.235825 
L 82.509605 103.234416 
L 82.100427 103.29628 
L 80.447852 103.614149 
L 80.154478 103.678234 
L 79.629462 103.229939 
L 79.598576 103.266941 
L 79.306971 103.784884 
L 78.467803 105.446266 
L 78.069143 105.637297 
L 77.544053 105.463789 
L 75.72133 104.661582 
L 74.119097 105.064968 
L 73.808332 105.119242 
L 73.710597 105.050111 
L 73.128723 104.235249 
L 72.91472 104.503963 
L 72.548947 105.066479 
L 72.151675 105.70302 
L 71.903775 105.915374 
L 71.548471 106.052075 
L 71.239939 106.020987 
L 70.941125 105.735782 
L 70.505879 105.224672 
L 68.945314 105.645464 
L 68.328907 105.030715 
L 68.223981 105.120695 
L 67.969335 105.954216 
L 67.693058 106.593803 
L 67.46713 106.685131 
L 66.906265 106.504786 
L 66.155372 106.244822 
L 65.998903 106.25584 
L 65.219242 106.128153 
L 64.835159 105.430112 
L 64.718001 105.356065 
L 64.680493 105.376429 
L 64.598392 105.480825 
L 64.392776 106.118441 
L 64.184577 106.651589 
L 63.405458 106.800344 
L 63.014453 106.47431 
L 62.064809 105.744002 
L 62.121772 104.574754 
L 62.438952 103.936454 
L 63.603813 101.882102 
L 66.979953 94.165343 
L 70.337049 85.735815 
L 70.932992 84.217382 
L 71.97324 81.397299 
L 73.234464 78.542147 
L 74.909647 75.444289 
L 79.472258 67.575944 
L 82.490579 62.536106 
L 83.820219 60.625021 
L 85.434296 58.681139 
L 90.622939 52.627892 
L 92.378007 50.593278 
L 94.225102 48.787234 
L 96.298469 47.203179 
L 98.202241 45.599496 
L 103.334382 40.716412 
L 105.008107 39.043118 
L 105.874736 38.356092 
L 108.564724 36.802496 
L 110.551008 35.77453 
L 113.437312 34.559057 
L 118.211634 32.039166 
L 119.071607 31.876268 
L 121.50259 31.328874 
L 124.044167 29.972493 
L 126.622473 28.428358 
L 132.854726 26.233952 
L 134.993797 25.105363 
L 135.66308 24.813035 
L 136.903349 24.22719 
L 137.758594 23.947372 
L 138.996897 23.944067 
L 139.659096 23.790391 
L 140.386109 23.289236 
L 142.084006 21.796909 
L 143.222451 21.310075 
L 143.916843 21.135879 
L 148.202338 20.795005 
L 150.482195 20.301882 
L 153.497947 19.964242 
L 154.104882 19.872049 
L 154.519208 20.217754 
L 154.774566 20.44937 
L 155.101873 20.381877 
L 157.04725 18.991352 
L 157.641775 18.87488 
L 158.479284 18.549793 
L 158.835758 18.521698 
L 159.616627 18.576781 
L 162.86737 17.901012 
L 163.554416 17.793267 
L 164.787985 17.739081 
L 165.417041 18.028536 
L 166.107233 17.835997 
L 166.933037 17.478307 
L 167.824441 16.809523 
L 168.978866 16.012793 
L 169.636976 15.7196 
L 170.363291 15.743123 
L 172.200178 15.757934 
L 172.815568 15.638298 
L 173.178723 15.651408 
L 173.821055 15.505501 
L 174.86564 15.09901 
L 175.512886 15.373841 
L 175.727756 15.286878 
L 176.604642 14.515518 
L 177.17986 14.03018 
L 178.022883 13.411241 
L 178.893502 13.328246 
L 179.766913 13.494313 
L 180.009204 13.539348 
L 180.626058 13.695725 
L 180.906502 13.706546 
L 181.344515 13.773108 
L 181.87357 13.557669 
L 183.409385 13.072121 
L 184.04506 13.431169 
L 185.384811 11.452621 
L 185.990518 11.216504 
L 186.38722 11.295759 
L 186.652231 11.385701 
L 187.410286 11.402856 
L 188.72849 11.623227 
L 189.741974 11.568984 
L 190.337422 12.008908 
L 190.8916 11.72766 
L 191.072545 11.402177 
L 191.466029 10.538114 
L 191.705062 10.481709 
L 192.036525 10.665495 
L 192.421307 10.732267 
L 193.686622 11.200139 
L 194.616064 10.605096 
L 195.039761 10.99259 
L 195.331863 11.603497 
L 195.493573 11.510582 
L 195.842564 10.826466 
L 196.264128 9.807419 
L 196.668495 9.616456 
L 197.220166 9.930261 
L 197.51916 10.206413 
L 197.752913 10.243573 
L 197.987503 10.260624 
L 198.304837 10.351004 
L 198.514987 10.399981 
L 198.942589 10.300742 
L 199.487849 9.960633 
L 199.508375 9.839062 
L 199.585702 10.081452 
L 199.73959 10.813145 
L 199.77757 10.74363 
L 199.932867 10.112329 
L 200.194066 9.609361 
L 200.483074 9.52699 
L 200.676978 9.544286 
L 201.087506 9.485413 
L 201.326043 9.411326 
L 201.337378 9.426335 
L 201.745326 10.005965 
L 201.986428 9.99391 
L 202.237541 10.019005 
L 202.287019 10.04124 
L 202.342412 9.993514 
L 202.648212 10.123152 
L 202.894002 10.508633 
L 202.988155 10.409558 
L 203.063227 10.142114 
L 203.278953 9.354038 
L 203.503659 9.31379 
L 203.617867 9.578968 
L 203.682863 10.029348 
L 203.479261 11.161461 
L 202.660191 13.935715 
L 200.965426 17.350349 
L 200.134039 18.809237 
L 199.532734 20.08381 
L 197.428398 25.269068 
L 194.709016 31.017941 
L 192.871009 35.285507 
L 190.973253 39.929144 
L 189.276925 43.676235 
L 187.10633 47.676056 
L 185.560115 49.92623 
L 180.458718 56.63227 
L 178.56219 59.314188 
L 176.652507 62.093394 
L 175.240977 63.772117 
L 172.634258 66.379223 
L 167.971616 70.619245 
L 163.350744 74.240154 
L 161.781692 75.650972 
L 160.302455 76.931794 
L 157.977398 78.662478 
L 154.35048 80.774116 
L 153.043698 81.689263 
L 151.119453 82.971288 
L 149.166249 83.868092 
L 140.957641 86.809195 
L 139.263217 87.627873 
L 134.871906 89.168295 
L 134.282343 89.437318 
L 132.794316 89.719446 
L 132.184 90.132553 
L 130.366239 91.769804 
L 128.875039 92.567349 
L 127.244667 93.337537 
L 121.814829 94.694612 
L 120.940226 94.868357 
L 118.543296 95.451396 
L 117.465164 95.49346 
L 116.821718 95.248504 
L 116.122727 95.082388 
L 115.644683 95.08794 
L 115.18381 95.282319 
L 114.353439 95.973003 
L 113.372569 96.852551 
L 112.703448 97.179123 
L 112.128754 97.284902 
L 111.348751 97.237767 
L 110.337138 97.222038 
L 109.284213 97.262251 
L 109.284213 97.262251 
" clip-path="url(#pa8774fbd64)" style="fill: none; stroke: #fa7c17; stroke-width: 1.5; stroke-linecap: round"/>
   </g>
   <g id="patch_3">
    <path d="M 54.856021 111.853823 
L 54.856021 3.00024 
" style="fill: none; stroke: #000000; stroke-linejoin: miter; stroke-linecap: square"/>
   </g>
   <g id="patch_4">
    <path d="M 54.856021 111.853823 
L 212.99976 111.853823 
" style="fill: none; stroke: #000000; stroke-linejoin: miter; stroke-linecap: square"/>
   </g>
  </g>
 </g>
 <defs>
  <clipPath id="pa8774fbd64">
   <rect x="54.856021" y="3.00024" width="158.143739" height="108.853582"/>
  </clipPath>
 </defs>
</svg>
