<?xml version="1.0" encoding="utf-8" standalone="no"?>
<!DOCTYPE svg PUBLIC "-//W3C//DTD SVG 1.1//EN"
  "http://www.w3.org/Graphics/SVG/1.1/DTD/svg11.dtd">
<svg xmlns:xlink="http://www.w3.org/1999/xlink" width="288pt" height="216pt" viewBox="0 0 288 216" xmlns="http://www.w3.org/2000/svg" version="1.1">
 <metadata>
  <rdf:RDF xmlns:dc="http://purl.org/dc/elements/1.1/" xmlns:cc="http://creativecommons.org/ns#" xmlns:rdf="http://www.w3.org/1999/02/22-rdf-syntax-ns#">
   <cc:Work>
    <dc:type rdf:resource="http://purl.org/dc/dcmitype/StillImage"/>
    <dc:date>2024-02-12T13:36:10.381136</dc:date>
    <dc:format>image/svg+xml</dc:format>
    <dc:creator>
     <cc:Agent>
      <dc:title>Matplotlib v3.8.2, https://matplotlib.org/</dc:title>
     </cc:Agent>
    </dc:creator>
   </cc:Work>
  </rdf:RDF>
 </metadata>
 <defs>
  <style type="text/css">*{stroke-linejoin: round; stroke-linecap: butt}</style>
 </defs>
 <g id="figure_1">
  <g id="patch_1">
   <path d="M 0 216 
L 288 216 
L 288 0 
L 0 0 
z
" style="fill: #ffffff"/>
  </g>
  <g id="axes_1">
   <g id="patch_2">
    <path d="M 47.857271 183.853822 
L 284.99976 183.853822 
L 284.99976 3.00024 
L 47.857271 3.00024 
z
" style="fill: #ffffff"/>
   </g>
   <g id="matplotlib.axis_1">
    <g id="xtick_1">
     <g id="line2d_1">
      <path d="M 80.367128 183.853822 
L 80.367128 3.00024 
" clip-path="url(#p8a86bf614c)" style="fill: none; stroke: #b0b0b0; stroke-width: 0.8; stroke-linecap: round"/>
     </g>
     <g id="line2d_2"/>
     <g id="text_1">
      <!-- −10 -->
      <g style="fill: #262626" transform="translate(68.759549 195.712104) scale(0.11 -0.11)">
       <defs>
        <path id="DejaVuSerif-2212" d="M 678 2259 
L 4684 2259 
L 4684 1753 
L 678 1753 
L 678 2259 
z
" transform="scale(0.015625)"/>
        <path id="DejaVuSerif-31" d="M 909 0 
L 909 331 
L 1722 331 
L 1722 4213 
L 781 3603 
L 781 4013 
L 1919 4750 
L 2350 4750 
L 2350 331 
L 3163 331 
L 3163 0 
L 909 0 
z
" transform="scale(0.015625)"/>
        <path id="DejaVuSerif-30" d="M 2034 219 
Q 2513 219 2750 744 
Q 2988 1269 2988 2328 
Q 2988 3391 2750 3916 
Q 2513 4441 2034 4441 
Q 1556 4441 1318 3916 
Q 1081 3391 1081 2328 
Q 1081 1269 1318 744 
Q 1556 219 2034 219 
z
M 2034 -91 
Q 1275 -91 848 546 
Q 422 1184 422 2328 
Q 422 3475 848 4112 
Q 1275 4750 2034 4750 
Q 2797 4750 3222 4112 
Q 3647 3475 3647 2328 
Q 3647 1184 3222 546 
Q 2797 -91 2034 -91 
z
" transform="scale(0.015625)"/>
       </defs>
       <use xlink:href="#DejaVuSerif-2212"/>
       <use xlink:href="#DejaVuSerif-31" x="83.789062"/>
       <use xlink:href="#DejaVuSerif-30" x="147.412109"/>
      </g>
     </g>
    </g>
    <g id="xtick_2">
     <g id="line2d_3">
      <path d="M 122.364267 183.853822 
L 122.364267 3.00024 
" clip-path="url(#p8a86bf614c)" style="fill: none; stroke: #b0b0b0; stroke-width: 0.8; stroke-linecap: round"/>
     </g>
     <g id="line2d_4"/>
     <g id="text_2">
      <!-- −5 -->
      <g style="fill: #262626" transform="translate(114.256064 195.712104) scale(0.11 -0.11)">
       <defs>
        <path id="DejaVuSerif-35" d="M 3219 4666 
L 3219 4153 
L 1081 4153 
L 1081 2816 
Q 1244 2928 1461 2984 
Q 1678 3041 1947 3041 
Q 2703 3041 3140 2622 
Q 3578 2203 3578 1478 
Q 3578 738 3136 323 
Q 2694 -91 1894 -91 
Q 1572 -91 1234 -12 
Q 897 66 544 225 
L 544 1131 
L 897 1131 
Q 925 688 1179 453 
Q 1434 219 1894 219 
Q 2388 219 2653 544 
Q 2919 869 2919 1478 
Q 2919 2084 2655 2407 
Q 2391 2731 1894 2731 
Q 1613 2731 1398 2631 
Q 1184 2531 1019 2322 
L 750 2322 
L 750 4666 
L 3219 4666 
z
" transform="scale(0.015625)"/>
       </defs>
       <use xlink:href="#DejaVuSerif-2212"/>
       <use xlink:href="#DejaVuSerif-35" x="83.789062"/>
      </g>
     </g>
    </g>
    <g id="xtick_3">
     <g id="line2d_5">
      <path d="M 164.361406 183.853822 
L 164.361406 3.00024 
" clip-path="url(#p8a86bf614c)" style="fill: none; stroke: #b0b0b0; stroke-width: 0.8; stroke-linecap: round"/>
     </g>
     <g id="line2d_6"/>
     <g id="text_3">
      <!-- 0 -->
      <g style="fill: #262626" transform="translate(160.862031 195.712104) scale(0.11 -0.11)">
       <use xlink:href="#DejaVuSerif-30"/>
      </g>
     </g>
    </g>
    <g id="xtick_4">
     <g id="line2d_7">
      <path d="M 206.358545 183.853822 
L 206.358545 3.00024 
" clip-path="url(#p8a86bf614c)" style="fill: none; stroke: #b0b0b0; stroke-width: 0.8; stroke-linecap: round"/>
     </g>
     <g id="line2d_8"/>
     <g id="text_4">
      <!-- 5 -->
      <g style="fill: #262626" transform="translate(202.85917 195.712104) scale(0.11 -0.11)">
       <use xlink:href="#DejaVuSerif-35"/>
      </g>
     </g>
    </g>
    <g id="xtick_5">
     <g id="line2d_9">
      <path d="M 248.355685 183.853822 
L 248.355685 3.00024 
" clip-path="url(#p8a86bf614c)" style="fill: none; stroke: #b0b0b0; stroke-width: 0.8; stroke-linecap: round"/>
     </g>
     <g id="line2d_10"/>
     <g id="text_5">
      <!-- 10 -->
      <g style="fill: #262626" transform="translate(241.356935 195.712104) scale(0.11 -0.11)">
       <use xlink:href="#DejaVuSerif-31"/>
       <use xlink:href="#DejaVuSerif-30" x="63.623047"/>
      </g>
     </g>
    </g>
    <g id="text_6">
     <!-- Drift angle $\beta$ $[deg]$ -->
     <g style="fill: #262626" transform="translate(114.563516 210.46976) scale(0.11 -0.11)">
      <defs>
       <path id="DejaVuSerif-44" d="M 1581 331 
L 2163 331 
Q 3072 331 3558 850 
Q 4044 1369 4044 2338 
Q 4044 3306 3559 3818 
Q 3075 4331 2163 4331 
L 1581 4331 
L 1581 331 
z
M 353 0 
L 353 331 
L 947 331 
L 947 4331 
L 353 4331 
L 353 4666 
L 2209 4666 
Q 3416 4666 4089 4050 
Q 4763 3434 4763 2338 
Q 4763 1238 4088 619 
Q 3413 0 2209 0 
L 353 0 
z
" transform="scale(0.015625)"/>
       <path id="DejaVuSerif-72" d="M 3059 3328 
L 3059 2497 
L 2728 2497 
Q 2713 2744 2591 2866 
Q 2469 2988 2234 2988 
Q 1809 2988 1582 2694 
Q 1356 2400 1356 1850 
L 1356 331 
L 2022 331 
L 2022 0 
L 263 0 
L 263 331 
L 781 331 
L 781 2994 
L 231 2994 
L 231 3322 
L 1356 3322 
L 1356 2731 
Q 1525 3078 1790 3245 
Q 2056 3413 2438 3413 
Q 2578 3413 2733 3391 
Q 2888 3369 3059 3328 
z
" transform="scale(0.015625)"/>
       <path id="DejaVuSerif-69" d="M 622 4353 
Q 622 4497 726 4603 
Q 831 4709 978 4709 
Q 1122 4709 1226 4603 
Q 1331 4497 1331 4353 
Q 1331 4206 1228 4103 
Q 1125 4000 978 4000 
Q 831 4000 726 4103 
Q 622 4206 622 4353 
z
M 1356 331 
L 1900 331 
L 1900 0 
L 231 0 
L 231 331 
L 781 331 
L 781 2988 
L 231 2988 
L 231 3322 
L 1356 3322 
L 1356 331 
z
" transform="scale(0.015625)"/>
       <path id="DejaVuSerif-66" d="M 2753 4078 
L 2450 4078 
Q 2447 4313 2317 4434 
Q 2188 4556 1941 4556 
Q 1619 4556 1487 4379 
Q 1356 4203 1356 3750 
L 1356 3322 
L 2284 3322 
L 2284 2988 
L 1356 2988 
L 1356 331 
L 2094 331 
L 2094 0 
L 231 0 
L 231 331 
L 781 331 
L 781 2988 
L 231 2988 
L 231 3322 
L 781 3322 
L 781 3738 
Q 781 4294 1070 4578 
Q 1359 4863 1919 4863 
Q 2128 4863 2337 4825 
Q 2547 4788 2753 4709 
L 2753 4078 
z
" transform="scale(0.015625)"/>
       <path id="DejaVuSerif-74" d="M 691 2988 
L 184 2988 
L 184 3322 
L 691 3322 
L 691 4353 
L 1269 4353 
L 1269 3322 
L 2350 3322 
L 2350 2988 
L 1269 2988 
L 1269 878 
Q 1269 456 1350 337 
Q 1431 219 1650 219 
Q 1875 219 1978 351 
Q 2081 484 2088 781 
L 2522 781 
Q 2497 328 2275 118 
Q 2053 -91 1600 -91 
Q 1103 -91 897 129 
Q 691 350 691 878 
L 691 2988 
z
" transform="scale(0.015625)"/>
       <path id="DejaVuSerif-20" transform="scale(0.015625)"/>
       <path id="DejaVuSerif-61" d="M 2547 1044 
L 2547 1747 
L 1806 1747 
Q 1378 1747 1168 1562 
Q 959 1378 959 997 
Q 959 650 1171 447 
Q 1384 244 1747 244 
Q 2106 244 2326 466 
Q 2547 688 2547 1044 
z
M 3122 2075 
L 3122 331 
L 3634 331 
L 3634 0 
L 2547 0 
L 2547 359 
Q 2356 128 2106 18 
Q 1856 -91 1522 -91 
Q 969 -91 644 203 
Q 319 497 319 997 
Q 319 1513 691 1797 
Q 1063 2081 1741 2081 
L 2547 2081 
L 2547 2309 
Q 2547 2688 2317 2895 
Q 2088 3103 1672 3103 
Q 1328 3103 1125 2947 
Q 922 2791 872 2484 
L 575 2484 
L 575 3156 
Q 875 3284 1158 3348 
Q 1441 3413 1709 3413 
Q 2400 3413 2761 3070 
Q 3122 2728 3122 2075 
z
" transform="scale(0.015625)"/>
       <path id="DejaVuSerif-6e" d="M 263 0 
L 263 331 
L 781 331 
L 781 2988 
L 231 2988 
L 231 3322 
L 1356 3322 
L 1356 2731 
Q 1516 3069 1770 3241 
Q 2025 3413 2363 3413 
Q 2913 3413 3172 3097 
Q 3431 2781 3431 2113 
L 3431 331 
L 3944 331 
L 3944 0 
L 2356 0 
L 2356 331 
L 2853 331 
L 2853 1931 
Q 2853 2541 2703 2767 
Q 2553 2994 2175 2994 
Q 1775 2994 1565 2701 
Q 1356 2409 1356 1850 
L 1356 331 
L 1856 331 
L 1856 0 
L 263 0 
z
" transform="scale(0.015625)"/>
       <path id="DejaVuSerif-67" d="M 3359 2988 
L 3359 72 
Q 3359 -644 2965 -1033 
Q 2572 -1422 1844 -1422 
Q 1516 -1422 1216 -1362 
Q 916 -1303 641 -1184 
L 641 -488 
L 941 -488 
Q 997 -813 1206 -963 
Q 1416 -1113 1806 -1113 
Q 2313 -1113 2548 -827 
Q 2784 -541 2784 72 
L 2784 519 
Q 2616 206 2355 57 
Q 2094 -91 1709 -91 
Q 1097 -91 708 395 
Q 319 881 319 1663 
Q 319 2444 706 2928 
Q 1094 3413 1709 3413 
Q 2094 3413 2355 3264 
Q 2616 3116 2784 2803 
L 2784 3322 
L 3909 3322 
L 3909 2988 
L 3359 2988 
z
M 2784 1825 
Q 2784 2422 2554 2737 
Q 2325 3053 1888 3053 
Q 1444 3053 1217 2703 
Q 991 2353 991 1663 
Q 991 975 1217 622 
Q 1444 269 1888 269 
Q 2325 269 2554 583 
Q 2784 897 2784 1497 
L 2784 1825 
z
" transform="scale(0.015625)"/>
       <path id="DejaVuSerif-6c" d="M 1313 331 
L 1856 331 
L 1856 0 
L 184 0 
L 184 331 
L 738 331 
L 738 4531 
L 184 4531 
L 184 4863 
L 1313 4863 
L 1313 331 
z
" transform="scale(0.015625)"/>
       <path id="DejaVuSerif-65" d="M 3469 1600 
L 991 1600 
L 991 1575 
Q 991 903 1244 561 
Q 1497 219 1991 219 
Q 2369 219 2611 417 
Q 2853 616 2950 1006 
L 3413 1006 
Q 3275 459 2904 184 
Q 2534 -91 1931 -91 
Q 1203 -91 761 389 
Q 319 869 319 1663 
Q 319 2450 753 2931 
Q 1188 3413 1894 3413 
Q 2647 3413 3050 2948 
Q 3453 2484 3469 1600 
z
M 2791 1931 
Q 2772 2513 2545 2808 
Q 2319 3103 1894 3103 
Q 1497 3103 1269 2806 
Q 1041 2509 991 1931 
L 2791 1931 
z
" transform="scale(0.015625)"/>
       <path id="DejaVuSans-Oblique-3b2" d="M 872 216 
L 572 -1331 
L -6 -1331 
L 928 3478 
Q 1206 4903 2538 4903 
Q 3888 4903 3659 3700 
Q 3503 2844 2894 2531 
Q 3713 2250 3553 1416 
Q 3272 -69 1759 -66 
Q 1097 -63 872 216 
z
M 1019 966 
Q 1259 422 1875 425 
Q 2775 425 2966 1406 
Q 3138 2288 1675 2219 
L 1778 2750 
Q 2909 2731 3106 3750 
Q 3241 4438 2509 4434 
Q 1691 4434 1503 3459 
L 1019 966 
z
" transform="scale(0.015625)"/>
       <path id="DejaVuSans-5b" d="M 550 4863 
L 1875 4863 
L 1875 4416 
L 1125 4416 
L 1125 -397 
L 1875 -397 
L 1875 -844 
L 550 -844 
L 550 4863 
z
" transform="scale(0.015625)"/>
       <path id="DejaVuSans-Oblique-64" d="M 2675 525 
Q 2444 222 2128 65 
Q 1813 -91 1428 -91 
Q 903 -91 598 267 
Q 294 625 294 1247 
Q 294 1766 478 2236 
Q 663 2706 1013 3078 
Q 1244 3325 1534 3454 
Q 1825 3584 2144 3584 
Q 2481 3584 2739 3421 
Q 2997 3259 3138 2956 
L 3513 4863 
L 4091 4863 
L 3144 0 
L 2566 0 
L 2675 525 
z
M 891 1350 
Q 891 897 1095 644 
Q 1300 391 1663 391 
Q 1931 391 2161 520 
Q 2391 650 2566 903 
Q 2750 1166 2856 1509 
Q 2963 1853 2963 2188 
Q 2963 2622 2758 2865 
Q 2553 3109 2194 3109 
Q 1922 3109 1687 2981 
Q 1453 2853 1288 2613 
Q 1106 2353 998 2009 
Q 891 1666 891 1350 
z
" transform="scale(0.015625)"/>
       <path id="DejaVuSans-Oblique-65" d="M 3078 2063 
Q 3088 2113 3092 2166 
Q 3097 2219 3097 2272 
Q 3097 2653 2873 2875 
Q 2650 3097 2266 3097 
Q 1838 3097 1509 2826 
Q 1181 2556 1013 2059 
L 3078 2063 
z
M 3578 1613 
L 903 1613 
Q 884 1494 878 1425 
Q 872 1356 872 1306 
Q 872 872 1139 634 
Q 1406 397 1894 397 
Q 2269 397 2603 481 
Q 2938 566 3225 728 
L 3116 159 
Q 2806 34 2476 -28 
Q 2147 -91 1806 -91 
Q 1078 -91 686 257 
Q 294 606 294 1247 
Q 294 1794 489 2264 
Q 684 2734 1063 3103 
Q 1306 3334 1642 3459 
Q 1978 3584 2356 3584 
Q 2950 3584 3301 3228 
Q 3653 2872 3653 2272 
Q 3653 2128 3634 1964 
Q 3616 1800 3578 1613 
z
" transform="scale(0.015625)"/>
       <path id="DejaVuSans-Oblique-67" d="M 3816 3500 
L 3219 434 
Q 3047 -456 2561 -893 
Q 2075 -1331 1253 -1331 
Q 950 -1331 690 -1286 
Q 431 -1241 206 -1147 
L 313 -588 
Q 525 -725 762 -790 
Q 1000 -856 1269 -856 
Q 1816 -856 2167 -557 
Q 2519 -259 2631 300 
L 2681 563 
Q 2441 288 2122 144 
Q 1803 0 1434 0 
Q 903 0 598 351 
Q 294 703 294 1319 
Q 294 1803 478 2267 
Q 663 2731 997 3091 
Q 1219 3328 1514 3456 
Q 1809 3584 2131 3584 
Q 2484 3584 2746 3420 
Q 3009 3256 3138 2956 
L 3238 3500 
L 3816 3500 
z
M 2950 2216 
Q 2950 2641 2750 2872 
Q 2550 3103 2181 3103 
Q 1953 3103 1747 3012 
Q 1541 2922 1394 2759 
Q 1156 2491 1023 2127 
Q 891 1763 891 1375 
Q 891 944 1092 712 
Q 1294 481 1672 481 
Q 2219 481 2584 976 
Q 2950 1472 2950 2216 
z
" transform="scale(0.015625)"/>
       <path id="DejaVuSans-5d" d="M 1947 4863 
L 1947 -844 
L 622 -844 
L 622 -397 
L 1369 -397 
L 1369 4416 
L 622 4416 
L 622 4863 
L 1947 4863 
z
" transform="scale(0.015625)"/>
      </defs>
      <use xlink:href="#DejaVuSerif-44" transform="translate(0 0.390625)"/>
      <use xlink:href="#DejaVuSerif-72" transform="translate(80.175781 0.390625)"/>
      <use xlink:href="#DejaVuSerif-69" transform="translate(127.978516 0.390625)"/>
      <use xlink:href="#DejaVuSerif-66" transform="translate(159.960938 0.390625)"/>
      <use xlink:href="#DejaVuSerif-74" transform="translate(196.972656 0.390625)"/>
      <use xlink:href="#DejaVuSerif-20" transform="translate(237.158203 0.390625)"/>
      <use xlink:href="#DejaVuSerif-61" transform="translate(268.945312 0.390625)"/>
      <use xlink:href="#DejaVuSerif-6e" transform="translate(328.564453 0.390625)"/>
      <use xlink:href="#DejaVuSerif-67" transform="translate(392.96875 0.390625)"/>
      <use xlink:href="#DejaVuSerif-6c" transform="translate(456.982422 0.390625)"/>
      <use xlink:href="#DejaVuSerif-65" transform="translate(488.964844 0.390625)"/>
      <use xlink:href="#DejaVuSerif-20" transform="translate(548.144531 0.390625)"/>
      <use xlink:href="#DejaVuSans-Oblique-3b2" transform="translate(579.931641 0.390625)"/>
      <use xlink:href="#DejaVuSerif-20" transform="translate(643.75 0.390625)"/>
      <use xlink:href="#DejaVuSans-5b" transform="translate(675.537109 0.390625)"/>
      <use xlink:href="#DejaVuSans-Oblique-64" transform="translate(714.550781 0.390625)"/>
      <use xlink:href="#DejaVuSans-Oblique-65" transform="translate(778.027344 0.390625)"/>
      <use xlink:href="#DejaVuSans-Oblique-67" transform="translate(839.550781 0.390625)"/>
      <use xlink:href="#DejaVuSans-5d" transform="translate(903.027344 0.390625)"/>
     </g>
    </g>
   </g>
   <g id="matplotlib.axis_2">
    <g id="ytick_1">
     <g id="line2d_11">
      <path d="M 47.857271 172.43916 
L 284.99976 172.43916 
" clip-path="url(#p8a86bf614c)" style="fill: none; stroke: #b0b0b0; stroke-width: 0.8; stroke-linecap: round"/>
     </g>
     <g id="line2d_12"/>
     <g id="text_7">
      <!-- −0.4 -->
      <g style="fill: #262626" transform="translate(17.646178 176.618301) scale(0.11 -0.11)">
       <defs>
        <path id="DejaVuSerif-2e" d="M 603 325 
Q 603 500 722 622 
Q 841 744 1019 744 
Q 1191 744 1312 622 
Q 1434 500 1434 325 
Q 1434 153 1312 31 
Q 1191 -91 1019 -91 
Q 841 -91 722 29 
Q 603 150 603 325 
z
" transform="scale(0.015625)"/>
        <path id="DejaVuSerif-34" d="M 2234 1581 
L 2234 4063 
L 641 1581 
L 2234 1581 
z
M 3609 0 
L 1484 0 
L 1484 331 
L 2234 331 
L 2234 1247 
L 197 1247 
L 197 1588 
L 2241 4750 
L 2859 4750 
L 2859 1581 
L 3750 1581 
L 3750 1247 
L 2859 1247 
L 2859 331 
L 3609 331 
L 3609 0 
z
" transform="scale(0.015625)"/>
       </defs>
       <use xlink:href="#DejaVuSerif-2212"/>
       <use xlink:href="#DejaVuSerif-30" x="83.789062"/>
       <use xlink:href="#DejaVuSerif-2e" x="147.412109"/>
       <use xlink:href="#DejaVuSerif-34" x="179.199219"/>
      </g>
     </g>
    </g>
    <g id="ytick_2">
     <g id="line2d_13">
      <path d="M 47.857271 133.195499 
L 284.99976 133.195499 
" clip-path="url(#p8a86bf614c)" style="fill: none; stroke: #b0b0b0; stroke-width: 0.8; stroke-linecap: round"/>
     </g>
     <g id="line2d_14"/>
     <g id="text_8">
      <!-- −0.2 -->
      <g style="fill: #262626" transform="translate(17.646178 137.374639) scale(0.11 -0.11)">
       <defs>
        <path id="DejaVuSerif-32" d="M 819 3553 
L 469 3553 
L 469 4384 
Q 803 4563 1142 4656 
Q 1481 4750 1806 4750 
Q 2534 4750 2956 4397 
Q 3378 4044 3378 3438 
Q 3378 2753 2422 1800 
Q 2347 1728 2309 1691 
L 1131 513 
L 3078 513 
L 3078 1088 
L 3444 1088 
L 3444 0 
L 434 0 
L 434 341 
L 1850 1753 
Q 2319 2222 2519 2614 
Q 2719 3006 2719 3438 
Q 2719 3909 2473 4175 
Q 2228 4441 1797 4441 
Q 1350 4441 1106 4219 
Q 863 3997 819 3553 
z
" transform="scale(0.015625)"/>
       </defs>
       <use xlink:href="#DejaVuSerif-2212"/>
       <use xlink:href="#DejaVuSerif-30" x="83.789062"/>
       <use xlink:href="#DejaVuSerif-2e" x="147.412109"/>
       <use xlink:href="#DejaVuSerif-32" x="179.199219"/>
      </g>
     </g>
    </g>
    <g id="ytick_3">
     <g id="line2d_15">
      <path d="M 47.857271 93.951837 
L 284.99976 93.951837 
" clip-path="url(#p8a86bf614c)" style="fill: none; stroke: #b0b0b0; stroke-width: 0.8; stroke-linecap: round"/>
     </g>
     <g id="line2d_16"/>
     <g id="text_9">
      <!-- 0.0 -->
      <g style="fill: #262626" transform="translate(26.863834 98.130977) scale(0.11 -0.11)">
       <use xlink:href="#DejaVuSerif-30"/>
       <use xlink:href="#DejaVuSerif-2e" x="63.623047"/>
       <use xlink:href="#DejaVuSerif-30" x="95.410156"/>
      </g>
     </g>
    </g>
    <g id="ytick_4">
     <g id="line2d_17">
      <path d="M 47.857271 54.708175 
L 284.99976 54.708175 
" clip-path="url(#p8a86bf614c)" style="fill: none; stroke: #b0b0b0; stroke-width: 0.8; stroke-linecap: round"/>
     </g>
     <g id="line2d_18"/>
     <g id="text_10">
      <!-- 0.2 -->
      <g style="fill: #262626" transform="translate(26.863834 58.887315) scale(0.11 -0.11)">
       <use xlink:href="#DejaVuSerif-30"/>
       <use xlink:href="#DejaVuSerif-2e" x="63.623047"/>
       <use xlink:href="#DejaVuSerif-32" x="95.410156"/>
      </g>
     </g>
    </g>
    <g id="ytick_5">
     <g id="line2d_19">
      <path d="M 47.857271 15.464513 
L 284.99976 15.464513 
" clip-path="url(#p8a86bf614c)" style="fill: none; stroke: #b0b0b0; stroke-width: 0.8; stroke-linecap: round"/>
     </g>
     <g id="line2d_20"/>
     <g id="text_11">
      <!-- 0.4 -->
      <g style="fill: #262626" transform="translate(26.863834 19.643653) scale(0.11 -0.11)">
       <use xlink:href="#DejaVuSerif-30"/>
       <use xlink:href="#DejaVuSerif-2e" x="63.623047"/>
       <use xlink:href="#DejaVuSerif-34" x="95.410156"/>
      </g>
     </g>
    </g>
    <g id="text_12">
     <!-- Yaw rate ${r}'$ $[-]$ -->
     <g style="fill: #262626" transform="translate(11.358521 134.292031) rotate(-90) scale(0.11 -0.11)">
      <defs>
       <path id="DejaVuSerif-59" d="M 1209 0 
L 1209 331 
L 1806 331 
L 1806 2009 
L 366 4331 
L -72 4331 
L -72 4666 
L 1663 4666 
L 1663 4331 
L 1119 4331 
L 2284 2444 
L 3450 4331 
L 2925 4331 
L 2925 4666 
L 4281 4666 
L 4281 4331 
L 3841 4331 
L 2438 2069 
L 2438 331 
L 3034 331 
L 3034 0 
L 1209 0 
z
" transform="scale(0.015625)"/>
       <path id="DejaVuSerif-77" d="M 3072 3322 
L 3922 728 
L 4672 2988 
L 4191 2988 
L 4191 3322 
L 5394 3322 
L 5394 2988 
L 5025 2988 
L 4038 0 
L 3559 0 
L 2741 2484 
L 1919 0 
L 1459 0 
L 475 2988 
L 103 2988 
L 103 3322 
L 1606 3322 
L 1606 2988 
L 1069 2988 
L 1813 728 
L 2669 3322 
L 3072 3322 
z
" transform="scale(0.015625)"/>
       <path id="DejaVuSans-Oblique-72" d="M 2853 2969 
Q 2766 3016 2653 3041 
Q 2541 3066 2413 3066 
Q 1953 3066 1609 2717 
Q 1266 2369 1153 1784 
L 800 0 
L 225 0 
L 909 3500 
L 1484 3500 
L 1375 2956 
Q 1603 3259 1920 3421 
Q 2238 3584 2597 3584 
Q 2691 3584 2781 3573 
Q 2872 3563 2963 3538 
L 2853 2969 
z
" transform="scale(0.015625)"/>
       <path id="Cmsy10-30" d="M 225 347 
Q 184 359 184 409 
L 966 3316 
Q 1003 3434 1093 3506 
Q 1184 3578 1300 3578 
Q 1450 3578 1564 3479 
Q 1678 3381 1678 3231 
Q 1678 3166 1644 3084 
L 488 319 
Q 466 275 428 275 
Q 394 275 320 306 
Q 247 338 225 347 
z
" transform="scale(0.015625)"/>
       <path id="DejaVuSans-2212" d="M 678 2272 
L 4684 2272 
L 4684 1741 
L 678 1741 
L 678 2272 
z
" transform="scale(0.015625)"/>
      </defs>
      <use xlink:href="#DejaVuSerif-59" transform="translate(0 0.584375)"/>
      <use xlink:href="#DejaVuSerif-61" transform="translate(66.015625 0.584375)"/>
      <use xlink:href="#DejaVuSerif-77" transform="translate(125.634766 0.584375)"/>
      <use xlink:href="#DejaVuSerif-20" transform="translate(211.230469 0.584375)"/>
      <use xlink:href="#DejaVuSerif-72" transform="translate(243.017578 0.584375)"/>
      <use xlink:href="#DejaVuSerif-61" transform="translate(290.820312 0.584375)"/>
      <use xlink:href="#DejaVuSerif-74" transform="translate(350.439453 0.584375)"/>
      <use xlink:href="#DejaVuSerif-65" transform="translate(390.625 0.584375)"/>
      <use xlink:href="#DejaVuSerif-20" transform="translate(449.804688 0.584375)"/>
      <use xlink:href="#DejaVuSans-Oblique-72" transform="translate(481.591797 0.584375)"/>
      <use xlink:href="#Cmsy10-30" transform="translate(527.354974 38.865625) scale(0.7)"/>
      <use xlink:href="#DejaVuSerif-20" transform="translate(549.332513 0.584375)"/>
      <use xlink:href="#DejaVuSans-5b" transform="translate(581.119622 0.584375)"/>
      <use xlink:href="#DejaVuSans-2212" transform="translate(620.133294 0.584375)"/>
      <use xlink:href="#DejaVuSans-5d" transform="translate(703.922357 0.584375)"/>
     </g>
    </g>
   </g>
   <g id="line2d_21">
    <path d="M 163.947136 94.673457 
L 163.83958 94.791631 
L 163.602778 95.40318 
L 163.535936 96.190986 
L 163.392409 97.471521 
L 163.046033 98.683893 
L 162.356735 100.31407 
L 161.382323 102.165832 
L 159.901705 104.521312 
L 157.291161 108.259053 
L 156.214436 110.555943 
L 155.792996 111.921344 
L 154.957201 116.154585 
L 154.349488 117.54299 
L 153.754835 118.323549 
L 153.124807 118.619205 
L 152.144398 119.291392 
L 151.236345 120.082614 
L 149.643087 121.852161 
L 148.633484 122.831981 
L 147.811491 123.445837 
L 146.792638 123.857715 
L 144.798727 124.322763 
L 143.774093 124.705092 
L 143.349245 124.954928 
L 142.584911 125.379054 
L 141.939981 125.313444 
L 141.609618 125.611167 
L 141.12079 126.588815 
L 140.429599 127.79654 
L 140.094985 127.890705 
L 138.235801 128.803648 
L 137.456833 129.447311 
L 137.193679 129.454063 
L 135.915159 129.175701 
L 135.600484 129.455596 
L 133.867635 131.289451 
L 133.329436 131.565901 
L 132.964712 131.621852 
L 131.55121 131.253329 
L 130.138939 131.650521 
L 129.711627 131.334766 
L 129.573429 131.50629 
L 129.280669 132.18076 
L 128.987402 132.837283 
L 128.647929 133.253395 
L 128.099135 133.227607 
L 127.332531 132.934964 
L 126.864118 132.919024 
L 126.57948 132.947238 
L 126.17214 132.589721 
L 125.975572 132.131872 
L 125.701216 130.210363 
L 125.710818 128.901041 
L 125.932332 127.921301 
L 128.811282 119.859351 
L 130.44326 115.482798 
L 133.947128 104.910306 
L 135.356638 101.874407 
L 138.975124 93.486519 
L 141.672361 87.034422 
L 142.590325 85.775253 
L 143.565307 84.829853 
L 145.305483 83.336601 
L 147.376365 81.86663 
L 148.932681 81.052275 
L 149.788177 80.253898 
L 152.231822 77.713256 
L 153.828218 76.398716 
L 154.710048 75.909508 
L 155.88522 75.464389 
L 157.940481 75.035824 
L 158.631037 74.531753 
L 159.404861 73.795942 
L 161.763451 71.641664 
L 162.725501 71.245918 
L 163.16761 70.938701 
L 163.66732 70.359032 
L 164.055968 69.578751 
L 164.851998 68.263149 
L 165.257708 67.984979 
L 167.461441 66.853718 
L 168.491318 66.541484 
L 170.019219 66.066439 
L 174.042886 64.737765 
L 175.154741 64.652135 
L 176.159167 64.329897 
L 176.809143 63.914955 
L 178.370652 62.815667 
L 180.289205 62.392504 
L 180.626897 62.376542 
L 181.2135 62.141228 
L 182.391899 61.84034 
L 183.072198 61.980475 
L 183.321341 61.881897 
L 184.18226 61.064666 
L 184.811902 60.463623 
L 185.489179 60.199506 
L 190.717441 60.073797 
L 191.498958 60.337257 
L 191.819543 60.189375 
L 192.21405 59.699733 
L 192.987312 58.814732 
L 193.829756 58.844316 
L 194.45882 59.024827 
L 194.735038 58.887932 
L 195.487188 58.367693 
L 196.112794 58.534924 
L 196.768152 58.858752 
L 197.019691 58.715404 
L 198.127781 57.14703 
L 198.651523 56.84616 
L 199.695973 56.731304 
L 200.792191 56.850073 
L 201.416239 56.937974 
L 201.976815 56.685101 
L 202.601994 56.943512 
L 202.883267 56.726441 
L 203.04332 56.434455 
L 203.788058 55.114643 
L 203.985369 55.001996 
L 204.241964 55.204736 
L 204.584162 55.581173 
L 205.137436 55.908785 
L 205.567766 55.872295 
L 205.748025 55.713017 
L 206.225067 55.29793 
L 206.426202 55.281641 
L 207.064292 55.626984 
L 207.29166 55.318466 
L 208.132435 54.021437 
L 208.458187 53.950879 
L 208.776213 54.097901 
L 208.97672 54.15016 
L 209.278787 54.316539 
L 209.518471 54.370135 
L 210.155449 54.251545 
L 210.361868 54.281892 
L 210.671658 54.85976 
L 210.812187 54.775352 
L 211.634151 53.48017 
L 212.129726 53.400428 
L 212.945958 53.716271 
L 212.963076 53.6771 
L 213.184965 53.425697 
L 213.344567 53.455317 
L 213.68828 54.141821 
L 213.83436 54.06019 
L 214.002325 53.81329 
L 214.53657 52.792713 
L 214.742636 52.770472 
L 215.33696 53.14098 
L 215.504422 53.14005 
L 215.647703 53.414608 
L 215.916602 54.435676 
L 214.536666 59.000312 
L 212.520796 64.134535 
L 208.183655 75.131827 
L 207.393881 77.202911 
L 204.639128 83.628372 
L 199.234787 94.329464 
L 195.58416 100.164944 
L 194.623067 101.174251 
L 191.034425 104.47347 
L 188.395801 106.368577 
L 185.069626 108.561469 
L 183.061717 109.477923 
L 178.087865 111.687243 
L 177.280625 112.178302 
L 176.736879 112.534183 
L 175.622785 113.601362 
L 173.029845 115.896816 
L 172.121556 116.477592 
L 170.834835 116.967748 
L 170.105167 117.635486 
L 169.276541 118.414173 
L 168.331244 118.844683 
L 167.692958 119.099924 
L 166.041588 120.038907 
L 164.900235 120.270913 
L 164.141336 120.572041 
L 163.485933 120.977919 
L 161.421241 122.439374 
L 158.067684 124.160204 
L 157.426164 124.281092 
L 155.783614 124.33746 
L 153.359441 124.923338 
L 153.020454 125.00642 
L 151.706344 125.099772 
L 151.276696 125.403232 
L 150.304313 126.275478 
L 149.440882 126.668128 
L 147.393461 126.915021 
L 145.926648 127.021683 
L 145.44018 126.991353 
L 144.248123 126.753857 
L 143.740333 126.682969 
L 143.250754 126.884174 
L 142.458257 127.37557 
L 141.221957 128.284761 
L 139.880218 127.959595 
L 138.97925 127.688528 
L 138.067029 127.686608 
L 136.37163 127.744055 
L 135.875885 128.48763 
L 135.271367 129.442739 
L 134.910352 129.740301 
L 133.97617 130.045115 
L 132.060622 130.383105 
L 131.564164 130.546193 
L 130.81695 130.554948 
L 130.493768 130.869411 
L 129.28478 132.103238 
L 128.951338 132.188944 
L 128.406008 132.080695 
L 127.904717 131.956925 
L 127.37454 131.902234 
L 126.772763 132.223857 
L 126.230669 132.943764 
L 125.966125 133.043894 
L 125.43674 132.262813 
L 125.261203 132.429375 
L 123.87745 134.058298 
L 123.558172 134.040502 
L 122.286357 133.660032 
L 121.935806 133.815167 
L 121.356708 134.040435 
L 120.691528 133.700656 
L 120.424386 134.013377 
L 119.812359 135.296276 
L 119.526551 135.429595 
L 119.293978 135.359406 
L 118.083401 134.665179 
L 117.691368 134.797348 
L 117.308422 134.995655 
L 117.156603 134.784899 
L 117.096694 134.370037 
L 117.245073 134.207621 
L 117.391081 134.360886 
L 117.493641 134.827664 
L 117.241679 135.623207 
L 117.007411 135.926196 
L 116.768597 136.005514 
L 116.579893 135.977123 
L 116.338223 135.901515 
L 114.853985 135.570653 
L 114.423899 135.509393 
L 114.288381 135.388333 
L 113.748964 134.609156 
L 113.676429 134.780025 
L 113.778449 135.145826 
L 113.930799 135.813273 
L 113.757257 135.87061 
L 113.448525 135.770076 
L 113.287169 135.726175 
L 113.245854 135.359081 
L 113.260127 134.432157 
L 113.534767 132.763232 
L 113.999462 131.344925 
L 114.441038 129.903945 
L 115.418894 126.946437 
L 116.434238 124.952346 
L 118.35428 121.226121 
L 120.036109 116.879142 
L 123.004944 108.571778 
L 125.032897 103.681148 
L 127.102854 99.475166 
L 128.099651 97.309723 
L 129.004224 95.164068 
L 130.021795 92.9103 
L 131.375863 90.098032 
L 132.083841 89.000988 
L 133.294083 87.481164 
L 134.5045 86.320687 
L 138.384497 83.348449 
L 139.917724 82.42085 
L 144.089316 80.135445 
L 146.302956 78.960282 
L 147.446442 78.210997 
L 150.204938 76.305786 
L 152.22813 75.571847 
L 152.683992 75.388946 
L 153.208561 75.003631 
L 156.434558 72.082531 
L 157.168293 71.903999 
L 157.645662 71.58503 
L 159.869039 69.517449 
L 161.788189 68.411271 
L 163.212966 67.868919 
L 164.365577 67.688039 
L 166.052094 67.35496 
L 169.864726 66.34405 
L 170.633613 66.287057 
L 171.340322 66.161938 
L 172.177935 65.78872 
L 173.034164 65.145079 
L 174.188558 64.130321 
L 174.579612 64.064212 
L 175.227776 63.916175 
L 175.999123 63.59957 
L 176.979068 63.258977 
L 177.912631 62.805822 
L 178.696299 62.636495 
L 179.53615 62.828026 
L 180.055346 62.835302 
L 180.675222 62.637715 
L 181.21854 62.189749 
L 182.179283 61.505449 
L 183.236301 61.103375 
L 184.23785 61.236 
L 185.473192 61.578709 
L 186.299014 61.577673 
L 187.189135 61.667426 
L 187.677657 61.702183 
L 187.96742 61.901767 
L 188.354663 62.19481 
L 188.550346 62.141807 
L 189.726792 60.703539 
L 190.608884 60.383769 
L 191.783876 60.639131 
L 193.47806 60.165595 
L 194.025735 60.256318 
L 194.901463 59.543163 
L 195.417294 58.958113 
L 195.878889 58.622466 
L 196.213685 58.63077 
L 197.383367 58.8414 
L 198.88036 58.456247 
L 199.174699 58.358733 
L 199.49416 58.696265 
L 199.530589 58.64004 
L 199.708374 58.405255 
L 200.138897 57.317399 
L 200.747223 56.422538 
L 201.010152 56.365335 
L 201.714262 56.309889 
L 202.291938 55.92278 
L 203.059692 55.977691 
L 204.140657 56.58925 
L 204.409354 56.690133 
L 204.695036 56.408048 
L 204.952369 56.171007 
L 205.467397 55.693063 
L 205.81008 55.368394 
L 206.163031 55.344767 
L 206.48143 55.342368 
L 207.329537 55.270907 
L 207.591154 55.361904 
L 207.860567 55.47276 
L 208.154829 55.361429 
L 208.225195 55.30907 
L 208.264389 55.390773 
L 208.542766 55.990147 
L 208.717472 55.825657 
L 208.876388 55.497262 
L 209.36541 54.235687 
L 209.573563 54.153282 
L 209.929435 54.211577 
L 210.285658 54.497022 
L 210.612455 54.518558 
L 210.907072 54.52859 
L 211.133553 54.572353 
L 211.462072 54.590759 
L 211.951631 55.016432 
L 212.036384 54.883738 
L 212.535042 53.630083 
L 212.73933 53.590912 
L 213.160571 53.772186 
L 213.595421 53.901896 
L 213.946455 54.248571 
L 214.091315 54.28723 
L 214.393501 54.55066 
L 214.411391 54.489647 
L 214.694657 53.545994 
L 214.818133 53.486065 
L 215.011549 53.101457 
L 215.206441 52.786207 
L 215.371371 52.896014 
L 215.653079 53.487748 
L 215.781744 54.065615 
L 215.753432 55.205337 
L 215.361024 57.190965 
L 213.0532 63.232148 
L 210.212425 68.698784 
L 208.866007 71.6614 
L 202.266956 86.946306 
L 201.482969 88.614876 
L 199.750776 93.223654 
L 198.670532 95.435759 
L 196.906463 98.288715 
L 195.210022 100.739026 
L 192.554655 104.034172 
L 190.56357 105.936671 
L 189.557712 106.571743 
L 187.476244 107.546847 
L 184.935849 108.489021 
L 183.808408 108.823007 
L 182.562513 109.461381 
L 181.61549 110.169453 
L 179.566617 111.847583 
L 178.140666 112.724072 
L 174.895802 114.562086 
L 173.020345 116.374084 
L 172.248802 116.651258 
L 171.484832 116.842131 
L 171.037048 117.184309 
L 170.101325 118.149393 
L 168.588092 119.790953 
L 167.785221 120.516524 
L 166.830833 121.094208 
L 165.923833 121.357407 
L 164.689766 121.639945 
L 163.073021 122.081568 
L 160.378937 122.670087 
L 158.320457 123.24782 
L 157.812046 123.190117 
L 157.06799 123.11331 
L 156.517844 123.160785 
L 155.385349 123.69182 
L 154.60021 124.58844 
L 154.147284 125.051353 
L 153.215314 125.267931 
L 151.638054 125.559156 
L 150.527821 125.823009 
L 149.582485 126.155963 
L 149.109159 125.915484 
L 148.659834 125.745681 
L 148.269202 125.784765 
L 147.786498 126.051354 
L 146.38488 127.182782 
L 145.817402 127.45694 
L 145.185436 127.73679 
L 144.199779 127.842994 
L 142.168745 127.448707 
L 140.387238 127.240583 
L 140.007739 127.150265 
L 139.634363 127.363107 
L 139.230004 127.721728 
L 138.463399 128.650125 
L 137.974578 128.719528 
L 137.018085 128.71139 
L 134.972227 128.987427 
L 134.399013 128.78809 
L 133.960096 128.97657 
L 133.558001 129.528104 
L 133.076888 130.5136 
L 132.500449 130.982432 
L 131.74937 131.130194 
L 131.389338 131.125127 
L 130.971544 131.00475 
L 130.544899 131.189016 
L 130.300315 131.355 
L 129.909687 131.993582 
L 129.693876 132.527912 
L 129.693876 132.527912 
" clip-path="url(#p8a86bf614c)" style="fill: none; stroke: #2a2eec; stroke-width: 1.5; stroke-linecap: round"/>
   </g>
   <g id="line2d_22">
    <path d="M 164.431232 92.795516 
L 164.460479 92.883925 
L 164.427588 93.695649 
L 164.082533 95.464462 
L 163.488209 97.281209 
L 162.322752 99.944957 
L 160.323013 104.004617 
L 157.308256 110.08521 
L 155.667707 113.706821 
L 148.539636 126.928559 
L 146.017188 131.218307 
L 144.717047 133.488713 
L 143.111302 136.294513 
L 141.495182 139.056681 
L 139.278955 142.321454 
L 136.314341 145.893948 
L 135.337876 146.354175 
L 134.165791 146.913499 
L 132.812623 148.087406 
L 127.745029 153.306383 
L 126.408524 154.297681 
L 124.868842 155.371668 
L 123.303534 156.306372 
L 121.151221 157.077401 
L 119.444641 157.658877 
L 116.545387 159.133523 
L 115.473575 159.806312 
L 112.102099 161.964722 
L 111.342377 161.977249 
L 110.948621 162.158406 
L 110.468728 162.589353 
L 110.032458 163.249738 
L 108.766026 165.338728 
L 107.93909 166.316425 
L 107.407247 166.846243 
L 106.563209 167.239817 
L 103.499822 168.080127 
L 102.429565 168.210771 
L 97.706519 169.09136 
L 96.382389 169.458182 
L 95.401912 169.767813 
L 93.877722 170.332147 
L 93.502616 170.294061 
L 92.706456 169.717956 
L 92.188556 169.435983 
L 91.72047 169.329577 
L 91.270041 169.670124 
L 90.575799 170.468187 
L 89.254851 172.394479 
L 88.574432 173.058938 
L 87.965998 173.396351 
L 87.223955 173.459688 
L 86.074855 173.25429 
L 85.577245 173.162323 
L 84.932261 173.097982 
L 82.748707 174.039531 
L 81.577286 174.672306 
L 80.925076 174.900547 
L 79.791863 175.006626 
L 79.159499 174.525643 
L 78.611026 174.131401 
L 78.066957 173.92266 
L 77.583472 173.902973 
L 77.333408 173.47279 
L 77.256693 172.456164 
L 77.279509 170.161794 
L 78.051611 163.106242 
L 78.938103 157.403746 
L 80.176895 151.369191 
L 84.314017 137.622857 
L 85.695492 134.141871 
L 87.560314 130.090525 
L 88.675026 127.496287 
L 93.644063 115.09661 
L 95.405127 111.12786 
L 98.815107 103.909657 
L 100.952947 99.900974 
L 103.783893 95.043526 
L 106.787752 90.202914 
L 109.203581 86.593576 
L 110.880241 84.472573 
L 113.753422 81.336059 
L 115.695857 79.076376 
L 122.277362 70.788441 
L 126.229045 66.656858 
L 129.465595 64.007673 
L 136.099684 59.155081 
L 139.1162 57.01387 
L 146.901691 52.032375 
L 150.716622 50.81617 
L 152.011358 50.141743 
L 156.84377 46.845364 
L 158.237617 45.803114 
L 160.082055 44.944827 
L 163.229841 43.590965 
L 164.676346 43.159913 
L 166.046229 42.554528 
L 168.880096 41.449998 
L 170.716207 40.286543 
L 172.115024 39.615758 
L 173.228397 39.074107 
L 174.738248 38.309025 
L 175.536292 37.930174 
L 178.007824 36.649907 
L 178.913339 36.518137 
L 180.107321 36.422318 
L 181.259364 36.074718 
L 182.605125 35.12912 
L 184.775038 33.371036 
L 187.33529 31.740043 
L 188.25537 31.416765 
L 190.574449 31.12885 
L 192.253451 30.94683 
L 194.838084 30.552547 
L 195.615894 30.505006 
L 197.448654 30.046051 
L 198.793216 29.667933 
L 201.259494 29.043388 
L 202.205897 28.845136 
L 202.873974 28.790427 
L 203.984083 29.207573 
L 204.525416 29.356728 
L 205.031426 29.258392 
L 205.659731 28.831582 
L 206.171058 28.28546 
L 207.494825 26.510983 
L 207.838478 26.284043 
L 208.346791 26.15057 
L 211.149051 26.098514 
L 212.04862 26.03014 
L 214.863849 25.608319 
L 215.619855 25.289681 
L 217.510355 24.309498 
L 218.517059 23.989297 
L 219.221584 23.758545 
L 219.661681 23.710833 
L 221.294366 24.408751 
L 221.797647 24.303416 
L 222.543577 23.983658 
L 223.450523 23.021469 
L 225.154276 20.943376 
L 225.775469 20.61276 
L 226.341724 20.519474 
L 227.582086 20.55137 
L 228.892813 20.76843 
L 230.245327 20.972811 
L 230.845666 20.896277 
L 231.710463 20.563446 
L 233.035934 20.152896 
L 233.41336 20.000564 
L 233.631057 20.002817 
L 233.981297 20.418101 
L 234.5155 21.079653 
L 234.873999 21.119763 
L 235.23712 20.898622 
L 236.114068 19.975477 
L 237.070266 18.65648 
L 237.965207 17.98373 
L 239.160406 17.752584 
L 242.725925 17.487232 
L 243.618498 17.320306 
L 244.732756 17.114565 
L 246.843651 16.136199 
L 247.065621 16.266042 
L 248.118238 17.427919 
L 248.320883 17.308767 
L 248.66494 16.917737 
L 248.943434 16.351914 
L 249.826183 13.804498 
L 250.171692 13.60259 
L 250.517126 13.670981 
L 251.611417 14.24518 
L 254.377079 15.129522 
L 254.696771 15.106822 
L 255.013235 15.049204 
L 255.348679 15.000593 
L 255.722432 14.75532 
L 256.081794 14.562324 
L 256.650205 14.416763 
L 257.01955 14.576961 
L 257.397874 15.305653 
L 257.772577 15.806845 
L 257.865401 15.754929 
L 258.04113 15.434588 
L 258.526722 14.051989 
L 258.946271 13.146056 
L 259.588735 12.702324 
L 260.291584 12.806243 
L 262.993271 13.328114 
L 264.233098 13.082495 
L 264.603495 13.045357 
L 264.910366 13.474155 
L 265.631111 14.300682 
L 265.883535 14.078134 
L 266.1042 13.599777 
L 266.581898 12.496571 
L 266.989804 11.87488 
L 267.263358 11.485521 
L 267.675305 11.786955 
L 268.561118 12.628429 
L 268.779732 12.723192 
L 269.143202 12.871489 
L 269.412392 12.814697 
L 269.755471 12.660547 
L 270.27397 12.634984 
L 270.39947 12.689063 
L 270.899935 13.889371 
L 270.921915 13.867764 
L 271.114868 13.55155 
L 271.44459 12.563212 
L 271.711202 11.78364 
L 271.979223 11.368933 
L 272.22768 11.220857 
L 272.475971 11.35822 
L 272.716649 11.707859 
L 273.21071 12.645587 
L 273.56484 13.046493 
L 274.218059 13.757904 
L 274.192893 13.780687 
L 273.68305 15.015179 
L 273.478094 15.898889 
L 272.886071 18.620187 
L 272.500909 19.791356 
L 272.055366 20.497409 
L 271.116242 21.599445 
L 269.456613 23.584972 
L 268.457782 25.486391 
L 266.6671 29.463864 
L 265.453917 32.627607 
L 264.069941 37.13364 
L 262.838421 41.749996 
L 261.280426 47.21714 
L 258.683582 54.935882 
L 255.904283 62.228846 
L 254.542254 65.188478 
L 251.962655 69.802995 
L 247.429218 77.274915 
L 244.403233 82.195035 
L 240.443774 88.620894 
L 235.458954 95.789025 
L 232.503365 99.781769 
L 230.272422 102.386127 
L 228.068198 104.676311 
L 220.549138 112.272547 
L 218.260344 114.77766 
L 217.140102 115.722422 
L 215.626582 116.651123 
L 214.602159 117.419473 
L 213.806962 118.288788 
L 209.639648 123.551311 
L 206.932505 126.741157 
L 205.521407 127.994523 
L 204.002224 129.101177 
L 202.090224 130.172256 
L 200.697857 130.847974 
L 197.536245 131.935725 
L 194.461119 132.907944 
L 192.277745 134.126671 
L 190.36413 135.266401 
L 183.859233 138.567406 
L 181.715263 139.415749 
L 180.780534 139.608629 
L 178.071759 139.897353 
L 176.753701 140.408978 
L 175.689758 141.011446 
L 173.772834 142.51384 
L 171.608947 144.276233 
L 166.908379 147.377344 
L 165.561112 147.880627 
L 163.611218 148.517518 
L 162.732201 148.819913 
L 161.68214 149.189841 
L 159.765477 150.168818 
L 158.274426 150.74128 
L 156.767899 151.464191 
L 155.151074 151.910725 
L 153.570552 152.320952 
L 152.028853 152.752748 
L 150.986698 152.751332 
L 150.14612 152.854893 
L 149.4931 153.101954 
L 149.000605 153.395652 
L 147.443491 154.574283 
L 144.699055 156.367322 
L 142.554357 157.191358 
L 140.50499 157.668785 
L 139.548905 157.848004 
L 136.792524 157.708494 
L 135.53 157.55812 
L 133.965335 157.627413 
L 131.738576 158.09803 
L 129.550585 158.787965 
L 129.173511 158.783926 
L 128.537724 158.558624 
L 127.432141 158.237009 
L 126.979886 158.230647 
L 126.553344 158.466611 
L 126.028764 159.026187 
L 124.792457 160.319723 
L 123.415422 160.890268 
L 121.956397 161.092435 
L 121.12368 161.387206 
L 120.137787 161.377558 
L 119.076962 161.26321 
L 117.391433 161.659252 
L 113.541008 163.117941 
L 112.921392 163.401439 
L 111.964437 163.582054 
L 111.576943 163.384255 
L 110.861278 162.843133 
L 110.125109 162.681703 
L 109.724379 162.864853 
L 108.766616 163.716294 
L 106.826554 165.557888 
L 103.268053 165.714148 
L 101.696758 166.236165 
L 98.384128 167.388942 
L 98.090043 167.180101 
L 97.53492 166.619853 
L 96.900004 166.372611 
L 96.612365 166.523219 
L 95.989402 167.353818 
L 95.29795 168.425679 
L 94.152423 169.628635 
L 93.691451 169.793 
L 93.049086 169.850983 
L 92.621936 169.78338 
L 91.636609 169.54934 
L 90.18097 169.620455 
L 88.988251 169.485177 
L 88.08333 169.716886 
L 87.642235 169.713912 
L 87.301936 169.7496 
L 86.917785 169.880588 
L 86.555144 170.01099 
L 86.233185 170.164107 
L 85.855287 170.294739 
L 85.679388 170.120408 
L 85.149472 169.516587 
L 84.959663 169.587244 
L 84.636308 170.145172 
L 83.335959 173.124629 
L 82.973122 173.446768 
L 82.447887 173.491121 
L 79.975164 172.113248 
L 78.479291 171.881951 
L 78.070942 171.981686 
L 77.507159 172.259889 
L 76.230491 172.660633 
L 76.084559 172.462509 
L 75.376209 171.147858 
L 75.33677 171.166954 
L 75.071713 171.393967 
L 73.849534 173.540265 
L 73.482654 173.9718 
L 72.425572 174.162922 
L 72.080228 173.831802 
L 71.695741 173.172161 
L 71.479515 172.876931 
L 70.847023 172.957783 
L 68.984695 173.539014 
L 68.132086 172.502036 
L 67.90303 172.667143 
L 67.622758 173.67404 
L 67.156519 175.066592 
L 66.827772 175.257221 
L 66.459184 175.221911 
L 65.996164 175.018279 
L 65.033975 174.430089 
L 64.399633 174.544642 
L 63.360826 174.244576 
L 63.011711 173.668995 
L 62.67598 173.046197 
L 62.493821 173.227207 
L 62.316527 173.656378 
L 61.998354 175.016481 
L 61.879676 175.20943 
L 61.197114 175.332962 
L 61.050718 175.496243 
L 60.850637 175.612535 
L 59.623304 174.476704 
L 59.444414 174.344219 
L 59.280827 174.151378 
L 58.845045 174.097341 
L 58.673057 173.797444 
L 58.670998 172.14107 
L 59.016687 171.059483 
L 60.224768 168.973474 
L 60.783993 167.790378 
L 61.758986 165.52659 
L 63.068554 162.261947 
L 64.136543 159.555267 
L 65.437101 156.162369 
L 71.209154 140.123875 
L 71.965294 137.937563 
L 73.119628 134.357797 
L 74.773937 129.9791 
L 76.294562 126.681784 
L 79.755623 119.992699 
L 82.321456 114.997895 
L 86.715771 106.608435 
L 90.409513 100.07369 
L 92.192851 97.480885 
L 94.63794 94.359342 
L 98.122467 89.966819 
L 100.61257 86.677294 
L 103.539403 82.773456 
L 106.063028 79.880433 
L 107.678256 78.380436 
L 112.60481 74.029868 
L 118.511188 67.929594 
L 121.179529 64.926168 
L 123.062211 62.883281 
L 124.138607 61.907937 
L 126.485179 60.288096 
L 131.374001 57.452723 
L 135.172824 55.704791 
L 136.482917 54.98461 
L 143.120138 51.154811 
L 143.898429 51.009887 
L 146.406429 50.561543 
L 147.346189 50.253639 
L 148.7076 49.563754 
L 151.6075 47.812992 
L 155.24567 45.36135 
L 156.352979 44.889572 
L 159.410287 43.88769 
L 163.757181 42.161959 
L 165.172388 41.360913 
L 167.516951 39.983911 
L 170.393067 38.522939 
L 171.37207 38.043698 
L 172.498965 37.825702 
L 174.527421 37.688721 
L 175.188064 37.4404 
L 175.965852 36.842435 
L 177.230205 35.551817 
L 178.658917 34.229758 
L 180.035695 33.527895 
L 182.147525 33.043828 
L 183.774279 32.905934 
L 184.787557 32.831807 
L 185.971783 32.828596 
L 190.889184 31.821271 
L 191.956056 31.645122 
L 194.251828 31.535444 
L 196.684674 31.03172 
L 197.237491 31.499167 
L 197.630489 31.959878 
L 197.885851 32.011684 
L 198.179699 31.878769 
L 198.944698 31.085857 
L 199.524509 30.523293 
L 200.216925 30.057903 
L 200.827432 29.680487 
L 201.483237 29.46537 
L 202.124604 29.33626 
L 203.640823 28.770191 
L 205.096274 28.851057 
L 207.018467 28.40522 
L 207.907298 28.268715 
L 208.539766 28.357358 
L 208.848187 28.2508 
L 209.594438 27.850325 
L 210.672534 27.591251 
L 211.824551 27.531338 
L 212.266316 27.456922 
L 212.525988 27.385359 
L 212.989552 27.704763 
L 213.422626 27.939871 
L 213.884057 27.941233 
L 214.682651 27.648944 
L 215.552421 27.250338 
L 216.644765 26.471087 
L 217.699971 25.490754 
L 218.241675 25.030321 
L 218.988772 24.619802 
L 219.769186 24.137034 
L 220.558035 24.119053 
L 221.06477 24.171762 
L 221.905909 24.332402 
L 223.041198 24.372012 
L 223.819252 24.19637 
L 224.525277 23.98112 
L 225.286616 24.019384 
L 225.632616 23.892172 
L 226.844687 23.453621 
L 227.364223 23.045362 
L 227.549537 23.002802 
L 228.915496 23.537757 
L 229.289632 23.190916 
L 230.089188 22.323658 
L 230.423911 22.132171 
L 230.970797 21.623435 
L 231.612405 21.033354 
L 232.254504 20.464383 
L 232.953156 20.183434 
L 233.550883 20.135955 
L 234.07076 20.218502 
L 234.881922 20.452443 
L 235.615639 20.548879 
L 236.143367 20.817286 
L 236.874711 20.788114 
L 237.432381 20.896882 
L 237.847454 20.81045 
L 238.790466 20.406175 
L 239.610987 19.976768 
L 240.336513 19.593428 
L 240.627878 19.734055 
L 240.982721 20.129351 
L 241.319555 20.490851 
L 241.525785 20.402417 
L 241.821877 19.838904 
L 243.407276 17.191978 
L 244.148758 16.756595 
L 244.498384 16.651062 
L 245.013578 16.739091 
L 245.56174 16.923684 
L 245.937591 16.928389 
L 247.296156 17.206695 
L 248.174366 17.323553 
L 249.364009 17.240835 
L 249.657391 17.201867 
L 249.903562 17.063532 
L 250.282465 17.41204 
L 250.785855 17.90898 
L 251.016731 17.967593 
L 251.633619 17.658917 
L 252.020518 17.230461 
L 252.825949 15.411396 
L 253.067558 15.430244 
L 253.454092 15.694464 
L 253.768861 15.726732 
L 253.960755 15.727705 
L 254.18665 15.869627 
L 254.454738 16.037722 
L 254.701211 16.15267 
L 255.593112 16.693832 
L 256.038983 16.623871 
L 256.580067 16.038902 
L 257.074107 15.698386 
L 257.381969 15.613745 
L 257.69555 15.86147 
L 258.171763 16.63648 
L 258.463802 17.25777 
L 258.598401 17.278697 
L 259.02688 16.683699 
L 259.375 15.672435 
L 259.854365 14.37473 
L 260.290223 13.96369 
L 260.567739 14.019336 
L 261.154625 14.269958 
L 261.741294 14.967447 
L 262.96417 15.213086 
L 263.2133 15.307789 
L 264.106747 15.044409 
L 264.399576 14.923694 
L 264.693171 14.836529 
L 264.76892 14.362525 
L 264.867954 14.644812 
L 265.115636 15.980905 
L 265.153471 15.919789 
L 265.293859 15.194369 
L 265.605653 14.262862 
L 265.949881 13.866618 
L 266.193266 13.827516 
L 266.573089 13.879361 
L 266.949572 13.927457 
L 267.511579 13.676804 
L 267.532028 13.720291 
L 267.855079 14.525603 
L 269.045428 14.621391 
L 269.33426 14.608033 
L 269.538514 15.008619 
L 269.797647 15.426748 
L 269.930165 15.402307 
L 270.035138 15.20348 
L 270.567343 13.412528 
L 270.686449 13.41611 
L 270.975404 14.088578 
L 271.028722 14.678675 
L 270.788846 16.266108 
L 270.010519 19.576914 
L 269.340629 21.552171 
L 267.078401 26.639924 
L 266.081209 28.46613 
L 264.683664 31.734284 
L 261.994732 39.131732 
L 261.003865 41.284868 
L 260.077613 43.175984 
L 255.600501 54.487294 
L 250.685912 67.631297 
L 249.239333 70.981156 
L 246.406294 76.814356 
L 244.402534 80.120665 
L 239.521138 87.385237 
L 236.203243 92.106583 
L 233.925964 95.62061 
L 229.898574 102.011849 
L 228.066853 104.334276 
L 224.173213 108.608946 
L 217.478363 115.345089 
L 212.973163 119.244489 
L 208.429198 123.452906 
L 206.425752 125.45896 
L 202.289685 128.831297 
L 197.737981 131.688687 
L 192.20791 135.867255 
L 189.807728 137.121069 
L 186.190656 138.737392 
L 178.52634 141.469086 
L 176.51857 142.52705 
L 175.594793 143.053411 
L 166.292082 146.722689 
L 164.728678 147.078907 
L 163.971759 147.621306 
L 163.213401 148.445986 
L 161.418413 150.280244 
L 160.253434 150.977096 
L 158.29476 152.145095 
L 156.770685 152.954114 
L 155.71015 153.270756 
L 151.113671 154.476493 
L 150.427527 154.573353 
L 149.058703 155.037919 
L 147.786252 155.474905 
L 142.87339 156.649283 
L 141.412389 156.561901 
L 140.309618 156.124053 
L 139.433822 155.965882 
L 138.879204 156.035499 
L 138.027635 156.558523 
L 135.015938 159.331323 
L 133.965556 159.648999 
L 132.918257 159.620164 
L 132.446742 159.553859 
L 129.474394 159.610817 
L 129.474394 159.610817 
" clip-path="url(#p8a86bf614c)" style="fill: none; stroke: #fa7c17; stroke-width: 1.5; stroke-linecap: round"/>
   </g>
   <g id="patch_3">
    <path d="M 47.857271 183.853822 
L 47.857271 3.00024 
" style="fill: none; stroke: #000000; stroke-linejoin: miter; stroke-linecap: square"/>
   </g>
   <g id="patch_4">
    <path d="M 47.857271 183.853822 
L 284.99976 183.853822 
" style="fill: none; stroke: #000000; stroke-linejoin: miter; stroke-linecap: square"/>
   </g>
   <g id="legend_1">
    <g id="line2d_23">
     <path d="M 57.757271 17.408521 
L 68.757271 17.408521 
L 79.757271 17.408521 
" style="fill: none; stroke: #2a2eec; stroke-width: 1.5; stroke-linecap: round"/>
    </g>
    <g id="text_13">
     <!-- zigzag10/10 -->
     <g style="fill: #262626" transform="translate(88.557271 21.258521) scale(0.11 -0.11)">
      <defs>
       <path id="DejaVuSerif-7a" d="M 256 0 
L 256 269 
L 2338 2988 
L 691 2988 
L 691 2413 
L 359 2413 
L 359 3322 
L 3078 3322 
L 3078 3053 
L 997 331 
L 2803 331 
L 2803 934 
L 3138 934 
L 3138 0 
L 256 0 
z
" transform="scale(0.015625)"/>
       <path id="DejaVuSerif-2f" d="M 1656 4666 
L 2156 4666 
L 500 -594 
L 0 -594 
L 1656 4666 
z
" transform="scale(0.015625)"/>
      </defs>
      <use xlink:href="#DejaVuSerif-7a"/>
      <use xlink:href="#DejaVuSerif-69" x="52.685547"/>
      <use xlink:href="#DejaVuSerif-67" x="84.667969"/>
      <use xlink:href="#DejaVuSerif-7a" x="148.681641"/>
      <use xlink:href="#DejaVuSerif-61" x="201.367188"/>
      <use xlink:href="#DejaVuSerif-67" x="260.986328"/>
      <use xlink:href="#DejaVuSerif-31" x="325"/>
      <use xlink:href="#DejaVuSerif-30" x="388.623047"/>
      <use xlink:href="#DejaVuSerif-2f" x="452.246094"/>
      <use xlink:href="#DejaVuSerif-31" x="485.9375"/>
      <use xlink:href="#DejaVuSerif-30" x="549.560547"/>
     </g>
    </g>
    <g id="line2d_24">
     <path d="M 57.757271 33.710865 
L 68.757271 33.710865 
L 79.757271 33.710865 
" style="fill: none; stroke: #fa7c17; stroke-width: 1.5; stroke-linecap: round"/>
    </g>
    <g id="text_14">
     <!-- zigzag20/20 -->
     <g style="fill: #262626" transform="translate(88.557271 37.560865) scale(0.11 -0.11)">
      <use xlink:href="#DejaVuSerif-7a"/>
      <use xlink:href="#DejaVuSerif-69" x="52.685547"/>
      <use xlink:href="#DejaVuSerif-67" x="84.667969"/>
      <use xlink:href="#DejaVuSerif-7a" x="148.681641"/>
      <use xlink:href="#DejaVuSerif-61" x="201.367188"/>
      <use xlink:href="#DejaVuSerif-67" x="260.986328"/>
      <use xlink:href="#DejaVuSerif-32" x="325"/>
      <use xlink:href="#DejaVuSerif-30" x="388.623047"/>
      <use xlink:href="#DejaVuSerif-2f" x="452.246094"/>
      <use xlink:href="#DejaVuSerif-32" x="485.9375"/>
      <use xlink:href="#DejaVuSerif-30" x="549.560547"/>
     </g>
    </g>
   </g>
  </g>
 </g>
 <defs>
  <clipPath id="p8a86bf614c">
   <rect x="47.857271" y="3.00024" width="237.142489" height="180.853583"/>
  </clipPath>
 </defs>
</svg>
