<?xml version="1.0" encoding="utf-8" standalone="no"?>
<!DOCTYPE svg PUBLIC "-//W3C//DTD SVG 1.1//EN"
  "http://www.w3.org/Graphics/SVG/1.1/DTD/svg11.dtd">
<svg xmlns:xlink="http://www.w3.org/1999/xlink" width="198pt" height="136.8pt" viewBox="0 0 198 136.8" xmlns="http://www.w3.org/2000/svg" version="1.1">
 <metadata>
  <rdf:RDF xmlns:dc="http://purl.org/dc/elements/1.1/" xmlns:cc="http://creativecommons.org/ns#" xmlns:rdf="http://www.w3.org/1999/02/22-rdf-syntax-ns#">
   <cc:Work>
    <dc:type rdf:resource="http://purl.org/dc/dcmitype/StillImage"/>
    <dc:date>2024-02-12T15:04:17.238465</dc:date>
    <dc:format>image/svg+xml</dc:format>
    <dc:creator>
     <cc:Agent>
      <dc:title>Matplotlib v3.8.2, https://matplotlib.org/</dc:title>
     </cc:Agent>
    </dc:creator>
   </cc:Work>
  </rdf:RDF>
 </metadata>
 <defs>
  <style type="text/css">*{stroke-linejoin: round; stroke-linecap: butt}</style>
 </defs>
 <g id="figure_1">
  <g id="patch_1">
   <path d="M 0 136.8 
L 198 136.8 
L 198 0 
L 0 0 
z
" style="fill: #ffffff"/>
  </g>
  <g id="axes_1">
   <g id="patch_2">
    <path d="M 41.065084 108.589447 
L 194.99976 108.589447 
L 194.99976 3.00024 
L 41.065084 3.00024 
z
" style="fill: #ffffff"/>
   </g>
   <g id="matplotlib.axis_1">
    <g id="xtick_1">
     <g id="line2d_1">
      <path d="M 62.167984 108.589447 
L 62.167984 3.00024 
" clip-path="url(#pcf7cdfdc2e)" style="fill: none; stroke: #b0b0b0; stroke-width: 0.8; stroke-linecap: round"/>
     </g>
     <g id="line2d_2"/>
     <g id="text_1">
      <!-- −10 -->
      <g style="fill: #262626" transform="translate(52.670874 118.928041) scale(0.09 -0.09)">
       <defs>
        <path id="DejaVuSerif-2212" d="M 678 2259 
L 4684 2259 
L 4684 1753 
L 678 1753 
L 678 2259 
z
" transform="scale(0.015625)"/>
        <path id="DejaVuSerif-31" d="M 909 0 
L 909 331 
L 1722 331 
L 1722 4213 
L 781 3603 
L 781 4013 
L 1919 4750 
L 2350 4750 
L 2350 331 
L 3163 331 
L 3163 0 
L 909 0 
z
" transform="scale(0.015625)"/>
        <path id="DejaVuSerif-30" d="M 2034 219 
Q 2513 219 2750 744 
Q 2988 1269 2988 2328 
Q 2988 3391 2750 3916 
Q 2513 4441 2034 4441 
Q 1556 4441 1318 3916 
Q 1081 3391 1081 2328 
Q 1081 1269 1318 744 
Q 1556 219 2034 219 
z
M 2034 -91 
Q 1275 -91 848 546 
Q 422 1184 422 2328 
Q 422 3475 848 4112 
Q 1275 4750 2034 4750 
Q 2797 4750 3222 4112 
Q 3647 3475 3647 2328 
Q 3647 1184 3222 546 
Q 2797 -91 2034 -91 
z
" transform="scale(0.015625)"/>
       </defs>
       <use xlink:href="#DejaVuSerif-2212"/>
       <use xlink:href="#DejaVuSerif-31" x="83.789062"/>
       <use xlink:href="#DejaVuSerif-30" x="147.412109"/>
      </g>
     </g>
    </g>
    <g id="xtick_2">
     <g id="line2d_3">
      <path d="M 116.690613 108.589447 
L 116.690613 3.00024 
" clip-path="url(#pcf7cdfdc2e)" style="fill: none; stroke: #b0b0b0; stroke-width: 0.8; stroke-linecap: round"/>
     </g>
     <g id="line2d_4"/>
     <g id="text_2">
      <!-- 0 -->
      <g style="fill: #262626" transform="translate(113.827488 118.928041) scale(0.09 -0.09)">
       <use xlink:href="#DejaVuSerif-30"/>
      </g>
     </g>
    </g>
    <g id="xtick_3">
     <g id="line2d_5">
      <path d="M 171.213243 108.589447 
L 171.213243 3.00024 
" clip-path="url(#pcf7cdfdc2e)" style="fill: none; stroke: #b0b0b0; stroke-width: 0.8; stroke-linecap: round"/>
     </g>
     <g id="line2d_6"/>
     <g id="text_3">
      <!-- 10 -->
      <g style="fill: #262626" transform="translate(165.486993 118.928041) scale(0.09 -0.09)">
       <use xlink:href="#DejaVuSerif-31"/>
       <use xlink:href="#DejaVuSerif-30" x="63.623047"/>
      </g>
     </g>
    </g>
    <g id="text_4">
     <!-- Drift angle $\beta$ $[deg]$ -->
     <g style="fill: #262626" transform="translate(75.597422 131.72976) scale(0.09 -0.09)">
      <defs>
       <path id="DejaVuSerif-44" d="M 1581 331 
L 2163 331 
Q 3072 331 3558 850 
Q 4044 1369 4044 2338 
Q 4044 3306 3559 3818 
Q 3075 4331 2163 4331 
L 1581 4331 
L 1581 331 
z
M 353 0 
L 353 331 
L 947 331 
L 947 4331 
L 353 4331 
L 353 4666 
L 2209 4666 
Q 3416 4666 4089 4050 
Q 4763 3434 4763 2338 
Q 4763 1238 4088 619 
Q 3413 0 2209 0 
L 353 0 
z
" transform="scale(0.015625)"/>
       <path id="DejaVuSerif-72" d="M 3059 3328 
L 3059 2497 
L 2728 2497 
Q 2713 2744 2591 2866 
Q 2469 2988 2234 2988 
Q 1809 2988 1582 2694 
Q 1356 2400 1356 1850 
L 1356 331 
L 2022 331 
L 2022 0 
L 263 0 
L 263 331 
L 781 331 
L 781 2994 
L 231 2994 
L 231 3322 
L 1356 3322 
L 1356 2731 
Q 1525 3078 1790 3245 
Q 2056 3413 2438 3413 
Q 2578 3413 2733 3391 
Q 2888 3369 3059 3328 
z
" transform="scale(0.015625)"/>
       <path id="DejaVuSerif-69" d="M 622 4353 
Q 622 4497 726 4603 
Q 831 4709 978 4709 
Q 1122 4709 1226 4603 
Q 1331 4497 1331 4353 
Q 1331 4206 1228 4103 
Q 1125 4000 978 4000 
Q 831 4000 726 4103 
Q 622 4206 622 4353 
z
M 1356 331 
L 1900 331 
L 1900 0 
L 231 0 
L 231 331 
L 781 331 
L 781 2988 
L 231 2988 
L 231 3322 
L 1356 3322 
L 1356 331 
z
" transform="scale(0.015625)"/>
       <path id="DejaVuSerif-66" d="M 2753 4078 
L 2450 4078 
Q 2447 4313 2317 4434 
Q 2188 4556 1941 4556 
Q 1619 4556 1487 4379 
Q 1356 4203 1356 3750 
L 1356 3322 
L 2284 3322 
L 2284 2988 
L 1356 2988 
L 1356 331 
L 2094 331 
L 2094 0 
L 231 0 
L 231 331 
L 781 331 
L 781 2988 
L 231 2988 
L 231 3322 
L 781 3322 
L 781 3738 
Q 781 4294 1070 4578 
Q 1359 4863 1919 4863 
Q 2128 4863 2337 4825 
Q 2547 4788 2753 4709 
L 2753 4078 
z
" transform="scale(0.015625)"/>
       <path id="DejaVuSerif-74" d="M 691 2988 
L 184 2988 
L 184 3322 
L 691 3322 
L 691 4353 
L 1269 4353 
L 1269 3322 
L 2350 3322 
L 2350 2988 
L 1269 2988 
L 1269 878 
Q 1269 456 1350 337 
Q 1431 219 1650 219 
Q 1875 219 1978 351 
Q 2081 484 2088 781 
L 2522 781 
Q 2497 328 2275 118 
Q 2053 -91 1600 -91 
Q 1103 -91 897 129 
Q 691 350 691 878 
L 691 2988 
z
" transform="scale(0.015625)"/>
       <path id="DejaVuSerif-20" transform="scale(0.015625)"/>
       <path id="DejaVuSerif-61" d="M 2547 1044 
L 2547 1747 
L 1806 1747 
Q 1378 1747 1168 1562 
Q 959 1378 959 997 
Q 959 650 1171 447 
Q 1384 244 1747 244 
Q 2106 244 2326 466 
Q 2547 688 2547 1044 
z
M 3122 2075 
L 3122 331 
L 3634 331 
L 3634 0 
L 2547 0 
L 2547 359 
Q 2356 128 2106 18 
Q 1856 -91 1522 -91 
Q 969 -91 644 203 
Q 319 497 319 997 
Q 319 1513 691 1797 
Q 1063 2081 1741 2081 
L 2547 2081 
L 2547 2309 
Q 2547 2688 2317 2895 
Q 2088 3103 1672 3103 
Q 1328 3103 1125 2947 
Q 922 2791 872 2484 
L 575 2484 
L 575 3156 
Q 875 3284 1158 3348 
Q 1441 3413 1709 3413 
Q 2400 3413 2761 3070 
Q 3122 2728 3122 2075 
z
" transform="scale(0.015625)"/>
       <path id="DejaVuSerif-6e" d="M 263 0 
L 263 331 
L 781 331 
L 781 2988 
L 231 2988 
L 231 3322 
L 1356 3322 
L 1356 2731 
Q 1516 3069 1770 3241 
Q 2025 3413 2363 3413 
Q 2913 3413 3172 3097 
Q 3431 2781 3431 2113 
L 3431 331 
L 3944 331 
L 3944 0 
L 2356 0 
L 2356 331 
L 2853 331 
L 2853 1931 
Q 2853 2541 2703 2767 
Q 2553 2994 2175 2994 
Q 1775 2994 1565 2701 
Q 1356 2409 1356 1850 
L 1356 331 
L 1856 331 
L 1856 0 
L 263 0 
z
" transform="scale(0.015625)"/>
       <path id="DejaVuSerif-67" d="M 3359 2988 
L 3359 72 
Q 3359 -644 2965 -1033 
Q 2572 -1422 1844 -1422 
Q 1516 -1422 1216 -1362 
Q 916 -1303 641 -1184 
L 641 -488 
L 941 -488 
Q 997 -813 1206 -963 
Q 1416 -1113 1806 -1113 
Q 2313 -1113 2548 -827 
Q 2784 -541 2784 72 
L 2784 519 
Q 2616 206 2355 57 
Q 2094 -91 1709 -91 
Q 1097 -91 708 395 
Q 319 881 319 1663 
Q 319 2444 706 2928 
Q 1094 3413 1709 3413 
Q 2094 3413 2355 3264 
Q 2616 3116 2784 2803 
L 2784 3322 
L 3909 3322 
L 3909 2988 
L 3359 2988 
z
M 2784 1825 
Q 2784 2422 2554 2737 
Q 2325 3053 1888 3053 
Q 1444 3053 1217 2703 
Q 991 2353 991 1663 
Q 991 975 1217 622 
Q 1444 269 1888 269 
Q 2325 269 2554 583 
Q 2784 897 2784 1497 
L 2784 1825 
z
" transform="scale(0.015625)"/>
       <path id="DejaVuSerif-6c" d="M 1313 331 
L 1856 331 
L 1856 0 
L 184 0 
L 184 331 
L 738 331 
L 738 4531 
L 184 4531 
L 184 4863 
L 1313 4863 
L 1313 331 
z
" transform="scale(0.015625)"/>
       <path id="DejaVuSerif-65" d="M 3469 1600 
L 991 1600 
L 991 1575 
Q 991 903 1244 561 
Q 1497 219 1991 219 
Q 2369 219 2611 417 
Q 2853 616 2950 1006 
L 3413 1006 
Q 3275 459 2904 184 
Q 2534 -91 1931 -91 
Q 1203 -91 761 389 
Q 319 869 319 1663 
Q 319 2450 753 2931 
Q 1188 3413 1894 3413 
Q 2647 3413 3050 2948 
Q 3453 2484 3469 1600 
z
M 2791 1931 
Q 2772 2513 2545 2808 
Q 2319 3103 1894 3103 
Q 1497 3103 1269 2806 
Q 1041 2509 991 1931 
L 2791 1931 
z
" transform="scale(0.015625)"/>
       <path id="DejaVuSans-Oblique-3b2" d="M 872 216 
L 572 -1331 
L -6 -1331 
L 928 3478 
Q 1206 4903 2538 4903 
Q 3888 4903 3659 3700 
Q 3503 2844 2894 2531 
Q 3713 2250 3553 1416 
Q 3272 -69 1759 -66 
Q 1097 -63 872 216 
z
M 1019 966 
Q 1259 422 1875 425 
Q 2775 425 2966 1406 
Q 3138 2288 1675 2219 
L 1778 2750 
Q 2909 2731 3106 3750 
Q 3241 4438 2509 4434 
Q 1691 4434 1503 3459 
L 1019 966 
z
" transform="scale(0.015625)"/>
       <path id="DejaVuSans-5b" d="M 550 4863 
L 1875 4863 
L 1875 4416 
L 1125 4416 
L 1125 -397 
L 1875 -397 
L 1875 -844 
L 550 -844 
L 550 4863 
z
" transform="scale(0.015625)"/>
       <path id="DejaVuSans-Oblique-64" d="M 2675 525 
Q 2444 222 2128 65 
Q 1813 -91 1428 -91 
Q 903 -91 598 267 
Q 294 625 294 1247 
Q 294 1766 478 2236 
Q 663 2706 1013 3078 
Q 1244 3325 1534 3454 
Q 1825 3584 2144 3584 
Q 2481 3584 2739 3421 
Q 2997 3259 3138 2956 
L 3513 4863 
L 4091 4863 
L 3144 0 
L 2566 0 
L 2675 525 
z
M 891 1350 
Q 891 897 1095 644 
Q 1300 391 1663 391 
Q 1931 391 2161 520 
Q 2391 650 2566 903 
Q 2750 1166 2856 1509 
Q 2963 1853 2963 2188 
Q 2963 2622 2758 2865 
Q 2553 3109 2194 3109 
Q 1922 3109 1687 2981 
Q 1453 2853 1288 2613 
Q 1106 2353 998 2009 
Q 891 1666 891 1350 
z
" transform="scale(0.015625)"/>
       <path id="DejaVuSans-Oblique-65" d="M 3078 2063 
Q 3088 2113 3092 2166 
Q 3097 2219 3097 2272 
Q 3097 2653 2873 2875 
Q 2650 3097 2266 3097 
Q 1838 3097 1509 2826 
Q 1181 2556 1013 2059 
L 3078 2063 
z
M 3578 1613 
L 903 1613 
Q 884 1494 878 1425 
Q 872 1356 872 1306 
Q 872 872 1139 634 
Q 1406 397 1894 397 
Q 2269 397 2603 481 
Q 2938 566 3225 728 
L 3116 159 
Q 2806 34 2476 -28 
Q 2147 -91 1806 -91 
Q 1078 -91 686 257 
Q 294 606 294 1247 
Q 294 1794 489 2264 
Q 684 2734 1063 3103 
Q 1306 3334 1642 3459 
Q 1978 3584 2356 3584 
Q 2950 3584 3301 3228 
Q 3653 2872 3653 2272 
Q 3653 2128 3634 1964 
Q 3616 1800 3578 1613 
z
" transform="scale(0.015625)"/>
       <path id="DejaVuSans-Oblique-67" d="M 3816 3500 
L 3219 434 
Q 3047 -456 2561 -893 
Q 2075 -1331 1253 -1331 
Q 950 -1331 690 -1286 
Q 431 -1241 206 -1147 
L 313 -588 
Q 525 -725 762 -790 
Q 1000 -856 1269 -856 
Q 1816 -856 2167 -557 
Q 2519 -259 2631 300 
L 2681 563 
Q 2441 288 2122 144 
Q 1803 0 1434 0 
Q 903 0 598 351 
Q 294 703 294 1319 
Q 294 1803 478 2267 
Q 663 2731 997 3091 
Q 1219 3328 1514 3456 
Q 1809 3584 2131 3584 
Q 2484 3584 2746 3420 
Q 3009 3256 3138 2956 
L 3238 3500 
L 3816 3500 
z
M 2950 2216 
Q 2950 2641 2750 2872 
Q 2550 3103 2181 3103 
Q 1953 3103 1747 3012 
Q 1541 2922 1394 2759 
Q 1156 2491 1023 2127 
Q 891 1763 891 1375 
Q 891 944 1092 712 
Q 1294 481 1672 481 
Q 2219 481 2584 976 
Q 2950 1472 2950 2216 
z
" transform="scale(0.015625)"/>
       <path id="DejaVuSans-5d" d="M 1947 4863 
L 1947 -844 
L 622 -844 
L 622 -397 
L 1369 -397 
L 1369 4416 
L 622 4416 
L 622 4863 
L 1947 4863 
z
" transform="scale(0.015625)"/>
      </defs>
      <use xlink:href="#DejaVuSerif-44" transform="translate(0 0.390625)"/>
      <use xlink:href="#DejaVuSerif-72" transform="translate(80.175781 0.390625)"/>
      <use xlink:href="#DejaVuSerif-69" transform="translate(127.978516 0.390625)"/>
      <use xlink:href="#DejaVuSerif-66" transform="translate(159.960938 0.390625)"/>
      <use xlink:href="#DejaVuSerif-74" transform="translate(196.972656 0.390625)"/>
      <use xlink:href="#DejaVuSerif-20" transform="translate(237.158203 0.390625)"/>
      <use xlink:href="#DejaVuSerif-61" transform="translate(268.945312 0.390625)"/>
      <use xlink:href="#DejaVuSerif-6e" transform="translate(328.564453 0.390625)"/>
      <use xlink:href="#DejaVuSerif-67" transform="translate(392.96875 0.390625)"/>
      <use xlink:href="#DejaVuSerif-6c" transform="translate(456.982422 0.390625)"/>
      <use xlink:href="#DejaVuSerif-65" transform="translate(488.964844 0.390625)"/>
      <use xlink:href="#DejaVuSerif-20" transform="translate(548.144531 0.390625)"/>
      <use xlink:href="#DejaVuSans-Oblique-3b2" transform="translate(579.931641 0.390625)"/>
      <use xlink:href="#DejaVuSerif-20" transform="translate(643.75 0.390625)"/>
      <use xlink:href="#DejaVuSans-5b" transform="translate(675.537109 0.390625)"/>
      <use xlink:href="#DejaVuSans-Oblique-64" transform="translate(714.550781 0.390625)"/>
      <use xlink:href="#DejaVuSans-Oblique-65" transform="translate(778.027344 0.390625)"/>
      <use xlink:href="#DejaVuSans-Oblique-67" transform="translate(839.550781 0.390625)"/>
      <use xlink:href="#DejaVuSans-5d" transform="translate(903.027344 0.390625)"/>
     </g>
    </g>
   </g>
   <g id="matplotlib.axis_2">
    <g id="ytick_1">
     <g id="line2d_7">
      <path d="M 41.065084 101.925133 
L 194.99976 101.925133 
" clip-path="url(#pcf7cdfdc2e)" style="fill: none; stroke: #b0b0b0; stroke-width: 0.8; stroke-linecap: round"/>
     </g>
     <g id="line2d_8"/>
     <g id="text_5">
      <!-- −0.4 -->
      <g style="fill: #262626" transform="translate(15.710552 105.34443) scale(0.09 -0.09)">
       <defs>
        <path id="DejaVuSerif-2e" d="M 603 325 
Q 603 500 722 622 
Q 841 744 1019 744 
Q 1191 744 1312 622 
Q 1434 500 1434 325 
Q 1434 153 1312 31 
Q 1191 -91 1019 -91 
Q 841 -91 722 29 
Q 603 150 603 325 
z
" transform="scale(0.015625)"/>
        <path id="DejaVuSerif-34" d="M 2234 1581 
L 2234 4063 
L 641 1581 
L 2234 1581 
z
M 3609 0 
L 1484 0 
L 1484 331 
L 2234 331 
L 2234 1247 
L 197 1247 
L 197 1588 
L 2241 4750 
L 2859 4750 
L 2859 1581 
L 3750 1581 
L 3750 1247 
L 2859 1247 
L 2859 331 
L 3609 331 
L 3609 0 
z
" transform="scale(0.015625)"/>
       </defs>
       <use xlink:href="#DejaVuSerif-2212"/>
       <use xlink:href="#DejaVuSerif-30" x="83.789062"/>
       <use xlink:href="#DejaVuSerif-2e" x="147.412109"/>
       <use xlink:href="#DejaVuSerif-34" x="179.199219"/>
      </g>
     </g>
    </g>
    <g id="ytick_2">
     <g id="line2d_9">
      <path d="M 41.065084 79.013189 
L 194.99976 79.013189 
" clip-path="url(#pcf7cdfdc2e)" style="fill: none; stroke: #b0b0b0; stroke-width: 0.8; stroke-linecap: round"/>
     </g>
     <g id="line2d_10"/>
     <g id="text_6">
      <!-- −0.2 -->
      <g style="fill: #262626" transform="translate(15.710552 82.432486) scale(0.09 -0.09)">
       <defs>
        <path id="DejaVuSerif-32" d="M 819 3553 
L 469 3553 
L 469 4384 
Q 803 4563 1142 4656 
Q 1481 4750 1806 4750 
Q 2534 4750 2956 4397 
Q 3378 4044 3378 3438 
Q 3378 2753 2422 1800 
Q 2347 1728 2309 1691 
L 1131 513 
L 3078 513 
L 3078 1088 
L 3444 1088 
L 3444 0 
L 434 0 
L 434 341 
L 1850 1753 
Q 2319 2222 2519 2614 
Q 2719 3006 2719 3438 
Q 2719 3909 2473 4175 
Q 2228 4441 1797 4441 
Q 1350 4441 1106 4219 
Q 863 3997 819 3553 
z
" transform="scale(0.015625)"/>
       </defs>
       <use xlink:href="#DejaVuSerif-2212"/>
       <use xlink:href="#DejaVuSerif-30" x="83.789062"/>
       <use xlink:href="#DejaVuSerif-2e" x="147.412109"/>
       <use xlink:href="#DejaVuSerif-32" x="179.199219"/>
      </g>
     </g>
    </g>
    <g id="ytick_3">
     <g id="line2d_11">
      <path d="M 41.065084 56.101245 
L 194.99976 56.101245 
" clip-path="url(#pcf7cdfdc2e)" style="fill: none; stroke: #b0b0b0; stroke-width: 0.8; stroke-linecap: round"/>
     </g>
     <g id="line2d_12"/>
     <g id="text_7">
      <!-- 0.0 -->
      <g style="fill: #262626" transform="translate(23.252271 59.520542) scale(0.09 -0.09)">
       <use xlink:href="#DejaVuSerif-30"/>
       <use xlink:href="#DejaVuSerif-2e" x="63.623047"/>
       <use xlink:href="#DejaVuSerif-30" x="95.410156"/>
      </g>
     </g>
    </g>
    <g id="ytick_4">
     <g id="line2d_13">
      <path d="M 41.065084 33.189301 
L 194.99976 33.189301 
" clip-path="url(#pcf7cdfdc2e)" style="fill: none; stroke: #b0b0b0; stroke-width: 0.8; stroke-linecap: round"/>
     </g>
     <g id="line2d_14"/>
     <g id="text_8">
      <!-- 0.2 -->
      <g style="fill: #262626" transform="translate(23.252271 36.608598) scale(0.09 -0.09)">
       <use xlink:href="#DejaVuSerif-30"/>
       <use xlink:href="#DejaVuSerif-2e" x="63.623047"/>
       <use xlink:href="#DejaVuSerif-32" x="95.410156"/>
      </g>
     </g>
    </g>
    <g id="ytick_5">
     <g id="line2d_15">
      <path d="M 41.065084 10.277357 
L 194.99976 10.277357 
" clip-path="url(#pcf7cdfdc2e)" style="fill: none; stroke: #b0b0b0; stroke-width: 0.8; stroke-linecap: round"/>
     </g>
     <g id="line2d_16"/>
     <g id="text_9">
      <!-- 0.4 -->
      <g style="fill: #262626" transform="translate(23.252271 13.696654) scale(0.09 -0.09)">
       <use xlink:href="#DejaVuSerif-30"/>
       <use xlink:href="#DejaVuSerif-2e" x="63.623047"/>
       <use xlink:href="#DejaVuSerif-34" x="95.410156"/>
      </g>
     </g>
    </g>
    <g id="text_10">
     <!-- Yaw rate ${r}'$ $[-]$ -->
     <g style="fill: #262626" transform="translate(9.838834 89.229844) rotate(-90) scale(0.09 -0.09)">
      <defs>
       <path id="DejaVuSerif-59" d="M 1209 0 
L 1209 331 
L 1806 331 
L 1806 2009 
L 366 4331 
L -72 4331 
L -72 4666 
L 1663 4666 
L 1663 4331 
L 1119 4331 
L 2284 2444 
L 3450 4331 
L 2925 4331 
L 2925 4666 
L 4281 4666 
L 4281 4331 
L 3841 4331 
L 2438 2069 
L 2438 331 
L 3034 331 
L 3034 0 
L 1209 0 
z
" transform="scale(0.015625)"/>
       <path id="DejaVuSerif-77" d="M 3072 3322 
L 3922 728 
L 4672 2988 
L 4191 2988 
L 4191 3322 
L 5394 3322 
L 5394 2988 
L 5025 2988 
L 4038 0 
L 3559 0 
L 2741 2484 
L 1919 0 
L 1459 0 
L 475 2988 
L 103 2988 
L 103 3322 
L 1606 3322 
L 1606 2988 
L 1069 2988 
L 1813 728 
L 2669 3322 
L 3072 3322 
z
" transform="scale(0.015625)"/>
       <path id="DejaVuSans-Oblique-72" d="M 2853 2969 
Q 2766 3016 2653 3041 
Q 2541 3066 2413 3066 
Q 1953 3066 1609 2717 
Q 1266 2369 1153 1784 
L 800 0 
L 225 0 
L 909 3500 
L 1484 3500 
L 1375 2956 
Q 1603 3259 1920 3421 
Q 2238 3584 2597 3584 
Q 2691 3584 2781 3573 
Q 2872 3563 2963 3538 
L 2853 2969 
z
" transform="scale(0.015625)"/>
       <path id="Cmsy10-30" d="M 225 347 
Q 184 359 184 409 
L 966 3316 
Q 1003 3434 1093 3506 
Q 1184 3578 1300 3578 
Q 1450 3578 1564 3479 
Q 1678 3381 1678 3231 
Q 1678 3166 1644 3084 
L 488 319 
Q 466 275 428 275 
Q 394 275 320 306 
Q 247 338 225 347 
z
" transform="scale(0.015625)"/>
       <path id="DejaVuSans-2212" d="M 678 2272 
L 4684 2272 
L 4684 1741 
L 678 1741 
L 678 2272 
z
" transform="scale(0.015625)"/>
      </defs>
      <use xlink:href="#DejaVuSerif-59" transform="translate(0 0.584375)"/>
      <use xlink:href="#DejaVuSerif-61" transform="translate(66.015625 0.584375)"/>
      <use xlink:href="#DejaVuSerif-77" transform="translate(125.634766 0.584375)"/>
      <use xlink:href="#DejaVuSerif-20" transform="translate(211.230469 0.584375)"/>
      <use xlink:href="#DejaVuSerif-72" transform="translate(243.017578 0.584375)"/>
      <use xlink:href="#DejaVuSerif-61" transform="translate(290.820312 0.584375)"/>
      <use xlink:href="#DejaVuSerif-74" transform="translate(350.439453 0.584375)"/>
      <use xlink:href="#DejaVuSerif-65" transform="translate(390.625 0.584375)"/>
      <use xlink:href="#DejaVuSerif-20" transform="translate(449.804688 0.584375)"/>
      <use xlink:href="#DejaVuSans-Oblique-72" transform="translate(481.591797 0.584375)"/>
      <use xlink:href="#Cmsy10-30" transform="translate(527.354974 38.865625) scale(0.7)"/>
      <use xlink:href="#DejaVuSerif-20" transform="translate(549.332513 0.584375)"/>
      <use xlink:href="#DejaVuSans-5b" transform="translate(581.119622 0.584375)"/>
      <use xlink:href="#DejaVuSans-2212" transform="translate(620.133294 0.584375)"/>
      <use xlink:href="#DejaVuSans-5d" transform="translate(703.922357 0.584375)"/>
     </g>
    </g>
   </g>
   <g id="line2d_17">
    <path d="M 116.421701 56.522554 
L 116.327353 56.632069 
L 116.163995 57.206785 
L 116.019894 58.325048 
L 115.613592 59.366488 
L 114.599069 61.139464 
L 113.335087 62.810066 
L 112.208511 64.282954 
L 111.464632 65.649136 
L 111.09738 66.779588 
L 110.834245 68.01502 
L 110.310406 69.695128 
L 109.805643 70.330379 
L 107.913293 71.591397 
L 106.014519 73.286038 
L 105.286319 73.561435 
L 103.797234 73.918715 
L 103.051133 74.20203 
L 102.487008 74.436611 
L 102.049328 74.46378 
L 101.703565 74.924883 
L 101.176187 75.857369 
L 100.413111 76.097513 
L 99.142066 76.847165 
L 98.143163 76.715215 
L 96.628882 78.040973 
L 96.130301 78.050826 
L 95.392756 77.879277 
L 94.454667 78.090187 
L 94.166234 77.948473 
L 93.3152 79.091876 
L 91.875461 78.627551 
L 91.738352 78.21036 
L 91.575347 76.865954 
L 91.693555 76.081038 
L 92.185992 74.905998 
L 97.645919 61.136603 
L 99.701425 56.983391 
L 102.282851 51.641836 
L 103.029662 50.911447 
L 104.755307 49.59568 
L 105.66523 49.045441 
L 106.857322 48.43191 
L 108.126648 47.194858 
L 109.485414 46.109239 
L 110.326124 45.611059 
L 111.27837 45.294451 
L 112.774846 44.904533 
L 113.590075 44.224745 
L 114.519365 43.43813 
L 116.320176 42.203577 
L 117.009068 41.103211 
L 117.438477 40.866633 
L 118.999395 40.199957 
L 121.162478 39.555748 
L 123.633358 39.002297 
L 124.286032 38.841051 
L 126.561223 37.719655 
L 127.97406 37.419981 
L 128.329104 37.322265 
L 128.735906 37.442606 
L 129.025545 37.357454 
L 130.204288 36.446675 
L 131.683108 36.290217 
L 132.936764 36.283536 
L 133.631885 36.272848 
L 134.514325 36.389434 
L 134.85125 35.988344 
L 135.272351 35.586866 
L 135.93357 35.639392 
L 136.279841 35.69737 
L 137.135468 35.329077 
L 137.889862 35.528874 
L 138.686184 34.56394 
L 139.165012 34.400211 
L 140.146613 34.394186 
L 140.888705 34.391388 
L 141.075425 34.332451 
L 141.644529 34.421041 
L 141.881609 34.018255 
L 142.309821 33.393789 
L 142.47539 33.39985 
L 143.417698 33.879956 
L 144.124927 33.609267 
L 144.390588 33.737876 
L 144.593255 33.488245 
L 144.970354 32.866987 
L 145.215496 32.746019 
L 145.406228 32.806862 
L 145.904343 32.991054 
L 146.564506 32.977675 
L 146.810448 33.27997 
L 146.821133 33.262177 
L 147.288406 32.531767 
L 147.573943 32.415749 
L 147.843556 32.508113 
L 148.069774 32.559952 
L 148.336475 32.485596 
L 148.475031 32.438331 
L 148.486716 32.457835 
L 148.742305 32.859601 
L 148.934011 32.622682 
L 149.311949 32.042218 
L 149.425565 32.08505 
L 149.838002 32.271086 
L 149.947651 32.344973 
L 150.116375 33.1312 
L 149.859754 33.904501 
L 149.260536 35.695214 
L 147.530401 39.612043 
L 146.006992 42.950533 
L 142.910696 49.935313 
L 139.391329 56.226625 
L 136.87955 59.815006 
L 135.940292 60.658562 
L 133.822481 62.369759 
L 130.025528 64.680689 
L 127.595322 65.636832 
L 125.84253 66.321915 
L 124.293193 67.272823 
L 123.445254 68.054938 
L 121.791463 69.229721 
L 120.594799 69.759319 
L 119.746402 70.446356 
L 117.781258 71.33187 
L 116.122323 71.880101 
L 114.327866 72.989043 
L 113.571063 73.34767 
L 111.718326 73.791084 
L 110.99757 73.865133 
L 108.995622 74.241205 
L 108.3807 74.329477 
L 107.785593 74.843424 
L 107.294433 75.125692 
L 106.710759 75.268268 
L 105.616131 75.353647 
L 104.408408 75.390973 
L 102.94492 75.346639 
L 102.425859 75.650823 
L 101.670262 76.146113 
L 100.665289 75.892863 
L 100.315173 75.782682 
L 99.655926 75.802879 
L 98.636359 75.724369 
L 98.257059 76.166226 
L 97.634527 76.955843 
L 97.24171 77.122489 
L 94.626766 77.730498 
L 93.705119 78.425525 
L 93.183061 78.315858 
L 92.391085 78.361048 
L 92.031949 78.767627 
L 91.784009 78.940137 
L 91.767348 78.924677 
L 91.402332 78.476281 
L 91.009323 78.928834 
L 90.715913 79.299835 
L 90.41154 79.516924 
L 90.116666 79.485929 
L 89.094213 79.400872 
L 88.750128 79.491305 
L 88.299632 79.333649 
L 88.170077 79.490698 
L 87.690277 80.300655 
L 87.473956 80.298909 
L 86.480377 79.912515 
L 86.067287 79.974339 
L 86.021195 79.670659 
L 86.125847 79.612052 
L 86.145391 79.629059 
L 86.270908 79.895058 
L 86.175301 80.292629 
L 85.90935 80.63809 
L 85.517654 80.593065 
L 84.088078 80.111751 
L 83.869522 79.823304 
L 83.853613 79.832532 
L 83.789494 79.968305 
L 83.931714 80.317117 
L 83.937302 80.557824 
L 83.783964 80.531869 
L 83.573121 80.514599 
L 83.522275 80.41788 
L 83.590864 79.212563 
L 83.959789 78.021044 
L 84.326818 76.967278 
L 84.977051 75.253256 
L 87.369818 70.804647 
L 88.444305 68.062062 
L 89.414034 65.581608 
L 91.981157 60.22422 
L 93.484679 57.306435 
L 95.137955 54.081714 
L 95.894168 53.020306 
L 96.951403 51.931095 
L 97.884326 51.26051 
L 99.022057 50.470533 
L 100.253023 49.657511 
L 103.016614 48.258879 
L 105.159398 47.249389 
L 106.327073 46.463513 
L 107.174733 45.94788 
L 108.222538 45.535133 
L 109.666357 44.852129 
L 110.570786 44.059543 
L 111.493537 43.344673 
L 112.286051 43.076488 
L 112.928499 42.458919 
L 113.982638 41.715675 
L 115.020278 41.18969 
L 116.141385 40.83533 
L 118.396821 40.38883 
L 119.796727 40.090535 
L 120.963787 39.934824 
L 121.591585 39.741316 
L 122.542723 39.089786 
L 123.234812 38.654119 
L 123.889245 38.494487 
L 124.278273 38.373157 
L 124.705112 38.27094 
L 126.221955 37.867024 
L 126.877913 37.934228 
L 127.385431 37.755377 
L 128.475937 37.056256 
L 129.3071 36.934764 
L 130.930822 37.199976 
L 132.521999 37.40838 
L 133.313498 36.605375 
L 133.707099 36.503391 
L 134.137624 36.599724 
L 134.625017 36.614774 
L 135.465136 36.347837 
L 136.059814 36.369776 
L 136.415406 36.128991 
L 137.084036 35.497033 
L 137.40782 35.489753 
L 138.23914 35.597649 
L 138.971228 35.460043 
L 139.321412 35.361948 
L 139.496097 35.5177 
L 139.530845 35.477315 
L 139.676488 35.196035 
L 139.97376 34.608947 
L 140.276124 34.20809 
L 140.581447 34.170241 
L 140.904908 34.146057 
L 141.443108 33.904397 
L 142.107807 34.005159 
L 142.819485 34.242089 
L 143.729959 33.557136 
L 144.27067 33.518121 
L 144.635213 33.519126 
L 145.117937 33.570696 
L 145.163614 33.540126 
L 145.196028 33.609543 
L 145.369756 33.937766 
L 145.522446 33.790827 
L 145.715192 33.208438 
L 145.917923 32.914944 
L 146.232237 32.882645 
L 147.098808 33.098875 
L 147.264745 33.120749 
L 147.597154 33.361435 
L 147.611014 33.345176 
L 148.112862 32.545486 
L 148.138594 32.56792 
L 148.409769 32.639491 
L 148.669396 32.741768 
L 148.885857 32.916086 
L 148.897942 32.904617 
L 149.005411 32.971166 
L 149.167604 33.097338 
L 149.208475 32.966893 
L 149.645076 32.09924 
L 149.756731 32.073879 
L 149.773218 32.094059 
L 150.021605 32.554047 
L 150.078359 33.021254 
L 149.97598 33.964829 
L 149.667608 34.940058 
L 149.214514 36.134987 
L 148.645381 37.49117 
L 147.231285 40.017467 
L 145.923419 42.374448 
L 143.297893 47.935514 
L 141.669562 51.386842 
L 140.732217 53.125108 
L 139.301601 56.378829 
L 138.344534 57.893096 
L 136.715164 60.063865 
L 134.693904 62.262371 
L 133.483467 63.237562 
L 131.937662 63.944433 
L 129.91558 64.611681 
L 128.966788 64.927325 
L 127.890639 65.569707 
L 126.322454 66.693556 
L 125.053955 67.318223 
L 123.350814 68.291462 
L 122.231571 69.228967 
L 121.760071 69.360585 
L 121.372894 69.434365 
L 120.79069 69.864484 
L 119.619747 71.021602 
L 118.6895 71.750899 
L 117.959205 72.046333 
L 115.854293 72.524454 
L 113.811224 72.958103 
L 112.633697 73.201494 
L 111.658077 73.142064 
L 110.983059 73.381356 
L 110.420404 73.898975 
L 110.016004 74.272452 
L 109.417154 74.393622 
L 107.964382 74.632032 
L 107.622219 74.752461 
L 107.097274 74.90324 
L 106.133806 74.725545 
L 105.612308 75.108342 
L 104.911153 75.537293 
L 103.799924 75.916406 
L 103.167215 75.753818 
L 101.719046 75.577093 
L 101.095949 75.522021 
L 100.882084 75.483752 
L 100.524617 75.6848 
L 100.041865 76.246291 
L 99.763917 76.396183 
L 98.741686 76.40234 
L 97.756195 76.548521 
L 97.474654 76.507003 
L 97.137995 76.45415 
L 96.804636 76.700444 
L 95.98215 77.729594 
L 95.521386 77.807386 
L 95.221028 77.772996 
L 94.886781 77.776657 
L 94.520093 78.003752 
L 94.258919 78.455213 
L 94.187118 78.623427 
L 94.187118 78.623427 
" clip-path="url(#pcf7cdfdc2e)" style="fill: none; stroke: #000000; stroke-width: 0.75; stroke-linecap: round"/>
   </g>
   <g id="line2d_18">
    <path d="M 116.735939 55.426141 
L 116.758755 55.521852 
L 116.686303 56.229216 
L 116.342297 57.501038 
L 115.701457 58.936213 
L 114.144306 61.836476 
L 111.745351 66.318653 
L 110.960962 67.781599 
L 106.622431 75.045003 
L 101.028098 83.607616 
L 100.06295 84.742476 
L 98.381643 86.482246 
L 97.52624 86.808549 
L 96.761068 87.255747 
L 95.769278 88.115635 
L 93.416431 90.387372 
L 92.1784 91.260222 
L 89.530273 92.702678 
L 86.645152 93.649598 
L 84.564894 94.817689 
L 83.288475 95.592444 
L 82.707584 95.803064 
L 82.339394 95.804012 
L 81.890001 96.001282 
L 81.424436 96.559998 
L 80.474097 97.931776 
L 79.335693 98.840867 
L 74.901841 99.685228 
L 73.618299 99.911127 
L 71.840955 100.399261 
L 71.093705 100.672884 
L 70.535918 100.593505 
L 69.661298 100.115637 
L 69.420256 100.169422 
L 68.925058 100.627683 
L 68.055345 101.744988 
L 67.628791 102.189512 
L 66.919617 102.529642 
L 65.981529 102.421291 
L 64.945316 102.355604 
L 64.075267 102.722872 
L 63.318595 103.074378 
L 62.530161 103.362185 
L 61.794566 103.424118 
L 60.189481 102.482151 
L 60.135349 101.440419 
L 60.247858 99.938675 
L 61.203087 93.3228 
L 62.159242 89.277766 
L 65.442188 79.96187 
L 66.525378 77.792145 
L 67.752476 75.230689 
L 69.65719 70.757019 
L 74.290065 61.653229 
L 76.180729 58.55243 
L 79.494342 53.665665 
L 81.427908 51.166942 
L 83.186264 49.360574 
L 85.255113 47.238251 
L 89.660067 42.295465 
L 91.938015 40.165397 
L 94.374479 38.403875 
L 98.642404 35.583457 
L 105.200943 31.680312 
L 106.43211 31.365227 
L 107.355348 31.114132 
L 109.183625 30.220027 
L 111.659626 28.715349 
L 112.868222 27.917581 
L 115.956088 26.698651 
L 117.14819 26.330741 
L 117.91165 26.053565 
L 119.262811 25.627929 
L 125.548819 22.646197 
L 126.252772 22.569114 
L 127.232621 22.45853 
L 128.093208 22.069382 
L 130.96651 20.087136 
L 132.072694 19.622528 
L 133.154705 19.462143 
L 137.346759 18.97163 
L 138.168311 18.790614 
L 139.436656 18.446812 
L 140.546297 18.216359 
L 141.934132 18.131297 
L 143.024859 18.362002 
L 143.636513 17.96214 
L 144.167587 17.300535 
L 144.797661 16.639847 
L 145.242544 16.516284 
L 149.472918 16.199697 
L 150.140446 15.929184 
L 152.587301 15.091872 
L 153.725848 15.496336 
L 154.301882 15.323112 
L 154.683079 15.054128 
L 156.628262 13.260888 
L 157.371612 13.227433 
L 160.013747 13.387214 
L 161.174835 13.04579 
L 161.692915 12.956941 
L 161.92401 13.227557 
L 162.283417 13.569805 
L 162.582839 13.530685 
L 163.001557 13.185196 
L 163.467043 12.625539 
L 164.034466 12.011461 
L 164.540976 11.729922 
L 165.176583 11.620958 
L 167.321171 11.487685 
L 168.275814 11.349183 
L 169.889293 10.805817 
L 170.329562 10.705616 
L 170.691138 11.142305 
L 171.017423 11.422659 
L 171.233917 11.323313 
L 171.497482 10.996083 
L 171.824705 10.099025 
L 172.167777 9.308177 
L 172.480993 9.195294 
L 175.167736 10.089268 
L 176.073028 9.804898 
L 176.802956 9.709852 
L 177.34562 10.485344 
L 177.408654 10.426803 
L 177.543986 10.148523 
L 178.018696 9.016693 
L 178.327224 8.727147 
L 178.618366 8.661663 
L 178.924496 8.72575 
L 179.417587 8.825771 
L 180.566368 9.005934 
L 181.894037 9.007041 
L 182.39428 9.605455 
L 182.590976 9.467937 
L 182.791283 9.048347 
L 183.371381 8.075612 
L 183.576215 7.986571 
L 184.276141 8.59866 
L 184.858841 8.750019 
L 185.127601 8.643255 
L 185.461695 8.615637 
L 185.542381 8.706738 
L 185.847238 9.357729 
L 185.89427 9.316945 
L 186.047483 9.053654 
L 186.21757 8.511435 
L 186.506055 7.908138 
L 186.813668 7.831415 
L 187.15364 8.342506 
L 187.414576 8.728296 
L 187.974934 9.311625 
L 187.935213 9.346788 
L 187.754202 9.789984 
L 187.467947 10.796689 
L 187.058932 12.380373 
L 186.720654 13.076614 
L 184.508742 15.668784 
L 182.824794 19.047412 
L 182.080811 20.91642 
L 180.911681 24.546778 
L 179.224395 29.854048 
L 177.269577 34.927196 
L 175.490982 38.834136 
L 174.421152 40.647655 
L 172.515455 43.587699 
L 164.914722 54.492245 
L 160.712199 59.739895 
L 158.645952 61.81669 
L 150.67139 68.977177 
L 149.303048 69.802545 
L 148.659033 70.459987 
L 145.8228 73.664055 
L 143.721873 75.752475 
L 142.072987 76.805179 
L 139.910617 77.76529 
L 138.225168 78.277686 
L 135.874214 79.007622 
L 134.457348 79.761288 
L 131.415185 81.281464 
L 129.189018 82.21255 
L 127.348649 82.757419 
L 125.307554 83.007906 
L 124.452082 83.358359 
L 123.218762 84.138625 
L 120.152845 86.277764 
L 118.720255 87.113712 
L 117.348636 87.617288 
L 116.203649 87.958767 
L 115.399698 88.187914 
L 114.844901 88.405612 
L 114.063922 88.79977 
L 112.001633 89.588045 
L 111.168136 89.828914 
L 110.150892 90.058943 
L 108.685268 90.431456 
L 106.933759 90.676231 
L 105.370907 91.727173 
L 104.037082 92.496328 
L 102.535153 93.022886 
L 99.687111 93.378885 
L 97.791084 93.230805 
L 97.050669 93.264115 
L 95.272503 93.61749 
L 94.34466 93.893261 
L 93.686096 93.917363 
L 92.569624 93.610104 
L 92.219261 93.712206 
L 91.610584 94.325544 
L 90.870996 94.914654 
L 90.184413 95.168049 
L 88.123102 95.469456 
L 87.440047 95.418186 
L 87.059297 95.416539 
L 86.0295 95.676677 
L 84.02365 96.344583 
L 83.126863 96.686533 
L 82.678528 96.754017 
L 82.34576 96.572062 
L 81.756356 96.255279 
L 81.415742 96.243422 
L 80.815627 96.670703 
L 79.133727 97.913807 
L 78.610867 97.91265 
L 78.096601 97.926637 
L 77.221271 97.958826 
L 74.796618 98.658195 
L 74.066042 99.002661 
L 73.863235 98.976624 
L 73.551198 98.726427 
L 72.951856 98.392497 
L 72.754446 98.448659 
L 72.506178 98.679992 
L 71.512334 99.935603 
L 71.058096 100.31688 
L 70.257073 100.419408 
L 69.055787 100.229893 
L 67.982656 100.228525 
L 67.584369 100.288535 
L 65.975777 100.596871 
L 65.690211 100.659035 
L 65.179169 100.224183 
L 65.149104 100.260076 
L 64.865262 100.762486 
L 64.048428 102.374045 
L 63.660379 102.559347 
L 63.149264 102.391043 
L 61.375053 101.612893 
L 59.676899 102.039694 
L 59.45113 102.037096 
L 59.191231 101.477916 
L 58.902662 101.18237 
L 58.702065 101.365029 
L 57.741176 102.800402 
L 57.123328 102.976046 
L 56.89871 102.854427 
L 56.216666 102.158606 
L 54.692932 102.462831 
L 54.246832 101.964999 
L 54.09333 102.033887 
L 53.943181 102.444618 
L 53.560457 103.487169 
L 53.340542 103.575758 
L 52.794606 103.400822 
L 52.063697 103.148654 
L 51.889445 103.158188 
L 51.670709 103.130824 
L 51.020064 102.901327 
L 50.612854 102.305255 
L 50.599408 102.325723 
L 50.317847 103.158809 
L 50.093959 103.568533 
L 49.572287 103.770912 
L 49.445563 103.733153 
L 48.984621 103.356874 
L 48.65073 103.101606 
L 48.387665 102.94633 
L 48.216884 102.901606 
L 48.09064 102.7685 
L 48.096855 101.699798 
L 48.36316 101.030218 
L 50.395148 97.238613 
L 51.632336 94.403026 
L 52.631562 92.016912 
L 56.043749 83.461154 
L 56.87677 81.309432 
L 58.340818 77.566059 
L 59.64076 75.000709 
L 61.093322 72.426206 
L 63.863535 67.648089 
L 67.791266 61.02872 
L 69.066095 59.151678 
L 70.629337 57.239444 
L 76.638909 50.223104 
L 78.668987 48.055519 
L 80.06412 46.880512 
L 83.421215 44.171321 
L 87.324963 40.51948 
L 90.156476 37.716654 
L 91.478525 36.83403 
L 94.95073 34.942133 
L 97.060022 34.053858 
L 98.257604 33.519456 
L 103.240151 31.041537 
L 104.717343 30.835463 
L 105.793256 30.532638 
L 106.681581 30.107929 
L 111.351 27.50321 
L 116.98782 25.537204 
L 119.069959 24.44246 
L 119.721428 24.158898 
L 120.928687 23.590622 
L 121.76117 23.319195 
L 122.966514 23.315989 
L 123.611089 23.166922 
L 124.318752 22.680795 
L 125.971458 21.233222 
L 127.189484 20.717421 
L 128.357388 20.538059 
L 132.599484 20.112628 
L 135.674337 19.698333 
L 137.34821 19.373021 
L 137.672394 19.366085 
L 138.117973 19.763132 
L 138.452106 19.938226 
L 138.695209 19.820357 
L 139.662554 18.988451 
L 140.449588 18.53679 
L 142.368952 18.074505 
L 143.316603 18.050305 
L 145.164151 17.798234 
L 145.501561 17.774079 
L 146.562511 17.376327 
L 147.558566 17.325658 
L 148.133646 17.338841 
L 148.683476 17.577858 
L 149.435987 17.367362 
L 150.0003 17.114598 
L 150.548174 16.77452 
L 151.802192 15.801707 
L 153.105911 15.323554 
L 155.091434 15.436001 
L 155.885087 15.259299 
L 156.29402 15.267868 
L 157.410709 14.808273 
L 157.707491 14.678497 
L 158.679518 14.947547 
L 158.967368 14.617284 
L 159.468348 14.236704 
L 159.92831 13.87317 
L 160.583315 13.33022 
L 161.021397 13.086197 
L 161.667307 13.002488 
L 162.274052 13.187973 
L 164.187032 13.450044 
L 164.945524 13.189972 
L 166.160904 12.739996 
L 166.779797 13.160294 
L 167.016543 12.744468 
L 167.19695 12.553165 
L 167.893575 11.408892 
L 168.244499 11.142115 
L 168.875643 10.979775 
L 170.569827 11.304801 
L 170.917557 11.364286 
L 171.225998 11.35679 
L 172.094644 11.267448 
L 172.264267 11.236785 
L 172.940589 11.73875 
L 173.480018 11.465936 
L 173.656147 11.150214 
L 174.039158 10.312064 
L 174.271829 10.25735 
L 174.594471 10.435624 
L 174.969011 10.500394 
L 176.20065 10.954235 
L 177.105353 10.377037 
L 177.517774 10.75291 
L 177.802102 11.345497 
L 177.959508 11.255368 
L 178.29921 10.591768 
L 178.709554 9.603281 
L 179.103159 9.418045 
L 179.640146 9.722439 
L 179.931182 9.990309 
L 180.158714 10.026355 
L 180.415201 10.043337 
L 180.595889 10.068489 
L 180.94343 10.178297 
L 181.839801 9.845263 
L 181.867454 9.633974 
L 181.942723 9.869096 
L 182.092515 10.578846 
L 182.142811 10.480908 
L 182.471948 9.494854 
L 182.715637 9.331365 
L 183.685185 9.325597 
L 183.914157 9.744504 
L 184.714123 9.716948 
L 184.786307 9.717818 
L 184.810453 9.748708 
L 185.177017 10.282954 
L 185.254618 10.187362 
L 185.327692 9.927938 
L 185.537676 9.163496 
L 185.756402 9.124455 
L 185.881864 9.419962 
L 185.913134 9.966578 
L 185.49099 11.883493 
L 184.985436 13.491304 
L 183.59808 16.440048 
L 182.305642 18.653231 
L 181.189872 21.325553 
L 179.919579 24.427458 
L 179.336094 25.496758 
L 178.315879 27.549398 
L 171.543162 43.161509 
L 169.640285 46.578578 
L 167.75434 49.242247 
L 165.11663 52.714267 
L 162.2156 56.535038 
L 158.838002 61.282633 
L 157.249816 62.97598 
L 153.692754 66.402487 
L 150.851428 68.829383 
L 148.567341 70.606574 
L 145.296037 73.325093 
L 143.850054 74.607582 
L 140.911561 76.656268 
L 139.9607 77.169781 
L 137.758373 78.564707 
L 135.629582 80.051367 
L 134.073099 80.909401 
L 131.508826 82.007292 
L 127.563149 83.214026 
L 126.468031 83.612753 
L 124.730482 84.375353 
L 123.531541 84.964065 
L 120.974931 85.881872 
L 118.83767 86.652825 
L 118.264286 86.858757 
L 116.736848 87.208462 
L 116.140021 87.709172 
L 114.780248 88.987914 
L 113.464278 89.694212 
L 112.507522 90.21615 
L 111.527076 90.628441 
L 106.241754 91.944819 
L 105.282039 92.144474 
L 102.328725 92.715371 
L 101.793875 92.655384 
L 100.796781 92.335591 
L 100.149526 92.348051 
L 99.498414 92.738802 
L 97.28562 94.387072 
L 96.500063 94.471448 
L 95.338036 94.39205 
L 94.044647 94.435458 
L 94.044647 94.435458 
" clip-path="url(#pcf7cdfdc2e)" style="fill: none; stroke: #808080; stroke-width: 0.75; stroke-linecap: round"/>
   </g>
   <g id="patch_3">
    <path d="M 41.065084 108.589447 
L 41.065084 3.00024 
" style="fill: none; stroke: #000000; stroke-linejoin: miter; stroke-linecap: square"/>
   </g>
   <g id="patch_4">
    <path d="M 41.065084 108.589447 
L 194.99976 108.589447 
" style="fill: none; stroke: #000000; stroke-linejoin: miter; stroke-linecap: square"/>
   </g>
  </g>
 </g>
 <defs>
  <clipPath id="pcf7cdfdc2e">
   <rect x="41.065084" y="3.00024" width="153.934676" height="105.589207"/>
  </clipPath>
 </defs>
</svg>
