<?xml version="1.0" encoding="utf-8" standalone="no"?>
<!DOCTYPE svg PUBLIC "-//W3C//DTD SVG 1.1//EN"
  "http://www.w3.org/Graphics/SVG/1.1/DTD/svg11.dtd">
<svg xmlns:xlink="http://www.w3.org/1999/xlink" width="388.61928pt" height="218.623104pt" viewBox="0 0 388.61928 218.623104" xmlns="http://www.w3.org/2000/svg" version="1.1">
 <metadata>
  <rdf:RDF xmlns:dc="http://purl.org/dc/elements/1.1/" xmlns:cc="http://creativecommons.org/ns#" xmlns:rdf="http://www.w3.org/1999/02/22-rdf-syntax-ns#">
   <cc:Work>
    <dc:type rdf:resource="http://purl.org/dc/dcmitype/StillImage"/>
    <dc:date>2024-05-28T08:32:40.175478</dc:date>
    <dc:format>image/svg+xml</dc:format>
    <dc:creator>
     <cc:Agent>
      <dc:title>Matplotlib v3.8.2, https://matplotlib.org/</dc:title>
     </cc:Agent>
    </dc:creator>
   </cc:Work>
  </rdf:RDF>
 </metadata>
 <defs>
  <style type="text/css">*{stroke-linejoin: round; stroke-linecap: butt}</style>
 </defs>
 <g id="figure_1">
  <g id="patch_1">
   <path d="M 0 218.623104 
L 388.61928 218.623104 
L 388.61928 0 
L 0 0 
z
" style="fill: #ffffff"/>
  </g>
  <g id="axes_1">
   <g id="patch_2">
    <path d="M 37.236959 53.035513 
L 385.61904 53.035513 
L 385.61904 16.670576 
L 37.236959 16.670576 
z
" style="fill: #ffffff"/>
   </g>
   <g id="matplotlib.axis_1">
    <g id="xtick_1">
     <g id="line2d_1">
      <path d="M 53.072508 53.035513 
L 53.072508 16.670576 
" clip-path="url(#p5ad1d42bca)" style="fill: none; stroke: #b0b0b0; stroke-width: 0.1; stroke-linecap: round"/>
     </g>
     <g id="line2d_2"/>
    </g>
    <g id="xtick_2">
     <g id="line2d_3">
      <path d="M 99.193219 53.035513 
L 99.193219 16.670576 
" clip-path="url(#p5ad1d42bca)" style="fill: none; stroke: #b0b0b0; stroke-width: 0.1; stroke-linecap: round"/>
     </g>
     <g id="line2d_4"/>
    </g>
    <g id="xtick_3">
     <g id="line2d_5">
      <path d="M 145.31393 53.035513 
L 145.31393 16.670576 
" clip-path="url(#p5ad1d42bca)" style="fill: none; stroke: #b0b0b0; stroke-width: 0.1; stroke-linecap: round"/>
     </g>
     <g id="line2d_6"/>
    </g>
    <g id="xtick_4">
     <g id="line2d_7">
      <path d="M 191.434641 53.035513 
L 191.434641 16.670576 
" clip-path="url(#p5ad1d42bca)" style="fill: none; stroke: #b0b0b0; stroke-width: 0.1; stroke-linecap: round"/>
     </g>
     <g id="line2d_8"/>
    </g>
    <g id="xtick_5">
     <g id="line2d_9">
      <path d="M 237.555352 53.035513 
L 237.555352 16.670576 
" clip-path="url(#p5ad1d42bca)" style="fill: none; stroke: #b0b0b0; stroke-width: 0.1; stroke-linecap: round"/>
     </g>
     <g id="line2d_10"/>
    </g>
    <g id="xtick_6">
     <g id="line2d_11">
      <path d="M 283.676063 53.035513 
L 283.676063 16.670576 
" clip-path="url(#p5ad1d42bca)" style="fill: none; stroke: #b0b0b0; stroke-width: 0.1; stroke-linecap: round"/>
     </g>
     <g id="line2d_12"/>
    </g>
    <g id="xtick_7">
     <g id="line2d_13">
      <path d="M 329.796774 53.035513 
L 329.796774 16.670576 
" clip-path="url(#p5ad1d42bca)" style="fill: none; stroke: #b0b0b0; stroke-width: 0.1; stroke-linecap: round"/>
     </g>
     <g id="line2d_14"/>
    </g>
    <g id="xtick_8">
     <g id="line2d_15">
      <path d="M 375.917485 53.035513 
L 375.917485 16.670576 
" clip-path="url(#p5ad1d42bca)" style="fill: none; stroke: #b0b0b0; stroke-width: 0.1; stroke-linecap: round"/>
     </g>
     <g id="line2d_16"/>
    </g>
   </g>
   <g id="matplotlib.axis_2">
    <g id="ytick_1">
     <g id="line2d_17">
      <path d="M 37.236959 51.589629 
L 385.61904 51.589629 
" clip-path="url(#p5ad1d42bca)" style="fill: none; stroke: #b0b0b0; stroke-width: 0.1; stroke-linecap: round"/>
     </g>
     <g id="line2d_18"/>
     <g id="text_1">
      <!-- −50 -->
      <g style="fill: #262626" transform="translate(14.74274 55.008925) scale(0.09 -0.09)">
       <defs>
        <path id="DejaVuSerif-2212" d="M 678 2259 
L 4684 2259 
L 4684 1753 
L 678 1753 
L 678 2259 
z
" transform="scale(0.015625)"/>
        <path id="DejaVuSerif-35" d="M 3219 4666 
L 3219 4153 
L 1081 4153 
L 1081 2816 
Q 1244 2928 1461 2984 
Q 1678 3041 1947 3041 
Q 2703 3041 3140 2622 
Q 3578 2203 3578 1478 
Q 3578 738 3136 323 
Q 2694 -91 1894 -91 
Q 1572 -91 1234 -12 
Q 897 66 544 225 
L 544 1131 
L 897 1131 
Q 925 688 1179 453 
Q 1434 219 1894 219 
Q 2388 219 2653 544 
Q 2919 869 2919 1478 
Q 2919 2084 2655 2407 
Q 2391 2731 1894 2731 
Q 1613 2731 1398 2631 
Q 1184 2531 1019 2322 
L 750 2322 
L 750 4666 
L 3219 4666 
z
" transform="scale(0.015625)"/>
        <path id="DejaVuSerif-30" d="M 2034 219 
Q 2513 219 2750 744 
Q 2988 1269 2988 2328 
Q 2988 3391 2750 3916 
Q 2513 4441 2034 4441 
Q 1556 4441 1318 3916 
Q 1081 3391 1081 2328 
Q 1081 1269 1318 744 
Q 1556 219 2034 219 
z
M 2034 -91 
Q 1275 -91 848 546 
Q 422 1184 422 2328 
Q 422 3475 848 4112 
Q 1275 4750 2034 4750 
Q 2797 4750 3222 4112 
Q 3647 3475 3647 2328 
Q 3647 1184 3222 546 
Q 2797 -91 2034 -91 
z
" transform="scale(0.015625)"/>
       </defs>
       <use xlink:href="#DejaVuSerif-2212"/>
       <use xlink:href="#DejaVuSerif-35" x="83.789062"/>
       <use xlink:href="#DejaVuSerif-30" x="147.412109"/>
      </g>
     </g>
    </g>
    <g id="ytick_2">
     <g id="line2d_19">
      <path d="M 37.236959 36.821557 
L 385.61904 36.821557 
" clip-path="url(#p5ad1d42bca)" style="fill: none; stroke: #b0b0b0; stroke-width: 0.1; stroke-linecap: round"/>
     </g>
     <g id="line2d_20"/>
     <g id="text_2">
      <!-- 0 -->
      <g style="fill: #262626" transform="translate(28.010709 40.240854) scale(0.09 -0.09)">
       <use xlink:href="#DejaVuSerif-30"/>
      </g>
     </g>
    </g>
    <g id="ytick_3">
     <g id="line2d_21">
      <path d="M 37.236959 22.053486 
L 385.61904 22.053486 
" clip-path="url(#p5ad1d42bca)" style="fill: none; stroke: #b0b0b0; stroke-width: 0.1; stroke-linecap: round"/>
     </g>
     <g id="line2d_22"/>
     <g id="text_3">
      <!-- 50 -->
      <g style="fill: #262626" transform="translate(22.284459 25.472782) scale(0.09 -0.09)">
       <use xlink:href="#DejaVuSerif-35"/>
       <use xlink:href="#DejaVuSerif-30" x="63.623047"/>
      </g>
     </g>
    </g>
    <g id="text_4">
     <!-- $N_H(v)$ -->
     <g style="fill: #262626" transform="translate(9.07899 45.573045) rotate(-90) scale(0.08 -0.08)">
      <defs>
       <path id="DejaVuSans-Oblique-4e" d="M 1081 4666 
L 1931 4666 
L 3219 666 
L 4000 4666 
L 4616 4666 
L 3706 0 
L 2853 0 
L 1569 4025 
L 788 0 
L 172 0 
L 1081 4666 
z
" transform="scale(0.015625)"/>
       <path id="DejaVuSans-Oblique-48" d="M 1081 4666 
L 1716 4666 
L 1344 2753 
L 3634 2753 
L 4006 4666 
L 4641 4666 
L 3731 0 
L 3097 0 
L 3531 2222 
L 1241 2222 
L 806 0 
L 172 0 
L 1081 4666 
z
" transform="scale(0.015625)"/>
       <path id="DejaVuSans-28" d="M 1984 4856 
Q 1566 4138 1362 3434 
Q 1159 2731 1159 2009 
Q 1159 1288 1364 580 
Q 1569 -128 1984 -844 
L 1484 -844 
Q 1016 -109 783 600 
Q 550 1309 550 2009 
Q 550 2706 781 3412 
Q 1013 4119 1484 4856 
L 1984 4856 
z
" transform="scale(0.015625)"/>
       <path id="DejaVuSans-Oblique-76" d="M 459 3500 
L 1069 3500 
L 1581 525 
L 3256 3500 
L 3866 3500 
L 1875 0 
L 1100 0 
L 459 3500 
z
" transform="scale(0.015625)"/>
       <path id="DejaVuSans-29" d="M 513 4856 
L 1013 4856 
Q 1481 4119 1714 3412 
Q 1947 2706 1947 2009 
Q 1947 1309 1714 600 
Q 1481 -109 1013 -844 
L 513 -844 
Q 928 -128 1133 580 
Q 1338 1288 1338 2009 
Q 1338 2731 1133 3434 
Q 928 4138 513 4856 
z
" transform="scale(0.015625)"/>
      </defs>
      <use xlink:href="#DejaVuSans-Oblique-4e" transform="translate(0 0.125)"/>
      <use xlink:href="#DejaVuSans-Oblique-48" transform="translate(74.804688 -16.28125) scale(0.7)"/>
      <use xlink:href="#DejaVuSans-28" transform="translate(130.175781 0.125)"/>
      <use xlink:href="#DejaVuSans-Oblique-76" transform="translate(169.189453 0.125)"/>
      <use xlink:href="#DejaVuSans-29" transform="translate(228.369141 0.125)"/>
     </g>
    </g>
   </g>
   <g id="line2d_23">
    <path d="M 53.072508 36.824739 
L 55.101815 36.922351 
L 56.90055 37.223626 
L 58.238004 37.66024 
L 59.529407 38.315647 
L 61.466487 39.569832 
L 62.66563 40.34222 
L 64.833285 41.393656 
L 66.724243 41.890836 
L 69.72208 42.071176 
L 71.613038 41.873083 
L 71.889744 41.861998 
L 72.719931 41.747645 
L 72.950599 41.749708 
L 73.826828 41.638715 
L 74.057413 41.641159 
L 74.749297 41.561103 
L 74.979859 41.570859 
L 75.487187 41.545135 
L 75.763916 41.577987 
L 76.225114 41.590329 
L 76.501838 41.640778 
L 76.778544 41.654799 
L 77.055259 41.731654 
L 77.516476 41.821398 
L 77.793246 41.9191 
L 78.069929 42.028969 
L 78.346648 42.125284 
L 79.361461 42.416865 
L 79.638102 42.538757 
L 80.145356 42.797643 
L 80.837194 43.118055 
L 81.113933 43.284009 
L 81.390634 43.396219 
L 81.71346 43.587244 
L 82.128611 43.804403 
L 82.40528 43.946894 
L 83.419936 44.383059 
L 83.650539 44.493438 
L 83.973403 44.590194 
L 84.250159 44.731483 
L 84.711366 44.887319 
L 85.03417 45.039922 
L 85.818208 45.253812 
L 86.095006 45.379744 
L 86.556144 45.479337 
L 86.786752 45.552183 
L 87.478535 45.669163 
L 87.70919 45.721247 
L 88.032007 45.73273 
L 88.26261 45.781099 
L 88.954412 45.790923 
L 89.231242 45.848627 
L 89.73845 45.83888 
L 90.614831 45.794514 
L 90.845389 45.790915 
L 91.444963 45.677782 
L 94.719519 44.665862 
L 95.503677 44.224944 
L 99.931224 41.374972 
L 101.314813 40.507036 
L 101.591537 40.350628 
L 103.159655 39.446767 
L 103.436384 39.298392 
L 103.897624 39.046033 
L 104.17426 38.903901 
L 105.373445 38.305841 
L 105.696253 38.179174 
L 107.218213 37.510153 
L 107.633337 37.38873 
L 109.063051 36.777033 
L 109.385942 36.683356 
L 109.985456 36.437954 
L 110.400603 36.30001 
L 111.461393 35.901012 
L 111.784178 35.808712 
L 113.121692 35.337195 
L 113.582895 35.220241 
L 114.413072 34.92318 
L 114.643671 34.853847 
L 119.763121 33.403262 
L 120.178133 33.316066 
L 120.685466 33.205195 
L 121.100557 33.135669 
L 121.607889 33.061351 
L 121.93078 33.036682 
L 122.899274 32.888869 
L 123.314392 32.84814 
L 124.421349 32.678302 
L 130.232458 31.59234 
L 131.570046 31.320591 
L 132.031179 31.237823 
L 133.138081 31.08438 
L 135.259647 30.788806 
L 135.997556 30.666614 
L 140.840221 29.769415 
L 146.051958 29.037254 
L 147.435552 28.919353 
L 147.942912 28.875291 
L 151.125158 28.709456 
L 151.447989 28.690494 
L 152.508738 28.674616 
L 153.523407 28.614526 
L 153.800238 28.581681 
L 154.445859 28.5551 
L 154.768731 28.480415 
L 155.921827 28.394188 
L 156.198432 28.358024 
L 156.844126 28.364872 
L 157.120998 28.332698 
L 158.135488 28.293704 
L 158.412221 28.260924 
L 159.242371 28.315145 
L 159.519086 28.296012 
L 161.271678 28.310444 
L 161.548416 28.293918 
L 165.330379 28.312521 
L 165.607071 28.273028 
L 166.621676 28.210238 
L 166.852367 28.185882 
L 167.544122 28.226362 
L 167.820828 28.239557 
L 168.651014 28.350161 
L 168.881618 28.360861 
L 169.388997 28.465739 
L 169.619545 28.491082 
L 171.049287 28.912201 
L 171.326006 28.982166 
L 172.156207 29.25058 
L 172.386783 29.295414 
L 173.263076 29.614433 
L 173.539796 29.683915 
L 174.323876 29.993272 
L 178.935928 32.047875 
L 180.273424 32.838829 
L 180.596311 33.007194 
L 182.85624 34.198555 
L 183.179025 34.311101 
L 183.778612 34.573124 
L 184.101453 34.691936 
L 184.654929 34.908196 
L 186.176885 35.556672 
L 186.59204 35.690351 
L 187.837235 36.072224 
L 188.160075 36.156563 
L 189.313116 36.485295 
L 189.774286 36.590993 
L 190.558389 36.809818 
L 192.080363 37.191735 
L 192.541612 37.277941 
L 194.478691 37.747552 
L 194.939801 37.830997 
L 195.585505 37.981368 
L 196.000592 38.063207 
L 197.061373 38.316885 
L 197.430324 38.414116 
L 197.937694 38.508573 
L 198.906196 38.71313 
L 199.32126 38.774823 
L 200.382096 38.982297 
L 200.843266 39.064968 
L 201.857977 39.268685 
L 202.36524 39.366885 
L 203.93334 39.585231 
L 204.532923 39.671908 
L 205.178604 39.758872 
L 205.778168 39.859323 
L 206.838982 40.084895 
L 207.530825 40.206731 
L 208.314891 40.380267 
L 209.006618 40.531872 
L 209.975172 40.750164 
L 210.989823 40.916228 
L 211.820028 41.085936 
L 212.83467 41.281665 
L 213.664824 41.467318 
L 214.725642 41.679876 
L 215.786386 41.894208 
L 216.893315 42.100534 
L 223.626921 43.272408 
L 226.301968 43.620211 
L 228.239088 43.795042 
L 228.930779 43.860986 
L 229.714841 43.922407 
L 230.40666 43.965285 
L 231.236898 44.037603 
L 231.83643 44.071748 
L 232.482074 44.111052 
L 232.943286 44.154932 
L 233.635101 44.197946 
L 234.234804 44.241752 
L 234.742095 44.24485 
L 235.157043 44.291062 
L 235.618352 44.305299 
L 236.07948 44.360934 
L 236.586882 44.373717 
L 237.048001 44.384155 
L 237.324887 44.402274 
L 237.739849 44.439006 
L 238.016605 44.457654 
L 238.523864 44.493641 
L 239.123447 44.460007 
L 239.769151 44.475581 
L 240.091973 44.47636 
L 240.368697 44.495068 
L 240.829909 44.519573 
L 241.106739 44.525458 
L 241.383353 44.538707 
L 241.798448 44.565774 
L 242.49031 44.532306 
L 242.905378 44.562203 
L 243.366677 44.567528 
L 243.689416 44.601976 
L 244.104581 44.607701 
L 244.473445 44.635486 
L 244.888522 44.621696 
L 245.303622 44.70425 
L 245.8572 44.710396 
L 246.27218 44.736292 
L 246.548877 44.753398 
L 247.194632 44.829042 
L 247.47131 44.857227 
L 248.117055 44.916882 
L 248.393705 44.916944 
L 248.993302 45.010316 
L 249.500621 45.00895 
L 249.731215 45.070243 
L 250.054194 45.062266 
L 250.330771 45.075933 
L 250.745926 45.065819 
L 251.068817 45.062336 
L 251.391542 45.05621 
L 251.945065 45.058262 
L 252.267901 45.003481 
L 252.68295 44.961388 
L 253.420872 44.788101 
L 253.928209 44.673623 
L 254.435708 44.506403 
L 255.265756 44.349921 
L 255.911391 44.107933 
L 256.280545 44.004836 
L 256.879986 43.809023 
L 257.34116 43.683846 
L 257.802367 43.52399 
L 258.448076 43.306182 
L 258.86313 43.133662 
L 259.693289 42.868862 
L 260.154538 42.635261 
L 260.615712 42.433827 
L 261.076919 42.187375 
L 261.768712 41.798415 
L 262.460541 41.429785 
L 263.060119 41.102127 
L 263.659675 40.751535 
L 264.120873 40.512699 
L 264.67433 40.212245 
L 265.089467 40.012168 
L 265.919649 39.605858 
L 266.380806 39.404347 
L 266.980347 39.126648 
L 267.487675 38.963039 
L 268.317862 38.638663 
L 268.733008 38.488033 
L 269.424782 38.256694 
L 270.070472 38.039965 
L 270.670083 37.816875 
L 271.730767 37.487691 
L 272.192154 37.346797 
L 272.791589 37.149323 
L 273.298885 36.987018 
L 273.760138 36.853675 
L 274.267443 36.713044 
L 274.959258 36.50603 
L 275.604948 36.34214 
L 276.204508 36.179158 
L 276.850184 36.040838 
L 277.357581 35.927955 
L 277.818751 35.820229 
L 278.279926 35.741534 
L 279.110141 35.605804 
L 279.848109 35.454174 
L 280.355372 35.372632 
L 280.816598 35.212436 
L 281.323907 35.113047 
L 282.338553 34.808593 
L 282.938113 34.712976 
L 283.768305 34.536756 
L 284.413999 34.500384 
L 285.290284 34.296921 
L 285.889862 34.214317 
L 286.720026 34.042017 
L 287.04288 33.967157 
L 287.826987 33.786034 
L 288.518733 33.667826 
L 289.348994 33.528493 
L 290.225204 33.393169 
L 291.332138 33.258961 
L 292.023907 33.119366 
L 292.715723 33.006218 
L 294.514453 32.691811 
L 295.66743 32.53763 
L 297.189432 32.279612 
L 298.619169 32.074627 
L 299.772215 31.856044 
L 300.925205 31.695241 
L 302.493304 31.47173 
L 307.751065 30.687825 
L 311.855818 30.220046 
L 313.746762 30.012516 
L 314.392498 29.937443 
L 315.314862 29.840676 
L 316.191151 29.802339 
L 316.883012 29.71912 
L 317.482568 29.708466 
L 318.035975 29.706896 
L 318.404959 29.671837 
L 319.373498 29.576097 
L 319.74245 29.557709 
L 320.249796 29.515067 
L 320.618831 29.490925 
L 320.987714 29.492967 
L 321.402777 29.467415 
L 322.048495 29.427584 
L 322.371381 29.443661 
L 322.694176 29.448818 
L 323.109276 29.438269 
L 323.432125 29.412986 
L 323.847267 29.42988 
L 324.262298 29.435221 
L 324.63143 29.397624 
L 325.00022 29.373289 
L 325.415302 29.405406 
L 325.692086 29.39838 
L 326.153243 29.371042 
L 326.429967 29.364269 
L 326.845132 29.331929 
L 327.306362 29.374448 
L 327.629147 29.374181 
L 327.859709 29.344896 
L 328.320884 29.266384 
L 328.78211 29.264484 
L 329.058811 29.237673 
L 329.289516 29.224095 
L 329.612296 29.195051 
L 330.258005 29.253371 
L 330.719207 29.233799 
L 331.042038 29.256816 
L 331.457194 29.248402 
L 332.148958 29.26123 
L 332.656258 29.305764 
L 333.209735 29.313123 
L 333.532589 29.274541 
L 333.763165 29.24052 
L 334.178307 29.20947 
L 334.454994 29.209564 
L 334.73169 29.186829 
L 335.008433 29.165506 
L 335.469686 29.162338 
L 335.838583 29.145073 
L 336.115321 29.176326 
L 336.576528 29.157602 
L 336.899401 29.160833 
L 337.129954 29.199836 
L 337.545109 29.225069 
L 338.236888 29.306784 
L 338.882591 29.376102 
L 339.343808 29.465236 
L 339.666611 29.557425 
L 340.081693 29.638816 
L 340.404639 29.711263 
L 340.727406 29.812991 
L 341.050223 29.907374 
L 341.465333 30.046186 
L 341.83428 30.153157 
L 342.15712 30.219922 
L 342.848913 30.443499 
L 343.125655 30.516331 
L 344.048074 30.95487 
L 344.370891 31.07431 
L 344.786047 31.266751 
L 345.293389 31.503145 
L 345.616307 31.667851 
L 345.939032 31.830262 
L 346.538602 32.112556 
L 346.953688 32.317306 
L 347.645559 32.703766 
L 348.060585 32.912593 
L 348.706257 33.260921 
L 349.167505 33.511724 
L 349.813135 33.83432 
L 350.136003 34.012161 
L 351.289076 34.627694 
L 351.84247 34.839173 
L 352.396117 35.051235 
L 352.857194 35.221556 
L 353.179966 35.350326 
L 353.825702 35.583867 
L 354.471332 35.828757 
L 355.117188 36.032823 
L 355.762776 36.26151 
L 356.177821 36.404252 
L 356.45461 36.520143 
L 357.007985 36.659541 
L 357.607655 36.843989 
L 358.068816 36.9602 
L 358.71452 37.151727 
L 359.129616 37.226306 
L 359.775297 37.3739 
L 360.467139 37.512461 
L 361.481712 37.748821 
L 362.035151 37.87399 
L 362.726971 38.032019 
L 363.234267 38.144326 
L 364.617911 38.41903 
L 365.263597 38.526726 
L 366.047658 38.688412 
L 366.877831 38.823685 
L 367.431302 38.915486 
L 368.123131 39.016268 
L 368.722714 39.107176 
L 369.598971 39.237685 
L 369.783491 39.266037 
L 369.783491 39.266037 
" clip-path="url(#p5ad1d42bca)" style="fill: none; stroke: #0000ff; stroke-width: 0.4; stroke-linecap: round"/>
   </g>
   <g id="line2d_24">
    <path d="M 53.072508 36.824305 
L 55.240186 36.921612 
L 57.085088 37.208776 
L 58.560951 37.667167 
L 59.944549 38.33034 
L 64.741048 40.736256 
L 66.862619 41.225291 
L 70.04493 41.330359 
L 70.875181 41.233788 
L 71.197957 41.226378 
L 72.350974 41.122329 
L 72.673852 41.085787 
L 73.64235 40.992191 
L 73.919065 40.990791 
L 74.564778 40.916259 
L 74.7954 40.933712 
L 75.487187 40.901382 
L 75.763916 40.929757 
L 76.225114 40.940416 
L 76.501838 40.98399 
L 76.824734 41.027419 
L 77.516476 41.139994 
L 77.83933 41.226118 
L 78.438885 41.411763 
L 78.715623 41.484497 
L 79.361461 41.654308 
L 79.684163 41.770878 
L 80.099286 41.940745 
L 80.42208 42.087643 
L 80.883347 42.304061 
L 81.298378 42.489904 
L 81.75959 42.675907 
L 82.036319 42.829901 
L 82.681995 43.071804 
L 82.958715 43.198101 
L 83.604409 43.413614 
L 83.927264 43.518233 
L 87.755283 44.499548 
L 88.401037 44.547895 
L 88.631618 44.576456 
L 89.046663 44.590319 
L 89.277234 44.608935 
L 90.061309 44.598587 
L 90.291889 44.609912 
L 91.352781 44.475362 
L 91.629473 44.439155 
L 94.811751 43.543269 
L 95.595817 43.166174 
L 95.872528 43.04446 
L 96.702691 42.637597 
L 96.979443 42.488075 
L 100.207865 40.597529 
L 100.484608 40.464537 
L 101.314813 40.00476 
L 101.637626 39.84345 
L 102.421738 39.454944 
L 102.790625 39.268936 
L 103.897624 38.74287 
L 104.2204 38.596562 
L 105.604002 38.032828 
L 109.063051 36.783101 
L 109.478128 36.671767 
L 110.354556 36.378158 
L 111.138511 36.156837 
L 111.830326 35.929577 
L 112.153213 35.838954 
L 112.752708 35.6631 
L 113.075567 35.556604 
L 114.228594 35.241314 
L 114.689783 35.109855 
L 117.180444 34.436971 
L 117.595364 34.374028 
L 121.792529 33.558298 
L 122.115295 33.527735 
L 122.899274 33.424836 
L 123.360564 33.379536 
L 124.421349 33.242966 
L 130.924291 32.191397 
L 132.077314 31.989232 
L 133.645399 31.803383 
L 134.79844 31.67689 
L 137.104443 31.325737 
L 138.349693 31.128834 
L 142.731184 30.458384 
L 149.188079 29.876811 
L 150.202716 29.870621 
L 150.617816 29.848474 
L 151.494165 29.802202 
L 151.770853 29.791201 
L 152.462705 29.78462 
L 154.261343 29.702793 
L 154.584198 29.652024 
L 161.82514 29.476012 
L 162.747683 29.515423 
L 163.070441 29.51331 
L 166.252793 29.408192 
L 166.529476 29.377974 
L 169.850194 29.678187 
L 171.78726 30.176531 
L 172.064012 30.243278 
L 173.17083 30.563821 
L 177.460107 32.035281 
L 183.594116 34.812489 
L 184.009211 34.941034 
L 185.069983 35.351372 
L 185.300702 35.405999 
L 186.361368 35.789664 
L 186.8687 35.925037 
L 188.021718 36.216968 
L 188.436832 36.310521 
L 189.497567 36.575095 
L 189.820421 36.639479 
L 191.3424 36.978136 
L 191.803598 37.074769 
L 192.63378 37.241185 
L 192.910485 37.286184 
L 193.740709 37.468401 
L 194.155786 37.543418 
L 195.124303 37.735478 
L 199.459686 38.54058 
L 199.92087 38.60726 
L 201.212255 38.815548 
L 203.333821 39.144553 
L 204.025609 39.220147 
L 204.809767 39.31469 
L 205.639816 39.413269 
L 206.470076 39.569514 
L 207.300175 39.700043 
L 208.176524 39.858789 
L 209.145013 40.057673 
L 209.929102 40.203453 
L 211.128217 40.386103 
L 211.958565 40.524811 
L 213.111403 40.735121 
L 214.49502 40.972324 
L 215.878641 41.225701 
L 217.631196 41.490942 
L 221.090337 42.040806 
L 225.979095 42.657428 
L 227.547186 42.787567 
L 228.561841 42.87049 
L 229.391982 42.938925 
L 230.222228 42.991899 
L 231.236898 43.054163 
L 231.8825 43.079408 
L 232.436101 43.121046 
L 233.266131 43.168594 
L 233.865686 43.210504 
L 234.511395 43.209977 
L 235.203214 43.266525 
L 235.848914 43.31408 
L 236.263995 43.333505 
L 236.725156 43.332093 
L 237.232526 43.362348 
L 237.647681 43.376077 
L 238.201093 43.427446 
L 239.584723 43.427536 
L 240.045903 43.419899 
L 240.55324 43.460944 
L 241.01441 43.475286 
L 241.475608 43.488359 
L 241.93682 43.50299 
L 242.213549 43.472517 
L 242.49031 43.481445 
L 242.905378 43.507268 
L 243.412683 43.529726 
L 243.827829 43.563721 
L 244.289073 43.559509 
L 244.750165 43.588319 
L 245.211427 43.595703 
L 245.626463 43.626027 
L 246.27218 43.657631 
L 246.59509 43.683881 
L 247.01014 43.738264 
L 247.286831 43.737263 
L 247.748016 43.785539 
L 248.163102 43.800611 
L 248.993302 43.89431 
L 249.500621 43.89313 
L 249.731215 43.946069 
L 250.192505 43.934587 
L 250.699746 43.952381 
L 251.299329 43.920191 
L 251.991139 43.917033 
L 252.40629 43.874893 
L 252.867433 43.822922 
L 253.144185 43.720359 
L 253.835986 43.622377 
L 254.481667 43.456311 
L 254.896786 43.410774 
L 255.404169 43.274209 
L 255.680833 43.180156 
L 256.695475 42.904531 
L 257.295026 42.770864 
L 257.986878 42.550318 
L 258.770856 42.326926 
L 259.232063 42.175427 
L 259.877786 41.974039 
L 260.523531 41.696067 
L 261.399774 41.302856 
L 262.045514 40.993207 
L 262.645019 40.705931 
L 263.290686 40.401811 
L 263.982524 40.070881 
L 264.582232 39.77455 
L 265.596758 39.37604 
L 266.288601 39.084708 
L 266.749735 38.908409 
L 267.349327 38.675231 
L 267.994998 38.512185 
L 268.640716 38.272649 
L 269.516991 38.045908 
L 270.162709 37.844883 
L 270.808523 37.648468 
L 271.638548 37.422671 
L 272.238132 37.268646 
L 272.883831 37.060192 
L 273.529567 36.916802 
L 274.313665 36.708788 
L 275.143741 36.513763 
L 276.757957 36.151306 
L 277.542101 36.017583 
L 278.279926 35.888725 
L 279.248512 35.752403 
L 279.986416 35.623345 
L 280.401548 35.5471 
L 280.816598 35.431735 
L 281.416139 35.321936 
L 290.96314 33.776404 
L 291.654942 33.694335 
L 292.854085 33.495286 
L 293.223041 33.46602 
L 294.69895 33.22859 
L 295.759768 33.102146 
L 297.604513 32.832233 
L 298.849828 32.687217 
L 300.002786 32.511366 
L 302.124339 32.249848 
L 306.275239 31.693579 
L 311.025654 31.194367 
L 312.547656 31.052425 
L 313.931259 30.915302 
L 314.761441 30.827808 
L 315.45321 30.789371 
L 316.0989 30.767917 
L 316.744636 30.71349 
L 317.667046 30.661252 
L 318.312736 30.650187 
L 318.912305 30.621302 
L 319.235127 30.581417 
L 319.834793 30.525641 
L 320.342015 30.510176 
L 320.849343 30.477249 
L 321.264424 30.48117 
L 321.910225 30.460313 
L 323.201494 30.437439 
L 323.662743 30.426499 
L 323.939458 30.439025 
L 324.354517 30.433644 
L 324.954169 30.397058 
L 325.415302 30.416117 
L 325.784273 30.407737 
L 326.291614 30.374715 
L 326.706701 30.369735 
L 327.075685 30.360005 
L 327.582999 30.380098 
L 327.905894 30.348541 
L 328.505381 30.29119 
L 329.012768 30.279524 
L 329.79677 30.232137 
L 330.258005 30.284802 
L 330.81149 30.271694 
L 331.134363 30.292177 
L 332.010596 30.271966 
L 332.471863 30.330605 
L 333.025261 30.318241 
L 333.302073 30.30089 
L 333.809327 30.281195 
L 334.270493 30.244361 
L 334.73169 30.227329 
L 335.100638 30.206094 
L 335.746392 30.184293 
L 336.069186 30.204184 
L 336.392022 30.211244 
L 336.853257 30.192226 
L 337.498933 30.273097 
L 337.821857 30.277932 
L 338.37531 30.360771 
L 338.836434 30.372997 
L 339.343808 30.467793 
L 339.758843 30.55868 
L 340.266273 30.643269 
L 340.635118 30.74056 
L 341.050223 30.849674 
L 341.465333 30.969569 
L 341.88041 31.086231 
L 342.295478 31.164157 
L 342.756713 31.285958 
L 343.171813 31.399436 
L 343.448523 31.508058 
L 343.771387 31.643388 
L 344.324821 31.841244 
L 346.07745 32.575502 
L 346.723214 32.831075 
L 347.32264 33.091715 
L 347.968307 33.420919 
L 348.660187 33.719329 
L 349.582555 34.140002 
L 350.136003 34.39504 
L 351.289076 34.926685 
L 351.934762 35.139713 
L 352.626522 35.373217 
L 353.2261 35.558399 
L 353.871776 35.775246 
L 354.425303 35.939476 
L 354.932567 36.089071 
L 356.131714 36.456942 
L 356.639056 36.599515 
L 357.054105 36.70103 
L 357.469233 36.790884 
L 357.792032 36.880156 
L 358.253258 36.995012 
L 359.083467 37.170918 
L 359.683055 37.280953 
L 360.190332 37.351623 
L 360.789943 37.479793 
L 361.620125 37.639106 
L 362.081364 37.745605 
L 363.511005 38.018891 
L 364.249001 38.135544 
L 364.80238 38.214183 
L 365.586432 38.341967 
L 366.278248 38.455823 
L 366.785566 38.532306 
L 367.339158 38.617763 
L 367.938658 38.695035 
L 368.538162 38.776327 
L 369.414544 38.884717 
L 369.783491 38.932891 
L 369.783491 38.932891 
" clip-path="url(#p5ad1d42bca)" style="fill: none; stroke: #008000; stroke-width: 0.4; stroke-linecap: round"/>
   </g>
   <g id="line2d_25">
    <path d="M 53.072508 36.821957 
L 58.284157 36.929242 
L 62.896238 37.279976 
L 67.416054 37.46916 
L 80.837194 37.611949 
L 82.35921 37.714696 
L 92.736324 37.897222 
L 99.977262 37.388967 
L 103.436384 37.132471 
L 106.111367 36.969694 
L 108.417352 36.853273 
L 113.260017 36.63019 
L 124.375141 36.300318 
L 126.819631 36.249793 
L 135.95144 36.050006 
L 151.447989 35.800874 
L 157.213106 35.7565 
L 158.781219 35.749937 
L 164.223431 35.75956 
L 166.02218 35.745492 
L 177.736799 36.141185 
L 185.623422 36.635911 
L 188.436832 36.747285 
L 194.294144 36.932321 
L 197.199767 37.012767 
L 203.887261 37.169019 
L 207.300175 37.239905 
L 212.926906 37.385655 
L 220.998031 37.578122 
L 233.173972 37.74319 
L 236.771291 37.769444 
L 239.769151 37.782358 
L 242.075187 37.790068 
L 245.718746 37.809785 
L 248.209301 37.837442 
L 251.068817 37.856012 
L 270.254918 36.964867 
L 274.728632 36.78912 
L 282.246317 36.571327 
L 286.166586 36.484087 
L 292.023907 36.356825 
L 297.881238 36.238448 
L 307.38215 36.056201 
L 320.249796 35.904382 
L 323.570469 35.893223 
L 328.182526 35.877002 
L 330.258005 35.871532 
L 334.270493 35.865654 
L 338.42137 35.881475 
L 340.496812 35.932741 
L 346.953688 36.256144 
L 350.827846 36.510483 
L 354.978733 36.717761 
L 363.418787 36.993475 
L 368.67652 37.108741 
L 369.783491 37.12841 
L 369.783491 37.12841 
" clip-path="url(#p5ad1d42bca)" style="fill: none; stroke: #ff0000; stroke-width: 0.4; stroke-linecap: round"/>
   </g>
   <g id="patch_3">
    <path d="M 37.236959 53.035513 
L 37.236959 16.670576 
" style="fill: none; stroke: #000000; stroke-linejoin: miter; stroke-linecap: square"/>
   </g>
   <g id="patch_4">
    <path d="M 37.236959 53.035513 
L 385.61904 53.035513 
" style="fill: none; stroke: #000000; stroke-linejoin: miter; stroke-linecap: square"/>
   </g>
   <g id="legend_1">
    <g id="line2d_26">
     <path d="M 120.804328 10.276701 
L 129.804327 10.276701 
L 138.804327 10.276701 
" style="fill: none; stroke: #0000ff; stroke-width: 0.4; stroke-linecap: round"/>
    </g>
    <g id="text_5">
     <!-- Reference -->
     <g style="fill: #262626" transform="translate(146.004328 13.426701) scale(0.09 -0.09)">
      <defs>
       <path id="DejaVuSerif-52" d="M 3066 2316 
Q 3284 2256 3442 2114 
Q 3600 1972 3725 1716 
L 4403 331 
L 4972 331 
L 4972 0 
L 3872 0 
L 3144 1484 
Q 2934 1916 2759 2042 
Q 2584 2169 2278 2169 
L 1581 2169 
L 1581 331 
L 2241 331 
L 2241 0 
L 353 0 
L 353 331 
L 947 331 
L 947 4331 
L 353 4331 
L 353 4666 
L 2719 4666 
Q 3400 4666 3770 4341 
Q 4141 4016 4141 3419 
Q 4141 2938 3870 2661 
Q 3600 2384 3066 2316 
z
M 1581 2503 
L 2503 2503 
Q 2975 2503 3200 2726 
Q 3425 2950 3425 3419 
Q 3425 3888 3200 4109 
Q 2975 4331 2503 4331 
L 1581 4331 
L 1581 2503 
z
" transform="scale(0.015625)"/>
       <path id="DejaVuSerif-65" d="M 3469 1600 
L 991 1600 
L 991 1575 
Q 991 903 1244 561 
Q 1497 219 1991 219 
Q 2369 219 2611 417 
Q 2853 616 2950 1006 
L 3413 1006 
Q 3275 459 2904 184 
Q 2534 -91 1931 -91 
Q 1203 -91 761 389 
Q 319 869 319 1663 
Q 319 2450 753 2931 
Q 1188 3413 1894 3413 
Q 2647 3413 3050 2948 
Q 3453 2484 3469 1600 
z
M 2791 1931 
Q 2772 2513 2545 2808 
Q 2319 3103 1894 3103 
Q 1497 3103 1269 2806 
Q 1041 2509 991 1931 
L 2791 1931 
z
" transform="scale(0.015625)"/>
       <path id="DejaVuSerif-66" d="M 2753 4078 
L 2450 4078 
Q 2447 4313 2317 4434 
Q 2188 4556 1941 4556 
Q 1619 4556 1487 4379 
Q 1356 4203 1356 3750 
L 1356 3322 
L 2284 3322 
L 2284 2988 
L 1356 2988 
L 1356 331 
L 2094 331 
L 2094 0 
L 231 0 
L 231 331 
L 781 331 
L 781 2988 
L 231 2988 
L 231 3322 
L 781 3322 
L 781 3738 
Q 781 4294 1070 4578 
Q 1359 4863 1919 4863 
Q 2128 4863 2337 4825 
Q 2547 4788 2753 4709 
L 2753 4078 
z
" transform="scale(0.015625)"/>
       <path id="DejaVuSerif-72" d="M 3059 3328 
L 3059 2497 
L 2728 2497 
Q 2713 2744 2591 2866 
Q 2469 2988 2234 2988 
Q 1809 2988 1582 2694 
Q 1356 2400 1356 1850 
L 1356 331 
L 2022 331 
L 2022 0 
L 263 0 
L 263 331 
L 781 331 
L 781 2994 
L 231 2994 
L 231 3322 
L 1356 3322 
L 1356 2731 
Q 1525 3078 1790 3245 
Q 2056 3413 2438 3413 
Q 2578 3413 2733 3391 
Q 2888 3369 3059 3328 
z
" transform="scale(0.015625)"/>
       <path id="DejaVuSerif-6e" d="M 263 0 
L 263 331 
L 781 331 
L 781 2988 
L 231 2988 
L 231 3322 
L 1356 3322 
L 1356 2731 
Q 1516 3069 1770 3241 
Q 2025 3413 2363 3413 
Q 2913 3413 3172 3097 
Q 3431 2781 3431 2113 
L 3431 331 
L 3944 331 
L 3944 0 
L 2356 0 
L 2356 331 
L 2853 331 
L 2853 1931 
Q 2853 2541 2703 2767 
Q 2553 2994 2175 2994 
Q 1775 2994 1565 2701 
Q 1356 2409 1356 1850 
L 1356 331 
L 1856 331 
L 1856 0 
L 263 0 
z
" transform="scale(0.015625)"/>
       <path id="DejaVuSerif-63" d="M 3291 997 
Q 3169 466 2822 187 
Q 2475 -91 1925 -91 
Q 1200 -91 759 389 
Q 319 869 319 1663 
Q 319 2459 759 2936 
Q 1200 3413 1925 3413 
Q 2241 3413 2553 3339 
Q 2866 3266 3181 3116 
L 3181 2266 
L 2847 2266 
Q 2781 2703 2561 2903 
Q 2341 3103 1931 3103 
Q 1466 3103 1228 2742 
Q 991 2381 991 1663 
Q 991 944 1227 581 
Q 1463 219 1931 219 
Q 2303 219 2525 412 
Q 2747 606 2828 997 
L 3291 997 
z
" transform="scale(0.015625)"/>
      </defs>
      <use xlink:href="#DejaVuSerif-52"/>
      <use xlink:href="#DejaVuSerif-65" x="75.292969"/>
      <use xlink:href="#DejaVuSerif-66" x="134.472656"/>
      <use xlink:href="#DejaVuSerif-65" x="171.484375"/>
      <use xlink:href="#DejaVuSerif-72" x="230.664062"/>
      <use xlink:href="#DejaVuSerif-65" x="278.466797"/>
      <use xlink:href="#DejaVuSerif-6e" x="337.646484"/>
      <use xlink:href="#DejaVuSerif-63" x="402.050781"/>
      <use xlink:href="#DejaVuSerif-65" x="458.056641"/>
     </g>
    </g>
    <g id="line2d_27">
     <path d="M 210.558234 10.276701 
L 219.558234 10.276701 
L 228.558234 10.276701 
" style="fill: none; stroke: #008000; stroke-width: 0.4; stroke-linecap: round"/>
    </g>
    <g id="text_6">
     <!-- PI -->
     <g style="fill: #262626" transform="translate(235.758234 13.426701) scale(0.09 -0.09)">
      <defs>
       <path id="DejaVuSerif-50" d="M 1581 2375 
L 2406 2375 
Q 2872 2375 3115 2626 
Q 3359 2878 3359 3353 
Q 3359 3831 3115 4081 
Q 2872 4331 2406 4331 
L 1581 4331 
L 1581 2375 
z
M 353 0 
L 353 331 
L 947 331 
L 947 4331 
L 353 4331 
L 353 4666 
L 2559 4666 
Q 3259 4666 3668 4311 
Q 4078 3956 4078 3353 
Q 4078 2753 3668 2397 
Q 3259 2041 2559 2041 
L 1581 2041 
L 1581 331 
L 2303 331 
L 2303 0 
L 353 0 
z
" transform="scale(0.015625)"/>
       <path id="DejaVuSerif-49" d="M 1581 331 
L 2175 331 
L 2175 0 
L 353 0 
L 353 331 
L 947 331 
L 947 4331 
L 353 4331 
L 353 4666 
L 2175 4666 
L 2175 4331 
L 1581 4331 
L 1581 331 
z
" transform="scale(0.015625)"/>
      </defs>
      <use xlink:href="#DejaVuSerif-50"/>
      <use xlink:href="#DejaVuSerif-49" x="67.285156"/>
     </g>
    </g>
    <g id="line2d_28">
     <path d="M 263.368546 10.276701 
L 272.368546 10.276701 
L 281.368546 10.276701 
" style="fill: none; stroke: #ff0000; stroke-width: 0.4; stroke-linecap: round"/>
    </g>
    <g id="text_7">
     <!-- PU -->
     <g style="fill: #262626" transform="translate(288.568546 13.426701) scale(0.09 -0.09)">
      <defs>
       <path id="DejaVuSerif-55" d="M 897 4331 
L 300 4331 
L 300 4666 
L 2125 4666 
L 2125 4331 
L 1528 4331 
L 1528 1919 
Q 1528 1025 1820 672 
Q 2113 319 2828 319 
Q 3544 319 3836 672 
Q 4128 1025 4128 1919 
L 4128 4331 
L 3531 4331 
L 3531 4666 
L 5106 4666 
L 5106 4331 
L 4513 4331 
L 4513 1856 
Q 4513 791 4103 350 
Q 3694 -91 2713 -91 
Q 1731 -91 1314 353 
Q 897 797 897 1856 
L 897 4331 
z
" transform="scale(0.015625)"/>
      </defs>
      <use xlink:href="#DejaVuSerif-50"/>
      <use xlink:href="#DejaVuSerif-55" x="65.535156"/>
     </g>
    </g>
   </g>
  </g>
  <g id="axes_2">
   <g id="patch_5">
    <path d="M 37.236959 99.247026 
L 385.61904 99.247026 
L 385.61904 62.882089 
L 37.236959 62.882089 
z
" style="fill: #ffffff"/>
   </g>
   <g id="matplotlib.axis_3">
    <g id="xtick_9">
     <g id="line2d_29">
      <path d="M 53.072508 99.247026 
L 53.072508 62.882089 
" clip-path="url(#p42e92a766e)" style="fill: none; stroke: #b0b0b0; stroke-width: 0.1; stroke-linecap: round"/>
     </g>
     <g id="line2d_30"/>
    </g>
    <g id="xtick_10">
     <g id="line2d_31">
      <path d="M 99.193219 99.247026 
L 99.193219 62.882089 
" clip-path="url(#p42e92a766e)" style="fill: none; stroke: #b0b0b0; stroke-width: 0.1; stroke-linecap: round"/>
     </g>
     <g id="line2d_32"/>
    </g>
    <g id="xtick_11">
     <g id="line2d_33">
      <path d="M 145.31393 99.247026 
L 145.31393 62.882089 
" clip-path="url(#p42e92a766e)" style="fill: none; stroke: #b0b0b0; stroke-width: 0.1; stroke-linecap: round"/>
     </g>
     <g id="line2d_34"/>
    </g>
    <g id="xtick_12">
     <g id="line2d_35">
      <path d="M 191.434641 99.247026 
L 191.434641 62.882089 
" clip-path="url(#p42e92a766e)" style="fill: none; stroke: #b0b0b0; stroke-width: 0.1; stroke-linecap: round"/>
     </g>
     <g id="line2d_36"/>
    </g>
    <g id="xtick_13">
     <g id="line2d_37">
      <path d="M 237.555352 99.247026 
L 237.555352 62.882089 
" clip-path="url(#p42e92a766e)" style="fill: none; stroke: #b0b0b0; stroke-width: 0.1; stroke-linecap: round"/>
     </g>
     <g id="line2d_38"/>
    </g>
    <g id="xtick_14">
     <g id="line2d_39">
      <path d="M 283.676063 99.247026 
L 283.676063 62.882089 
" clip-path="url(#p42e92a766e)" style="fill: none; stroke: #b0b0b0; stroke-width: 0.1; stroke-linecap: round"/>
     </g>
     <g id="line2d_40"/>
    </g>
    <g id="xtick_15">
     <g id="line2d_41">
      <path d="M 329.796774 99.247026 
L 329.796774 62.882089 
" clip-path="url(#p42e92a766e)" style="fill: none; stroke: #b0b0b0; stroke-width: 0.1; stroke-linecap: round"/>
     </g>
     <g id="line2d_42"/>
    </g>
    <g id="xtick_16">
     <g id="line2d_43">
      <path d="M 375.917485 99.247026 
L 375.917485 62.882089 
" clip-path="url(#p42e92a766e)" style="fill: none; stroke: #b0b0b0; stroke-width: 0.1; stroke-linecap: round"/>
     </g>
     <g id="line2d_44"/>
    </g>
   </g>
   <g id="matplotlib.axis_4">
    <g id="ytick_4">
     <g id="line2d_45">
      <path d="M 37.236959 97.801141 
L 385.61904 97.801141 
" clip-path="url(#p42e92a766e)" style="fill: none; stroke: #b0b0b0; stroke-width: 0.1; stroke-linecap: round"/>
     </g>
     <g id="line2d_46"/>
     <g id="text_8">
      <!-- −50 -->
      <g style="fill: #262626" transform="translate(14.74274 101.220438) scale(0.09 -0.09)">
       <use xlink:href="#DejaVuSerif-2212"/>
       <use xlink:href="#DejaVuSerif-35" x="83.789062"/>
       <use xlink:href="#DejaVuSerif-30" x="147.412109"/>
      </g>
     </g>
    </g>
    <g id="ytick_5">
     <g id="line2d_47">
      <path d="M 37.236959 83.03307 
L 385.61904 83.03307 
" clip-path="url(#p42e92a766e)" style="fill: none; stroke: #b0b0b0; stroke-width: 0.1; stroke-linecap: round"/>
     </g>
     <g id="line2d_48"/>
     <g id="text_9">
      <!-- 0 -->
      <g style="fill: #262626" transform="translate(28.010709 86.452367) scale(0.09 -0.09)">
       <use xlink:href="#DejaVuSerif-30"/>
      </g>
     </g>
    </g>
    <g id="ytick_6">
     <g id="line2d_49">
      <path d="M 37.236959 68.264998 
L 385.61904 68.264998 
" clip-path="url(#p42e92a766e)" style="fill: none; stroke: #b0b0b0; stroke-width: 0.1; stroke-linecap: round"/>
     </g>
     <g id="line2d_50"/>
     <g id="text_10">
      <!-- 50 -->
      <g style="fill: #262626" transform="translate(22.284459 71.684295) scale(0.09 -0.09)">
       <use xlink:href="#DejaVuSerif-35"/>
       <use xlink:href="#DejaVuSerif-30" x="63.623047"/>
      </g>
     </g>
    </g>
    <g id="text_11">
     <!-- $N_H(r)$ -->
     <g style="fill: #262626" transform="translate(9.07899 91.064557) rotate(-90) scale(0.08 -0.08)">
      <defs>
       <path id="DejaVuSans-Oblique-72" d="M 2853 2969 
Q 2766 3016 2653 3041 
Q 2541 3066 2413 3066 
Q 1953 3066 1609 2717 
Q 1266 2369 1153 1784 
L 800 0 
L 225 0 
L 909 3500 
L 1484 3500 
L 1375 2956 
Q 1603 3259 1920 3421 
Q 2238 3584 2597 3584 
Q 2691 3584 2781 3573 
Q 2872 3563 2963 3538 
L 2853 2969 
z
" transform="scale(0.015625)"/>
      </defs>
      <use xlink:href="#DejaVuSans-Oblique-4e" transform="translate(0 0.125)"/>
      <use xlink:href="#DejaVuSans-Oblique-48" transform="translate(74.804688 -16.28125) scale(0.7)"/>
      <use xlink:href="#DejaVuSans-28" transform="translate(130.175781 0.125)"/>
      <use xlink:href="#DejaVuSans-Oblique-72" transform="translate(169.189453 0.125)"/>
      <use xlink:href="#DejaVuSans-29" transform="translate(210.302734 0.125)"/>
     </g>
    </g>
   </g>
   <g id="line2d_51">
    <path d="M 53.072508 82.937396 
L 53.764296 82.839863 
L 56.254902 81.801617 
L 57.592361 80.960987 
L 59.252688 79.575183 
L 60.77468 78.239737 
L 62.434994 76.983226 
L 64.925637 75.594 
L 66.401393 74.942857 
L 67.370044 74.665909 
L 69.030279 74.387132 
L 69.168636 74.338553 
L 69.353128 74.282064 
L 70.552368 73.954488 
L 70.736722 73.931625 
L 71.705321 73.927705 
L 72.996646 73.706576 
L 73.734591 73.707216 
L 74.380267 73.662856 
L 76.363472 73.417133 
L 77.239761 73.314685 
L 77.83933 73.232111 
L 78.761809 73.311294 
L 78.946208 73.260965 
L 80.606568 73.23828 
L 82.912599 73.054291 
L 83.650539 72.973976 
L 83.973403 73.016921 
L 84.480703 73.001078 
L 86.187252 73.045578 
L 87.570772 73.449577 
L 89.000551 74.155578 
L 92.920798 77.130154 
L 96.472092 80.656049 
L 96.702691 80.974624 
L 99.100964 83.423037 
L 101.637626 85.277626 
L 104.727797 86.862716 
L 105.142768 87.016865 
L 107.58717 87.833267 
L 109.247539 88.064406 
L 110.21612 88.41076 
L 110.861782 88.584787 
L 111.184678 88.678599 
L 111.507421 88.721372 
L 111.922512 88.988997 
L 112.522132 89.081951 
L 112.891056 89.13103 
L 113.306184 89.127419 
L 113.582895 89.256875 
L 113.905726 89.298109 
L 114.320858 89.269162 
L 115.612197 89.436026 
L 116.258103 89.49207 
L 117.226422 89.653672 
L 117.872089 89.784106 
L 118.05665 89.883692 
L 119.486323 89.946918 
L 120.132142 90.052742 
L 120.823828 90.10971 
L 123.176035 90.322856 
L 123.683506 90.299551 
L 126.358387 90.353389 
L 129.07956 90.487053 
L 131.754455 90.596662 
L 133.507014 90.671479 
L 133.922161 90.667365 
L 140.379055 90.793099 
L 146.513124 90.622646 
L 146.697519 90.661985 
L 147.527729 90.644459 
L 148.173529 90.667573 
L 151.032931 90.73629 
L 151.586347 90.813667 
L 153.892387 90.792264 
L 154.353737 90.749939 
L 154.630415 90.631996 
L 154.860917 90.475116 
L 155.460551 90.70811 
L 159.242371 90.444412 
L 159.56523 90.415622 
L 160.026414 90.338366 
L 161.82514 90.442667 
L 167.267389 89.828844 
L 168.835557 89.25866 
L 170.495824 88.510143 
L 172.894125 87.026097 
L 175.938119 84.698207 
L 180.273424 81.31884 
L 181.610934 80.572907 
L 183.271294 79.904957 
L 183.455749 79.855536 
L 186.223121 78.809278 
L 188.575143 78.185235 
L 190.650594 77.714722 
L 193.60231 77.25297 
L 194.017401 77.174345 
L 196.231186 76.882184 
L 201.07393 76.552044 
L 203.564407 76.425632 
L 207.991976 76.10324 
L 209.606377 76.026279 
L 212.096747 75.863377 
L 224.5032 75.53335 
L 225.517971 75.548949 
L 226.347996 75.534491 
L 235.203214 75.619176 
L 239.031247 75.621227 
L 239.307925 75.560295 
L 242.351962 75.58 
L 242.997605 75.564917 
L 243.87389 75.613733 
L 245.395915 75.638532 
L 247.379078 75.636765 
L 249.40838 75.522523 
L 249.685099 75.471011 
L 250.838112 75.723881 
L 253.098023 76.534179 
L 253.651513 76.858643 
L 256.603234 78.564112 
L 259.970041 81.159505 
L 261.584261 82.473432 
L 262.829507 83.346417 
L 264.167044 84.118376 
L 266.334662 85.13402 
L 269.470949 86.341874 
L 270.808523 86.673549 
L 271.776938 86.934641 
L 273.713971 87.31807 
L 274.636418 87.462087 
L 275.789436 87.679532 
L 275.927788 87.660967 
L 276.435149 87.801908 
L 282.200237 88.593448 
L 282.661398 88.661299 
L 282.984294 88.676175 
L 283.768305 88.606113 
L 284.137284 88.581038 
L 284.460166 88.608825 
L 286.212707 88.612959 
L 286.581668 88.608674 
L 287.135126 88.771095 
L 287.688694 88.65322 
L 288.011456 88.675167 
L 288.288134 88.790997 
L 288.887745 88.878946 
L 289.441221 88.854772 
L 290.548063 88.977179 
L 292.208367 89.098009 
L 292.438998 89.166071 
L 292.946382 89.159025 
L 293.084665 89.115839 
L 293.961028 89.154283 
L 295.898135 89.250811 
L 299.680084 89.420037 
L 305.629591 89.690443 
L 305.814005 89.733449 
L 319.558023 89.786779 
L 319.973091 89.73514 
L 320.849343 89.713244 
L 321.910225 89.739006 
L 322.186843 89.774606 
L 322.417502 89.677023 
L 322.601939 89.606957 
L 323.893328 89.555179 
L 325.00022 89.542149 
L 325.230796 89.6025 
L 326.061084 89.640595 
L 326.383819 89.624925 
L 326.706701 89.604078 
L 327.53685 89.509276 
L 328.090285 89.607322 
L 328.459334 89.654197 
L 329.289516 89.541874 
L 330.211948 89.637388 
L 335.608062 89.431612 
L 336.023103 89.148691 
L 336.207535 89.081376 
L 337.683462 88.525764 
L 338.098521 88.392438 
L 338.698113 88.063606 
L 338.974801 88.002475 
L 339.436008 87.810063 
L 340.358422 87.24357 
L 341.511421 86.4015 
L 342.34164 85.770419 
L 348.291175 81.327352 
L 351.427383 79.815158 
L 355.532228 78.441234 
L 358.852822 77.770997 
L 360.098082 77.519911 
L 360.836027 77.408243 
L 365.355898 76.881714 
L 369.783491 76.641994 
L 369.783491 76.641994 
" clip-path="url(#p42e92a766e)" style="fill: none; stroke: #0000ff; stroke-width: 0.4; stroke-linecap: round"/>
   </g>
   <g id="line2d_52">
    <path d="M 53.072508 82.937753 
L 53.764296 82.840583 
L 56.254902 81.80621 
L 57.592361 80.968715 
L 59.252688 79.588079 
L 60.77468 78.257614 
L 62.434994 77.00579 
L 64.925637 75.621745 
L 66.447523 74.954195 
L 67.416054 74.686501 
L 68.891907 74.379458 
L 69.353128 74.314702 
L 70.552368 73.988348 
L 70.736722 73.96557 
L 71.705321 73.961664 
L 72.996646 73.74136 
L 73.734591 73.741998 
L 74.380267 73.697804 
L 76.363472 73.452997 
L 77.239761 73.350931 
L 77.83933 73.268665 
L 78.761809 73.347553 
L 78.946208 73.297412 
L 80.606568 73.274811 
L 82.912599 73.091509 
L 83.650539 73.011493 
L 83.973403 73.054278 
L 84.480703 73.038494 
L 86.187252 73.082828 
L 87.570772 73.485321 
L 89.000551 74.188688 
L 92.967024 77.196763 
L 96.979443 81.278388 
L 98.732021 83.082216 
L 99.516064 83.751004 
L 101.268637 85.034583 
L 102.513938 85.771616 
L 105.09673 86.987015 
L 108.23286 87.895716 
L 109.432123 88.130778 
L 110.21612 88.390703 
L 110.861782 88.564081 
L 111.184678 88.657544 
L 111.507421 88.700157 
L 111.922512 88.966784 
L 112.522132 89.059391 
L 112.891056 89.108286 
L 113.306184 89.104689 
L 113.582895 89.233662 
L 113.905726 89.274742 
L 114.320858 89.245903 
L 115.612197 89.412145 
L 116.258103 89.46798 
L 117.27257 89.635134 
L 117.872089 89.758927 
L 118.05665 89.858141 
L 119.486323 89.921132 
L 120.132142 90.026561 
L 120.823828 90.083317 
L 123.176035 90.295668 
L 123.683506 90.27245 
L 126.358387 90.326087 
L 129.07956 90.459252 
L 131.754455 90.568453 
L 133.507014 90.642991 
L 133.922161 90.638892 
L 140.379055 90.764157 
L 146.513124 90.59434 
L 146.697519 90.633532 
L 147.527729 90.616071 
L 148.173529 90.639099 
L 151.032931 90.70756 
L 151.586347 90.784649 
L 153.892387 90.763324 
L 154.353737 90.721158 
L 154.630415 90.603655 
L 154.860917 90.447359 
L 155.460551 90.679485 
L 159.242371 90.416771 
L 159.56523 90.388088 
L 160.026414 90.31112 
L 161.82514 90.415032 
L 167.267389 89.803498 
L 168.835557 89.235441 
L 170.495824 88.489715 
L 172.894125 87.011204 
L 175.984244 84.654681 
L 179.4894 81.845615 
L 181.70324 80.579258 
L 183.040681 80.011528 
L 184.793346 79.318727 
L 189.03636 78.093579 
L 191.757555 77.553612 
L 196.554091 76.873115 
L 211.312695 75.896228 
L 211.958565 75.896868 
L 214.079906 75.801674 
L 215.279063 75.76664 
L 232.251535 75.63988 
L 235.433781 75.647149 
L 238.108824 75.635808 
L 248.808884 75.662566 
L 248.947237 75.604004 
L 249.546728 75.530396 
L 249.685099 75.499214 
L 250.838112 75.751142 
L 253.098023 76.558418 
L 253.651513 76.881671 
L 256.603234 78.58078 
L 259.970041 81.166493 
L 261.630391 82.512899 
L 262.967855 83.428811 
L 267.764413 85.744947 
L 269.83985 86.426065 
L 270.301085 86.509849 
L 273.4834 87.289751 
L 274.082951 87.327211 
L 278.049355 88.073335 
L 278.971769 88.226888 
L 281.877337 88.596504 
L 282.523036 88.553363 
L 282.845891 88.677214 
L 283.168782 88.570495 
L 283.445515 88.494149 
L 283.999005 88.589664 
L 284.367925 88.56247 
L 284.829072 88.536604 
L 285.105875 88.571824 
L 285.751495 88.652111 
L 286.304953 88.568852 
L 286.581668 88.587879 
L 287.135126 88.749694 
L 287.688694 88.632259 
L 288.011456 88.654124 
L 288.288134 88.769521 
L 288.887745 88.857143 
L 289.441221 88.833059 
L 290.548063 88.95501 
L 292.208367 89.075389 
L 292.438998 89.143197 
L 292.946382 89.136178 
L 293.084665 89.093152 
L 293.961028 89.131453 
L 295.898135 89.227621 
L 299.680084 89.396216 
L 305.629591 89.665613 
L 305.814005 89.708459 
L 319.558023 89.76159 
L 319.973091 89.710144 
L 320.849343 89.68833 
L 321.910225 89.713995 
L 322.186843 89.749462 
L 322.417502 89.652243 
L 322.601939 89.582439 
L 323.893328 89.530854 
L 325.00022 89.517872 
L 325.230796 89.577999 
L 326.061084 89.615952 
L 326.383819 89.600339 
L 326.706701 89.57957 
L 327.53685 89.485122 
L 328.090285 89.582802 
L 328.459334 89.629503 
L 329.289516 89.517598 
L 330.211948 89.612756 
L 335.608062 89.407748 
L 336.023103 89.125882 
L 336.207535 89.058817 
L 337.683462 88.505278 
L 338.098521 88.372449 
L 338.698113 88.044844 
L 338.974801 87.983941 
L 339.436008 87.792246 
L 340.358422 87.227866 
L 341.511421 86.388937 
L 342.34164 85.760209 
L 348.291175 81.333714 
L 351.427383 79.827159 
L 355.532228 78.45836 
L 358.852822 77.790622 
L 360.098082 77.540473 
L 360.836027 77.429222 
L 365.401945 76.902553 
L 369.783491 76.665831 
L 369.783491 76.665831 
" clip-path="url(#p42e92a766e)" style="fill: none; stroke: #008000; stroke-width: 0.4; stroke-linecap: round"/>
   </g>
   <g id="line2d_53">
    <path d="M 53.072508 82.857395 
L 53.625956 82.752608 
L 54.77896 82.116753 
L 54.963457 81.867069 
L 55.839811 81.166143 
L 56.439338 80.573765 
L 57.453962 79.413398 
L 58.191884 78.36623 
L 60.359617 74.904037 
L 60.590193 74.49853 
L 61.8356 72.716756 
L 62.6195 71.673379 
L 63.219078 70.968453 
L 66.77035 67.921657 
L 67.554402 67.590744 
L 67.738889 67.460718 
L 67.969479 67.328643 
L 68.569122 67.04717 
L 68.845916 67.106698 
L 68.984158 67.131809 
L 69.122502 67.170905 
L 69.306998 66.985538 
L 69.9988 66.753196 
L 70.137171 66.775893 
L 70.413978 66.572807 
L 70.69067 66.299336 
L 70.967358 66.343437 
L 71.059585 66.36592 
L 71.336388 66.528632 
L 71.520802 66.382495 
L 71.797521 66.322978 
L 72.074305 66.310416 
L 72.673852 65.888291 
L 72.812214 65.791579 
L 73.135013 65.917657 
L 74.057413 65.855395 
L 74.7954 65.583748 
L 75.302714 65.427802 
L 75.671679 65.464711 
L 76.179053 65.380828 
L 76.547959 65.396357 
L 76.824734 65.324661 
L 77.378123 65.084848 
L 77.654861 64.968164 
L 78.669558 65.258649 
L 78.90018 65.0933 
L 81.02165 64.866878 
L 81.206155 64.777429 
L 81.252318 64.758492 
L 81.390634 64.84693 
L 81.529033 64.811893 
L 81.71346 64.785133 
L 85.679883 64.545045 
L 86.463981 64.799829 
L 87.017337 65.10652 
L 88.723841 66.454552 
L 89.231242 67.029126 
L 91.998365 70.637316 
L 92.920798 72.194181 
L 96.472092 78.668401 
L 96.656631 79.167721 
L 99.792788 84.777103 
L 101.637626 87.154506 
L 104.358739 89.752379 
L 104.958285 90.187466 
L 105.32726 90.484569 
L 105.465663 90.515932 
L 106.803141 91.335702 
L 107.448831 91.816189 
L 107.725546 91.863745 
L 108.002284 91.911847 
L 109.339757 92.358197 
L 109.57043 92.536011 
L 109.847099 92.772257 
L 110.400603 92.940354 
L 110.585062 92.927504 
L 110.815615 93.166908 
L 111.138511 93.424784 
L 111.415212 93.371163 
L 111.645811 93.714517 
L 111.87653 93.967518 
L 112.107069 93.905054 
L 112.291506 93.832967 
L 112.798856 94.292176 
L 113.213897 94.119161 
L 113.859582 94.555968 
L 114.320858 94.483734 
L 115.058799 94.665715 
L 115.704553 94.796715 
L 116.119594 94.872466 
L 116.765284 95.004338 
L 117.226422 95.18977 
L 117.872089 95.42927 
L 118.010478 95.600177 
L 118.563918 95.632085 
L 119.716931 95.768946 
L 119.901469 95.814979 
L 121.654139 96.156019 
L 122.069106 96.202808 
L 122.391969 96.266335 
L 122.807051 96.312939 
L 123.268239 96.42472 
L 123.406611 96.341555 
L 123.821729 96.373064 
L 123.960152 96.27581 
L 124.513549 96.340551 
L 125.6204 96.419643 
L 126.081653 96.46243 
L 126.773423 96.487525 
L 128.387638 96.696979 
L 129.494563 96.728899 
L 131.339355 96.805143 
L 131.477717 96.894754 
L 137.519544 97.264552 
L 137.750203 97.30291 
L 138.119173 97.326979 
L 138.25748 97.295508 
L 138.441995 97.247116 
L 139.641083 97.264421 
L 140.932513 97.224993 
L 141.993234 97.113522 
L 142.269977 97.110551 
L 142.454437 96.99853 
L 144.114796 96.971582 
L 144.391548 96.995577 
L 144.760463 96.961174 
L 145.729132 96.965165 
L 146.466971 96.968719 
L 149.557183 97.07891 
L 149.926066 97.186128 
L 150.064349 97.182585 
L 151.032931 97.177664 
L 151.401869 97.295447 
L 152.278148 97.412701 
L 152.462705 97.561684 
L 152.601002 97.483373 
L 152.739378 97.411095 
L 152.923898 97.414625 
L 153.154437 97.594074 
L 153.385041 97.453072 
L 153.615672 97.486808 
L 154.353737 97.202727 
L 154.584198 97.06691 
L 154.860917 96.698097 
L 155.414412 97.112798 
L 155.875587 97.136317 
L 156.567388 96.994273 
L 156.798033 97.007951 
L 157.305384 96.608513 
L 157.443769 96.67963 
L 157.628132 96.731296 
L 157.812666 96.71571 
L 157.997149 96.654229 
L 158.273896 96.430927 
L 159.150125 96.58982 
L 159.473048 96.626579 
L 159.749745 96.506827 
L 160.164808 96.47576 
L 160.672164 96.613261 
L 161.087227 96.560484 
L 162.470821 96.470121 
L 162.793652 96.384972 
L 165.653159 95.975677 
L 165.791581 95.90571 
L 166.298835 95.917783 
L 168.651014 94.688593 
L 168.835557 94.464452 
L 170.265327 93.338588 
L 171.095408 92.457775 
L 174.139416 88.662363 
L 180.319554 79.830169 
L 181.887672 78.332244 
L 184.977792 76.039109 
L 185.023853 76.128386 
L 185.069983 76.013925 
L 188.575143 74.131512 
L 189.820421 73.593859 
L 189.958769 73.577221 
L 191.204061 73.091016 
L 191.434627 73.025677 
L 192.910485 72.612733 
L 193.55618 72.431155 
L 197.89155 71.468394 
L 201.996321 71.083037 
L 203.149311 70.958679 
L 204.579076 70.804077 
L 205.086353 70.714821 
L 209.929102 70.120781 
L 210.713126 70.124536 
L 211.912251 69.878765 
L 212.788535 69.80845 
L 214.633377 69.6797 
L 215.325174 69.639368 
L 216.33988 69.57086 
L 217.262253 69.53321 
L 218.184626 69.486271 
L 218.87651 69.450439 
L 219.56828 69.40795 
L 221.643721 69.289616 
L 221.920537 69.294779 
L 222.335591 69.314261 
L 222.750586 69.291816 
L 225.05663 69.252377 
L 226.025165 69.291874 
L 226.624776 69.308042 
L 226.947612 69.363357 
L 227.547186 69.313545 
L 230.729515 69.391072 
L 231.513544 69.392514 
L 233.035532 69.422407 
L 234.05021 69.400128 
L 234.926476 69.429382 
L 235.895071 69.414577 
L 237.140321 69.397665 
L 238.662231 69.432533 
L 239.031247 69.423501 
L 239.215739 69.347332 
L 239.769151 69.300878 
L 239.907518 69.29558 
L 240.599305 69.333941 
L 243.412683 69.392502 
L 245.903224 69.482589 
L 246.041595 69.399209 
L 249.131683 69.344047 
L 249.316175 69.318484 
L 249.40838 69.242262 
L 249.639034 69.139776 
L 250.284765 69.326633 
L 250.60756 69.507575 
L 251.71442 70.10539 
L 253.098023 71.099856 
L 253.559225 71.629742 
L 253.697892 71.741232 
L 255.957594 73.979429 
L 259.739433 79.192441 
L 261.353699 81.669121 
L 262.783386 83.548693 
L 263.521317 84.3239 
L 265.781218 86.541354 
L 266.888106 87.388156 
L 268.133434 88.263236 
L 270.116657 89.40682 
L 270.254918 89.418575 
L 273.4834 90.878415 
L 273.852375 90.906142 
L 274.451976 91.052083 
L 275.69718 91.569109 
L 276.066137 91.634698 
L 276.481232 91.802767 
L 276.942444 91.887236 
L 279.064126 92.636624 
L 281.04721 93.113775 
L 281.508413 93.23773 
L 282.569157 93.267245 
L 282.799747 93.436929 
L 283.076531 93.342599 
L 283.491567 93.126286 
L 284.137284 93.220207 
L 284.367925 93.224121 
L 284.690843 93.241373 
L 285.013569 93.173724 
L 285.38253 93.359997 
L 285.520892 93.365265 
L 285.982108 93.412912 
L 286.535617 93.241507 
L 287.227363 93.562683 
L 287.550226 93.429659 
L 287.826987 93.309507 
L 288.011456 93.393045 
L 288.242014 93.601273 
L 288.5649 93.73383 
L 288.933829 93.747526 
L 289.348994 93.682138 
L 289.856248 93.826628 
L 290.132963 93.799423 
L 290.686421 93.958093 
L 291.378208 93.9797 
L 292.669593 94.302506 
L 293.914857 94.269189 
L 302.354997 94.871964 
L 302.493304 94.783306 
L 303.646327 94.833774 
L 304.983823 94.961985 
L 305.030003 94.964457 
L 305.21444 95.175043 
L 305.352807 95.214752 
L 305.99852 95.341708 
L 306.644219 95.375402 
L 308.166184 95.471609 
L 309.134691 95.548053 
L 309.780418 95.421332 
L 310.103245 95.420059 
L 310.518382 95.369994 
L 311.164012 95.345413 
L 312.086454 95.448253 
L 313.654659 95.430221 
L 314.669223 95.482478 
L 315.314862 95.473468 
L 319.281308 95.520737 
L 319.419642 95.427216 
L 320.203662 95.348905 
L 321.172197 95.291215 
L 322.371381 95.253688 
L 322.740278 95.103629 
L 322.786417 95.192932 
L 322.832552 95.095331 
L 324.63143 94.957691 
L 325.738143 95.183051 
L 325.922685 95.136228 
L 326.107113 95.137467 
L 327.99808 95.046863 
L 328.413148 95.192195 
L 328.689877 95.118615 
L 328.874397 95.052144 
L 329.335613 95.003057 
L 329.750714 95.189004 
L 331.272651 95.149939 
L 332.656258 95.17159 
L 334.408892 95.055154 
L 334.593342 95.002793 
L 334.823983 95.107163 
L 335.100638 95.085112 
L 335.561882 94.871694 
L 335.976945 94.28723 
L 336.530389 93.9173 
L 336.714909 93.698474 
L 336.899401 93.589778 
L 337.683462 93.118712 
L 337.914024 92.979302 
L 338.651965 92.340011 
L 338.882591 92.1508 
L 339.067139 92.115025 
L 339.666611 91.533905 
L 341.050223 89.76976 
L 341.603699 89.122609 
L 341.972651 88.681322 
L 343.033497 87.216059 
L 347.414951 80.944224 
L 347.599387 80.811044 
L 349.259701 78.929461 
L 349.767052 78.584178 
L 350.136003 78.217182 
L 350.781684 77.604741 
L 352.90332 76.108503 
L 353.179966 75.901259 
L 354.517494 75.016271 
L 356.73126 74.039728 
L 357.238574 73.824418 
L 357.376955 73.893477 
L 358.114937 73.673604 
L 358.299448 73.572737 
L 358.991194 73.331406 
L 359.129616 73.316042 
L 360.559372 72.752575 
L 361.251145 72.558787 
L 362.265755 72.250725 
L 365.217476 71.742425 
L 366.093834 71.643949 
L 367.246792 71.48429 
L 367.754147 71.444783 
L 369.783491 71.297825 
L 369.783491 71.297825 
" clip-path="url(#p42e92a766e)" style="fill: none; stroke: #ff0000; stroke-width: 0.4; stroke-linecap: round"/>
   </g>
   <g id="patch_6">
    <path d="M 37.236959 99.247026 
L 37.236959 62.882089 
" style="fill: none; stroke: #000000; stroke-linejoin: miter; stroke-linecap: square"/>
   </g>
   <g id="patch_7">
    <path d="M 37.236959 99.247026 
L 385.61904 99.247026 
" style="fill: none; stroke: #000000; stroke-linejoin: miter; stroke-linecap: square"/>
   </g>
  </g>
  <g id="axes_3">
   <g id="patch_8">
    <path d="M 37.236959 145.458539 
L 385.61904 145.458539 
L 385.61904 109.093602 
L 37.236959 109.093602 
z
" style="fill: #ffffff"/>
   </g>
   <g id="matplotlib.axis_5">
    <g id="xtick_17">
     <g id="line2d_54">
      <path d="M 53.072508 145.458539 
L 53.072508 109.093602 
" clip-path="url(#p90920836d1)" style="fill: none; stroke: #b0b0b0; stroke-width: 0.1; stroke-linecap: round"/>
     </g>
     <g id="line2d_55"/>
    </g>
    <g id="xtick_18">
     <g id="line2d_56">
      <path d="M 99.193219 145.458539 
L 99.193219 109.093602 
" clip-path="url(#p90920836d1)" style="fill: none; stroke: #b0b0b0; stroke-width: 0.1; stroke-linecap: round"/>
     </g>
     <g id="line2d_57"/>
    </g>
    <g id="xtick_19">
     <g id="line2d_58">
      <path d="M 145.31393 145.458539 
L 145.31393 109.093602 
" clip-path="url(#p90920836d1)" style="fill: none; stroke: #b0b0b0; stroke-width: 0.1; stroke-linecap: round"/>
     </g>
     <g id="line2d_59"/>
    </g>
    <g id="xtick_20">
     <g id="line2d_60">
      <path d="M 191.434641 145.458539 
L 191.434641 109.093602 
" clip-path="url(#p90920836d1)" style="fill: none; stroke: #b0b0b0; stroke-width: 0.1; stroke-linecap: round"/>
     </g>
     <g id="line2d_61"/>
    </g>
    <g id="xtick_21">
     <g id="line2d_62">
      <path d="M 237.555352 145.458539 
L 237.555352 109.093602 
" clip-path="url(#p90920836d1)" style="fill: none; stroke: #b0b0b0; stroke-width: 0.1; stroke-linecap: round"/>
     </g>
     <g id="line2d_63"/>
    </g>
    <g id="xtick_22">
     <g id="line2d_64">
      <path d="M 283.676063 145.458539 
L 283.676063 109.093602 
" clip-path="url(#p90920836d1)" style="fill: none; stroke: #b0b0b0; stroke-width: 0.1; stroke-linecap: round"/>
     </g>
     <g id="line2d_65"/>
    </g>
    <g id="xtick_23">
     <g id="line2d_66">
      <path d="M 329.796774 145.458539 
L 329.796774 109.093602 
" clip-path="url(#p90920836d1)" style="fill: none; stroke: #b0b0b0; stroke-width: 0.1; stroke-linecap: round"/>
     </g>
     <g id="line2d_67"/>
    </g>
    <g id="xtick_24">
     <g id="line2d_68">
      <path d="M 375.917485 145.458539 
L 375.917485 109.093602 
" clip-path="url(#p90920836d1)" style="fill: none; stroke: #b0b0b0; stroke-width: 0.1; stroke-linecap: round"/>
     </g>
     <g id="line2d_69"/>
    </g>
   </g>
   <g id="matplotlib.axis_6">
    <g id="ytick_7">
     <g id="line2d_70">
      <path d="M 37.236959 144.012654 
L 385.61904 144.012654 
" clip-path="url(#p90920836d1)" style="fill: none; stroke: #b0b0b0; stroke-width: 0.1; stroke-linecap: round"/>
     </g>
     <g id="line2d_71"/>
     <g id="text_12">
      <!-- −50 -->
      <g style="fill: #262626" transform="translate(14.74274 147.431951) scale(0.09 -0.09)">
       <use xlink:href="#DejaVuSerif-2212"/>
       <use xlink:href="#DejaVuSerif-35" x="83.789062"/>
       <use xlink:href="#DejaVuSerif-30" x="147.412109"/>
      </g>
     </g>
    </g>
    <g id="ytick_8">
     <g id="line2d_72">
      <path d="M 37.236959 129.244583 
L 385.61904 129.244583 
" clip-path="url(#p90920836d1)" style="fill: none; stroke: #b0b0b0; stroke-width: 0.1; stroke-linecap: round"/>
     </g>
     <g id="line2d_73"/>
     <g id="text_13">
      <!-- 0 -->
      <g style="fill: #262626" transform="translate(28.010709 132.66388) scale(0.09 -0.09)">
       <use xlink:href="#DejaVuSerif-30"/>
      </g>
     </g>
    </g>
    <g id="ytick_9">
     <g id="line2d_74">
      <path d="M 37.236959 114.476511 
L 385.61904 114.476511 
" clip-path="url(#p90920836d1)" style="fill: none; stroke: #b0b0b0; stroke-width: 0.1; stroke-linecap: round"/>
     </g>
     <g id="line2d_75"/>
     <g id="text_14">
      <!-- 50 -->
      <g style="fill: #262626" transform="translate(22.284459 117.895808) scale(0.09 -0.09)">
       <use xlink:href="#DejaVuSerif-35"/>
       <use xlink:href="#DejaVuSerif-30" x="63.623047"/>
      </g>
     </g>
    </g>
    <g id="text_15">
     <!-- $Y_H(v)$ -->
     <g style="fill: #262626" transform="translate(9.07899 137.43607) rotate(-90) scale(0.08 -0.08)">
      <defs>
       <path id="DejaVuSans-Oblique-59" d="M 403 4666 
L 1081 4666 
L 1953 2747 
L 3616 4666 
L 4325 4666 
L 2209 2222 
L 1778 0 
L 1147 0 
L 1575 2222 
L 403 4666 
z
" transform="scale(0.015625)"/>
      </defs>
      <use xlink:href="#DejaVuSans-Oblique-59" transform="translate(0 0.125)"/>
      <use xlink:href="#DejaVuSans-Oblique-48" transform="translate(61.083984 -16.28125) scale(0.7)"/>
      <use xlink:href="#DejaVuSans-28" transform="translate(116.455078 0.125)"/>
      <use xlink:href="#DejaVuSans-Oblique-76" transform="translate(155.46875 0.125)"/>
      <use xlink:href="#DejaVuSans-29" transform="translate(214.648438 0.125)"/>
     </g>
    </g>
   </g>
   <g id="line2d_76">
    <path d="M 53.072508 129.246163 
L 55.932015 129.347602 
L 58.145805 129.641795 
L 60.221287 130.201579 
L 64.510458 131.452008 
L 66.954865 131.778476 
L 70.782875 131.790805 
L 71.981995 131.736983 
L 72.489336 131.709944 
L 73.457904 131.653307 
L 73.965199 131.634192 
L 75.302714 131.586996 
L 75.763916 131.606708 
L 76.594135 131.63032 
L 77.055259 131.683022 
L 77.83933 131.77711 
L 79.361461 132.02331 
L 79.868623 132.13399 
L 81.02165 132.429431 
L 82.266927 132.74862 
L 83.788906 133.061982 
L 84.203983 133.168673 
L 85.63373 133.404509 
L 86.095006 133.494727 
L 87.109676 133.60772 
L 87.524721 133.654493 
L 88.769929 133.689766 
L 89.185029 133.732201 
L 90.430307 133.705683 
L 90.845389 133.698921 
L 91.952396 133.598371 
L 94.765709 133.123341 
L 105.83474 129.891557 
L 107.58717 129.526577 
L 108.23286 129.411252 
L 109.985456 129.054079 
L 110.815615 128.912176 
L 113.675113 128.427147 
L 114.18245 128.346632 
L 115.520061 128.146806 
L 116.211784 128.021759 
L 117.549271 127.834256 
L 118.05665 127.758165 
L 119.532526 127.569614 
L 121.976892 127.358946 
L 122.761004 127.305152 
L 125.851041 127.060349 
L 126.635203 126.997845 
L 143.884183 125.505036 
L 152.877754 125.191715 
L 153.523407 125.168829 
L 154.030754 125.153341 
L 155.045423 125.081404 
L 157.397575 125.024681 
L 157.90488 125.01575 
L 159.426877 125.020513 
L 159.888075 125.012827 
L 160.718248 125.028544 
L 161.179455 125.013215 
L 162.932028 125.049042 
L 163.439439 125.040028 
L 165.330379 125.018848 
L 165.791581 124.99302 
L 170.818702 125.277882 
L 172.709651 125.569919 
L 173.21696 125.654922 
L 175.845878 126.146444 
L 176.353169 126.256322 
L 186.361368 128.651267 
L 187.329889 128.795918 
L 189.313116 129.077589 
L 190.189387 129.188026 
L 192.080363 129.428419 
L 192.956634 129.520886 
L 194.709202 129.724728 
L 196.461794 129.921075 
L 198.721732 130.167366 
L 199.551914 130.237171 
L 203.748913 130.606367 
L 205.086353 130.687626 
L 206.470076 130.824598 
L 207.853697 130.955175 
L 209.283421 131.12333 
L 210.482504 131.237707 
L 212.419648 131.420099 
L 213.803228 131.563827 
L 215.740279 131.760873 
L 219.522136 132.106002 
L 223.1657 132.415397 
L 232.620455 132.875156 
L 233.819565 132.911265 
L 234.649817 132.926775 
L 235.618352 132.961139 
L 236.448561 132.994637 
L 237.463138 133.008623 
L 238.29327 133.053705 
L 239.446297 133.042178 
L 240.783862 133.058024 
L 241.429492 133.083774 
L 242.444148 133.063054 
L 242.997605 133.079212 
L 243.689416 133.108474 
L 244.657946 133.11725 
L 245.349752 133.155517 
L 245.995461 133.16906 
L 246.641252 133.200529 
L 247.333035 133.229777 
L 248.301492 133.266627 
L 248.716578 133.296562 
L 249.731215 133.341023 
L 250.422998 133.342283 
L 251.068817 133.337096 
L 251.760573 133.330781 
L 252.498467 133.302087 
L 253.374844 133.199787 
L 254.066581 133.106614 
L 255.127339 132.998111 
L 256.095961 132.83484 
L 256.787721 132.72763 
L 257.802367 132.573127 
L 259.001487 132.366536 
L 259.60108 132.256942 
L 260.292941 132.107019 
L 261.445904 131.803277 
L 262.691149 131.460591 
L 263.336876 131.294483 
L 264.351481 131.010093 
L 265.135528 130.814369 
L 266.196309 130.565448 
L 267.303257 130.322928 
L 268.50234 130.110014 
L 270.208889 129.829349 
L 270.762283 129.731337 
L 272.007574 129.535127 
L 273.022197 129.369385 
L 274.359694 129.16975 
L 275.420451 129.039514 
L 276.573469 128.880804 
L 279.110141 128.640819 
L 280.816598 128.445465 
L 281.69291 128.343541 
L 282.845891 128.19898 
L 285.013569 127.998337 
L 285.659314 127.964251 
L 286.673965 127.871683 
L 288.5649 127.671338 
L 290.179153 127.549595 
L 291.193799 127.491119 
L 292.531217 127.364821 
L 294.237757 127.214768 
L 296.451731 127.052278 
L 298.342454 126.902513 
L 300.141166 126.757789 
L 320.987714 125.605078 
L 321.817887 125.588235 
L 322.601939 125.572712 
L 323.293805 125.573971 
L 324.077792 125.571222 
L 324.585134 125.563714 
L 325.415302 125.561594 
L 325.968751 125.54099 
L 326.845132 125.525104 
L 327.675212 125.552034 
L 328.367019 125.496954 
L 328.920476 125.480909 
L 329.981266 125.462122 
L 330.626956 125.486943 
L 332.195167 125.487232 
L 332.748477 125.508242 
L 333.624803 125.498025 
L 334.270493 125.462838 
L 335.054642 125.447525 
L 335.930949 125.432162 
L 336.714909 125.431213 
L 342.895084 126.074696 
L 343.540723 126.229357 
L 345.154999 126.561893 
L 346.400272 126.875414 
L 347.414951 127.126661 
L 348.3373 127.386932 
L 349.075204 127.579729 
L 350.597192 127.962601 
L 351.381327 128.165359 
L 352.349811 128.360424 
L 353.825702 128.629924 
L 354.840362 128.80814 
L 355.670479 128.951217 
L 356.823502 129.154993 
L 358.022627 129.303416 
L 359.2679 129.463667 
L 360.697821 129.614582 
L 361.98904 129.766773 
L 363.142039 129.885446 
L 364.57192 130.038792 
L 365.632567 130.127525 
L 367.52353 130.297389 
L 368.445949 130.36129 
L 369.783491 130.458554 
L 369.783491 130.458554 
" clip-path="url(#p90920836d1)" style="fill: none; stroke: #0000ff; stroke-width: 0.4; stroke-linecap: round"/>
   </g>
   <g id="line2d_77">
    <path d="M 53.072508 129.246339 
L 55.793681 129.347127 
L 57.915261 129.636435 
L 59.575551 130.084205 
L 65.386742 131.870412 
L 68.522932 132.147529 
L 69.583722 132.144633 
L 70.091041 132.119305 
L 71.336388 132.057568 
L 73.826828 131.903699 
L 74.241928 131.891835 
L 75.118222 131.848709 
L 75.579406 131.862981 
L 76.732433 131.909781 
L 77.977752 132.094008 
L 78.346648 132.17229 
L 79.730288 132.413199 
L 80.145356 132.543438 
L 81.252318 132.847419 
L 82.082431 133.091037 
L 83.788906 133.48777 
L 84.203983 133.606361 
L 85.26476 133.812398 
L 85.679883 133.89143 
L 90.568637 134.203764 
L 94.811751 133.5405 
L 95.964815 133.187639 
L 96.379883 133.079113 
L 99.100964 132.061254 
L 99.562318 131.896656 
L 103.159655 130.693723 
L 103.759331 130.524362 
L 104.958285 130.171248 
L 109.247539 129.182884 
L 109.708778 129.095618 
L 113.029534 128.448437 
L 114.228594 128.234633 
L 115.058799 128.096377 
L 120.362625 127.288762 
L 122.53034 127.103227 
L 123.176035 127.060607 
L 125.482034 126.853263 
L 126.312248 126.782203 
L 128.987203 126.493404 
L 129.817376 126.401291 
L 131.754455 126.189156 
L 132.907689 126.094445 
L 145.913587 124.959349 
L 152.370385 124.755234 
L 153.338994 124.724002 
L 153.846266 124.698429 
L 154.445859 124.681421 
L 154.907172 124.62581 
L 155.967796 124.577412 
L 161.271678 124.546369 
L 161.686782 124.530557 
L 162.609174 124.552442 
L 164.038999 124.581498 
L 164.361853 124.568637 
L 164.915246 124.566161 
L 166.068259 124.517558 
L 166.483336 124.484177 
L 171.326006 124.917166 
L 172.894125 125.1948 
L 173.4938 125.293873 
L 179.627794 126.823129 
L 180.826882 127.211115 
L 181.426456 127.38602 
L 182.11829 127.601188 
L 182.810077 127.783081 
L 184.332056 128.123396 
L 184.931639 128.263977 
L 185.992425 128.507456 
L 186.638069 128.630179 
L 188.759635 128.973156 
L 189.405353 129.069017 
L 192.63378 129.512771 
L 193.095014 129.566391 
L 195.17046 129.83486 
L 197.614849 130.147133 
L 198.260511 130.211126 
L 201.304529 130.530657 
L 202.134688 130.625433 
L 203.702787 130.758993 
L 204.994116 130.849164 
L 206.147134 130.963533 
L 208.268719 131.199131 
L 209.467807 131.351944 
L 210.251974 131.432878 
L 211.451048 131.557187 
L 212.83467 131.706604 
L 214.218314 131.872556 
L 216.016999 132.067862 
L 218.738194 132.342082 
L 227.593352 133.063204 
L 229.945421 133.177911 
L 231.052327 133.220916 
L 232.205451 133.261213 
L 233.404484 133.302085 
L 234.234804 133.3406 
L 235.111005 133.359727 
L 235.941109 133.398205 
L 236.725156 133.405535 
L 237.601496 133.438899 
L 238.247154 133.468787 
L 238.800639 133.478531 
L 239.861452 133.453422 
L 240.691547 133.497536 
L 241.337255 133.49354 
L 241.844606 133.51438 
L 242.628672 133.499388 
L 243.320446 133.528106 
L 243.920029 133.540585 
L 244.79629 133.562797 
L 245.580407 133.584265 
L 246.27218 133.61359 
L 246.733392 133.645496 
L 247.563611 133.678243 
L 248.024832 133.711545 
L 248.854931 133.751342 
L 249.500621 133.7641 
L 249.77747 133.790153 
L 250.60756 133.802244 
L 251.25319 133.790587 
L 251.852768 133.783548 
L 252.498467 133.754655 
L 253.328631 133.64089 
L 254.158785 133.537567 
L 254.666178 133.481949 
L 255.450193 133.368791 
L 256.510946 133.16376 
L 257.34116 133.03263 
L 258.125263 132.882476 
L 259.001487 132.714754 
L 259.60108 132.592937 
L 260.246742 132.444256 
L 261.492052 132.078821 
L 262.322211 131.825773 
L 263.106222 131.58754 
L 264.120873 131.282128 
L 264.95105 131.039161 
L 265.781218 130.820347 
L 266.611442 130.609262 
L 269.332578 130.055881 
L 270.162709 129.898602 
L 271.315727 129.692251 
L 272.976095 129.391626 
L 276.757957 128.816218 
L 277.957127 128.680297 
L 279.017904 128.584041 
L 280.170894 128.470985 
L 281.600613 128.248413 
L 282.430804 128.123898 
L 283.999005 127.981319 
L 284.644603 127.929715 
L 285.19807 127.851059 
L 311.948073 125.596927 
L 313.147285 125.52007 
L 314.853659 125.403169 
L 316.052886 125.380467 
L 317.805399 125.300094 
L 318.68166 125.293364 
L 320.11142 125.209442 
L 321.079997 125.197157 
L 321.864012 125.172779 
L 322.740278 125.180781 
L 323.524339 125.154562 
L 324.262298 125.167256 
L 325.138619 125.141774 
L 325.645915 125.141405 
L 326.429967 125.12809 
L 327.075685 125.114936 
L 327.813584 125.125958 
L 328.597659 125.083063 
L 329.289516 125.050713 
L 329.84295 125.042547 
L 330.67316 125.064597 
L 331.180446 125.06713 
L 331.687737 125.068147 
L 332.287288 125.086977 
L 333.255906 125.088106 
L 333.901615 125.04559 
L 334.823983 125.022064 
L 335.377445 125.024525 
L 336.392022 125.019862 
L 336.899401 125.015791 
L 337.222186 125.042368 
L 338.236888 125.096358 
L 339.297641 125.175324 
L 342.848913 125.723835 
L 343.310161 125.807219 
L 344.048074 126.006117 
L 344.555416 126.12447 
L 351.658051 128.125139 
L 352.534313 128.295777 
L 354.194621 128.655209 
L 355.393843 128.86953 
L 356.408434 129.067264 
L 357.792032 129.282034 
L 358.576098 129.397566 
L 359.40628 129.511386 
L 360.467139 129.625968 
L 362.21969 129.85324 
L 363.280424 129.981797 
L 364.664041 130.12655 
L 365.817068 130.244333 
L 367.016239 130.364963 
L 369.322247 130.553623 
L 369.783491 130.593959 
L 369.783491 130.593959 
" clip-path="url(#p90920836d1)" style="fill: none; stroke: #008000; stroke-width: 0.4; stroke-linecap: round"/>
   </g>
   <g id="line2d_78">
    <path d="M 53.072508 129.248628 
L 54.87122 129.343014 
L 56.439338 129.623189 
L 57.776959 130.084214 
L 59.022084 130.779364 
L 60.267339 131.731801 
L 64.187581 134.724531 
L 65.847949 135.455107 
L 68.200101 135.900556 
L 71.382426 135.711889 
L 71.981995 135.624655 
L 72.212732 135.616966 
L 73.089003 135.464057 
L 73.319555 135.454581 
L 73.826828 135.368376 
L 74.057413 135.371482 
L 74.749297 135.269711 
L 74.979859 135.282114 
L 75.441104 135.256934 
L 75.856222 135.275945 
L 76.086738 135.323963 
L 76.594135 135.351617 
L 76.824734 135.434919 
L 77.331993 135.536742 
L 77.562596 135.644846 
L 77.885492 135.738033 
L 78.162166 135.917644 
L 78.438885 136.00061 
L 78.669558 136.101366 
L 78.992371 136.230522 
L 79.176844 136.309623 
L 79.545815 136.445696 
L 79.822548 136.625916 
L 80.283718 136.892 
L 80.514419 137.069983 
L 80.837194 137.24898 
L 81.113933 137.459949 
L 81.298378 137.587455 
L 81.575103 137.755855 
L 81.851822 137.961039 
L 82.497554 138.339596 
L 82.774283 138.528648 
L 83.235485 138.758459 
L 83.466057 138.915331 
L 83.927264 139.100987 
L 84.895785 139.597687 
L 85.126402 139.753831 
L 85.63373 139.893205 
L 85.864384 140.022331 
L 88.723841 140.636975 
L 88.954412 140.646853 
L 89.185029 140.732034 
L 89.692394 140.676307 
L 89.922956 140.720408 
L 92.413474 140.256459 
L 93.105281 139.972443 
L 93.42813 139.8465 
L 93.843212 139.625533 
L 94.027704 139.59168 
L 94.673394 139.220961 
L 94.857881 139.094862 
L 95.088471 138.954639 
L 95.780332 138.452861 
L 96.010876 138.324738 
L 103.159655 132.581871 
L 103.390241 132.436039 
L 104.035875 131.985555 
L 104.681597 131.58562 
L 105.373445 131.131472 
L 105.650206 131.000749 
L 106.664806 130.444961 
L 106.941503 130.295862 
L 107.58717 129.966433 
L 107.863922 129.865623 
L 109.339757 129.075845 
L 109.66262 128.929641 
L 110.539061 128.497504 
L 110.7696 128.426637 
L 111.415212 128.098933 
L 112.383802 127.686136 
L 112.660522 127.594074 
L 113.352351 127.295552 
L 115.520061 126.434483 
L 115.796675 126.308379 
L 116.396263 126.04633 
L 121.238951 124.509211 
L 121.654139 124.47848 
L 124.559638 123.939273 
L 124.836367 123.902914 
L 125.666567 123.694163 
L 125.989412 123.634291 
L 126.727307 123.464581 
L 128.249378 123.082347 
L 128.572227 123.011218 
L 129.909682 122.662881 
L 130.324823 122.583808 
L 131.385498 122.295723 
L 131.846752 122.195269 
L 132.723096 122.019108 
L 134.521679 121.698615 
L 135.029108 121.621482 
L 141.209173 120.194112 
L 144.806593 119.529429 
L 150.110498 119.004158 
L 150.756169 118.989613 
L 151.078996 118.929459 
L 152.416533 118.91317 
L 152.693225 118.876491 
L 153.338994 118.833943 
L 153.615672 118.784514 
L 154.630415 118.689588 
L 154.860917 118.606909 
L 155.921827 118.531323 
L 156.152302 118.478718 
L 156.844126 118.494056 
L 157.074739 118.450388 
L 157.951019 118.428105 
L 158.181655 118.370836 
L 159.242371 118.430841 
L 159.473048 118.401303 
L 160.718248 118.452324 
L 160.948847 118.42058 
L 161.548416 118.403855 
L 165.145859 118.4559 
L 165.376444 118.391902 
L 167.682526 118.324773 
L 168.28204 118.41754 
L 168.512652 118.424471 
L 169.388997 118.622282 
L 169.573419 118.671522 
L 169.711791 118.6936 
L 170.1269 118.847871 
L 170.357472 118.89601 
L 171.049287 119.189845 
L 171.279978 119.251184 
L 171.971692 119.54081 
L 172.202365 119.609648 
L 173.263076 120.082555 
L 173.4938 120.146323 
L 178.935928 123.176058 
L 180.089052 124.039 
L 180.365744 124.230263 
L 181.195899 124.814542 
L 181.426456 124.964418 
L 181.795417 125.242283 
L 182.072141 125.424881 
L 182.85624 125.910102 
L 183.13289 126.02294 
L 184.239893 126.621152 
L 184.608762 126.78147 
L 185.807914 127.453657 
L 186.084625 127.576798 
L 186.730329 127.877765 
L 187.007053 127.975215 
L 188.206196 128.421463 
L 188.529036 128.539013 
L 190.973503 129.373359 
L 191.204061 129.414385 
L 192.44944 129.803865 
L 192.864471 129.908415 
L 193.925284 130.253088 
L 194.201925 130.328569 
L 195.308827 130.637585 
L 195.631649 130.715504 
L 196.87689 131.091312 
L 197.199767 131.180985 
L 198.168279 131.460131 
L 198.445022 131.520885 
L 199.459686 131.774702 
L 199.736378 131.832361 
L 201.119981 132.166727 
L 201.488942 132.255451 
L 201.904019 132.354305 
L 202.595844 132.506384 
L 203.287678 132.648134 
L 203.93334 132.757892 
L 204.394561 132.84927 
L 204.809767 132.914064 
L 205.316966 133.000907 
L 206.331686 133.255061 
L 206.74675 133.354538 
L 207.39243 133.52322 
L 207.8998 133.646245 
L 208.730018 133.888344 
L 209.19111 134.030061 
L 209.975172 134.238809 
L 210.805326 134.40865 
L 211.68161 134.626126 
L 212.281263 134.768033 
L 212.973036 134.962001 
L 213.757051 135.162946 
L 214.633377 135.397798 
L 215.463532 135.617364 
L 216.293714 135.812276 
L 217.861827 136.169948 
L 221.320903 136.97946 
L 225.932938 137.830923 
L 227.916156 138.075014 
L 228.561841 138.147615 
L 229.161378 138.204897 
L 229.668706 138.277021 
L 230.129918 138.319901 
L 230.683357 138.354978 
L 231.052327 138.401851 
L 231.513544 138.425055 
L 231.974755 138.459927 
L 232.436101 138.516394 
L 233.035532 138.552824 
L 233.542837 138.61206 
L 233.958006 138.63025 
L 234.419153 138.670688 
L 234.742095 138.681415 
L 235.018796 138.716703 
L 235.295428 138.745338 
L 235.710528 138.799151 
L 236.217833 138.815126 
L 236.679077 138.843276 
L 236.955755 138.850169 
L 237.232526 138.871551 
L 237.509351 138.900753 
L 237.970448 138.963895 
L 238.247154 138.972684 
L 238.523864 138.997689 
L 238.98508 138.974149 
L 239.261966 138.960382 
L 239.492477 138.957861 
L 239.769151 138.97473 
L 240.045903 138.956256 
L 240.368697 138.999503 
L 240.783862 139.00627 
L 241.060522 139.054455 
L 241.383353 139.054979 
L 241.660086 139.064977 
L 241.890754 139.060435 
L 242.121303 139.069199 
L 242.444148 139.019145 
L 242.720876 139.07645 
L 242.997605 139.060507 
L 243.320446 139.109293 
L 243.551201 139.112199 
L 243.87389 139.153378 
L 244.1506 139.164437 
L 244.381259 139.202756 
L 244.70409 139.182318 
L 244.934652 139.188371 
L 245.257576 139.238407 
L 245.488115 139.258673 
L 245.8572 139.273238 
L 246.226037 139.31896 
L 246.548877 139.327904 
L 247.148442 139.438428 
L 247.425304 139.448505 
L 248.117055 139.535732 
L 248.393705 139.535811 
L 248.854931 139.623393 
L 249.270013 139.601101 
L 249.961805 139.714284 
L 250.238543 139.729627 
L 250.469151 139.751322 
L 250.792056 139.742415 
L 251.068817 139.72064 
L 251.345509 139.702833 
L 251.806726 139.717336 
L 252.221734 139.640135 
L 252.68295 139.592311 
L 253.374844 139.369156 
L 253.78987 139.286829 
L 254.297147 139.059534 
L 254.712354 139.002366 
L 255.081292 138.881108 
L 255.773121 138.576647 
L 256.049799 138.468329 
L 256.510946 138.270223 
L 256.787721 138.160524 
L 257.064399 138.085978 
L 257.34116 137.96824 
L 257.756238 137.768031 
L 258.079078 137.660158 
L 258.494155 137.445039 
L 259.001487 137.23619 
L 259.27823 137.114434 
L 259.647228 136.948934 
L 260.108375 136.673145 
L 260.754075 136.269816 
L 261.123045 136.042703 
L 261.584261 135.703608 
L 262.045514 135.384564 
L 262.506662 135.081219 
L 262.967855 134.727181 
L 263.567466 134.33512 
L 264.074752 133.959717 
L 264.858818 133.464533 
L 265.32002 133.151769 
L 265.781218 132.873479 
L 266.242448 132.587656 
L 266.703637 132.356366 
L 267.210956 132.058955 
L 268.087235 131.661691 
L 268.50234 131.459922 
L 269.148012 131.189359 
L 269.563144 131.013938 
L 270.208889 130.741473 
L 270.485572 130.593351 
L 271.131211 130.343807 
L 271.592419 130.139461 
L 272.238132 129.902625 
L 272.699454 129.681244 
L 273.206667 129.492181 
L 273.806263 129.25484 
L 274.129085 129.152574 
L 274.59026 128.980511 
L 275.051486 128.813491 
L 275.512688 128.664525 
L 275.789436 128.549642 
L 276.204508 128.427936 
L 276.665706 128.305976 
L 277.173052 128.157605 
L 277.542101 128.061266 
L 278.095485 127.905855 
L 278.510631 127.843807 
L 279.156275 127.677881 
L 279.617473 127.581695 
L 280.032536 127.484762 
L 280.816598 127.198994 
L 281.277786 127.097292 
L 282.154075 126.749163 
L 283.999005 126.335358 
L 284.413999 126.2938 
L 285.244232 126.025985 
L 285.567017 125.980448 
L 286.351106 125.785413 
L 286.766202 125.715505 
L 287.458031 125.512397 
L 288.334352 125.297278 
L 289.302799 125.05658 
L 289.764149 124.970327 
L 290.409724 124.858638 
L 290.778653 124.772054 
L 291.608886 124.659977 
L 292.48523 124.432356 
L 292.946382 124.346414 
L 293.407658 124.254751 
L 294.053251 124.107087 
L 294.69895 123.956327 
L 295.483002 123.828625 
L 296.313203 123.654748 
L 296.77435 123.551572 
L 297.835117 123.341578 
L 298.711466 123.19112 
L 300.371756 122.822494 
L 301.432551 122.626799 
L 303.876949 122.151433 
L 306.090826 121.731446 
L 310.518382 121.032286 
L 311.625247 120.894953 
L 312.732125 120.720465 
L 313.516316 120.627995 
L 314.346322 120.488071 
L 314.761441 120.422771 
L 315.222611 120.380261 
L 315.9145 120.357299 
L 317.06743 120.18281 
L 317.71312 120.186925 
L 317.989955 120.186661 
L 318.266597 120.174079 
L 318.77398 120.141932 
L 319.050644 120.103589 
L 319.511856 120.039498 
L 319.788612 119.992095 
L 320.249796 119.956236 
L 320.4804 119.934077 
L 320.987714 119.928141 
L 321.356717 119.91571 
L 321.679534 119.871133 
L 321.956258 119.875242 
L 322.232978 119.855733 
L 322.555823 119.860719 
L 322.832552 119.880275 
L 324.723501 119.797175 
L 325.00022 119.776001 
L 325.323075 119.825081 
L 325.645915 119.795198 
L 325.876514 119.761167 
L 326.153243 119.773145 
L 326.429967 119.764535 
L 326.752812 119.727073 
L 327.16794 119.770104 
L 327.444697 119.7511 
L 327.721361 119.76596 
L 328.228679 119.652838 
L 328.689877 119.650365 
L 329.197196 119.619122 
L 329.79677 119.546042 
L 330.119629 119.595911 
L 330.534766 119.586951 
L 330.995964 119.649339 
L 331.272651 119.625895 
L 331.595574 119.623079 
L 331.918346 119.603893 
L 332.979186 119.686878 
L 333.486473 119.629548 
L 333.717095 119.634562 
L 334.039944 119.55436 
L 334.316627 119.578203 
L 335.146768 119.494103 
L 335.469686 119.507831 
L 335.746392 119.475622 
L 336.023103 119.519841 
L 336.438161 119.495461 
L 336.761034 119.493517 
L 336.899401 119.505917 
L 337.083879 119.540454 
L 337.683462 119.621159 
L 337.960256 119.643114 
L 338.467523 119.710993 
L 338.836434 119.753364 
L 339.251599 119.877796 
L 339.57437 119.943363 
L 339.897215 120.073207 
L 340.173921 120.134507 
L 341.373114 120.609663 
L 341.603699 120.662074 
L 342.110995 120.851897 
L 342.387742 120.955155 
L 342.802935 121.134129 
L 343.171813 121.264113 
L 343.356319 121.373389 
L 344.048074 121.78658 
L 344.324821 121.914382 
L 345.893041 122.854038 
L 346.354133 123.165701 
L 346.769187 123.388966 
L 347.276612 123.735197 
L 347.737745 124.04169 
L 348.3373 124.48935 
L 348.660187 124.678614 
L 349.490369 125.263748 
L 349.95159 125.514635 
L 351.150659 126.365179 
L 351.473555 126.554714 
L 351.88859 126.758657 
L 352.211468 126.921648 
L 352.626522 127.112865 
L 353.041691 127.301053 
L 353.733419 127.632948 
L 354.010134 127.748224 
L 354.240797 127.915875 
L 354.702051 128.065089 
L 355.578252 128.457043 
L 355.947213 128.626313 
L 356.362286 128.803261 
L 356.823502 129.015249 
L 357.376955 129.165299 
L 357.976529 129.390343 
L 358.391629 129.530284 
L 358.806803 129.679518 
L 358.991194 129.722321 
L 359.40628 129.859015 
L 359.959715 129.967168 
L 360.928241 130.280074 
L 361.435693 130.400429 
L 362.12743 130.623015 
L 362.588641 130.737627 
L 363.049853 130.860038 
L 363.603256 131.029938 
L 364.249001 131.178555 
L 364.664041 131.275702 
L 365.125248 131.378283 
L 366.047658 131.617815 
L 366.739469 131.745367 
L 367.52353 131.939567 
L 367.984719 131.999448 
L 368.630482 132.1573 
L 369.137755 132.217 
L 369.598971 132.316076 
L 369.783491 132.352119 
L 369.783491 132.352119 
" clip-path="url(#p90920836d1)" style="fill: none; stroke: #ff0000; stroke-width: 0.4; stroke-linecap: round"/>
   </g>
   <g id="patch_9">
    <path d="M 37.236959 145.458539 
L 37.236959 109.093602 
" style="fill: none; stroke: #000000; stroke-linejoin: miter; stroke-linecap: square"/>
   </g>
   <g id="patch_10">
    <path d="M 37.236959 145.458539 
L 385.61904 145.458539 
" style="fill: none; stroke: #000000; stroke-linejoin: miter; stroke-linecap: square"/>
   </g>
  </g>
  <g id="axes_4">
   <g id="patch_11">
    <path d="M 37.236959 191.670051 
L 385.61904 191.670051 
L 385.61904 155.305115 
L 37.236959 155.305115 
z
" style="fill: #ffffff"/>
   </g>
   <g id="matplotlib.axis_7">
    <g id="xtick_25">
     <g id="line2d_79">
      <path d="M 53.072508 191.670051 
L 53.072508 155.305115 
" clip-path="url(#pe574559dc0)" style="fill: none; stroke: #b0b0b0; stroke-width: 0.1; stroke-linecap: round"/>
     </g>
     <g id="line2d_80"/>
     <g id="text_16">
      <!-- 0 -->
      <g style="fill: #262626" transform="translate(50.209383 202.008645) scale(0.09 -0.09)">
       <use xlink:href="#DejaVuSerif-30"/>
      </g>
     </g>
    </g>
    <g id="xtick_26">
     <g id="line2d_81">
      <path d="M 99.193219 191.670051 
L 99.193219 155.305115 
" clip-path="url(#pe574559dc0)" style="fill: none; stroke: #b0b0b0; stroke-width: 0.1; stroke-linecap: round"/>
     </g>
     <g id="line2d_82"/>
     <g id="text_17">
      <!-- 10 -->
      <g style="fill: #262626" transform="translate(93.466969 202.008645) scale(0.09 -0.09)">
       <defs>
        <path id="DejaVuSerif-31" d="M 909 0 
L 909 331 
L 1722 331 
L 1722 4213 
L 781 3603 
L 781 4013 
L 1919 4750 
L 2350 4750 
L 2350 331 
L 3163 331 
L 3163 0 
L 909 0 
z
" transform="scale(0.015625)"/>
       </defs>
       <use xlink:href="#DejaVuSerif-31"/>
       <use xlink:href="#DejaVuSerif-30" x="63.623047"/>
      </g>
     </g>
    </g>
    <g id="xtick_27">
     <g id="line2d_83">
      <path d="M 145.31393 191.670051 
L 145.31393 155.305115 
" clip-path="url(#pe574559dc0)" style="fill: none; stroke: #b0b0b0; stroke-width: 0.1; stroke-linecap: round"/>
     </g>
     <g id="line2d_84"/>
     <g id="text_18">
      <!-- 20 -->
      <g style="fill: #262626" transform="translate(139.58768 202.008645) scale(0.09 -0.09)">
       <defs>
        <path id="DejaVuSerif-32" d="M 819 3553 
L 469 3553 
L 469 4384 
Q 803 4563 1142 4656 
Q 1481 4750 1806 4750 
Q 2534 4750 2956 4397 
Q 3378 4044 3378 3438 
Q 3378 2753 2422 1800 
Q 2347 1728 2309 1691 
L 1131 513 
L 3078 513 
L 3078 1088 
L 3444 1088 
L 3444 0 
L 434 0 
L 434 341 
L 1850 1753 
Q 2319 2222 2519 2614 
Q 2719 3006 2719 3438 
Q 2719 3909 2473 4175 
Q 2228 4441 1797 4441 
Q 1350 4441 1106 4219 
Q 863 3997 819 3553 
z
" transform="scale(0.015625)"/>
       </defs>
       <use xlink:href="#DejaVuSerif-32"/>
       <use xlink:href="#DejaVuSerif-30" x="63.623047"/>
      </g>
     </g>
    </g>
    <g id="xtick_28">
     <g id="line2d_85">
      <path d="M 191.434641 191.670051 
L 191.434641 155.305115 
" clip-path="url(#pe574559dc0)" style="fill: none; stroke: #b0b0b0; stroke-width: 0.1; stroke-linecap: round"/>
     </g>
     <g id="line2d_86"/>
     <g id="text_19">
      <!-- 30 -->
      <g style="fill: #262626" transform="translate(185.708391 202.008645) scale(0.09 -0.09)">
       <defs>
        <path id="DejaVuSerif-33" d="M 622 4469 
Q 988 4606 1323 4678 
Q 1659 4750 1953 4750 
Q 2638 4750 3022 4454 
Q 3406 4159 3406 3634 
Q 3406 3213 3140 2930 
Q 2875 2647 2388 2547 
Q 2963 2466 3280 2130 
Q 3597 1794 3597 1259 
Q 3597 606 3158 257 
Q 2719 -91 1894 -91 
Q 1528 -91 1179 -12 
Q 831 66 488 225 
L 488 1131 
L 838 1131 
Q 869 681 1141 450 
Q 1413 219 1906 219 
Q 2384 219 2661 495 
Q 2938 772 2938 1253 
Q 2938 1803 2653 2086 
Q 2369 2369 1819 2369 
L 1522 2369 
L 1522 2688 
L 1678 2688 
Q 2225 2688 2498 2914 
Q 2772 3141 2772 3597 
Q 2772 4006 2547 4223 
Q 2322 4441 1900 4441 
Q 1478 4441 1245 4241 
Q 1013 4041 972 3647 
L 622 3647 
L 622 4469 
z
" transform="scale(0.015625)"/>
       </defs>
       <use xlink:href="#DejaVuSerif-33"/>
       <use xlink:href="#DejaVuSerif-30" x="63.623047"/>
      </g>
     </g>
    </g>
    <g id="xtick_29">
     <g id="line2d_87">
      <path d="M 237.555352 191.670051 
L 237.555352 155.305115 
" clip-path="url(#pe574559dc0)" style="fill: none; stroke: #b0b0b0; stroke-width: 0.1; stroke-linecap: round"/>
     </g>
     <g id="line2d_88"/>
     <g id="text_20">
      <!-- 40 -->
      <g style="fill: #262626" transform="translate(231.829102 202.008645) scale(0.09 -0.09)">
       <defs>
        <path id="DejaVuSerif-34" d="M 2234 1581 
L 2234 4063 
L 641 1581 
L 2234 1581 
z
M 3609 0 
L 1484 0 
L 1484 331 
L 2234 331 
L 2234 1247 
L 197 1247 
L 197 1588 
L 2241 4750 
L 2859 4750 
L 2859 1581 
L 3750 1581 
L 3750 1247 
L 2859 1247 
L 2859 331 
L 3609 331 
L 3609 0 
z
" transform="scale(0.015625)"/>
       </defs>
       <use xlink:href="#DejaVuSerif-34"/>
       <use xlink:href="#DejaVuSerif-30" x="63.623047"/>
      </g>
     </g>
    </g>
    <g id="xtick_30">
     <g id="line2d_89">
      <path d="M 283.676063 191.670051 
L 283.676063 155.305115 
" clip-path="url(#pe574559dc0)" style="fill: none; stroke: #b0b0b0; stroke-width: 0.1; stroke-linecap: round"/>
     </g>
     <g id="line2d_90"/>
     <g id="text_21">
      <!-- 50 -->
      <g style="fill: #262626" transform="translate(277.949813 202.008645) scale(0.09 -0.09)">
       <use xlink:href="#DejaVuSerif-35"/>
       <use xlink:href="#DejaVuSerif-30" x="63.623047"/>
      </g>
     </g>
    </g>
    <g id="xtick_31">
     <g id="line2d_91">
      <path d="M 329.796774 191.670051 
L 329.796774 155.305115 
" clip-path="url(#pe574559dc0)" style="fill: none; stroke: #b0b0b0; stroke-width: 0.1; stroke-linecap: round"/>
     </g>
     <g id="line2d_92"/>
     <g id="text_22">
      <!-- 60 -->
      <g style="fill: #262626" transform="translate(324.070524 202.008645) scale(0.09 -0.09)">
       <defs>
        <path id="DejaVuSerif-36" d="M 2094 219 
Q 2534 219 2771 542 
Q 3009 866 3009 1472 
Q 3009 2078 2771 2401 
Q 2534 2725 2094 2725 
Q 1647 2725 1412 2412 
Q 1178 2100 1178 1509 
Q 1178 888 1415 553 
Q 1653 219 2094 219 
z
M 1075 2569 
Q 1288 2803 1556 2918 
Q 1825 3034 2163 3034 
Q 2859 3034 3264 2615 
Q 3669 2197 3669 1472 
Q 3669 763 3233 336 
Q 2797 -91 2069 -91 
Q 1278 -91 853 498 
Q 428 1088 428 2181 
Q 428 3406 931 4078 
Q 1434 4750 2350 4750 
Q 2597 4750 2869 4703 
Q 3141 4656 3425 4563 
L 3425 3794 
L 3072 3794 
Q 3034 4109 2831 4275 
Q 2628 4441 2284 4441 
Q 1678 4441 1381 3981 
Q 1084 3522 1075 2569 
z
" transform="scale(0.015625)"/>
       </defs>
       <use xlink:href="#DejaVuSerif-36"/>
       <use xlink:href="#DejaVuSerif-30" x="63.623047"/>
      </g>
     </g>
    </g>
    <g id="xtick_32">
     <g id="line2d_93">
      <path d="M 375.917485 191.670051 
L 375.917485 155.305115 
" clip-path="url(#pe574559dc0)" style="fill: none; stroke: #b0b0b0; stroke-width: 0.1; stroke-linecap: round"/>
     </g>
     <g id="line2d_94"/>
     <g id="text_23">
      <!-- 70 -->
      <g style="fill: #262626" transform="translate(370.191235 202.008645) scale(0.09 -0.09)">
       <defs>
        <path id="DejaVuSerif-37" d="M 3609 4347 
L 1784 0 
L 1319 0 
L 3059 4153 
L 903 4153 
L 903 3578 
L 538 3578 
L 538 4666 
L 3609 4666 
L 3609 4347 
z
" transform="scale(0.015625)"/>
       </defs>
       <use xlink:href="#DejaVuSerif-37"/>
       <use xlink:href="#DejaVuSerif-30" x="63.623047"/>
      </g>
     </g>
    </g>
    <g id="text_24">
     <!-- Time [s] -->
     <g style="fill: #262626" transform="translate(194.874874 213.959114) scale(0.08 -0.08)">
      <defs>
       <path id="DejaVuSerif-54" d="M 1222 0 
L 1222 331 
L 1819 331 
L 1819 4294 
L 447 4294 
L 447 3566 
L 63 3566 
L 63 4666 
L 4206 4666 
L 4206 3566 
L 3822 3566 
L 3822 4294 
L 2450 4294 
L 2450 331 
L 3047 331 
L 3047 0 
L 1222 0 
z
" transform="scale(0.015625)"/>
       <path id="DejaVuSerif-69" d="M 622 4353 
Q 622 4497 726 4603 
Q 831 4709 978 4709 
Q 1122 4709 1226 4603 
Q 1331 4497 1331 4353 
Q 1331 4206 1228 4103 
Q 1125 4000 978 4000 
Q 831 4000 726 4103 
Q 622 4206 622 4353 
z
M 1356 331 
L 1900 331 
L 1900 0 
L 231 0 
L 231 331 
L 781 331 
L 781 2988 
L 231 2988 
L 231 3322 
L 1356 3322 
L 1356 331 
z
" transform="scale(0.015625)"/>
       <path id="DejaVuSerif-6d" d="M 3316 2675 
Q 3481 3041 3739 3227 
Q 3997 3413 4341 3413 
Q 4863 3413 5119 3089 
Q 5375 2766 5375 2113 
L 5375 331 
L 5894 331 
L 5894 0 
L 4300 0 
L 4300 331 
L 4800 331 
L 4800 2047 
Q 4800 2556 4650 2772 
Q 4500 2988 4153 2988 
Q 3769 2988 3567 2697 
Q 3366 2406 3366 1850 
L 3366 331 
L 3866 331 
L 3866 0 
L 2291 0 
L 2291 331 
L 2791 331 
L 2791 2069 
Q 2791 2566 2641 2777 
Q 2491 2988 2144 2988 
Q 1759 2988 1557 2697 
Q 1356 2406 1356 1850 
L 1356 331 
L 1856 331 
L 1856 0 
L 263 0 
L 263 331 
L 781 331 
L 781 2994 
L 231 2994 
L 231 3322 
L 1356 3322 
L 1356 2731 
Q 1516 3063 1762 3238 
Q 2009 3413 2322 3413 
Q 2709 3413 2968 3220 
Q 3228 3028 3316 2675 
z
" transform="scale(0.015625)"/>
       <path id="DejaVuSerif-20" transform="scale(0.015625)"/>
       <path id="DejaVuSerif-5b" d="M 550 4863 
L 2003 4863 
L 2003 4531 
L 1147 4531 
L 1147 -513 
L 2003 -513 
L 2003 -844 
L 550 -844 
L 550 4863 
z
" transform="scale(0.015625)"/>
       <path id="DejaVuSerif-73" d="M 359 184 
L 359 959 
L 691 959 
Q 703 588 923 403 
Q 1144 219 1575 219 
Q 1963 219 2166 364 
Q 2369 509 2369 788 
Q 2369 1006 2220 1140 
Q 2072 1275 1594 1428 
L 1178 1569 
Q 750 1706 558 1912 
Q 366 2119 366 2438 
Q 366 2894 700 3153 
Q 1034 3413 1625 3413 
Q 1888 3413 2178 3344 
Q 2469 3275 2778 3144 
L 2778 2419 
L 2447 2419 
Q 2434 2741 2221 2922 
Q 2009 3103 1644 3103 
Q 1281 3103 1095 2975 
Q 909 2847 909 2591 
Q 909 2381 1050 2254 
Q 1191 2128 1613 1997 
L 2069 1856 
Q 2541 1709 2748 1489 
Q 2956 1269 2956 922 
Q 2956 450 2595 179 
Q 2234 -91 1600 -91 
Q 1278 -91 972 -22 
Q 666 47 359 184 
z
" transform="scale(0.015625)"/>
       <path id="DejaVuSerif-5d" d="M 1947 4863 
L 1947 -844 
L 494 -844 
L 494 -513 
L 1350 -513 
L 1350 4531 
L 494 4531 
L 494 4863 
L 1947 4863 
z
" transform="scale(0.015625)"/>
      </defs>
      <use xlink:href="#DejaVuSerif-54"/>
      <use xlink:href="#DejaVuSerif-69" x="66.699219"/>
      <use xlink:href="#DejaVuSerif-6d" x="98.681641"/>
      <use xlink:href="#DejaVuSerif-65" x="193.505859"/>
      <use xlink:href="#DejaVuSerif-20" x="252.685547"/>
      <use xlink:href="#DejaVuSerif-5b" x="284.472656"/>
      <use xlink:href="#DejaVuSerif-73" x="323.486328"/>
      <use xlink:href="#DejaVuSerif-5d" x="374.804688"/>
     </g>
    </g>
   </g>
   <g id="matplotlib.axis_8">
    <g id="ytick_10">
     <g id="line2d_95">
      <path d="M 37.236959 190.224167 
L 385.61904 190.224167 
" clip-path="url(#pe574559dc0)" style="fill: none; stroke: #b0b0b0; stroke-width: 0.1; stroke-linecap: round"/>
     </g>
     <g id="line2d_96"/>
     <g id="text_25">
      <!-- −50 -->
      <g style="fill: #262626" transform="translate(14.74274 193.643464) scale(0.09 -0.09)">
       <use xlink:href="#DejaVuSerif-2212"/>
       <use xlink:href="#DejaVuSerif-35" x="83.789062"/>
       <use xlink:href="#DejaVuSerif-30" x="147.412109"/>
      </g>
     </g>
    </g>
    <g id="ytick_11">
     <g id="line2d_97">
      <path d="M 37.236959 175.456096 
L 385.61904 175.456096 
" clip-path="url(#pe574559dc0)" style="fill: none; stroke: #b0b0b0; stroke-width: 0.1; stroke-linecap: round"/>
     </g>
     <g id="line2d_98"/>
     <g id="text_26">
      <!-- 0 -->
      <g style="fill: #262626" transform="translate(28.010709 178.875393) scale(0.09 -0.09)">
       <use xlink:href="#DejaVuSerif-30"/>
      </g>
     </g>
    </g>
    <g id="ytick_12">
     <g id="line2d_99">
      <path d="M 37.236959 160.688024 
L 385.61904 160.688024 
" clip-path="url(#pe574559dc0)" style="fill: none; stroke: #b0b0b0; stroke-width: 0.1; stroke-linecap: round"/>
     </g>
     <g id="line2d_100"/>
     <g id="text_27">
      <!-- 50 -->
      <g style="fill: #262626" transform="translate(22.284459 164.107321) scale(0.09 -0.09)">
       <use xlink:href="#DejaVuSerif-35"/>
       <use xlink:href="#DejaVuSerif-30" x="63.623047"/>
      </g>
     </g>
    </g>
    <g id="text_28">
     <!-- $Y_H(r)$ -->
     <g style="fill: #262626" transform="translate(9.07899 182.927583) rotate(-90) scale(0.08 -0.08)">
      <use xlink:href="#DejaVuSans-Oblique-59" transform="translate(0 0.125)"/>
      <use xlink:href="#DejaVuSans-Oblique-48" transform="translate(61.083984 -16.28125) scale(0.7)"/>
      <use xlink:href="#DejaVuSans-28" transform="translate(116.455078 0.125)"/>
      <use xlink:href="#DejaVuSans-Oblique-72" transform="translate(155.46875 0.125)"/>
      <use xlink:href="#DejaVuSans-29" transform="translate(196.582031 0.125)"/>
     </g>
    </g>
   </g>
   <g id="line2d_101">
    <path d="M 53.072508 175.456096 
L 369.783491 175.456096 
L 369.783491 175.456096 
" clip-path="url(#pe574559dc0)" style="fill: none; stroke: #0000ff; stroke-width: 0.4; stroke-linecap: round"/>
   </g>
   <g id="line2d_102">
    <path d="M 53.072508 175.456096 
L 369.783491 175.456096 
L 369.783491 175.456096 
" clip-path="url(#pe574559dc0)" style="fill: none; stroke: #008000; stroke-width: 0.4; stroke-linecap: round"/>
   </g>
   <g id="line2d_103">
    <path d="M 53.072508 175.456096 
L 369.783491 175.456096 
L 369.783491 175.456096 
" clip-path="url(#pe574559dc0)" style="fill: none; stroke: #ff0000; stroke-width: 0.4; stroke-linecap: round"/>
   </g>
   <g id="patch_12">
    <path d="M 37.236959 191.670051 
L 37.236959 155.305115 
" style="fill: none; stroke: #000000; stroke-linejoin: miter; stroke-linecap: square"/>
   </g>
   <g id="patch_13">
    <path d="M 37.236959 191.670051 
L 385.61904 191.670051 
" style="fill: none; stroke: #000000; stroke-linejoin: miter; stroke-linecap: square"/>
   </g>
  </g>
 </g>
 <defs>
  <clipPath id="p5ad1d42bca">
   <rect x="37.236959" y="16.670576" width="348.382081" height="36.364937"/>
  </clipPath>
  <clipPath id="p42e92a766e">
   <rect x="37.236959" y="62.882089" width="348.382081" height="36.364937"/>
  </clipPath>
  <clipPath id="p90920836d1">
   <rect x="37.236959" y="109.093602" width="348.382081" height="36.364937"/>
  </clipPath>
  <clipPath id="pe574559dc0">
   <rect x="37.236959" y="155.305115" width="348.382081" height="36.364937"/>
  </clipPath>
 </defs>
</svg>
