<?xml version="1.0" encoding="utf-8" standalone="no"?>
<!DOCTYPE svg PUBLIC "-//W3C//DTD SVG 1.1//EN"
  "http://www.w3.org/Graphics/SVG/1.1/DTD/svg11.dtd">
<svg xmlns:xlink="http://www.w3.org/1999/xlink" width="388.997344pt" height="220.174743pt" viewBox="0 0 388.997344 220.174743" xmlns="http://www.w3.org/2000/svg" version="1.1">
 <metadata>
  <rdf:RDF xmlns:dc="http://purl.org/dc/elements/1.1/" xmlns:cc="http://creativecommons.org/ns#" xmlns:rdf="http://www.w3.org/1999/02/22-rdf-syntax-ns#">
   <cc:Work>
    <dc:type rdf:resource="http://purl.org/dc/dcmitype/StillImage"/>
    <dc:date>2024-02-13T12:25:35.555252</dc:date>
    <dc:format>image/svg+xml</dc:format>
    <dc:creator>
     <cc:Agent>
      <dc:title>Matplotlib v3.8.2, https://matplotlib.org/</dc:title>
     </cc:Agent>
    </dc:creator>
   </cc:Work>
  </rdf:RDF>
 </metadata>
 <defs>
  <style type="text/css">*{stroke-linejoin: round; stroke-linecap: butt}</style>
 </defs>
 <g id="figure_1">
  <g id="patch_1">
   <path d="M 0 220.174743 
L 388.997344 220.174743 
L 388.997344 0 
L 0 0 
z
" style="fill: #ffffff"/>
  </g>
  <g id="axes_1">
   <g id="patch_2">
    <path d="M 56.717344 67.484706 
L 381.797344 67.484706 
L 381.797344 7.2 
L 56.717344 7.2 
z
" style="fill: #ffffff"/>
   </g>
   <g id="line2d_1">
    <path d="M 71.493707 37.427881 
L 73.221097 37.659027 
L 75.184039 38.154583 
L 77.461052 38.979703 
L 86.804658 42.57997 
L 95.284569 46.551273 
L 99.838595 48.17862 
L 105.80594 50.385444 
L 110.595519 52.109296 
L 114.913993 53.408125 
L 120.881338 54.963062 
L 124.257598 55.629449 
L 125.827952 55.733422 
L 127.476824 55.612804 
L 129.282731 55.248472 
L 131.245673 54.612631 
L 133.208616 53.739068 
L 135.328593 52.53678 
L 139.17596 50.108807 
L 142.395186 47.79524 
L 150.718062 41.615187 
L 155.115053 38.865528 
L 161.160915 34.998641 
L 165.243835 32.489506 
L 168.384543 30.829461 
L 172.624498 28.860622 
L 181.654033 24.938374 
L 185.18733 23.657807 
L 189.662838 22.295773 
L 196.336842 20.253365 
L 201.911599 18.545473 
L 206.779696 17.354211 
L 217.772173 14.914821 
L 223.739518 13.903132 
L 235.281619 12.243639 
L 238.971951 11.954467 
L 242.034141 11.92062 
L 243.76153 12.075072 
L 245.488919 12.478587 
L 247.451862 13.176945 
L 249.57184 14.169118 
L 251.691817 15.409355 
L 253.890313 16.959511 
L 257.73768 19.921597 
L 261.035423 22.774551 
L 266.374626 27.426116 
L 269.201263 29.547652 
L 272.891595 32.004775 
L 278.230798 35.604171 
L 283.255931 38.979361 
L 286.239603 40.70175 
L 290.244006 42.729893 
L 300.215753 47.470334 
L 303.749049 48.809798 
L 309.009735 50.52122 
L 323.299955 54.959326 
L 335.470198 57.995539 
L 339.710153 58.781127 
L 357.298117 61.5176 
L 361.852143 61.856711 
L 364.757298 61.872017 
L 365.935063 61.722619 
L 365.935063 61.722619 
" clip-path="url(#p80ebddf08b)" style="fill: none; stroke: #000000; stroke-width: 0.75; stroke-linecap: round"/>
   </g>
   <g id="matplotlib.axis_1">
    <g id="xtick_1">
     <g id="line2d_2">
      <path d="M 71.493707 67.484706 
L 71.493707 7.2 
" clip-path="url(#p80ebddf08b)" style="fill: none; stroke: #b0b0b0; stroke-width: 0.8; stroke-linecap: round"/>
     </g>
     <g id="line2d_3"/>
    </g>
    <g id="xtick_2">
     <g id="line2d_4">
      <path d="M 110.981585 67.484706 
L 110.981585 7.2 
" clip-path="url(#p80ebddf08b)" style="fill: none; stroke: #b0b0b0; stroke-width: 0.8; stroke-linecap: round"/>
     </g>
     <g id="line2d_5"/>
    </g>
    <g id="xtick_3">
     <g id="line2d_6">
      <path d="M 150.469462 67.484706 
L 150.469462 7.2 
" clip-path="url(#p80ebddf08b)" style="fill: none; stroke: #b0b0b0; stroke-width: 0.8; stroke-linecap: round"/>
     </g>
     <g id="line2d_7"/>
    </g>
    <g id="xtick_4">
     <g id="line2d_8">
      <path d="M 189.957339 67.484706 
L 189.957339 7.2 
" clip-path="url(#p80ebddf08b)" style="fill: none; stroke: #b0b0b0; stroke-width: 0.8; stroke-linecap: round"/>
     </g>
     <g id="line2d_9"/>
    </g>
    <g id="xtick_5">
     <g id="line2d_10">
      <path d="M 229.445216 67.484706 
L 229.445216 7.2 
" clip-path="url(#p80ebddf08b)" style="fill: none; stroke: #b0b0b0; stroke-width: 0.8; stroke-linecap: round"/>
     </g>
     <g id="line2d_11"/>
    </g>
    <g id="xtick_6">
     <g id="line2d_12">
      <path d="M 268.933093 67.484706 
L 268.933093 7.2 
" clip-path="url(#p80ebddf08b)" style="fill: none; stroke: #b0b0b0; stroke-width: 0.8; stroke-linecap: round"/>
     </g>
     <g id="line2d_13"/>
    </g>
    <g id="xtick_7">
     <g id="line2d_14">
      <path d="M 308.42097 67.484706 
L 308.42097 7.2 
" clip-path="url(#p80ebddf08b)" style="fill: none; stroke: #b0b0b0; stroke-width: 0.8; stroke-linecap: round"/>
     </g>
     <g id="line2d_15"/>
    </g>
    <g id="xtick_8">
     <g id="line2d_16">
      <path d="M 347.908848 67.484706 
L 347.908848 7.2 
" clip-path="url(#p80ebddf08b)" style="fill: none; stroke: #b0b0b0; stroke-width: 0.8; stroke-linecap: round"/>
     </g>
     <g id="line2d_17"/>
    </g>
   </g>
   <g id="matplotlib.axis_2">
    <g id="ytick_1">
     <g id="line2d_18">
      <path d="M 56.717344 57.87095 
L 381.797344 57.87095 
" clip-path="url(#p80ebddf08b)" style="fill: none; stroke: #b0b0b0; stroke-width: 0.8; stroke-linecap: round"/>
     </g>
     <g id="line2d_19"/>
     <g id="text_1">
      <!-- −5 -->
      <g style="fill: #262626" transform="translate(39.949375 61.290247) scale(0.09 -0.09)">
       <defs>
        <path id="DejaVuSerif-2212" d="M 678 2259 
L 4684 2259 
L 4684 1753 
L 678 1753 
L 678 2259 
z
" transform="scale(0.015625)"/>
        <path id="DejaVuSerif-35" d="M 3219 4666 
L 3219 4153 
L 1081 4153 
L 1081 2816 
Q 1244 2928 1461 2984 
Q 1678 3041 1947 3041 
Q 2703 3041 3140 2622 
Q 3578 2203 3578 1478 
Q 3578 738 3136 323 
Q 2694 -91 1894 -91 
Q 1572 -91 1234 -12 
Q 897 66 544 225 
L 544 1131 
L 897 1131 
Q 925 688 1179 453 
Q 1434 219 1894 219 
Q 2388 219 2653 544 
Q 2919 869 2919 1478 
Q 2919 2084 2655 2407 
Q 2391 2731 1894 2731 
Q 1613 2731 1398 2631 
Q 1184 2531 1019 2322 
L 750 2322 
L 750 4666 
L 3219 4666 
z
" transform="scale(0.015625)"/>
       </defs>
       <use xlink:href="#DejaVuSerif-2212"/>
       <use xlink:href="#DejaVuSerif-35" x="83.789062"/>
      </g>
     </g>
    </g>
    <g id="ytick_2">
     <g id="line2d_20">
      <path d="M 56.717344 37.476771 
L 381.797344 37.476771 
" clip-path="url(#p80ebddf08b)" style="fill: none; stroke: #b0b0b0; stroke-width: 0.8; stroke-linecap: round"/>
     </g>
     <g id="line2d_21"/>
     <g id="text_2">
      <!-- 0 -->
      <g style="fill: #262626" transform="translate(47.491094 40.896068) scale(0.09 -0.09)">
       <defs>
        <path id="DejaVuSerif-30" d="M 2034 219 
Q 2513 219 2750 744 
Q 2988 1269 2988 2328 
Q 2988 3391 2750 3916 
Q 2513 4441 2034 4441 
Q 1556 4441 1318 3916 
Q 1081 3391 1081 2328 
Q 1081 1269 1318 744 
Q 1556 219 2034 219 
z
M 2034 -91 
Q 1275 -91 848 546 
Q 422 1184 422 2328 
Q 422 3475 848 4112 
Q 1275 4750 2034 4750 
Q 2797 4750 3222 4112 
Q 3647 3475 3647 2328 
Q 3647 1184 3222 546 
Q 2797 -91 2034 -91 
z
" transform="scale(0.015625)"/>
       </defs>
       <use xlink:href="#DejaVuSerif-30"/>
      </g>
     </g>
    </g>
    <g id="ytick_3">
     <g id="line2d_22">
      <path d="M 56.717344 17.082592 
L 381.797344 17.082592 
" clip-path="url(#p80ebddf08b)" style="fill: none; stroke: #b0b0b0; stroke-width: 0.8; stroke-linecap: round"/>
     </g>
     <g id="line2d_23"/>
     <g id="text_3">
      <!-- 5 -->
      <g style="fill: #262626" transform="translate(47.491094 20.501889) scale(0.09 -0.09)">
       <use xlink:href="#DejaVuSerif-35"/>
      </g>
     </g>
    </g>
    <g id="text_4">
     <!-- $\beta$ $[deg]$ -->
     <g style="fill: #262626" transform="translate(34.059375 53.677353) rotate(-90) scale(0.09 -0.09)">
      <defs>
       <path id="DejaVuSans-Oblique-3b2" d="M 872 216 
L 572 -1331 
L -6 -1331 
L 928 3478 
Q 1206 4903 2538 4903 
Q 3888 4903 3659 3700 
Q 3503 2844 2894 2531 
Q 3713 2250 3553 1416 
Q 3272 -69 1759 -66 
Q 1097 -63 872 216 
z
M 1019 966 
Q 1259 422 1875 425 
Q 2775 425 2966 1406 
Q 3138 2288 1675 2219 
L 1778 2750 
Q 2909 2731 3106 3750 
Q 3241 4438 2509 4434 
Q 1691 4434 1503 3459 
L 1019 966 
z
" transform="scale(0.015625)"/>
       <path id="DejaVuSerif-20" transform="scale(0.015625)"/>
       <path id="DejaVuSans-5b" d="M 550 4863 
L 1875 4863 
L 1875 4416 
L 1125 4416 
L 1125 -397 
L 1875 -397 
L 1875 -844 
L 550 -844 
L 550 4863 
z
" transform="scale(0.015625)"/>
       <path id="DejaVuSans-Oblique-64" d="M 2675 525 
Q 2444 222 2128 65 
Q 1813 -91 1428 -91 
Q 903 -91 598 267 
Q 294 625 294 1247 
Q 294 1766 478 2236 
Q 663 2706 1013 3078 
Q 1244 3325 1534 3454 
Q 1825 3584 2144 3584 
Q 2481 3584 2739 3421 
Q 2997 3259 3138 2956 
L 3513 4863 
L 4091 4863 
L 3144 0 
L 2566 0 
L 2675 525 
z
M 891 1350 
Q 891 897 1095 644 
Q 1300 391 1663 391 
Q 1931 391 2161 520 
Q 2391 650 2566 903 
Q 2750 1166 2856 1509 
Q 2963 1853 2963 2188 
Q 2963 2622 2758 2865 
Q 2553 3109 2194 3109 
Q 1922 3109 1687 2981 
Q 1453 2853 1288 2613 
Q 1106 2353 998 2009 
Q 891 1666 891 1350 
z
" transform="scale(0.015625)"/>
       <path id="DejaVuSans-Oblique-65" d="M 3078 2063 
Q 3088 2113 3092 2166 
Q 3097 2219 3097 2272 
Q 3097 2653 2873 2875 
Q 2650 3097 2266 3097 
Q 1838 3097 1509 2826 
Q 1181 2556 1013 2059 
L 3078 2063 
z
M 3578 1613 
L 903 1613 
Q 884 1494 878 1425 
Q 872 1356 872 1306 
Q 872 872 1139 634 
Q 1406 397 1894 397 
Q 2269 397 2603 481 
Q 2938 566 3225 728 
L 3116 159 
Q 2806 34 2476 -28 
Q 2147 -91 1806 -91 
Q 1078 -91 686 257 
Q 294 606 294 1247 
Q 294 1794 489 2264 
Q 684 2734 1063 3103 
Q 1306 3334 1642 3459 
Q 1978 3584 2356 3584 
Q 2950 3584 3301 3228 
Q 3653 2872 3653 2272 
Q 3653 2128 3634 1964 
Q 3616 1800 3578 1613 
z
" transform="scale(0.015625)"/>
       <path id="DejaVuSans-Oblique-67" d="M 3816 3500 
L 3219 434 
Q 3047 -456 2561 -893 
Q 2075 -1331 1253 -1331 
Q 950 -1331 690 -1286 
Q 431 -1241 206 -1147 
L 313 -588 
Q 525 -725 762 -790 
Q 1000 -856 1269 -856 
Q 1816 -856 2167 -557 
Q 2519 -259 2631 300 
L 2681 563 
Q 2441 288 2122 144 
Q 1803 0 1434 0 
Q 903 0 598 351 
Q 294 703 294 1319 
Q 294 1803 478 2267 
Q 663 2731 997 3091 
Q 1219 3328 1514 3456 
Q 1809 3584 2131 3584 
Q 2484 3584 2746 3420 
Q 3009 3256 3138 2956 
L 3238 3500 
L 3816 3500 
z
M 2950 2216 
Q 2950 2641 2750 2872 
Q 2550 3103 2181 3103 
Q 1953 3103 1747 3012 
Q 1541 2922 1394 2759 
Q 1156 2491 1023 2127 
Q 891 1763 891 1375 
Q 891 944 1092 712 
Q 1294 481 1672 481 
Q 2219 481 2584 976 
Q 2950 1472 2950 2216 
z
" transform="scale(0.015625)"/>
       <path id="DejaVuSans-5d" d="M 1947 4863 
L 1947 -844 
L 622 -844 
L 622 -397 
L 1369 -397 
L 1369 4416 
L 622 4416 
L 622 4863 
L 1947 4863 
z
" transform="scale(0.015625)"/>
      </defs>
      <use xlink:href="#DejaVuSans-Oblique-3b2" transform="translate(0 0.390625)"/>
      <use xlink:href="#DejaVuSerif-20" transform="translate(63.818359 0.390625)"/>
      <use xlink:href="#DejaVuSans-5b" transform="translate(95.605469 0.390625)"/>
      <use xlink:href="#DejaVuSans-Oblique-64" transform="translate(134.619141 0.390625)"/>
      <use xlink:href="#DejaVuSans-Oblique-65" transform="translate(198.095703 0.390625)"/>
      <use xlink:href="#DejaVuSans-Oblique-67" transform="translate(259.619141 0.390625)"/>
      <use xlink:href="#DejaVuSans-5d" transform="translate(323.095703 0.390625)"/>
     </g>
    </g>
   </g>
   <g id="line2d_24">
    <path d="M 71.493707 37.476771 
L 73.31015 37.590885 
L 74.968641 37.90869 
L 76.627131 38.450347 
L 80.338992 40.045828 
L 101.978349 49.637463 
L 108.217433 52.03227 
L 114.930372 54.383608 
L 121.643311 56.487838 
L 126.539808 57.836089 
L 128.198299 58.032912 
L 129.85679 58.00048 
L 131.436305 57.742205 
L 133.01582 57.255287 
L 134.595335 56.533677 
L 136.253826 55.52311 
L 141.229298 52.104273 
L 157.024449 41.101315 
L 162.473776 37.666848 
L 167.844128 34.540584 
L 173.056527 31.740845 
L 179.058685 28.785961 
L 184.902891 26.161424 
L 191.062999 23.645271 
L 197.065157 21.440221 
L 203.462193 19.326198 
L 210.570011 17.227188 
L 217.993732 15.278415 
L 225.812331 13.45702 
L 233.946834 11.781514 
L 242.871094 10.175856 
L 244.845488 9.949366 
L 246.503979 9.998011 
L 248.083494 10.260955 
L 249.663009 10.743247 
L 251.242524 11.451553 
L 252.822039 12.395098 
L 254.796433 13.863447 
L 261.035518 18.805596 
L 270.354657 26.137068 
L 275.567057 29.979572 
L 280.937408 33.688371 
L 286.465711 37.216951 
L 291.67811 40.282838 
L 296.732559 43.021302 
L 303.129595 46.2019 
L 309.368679 49.014728 
L 315.291861 51.421702 
L 321.609921 53.745173 
L 327.77003 55.780785 
L 334.798872 57.860601 
L 342.222593 59.816944 
L 349.804266 61.60147 
L 357.859793 63.260769 
L 365.994295 64.744492 
L 365.994295 64.744492 
" clip-path="url(#p80ebddf08b)" style="fill: none; stroke: #0000ff; stroke-width: 0.75; stroke-linecap: round"/>
   </g>
   <g id="line2d_25">
    <path d="M 71.493707 37.476771 
L 73.31015 37.590773 
L 74.968641 37.907897 
L 76.627131 38.447751 
L 80.496943 40.101944 
L 98.503415 47.9538 
L 105.058403 50.441407 
L 110.902609 52.443225 
L 117.773499 54.547682 
L 124.486439 56.357718 
L 128.198299 57.185741 
L 129.85679 57.290396 
L 131.515281 57.171616 
L 133.094796 56.830108 
L 134.674311 56.260647 
L 136.332802 55.413926 
L 138.149244 54.221397 
L 144.151401 49.921308 
L 153.707468 43.061264 
L 159.314746 39.341825 
L 164.44817 36.20624 
L 169.344667 33.464227 
L 174.636043 30.7518 
L 180.243321 28.150857 
L 185.771624 25.827588 
L 191.378902 23.716286 
L 197.539011 21.649855 
L 203.541169 19.870278 
L 210.570011 18.01811 
L 217.83578 16.351596 
L 225.575404 14.815159 
L 233.788883 13.402036 
L 243.581876 11.95778 
L 246.977834 11.610165 
L 248.636324 11.705854 
L 250.215839 12.013634 
L 251.795355 12.5433 
L 253.453845 13.335999 
L 255.112336 14.380411 
L 257.323657 16.083378 
L 264.747378 22.085953 
L 272.092123 27.897133 
L 277.304523 31.735679 
L 282.043068 34.973315 
L 286.860589 38.003697 
L 291.915038 40.916199 
L 297.048462 43.607836 
L 302.734716 46.323336 
L 308.263019 48.711488 
L 313.870297 50.878493 
L 319.556552 52.848431 
L 325.953588 54.829746 
L 332.508575 56.62116 
L 339.616393 58.33234 
L 346.645235 59.80059 
L 354.542811 61.235481 
L 363.86195 62.674305 
L 367.02098 63.113286 
L 367.02098 63.113286 
" clip-path="url(#p80ebddf08b)" style="fill: none; stroke: #008000; stroke-width: 0.75; stroke-linecap: round"/>
   </g>
   <g id="line2d_26">
    <path d="M 71.493707 37.476771 
L 73.468101 37.582868 
L 75.205568 37.887138 
L 76.864059 38.403767 
L 80.891822 40.064296 
L 89.737107 44.041888 
L 96.292094 46.848877 
L 101.978349 49.040831 
L 107.427676 50.901133 
L 112.955978 52.556868 
L 118.484281 53.98905 
L 124.64439 55.356073 
L 126.381857 55.593444 
L 128.040347 55.610173 
L 129.698838 55.407395 
L 131.278353 54.990349 
L 132.857869 54.340911 
L 134.437384 53.446018 
L 136.411777 52.031731 
L 141.38725 48.184593 
L 150.390486 41.215888 
L 155.129031 37.854695 
L 159.551673 34.988516 
L 163.89534 32.438028 
L 168.160031 30.18723 
L 172.582673 28.101406 
L 177.163267 26.188095 
L 181.901812 24.453983 
L 187.035236 22.818458 
L 192.405587 21.342436 
L 198.249793 19.967585 
L 204.488878 18.731725 
L 211.359768 17.600804 
L 219.257344 16.560028 
L 227.707749 15.673699 
L 236.868937 14.940059 
L 238.685379 14.91973 
L 240.422846 15.116621 
L 242.160313 15.545002 
L 243.818803 16.190796 
L 245.477294 17.082588 
L 247.135785 18.228543 
L 249.741985 20.378712 
L 265.300209 33.434277 
L 269.643875 36.612795 
L 273.82959 39.401525 
L 278.015305 41.922998 
L 282.279996 44.230727 
L 286.702638 46.36938 
L 291.204256 48.29665 
L 296.021777 50.113685 
L 300.918274 51.724208 
L 306.130674 53.202086 
L 311.816928 54.581953 
L 318.371915 55.926414 
L 325.005879 57.059656 
L 332.113697 58.038713 
L 340.485127 58.956049 
L 350.041193 59.787481 
L 351.620708 59.904709 
L 351.620708 59.904709 
" clip-path="url(#p80ebddf08b)" style="fill: none; stroke: #ff0000; stroke-width: 0.75; stroke-linecap: round"/>
   </g>
   <g id="patch_3">
    <path d="M 56.717344 67.484706 
L 56.717344 7.2 
" style="fill: none; stroke: #000000; stroke-linejoin: miter; stroke-linecap: square"/>
   </g>
   <g id="patch_4">
    <path d="M 56.717344 67.484706 
L 381.797344 67.484706 
" style="fill: none; stroke: #000000; stroke-linejoin: miter; stroke-linecap: square"/>
   </g>
  </g>
  <g id="axes_2">
   <g id="patch_5">
    <path d="M 56.717344 127.769412 
L 381.797344 127.769412 
L 381.797344 67.484706 
L 56.717344 67.484706 
z
" style="fill: #ffffff"/>
   </g>
   <g id="line2d_27">
    <path d="M 71.493707 97.956138 
L 75.184039 98.13575 
L 77.932158 98.491823 
L 80.994348 99.12007 
L 84.370609 100.036845 
L 87.903906 101.240745 
L 91.986826 102.867612 
L 97.875653 105.480853 
L 103.214856 108.100644 
L 110.438484 111.92207 
L 116.484347 115.32517 
L 129.518284 122.751073 
L 131.873815 123.724151 
L 133.993793 124.369125 
L 136.11377 124.7816 
L 138.390783 124.996984 
L 140.90335 125.008525 
L 143.651469 124.798008 
L 146.792177 124.331179 
L 150.325473 123.580054 
L 154.094322 122.552398 
L 158.25576 121.173098 
L 162.888304 119.390285 
L 168.14899 117.13027 
L 174.665959 114.071099 
L 183.695493 109.578489 
L 195.237595 103.566264 
L 202.853811 99.302975 
L 211.019651 94.545811 
L 240.542305 76.851484 
L 245.331884 74.055539 
L 248.315556 72.578824 
L 250.671087 71.647022 
L 252.791065 71.039276 
L 254.911043 70.659932 
L 257.266574 70.468673 
L 259.857658 70.488326 
L 262.762812 70.741065 
L 266.217591 71.271146 
L 270.143476 72.102892 
L 274.304913 73.19318 
L 278.309316 74.49406 
L 282.94186 76.245969 
L 288.830687 78.71377 
L 294.405443 81.318491 
L 306.889757 87.499233 
L 316.468916 92.502317 
L 327.461393 98.57589 
L 339.788671 105.664999 
L 349.210794 111.184786 
L 365.935063 120.959934 
L 365.935063 120.959934 
" clip-path="url(#pc299320b51)" style="fill: none; stroke: #000000; stroke-width: 0.75; stroke-linecap: round"/>
   </g>
   <g id="line2d_28">
    <path d="M 71.493707 98.275808 
L 72.121849 101.009471 
L 73.45665 106.483584 
L 76.675875 119.548002 
L 76.911428 119.492023 
L 77.304017 119.438588 
L 80.758795 119.436891 
L 91.044613 119.436891 
L 123.86501 119.438588 
L 124.022045 118.888971 
L 124.650187 116.21468 
L 134.543416 75.995983 
L 134.936005 76.074015 
L 137.762642 76.086737 
L 242.269694 76.085041 
L 242.426729 76.655862 
L 242.897835 78.685541 
L 244.78226 86.431063 
L 244.860778 86.431063 
L 246.82372 94.500587 
L 252.9481 119.521709 
L 253.105136 119.53019 
L 253.65476 119.445373 
L 257.345091 119.436891 
L 267.630909 119.436891 
L 363.65805 119.437739 
L 363.815086 118.897453 
L 364.286192 116.816883 
L 365.935063 110.073055 
L 365.935063 110.073055 
" clip-path="url(#pc299320b51)" style="fill: none; stroke-dasharray: 2.775,1.2; stroke-dashoffset: 0; stroke: #808080; stroke-width: 0.75"/>
   </g>
   <g id="matplotlib.axis_3">
    <g id="xtick_9">
     <g id="line2d_29">
      <path d="M 71.493707 127.769412 
L 71.493707 67.484706 
" clip-path="url(#pc299320b51)" style="fill: none; stroke: #b0b0b0; stroke-width: 0.8; stroke-linecap: round"/>
     </g>
     <g id="line2d_30"/>
    </g>
    <g id="xtick_10">
     <g id="line2d_31">
      <path d="M 110.981585 127.769412 
L 110.981585 67.484706 
" clip-path="url(#pc299320b51)" style="fill: none; stroke: #b0b0b0; stroke-width: 0.8; stroke-linecap: round"/>
     </g>
     <g id="line2d_32"/>
    </g>
    <g id="xtick_11">
     <g id="line2d_33">
      <path d="M 150.469462 127.769412 
L 150.469462 67.484706 
" clip-path="url(#pc299320b51)" style="fill: none; stroke: #b0b0b0; stroke-width: 0.8; stroke-linecap: round"/>
     </g>
     <g id="line2d_34"/>
    </g>
    <g id="xtick_12">
     <g id="line2d_35">
      <path d="M 189.957339 127.769412 
L 189.957339 67.484706 
" clip-path="url(#pc299320b51)" style="fill: none; stroke: #b0b0b0; stroke-width: 0.8; stroke-linecap: round"/>
     </g>
     <g id="line2d_36"/>
    </g>
    <g id="xtick_13">
     <g id="line2d_37">
      <path d="M 229.445216 127.769412 
L 229.445216 67.484706 
" clip-path="url(#pc299320b51)" style="fill: none; stroke: #b0b0b0; stroke-width: 0.8; stroke-linecap: round"/>
     </g>
     <g id="line2d_38"/>
    </g>
    <g id="xtick_14">
     <g id="line2d_39">
      <path d="M 268.933093 127.769412 
L 268.933093 67.484706 
" clip-path="url(#pc299320b51)" style="fill: none; stroke: #b0b0b0; stroke-width: 0.8; stroke-linecap: round"/>
     </g>
     <g id="line2d_40"/>
    </g>
    <g id="xtick_15">
     <g id="line2d_41">
      <path d="M 308.42097 127.769412 
L 308.42097 67.484706 
" clip-path="url(#pc299320b51)" style="fill: none; stroke: #b0b0b0; stroke-width: 0.8; stroke-linecap: round"/>
     </g>
     <g id="line2d_42"/>
    </g>
    <g id="xtick_16">
     <g id="line2d_43">
      <path d="M 347.908848 127.769412 
L 347.908848 67.484706 
" clip-path="url(#pc299320b51)" style="fill: none; stroke: #b0b0b0; stroke-width: 0.8; stroke-linecap: round"/>
     </g>
     <g id="line2d_44"/>
    </g>
   </g>
   <g id="matplotlib.axis_4">
    <g id="ytick_4">
     <g id="line2d_45">
      <path d="M 56.717344 119.437382 
L 381.797344 119.437382 
" clip-path="url(#pc299320b51)" style="fill: none; stroke: #b0b0b0; stroke-width: 0.8; stroke-linecap: round"/>
     </g>
     <g id="line2d_46"/>
     <g id="text_5">
      <!-- −10 -->
      <g style="fill: #262626" transform="translate(34.223125 122.856679) scale(0.09 -0.09)">
       <defs>
        <path id="DejaVuSerif-31" d="M 909 0 
L 909 331 
L 1722 331 
L 1722 4213 
L 781 3603 
L 781 4013 
L 1919 4750 
L 2350 4750 
L 2350 331 
L 3163 331 
L 3163 0 
L 909 0 
z
" transform="scale(0.015625)"/>
       </defs>
       <use xlink:href="#DejaVuSerif-2212"/>
       <use xlink:href="#DejaVuSerif-31" x="83.789062"/>
       <use xlink:href="#DejaVuSerif-30" x="147.412109"/>
      </g>
     </g>
    </g>
    <g id="ytick_5">
     <g id="line2d_47">
      <path d="M 56.717344 97.761814 
L 381.797344 97.761814 
" clip-path="url(#pc299320b51)" style="fill: none; stroke: #b0b0b0; stroke-width: 0.8; stroke-linecap: round"/>
     </g>
     <g id="line2d_48"/>
     <g id="text_6">
      <!-- 0 -->
      <g style="fill: #262626" transform="translate(47.491094 101.181111) scale(0.09 -0.09)">
       <use xlink:href="#DejaVuSerif-30"/>
      </g>
     </g>
    </g>
    <g id="ytick_6">
     <g id="line2d_49">
      <path d="M 56.717344 76.086247 
L 381.797344 76.086247 
" clip-path="url(#pc299320b51)" style="fill: none; stroke: #b0b0b0; stroke-width: 0.8; stroke-linecap: round"/>
     </g>
     <g id="line2d_50"/>
     <g id="text_7">
      <!-- 10 -->
      <g style="fill: #262626" transform="translate(41.764844 79.505544) scale(0.09 -0.09)">
       <use xlink:href="#DejaVuSerif-31"/>
       <use xlink:href="#DejaVuSerif-30" x="63.623047"/>
      </g>
     </g>
    </g>
    <g id="text_8">
     <!-- $\psi$ $[deg]$ -->
     <g style="fill: #262626" transform="translate(28.333125 114.052059) rotate(-90) scale(0.09 -0.09)">
      <defs>
       <path id="DejaVuSans-Oblique-3c8" d="M 1591 -78 
Q 891 38 616 341 
Q 278 713 425 1472 
L 819 3500 
L 1400 3500 
L 1009 1494 
Q 900 922 1119 684 
Q 1313 478 1691 434 
L 2284 3500 
L 2856 3500 
L 2263 438 
Q 2681 481 2928 688 
Q 3247 950 3353 1497 
L 3741 3500 
L 4322 3500 
L 3928 1475 
Q 3775 688 3300 344 
Q 2872 34 2163 -75 
L 1919 -1331 
L 1347 -1331 
L 1591 -78 
z
" transform="scale(0.015625)"/>
      </defs>
      <use xlink:href="#DejaVuSans-Oblique-3c8" transform="translate(0 0.015625)"/>
      <use xlink:href="#DejaVuSerif-20" transform="translate(65.966797 0.015625)"/>
      <use xlink:href="#DejaVuSans-5b" transform="translate(97.753906 0.015625)"/>
      <use xlink:href="#DejaVuSans-Oblique-64" transform="translate(136.767578 0.015625)"/>
      <use xlink:href="#DejaVuSans-Oblique-65" transform="translate(200.244141 0.015625)"/>
      <use xlink:href="#DejaVuSans-Oblique-67" transform="translate(261.767578 0.015625)"/>
      <use xlink:href="#DejaVuSans-5d" transform="translate(325.244141 0.015625)"/>
     </g>
    </g>
   </g>
   <g id="line2d_51">
    <path d="M 71.493707 97.761814 
L 75.837374 97.869435 
L 78.364598 98.164424 
L 81.128749 98.721512 
L 84.28778 99.591039 
L 87.99964 100.85059 
L 92.343307 102.565115 
L 97.555706 104.867539 
L 103.794791 107.874457 
L 111.455439 111.821106 
L 120.458675 116.721507 
L 131.120402 122.531436 
L 133.489675 123.49017 
L 135.62202 124.11526 
L 137.596414 124.464082 
L 139.807735 124.624669 
L 142.255983 124.576052 
L 145.020135 124.294423 
L 148.100189 123.755689 
L 151.654098 122.9032 
L 155.760837 121.682885 
L 160.499383 120.03721 
L 166.106661 117.844768 
L 172.503697 115.1012 
L 179.769467 111.738995 
L 187.746018 107.798053 
L 196.591302 103.171844 
L 207.016102 97.469062 
L 218.151683 91.127453 
L 230.392925 83.89658 
L 245.082415 74.938705 
L 248.478373 73.010129 
L 251.005597 71.828484 
L 253.137942 71.069423 
L 255.112336 70.596864 
L 257.244682 70.315052 
L 259.613954 70.225268 
L 262.29913 70.349538 
L 265.300209 70.713577 
L 268.696166 71.349954 
L 272.565978 72.304962 
L 277.067596 73.650705 
L 282.20102 75.423361 
L 288.045226 77.67851 
L 294.679189 80.48172 
L 302.181886 83.898401 
L 310.079461 87.745357 
L 319.082697 92.387262 
L 329.033642 97.776768 
L 340.327175 104.141781 
L 351.699684 110.800043 
L 365.994295 119.427868 
L 365.994295 119.427868 
" clip-path="url(#pc299320b51)" style="fill: none; stroke: #0000ff; stroke-width: 0.75; stroke-linecap: round"/>
   </g>
   <g id="line2d_52">
    <path d="M 71.493707 97.761814 
L 75.837374 97.869266 
L 78.364598 98.163298 
L 81.128749 98.717513 
L 84.366755 99.603358 
L 88.157592 100.882047 
L 92.738185 102.673038 
L 98.345464 105.114301 
L 105.374306 108.428941 
L 114.21959 112.862543 
L 125.513123 118.7865 
L 131.594256 121.91146 
L 134.121481 122.93753 
L 136.253826 123.575813 
L 138.22822 123.94266 
L 140.360565 124.103733 
L 142.729838 124.051957 
L 145.415013 123.760134 
L 148.416092 123.205179 
L 151.891025 122.329778 
L 155.997765 121.053768 
L 160.894261 119.288852 
L 166.738467 116.938059 
L 173.846285 113.830515 
L 182.217715 109.917939 
L 191.931733 105.11353 
L 203.541169 99.118171 
L 216.414217 92.228473 
L 232.999125 83.08126 
L 251.3215 72.961163 
L 253.690773 72.035528 
L 255.744142 71.463902 
L 257.718536 71.141571 
L 259.929857 71.009012 
L 262.378106 71.086972 
L 265.142257 71.400219 
L 268.301287 71.986951 
L 271.934172 72.893524 
L 276.198863 74.197585 
L 281.253311 75.985377 
L 287.255468 78.350624 
L 294.442262 81.427062 
L 302.813692 85.258588 
L 311.816928 89.628931 
L 322.636606 95.13188 
L 335.193751 101.780524 
L 350.120169 109.941088 
L 367.02098 119.395189 
L 367.02098 119.395189 
" clip-path="url(#pc299320b51)" style="fill: none; stroke: #008000; stroke-width: 0.75; stroke-linecap: round"/>
   </g>
   <g id="line2d_53">
    <path d="M 71.493707 97.761814 
L 75.758398 97.872217 
L 78.285622 98.173992 
L 80.970798 98.72474 
L 84.050852 99.586135 
L 87.683737 100.84186 
L 91.948428 102.560207 
L 97.081852 104.876292 
L 103.478888 108.0191 
L 111.455439 112.196794 
L 121.801263 117.880144 
L 129.461911 122.043436 
L 131.910159 123.076373 
L 134.042505 123.735255 
L 136.016899 124.109872 
L 138.070268 124.264829 
L 140.360565 124.205391 
L 142.887789 123.910717 
L 145.730916 123.352343 
L 149.047898 122.466003 
L 152.838734 121.216869 
L 157.261377 119.520407 
L 162.473776 117.279108 
L 168.791837 114.311484 
L 176.373509 110.495267 
L 185.8506 105.463653 
L 197.223108 99.166751 
L 211.991574 90.721131 
L 233.630931 78.068517 
L 241.528506 73.545619 
L 244.055731 72.39148 
L 246.188076 71.657872 
L 248.16247 71.211119 
L 250.215839 70.985194 
L 252.427161 70.969683 
L 254.954385 71.18383 
L 257.718536 71.643412 
L 260.956542 72.415476 
L 264.668402 73.538577 
L 269.012069 75.093294 
L 274.066517 77.146516 
L 279.989699 79.798384 
L 287.018541 83.197004 
L 295.468947 87.540863 
L 305.893746 93.16021 
L 318.687818 100.316195 
L 335.825557 110.178575 
L 351.620708 119.407264 
L 351.620708 119.407264 
" clip-path="url(#pc299320b51)" style="fill: none; stroke: #ff0000; stroke-width: 0.75; stroke-linecap: round"/>
   </g>
   <g id="patch_6">
    <path d="M 56.717344 127.769412 
L 56.717344 67.484706 
" style="fill: none; stroke: #000000; stroke-linejoin: miter; stroke-linecap: square"/>
   </g>
   <g id="patch_7">
    <path d="M 56.717344 127.769412 
L 381.797344 127.769412 
" style="fill: none; stroke: #000000; stroke-linejoin: miter; stroke-linecap: square"/>
   </g>
  </g>
  <g id="axes_3">
   <g id="patch_8">
    <path d="M 56.717344 188.054118 
L 381.797344 188.054118 
L 381.797344 127.769412 
L 56.717344 127.769412 
z
" style="fill: #ffffff"/>
   </g>
   <g id="line2d_54">
    <path d="M 71.493707 158.879044 
L 72.357402 159.313987 
L 73.378132 160.10304 
L 74.634415 161.398184 
L 76.283287 163.45241 
L 78.481782 166.204121 
L 80.130654 167.852061 
L 87.040211 173.92483 
L 90.573507 176.192696 
L 92.065343 176.905937 
L 93.635697 177.407978 
L 96.462334 178.231487 
L 101.408949 180.204102 
L 105.648905 181.515804 
L 107.219259 181.717746 
L 109.88886 181.984874 
L 111.61625 182.579826 
L 113.579192 183.188769 
L 117.03397 183.893111 
L 119.310984 184.164443 
L 122.530209 184.32521 
L 124.493151 184.188842 
L 125.356846 183.835385 
L 126.220541 183.216195 
L 127.162753 182.236185 
L 128.262001 180.729081 
L 129.596802 178.492046 
L 131.167156 175.40964 
L 133.130098 171.037747 
L 136.349323 163.841442 
L 138.312266 160.236786 
L 139.804102 157.898875 
L 142.395186 154.363759 
L 144.044058 152.48536 
L 145.928482 150.667068 
L 149.304743 147.894904 
L 155.350606 143.68928 
L 161.160915 140.538641 
L 166.421601 138.485236 
L 169.797861 137.450574 
L 173.409675 136.610404 
L 175.451136 136.375095 
L 177.649631 136.126284 
L 180.790339 135.517634 
L 184.1666 135.230681 
L 187.778414 134.988768 
L 190.448015 135.002337 
L 191.625781 134.736277 
L 195.708701 133.681721 
L 199.320515 132.889683 
L 201.361975 132.760817 
L 204.26713 132.614617 
L 205.837483 132.140495 
L 207.250802 131.861799 
L 209.841886 131.622476 
L 213.767771 131.34477 
L 215.887748 131.52516 
L 218.086244 131.738303 
L 221.305469 131.454459 
L 226.958743 131.18695 
L 228.529097 131.289409 
L 231.51277 131.602873 
L 233.004606 131.356112 
L 236.066796 130.866572 
L 238.65788 130.719945 
L 240.385269 130.813173 
L 241.563035 131.09637 
L 242.662282 131.579732 
L 243.525977 132.216801 
L 244.703742 133.396952 
L 246.588167 135.623591 
L 248.001486 137.664615 
L 249.257769 139.927524 
L 250.90664 143.431201 
L 255.382149 153.196783 
L 257.266574 156.459639 
L 259.150998 159.251415 
L 260.956905 161.578676 
L 262.448742 163.112709 
L 264.961308 165.28623 
L 267.866462 167.354117 
L 269.122746 168.026911 
L 271.635312 169.234552 
L 273.127148 170.298579 
L 275.561197 172.030717 
L 278.85894 174.04973 
L 280.664847 174.932399 
L 282.94186 175.780809 
L 287.181815 177.12502 
L 291.029182 178.684872 
L 294.091373 179.548421 
L 295.661727 179.819814 
L 297.153563 179.821768 
L 299.509094 179.77736 
L 311.757854 181.121056 
L 313.092655 181.338069 
L 316.547433 182.121074 
L 319.923694 182.4776 
L 324.320685 182.7995 
L 326.597698 182.99379 
L 330.209512 183.532457 
L 333.978362 183.82795 
L 336.726481 183.71489 
L 340.102742 183.536409 
L 342.53679 183.959615 
L 344.813804 184.252886 
L 348.190064 184.366607 
L 349.838936 184.193998 
L 353.058162 183.809729 
L 354.392962 183.942804 
L 358.397365 184.353373 
L 360.988449 184.405663 
L 362.480285 184.248873 
L 363.972121 183.84734 
L 364.835816 183.398841 
L 365.620993 182.70518 
L 365.935063 182.361031 
L 365.935063 182.361031 
" clip-path="url(#p111056b2fc)" style="fill: none; stroke: #000000; stroke-width: 0.75; stroke-linecap: round"/>
   </g>
   <g id="matplotlib.axis_5">
    <g id="xtick_17">
     <g id="line2d_55">
      <path d="M 71.493707 188.054118 
L 71.493707 127.769412 
" clip-path="url(#p111056b2fc)" style="fill: none; stroke: #b0b0b0; stroke-width: 0.8; stroke-linecap: round"/>
     </g>
     <g id="line2d_56"/>
     <g id="text_9">
      <!-- 0 -->
      <g style="fill: #262626" transform="translate(68.630582 198.392711) scale(0.09 -0.09)">
       <use xlink:href="#DejaVuSerif-30"/>
      </g>
     </g>
    </g>
    <g id="xtick_18">
     <g id="line2d_57">
      <path d="M 110.981585 188.054118 
L 110.981585 127.769412 
" clip-path="url(#p111056b2fc)" style="fill: none; stroke: #b0b0b0; stroke-width: 0.8; stroke-linecap: round"/>
     </g>
     <g id="line2d_58"/>
     <g id="text_10">
      <!-- 5 -->
      <g style="fill: #262626" transform="translate(108.11846 198.392711) scale(0.09 -0.09)">
       <use xlink:href="#DejaVuSerif-35"/>
      </g>
     </g>
    </g>
    <g id="xtick_19">
     <g id="line2d_59">
      <path d="M 150.469462 188.054118 
L 150.469462 127.769412 
" clip-path="url(#p111056b2fc)" style="fill: none; stroke: #b0b0b0; stroke-width: 0.8; stroke-linecap: round"/>
     </g>
     <g id="line2d_60"/>
     <g id="text_11">
      <!-- 10 -->
      <g style="fill: #262626" transform="translate(144.743212 198.392711) scale(0.09 -0.09)">
       <use xlink:href="#DejaVuSerif-31"/>
       <use xlink:href="#DejaVuSerif-30" x="63.623047"/>
      </g>
     </g>
    </g>
    <g id="xtick_20">
     <g id="line2d_61">
      <path d="M 189.957339 188.054118 
L 189.957339 127.769412 
" clip-path="url(#p111056b2fc)" style="fill: none; stroke: #b0b0b0; stroke-width: 0.8; stroke-linecap: round"/>
     </g>
     <g id="line2d_62"/>
     <g id="text_12">
      <!-- 15 -->
      <g style="fill: #262626" transform="translate(184.231089 198.392711) scale(0.09 -0.09)">
       <use xlink:href="#DejaVuSerif-31"/>
       <use xlink:href="#DejaVuSerif-35" x="63.623047"/>
      </g>
     </g>
    </g>
    <g id="xtick_21">
     <g id="line2d_63">
      <path d="M 229.445216 188.054118 
L 229.445216 127.769412 
" clip-path="url(#p111056b2fc)" style="fill: none; stroke: #b0b0b0; stroke-width: 0.8; stroke-linecap: round"/>
     </g>
     <g id="line2d_64"/>
     <g id="text_13">
      <!-- 20 -->
      <g style="fill: #262626" transform="translate(223.718966 198.392711) scale(0.09 -0.09)">
       <defs>
        <path id="DejaVuSerif-32" d="M 819 3553 
L 469 3553 
L 469 4384 
Q 803 4563 1142 4656 
Q 1481 4750 1806 4750 
Q 2534 4750 2956 4397 
Q 3378 4044 3378 3438 
Q 3378 2753 2422 1800 
Q 2347 1728 2309 1691 
L 1131 513 
L 3078 513 
L 3078 1088 
L 3444 1088 
L 3444 0 
L 434 0 
L 434 341 
L 1850 1753 
Q 2319 2222 2519 2614 
Q 2719 3006 2719 3438 
Q 2719 3909 2473 4175 
Q 2228 4441 1797 4441 
Q 1350 4441 1106 4219 
Q 863 3997 819 3553 
z
" transform="scale(0.015625)"/>
       </defs>
       <use xlink:href="#DejaVuSerif-32"/>
       <use xlink:href="#DejaVuSerif-30" x="63.623047"/>
      </g>
     </g>
    </g>
    <g id="xtick_22">
     <g id="line2d_65">
      <path d="M 268.933093 188.054118 
L 268.933093 127.769412 
" clip-path="url(#p111056b2fc)" style="fill: none; stroke: #b0b0b0; stroke-width: 0.8; stroke-linecap: round"/>
     </g>
     <g id="line2d_66"/>
     <g id="text_14">
      <!-- 25 -->
      <g style="fill: #262626" transform="translate(263.206843 198.392711) scale(0.09 -0.09)">
       <use xlink:href="#DejaVuSerif-32"/>
       <use xlink:href="#DejaVuSerif-35" x="63.623047"/>
      </g>
     </g>
    </g>
    <g id="xtick_23">
     <g id="line2d_67">
      <path d="M 308.42097 188.054118 
L 308.42097 127.769412 
" clip-path="url(#p111056b2fc)" style="fill: none; stroke: #b0b0b0; stroke-width: 0.8; stroke-linecap: round"/>
     </g>
     <g id="line2d_68"/>
     <g id="text_15">
      <!-- 30 -->
      <g style="fill: #262626" transform="translate(302.69472 198.392711) scale(0.09 -0.09)">
       <defs>
        <path id="DejaVuSerif-33" d="M 622 4469 
Q 988 4606 1323 4678 
Q 1659 4750 1953 4750 
Q 2638 4750 3022 4454 
Q 3406 4159 3406 3634 
Q 3406 3213 3140 2930 
Q 2875 2647 2388 2547 
Q 2963 2466 3280 2130 
Q 3597 1794 3597 1259 
Q 3597 606 3158 257 
Q 2719 -91 1894 -91 
Q 1528 -91 1179 -12 
Q 831 66 488 225 
L 488 1131 
L 838 1131 
Q 869 681 1141 450 
Q 1413 219 1906 219 
Q 2384 219 2661 495 
Q 2938 772 2938 1253 
Q 2938 1803 2653 2086 
Q 2369 2369 1819 2369 
L 1522 2369 
L 1522 2688 
L 1678 2688 
Q 2225 2688 2498 2914 
Q 2772 3141 2772 3597 
Q 2772 4006 2547 4223 
Q 2322 4441 1900 4441 
Q 1478 4441 1245 4241 
Q 1013 4041 972 3647 
L 622 3647 
L 622 4469 
z
" transform="scale(0.015625)"/>
       </defs>
       <use xlink:href="#DejaVuSerif-33"/>
       <use xlink:href="#DejaVuSerif-30" x="63.623047"/>
      </g>
     </g>
    </g>
    <g id="xtick_24">
     <g id="line2d_69">
      <path d="M 347.908848 188.054118 
L 347.908848 127.769412 
" clip-path="url(#p111056b2fc)" style="fill: none; stroke: #b0b0b0; stroke-width: 0.8; stroke-linecap: round"/>
     </g>
     <g id="line2d_70"/>
     <g id="text_16">
      <!-- 35 -->
      <g style="fill: #262626" transform="translate(342.182598 198.392711) scale(0.09 -0.09)">
       <use xlink:href="#DejaVuSerif-33"/>
       <use xlink:href="#DejaVuSerif-35" x="63.623047"/>
      </g>
     </g>
    </g>
    <g id="text_17">
     <!-- Time [s] -->
     <g style="fill: #262626" transform="translate(200.635078 211.103024) scale(0.09 -0.09)">
      <defs>
       <path id="DejaVuSerif-54" d="M 1222 0 
L 1222 331 
L 1819 331 
L 1819 4294 
L 447 4294 
L 447 3566 
L 63 3566 
L 63 4666 
L 4206 4666 
L 4206 3566 
L 3822 3566 
L 3822 4294 
L 2450 4294 
L 2450 331 
L 3047 331 
L 3047 0 
L 1222 0 
z
" transform="scale(0.015625)"/>
       <path id="DejaVuSerif-69" d="M 622 4353 
Q 622 4497 726 4603 
Q 831 4709 978 4709 
Q 1122 4709 1226 4603 
Q 1331 4497 1331 4353 
Q 1331 4206 1228 4103 
Q 1125 4000 978 4000 
Q 831 4000 726 4103 
Q 622 4206 622 4353 
z
M 1356 331 
L 1900 331 
L 1900 0 
L 231 0 
L 231 331 
L 781 331 
L 781 2988 
L 231 2988 
L 231 3322 
L 1356 3322 
L 1356 331 
z
" transform="scale(0.015625)"/>
       <path id="DejaVuSerif-6d" d="M 3316 2675 
Q 3481 3041 3739 3227 
Q 3997 3413 4341 3413 
Q 4863 3413 5119 3089 
Q 5375 2766 5375 2113 
L 5375 331 
L 5894 331 
L 5894 0 
L 4300 0 
L 4300 331 
L 4800 331 
L 4800 2047 
Q 4800 2556 4650 2772 
Q 4500 2988 4153 2988 
Q 3769 2988 3567 2697 
Q 3366 2406 3366 1850 
L 3366 331 
L 3866 331 
L 3866 0 
L 2291 0 
L 2291 331 
L 2791 331 
L 2791 2069 
Q 2791 2566 2641 2777 
Q 2491 2988 2144 2988 
Q 1759 2988 1557 2697 
Q 1356 2406 1356 1850 
L 1356 331 
L 1856 331 
L 1856 0 
L 263 0 
L 263 331 
L 781 331 
L 781 2994 
L 231 2994 
L 231 3322 
L 1356 3322 
L 1356 2731 
Q 1516 3063 1762 3238 
Q 2009 3413 2322 3413 
Q 2709 3413 2968 3220 
Q 3228 3028 3316 2675 
z
" transform="scale(0.015625)"/>
       <path id="DejaVuSerif-65" d="M 3469 1600 
L 991 1600 
L 991 1575 
Q 991 903 1244 561 
Q 1497 219 1991 219 
Q 2369 219 2611 417 
Q 2853 616 2950 1006 
L 3413 1006 
Q 3275 459 2904 184 
Q 2534 -91 1931 -91 
Q 1203 -91 761 389 
Q 319 869 319 1663 
Q 319 2450 753 2931 
Q 1188 3413 1894 3413 
Q 2647 3413 3050 2948 
Q 3453 2484 3469 1600 
z
M 2791 1931 
Q 2772 2513 2545 2808 
Q 2319 3103 1894 3103 
Q 1497 3103 1269 2806 
Q 1041 2509 991 1931 
L 2791 1931 
z
" transform="scale(0.015625)"/>
       <path id="DejaVuSerif-5b" d="M 550 4863 
L 2003 4863 
L 2003 4531 
L 1147 4531 
L 1147 -513 
L 2003 -513 
L 2003 -844 
L 550 -844 
L 550 4863 
z
" transform="scale(0.015625)"/>
       <path id="DejaVuSerif-73" d="M 359 184 
L 359 959 
L 691 959 
Q 703 588 923 403 
Q 1144 219 1575 219 
Q 1963 219 2166 364 
Q 2369 509 2369 788 
Q 2369 1006 2220 1140 
Q 2072 1275 1594 1428 
L 1178 1569 
Q 750 1706 558 1912 
Q 366 2119 366 2438 
Q 366 2894 700 3153 
Q 1034 3413 1625 3413 
Q 1888 3413 2178 3344 
Q 2469 3275 2778 3144 
L 2778 2419 
L 2447 2419 
Q 2434 2741 2221 2922 
Q 2009 3103 1644 3103 
Q 1281 3103 1095 2975 
Q 909 2847 909 2591 
Q 909 2381 1050 2254 
Q 1191 2128 1613 1997 
L 2069 1856 
Q 2541 1709 2748 1489 
Q 2956 1269 2956 922 
Q 2956 450 2595 179 
Q 2234 -91 1600 -91 
Q 1278 -91 972 -22 
Q 666 47 359 184 
z
" transform="scale(0.015625)"/>
       <path id="DejaVuSerif-5d" d="M 1947 4863 
L 1947 -844 
L 494 -844 
L 494 -513 
L 1350 -513 
L 1350 4531 
L 494 4531 
L 494 4863 
L 1947 4863 
z
" transform="scale(0.015625)"/>
      </defs>
      <use xlink:href="#DejaVuSerif-54"/>
      <use xlink:href="#DejaVuSerif-69" x="66.699219"/>
      <use xlink:href="#DejaVuSerif-6d" x="98.681641"/>
      <use xlink:href="#DejaVuSerif-65" x="193.505859"/>
      <use xlink:href="#DejaVuSerif-20" x="252.685547"/>
      <use xlink:href="#DejaVuSerif-5b" x="284.472656"/>
      <use xlink:href="#DejaVuSerif-73" x="323.486328"/>
      <use xlink:href="#DejaVuSerif-5d" x="374.804688"/>
     </g>
    </g>
   </g>
   <g id="matplotlib.axis_6">
    <g id="ytick_7">
     <g id="line2d_71">
      <path d="M 56.717344 175.516068 
L 381.797344 175.516068 
" clip-path="url(#p111056b2fc)" style="fill: none; stroke: #b0b0b0; stroke-width: 0.8; stroke-linecap: round"/>
     </g>
     <g id="line2d_72"/>
     <g id="text_18">
      <!-- −0.025 -->
      <g style="fill: #262626" transform="translate(19.910313 178.935365) scale(0.09 -0.09)">
       <defs>
        <path id="DejaVuSerif-2e" d="M 603 325 
Q 603 500 722 622 
Q 841 744 1019 744 
Q 1191 744 1312 622 
Q 1434 500 1434 325 
Q 1434 153 1312 31 
Q 1191 -91 1019 -91 
Q 841 -91 722 29 
Q 603 150 603 325 
z
" transform="scale(0.015625)"/>
       </defs>
       <use xlink:href="#DejaVuSerif-2212"/>
       <use xlink:href="#DejaVuSerif-30" x="83.789062"/>
       <use xlink:href="#DejaVuSerif-2e" x="147.412109"/>
       <use xlink:href="#DejaVuSerif-30" x="179.199219"/>
       <use xlink:href="#DejaVuSerif-32" x="242.822266"/>
       <use xlink:href="#DejaVuSerif-35" x="306.445312"/>
      </g>
     </g>
    </g>
    <g id="ytick_8">
     <g id="line2d_73">
      <path d="M 56.717344 158.003996 
L 381.797344 158.003996 
" clip-path="url(#p111056b2fc)" style="fill: none; stroke: #b0b0b0; stroke-width: 0.8; stroke-linecap: round"/>
     </g>
     <g id="line2d_74"/>
     <g id="text_19">
      <!-- 0.000 -->
      <g style="fill: #262626" transform="translate(27.452031 161.423293) scale(0.09 -0.09)">
       <use xlink:href="#DejaVuSerif-30"/>
       <use xlink:href="#DejaVuSerif-2e" x="63.623047"/>
       <use xlink:href="#DejaVuSerif-30" x="95.410156"/>
       <use xlink:href="#DejaVuSerif-30" x="159.033203"/>
       <use xlink:href="#DejaVuSerif-30" x="222.65625"/>
      </g>
     </g>
    </g>
    <g id="ytick_9">
     <g id="line2d_75">
      <path d="M 56.717344 140.491923 
L 381.797344 140.491923 
" clip-path="url(#p111056b2fc)" style="fill: none; stroke: #b0b0b0; stroke-width: 0.8; stroke-linecap: round"/>
     </g>
     <g id="line2d_76"/>
     <g id="text_20">
      <!-- 0.025 -->
      <g style="fill: #262626" transform="translate(27.452031 143.91122) scale(0.09 -0.09)">
       <use xlink:href="#DejaVuSerif-30"/>
       <use xlink:href="#DejaVuSerif-2e" x="63.623047"/>
       <use xlink:href="#DejaVuSerif-30" x="95.410156"/>
       <use xlink:href="#DejaVuSerif-32" x="159.033203"/>
       <use xlink:href="#DejaVuSerif-35" x="222.65625"/>
      </g>
     </g>
    </g>
    <g id="text_21">
     <!-- $r$ $[rad/s]$ -->
     <g style="fill: #262626" transform="translate(14.038594 176.046765) rotate(-90) scale(0.09 -0.09)">
      <defs>
       <path id="DejaVuSans-Oblique-72" d="M 2853 2969 
Q 2766 3016 2653 3041 
Q 2541 3066 2413 3066 
Q 1953 3066 1609 2717 
Q 1266 2369 1153 1784 
L 800 0 
L 225 0 
L 909 3500 
L 1484 3500 
L 1375 2956 
Q 1603 3259 1920 3421 
Q 2238 3584 2597 3584 
Q 2691 3584 2781 3573 
Q 2872 3563 2963 3538 
L 2853 2969 
z
" transform="scale(0.015625)"/>
       <path id="DejaVuSans-Oblique-61" d="M 3438 1997 
L 3047 0 
L 2472 0 
L 2578 531 
Q 2325 219 2001 64 
Q 1678 -91 1281 -91 
Q 834 -91 548 182 
Q 263 456 263 884 
Q 263 1497 752 1853 
Q 1241 2209 2100 2209 
L 2900 2209 
L 2931 2363 
Q 2938 2388 2941 2417 
Q 2944 2447 2944 2509 
Q 2944 2788 2717 2942 
Q 2491 3097 2081 3097 
Q 1800 3097 1504 3025 
Q 1209 2953 897 2809 
L 997 3341 
Q 1322 3463 1633 3523 
Q 1944 3584 2234 3584 
Q 2853 3584 3176 3315 
Q 3500 3047 3500 2534 
Q 3500 2431 3484 2292 
Q 3469 2153 3438 1997 
z
M 2816 1759 
L 2241 1759 
Q 1534 1759 1195 1570 
Q 856 1381 856 984 
Q 856 709 1029 553 
Q 1203 397 1509 397 
Q 1978 397 2328 733 
Q 2678 1069 2791 1631 
L 2816 1759 
z
" transform="scale(0.015625)"/>
       <path id="DejaVuSans-2f" d="M 1625 4666 
L 2156 4666 
L 531 -594 
L 0 -594 
L 1625 4666 
z
" transform="scale(0.015625)"/>
       <path id="DejaVuSans-Oblique-73" d="M 3200 3397 
L 3091 2853 
Q 2863 2978 2609 3040 
Q 2356 3103 2088 3103 
Q 1634 3103 1373 2948 
Q 1113 2794 1113 2528 
Q 1113 2219 1719 2053 
Q 1766 2041 1788 2034 
L 1972 1978 
Q 2547 1819 2739 1644 
Q 2931 1469 2931 1166 
Q 2931 609 2489 259 
Q 2047 -91 1331 -91 
Q 1053 -91 747 -37 
Q 441 16 72 128 
L 184 722 
Q 500 559 806 475 
Q 1113 391 1394 391 
Q 1816 391 2080 572 
Q 2344 753 2344 1031 
Q 2344 1331 1650 1516 
L 1591 1531 
L 1394 1581 
Q 956 1697 753 1886 
Q 550 2075 550 2369 
Q 550 2928 970 3256 
Q 1391 3584 2113 3584 
Q 2397 3584 2667 3537 
Q 2938 3491 3200 3397 
z
" transform="scale(0.015625)"/>
      </defs>
      <use xlink:href="#DejaVuSans-Oblique-72" transform="translate(0 0.015625)"/>
      <use xlink:href="#DejaVuSerif-20" transform="translate(41.113281 0.015625)"/>
      <use xlink:href="#DejaVuSans-5b" transform="translate(72.900391 0.015625)"/>
      <use xlink:href="#DejaVuSans-Oblique-72" transform="translate(111.914062 0.015625)"/>
      <use xlink:href="#DejaVuSans-Oblique-61" transform="translate(153.027344 0.015625)"/>
      <use xlink:href="#DejaVuSans-Oblique-64" transform="translate(214.306641 0.015625)"/>
      <use xlink:href="#DejaVuSans-2f" transform="translate(277.783203 0.015625)"/>
      <use xlink:href="#DejaVuSans-Oblique-73" transform="translate(311.474609 0.015625)"/>
      <use xlink:href="#DejaVuSans-5d" transform="translate(363.574219 0.015625)"/>
     </g>
    </g>
   </g>
   <g id="line2d_77">
    <path d="M 71.493707 158.003996 
L 72.283465 158.120607 
L 73.152198 158.506544 
L 74.099907 159.211554 
L 75.047616 160.204843 
L 76.153277 161.694904 
L 79.944113 167.263725 
L 81.760555 169.345418 
L 83.734949 171.246862 
L 85.709343 172.841534 
L 87.841689 174.28208 
L 90.289937 175.680888 
L 93.21204 177.029066 
L 96.529022 178.269296 
L 99.767027 179.255601 
L 103.557864 180.182767 
L 109.007191 181.216848 
L 114.930372 182.14022 
L 121.880239 182.939139 
L 125.908002 183.278442 
L 126.776735 183.03529 
L 127.645469 182.534098 
L 128.672154 181.615207 
L 129.777814 180.306817 
L 130.96245 178.521791 
L 132.305038 176.083228 
L 133.805578 172.872741 
L 135.385093 169.014058 
L 137.517438 163.696677 
L 139.096953 160.432462 
L 140.755444 157.523591 
L 142.492911 154.929594 
L 144.309353 152.620082 
L 146.283747 150.453007 
L 148.337116 148.547102 
L 150.548437 146.781808 
L 152.680783 145.353996 
L 155.602886 143.702506 
L 159.393722 141.970966 
L 162.473776 140.836218 
L 166.343588 139.663637 
L 171.161109 138.445891 
L 177.163267 137.180086 
L 183.086448 136.10936 
L 189.878363 135.002279 
L 196.749254 134.155603 
L 206.621223 133.190037 
L 218.625538 132.118099 
L 233.946834 131.00633 
L 243.660852 130.534214 
L 244.450609 130.740451 
L 245.240367 131.167711 
L 246.188076 131.94468 
L 247.214761 133.092317 
L 248.399397 134.78055 
L 249.741985 137.111671 
L 251.242524 140.19898 
L 252.822039 143.962377 
L 256.139021 152.077392 
L 257.718536 155.129516 
L 259.377027 157.863501 
L 261.114494 160.309073 
L 262.930936 162.500737 
L 264.90533 164.538636 
L 267.037675 166.414065 
L 269.406948 168.19724 
L 271.855196 169.779102 
L 274.461396 171.163453 
L 278.094281 172.820156 
L 280.858432 173.842022 
L 285.833905 175.42221 
L 290.01962 176.508076 
L 294.995092 177.635921 
L 309.526631 180.286838 
L 322.794558 182.019217 
L 327.77003 182.496447 
L 352.410466 184.532363 
L 365.994295 185.313904 
L 365.994295 185.313904 
" clip-path="url(#p111056b2fc)" style="fill: none; stroke: #0000ff; stroke-width: 0.75; stroke-linecap: round"/>
   </g>
   <g id="line2d_78">
    <path d="M 71.493707 158.003996 
L 72.283465 158.120565 
L 73.152198 158.506142 
L 74.099907 159.210014 
L 75.047616 160.201042 
L 76.153277 161.686551 
L 79.865137 167.11902 
L 81.523628 169.008473 
L 83.498022 170.910199 
L 85.472416 172.510323 
L 87.525786 173.879326 
L 89.816082 175.142872 
L 92.501258 176.356115 
L 95.265409 177.33017 
L 98.97727 178.396031 
L 102.926058 179.233518 
L 107.743579 180.063034 
L 118.642233 181.290365 
L 127.408541 181.837553 
L 128.119323 181.60113 
L 129.067032 181.026966 
L 130.093717 180.106284 
L 131.120402 178.882246 
L 132.305038 177.103014 
L 133.647626 174.669372 
L 135.148165 171.46215 
L 136.885632 167.214782 
L 139.017977 161.932926 
L 140.597492 158.697322 
L 142.255983 155.811671 
L 143.99345 153.231338 
L 145.730916 151.038112 
L 147.547359 149.089622 
L 149.75868 147.074086 
L 151.733074 145.554686 
L 153.865419 144.173856 
L 156.471619 142.793543 
L 159.156795 141.630291 
L 162.236849 140.542599 
L 166.185637 139.412907 
L 169.265691 138.735719 
L 175.030921 137.646751 
L 186.95626 135.9763 
L 198.48672 134.915577 
L 211.675671 134.051897 
L 246.1091 132.710305 
L 246.898858 133.027686 
L 247.767591 133.593288 
L 248.7153 134.491801 
L 249.820961 135.881797 
L 251.084573 137.86915 
L 252.506136 140.554211 
L 254.085651 144.036861 
L 255.744142 148.219304 
L 257.323657 152.182197 
L 258.903172 155.528273 
L 260.561663 158.508055 
L 262.29913 161.158101 
L 264.194548 163.614546 
L 266.089966 165.69057 
L 268.06436 167.527266 
L 270.354657 169.320843 
L 272.565978 170.804151 
L 275.093202 172.19034 
L 278.094281 173.546629 
L 280.384578 174.388309 
L 284.25439 175.578985 
L 287.96625 176.489268 
L 292.072989 177.322044 
L 297.996171 178.288635 
L 307.710189 179.711453 
L 315.370837 180.505955 
L 325.321782 181.357765 
L 334.167066 181.921521 
L 345.539575 182.463889 
L 367.02098 183.210037 
L 367.02098 183.210037 
" clip-path="url(#p111056b2fc)" style="fill: none; stroke: #008000; stroke-width: 0.75; stroke-linecap: round"/>
   </g>
   <g id="line2d_79">
    <path d="M 71.493707 158.003996 
L 72.204489 158.109111 
L 72.994247 158.456091 
L 73.784004 159.034035 
L 74.731713 159.995663 
L 75.837374 161.446997 
L 77.258937 163.72064 
L 78.996404 166.327054 
L 80.812846 168.644826 
L 82.708265 170.696678 
L 84.603683 172.427603 
L 86.736028 174.068 
L 88.947349 175.496346 
L 91.316622 176.756185 
L 94.080773 177.965192 
L 97.002876 178.997782 
L 100.398833 179.948905 
L 104.268645 180.789111 
L 108.533336 181.527734 
L 114.061639 182.241066 
L 120.221748 182.803691 
L 125.19722 183.056283 
L 125.986978 182.79482 
L 126.855711 182.24445 
L 127.724444 181.418278 
L 128.751129 180.125817 
L 129.935766 178.25107 
L 131.199378 175.825019 
L 132.778893 172.28052 
L 134.674311 167.428111 
L 136.885632 161.693646 
L 138.465147 158.264872 
L 140.123638 155.18078 
L 141.861105 152.422535 
L 143.677547 149.978705 
L 145.493989 147.908233 
L 147.468383 145.996373 
L 149.521753 144.312422 
L 151.81205 142.724726 
L 154.260298 141.299783 
L 157.103425 139.92694 
L 160.104504 138.732725 
L 163.421485 137.658933 
L 167.133346 136.69182 
L 171.71394 135.719442 
L 176.531461 134.922198 
L 182.296691 134.201443 
L 191.378902 133.334254 
L 199.355454 132.785631 
L 209.385374 132.312917 
L 223.60101 131.916873 
L 237.18484 131.77487 
L 237.974598 131.95809 
L 238.843331 132.422584 
L 239.712064 133.132146 
L 240.659773 134.209968 
L 241.765434 135.80482 
L 242.95007 137.900986 
L 244.371634 140.879695 
L 246.1091 145.090064 
L 250.373791 155.808259 
L 252.032282 159.051071 
L 253.690773 161.820359 
L 255.428239 164.296443 
L 257.244682 166.501731 
L 259.219075 168.549423 
L 261.193469 170.281739 
L 263.40479 171.921074 
L 265.695087 173.351442 
L 268.301287 174.715713 
L 271.302366 176.026945 
L 274.461396 177.178741 
L 278.252232 178.310143 
L 282.358971 179.315472 
L 287.255468 180.288502 
L 292.388892 181.082452 
L 298.706953 181.840902 
L 306.130674 182.496812 
L 316.23957 183.172271 
L 326.032564 183.618463 
L 340.327175 183.981592 
L 351.620708 184.132513 
L 351.620708 184.132513 
" clip-path="url(#p111056b2fc)" style="fill: none; stroke: #ff0000; stroke-width: 0.75; stroke-linecap: round"/>
   </g>
   <g id="patch_9">
    <path d="M 56.717344 188.054118 
L 56.717344 127.769412 
" style="fill: none; stroke: #000000; stroke-linejoin: miter; stroke-linecap: square"/>
   </g>
   <g id="patch_10">
    <path d="M 56.717344 188.054118 
L 381.797344 188.054118 
" style="fill: none; stroke: #000000; stroke-linejoin: miter; stroke-linecap: square"/>
   </g>
   <g id="legend_1">
    <g id="line2d_80">
     <path d="M 285.494531 135.301461 
L 294.494531 135.301461 
L 303.494531 135.301461 
" style="fill: none; stroke: #000000; stroke-width: 0.75; stroke-linecap: round"/>
    </g>
    <g id="text_22">
     <!-- Model test -->
     <g style="fill: #262626" transform="translate(310.694531 138.451461) scale(0.09 -0.09)">
      <defs>
       <path id="DejaVuSerif-4d" d="M 353 0 
L 353 331 
L 947 331 
L 947 4331 
L 319 4331 
L 319 4666 
L 1678 4666 
L 3316 1344 
L 4953 4666 
L 6228 4666 
L 6228 4331 
L 5606 4331 
L 5606 331 
L 6203 331 
L 6203 0 
L 4378 0 
L 4378 331 
L 4972 331 
L 4972 3938 
L 3372 684 
L 2931 684 
L 1331 3938 
L 1331 331 
L 1925 331 
L 1925 0 
L 353 0 
z
" transform="scale(0.015625)"/>
       <path id="DejaVuSerif-6f" d="M 1925 219 
Q 2388 219 2623 584 
Q 2859 950 2859 1663 
Q 2859 2375 2623 2739 
Q 2388 3103 1925 3103 
Q 1463 3103 1227 2739 
Q 991 2375 991 1663 
Q 991 950 1228 584 
Q 1466 219 1925 219 
z
M 1925 -91 
Q 1200 -91 759 389 
Q 319 869 319 1663 
Q 319 2456 758 2934 
Q 1197 3413 1925 3413 
Q 2653 3413 3092 2934 
Q 3531 2456 3531 1663 
Q 3531 869 3092 389 
Q 2653 -91 1925 -91 
z
" transform="scale(0.015625)"/>
       <path id="DejaVuSerif-64" d="M 3359 331 
L 3909 331 
L 3909 0 
L 2784 0 
L 2784 519 
Q 2616 206 2355 57 
Q 2094 -91 1709 -91 
Q 1097 -91 708 395 
Q 319 881 319 1663 
Q 319 2444 706 2928 
Q 1094 3413 1709 3413 
Q 2094 3413 2355 3264 
Q 2616 3116 2784 2803 
L 2784 4531 
L 2241 4531 
L 2241 4863 
L 3359 4863 
L 3359 331 
z
M 2784 1497 
L 2784 1825 
Q 2784 2422 2554 2737 
Q 2325 3053 1888 3053 
Q 1444 3053 1217 2703 
Q 991 2353 991 1663 
Q 991 975 1217 622 
Q 1444 269 1888 269 
Q 2325 269 2554 583 
Q 2784 897 2784 1497 
z
" transform="scale(0.015625)"/>
       <path id="DejaVuSerif-6c" d="M 1313 331 
L 1856 331 
L 1856 0 
L 184 0 
L 184 331 
L 738 331 
L 738 4531 
L 184 4531 
L 184 4863 
L 1313 4863 
L 1313 331 
z
" transform="scale(0.015625)"/>
       <path id="DejaVuSerif-74" d="M 691 2988 
L 184 2988 
L 184 3322 
L 691 3322 
L 691 4353 
L 1269 4353 
L 1269 3322 
L 2350 3322 
L 2350 2988 
L 1269 2988 
L 1269 878 
Q 1269 456 1350 337 
Q 1431 219 1650 219 
Q 1875 219 1978 351 
Q 2081 484 2088 781 
L 2522 781 
Q 2497 328 2275 118 
Q 2053 -91 1600 -91 
Q 1103 -91 897 129 
Q 691 350 691 878 
L 691 2988 
z
" transform="scale(0.015625)"/>
      </defs>
      <use xlink:href="#DejaVuSerif-4d"/>
      <use xlink:href="#DejaVuSerif-6f" x="102.392578"/>
      <use xlink:href="#DejaVuSerif-64" x="162.597656"/>
      <use xlink:href="#DejaVuSerif-65" x="226.611328"/>
      <use xlink:href="#DejaVuSerif-6c" x="285.791016"/>
      <use xlink:href="#DejaVuSerif-20" x="317.773438"/>
      <use xlink:href="#DejaVuSerif-74" x="349.560547"/>
      <use xlink:href="#DejaVuSerif-65" x="389.746094"/>
      <use xlink:href="#DejaVuSerif-73" x="448.925781"/>
      <use xlink:href="#DejaVuSerif-74" x="500.244141"/>
     </g>
    </g>
    <g id="line2d_81">
     <path d="M 285.494531 148.511774 
L 294.494531 148.511774 
L 303.494531 148.511774 
" style="fill: none; stroke: #0000ff; stroke-width: 0.75; stroke-linecap: round"/>
    </g>
    <g id="text_23">
     <!-- Reference -->
     <g style="fill: #262626" transform="translate(310.694531 151.661774) scale(0.09 -0.09)">
      <defs>
       <path id="DejaVuSerif-52" d="M 3066 2316 
Q 3284 2256 3442 2114 
Q 3600 1972 3725 1716 
L 4403 331 
L 4972 331 
L 4972 0 
L 3872 0 
L 3144 1484 
Q 2934 1916 2759 2042 
Q 2584 2169 2278 2169 
L 1581 2169 
L 1581 331 
L 2241 331 
L 2241 0 
L 353 0 
L 353 331 
L 947 331 
L 947 4331 
L 353 4331 
L 353 4666 
L 2719 4666 
Q 3400 4666 3770 4341 
Q 4141 4016 4141 3419 
Q 4141 2938 3870 2661 
Q 3600 2384 3066 2316 
z
M 1581 2503 
L 2503 2503 
Q 2975 2503 3200 2726 
Q 3425 2950 3425 3419 
Q 3425 3888 3200 4109 
Q 2975 4331 2503 4331 
L 1581 4331 
L 1581 2503 
z
" transform="scale(0.015625)"/>
       <path id="DejaVuSerif-66" d="M 2753 4078 
L 2450 4078 
Q 2447 4313 2317 4434 
Q 2188 4556 1941 4556 
Q 1619 4556 1487 4379 
Q 1356 4203 1356 3750 
L 1356 3322 
L 2284 3322 
L 2284 2988 
L 1356 2988 
L 1356 331 
L 2094 331 
L 2094 0 
L 231 0 
L 231 331 
L 781 331 
L 781 2988 
L 231 2988 
L 231 3322 
L 781 3322 
L 781 3738 
Q 781 4294 1070 4578 
Q 1359 4863 1919 4863 
Q 2128 4863 2337 4825 
Q 2547 4788 2753 4709 
L 2753 4078 
z
" transform="scale(0.015625)"/>
       <path id="DejaVuSerif-72" d="M 3059 3328 
L 3059 2497 
L 2728 2497 
Q 2713 2744 2591 2866 
Q 2469 2988 2234 2988 
Q 1809 2988 1582 2694 
Q 1356 2400 1356 1850 
L 1356 331 
L 2022 331 
L 2022 0 
L 263 0 
L 263 331 
L 781 331 
L 781 2994 
L 231 2994 
L 231 3322 
L 1356 3322 
L 1356 2731 
Q 1525 3078 1790 3245 
Q 2056 3413 2438 3413 
Q 2578 3413 2733 3391 
Q 2888 3369 3059 3328 
z
" transform="scale(0.015625)"/>
       <path id="DejaVuSerif-6e" d="M 263 0 
L 263 331 
L 781 331 
L 781 2988 
L 231 2988 
L 231 3322 
L 1356 3322 
L 1356 2731 
Q 1516 3069 1770 3241 
Q 2025 3413 2363 3413 
Q 2913 3413 3172 3097 
Q 3431 2781 3431 2113 
L 3431 331 
L 3944 331 
L 3944 0 
L 2356 0 
L 2356 331 
L 2853 331 
L 2853 1931 
Q 2853 2541 2703 2767 
Q 2553 2994 2175 2994 
Q 1775 2994 1565 2701 
Q 1356 2409 1356 1850 
L 1356 331 
L 1856 331 
L 1856 0 
L 263 0 
z
" transform="scale(0.015625)"/>
       <path id="DejaVuSerif-63" d="M 3291 997 
Q 3169 466 2822 187 
Q 2475 -91 1925 -91 
Q 1200 -91 759 389 
Q 319 869 319 1663 
Q 319 2459 759 2936 
Q 1200 3413 1925 3413 
Q 2241 3413 2553 3339 
Q 2866 3266 3181 3116 
L 3181 2266 
L 2847 2266 
Q 2781 2703 2561 2903 
Q 2341 3103 1931 3103 
Q 1466 3103 1228 2742 
Q 991 2381 991 1663 
Q 991 944 1227 581 
Q 1463 219 1931 219 
Q 2303 219 2525 412 
Q 2747 606 2828 997 
L 3291 997 
z
" transform="scale(0.015625)"/>
      </defs>
      <use xlink:href="#DejaVuSerif-52"/>
      <use xlink:href="#DejaVuSerif-65" x="75.292969"/>
      <use xlink:href="#DejaVuSerif-66" x="134.472656"/>
      <use xlink:href="#DejaVuSerif-65" x="171.484375"/>
      <use xlink:href="#DejaVuSerif-72" x="230.664062"/>
      <use xlink:href="#DejaVuSerif-65" x="278.466797"/>
      <use xlink:href="#DejaVuSerif-6e" x="337.646484"/>
      <use xlink:href="#DejaVuSerif-63" x="402.050781"/>
      <use xlink:href="#DejaVuSerif-65" x="458.056641"/>
     </g>
    </g>
    <g id="line2d_82">
     <path d="M 285.494531 161.722086 
L 294.494531 161.722086 
L 303.494531 161.722086 
" style="fill: none; stroke: #008000; stroke-width: 0.75; stroke-linecap: round"/>
    </g>
    <g id="text_24">
     <!-- PISM -->
     <g style="fill: #262626" transform="translate(310.694531 164.872086) scale(0.09 -0.09)">
      <defs>
       <path id="DejaVuSerif-50" d="M 1581 2375 
L 2406 2375 
Q 2872 2375 3115 2626 
Q 3359 2878 3359 3353 
Q 3359 3831 3115 4081 
Q 2872 4331 2406 4331 
L 1581 4331 
L 1581 2375 
z
M 353 0 
L 353 331 
L 947 331 
L 947 4331 
L 353 4331 
L 353 4666 
L 2559 4666 
Q 3259 4666 3668 4311 
Q 4078 3956 4078 3353 
Q 4078 2753 3668 2397 
Q 3259 2041 2559 2041 
L 1581 2041 
L 1581 331 
L 2303 331 
L 2303 0 
L 353 0 
z
" transform="scale(0.015625)"/>
       <path id="DejaVuSerif-49" d="M 1581 331 
L 2175 331 
L 2175 0 
L 353 0 
L 353 331 
L 947 331 
L 947 4331 
L 353 4331 
L 353 4666 
L 2175 4666 
L 2175 4331 
L 1581 4331 
L 1581 331 
z
" transform="scale(0.015625)"/>
       <path id="DejaVuSerif-53" d="M 594 225 
L 594 1288 
L 953 1284 
Q 969 753 1261 498 
Q 1553 244 2150 244 
Q 2706 244 2998 464 
Q 3291 684 3291 1106 
Q 3291 1444 3114 1625 
Q 2938 1806 2369 1978 
L 1753 2163 
Q 1084 2366 811 2669 
Q 538 2972 538 3500 
Q 538 4094 959 4422 
Q 1381 4750 2144 4750 
Q 2469 4750 2856 4679 
Q 3244 4609 3681 4475 
L 3681 3481 
L 3328 3481 
Q 3275 3975 2998 4195 
Q 2722 4416 2156 4416 
Q 1663 4416 1405 4214 
Q 1147 4013 1147 3628 
Q 1147 3294 1340 3103 
Q 1534 2913 2163 2725 
L 2741 2553 
Q 3375 2363 3645 2067 
Q 3916 1772 3916 1275 
Q 3916 597 3481 253 
Q 3047 -91 2188 -91 
Q 1803 -91 1404 -12 
Q 1006 66 594 225 
z
" transform="scale(0.015625)"/>
      </defs>
      <use xlink:href="#DejaVuSerif-50"/>
      <use xlink:href="#DejaVuSerif-49" x="67.285156"/>
      <use xlink:href="#DejaVuSerif-53" x="106.787109"/>
      <use xlink:href="#DejaVuSerif-4d" x="175.292969"/>
     </g>
    </g>
    <g id="line2d_83">
     <path d="M 285.494531 174.932399 
L 294.494531 174.932399 
L 303.494531 174.932399 
" style="fill: none; stroke: #ff0000; stroke-width: 0.75; stroke-linecap: round"/>
    </g>
    <g id="text_25">
     <!-- Mathematical -->
     <g style="fill: #262626" transform="translate(310.694531 178.082399) scale(0.09 -0.09)">
      <defs>
       <path id="DejaVuSerif-61" d="M 2547 1044 
L 2547 1747 
L 1806 1747 
Q 1378 1747 1168 1562 
Q 959 1378 959 997 
Q 959 650 1171 447 
Q 1384 244 1747 244 
Q 2106 244 2326 466 
Q 2547 688 2547 1044 
z
M 3122 2075 
L 3122 331 
L 3634 331 
L 3634 0 
L 2547 0 
L 2547 359 
Q 2356 128 2106 18 
Q 1856 -91 1522 -91 
Q 969 -91 644 203 
Q 319 497 319 997 
Q 319 1513 691 1797 
Q 1063 2081 1741 2081 
L 2547 2081 
L 2547 2309 
Q 2547 2688 2317 2895 
Q 2088 3103 1672 3103 
Q 1328 3103 1125 2947 
Q 922 2791 872 2484 
L 575 2484 
L 575 3156 
Q 875 3284 1158 3348 
Q 1441 3413 1709 3413 
Q 2400 3413 2761 3070 
Q 3122 2728 3122 2075 
z
" transform="scale(0.015625)"/>
       <path id="DejaVuSerif-68" d="M 263 0 
L 263 331 
L 781 331 
L 781 4531 
L 231 4531 
L 231 4863 
L 1356 4863 
L 1356 2731 
Q 1516 3069 1770 3241 
Q 2025 3413 2363 3413 
Q 2913 3413 3172 3097 
Q 3431 2781 3431 2113 
L 3431 331 
L 3944 331 
L 3944 0 
L 2356 0 
L 2356 331 
L 2853 331 
L 2853 1931 
Q 2853 2541 2704 2764 
Q 2556 2988 2175 2988 
Q 1775 2988 1565 2697 
Q 1356 2406 1356 1850 
L 1356 331 
L 1856 331 
L 1856 0 
L 263 0 
z
" transform="scale(0.015625)"/>
      </defs>
      <use xlink:href="#DejaVuSerif-4d"/>
      <use xlink:href="#DejaVuSerif-61" x="102.392578"/>
      <use xlink:href="#DejaVuSerif-74" x="162.011719"/>
      <use xlink:href="#DejaVuSerif-68" x="202.197266"/>
      <use xlink:href="#DejaVuSerif-65" x="266.601562"/>
      <use xlink:href="#DejaVuSerif-6d" x="325.78125"/>
      <use xlink:href="#DejaVuSerif-61" x="420.605469"/>
      <use xlink:href="#DejaVuSerif-74" x="480.224609"/>
      <use xlink:href="#DejaVuSerif-69" x="520.410156"/>
      <use xlink:href="#DejaVuSerif-63" x="552.392578"/>
      <use xlink:href="#DejaVuSerif-61" x="608.398438"/>
      <use xlink:href="#DejaVuSerif-6c" x="668.017578"/>
     </g>
    </g>
   </g>
  </g>
 </g>
 <defs>
  <clipPath id="p80ebddf08b">
   <rect x="56.717344" y="7.2" width="325.08" height="60.284706"/>
  </clipPath>
  <clipPath id="pc299320b51">
   <rect x="56.717344" y="67.484706" width="325.08" height="60.284706"/>
  </clipPath>
  <clipPath id="p111056b2fc">
   <rect x="56.717344" y="127.769412" width="325.08" height="60.284706"/>
  </clipPath>
 </defs>
</svg>
