<?xml version="1.0" encoding="utf-8" standalone="no"?>
<!DOCTYPE svg PUBLIC "-//W3C//DTD SVG 1.1//EN"
  "http://www.w3.org/Graphics/SVG/1.1/DTD/svg11.dtd">
<svg xmlns:xlink="http://www.w3.org/1999/xlink" width="511.704531pt" height="339.531875pt" viewBox="0 0 511.704531 339.531875" xmlns="http://www.w3.org/2000/svg" version="1.1">
 <metadata>
  <rdf:RDF xmlns:dc="http://purl.org/dc/elements/1.1/" xmlns:cc="http://creativecommons.org/ns#" xmlns:rdf="http://www.w3.org/1999/02/22-rdf-syntax-ns#">
   <cc:Work>
    <dc:type rdf:resource="http://purl.org/dc/dcmitype/StillImage"/>
    <dc:date>2024-02-01T17:42:28.019073</dc:date>
    <dc:format>image/svg+xml</dc:format>
    <dc:creator>
     <cc:Agent>
      <dc:title>Matplotlib v3.8.2, https://matplotlib.org/</dc:title>
     </cc:Agent>
    </dc:creator>
   </cc:Work>
  </rdf:RDF>
 </metadata>
 <defs>
  <style type="text/css">*{stroke-linejoin: round; stroke-linecap: butt}</style>
 </defs>
 <g id="figure_1">
  <g id="patch_1">
   <path d="M 0 339.531875 
L 511.704531 339.531875 
L 511.704531 0 
L 0 0 
z
" style="fill: #ffffff"/>
  </g>
  <g id="axes_1">
   <g id="patch_2">
    <path d="M 66.054531 105.98 
L 504.504531 105.98 
L 504.504531 7.2 
L 66.054531 7.2 
z
" style="fill: #ffffff"/>
   </g>
   <g id="line2d_1">
    <path d="M 85.984077 56.266766 
L 87.25556 56.483511 
L 88.527044 56.567192 
L 89.586614 56.745121 
L 90.540227 57.133321 
L 91.599796 57.838785 
L 94.672549 60.014715 
L 96.897645 61.781396 
L 98.169129 62.511506 
L 99.440612 62.950531 
L 101.029967 63.258805 
L 103.572934 63.449218 
L 105.48016 63.627678 
L 106.327816 64.046346 
L 108.97674 65.774144 
L 112.049492 67.941095 
L 118.194997 72.687254 
L 120.102222 73.457261 
L 122.009448 74.008122 
L 123.174974 74.378942 
L 125.0822 74.933549 
L 128.154952 75.902146 
L 130.909834 76.893957 
L 135.995768 79.414932 
L 138.114908 80.597015 
L 143.836584 83.05927 
L 145.214025 83.418036 
L 149.558261 84.467204 
L 152.207185 85.080617 
L 154.114411 85.657621 
L 158.776518 87.391742 
L 160.153958 87.554977 
L 161.213528 87.55576 
L 162.696926 87.324924 
L 163.544581 86.989002 
L 164.816065 86.246344 
L 166.935205 84.731755 
L 169.584129 82.742546 
L 173.716451 79.089192 
L 180.709611 75.025729 
L 182.616837 73.468202 
L 185.265761 71.025875 
L 193.530405 62.186997 
L 195.755502 60.26955 
L 197.026985 59.52297 
L 204.54993 55.39344 
L 208.04651 52.512526 
L 214.615843 46.897237 
L 216.311154 45.523344 
L 217.900509 44.641382 
L 222.032831 42.735746 
L 225.105583 41.429846 
L 226.694938 40.817017 
L 229.025991 39.618239 
L 231.992787 37.967929 
L 234.005969 36.929566 
L 236.019152 35.797578 
L 238.350205 34.417882 
L 240.25743 33.572905 
L 244.81358 32.036788 
L 248.098247 31.223387 
L 250.217386 30.603565 
L 255.727149 28.866456 
L 257.952245 27.805988 
L 260.495212 26.653748 
L 265.47519 24.643606 
L 267.276459 24.316871 
L 270.455168 23.710978 
L 273.210049 22.931007 
L 275.435146 22.354811 
L 278.190027 21.775633 
L 280.097253 21.305455 
L 285.924886 19.446427 
L 287.514241 19.256668 
L 289.421466 19.046944 
L 292.494219 18.145278 
L 293.659745 17.905201 
L 299.063551 17.583659 
L 300.546949 17.21586 
L 306.480539 16.054481 
L 307.963937 15.810834 
L 310.930732 15.216154 
L 313.049871 15.130127 
L 314.745183 14.936607 
L 316.864323 14.678795 
L 318.771548 14.723527 
L 320.043032 14.953079 
L 321.526429 15.475391 
L 322.691956 16.098918 
L 323.645569 16.791801 
L 327.142149 19.726807 
L 329.049374 21.281876 
L 334.982965 26.974228 
L 336.360406 27.981141 
L 339.00933 29.770252 
L 341.658254 31.785648 
L 343.035695 33.197141 
L 345.154834 35.800582 
L 351.406296 43.74704 
L 353.419478 45.686963 
L 355.644575 47.440838 
L 358.505413 49.184324 
L 364.756875 52.945494 
L 366.134315 54.05097 
L 368.253455 56.107705 
L 371.644078 59.423275 
L 374.928744 62.272417 
L 376.624056 63.501965 
L 381.074249 65.884874 
L 389.44485 69.891469 
L 397.603536 75.052261 
L 400.888203 76.571059 
L 403.325213 77.398367 
L 411.377943 79.7588 
L 413.60304 80.686403 
L 418.371103 82.804802 
L 428.225102 86.317776 
L 432.039553 87.138515 
L 434.794434 87.764904 
L 439.774412 89.330886 
L 443.165035 90.639867 
L 446.767572 91.633607 
L 449.946282 92.101904 
L 452.913077 92.429344 
L 456.833485 93.066909 
L 460.647936 94.051336 
L 463.084946 94.299941 
L 469.336408 95.846872 
L 471.561504 96.115017 
L 473.680644 96.257508 
L 483.004857 97.006062 
L 484.382298 96.784988 
L 484.488255 96.759431 
L 484.488255 96.759431 
" clip-path="url(#p4078f74bcd)" style="fill: none; stroke: #000000; stroke-linecap: round"/>
   </g>
   <g id="matplotlib.axis_1">
    <g id="xtick_1">
     <g id="line2d_2">
      <path d="M 85.984077 105.98 
L 85.984077 7.2 
" clip-path="url(#p4078f74bcd)" style="fill: none; stroke: #b0b0b0; stroke-width: 0.8; stroke-linecap: round"/>
     </g>
     <g id="line2d_3"/>
    </g>
    <g id="xtick_2">
     <g id="line2d_4">
      <path d="M 139.271631 105.98 
L 139.271631 7.2 
" clip-path="url(#p4078f74bcd)" style="fill: none; stroke: #b0b0b0; stroke-width: 0.8; stroke-linecap: round"/>
     </g>
     <g id="line2d_5"/>
    </g>
    <g id="xtick_3">
     <g id="line2d_6">
      <path d="M 192.559186 105.98 
L 192.559186 7.2 
" clip-path="url(#p4078f74bcd)" style="fill: none; stroke: #b0b0b0; stroke-width: 0.8; stroke-linecap: round"/>
     </g>
     <g id="line2d_7"/>
    </g>
    <g id="xtick_4">
     <g id="line2d_8">
      <path d="M 245.846741 105.98 
L 245.846741 7.2 
" clip-path="url(#p4078f74bcd)" style="fill: none; stroke: #b0b0b0; stroke-width: 0.8; stroke-linecap: round"/>
     </g>
     <g id="line2d_9"/>
    </g>
    <g id="xtick_5">
     <g id="line2d_10">
      <path d="M 299.134295 105.98 
L 299.134295 7.2 
" clip-path="url(#p4078f74bcd)" style="fill: none; stroke: #b0b0b0; stroke-width: 0.8; stroke-linecap: round"/>
     </g>
     <g id="line2d_11"/>
    </g>
    <g id="xtick_6">
     <g id="line2d_12">
      <path d="M 352.42185 105.98 
L 352.42185 7.2 
" clip-path="url(#p4078f74bcd)" style="fill: none; stroke: #b0b0b0; stroke-width: 0.8; stroke-linecap: round"/>
     </g>
     <g id="line2d_13"/>
    </g>
    <g id="xtick_7">
     <g id="line2d_14">
      <path d="M 405.709405 105.98 
L 405.709405 7.2 
" clip-path="url(#p4078f74bcd)" style="fill: none; stroke: #b0b0b0; stroke-width: 0.8; stroke-linecap: round"/>
     </g>
     <g id="line2d_15"/>
    </g>
    <g id="xtick_8">
     <g id="line2d_16">
      <path d="M 458.99696 105.98 
L 458.99696 7.2 
" clip-path="url(#p4078f74bcd)" style="fill: none; stroke: #b0b0b0; stroke-width: 0.8; stroke-linecap: round"/>
     </g>
     <g id="line2d_17"/>
    </g>
   </g>
   <g id="matplotlib.axis_2">
    <g id="ytick_1">
     <g id="line2d_18">
      <path d="M 66.054531 90.213048 
L 504.504531 90.213048 
" clip-path="url(#p4078f74bcd)" style="fill: none; stroke: #b0b0b0; stroke-width: 0.8; stroke-linecap: round"/>
     </g>
     <g id="line2d_19"/>
     <g id="text_1">
      <!-- −5 -->
      <g style="fill: #262626" transform="translate(46.338125 94.392189) scale(0.11 -0.11)">
       <defs>
        <path id="DejaVuSerif-2212" d="M 678 2259 
L 4684 2259 
L 4684 1753 
L 678 1753 
L 678 2259 
z
" transform="scale(0.015625)"/>
        <path id="DejaVuSerif-35" d="M 3219 4666 
L 3219 4153 
L 1081 4153 
L 1081 2816 
Q 1244 2928 1461 2984 
Q 1678 3041 1947 3041 
Q 2703 3041 3140 2622 
Q 3578 2203 3578 1478 
Q 3578 738 3136 323 
Q 2694 -91 1894 -91 
Q 1572 -91 1234 -12 
Q 897 66 544 225 
L 544 1131 
L 897 1131 
Q 925 688 1179 453 
Q 1434 219 1894 219 
Q 2388 219 2653 544 
Q 2919 869 2919 1478 
Q 2919 2084 2655 2407 
Q 2391 2731 1894 2731 
Q 1613 2731 1398 2631 
Q 1184 2531 1019 2322 
L 750 2322 
L 750 4666 
L 3219 4666 
z
" transform="scale(0.015625)"/>
       </defs>
       <use xlink:href="#DejaVuSerif-2212"/>
       <use xlink:href="#DejaVuSerif-35" x="83.789062"/>
      </g>
     </g>
    </g>
    <g id="ytick_2">
     <g id="line2d_20">
      <path d="M 66.054531 56.843523 
L 504.504531 56.843523 
" clip-path="url(#p4078f74bcd)" style="fill: none; stroke: #b0b0b0; stroke-width: 0.8; stroke-linecap: round"/>
     </g>
     <g id="line2d_21"/>
     <g id="text_2">
      <!-- 0 -->
      <g style="fill: #262626" transform="translate(55.555781 61.022664) scale(0.11 -0.11)">
       <defs>
        <path id="DejaVuSerif-30" d="M 2034 219 
Q 2513 219 2750 744 
Q 2988 1269 2988 2328 
Q 2988 3391 2750 3916 
Q 2513 4441 2034 4441 
Q 1556 4441 1318 3916 
Q 1081 3391 1081 2328 
Q 1081 1269 1318 744 
Q 1556 219 2034 219 
z
M 2034 -91 
Q 1275 -91 848 546 
Q 422 1184 422 2328 
Q 422 3475 848 4112 
Q 1275 4750 2034 4750 
Q 2797 4750 3222 4112 
Q 3647 3475 3647 2328 
Q 3647 1184 3222 546 
Q 2797 -91 2034 -91 
z
" transform="scale(0.015625)"/>
       </defs>
       <use xlink:href="#DejaVuSerif-30"/>
      </g>
     </g>
    </g>
    <g id="ytick_3">
     <g id="line2d_22">
      <path d="M 66.054531 23.473998 
L 504.504531 23.473998 
" clip-path="url(#p4078f74bcd)" style="fill: none; stroke: #b0b0b0; stroke-width: 0.8; stroke-linecap: round"/>
     </g>
     <g id="line2d_23"/>
     <g id="text_3">
      <!-- 5 -->
      <g style="fill: #262626" transform="translate(55.555781 27.653139) scale(0.11 -0.11)">
       <use xlink:href="#DejaVuSerif-35"/>
      </g>
     </g>
    </g>
    <g id="text_4">
     <!-- $\beta$ $[deg]$ -->
     <g style="fill: #262626" transform="translate(40.028125 76.555) rotate(-90) scale(0.11 -0.11)">
      <defs>
       <path id="DejaVuSans-Oblique-3b2" d="M 872 216 
L 572 -1331 
L -6 -1331 
L 928 3478 
Q 1206 4903 2538 4903 
Q 3888 4903 3659 3700 
Q 3503 2844 2894 2531 
Q 3713 2250 3553 1416 
Q 3272 -69 1759 -66 
Q 1097 -63 872 216 
z
M 1019 966 
Q 1259 422 1875 425 
Q 2775 425 2966 1406 
Q 3138 2288 1675 2219 
L 1778 2750 
Q 2909 2731 3106 3750 
Q 3241 4438 2509 4434 
Q 1691 4434 1503 3459 
L 1019 966 
z
" transform="scale(0.015625)"/>
       <path id="DejaVuSerif-20" transform="scale(0.015625)"/>
       <path id="DejaVuSans-5b" d="M 550 4863 
L 1875 4863 
L 1875 4416 
L 1125 4416 
L 1125 -397 
L 1875 -397 
L 1875 -844 
L 550 -844 
L 550 4863 
z
" transform="scale(0.015625)"/>
       <path id="DejaVuSans-Oblique-64" d="M 2675 525 
Q 2444 222 2128 65 
Q 1813 -91 1428 -91 
Q 903 -91 598 267 
Q 294 625 294 1247 
Q 294 1766 478 2236 
Q 663 2706 1013 3078 
Q 1244 3325 1534 3454 
Q 1825 3584 2144 3584 
Q 2481 3584 2739 3421 
Q 2997 3259 3138 2956 
L 3513 4863 
L 4091 4863 
L 3144 0 
L 2566 0 
L 2675 525 
z
M 891 1350 
Q 891 897 1095 644 
Q 1300 391 1663 391 
Q 1931 391 2161 520 
Q 2391 650 2566 903 
Q 2750 1166 2856 1509 
Q 2963 1853 2963 2188 
Q 2963 2622 2758 2865 
Q 2553 3109 2194 3109 
Q 1922 3109 1687 2981 
Q 1453 2853 1288 2613 
Q 1106 2353 998 2009 
Q 891 1666 891 1350 
z
" transform="scale(0.015625)"/>
       <path id="DejaVuSans-Oblique-65" d="M 3078 2063 
Q 3088 2113 3092 2166 
Q 3097 2219 3097 2272 
Q 3097 2653 2873 2875 
Q 2650 3097 2266 3097 
Q 1838 3097 1509 2826 
Q 1181 2556 1013 2059 
L 3078 2063 
z
M 3578 1613 
L 903 1613 
Q 884 1494 878 1425 
Q 872 1356 872 1306 
Q 872 872 1139 634 
Q 1406 397 1894 397 
Q 2269 397 2603 481 
Q 2938 566 3225 728 
L 3116 159 
Q 2806 34 2476 -28 
Q 2147 -91 1806 -91 
Q 1078 -91 686 257 
Q 294 606 294 1247 
Q 294 1794 489 2264 
Q 684 2734 1063 3103 
Q 1306 3334 1642 3459 
Q 1978 3584 2356 3584 
Q 2950 3584 3301 3228 
Q 3653 2872 3653 2272 
Q 3653 2128 3634 1964 
Q 3616 1800 3578 1613 
z
" transform="scale(0.015625)"/>
       <path id="DejaVuSans-Oblique-67" d="M 3816 3500 
L 3219 434 
Q 3047 -456 2561 -893 
Q 2075 -1331 1253 -1331 
Q 950 -1331 690 -1286 
Q 431 -1241 206 -1147 
L 313 -588 
Q 525 -725 762 -790 
Q 1000 -856 1269 -856 
Q 1816 -856 2167 -557 
Q 2519 -259 2631 300 
L 2681 563 
Q 2441 288 2122 144 
Q 1803 0 1434 0 
Q 903 0 598 351 
Q 294 703 294 1319 
Q 294 1803 478 2267 
Q 663 2731 997 3091 
Q 1219 3328 1514 3456 
Q 1809 3584 2131 3584 
Q 2484 3584 2746 3420 
Q 3009 3256 3138 2956 
L 3238 3500 
L 3816 3500 
z
M 2950 2216 
Q 2950 2641 2750 2872 
Q 2550 3103 2181 3103 
Q 1953 3103 1747 3012 
Q 1541 2922 1394 2759 
Q 1156 2491 1023 2127 
Q 891 1763 891 1375 
Q 891 944 1092 712 
Q 1294 481 1672 481 
Q 2219 481 2584 976 
Q 2950 1472 2950 2216 
z
" transform="scale(0.015625)"/>
       <path id="DejaVuSans-5d" d="M 1947 4863 
L 1947 -844 
L 622 -844 
L 622 -397 
L 1369 -397 
L 1369 4416 
L 622 4416 
L 622 4863 
L 1947 4863 
z
" transform="scale(0.015625)"/>
      </defs>
      <use xlink:href="#DejaVuSans-Oblique-3b2" transform="translate(0 0.390625)"/>
      <use xlink:href="#DejaVuSerif-20" transform="translate(63.818359 0.390625)"/>
      <use xlink:href="#DejaVuSans-5b" transform="translate(95.605469 0.390625)"/>
      <use xlink:href="#DejaVuSans-Oblique-64" transform="translate(134.619141 0.390625)"/>
      <use xlink:href="#DejaVuSans-Oblique-65" transform="translate(198.095703 0.390625)"/>
      <use xlink:href="#DejaVuSans-Oblique-67" transform="translate(259.619141 0.390625)"/>
      <use xlink:href="#DejaVuSans-5d" transform="translate(323.095703 0.390625)"/>
     </g>
    </g>
   </g>
   <g id="line2d_24">
    <path d="M 85.984077 56.843523 
L 87.902429 56.955824 
L 89.820781 57.305864 
L 91.525982 57.834015 
L 93.337759 58.63076 
L 98.666515 61.41267 
L 109.0043 67.12239 
L 119.128936 72.59508 
L 127.015494 76.566519 
L 134.156026 79.914957 
L 141.722859 83.206072 
L 148.863391 86.063688 
L 155.257898 88.421096 
L 160.480078 90.162173 
L 162.291855 90.495614 
L 163.997057 90.592631 
L 165.702259 90.459968 
L 167.40746 90.094559 
L 169.112662 89.494035 
L 170.817864 88.64204 
L 172.523066 87.542738 
L 174.761143 85.800689 
L 180.622774 80.917153 
L 198.740542 65.542496 
L 204.921899 60.657886 
L 210.78353 56.286007 
L 217.178036 51.831407 
L 223.252818 47.884234 
L 229.327599 44.193365 
L 235.295805 40.809477 
L 242.436337 37.042329 
L 249.043994 33.843212 
L 255.864801 30.809774 
L 262.472458 28.117306 
L 270.039291 25.267842 
L 277.712698 22.642873 
L 285.066381 20.351198 
L 294.125265 17.764426 
L 302.544699 15.59157 
L 311.603583 13.498444 
L 319.703292 11.826178 
L 321.408493 11.692299 
L 323.113695 11.770056 
L 324.818897 12.074376 
L 326.524099 12.610788 
L 328.2293 13.381717 
L 329.934502 14.390377 
L 331.639704 15.645877 
L 333.664631 17.432975 
L 340.059137 23.501426 
L 354.766503 37.557207 
L 361.267584 43.436413 
L 367.129215 48.448131 
L 373.097421 53.234247 
L 378.639327 57.418878 
L 384.820683 61.77642 
L 390.362589 65.419823 
L 396.863671 69.430146 
L 403.364752 73.144699 
L 410.505285 76.919064 
L 416.580066 79.877725 
L 422.867997 82.680435 
L 429.262504 85.308637 
L 437.042487 88.260848 
L 444.60932 90.894332 
L 452.495878 93.4098 
L 460.915312 95.845998 
L 468.482144 97.825552 
L 477.008153 99.855445 
L 484.574986 101.49 
L 484.574986 101.49 
" clip-path="url(#p4078f74bcd)" style="fill: none; stroke: #0000ff; stroke-linecap: round"/>
   </g>
   <g id="line2d_25">
    <path d="M 85.984077 56.843523 
L 87.902429 56.95574 
L 89.820781 57.305027 
L 91.632558 57.871628 
L 93.337759 58.627553 
L 98.666515 61.397014 
L 119.874961 72.724394 
L 127.228644 76.264989 
L 133.623151 79.111298 
L 140.870258 82.071973 
L 148.117365 84.776346 
L 155.044748 87.117971 
L 161.119529 88.960615 
L 162.931306 89.255318 
L 164.636507 89.317217 
L 166.341709 89.157804 
L 168.046911 88.767405 
L 169.752113 88.144878 
L 171.457314 87.284936 
L 173.162516 86.179253 
L 175.187443 84.58164 
L 181.049074 79.599158 
L 198.633967 64.467607 
L 204.389023 59.891784 
L 210.037504 55.6853 
L 215.685985 51.759189 
L 221.121315 48.236953 
L 226.982946 44.714416 
L 232.738002 41.505942 
L 238.599633 38.48355 
L 244.887565 35.491016 
L 251.175496 32.763714 
L 257.676578 30.198591 
L 264.39081 27.780339 
L 271.531342 25.435275 
L 278.9916 23.218239 
L 286.878158 21.114627 
L 294.871291 19.204909 
L 304.036751 17.242885 
L 313.841661 15.394279 
L 320.555892 14.318591 
L 322.261094 14.286814 
L 323.966296 14.467548 
L 325.671498 14.866572 
L 327.376699 15.495012 
L 329.188476 16.410533 
L 331.000253 17.588031 
L 332.81203 19.044567 
L 335.689558 21.736348 
L 344.108992 29.930598 
L 353.594176 39.071109 
L 359.349232 44.341468 
L 365.104288 49.316713 
L 370.859344 53.994146 
L 376.40125 58.18787 
L 381.943155 62.092883 
L 386.952186 65.364106 
L 392.387516 68.682582 
L 398.355722 72.059057 
L 405.176529 75.610342 
L 411.144735 78.444723 
L 417.219517 81.090142 
L 423.720598 83.659841 
L 430.541405 86.103627 
L 437.681938 88.427856 
L 445.888221 90.855751 
L 453.348479 92.846734 
L 461.661337 94.841837 
L 470.720222 96.778247 
L 479.459381 98.429553 
L 482.656634 98.989834 
L 482.656634 98.989834 
" clip-path="url(#p4078f74bcd)" style="fill: none; stroke: #008000; stroke-linecap: round"/>
   </g>
   <g id="line2d_26">
    <path d="M 85.984077 56.843523 
L 88.115579 56.950852 
L 90.140506 57.274703 
L 91.952283 57.78597 
L 93.76406 58.525595 
L 98.666515 60.830702 
L 106.766223 64.921962 
L 118.702635 70.916836 
L 125.949743 74.292848 
L 132.663975 77.175838 
L 138.845331 79.594626 
L 145.452988 81.93257 
L 152.060645 84.043271 
L 158.774876 85.944333 
L 161.758979 86.636974 
L 163.570756 86.811636 
L 165.382533 86.766736 
L 167.087735 86.512049 
L 168.792937 86.036724 
L 170.498138 85.317999 
L 172.20334 84.350304 
L 173.908542 83.119401 
L 176.892645 80.561288 
L 183.287152 74.789446 
L 193.092062 65.990946 
L 199.166843 60.847497 
L 204.602173 56.532109 
L 209.824354 52.667268 
L 214.939959 49.156916 
L 220.055564 45.917166 
L 225.17117 42.939413 
L 230.286775 40.213432 
L 235.508955 37.681882 
L 240.944286 35.29394 
L 246.592767 33.050507 
L 252.560973 30.922953 
L 258.848904 28.92287 
L 265.136836 27.139383 
L 271.851067 25.469794 
L 279.098175 23.900105 
L 286.878158 22.451517 
L 295.084441 21.150995 
L 303.077575 20.102819 
L 313.41536 18.952509 
L 315.866588 18.815815 
L 317.78494 18.957356 
L 319.596716 19.308892 
L 321.301918 19.861152 
L 323.00712 20.638697 
L 324.818897 21.719843 
L 326.737249 23.168259 
L 328.549026 24.832359 
L 334.623807 31.014754 
L 344.855017 41.415908 
L 350.716648 47.030378 
L 355.832254 51.629114 
L 360.841284 55.833845 
L 365.743739 59.659204 
L 370.646194 63.20065 
L 375.548649 66.464481 
L 380.451104 69.462715 
L 385.460134 72.266875 
L 390.575739 74.875398 
L 395.904495 77.341436 
L 401.339825 79.613512 
L 406.988306 81.735255 
L 412.743362 83.661758 
L 419.137869 85.569335 
L 425.852101 87.33691 
L 432.886058 88.954909 
L 440.23974 90.417402 
L 448.339449 91.817287 
L 456.972032 93.078595 
L 466.990093 94.304666 
L 470.293921 94.664448 
L 470.293921 94.664448 
" clip-path="url(#p4078f74bcd)" style="fill: none; stroke: #ff0000; stroke-linecap: round"/>
   </g>
   <g id="patch_3">
    <path d="M 66.054531 105.98 
L 66.054531 7.2 
" style="fill: none; stroke: #000000; stroke-linejoin: miter; stroke-linecap: square"/>
   </g>
   <g id="patch_4">
    <path d="M 66.054531 105.98 
L 504.504531 105.98 
" style="fill: none; stroke: #000000; stroke-linejoin: miter; stroke-linecap: square"/>
   </g>
   <g id="legend_1">
    <g id="line2d_27">
     <path d="M 213.69875 41.348125 
L 224.69875 41.348125 
L 235.69875 41.348125 
" style="fill: none; stroke: #000000; stroke-linecap: round"/>
    </g>
    <g id="text_5">
     <!-- Experiment -->
     <g style="fill: #262626" transform="translate(244.49875 45.198125) scale(0.11 -0.11)">
      <defs>
       <path id="DejaVuSerif-45" d="M 353 0 
L 353 331 
L 947 331 
L 947 4331 
L 353 4331 
L 353 4666 
L 4109 4666 
L 4109 3628 
L 3725 3628 
L 3725 4281 
L 1581 4281 
L 1581 2719 
L 3109 2719 
L 3109 3303 
L 3494 3303 
L 3494 1753 
L 3109 1753 
L 3109 2338 
L 1581 2338 
L 1581 384 
L 3775 384 
L 3775 1038 
L 4159 1038 
L 4159 0 
L 353 0 
z
" transform="scale(0.015625)"/>
       <path id="DejaVuSerif-78" d="M 1863 2028 
L 2559 2988 
L 2113 2988 
L 2113 3322 
L 3391 3322 
L 3391 2988 
L 2950 2988 
L 2059 1759 
L 3097 331 
L 3531 331 
L 3531 0 
L 1997 0 
L 1997 331 
L 2419 331 
L 1697 1325 
L 972 331 
L 1403 331 
L 1403 0 
L 141 0 
L 141 331 
L 581 331 
L 1497 1594 
L 488 2988 
L 78 2988 
L 78 3322 
L 1563 3322 
L 1563 2988 
L 1166 2988 
L 1863 2028 
z
" transform="scale(0.015625)"/>
       <path id="DejaVuSerif-70" d="M 1313 1825 
L 1313 1497 
Q 1313 897 1542 583 
Q 1772 269 2209 269 
Q 2650 269 2876 622 
Q 3103 975 3103 1663 
Q 3103 2353 2876 2703 
Q 2650 3053 2209 3053 
Q 1772 3053 1542 2737 
Q 1313 2422 1313 1825 
z
M 738 2988 
L 184 2988 
L 184 3322 
L 1313 3322 
L 1313 2803 
Q 1481 3116 1742 3264 
Q 2003 3413 2388 3413 
Q 3000 3413 3387 2928 
Q 3775 2444 3775 1663 
Q 3775 881 3387 395 
Q 3000 -91 2388 -91 
Q 2003 -91 1742 57 
Q 1481 206 1313 519 
L 1313 -997 
L 1856 -997 
L 1856 -1331 
L 184 -1331 
L 184 -997 
L 738 -997 
L 738 2988 
z
" transform="scale(0.015625)"/>
       <path id="DejaVuSerif-65" d="M 3469 1600 
L 991 1600 
L 991 1575 
Q 991 903 1244 561 
Q 1497 219 1991 219 
Q 2369 219 2611 417 
Q 2853 616 2950 1006 
L 3413 1006 
Q 3275 459 2904 184 
Q 2534 -91 1931 -91 
Q 1203 -91 761 389 
Q 319 869 319 1663 
Q 319 2450 753 2931 
Q 1188 3413 1894 3413 
Q 2647 3413 3050 2948 
Q 3453 2484 3469 1600 
z
M 2791 1931 
Q 2772 2513 2545 2808 
Q 2319 3103 1894 3103 
Q 1497 3103 1269 2806 
Q 1041 2509 991 1931 
L 2791 1931 
z
" transform="scale(0.015625)"/>
       <path id="DejaVuSerif-72" d="M 3059 3328 
L 3059 2497 
L 2728 2497 
Q 2713 2744 2591 2866 
Q 2469 2988 2234 2988 
Q 1809 2988 1582 2694 
Q 1356 2400 1356 1850 
L 1356 331 
L 2022 331 
L 2022 0 
L 263 0 
L 263 331 
L 781 331 
L 781 2994 
L 231 2994 
L 231 3322 
L 1356 3322 
L 1356 2731 
Q 1525 3078 1790 3245 
Q 2056 3413 2438 3413 
Q 2578 3413 2733 3391 
Q 2888 3369 3059 3328 
z
" transform="scale(0.015625)"/>
       <path id="DejaVuSerif-69" d="M 622 4353 
Q 622 4497 726 4603 
Q 831 4709 978 4709 
Q 1122 4709 1226 4603 
Q 1331 4497 1331 4353 
Q 1331 4206 1228 4103 
Q 1125 4000 978 4000 
Q 831 4000 726 4103 
Q 622 4206 622 4353 
z
M 1356 331 
L 1900 331 
L 1900 0 
L 231 0 
L 231 331 
L 781 331 
L 781 2988 
L 231 2988 
L 231 3322 
L 1356 3322 
L 1356 331 
z
" transform="scale(0.015625)"/>
       <path id="DejaVuSerif-6d" d="M 3316 2675 
Q 3481 3041 3739 3227 
Q 3997 3413 4341 3413 
Q 4863 3413 5119 3089 
Q 5375 2766 5375 2113 
L 5375 331 
L 5894 331 
L 5894 0 
L 4300 0 
L 4300 331 
L 4800 331 
L 4800 2047 
Q 4800 2556 4650 2772 
Q 4500 2988 4153 2988 
Q 3769 2988 3567 2697 
Q 3366 2406 3366 1850 
L 3366 331 
L 3866 331 
L 3866 0 
L 2291 0 
L 2291 331 
L 2791 331 
L 2791 2069 
Q 2791 2566 2641 2777 
Q 2491 2988 2144 2988 
Q 1759 2988 1557 2697 
Q 1356 2406 1356 1850 
L 1356 331 
L 1856 331 
L 1856 0 
L 263 0 
L 263 331 
L 781 331 
L 781 2994 
L 231 2994 
L 231 3322 
L 1356 3322 
L 1356 2731 
Q 1516 3063 1762 3238 
Q 2009 3413 2322 3413 
Q 2709 3413 2968 3220 
Q 3228 3028 3316 2675 
z
" transform="scale(0.015625)"/>
       <path id="DejaVuSerif-6e" d="M 263 0 
L 263 331 
L 781 331 
L 781 2988 
L 231 2988 
L 231 3322 
L 1356 3322 
L 1356 2731 
Q 1516 3069 1770 3241 
Q 2025 3413 2363 3413 
Q 2913 3413 3172 3097 
Q 3431 2781 3431 2113 
L 3431 331 
L 3944 331 
L 3944 0 
L 2356 0 
L 2356 331 
L 2853 331 
L 2853 1931 
Q 2853 2541 2703 2767 
Q 2553 2994 2175 2994 
Q 1775 2994 1565 2701 
Q 1356 2409 1356 1850 
L 1356 331 
L 1856 331 
L 1856 0 
L 263 0 
z
" transform="scale(0.015625)"/>
       <path id="DejaVuSerif-74" d="M 691 2988 
L 184 2988 
L 184 3322 
L 691 3322 
L 691 4353 
L 1269 4353 
L 1269 3322 
L 2350 3322 
L 2350 2988 
L 1269 2988 
L 1269 878 
Q 1269 456 1350 337 
Q 1431 219 1650 219 
Q 1875 219 1978 351 
Q 2081 484 2088 781 
L 2522 781 
Q 2497 328 2275 118 
Q 2053 -91 1600 -91 
Q 1103 -91 897 129 
Q 691 350 691 878 
L 691 2988 
z
" transform="scale(0.015625)"/>
      </defs>
      <use xlink:href="#DejaVuSerif-45"/>
      <use xlink:href="#DejaVuSerif-78" x="72.998047"/>
      <use xlink:href="#DejaVuSerif-70" x="129.394531"/>
      <use xlink:href="#DejaVuSerif-65" x="193.408203"/>
      <use xlink:href="#DejaVuSerif-72" x="252.587891"/>
      <use xlink:href="#DejaVuSerif-69" x="300.390625"/>
      <use xlink:href="#DejaVuSerif-6d" x="332.373047"/>
      <use xlink:href="#DejaVuSerif-65" x="427.197266"/>
      <use xlink:href="#DejaVuSerif-6e" x="486.376953"/>
      <use xlink:href="#DejaVuSerif-74" x="550.78125"/>
     </g>
    </g>
    <g id="line2d_28">
     <path d="M 213.69875 57.494063 
L 224.69875 57.494063 
L 235.69875 57.494063 
" style="fill: none; stroke: #0000ff; stroke-linecap: round"/>
    </g>
    <g id="text_6">
     <!-- Reference model -->
     <g style="fill: #262626" transform="translate(244.49875 61.344063) scale(0.11 -0.11)">
      <defs>
       <path id="DejaVuSerif-52" d="M 3066 2316 
Q 3284 2256 3442 2114 
Q 3600 1972 3725 1716 
L 4403 331 
L 4972 331 
L 4972 0 
L 3872 0 
L 3144 1484 
Q 2934 1916 2759 2042 
Q 2584 2169 2278 2169 
L 1581 2169 
L 1581 331 
L 2241 331 
L 2241 0 
L 353 0 
L 353 331 
L 947 331 
L 947 4331 
L 353 4331 
L 353 4666 
L 2719 4666 
Q 3400 4666 3770 4341 
Q 4141 4016 4141 3419 
Q 4141 2938 3870 2661 
Q 3600 2384 3066 2316 
z
M 1581 2503 
L 2503 2503 
Q 2975 2503 3200 2726 
Q 3425 2950 3425 3419 
Q 3425 3888 3200 4109 
Q 2975 4331 2503 4331 
L 1581 4331 
L 1581 2503 
z
" transform="scale(0.015625)"/>
       <path id="DejaVuSerif-66" d="M 2753 4078 
L 2450 4078 
Q 2447 4313 2317 4434 
Q 2188 4556 1941 4556 
Q 1619 4556 1487 4379 
Q 1356 4203 1356 3750 
L 1356 3322 
L 2284 3322 
L 2284 2988 
L 1356 2988 
L 1356 331 
L 2094 331 
L 2094 0 
L 231 0 
L 231 331 
L 781 331 
L 781 2988 
L 231 2988 
L 231 3322 
L 781 3322 
L 781 3738 
Q 781 4294 1070 4578 
Q 1359 4863 1919 4863 
Q 2128 4863 2337 4825 
Q 2547 4788 2753 4709 
L 2753 4078 
z
" transform="scale(0.015625)"/>
       <path id="DejaVuSerif-63" d="M 3291 997 
Q 3169 466 2822 187 
Q 2475 -91 1925 -91 
Q 1200 -91 759 389 
Q 319 869 319 1663 
Q 319 2459 759 2936 
Q 1200 3413 1925 3413 
Q 2241 3413 2553 3339 
Q 2866 3266 3181 3116 
L 3181 2266 
L 2847 2266 
Q 2781 2703 2561 2903 
Q 2341 3103 1931 3103 
Q 1466 3103 1228 2742 
Q 991 2381 991 1663 
Q 991 944 1227 581 
Q 1463 219 1931 219 
Q 2303 219 2525 412 
Q 2747 606 2828 997 
L 3291 997 
z
" transform="scale(0.015625)"/>
       <path id="DejaVuSerif-6f" d="M 1925 219 
Q 2388 219 2623 584 
Q 2859 950 2859 1663 
Q 2859 2375 2623 2739 
Q 2388 3103 1925 3103 
Q 1463 3103 1227 2739 
Q 991 2375 991 1663 
Q 991 950 1228 584 
Q 1466 219 1925 219 
z
M 1925 -91 
Q 1200 -91 759 389 
Q 319 869 319 1663 
Q 319 2456 758 2934 
Q 1197 3413 1925 3413 
Q 2653 3413 3092 2934 
Q 3531 2456 3531 1663 
Q 3531 869 3092 389 
Q 2653 -91 1925 -91 
z
" transform="scale(0.015625)"/>
       <path id="DejaVuSerif-64" d="M 3359 331 
L 3909 331 
L 3909 0 
L 2784 0 
L 2784 519 
Q 2616 206 2355 57 
Q 2094 -91 1709 -91 
Q 1097 -91 708 395 
Q 319 881 319 1663 
Q 319 2444 706 2928 
Q 1094 3413 1709 3413 
Q 2094 3413 2355 3264 
Q 2616 3116 2784 2803 
L 2784 4531 
L 2241 4531 
L 2241 4863 
L 3359 4863 
L 3359 331 
z
M 2784 1497 
L 2784 1825 
Q 2784 2422 2554 2737 
Q 2325 3053 1888 3053 
Q 1444 3053 1217 2703 
Q 991 2353 991 1663 
Q 991 975 1217 622 
Q 1444 269 1888 269 
Q 2325 269 2554 583 
Q 2784 897 2784 1497 
z
" transform="scale(0.015625)"/>
       <path id="DejaVuSerif-6c" d="M 1313 331 
L 1856 331 
L 1856 0 
L 184 0 
L 184 331 
L 738 331 
L 738 4531 
L 184 4531 
L 184 4863 
L 1313 4863 
L 1313 331 
z
" transform="scale(0.015625)"/>
      </defs>
      <use xlink:href="#DejaVuSerif-52"/>
      <use xlink:href="#DejaVuSerif-65" x="75.292969"/>
      <use xlink:href="#DejaVuSerif-66" x="134.472656"/>
      <use xlink:href="#DejaVuSerif-65" x="171.484375"/>
      <use xlink:href="#DejaVuSerif-72" x="230.664062"/>
      <use xlink:href="#DejaVuSerif-65" x="278.466797"/>
      <use xlink:href="#DejaVuSerif-6e" x="337.646484"/>
      <use xlink:href="#DejaVuSerif-63" x="402.050781"/>
      <use xlink:href="#DejaVuSerif-65" x="458.056641"/>
      <use xlink:href="#DejaVuSerif-20" x="517.236328"/>
      <use xlink:href="#DejaVuSerif-6d" x="549.023438"/>
      <use xlink:href="#DejaVuSerif-6f" x="643.847656"/>
      <use xlink:href="#DejaVuSerif-64" x="704.052734"/>
      <use xlink:href="#DejaVuSerif-65" x="768.066406"/>
      <use xlink:href="#DejaVuSerif-6c" x="827.246094"/>
     </g>
    </g>
    <g id="line2d_29">
     <path d="M 213.69875 73.64 
L 224.69875 73.64 
L 235.69875 73.64 
" style="fill: none; stroke: #008000; stroke-linecap: round"/>
    </g>
    <g id="text_7">
     <!-- Physics informed ID -->
     <g style="fill: #262626" transform="translate(244.49875 77.49) scale(0.11 -0.11)">
      <defs>
       <path id="DejaVuSerif-50" d="M 1581 2375 
L 2406 2375 
Q 2872 2375 3115 2626 
Q 3359 2878 3359 3353 
Q 3359 3831 3115 4081 
Q 2872 4331 2406 4331 
L 1581 4331 
L 1581 2375 
z
M 353 0 
L 353 331 
L 947 331 
L 947 4331 
L 353 4331 
L 353 4666 
L 2559 4666 
Q 3259 4666 3668 4311 
Q 4078 3956 4078 3353 
Q 4078 2753 3668 2397 
Q 3259 2041 2559 2041 
L 1581 2041 
L 1581 331 
L 2303 331 
L 2303 0 
L 353 0 
z
" transform="scale(0.015625)"/>
       <path id="DejaVuSerif-68" d="M 263 0 
L 263 331 
L 781 331 
L 781 4531 
L 231 4531 
L 231 4863 
L 1356 4863 
L 1356 2731 
Q 1516 3069 1770 3241 
Q 2025 3413 2363 3413 
Q 2913 3413 3172 3097 
Q 3431 2781 3431 2113 
L 3431 331 
L 3944 331 
L 3944 0 
L 2356 0 
L 2356 331 
L 2853 331 
L 2853 1931 
Q 2853 2541 2704 2764 
Q 2556 2988 2175 2988 
Q 1775 2988 1565 2697 
Q 1356 2406 1356 1850 
L 1356 331 
L 1856 331 
L 1856 0 
L 263 0 
z
" transform="scale(0.015625)"/>
       <path id="DejaVuSerif-79" d="M 1381 -609 
L 1600 -56 
L 359 2988 
L -19 2988 
L -19 3322 
L 1509 3322 
L 1509 2988 
L 978 2988 
L 1913 703 
L 2847 2988 
L 2350 2988 
L 2350 3322 
L 3597 3322 
L 3597 2988 
L 3225 2988 
L 1703 -750 
Q 1547 -1138 1356 -1280 
Q 1166 -1422 819 -1422 
Q 672 -1422 517 -1397 
Q 363 -1372 206 -1325 
L 206 -691 
L 500 -691 
Q 519 -903 608 -995 
Q 697 -1088 884 -1088 
Q 1056 -1088 1161 -992 
Q 1266 -897 1381 -609 
z
" transform="scale(0.015625)"/>
       <path id="DejaVuSerif-73" d="M 359 184 
L 359 959 
L 691 959 
Q 703 588 923 403 
Q 1144 219 1575 219 
Q 1963 219 2166 364 
Q 2369 509 2369 788 
Q 2369 1006 2220 1140 
Q 2072 1275 1594 1428 
L 1178 1569 
Q 750 1706 558 1912 
Q 366 2119 366 2438 
Q 366 2894 700 3153 
Q 1034 3413 1625 3413 
Q 1888 3413 2178 3344 
Q 2469 3275 2778 3144 
L 2778 2419 
L 2447 2419 
Q 2434 2741 2221 2922 
Q 2009 3103 1644 3103 
Q 1281 3103 1095 2975 
Q 909 2847 909 2591 
Q 909 2381 1050 2254 
Q 1191 2128 1613 1997 
L 2069 1856 
Q 2541 1709 2748 1489 
Q 2956 1269 2956 922 
Q 2956 450 2595 179 
Q 2234 -91 1600 -91 
Q 1278 -91 972 -22 
Q 666 47 359 184 
z
" transform="scale(0.015625)"/>
       <path id="DejaVuSerif-49" d="M 1581 331 
L 2175 331 
L 2175 0 
L 353 0 
L 353 331 
L 947 331 
L 947 4331 
L 353 4331 
L 353 4666 
L 2175 4666 
L 2175 4331 
L 1581 4331 
L 1581 331 
z
" transform="scale(0.015625)"/>
       <path id="DejaVuSerif-44" d="M 1581 331 
L 2163 331 
Q 3072 331 3558 850 
Q 4044 1369 4044 2338 
Q 4044 3306 3559 3818 
Q 3075 4331 2163 4331 
L 1581 4331 
L 1581 331 
z
M 353 0 
L 353 331 
L 947 331 
L 947 4331 
L 353 4331 
L 353 4666 
L 2209 4666 
Q 3416 4666 4089 4050 
Q 4763 3434 4763 2338 
Q 4763 1238 4088 619 
Q 3413 0 2209 0 
L 353 0 
z
" transform="scale(0.015625)"/>
      </defs>
      <use xlink:href="#DejaVuSerif-50"/>
      <use xlink:href="#DejaVuSerif-68" x="67.285156"/>
      <use xlink:href="#DejaVuSerif-79" x="131.689453"/>
      <use xlink:href="#DejaVuSerif-73" x="188.183594"/>
      <use xlink:href="#DejaVuSerif-69" x="239.501953"/>
      <use xlink:href="#DejaVuSerif-63" x="271.484375"/>
      <use xlink:href="#DejaVuSerif-73" x="327.490234"/>
      <use xlink:href="#DejaVuSerif-20" x="378.808594"/>
      <use xlink:href="#DejaVuSerif-69" x="410.595703"/>
      <use xlink:href="#DejaVuSerif-6e" x="442.578125"/>
      <use xlink:href="#DejaVuSerif-66" x="506.982422"/>
      <use xlink:href="#DejaVuSerif-6f" x="543.994141"/>
      <use xlink:href="#DejaVuSerif-72" x="604.199219"/>
      <use xlink:href="#DejaVuSerif-6d" x="652.001953"/>
      <use xlink:href="#DejaVuSerif-65" x="746.826172"/>
      <use xlink:href="#DejaVuSerif-64" x="806.005859"/>
      <use xlink:href="#DejaVuSerif-20" x="870.019531"/>
      <use xlink:href="#DejaVuSerif-49" x="901.806641"/>
      <use xlink:href="#DejaVuSerif-44" x="941.308594"/>
     </g>
    </g>
    <g id="line2d_30">
     <path d="M 213.69875 89.942344 
L 224.69875 89.942344 
L 235.69875 89.942344 
" style="fill: none; stroke: #ff0000; stroke-linecap: round"/>
    </g>
    <g id="text_8">
     <!-- Abkowitz ID -->
     <g style="fill: #262626" transform="translate(244.49875 93.792344) scale(0.11 -0.11)">
      <defs>
       <path id="DejaVuSerif-41" d="M 1281 1691 
L 2994 1691 
L 2138 3909 
L 1281 1691 
z
M -38 0 
L -38 331 
L 372 331 
L 2034 4666 
L 2559 4666 
L 4225 331 
L 4684 331 
L 4684 0 
L 2988 0 
L 2988 331 
L 3506 331 
L 3116 1356 
L 1153 1356 
L 763 331 
L 1275 331 
L 1275 0 
L -38 0 
z
" transform="scale(0.015625)"/>
       <path id="DejaVuSerif-62" d="M 738 331 
L 738 4531 
L 184 4531 
L 184 4863 
L 1313 4863 
L 1313 2803 
Q 1481 3116 1742 3264 
Q 2003 3413 2388 3413 
Q 3000 3413 3387 2928 
Q 3775 2444 3775 1663 
Q 3775 881 3387 395 
Q 3000 -91 2388 -91 
Q 2003 -91 1742 57 
Q 1481 206 1313 519 
L 1313 0 
L 184 0 
L 184 331 
L 738 331 
z
M 1313 1497 
Q 1313 897 1542 583 
Q 1772 269 2209 269 
Q 2650 269 2876 622 
Q 3103 975 3103 1663 
Q 3103 2353 2876 2703 
Q 2650 3053 2209 3053 
Q 1772 3053 1542 2737 
Q 1313 2422 1313 1825 
L 1313 1497 
z
" transform="scale(0.015625)"/>
       <path id="DejaVuSerif-6b" d="M 1831 0 
L 219 0 
L 219 331 
L 738 331 
L 738 4531 
L 184 4531 
L 184 4863 
L 1313 4863 
L 1313 1697 
L 2713 2988 
L 2234 2988 
L 2234 3322 
L 3738 3322 
L 3738 2988 
L 3169 2988 
L 2181 2075 
L 3444 331 
L 3922 331 
L 3922 0 
L 2284 0 
L 2284 331 
L 2759 331 
L 1766 1697 
L 1313 1275 
L 1313 331 
L 1831 331 
L 1831 0 
z
" transform="scale(0.015625)"/>
       <path id="DejaVuSerif-77" d="M 3072 3322 
L 3922 728 
L 4672 2988 
L 4191 2988 
L 4191 3322 
L 5394 3322 
L 5394 2988 
L 5025 2988 
L 4038 0 
L 3559 0 
L 2741 2484 
L 1919 0 
L 1459 0 
L 475 2988 
L 103 2988 
L 103 3322 
L 1606 3322 
L 1606 2988 
L 1069 2988 
L 1813 728 
L 2669 3322 
L 3072 3322 
z
" transform="scale(0.015625)"/>
       <path id="DejaVuSerif-7a" d="M 256 0 
L 256 269 
L 2338 2988 
L 691 2988 
L 691 2413 
L 359 2413 
L 359 3322 
L 3078 3322 
L 3078 3053 
L 997 331 
L 2803 331 
L 2803 934 
L 3138 934 
L 3138 0 
L 256 0 
z
" transform="scale(0.015625)"/>
      </defs>
      <use xlink:href="#DejaVuSerif-41"/>
      <use xlink:href="#DejaVuSerif-62" x="72.216797"/>
      <use xlink:href="#DejaVuSerif-6b" x="136.230469"/>
      <use xlink:href="#DejaVuSerif-6f" x="196.826172"/>
      <use xlink:href="#DejaVuSerif-77" x="257.03125"/>
      <use xlink:href="#DejaVuSerif-69" x="342.626953"/>
      <use xlink:href="#DejaVuSerif-74" x="374.609375"/>
      <use xlink:href="#DejaVuSerif-7a" x="414.794922"/>
      <use xlink:href="#DejaVuSerif-20" x="467.480469"/>
      <use xlink:href="#DejaVuSerif-49" x="499.267578"/>
      <use xlink:href="#DejaVuSerif-44" x="538.769531"/>
     </g>
    </g>
   </g>
  </g>
  <g id="axes_2">
   <g id="patch_5">
    <path d="M 66.054531 204.76 
L 504.504531 204.76 
L 504.504531 105.98 
L 66.054531 105.98 
z
" style="fill: #ffffff"/>
   </g>
   <g id="line2d_31">
    <path d="M 85.984077 155.89037 
L 89.904485 156.038046 
L 92.765323 156.38972 
L 95.732118 156.993799 
L 99.228698 157.939196 
L 103.678891 159.389449 
L 106.751644 160.649795 
L 112.47332 163.329181 
L 117.771169 166.148876 
L 125.611985 170.571499 
L 132.181317 174.642139 
L 142.141273 181.15742 
L 155.068024 190.315729 
L 159.73013 193.62871 
L 163.120754 195.882917 
L 165.663721 197.303949 
L 168.206688 198.460049 
L 170.325828 199.205479 
L 172.656881 199.767173 
L 174.987935 200.085974 
L 177.848773 200.269392 
L 181.239396 200.116209 
L 183.994277 199.778514 
L 187.384901 199.137069 
L 192.258921 197.893866 
L 197.662727 196.134814 
L 202.006963 194.366086 
L 206.245242 192.491451 
L 212.496703 189.410632 
L 216.311154 187.355041 
L 222.138788 184.075284 
L 227.436637 180.956456 
L 246.402935 169.263492 
L 253.819923 164.512651 
L 262.084567 158.886353 
L 274.481533 150.147798 
L 296.414627 134.284569 
L 321.420472 116.140899 
L 324.811096 114.193974 
L 327.565977 112.821215 
L 329.579159 112.061111 
L 331.910213 111.439347 
L 334.241266 111.056268 
L 336.996148 110.833968 
L 339.645072 110.852291 
L 342.399953 111.062879 
L 345.896533 111.617278 
L 348.757372 112.195769 
L 353.631392 113.446099 
L 361.154338 115.85372 
L 367.511756 118.521235 
L 373.33939 121.328333 
L 381.39212 125.522422 
L 389.44485 130.206168 
L 414.874523 145.821369 
L 428.64893 155.04908 
L 440.622068 163.344907 
L 478.978492 190.556386 
L 484.382298 194.346916 
L 484.488255 194.417488 
L 484.488255 194.417488 
" clip-path="url(#pc6ccf8c9a1)" style="fill: none; stroke: #000000; stroke-linecap: round"/>
   </g>
   <g id="line2d_32">
    <path d="M 85.984077 156.417099 
L 86.725776 160.370146 
L 92.977237 191.265053 
L 93.189151 191.22059 
L 93.718936 191.087201 
L 102.195494 191.085811 
L 156.657378 191.085811 
L 156.869292 190.185433 
L 157.505034 186.838196 
L 171.067527 119.918452 
L 171.491355 120.037946 
L 173.186666 120.067125 
L 316.440495 120.064346 
L 316.652409 120.999461 
L 317.076236 123.180932 
L 319.831118 137.013124 
L 319.937075 137.013124 
L 321.950257 147.029827 
L 323.751526 156.069731 
L 325.128966 162.829511 
L 326.612364 170.297923 
L 330.9566 191.280337 
L 331.592342 191.109432 
L 333.711481 191.081643 
L 342.188039 191.083032 
L 480.249976 191.084422 
L 480.46189 190.199328 
L 480.885718 187.974784 
L 482.475072 179.972815 
L 484.276341 170.967648 
L 484.382298 170.967648 
L 484.488255 170.443817 
L 484.488255 170.443817 
" clip-path="url(#pc6ccf8c9a1)" style="fill: none; stroke-dasharray: 5.55,2.4; stroke-dashoffset: 0; stroke: #808080; stroke-width: 1.5"/>
   </g>
   <g id="matplotlib.axis_3">
    <g id="xtick_9">
     <g id="line2d_33">
      <path d="M 85.984077 204.76 
L 85.984077 105.98 
" clip-path="url(#pc6ccf8c9a1)" style="fill: none; stroke: #b0b0b0; stroke-width: 0.8; stroke-linecap: round"/>
     </g>
     <g id="line2d_34"/>
    </g>
    <g id="xtick_10">
     <g id="line2d_35">
      <path d="M 139.271631 204.76 
L 139.271631 105.98 
" clip-path="url(#pc6ccf8c9a1)" style="fill: none; stroke: #b0b0b0; stroke-width: 0.8; stroke-linecap: round"/>
     </g>
     <g id="line2d_36"/>
    </g>
    <g id="xtick_11">
     <g id="line2d_37">
      <path d="M 192.559186 204.76 
L 192.559186 105.98 
" clip-path="url(#pc6ccf8c9a1)" style="fill: none; stroke: #b0b0b0; stroke-width: 0.8; stroke-linecap: round"/>
     </g>
     <g id="line2d_38"/>
    </g>
    <g id="xtick_12">
     <g id="line2d_39">
      <path d="M 245.846741 204.76 
L 245.846741 105.98 
" clip-path="url(#pc6ccf8c9a1)" style="fill: none; stroke: #b0b0b0; stroke-width: 0.8; stroke-linecap: round"/>
     </g>
     <g id="line2d_40"/>
    </g>
    <g id="xtick_13">
     <g id="line2d_41">
      <path d="M 299.134295 204.76 
L 299.134295 105.98 
" clip-path="url(#pc6ccf8c9a1)" style="fill: none; stroke: #b0b0b0; stroke-width: 0.8; stroke-linecap: round"/>
     </g>
     <g id="line2d_42"/>
    </g>
    <g id="xtick_14">
     <g id="line2d_43">
      <path d="M 352.42185 204.76 
L 352.42185 105.98 
" clip-path="url(#pc6ccf8c9a1)" style="fill: none; stroke: #b0b0b0; stroke-width: 0.8; stroke-linecap: round"/>
     </g>
     <g id="line2d_44"/>
    </g>
    <g id="xtick_15">
     <g id="line2d_45">
      <path d="M 405.709405 204.76 
L 405.709405 105.98 
" clip-path="url(#pc6ccf8c9a1)" style="fill: none; stroke: #b0b0b0; stroke-width: 0.8; stroke-linecap: round"/>
     </g>
     <g id="line2d_46"/>
    </g>
    <g id="xtick_16">
     <g id="line2d_47">
      <path d="M 458.99696 204.76 
L 458.99696 105.98 
" clip-path="url(#pc6ccf8c9a1)" style="fill: none; stroke: #b0b0b0; stroke-width: 0.8; stroke-linecap: round"/>
     </g>
     <g id="line2d_48"/>
    </g>
   </g>
   <g id="matplotlib.axis_4">
    <g id="ytick_4">
     <g id="line2d_49">
      <path d="M 66.054531 191.083836 
L 504.504531 191.083836 
" clip-path="url(#pc6ccf8c9a1)" style="fill: none; stroke: #b0b0b0; stroke-width: 0.8; stroke-linecap: round"/>
     </g>
     <g id="line2d_50"/>
     <g id="text_9">
      <!-- −10 -->
      <g style="fill: #262626" transform="translate(39.339375 195.262976) scale(0.11 -0.11)">
       <defs>
        <path id="DejaVuSerif-31" d="M 909 0 
L 909 331 
L 1722 331 
L 1722 4213 
L 781 3603 
L 781 4013 
L 1919 4750 
L 2350 4750 
L 2350 331 
L 3163 331 
L 3163 0 
L 909 0 
z
" transform="scale(0.015625)"/>
       </defs>
       <use xlink:href="#DejaVuSerif-2212"/>
       <use xlink:href="#DejaVuSerif-31" x="83.789062"/>
       <use xlink:href="#DejaVuSerif-30" x="147.412109"/>
      </g>
     </g>
    </g>
    <g id="ytick_5">
     <g id="line2d_51">
      <path d="M 66.054531 155.575079 
L 504.504531 155.575079 
" clip-path="url(#pc6ccf8c9a1)" style="fill: none; stroke: #b0b0b0; stroke-width: 0.8; stroke-linecap: round"/>
     </g>
     <g id="line2d_52"/>
     <g id="text_10">
      <!-- 0 -->
      <g style="fill: #262626" transform="translate(55.555781 159.754219) scale(0.11 -0.11)">
       <use xlink:href="#DejaVuSerif-30"/>
      </g>
     </g>
    </g>
    <g id="ytick_6">
     <g id="line2d_53">
      <path d="M 66.054531 120.066322 
L 504.504531 120.066322 
" clip-path="url(#pc6ccf8c9a1)" style="fill: none; stroke: #b0b0b0; stroke-width: 0.8; stroke-linecap: round"/>
     </g>
     <g id="line2d_54"/>
     <g id="text_11">
      <!-- 10 -->
      <g style="fill: #262626" transform="translate(48.557031 124.245462) scale(0.11 -0.11)">
       <use xlink:href="#DejaVuSerif-31"/>
       <use xlink:href="#DejaVuSerif-30" x="63.623047"/>
      </g>
     </g>
    </g>
    <g id="text_12">
     <!-- $\psi$ $[deg]$ -->
     <g style="fill: #262626" transform="translate(33.029375 175.445) rotate(-90) scale(0.11 -0.11)">
      <defs>
       <path id="DejaVuSans-Oblique-3c8" d="M 1591 -78 
Q 891 38 616 341 
Q 278 713 425 1472 
L 819 3500 
L 1400 3500 
L 1009 1494 
Q 900 922 1119 684 
Q 1313 478 1691 434 
L 2284 3500 
L 2856 3500 
L 2263 438 
Q 2681 481 2928 688 
Q 3247 950 3353 1497 
L 3741 3500 
L 4322 3500 
L 3928 1475 
Q 3775 688 3300 344 
Q 2872 34 2163 -75 
L 1919 -1331 
L 1347 -1331 
L 1591 -78 
z
" transform="scale(0.015625)"/>
      </defs>
      <use xlink:href="#DejaVuSans-Oblique-3c8" transform="translate(0 0.015625)"/>
      <use xlink:href="#DejaVuSerif-20" transform="translate(65.966797 0.015625)"/>
      <use xlink:href="#DejaVuSans-5b" transform="translate(97.753906 0.015625)"/>
      <use xlink:href="#DejaVuSans-Oblique-64" transform="translate(136.767578 0.015625)"/>
      <use xlink:href="#DejaVuSans-Oblique-65" transform="translate(200.244141 0.015625)"/>
      <use xlink:href="#DejaVuSans-Oblique-67" transform="translate(261.767578 0.015625)"/>
      <use xlink:href="#DejaVuSans-5d" transform="translate(325.244141 0.015625)"/>
     </g>
    </g>
   </g>
   <g id="line2d_55">
    <path d="M 85.984077 155.575079 
L 90.993107 155.683848 
L 93.76406 155.968904 
L 96.535013 156.488498 
L 99.625691 157.304496 
L 103.036094 158.43914 
L 106.872798 159.952657 
L 111.242378 161.918564 
L 116.251408 164.419157 
L 122.219614 167.656788 
L 129.146996 171.674374 
L 137.033554 176.515541 
L 146.092438 182.344814 
L 156.536799 189.335942 
L 165.382533 195.225306 
L 168.260061 196.822284 
L 170.711289 197.936017 
L 172.949366 198.711612 
L 175.080868 199.212862 
L 177.318945 199.510468 
L 179.770173 199.610221 
L 182.434551 199.493686 
L 185.418654 199.131522 
L 188.615907 198.517285 
L 192.239461 197.587436 
L 196.289315 196.30847 
L 200.76547 194.657949 
L 205.881075 192.5278 
L 211.636131 189.882044 
L 218.137212 186.647529 
L 225.38432 182.790517 
L 233.377453 178.277368 
L 241.903462 173.202238 
L 251.175496 167.414951 
L 261.726432 160.565778 
L 272.810243 153.117118 
L 285.066381 144.6194 
L 297.215944 135.944586 
L 312.98906 124.375278 
L 325.032047 115.577248 
L 327.909575 113.827923 
L 330.360803 112.59181 
L 332.59888 111.708614 
L 334.730382 111.108499 
L 336.968459 110.70865 
L 339.419687 110.49829 
L 342.084065 110.495349 
L 345.068168 110.723799 
L 348.265421 111.195372 
L 351.7824 111.938612 
L 355.725679 113.003144 
L 360.095258 114.419279 
L 364.997713 116.247162 
L 370.539619 118.560097 
L 376.6144 121.337958 
L 383.435207 124.705794 
L 390.895465 128.639272 
L 398.782023 133.044771 
L 407.308031 138.066649 
L 416.366916 143.666046 
L 427.770452 150.992825 
L 439.173989 158.58294 
L 450.684101 166.516775 
L 463.366539 175.534969 
L 479.139655 187.042681 
L 484.574986 191.069393 
L 484.574986 191.069393 
" clip-path="url(#pc6ccf8c9a1)" style="fill: none; stroke: #0000ff; stroke-linecap: round"/>
   </g>
   <g id="line2d_56">
    <path d="M 85.984077 155.575079 
L 90.993107 155.683999 
L 93.76406 155.969552 
L 96.535013 156.490241 
L 99.625691 157.309086 
L 103.036094 158.45017 
L 106.979373 160.014365 
L 111.455528 162.035968 
L 116.677708 164.646099 
L 122.859065 167.992824 
L 130.212747 172.236484 
L 139.165056 177.674028 
L 149.715992 184.35442 
L 167.62061 195.761995 
L 170.284988 197.041597 
L 172.629641 197.921769 
L 174.761143 198.487629 
L 176.892645 198.823435 
L 179.237297 198.963595 
L 181.7951 198.886034 
L 184.566053 198.57469 
L 187.656731 197.99569 
L 191.067135 197.121057 
L 194.903838 195.89779 
L 199.273418 194.260411 
L 204.175873 192.177925 
L 209.930929 189.48316 
L 216.538586 186.13724 
L 224.211994 181.992725 
L 232.738002 177.135911 
L 242.436337 171.348477 
L 253.306998 164.589404 
L 265.989436 156.443748 
L 279.63105 147.411798 
L 296.150192 136.200179 
L 313.62851 124.062577 
L 325.138622 116.134651 
L 328.01615 114.475783 
L 330.467378 113.306353 
L 332.705455 112.475577 
L 334.836957 111.924051 
L 337.075034 111.583167 
L 339.526262 111.446123 
L 342.19064 111.531405 
L 345.068168 111.852006 
L 348.265421 112.439292 
L 351.7824 113.317258 
L 355.725679 114.537769 
L 360.201833 116.16651 
L 365.210863 118.229835 
L 370.859344 120.799263 
L 377.360426 124.004682 
L 384.820683 127.935633 
L 393.453267 132.739871 
L 402.725302 138.152148 
L 412.743362 144.26258 
L 425.106075 152.075826 
L 439.387139 161.363226 
L 452.922178 170.428602 
L 468.80187 181.32668 
L 482.656634 191.015982 
L 482.656634 191.015982 
" clip-path="url(#pc6ccf8c9a1)" style="fill: none; stroke: #008000; stroke-linecap: round"/>
   </g>
   <g id="line2d_57">
    <path d="M 85.984077 155.575079 
L 91.206257 155.680835 
L 94.19036 155.972624 
L 97.174463 156.502224 
L 100.371716 157.29677 
L 103.888695 158.399327 
L 107.831974 159.875319 
L 112.201554 161.757422 
L 116.997434 164.07041 
L 122.432764 166.944122 
L 128.507545 170.411858 
L 135.434927 174.628877 
L 143.428061 179.763106 
L 152.80667 186.060937 
L 167.833761 196.209832 
L 170.391563 197.546691 
L 172.736216 198.52103 
L 174.867718 199.164184 
L 176.99922 199.57217 
L 179.343873 199.792531 
L 181.901675 199.805417 
L 184.672628 199.594114 
L 187.763306 199.127217 
L 191.067135 198.39915 
L 194.690688 197.369816 
L 198.633967 196.016305 
L 203.003547 194.278236 
L 207.799427 192.127234 
L 213.128182 189.489151 
L 218.989813 186.336283 
L 225.59747 182.52358 
L 233.164303 177.889714 
L 241.690312 172.401625 
L 251.282071 165.960355 
L 262.259308 158.311647 
L 275.261471 148.973141 
L 291.567463 136.971522 
L 312.243034 121.465897 
L 319.703292 115.967884 
L 322.58082 114.140842 
L 325.032047 112.8387 
L 327.270124 111.901513 
L 329.295051 111.286587 
L 331.426554 110.868906 
L 333.771206 110.635043 
L 336.329009 110.604549 
L 339.099961 110.793178 
L 342.19064 111.232422 
L 345.494468 111.929396 
L 349.224597 112.953606 
L 353.167876 114.268136 
L 357.537455 115.961988 
L 362.333335 118.061782 
L 367.555516 120.59186 
L 373.417147 123.684481 
L 379.918228 127.369896 
L 387.165336 131.738757 
L 395.478194 137.019848 
L 404.750229 143.180518 
L 415.514315 150.608907 
L 427.663877 159.267707 
L 441.838367 169.650512 
L 460.275861 183.450286 
L 470.293921 191.043391 
L 470.293921 191.043391 
" clip-path="url(#pc6ccf8c9a1)" style="fill: none; stroke: #ff0000; stroke-linecap: round"/>
   </g>
   <g id="patch_6">
    <path d="M 66.054531 204.76 
L 66.054531 105.98 
" style="fill: none; stroke: #000000; stroke-linejoin: miter; stroke-linecap: square"/>
   </g>
   <g id="patch_7">
    <path d="M 66.054531 204.76 
L 504.504531 204.76 
" style="fill: none; stroke: #000000; stroke-linejoin: miter; stroke-linecap: square"/>
   </g>
  </g>
  <g id="axes_3">
   <g id="patch_8">
    <path d="M 66.054531 303.54 
L 504.504531 303.54 
L 504.504531 204.76 
L 66.054531 204.76 
z
" style="fill: #ffffff"/>
   </g>
   <g id="line2d_58">
    <path d="M 85.984077 254.726704 
L 86.831732 254.790934 
L 87.573431 255.086999 
L 88.421087 255.824407 
L 89.586614 257.279586 
L 90.752141 259.068936 
L 92.129581 261.6267 
L 95.414247 267.476649 
L 97.003602 269.565914 
L 100.076354 272.93526 
L 101.135924 273.796914 
L 102.513365 274.490003 
L 103.149106 275.030516 
L 104.42059 276.484136 
L 107.493342 280.258565 
L 108.764826 281.502321 
L 109.612482 281.860453 
L 110.883966 282.341384 
L 111.731621 282.879879 
L 112.685234 283.659119 
L 115.546072 285.782889 
L 117.665212 286.734061 
L 119.042653 286.991071 
L 119.784351 286.749775 
L 120.632007 286.624934 
L 121.479663 286.81174 
L 122.64519 287.621608 
L 124.658372 289.154069 
L 126.035813 289.626987 
L 127.095383 290.111193 
L 128.048995 290.460529 
L 129.002608 290.74084 
L 130.909834 291.175672 
L 131.969403 291.62 
L 134.724285 292.873553 
L 137.373209 293.317874 
L 138.432779 292.662068 
L 139.068521 292.370743 
L 139.598305 292.359136 
L 140.234047 292.497178 
L 141.399574 293.184825 
L 144.048498 295.106943 
L 144.790197 295.190305 
L 146.167638 295.387288 
L 147.121251 295.44014 
L 147.968906 295.534251 
L 149.982089 296.019992 
L 150.723788 296.216808 
L 152.207185 296.464168 
L 153.160798 296.361369 
L 153.584626 296.208528 
L 154.008454 296.251222 
L 155.279938 296.753967 
L 155.703765 296.821127 
L 158.140776 296.121928 
L 158.670561 295.891553 
L 160.365872 294.777575 
L 161.637356 293.38259 
L 162.590969 291.928731 
L 163.756495 289.528662 
L 165.663721 284.88452 
L 169.478172 274.447217 
L 173.292623 263.223421 
L 174.776021 259.673509 
L 175.729633 257.989084 
L 177.530902 255.094206 
L 178.484515 252.833852 
L 179.226214 251.34339 
L 180.179826 250.062853 
L 181.663224 248.092837 
L 182.722794 246.501789 
L 184.735976 243.473391 
L 185.583632 242.519605 
L 186.537245 241.534402 
L 188.762341 239.014253 
L 189.398083 238.689969 
L 190.457653 238.119604 
L 191.199352 237.403468 
L 192.788706 235.495103 
L 195.649545 233.655285 
L 196.921028 233.14319 
L 197.768684 232.288055 
L 199.99378 229.644491 
L 202.218877 228.62802 
L 203.702275 228.240429 
L 204.443973 227.641717 
L 205.6095 226.475936 
L 206.351199 226.005849 
L 207.198855 225.521366 
L 208.152467 224.922485 
L 209.317994 224.27549 
L 211.437134 223.751832 
L 212.708617 223.535987 
L 213.66223 222.940059 
L 215.993283 221.489612 
L 218.21838 220.814354 
L 218.960079 220.484047 
L 220.65539 220.160091 
L 221.71496 219.72257 
L 224.046013 219.319415 
L 225.317497 218.786518 
L 227.33068 218.267177 
L 228.072379 218.070465 
L 229.025991 218.154368 
L 229.979604 218.753448 
L 230.403432 218.887711 
L 230.82726 218.823613 
L 231.568959 218.460639 
L 234.959582 216.975114 
L 235.913195 216.957301 
L 237.926377 216.73811 
L 239.833603 216.958636 
L 240.787215 216.84115 
L 241.740828 216.705766 
L 242.482527 216.609874 
L 243.542097 216.230273 
L 244.707623 215.859772 
L 247.356548 216.436126 
L 248.204204 216.975415 
L 248.733988 217.122541 
L 249.157816 217.086334 
L 249.687601 216.859721 
L 252.230569 215.186049 
L 253.290138 214.755429 
L 256.892675 214.32183 
L 258.905858 213.537132 
L 260.389255 213.087043 
L 262.084567 212.901311 
L 263.144137 212.89602 
L 263.991793 212.768842 
L 265.263276 212.59279 
L 265.793061 212.938145 
L 266.640717 213.73846 
L 267.064545 213.89829 
L 267.488373 213.861182 
L 267.912201 213.571731 
L 268.547942 212.909353 
L 269.289641 212.204428 
L 269.925383 211.744911 
L 271.620695 211.121394 
L 272.892178 211.35694 
L 273.633877 211.430262 
L 274.269619 211.49991 
L 275.329189 211.61206 
L 276.918543 211.284387 
L 279.461511 210.738016 
L 280.309167 210.859901 
L 281.262779 210.89681 
L 282.64022 210.731943 
L 283.593833 210.854357 
L 284.865316 211.897397 
L 285.501058 212.194618 
L 286.1368 212.246371 
L 286.666585 212.066321 
L 288.361897 211.165064 
L 289.103595 211.078476 
L 289.739337 211.034117 
L 291.010821 210.870946 
L 292.070391 210.828864 
L 292.812089 210.86834 
L 293.659745 210.931239 
L 294.083573 211.074158 
L 294.825272 211.312971 
L 295.355057 211.214338 
L 296.30867 210.941409 
L 296.944411 210.869041 
L 297.474196 210.701611 
L 298.427809 210.331683 
L 299.169508 210.372265 
L 299.911207 210.483725 
L 300.970776 210.52488 
L 301.818432 210.687002 
L 302.348217 211.116596 
L 303.195873 211.942867 
L 303.725658 212.12386 
L 304.255443 212.12468 
L 304.785227 211.884887 
L 305.526926 211.502116 
L 306.162668 211.078438 
L 306.904367 210.707857 
L 309.341377 210.16111 
L 310.718818 210.09035 
L 311.884345 210.110337 
L 313.367742 210.213964 
L 314.215398 210.187259 
L 315.804753 210.093675 
L 316.758366 210.082022 
L 318.34772 210.869281 
L 319.301333 211.760541 
L 320.148989 212.899917 
L 320.890688 214.519877 
L 322.374085 217.535992 
L 326.718321 225.834279 
L 327.989805 229.044019 
L 329.473202 233.661109 
L 331.804256 240.954102 
L 333.499567 245.376256 
L 334.877008 248.455338 
L 336.148492 250.764567 
L 337.631889 253.442982 
L 338.903373 255.677132 
L 340.386771 257.749698 
L 342.717824 261.300528 
L 344.519093 264.073233 
L 345.366748 264.988216 
L 346.00249 265.384679 
L 346.850146 265.862404 
L 347.485888 266.516337 
L 349.287156 268.5098 
L 351.61821 269.750896 
L 352.571823 270.729098 
L 354.05522 272.441471 
L 354.796919 272.904211 
L 355.644575 273.072182 
L 356.598188 273.134956 
L 357.657757 273.088989 
L 358.399456 273.342631 
L 359.141155 273.880054 
L 359.988811 274.794473 
L 360.73051 275.76166 
L 361.790079 277.107752 
L 362.849649 277.944565 
L 368.253455 281.357909 
L 369.101111 281.936021 
L 370.584508 282.559827 
L 371.114293 282.720454 
L 372.385777 283.431209 
L 374.081088 284.248934 
L 375.034701 284.509999 
L 377.153841 284.257749 
L 377.789582 284.570389 
L 383.193388 287.82813 
L 384.358915 288.075909 
L 385.630398 288.466888 
L 386.372097 288.669287 
L 388.279323 288.987634 
L 391.140161 290.132691 
L 392.305688 290.306803 
L 393.047387 290.253844 
L 393.683128 289.813776 
L 394.636741 289.171731 
L 395.37844 288.977005 
L 396.014182 289.113332 
L 397.391623 289.725641 
L 398.345235 290.191071 
L 400.040547 290.552932 
L 401.735858 290.69986 
L 402.901385 290.812921 
L 404.702654 290.593092 
L 405.762223 290.898227 
L 407.563492 291.45779 
L 408.623062 291.552716 
L 409.682632 291.796945 
L 411.695814 291.923856 
L 413.179212 291.184858 
L 413.814953 291.262897 
L 414.450695 291.540478 
L 416.357921 292.797725 
L 417.841318 293.350631 
L 418.900888 293.454658 
L 421.443856 293.557239 
L 422.821296 293.55172 
L 425.15235 293.954741 
L 426.000005 293.812201 
L 426.847661 293.96514 
L 428.331059 294.362276 
L 429.814457 294.50995 
L 432.039553 293.875629 
L 432.675295 294.126337 
L 435.112305 295.371893 
L 435.854004 295.627375 
L 436.277832 295.434875 
L 436.70166 295.129966 
L 437.231445 295.061055 
L 437.973143 295.254536 
L 439.350584 295.719473 
L 440.410154 295.798853 
L 442.105465 295.858908 
L 444.860347 295.714889 
L 447.933099 295.816357 
L 448.568841 295.353225 
L 449.416497 294.809023 
L 450.264152 294.668195 
L 450.899894 294.803084 
L 453.019034 295.640321 
L 453.760733 295.882052 
L 455.350087 296.546995 
L 455.985829 296.63055 
L 456.939442 296.529759 
L 457.681141 296.493823 
L 458.210925 296.429175 
L 459.376452 296.385416 
L 460.541979 296.547479 
L 461.389635 296.707506 
L 463.190903 296.701475 
L 464.144516 296.634022 
L 464.780258 296.303957 
L 465.204086 295.988336 
L 465.627914 295.961396 
L 466.263655 296.024848 
L 466.79344 295.815867 
L 467.111311 295.584139 
L 467.747053 295.129342 
L 468.170881 295.072078 
L 468.806623 295.254922 
L 471.667461 296.338374 
L 472.621074 296.510246 
L 473.256816 296.46052 
L 474.104472 296.494129 
L 475.164041 296.690875 
L 478.130837 296.474018 
L 479.720191 296.707677 
L 480.779761 296.670229 
L 481.097632 296.475456 
L 482.157202 295.148157 
L 482.686986 294.931077 
L 483.746556 294.668849 
L 484.382298 294.182091 
L 484.488255 294.042837 
L 484.488255 294.042837 
" clip-path="url(#pc7468ef5c3)" style="fill: none; stroke: #000000; stroke-linecap: round"/>
   </g>
   <g id="matplotlib.axis_5">
    <g id="xtick_17">
     <g id="line2d_59">
      <path d="M 85.984077 303.54 
L 85.984077 204.76 
" clip-path="url(#pc7468ef5c3)" style="fill: none; stroke: #b0b0b0; stroke-width: 0.8; stroke-linecap: round"/>
     </g>
     <g id="line2d_60"/>
     <g id="text_13">
      <!-- 0 -->
      <g style="fill: #262626" transform="translate(82.484702 315.398281) scale(0.11 -0.11)">
       <use xlink:href="#DejaVuSerif-30"/>
      </g>
     </g>
    </g>
    <g id="xtick_18">
     <g id="line2d_61">
      <path d="M 139.271631 303.54 
L 139.271631 204.76 
" clip-path="url(#pc7468ef5c3)" style="fill: none; stroke: #b0b0b0; stroke-width: 0.8; stroke-linecap: round"/>
     </g>
     <g id="line2d_62"/>
     <g id="text_14">
      <!-- 5 -->
      <g style="fill: #262626" transform="translate(135.772256 315.398281) scale(0.11 -0.11)">
       <use xlink:href="#DejaVuSerif-35"/>
      </g>
     </g>
    </g>
    <g id="xtick_19">
     <g id="line2d_63">
      <path d="M 192.559186 303.54 
L 192.559186 204.76 
" clip-path="url(#pc7468ef5c3)" style="fill: none; stroke: #b0b0b0; stroke-width: 0.8; stroke-linecap: round"/>
     </g>
     <g id="line2d_64"/>
     <g id="text_15">
      <!-- 10 -->
      <g style="fill: #262626" transform="translate(185.560436 315.398281) scale(0.11 -0.11)">
       <use xlink:href="#DejaVuSerif-31"/>
       <use xlink:href="#DejaVuSerif-30" x="63.623047"/>
      </g>
     </g>
    </g>
    <g id="xtick_20">
     <g id="line2d_65">
      <path d="M 245.846741 303.54 
L 245.846741 204.76 
" clip-path="url(#pc7468ef5c3)" style="fill: none; stroke: #b0b0b0; stroke-width: 0.8; stroke-linecap: round"/>
     </g>
     <g id="line2d_66"/>
     <g id="text_16">
      <!-- 15 -->
      <g style="fill: #262626" transform="translate(238.847991 315.398281) scale(0.11 -0.11)">
       <use xlink:href="#DejaVuSerif-31"/>
       <use xlink:href="#DejaVuSerif-35" x="63.623047"/>
      </g>
     </g>
    </g>
    <g id="xtick_21">
     <g id="line2d_67">
      <path d="M 299.134295 303.54 
L 299.134295 204.76 
" clip-path="url(#pc7468ef5c3)" style="fill: none; stroke: #b0b0b0; stroke-width: 0.8; stroke-linecap: round"/>
     </g>
     <g id="line2d_68"/>
     <g id="text_17">
      <!-- 20 -->
      <g style="fill: #262626" transform="translate(292.135545 315.398281) scale(0.11 -0.11)">
       <defs>
        <path id="DejaVuSerif-32" d="M 819 3553 
L 469 3553 
L 469 4384 
Q 803 4563 1142 4656 
Q 1481 4750 1806 4750 
Q 2534 4750 2956 4397 
Q 3378 4044 3378 3438 
Q 3378 2753 2422 1800 
Q 2347 1728 2309 1691 
L 1131 513 
L 3078 513 
L 3078 1088 
L 3444 1088 
L 3444 0 
L 434 0 
L 434 341 
L 1850 1753 
Q 2319 2222 2519 2614 
Q 2719 3006 2719 3438 
Q 2719 3909 2473 4175 
Q 2228 4441 1797 4441 
Q 1350 4441 1106 4219 
Q 863 3997 819 3553 
z
" transform="scale(0.015625)"/>
       </defs>
       <use xlink:href="#DejaVuSerif-32"/>
       <use xlink:href="#DejaVuSerif-30" x="63.623047"/>
      </g>
     </g>
    </g>
    <g id="xtick_22">
     <g id="line2d_69">
      <path d="M 352.42185 303.54 
L 352.42185 204.76 
" clip-path="url(#pc7468ef5c3)" style="fill: none; stroke: #b0b0b0; stroke-width: 0.8; stroke-linecap: round"/>
     </g>
     <g id="line2d_70"/>
     <g id="text_18">
      <!-- 25 -->
      <g style="fill: #262626" transform="translate(345.4231 315.398281) scale(0.11 -0.11)">
       <use xlink:href="#DejaVuSerif-32"/>
       <use xlink:href="#DejaVuSerif-35" x="63.623047"/>
      </g>
     </g>
    </g>
    <g id="xtick_23">
     <g id="line2d_71">
      <path d="M 405.709405 303.54 
L 405.709405 204.76 
" clip-path="url(#pc7468ef5c3)" style="fill: none; stroke: #b0b0b0; stroke-width: 0.8; stroke-linecap: round"/>
     </g>
     <g id="line2d_72"/>
     <g id="text_19">
      <!-- 30 -->
      <g style="fill: #262626" transform="translate(398.710655 315.398281) scale(0.11 -0.11)">
       <defs>
        <path id="DejaVuSerif-33" d="M 622 4469 
Q 988 4606 1323 4678 
Q 1659 4750 1953 4750 
Q 2638 4750 3022 4454 
Q 3406 4159 3406 3634 
Q 3406 3213 3140 2930 
Q 2875 2647 2388 2547 
Q 2963 2466 3280 2130 
Q 3597 1794 3597 1259 
Q 3597 606 3158 257 
Q 2719 -91 1894 -91 
Q 1528 -91 1179 -12 
Q 831 66 488 225 
L 488 1131 
L 838 1131 
Q 869 681 1141 450 
Q 1413 219 1906 219 
Q 2384 219 2661 495 
Q 2938 772 2938 1253 
Q 2938 1803 2653 2086 
Q 2369 2369 1819 2369 
L 1522 2369 
L 1522 2688 
L 1678 2688 
Q 2225 2688 2498 2914 
Q 2772 3141 2772 3597 
Q 2772 4006 2547 4223 
Q 2322 4441 1900 4441 
Q 1478 4441 1245 4241 
Q 1013 4041 972 3647 
L 622 3647 
L 622 4469 
z
" transform="scale(0.015625)"/>
       </defs>
       <use xlink:href="#DejaVuSerif-33"/>
       <use xlink:href="#DejaVuSerif-30" x="63.623047"/>
      </g>
     </g>
    </g>
    <g id="xtick_24">
     <g id="line2d_73">
      <path d="M 458.99696 303.54 
L 458.99696 204.76 
" clip-path="url(#pc7468ef5c3)" style="fill: none; stroke: #b0b0b0; stroke-width: 0.8; stroke-linecap: round"/>
     </g>
     <g id="line2d_74"/>
     <g id="text_20">
      <!-- 35 -->
      <g style="fill: #262626" transform="translate(451.99821 315.398281) scale(0.11 -0.11)">
       <use xlink:href="#DejaVuSerif-33"/>
       <use xlink:href="#DejaVuSerif-35" x="63.623047"/>
      </g>
     </g>
    </g>
    <g id="text_21">
     <!-- Time [s] -->
     <g style="fill: #262626" transform="translate(262.518984 330.044219) scale(0.11 -0.11)">
      <defs>
       <path id="DejaVuSerif-54" d="M 1222 0 
L 1222 331 
L 1819 331 
L 1819 4294 
L 447 4294 
L 447 3566 
L 63 3566 
L 63 4666 
L 4206 4666 
L 4206 3566 
L 3822 3566 
L 3822 4294 
L 2450 4294 
L 2450 331 
L 3047 331 
L 3047 0 
L 1222 0 
z
" transform="scale(0.015625)"/>
       <path id="DejaVuSerif-5b" d="M 550 4863 
L 2003 4863 
L 2003 4531 
L 1147 4531 
L 1147 -513 
L 2003 -513 
L 2003 -844 
L 550 -844 
L 550 4863 
z
" transform="scale(0.015625)"/>
       <path id="DejaVuSerif-5d" d="M 1947 4863 
L 1947 -844 
L 494 -844 
L 494 -513 
L 1350 -513 
L 1350 4531 
L 494 4531 
L 494 4863 
L 1947 4863 
z
" transform="scale(0.015625)"/>
      </defs>
      <use xlink:href="#DejaVuSerif-54"/>
      <use xlink:href="#DejaVuSerif-69" x="66.699219"/>
      <use xlink:href="#DejaVuSerif-6d" x="98.681641"/>
      <use xlink:href="#DejaVuSerif-65" x="193.505859"/>
      <use xlink:href="#DejaVuSerif-20" x="252.685547"/>
      <use xlink:href="#DejaVuSerif-5b" x="284.472656"/>
      <use xlink:href="#DejaVuSerif-73" x="323.486328"/>
      <use xlink:href="#DejaVuSerif-5d" x="374.804688"/>
     </g>
    </g>
   </g>
   <g id="matplotlib.axis_6">
    <g id="ytick_7">
     <g id="line2d_75">
      <path d="M 66.054531 282.278751 
L 504.504531 282.278751 
" clip-path="url(#pc7468ef5c3)" style="fill: none; stroke: #b0b0b0; stroke-width: 0.8; stroke-linecap: round"/>
     </g>
     <g id="line2d_76"/>
     <g id="text_22">
      <!-- −0.025 -->
      <g style="fill: #262626" transform="translate(21.845937 286.457892) scale(0.11 -0.11)">
       <defs>
        <path id="DejaVuSerif-2e" d="M 603 325 
Q 603 500 722 622 
Q 841 744 1019 744 
Q 1191 744 1312 622 
Q 1434 500 1434 325 
Q 1434 153 1312 31 
Q 1191 -91 1019 -91 
Q 841 -91 722 29 
Q 603 150 603 325 
z
" transform="scale(0.015625)"/>
       </defs>
       <use xlink:href="#DejaVuSerif-2212"/>
       <use xlink:href="#DejaVuSerif-30" x="83.789062"/>
       <use xlink:href="#DejaVuSerif-2e" x="147.412109"/>
       <use xlink:href="#DejaVuSerif-30" x="179.199219"/>
       <use xlink:href="#DejaVuSerif-32" x="242.822266"/>
       <use xlink:href="#DejaVuSerif-35" x="306.445312"/>
      </g>
     </g>
    </g>
    <g id="ytick_8">
     <g id="line2d_77">
      <path d="M 66.054531 254.014667 
L 504.504531 254.014667 
" clip-path="url(#pc7468ef5c3)" style="fill: none; stroke: #b0b0b0; stroke-width: 0.8; stroke-linecap: round"/>
     </g>
     <g id="line2d_78"/>
     <g id="text_23">
      <!-- 0.000 -->
      <g style="fill: #262626" transform="translate(31.063594 258.193808) scale(0.11 -0.11)">
       <use xlink:href="#DejaVuSerif-30"/>
       <use xlink:href="#DejaVuSerif-2e" x="63.623047"/>
       <use xlink:href="#DejaVuSerif-30" x="95.410156"/>
       <use xlink:href="#DejaVuSerif-30" x="159.033203"/>
       <use xlink:href="#DejaVuSerif-30" x="222.65625"/>
      </g>
     </g>
    </g>
    <g id="ytick_9">
     <g id="line2d_79">
      <path d="M 66.054531 225.750583 
L 504.504531 225.750583 
" clip-path="url(#pc7468ef5c3)" style="fill: none; stroke: #b0b0b0; stroke-width: 0.8; stroke-linecap: round"/>
     </g>
     <g id="line2d_80"/>
     <g id="text_24">
      <!-- 0.025 -->
      <g style="fill: #262626" transform="translate(31.063594 229.929724) scale(0.11 -0.11)">
       <use xlink:href="#DejaVuSerif-30"/>
       <use xlink:href="#DejaVuSerif-2e" x="63.623047"/>
       <use xlink:href="#DejaVuSerif-30" x="95.410156"/>
       <use xlink:href="#DejaVuSerif-32" x="159.033203"/>
       <use xlink:href="#DejaVuSerif-35" x="222.65625"/>
      </g>
     </g>
    </g>
    <g id="text_25">
     <!-- $r$ $[rad/s]$ -->
     <g style="fill: #262626" transform="translate(15.558281 276.315) rotate(-90) scale(0.11 -0.11)">
      <defs>
       <path id="DejaVuSans-Oblique-72" d="M 2853 2969 
Q 2766 3016 2653 3041 
Q 2541 3066 2413 3066 
Q 1953 3066 1609 2717 
Q 1266 2369 1153 1784 
L 800 0 
L 225 0 
L 909 3500 
L 1484 3500 
L 1375 2956 
Q 1603 3259 1920 3421 
Q 2238 3584 2597 3584 
Q 2691 3584 2781 3573 
Q 2872 3563 2963 3538 
L 2853 2969 
z
" transform="scale(0.015625)"/>
       <path id="DejaVuSans-Oblique-61" d="M 3438 1997 
L 3047 0 
L 2472 0 
L 2578 531 
Q 2325 219 2001 64 
Q 1678 -91 1281 -91 
Q 834 -91 548 182 
Q 263 456 263 884 
Q 263 1497 752 1853 
Q 1241 2209 2100 2209 
L 2900 2209 
L 2931 2363 
Q 2938 2388 2941 2417 
Q 2944 2447 2944 2509 
Q 2944 2788 2717 2942 
Q 2491 3097 2081 3097 
Q 1800 3097 1504 3025 
Q 1209 2953 897 2809 
L 997 3341 
Q 1322 3463 1633 3523 
Q 1944 3584 2234 3584 
Q 2853 3584 3176 3315 
Q 3500 3047 3500 2534 
Q 3500 2431 3484 2292 
Q 3469 2153 3438 1997 
z
M 2816 1759 
L 2241 1759 
Q 1534 1759 1195 1570 
Q 856 1381 856 984 
Q 856 709 1029 553 
Q 1203 397 1509 397 
Q 1978 397 2328 733 
Q 2678 1069 2791 1631 
L 2816 1759 
z
" transform="scale(0.015625)"/>
       <path id="DejaVuSans-2f" d="M 1625 4666 
L 2156 4666 
L 531 -594 
L 0 -594 
L 1625 4666 
z
" transform="scale(0.015625)"/>
       <path id="DejaVuSans-Oblique-73" d="M 3200 3397 
L 3091 2853 
Q 2863 2978 2609 3040 
Q 2356 3103 2088 3103 
Q 1634 3103 1373 2948 
Q 1113 2794 1113 2528 
Q 1113 2219 1719 2053 
Q 1766 2041 1788 2034 
L 1972 1978 
Q 2547 1819 2739 1644 
Q 2931 1469 2931 1166 
Q 2931 609 2489 259 
Q 2047 -91 1331 -91 
Q 1053 -91 747 -37 
Q 441 16 72 128 
L 184 722 
Q 500 559 806 475 
Q 1113 391 1394 391 
Q 1816 391 2080 572 
Q 2344 753 2344 1031 
Q 2344 1331 1650 1516 
L 1591 1531 
L 1394 1581 
Q 956 1697 753 1886 
Q 550 2075 550 2369 
Q 550 2928 970 3256 
Q 1391 3584 2113 3584 
Q 2397 3584 2667 3537 
Q 2938 3491 3200 3397 
z
" transform="scale(0.015625)"/>
      </defs>
      <use xlink:href="#DejaVuSans-Oblique-72" transform="translate(0 0.015625)"/>
      <use xlink:href="#DejaVuSerif-20" transform="translate(41.113281 0.015625)"/>
      <use xlink:href="#DejaVuSans-5b" transform="translate(72.900391 0.015625)"/>
      <use xlink:href="#DejaVuSans-Oblique-72" transform="translate(111.914062 0.015625)"/>
      <use xlink:href="#DejaVuSans-Oblique-61" transform="translate(153.027344 0.015625)"/>
      <use xlink:href="#DejaVuSans-Oblique-64" transform="translate(214.306641 0.015625)"/>
      <use xlink:href="#DejaVuSans-2f" transform="translate(277.783203 0.015625)"/>
      <use xlink:href="#DejaVuSans-Oblique-73" transform="translate(311.474609 0.015625)"/>
      <use xlink:href="#DejaVuSans-5d" transform="translate(363.574219 0.015625)"/>
     </g>
    </g>
   </g>
   <g id="line2d_81">
    <path d="M 85.984077 254.014667 
L 86.836678 254.132846 
L 87.795854 254.538489 
L 88.75503 255.21423 
L 89.820781 256.273277 
L 90.886532 257.636247 
L 92.058858 259.47809 
L 93.444334 262.059453 
L 95.362686 265.52102 
L 97.387613 268.700258 
L 99.41254 271.462361 
L 101.650618 274.108043 
L 103.888695 276.408459 
L 106.126772 278.435342 
L 109.0043 280.659631 
L 111.775253 282.47589 
L 114.439631 283.979048 
L 117.317159 285.376563 
L 120.088112 286.500127 
L 124.457691 287.992995 
L 128.933846 289.327869 
L 132.5574 290.264805 
L 137.673005 291.400045 
L 142.149159 292.254952 
L 150.355443 293.574489 
L 159.201177 294.642678 
L 160.053778 294.5903 
L 161.012954 294.288242 
L 161.97213 293.694641 
L 162.931306 292.846319 
L 164.103632 291.479111 
L 165.275958 289.749931 
L 166.554859 287.470862 
L 168.153486 284.143853 
L 169.752113 280.293476 
L 171.670465 275.037497 
L 176.892645 260.139267 
L 178.704422 256.042438 
L 180.622774 252.261234 
L 182.541126 248.936256 
L 184.459478 246.021647 
L 186.697555 243.000324 
L 188.935632 240.371199 
L 191.280285 237.945184 
L 193.731512 235.724231 
L 196.60904 233.468572 
L 199.699718 231.39496 
L 202.683821 229.680801 
L 206.094225 227.933918 
L 209.398053 226.493455 
L 212.275581 225.443212 
L 218.137212 223.505746 
L 222.613367 222.255113 
L 229.221024 220.608225 
L 234.97608 219.328494 
L 239.878535 218.276159 
L 244.674415 217.359638 
L 250.00317 216.487169 
L 254.692475 215.783914 
L 261.086981 214.999171 
L 265.563136 214.406237 
L 270.145866 213.860735 
L 291.460888 211.692362 
L 298.494845 210.985502 
L 305.635377 210.54354 
L 319.809867 209.820151 
L 320.555892 210.127889 
L 321.515068 210.761362 
L 322.474244 211.641111 
L 323.646571 213.070552 
L 324.818897 214.866736 
L 326.097798 217.187096 
L 327.696425 220.600853 
L 329.295051 224.517073 
L 331.213403 229.824077 
L 333.451481 236.731751 
L 335.156682 241.659075 
L 336.968459 246.215987 
L 338.780236 250.205558 
L 340.805163 254.084451 
L 342.723515 257.281067 
L 344.855017 260.409345 
L 347.093095 263.304698 
L 349.544322 266.060443 
L 351.888975 268.373788 
L 354.659927 270.78101 
L 357.537455 272.981386 
L 360.308408 274.792369 
L 363.718812 276.767258 
L 367.23579 278.51929 
L 371.285645 280.224868 
L 376.081524 282.020466 
L 380.237954 283.335653 
L 387.591636 285.376173 
L 391.108615 286.195876 
L 397.822847 287.79303 
L 404.217353 289.122708 
L 415.83404 291.299449 
L 425.852101 292.525523 
L 443.543569 294.674494 
L 451.323552 295.56156 
L 465.071741 296.806905 
L 470.720222 297.211938 
L 474.876651 297.484976 
L 479.779106 297.756677 
L 484.574986 298.063704 
L 484.574986 298.063704 
" clip-path="url(#pc7468ef5c3)" style="fill: none; stroke: #0000ff; stroke-linecap: round"/>
   </g>
   <g id="line2d_82">
    <path d="M 85.984077 254.014667 
L 86.836678 254.132873 
L 87.795854 254.538728 
L 88.75503 255.21502 
L 89.820781 256.274317 
L 90.993107 257.795942 
L 92.165433 259.663422 
L 93.870635 262.888372 
L 95.895562 266.428201 
L 97.920489 269.512433 
L 99.945416 272.213764 
L 102.076918 274.693829 
L 104.314996 276.921415 
L 106.979373 279.179696 
L 109.537176 281.010261 
L 111.988403 282.521375 
L 115.398807 284.308285 
L 118.16976 285.498942 
L 121.473588 286.700403 
L 124.883992 287.771692 
L 133.942876 289.856316 
L 145.559563 291.704926 
L 156.430224 292.797099 
L 160.799803 293.078432 
L 161.865555 292.702081 
L 162.718155 292.161271 
L 163.783907 291.206979 
L 164.956233 289.80534 
L 166.128559 288.045305 
L 167.514035 285.544823 
L 169.112662 282.153397 
L 170.817864 277.988989 
L 172.523066 273.286103 
L 177.851821 258.027901 
L 179.770173 253.708083 
L 181.7951 249.737299 
L 183.820027 246.285921 
L 185.844954 243.256981 
L 188.189607 240.183613 
L 190.321109 237.725126 
L 192.452611 235.59554 
L 195.010414 233.359504 
L 197.568216 231.460002 
L 200.872045 229.311859 
L 203.323272 227.972812 
L 206.733676 226.390845 
L 210.676955 224.85663 
L 215.366259 223.343221 
L 219.202963 222.283732 
L 224.531719 221.086125 
L 231.139376 219.770555 
L 240.62456 218.192612 
L 247.551943 217.229565 
L 257.889728 216.134509 
L 263.964509 215.576011 
L 277.392973 214.440559 
L 292.952939 213.538476 
L 317.038914 212.420092 
L 320.129592 212.425767 
L 320.982193 212.736904 
L 321.941369 213.351564 
L 322.900545 214.231282 
L 323.966296 215.511336 
L 325.245197 217.404013 
L 326.524099 219.691534 
L 328.122725 223.065295 
L 329.827927 227.191298 
L 331.746279 232.452193 
L 333.664631 238.379528 
L 335.476408 243.740744 
L 337.288185 248.402543 
L 339.099961 252.469781 
L 341.124889 256.441449 
L 343.043241 259.723708 
L 345.174743 262.926407 
L 347.19967 265.594226 
L 349.650897 268.435658 
L 351.99555 270.788637 
L 354.979653 273.403342 
L 357.324305 275.160132 
L 360.201833 277.015462 
L 363.185936 278.693679 
L 366.80949 280.436656 
L 370.219893 281.868776 
L 374.589473 283.395089 
L 378.426177 284.526552 
L 383.861507 285.911493 
L 392.174366 287.550024 
L 407.201456 290.083914 
L 415.727465 291.149994 
L 425.4258 292.008747 
L 441.412066 293.271883 
L 451.003826 294.053277 
L 456.652307 294.399147 
L 473.064874 295.358408 
L 482.656634 295.702394 
L 482.656634 295.702394 
" clip-path="url(#pc7468ef5c3)" style="fill: none; stroke: #008000; stroke-linecap: round"/>
   </g>
   <g id="line2d_83">
    <path d="M 85.984077 254.014667 
L 86.836678 254.116338 
L 87.795854 254.464913 
L 88.75503 255.044911 
L 89.820781 255.953789 
L 90.993107 257.275044 
L 92.378583 259.235205 
L 97.494189 267.10731 
L 99.838841 270.053592 
L 102.290068 272.774611 
L 104.847871 275.291933 
L 107.512249 277.614264 
L 110.389777 279.819246 
L 113.480455 281.913019 
L 116.571133 283.735018 
L 119.981537 285.480051 
L 123.711665 287.130267 
L 127.548369 288.62707 
L 131.704799 290.006779 
L 136.607254 291.38938 
L 141.403134 292.520192 
L 147.051614 293.61812 
L 152.913245 294.557593 
L 160.266928 295.509584 
L 161.119529 295.45234 
L 162.078705 295.140462 
L 162.931306 294.637441 
L 163.890482 293.829908 
L 164.956233 292.622409 
L 166.128559 290.923634 
L 167.40746 288.659223 
L 168.792937 285.775509 
L 170.391563 281.855825 
L 172.309915 276.510062 
L 174.441417 269.836101 
L 176.146619 264.705469 
L 177.851821 260.29639 
L 179.663598 256.226277 
L 181.58195 252.447946 
L 183.606877 248.944421 
L 185.738379 245.710101 
L 188.083031 242.564512 
L 190.534259 239.652648 
L 193.092062 236.953598 
L 195.863014 234.3561 
L 198.633967 232.057987 
L 201.831221 229.726496 
L 205.135049 227.592666 
L 208.438877 225.715884 
L 212.382156 223.751176 
L 216.432011 221.987139 
L 220.80159 220.337649 
L 225.490895 218.807631 
L 229.967049 217.566772 
L 235.295805 216.327775 
L 242.010037 215.001582 
L 249.896595 213.689247 
L 257.996303 212.56638 
L 264.071084 211.918565 
L 274.089145 211.010864 
L 283.148029 210.423098 
L 296.256768 209.794505 
L 307.660304 209.400089 
L 314.800837 209.312643 
L 315.653437 209.592593 
L 316.612613 210.143543 
L 317.571789 210.958482 
L 318.63754 212.167564 
L 319.703292 213.713399 
L 320.982193 216.00613 
L 322.367669 218.959935 
L 323.966296 222.923736 
L 325.778073 228.059862 
L 327.909575 234.78399 
L 330.041077 241.55068 
L 331.639704 245.837271 
L 333.451481 250.064872 
L 335.369833 253.957407 
L 337.39476 257.548486 
L 339.526262 260.873975 
L 341.764339 263.965377 
L 344.108992 266.834172 
L 346.666794 269.612851 
L 349.331172 272.171866 
L 352.102125 274.525951 
L 355.192803 276.85801 
L 358.709782 279.226591 
L 362.120185 281.241894 
L 365.743739 283.124273 
L 369.793593 284.974622 
L 374.056597 286.684983 
L 378.532752 288.236145 
L 383.541782 289.728354 
L 389.190263 291.171604 
L 395.158469 292.465072 
L 401.659551 293.644817 
L 408.906658 294.730897 
L 418.072118 295.862849 
L 427.770452 296.836252 
L 438.214813 297.657503 
L 448.126298 298.224519 
L 464.64544 298.891096 
L 470.293921 299.05 
L 470.293921 299.05 
" clip-path="url(#pc7468ef5c3)" style="fill: none; stroke: #ff0000; stroke-linecap: round"/>
   </g>
   <g id="patch_9">
    <path d="M 66.054531 303.54 
L 66.054531 204.76 
" style="fill: none; stroke: #000000; stroke-linejoin: miter; stroke-linecap: square"/>
   </g>
   <g id="patch_10">
    <path d="M 66.054531 303.54 
L 504.504531 303.54 
" style="fill: none; stroke: #000000; stroke-linejoin: miter; stroke-linecap: square"/>
   </g>
  </g>
 </g>
 <defs>
  <clipPath id="p4078f74bcd">
   <rect x="66.054531" y="7.2" width="438.45" height="98.78"/>
  </clipPath>
  <clipPath id="pc6ccf8c9a1">
   <rect x="66.054531" y="105.98" width="438.45" height="98.78"/>
  </clipPath>
  <clipPath id="pc7468ef5c3">
   <rect x="66.054531" y="204.76" width="438.45" height="98.78"/>
  </clipPath>
 </defs>
</svg>
