<?xml version="1.0" encoding="utf-8" standalone="no"?>
<!DOCTYPE svg PUBLIC "-//W3C//DTD SVG 1.1//EN"
  "http://www.w3.org/Graphics/SVG/1.1/DTD/svg11.dtd">
<svg xmlns:xlink="http://www.w3.org/1999/xlink" width="388.997344pt" height="266.540625pt" viewBox="0 0 388.997344 266.540625" xmlns="http://www.w3.org/2000/svg" version="1.1">
 <metadata>
  <rdf:RDF xmlns:dc="http://purl.org/dc/elements/1.1/" xmlns:cc="http://creativecommons.org/ns#" xmlns:rdf="http://www.w3.org/1999/02/22-rdf-syntax-ns#">
   <cc:Work>
    <dc:type rdf:resource="http://purl.org/dc/dcmitype/StillImage"/>
    <dc:date>2024-02-12T15:02:44.637377</dc:date>
    <dc:format>image/svg+xml</dc:format>
    <dc:creator>
     <cc:Agent>
      <dc:title>Matplotlib v3.8.2, https://matplotlib.org/</dc:title>
     </cc:Agent>
    </dc:creator>
   </cc:Work>
  </rdf:RDF>
 </metadata>
 <defs>
  <style type="text/css">*{stroke-linejoin: round; stroke-linecap: butt}</style>
 </defs>
 <g id="figure_1">
  <g id="patch_1">
   <path d="M 0 266.540625 
L 388.997344 266.540625 
L 388.997344 0 
L 0 0 
z
" style="fill: #ffffff"/>
  </g>
  <g id="axes_1">
   <g id="patch_2">
    <path d="M 56.717344 82.94 
L 381.797344 82.94 
L 381.797344 7.2 
L 56.717344 7.2 
z
" style="fill: #ffffff"/>
   </g>
   <g id="line2d_1">
    <path d="M 71.493707 45.177455 
L 73.064061 45.430749 
L 74.791451 45.943389 
L 76.597358 46.711015 
L 79.973618 48.242008 
L 84.056539 50.100315 
L 86.72614 51.602915 
L 95.206051 56.601881 
L 99.053418 58.340997 
L 104.863728 61.002369 
L 110.124413 63.427157 
L 113.97178 64.918696 
L 119.153948 66.679611 
L 122.765762 67.713911 
L 124.964258 68.138849 
L 126.377576 68.156613 
L 127.869412 67.949142 
L 129.439766 67.513902 
L 131.167156 66.805478 
L 132.973063 65.8178 
L 134.77897 64.57167 
L 138.704854 61.505175 
L 141.531491 59.014743 
L 145.771447 54.920701 
L 149.304743 51.63725 
L 152.288416 49.177967 
L 166.971224 37.788282 
L 170.268968 35.756592 
L 176.942972 31.996841 
L 182.12514 29.254616 
L 185.422883 27.779918 
L 189.584321 26.194378 
L 195.708701 23.856891 
L 201.597528 21.560901 
L 205.60193 20.303807 
L 215.809231 17.381214 
L 220.284739 16.325315 
L 226.173566 15.150229 
L 233.868301 13.741119 
L 237.715668 13.266411 
L 240.620822 13.114647 
L 243.054871 13.205003 
L 244.546707 13.52089 
L 246.195579 14.113771 
L 248.080003 15.046897 
L 250.042946 16.274526 
L 251.92737 17.706719 
L 254.047348 19.606592 
L 257.502127 22.941345 
L 260.485799 26.149803 
L 266.531662 32.76878 
L 269.201263 35.276958 
L 272.577524 38.10801 
L 277.681174 42.404714 
L 283.098895 47.003884 
L 285.847015 49.023183 
L 289.301793 51.258761 
L 299.27354 57.292475 
L 302.414248 58.876703 
L 306.10458 60.462637 
L 321.494048 66.596576 
L 326.676216 68.26768 
L 337.197587 71.454285 
L 342.301237 72.535533 
L 355.649245 75.224186 
L 359.889201 75.722519 
L 363.186944 75.922771 
L 364.992851 75.862624 
L 365.935063 75.700677 
L 365.935063 75.700677 
" clip-path="url(#pb113fa2e21)" style="fill: none; stroke: #000000; stroke-width: 0.75; stroke-linecap: round"/>
   </g>
   <g id="matplotlib.axis_1">
    <g id="xtick_1">
     <g id="line2d_2">
      <path d="M 71.493707 82.94 
L 71.493707 7.2 
" clip-path="url(#pb113fa2e21)" style="fill: none; stroke: #b0b0b0; stroke-width: 0.8; stroke-linecap: round"/>
     </g>
     <g id="line2d_3"/>
    </g>
    <g id="xtick_2">
     <g id="line2d_4">
      <path d="M 110.981585 82.94 
L 110.981585 7.2 
" clip-path="url(#pb113fa2e21)" style="fill: none; stroke: #b0b0b0; stroke-width: 0.8; stroke-linecap: round"/>
     </g>
     <g id="line2d_5"/>
    </g>
    <g id="xtick_3">
     <g id="line2d_6">
      <path d="M 150.469462 82.94 
L 150.469462 7.2 
" clip-path="url(#pb113fa2e21)" style="fill: none; stroke: #b0b0b0; stroke-width: 0.8; stroke-linecap: round"/>
     </g>
     <g id="line2d_7"/>
    </g>
    <g id="xtick_4">
     <g id="line2d_8">
      <path d="M 189.957339 82.94 
L 189.957339 7.2 
" clip-path="url(#pb113fa2e21)" style="fill: none; stroke: #b0b0b0; stroke-width: 0.8; stroke-linecap: round"/>
     </g>
     <g id="line2d_9"/>
    </g>
    <g id="xtick_5">
     <g id="line2d_10">
      <path d="M 229.445216 82.94 
L 229.445216 7.2 
" clip-path="url(#pb113fa2e21)" style="fill: none; stroke: #b0b0b0; stroke-width: 0.8; stroke-linecap: round"/>
     </g>
     <g id="line2d_11"/>
    </g>
    <g id="xtick_6">
     <g id="line2d_12">
      <path d="M 268.933093 82.94 
L 268.933093 7.2 
" clip-path="url(#pb113fa2e21)" style="fill: none; stroke: #b0b0b0; stroke-width: 0.8; stroke-linecap: round"/>
     </g>
     <g id="line2d_13"/>
    </g>
    <g id="xtick_7">
     <g id="line2d_14">
      <path d="M 308.42097 82.94 
L 308.42097 7.2 
" clip-path="url(#pb113fa2e21)" style="fill: none; stroke: #b0b0b0; stroke-width: 0.8; stroke-linecap: round"/>
     </g>
     <g id="line2d_15"/>
    </g>
    <g id="xtick_8">
     <g id="line2d_16">
      <path d="M 347.908848 82.94 
L 347.908848 7.2 
" clip-path="url(#pb113fa2e21)" style="fill: none; stroke: #b0b0b0; stroke-width: 0.8; stroke-linecap: round"/>
     </g>
     <g id="line2d_17"/>
    </g>
   </g>
   <g id="matplotlib.axis_2">
    <g id="ytick_1">
     <g id="line2d_18">
      <path d="M 56.717344 70.861549 
L 381.797344 70.861549 
" clip-path="url(#pb113fa2e21)" style="fill: none; stroke: #b0b0b0; stroke-width: 0.8; stroke-linecap: round"/>
     </g>
     <g id="line2d_19"/>
     <g id="text_1">
      <!-- −5 -->
      <g style="fill: #262626" transform="translate(39.949375 74.280846) scale(0.09 -0.09)">
       <defs>
        <path id="DejaVuSerif-2212" d="M 678 2259 
L 4684 2259 
L 4684 1753 
L 678 1753 
L 678 2259 
z
" transform="scale(0.015625)"/>
        <path id="DejaVuSerif-35" d="M 3219 4666 
L 3219 4153 
L 1081 4153 
L 1081 2816 
Q 1244 2928 1461 2984 
Q 1678 3041 1947 3041 
Q 2703 3041 3140 2622 
Q 3578 2203 3578 1478 
Q 3578 738 3136 323 
Q 2694 -91 1894 -91 
Q 1572 -91 1234 -12 
Q 897 66 544 225 
L 544 1131 
L 897 1131 
Q 925 688 1179 453 
Q 1434 219 1894 219 
Q 2388 219 2653 544 
Q 2919 869 2919 1478 
Q 2919 2084 2655 2407 
Q 2391 2731 1894 2731 
Q 1613 2731 1398 2631 
Q 1184 2531 1019 2322 
L 750 2322 
L 750 4666 
L 3219 4666 
z
" transform="scale(0.015625)"/>
       </defs>
       <use xlink:href="#DejaVuSerif-2212"/>
       <use xlink:href="#DejaVuSerif-35" x="83.789062"/>
      </g>
     </g>
    </g>
    <g id="ytick_2">
     <g id="line2d_20">
      <path d="M 56.717344 45.238879 
L 381.797344 45.238879 
" clip-path="url(#pb113fa2e21)" style="fill: none; stroke: #b0b0b0; stroke-width: 0.8; stroke-linecap: round"/>
     </g>
     <g id="line2d_21"/>
     <g id="text_2">
      <!-- 0 -->
      <g style="fill: #262626" transform="translate(47.491094 48.658176) scale(0.09 -0.09)">
       <defs>
        <path id="DejaVuSerif-30" d="M 2034 219 
Q 2513 219 2750 744 
Q 2988 1269 2988 2328 
Q 2988 3391 2750 3916 
Q 2513 4441 2034 4441 
Q 1556 4441 1318 3916 
Q 1081 3391 1081 2328 
Q 1081 1269 1318 744 
Q 1556 219 2034 219 
z
M 2034 -91 
Q 1275 -91 848 546 
Q 422 1184 422 2328 
Q 422 3475 848 4112 
Q 1275 4750 2034 4750 
Q 2797 4750 3222 4112 
Q 3647 3475 3647 2328 
Q 3647 1184 3222 546 
Q 2797 -91 2034 -91 
z
" transform="scale(0.015625)"/>
       </defs>
       <use xlink:href="#DejaVuSerif-30"/>
      </g>
     </g>
    </g>
    <g id="ytick_3">
     <g id="line2d_22">
      <path d="M 56.717344 19.616209 
L 381.797344 19.616209 
" clip-path="url(#pb113fa2e21)" style="fill: none; stroke: #b0b0b0; stroke-width: 0.8; stroke-linecap: round"/>
     </g>
     <g id="line2d_23"/>
     <g id="text_3">
      <!-- 5 -->
      <g style="fill: #262626" transform="translate(47.491094 23.035506) scale(0.09 -0.09)">
       <use xlink:href="#DejaVuSerif-35"/>
      </g>
     </g>
    </g>
    <g id="text_4">
     <!-- $\beta$ $[deg]$ -->
     <g style="fill: #262626" transform="translate(34.059375 61.405) rotate(-90) scale(0.09 -0.09)">
      <defs>
       <path id="DejaVuSans-Oblique-3b2" d="M 872 216 
L 572 -1331 
L -6 -1331 
L 928 3478 
Q 1206 4903 2538 4903 
Q 3888 4903 3659 3700 
Q 3503 2844 2894 2531 
Q 3713 2250 3553 1416 
Q 3272 -69 1759 -66 
Q 1097 -63 872 216 
z
M 1019 966 
Q 1259 422 1875 425 
Q 2775 425 2966 1406 
Q 3138 2288 1675 2219 
L 1778 2750 
Q 2909 2731 3106 3750 
Q 3241 4438 2509 4434 
Q 1691 4434 1503 3459 
L 1019 966 
z
" transform="scale(0.015625)"/>
       <path id="DejaVuSerif-20" transform="scale(0.015625)"/>
       <path id="DejaVuSans-5b" d="M 550 4863 
L 1875 4863 
L 1875 4416 
L 1125 4416 
L 1125 -397 
L 1875 -397 
L 1875 -844 
L 550 -844 
L 550 4863 
z
" transform="scale(0.015625)"/>
       <path id="DejaVuSans-Oblique-64" d="M 2675 525 
Q 2444 222 2128 65 
Q 1813 -91 1428 -91 
Q 903 -91 598 267 
Q 294 625 294 1247 
Q 294 1766 478 2236 
Q 663 2706 1013 3078 
Q 1244 3325 1534 3454 
Q 1825 3584 2144 3584 
Q 2481 3584 2739 3421 
Q 2997 3259 3138 2956 
L 3513 4863 
L 4091 4863 
L 3144 0 
L 2566 0 
L 2675 525 
z
M 891 1350 
Q 891 897 1095 644 
Q 1300 391 1663 391 
Q 1931 391 2161 520 
Q 2391 650 2566 903 
Q 2750 1166 2856 1509 
Q 2963 1853 2963 2188 
Q 2963 2622 2758 2865 
Q 2553 3109 2194 3109 
Q 1922 3109 1687 2981 
Q 1453 2853 1288 2613 
Q 1106 2353 998 2009 
Q 891 1666 891 1350 
z
" transform="scale(0.015625)"/>
       <path id="DejaVuSans-Oblique-65" d="M 3078 2063 
Q 3088 2113 3092 2166 
Q 3097 2219 3097 2272 
Q 3097 2653 2873 2875 
Q 2650 3097 2266 3097 
Q 1838 3097 1509 2826 
Q 1181 2556 1013 2059 
L 3078 2063 
z
M 3578 1613 
L 903 1613 
Q 884 1494 878 1425 
Q 872 1356 872 1306 
Q 872 872 1139 634 
Q 1406 397 1894 397 
Q 2269 397 2603 481 
Q 2938 566 3225 728 
L 3116 159 
Q 2806 34 2476 -28 
Q 2147 -91 1806 -91 
Q 1078 -91 686 257 
Q 294 606 294 1247 
Q 294 1794 489 2264 
Q 684 2734 1063 3103 
Q 1306 3334 1642 3459 
Q 1978 3584 2356 3584 
Q 2950 3584 3301 3228 
Q 3653 2872 3653 2272 
Q 3653 2128 3634 1964 
Q 3616 1800 3578 1613 
z
" transform="scale(0.015625)"/>
       <path id="DejaVuSans-Oblique-67" d="M 3816 3500 
L 3219 434 
Q 3047 -456 2561 -893 
Q 2075 -1331 1253 -1331 
Q 950 -1331 690 -1286 
Q 431 -1241 206 -1147 
L 313 -588 
Q 525 -725 762 -790 
Q 1000 -856 1269 -856 
Q 1816 -856 2167 -557 
Q 2519 -259 2631 300 
L 2681 563 
Q 2441 288 2122 144 
Q 1803 0 1434 0 
Q 903 0 598 351 
Q 294 703 294 1319 
Q 294 1803 478 2267 
Q 663 2731 997 3091 
Q 1219 3328 1514 3456 
Q 1809 3584 2131 3584 
Q 2484 3584 2746 3420 
Q 3009 3256 3138 2956 
L 3238 3500 
L 3816 3500 
z
M 2950 2216 
Q 2950 2641 2750 2872 
Q 2550 3103 2181 3103 
Q 1953 3103 1747 3012 
Q 1541 2922 1394 2759 
Q 1156 2491 1023 2127 
Q 891 1763 891 1375 
Q 891 944 1092 712 
Q 1294 481 1672 481 
Q 2219 481 2584 976 
Q 2950 1472 2950 2216 
z
" transform="scale(0.015625)"/>
       <path id="DejaVuSans-5d" d="M 1947 4863 
L 1947 -844 
L 622 -844 
L 622 -397 
L 1369 -397 
L 1369 4416 
L 622 4416 
L 622 4863 
L 1947 4863 
z
" transform="scale(0.015625)"/>
      </defs>
      <use xlink:href="#DejaVuSans-Oblique-3b2" transform="translate(0 0.390625)"/>
      <use xlink:href="#DejaVuSerif-20" transform="translate(63.818359 0.390625)"/>
      <use xlink:href="#DejaVuSans-5b" transform="translate(95.605469 0.390625)"/>
      <use xlink:href="#DejaVuSans-Oblique-64" transform="translate(134.619141 0.390625)"/>
      <use xlink:href="#DejaVuSans-Oblique-65" transform="translate(198.095703 0.390625)"/>
      <use xlink:href="#DejaVuSans-Oblique-67" transform="translate(259.619141 0.390625)"/>
      <use xlink:href="#DejaVuSans-5d" transform="translate(323.095703 0.390625)"/>
     </g>
    </g>
   </g>
   <g id="line2d_24">
    <path d="M 71.493707 45.238879 
L 73.073222 45.346713 
L 74.652738 45.684003 
L 76.153277 46.237927 
L 78.127671 47.251483 
L 83.419046 50.224092 
L 96.765949 57.790479 
L 103.084009 61.071826 
L 109.007191 63.889024 
L 115.088324 66.545768 
L 121.090481 68.915725 
L 126.223905 70.739091 
L 127.724444 71.024601 
L 129.224984 71.074859 
L 130.646547 70.896787 
L 132.068111 70.490499 
L 133.489675 69.847124 
L 134.911238 68.963315 
L 136.648705 67.583499 
L 141.150323 63.686364 
L 156.866498 49.92259 
L 161.999922 45.839583 
L 166.975394 42.165847 
L 171.950867 38.756295 
L 176.926339 35.601315 
L 182.138739 32.545178 
L 187.667042 29.565456 
L 192.958418 26.952476 
L 198.328769 24.542757 
L 204.015023 22.219492 
L 210.491035 19.825469 
L 217.203974 17.596623 
L 224.153841 15.524497 
L 231.656537 13.520828 
L 239.23821 11.730311 
L 244.371634 10.688788 
L 245.872173 10.658387 
L 247.293737 10.847392 
L 248.7153 11.254373 
L 250.136864 11.88852 
L 251.637403 12.809073 
L 253.137942 13.999837 
L 255.349263 16.108829 
L 262.062203 22.812196 
L 270.275681 30.916134 
L 275.093202 35.392369 
L 280.305602 39.951272 
L 285.439026 44.115242 
L 290.177571 47.683665 
L 295.074068 51.110952 
L 300.523395 54.621719 
L 305.340916 57.486544 
L 310.553316 60.361473 
L 316.397522 63.290672 
L 322.320703 65.988179 
L 327.849006 68.266501 
L 334.246042 70.653809 
L 340.80103 72.855171 
L 347.750896 74.968425 
L 354.463835 76.785535 
L 362.756289 78.784977 
L 365.994295 79.497273 
L 365.994295 79.497273 
" clip-path="url(#pb113fa2e21)" style="fill: none; stroke: #0000ff; stroke-width: 0.75; stroke-linecap: round"/>
   </g>
   <g id="line2d_25">
    <path d="M 71.493707 45.238879 
L 73.073222 45.346621 
L 74.652738 45.683256 
L 76.153277 46.235509 
L 78.206647 47.284987 
L 84.129828 50.584957 
L 93.21204 55.652807 
L 99.688052 58.988569 
L 105.769185 61.849151 
L 111.06056 64.10641 
L 117.299645 66.514359 
L 123.064875 68.499791 
L 127.645469 69.896364 
L 129.146008 70.109321 
L 130.646547 70.0979 
L 132.068111 69.865596 
L 133.489675 69.402568 
L 134.911238 68.70489 
L 136.411777 67.71622 
L 138.070268 66.34482 
L 143.124717 61.816184 
L 153.944395 52.050798 
L 159.23577 47.645295 
L 163.974316 43.992787 
L 168.554909 40.732401 
L 173.609358 37.423449 
L 178.426879 34.547186 
L 183.560303 31.732195 
L 188.614751 29.220195 
L 193.590224 26.983802 
L 199.039551 24.767799 
L 204.567853 22.760282 
L 210.806938 20.718766 
L 217.440901 18.803998 
L 224.232816 17.084353 
L 231.656537 15.425897 
L 240.106943 13.787462 
L 246.346027 12.765322 
L 247.846567 12.768452 
L 249.26813 12.983267 
L 250.689694 13.41839 
L 252.190233 14.122066 
L 253.690773 15.07759 
L 255.270288 16.362908 
L 257.560585 18.596213 
L 265.853039 27.024769 
L 272.171099 33.278949 
L 277.067596 37.813726 
L 281.490238 41.633858 
L 285.833905 45.118087 
L 290.493474 48.563552 
L 295.153044 51.732749 
L 300.04954 54.78612 
L 305.103989 57.678509 
L 309.842534 60.147406 
L 315.291861 62.723377 
L 320.504261 64.938688 
L 326.269491 67.155811 
L 332.192672 69.189042 
L 338.510733 71.123826 
L 344.433914 72.732106 
L 351.857635 74.512026 
L 359.597259 76.107444 
L 367.02098 77.447872 
L 367.02098 77.447872 
" clip-path="url(#pb113fa2e21)" style="fill: none; stroke: #008000; stroke-width: 0.75; stroke-linecap: round"/>
   </g>
   <g id="line2d_26">
    <path d="M 71.493707 45.238879 
L 73.31015 45.350448 
L 74.968641 45.685139 
L 76.46918 46.221177 
L 78.838453 47.392129 
L 83.419046 49.899981 
L 95.344385 56.525417 
L 100.556785 59.109473 
L 105.532258 61.324679 
L 110.586706 63.328278 
L 115.72013 65.118775 
L 121.169457 66.770229 
L 125.513123 67.884298 
L 127.092638 68.042264 
L 128.593178 67.967669 
L 130.014741 67.684627 
L 131.436305 67.174301 
L 132.857869 66.426508 
L 134.358408 65.365588 
L 136.016899 63.892924 
L 140.202614 59.864725 
L 150.706389 49.64432 
L 155.129031 45.713692 
L 159.23577 42.358564 
L 163.263534 39.354057 
L 167.212322 36.682648 
L 171.240085 34.223073 
L 175.346824 31.972879 
L 179.532539 29.929686 
L 183.955182 28.020303 
L 188.614751 26.247712 
L 193.590224 24.595326 
L 198.960575 23.049486 
L 204.567853 21.67021 
L 210.727962 20.387019 
L 216.809095 19.335679 
L 224.153841 18.281117 
L 232.051416 17.375156 
L 238.053573 16.87491 
L 239.712064 17.010009 
L 241.212603 17.354081 
L 242.713143 17.921475 
L 244.213682 18.734041 
L 245.714221 19.802117 
L 247.293737 21.210082 
L 250.136864 24.179206 
L 264.273524 39.164766 
L 268.380263 43.028821 
L 272.329051 46.440129 
L 276.198863 49.490729 
L 280.068675 52.260431 
L 284.096438 54.865943 
L 288.124202 57.209358 
L 292.388892 59.422185 
L 296.732559 61.427314 
L 301.234177 63.25973 
L 305.972722 64.943477 
L 311.106146 66.529084 
L 317.029328 68.095438 
L 322.952509 69.432357 
L 329.033642 70.572859 
L 335.825557 71.615151 
L 344.118011 72.652312 
L 351.620708 73.416706 
L 351.620708 73.416706 
" clip-path="url(#pb113fa2e21)" style="fill: none; stroke: #ff0000; stroke-width: 0.75; stroke-linecap: round"/>
   </g>
   <g id="patch_3">
    <path d="M 56.717344 82.94 
L 56.717344 7.2 
" style="fill: none; stroke: #000000; stroke-linejoin: miter; stroke-linecap: square"/>
   </g>
   <g id="patch_4">
    <path d="M 56.717344 82.94 
L 381.797344 82.94 
" style="fill: none; stroke: #000000; stroke-linejoin: miter; stroke-linecap: square"/>
   </g>
   <g id="legend_1">
    <g id="line2d_27">
     <path d="M 175.155938 30.187344 
L 184.155938 30.187344 
L 193.155938 30.187344 
" style="fill: none; stroke: #000000; stroke-width: 0.75; stroke-linecap: round"/>
    </g>
    <g id="text_5">
     <!-- Model test -->
     <g style="fill: #262626" transform="translate(200.355938 33.337344) scale(0.09 -0.09)">
      <defs>
       <path id="DejaVuSerif-4d" d="M 353 0 
L 353 331 
L 947 331 
L 947 4331 
L 319 4331 
L 319 4666 
L 1678 4666 
L 3316 1344 
L 4953 4666 
L 6228 4666 
L 6228 4331 
L 5606 4331 
L 5606 331 
L 6203 331 
L 6203 0 
L 4378 0 
L 4378 331 
L 4972 331 
L 4972 3938 
L 3372 684 
L 2931 684 
L 1331 3938 
L 1331 331 
L 1925 331 
L 1925 0 
L 353 0 
z
" transform="scale(0.015625)"/>
       <path id="DejaVuSerif-6f" d="M 1925 219 
Q 2388 219 2623 584 
Q 2859 950 2859 1663 
Q 2859 2375 2623 2739 
Q 2388 3103 1925 3103 
Q 1463 3103 1227 2739 
Q 991 2375 991 1663 
Q 991 950 1228 584 
Q 1466 219 1925 219 
z
M 1925 -91 
Q 1200 -91 759 389 
Q 319 869 319 1663 
Q 319 2456 758 2934 
Q 1197 3413 1925 3413 
Q 2653 3413 3092 2934 
Q 3531 2456 3531 1663 
Q 3531 869 3092 389 
Q 2653 -91 1925 -91 
z
" transform="scale(0.015625)"/>
       <path id="DejaVuSerif-64" d="M 3359 331 
L 3909 331 
L 3909 0 
L 2784 0 
L 2784 519 
Q 2616 206 2355 57 
Q 2094 -91 1709 -91 
Q 1097 -91 708 395 
Q 319 881 319 1663 
Q 319 2444 706 2928 
Q 1094 3413 1709 3413 
Q 2094 3413 2355 3264 
Q 2616 3116 2784 2803 
L 2784 4531 
L 2241 4531 
L 2241 4863 
L 3359 4863 
L 3359 331 
z
M 2784 1497 
L 2784 1825 
Q 2784 2422 2554 2737 
Q 2325 3053 1888 3053 
Q 1444 3053 1217 2703 
Q 991 2353 991 1663 
Q 991 975 1217 622 
Q 1444 269 1888 269 
Q 2325 269 2554 583 
Q 2784 897 2784 1497 
z
" transform="scale(0.015625)"/>
       <path id="DejaVuSerif-65" d="M 3469 1600 
L 991 1600 
L 991 1575 
Q 991 903 1244 561 
Q 1497 219 1991 219 
Q 2369 219 2611 417 
Q 2853 616 2950 1006 
L 3413 1006 
Q 3275 459 2904 184 
Q 2534 -91 1931 -91 
Q 1203 -91 761 389 
Q 319 869 319 1663 
Q 319 2450 753 2931 
Q 1188 3413 1894 3413 
Q 2647 3413 3050 2948 
Q 3453 2484 3469 1600 
z
M 2791 1931 
Q 2772 2513 2545 2808 
Q 2319 3103 1894 3103 
Q 1497 3103 1269 2806 
Q 1041 2509 991 1931 
L 2791 1931 
z
" transform="scale(0.015625)"/>
       <path id="DejaVuSerif-6c" d="M 1313 331 
L 1856 331 
L 1856 0 
L 184 0 
L 184 331 
L 738 331 
L 738 4531 
L 184 4531 
L 184 4863 
L 1313 4863 
L 1313 331 
z
" transform="scale(0.015625)"/>
       <path id="DejaVuSerif-74" d="M 691 2988 
L 184 2988 
L 184 3322 
L 691 3322 
L 691 4353 
L 1269 4353 
L 1269 3322 
L 2350 3322 
L 2350 2988 
L 1269 2988 
L 1269 878 
Q 1269 456 1350 337 
Q 1431 219 1650 219 
Q 1875 219 1978 351 
Q 2081 484 2088 781 
L 2522 781 
Q 2497 328 2275 118 
Q 2053 -91 1600 -91 
Q 1103 -91 897 129 
Q 691 350 691 878 
L 691 2988 
z
" transform="scale(0.015625)"/>
       <path id="DejaVuSerif-73" d="M 359 184 
L 359 959 
L 691 959 
Q 703 588 923 403 
Q 1144 219 1575 219 
Q 1963 219 2166 364 
Q 2369 509 2369 788 
Q 2369 1006 2220 1140 
Q 2072 1275 1594 1428 
L 1178 1569 
Q 750 1706 558 1912 
Q 366 2119 366 2438 
Q 366 2894 700 3153 
Q 1034 3413 1625 3413 
Q 1888 3413 2178 3344 
Q 2469 3275 2778 3144 
L 2778 2419 
L 2447 2419 
Q 2434 2741 2221 2922 
Q 2009 3103 1644 3103 
Q 1281 3103 1095 2975 
Q 909 2847 909 2591 
Q 909 2381 1050 2254 
Q 1191 2128 1613 1997 
L 2069 1856 
Q 2541 1709 2748 1489 
Q 2956 1269 2956 922 
Q 2956 450 2595 179 
Q 2234 -91 1600 -91 
Q 1278 -91 972 -22 
Q 666 47 359 184 
z
" transform="scale(0.015625)"/>
      </defs>
      <use xlink:href="#DejaVuSerif-4d"/>
      <use xlink:href="#DejaVuSerif-6f" x="102.392578"/>
      <use xlink:href="#DejaVuSerif-64" x="162.597656"/>
      <use xlink:href="#DejaVuSerif-65" x="226.611328"/>
      <use xlink:href="#DejaVuSerif-6c" x="285.791016"/>
      <use xlink:href="#DejaVuSerif-20" x="317.773438"/>
      <use xlink:href="#DejaVuSerif-74" x="349.560547"/>
      <use xlink:href="#DejaVuSerif-65" x="389.746094"/>
      <use xlink:href="#DejaVuSerif-73" x="448.925781"/>
      <use xlink:href="#DejaVuSerif-74" x="500.244141"/>
     </g>
    </g>
    <g id="line2d_28">
     <path d="M 175.155938 43.397656 
L 184.155938 43.397656 
L 193.155938 43.397656 
" style="fill: none; stroke: #0000ff; stroke-width: 0.75; stroke-linecap: round"/>
    </g>
    <g id="text_6">
     <!-- Reference -->
     <g style="fill: #262626" transform="translate(200.355938 46.547656) scale(0.09 -0.09)">
      <defs>
       <path id="DejaVuSerif-52" d="M 3066 2316 
Q 3284 2256 3442 2114 
Q 3600 1972 3725 1716 
L 4403 331 
L 4972 331 
L 4972 0 
L 3872 0 
L 3144 1484 
Q 2934 1916 2759 2042 
Q 2584 2169 2278 2169 
L 1581 2169 
L 1581 331 
L 2241 331 
L 2241 0 
L 353 0 
L 353 331 
L 947 331 
L 947 4331 
L 353 4331 
L 353 4666 
L 2719 4666 
Q 3400 4666 3770 4341 
Q 4141 4016 4141 3419 
Q 4141 2938 3870 2661 
Q 3600 2384 3066 2316 
z
M 1581 2503 
L 2503 2503 
Q 2975 2503 3200 2726 
Q 3425 2950 3425 3419 
Q 3425 3888 3200 4109 
Q 2975 4331 2503 4331 
L 1581 4331 
L 1581 2503 
z
" transform="scale(0.015625)"/>
       <path id="DejaVuSerif-66" d="M 2753 4078 
L 2450 4078 
Q 2447 4313 2317 4434 
Q 2188 4556 1941 4556 
Q 1619 4556 1487 4379 
Q 1356 4203 1356 3750 
L 1356 3322 
L 2284 3322 
L 2284 2988 
L 1356 2988 
L 1356 331 
L 2094 331 
L 2094 0 
L 231 0 
L 231 331 
L 781 331 
L 781 2988 
L 231 2988 
L 231 3322 
L 781 3322 
L 781 3738 
Q 781 4294 1070 4578 
Q 1359 4863 1919 4863 
Q 2128 4863 2337 4825 
Q 2547 4788 2753 4709 
L 2753 4078 
z
" transform="scale(0.015625)"/>
       <path id="DejaVuSerif-72" d="M 3059 3328 
L 3059 2497 
L 2728 2497 
Q 2713 2744 2591 2866 
Q 2469 2988 2234 2988 
Q 1809 2988 1582 2694 
Q 1356 2400 1356 1850 
L 1356 331 
L 2022 331 
L 2022 0 
L 263 0 
L 263 331 
L 781 331 
L 781 2994 
L 231 2994 
L 231 3322 
L 1356 3322 
L 1356 2731 
Q 1525 3078 1790 3245 
Q 2056 3413 2438 3413 
Q 2578 3413 2733 3391 
Q 2888 3369 3059 3328 
z
" transform="scale(0.015625)"/>
       <path id="DejaVuSerif-6e" d="M 263 0 
L 263 331 
L 781 331 
L 781 2988 
L 231 2988 
L 231 3322 
L 1356 3322 
L 1356 2731 
Q 1516 3069 1770 3241 
Q 2025 3413 2363 3413 
Q 2913 3413 3172 3097 
Q 3431 2781 3431 2113 
L 3431 331 
L 3944 331 
L 3944 0 
L 2356 0 
L 2356 331 
L 2853 331 
L 2853 1931 
Q 2853 2541 2703 2767 
Q 2553 2994 2175 2994 
Q 1775 2994 1565 2701 
Q 1356 2409 1356 1850 
L 1356 331 
L 1856 331 
L 1856 0 
L 263 0 
z
" transform="scale(0.015625)"/>
       <path id="DejaVuSerif-63" d="M 3291 997 
Q 3169 466 2822 187 
Q 2475 -91 1925 -91 
Q 1200 -91 759 389 
Q 319 869 319 1663 
Q 319 2459 759 2936 
Q 1200 3413 1925 3413 
Q 2241 3413 2553 3339 
Q 2866 3266 3181 3116 
L 3181 2266 
L 2847 2266 
Q 2781 2703 2561 2903 
Q 2341 3103 1931 3103 
Q 1466 3103 1228 2742 
Q 991 2381 991 1663 
Q 991 944 1227 581 
Q 1463 219 1931 219 
Q 2303 219 2525 412 
Q 2747 606 2828 997 
L 3291 997 
z
" transform="scale(0.015625)"/>
      </defs>
      <use xlink:href="#DejaVuSerif-52"/>
      <use xlink:href="#DejaVuSerif-65" x="75.292969"/>
      <use xlink:href="#DejaVuSerif-66" x="134.472656"/>
      <use xlink:href="#DejaVuSerif-65" x="171.484375"/>
      <use xlink:href="#DejaVuSerif-72" x="230.664062"/>
      <use xlink:href="#DejaVuSerif-65" x="278.466797"/>
      <use xlink:href="#DejaVuSerif-6e" x="337.646484"/>
      <use xlink:href="#DejaVuSerif-63" x="402.050781"/>
      <use xlink:href="#DejaVuSerif-65" x="458.056641"/>
     </g>
    </g>
    <g id="line2d_29">
     <path d="M 175.155938 56.607969 
L 184.155938 56.607969 
L 193.155938 56.607969 
" style="fill: none; stroke: #008000; stroke-width: 0.75; stroke-linecap: round"/>
    </g>
    <g id="text_7">
     <!-- PISM -->
     <g style="fill: #262626" transform="translate(200.355938 59.757969) scale(0.09 -0.09)">
      <defs>
       <path id="DejaVuSerif-50" d="M 1581 2375 
L 2406 2375 
Q 2872 2375 3115 2626 
Q 3359 2878 3359 3353 
Q 3359 3831 3115 4081 
Q 2872 4331 2406 4331 
L 1581 4331 
L 1581 2375 
z
M 353 0 
L 353 331 
L 947 331 
L 947 4331 
L 353 4331 
L 353 4666 
L 2559 4666 
Q 3259 4666 3668 4311 
Q 4078 3956 4078 3353 
Q 4078 2753 3668 2397 
Q 3259 2041 2559 2041 
L 1581 2041 
L 1581 331 
L 2303 331 
L 2303 0 
L 353 0 
z
" transform="scale(0.015625)"/>
       <path id="DejaVuSerif-49" d="M 1581 331 
L 2175 331 
L 2175 0 
L 353 0 
L 353 331 
L 947 331 
L 947 4331 
L 353 4331 
L 353 4666 
L 2175 4666 
L 2175 4331 
L 1581 4331 
L 1581 331 
z
" transform="scale(0.015625)"/>
       <path id="DejaVuSerif-53" d="M 594 225 
L 594 1288 
L 953 1284 
Q 969 753 1261 498 
Q 1553 244 2150 244 
Q 2706 244 2998 464 
Q 3291 684 3291 1106 
Q 3291 1444 3114 1625 
Q 2938 1806 2369 1978 
L 1753 2163 
Q 1084 2366 811 2669 
Q 538 2972 538 3500 
Q 538 4094 959 4422 
Q 1381 4750 2144 4750 
Q 2469 4750 2856 4679 
Q 3244 4609 3681 4475 
L 3681 3481 
L 3328 3481 
Q 3275 3975 2998 4195 
Q 2722 4416 2156 4416 
Q 1663 4416 1405 4214 
Q 1147 4013 1147 3628 
Q 1147 3294 1340 3103 
Q 1534 2913 2163 2725 
L 2741 2553 
Q 3375 2363 3645 2067 
Q 3916 1772 3916 1275 
Q 3916 597 3481 253 
Q 3047 -91 2188 -91 
Q 1803 -91 1404 -12 
Q 1006 66 594 225 
z
" transform="scale(0.015625)"/>
      </defs>
      <use xlink:href="#DejaVuSerif-50"/>
      <use xlink:href="#DejaVuSerif-49" x="67.285156"/>
      <use xlink:href="#DejaVuSerif-53" x="106.787109"/>
      <use xlink:href="#DejaVuSerif-4d" x="175.292969"/>
     </g>
    </g>
    <g id="line2d_30">
     <path d="M 175.155938 69.818281 
L 184.155938 69.818281 
L 193.155938 69.818281 
" style="fill: none; stroke: #ff0000; stroke-width: 0.75; stroke-linecap: round"/>
    </g>
    <g id="text_8">
     <!-- Mathematical -->
     <g style="fill: #262626" transform="translate(200.355938 72.968281) scale(0.09 -0.09)">
      <defs>
       <path id="DejaVuSerif-61" d="M 2547 1044 
L 2547 1747 
L 1806 1747 
Q 1378 1747 1168 1562 
Q 959 1378 959 997 
Q 959 650 1171 447 
Q 1384 244 1747 244 
Q 2106 244 2326 466 
Q 2547 688 2547 1044 
z
M 3122 2075 
L 3122 331 
L 3634 331 
L 3634 0 
L 2547 0 
L 2547 359 
Q 2356 128 2106 18 
Q 1856 -91 1522 -91 
Q 969 -91 644 203 
Q 319 497 319 997 
Q 319 1513 691 1797 
Q 1063 2081 1741 2081 
L 2547 2081 
L 2547 2309 
Q 2547 2688 2317 2895 
Q 2088 3103 1672 3103 
Q 1328 3103 1125 2947 
Q 922 2791 872 2484 
L 575 2484 
L 575 3156 
Q 875 3284 1158 3348 
Q 1441 3413 1709 3413 
Q 2400 3413 2761 3070 
Q 3122 2728 3122 2075 
z
" transform="scale(0.015625)"/>
       <path id="DejaVuSerif-68" d="M 263 0 
L 263 331 
L 781 331 
L 781 4531 
L 231 4531 
L 231 4863 
L 1356 4863 
L 1356 2731 
Q 1516 3069 1770 3241 
Q 2025 3413 2363 3413 
Q 2913 3413 3172 3097 
Q 3431 2781 3431 2113 
L 3431 331 
L 3944 331 
L 3944 0 
L 2356 0 
L 2356 331 
L 2853 331 
L 2853 1931 
Q 2853 2541 2704 2764 
Q 2556 2988 2175 2988 
Q 1775 2988 1565 2697 
Q 1356 2406 1356 1850 
L 1356 331 
L 1856 331 
L 1856 0 
L 263 0 
z
" transform="scale(0.015625)"/>
       <path id="DejaVuSerif-6d" d="M 3316 2675 
Q 3481 3041 3739 3227 
Q 3997 3413 4341 3413 
Q 4863 3413 5119 3089 
Q 5375 2766 5375 2113 
L 5375 331 
L 5894 331 
L 5894 0 
L 4300 0 
L 4300 331 
L 4800 331 
L 4800 2047 
Q 4800 2556 4650 2772 
Q 4500 2988 4153 2988 
Q 3769 2988 3567 2697 
Q 3366 2406 3366 1850 
L 3366 331 
L 3866 331 
L 3866 0 
L 2291 0 
L 2291 331 
L 2791 331 
L 2791 2069 
Q 2791 2566 2641 2777 
Q 2491 2988 2144 2988 
Q 1759 2988 1557 2697 
Q 1356 2406 1356 1850 
L 1356 331 
L 1856 331 
L 1856 0 
L 263 0 
L 263 331 
L 781 331 
L 781 2994 
L 231 2994 
L 231 3322 
L 1356 3322 
L 1356 2731 
Q 1516 3063 1762 3238 
Q 2009 3413 2322 3413 
Q 2709 3413 2968 3220 
Q 3228 3028 3316 2675 
z
" transform="scale(0.015625)"/>
       <path id="DejaVuSerif-69" d="M 622 4353 
Q 622 4497 726 4603 
Q 831 4709 978 4709 
Q 1122 4709 1226 4603 
Q 1331 4497 1331 4353 
Q 1331 4206 1228 4103 
Q 1125 4000 978 4000 
Q 831 4000 726 4103 
Q 622 4206 622 4353 
z
M 1356 331 
L 1900 331 
L 1900 0 
L 231 0 
L 231 331 
L 781 331 
L 781 2988 
L 231 2988 
L 231 3322 
L 1356 3322 
L 1356 331 
z
" transform="scale(0.015625)"/>
      </defs>
      <use xlink:href="#DejaVuSerif-4d"/>
      <use xlink:href="#DejaVuSerif-61" x="102.392578"/>
      <use xlink:href="#DejaVuSerif-74" x="162.011719"/>
      <use xlink:href="#DejaVuSerif-68" x="202.197266"/>
      <use xlink:href="#DejaVuSerif-65" x="266.601562"/>
      <use xlink:href="#DejaVuSerif-6d" x="325.78125"/>
      <use xlink:href="#DejaVuSerif-61" x="420.605469"/>
      <use xlink:href="#DejaVuSerif-74" x="480.224609"/>
      <use xlink:href="#DejaVuSerif-69" x="520.410156"/>
      <use xlink:href="#DejaVuSerif-63" x="552.392578"/>
      <use xlink:href="#DejaVuSerif-61" x="608.398438"/>
      <use xlink:href="#DejaVuSerif-6c" x="668.017578"/>
     </g>
    </g>
   </g>
  </g>
  <g id="axes_2">
   <g id="patch_5">
    <path d="M 56.717344 158.68 
L 381.797344 158.68 
L 381.797344 82.94 
L 56.717344 82.94 
z
" style="fill: #ffffff"/>
   </g>
   <g id="line2d_31">
    <path d="M 71.493707 121.223446 
L 74.869968 121.41531 
L 77.382535 121.78489 
L 80.052136 122.415715 
L 83.114326 123.373924 
L 86.097999 124.542422 
L 89.631295 126.180014 
L 93.792733 128.370331 
L 99.053418 131.377509 
L 104.078551 134.527303 
L 111.302179 139.361468 
L 117.112488 143.503199 
L 129.125695 152.142174 
L 131.324191 153.341008 
L 133.287133 154.170302 
L 135.171558 154.730824 
L 137.1345 155.080985 
L 139.254478 155.23191 
L 141.610009 155.169381 
L 144.122575 154.876196 
L 147.02773 154.306301 
L 150.168438 153.46416 
L 153.544699 152.332404 
L 157.23503 150.843991 
L 161.160915 149.01918 
L 165.871977 146.578378 
L 171.21118 143.542336 
L 178.591843 139.061431 
L 186.993237 133.697148 
L 196.729431 127.245962 
L 205.130824 121.286269 
L 212.825558 115.584495 
L 246.274096 90.573691 
L 248.86518 89.03954 
L 250.985158 88.038142 
L 252.9481 87.36093 
L 254.911043 86.929265 
L 257.031021 86.700846 
L 259.308034 86.685841 
L 261.8206 86.900314 
L 264.725755 87.376204 
L 268.023498 88.146109 
L 272.106418 89.347437 
L 275.482679 90.562445 
L 279.173011 92.135103 
L 283.648519 94.303437 
L 288.909205 97.091829 
L 293.934337 100.033997 
L 304.691261 106.68793 
L 313.956349 112.680667 
L 321.41553 117.771325 
L 331.544313 124.931948 
L 353.843338 141.236498 
L 365.935063 150.124764 
L 365.935063 150.124764 
" clip-path="url(#p051dc1006a)" style="fill: none; stroke: #000000; stroke-width: 0.75; stroke-linecap: round"/>
   </g>
   <g id="line2d_32">
    <path d="M 71.493707 121.62507 
L 72.121849 125.059567 
L 73.45665 131.937088 
L 76.675875 148.350853 
L 76.911428 148.280522 
L 77.225499 148.214454 
L 85.626892 148.211257 
L 89.709813 148.211257 
L 123.86501 148.213388 
L 124.022045 147.522865 
L 124.650187 144.162961 
L 134.543416 93.633328 
L 134.936005 93.731365 
L 137.213018 93.747349 
L 242.269694 93.745218 
L 242.426729 94.462381 
L 242.897835 97.012413 
L 244.78226 106.743667 
L 244.860778 106.743667 
L 246.82372 116.881989 
L 252.9481 148.317819 
L 253.105136 148.328475 
L 253.576242 148.226176 
L 255.853255 148.211257 
L 363.65805 148.212323 
L 363.815086 147.533522 
L 364.286192 144.919553 
L 365.935063 136.446797 
L 365.935063 136.446797 
" clip-path="url(#p051dc1006a)" style="fill: none; stroke-dasharray: 2.775,1.2; stroke-dashoffset: 0; stroke: #808080; stroke-width: 0.75"/>
   </g>
   <g id="matplotlib.axis_3">
    <g id="xtick_9">
     <g id="line2d_33">
      <path d="M 71.493707 158.68 
L 71.493707 82.94 
" clip-path="url(#p051dc1006a)" style="fill: none; stroke: #b0b0b0; stroke-width: 0.8; stroke-linecap: round"/>
     </g>
     <g id="line2d_34"/>
    </g>
    <g id="xtick_10">
     <g id="line2d_35">
      <path d="M 110.981585 158.68 
L 110.981585 82.94 
" clip-path="url(#p051dc1006a)" style="fill: none; stroke: #b0b0b0; stroke-width: 0.8; stroke-linecap: round"/>
     </g>
     <g id="line2d_36"/>
    </g>
    <g id="xtick_11">
     <g id="line2d_37">
      <path d="M 150.469462 158.68 
L 150.469462 82.94 
" clip-path="url(#p051dc1006a)" style="fill: none; stroke: #b0b0b0; stroke-width: 0.8; stroke-linecap: round"/>
     </g>
     <g id="line2d_38"/>
    </g>
    <g id="xtick_12">
     <g id="line2d_39">
      <path d="M 189.957339 158.68 
L 189.957339 82.94 
" clip-path="url(#p051dc1006a)" style="fill: none; stroke: #b0b0b0; stroke-width: 0.8; stroke-linecap: round"/>
     </g>
     <g id="line2d_40"/>
    </g>
    <g id="xtick_13">
     <g id="line2d_41">
      <path d="M 229.445216 158.68 
L 229.445216 82.94 
" clip-path="url(#p051dc1006a)" style="fill: none; stroke: #b0b0b0; stroke-width: 0.8; stroke-linecap: round"/>
     </g>
     <g id="line2d_42"/>
    </g>
    <g id="xtick_14">
     <g id="line2d_43">
      <path d="M 268.933093 158.68 
L 268.933093 82.94 
" clip-path="url(#p051dc1006a)" style="fill: none; stroke: #b0b0b0; stroke-width: 0.8; stroke-linecap: round"/>
     </g>
     <g id="line2d_44"/>
    </g>
    <g id="xtick_15">
     <g id="line2d_45">
      <path d="M 308.42097 158.68 
L 308.42097 82.94 
" clip-path="url(#p051dc1006a)" style="fill: none; stroke: #b0b0b0; stroke-width: 0.8; stroke-linecap: round"/>
     </g>
     <g id="line2d_46"/>
    </g>
    <g id="xtick_16">
     <g id="line2d_47">
      <path d="M 347.908848 158.68 
L 347.908848 82.94 
" clip-path="url(#p051dc1006a)" style="fill: none; stroke: #b0b0b0; stroke-width: 0.8; stroke-linecap: round"/>
     </g>
     <g id="line2d_48"/>
    </g>
   </g>
   <g id="matplotlib.axis_4">
    <g id="ytick_4">
     <g id="line2d_49">
      <path d="M 56.717344 148.211873 
L 381.797344 148.211873 
" clip-path="url(#p051dc1006a)" style="fill: none; stroke: #b0b0b0; stroke-width: 0.8; stroke-linecap: round"/>
     </g>
     <g id="line2d_50"/>
     <g id="text_9">
      <!-- −10 -->
      <g style="fill: #262626" transform="translate(34.223125 151.63117) scale(0.09 -0.09)">
       <defs>
        <path id="DejaVuSerif-31" d="M 909 0 
L 909 331 
L 1722 331 
L 1722 4213 
L 781 3603 
L 781 4013 
L 1919 4750 
L 2350 4750 
L 2350 331 
L 3163 331 
L 3163 0 
L 909 0 
z
" transform="scale(0.015625)"/>
       </defs>
       <use xlink:href="#DejaVuSerif-2212"/>
       <use xlink:href="#DejaVuSerif-31" x="83.789062"/>
       <use xlink:href="#DejaVuSerif-30" x="147.412109"/>
      </g>
     </g>
    </g>
    <g id="ytick_5">
     <g id="line2d_51">
      <path d="M 56.717344 120.979303 
L 381.797344 120.979303 
" clip-path="url(#p051dc1006a)" style="fill: none; stroke: #b0b0b0; stroke-width: 0.8; stroke-linecap: round"/>
     </g>
     <g id="line2d_52"/>
     <g id="text_10">
      <!-- 0 -->
      <g style="fill: #262626" transform="translate(47.491094 124.3986) scale(0.09 -0.09)">
       <use xlink:href="#DejaVuSerif-30"/>
      </g>
     </g>
    </g>
    <g id="ytick_6">
     <g id="line2d_53">
      <path d="M 56.717344 93.746733 
L 381.797344 93.746733 
" clip-path="url(#p051dc1006a)" style="fill: none; stroke: #b0b0b0; stroke-width: 0.8; stroke-linecap: round"/>
     </g>
     <g id="line2d_54"/>
     <g id="text_11">
      <!-- 10 -->
      <g style="fill: #262626" transform="translate(41.764844 97.16603) scale(0.09 -0.09)">
       <use xlink:href="#DejaVuSerif-31"/>
       <use xlink:href="#DejaVuSerif-30" x="63.623047"/>
      </g>
     </g>
    </g>
    <g id="text_12">
     <!-- $\psi$ $[deg]$ -->
     <g style="fill: #262626" transform="translate(28.333125 137.235) rotate(-90) scale(0.09 -0.09)">
      <defs>
       <path id="DejaVuSans-Oblique-3c8" d="M 1591 -78 
Q 891 38 616 341 
Q 278 713 425 1472 
L 819 3500 
L 1400 3500 
L 1009 1494 
Q 900 922 1119 684 
Q 1313 478 1691 434 
L 2284 3500 
L 2856 3500 
L 2263 438 
Q 2681 481 2928 688 
Q 3247 950 3353 1497 
L 3741 3500 
L 4322 3500 
L 3928 1475 
Q 3775 688 3300 344 
Q 2872 34 2163 -75 
L 1919 -1331 
L 1347 -1331 
L 1591 -78 
z
" transform="scale(0.015625)"/>
      </defs>
      <use xlink:href="#DejaVuSans-Oblique-3c8" transform="translate(0 0.015625)"/>
      <use xlink:href="#DejaVuSerif-20" transform="translate(65.966797 0.015625)"/>
      <use xlink:href="#DejaVuSans-5b" transform="translate(97.753906 0.015625)"/>
      <use xlink:href="#DejaVuSans-Oblique-64" transform="translate(136.767578 0.015625)"/>
      <use xlink:href="#DejaVuSans-Oblique-65" transform="translate(200.244141 0.015625)"/>
      <use xlink:href="#DejaVuSans-Oblique-67" transform="translate(261.767578 0.015625)"/>
      <use xlink:href="#DejaVuSans-5d" transform="translate(325.244141 0.015625)"/>
     </g>
    </g>
   </g>
   <g id="line2d_55">
    <path d="M 71.493707 120.979303 
L 75.521471 121.087657 
L 77.811768 121.379922 
L 80.18104 121.914739 
L 82.866216 122.752372 
L 85.94627 123.949963 
L 89.579155 125.610737 
L 93.843846 127.816997 
L 98.819318 130.647826 
L 104.7425 134.281225 
L 111.850318 138.906447 
L 120.142772 144.579127 
L 131.041426 152.053894 
L 133.252747 153.197782 
L 135.148165 153.941997 
L 136.964608 154.416177 
L 138.860026 154.675837 
L 140.913395 154.734595 
L 143.203692 154.577291 
L 145.809892 154.166351 
L 148.653019 153.48928 
L 151.891025 152.485531 
L 155.602886 151.096925 
L 159.867576 149.256743 
L 164.764073 146.895827 
L 170.450328 143.901095 
L 176.847364 140.274111 
L 183.876206 136.02861 
L 191.457878 131.185358 
L 200.303163 125.259504 
L 210.806938 117.933635 
L 221.389689 110.271857 
L 232.920149 101.645377 
L 249.110179 89.479833 
L 251.3215 88.237158 
L 253.216918 87.414483 
L 255.03336 86.868494 
L 256.928779 86.53196 
L 259.061124 86.386324 
L 261.351421 86.453862 
L 263.957621 86.759652 
L 266.879724 87.335107 
L 270.11773 88.205057 
L 273.82959 89.442161 
L 278.015305 91.076544 
L 282.832826 93.205928 
L 288.203177 95.827529 
L 294.205335 99.008149 
L 301.076225 102.909578 
L 308.263019 107.256122 
L 316.318546 112.404307 
L 324.926903 118.169355 
L 335.272727 125.379376 
L 346.013429 133.139188 
L 358.254671 142.288851 
L 365.994295 148.19992 
L 365.994295 148.19992 
" clip-path="url(#p051dc1006a)" style="fill: none; stroke: #0000ff; stroke-width: 0.75; stroke-linecap: round"/>
   </g>
   <g id="line2d_56">
    <path d="M 71.493707 120.979303 
L 75.521471 121.087498 
L 77.811768 121.378929 
L 80.18104 121.911291 
L 82.945192 122.770161 
L 86.104222 123.994766 
L 89.816082 125.680897 
L 94.238725 127.941872 
L 99.609076 130.943313 
L 106.243039 134.914861 
L 114.614469 140.206429 
L 125.118245 147.129228 
L 131.357329 151.184023 
L 133.726602 152.429924 
L 135.700996 153.232015 
L 137.517438 153.739142 
L 139.33388 154.011631 
L 141.308274 154.081446 
L 143.519595 153.930814 
L 145.967844 153.534983 
L 148.731995 152.857465 
L 151.891025 151.845798 
L 155.52391 150.441247 
L 159.788601 148.549598 
L 164.843049 146.060007 
L 170.924182 142.80821 
L 178.032 138.748018 
L 185.8506 134.028956 
L 195.406666 127.992763 
L 206.779175 120.5351 
L 219.257344 112.079954 
L 234.183761 101.70255 
L 251.005597 89.998637 
L 253.216918 88.863621 
L 255.112336 88.128538 
L 256.928779 87.66421 
L 258.824197 87.417162 
L 260.877566 87.374099 
L 263.167863 87.550484 
L 265.695087 87.968301 
L 268.61719 88.684266 
L 271.934172 89.735486 
L 275.725008 91.17873 
L 280.14765 93.105748 
L 285.36005 95.623932 
L 291.599135 98.8939 
L 298.785928 102.916918 
L 306.604528 107.547663 
L 315.765716 113.250153 
L 326.190515 120.00877 
L 338.431757 128.226817 
L 353.989981 138.979609 
L 367.02098 148.158863 
L 367.02098 148.158863 
" clip-path="url(#p051dc1006a)" style="fill: none; stroke: #008000; stroke-width: 0.75; stroke-linecap: round"/>
   </g>
   <g id="line2d_57">
    <path d="M 71.493707 120.979303 
L 75.442495 121.09033 
L 77.732792 121.389699 
L 80.102065 121.936531 
L 82.78724 122.794912 
L 85.867295 124.02493 
L 89.421204 125.694306 
L 93.606919 127.916175 
L 98.582391 130.816991 
L 104.7425 134.677313 
L 112.324172 139.702613 
L 122.117166 146.477457 
L 129.224984 151.344165 
L 131.515281 152.597544 
L 133.489675 153.427325 
L 135.306117 153.947081 
L 137.043583 154.213923 
L 138.939002 154.281588 
L 141.071347 154.125826 
L 143.44062 153.717031 
L 146.046819 153.036923 
L 149.047898 152.016948 
L 152.443856 150.623439 
L 156.392643 148.755985 
L 160.973237 146.339302 
L 166.422564 143.203166 
L 172.898576 139.210868 
L 180.717176 134.116389 
L 190.273242 127.614868 
L 201.724726 119.541852 
L 216.809095 108.620152 
L 242.555191 89.925423 
L 244.687537 88.800003 
L 246.582955 88.047123 
L 248.320421 87.589669 
L 250.136864 87.343761 
L 252.111258 87.305207 
L 254.322579 87.494855 
L 256.770827 87.937589 
L 259.534978 88.675129 
L 262.615033 89.730674 
L 266.168942 91.188367 
L 270.275681 93.116841 
L 275.093202 95.635032 
L 280.621505 98.781788 
L 287.097517 102.73005 
L 294.837141 107.720352 
L 304.235255 114.056252 
L 315.607764 121.997697 
L 329.902376 132.267041 
L 351.067878 147.766663 
L 351.620708 148.174034 
L 351.620708 148.174034 
" clip-path="url(#p051dc1006a)" style="fill: none; stroke: #ff0000; stroke-width: 0.75; stroke-linecap: round"/>
   </g>
   <g id="patch_6">
    <path d="M 56.717344 158.68 
L 56.717344 82.94 
" style="fill: none; stroke: #000000; stroke-linejoin: miter; stroke-linecap: square"/>
   </g>
   <g id="patch_7">
    <path d="M 56.717344 158.68 
L 381.797344 158.68 
" style="fill: none; stroke: #000000; stroke-linejoin: miter; stroke-linecap: square"/>
   </g>
  </g>
  <g id="axes_3">
   <g id="patch_8">
    <path d="M 56.717344 234.42 
L 381.797344 234.42 
L 381.797344 158.68 
L 56.717344 158.68 
z
" style="fill: #ffffff"/>
   </g>
   <g id="line2d_58">
    <path d="M 71.493707 197.765263 
L 72.278884 198.249997 
L 73.221097 199.128598 
L 74.320344 200.4893 
L 75.812181 202.735243 
L 78.795853 207.393849 
L 80.366207 209.303096 
L 84.449127 213.995454 
L 86.333552 216.03224 
L 88.060941 217.512696 
L 91.044613 219.833899 
L 92.457932 220.598043 
L 94.028286 221.167263 
L 96.148264 221.918108 
L 103.214856 225.308715 
L 105.491869 226.163235 
L 106.82667 226.422197 
L 110.124413 226.879705 
L 112.008838 227.720774 
L 113.579192 228.307313 
L 116.7199 229.123646 
L 118.839877 229.483573 
L 122.137621 229.742388 
L 124.257598 229.62993 
L 124.964258 229.360541 
L 125.749435 228.808822 
L 126.534612 227.975472 
L 127.476824 226.614311 
L 128.576072 224.602686 
L 129.910872 221.675714 
L 131.559744 217.485636 
L 133.836757 210.976549 
L 136.11377 204.587285 
L 137.919677 200.335305 
L 139.490031 197.10775 
L 141.92408 192.844096 
L 143.572951 190.366635 
L 145.378858 188.070016 
L 147.184765 186.12841 
L 149.854367 183.481978 
L 152.916557 180.71334 
L 154.486911 179.310377 
L 157.313548 177.26895 
L 159.826114 175.490056 
L 161.867574 174.373139 
L 169.012685 171.107972 
L 172.467463 170.028045 
L 174.194852 169.645072 
L 176.31483 169.425378 
L 177.571113 169.201426 
L 180.711821 168.426558 
L 183.381423 168.132952 
L 188.563591 167.803819 
L 190.133944 167.807141 
L 191.154675 167.592606 
L 199.163479 165.138277 
L 200.890869 164.965398 
L 204.424165 164.719981 
L 207.64339 163.759939 
L 212.747041 163.178816 
L 214.317395 163.206178 
L 216.358855 163.489189 
L 217.850691 163.676136 
L 219.185492 163.538919 
L 221.61954 163.28424 
L 227.194296 162.973217 
L 228.45058 163.089155 
L 231.51277 163.496252 
L 232.769053 163.244621 
L 235.752725 162.613995 
L 237.872703 162.412586 
L 239.67861 162.41423 
L 240.777858 162.592688 
L 241.877105 163.004906 
L 242.819318 163.589081 
L 243.683012 164.443377 
L 244.860778 165.967293 
L 246.431132 168.292163 
L 247.765933 170.641829 
L 248.943698 173.193076 
L 250.357017 176.832338 
L 252.9481 184.246537 
L 254.596972 188.726901 
L 256.324361 192.751331 
L 258.051751 196.242557 
L 260.093211 199.828855 
L 261.506529 201.91659 
L 262.998365 203.710549 
L 265.275379 206.109428 
L 268.337569 208.767977 
L 269.593852 209.511069 
L 271.399759 210.597149 
L 272.656042 211.664278 
L 275.953785 214.607361 
L 279.015975 216.934256 
L 280.664847 217.934243 
L 282.784825 218.94078 
L 284.826285 219.603013 
L 286.161085 220.146779 
L 289.06624 221.728655 
L 290.950665 222.616949 
L 293.698784 223.611687 
L 295.426173 224.047001 
L 296.682457 224.103681 
L 299.901682 224.085686 
L 304.769779 224.859239 
L 307.282345 225.258402 
L 309.559359 225.559602 
L 313.014137 225.957325 
L 316.547433 226.965892 
L 319.37407 227.348521 
L 324.16365 227.810067 
L 326.519181 228.045356 
L 330.28803 228.749737 
L 333.585773 229.10656 
L 335.784269 229.045644 
L 338.218317 228.779092 
L 339.710153 228.695369 
L 340.966436 228.914044 
L 344.499733 229.61617 
L 347.640441 229.800907 
L 349.132277 229.690056 
L 351.330772 229.254555 
L 352.822608 229.091524 
L 353.843338 229.16202 
L 357.769223 229.710683 
L 360.124754 229.838614 
L 361.773626 229.772328 
L 363.029909 229.486689 
L 364.286192 228.970027 
L 364.992851 228.425362 
L 365.778028 227.488631 
L 365.935063 227.267367 
L 365.935063 227.267367 
" clip-path="url(#pc3bc15f099)" style="fill: none; stroke: #000000; stroke-width: 0.75; stroke-linecap: round"/>
   </g>
   <g id="matplotlib.axis_5">
    <g id="xtick_17">
     <g id="line2d_59">
      <path d="M 71.493707 234.42 
L 71.493707 158.68 
" clip-path="url(#pc3bc15f099)" style="fill: none; stroke: #b0b0b0; stroke-width: 0.8; stroke-linecap: round"/>
     </g>
     <g id="line2d_60"/>
     <g id="text_13">
      <!-- 0 -->
      <g style="fill: #262626" transform="translate(68.630582 244.758594) scale(0.09 -0.09)">
       <use xlink:href="#DejaVuSerif-30"/>
      </g>
     </g>
    </g>
    <g id="xtick_18">
     <g id="line2d_61">
      <path d="M 110.981585 234.42 
L 110.981585 158.68 
" clip-path="url(#pc3bc15f099)" style="fill: none; stroke: #b0b0b0; stroke-width: 0.8; stroke-linecap: round"/>
     </g>
     <g id="line2d_62"/>
     <g id="text_14">
      <!-- 5 -->
      <g style="fill: #262626" transform="translate(108.11846 244.758594) scale(0.09 -0.09)">
       <use xlink:href="#DejaVuSerif-35"/>
      </g>
     </g>
    </g>
    <g id="xtick_19">
     <g id="line2d_63">
      <path d="M 150.469462 234.42 
L 150.469462 158.68 
" clip-path="url(#pc3bc15f099)" style="fill: none; stroke: #b0b0b0; stroke-width: 0.8; stroke-linecap: round"/>
     </g>
     <g id="line2d_64"/>
     <g id="text_15">
      <!-- 10 -->
      <g style="fill: #262626" transform="translate(144.743212 244.758594) scale(0.09 -0.09)">
       <use xlink:href="#DejaVuSerif-31"/>
       <use xlink:href="#DejaVuSerif-30" x="63.623047"/>
      </g>
     </g>
    </g>
    <g id="xtick_20">
     <g id="line2d_65">
      <path d="M 189.957339 234.42 
L 189.957339 158.68 
" clip-path="url(#pc3bc15f099)" style="fill: none; stroke: #b0b0b0; stroke-width: 0.8; stroke-linecap: round"/>
     </g>
     <g id="line2d_66"/>
     <g id="text_16">
      <!-- 15 -->
      <g style="fill: #262626" transform="translate(184.231089 244.758594) scale(0.09 -0.09)">
       <use xlink:href="#DejaVuSerif-31"/>
       <use xlink:href="#DejaVuSerif-35" x="63.623047"/>
      </g>
     </g>
    </g>
    <g id="xtick_21">
     <g id="line2d_67">
      <path d="M 229.445216 234.42 
L 229.445216 158.68 
" clip-path="url(#pc3bc15f099)" style="fill: none; stroke: #b0b0b0; stroke-width: 0.8; stroke-linecap: round"/>
     </g>
     <g id="line2d_68"/>
     <g id="text_17">
      <!-- 20 -->
      <g style="fill: #262626" transform="translate(223.718966 244.758594) scale(0.09 -0.09)">
       <defs>
        <path id="DejaVuSerif-32" d="M 819 3553 
L 469 3553 
L 469 4384 
Q 803 4563 1142 4656 
Q 1481 4750 1806 4750 
Q 2534 4750 2956 4397 
Q 3378 4044 3378 3438 
Q 3378 2753 2422 1800 
Q 2347 1728 2309 1691 
L 1131 513 
L 3078 513 
L 3078 1088 
L 3444 1088 
L 3444 0 
L 434 0 
L 434 341 
L 1850 1753 
Q 2319 2222 2519 2614 
Q 2719 3006 2719 3438 
Q 2719 3909 2473 4175 
Q 2228 4441 1797 4441 
Q 1350 4441 1106 4219 
Q 863 3997 819 3553 
z
" transform="scale(0.015625)"/>
       </defs>
       <use xlink:href="#DejaVuSerif-32"/>
       <use xlink:href="#DejaVuSerif-30" x="63.623047"/>
      </g>
     </g>
    </g>
    <g id="xtick_22">
     <g id="line2d_69">
      <path d="M 268.933093 234.42 
L 268.933093 158.68 
" clip-path="url(#pc3bc15f099)" style="fill: none; stroke: #b0b0b0; stroke-width: 0.8; stroke-linecap: round"/>
     </g>
     <g id="line2d_70"/>
     <g id="text_18">
      <!-- 25 -->
      <g style="fill: #262626" transform="translate(263.206843 244.758594) scale(0.09 -0.09)">
       <use xlink:href="#DejaVuSerif-32"/>
       <use xlink:href="#DejaVuSerif-35" x="63.623047"/>
      </g>
     </g>
    </g>
    <g id="xtick_23">
     <g id="line2d_71">
      <path d="M 308.42097 234.42 
L 308.42097 158.68 
" clip-path="url(#pc3bc15f099)" style="fill: none; stroke: #b0b0b0; stroke-width: 0.8; stroke-linecap: round"/>
     </g>
     <g id="line2d_72"/>
     <g id="text_19">
      <!-- 30 -->
      <g style="fill: #262626" transform="translate(302.69472 244.758594) scale(0.09 -0.09)">
       <defs>
        <path id="DejaVuSerif-33" d="M 622 4469 
Q 988 4606 1323 4678 
Q 1659 4750 1953 4750 
Q 2638 4750 3022 4454 
Q 3406 4159 3406 3634 
Q 3406 3213 3140 2930 
Q 2875 2647 2388 2547 
Q 2963 2466 3280 2130 
Q 3597 1794 3597 1259 
Q 3597 606 3158 257 
Q 2719 -91 1894 -91 
Q 1528 -91 1179 -12 
Q 831 66 488 225 
L 488 1131 
L 838 1131 
Q 869 681 1141 450 
Q 1413 219 1906 219 
Q 2384 219 2661 495 
Q 2938 772 2938 1253 
Q 2938 1803 2653 2086 
Q 2369 2369 1819 2369 
L 1522 2369 
L 1522 2688 
L 1678 2688 
Q 2225 2688 2498 2914 
Q 2772 3141 2772 3597 
Q 2772 4006 2547 4223 
Q 2322 4441 1900 4441 
Q 1478 4441 1245 4241 
Q 1013 4041 972 3647 
L 622 3647 
L 622 4469 
z
" transform="scale(0.015625)"/>
       </defs>
       <use xlink:href="#DejaVuSerif-33"/>
       <use xlink:href="#DejaVuSerif-30" x="63.623047"/>
      </g>
     </g>
    </g>
    <g id="xtick_24">
     <g id="line2d_73">
      <path d="M 347.908848 234.42 
L 347.908848 158.68 
" clip-path="url(#pc3bc15f099)" style="fill: none; stroke: #b0b0b0; stroke-width: 0.8; stroke-linecap: round"/>
     </g>
     <g id="line2d_74"/>
     <g id="text_20">
      <!-- 35 -->
      <g style="fill: #262626" transform="translate(342.182598 244.758594) scale(0.09 -0.09)">
       <use xlink:href="#DejaVuSerif-33"/>
       <use xlink:href="#DejaVuSerif-35" x="63.623047"/>
      </g>
     </g>
    </g>
    <g id="text_21">
     <!-- Time [s] -->
     <g style="fill: #262626" transform="translate(200.635078 257.468906) scale(0.09 -0.09)">
      <defs>
       <path id="DejaVuSerif-54" d="M 1222 0 
L 1222 331 
L 1819 331 
L 1819 4294 
L 447 4294 
L 447 3566 
L 63 3566 
L 63 4666 
L 4206 4666 
L 4206 3566 
L 3822 3566 
L 3822 4294 
L 2450 4294 
L 2450 331 
L 3047 331 
L 3047 0 
L 1222 0 
z
" transform="scale(0.015625)"/>
       <path id="DejaVuSerif-5b" d="M 550 4863 
L 2003 4863 
L 2003 4531 
L 1147 4531 
L 1147 -513 
L 2003 -513 
L 2003 -844 
L 550 -844 
L 550 4863 
z
" transform="scale(0.015625)"/>
       <path id="DejaVuSerif-5d" d="M 1947 4863 
L 1947 -844 
L 494 -844 
L 494 -513 
L 1350 -513 
L 1350 4531 
L 494 4531 
L 494 4863 
L 1947 4863 
z
" transform="scale(0.015625)"/>
      </defs>
      <use xlink:href="#DejaVuSerif-54"/>
      <use xlink:href="#DejaVuSerif-69" x="66.699219"/>
      <use xlink:href="#DejaVuSerif-6d" x="98.681641"/>
      <use xlink:href="#DejaVuSerif-65" x="193.505859"/>
      <use xlink:href="#DejaVuSerif-20" x="252.685547"/>
      <use xlink:href="#DejaVuSerif-5b" x="284.472656"/>
      <use xlink:href="#DejaVuSerif-73" x="323.486328"/>
      <use xlink:href="#DejaVuSerif-5d" x="374.804688"/>
     </g>
    </g>
   </g>
   <g id="matplotlib.axis_6">
    <g id="ytick_7">
     <g id="line2d_75">
      <path d="M 56.717344 218.667549 
L 381.797344 218.667549 
" clip-path="url(#pc3bc15f099)" style="fill: none; stroke: #b0b0b0; stroke-width: 0.8; stroke-linecap: round"/>
     </g>
     <g id="line2d_76"/>
     <g id="text_22">
      <!-- −0.025 -->
      <g style="fill: #262626" transform="translate(19.910313 222.086846) scale(0.09 -0.09)">
       <defs>
        <path id="DejaVuSerif-2e" d="M 603 325 
Q 603 500 722 622 
Q 841 744 1019 744 
Q 1191 744 1312 622 
Q 1434 500 1434 325 
Q 1434 153 1312 31 
Q 1191 -91 1019 -91 
Q 841 -91 722 29 
Q 603 150 603 325 
z
" transform="scale(0.015625)"/>
       </defs>
       <use xlink:href="#DejaVuSerif-2212"/>
       <use xlink:href="#DejaVuSerif-30" x="83.789062"/>
       <use xlink:href="#DejaVuSerif-2e" x="147.412109"/>
       <use xlink:href="#DejaVuSerif-30" x="179.199219"/>
       <use xlink:href="#DejaVuSerif-32" x="242.822266"/>
       <use xlink:href="#DejaVuSerif-35" x="306.445312"/>
      </g>
     </g>
    </g>
    <g id="ytick_8">
     <g id="line2d_77">
      <path d="M 56.717344 196.665877 
L 381.797344 196.665877 
" clip-path="url(#pc3bc15f099)" style="fill: none; stroke: #b0b0b0; stroke-width: 0.8; stroke-linecap: round"/>
     </g>
     <g id="line2d_78"/>
     <g id="text_23">
      <!-- 0.000 -->
      <g style="fill: #262626" transform="translate(27.452031 200.085174) scale(0.09 -0.09)">
       <use xlink:href="#DejaVuSerif-30"/>
       <use xlink:href="#DejaVuSerif-2e" x="63.623047"/>
       <use xlink:href="#DejaVuSerif-30" x="95.410156"/>
       <use xlink:href="#DejaVuSerif-30" x="159.033203"/>
       <use xlink:href="#DejaVuSerif-30" x="222.65625"/>
      </g>
     </g>
    </g>
    <g id="ytick_9">
     <g id="line2d_79">
      <path d="M 56.717344 174.664204 
L 381.797344 174.664204 
" clip-path="url(#pc3bc15f099)" style="fill: none; stroke: #b0b0b0; stroke-width: 0.8; stroke-linecap: round"/>
     </g>
     <g id="line2d_80"/>
     <g id="text_24">
      <!-- 0.025 -->
      <g style="fill: #262626" transform="translate(27.452031 178.083501) scale(0.09 -0.09)">
       <use xlink:href="#DejaVuSerif-30"/>
       <use xlink:href="#DejaVuSerif-2e" x="63.623047"/>
       <use xlink:href="#DejaVuSerif-30" x="95.410156"/>
       <use xlink:href="#DejaVuSerif-32" x="159.033203"/>
       <use xlink:href="#DejaVuSerif-35" x="222.65625"/>
      </g>
     </g>
    </g>
    <g id="text_25">
     <!-- $r$ $[rad/s]$ -->
     <g style="fill: #262626" transform="translate(14.038594 214.685) rotate(-90) scale(0.09 -0.09)">
      <defs>
       <path id="DejaVuSans-Oblique-72" d="M 2853 2969 
Q 2766 3016 2653 3041 
Q 2541 3066 2413 3066 
Q 1953 3066 1609 2717 
Q 1266 2369 1153 1784 
L 800 0 
L 225 0 
L 909 3500 
L 1484 3500 
L 1375 2956 
Q 1603 3259 1920 3421 
Q 2238 3584 2597 3584 
Q 2691 3584 2781 3573 
Q 2872 3563 2963 3538 
L 2853 2969 
z
" transform="scale(0.015625)"/>
       <path id="DejaVuSans-Oblique-61" d="M 3438 1997 
L 3047 0 
L 2472 0 
L 2578 531 
Q 2325 219 2001 64 
Q 1678 -91 1281 -91 
Q 834 -91 548 182 
Q 263 456 263 884 
Q 263 1497 752 1853 
Q 1241 2209 2100 2209 
L 2900 2209 
L 2931 2363 
Q 2938 2388 2941 2417 
Q 2944 2447 2944 2509 
Q 2944 2788 2717 2942 
Q 2491 3097 2081 3097 
Q 1800 3097 1504 3025 
Q 1209 2953 897 2809 
L 997 3341 
Q 1322 3463 1633 3523 
Q 1944 3584 2234 3584 
Q 2853 3584 3176 3315 
Q 3500 3047 3500 2534 
Q 3500 2431 3484 2292 
Q 3469 2153 3438 1997 
z
M 2816 1759 
L 2241 1759 
Q 1534 1759 1195 1570 
Q 856 1381 856 984 
Q 856 709 1029 553 
Q 1203 397 1509 397 
Q 1978 397 2328 733 
Q 2678 1069 2791 1631 
L 2816 1759 
z
" transform="scale(0.015625)"/>
       <path id="DejaVuSans-2f" d="M 1625 4666 
L 2156 4666 
L 531 -594 
L 0 -594 
L 1625 4666 
z
" transform="scale(0.015625)"/>
       <path id="DejaVuSans-Oblique-73" d="M 3200 3397 
L 3091 2853 
Q 2863 2978 2609 3040 
Q 2356 3103 2088 3103 
Q 1634 3103 1373 2948 
Q 1113 2794 1113 2528 
Q 1113 2219 1719 2053 
Q 1766 2041 1788 2034 
L 1972 1978 
Q 2547 1819 2739 1644 
Q 2931 1469 2931 1166 
Q 2931 609 2489 259 
Q 2047 -91 1331 -91 
Q 1053 -91 747 -37 
Q 441 16 72 128 
L 184 722 
Q 500 559 806 475 
Q 1113 391 1394 391 
Q 1816 391 2080 572 
Q 2344 753 2344 1031 
Q 2344 1331 1650 1516 
L 1591 1531 
L 1394 1581 
Q 956 1697 753 1886 
Q 550 2075 550 2369 
Q 550 2928 970 3256 
Q 1391 3584 2113 3584 
Q 2397 3584 2667 3537 
Q 2938 3491 3200 3397 
z
" transform="scale(0.015625)"/>
      </defs>
      <use xlink:href="#DejaVuSans-Oblique-72" transform="translate(0 0.015625)"/>
      <use xlink:href="#DejaVuSerif-20" transform="translate(41.113281 0.015625)"/>
      <use xlink:href="#DejaVuSans-5b" transform="translate(72.900391 0.015625)"/>
      <use xlink:href="#DejaVuSans-Oblique-72" transform="translate(111.914062 0.015625)"/>
      <use xlink:href="#DejaVuSans-Oblique-61" transform="translate(153.027344 0.015625)"/>
      <use xlink:href="#DejaVuSans-Oblique-64" transform="translate(214.306641 0.015625)"/>
      <use xlink:href="#DejaVuSans-2f" transform="translate(277.783203 0.015625)"/>
      <use xlink:href="#DejaVuSans-Oblique-73" transform="translate(311.474609 0.015625)"/>
      <use xlink:href="#DejaVuSans-5d" transform="translate(363.574219 0.015625)"/>
     </g>
    </g>
   </g>
   <g id="line2d_81">
    <path d="M 71.493707 196.665877 
L 72.204489 196.784533 
L 72.915271 197.131556 
L 73.705029 197.769938 
L 74.573762 198.762631 
L 75.521471 200.180909 
L 76.785083 202.561535 
L 78.52255 205.933537 
L 80.18104 208.666036 
L 81.839531 211.018216 
L 83.655974 213.216325 
L 85.551392 215.158622 
L 87.44681 216.806511 
L 90.05301 218.723611 
L 92.738185 220.318277 
L 95.344385 221.594289 
L 98.187512 222.792839 
L 101.425518 223.910395 
L 104.7425 224.830731 
L 111.455439 226.342785 
L 116.351936 227.216455 
L 124.012584 228.283142 
L 125.829026 228.435355 
L 126.69776 228.154885 
L 127.487517 227.626287 
L 128.356251 226.721754 
L 129.30396 225.444218 
L 130.330644 223.697651 
L 131.594256 221.070343 
L 132.936844 217.754707 
L 134.516359 213.238414 
L 138.702074 200.677229 
L 140.360565 196.879767 
L 142.019056 193.640716 
L 143.677547 190.86149 
L 145.651941 188.007314 
L 147.389407 185.841891 
L 149.363801 183.715346 
L 151.733074 181.526177 
L 154.102346 179.726729 
L 156.471619 178.165857 
L 159.314746 176.562967 
L 162.078898 175.263001 
L 165.711782 173.841634 
L 171.082134 172.116237 
L 176.768388 170.602627 
L 182.217715 169.346157 
L 191.931733 167.410171 
L 195.564617 166.863852 
L 206.937126 165.4508 
L 215.308556 164.494458 
L 224.864622 163.555574 
L 238.132549 162.484989 
L 243.897779 162.202665 
L 244.608561 162.497124 
L 245.398318 163.089266 
L 246.267052 164.022184 
L 247.214761 165.367547 
L 248.320421 167.333291 
L 249.584033 170.04525 
L 251.005597 173.643698 
L 252.585112 178.27939 
L 256.454924 190.037314 
L 258.034439 193.751048 
L 259.69293 197.08468 
L 261.430397 200.071447 
L 263.246839 202.752925 
L 265.221233 205.24955 
L 267.274602 207.47181 
L 269.564899 209.612369 
L 271.539293 211.22651 
L 273.908566 212.854698 
L 276.98862 214.685385 
L 279.59482 216.005693 
L 283.227705 217.544252 
L 286.702638 218.856375 
L 290.888353 220.18487 
L 294.837141 221.293018 
L 308.578922 224.479594 
L 312.843613 225.23687 
L 318.450891 226.162453 
L 324.768952 227.107225 
L 339.063563 228.649281 
L 351.699684 229.949825 
L 365.994295 230.977273 
L 365.994295 230.977273 
" clip-path="url(#pc3bc15f099)" style="fill: none; stroke: #0000ff; stroke-width: 0.75; stroke-linecap: round"/>
   </g>
   <g id="line2d_82">
    <path d="M 71.493707 196.665877 
L 72.204489 196.784495 
L 72.915271 197.131239 
L 73.705029 197.768747 
L 74.573762 198.759477 
L 75.521471 200.174042 
L 76.785083 202.545414 
L 78.52255 205.896714 
L 80.102065 208.483498 
L 81.68158 210.697976 
L 83.498022 212.880865 
L 85.314464 214.744777 
L 87.209882 216.3661 
L 89.263252 217.844573 
L 91.7115 219.315037 
L 94.001797 220.420168 
L 97.318779 221.741731 
L 100.08293 222.607959 
L 104.426597 223.709752 
L 107.3487 224.317099 
L 116.193984 225.65396 
L 127.171614 226.65098 
L 127.882396 226.439045 
L 128.672154 225.933149 
L 129.540887 225.101939 
L 130.567572 223.773568 
L 131.594256 222.058854 
L 132.778893 219.642103 
L 134.121481 216.399964 
L 135.700996 211.95004 
L 137.517438 206.140378 
L 138.939002 201.823654 
L 140.439541 197.9139 
L 142.019056 194.395862 
L 143.756523 191.081311 
L 145.493989 188.268114 
L 147.15248 185.966983 
L 149.126874 183.612133 
L 151.259219 181.455483 
L 153.391565 179.643229 
L 155.602886 178.100085 
L 157.814207 176.791111 
L 160.499383 175.467424 
L 163.658413 174.184434 
L 167.05437 173.052289 
L 172.661649 171.581008 
L 175.820679 170.942133 
L 186.640357 169.030046 
L 199.750332 167.547741 
L 219.099392 166.100716 
L 228.497507 165.586829 
L 245.951149 164.840795 
L 246.661931 165.138923 
L 247.530664 165.771543 
L 248.399397 166.710132 
L 249.347106 168.069951 
L 250.452767 170.058183 
L 251.716379 172.79602 
L 253.137942 176.412966 
L 254.717457 181.043589 
L 258.429318 192.3663 
L 260.008833 196.119512 
L 261.667324 199.478758 
L 263.325815 202.363624 
L 265.063281 204.964858 
L 266.958699 207.382052 
L 268.854117 209.444135 
L 271.22339 211.656037 
L 273.197784 213.21026 
L 275.725008 214.870487 
L 278.805063 216.55022 
L 282.043068 217.944717 
L 285.281074 219.097904 
L 289.071911 220.194477 
L 294.28431 221.436602 
L 299.49671 222.454187 
L 307.789164 223.950235 
L 314.660055 224.848438 
L 321.925824 225.653337 
L 328.954667 226.315872 
L 341.116933 227.207632 
L 355.016665 227.792312 
L 358.570574 227.954036 
L 363.230144 228.162569 
L 367.02098 228.334034 
L 367.02098 228.334034 
" clip-path="url(#pc3bc15f099)" style="fill: none; stroke: #008000; stroke-width: 0.75; stroke-linecap: round"/>
   </g>
   <g id="line2d_83">
    <path d="M 71.493707 196.665877 
L 72.125513 196.770354 
L 72.836295 197.123616 
L 73.547077 197.714554 
L 74.41581 198.727614 
L 75.442495 200.296366 
L 76.548156 202.371293 
L 78.917428 206.985515 
L 80.654895 209.799612 
L 82.392361 212.211817 
L 84.208804 214.363805 
L 86.183198 216.348122 
L 88.315543 218.164337 
L 90.447888 219.681228 
L 92.817161 221.085512 
L 95.423361 222.377384 
L 98.187512 223.491529 
L 101.188591 224.474609 
L 104.979427 225.466712 
L 108.849239 226.279068 
L 113.903687 227.094764 
L 119.43199 227.752239 
L 124.881317 228.193101 
L 125.592099 228.014254 
L 126.302881 227.601412 
L 127.092638 226.870633 
L 127.961372 225.745226 
L 128.988057 224.0261 
L 130.172693 221.575 
L 131.436305 218.428347 
L 133.01582 213.879506 
L 134.990214 207.418993 
L 136.806656 201.534754 
L 138.386171 197.193895 
L 140.044662 193.28976 
L 141.703153 189.945088 
L 143.44062 186.954959 
L 145.178086 184.40497 
L 146.994529 182.120595 
L 148.968922 179.999651 
L 151.022292 178.12044 
L 153.233613 176.389317 
L 155.602886 174.826047 
L 158.209086 173.366169 
L 160.973237 172.072682 
L 164.053291 170.877599 
L 167.449249 169.79654 
L 171.634964 168.686957 
L 175.97863 167.768461 
L 181.033079 166.937548 
L 188.061921 166.038979 
L 195.406666 165.29111 
L 204.567853 164.638293 
L 214.12392 164.188503 
L 225.417453 163.851365 
L 237.263816 163.723254 
L 237.974598 163.942537 
L 238.764355 164.460453 
L 239.633088 165.322958 
L 240.501822 166.521328 
L 241.607482 168.462338 
L 242.792119 171.029036 
L 244.213682 174.706821 
L 245.872173 179.68095 
L 248.320421 187.867794 
L 249.899936 192.618626 
L 251.479452 196.694198 
L 253.137942 200.360766 
L 254.796433 203.497545 
L 256.5339 206.309951 
L 258.350342 208.833648 
L 260.166784 211.005007 
L 262.141178 213.016517 
L 264.273524 214.870712 
L 266.563821 216.554157 
L 269.012069 218.07953 
L 271.855196 219.584557 
L 274.777299 220.886126 
L 278.252232 222.177946 
L 281.885117 223.30728 
L 286.228783 224.429851 
L 290.730401 225.36361 
L 296.258704 226.276614 
L 302.181886 227.025734 
L 310.395364 227.825959 
L 320.504261 228.566479 
L 329.191594 228.971886 
L 342.222593 229.345535 
L 351.620708 229.493006 
L 351.620708 229.493006 
" clip-path="url(#pc3bc15f099)" style="fill: none; stroke: #ff0000; stroke-width: 0.75; stroke-linecap: round"/>
   </g>
   <g id="patch_9">
    <path d="M 56.717344 234.42 
L 56.717344 158.68 
" style="fill: none; stroke: #000000; stroke-linejoin: miter; stroke-linecap: square"/>
   </g>
   <g id="patch_10">
    <path d="M 56.717344 234.42 
L 381.797344 234.42 
" style="fill: none; stroke: #000000; stroke-linejoin: miter; stroke-linecap: square"/>
   </g>
  </g>
 </g>
 <defs>
  <clipPath id="pb113fa2e21">
   <rect x="56.717344" y="7.2" width="325.08" height="75.74"/>
  </clipPath>
  <clipPath id="p051dc1006a">
   <rect x="56.717344" y="82.94" width="325.08" height="75.74"/>
  </clipPath>
  <clipPath id="pc3bc15f099">
   <rect x="56.717344" y="158.68" width="325.08" height="75.74"/>
  </clipPath>
 </defs>
</svg>
