<?xml version="1.0" encoding="utf-8" standalone="no"?>
<!DOCTYPE svg PUBLIC "-//W3C//DTD SVG 1.1//EN"
  "http://www.w3.org/Graphics/SVG/1.1/DTD/svg11.dtd">
<svg xmlns:xlink="http://www.w3.org/1999/xlink" width="221.23975pt" height="245.546375pt" viewBox="0 0 221.23975 245.546375" xmlns="http://www.w3.org/2000/svg" version="1.1">
 <metadata>
  <rdf:RDF xmlns:dc="http://purl.org/dc/elements/1.1/" xmlns:cc="http://creativecommons.org/ns#" xmlns:rdf="http://www.w3.org/1999/02/22-rdf-syntax-ns#">
   <cc:Work>
    <dc:type rdf:resource="http://purl.org/dc/dcmitype/StillImage"/>
    <dc:date>2024-06-06T10:17:25.694042</dc:date>
    <dc:format>image/svg+xml</dc:format>
    <dc:creator>
     <cc:Agent>
      <dc:title>Matplotlib v3.8.2, https://matplotlib.org/</dc:title>
     </cc:Agent>
    </dc:creator>
   </cc:Work>
  </rdf:RDF>
 </metadata>
 <defs>
  <style type="text/css">*{stroke-linejoin: round; stroke-linecap: butt}</style>
 </defs>
 <g id="figure_1">
  <g id="patch_1">
   <path d="M 0 245.546375 
L 221.23975 245.546375 
L 221.23975 0 
L 0 0 
z
" style="fill: #ffffff"/>
  </g>
  <g id="axes_1">
   <g id="patch_2">
    <path d="M 47.465469 91.651706 
L 214.03975 91.651706 
L 214.03975 28.829059 
L 47.465469 28.829059 
z
" style="fill: #ffffff"/>
   </g>
   <g id="line2d_1">
    <path d="M 55.037027 60.343558 
L 55.961907 60.484465 
L 56.846481 60.838896 
L 57.73111 61.428792 
L 61.149128 64.317551 
L 70.47771 72.370083 
L 74.981308 75.70042 
L 77.393896 77.234849 
L 79.404328 78.252739 
L 81.45507 79.032795 
L 82.580953 79.286138 
L 83.425376 79.23067 
L 84.309998 78.955366 
L 85.234943 78.436786 
L 86.199864 77.641463 
L 87.205108 76.514399 
L 89.738339 73.125968 
L 93.11603 68.194748 
L 97.13703 62.419052 
L 100.474463 58.031613 
L 103.2087 54.780755 
L 105.661571 52.206287 
L 108.355615 49.707418 
L 111.250777 47.317772 
L 113.98503 45.344061 
L 117.764774 42.920253 
L 122.067248 40.376687 
L 124.922196 38.933165 
L 128.500897 37.371003 
L 133.486955 35.448489 
L 136.663516 34.437746 
L 138.674024 34.017134 
L 140.443239 33.875584 
L 142.333125 33.948406 
L 143.217807 34.194653 
L 144.142575 34.692613 
L 145.147823 35.495225 
L 146.233611 36.66022 
L 147.359373 38.210179 
L 150.214313 42.837757 
L 157.009865 53.930255 
L 160.025549 58.202595 
L 163.001115 62.061437 
L 165.534374 64.984868 
L 168.268684 67.788185 
L 170.962743 70.265291 
L 173.495934 72.298793 
L 176.511698 74.406404 
L 181.33698 77.492547 
L 184.794983 79.455874 
L 188.172617 81.115543 
L 191.630717 82.574788 
L 196.657025 84.445099 
L 199.471646 85.281009 
L 201.401883 85.621458 
L 203.412302 85.745815 
L 204.658787 85.6534 
L 204.859793 85.6009 
L 204.859793 85.6009 
" clip-path="url(#pfdf9fa1313)" style="fill: none; stroke: #000000; stroke-width: 0.6; stroke-linecap: round"/>
   </g>
   <g id="matplotlib.axis_1">
    <g id="xtick_1">
     <g id="line2d_2">
      <path d="M 55.037027 91.651706 
L 55.037027 28.829059 
" clip-path="url(#pfdf9fa1313)" style="fill: none; stroke: #b0b0b0; stroke-width: 0.1; stroke-linecap: round"/>
     </g>
     <g id="line2d_3"/>
    </g>
    <g id="xtick_2">
     <g id="line2d_4">
      <path d="M 95.247108 91.651706 
L 95.247108 28.829059 
" clip-path="url(#pfdf9fa1313)" style="fill: none; stroke: #b0b0b0; stroke-width: 0.1; stroke-linecap: round"/>
     </g>
     <g id="line2d_5"/>
    </g>
    <g id="xtick_3">
     <g id="line2d_6">
      <path d="M 135.457189 91.651706 
L 135.457189 28.829059 
" clip-path="url(#pfdf9fa1313)" style="fill: none; stroke: #b0b0b0; stroke-width: 0.1; stroke-linecap: round"/>
     </g>
     <g id="line2d_7"/>
    </g>
    <g id="xtick_4">
     <g id="line2d_8">
      <path d="M 175.66727 91.651706 
L 175.66727 28.829059 
" clip-path="url(#pfdf9fa1313)" style="fill: none; stroke: #b0b0b0; stroke-width: 0.1; stroke-linecap: round"/>
     </g>
     <g id="line2d_9"/>
    </g>
   </g>
   <g id="matplotlib.axis_2">
    <g id="ytick_1">
     <g id="line2d_10">
      <path d="M 47.465469 81.653606 
L 214.03975 81.653606 
" clip-path="url(#pfdf9fa1313)" style="fill: none; stroke: #b0b0b0; stroke-width: 0.1; stroke-linecap: round"/>
     </g>
     <g id="line2d_11"/>
     <g id="text_1">
      <!-- −5 -->
      <g style="fill: #262626" transform="translate(33.645938 84.313059) scale(0.07 -0.07)">
       <defs>
        <path id="DejaVuSerif-2212" d="M 678 2259 
L 4684 2259 
L 4684 1753 
L 678 1753 
L 678 2259 
z
" transform="scale(0.015625)"/>
        <path id="DejaVuSerif-35" d="M 3219 4666 
L 3219 4153 
L 1081 4153 
L 1081 2816 
Q 1244 2928 1461 2984 
Q 1678 3041 1947 3041 
Q 2703 3041 3140 2622 
Q 3578 2203 3578 1478 
Q 3578 738 3136 323 
Q 2694 -91 1894 -91 
Q 1572 -91 1234 -12 
Q 897 66 544 225 
L 544 1131 
L 897 1131 
Q 925 688 1179 453 
Q 1434 219 1894 219 
Q 2388 219 2653 544 
Q 2919 869 2919 1478 
Q 2919 2084 2655 2407 
Q 2391 2731 1894 2731 
Q 1613 2731 1398 2631 
Q 1184 2531 1019 2322 
L 750 2322 
L 750 4666 
L 3219 4666 
z
" transform="scale(0.015625)"/>
       </defs>
       <use xlink:href="#DejaVuSerif-2212"/>
       <use xlink:href="#DejaVuSerif-35" x="83.789062"/>
      </g>
     </g>
    </g>
    <g id="ytick_2">
     <g id="line2d_12">
      <path d="M 47.465469 60.397143 
L 214.03975 60.397143 
" clip-path="url(#pfdf9fa1313)" style="fill: none; stroke: #b0b0b0; stroke-width: 0.1; stroke-linecap: round"/>
     </g>
     <g id="line2d_13"/>
     <g id="text_2">
      <!-- 0 -->
      <g style="fill: #262626" transform="translate(39.511719 63.056596) scale(0.07 -0.07)">
       <defs>
        <path id="DejaVuSerif-30" d="M 2034 219 
Q 2513 219 2750 744 
Q 2988 1269 2988 2328 
Q 2988 3391 2750 3916 
Q 2513 4441 2034 4441 
Q 1556 4441 1318 3916 
Q 1081 3391 1081 2328 
Q 1081 1269 1318 744 
Q 1556 219 2034 219 
z
M 2034 -91 
Q 1275 -91 848 546 
Q 422 1184 422 2328 
Q 422 3475 848 4112 
Q 1275 4750 2034 4750 
Q 2797 4750 3222 4112 
Q 3647 3475 3647 2328 
Q 3647 1184 3222 546 
Q 2797 -91 2034 -91 
z
" transform="scale(0.015625)"/>
       </defs>
       <use xlink:href="#DejaVuSerif-30"/>
      </g>
     </g>
    </g>
    <g id="ytick_3">
     <g id="line2d_14">
      <path d="M 47.465469 39.140681 
L 214.03975 39.140681 
" clip-path="url(#pfdf9fa1313)" style="fill: none; stroke: #b0b0b0; stroke-width: 0.1; stroke-linecap: round"/>
     </g>
     <g id="line2d_15"/>
     <g id="text_3">
      <!-- 5 -->
      <g style="fill: #262626" transform="translate(39.511719 41.800134) scale(0.07 -0.07)">
       <use xlink:href="#DejaVuSerif-35"/>
      </g>
     </g>
    </g>
    <g id="text_4">
     <!-- $\beta$ $[deg]$ -->
     <g style="fill: #262626" transform="translate(12.59 72.945382) rotate(-90) scale(0.07 -0.07)">
      <defs>
       <path id="DejaVuSans-Oblique-3b2" d="M 872 216 
L 572 -1331 
L -6 -1331 
L 928 3478 
Q 1206 4903 2538 4903 
Q 3888 4903 3659 3700 
Q 3503 2844 2894 2531 
Q 3713 2250 3553 1416 
Q 3272 -69 1759 -66 
Q 1097 -63 872 216 
z
M 1019 966 
Q 1259 422 1875 425 
Q 2775 425 2966 1406 
Q 3138 2288 1675 2219 
L 1778 2750 
Q 2909 2731 3106 3750 
Q 3241 4438 2509 4434 
Q 1691 4434 1503 3459 
L 1019 966 
z
" transform="scale(0.015625)"/>
       <path id="DejaVuSerif-20" transform="scale(0.015625)"/>
       <path id="DejaVuSans-5b" d="M 550 4863 
L 1875 4863 
L 1875 4416 
L 1125 4416 
L 1125 -397 
L 1875 -397 
L 1875 -844 
L 550 -844 
L 550 4863 
z
" transform="scale(0.015625)"/>
       <path id="DejaVuSans-Oblique-64" d="M 2675 525 
Q 2444 222 2128 65 
Q 1813 -91 1428 -91 
Q 903 -91 598 267 
Q 294 625 294 1247 
Q 294 1766 478 2236 
Q 663 2706 1013 3078 
Q 1244 3325 1534 3454 
Q 1825 3584 2144 3584 
Q 2481 3584 2739 3421 
Q 2997 3259 3138 2956 
L 3513 4863 
L 4091 4863 
L 3144 0 
L 2566 0 
L 2675 525 
z
M 891 1350 
Q 891 897 1095 644 
Q 1300 391 1663 391 
Q 1931 391 2161 520 
Q 2391 650 2566 903 
Q 2750 1166 2856 1509 
Q 2963 1853 2963 2188 
Q 2963 2622 2758 2865 
Q 2553 3109 2194 3109 
Q 1922 3109 1687 2981 
Q 1453 2853 1288 2613 
Q 1106 2353 998 2009 
Q 891 1666 891 1350 
z
" transform="scale(0.015625)"/>
       <path id="DejaVuSans-Oblique-65" d="M 3078 2063 
Q 3088 2113 3092 2166 
Q 3097 2219 3097 2272 
Q 3097 2653 2873 2875 
Q 2650 3097 2266 3097 
Q 1838 3097 1509 2826 
Q 1181 2556 1013 2059 
L 3078 2063 
z
M 3578 1613 
L 903 1613 
Q 884 1494 878 1425 
Q 872 1356 872 1306 
Q 872 872 1139 634 
Q 1406 397 1894 397 
Q 2269 397 2603 481 
Q 2938 566 3225 728 
L 3116 159 
Q 2806 34 2476 -28 
Q 2147 -91 1806 -91 
Q 1078 -91 686 257 
Q 294 606 294 1247 
Q 294 1794 489 2264 
Q 684 2734 1063 3103 
Q 1306 3334 1642 3459 
Q 1978 3584 2356 3584 
Q 2950 3584 3301 3228 
Q 3653 2872 3653 2272 
Q 3653 2128 3634 1964 
Q 3616 1800 3578 1613 
z
" transform="scale(0.015625)"/>
       <path id="DejaVuSans-Oblique-67" d="M 3816 3500 
L 3219 434 
Q 3047 -456 2561 -893 
Q 2075 -1331 1253 -1331 
Q 950 -1331 690 -1286 
Q 431 -1241 206 -1147 
L 313 -588 
Q 525 -725 762 -790 
Q 1000 -856 1269 -856 
Q 1816 -856 2167 -557 
Q 2519 -259 2631 300 
L 2681 563 
Q 2441 288 2122 144 
Q 1803 0 1434 0 
Q 903 0 598 351 
Q 294 703 294 1319 
Q 294 1803 478 2267 
Q 663 2731 997 3091 
Q 1219 3328 1514 3456 
Q 1809 3584 2131 3584 
Q 2484 3584 2746 3420 
Q 3009 3256 3138 2956 
L 3238 3500 
L 3816 3500 
z
M 2950 2216 
Q 2950 2641 2750 2872 
Q 2550 3103 2181 3103 
Q 1953 3103 1747 3012 
Q 1541 2922 1394 2759 
Q 1156 2491 1023 2127 
Q 891 1763 891 1375 
Q 891 944 1092 712 
Q 1294 481 1672 481 
Q 2219 481 2584 976 
Q 2950 1472 2950 2216 
z
" transform="scale(0.015625)"/>
       <path id="DejaVuSans-5d" d="M 1947 4863 
L 1947 -844 
L 622 -844 
L 622 -397 
L 1369 -397 
L 1369 4416 
L 622 4416 
L 622 4863 
L 1947 4863 
z
" transform="scale(0.015625)"/>
      </defs>
      <use xlink:href="#DejaVuSans-Oblique-3b2" transform="translate(0 0.390625)"/>
      <use xlink:href="#DejaVuSerif-20" transform="translate(63.818359 0.390625)"/>
      <use xlink:href="#DejaVuSans-5b" transform="translate(95.605469 0.390625)"/>
      <use xlink:href="#DejaVuSans-Oblique-64" transform="translate(134.619141 0.390625)"/>
      <use xlink:href="#DejaVuSans-Oblique-65" transform="translate(198.095703 0.390625)"/>
      <use xlink:href="#DejaVuSans-Oblique-67" transform="translate(259.619141 0.390625)"/>
      <use xlink:href="#DejaVuSans-5d" transform="translate(323.095703 0.390625)"/>
     </g>
    </g>
   </g>
   <g id="line2d_16">
    <path d="M 55.037027 60.397143 
L 55.921649 60.505952 
L 56.76606 60.82551 
L 57.610472 61.378785 
L 59.500346 63.038085 
L 71.20148 73.613727 
L 74.538916 76.186307 
L 78.117614 78.676492 
L 81.937571 81.040396 
L 83.264504 81.68451 
L 84.108916 81.825253 
L 84.913117 81.727563 
L 85.717319 81.396595 
L 86.561731 80.791786 
L 87.446352 79.867727 
L 88.813495 78.025622 
L 92.673663 72.448946 
L 97.659713 65.3446 
L 100.99715 60.983117 
L 104.254166 57.091024 
L 107.350342 53.74484 
L 110.808409 50.340294 
L 114.025216 47.474186 
L 117.242022 44.911256 
L 120.78051 42.3862 
L 124.318997 40.13389 
L 128.219375 37.928727 
L 132.159962 35.951009 
L 136.02013 34.259595 
L 140.72471 32.442621 
L 143.097105 31.703605 
L 143.901306 31.724077 
L 144.705508 31.966984 
L 145.549919 32.46622 
L 146.434541 33.265504 
L 147.359373 34.416754 
L 148.847146 36.737059 
L 158.899666 52.692054 
L 162.116473 57.204975 
L 165.212649 61.172708 
L 168.268615 64.738447 
L 171.606052 68.268478 
L 174.621808 71.157077 
L 177.919035 74.031669 
L 181.055421 76.47649 
L 184.473278 78.855212 
L 188.132395 81.128456 
L 191.992563 83.2646 
L 195.852731 85.157488 
L 200.114999 86.997697 
L 204.417478 88.625176 
L 204.899999 88.796131 
L 204.899999 88.796131 
" clip-path="url(#pfdf9fa1313)" style="fill: none; stroke: #0000ff; stroke-width: 0.6; stroke-linecap: round"/>
   </g>
   <g id="line2d_17">
    <path d="M 55.037027 60.397143 
L 55.921649 60.505831 
L 56.76606 60.824578 
L 57.610472 61.375427 
L 59.580766 63.093538 
L 69.271396 71.67669 
L 72.568622 74.17416 
L 75.946269 76.453533 
L 79.364126 78.498029 
L 82.822193 80.32576 
L 84.108916 80.847985 
L 84.953327 80.929099 
L 85.757529 80.781541 
L 86.561731 80.403714 
L 87.365932 79.791758 
L 88.290764 78.792659 
L 89.577487 77.022753 
L 94.684167 69.455841 
L 98.262864 64.381963 
L 101.39925 60.312709 
L 104.334586 56.872345 
L 107.229712 53.80422 
L 110.285678 50.891832 
L 113.301434 48.317978 
L 116.317191 46.016427 
L 119.332947 43.981501 
L 122.670383 42.005848 
L 126.289291 40.113 
L 130.270089 38.290428 
L 134.170467 36.74945 
L 138.513155 35.278502 
L 143.097105 33.962607 
L 144.826138 33.61151 
L 145.63034 33.703406 
L 146.474751 34.030816 
L 147.319163 34.60784 
L 148.203785 35.485251 
L 149.168827 36.769578 
L 151.179331 40.026449 
L 158.376935 51.68898 
L 161.513322 56.251765 
L 164.448658 60.151048 
L 167.343783 63.632354 
L 170.037859 66.536084 
L 173.254665 69.670567 
L 176.350842 72.356164 
L 179.165547 74.529819 
L 182.462774 76.794247 
L 185.840421 78.835465 
L 189.338698 80.677829 
L 193.319496 82.512651 
L 197.179664 84.054164 
L 201.924453 85.676223 
L 206.186722 86.904995 
L 206.468192 86.980998 
L 206.468192 86.980998 
" clip-path="url(#pfdf9fa1313)" style="fill: none; stroke: #008000; stroke-width: 0.6; stroke-linecap: round"/>
   </g>
   <g id="line2d_18">
    <path d="M 55.037027 60.397143 
L 56.002069 60.509039 
L 56.886691 60.831904 
L 57.771313 61.391491 
L 59.620976 62.952825 
L 62.998623 66.153572 
L 67.341312 70.180496 
L 70.357068 72.67665 
L 73.292404 74.810236 
L 76.14732 76.620409 
L 79.042445 78.206717 
L 82.058201 79.605783 
L 82.942823 79.818589 
L 83.747025 79.792821 
L 84.551227 79.553384 
L 85.395638 79.06771 
L 86.28026 78.280685 
L 87.205092 77.153071 
L 88.813495 74.716588 
L 91.949881 69.477135 
L 95.689419 63.369498 
L 98.383494 59.398548 
L 100.876519 56.111795 
L 103.329334 53.243007 
L 105.782149 50.714748 
L 108.234964 48.497539 
L 110.727989 46.540729 
L 113.341645 44.767996 
L 116.15635 43.131769 
L 119.172106 41.638883 
L 122.308493 40.330723 
L 125.686139 39.166465 
L 129.425677 38.117969 
L 133.446685 37.218888 
L 137.990424 36.435869 
L 139.719458 36.279602 
L 140.604079 36.480446 
L 141.488701 36.918366 
L 142.373323 37.609944 
L 143.338365 38.665352 
L 144.343617 40.11166 
L 146.193281 43.300051 
L 153.752776 56.713747 
L 156.286011 60.563457 
L 158.698616 63.835133 
L 161.111221 66.736956 
L 163.523826 69.293348 
L 166.016851 71.612411 
L 168.550086 73.666092 
L 171.163741 75.494113 
L 173.938237 77.161457 
L 176.833363 78.639271 
L 180.009959 80.005155 
L 183.427816 81.232796 
L 187.046723 82.29553 
L 191.107941 83.243909 
L 195.65168 84.073691 
L 197.420924 84.339454 
L 197.420924 84.339454 
" clip-path="url(#pfdf9fa1313)" style="fill: none; stroke: #ff0000; stroke-width: 0.6; stroke-linecap: round"/>
   </g>
   <g id="patch_3">
    <path d="M 47.465469 91.651706 
L 47.465469 28.829059 
" style="fill: none; stroke: #000000; stroke-linejoin: miter; stroke-linecap: square"/>
   </g>
   <g id="patch_4">
    <path d="M 47.465469 91.651706 
L 214.03975 91.651706 
" style="fill: none; stroke: #000000; stroke-linejoin: miter; stroke-linecap: square"/>
   </g>
   <g id="legend_1">
    <g id="line2d_19">
     <path d="M 79.99386 12.868906 
L 86.99386 12.868906 
L 93.99386 12.868906 
" style="fill: none; stroke: #000000; stroke-width: 0.6; stroke-linecap: round"/>
    </g>
    <g id="text_5">
     <!-- Model test -->
     <g style="fill: #262626" transform="translate(99.59386 15.318906) scale(0.07 -0.07)">
      <defs>
       <path id="DejaVuSerif-4d" d="M 353 0 
L 353 331 
L 947 331 
L 947 4331 
L 319 4331 
L 319 4666 
L 1678 4666 
L 3316 1344 
L 4953 4666 
L 6228 4666 
L 6228 4331 
L 5606 4331 
L 5606 331 
L 6203 331 
L 6203 0 
L 4378 0 
L 4378 331 
L 4972 331 
L 4972 3938 
L 3372 684 
L 2931 684 
L 1331 3938 
L 1331 331 
L 1925 331 
L 1925 0 
L 353 0 
z
" transform="scale(0.015625)"/>
       <path id="DejaVuSerif-6f" d="M 1925 219 
Q 2388 219 2623 584 
Q 2859 950 2859 1663 
Q 2859 2375 2623 2739 
Q 2388 3103 1925 3103 
Q 1463 3103 1227 2739 
Q 991 2375 991 1663 
Q 991 950 1228 584 
Q 1466 219 1925 219 
z
M 1925 -91 
Q 1200 -91 759 389 
Q 319 869 319 1663 
Q 319 2456 758 2934 
Q 1197 3413 1925 3413 
Q 2653 3413 3092 2934 
Q 3531 2456 3531 1663 
Q 3531 869 3092 389 
Q 2653 -91 1925 -91 
z
" transform="scale(0.015625)"/>
       <path id="DejaVuSerif-64" d="M 3359 331 
L 3909 331 
L 3909 0 
L 2784 0 
L 2784 519 
Q 2616 206 2355 57 
Q 2094 -91 1709 -91 
Q 1097 -91 708 395 
Q 319 881 319 1663 
Q 319 2444 706 2928 
Q 1094 3413 1709 3413 
Q 2094 3413 2355 3264 
Q 2616 3116 2784 2803 
L 2784 4531 
L 2241 4531 
L 2241 4863 
L 3359 4863 
L 3359 331 
z
M 2784 1497 
L 2784 1825 
Q 2784 2422 2554 2737 
Q 2325 3053 1888 3053 
Q 1444 3053 1217 2703 
Q 991 2353 991 1663 
Q 991 975 1217 622 
Q 1444 269 1888 269 
Q 2325 269 2554 583 
Q 2784 897 2784 1497 
z
" transform="scale(0.015625)"/>
       <path id="DejaVuSerif-65" d="M 3469 1600 
L 991 1600 
L 991 1575 
Q 991 903 1244 561 
Q 1497 219 1991 219 
Q 2369 219 2611 417 
Q 2853 616 2950 1006 
L 3413 1006 
Q 3275 459 2904 184 
Q 2534 -91 1931 -91 
Q 1203 -91 761 389 
Q 319 869 319 1663 
Q 319 2450 753 2931 
Q 1188 3413 1894 3413 
Q 2647 3413 3050 2948 
Q 3453 2484 3469 1600 
z
M 2791 1931 
Q 2772 2513 2545 2808 
Q 2319 3103 1894 3103 
Q 1497 3103 1269 2806 
Q 1041 2509 991 1931 
L 2791 1931 
z
" transform="scale(0.015625)"/>
       <path id="DejaVuSerif-6c" d="M 1313 331 
L 1856 331 
L 1856 0 
L 184 0 
L 184 331 
L 738 331 
L 738 4531 
L 184 4531 
L 184 4863 
L 1313 4863 
L 1313 331 
z
" transform="scale(0.015625)"/>
       <path id="DejaVuSerif-74" d="M 691 2988 
L 184 2988 
L 184 3322 
L 691 3322 
L 691 4353 
L 1269 4353 
L 1269 3322 
L 2350 3322 
L 2350 2988 
L 1269 2988 
L 1269 878 
Q 1269 456 1350 337 
Q 1431 219 1650 219 
Q 1875 219 1978 351 
Q 2081 484 2088 781 
L 2522 781 
Q 2497 328 2275 118 
Q 2053 -91 1600 -91 
Q 1103 -91 897 129 
Q 691 350 691 878 
L 691 2988 
z
" transform="scale(0.015625)"/>
       <path id="DejaVuSerif-73" d="M 359 184 
L 359 959 
L 691 959 
Q 703 588 923 403 
Q 1144 219 1575 219 
Q 1963 219 2166 364 
Q 2369 509 2369 788 
Q 2369 1006 2220 1140 
Q 2072 1275 1594 1428 
L 1178 1569 
Q 750 1706 558 1912 
Q 366 2119 366 2438 
Q 366 2894 700 3153 
Q 1034 3413 1625 3413 
Q 1888 3413 2178 3344 
Q 2469 3275 2778 3144 
L 2778 2419 
L 2447 2419 
Q 2434 2741 2221 2922 
Q 2009 3103 1644 3103 
Q 1281 3103 1095 2975 
Q 909 2847 909 2591 
Q 909 2381 1050 2254 
Q 1191 2128 1613 1997 
L 2069 1856 
Q 2541 1709 2748 1489 
Q 2956 1269 2956 922 
Q 2956 450 2595 179 
Q 2234 -91 1600 -91 
Q 1278 -91 972 -22 
Q 666 47 359 184 
z
" transform="scale(0.015625)"/>
      </defs>
      <use xlink:href="#DejaVuSerif-4d"/>
      <use xlink:href="#DejaVuSerif-6f" x="102.392578"/>
      <use xlink:href="#DejaVuSerif-64" x="162.597656"/>
      <use xlink:href="#DejaVuSerif-65" x="226.611328"/>
      <use xlink:href="#DejaVuSerif-6c" x="285.791016"/>
      <use xlink:href="#DejaVuSerif-20" x="317.773438"/>
      <use xlink:href="#DejaVuSerif-74" x="349.560547"/>
      <use xlink:href="#DejaVuSerif-65" x="389.746094"/>
      <use xlink:href="#DejaVuSerif-73" x="448.925781"/>
      <use xlink:href="#DejaVuSerif-74" x="500.244141"/>
     </g>
    </g>
    <g id="line2d_20">
     <path d="M 79.99386 23.143594 
L 86.99386 23.143594 
L 93.99386 23.143594 
" style="fill: none; stroke: #0000ff; stroke-width: 0.6; stroke-linecap: round"/>
    </g>
    <g id="text_6">
     <!-- Reference -->
     <g style="fill: #262626" transform="translate(99.59386 25.593594) scale(0.07 -0.07)">
      <defs>
       <path id="DejaVuSerif-52" d="M 3066 2316 
Q 3284 2256 3442 2114 
Q 3600 1972 3725 1716 
L 4403 331 
L 4972 331 
L 4972 0 
L 3872 0 
L 3144 1484 
Q 2934 1916 2759 2042 
Q 2584 2169 2278 2169 
L 1581 2169 
L 1581 331 
L 2241 331 
L 2241 0 
L 353 0 
L 353 331 
L 947 331 
L 947 4331 
L 353 4331 
L 353 4666 
L 2719 4666 
Q 3400 4666 3770 4341 
Q 4141 4016 4141 3419 
Q 4141 2938 3870 2661 
Q 3600 2384 3066 2316 
z
M 1581 2503 
L 2503 2503 
Q 2975 2503 3200 2726 
Q 3425 2950 3425 3419 
Q 3425 3888 3200 4109 
Q 2975 4331 2503 4331 
L 1581 4331 
L 1581 2503 
z
" transform="scale(0.015625)"/>
       <path id="DejaVuSerif-66" d="M 2753 4078 
L 2450 4078 
Q 2447 4313 2317 4434 
Q 2188 4556 1941 4556 
Q 1619 4556 1487 4379 
Q 1356 4203 1356 3750 
L 1356 3322 
L 2284 3322 
L 2284 2988 
L 1356 2988 
L 1356 331 
L 2094 331 
L 2094 0 
L 231 0 
L 231 331 
L 781 331 
L 781 2988 
L 231 2988 
L 231 3322 
L 781 3322 
L 781 3738 
Q 781 4294 1070 4578 
Q 1359 4863 1919 4863 
Q 2128 4863 2337 4825 
Q 2547 4788 2753 4709 
L 2753 4078 
z
" transform="scale(0.015625)"/>
       <path id="DejaVuSerif-72" d="M 3059 3328 
L 3059 2497 
L 2728 2497 
Q 2713 2744 2591 2866 
Q 2469 2988 2234 2988 
Q 1809 2988 1582 2694 
Q 1356 2400 1356 1850 
L 1356 331 
L 2022 331 
L 2022 0 
L 263 0 
L 263 331 
L 781 331 
L 781 2994 
L 231 2994 
L 231 3322 
L 1356 3322 
L 1356 2731 
Q 1525 3078 1790 3245 
Q 2056 3413 2438 3413 
Q 2578 3413 2733 3391 
Q 2888 3369 3059 3328 
z
" transform="scale(0.015625)"/>
       <path id="DejaVuSerif-6e" d="M 263 0 
L 263 331 
L 781 331 
L 781 2988 
L 231 2988 
L 231 3322 
L 1356 3322 
L 1356 2731 
Q 1516 3069 1770 3241 
Q 2025 3413 2363 3413 
Q 2913 3413 3172 3097 
Q 3431 2781 3431 2113 
L 3431 331 
L 3944 331 
L 3944 0 
L 2356 0 
L 2356 331 
L 2853 331 
L 2853 1931 
Q 2853 2541 2703 2767 
Q 2553 2994 2175 2994 
Q 1775 2994 1565 2701 
Q 1356 2409 1356 1850 
L 1356 331 
L 1856 331 
L 1856 0 
L 263 0 
z
" transform="scale(0.015625)"/>
       <path id="DejaVuSerif-63" d="M 3291 997 
Q 3169 466 2822 187 
Q 2475 -91 1925 -91 
Q 1200 -91 759 389 
Q 319 869 319 1663 
Q 319 2459 759 2936 
Q 1200 3413 1925 3413 
Q 2241 3413 2553 3339 
Q 2866 3266 3181 3116 
L 3181 2266 
L 2847 2266 
Q 2781 2703 2561 2903 
Q 2341 3103 1931 3103 
Q 1466 3103 1228 2742 
Q 991 2381 991 1663 
Q 991 944 1227 581 
Q 1463 219 1931 219 
Q 2303 219 2525 412 
Q 2747 606 2828 997 
L 3291 997 
z
" transform="scale(0.015625)"/>
      </defs>
      <use xlink:href="#DejaVuSerif-52"/>
      <use xlink:href="#DejaVuSerif-65" x="75.292969"/>
      <use xlink:href="#DejaVuSerif-66" x="134.472656"/>
      <use xlink:href="#DejaVuSerif-65" x="171.484375"/>
      <use xlink:href="#DejaVuSerif-72" x="230.664062"/>
      <use xlink:href="#DejaVuSerif-65" x="278.466797"/>
      <use xlink:href="#DejaVuSerif-6e" x="337.646484"/>
      <use xlink:href="#DejaVuSerif-63" x="402.050781"/>
      <use xlink:href="#DejaVuSerif-65" x="458.056641"/>
     </g>
    </g>
    <g id="line2d_21">
     <path d="M 151.424485 12.868906 
L 158.424485 12.868906 
L 165.424485 12.868906 
" style="fill: none; stroke: #008000; stroke-width: 0.6; stroke-linecap: round"/>
    </g>
    <g id="text_7">
     <!-- PI -->
     <g style="fill: #262626" transform="translate(171.024485 15.318906) scale(0.07 -0.07)">
      <defs>
       <path id="DejaVuSerif-50" d="M 1581 2375 
L 2406 2375 
Q 2872 2375 3115 2626 
Q 3359 2878 3359 3353 
Q 3359 3831 3115 4081 
Q 2872 4331 2406 4331 
L 1581 4331 
L 1581 2375 
z
M 353 0 
L 353 331 
L 947 331 
L 947 4331 
L 353 4331 
L 353 4666 
L 2559 4666 
Q 3259 4666 3668 4311 
Q 4078 3956 4078 3353 
Q 4078 2753 3668 2397 
Q 3259 2041 2559 2041 
L 1581 2041 
L 1581 331 
L 2303 331 
L 2303 0 
L 353 0 
z
" transform="scale(0.015625)"/>
       <path id="DejaVuSerif-49" d="M 1581 331 
L 2175 331 
L 2175 0 
L 353 0 
L 353 331 
L 947 331 
L 947 4331 
L 353 4331 
L 353 4666 
L 2175 4666 
L 2175 4331 
L 1581 4331 
L 1581 331 
z
" transform="scale(0.015625)"/>
      </defs>
      <use xlink:href="#DejaVuSerif-50"/>
      <use xlink:href="#DejaVuSerif-49" x="67.285156"/>
     </g>
    </g>
    <g id="line2d_22">
     <path d="M 151.424485 23.143594 
L 158.424485 23.143594 
L 165.424485 23.143594 
" style="fill: none; stroke: #ff0000; stroke-width: 0.6; stroke-linecap: round"/>
    </g>
    <g id="text_8">
     <!-- PU -->
     <g style="fill: #262626" transform="translate(171.024485 25.593594) scale(0.07 -0.07)">
      <defs>
       <path id="DejaVuSerif-55" d="M 897 4331 
L 300 4331 
L 300 4666 
L 2125 4666 
L 2125 4331 
L 1528 4331 
L 1528 1919 
Q 1528 1025 1820 672 
Q 2113 319 2828 319 
Q 3544 319 3836 672 
Q 4128 1025 4128 1919 
L 4128 4331 
L 3531 4331 
L 3531 4666 
L 5106 4666 
L 5106 4331 
L 4513 4331 
L 4513 1856 
Q 4513 791 4103 350 
Q 3694 -91 2713 -91 
Q 1731 -91 1314 353 
Q 897 797 897 1856 
L 897 4331 
z
" transform="scale(0.015625)"/>
      </defs>
      <use xlink:href="#DejaVuSerif-50"/>
      <use xlink:href="#DejaVuSerif-55" x="65.535156"/>
     </g>
    </g>
   </g>
  </g>
  <g id="axes_2">
   <g id="patch_5">
    <path d="M 47.465469 154.474353 
L 214.03975 154.474353 
L 214.03975 91.651706 
L 47.465469 91.651706 
z
" style="fill: #ffffff"/>
   </g>
   <g id="line2d_23">
    <path d="M 55.037027 123.419978 
L 57.168173 123.66729 
L 58.615776 124.064265 
L 60.143715 124.724628 
L 61.872825 125.726496 
L 63.843039 127.135218 
L 66.215438 129.117356 
L 69.110559 131.836824 
L 72.488271 135.322136 
L 76.227732 139.510487 
L 84.832822 149.330908 
L 86.199864 150.409251 
L 87.365952 151.064436 
L 88.491827 151.447174 
L 89.657951 151.610839 
L 90.904484 151.561582 
L 92.311792 151.274592 
L 93.879977 150.721808 
L 95.689491 149.842289 
L 97.780351 148.570018 
L 100.152967 146.855435 
L 102.84685 144.622907 
L 106.103882 141.621491 
L 110.446579 137.294898 
L 116.156358 131.29115 
L 120.901276 125.990234 
L 126.249117 119.654974 
L 136.583132 106.997132 
L 143.137335 99.032196 
L 144.946772 97.174878 
L 146.354129 96.037195 
L 147.560436 95.335599 
L 148.686398 94.929986 
L 149.852515 94.739791 
L 151.139121 94.760827 
L 152.546478 95.010076 
L 154.195119 95.536511 
L 156.125328 96.398252 
L 158.296624 97.618974 
L 160.628708 99.188155 
L 163.202165 101.193728 
L 166.177904 103.806876 
L 169.877014 107.370574 
L 175.506434 113.13857 
L 180.854411 118.916937 
L 186.64463 125.5179 
L 194.887701 135.287042 
L 204.859793 147.181147 
L 204.859793 147.181147 
" clip-path="url(#p039f9ebf1f)" style="fill: none; stroke: #000000; stroke-width: 0.6; stroke-linecap: round"/>
   </g>
   <g id="line2d_24">
    <path d="M 55.037027 123.725966 
L 55.640235 128.905025 
L 57.73111 145.890007 
L 58.012605 145.766339 
L 59.701408 145.763689 
L 62.274878 145.766339 
L 67.301166 145.766339 
L 81.696351 145.766339 
L 81.85726 144.390085 
L 83.425376 131.302427 
L 87.16493 100.522226 
L 87.205108 100.558443 
L 87.526793 100.611444 
L 90.14046 100.616744 
L 92.633469 100.616744 
L 142.011485 100.614977 
L 142.252709 102.596323 
L 146.675854 139.620899 
L 147.480104 145.890007 
L 147.520242 145.86174 
L 147.801692 145.773405 
L 149.611134 145.764572 
L 203.814331 145.765455 
L 203.934989 144.735473 
L 204.859793 137.022094 
L 204.859793 137.022094 
" clip-path="url(#p039f9ebf1f)" style="fill: none; stroke-dasharray: 2.22,0.96; stroke-dashoffset: 0; stroke: #808080; stroke-width: 0.6"/>
   </g>
   <g id="matplotlib.axis_3">
    <g id="xtick_5">
     <g id="line2d_25">
      <path d="M 55.037027 154.474353 
L 55.037027 91.651706 
" clip-path="url(#p039f9ebf1f)" style="fill: none; stroke: #b0b0b0; stroke-width: 0.1; stroke-linecap: round"/>
     </g>
     <g id="line2d_26"/>
    </g>
    <g id="xtick_6">
     <g id="line2d_27">
      <path d="M 95.247108 154.474353 
L 95.247108 91.651706 
" clip-path="url(#p039f9ebf1f)" style="fill: none; stroke: #b0b0b0; stroke-width: 0.1; stroke-linecap: round"/>
     </g>
     <g id="line2d_28"/>
    </g>
    <g id="xtick_7">
     <g id="line2d_29">
      <path d="M 135.457189 154.474353 
L 135.457189 91.651706 
" clip-path="url(#p039f9ebf1f)" style="fill: none; stroke: #b0b0b0; stroke-width: 0.1; stroke-linecap: round"/>
     </g>
     <g id="line2d_30"/>
    </g>
    <g id="xtick_8">
     <g id="line2d_31">
      <path d="M 175.66727 154.474353 
L 175.66727 91.651706 
" clip-path="url(#p039f9ebf1f)" style="fill: none; stroke: #b0b0b0; stroke-width: 0.1; stroke-linecap: round"/>
     </g>
     <g id="line2d_32"/>
    </g>
   </g>
   <g id="matplotlib.axis_4">
    <g id="ytick_4">
     <g id="line2d_33">
      <path d="M 47.465469 145.765083 
L 214.03975 145.765083 
" clip-path="url(#p039f9ebf1f)" style="fill: none; stroke: #b0b0b0; stroke-width: 0.1; stroke-linecap: round"/>
     </g>
     <g id="line2d_34"/>
     <g id="text_9">
      <!-- −10 -->
      <g style="fill: #262626" transform="translate(29.192187 148.424536) scale(0.07 -0.07)">
       <defs>
        <path id="DejaVuSerif-31" d="M 909 0 
L 909 331 
L 1722 331 
L 1722 4213 
L 781 3603 
L 781 4013 
L 1919 4750 
L 2350 4750 
L 2350 331 
L 3163 331 
L 3163 0 
L 909 0 
z
" transform="scale(0.015625)"/>
       </defs>
       <use xlink:href="#DejaVuSerif-2212"/>
       <use xlink:href="#DejaVuSerif-31" x="83.789062"/>
       <use xlink:href="#DejaVuSerif-30" x="147.412109"/>
      </g>
     </g>
    </g>
    <g id="ytick_5">
     <g id="line2d_35">
      <path d="M 47.465469 123.190658 
L 214.03975 123.190658 
" clip-path="url(#p039f9ebf1f)" style="fill: none; stroke: #b0b0b0; stroke-width: 0.1; stroke-linecap: round"/>
     </g>
     <g id="line2d_36"/>
     <g id="text_10">
      <!-- 0 -->
      <g style="fill: #262626" transform="translate(39.511719 125.850111) scale(0.07 -0.07)">
       <use xlink:href="#DejaVuSerif-30"/>
      </g>
     </g>
    </g>
    <g id="ytick_6">
     <g id="line2d_37">
      <path d="M 47.465469 100.616233 
L 214.03975 100.616233 
" clip-path="url(#p039f9ebf1f)" style="fill: none; stroke: #b0b0b0; stroke-width: 0.1; stroke-linecap: round"/>
     </g>
     <g id="line2d_38"/>
     <g id="text_11">
      <!-- 10 -->
      <g style="fill: #262626" transform="translate(35.057969 103.275686) scale(0.07 -0.07)">
       <use xlink:href="#DejaVuSerif-31"/>
       <use xlink:href="#DejaVuSerif-30" x="63.623047"/>
      </g>
     </g>
    </g>
    <g id="text_12">
     <!-- $\psi$ $[deg]$ -->
     <g style="fill: #262626" transform="translate(12.59 135.83803) rotate(-90) scale(0.07 -0.07)">
      <defs>
       <path id="DejaVuSans-Oblique-3c8" d="M 1591 -78 
Q 891 38 616 341 
Q 278 713 425 1472 
L 819 3500 
L 1400 3500 
L 1009 1494 
Q 900 922 1119 684 
Q 1313 478 1691 434 
L 2284 3500 
L 2856 3500 
L 2263 438 
Q 2681 481 2928 688 
Q 3247 950 3353 1497 
L 3741 3500 
L 4322 3500 
L 3928 1475 
Q 3775 688 3300 344 
Q 2872 34 2163 -75 
L 1919 -1331 
L 1347 -1331 
L 1591 -78 
z
" transform="scale(0.015625)"/>
      </defs>
      <use xlink:href="#DejaVuSans-Oblique-3c8" transform="translate(0 0.015625)"/>
      <use xlink:href="#DejaVuSerif-20" transform="translate(65.966797 0.015625)"/>
      <use xlink:href="#DejaVuSans-5b" transform="translate(97.753906 0.015625)"/>
      <use xlink:href="#DejaVuSans-Oblique-64" transform="translate(136.767578 0.015625)"/>
      <use xlink:href="#DejaVuSans-Oblique-65" transform="translate(200.244141 0.015625)"/>
      <use xlink:href="#DejaVuSans-Oblique-67" transform="translate(261.767578 0.015625)"/>
      <use xlink:href="#DejaVuSans-5d" transform="translate(325.244141 0.015625)"/>
     </g>
    </g>
   </g>
   <g id="line2d_39">
    <path d="M 55.037027 123.190658 
L 57.208371 123.296871 
L 58.454884 123.584203 
L 59.862237 124.152246 
L 61.47064 125.049189 
L 63.400724 126.387135 
L 65.773119 128.314924 
L 68.708455 130.998581 
L 72.327362 134.619896 
L 76.871101 139.501108 
L 82.580933 145.98309 
L 85.073958 148.709897 
L 86.4411 149.886512 
L 87.566983 150.58511 
L 88.612445 150.976442 
L 89.738327 151.150782 
L 90.944629 151.110668 
L 92.311772 150.838691 
L 93.879965 150.291957 
L 95.689419 149.417115 
L 97.820553 148.131131 
L 100.353788 146.33412 
L 103.369544 143.913175 
L 106.988452 140.70923 
L 111.00946 136.857039 
L 115.472779 132.262228 
L 120.98156 126.263311 
L 127.013072 119.354682 
L 133.687946 111.362081 
L 141.770172 101.344927 
L 145.027188 97.410115 
L 146.434541 96.077795 
L 147.600634 95.269973 
L 148.646096 94.810423 
L 149.771978 94.55979 
L 151.01849 94.5174 
L 152.385633 94.696887 
L 153.953826 95.132828 
L 155.76328 95.876666 
L 157.854204 96.988648 
L 160.307019 98.556795 
L 163.202145 100.684636 
L 166.579792 103.456231 
L 170.43996 106.920376 
L 174.742438 111.087708 
L 179.406808 115.91703 
L 185.116639 122.159791 
L 191.429622 129.392587 
L 198.466386 137.80321 
L 204.899999 145.75036 
L 204.899999 145.75036 
" clip-path="url(#p039f9ebf1f)" style="fill: none; stroke: #0000ff; stroke-width: 0.6; stroke-linecap: round"/>
   </g>
   <g id="line2d_40">
    <path d="M 55.037027 123.190658 
L 57.208371 123.296604 
L 58.495094 123.595408 
L 59.902447 124.165552 
L 61.55106 125.081383 
L 63.561564 126.463685 
L 66.054589 128.463348 
L 69.231186 131.313646 
L 73.413034 135.382685 
L 78.962025 141.11301 
L 86.561731 148.994949 
L 87.768033 149.827096 
L 88.853705 150.317316 
L 89.899167 150.544304 
L 91.02505 150.562493 
L 92.311772 150.354194 
L 93.759335 149.888744 
L 95.448158 149.10529 
L 97.458663 147.918563 
L 99.911477 146.200845 
L 102.927234 143.804261 
L 106.666771 140.539595 
L 111.21051 136.265826 
L 116.518241 130.95617 
L 123.675635 123.448309 
L 130.91345 115.539461 
L 140.443239 104.760909 
L 146.836642 97.599758 
L 148.203785 96.476004 
L 149.329667 95.827108 
L 150.375129 95.481783 
L 151.501011 95.348994 
L 152.747524 95.432032 
L 154.154877 95.755644 
L 155.76328 96.360022 
L 157.653154 97.317146 
L 159.904918 98.715496 
L 162.598994 100.657579 
L 165.85601 103.29087 
L 169.917229 106.872754 
L 174.621808 111.312585 
L 180.050169 116.747566 
L 186.765253 123.790025 
L 195.008319 132.772159 
L 204.739159 143.76021 
L 206.468192 145.742402 
L 206.468192 145.742402 
" clip-path="url(#p039f9ebf1f)" style="fill: none; stroke: #008000; stroke-width: 0.6; stroke-linecap: round"/>
   </g>
   <g id="line2d_41">
    <path d="M 55.037027 123.190658 
L 57.208371 123.299654 
L 58.495094 123.598272 
L 59.902447 124.168389 
L 61.51085 125.073691 
L 63.400724 126.407349 
L 65.652488 128.280851 
L 68.426984 130.891232 
L 71.965471 134.541124 
L 76.58963 139.647987 
L 85.395638 149.459193 
L 86.601941 150.302162 
L 87.647403 150.772361 
L 88.692865 150.997743 
L 89.818747 151.006481 
L 91.02505 150.790598 
L 92.392192 150.314853 
L 93.960385 149.527381 
L 95.810049 148.340562 
L 98.021604 146.64536 
L 100.715679 144.285094 
L 104.053116 141.050096 
L 108.275174 136.628971 
L 113.783955 130.519985 
L 120.90114 122.279359 
L 131.194921 109.990336 
L 141.770172 97.415336 
L 143.097105 96.27654 
L 144.222987 95.59054 
L 145.268449 95.212017 
L 146.354121 95.057829 
L 147.520213 95.120181 
L 148.806936 95.415026 
L 150.294709 95.995514 
L 151.983532 96.900747 
L 153.994036 98.240674 
L 156.406641 100.127549 
L 159.341977 102.718804 
L 162.880464 106.150603 
L 167.383993 110.845462 
L 173.174245 117.224036 
L 180.69353 125.850424 
L 191.228572 138.313756 
L 197.420924 145.738411 
L 197.420924 145.738411 
" clip-path="url(#p039f9ebf1f)" style="fill: none; stroke: #ff0000; stroke-width: 0.6; stroke-linecap: round"/>
   </g>
   <g id="patch_6">
    <path d="M 47.465469 154.474353 
L 47.465469 91.651706 
" style="fill: none; stroke: #000000; stroke-linejoin: miter; stroke-linecap: square"/>
   </g>
   <g id="patch_7">
    <path d="M 47.465469 154.474353 
L 214.03975 154.474353 
" style="fill: none; stroke: #000000; stroke-linejoin: miter; stroke-linecap: square"/>
   </g>
  </g>
  <g id="axes_3">
   <g id="patch_8">
    <path d="M 47.465469 217.297 
L 214.03975 217.297 
L 214.03975 154.474353 
L 47.465469 154.474353 
z
" style="fill: #ffffff"/>
   </g>
   <g id="line2d_42">
    <path d="M 55.037027 187.478452 
L 55.559766 187.87285 
L 56.162937 188.61421 
L 56.886715 189.88292 
L 57.73111 191.85886 
L 59.339646 195.783943 
L 60.867497 198.94742 
L 62.355382 201.525704 
L 63.762651 203.535479 
L 65.210214 205.214875 
L 66.697995 206.60443 
L 68.547646 208.007661 
L 71.08089 209.627058 
L 74.297688 211.432476 
L 76.469081 212.432938 
L 78.037193 212.915266 
L 79.283718 213.074717 
L 80.369475 212.990462 
L 81.33446 212.704161 
L 82.09848 212.266854 
L 82.621199 211.653217 
L 83.264516 210.524898 
L 84.028584 208.702857 
L 84.953424 205.885472 
L 86.079206 201.696066 
L 87.567011 195.205968 
L 89.01457 189.355495 
L 90.341599 184.871742 
L 91.628265 181.275794 
L 92.914935 178.32673 
L 94.282106 175.75592 
L 95.729681 173.50856 
L 97.378262 171.359533 
L 99.268128 169.261116 
L 101.238446 167.394267 
L 103.007694 166.009244 
L 104.857329 164.852024 
L 106.747199 163.931262 
L 108.677299 163.241893 
L 111.009593 162.664286 
L 116.075938 161.471399 
L 119.292861 160.406053 
L 122.831244 159.281113 
L 125.083008 158.791397 
L 127.576001 158.475232 
L 131.637239 158.232302 
L 135.296357 157.936619 
L 137.829592 157.821611 
L 139.196739 157.976223 
L 140.362823 158.328712 
L 141.488741 158.917208 
L 142.373335 159.60635 
L 142.936268 160.370495 
L 143.619928 161.689912 
L 144.464259 163.845756 
L 145.469531 167.059421 
L 146.716016 171.845536 
L 149.812232 184.271004 
L 151.099035 188.183256 
L 152.305217 191.161943 
L 153.551822 193.653543 
L 154.878666 195.80087 
L 156.446867 197.899395 
L 158.658426 200.461892 
L 161.231867 203.098428 
L 163.403292 205.00608 
L 165.373642 206.439902 
L 167.263375 207.546693 
L 169.072825 208.350243 
L 170.842068 208.88944 
L 173.656774 209.459623 
L 177.155112 210.26094 
L 184.47329 212.052466 
L 187.850993 212.604475 
L 192.314264 213.065643 
L 198.948919 213.553774 
L 200.557326 213.408528 
L 201.803835 213.085114 
L 202.929769 212.560265 
L 204.015446 211.79777 
L 204.578355 211.114749 
L 204.859793 210.659523 
L 204.859793 210.659523 
" clip-path="url(#p2edb106ea8)" style="fill: none; stroke: #000000; stroke-width: 0.6; stroke-linecap: round"/>
   </g>
   <g id="matplotlib.axis_5">
    <g id="xtick_9">
     <g id="line2d_43">
      <path d="M 55.037027 217.297 
L 55.037027 154.474353 
" clip-path="url(#p2edb106ea8)" style="fill: none; stroke: #b0b0b0; stroke-width: 0.1; stroke-linecap: round"/>
     </g>
     <g id="line2d_44"/>
     <g id="text_13">
      <!-- 0 -->
      <g style="fill: #262626" transform="translate(52.810152 226.115906) scale(0.07 -0.07)">
       <use xlink:href="#DejaVuSerif-30"/>
      </g>
     </g>
    </g>
    <g id="xtick_10">
     <g id="line2d_45">
      <path d="M 95.247108 217.297 
L 95.247108 154.474353 
" clip-path="url(#p2edb106ea8)" style="fill: none; stroke: #b0b0b0; stroke-width: 0.1; stroke-linecap: round"/>
     </g>
     <g id="line2d_46"/>
     <g id="text_14">
      <!-- 10 -->
      <g style="fill: #262626" transform="translate(90.793358 226.115906) scale(0.07 -0.07)">
       <use xlink:href="#DejaVuSerif-31"/>
       <use xlink:href="#DejaVuSerif-30" x="63.623047"/>
      </g>
     </g>
    </g>
    <g id="xtick_11">
     <g id="line2d_47">
      <path d="M 135.457189 217.297 
L 135.457189 154.474353 
" clip-path="url(#p2edb106ea8)" style="fill: none; stroke: #b0b0b0; stroke-width: 0.1; stroke-linecap: round"/>
     </g>
     <g id="line2d_48"/>
     <g id="text_15">
      <!-- 20 -->
      <g style="fill: #262626" transform="translate(131.003439 226.115906) scale(0.07 -0.07)">
       <defs>
        <path id="DejaVuSerif-32" d="M 819 3553 
L 469 3553 
L 469 4384 
Q 803 4563 1142 4656 
Q 1481 4750 1806 4750 
Q 2534 4750 2956 4397 
Q 3378 4044 3378 3438 
Q 3378 2753 2422 1800 
Q 2347 1728 2309 1691 
L 1131 513 
L 3078 513 
L 3078 1088 
L 3444 1088 
L 3444 0 
L 434 0 
L 434 341 
L 1850 1753 
Q 2319 2222 2519 2614 
Q 2719 3006 2719 3438 
Q 2719 3909 2473 4175 
Q 2228 4441 1797 4441 
Q 1350 4441 1106 4219 
Q 863 3997 819 3553 
z
" transform="scale(0.015625)"/>
       </defs>
       <use xlink:href="#DejaVuSerif-32"/>
       <use xlink:href="#DejaVuSerif-30" x="63.623047"/>
      </g>
     </g>
    </g>
    <g id="xtick_12">
     <g id="line2d_49">
      <path d="M 175.66727 217.297 
L 175.66727 154.474353 
" clip-path="url(#p2edb106ea8)" style="fill: none; stroke: #b0b0b0; stroke-width: 0.1; stroke-linecap: round"/>
     </g>
     <g id="line2d_50"/>
     <g id="text_16">
      <!-- 30 -->
      <g style="fill: #262626" transform="translate(171.21352 226.115906) scale(0.07 -0.07)">
       <defs>
        <path id="DejaVuSerif-33" d="M 622 4469 
Q 988 4606 1323 4678 
Q 1659 4750 1953 4750 
Q 2638 4750 3022 4454 
Q 3406 4159 3406 3634 
Q 3406 3213 3140 2930 
Q 2875 2647 2388 2547 
Q 2963 2466 3280 2130 
Q 3597 1794 3597 1259 
Q 3597 606 3158 257 
Q 2719 -91 1894 -91 
Q 1528 -91 1179 -12 
Q 831 66 488 225 
L 488 1131 
L 838 1131 
Q 869 681 1141 450 
Q 1413 219 1906 219 
Q 2384 219 2661 495 
Q 2938 772 2938 1253 
Q 2938 1803 2653 2086 
Q 2369 2369 1819 2369 
L 1522 2369 
L 1522 2688 
L 1678 2688 
Q 2225 2688 2498 2914 
Q 2772 3141 2772 3597 
Q 2772 4006 2547 4223 
Q 2322 4441 1900 4441 
Q 1478 4441 1245 4241 
Q 1013 4041 972 3647 
L 622 3647 
L 622 4469 
z
" transform="scale(0.015625)"/>
       </defs>
       <use xlink:href="#DejaVuSerif-33"/>
       <use xlink:href="#DejaVuSerif-30" x="63.623047"/>
      </g>
     </g>
    </g>
    <g id="text_17">
     <!-- Time [s] -->
     <g style="fill: #262626" transform="translate(116.268625 236.890594) scale(0.07 -0.07)">
      <defs>
       <path id="DejaVuSerif-54" d="M 1222 0 
L 1222 331 
L 1819 331 
L 1819 4294 
L 447 4294 
L 447 3566 
L 63 3566 
L 63 4666 
L 4206 4666 
L 4206 3566 
L 3822 3566 
L 3822 4294 
L 2450 4294 
L 2450 331 
L 3047 331 
L 3047 0 
L 1222 0 
z
" transform="scale(0.015625)"/>
       <path id="DejaVuSerif-69" d="M 622 4353 
Q 622 4497 726 4603 
Q 831 4709 978 4709 
Q 1122 4709 1226 4603 
Q 1331 4497 1331 4353 
Q 1331 4206 1228 4103 
Q 1125 4000 978 4000 
Q 831 4000 726 4103 
Q 622 4206 622 4353 
z
M 1356 331 
L 1900 331 
L 1900 0 
L 231 0 
L 231 331 
L 781 331 
L 781 2988 
L 231 2988 
L 231 3322 
L 1356 3322 
L 1356 331 
z
" transform="scale(0.015625)"/>
       <path id="DejaVuSerif-6d" d="M 3316 2675 
Q 3481 3041 3739 3227 
Q 3997 3413 4341 3413 
Q 4863 3413 5119 3089 
Q 5375 2766 5375 2113 
L 5375 331 
L 5894 331 
L 5894 0 
L 4300 0 
L 4300 331 
L 4800 331 
L 4800 2047 
Q 4800 2556 4650 2772 
Q 4500 2988 4153 2988 
Q 3769 2988 3567 2697 
Q 3366 2406 3366 1850 
L 3366 331 
L 3866 331 
L 3866 0 
L 2291 0 
L 2291 331 
L 2791 331 
L 2791 2069 
Q 2791 2566 2641 2777 
Q 2491 2988 2144 2988 
Q 1759 2988 1557 2697 
Q 1356 2406 1356 1850 
L 1356 331 
L 1856 331 
L 1856 0 
L 263 0 
L 263 331 
L 781 331 
L 781 2994 
L 231 2994 
L 231 3322 
L 1356 3322 
L 1356 2731 
Q 1516 3063 1762 3238 
Q 2009 3413 2322 3413 
Q 2709 3413 2968 3220 
Q 3228 3028 3316 2675 
z
" transform="scale(0.015625)"/>
       <path id="DejaVuSerif-5b" d="M 550 4863 
L 2003 4863 
L 2003 4531 
L 1147 4531 
L 1147 -513 
L 2003 -513 
L 2003 -844 
L 550 -844 
L 550 4863 
z
" transform="scale(0.015625)"/>
       <path id="DejaVuSerif-5d" d="M 1947 4863 
L 1947 -844 
L 494 -844 
L 494 -513 
L 1350 -513 
L 1350 4531 
L 494 4531 
L 494 4863 
L 1947 4863 
z
" transform="scale(0.015625)"/>
      </defs>
      <use xlink:href="#DejaVuSerif-54"/>
      <use xlink:href="#DejaVuSerif-69" x="66.699219"/>
      <use xlink:href="#DejaVuSerif-6d" x="98.681641"/>
      <use xlink:href="#DejaVuSerif-65" x="193.505859"/>
      <use xlink:href="#DejaVuSerif-20" x="252.685547"/>
      <use xlink:href="#DejaVuSerif-5b" x="284.472656"/>
      <use xlink:href="#DejaVuSerif-73" x="323.486328"/>
      <use xlink:href="#DejaVuSerif-5d" x="374.804688"/>
     </g>
    </g>
   </g>
   <g id="matplotlib.axis_6">
    <g id="ytick_7">
     <g id="line2d_51">
      <path d="M 47.465469 204.257843 
L 214.03975 204.257843 
" clip-path="url(#p2edb106ea8)" style="fill: none; stroke: #b0b0b0; stroke-width: 0.1; stroke-linecap: round"/>
     </g>
     <g id="line2d_52"/>
     <g id="text_18">
      <!-- −0.025 -->
      <g style="fill: #262626" transform="translate(18.06 206.917296) scale(0.07 -0.07)">
       <defs>
        <path id="DejaVuSerif-2e" d="M 603 325 
Q 603 500 722 622 
Q 841 744 1019 744 
Q 1191 744 1312 622 
Q 1434 500 1434 325 
Q 1434 153 1312 31 
Q 1191 -91 1019 -91 
Q 841 -91 722 29 
Q 603 150 603 325 
z
" transform="scale(0.015625)"/>
       </defs>
       <use xlink:href="#DejaVuSerif-2212"/>
       <use xlink:href="#DejaVuSerif-30" x="83.789062"/>
       <use xlink:href="#DejaVuSerif-2e" x="147.412109"/>
       <use xlink:href="#DejaVuSerif-30" x="179.199219"/>
       <use xlink:href="#DejaVuSerif-32" x="242.822266"/>
       <use xlink:href="#DejaVuSerif-35" x="306.445312"/>
      </g>
     </g>
    </g>
    <g id="ytick_8">
     <g id="line2d_53">
      <path d="M 47.465469 186.016299 
L 214.03975 186.016299 
" clip-path="url(#p2edb106ea8)" style="fill: none; stroke: #b0b0b0; stroke-width: 0.1; stroke-linecap: round"/>
     </g>
     <g id="line2d_54"/>
     <g id="text_19">
      <!-- 0.000 -->
      <g style="fill: #262626" transform="translate(23.925781 188.675752) scale(0.07 -0.07)">
       <use xlink:href="#DejaVuSerif-30"/>
       <use xlink:href="#DejaVuSerif-2e" x="63.623047"/>
       <use xlink:href="#DejaVuSerif-30" x="95.410156"/>
       <use xlink:href="#DejaVuSerif-30" x="159.033203"/>
       <use xlink:href="#DejaVuSerif-30" x="222.65625"/>
      </g>
     </g>
    </g>
    <g id="ytick_9">
     <g id="line2d_55">
      <path d="M 47.465469 167.774755 
L 214.03975 167.774755 
" clip-path="url(#p2edb106ea8)" style="fill: none; stroke: #b0b0b0; stroke-width: 0.1; stroke-linecap: round"/>
     </g>
     <g id="line2d_56"/>
     <g id="text_20">
      <!-- 0.025 -->
      <g style="fill: #262626" transform="translate(23.925781 170.434208) scale(0.07 -0.07)">
       <use xlink:href="#DejaVuSerif-30"/>
       <use xlink:href="#DejaVuSerif-2e" x="63.623047"/>
       <use xlink:href="#DejaVuSerif-30" x="95.410156"/>
       <use xlink:href="#DejaVuSerif-32" x="159.033203"/>
       <use xlink:href="#DejaVuSerif-35" x="222.65625"/>
      </g>
     </g>
    </g>
    <g id="text_21">
     <!-- $r$ $[rad/s]$ -->
     <g style="fill: #262626" transform="translate(12.604219 199.990677) rotate(-90) scale(0.07 -0.07)">
      <defs>
       <path id="DejaVuSans-Oblique-72" d="M 2853 2969 
Q 2766 3016 2653 3041 
Q 2541 3066 2413 3066 
Q 1953 3066 1609 2717 
Q 1266 2369 1153 1784 
L 800 0 
L 225 0 
L 909 3500 
L 1484 3500 
L 1375 2956 
Q 1603 3259 1920 3421 
Q 2238 3584 2597 3584 
Q 2691 3584 2781 3573 
Q 2872 3563 2963 3538 
L 2853 2969 
z
" transform="scale(0.015625)"/>
       <path id="DejaVuSans-Oblique-61" d="M 3438 1997 
L 3047 0 
L 2472 0 
L 2578 531 
Q 2325 219 2001 64 
Q 1678 -91 1281 -91 
Q 834 -91 548 182 
Q 263 456 263 884 
Q 263 1497 752 1853 
Q 1241 2209 2100 2209 
L 2900 2209 
L 2931 2363 
Q 2938 2388 2941 2417 
Q 2944 2447 2944 2509 
Q 2944 2788 2717 2942 
Q 2491 3097 2081 3097 
Q 1800 3097 1504 3025 
Q 1209 2953 897 2809 
L 997 3341 
Q 1322 3463 1633 3523 
Q 1944 3584 2234 3584 
Q 2853 3584 3176 3315 
Q 3500 3047 3500 2534 
Q 3500 2431 3484 2292 
Q 3469 2153 3438 1997 
z
M 2816 1759 
L 2241 1759 
Q 1534 1759 1195 1570 
Q 856 1381 856 984 
Q 856 709 1029 553 
Q 1203 397 1509 397 
Q 1978 397 2328 733 
Q 2678 1069 2791 1631 
L 2816 1759 
z
" transform="scale(0.015625)"/>
       <path id="DejaVuSans-2f" d="M 1625 4666 
L 2156 4666 
L 531 -594 
L 0 -594 
L 1625 4666 
z
" transform="scale(0.015625)"/>
       <path id="DejaVuSans-Oblique-73" d="M 3200 3397 
L 3091 2853 
Q 2863 2978 2609 3040 
Q 2356 3103 2088 3103 
Q 1634 3103 1373 2948 
Q 1113 2794 1113 2528 
Q 1113 2219 1719 2053 
Q 1766 2041 1788 2034 
L 1972 1978 
Q 2547 1819 2739 1644 
Q 2931 1469 2931 1166 
Q 2931 609 2489 259 
Q 2047 -91 1331 -91 
Q 1053 -91 747 -37 
Q 441 16 72 128 
L 184 722 
Q 500 559 806 475 
Q 1113 391 1394 391 
Q 1816 391 2080 572 
Q 2344 753 2344 1031 
Q 2344 1331 1650 1516 
L 1591 1531 
L 1394 1581 
Q 956 1697 753 1886 
Q 550 2075 550 2369 
Q 550 2928 970 3256 
Q 1391 3584 2113 3584 
Q 2397 3584 2667 3537 
Q 2938 3491 3200 3397 
z
" transform="scale(0.015625)"/>
      </defs>
      <use xlink:href="#DejaVuSans-Oblique-72" transform="translate(0 0.015625)"/>
      <use xlink:href="#DejaVuSerif-20" transform="translate(41.113281 0.015625)"/>
      <use xlink:href="#DejaVuSans-5b" transform="translate(72.900391 0.015625)"/>
      <use xlink:href="#DejaVuSans-Oblique-72" transform="translate(111.914062 0.015625)"/>
      <use xlink:href="#DejaVuSans-Oblique-61" transform="translate(153.027344 0.015625)"/>
      <use xlink:href="#DejaVuSans-Oblique-64" transform="translate(214.306641 0.015625)"/>
      <use xlink:href="#DejaVuSans-2f" transform="translate(277.783203 0.015625)"/>
      <use xlink:href="#DejaVuSans-Oblique-73" transform="translate(311.474609 0.015625)"/>
      <use xlink:href="#DejaVuSans-5d" transform="translate(363.574219 0.015625)"/>
     </g>
    </g>
   </g>
   <g id="line2d_57">
    <path d="M 55.037027 186.016299 
L 55.439128 186.138011 
L 55.881439 186.54109 
L 56.40417 187.351694 
L 57.047531 188.816562 
L 57.811523 191.182921 
L 58.977615 194.728269 
L 60.264338 197.862936 
L 61.51085 200.280707 
L 62.837783 202.359709 
L 64.325556 204.216616 
L 65.732909 205.575165 
L 67.703203 207.127964 
L 69.070345 207.957208 
L 71.844841 209.382504 
L 73.815135 210.117296 
L 76.991731 211.134837 
L 81.897361 212.235924 
L 82.741773 212.290136 
L 83.184084 212.019123 
L 83.666605 211.420896 
L 84.229546 210.34194 
L 84.872907 208.652919 
L 85.717319 205.760465 
L 86.722571 201.484728 
L 87.928873 195.298243 
L 89.014545 190.151139 
L 90.100218 186.033085 
L 91.26631 182.438547 
L 92.512823 179.33029 
L 93.879965 176.560926 
L 95.287318 174.240754 
L 96.533831 172.567038 
L 97.900973 171.028569 
L 99.469167 169.564908 
L 101.479671 168.038961 
L 103.530385 166.755274 
L 105.259418 165.876309 
L 108.516435 164.489219 
L 113.180804 162.649968 
L 116.07593 161.827359 
L 120.82072 160.694767 
L 125.163408 159.801853 
L 132.642483 158.497231 
L 137.869794 157.896984 
L 142.614584 157.369484 
L 143.016684 157.615309 
L 143.539415 158.253846 
L 144.142567 159.43346 
L 144.826138 161.292397 
L 145.71076 164.38684 
L 146.716012 168.779904 
L 148.083155 175.890024 
L 149.168827 180.850226 
L 150.254499 184.823202 
L 151.420591 188.291026 
L 152.707314 191.391582 
L 153.994036 193.907006 
L 155.481809 196.318532 
L 157.050003 198.402743 
L 158.497566 199.980197 
L 160.50807 201.774191 
L 162.679414 203.340412 
L 164.770338 204.58029 
L 167.142733 205.772762 
L 169.072817 206.610282 
L 173.938237 208.464823 
L 179.366598 210.162818 
L 184.634118 211.311999 
L 193.038025 212.847211 
L 199.109747 213.725949 
L 204.899999 214.441425 
L 204.899999 214.441425 
" clip-path="url(#p2edb106ea8)" style="fill: none; stroke: #0000ff; stroke-width: 0.6; stroke-linecap: round"/>
   </g>
   <g id="line2d_58">
    <path d="M 55.037027 186.016299 
L 55.439128 186.137937 
L 55.881439 186.5404 
L 56.40417 187.348837 
L 57.047531 188.807858 
L 57.811523 191.159659 
L 58.977615 194.666862 
L 60.224127 197.644094 
L 61.39022 199.864116 
L 62.596522 201.70313 
L 63.883245 203.29832 
L 65.290598 204.684964 
L 66.65774 205.768824 
L 68.225934 206.744597 
L 69.834337 207.534726 
L 71.64379 208.227992 
L 74.780177 209.13908 
L 78.760975 209.957235 
L 83.385134 210.673365 
L 83.787235 210.545846 
L 84.229546 210.13372 
L 84.792487 209.258496 
L 85.435848 207.79027 
L 86.24005 205.322133 
L 87.164882 201.728576 
L 88.330974 196.165235 
L 90.060008 187.9117 
L 91.18589 183.812042 
L 92.311772 180.498961 
L 93.477864 177.690208 
L 94.804797 175.097414 
L 96.05131 173.14501 
L 97.338032 171.49806 
L 98.866015 169.928939 
L 100.595049 168.517372 
L 102.163242 167.503435 
L 104.776897 166.192026 
L 107.390553 165.167032 
L 111.652821 163.875263 
L 116.598661 162.715865 
L 119.252526 162.309052 
L 125.605719 161.456526 
L 132.361013 160.621388 
L 143.619836 159.831494 
L 144.383827 159.884753 
L 144.826138 160.226049 
L 145.348869 160.964929 
L 145.99223 162.321242 
L 146.716012 164.383354 
L 147.600634 167.615846 
L 148.646096 172.31196 
L 151.259751 184.617242 
L 152.385633 188.363765 
L 153.591936 191.611989 
L 154.838448 194.345657 
L 156.165381 196.694893 
L 157.452103 198.575228 
L 158.939876 200.306131 
L 160.46786 201.743025 
L 162.277313 203.160663 
L 164.006347 204.258785 
L 166.217901 205.38075 
L 168.389245 206.227877 
L 173.978447 207.922495 
L 179.004707 209.0688 
L 189.258278 210.528074 
L 194.445378 211.17467 
L 196.737353 211.372358 
L 199.753109 211.592683 
L 204.457688 211.988629 
L 206.468192 212.080081 
L 206.468192 212.080081 
" clip-path="url(#p2edb106ea8)" style="fill: none; stroke: #008000; stroke-width: 0.6; stroke-linecap: round"/>
   </g>
   <g id="line2d_59">
    <path d="M 55.037027 186.016299 
L 55.398918 186.120676 
L 55.841229 186.508516 
L 56.40417 187.393434 
L 57.047531 188.869443 
L 57.851733 191.285291 
L 59.178665 195.184588 
L 60.505598 198.387202 
L 61.792321 200.933662 
L 63.119253 203.076242 
L 64.526606 204.927729 
L 65.974169 206.460516 
L 67.502152 207.759998 
L 69.150765 208.86915 
L 71.080849 209.882637 
L 73.292404 210.78589 
L 75.544168 211.458376 
L 78.559924 212.122613 
L 81.977781 212.638135 
L 82.379882 212.488862 
L 82.822193 212.052405 
L 83.304714 211.257984 
L 83.948075 209.717008 
L 84.752277 207.12816 
L 85.717319 203.203077 
L 86.963831 197.09198 
L 88.612445 188.852956 
L 89.858957 183.871238 
L 91.10547 179.786044 
L 92.351982 176.45289 
L 93.598495 173.728604 
L 94.925427 171.359455 
L 96.29257 169.375525 
L 97.659713 167.749013 
L 99.227906 166.226151 
L 100.876519 164.949377 
L 102.645763 163.850121 
L 104.696477 162.826369 
L 107.068872 161.910367 
L 109.843367 161.118555 
L 113.180804 160.396334 
L 117.925594 159.651062 
L 122.630173 159.151148 
L 128.138954 158.795188 
L 136.14076 158.529991 
L 139.236937 158.557548 
L 139.639038 158.852013 
L 140.121559 159.515007 
L 140.72471 160.758876 
L 141.448491 162.811453 
L 142.333113 166.07413 
L 143.458995 171.162602 
L 146.514961 185.692079 
L 147.721264 189.900064 
L 148.967776 193.46434 
L 150.254499 196.46937 
L 151.541222 198.924732 
L 152.868154 200.997495 
L 154.275507 202.795564 
L 155.76328 204.338893 
L 157.411893 205.727892 
L 159.301767 207.027803 
L 161.352481 208.161635 
L 163.564036 209.130336 
L 166.137481 210.014418 
L 169.032607 210.771066 
L 172.249413 211.384418 
L 176.752942 212.029989 
L 183.709286 212.746052 
L 189.137647 213.027249 
L 197.420924 213.29913 
L 197.420924 213.29913 
" clip-path="url(#p2edb106ea8)" style="fill: none; stroke: #ff0000; stroke-width: 0.6; stroke-linecap: round"/>
   </g>
   <g id="patch_9">
    <path d="M 47.465469 217.297 
L 47.465469 154.474353 
" style="fill: none; stroke: #000000; stroke-linejoin: miter; stroke-linecap: square"/>
   </g>
   <g id="patch_10">
    <path d="M 47.465469 217.297 
L 214.03975 217.297 
" style="fill: none; stroke: #000000; stroke-linejoin: miter; stroke-linecap: square"/>
   </g>
  </g>
 </g>
 <defs>
  <clipPath id="pfdf9fa1313">
   <rect x="47.465469" y="28.829059" width="166.574282" height="62.822647"/>
  </clipPath>
  <clipPath id="p039f9ebf1f">
   <rect x="47.465469" y="91.651706" width="166.574282" height="62.822647"/>
  </clipPath>
  <clipPath id="p2edb106ea8">
   <rect x="47.465469" y="154.474353" width="166.574282" height="62.822647"/>
  </clipPath>
 </defs>
</svg>
