<?xml version="1.0" encoding="utf-8" standalone="no"?>
<!DOCTYPE svg PUBLIC "-//W3C//DTD SVG 1.1//EN"
  "http://www.w3.org/Graphics/SVG/1.1/DTD/svg11.dtd">
<svg xmlns:xlink="http://www.w3.org/1999/xlink" width="219.048163pt" height="223.917316pt" viewBox="0 0 219.048163 223.917316" xmlns="http://www.w3.org/2000/svg" version="1.1">
 <metadata>
  <rdf:RDF xmlns:dc="http://purl.org/dc/elements/1.1/" xmlns:cc="http://creativecommons.org/ns#" xmlns:rdf="http://www.w3.org/1999/02/22-rdf-syntax-ns#">
   <cc:Work>
    <dc:type rdf:resource="http://purl.org/dc/dcmitype/StillImage"/>
    <dc:date>2024-06-06T10:17:25.941646</dc:date>
    <dc:format>image/svg+xml</dc:format>
    <dc:creator>
     <cc:Agent>
      <dc:title>Matplotlib v3.8.2, https://matplotlib.org/</dc:title>
     </cc:Agent>
    </dc:creator>
   </cc:Work>
  </rdf:RDF>
 </metadata>
 <defs>
  <style type="text/css">*{stroke-linejoin: round; stroke-linecap: butt}</style>
 </defs>
 <g id="figure_1">
  <g id="patch_1">
   <path d="M 0 223.917316 
L 219.048163 223.917316 
L 219.048163 0 
L 0 0 
z
" style="fill: #ffffff"/>
  </g>
  <g id="axes_1">
   <g id="patch_2">
    <path d="M 43.011719 70.022647 
L 211.848163 70.022647 
L 211.848163 7.2 
L 43.011719 7.2 
z
" style="fill: #ffffff"/>
   </g>
   <g id="line2d_1">
    <path d="M 50.686103 38.909147 
L 51.960593 39.103555 
L 53.198763 39.521419 
L 54.364006 40.150558 
L 55.456416 40.991379 
L 58.041866 43.471891 
L 65.688982 50.882499 
L 69.257616 53.872452 
L 72.02511 55.91679 
L 74.501298 57.472037 
L 76.795376 58.658345 
L 77.778575 58.908193 
L 78.761817 58.928641 
L 79.744954 58.730333 
L 80.800989 58.289068 
L 81.929883 57.57103 
L 83.131533 56.537655 
L 84.406089 55.142748 
L 85.716968 53.373175 
L 87.90185 49.916568 
L 93.109153 41.734684 
L 95.548934 38.357788 
L 97.952314 35.407783 
L 100.319261 32.84509 
L 102.649816 30.650512 
L 105.562979 28.230733 
L 108.840289 25.778185 
L 111.862689 23.792507 
L 116.013946 21.363652 
L 119.65542 19.470885 
L 122.969137 18.001213 
L 126.756256 16.571771 
L 131.490209 15.032872 
L 135.204512 14.05515 
L 137.717064 13.614018 
L 140.047658 13.432045 
L 141.030828 13.54221 
L 142.086882 13.887189 
L 143.252092 14.5153 
L 144.490211 15.448166 
L 145.801116 16.720127 
L 147.184923 18.376771 
L 148.677868 20.518818 
L 150.352945 23.33647 
L 155.305331 31.725482 
L 157.854367 35.585248 
L 160.184958 38.718151 
L 162.515432 41.480634 
L 164.845983 43.899288 
L 167.322218 46.140563 
L 170.271756 48.498034 
L 173.476262 50.786639 
L 177.008445 53.024874 
L 181.305448 55.481654 
L 184.801227 57.217289 
L 188.333436 58.726327 
L 191.86563 59.999848 
L 195.871221 61.192878 
L 200.860051 62.447892 
L 202.82654 62.825047 
L 202.82654 62.825047 
" clip-path="url(#p5ac254ec55)" style="fill: none; stroke: #000000; stroke-width: 0.6; stroke-linecap: round"/>
   </g>
   <g id="matplotlib.axis_1">
    <g id="xtick_1">
     <g id="line2d_2">
      <path d="M 50.686103 70.022647 
L 50.686103 7.2 
" clip-path="url(#p5ac254ec55)" style="fill: none; stroke: #b0b0b0; stroke-width: 0.1; stroke-linecap: round"/>
     </g>
     <g id="line2d_3"/>
    </g>
    <g id="xtick_2">
     <g id="line2d_4">
      <path d="M 87.100735 70.022647 
L 87.100735 7.2 
" clip-path="url(#p5ac254ec55)" style="fill: none; stroke: #b0b0b0; stroke-width: 0.1; stroke-linecap: round"/>
     </g>
     <g id="line2d_5"/>
    </g>
    <g id="xtick_3">
     <g id="line2d_6">
      <path d="M 123.515368 70.022647 
L 123.515368 7.2 
" clip-path="url(#p5ac254ec55)" style="fill: none; stroke: #b0b0b0; stroke-width: 0.1; stroke-linecap: round"/>
     </g>
     <g id="line2d_7"/>
    </g>
    <g id="xtick_4">
     <g id="line2d_8">
      <path d="M 159.930001 70.022647 
L 159.930001 7.2 
" clip-path="url(#p5ac254ec55)" style="fill: none; stroke: #b0b0b0; stroke-width: 0.1; stroke-linecap: round"/>
     </g>
     <g id="line2d_9"/>
    </g>
    <g id="xtick_5">
     <g id="line2d_10">
      <path d="M 196.344633 70.022647 
L 196.344633 7.2 
" clip-path="url(#p5ac254ec55)" style="fill: none; stroke: #b0b0b0; stroke-width: 0.1; stroke-linecap: round"/>
     </g>
     <g id="line2d_11"/>
    </g>
   </g>
   <g id="matplotlib.axis_2">
    <g id="ytick_1">
     <g id="line2d_12">
      <path d="M 43.011719 58.29231 
L 211.848163 58.29231 
" clip-path="url(#p5ac254ec55)" style="fill: none; stroke: #b0b0b0; stroke-width: 0.1; stroke-linecap: round"/>
     </g>
     <g id="line2d_13"/>
     <g id="text_1">
      <!-- −10 -->
      <g style="fill: #262626" transform="translate(24.738438 60.951763) scale(0.07 -0.07)">
       <defs>
        <path id="DejaVuSerif-2212" d="M 678 2259 
L 4684 2259 
L 4684 1753 
L 678 1753 
L 678 2259 
z
" transform="scale(0.015625)"/>
        <path id="DejaVuSerif-31" d="M 909 0 
L 909 331 
L 1722 331 
L 1722 4213 
L 781 3603 
L 781 4013 
L 1919 4750 
L 2350 4750 
L 2350 331 
L 3163 331 
L 3163 0 
L 909 0 
z
" transform="scale(0.015625)"/>
        <path id="DejaVuSerif-30" d="M 2034 219 
Q 2513 219 2750 744 
Q 2988 1269 2988 2328 
Q 2988 3391 2750 3916 
Q 2513 4441 2034 4441 
Q 1556 4441 1318 3916 
Q 1081 3391 1081 2328 
Q 1081 1269 1318 744 
Q 1556 219 2034 219 
z
M 2034 -91 
Q 1275 -91 848 546 
Q 422 1184 422 2328 
Q 422 3475 848 4112 
Q 1275 4750 2034 4750 
Q 2797 4750 3222 4112 
Q 3647 3475 3647 2328 
Q 3647 1184 3222 546 
Q 2797 -91 2034 -91 
z
" transform="scale(0.015625)"/>
       </defs>
       <use xlink:href="#DejaVuSerif-2212"/>
       <use xlink:href="#DejaVuSerif-31" x="83.789062"/>
       <use xlink:href="#DejaVuSerif-30" x="147.412109"/>
      </g>
     </g>
    </g>
    <g id="ytick_2">
     <g id="line2d_14">
      <path d="M 43.011719 38.733906 
L 211.848163 38.733906 
" clip-path="url(#p5ac254ec55)" style="fill: none; stroke: #b0b0b0; stroke-width: 0.1; stroke-linecap: round"/>
     </g>
     <g id="line2d_15"/>
     <g id="text_2">
      <!-- 0 -->
      <g style="fill: #262626" transform="translate(35.057969 41.393359) scale(0.07 -0.07)">
       <use xlink:href="#DejaVuSerif-30"/>
      </g>
     </g>
    </g>
    <g id="ytick_3">
     <g id="line2d_16">
      <path d="M 43.011719 19.175502 
L 211.848163 19.175502 
" clip-path="url(#p5ac254ec55)" style="fill: none; stroke: #b0b0b0; stroke-width: 0.1; stroke-linecap: round"/>
     </g>
     <g id="line2d_17"/>
     <g id="text_3">
      <!-- 10 -->
      <g style="fill: #262626" transform="translate(30.604219 21.834955) scale(0.07 -0.07)">
       <use xlink:href="#DejaVuSerif-31"/>
       <use xlink:href="#DejaVuSerif-30" x="63.623047"/>
      </g>
     </g>
    </g>
    <g id="text_4">
     <!-- $\beta$ $[deg]$ -->
     <g style="fill: #262626" transform="translate(12.59 51.316324) rotate(-90) scale(0.07 -0.07)">
      <defs>
       <path id="DejaVuSans-Oblique-3b2" d="M 872 216 
L 572 -1331 
L -6 -1331 
L 928 3478 
Q 1206 4903 2538 4903 
Q 3888 4903 3659 3700 
Q 3503 2844 2894 2531 
Q 3713 2250 3553 1416 
Q 3272 -69 1759 -66 
Q 1097 -63 872 216 
z
M 1019 966 
Q 1259 422 1875 425 
Q 2775 425 2966 1406 
Q 3138 2288 1675 2219 
L 1778 2750 
Q 2909 2731 3106 3750 
Q 3241 4438 2509 4434 
Q 1691 4434 1503 3459 
L 1019 966 
z
" transform="scale(0.015625)"/>
       <path id="DejaVuSerif-20" transform="scale(0.015625)"/>
       <path id="DejaVuSans-5b" d="M 550 4863 
L 1875 4863 
L 1875 4416 
L 1125 4416 
L 1125 -397 
L 1875 -397 
L 1875 -844 
L 550 -844 
L 550 4863 
z
" transform="scale(0.015625)"/>
       <path id="DejaVuSans-Oblique-64" d="M 2675 525 
Q 2444 222 2128 65 
Q 1813 -91 1428 -91 
Q 903 -91 598 267 
Q 294 625 294 1247 
Q 294 1766 478 2236 
Q 663 2706 1013 3078 
Q 1244 3325 1534 3454 
Q 1825 3584 2144 3584 
Q 2481 3584 2739 3421 
Q 2997 3259 3138 2956 
L 3513 4863 
L 4091 4863 
L 3144 0 
L 2566 0 
L 2675 525 
z
M 891 1350 
Q 891 897 1095 644 
Q 1300 391 1663 391 
Q 1931 391 2161 520 
Q 2391 650 2566 903 
Q 2750 1166 2856 1509 
Q 2963 1853 2963 2188 
Q 2963 2622 2758 2865 
Q 2553 3109 2194 3109 
Q 1922 3109 1687 2981 
Q 1453 2853 1288 2613 
Q 1106 2353 998 2009 
Q 891 1666 891 1350 
z
" transform="scale(0.015625)"/>
       <path id="DejaVuSans-Oblique-65" d="M 3078 2063 
Q 3088 2113 3092 2166 
Q 3097 2219 3097 2272 
Q 3097 2653 2873 2875 
Q 2650 3097 2266 3097 
Q 1838 3097 1509 2826 
Q 1181 2556 1013 2059 
L 3078 2063 
z
M 3578 1613 
L 903 1613 
Q 884 1494 878 1425 
Q 872 1356 872 1306 
Q 872 872 1139 634 
Q 1406 397 1894 397 
Q 2269 397 2603 481 
Q 2938 566 3225 728 
L 3116 159 
Q 2806 34 2476 -28 
Q 2147 -91 1806 -91 
Q 1078 -91 686 257 
Q 294 606 294 1247 
Q 294 1794 489 2264 
Q 684 2734 1063 3103 
Q 1306 3334 1642 3459 
Q 1978 3584 2356 3584 
Q 2950 3584 3301 3228 
Q 3653 2872 3653 2272 
Q 3653 2128 3634 1964 
Q 3616 1800 3578 1613 
z
" transform="scale(0.015625)"/>
       <path id="DejaVuSans-Oblique-67" d="M 3816 3500 
L 3219 434 
Q 3047 -456 2561 -893 
Q 2075 -1331 1253 -1331 
Q 950 -1331 690 -1286 
Q 431 -1241 206 -1147 
L 313 -588 
Q 525 -725 762 -790 
Q 1000 -856 1269 -856 
Q 1816 -856 2167 -557 
Q 2519 -259 2631 300 
L 2681 563 
Q 2441 288 2122 144 
Q 1803 0 1434 0 
Q 903 0 598 351 
Q 294 703 294 1319 
Q 294 1803 478 2267 
Q 663 2731 997 3091 
Q 1219 3328 1514 3456 
Q 1809 3584 2131 3584 
Q 2484 3584 2746 3420 
Q 3009 3256 3138 2956 
L 3238 3500 
L 3816 3500 
z
M 2950 2216 
Q 2950 2641 2750 2872 
Q 2550 3103 2181 3103 
Q 1953 3103 1747 3012 
Q 1541 2922 1394 2759 
Q 1156 2491 1023 2127 
Q 891 1763 891 1375 
Q 891 944 1092 712 
Q 1294 481 1672 481 
Q 2219 481 2584 976 
Q 2950 1472 2950 2216 
z
" transform="scale(0.015625)"/>
       <path id="DejaVuSans-5d" d="M 1947 4863 
L 1947 -844 
L 622 -844 
L 622 -397 
L 1369 -397 
L 1369 4416 
L 622 4416 
L 622 4863 
L 1947 4863 
z
" transform="scale(0.015625)"/>
      </defs>
      <use xlink:href="#DejaVuSans-Oblique-3b2" transform="translate(0 0.390625)"/>
      <use xlink:href="#DejaVuSerif-20" transform="translate(63.818359 0.390625)"/>
      <use xlink:href="#DejaVuSans-5b" transform="translate(95.605469 0.390625)"/>
      <use xlink:href="#DejaVuSans-Oblique-64" transform="translate(134.619141 0.390625)"/>
      <use xlink:href="#DejaVuSans-Oblique-65" transform="translate(198.095703 0.390625)"/>
      <use xlink:href="#DejaVuSans-Oblique-67" transform="translate(259.619141 0.390625)"/>
      <use xlink:href="#DejaVuSans-5d" transform="translate(323.095703 0.390625)"/>
     </g>
    </g>
   </g>
   <g id="line2d_18">
    <path d="M 50.686103 38.733906 
L 51.851371 38.842031 
L 52.980224 39.17264 
L 54.072663 39.727512 
L 55.201517 40.55267 
L 57.42281 42.55416 
L 64.887809 49.286313 
L 68.674931 52.348509 
L 72.316394 55.015002 
L 76.176345 57.567647 
L 78.17915 58.696689 
L 79.235175 59.001043 
L 80.21837 59.0515 
L 81.201565 58.879805 
L 82.221174 58.465873 
L 83.277199 57.796925 
L 84.406052 56.816197 
L 85.64415 55.435008 
L 87.13715 53.404351 
L 94.60215 42.89291 
L 97.843052 38.80234 
L 101.083954 35.081869 
L 104.252027 31.762393 
L 107.4201 28.776548 
L 110.988734 25.742254 
L 114.448124 23.094148 
L 118.126002 20.556083 
L 121.876709 18.234962 
L 126.100807 15.884614 
L 130.652636 13.604964 
L 135.24088 11.565953 
L 138.845928 10.17511 
L 139.829123 10.055575 
L 140.812318 10.169626 
L 141.795514 10.508748 
L 142.851538 11.11264 
L 143.980391 12.028727 
L 145.218489 13.333777 
L 146.56583 15.086421 
L 148.277318 17.715289 
L 154.722708 27.75971 
L 158.182098 32.70905 
L 161.277342 36.753801 
L 164.518244 40.633499 
L 167.795561 44.209029 
L 170.963634 47.333183 
L 174.38661 50.370762 
L 178.064488 53.325421 
L 181.77878 56.011165 
L 185.675146 58.551207 
L 189.571512 60.838571 
L 194.086926 63.213931 
L 199.075731 65.561054 
L 202.862852 67.167072 
L 202.862852 67.167072 
" clip-path="url(#p5ac254ec55)" style="fill: none; stroke: #0000ff; stroke-width: 0.6; stroke-linecap: round"/>
   </g>
   <g id="line2d_19">
    <path d="M 50.686103 38.733906 
L 51.851371 38.841859 
L 52.980224 39.171242 
L 54.072663 39.724192 
L 55.201517 40.542451 
L 57.532054 42.615915 
L 63.576883 47.933786 
L 67.109102 50.707763 
L 70.641321 53.199512 
L 74.100711 55.364883 
L 77.70576 57.361291 
L 79.125931 57.978165 
L 80.14554 58.170597 
L 81.128735 58.134669 
L 82.111931 57.880285 
L 83.13154 57.388965 
L 84.223979 56.613031 
L 85.425662 55.473596 
L 86.700174 53.946619 
L 88.557321 51.294445 
L 93.801028 43.776 
L 96.896271 39.753413 
L 99.809442 36.320721 
L 103.01393 32.905498 
L 105.745027 30.311761 
L 108.876686 27.647073 
L 112.081173 25.219978 
L 115.576978 22.857335 
L 119.218441 20.679676 
L 122.714246 18.836577 
L 127.011173 16.831792 
L 131.271685 15.086852 
L 135.932758 13.421675 
L 140.266099 12.095133 
L 141.285709 12.026993 
L 142.268904 12.178681 
L 143.288513 12.563703 
L 144.344538 13.204182 
L 145.509806 14.186235 
L 146.747904 15.520585 
L 148.13166 17.360725 
L 149.988806 20.27352 
L 155.341757 28.709024 
L 158.619074 33.446875 
L 161.641488 37.396975 
L 164.663903 40.974154 
L 167.795561 44.329583 
L 170.490244 46.917521 
L 173.585488 49.578371 
L 176.862805 52.101041 
L 180.28578 54.451093 
L 183.854414 56.641482 
L 187.677951 58.732116 
L 191.938463 60.760013 
L 196.563121 62.68468 
L 201.078535 64.330992 
L 204.173779 65.35171 
L 204.173779 65.35171 
" clip-path="url(#p5ac254ec55)" style="fill: none; stroke: #008000; stroke-width: 0.6; stroke-linecap: round"/>
   </g>
   <g id="line2d_20">
    <path d="M 50.686103 38.733906 
L 51.960615 38.846822 
L 53.089468 39.164613 
L 54.218322 39.717903 
L 55.310761 40.50506 
L 56.985834 42.05392 
L 65.83459 50.472155 
L 68.929834 52.958158 
L 72.097907 55.217466 
L 75.338809 57.261602 
L 77.23237 58.254631 
L 78.25198 58.494294 
L 79.235175 58.501872 
L 80.254784 58.284848 
L 81.274394 57.842222 
L 82.330418 57.141916 
L 83.459272 56.11728 
L 84.660955 54.710958 
L 85.935467 52.863172 
L 88.375247 48.765078 
L 91.834637 43.110376 
L 94.383662 39.37128 
L 96.859857 36.126959 
L 99.372466 33.199065 
L 101.921491 30.569167 
L 104.616174 28.107447 
L 107.456515 25.811678 
L 110.442515 23.68473 
L 113.647002 21.678168 
L 117.106393 19.77431 
L 120.675027 18.061968 
L 124.680636 16.388174 
L 129.013977 14.823018 
L 133.784294 13.339572 
L 137.243684 12.46286 
L 138.299709 12.473613 
L 139.319318 12.704169 
L 140.411757 13.178762 
L 141.540611 13.911244 
L 142.742294 14.963559 
L 143.980391 16.350259 
L 145.327733 18.207463 
L 146.784318 20.611883 
L 152.792733 30.875294 
L 155.378171 34.734349 
L 157.890781 38.092695 
L 160.439805 41.132603 
L 163.061659 43.916649 
L 165.756342 46.456297 
L 168.596683 48.824296 
L 171.728342 51.145438 
L 174.932829 53.238484 
L 178.246561 55.141721 
L 182.033683 57.054347 
L 185.893634 58.743371 
L 190.299804 60.441087 
L 194.742389 61.91311 
L 199.804023 63.347139 
L 203.044926 64.148856 
L 203.044926 64.148856 
" clip-path="url(#p5ac254ec55)" style="fill: none; stroke: #ff0000; stroke-width: 0.6; stroke-linecap: round"/>
   </g>
   <g id="patch_3">
    <path d="M 43.011719 70.022647 
L 43.011719 7.2 
" style="fill: none; stroke: #000000; stroke-linejoin: miter; stroke-linecap: square"/>
   </g>
   <g id="patch_4">
    <path d="M 43.011719 70.022647 
L 211.848163 70.022647 
" style="fill: none; stroke: #000000; stroke-linejoin: miter; stroke-linecap: square"/>
   </g>
  </g>
  <g id="axes_2">
   <g id="patch_5">
    <path d="M 43.011719 132.845294 
L 211.848163 132.845294 
L 211.848163 70.022647 
L 43.011719 70.022647 
z
" style="fill: #ffffff"/>
   </g>
   <g id="line2d_21">
    <path d="M 50.686103 101.600824 
L 53.125883 101.717246 
L 54.728109 102.018792 
L 56.111927 102.504839 
L 57.568505 103.263685 
L 59.243527 104.39738 
L 61.246353 106.035095 
L 63.722541 108.363078 
L 66.890738 111.663448 
L 71.005457 116.287765 
L 80.072686 126.612561 
L 81.638522 127.89844 
L 83.0223 128.75403 
L 84.296841 129.285935 
L 85.498491 129.551609 
L 86.66376 129.58541 
L 87.938297 129.390481 
L 89.394872 128.930013 
L 91.106407 128.143512 
L 93.182004 126.932678 
L 95.694625 125.197743 
L 98.68057 122.852708 
L 102.394881 119.634396 
L 107.128805 115.224189 
L 112.445334 109.959857 
L 118.999994 103.142941 
L 130.616225 90.650624 
L 140.921664 79.666615 
L 143.070029 77.679993 
L 144.745146 76.426504 
L 146.201757 75.605388 
L 147.549087 75.09301 
L 148.823527 74.837196 
L 150.09805 74.808393 
L 151.445413 75.007982 
L 152.97482 75.463484 
L 154.795552 76.244105 
L 157.016834 77.448902 
L 159.638691 79.13111 
L 162.73392 81.391456 
L 166.703108 84.583987 
L 171.874011 89.034457 
L 177.15414 93.874664 
L 183.053358 99.596052 
L 192.339024 108.969751 
L 202.82654 119.707974 
L 202.82654 119.707974 
" clip-path="url(#p5688c8494b)" style="fill: none; stroke: #000000; stroke-width: 0.6; stroke-linecap: round"/>
   </g>
   <g id="line2d_22">
    <path d="M 50.686103 101.730142 
L 52.251925 108.396385 
L 55.055862 120.204615 
L 55.565667 122.263426 
L 76.285673 122.155789 
L 80.946659 102.472717 
L 85.498491 83.300821 
L 86.22678 81.025526 
L 87.173565 81.042458 
L 92.235209 81.040845 
L 97.224021 81.040845 
L 139.829178 81.135985 
L 141.030828 86.256204 
L 146.711471 110.180257 
L 149.697485 122.261814 
L 160.80401 122.249719 
L 202.82654 122.249719 
L 202.82654 122.249719 
" clip-path="url(#p5688c8494b)" style="fill: none; stroke-dasharray: 2.22,0.96; stroke-dashoffset: 0; stroke: #808080; stroke-width: 0.6"/>
   </g>
   <g id="matplotlib.axis_3">
    <g id="xtick_6">
     <g id="line2d_23">
      <path d="M 50.686103 132.845294 
L 50.686103 70.022647 
" clip-path="url(#p5688c8494b)" style="fill: none; stroke: #b0b0b0; stroke-width: 0.1; stroke-linecap: round"/>
     </g>
     <g id="line2d_24"/>
    </g>
    <g id="xtick_7">
     <g id="line2d_25">
      <path d="M 87.100735 132.845294 
L 87.100735 70.022647 
" clip-path="url(#p5688c8494b)" style="fill: none; stroke: #b0b0b0; stroke-width: 0.1; stroke-linecap: round"/>
     </g>
     <g id="line2d_26"/>
    </g>
    <g id="xtick_8">
     <g id="line2d_27">
      <path d="M 123.515368 132.845294 
L 123.515368 70.022647 
" clip-path="url(#p5688c8494b)" style="fill: none; stroke: #b0b0b0; stroke-width: 0.1; stroke-linecap: round"/>
     </g>
     <g id="line2d_28"/>
    </g>
    <g id="xtick_9">
     <g id="line2d_29">
      <path d="M 159.930001 132.845294 
L 159.930001 70.022647 
" clip-path="url(#p5688c8494b)" style="fill: none; stroke: #b0b0b0; stroke-width: 0.1; stroke-linecap: round"/>
     </g>
     <g id="line2d_30"/>
    </g>
    <g id="xtick_10">
     <g id="line2d_31">
      <path d="M 196.344633 132.845294 
L 196.344633 70.022647 
" clip-path="url(#p5688c8494b)" style="fill: none; stroke: #b0b0b0; stroke-width: 0.1; stroke-linecap: round"/>
     </g>
     <g id="line2d_32"/>
    </g>
   </g>
   <g id="matplotlib.axis_4">
    <g id="ytick_4">
     <g id="line2d_33">
      <path d="M 43.011719 122.250186 
L 211.848163 122.250186 
" clip-path="url(#p5688c8494b)" style="fill: none; stroke: #b0b0b0; stroke-width: 0.1; stroke-linecap: round"/>
     </g>
     <g id="line2d_34"/>
     <g id="text_5">
      <!-- −20 -->
      <g style="fill: #262626" transform="translate(24.738438 124.909639) scale(0.07 -0.07)">
       <defs>
        <path id="DejaVuSerif-32" d="M 819 3553 
L 469 3553 
L 469 4384 
Q 803 4563 1142 4656 
Q 1481 4750 1806 4750 
Q 2534 4750 2956 4397 
Q 3378 4044 3378 3438 
Q 3378 2753 2422 1800 
Q 2347 1728 2309 1691 
L 1131 513 
L 3078 513 
L 3078 1088 
L 3444 1088 
L 3444 0 
L 434 0 
L 434 341 
L 1850 1753 
Q 2319 2222 2519 2614 
Q 2719 3006 2719 3438 
Q 2719 3909 2473 4175 
Q 2228 4441 1797 4441 
Q 1350 4441 1106 4219 
Q 863 3997 819 3553 
z
" transform="scale(0.015625)"/>
       </defs>
       <use xlink:href="#DejaVuSerif-2212"/>
       <use xlink:href="#DejaVuSerif-32" x="83.789062"/>
       <use xlink:href="#DejaVuSerif-30" x="147.412109"/>
      </g>
     </g>
    </g>
    <g id="ytick_5">
     <g id="line2d_35">
      <path d="M 43.011719 101.645484 
L 211.848163 101.645484 
" clip-path="url(#p5688c8494b)" style="fill: none; stroke: #b0b0b0; stroke-width: 0.1; stroke-linecap: round"/>
     </g>
     <g id="line2d_36"/>
     <g id="text_6">
      <!-- 0 -->
      <g style="fill: #262626" transform="translate(35.057969 104.304937) scale(0.07 -0.07)">
       <use xlink:href="#DejaVuSerif-30"/>
      </g>
     </g>
    </g>
    <g id="ytick_6">
     <g id="line2d_37">
      <path d="M 43.011719 81.040782 
L 211.848163 81.040782 
" clip-path="url(#p5688c8494b)" style="fill: none; stroke: #b0b0b0; stroke-width: 0.1; stroke-linecap: round"/>
     </g>
     <g id="line2d_38"/>
     <g id="text_7">
      <!-- 20 -->
      <g style="fill: #262626" transform="translate(30.604219 83.700235) scale(0.07 -0.07)">
       <use xlink:href="#DejaVuSerif-32"/>
       <use xlink:href="#DejaVuSerif-30" x="63.623047"/>
      </g>
     </g>
    </g>
    <g id="text_8">
     <!-- $\psi$ $[deg]$ -->
     <g style="fill: #262626" transform="translate(12.59 114.208971) rotate(-90) scale(0.07 -0.07)">
      <defs>
       <path id="DejaVuSans-Oblique-3c8" d="M 1591 -78 
Q 891 38 616 341 
Q 278 713 425 1472 
L 819 3500 
L 1400 3500 
L 1009 1494 
Q 900 922 1119 684 
Q 1313 478 1691 434 
L 2284 3500 
L 2856 3500 
L 2263 438 
Q 2681 481 2928 688 
Q 3247 950 3353 1497 
L 3741 3500 
L 4322 3500 
L 3928 1475 
Q 3775 688 3300 344 
Q 2872 34 2163 -75 
L 1919 -1331 
L 1347 -1331 
L 1591 -78 
z
" transform="scale(0.015625)"/>
      </defs>
      <use xlink:href="#DejaVuSans-Oblique-3c8" transform="translate(0 0.015625)"/>
      <use xlink:href="#DejaVuSerif-20" transform="translate(65.966797 0.015625)"/>
      <use xlink:href="#DejaVuSans-5b" transform="translate(97.753906 0.015625)"/>
      <use xlink:href="#DejaVuSans-Oblique-64" transform="translate(136.767578 0.015625)"/>
      <use xlink:href="#DejaVuSans-Oblique-65" transform="translate(200.244141 0.015625)"/>
      <use xlink:href="#DejaVuSans-Oblique-67" transform="translate(261.767578 0.015625)"/>
      <use xlink:href="#DejaVuSans-5d" transform="translate(325.244141 0.015625)"/>
     </g>
    </g>
   </g>
   <g id="line2d_39">
    <path d="M 50.686103 101.645484 
L 53.271542 101.753748 
L 54.764541 102.048053 
L 56.111883 102.542301 
L 57.641297 103.352186 
L 59.498444 104.597443 
L 61.792566 106.415701 
L 64.669322 108.991448 
L 68.27437 112.531825 
L 72.716955 117.217366 
L 78.324809 123.47352 
L 80.655345 125.911467 
L 82.257589 127.280244 
L 83.641345 128.185886 
L 84.915857 128.762843 
L 86.081126 129.055261 
L 87.209979 129.11612 
L 88.484491 128.95111 
L 89.941077 128.529755 
L 91.652564 127.793592 
L 93.655369 126.681838 
L 96.058735 125.088508 
L 99.00832 122.854516 
L 102.431296 119.978936 
L 106.400491 116.340202 
L 111.061564 111.761423 
L 116.232441 106.356344 
L 122.3501 99.624129 
L 129.086807 91.883531 
L 138.044806 81.21653 
L 141.249294 77.524409 
L 142.960782 75.906206 
L 144.417367 74.826275 
L 145.728294 74.122187 
L 146.966391 73.707587 
L 148.168074 73.544221 
L 149.479001 73.601997 
L 150.972001 73.897449 
L 152.719903 74.479469 
L 154.722708 75.386575 
L 157.089659 76.713427 
L 159.857171 78.528613 
L 163.098074 80.924173 
L 166.739537 83.898376 
L 170.817976 87.525782 
L 175.624707 92.104095 
L 180.686341 97.232785 
L 186.476268 103.421571 
L 193.358633 111.123911 
L 201.042121 120.059269 
L 202.862852 122.218288 
L 202.862852 122.218288 
" clip-path="url(#p5688c8494b)" style="fill: none; stroke: #0000ff; stroke-width: 0.6; stroke-linecap: round"/>
   </g>
   <g id="line2d_40">
    <path d="M 50.686103 101.645484 
L 53.271542 101.753383 
L 54.764541 102.046292 
L 56.111883 102.536458 
L 57.677712 103.358581 
L 59.607688 104.639973 
L 62.011053 106.519459 
L 65.142712 109.269067 
L 69.221151 113.162907 
L 74.574102 118.60151 
L 81.820614 125.981547 
L 83.350028 127.123288 
L 84.697369 127.866286 
L 85.935467 128.304408 
L 87.100735 128.485341 
L 88.266003 128.436607 
L 89.57693 128.147613 
L 91.106345 127.572974 
L 92.927076 126.639469 
L 95.148369 125.239951 
L 97.879467 123.246621 
L 101.302442 120.460651 
L 105.344466 116.875128 
L 110.551759 111.954835 
L 116.523758 105.997171 
L 123.369709 98.852634 
L 132.036392 89.490474 
L 143.470587 77.129817 
L 145.036416 75.893886 
L 146.420172 75.07435 
L 147.694684 74.572535 
L 148.896367 74.337647 
L 150.09805 74.333735 
L 151.445391 74.557155 
L 153.01122 75.046588 
L 154.868367 75.870373 
L 157.053245 77.093501 
L 159.711513 78.848274 
L 162.952415 81.261547 
L 166.775952 84.393374 
L 171.291366 88.394707 
L 176.972049 93.728638 
L 183.162536 99.856262 
L 190.299804 107.249785 
L 199.367048 116.957771 
L 204.173779 122.223707 
L 204.173779 122.223707 
" clip-path="url(#p5688c8494b)" style="fill: none; stroke: #008000; stroke-width: 0.6; stroke-linecap: round"/>
   </g>
   <g id="line2d_41">
    <path d="M 50.686103 101.645484 
L 53.271542 101.754818 
L 54.800956 102.048413 
L 56.221127 102.544362 
L 57.750541 103.320012 
L 59.498444 104.46549 
L 61.537663 106.080823 
L 63.977444 108.313182 
L 66.963443 111.362006 
L 70.677736 115.486146 
L 75.448053 121.134141 
L 79.817809 126.271003 
L 81.456467 127.807786 
L 82.840223 128.817576 
L 84.114735 129.480703 
L 85.316418 129.858792 
L 86.481686 129.989217 
L 87.683369 129.892976 
L 89.030711 129.553309 
L 90.59654 128.914798 
L 92.417272 127.918977 
L 94.60215 126.460916 
L 97.224003 124.430771 
L 100.355662 121.713495 
L 104.106369 118.152306 
L 108.476125 113.684152 
L 113.683417 108.027863 
L 120.019563 100.80328 
L 128.24927 91.061541 
L 140.521001 76.498487 
L 142.15966 75.033129 
L 143.579831 74.048583 
L 144.890757 73.399081 
L 146.128855 73.023404 
L 147.366952 72.881108 
L 148.714294 72.956217 
L 150.243708 73.27489 
L 151.991611 73.876861 
L 154.03083 74.823285 
L 156.434196 76.191497 
L 159.238123 78.05003 
L 162.479025 80.472136 
L 166.229732 83.562344 
L 170.453829 87.336585 
L 175.224146 91.905786 
L 180.722756 97.491739 
L 187.27739 104.485285 
L 195.179365 113.257204 
L 203.044926 122.243002 
L 203.044926 122.243002 
" clip-path="url(#p5688c8494b)" style="fill: none; stroke: #ff0000; stroke-width: 0.6; stroke-linecap: round"/>
   </g>
   <g id="patch_6">
    <path d="M 43.011719 132.845294 
L 43.011719 70.022647 
" style="fill: none; stroke: #000000; stroke-linejoin: miter; stroke-linecap: square"/>
   </g>
   <g id="patch_7">
    <path d="M 43.011719 132.845294 
L 211.848163 132.845294 
" style="fill: none; stroke: #000000; stroke-linejoin: miter; stroke-linecap: square"/>
   </g>
  </g>
  <g id="axes_3">
   <g id="patch_8">
    <path d="M 43.011719 195.667941 
L 211.848163 195.667941 
L 211.848163 132.845294 
L 43.011719 132.845294 
z
" style="fill: #ffffff"/>
   </g>
   <g id="line2d_42">
    <path d="M 50.686103 164.263219 
L 51.30518 164.605039 
L 51.997026 165.268573 
L 52.761791 166.326936 
L 53.635775 167.927071 
L 54.618868 170.195495 
L 55.784151 173.484484 
L 57.204395 177.338187 
L 58.515267 180.286224 
L 59.826168 182.692908 
L 61.100688 184.585672 
L 62.411596 186.147105 
L 63.831781 187.487118 
L 65.434036 188.676106 
L 67.21839 189.714925 
L 69.257616 190.63171 
L 71.515291 191.395262 
L 73.481666 191.836302 
L 74.90183 191.937725 
L 76.103513 191.798395 
L 76.759034 191.541747 
L 77.341679 191.020931 
L 78.033514 190.072588 
L 78.871021 188.503865 
L 79.890631 186.072763 
L 81.165143 182.398924 
L 82.803812 176.944258 
L 85.316418 167.712727 
L 87.428474 160.118822 
L 88.593801 156.879677 
L 89.759014 154.278143 
L 90.924257 152.19749 
L 92.162373 150.425842 
L 93.582533 148.794583 
L 95.221191 147.259729 
L 97.07837 145.820782 
L 98.899131 144.675774 
L 100.82907 143.721162 
L 102.941093 142.918388 
L 106.65548 141.802403 
L 111.207222 140.647066 
L 115.067155 139.924308 
L 119.873897 139.232716 
L 122.896316 139.037946 
L 130.397741 138.858549 
L 135.932736 139.011466 
L 137.717064 139.264869 
L 139.173678 139.690662 
L 140.229684 140.212466 
L 140.885162 140.840816 
L 141.649851 141.901367 
L 142.560214 143.564514 
L 143.68914 146.128599 
L 145.109245 149.952248 
L 147.11205 156.055167 
L 151.408987 169.354101 
L 152.610765 172.015647 
L 153.812404 174.142879 
L 155.086945 175.943522 
L 156.470636 177.515577 
L 158.145684 179.068198 
L 160.075677 180.557889 
L 161.96922 181.75348 
L 163.789952 182.658352 
L 165.683527 183.3539 
L 168.341781 184.073217 
L 180.285817 186.913145 
L 184.072928 187.533476 
L 186.91328 187.800979 
L 191.39224 187.936161 
L 202.82654 188.162314 
L 202.82654 188.162314 
" clip-path="url(#p5b55f6989c)" style="fill: none; stroke: #000000; stroke-width: 0.6; stroke-linecap: round"/>
   </g>
   <g id="matplotlib.axis_5">
    <g id="xtick_11">
     <g id="line2d_43">
      <path d="M 50.686103 195.667941 
L 50.686103 132.845294 
" clip-path="url(#p5b55f6989c)" style="fill: none; stroke: #b0b0b0; stroke-width: 0.1; stroke-linecap: round"/>
     </g>
     <g id="line2d_44"/>
     <g id="text_9">
      <!-- 0 -->
      <g style="fill: #262626" transform="translate(48.459228 204.486848) scale(0.07 -0.07)">
       <use xlink:href="#DejaVuSerif-30"/>
      </g>
     </g>
    </g>
    <g id="xtick_12">
     <g id="line2d_45">
      <path d="M 87.100735 195.667941 
L 87.100735 132.845294 
" clip-path="url(#p5b55f6989c)" style="fill: none; stroke: #b0b0b0; stroke-width: 0.1; stroke-linecap: round"/>
     </g>
     <g id="line2d_46"/>
     <g id="text_10">
      <!-- 10 -->
      <g style="fill: #262626" transform="translate(82.646985 204.486848) scale(0.07 -0.07)">
       <use xlink:href="#DejaVuSerif-31"/>
       <use xlink:href="#DejaVuSerif-30" x="63.623047"/>
      </g>
     </g>
    </g>
    <g id="xtick_13">
     <g id="line2d_47">
      <path d="M 123.515368 195.667941 
L 123.515368 132.845294 
" clip-path="url(#p5b55f6989c)" style="fill: none; stroke: #b0b0b0; stroke-width: 0.1; stroke-linecap: round"/>
     </g>
     <g id="line2d_48"/>
     <g id="text_11">
      <!-- 20 -->
      <g style="fill: #262626" transform="translate(119.061618 204.486848) scale(0.07 -0.07)">
       <use xlink:href="#DejaVuSerif-32"/>
       <use xlink:href="#DejaVuSerif-30" x="63.623047"/>
      </g>
     </g>
    </g>
    <g id="xtick_14">
     <g id="line2d_49">
      <path d="M 159.930001 195.667941 
L 159.930001 132.845294 
" clip-path="url(#p5b55f6989c)" style="fill: none; stroke: #b0b0b0; stroke-width: 0.1; stroke-linecap: round"/>
     </g>
     <g id="line2d_50"/>
     <g id="text_12">
      <!-- 30 -->
      <g style="fill: #262626" transform="translate(155.476251 204.486848) scale(0.07 -0.07)">
       <defs>
        <path id="DejaVuSerif-33" d="M 622 4469 
Q 988 4606 1323 4678 
Q 1659 4750 1953 4750 
Q 2638 4750 3022 4454 
Q 3406 4159 3406 3634 
Q 3406 3213 3140 2930 
Q 2875 2647 2388 2547 
Q 2963 2466 3280 2130 
Q 3597 1794 3597 1259 
Q 3597 606 3158 257 
Q 2719 -91 1894 -91 
Q 1528 -91 1179 -12 
Q 831 66 488 225 
L 488 1131 
L 838 1131 
Q 869 681 1141 450 
Q 1413 219 1906 219 
Q 2384 219 2661 495 
Q 2938 772 2938 1253 
Q 2938 1803 2653 2086 
Q 2369 2369 1819 2369 
L 1522 2369 
L 1522 2688 
L 1678 2688 
Q 2225 2688 2498 2914 
Q 2772 3141 2772 3597 
Q 2772 4006 2547 4223 
Q 2322 4441 1900 4441 
Q 1478 4441 1245 4241 
Q 1013 4041 972 3647 
L 622 3647 
L 622 4469 
z
" transform="scale(0.015625)"/>
       </defs>
       <use xlink:href="#DejaVuSerif-33"/>
       <use xlink:href="#DejaVuSerif-30" x="63.623047"/>
      </g>
     </g>
    </g>
    <g id="xtick_15">
     <g id="line2d_51">
      <path d="M 196.344633 195.667941 
L 196.344633 132.845294 
" clip-path="url(#p5b55f6989c)" style="fill: none; stroke: #b0b0b0; stroke-width: 0.1; stroke-linecap: round"/>
     </g>
     <g id="line2d_52"/>
     <g id="text_13">
      <!-- 40 -->
      <g style="fill: #262626" transform="translate(191.890883 204.486848) scale(0.07 -0.07)">
       <defs>
        <path id="DejaVuSerif-34" d="M 2234 1581 
L 2234 4063 
L 641 1581 
L 2234 1581 
z
M 3609 0 
L 1484 0 
L 1484 331 
L 2234 331 
L 2234 1247 
L 197 1247 
L 197 1588 
L 2241 4750 
L 2859 4750 
L 2859 1581 
L 3750 1581 
L 3750 1247 
L 2859 1247 
L 2859 331 
L 3609 331 
L 3609 0 
z
" transform="scale(0.015625)"/>
       </defs>
       <use xlink:href="#DejaVuSerif-34"/>
       <use xlink:href="#DejaVuSerif-30" x="63.623047"/>
      </g>
     </g>
    </g>
    <g id="text_14">
     <!-- Time [s] -->
     <g style="fill: #262626" transform="translate(112.945957 215.261535) scale(0.07 -0.07)">
      <defs>
       <path id="DejaVuSerif-54" d="M 1222 0 
L 1222 331 
L 1819 331 
L 1819 4294 
L 447 4294 
L 447 3566 
L 63 3566 
L 63 4666 
L 4206 4666 
L 4206 3566 
L 3822 3566 
L 3822 4294 
L 2450 4294 
L 2450 331 
L 3047 331 
L 3047 0 
L 1222 0 
z
" transform="scale(0.015625)"/>
       <path id="DejaVuSerif-69" d="M 622 4353 
Q 622 4497 726 4603 
Q 831 4709 978 4709 
Q 1122 4709 1226 4603 
Q 1331 4497 1331 4353 
Q 1331 4206 1228 4103 
Q 1125 4000 978 4000 
Q 831 4000 726 4103 
Q 622 4206 622 4353 
z
M 1356 331 
L 1900 331 
L 1900 0 
L 231 0 
L 231 331 
L 781 331 
L 781 2988 
L 231 2988 
L 231 3322 
L 1356 3322 
L 1356 331 
z
" transform="scale(0.015625)"/>
       <path id="DejaVuSerif-6d" d="M 3316 2675 
Q 3481 3041 3739 3227 
Q 3997 3413 4341 3413 
Q 4863 3413 5119 3089 
Q 5375 2766 5375 2113 
L 5375 331 
L 5894 331 
L 5894 0 
L 4300 0 
L 4300 331 
L 4800 331 
L 4800 2047 
Q 4800 2556 4650 2772 
Q 4500 2988 4153 2988 
Q 3769 2988 3567 2697 
Q 3366 2406 3366 1850 
L 3366 331 
L 3866 331 
L 3866 0 
L 2291 0 
L 2291 331 
L 2791 331 
L 2791 2069 
Q 2791 2566 2641 2777 
Q 2491 2988 2144 2988 
Q 1759 2988 1557 2697 
Q 1356 2406 1356 1850 
L 1356 331 
L 1856 331 
L 1856 0 
L 263 0 
L 263 331 
L 781 331 
L 781 2994 
L 231 2994 
L 231 3322 
L 1356 3322 
L 1356 2731 
Q 1516 3063 1762 3238 
Q 2009 3413 2322 3413 
Q 2709 3413 2968 3220 
Q 3228 3028 3316 2675 
z
" transform="scale(0.015625)"/>
       <path id="DejaVuSerif-65" d="M 3469 1600 
L 991 1600 
L 991 1575 
Q 991 903 1244 561 
Q 1497 219 1991 219 
Q 2369 219 2611 417 
Q 2853 616 2950 1006 
L 3413 1006 
Q 3275 459 2904 184 
Q 2534 -91 1931 -91 
Q 1203 -91 761 389 
Q 319 869 319 1663 
Q 319 2450 753 2931 
Q 1188 3413 1894 3413 
Q 2647 3413 3050 2948 
Q 3453 2484 3469 1600 
z
M 2791 1931 
Q 2772 2513 2545 2808 
Q 2319 3103 1894 3103 
Q 1497 3103 1269 2806 
Q 1041 2509 991 1931 
L 2791 1931 
z
" transform="scale(0.015625)"/>
       <path id="DejaVuSerif-5b" d="M 550 4863 
L 2003 4863 
L 2003 4531 
L 1147 4531 
L 1147 -513 
L 2003 -513 
L 2003 -844 
L 550 -844 
L 550 4863 
z
" transform="scale(0.015625)"/>
       <path id="DejaVuSerif-73" d="M 359 184 
L 359 959 
L 691 959 
Q 703 588 923 403 
Q 1144 219 1575 219 
Q 1963 219 2166 364 
Q 2369 509 2369 788 
Q 2369 1006 2220 1140 
Q 2072 1275 1594 1428 
L 1178 1569 
Q 750 1706 558 1912 
Q 366 2119 366 2438 
Q 366 2894 700 3153 
Q 1034 3413 1625 3413 
Q 1888 3413 2178 3344 
Q 2469 3275 2778 3144 
L 2778 2419 
L 2447 2419 
Q 2434 2741 2221 2922 
Q 2009 3103 1644 3103 
Q 1281 3103 1095 2975 
Q 909 2847 909 2591 
Q 909 2381 1050 2254 
Q 1191 2128 1613 1997 
L 2069 1856 
Q 2541 1709 2748 1489 
Q 2956 1269 2956 922 
Q 2956 450 2595 179 
Q 2234 -91 1600 -91 
Q 1278 -91 972 -22 
Q 666 47 359 184 
z
" transform="scale(0.015625)"/>
       <path id="DejaVuSerif-5d" d="M 1947 4863 
L 1947 -844 
L 494 -844 
L 494 -513 
L 1350 -513 
L 1350 4531 
L 494 4531 
L 494 4863 
L 1947 4863 
z
" transform="scale(0.015625)"/>
      </defs>
      <use xlink:href="#DejaVuSerif-54"/>
      <use xlink:href="#DejaVuSerif-69" x="66.699219"/>
      <use xlink:href="#DejaVuSerif-6d" x="98.681641"/>
      <use xlink:href="#DejaVuSerif-65" x="193.505859"/>
      <use xlink:href="#DejaVuSerif-20" x="252.685547"/>
      <use xlink:href="#DejaVuSerif-5b" x="284.472656"/>
      <use xlink:href="#DejaVuSerif-73" x="323.486328"/>
      <use xlink:href="#DejaVuSerif-5d" x="374.804688"/>
     </g>
    </g>
   </g>
   <g id="matplotlib.axis_6">
    <g id="ytick_7">
     <g id="line2d_53">
      <path d="M 43.011719 183.126113 
L 211.848163 183.126113 
" clip-path="url(#p5b55f6989c)" style="fill: none; stroke: #b0b0b0; stroke-width: 0.1; stroke-linecap: round"/>
     </g>
     <g id="line2d_54"/>
     <g id="text_15">
      <!-- −0.05 -->
      <g style="fill: #262626" transform="translate(18.06 185.785566) scale(0.07 -0.07)">
       <defs>
        <path id="DejaVuSerif-2e" d="M 603 325 
Q 603 500 722 622 
Q 841 744 1019 744 
Q 1191 744 1312 622 
Q 1434 500 1434 325 
Q 1434 153 1312 31 
Q 1191 -91 1019 -91 
Q 841 -91 722 29 
Q 603 150 603 325 
z
" transform="scale(0.015625)"/>
        <path id="DejaVuSerif-35" d="M 3219 4666 
L 3219 4153 
L 1081 4153 
L 1081 2816 
Q 1244 2928 1461 2984 
Q 1678 3041 1947 3041 
Q 2703 3041 3140 2622 
Q 3578 2203 3578 1478 
Q 3578 738 3136 323 
Q 2694 -91 1894 -91 
Q 1572 -91 1234 -12 
Q 897 66 544 225 
L 544 1131 
L 897 1131 
Q 925 688 1179 453 
Q 1434 219 1894 219 
Q 2388 219 2653 544 
Q 2919 869 2919 1478 
Q 2919 2084 2655 2407 
Q 2391 2731 1894 2731 
Q 1613 2731 1398 2631 
Q 1184 2531 1019 2322 
L 750 2322 
L 750 4666 
L 3219 4666 
z
" transform="scale(0.015625)"/>
       </defs>
       <use xlink:href="#DejaVuSerif-2212"/>
       <use xlink:href="#DejaVuSerif-30" x="83.789062"/>
       <use xlink:href="#DejaVuSerif-2e" x="147.412109"/>
       <use xlink:href="#DejaVuSerif-30" x="179.199219"/>
       <use xlink:href="#DejaVuSerif-35" x="242.822266"/>
      </g>
     </g>
    </g>
    <g id="ytick_8">
     <g id="line2d_55">
      <path d="M 43.011719 164.163844 
L 211.848163 164.163844 
" clip-path="url(#p5b55f6989c)" style="fill: none; stroke: #b0b0b0; stroke-width: 0.1; stroke-linecap: round"/>
     </g>
     <g id="line2d_56"/>
     <g id="text_16">
      <!-- 0.00 -->
      <g style="fill: #262626" transform="translate(23.925781 166.823297) scale(0.07 -0.07)">
       <use xlink:href="#DejaVuSerif-30"/>
       <use xlink:href="#DejaVuSerif-2e" x="63.623047"/>
       <use xlink:href="#DejaVuSerif-30" x="95.410156"/>
       <use xlink:href="#DejaVuSerif-30" x="159.033203"/>
      </g>
     </g>
    </g>
    <g id="ytick_9">
     <g id="line2d_57">
      <path d="M 43.011719 145.201575 
L 211.848163 145.201575 
" clip-path="url(#p5b55f6989c)" style="fill: none; stroke: #b0b0b0; stroke-width: 0.1; stroke-linecap: round"/>
     </g>
     <g id="line2d_58"/>
     <g id="text_17">
      <!-- 0.05 -->
      <g style="fill: #262626" transform="translate(23.925781 147.861028) scale(0.07 -0.07)">
       <use xlink:href="#DejaVuSerif-30"/>
       <use xlink:href="#DejaVuSerif-2e" x="63.623047"/>
       <use xlink:href="#DejaVuSerif-30" x="95.410156"/>
       <use xlink:href="#DejaVuSerif-35" x="159.033203"/>
      </g>
     </g>
    </g>
    <g id="text_18">
     <!-- $r$ $[rad/s]$ -->
     <g style="fill: #262626" transform="translate(12.604219 178.361618) rotate(-90) scale(0.07 -0.07)">
      <defs>
       <path id="DejaVuSans-Oblique-72" d="M 2853 2969 
Q 2766 3016 2653 3041 
Q 2541 3066 2413 3066 
Q 1953 3066 1609 2717 
Q 1266 2369 1153 1784 
L 800 0 
L 225 0 
L 909 3500 
L 1484 3500 
L 1375 2956 
Q 1603 3259 1920 3421 
Q 2238 3584 2597 3584 
Q 2691 3584 2781 3573 
Q 2872 3563 2963 3538 
L 2853 2969 
z
" transform="scale(0.015625)"/>
       <path id="DejaVuSans-Oblique-61" d="M 3438 1997 
L 3047 0 
L 2472 0 
L 2578 531 
Q 2325 219 2001 64 
Q 1678 -91 1281 -91 
Q 834 -91 548 182 
Q 263 456 263 884 
Q 263 1497 752 1853 
Q 1241 2209 2100 2209 
L 2900 2209 
L 2931 2363 
Q 2938 2388 2941 2417 
Q 2944 2447 2944 2509 
Q 2944 2788 2717 2942 
Q 2491 3097 2081 3097 
Q 1800 3097 1504 3025 
Q 1209 2953 897 2809 
L 997 3341 
Q 1322 3463 1633 3523 
Q 1944 3584 2234 3584 
Q 2853 3584 3176 3315 
Q 3500 3047 3500 2534 
Q 3500 2431 3484 2292 
Q 3469 2153 3438 1997 
z
M 2816 1759 
L 2241 1759 
Q 1534 1759 1195 1570 
Q 856 1381 856 984 
Q 856 709 1029 553 
Q 1203 397 1509 397 
Q 1978 397 2328 733 
Q 2678 1069 2791 1631 
L 2816 1759 
z
" transform="scale(0.015625)"/>
       <path id="DejaVuSans-2f" d="M 1625 4666 
L 2156 4666 
L 531 -594 
L 0 -594 
L 1625 4666 
z
" transform="scale(0.015625)"/>
       <path id="DejaVuSans-Oblique-73" d="M 3200 3397 
L 3091 2853 
Q 2863 2978 2609 3040 
Q 2356 3103 2088 3103 
Q 1634 3103 1373 2948 
Q 1113 2794 1113 2528 
Q 1113 2219 1719 2053 
Q 1766 2041 1788 2034 
L 1972 1978 
Q 2547 1819 2739 1644 
Q 2931 1469 2931 1166 
Q 2931 609 2489 259 
Q 2047 -91 1331 -91 
Q 1053 -91 747 -37 
Q 441 16 72 128 
L 184 722 
Q 500 559 806 475 
Q 1113 391 1394 391 
Q 1816 391 2080 572 
Q 2344 753 2344 1031 
Q 2344 1331 1650 1516 
L 1591 1531 
L 1394 1581 
Q 956 1697 753 1886 
Q 550 2075 550 2369 
Q 550 2928 970 3256 
Q 1391 3584 2113 3584 
Q 2397 3584 2667 3537 
Q 2938 3491 3200 3397 
z
" transform="scale(0.015625)"/>
      </defs>
      <use xlink:href="#DejaVuSans-Oblique-72" transform="translate(0 0.015625)"/>
      <use xlink:href="#DejaVuSerif-20" transform="translate(41.113281 0.015625)"/>
      <use xlink:href="#DejaVuSans-5b" transform="translate(72.900391 0.015625)"/>
      <use xlink:href="#DejaVuSans-Oblique-72" transform="translate(111.914062 0.015625)"/>
      <use xlink:href="#DejaVuSans-Oblique-61" transform="translate(153.027344 0.015625)"/>
      <use xlink:href="#DejaVuSans-Oblique-64" transform="translate(214.306641 0.015625)"/>
      <use xlink:href="#DejaVuSans-2f" transform="translate(277.783203 0.015625)"/>
      <use xlink:href="#DejaVuSans-Oblique-73" transform="translate(311.474609 0.015625)"/>
      <use xlink:href="#DejaVuSans-5d" transform="translate(363.574219 0.015625)"/>
     </g>
    </g>
   </g>
   <g id="line2d_59">
    <path d="M 50.686103 164.163844 
L 51.159493 164.270882 
L 51.705712 164.642512 
L 52.324761 165.361694 
L 53.053054 166.573612 
L 53.927005 168.49701 
L 55.019444 171.498783 
L 56.767346 176.34597 
L 57.8962 178.712768 
L 59.097883 180.726013 
L 60.33598 182.38813 
L 61.646907 183.796465 
L 63.212736 185.139266 
L 64.887809 186.27347 
L 66.890614 187.383121 
L 69.330395 188.430275 
L 71.988663 189.355212 
L 76.139931 190.46846 
L 77.632931 190.704397 
L 78.069906 190.510096 
L 78.688955 189.957091 
L 79.344418 189.046834 
L 80.14554 187.505057 
L 81.128735 185.110474 
L 82.330418 181.537958 
L 83.932662 176.048041 
L 85.862638 168.581517 
L 87.719784 161.491689 
L 88.812223 158.345638 
L 89.941077 155.735079 
L 91.215589 153.327351 
L 92.526516 151.319321 
L 93.910272 149.59915 
L 95.403271 148.104004 
L 97.114759 146.710758 
L 99.00832 145.478201 
L 102.431296 143.58665 
L 104.50693 142.661333 
L 107.456515 141.602344 
L 114.520954 139.46904 
L 118.490149 138.546928 
L 129.560197 136.685718 
L 134.002782 136.248618 
L 138.554611 135.979654 
L 139.064416 136.261605 
L 139.64705 136.860226 
L 140.338928 137.933914 
L 141.212879 139.73825 
L 142.305318 142.543601 
L 143.65266 146.672488 
L 145.436977 152.911226 
L 149.151269 166.16554 
L 150.316538 169.03571 
L 151.51822 171.413943 
L 152.901976 173.652756 
L 154.467806 175.730135 
L 156.033635 177.4329 
L 157.817952 179.029885 
L 159.638684 180.35149 
L 162.042049 181.792304 
L 165.028049 183.335176 
L 168.960829 185.062411 
L 171.801171 186.034559 
L 176.462244 187.398734 
L 180.28578 188.434117 
L 186.549097 189.802071 
L 189.935658 190.347635 
L 196.927267 191.354931 
L 200.677975 191.795303 
L 202.862852 191.981301 
L 202.862852 191.981301 
" clip-path="url(#p5b55f6989c)" style="fill: none; stroke: #0000ff; stroke-width: 0.6; stroke-linecap: round"/>
   </g>
   <g id="line2d_60">
    <path d="M 50.686103 164.163844 
L 51.159493 164.270794 
L 51.705712 164.641673 
L 52.324761 165.356574 
L 53.053054 166.565429 
L 53.96342 168.569772 
L 55.092273 171.660181 
L 56.694517 176.043011 
L 57.786956 178.298871 
L 58.952224 180.210103 
L 60.190322 181.836848 
L 61.464834 183.140193 
L 62.957834 184.336957 
L 64.560078 185.320885 
L 66.490053 186.253026 
L 69.221151 187.250064 
L 71.515272 187.872636 
L 74.938248 188.568879 
L 78.215565 189.025753 
L 78.688955 188.906846 
L 79.235175 188.534397 
L 79.854223 187.814175 
L 80.618931 186.536483 
L 81.529296 184.533598 
L 82.621735 181.554898 
L 84.078321 176.899306 
L 85.899052 170.239542 
L 88.921467 158.958735 
L 90.013906 156.077255 
L 91.288418 153.399616 
L 92.490101 151.388412 
L 93.691784 149.788852 
L 95.07554 148.300192 
L 96.604954 146.987409 
L 98.316442 145.802745 
L 100.355662 144.719555 
L 103.450905 143.316397 
L 105.562954 142.676725 
L 111.097978 141.315901 
L 116.669417 140.264425 
L 123.879514 139.272518 
L 129.450953 138.711588 
L 135.605026 138.325645 
L 140.084026 138.161911 
L 140.593831 138.449025 
L 141.176465 139.035752 
L 141.904757 140.117306 
L 142.742294 141.770437 
L 143.834733 144.477635 
L 145.14566 148.384528 
L 146.857147 154.214198 
L 150.899172 168.426477 
L 152.028025 171.093529 
L 153.266123 173.46817 
L 154.613464 175.574581 
L 156.033635 177.378202 
L 157.526635 178.920704 
L 158.873976 180.018531 
L 160.767537 181.27739 
L 162.879586 182.427204 
L 165.865586 183.766899 
L 168.888 184.90079 
L 171.364195 185.519069 
L 174.605098 186.229095 
L 183.417439 187.924697 
L 187.823609 188.570591 
L 204.173779 189.958803 
L 204.173779 189.958803 
" clip-path="url(#p5b55f6989c)" style="fill: none; stroke: #008000; stroke-width: 0.6; stroke-linecap: round"/>
   </g>
   <g id="line2d_61">
    <path d="M 50.686103 164.163844 
L 51.159493 164.273881 
L 51.669298 164.624261 
L 52.288346 165.333073 
L 53.053054 166.571325 
L 54.072663 168.700399 
L 55.38359 171.99363 
L 57.277151 176.723723 
L 58.733736 179.73319 
L 60.190322 182.235731 
L 61.610492 184.24297 
L 63.103492 185.977936 
L 64.596492 187.386101 
L 66.30798 188.690675 
L 68.055882 189.768083 
L 70.277175 190.859732 
L 72.425638 191.691691 
L 75.083906 192.469751 
L 76.722565 192.805227 
L 77.195955 192.639363 
L 77.742175 192.206846 
L 78.361223 191.413526 
L 79.089516 190.095544 
L 79.999882 187.941126 
L 81.128735 184.663654 
L 82.585321 179.687119 
L 84.733784 171.452323 
L 87.574125 160.600475 
L 88.775808 157.087633 
L 90.013906 154.146084 
L 91.252003 151.765292 
L 92.526516 149.789679 
L 93.946686 147.997318 
L 95.476101 146.419931 
L 97.260418 144.9098 
L 99.117564 143.629501 
L 101.411686 142.332884 
L 103.997125 141.131228 
L 107.201612 139.895906 
L 110.369686 138.922326 
L 114.156807 137.998782 
L 118.235246 137.234802 
L 122.641417 136.607727 
L 127.593807 136.133273 
L 133.492977 135.801443 
L 136.988782 135.764928 
L 137.535001 136.042597 
L 138.15405 136.607382 
L 138.845928 137.551636 
L 139.683465 139.101918 
L 140.703075 141.491269 
L 141.977587 145.09155 
L 143.761904 150.907275 
L 148.459391 166.627947 
L 149.697489 169.545387 
L 150.972001 172.005138 
L 152.319342 174.120188 
L 153.739513 175.941818 
L 155.268928 177.544553 
L 157.053245 179.096154 
L 159.092464 180.565841 
L 161.49583 182.032049 
L 163.93561 183.266597 
L 167.322171 184.687809 
L 171.036464 186.020341 
L 175.296976 187.286832 
L 179.81239 188.354355 
L 183.526683 189.057255 
L 189.24378 189.909863 
L 196.490292 190.697587 
L 202.462292 191.112414 
L 203.044926 191.138608 
L 203.044926 191.138608 
" clip-path="url(#p5b55f6989c)" style="fill: none; stroke: #ff0000; stroke-width: 0.6; stroke-linecap: round"/>
   </g>
   <g id="patch_9">
    <path d="M 43.011719 195.667941 
L 43.011719 132.845294 
" style="fill: none; stroke: #000000; stroke-linejoin: miter; stroke-linecap: square"/>
   </g>
   <g id="patch_10">
    <path d="M 43.011719 195.667941 
L 211.848163 195.667941 
" style="fill: none; stroke: #000000; stroke-linejoin: miter; stroke-linecap: square"/>
   </g>
  </g>
 </g>
 <defs>
  <clipPath id="p5ac254ec55">
   <rect x="43.011719" y="7.2" width="168.836444" height="62.822647"/>
  </clipPath>
  <clipPath id="p5688c8494b">
   <rect x="43.011719" y="70.022647" width="168.836444" height="62.822647"/>
  </clipPath>
  <clipPath id="p5b55f6989c">
   <rect x="43.011719" y="132.845294" width="168.836444" height="62.822647"/>
  </clipPath>
 </defs>
</svg>
