<?xml version="1.0" encoding="utf-8" standalone="no"?>
<!DOCTYPE svg PUBLIC "-//W3C//DTD SVG 1.1//EN"
  "http://www.w3.org/Graphics/SVG/1.1/DTD/svg11.dtd">
<svg xmlns:xlink="http://www.w3.org/1999/xlink" width="388.997344pt" height="266.540625pt" viewBox="0 0 388.997344 266.540625" xmlns="http://www.w3.org/2000/svg" version="1.1">
 <metadata>
  <rdf:RDF xmlns:dc="http://purl.org/dc/elements/1.1/" xmlns:cc="http://creativecommons.org/ns#" xmlns:rdf="http://www.w3.org/1999/02/22-rdf-syntax-ns#">
   <cc:Work>
    <dc:type rdf:resource="http://purl.org/dc/dcmitype/StillImage"/>
    <dc:date>2024-02-12T14:02:33.889136</dc:date>
    <dc:format>image/svg+xml</dc:format>
    <dc:creator>
     <cc:Agent>
      <dc:title>Matplotlib v3.8.2, https://matplotlib.org/</dc:title>
     </cc:Agent>
    </dc:creator>
   </cc:Work>
  </rdf:RDF>
 </metadata>
 <defs>
  <style type="text/css">*{stroke-linejoin: round; stroke-linecap: butt}</style>
 </defs>
 <g id="figure_1">
  <g id="patch_1">
   <path d="M 0 266.540625 
L 388.997344 266.540625 
L 388.997344 0 
L 0 0 
z
" style="fill: #ffffff"/>
  </g>
  <g id="axes_1">
   <g id="patch_2">
    <path d="M 56.717344 82.94 
L 381.797344 82.94 
L 381.797344 7.2 
L 56.717344 7.2 
z
" style="fill: #ffffff"/>
   </g>
   <g id="line2d_1">
    <path d="M 71.493707 44.822159 
L 74.072387 45.167068 
L 74.853805 45.486594 
L 76.025933 46.286303 
L 77.510627 47.352053 
L 79.933023 49.311504 
L 80.948867 49.801965 
L 82.199136 50.124608 
L 83.840114 50.293078 
L 86.028084 50.530185 
L 86.965786 51.094364 
L 90.716593 53.773502 
L 95.405102 57.486814 
L 97.202364 58.19443 
L 104.469552 60.5681 
L 106.97009 61.762674 
L 111.424174 64.231216 
L 112.98701 64.914594 
L 115.878257 65.81566 
L 119.550922 66.693225 
L 121.348184 67.207555 
L 123.692438 68.215186 
L 125.020849 68.674142 
L 127.20882 68.788175 
L 128.380947 68.525847 
L 129.39679 67.963369 
L 131.584761 66.366524 
L 133.147597 65.12258 
L 136.27327 62.275426 
L 141.430629 59.14521 
L 143.384175 57.456281 
L 145.025153 55.785578 
L 151.276498 48.919167 
L 152.761192 47.676537 
L 154.949163 46.506433 
L 158.856254 44.217903 
L 162.528919 41.001155 
L 164.248039 39.548849 
L 168.076987 36.293743 
L 169.327256 35.646211 
L 174.172049 33.420089 
L 175.891169 32.685839 
L 177.922856 31.558532 
L 185.190044 27.451858 
L 188.550142 26.267111 
L 196.989458 23.63874 
L 198.474153 22.933581 
L 200.818407 21.831218 
L 203.006378 20.848837 
L 204.647356 20.398403 
L 206.679043 20.078436 
L 216.212344 17.48466 
L 218.712882 16.640151 
L 220.041293 16.447508 
L 221.525987 16.283696 
L 225.276794 15.398593 
L 229.41831 14.971091 
L 230.356012 14.761181 
L 237.857626 13.30816 
L 240.436306 13.089733 
L 242.155426 12.921971 
L 243.561978 13.021101 
L 244.734105 13.346764 
L 245.984374 13.974004 
L 246.922076 14.696337 
L 252.313861 19.62129 
L 254.658116 21.951734 
L 256.064668 23.08427 
L 258.096355 24.50584 
L 260.206184 26.201844 
L 261.534595 27.692346 
L 262.941148 29.546293 
L 267.707798 35.732824 
L 268.958067 36.914088 
L 271.067896 38.518039 
L 274.427994 40.527664 
L 276.772249 42.036167 
L 278.256943 43.273448 
L 285.055281 49.798807 
L 286.539975 50.793108 
L 289.118655 52.196885 
L 295.448142 55.373884 
L 301.074352 59.112329 
L 304.825159 60.792814 
L 308.263399 61.845881 
L 311.154646 62.707445 
L 315.686871 64.735432 
L 318.734402 65.98236 
L 320.531663 66.716309 
L 322.328925 67.385827 
L 324.673179 68.028466 
L 331.471517 69.777267 
L 332.565503 70.24369 
L 334.987899 71.202772 
L 337.566579 71.93984 
L 340.067117 72.308876 
L 343.270931 72.682326 
L 346.005894 73.343677 
L 347.95944 73.80239 
L 349.444134 73.950027 
L 351.319538 74.438258 
L 354.679635 75.230073 
L 358.508584 75.593236 
L 364.838071 75.992217 
L 365.385064 75.870088 
L 365.385064 75.870088 
" clip-path="url(#pdc42a3bf1c)" style="fill: none; stroke: #000000; stroke-linecap: round"/>
   </g>
   <g id="matplotlib.axis_1">
    <g id="xtick_1">
     <g id="line2d_2">
      <path d="M 71.493707 82.94 
L 71.493707 7.2 
" clip-path="url(#pdc42a3bf1c)" style="fill: none; stroke: #b0b0b0; stroke-width: 0.8; stroke-linecap: round"/>
     </g>
     <g id="line2d_3"/>
    </g>
    <g id="xtick_2">
     <g id="line2d_4">
      <path d="M 110.792547 82.94 
L 110.792547 7.2 
" clip-path="url(#pdc42a3bf1c)" style="fill: none; stroke: #b0b0b0; stroke-width: 0.8; stroke-linecap: round"/>
     </g>
     <g id="line2d_5"/>
    </g>
    <g id="xtick_3">
     <g id="line2d_6">
      <path d="M 150.091386 82.94 
L 150.091386 7.2 
" clip-path="url(#pdc42a3bf1c)" style="fill: none; stroke: #b0b0b0; stroke-width: 0.8; stroke-linecap: round"/>
     </g>
     <g id="line2d_7"/>
    </g>
    <g id="xtick_4">
     <g id="line2d_8">
      <path d="M 189.390226 82.94 
L 189.390226 7.2 
" clip-path="url(#pdc42a3bf1c)" style="fill: none; stroke: #b0b0b0; stroke-width: 0.8; stroke-linecap: round"/>
     </g>
     <g id="line2d_9"/>
    </g>
    <g id="xtick_5">
     <g id="line2d_10">
      <path d="M 228.689065 82.94 
L 228.689065 7.2 
" clip-path="url(#pdc42a3bf1c)" style="fill: none; stroke: #b0b0b0; stroke-width: 0.8; stroke-linecap: round"/>
     </g>
     <g id="line2d_11"/>
    </g>
    <g id="xtick_6">
     <g id="line2d_12">
      <path d="M 267.987905 82.94 
L 267.987905 7.2 
" clip-path="url(#pdc42a3bf1c)" style="fill: none; stroke: #b0b0b0; stroke-width: 0.8; stroke-linecap: round"/>
     </g>
     <g id="line2d_13"/>
    </g>
    <g id="xtick_7">
     <g id="line2d_14">
      <path d="M 307.286744 82.94 
L 307.286744 7.2 
" clip-path="url(#pdc42a3bf1c)" style="fill: none; stroke: #b0b0b0; stroke-width: 0.8; stroke-linecap: round"/>
     </g>
     <g id="line2d_15"/>
    </g>
    <g id="xtick_8">
     <g id="line2d_16">
      <path d="M 346.585584 82.94 
L 346.585584 7.2 
" clip-path="url(#pdc42a3bf1c)" style="fill: none; stroke: #b0b0b0; stroke-width: 0.8; stroke-linecap: round"/>
     </g>
     <g id="line2d_17"/>
    </g>
   </g>
   <g id="matplotlib.axis_2">
    <g id="ytick_1">
     <g id="line2d_18">
      <path d="M 56.717344 70.85062 
L 381.797344 70.85062 
" clip-path="url(#pdc42a3bf1c)" style="fill: none; stroke: #b0b0b0; stroke-width: 0.8; stroke-linecap: round"/>
     </g>
     <g id="line2d_19"/>
     <g id="text_1">
      <!-- −5 -->
      <g style="fill: #262626" transform="translate(39.949375 74.269917) scale(0.09 -0.09)">
       <defs>
        <path id="DejaVuSerif-2212" d="M 678 2259 
L 4684 2259 
L 4684 1753 
L 678 1753 
L 678 2259 
z
" transform="scale(0.015625)"/>
        <path id="DejaVuSerif-35" d="M 3219 4666 
L 3219 4153 
L 1081 4153 
L 1081 2816 
Q 1244 2928 1461 2984 
Q 1678 3041 1947 3041 
Q 2703 3041 3140 2622 
Q 3578 2203 3578 1478 
Q 3578 738 3136 323 
Q 2694 -91 1894 -91 
Q 1572 -91 1234 -12 
Q 897 66 544 225 
L 544 1131 
L 897 1131 
Q 925 688 1179 453 
Q 1434 219 1894 219 
Q 2388 219 2653 544 
Q 2919 869 2919 1478 
Q 2919 2084 2655 2407 
Q 2391 2731 1894 2731 
Q 1613 2731 1398 2631 
Q 1184 2531 1019 2322 
L 750 2322 
L 750 4666 
L 3219 4666 
z
" transform="scale(0.015625)"/>
       </defs>
       <use xlink:href="#DejaVuSerif-2212"/>
       <use xlink:href="#DejaVuSerif-35" x="83.789062"/>
      </g>
     </g>
    </g>
    <g id="ytick_2">
     <g id="line2d_20">
      <path d="M 56.717344 45.26439 
L 381.797344 45.26439 
" clip-path="url(#pdc42a3bf1c)" style="fill: none; stroke: #b0b0b0; stroke-width: 0.8; stroke-linecap: round"/>
     </g>
     <g id="line2d_21"/>
     <g id="text_2">
      <!-- 0 -->
      <g style="fill: #262626" transform="translate(47.491094 48.683687) scale(0.09 -0.09)">
       <defs>
        <path id="DejaVuSerif-30" d="M 2034 219 
Q 2513 219 2750 744 
Q 2988 1269 2988 2328 
Q 2988 3391 2750 3916 
Q 2513 4441 2034 4441 
Q 1556 4441 1318 3916 
Q 1081 3391 1081 2328 
Q 1081 1269 1318 744 
Q 1556 219 2034 219 
z
M 2034 -91 
Q 1275 -91 848 546 
Q 422 1184 422 2328 
Q 422 3475 848 4112 
Q 1275 4750 2034 4750 
Q 2797 4750 3222 4112 
Q 3647 3475 3647 2328 
Q 3647 1184 3222 546 
Q 2797 -91 2034 -91 
z
" transform="scale(0.015625)"/>
       </defs>
       <use xlink:href="#DejaVuSerif-30"/>
      </g>
     </g>
    </g>
    <g id="ytick_3">
     <g id="line2d_22">
      <path d="M 56.717344 19.67816 
L 381.797344 19.67816 
" clip-path="url(#pdc42a3bf1c)" style="fill: none; stroke: #b0b0b0; stroke-width: 0.8; stroke-linecap: round"/>
     </g>
     <g id="line2d_23"/>
     <g id="text_3">
      <!-- 5 -->
      <g style="fill: #262626" transform="translate(47.491094 23.097457) scale(0.09 -0.09)">
       <use xlink:href="#DejaVuSerif-35"/>
      </g>
     </g>
    </g>
    <g id="text_4">
     <!-- $\beta$ $[deg]$ -->
     <g style="fill: #262626" transform="translate(34.059375 61.405) rotate(-90) scale(0.09 -0.09)">
      <defs>
       <path id="DejaVuSans-Oblique-3b2" d="M 872 216 
L 572 -1331 
L -6 -1331 
L 928 3478 
Q 1206 4903 2538 4903 
Q 3888 4903 3659 3700 
Q 3503 2844 2894 2531 
Q 3713 2250 3553 1416 
Q 3272 -69 1759 -66 
Q 1097 -63 872 216 
z
M 1019 966 
Q 1259 422 1875 425 
Q 2775 425 2966 1406 
Q 3138 2288 1675 2219 
L 1778 2750 
Q 2909 2731 3106 3750 
Q 3241 4438 2509 4434 
Q 1691 4434 1503 3459 
L 1019 966 
z
" transform="scale(0.015625)"/>
       <path id="DejaVuSerif-20" transform="scale(0.015625)"/>
       <path id="DejaVuSans-5b" d="M 550 4863 
L 1875 4863 
L 1875 4416 
L 1125 4416 
L 1125 -397 
L 1875 -397 
L 1875 -844 
L 550 -844 
L 550 4863 
z
" transform="scale(0.015625)"/>
       <path id="DejaVuSans-Oblique-64" d="M 2675 525 
Q 2444 222 2128 65 
Q 1813 -91 1428 -91 
Q 903 -91 598 267 
Q 294 625 294 1247 
Q 294 1766 478 2236 
Q 663 2706 1013 3078 
Q 1244 3325 1534 3454 
Q 1825 3584 2144 3584 
Q 2481 3584 2739 3421 
Q 2997 3259 3138 2956 
L 3513 4863 
L 4091 4863 
L 3144 0 
L 2566 0 
L 2675 525 
z
M 891 1350 
Q 891 897 1095 644 
Q 1300 391 1663 391 
Q 1931 391 2161 520 
Q 2391 650 2566 903 
Q 2750 1166 2856 1509 
Q 2963 1853 2963 2188 
Q 2963 2622 2758 2865 
Q 2553 3109 2194 3109 
Q 1922 3109 1687 2981 
Q 1453 2853 1288 2613 
Q 1106 2353 998 2009 
Q 891 1666 891 1350 
z
" transform="scale(0.015625)"/>
       <path id="DejaVuSans-Oblique-65" d="M 3078 2063 
Q 3088 2113 3092 2166 
Q 3097 2219 3097 2272 
Q 3097 2653 2873 2875 
Q 2650 3097 2266 3097 
Q 1838 3097 1509 2826 
Q 1181 2556 1013 2059 
L 3078 2063 
z
M 3578 1613 
L 903 1613 
Q 884 1494 878 1425 
Q 872 1356 872 1306 
Q 872 872 1139 634 
Q 1406 397 1894 397 
Q 2269 397 2603 481 
Q 2938 566 3225 728 
L 3116 159 
Q 2806 34 2476 -28 
Q 2147 -91 1806 -91 
Q 1078 -91 686 257 
Q 294 606 294 1247 
Q 294 1794 489 2264 
Q 684 2734 1063 3103 
Q 1306 3334 1642 3459 
Q 1978 3584 2356 3584 
Q 2950 3584 3301 3228 
Q 3653 2872 3653 2272 
Q 3653 2128 3634 1964 
Q 3616 1800 3578 1613 
z
" transform="scale(0.015625)"/>
       <path id="DejaVuSans-Oblique-67" d="M 3816 3500 
L 3219 434 
Q 3047 -456 2561 -893 
Q 2075 -1331 1253 -1331 
Q 950 -1331 690 -1286 
Q 431 -1241 206 -1147 
L 313 -588 
Q 525 -725 762 -790 
Q 1000 -856 1269 -856 
Q 1816 -856 2167 -557 
Q 2519 -259 2631 300 
L 2681 563 
Q 2441 288 2122 144 
Q 1803 0 1434 0 
Q 903 0 598 351 
Q 294 703 294 1319 
Q 294 1803 478 2267 
Q 663 2731 997 3091 
Q 1219 3328 1514 3456 
Q 1809 3584 2131 3584 
Q 2484 3584 2746 3420 
Q 3009 3256 3138 2956 
L 3238 3500 
L 3816 3500 
z
M 2950 2216 
Q 2950 2641 2750 2872 
Q 2550 3103 2181 3103 
Q 1953 3103 1747 3012 
Q 1541 2922 1394 2759 
Q 1156 2491 1023 2127 
Q 891 1763 891 1375 
Q 891 944 1092 712 
Q 1294 481 1672 481 
Q 2219 481 2584 976 
Q 2950 1472 2950 2216 
z
" transform="scale(0.015625)"/>
       <path id="DejaVuSans-5d" d="M 1947 4863 
L 1947 -844 
L 622 -844 
L 622 -397 
L 1369 -397 
L 1369 4416 
L 622 4416 
L 622 4863 
L 1947 4863 
z
" transform="scale(0.015625)"/>
      </defs>
      <use xlink:href="#DejaVuSans-Oblique-3b2" transform="translate(0 0.390625)"/>
      <use xlink:href="#DejaVuSerif-20" transform="translate(63.818359 0.390625)"/>
      <use xlink:href="#DejaVuSans-5b" transform="translate(95.605469 0.390625)"/>
      <use xlink:href="#DejaVuSans-Oblique-64" transform="translate(134.619141 0.390625)"/>
      <use xlink:href="#DejaVuSans-Oblique-65" transform="translate(198.095703 0.390625)"/>
      <use xlink:href="#DejaVuSans-Oblique-67" transform="translate(259.619141 0.390625)"/>
      <use xlink:href="#DejaVuSans-5d" transform="translate(323.095703 0.390625)"/>
     </g>
    </g>
   </g>
   <g id="line2d_24">
    <path d="M 71.493707 45.26439 
L 73.065661 45.371145 
L 74.637615 45.704542 
L 76.209568 46.287571 
L 78.253108 47.340387 
L 83.440555 50.240119 
L 97.430941 58.141165 
L 104.033146 61.524227 
L 109.534984 64.117379 
L 115.42981 66.674722 
L 121.717624 69.155772 
L 126.512083 70.831772 
L 128.005439 71.093879 
L 129.420197 71.129375 
L 130.834955 70.938582 
L 132.249713 70.524029 
L 133.664471 69.870887 
L 135.157827 68.918658 
L 136.965574 67.467424 
L 141.995825 63.093514 
L 155.200235 51.470721 
L 160.544878 47.129731 
L 165.496531 43.387241 
L 170.369587 39.96297 
L 175.635632 36.536557 
L 180.980274 33.328045 
L 186.639307 30.205367 
L 192.141145 27.440537 
L 198.03597 24.752167 
L 203.930796 22.322371 
L 209.747025 20.139691 
L 216.427827 17.874886 
L 223.737411 15.659108 
L 230.8898 13.714117 
L 238.513775 11.886332 
L 244.251406 10.697882 
L 245.744762 10.652956 
L 247.15952 10.82937 
L 248.574278 11.229201 
L 249.989036 11.856139 
L 251.482392 12.767615 
L 252.975748 13.946019 
L 255.097885 15.959833 
L 262.093079 22.931091 
L 271.053214 31.760897 
L 276.083466 36.409052 
L 280.877924 40.558002 
L 285.829578 44.558136 
L 290.545439 48.087758 
L 295.261299 51.370551 
L 300.763137 54.915239 
L 306.264974 58.163987 
L 311.924007 61.232885 
L 316.875661 63.674374 
L 322.534694 66.203872 
L 328.74391 68.721203 
L 335.031725 71.043617 
L 341.791125 73.301744 
L 348.864916 75.416068 
L 355.938707 77.29459 
L 362.855303 78.929072 
L 365.449027 79.497273 
L 365.449027 79.497273 
" clip-path="url(#pdc42a3bf1c)" style="fill: none; stroke: #0000ff; stroke-linecap: round"/>
   </g>
   <g id="line2d_25">
    <path d="M 71.493707 45.26439 
L 73.065661 45.371055 
L 74.637615 45.703808 
L 76.209568 46.285016 
L 78.253108 47.332522 
L 83.833543 50.420991 
L 94.837218 56.49983 
L 101.360825 59.789165 
L 107.334249 62.511721 
L 113.150477 64.927889 
L 118.966705 67.095353 
L 125.175922 69.169821 
L 128.241232 70.016847 
L 129.734587 70.160478 
L 131.227943 70.076019 
L 132.642702 69.763749 
L 134.136057 69.192182 
L 135.550816 68.415618 
L 137.044172 67.34279 
L 140.188079 64.615649 
L 147.576261 57.908899 
L 154.178466 52.035202 
L 159.44451 47.658515 
L 164.160371 44.01777 
L 168.954829 40.610238 
L 173.513495 37.633372 
L 178.307953 34.755521 
L 183.416802 31.944666 
L 188.525651 29.391669 
L 193.6345 27.069412 
L 198.979143 24.889263 
L 204.716773 22.797955 
L 210.847392 20.797094 
L 217.606792 18.837681 
L 225.073572 16.930586 
L 231.832972 15.42925 
L 240.164326 13.817333 
L 246.373543 12.795995 
L 247.866899 12.796988 
L 249.281657 13.010579 
L 250.696415 13.440241 
L 252.111174 14.097233 
L 253.604529 15.03244 
L 255.176483 16.288517 
L 257.220023 18.266004 
L 265.551377 26.710186 
L 272.310777 33.403775 
L 277.262431 37.988937 
L 282.056889 42.120984 
L 286.143969 45.383417 
L 290.938427 48.927262 
L 295.654288 52.115497 
L 300.684539 55.232753 
L 305.636193 58.027189 
L 310.745042 60.669306 
L 315.775293 63.005565 
L 320.805545 65.118149 
L 326.857566 67.398647 
L 332.83099 69.401904 
L 339.197402 71.28827 
L 345.563814 72.960383 
L 353.344984 74.771139 
L 360.57597 76.242209 
L 367.02098 77.406227 
L 367.02098 77.406227 
" clip-path="url(#pdc42a3bf1c)" style="fill: none; stroke: #008000; stroke-linecap: round"/>
   </g>
   <g id="line2d_26">
    <path d="M 71.493707 45.26439 
L 73.301454 45.374951 
L 74.873408 45.68386 
L 76.366763 46.199586 
L 78.567498 47.263331 
L 82.968969 49.628161 
L 96.330574 56.947093 
L 101.518021 59.449941 
L 106.548272 61.632253 
L 111.499926 63.543058 
L 116.687373 65.306173 
L 122.18921 66.938068 
L 126.040497 67.893719 
L 127.61245 68.030412 
L 129.105806 67.936863 
L 130.520564 67.630608 
L 131.935322 67.103584 
L 133.350081 66.334795 
L 134.843437 65.257043 
L 136.729781 63.572499 
L 141.288446 59.190643 
L 150.64157 50.139896 
L 155.121638 46.148775 
L 159.208717 42.797629 
L 163.217199 39.793512 
L 167.22568 37.064786 
L 171.234162 34.600675 
L 175.399839 32.303166 
L 179.644114 30.217938 
L 184.124181 28.268398 
L 188.761444 26.490414 
L 193.791696 24.804631 
L 198.900545 23.321674 
L 204.559578 21.914635 
L 210.847392 20.596762 
L 217.449597 19.441463 
L 224.366193 18.448152 
L 231.91157 17.592006 
L 238.828166 17.000618 
L 240.400119 17.129023 
L 241.972073 17.48475 
L 243.465429 18.047997 
L 244.958785 18.850913 
L 246.452141 19.906467 
L 247.945497 21.23641 
L 251.089404 24.520864 
L 264.686802 38.923613 
L 268.852479 42.857634 
L 272.782363 46.26781 
L 276.633649 49.321149 
L 280.484936 52.094595 
L 284.41482 54.654739 
L 288.501899 57.050306 
L 292.667576 59.230052 
L 296.990448 61.237451 
L 301.470516 63.072307 
L 306.42217 64.838581 
L 311.609616 66.453903 
L 317.032856 67.911007 
L 322.691889 69.202289 
L 328.979704 70.403789 
L 335.896299 71.494738 
L 343.913263 72.515591 
L 352.087421 73.348245 
L 352.087421 73.348245 
" clip-path="url(#pdc42a3bf1c)" style="fill: none; stroke: #ff0000; stroke-linecap: round"/>
   </g>
   <g id="patch_3">
    <path d="M 56.717344 82.94 
L 56.717344 7.2 
" style="fill: none; stroke: #000000; stroke-linejoin: miter; stroke-linecap: square"/>
   </g>
   <g id="patch_4">
    <path d="M 56.717344 82.94 
L 381.797344 82.94 
" style="fill: none; stroke: #000000; stroke-linejoin: miter; stroke-linecap: square"/>
   </g>
   <g id="legend_1">
    <g id="line2d_27">
     <path d="M 160.69125 30.059375 
L 169.69125 30.059375 
L 178.69125 30.059375 
" style="fill: none; stroke: #000000; stroke-linecap: round"/>
    </g>
    <g id="text_5">
     <!-- Experiment -->
     <g style="fill: #262626" transform="translate(185.89125 33.209375) scale(0.09 -0.09)">
      <defs>
       <path id="DejaVuSerif-45" d="M 353 0 
L 353 331 
L 947 331 
L 947 4331 
L 353 4331 
L 353 4666 
L 4109 4666 
L 4109 3628 
L 3725 3628 
L 3725 4281 
L 1581 4281 
L 1581 2719 
L 3109 2719 
L 3109 3303 
L 3494 3303 
L 3494 1753 
L 3109 1753 
L 3109 2338 
L 1581 2338 
L 1581 384 
L 3775 384 
L 3775 1038 
L 4159 1038 
L 4159 0 
L 353 0 
z
" transform="scale(0.015625)"/>
       <path id="DejaVuSerif-78" d="M 1863 2028 
L 2559 2988 
L 2113 2988 
L 2113 3322 
L 3391 3322 
L 3391 2988 
L 2950 2988 
L 2059 1759 
L 3097 331 
L 3531 331 
L 3531 0 
L 1997 0 
L 1997 331 
L 2419 331 
L 1697 1325 
L 972 331 
L 1403 331 
L 1403 0 
L 141 0 
L 141 331 
L 581 331 
L 1497 1594 
L 488 2988 
L 78 2988 
L 78 3322 
L 1563 3322 
L 1563 2988 
L 1166 2988 
L 1863 2028 
z
" transform="scale(0.015625)"/>
       <path id="DejaVuSerif-70" d="M 1313 1825 
L 1313 1497 
Q 1313 897 1542 583 
Q 1772 269 2209 269 
Q 2650 269 2876 622 
Q 3103 975 3103 1663 
Q 3103 2353 2876 2703 
Q 2650 3053 2209 3053 
Q 1772 3053 1542 2737 
Q 1313 2422 1313 1825 
z
M 738 2988 
L 184 2988 
L 184 3322 
L 1313 3322 
L 1313 2803 
Q 1481 3116 1742 3264 
Q 2003 3413 2388 3413 
Q 3000 3413 3387 2928 
Q 3775 2444 3775 1663 
Q 3775 881 3387 395 
Q 3000 -91 2388 -91 
Q 2003 -91 1742 57 
Q 1481 206 1313 519 
L 1313 -997 
L 1856 -997 
L 1856 -1331 
L 184 -1331 
L 184 -997 
L 738 -997 
L 738 2988 
z
" transform="scale(0.015625)"/>
       <path id="DejaVuSerif-65" d="M 3469 1600 
L 991 1600 
L 991 1575 
Q 991 903 1244 561 
Q 1497 219 1991 219 
Q 2369 219 2611 417 
Q 2853 616 2950 1006 
L 3413 1006 
Q 3275 459 2904 184 
Q 2534 -91 1931 -91 
Q 1203 -91 761 389 
Q 319 869 319 1663 
Q 319 2450 753 2931 
Q 1188 3413 1894 3413 
Q 2647 3413 3050 2948 
Q 3453 2484 3469 1600 
z
M 2791 1931 
Q 2772 2513 2545 2808 
Q 2319 3103 1894 3103 
Q 1497 3103 1269 2806 
Q 1041 2509 991 1931 
L 2791 1931 
z
" transform="scale(0.015625)"/>
       <path id="DejaVuSerif-72" d="M 3059 3328 
L 3059 2497 
L 2728 2497 
Q 2713 2744 2591 2866 
Q 2469 2988 2234 2988 
Q 1809 2988 1582 2694 
Q 1356 2400 1356 1850 
L 1356 331 
L 2022 331 
L 2022 0 
L 263 0 
L 263 331 
L 781 331 
L 781 2994 
L 231 2994 
L 231 3322 
L 1356 3322 
L 1356 2731 
Q 1525 3078 1790 3245 
Q 2056 3413 2438 3413 
Q 2578 3413 2733 3391 
Q 2888 3369 3059 3328 
z
" transform="scale(0.015625)"/>
       <path id="DejaVuSerif-69" d="M 622 4353 
Q 622 4497 726 4603 
Q 831 4709 978 4709 
Q 1122 4709 1226 4603 
Q 1331 4497 1331 4353 
Q 1331 4206 1228 4103 
Q 1125 4000 978 4000 
Q 831 4000 726 4103 
Q 622 4206 622 4353 
z
M 1356 331 
L 1900 331 
L 1900 0 
L 231 0 
L 231 331 
L 781 331 
L 781 2988 
L 231 2988 
L 231 3322 
L 1356 3322 
L 1356 331 
z
" transform="scale(0.015625)"/>
       <path id="DejaVuSerif-6d" d="M 3316 2675 
Q 3481 3041 3739 3227 
Q 3997 3413 4341 3413 
Q 4863 3413 5119 3089 
Q 5375 2766 5375 2113 
L 5375 331 
L 5894 331 
L 5894 0 
L 4300 0 
L 4300 331 
L 4800 331 
L 4800 2047 
Q 4800 2556 4650 2772 
Q 4500 2988 4153 2988 
Q 3769 2988 3567 2697 
Q 3366 2406 3366 1850 
L 3366 331 
L 3866 331 
L 3866 0 
L 2291 0 
L 2291 331 
L 2791 331 
L 2791 2069 
Q 2791 2566 2641 2777 
Q 2491 2988 2144 2988 
Q 1759 2988 1557 2697 
Q 1356 2406 1356 1850 
L 1356 331 
L 1856 331 
L 1856 0 
L 263 0 
L 263 331 
L 781 331 
L 781 2994 
L 231 2994 
L 231 3322 
L 1356 3322 
L 1356 2731 
Q 1516 3063 1762 3238 
Q 2009 3413 2322 3413 
Q 2709 3413 2968 3220 
Q 3228 3028 3316 2675 
z
" transform="scale(0.015625)"/>
       <path id="DejaVuSerif-6e" d="M 263 0 
L 263 331 
L 781 331 
L 781 2988 
L 231 2988 
L 231 3322 
L 1356 3322 
L 1356 2731 
Q 1516 3069 1770 3241 
Q 2025 3413 2363 3413 
Q 2913 3413 3172 3097 
Q 3431 2781 3431 2113 
L 3431 331 
L 3944 331 
L 3944 0 
L 2356 0 
L 2356 331 
L 2853 331 
L 2853 1931 
Q 2853 2541 2703 2767 
Q 2553 2994 2175 2994 
Q 1775 2994 1565 2701 
Q 1356 2409 1356 1850 
L 1356 331 
L 1856 331 
L 1856 0 
L 263 0 
z
" transform="scale(0.015625)"/>
       <path id="DejaVuSerif-74" d="M 691 2988 
L 184 2988 
L 184 3322 
L 691 3322 
L 691 4353 
L 1269 4353 
L 1269 3322 
L 2350 3322 
L 2350 2988 
L 1269 2988 
L 1269 878 
Q 1269 456 1350 337 
Q 1431 219 1650 219 
Q 1875 219 1978 351 
Q 2081 484 2088 781 
L 2522 781 
Q 2497 328 2275 118 
Q 2053 -91 1600 -91 
Q 1103 -91 897 129 
Q 691 350 691 878 
L 691 2988 
z
" transform="scale(0.015625)"/>
      </defs>
      <use xlink:href="#DejaVuSerif-45"/>
      <use xlink:href="#DejaVuSerif-78" x="72.998047"/>
      <use xlink:href="#DejaVuSerif-70" x="129.394531"/>
      <use xlink:href="#DejaVuSerif-65" x="193.408203"/>
      <use xlink:href="#DejaVuSerif-72" x="252.587891"/>
      <use xlink:href="#DejaVuSerif-69" x="300.390625"/>
      <use xlink:href="#DejaVuSerif-6d" x="332.373047"/>
      <use xlink:href="#DejaVuSerif-65" x="427.197266"/>
      <use xlink:href="#DejaVuSerif-6e" x="486.376953"/>
      <use xlink:href="#DejaVuSerif-74" x="550.78125"/>
     </g>
    </g>
    <g id="line2d_28">
     <path d="M 160.69125 43.269687 
L 169.69125 43.269687 
L 178.69125 43.269687 
" style="fill: none; stroke: #0000ff; stroke-linecap: round"/>
    </g>
    <g id="text_6">
     <!-- Reference model -->
     <g style="fill: #262626" transform="translate(185.89125 46.419687) scale(0.09 -0.09)">
      <defs>
       <path id="DejaVuSerif-52" d="M 3066 2316 
Q 3284 2256 3442 2114 
Q 3600 1972 3725 1716 
L 4403 331 
L 4972 331 
L 4972 0 
L 3872 0 
L 3144 1484 
Q 2934 1916 2759 2042 
Q 2584 2169 2278 2169 
L 1581 2169 
L 1581 331 
L 2241 331 
L 2241 0 
L 353 0 
L 353 331 
L 947 331 
L 947 4331 
L 353 4331 
L 353 4666 
L 2719 4666 
Q 3400 4666 3770 4341 
Q 4141 4016 4141 3419 
Q 4141 2938 3870 2661 
Q 3600 2384 3066 2316 
z
M 1581 2503 
L 2503 2503 
Q 2975 2503 3200 2726 
Q 3425 2950 3425 3419 
Q 3425 3888 3200 4109 
Q 2975 4331 2503 4331 
L 1581 4331 
L 1581 2503 
z
" transform="scale(0.015625)"/>
       <path id="DejaVuSerif-66" d="M 2753 4078 
L 2450 4078 
Q 2447 4313 2317 4434 
Q 2188 4556 1941 4556 
Q 1619 4556 1487 4379 
Q 1356 4203 1356 3750 
L 1356 3322 
L 2284 3322 
L 2284 2988 
L 1356 2988 
L 1356 331 
L 2094 331 
L 2094 0 
L 231 0 
L 231 331 
L 781 331 
L 781 2988 
L 231 2988 
L 231 3322 
L 781 3322 
L 781 3738 
Q 781 4294 1070 4578 
Q 1359 4863 1919 4863 
Q 2128 4863 2337 4825 
Q 2547 4788 2753 4709 
L 2753 4078 
z
" transform="scale(0.015625)"/>
       <path id="DejaVuSerif-63" d="M 3291 997 
Q 3169 466 2822 187 
Q 2475 -91 1925 -91 
Q 1200 -91 759 389 
Q 319 869 319 1663 
Q 319 2459 759 2936 
Q 1200 3413 1925 3413 
Q 2241 3413 2553 3339 
Q 2866 3266 3181 3116 
L 3181 2266 
L 2847 2266 
Q 2781 2703 2561 2903 
Q 2341 3103 1931 3103 
Q 1466 3103 1228 2742 
Q 991 2381 991 1663 
Q 991 944 1227 581 
Q 1463 219 1931 219 
Q 2303 219 2525 412 
Q 2747 606 2828 997 
L 3291 997 
z
" transform="scale(0.015625)"/>
       <path id="DejaVuSerif-6f" d="M 1925 219 
Q 2388 219 2623 584 
Q 2859 950 2859 1663 
Q 2859 2375 2623 2739 
Q 2388 3103 1925 3103 
Q 1463 3103 1227 2739 
Q 991 2375 991 1663 
Q 991 950 1228 584 
Q 1466 219 1925 219 
z
M 1925 -91 
Q 1200 -91 759 389 
Q 319 869 319 1663 
Q 319 2456 758 2934 
Q 1197 3413 1925 3413 
Q 2653 3413 3092 2934 
Q 3531 2456 3531 1663 
Q 3531 869 3092 389 
Q 2653 -91 1925 -91 
z
" transform="scale(0.015625)"/>
       <path id="DejaVuSerif-64" d="M 3359 331 
L 3909 331 
L 3909 0 
L 2784 0 
L 2784 519 
Q 2616 206 2355 57 
Q 2094 -91 1709 -91 
Q 1097 -91 708 395 
Q 319 881 319 1663 
Q 319 2444 706 2928 
Q 1094 3413 1709 3413 
Q 2094 3413 2355 3264 
Q 2616 3116 2784 2803 
L 2784 4531 
L 2241 4531 
L 2241 4863 
L 3359 4863 
L 3359 331 
z
M 2784 1497 
L 2784 1825 
Q 2784 2422 2554 2737 
Q 2325 3053 1888 3053 
Q 1444 3053 1217 2703 
Q 991 2353 991 1663 
Q 991 975 1217 622 
Q 1444 269 1888 269 
Q 2325 269 2554 583 
Q 2784 897 2784 1497 
z
" transform="scale(0.015625)"/>
       <path id="DejaVuSerif-6c" d="M 1313 331 
L 1856 331 
L 1856 0 
L 184 0 
L 184 331 
L 738 331 
L 738 4531 
L 184 4531 
L 184 4863 
L 1313 4863 
L 1313 331 
z
" transform="scale(0.015625)"/>
      </defs>
      <use xlink:href="#DejaVuSerif-52"/>
      <use xlink:href="#DejaVuSerif-65" x="75.292969"/>
      <use xlink:href="#DejaVuSerif-66" x="134.472656"/>
      <use xlink:href="#DejaVuSerif-65" x="171.484375"/>
      <use xlink:href="#DejaVuSerif-72" x="230.664062"/>
      <use xlink:href="#DejaVuSerif-65" x="278.466797"/>
      <use xlink:href="#DejaVuSerif-6e" x="337.646484"/>
      <use xlink:href="#DejaVuSerif-63" x="402.050781"/>
      <use xlink:href="#DejaVuSerif-65" x="458.056641"/>
      <use xlink:href="#DejaVuSerif-20" x="517.236328"/>
      <use xlink:href="#DejaVuSerif-6d" x="549.023438"/>
      <use xlink:href="#DejaVuSerif-6f" x="643.847656"/>
      <use xlink:href="#DejaVuSerif-64" x="704.052734"/>
      <use xlink:href="#DejaVuSerif-65" x="768.066406"/>
      <use xlink:href="#DejaVuSerif-6c" x="827.246094"/>
     </g>
    </g>
    <g id="line2d_29">
     <path d="M 160.69125 56.48 
L 169.69125 56.48 
L 178.69125 56.48 
" style="fill: none; stroke: #008000; stroke-linecap: round"/>
    </g>
    <g id="text_7">
     <!-- Physics informed ID -->
     <g style="fill: #262626" transform="translate(185.89125 59.63) scale(0.09 -0.09)">
      <defs>
       <path id="DejaVuSerif-50" d="M 1581 2375 
L 2406 2375 
Q 2872 2375 3115 2626 
Q 3359 2878 3359 3353 
Q 3359 3831 3115 4081 
Q 2872 4331 2406 4331 
L 1581 4331 
L 1581 2375 
z
M 353 0 
L 353 331 
L 947 331 
L 947 4331 
L 353 4331 
L 353 4666 
L 2559 4666 
Q 3259 4666 3668 4311 
Q 4078 3956 4078 3353 
Q 4078 2753 3668 2397 
Q 3259 2041 2559 2041 
L 1581 2041 
L 1581 331 
L 2303 331 
L 2303 0 
L 353 0 
z
" transform="scale(0.015625)"/>
       <path id="DejaVuSerif-68" d="M 263 0 
L 263 331 
L 781 331 
L 781 4531 
L 231 4531 
L 231 4863 
L 1356 4863 
L 1356 2731 
Q 1516 3069 1770 3241 
Q 2025 3413 2363 3413 
Q 2913 3413 3172 3097 
Q 3431 2781 3431 2113 
L 3431 331 
L 3944 331 
L 3944 0 
L 2356 0 
L 2356 331 
L 2853 331 
L 2853 1931 
Q 2853 2541 2704 2764 
Q 2556 2988 2175 2988 
Q 1775 2988 1565 2697 
Q 1356 2406 1356 1850 
L 1356 331 
L 1856 331 
L 1856 0 
L 263 0 
z
" transform="scale(0.015625)"/>
       <path id="DejaVuSerif-79" d="M 1381 -609 
L 1600 -56 
L 359 2988 
L -19 2988 
L -19 3322 
L 1509 3322 
L 1509 2988 
L 978 2988 
L 1913 703 
L 2847 2988 
L 2350 2988 
L 2350 3322 
L 3597 3322 
L 3597 2988 
L 3225 2988 
L 1703 -750 
Q 1547 -1138 1356 -1280 
Q 1166 -1422 819 -1422 
Q 672 -1422 517 -1397 
Q 363 -1372 206 -1325 
L 206 -691 
L 500 -691 
Q 519 -903 608 -995 
Q 697 -1088 884 -1088 
Q 1056 -1088 1161 -992 
Q 1266 -897 1381 -609 
z
" transform="scale(0.015625)"/>
       <path id="DejaVuSerif-73" d="M 359 184 
L 359 959 
L 691 959 
Q 703 588 923 403 
Q 1144 219 1575 219 
Q 1963 219 2166 364 
Q 2369 509 2369 788 
Q 2369 1006 2220 1140 
Q 2072 1275 1594 1428 
L 1178 1569 
Q 750 1706 558 1912 
Q 366 2119 366 2438 
Q 366 2894 700 3153 
Q 1034 3413 1625 3413 
Q 1888 3413 2178 3344 
Q 2469 3275 2778 3144 
L 2778 2419 
L 2447 2419 
Q 2434 2741 2221 2922 
Q 2009 3103 1644 3103 
Q 1281 3103 1095 2975 
Q 909 2847 909 2591 
Q 909 2381 1050 2254 
Q 1191 2128 1613 1997 
L 2069 1856 
Q 2541 1709 2748 1489 
Q 2956 1269 2956 922 
Q 2956 450 2595 179 
Q 2234 -91 1600 -91 
Q 1278 -91 972 -22 
Q 666 47 359 184 
z
" transform="scale(0.015625)"/>
       <path id="DejaVuSerif-49" d="M 1581 331 
L 2175 331 
L 2175 0 
L 353 0 
L 353 331 
L 947 331 
L 947 4331 
L 353 4331 
L 353 4666 
L 2175 4666 
L 2175 4331 
L 1581 4331 
L 1581 331 
z
" transform="scale(0.015625)"/>
       <path id="DejaVuSerif-44" d="M 1581 331 
L 2163 331 
Q 3072 331 3558 850 
Q 4044 1369 4044 2338 
Q 4044 3306 3559 3818 
Q 3075 4331 2163 4331 
L 1581 4331 
L 1581 331 
z
M 353 0 
L 353 331 
L 947 331 
L 947 4331 
L 353 4331 
L 353 4666 
L 2209 4666 
Q 3416 4666 4089 4050 
Q 4763 3434 4763 2338 
Q 4763 1238 4088 619 
Q 3413 0 2209 0 
L 353 0 
z
" transform="scale(0.015625)"/>
      </defs>
      <use xlink:href="#DejaVuSerif-50"/>
      <use xlink:href="#DejaVuSerif-68" x="67.285156"/>
      <use xlink:href="#DejaVuSerif-79" x="131.689453"/>
      <use xlink:href="#DejaVuSerif-73" x="188.183594"/>
      <use xlink:href="#DejaVuSerif-69" x="239.501953"/>
      <use xlink:href="#DejaVuSerif-63" x="271.484375"/>
      <use xlink:href="#DejaVuSerif-73" x="327.490234"/>
      <use xlink:href="#DejaVuSerif-20" x="378.808594"/>
      <use xlink:href="#DejaVuSerif-69" x="410.595703"/>
      <use xlink:href="#DejaVuSerif-6e" x="442.578125"/>
      <use xlink:href="#DejaVuSerif-66" x="506.982422"/>
      <use xlink:href="#DejaVuSerif-6f" x="543.994141"/>
      <use xlink:href="#DejaVuSerif-72" x="604.199219"/>
      <use xlink:href="#DejaVuSerif-6d" x="652.001953"/>
      <use xlink:href="#DejaVuSerif-65" x="746.826172"/>
      <use xlink:href="#DejaVuSerif-64" x="806.005859"/>
      <use xlink:href="#DejaVuSerif-20" x="870.019531"/>
      <use xlink:href="#DejaVuSerif-49" x="901.806641"/>
      <use xlink:href="#DejaVuSerif-44" x="941.308594"/>
     </g>
    </g>
    <g id="line2d_30">
     <path d="M 160.69125 69.818281 
L 169.69125 69.818281 
L 178.69125 69.818281 
" style="fill: none; stroke: #ff0000; stroke-linecap: round"/>
    </g>
    <g id="text_8">
     <!-- Abkowitz ID -->
     <g style="fill: #262626" transform="translate(185.89125 72.968281) scale(0.09 -0.09)">
      <defs>
       <path id="DejaVuSerif-41" d="M 1281 1691 
L 2994 1691 
L 2138 3909 
L 1281 1691 
z
M -38 0 
L -38 331 
L 372 331 
L 2034 4666 
L 2559 4666 
L 4225 331 
L 4684 331 
L 4684 0 
L 2988 0 
L 2988 331 
L 3506 331 
L 3116 1356 
L 1153 1356 
L 763 331 
L 1275 331 
L 1275 0 
L -38 0 
z
" transform="scale(0.015625)"/>
       <path id="DejaVuSerif-62" d="M 738 331 
L 738 4531 
L 184 4531 
L 184 4863 
L 1313 4863 
L 1313 2803 
Q 1481 3116 1742 3264 
Q 2003 3413 2388 3413 
Q 3000 3413 3387 2928 
Q 3775 2444 3775 1663 
Q 3775 881 3387 395 
Q 3000 -91 2388 -91 
Q 2003 -91 1742 57 
Q 1481 206 1313 519 
L 1313 0 
L 184 0 
L 184 331 
L 738 331 
z
M 1313 1497 
Q 1313 897 1542 583 
Q 1772 269 2209 269 
Q 2650 269 2876 622 
Q 3103 975 3103 1663 
Q 3103 2353 2876 2703 
Q 2650 3053 2209 3053 
Q 1772 3053 1542 2737 
Q 1313 2422 1313 1825 
L 1313 1497 
z
" transform="scale(0.015625)"/>
       <path id="DejaVuSerif-6b" d="M 1831 0 
L 219 0 
L 219 331 
L 738 331 
L 738 4531 
L 184 4531 
L 184 4863 
L 1313 4863 
L 1313 1697 
L 2713 2988 
L 2234 2988 
L 2234 3322 
L 3738 3322 
L 3738 2988 
L 3169 2988 
L 2181 2075 
L 3444 331 
L 3922 331 
L 3922 0 
L 2284 0 
L 2284 331 
L 2759 331 
L 1766 1697 
L 1313 1275 
L 1313 331 
L 1831 331 
L 1831 0 
z
" transform="scale(0.015625)"/>
       <path id="DejaVuSerif-77" d="M 3072 3322 
L 3922 728 
L 4672 2988 
L 4191 2988 
L 4191 3322 
L 5394 3322 
L 5394 2988 
L 5025 2988 
L 4038 0 
L 3559 0 
L 2741 2484 
L 1919 0 
L 1459 0 
L 475 2988 
L 103 2988 
L 103 3322 
L 1606 3322 
L 1606 2988 
L 1069 2988 
L 1813 728 
L 2669 3322 
L 3072 3322 
z
" transform="scale(0.015625)"/>
       <path id="DejaVuSerif-7a" d="M 256 0 
L 256 269 
L 2338 2988 
L 691 2988 
L 691 2413 
L 359 2413 
L 359 3322 
L 3078 3322 
L 3078 3053 
L 997 331 
L 2803 331 
L 2803 934 
L 3138 934 
L 3138 0 
L 256 0 
z
" transform="scale(0.015625)"/>
      </defs>
      <use xlink:href="#DejaVuSerif-41"/>
      <use xlink:href="#DejaVuSerif-62" x="72.216797"/>
      <use xlink:href="#DejaVuSerif-6b" x="136.230469"/>
      <use xlink:href="#DejaVuSerif-6f" x="196.826172"/>
      <use xlink:href="#DejaVuSerif-77" x="257.03125"/>
      <use xlink:href="#DejaVuSerif-69" x="342.626953"/>
      <use xlink:href="#DejaVuSerif-74" x="374.609375"/>
      <use xlink:href="#DejaVuSerif-7a" x="414.794922"/>
      <use xlink:href="#DejaVuSerif-20" x="467.480469"/>
      <use xlink:href="#DejaVuSerif-49" x="499.267578"/>
      <use xlink:href="#DejaVuSerif-44" x="538.769531"/>
     </g>
    </g>
   </g>
  </g>
  <g id="axes_2">
   <g id="patch_5">
    <path d="M 56.717344 158.68 
L 381.797344 158.68 
L 381.797344 82.94 
L 56.717344 82.94 
z
" style="fill: #ffffff"/>
   </g>
   <g id="line2d_31">
    <path d="M 71.493707 121.208996 
L 74.697522 121.35079 
L 77.041776 121.692661 
L 79.854881 122.360581 
L 83.058696 123.364598 
L 85.637375 124.337146 
L 88.450481 125.64274 
L 92.357571 127.628549 
L 99.312193 131.591027 
L 105.563538 135.586998 
L 113.377719 140.926415 
L 128.224663 151.774379 
L 130.490776 153.084881 
L 132.522463 154.010991 
L 134.241583 154.577814 
L 136.116986 154.97186 
L 138.539382 155.220794 
L 140.18036 155.203305 
L 142.993466 154.981377 
L 145.884713 154.459783 
L 149.557378 153.515314 
L 154.558454 151.779934 
L 160.575373 149.081208 
L 165.342024 146.617068 
L 170.3431 143.752135 
L 175.344176 140.723187 
L 185.971463 133.984152 
L 195.739189 127.496988 
L 201.912392 123.11407 
L 210.742417 116.632354 
L 222.463689 107.823465 
L 244.655964 91.032075 
L 247.625352 89.2381 
L 249.969607 88.047343 
L 251.688727 87.430584 
L 253.56413 86.985757 
L 255.673959 86.719842 
L 257.705646 86.654301 
L 260.206184 86.790405 
L 262.62858 87.166926 
L 266.223104 87.924729 
L 268.801784 88.639638 
L 274.896845 90.706578 
L 279.507212 92.744797 
L 285.524131 95.804574 
L 288.649804 97.514039 
L 294.823007 101.218934 
L 314.124035 113.542191 
L 327.486285 122.868355 
L 349.522276 139.063491 
L 363.431518 149.337709 
L 365.385064 150.749833 
L 365.385064 150.749833 
" clip-path="url(#p520b0f1109)" style="fill: none; stroke: #000000; stroke-linecap: round"/>
   </g>
   <g id="line2d_32">
    <path d="M 71.493707 121.612867 
L 72.118842 125.046599 
L 73.447253 131.922585 
L 76.651067 148.33269 
L 76.885492 148.262375 
L 77.19806 148.196321 
L 85.559234 148.193125 
L 89.622608 148.193125 
L 123.614296 148.195255 
L 123.77058 147.504887 
L 124.395714 144.145732 
L 134.241583 93.627369 
L 134.632292 93.725385 
L 136.898404 93.741365 
L 241.452149 93.739235 
L 241.608433 94.456238 
L 242.077284 97.005701 
L 243.952687 106.734785 
L 244.030829 106.734785 
L 245.984374 116.870845 
L 252.079436 148.299663 
L 252.235719 148.310317 
L 252.70457 148.20804 
L 254.970683 148.193125 
L 362.259391 148.19419 
L 362.415675 147.515541 
L 362.884526 144.902154 
L 365.385064 132.367916 
L 365.385064 132.367916 
" clip-path="url(#p520b0f1109)" style="fill: none; stroke-dasharray: 5.55,2.4; stroke-dashoffset: 0; stroke: #808080; stroke-width: 1.5"/>
   </g>
   <g id="matplotlib.axis_3">
    <g id="xtick_9">
     <g id="line2d_33">
      <path d="M 71.493707 158.68 
L 71.493707 82.94 
" clip-path="url(#p520b0f1109)" style="fill: none; stroke: #b0b0b0; stroke-width: 0.8; stroke-linecap: round"/>
     </g>
     <g id="line2d_34"/>
    </g>
    <g id="xtick_10">
     <g id="line2d_35">
      <path d="M 110.792547 158.68 
L 110.792547 82.94 
" clip-path="url(#p520b0f1109)" style="fill: none; stroke: #b0b0b0; stroke-width: 0.8; stroke-linecap: round"/>
     </g>
     <g id="line2d_36"/>
    </g>
    <g id="xtick_11">
     <g id="line2d_37">
      <path d="M 150.091386 158.68 
L 150.091386 82.94 
" clip-path="url(#p520b0f1109)" style="fill: none; stroke: #b0b0b0; stroke-width: 0.8; stroke-linecap: round"/>
     </g>
     <g id="line2d_38"/>
    </g>
    <g id="xtick_12">
     <g id="line2d_39">
      <path d="M 189.390226 158.68 
L 189.390226 82.94 
" clip-path="url(#p520b0f1109)" style="fill: none; stroke: #b0b0b0; stroke-width: 0.8; stroke-linecap: round"/>
     </g>
     <g id="line2d_40"/>
    </g>
    <g id="xtick_13">
     <g id="line2d_41">
      <path d="M 228.689065 158.68 
L 228.689065 82.94 
" clip-path="url(#p520b0f1109)" style="fill: none; stroke: #b0b0b0; stroke-width: 0.8; stroke-linecap: round"/>
     </g>
     <g id="line2d_42"/>
    </g>
    <g id="xtick_14">
     <g id="line2d_43">
      <path d="M 267.987905 158.68 
L 267.987905 82.94 
" clip-path="url(#p520b0f1109)" style="fill: none; stroke: #b0b0b0; stroke-width: 0.8; stroke-linecap: round"/>
     </g>
     <g id="line2d_44"/>
    </g>
    <g id="xtick_15">
     <g id="line2d_45">
      <path d="M 307.286744 158.68 
L 307.286744 82.94 
" clip-path="url(#p520b0f1109)" style="fill: none; stroke: #b0b0b0; stroke-width: 0.8; stroke-linecap: round"/>
     </g>
     <g id="line2d_46"/>
    </g>
    <g id="xtick_16">
     <g id="line2d_47">
      <path d="M 346.585584 158.68 
L 346.585584 82.94 
" clip-path="url(#p520b0f1109)" style="fill: none; stroke: #b0b0b0; stroke-width: 0.8; stroke-linecap: round"/>
     </g>
     <g id="line2d_48"/>
    </g>
   </g>
   <g id="matplotlib.axis_4">
    <g id="ytick_4">
     <g id="line2d_49">
      <path d="M 56.717344 148.193741 
L 381.797344 148.193741 
" clip-path="url(#p520b0f1109)" style="fill: none; stroke: #b0b0b0; stroke-width: 0.8; stroke-linecap: round"/>
     </g>
     <g id="line2d_50"/>
     <g id="text_9">
      <!-- −10 -->
      <g style="fill: #262626" transform="translate(34.223125 151.613038) scale(0.09 -0.09)">
       <defs>
        <path id="DejaVuSerif-31" d="M 909 0 
L 909 331 
L 1722 331 
L 1722 4213 
L 781 3603 
L 781 4013 
L 1919 4750 
L 2350 4750 
L 2350 331 
L 3163 331 
L 3163 0 
L 909 0 
z
" transform="scale(0.015625)"/>
       </defs>
       <use xlink:href="#DejaVuSerif-2212"/>
       <use xlink:href="#DejaVuSerif-31" x="83.789062"/>
       <use xlink:href="#DejaVuSerif-30" x="147.412109"/>
      </g>
     </g>
    </g>
    <g id="ytick_5">
     <g id="line2d_51">
      <path d="M 56.717344 120.967245 
L 381.797344 120.967245 
" clip-path="url(#p520b0f1109)" style="fill: none; stroke: #b0b0b0; stroke-width: 0.8; stroke-linecap: round"/>
     </g>
     <g id="line2d_52"/>
     <g id="text_10">
      <!-- 0 -->
      <g style="fill: #262626" transform="translate(47.491094 124.386542) scale(0.09 -0.09)">
       <use xlink:href="#DejaVuSerif-30"/>
      </g>
     </g>
    </g>
    <g id="ytick_6">
     <g id="line2d_53">
      <path d="M 56.717344 93.740749 
L 381.797344 93.740749 
" clip-path="url(#p520b0f1109)" style="fill: none; stroke: #b0b0b0; stroke-width: 0.8; stroke-linecap: round"/>
     </g>
     <g id="line2d_54"/>
     <g id="text_11">
      <!-- 10 -->
      <g style="fill: #262626" transform="translate(41.764844 97.160046) scale(0.09 -0.09)">
       <use xlink:href="#DejaVuSerif-31"/>
       <use xlink:href="#DejaVuSerif-30" x="63.623047"/>
      </g>
     </g>
    </g>
    <g id="text_12">
     <!-- $\psi$ $[deg]$ -->
     <g style="fill: #262626" transform="translate(28.333125 137.235) rotate(-90) scale(0.09 -0.09)">
      <defs>
       <path id="DejaVuSans-Oblique-3c8" d="M 1591 -78 
Q 891 38 616 341 
Q 278 713 425 1472 
L 819 3500 
L 1400 3500 
L 1009 1494 
Q 900 922 1119 684 
Q 1313 478 1691 434 
L 2284 3500 
L 2856 3500 
L 2263 438 
Q 2681 481 2928 688 
Q 3247 950 3353 1497 
L 3741 3500 
L 4322 3500 
L 3928 1475 
Q 3775 688 3300 344 
Q 2872 34 2163 -75 
L 1919 -1331 
L 1347 -1331 
L 1591 -78 
z
" transform="scale(0.015625)"/>
      </defs>
      <use xlink:href="#DejaVuSans-Oblique-3c8" transform="translate(0 0.015625)"/>
      <use xlink:href="#DejaVuSerif-20" transform="translate(65.966797 0.015625)"/>
      <use xlink:href="#DejaVuSans-5b" transform="translate(97.753906 0.015625)"/>
      <use xlink:href="#DejaVuSans-Oblique-64" transform="translate(136.767578 0.015625)"/>
      <use xlink:href="#DejaVuSans-Oblique-65" transform="translate(200.244141 0.015625)"/>
      <use xlink:href="#DejaVuSans-Oblique-67" transform="translate(261.767578 0.015625)"/>
      <use xlink:href="#DejaVuSans-5d" transform="translate(325.244141 0.015625)"/>
     </g>
    </g>
   </g>
   <g id="line2d_55">
    <path d="M 71.493707 120.967245 
L 75.502189 121.073224 
L 77.781522 121.359493 
L 80.139452 121.884428 
L 82.890371 122.734464 
L 86.034278 123.951176 
L 89.649771 125.599936 
L 93.894046 127.791111 
L 99.002895 130.69208 
L 104.976319 134.345745 
L 112.128707 138.997919 
L 120.381464 144.643466 
L 131.149346 152.030625 
L 133.350081 153.173104 
L 135.315023 153.943904 
L 137.122769 154.411597 
L 139.009114 154.668317 
L 141.131251 154.725184 
L 143.410584 154.562634 
L 146.004307 154.149237 
L 148.912421 153.451545 
L 152.213524 152.420413 
L 155.986212 150.99822 
L 160.309085 149.120808 
L 165.260738 146.719597 
L 170.919771 143.726731 
L 177.286183 140.105917 
L 184.281377 135.867704 
L 191.826754 131.030025 
L 200.629694 125.117192 
L 210.061415 118.524119 
L 220.672102 110.836667 
L 231.361386 102.821806 
L 249.281657 89.331576 
L 251.403794 88.159853 
L 253.290139 87.360239 
L 255.097885 86.835793 
L 257.062827 86.507287 
L 259.184965 86.383629 
L 261.542895 86.474735 
L 264.136618 86.800365 
L 267.044733 87.393211 
L 270.345835 88.300765 
L 274.039926 89.554401 
L 278.205603 91.205542 
L 283.000061 93.349511 
L 288.344704 95.984627 
L 294.475322 99.260005 
L 301.156125 103.085048 
L 308.308514 107.44399 
L 316.011086 112.404111 
L 325.678601 118.902659 
L 335.18892 125.558403 
L 345.249423 132.875568 
L 357.117673 141.792005 
L 365.449027 148.182667 
L 365.449027 148.182667 
" clip-path="url(#p520b0f1109)" style="fill: none; stroke: #0000ff; stroke-linecap: round"/>
   </g>
   <g id="line2d_56">
    <path d="M 71.493707 120.967245 
L 75.502189 121.073069 
L 77.781522 121.35857 
L 80.21805 121.902103 
L 82.968969 122.752764 
L 86.112876 123.963097 
L 89.885564 125.667446 
L 94.365632 127.949685 
L 99.710274 130.92782 
L 106.548272 135.010539 
L 114.565235 140.0664 
L 124.861531 146.829987 
L 131.542334 151.166952 
L 133.900264 152.397718 
L 135.943804 153.215408 
L 137.751551 153.704397 
L 139.559297 153.962813 
L 141.602837 154.021502 
L 143.803572 153.858843 
L 146.318698 153.441182 
L 149.069616 152.755715 
L 152.213524 151.740599 
L 155.907615 150.306306 
L 160.230487 148.379999 
L 165.339336 145.848479 
L 171.391357 142.598608 
L 178.622344 138.458705 
L 186.639307 133.610262 
L 195.756638 127.832266 
L 207.703485 119.983948 
L 219.964723 111.65996 
L 234.426696 101.562203 
L 251.010806 90.011981 
L 253.211541 88.878193 
L 255.176483 88.116365 
L 256.98423 87.658377 
L 258.870574 87.41522 
L 260.992711 87.375689 
L 263.272044 87.558392 
L 265.865767 87.995274 
L 268.773881 88.717042 
L 272.074984 89.772169 
L 275.92627 91.246791 
L 280.406338 93.211667 
L 285.515187 95.698431 
L 291.645806 98.930998 
L 298.876792 103.001822 
L 306.893756 107.776924 
L 315.853891 113.383941 
L 327.014762 120.633272 
L 340.297769 129.542662 
L 354.366754 139.238538 
L 367.02098 148.161887 
L 367.02098 148.161887 
" clip-path="url(#p520b0f1109)" style="fill: none; stroke: #008000; stroke-linecap: round"/>
   </g>
   <g id="line2d_57">
    <path d="M 71.493707 120.967245 
L 75.423591 121.0757 
L 77.702924 121.368007 
L 80.060854 121.901704 
L 82.733175 122.739903 
L 85.798485 123.942971 
L 89.335381 125.578452 
L 93.501057 127.758694 
L 98.531309 130.653686 
L 104.58333 134.403199 
L 112.128707 139.350884 
L 121.639027 145.868039 
L 129.734587 151.380602 
L 132.01392 152.605401 
L 133.978862 153.410737 
L 135.786609 153.909583 
L 137.594355 154.168801 
L 139.559297 154.216546 
L 141.681435 154.041006 
L 144.039365 153.619795 
L 146.711686 152.910466 
L 149.698398 151.885037 
L 153.156696 150.458233 
L 157.165177 148.55653 
L 161.881038 146.066362 
L 167.382876 142.899963 
L 173.985081 138.835819 
L 181.844849 133.725594 
L 191.355168 127.269768 
L 203.14482 118.982794 
L 218.392769 107.972529 
L 243.151038 90.041487 
L 245.273175 88.905657 
L 247.15952 88.136602 
L 248.888669 87.661199 
L 250.696415 87.397509 
L 252.661357 87.340166 
L 254.783495 87.500617 
L 257.141425 87.900401 
L 259.813746 88.581577 
L 262.879056 89.600274 
L 266.337353 90.98794 
L 270.345835 92.83852 
L 274.983098 95.231983 
L 280.484936 98.33187 
L 286.851348 102.184401 
L 294.475322 107.072687 
L 303.514056 113.144151 
L 314.517731 120.810019 
L 328.350922 130.733683 
L 347.685951 144.90299 
L 352.087421 148.156217 
L 352.087421 148.156217 
" clip-path="url(#p520b0f1109)" style="fill: none; stroke: #ff0000; stroke-linecap: round"/>
   </g>
   <g id="patch_6">
    <path d="M 56.717344 158.68 
L 56.717344 82.94 
" style="fill: none; stroke: #000000; stroke-linejoin: miter; stroke-linecap: square"/>
   </g>
   <g id="patch_7">
    <path d="M 56.717344 158.68 
L 381.797344 158.68 
" style="fill: none; stroke: #000000; stroke-linejoin: miter; stroke-linecap: square"/>
   </g>
  </g>
  <g id="axes_3">
   <g id="patch_8">
    <path d="M 56.717344 234.42 
L 381.797344 234.42 
L 381.797344 158.68 
L 56.717344 158.68 
z
" style="fill: #ffffff"/>
   </g>
   <g id="line2d_58">
    <path d="M 71.493707 197.208952 
L 72.196984 197.279334 
L 72.665835 197.489696 
L 73.369111 198.156566 
L 74.384954 199.550541 
L 75.47894 201.483756 
L 78.370187 207.03016 
L 80.24559 209.563399 
L 81.339576 210.857697 
L 82.746128 212.104162 
L 83.761972 212.662608 
L 84.465248 213.367994 
L 86.731361 216.300576 
L 87.98163 217.802391 
L 88.606764 218.23954 
L 89.935175 218.768238 
L 90.872877 219.477522 
L 93.295273 221.408025 
L 95.092535 222.231055 
L 95.717669 222.333832 
L 96.108378 222.29911 
L 97.124222 222.075354 
L 97.593073 222.168595 
L 98.296349 222.642392 
L 99.937327 224.002137 
L 103.219283 225.271275 
L 104.703978 225.636905 
L 107.438941 226.933091 
L 109.392486 227.279307 
L 110.955323 226.536024 
L 111.424174 226.60943 
L 112.049308 226.950657 
L 114.393562 228.695254 
L 115.096839 228.784334 
L 118.535078 229.330386 
L 120.097915 229.675843 
L 120.723049 229.717095 
L 121.582609 229.550313 
L 122.207744 229.774578 
L 123.067304 229.948778 
L 124.473856 229.534233 
L 125.333416 229.143327 
L 126.036692 228.69496 
L 127.052536 227.615862 
L 127.912096 226.348443 
L 128.927939 224.136399 
L 130.334492 220.488153 
L 132.600605 214.045206 
L 136.507695 202.196472 
L 137.445397 200.152029 
L 138.461241 198.577859 
L 139.008233 197.495311 
L 140.727353 193.879228 
L 142.602757 191.197188 
L 144.321877 188.440338 
L 145.103295 187.544472 
L 146.119138 186.295921 
L 147.134982 185.085004 
L 147.760116 184.71308 
L 148.541534 184.26865 
L 149.166669 183.604251 
L 150.260654 182.223632 
L 152.448625 180.761175 
L 152.995618 180.586523 
L 153.54261 180.173405 
L 154.871021 178.415553 
L 155.418014 177.79909 
L 155.886865 177.501105 
L 156.590141 177.140628 
L 157.293417 176.857047 
L 158.465545 176.471393 
L 159.012537 175.911867 
L 159.950239 175.014144 
L 161.27865 174.209887 
L 162.607061 173.443727 
L 164.71689 172.972522 
L 165.18574 172.782174 
L 165.810875 172.319977 
L 166.670435 171.655441 
L 167.529995 171.264136 
L 168.076987 171.141251 
L 169.952391 170.493304 
L 170.890093 170.231119 
L 171.437085 169.977078 
L 172.531071 169.824468 
L 173.078063 169.714853 
L 174.875325 169.07442 
L 176.672587 168.59149 
L 177.141438 168.835671 
L 177.844714 169.250081 
L 178.313565 169.233156 
L 179.016841 168.867439 
L 179.798259 168.483678 
L 180.423394 168.144094 
L 181.361096 167.792801 
L 182.220656 167.752855 
L 183.70535 167.632226 
L 185.346328 167.755898 
L 186.440313 167.582545 
L 187.299873 167.384829 
L 188.706426 166.953686 
L 190.347404 167.276803 
L 191.519531 167.907676 
L 191.91024 167.859551 
L 192.457233 167.514058 
L 194.020069 166.433649 
L 195.192196 166.007798 
L 198.083443 165.543721 
L 199.021145 165.113914 
L 200.193272 164.748802 
L 202.537527 164.571817 
L 203.709654 164.378081 
L 204.100363 164.647182 
L 204.803639 165.318719 
L 205.194348 165.393231 
L 205.585057 165.201353 
L 206.053908 164.719776 
L 206.835326 163.930061 
L 207.773028 163.431398 
L 208.554446 163.246104 
L 209.257723 163.404394 
L 211.367552 163.588827 
L 214.493224 162.975201 
L 215.509068 163.056568 
L 216.681195 162.933213 
L 217.228187 163.023489 
L 218.244031 163.887562 
L 218.869166 164.11527 
L 219.259875 164.074359 
L 219.806867 163.761007 
L 220.744569 163.265592 
L 221.369704 163.205625 
L 221.916696 163.120654 
L 223.245107 163.001631 
L 224.964227 163.194758 
L 225.51122 163.380842 
L 225.98007 163.271273 
L 227.777332 162.769584 
L 228.402467 162.60741 
L 229.105743 162.70338 
L 229.887161 162.789475 
L 230.434154 162.816168 
L 230.746721 162.943752 
L 231.215572 163.418125 
L 231.840706 163.945782 
L 232.465841 164.013328 
L 233.012834 163.728541 
L 234.810095 162.806976 
L 235.43523 162.657282 
L 236.138506 162.487008 
L 238.87347 162.459513 
L 239.34232 162.532657 
L 241.686575 162.421682 
L 242.936844 163.101254 
L 243.718262 163.929199 
L 244.265255 164.772545 
L 246.062516 168.688881 
L 248.79748 174.148636 
L 249.735181 176.518284 
L 250.829167 179.977351 
L 252.938996 186.936583 
L 254.501832 191.079873 
L 255.673959 193.561708 
L 257.393079 196.856791 
L 258.252639 198.322186 
L 261.534595 203.523387 
L 262.394155 204.791493 
L 263.097431 205.427222 
L 264.191417 206.202532 
L 265.832395 208.027146 
L 266.848238 208.563078 
L 267.942224 209.481971 
L 269.50506 211.246518 
L 269.973911 211.444015 
L 270.989754 211.562831 
L 271.927456 211.536159 
L 272.474449 211.761831 
L 273.099583 212.289281 
L 274.037285 213.479183 
L 274.974987 214.724352 
L 275.834547 215.40078 
L 278.178801 216.855767 
L 279.585354 217.889384 
L 280.366772 218.451241 
L 284.664572 220.416186 
L 286.30555 220.248674 
L 287.008826 220.682829 
L 288.024669 221.340604 
L 288.649804 221.705446 
L 290.525207 222.933186 
L 291.228484 223.135746 
L 292.088044 223.357384 
L 293.416455 223.701249 
L 294.432298 223.905171 
L 296.698411 224.833461 
L 297.714254 224.92634 
L 298.026821 224.850261 
L 299.589658 223.899682 
L 300.058509 223.972556 
L 301.308778 224.580801 
L 301.85577 224.842893 
L 303.184181 225.127392 
L 304.590734 225.286473 
L 305.215868 225.327441 
L 306.622421 225.171749 
L 307.560123 225.475604 
L 308.966675 225.822675 
L 309.669952 225.977179 
L 311.467213 226.27274 
L 311.936064 226.05218 
L 312.795624 225.617256 
L 313.264475 225.678063 
L 313.733326 225.894355 
L 315.21802 226.910981 
L 316.312006 227.321415 
L 318.031125 227.460336 
L 318.968827 227.460117 
L 319.984671 227.47881 
L 321.391223 227.792837 
L 322.875918 227.783659 
L 324.048045 228.106719 
L 325.220172 228.158384 
L 326.704867 227.713912 
L 327.251859 227.95544 
L 328.736554 228.747745 
L 329.517972 229.078878 
L 329.908681 228.848862 
L 330.29939 228.64647 
L 330.768241 228.683578 
L 332.799928 229.203114 
L 334.128339 229.259289 
L 336.472593 229.154367 
L 337.410295 229.202517 
L 338.582422 229.131276 
L 339.676407 228.398823 
L 340.301542 228.345546 
L 340.848535 228.550004 
L 342.255087 229.103601 
L 342.880222 229.357562 
L 344.052349 229.834882 
L 344.677483 229.846224 
L 347.334305 229.68698 
L 349.28785 229.929502 
L 350.694403 229.705717 
L 351.553963 229.356195 
L 351.944672 229.38859 
L 352.413523 229.185304 
L 353.351225 228.646189 
L 353.898217 228.823355 
L 355.695479 229.560238 
L 356.789464 229.779095 
L 357.492741 229.709713 
L 359.133719 229.81159 
L 360.305846 229.698201 
L 361.79054 229.903849 
L 362.493817 229.973729 
L 362.962668 229.624894 
L 363.353377 229.061043 
L 363.822227 228.612769 
L 364.36922 228.488872 
L 365.072496 228.175431 
L 365.385064 227.844201 
L 365.385064 227.844201 
" clip-path="url(#pe15da23170)" style="fill: none; stroke: #000000; stroke-linecap: round"/>
   </g>
   <g id="matplotlib.axis_5">
    <g id="xtick_17">
     <g id="line2d_59">
      <path d="M 71.493707 234.42 
L 71.493707 158.68 
" clip-path="url(#pe15da23170)" style="fill: none; stroke: #b0b0b0; stroke-width: 0.8; stroke-linecap: round"/>
     </g>
     <g id="line2d_60"/>
     <g id="text_13">
      <!-- 0 -->
      <g style="fill: #262626" transform="translate(68.630582 244.758594) scale(0.09 -0.09)">
       <use xlink:href="#DejaVuSerif-30"/>
      </g>
     </g>
    </g>
    <g id="xtick_18">
     <g id="line2d_61">
      <path d="M 110.792547 234.42 
L 110.792547 158.68 
" clip-path="url(#pe15da23170)" style="fill: none; stroke: #b0b0b0; stroke-width: 0.8; stroke-linecap: round"/>
     </g>
     <g id="line2d_62"/>
     <g id="text_14">
      <!-- 5 -->
      <g style="fill: #262626" transform="translate(107.929422 244.758594) scale(0.09 -0.09)">
       <use xlink:href="#DejaVuSerif-35"/>
      </g>
     </g>
    </g>
    <g id="xtick_19">
     <g id="line2d_63">
      <path d="M 150.091386 234.42 
L 150.091386 158.68 
" clip-path="url(#pe15da23170)" style="fill: none; stroke: #b0b0b0; stroke-width: 0.8; stroke-linecap: round"/>
     </g>
     <g id="line2d_64"/>
     <g id="text_15">
      <!-- 10 -->
      <g style="fill: #262626" transform="translate(144.365136 244.758594) scale(0.09 -0.09)">
       <use xlink:href="#DejaVuSerif-31"/>
       <use xlink:href="#DejaVuSerif-30" x="63.623047"/>
      </g>
     </g>
    </g>
    <g id="xtick_20">
     <g id="line2d_65">
      <path d="M 189.390226 234.42 
L 189.390226 158.68 
" clip-path="url(#pe15da23170)" style="fill: none; stroke: #b0b0b0; stroke-width: 0.8; stroke-linecap: round"/>
     </g>
     <g id="line2d_66"/>
     <g id="text_16">
      <!-- 15 -->
      <g style="fill: #262626" transform="translate(183.663976 244.758594) scale(0.09 -0.09)">
       <use xlink:href="#DejaVuSerif-31"/>
       <use xlink:href="#DejaVuSerif-35" x="63.623047"/>
      </g>
     </g>
    </g>
    <g id="xtick_21">
     <g id="line2d_67">
      <path d="M 228.689065 234.42 
L 228.689065 158.68 
" clip-path="url(#pe15da23170)" style="fill: none; stroke: #b0b0b0; stroke-width: 0.8; stroke-linecap: round"/>
     </g>
     <g id="line2d_68"/>
     <g id="text_17">
      <!-- 20 -->
      <g style="fill: #262626" transform="translate(222.962815 244.758594) scale(0.09 -0.09)">
       <defs>
        <path id="DejaVuSerif-32" d="M 819 3553 
L 469 3553 
L 469 4384 
Q 803 4563 1142 4656 
Q 1481 4750 1806 4750 
Q 2534 4750 2956 4397 
Q 3378 4044 3378 3438 
Q 3378 2753 2422 1800 
Q 2347 1728 2309 1691 
L 1131 513 
L 3078 513 
L 3078 1088 
L 3444 1088 
L 3444 0 
L 434 0 
L 434 341 
L 1850 1753 
Q 2319 2222 2519 2614 
Q 2719 3006 2719 3438 
Q 2719 3909 2473 4175 
Q 2228 4441 1797 4441 
Q 1350 4441 1106 4219 
Q 863 3997 819 3553 
z
" transform="scale(0.015625)"/>
       </defs>
       <use xlink:href="#DejaVuSerif-32"/>
       <use xlink:href="#DejaVuSerif-30" x="63.623047"/>
      </g>
     </g>
    </g>
    <g id="xtick_22">
     <g id="line2d_69">
      <path d="M 267.987905 234.42 
L 267.987905 158.68 
" clip-path="url(#pe15da23170)" style="fill: none; stroke: #b0b0b0; stroke-width: 0.8; stroke-linecap: round"/>
     </g>
     <g id="line2d_70"/>
     <g id="text_18">
      <!-- 25 -->
      <g style="fill: #262626" transform="translate(262.261655 244.758594) scale(0.09 -0.09)">
       <use xlink:href="#DejaVuSerif-32"/>
       <use xlink:href="#DejaVuSerif-35" x="63.623047"/>
      </g>
     </g>
    </g>
    <g id="xtick_23">
     <g id="line2d_71">
      <path d="M 307.286744 234.42 
L 307.286744 158.68 
" clip-path="url(#pe15da23170)" style="fill: none; stroke: #b0b0b0; stroke-width: 0.8; stroke-linecap: round"/>
     </g>
     <g id="line2d_72"/>
     <g id="text_19">
      <!-- 30 -->
      <g style="fill: #262626" transform="translate(301.560494 244.758594) scale(0.09 -0.09)">
       <defs>
        <path id="DejaVuSerif-33" d="M 622 4469 
Q 988 4606 1323 4678 
Q 1659 4750 1953 4750 
Q 2638 4750 3022 4454 
Q 3406 4159 3406 3634 
Q 3406 3213 3140 2930 
Q 2875 2647 2388 2547 
Q 2963 2466 3280 2130 
Q 3597 1794 3597 1259 
Q 3597 606 3158 257 
Q 2719 -91 1894 -91 
Q 1528 -91 1179 -12 
Q 831 66 488 225 
L 488 1131 
L 838 1131 
Q 869 681 1141 450 
Q 1413 219 1906 219 
Q 2384 219 2661 495 
Q 2938 772 2938 1253 
Q 2938 1803 2653 2086 
Q 2369 2369 1819 2369 
L 1522 2369 
L 1522 2688 
L 1678 2688 
Q 2225 2688 2498 2914 
Q 2772 3141 2772 3597 
Q 2772 4006 2547 4223 
Q 2322 4441 1900 4441 
Q 1478 4441 1245 4241 
Q 1013 4041 972 3647 
L 622 3647 
L 622 4469 
z
" transform="scale(0.015625)"/>
       </defs>
       <use xlink:href="#DejaVuSerif-33"/>
       <use xlink:href="#DejaVuSerif-30" x="63.623047"/>
      </g>
     </g>
    </g>
    <g id="xtick_24">
     <g id="line2d_73">
      <path d="M 346.585584 234.42 
L 346.585584 158.68 
" clip-path="url(#pe15da23170)" style="fill: none; stroke: #b0b0b0; stroke-width: 0.8; stroke-linecap: round"/>
     </g>
     <g id="line2d_74"/>
     <g id="text_20">
      <!-- 35 -->
      <g style="fill: #262626" transform="translate(340.859334 244.758594) scale(0.09 -0.09)">
       <use xlink:href="#DejaVuSerif-33"/>
       <use xlink:href="#DejaVuSerif-35" x="63.623047"/>
      </g>
     </g>
    </g>
    <g id="text_21">
     <!-- Time [s] -->
     <g style="fill: #262626" transform="translate(200.635078 257.468906) scale(0.09 -0.09)">
      <defs>
       <path id="DejaVuSerif-54" d="M 1222 0 
L 1222 331 
L 1819 331 
L 1819 4294 
L 447 4294 
L 447 3566 
L 63 3566 
L 63 4666 
L 4206 4666 
L 4206 3566 
L 3822 3566 
L 3822 4294 
L 2450 4294 
L 2450 331 
L 3047 331 
L 3047 0 
L 1222 0 
z
" transform="scale(0.015625)"/>
       <path id="DejaVuSerif-5b" d="M 550 4863 
L 2003 4863 
L 2003 4531 
L 1147 4531 
L 1147 -513 
L 2003 -513 
L 2003 -844 
L 550 -844 
L 550 4863 
z
" transform="scale(0.015625)"/>
       <path id="DejaVuSerif-5d" d="M 1947 4863 
L 1947 -844 
L 494 -844 
L 494 -513 
L 1350 -513 
L 1350 4531 
L 494 4531 
L 494 4863 
L 1947 4863 
z
" transform="scale(0.015625)"/>
      </defs>
      <use xlink:href="#DejaVuSerif-54"/>
      <use xlink:href="#DejaVuSerif-69" x="66.699219"/>
      <use xlink:href="#DejaVuSerif-6d" x="98.681641"/>
      <use xlink:href="#DejaVuSerif-65" x="193.505859"/>
      <use xlink:href="#DejaVuSerif-20" x="252.685547"/>
      <use xlink:href="#DejaVuSerif-5b" x="284.472656"/>
      <use xlink:href="#DejaVuSerif-73" x="323.486328"/>
      <use xlink:href="#DejaVuSerif-5d" x="374.804688"/>
     </g>
    </g>
   </g>
   <g id="matplotlib.axis_6">
    <g id="ytick_7">
     <g id="line2d_75">
      <path d="M 56.717344 218.67759 
L 381.797344 218.67759 
" clip-path="url(#pe15da23170)" style="fill: none; stroke: #b0b0b0; stroke-width: 0.8; stroke-linecap: round"/>
     </g>
     <g id="line2d_76"/>
     <g id="text_22">
      <!-- −0.025 -->
      <g style="fill: #262626" transform="translate(19.910313 222.096887) scale(0.09 -0.09)">
       <defs>
        <path id="DejaVuSerif-2e" d="M 603 325 
Q 603 500 722 622 
Q 841 744 1019 744 
Q 1191 744 1312 622 
Q 1434 500 1434 325 
Q 1434 153 1312 31 
Q 1191 -91 1019 -91 
Q 841 -91 722 29 
Q 603 150 603 325 
z
" transform="scale(0.015625)"/>
       </defs>
       <use xlink:href="#DejaVuSerif-2212"/>
       <use xlink:href="#DejaVuSerif-30" x="83.789062"/>
       <use xlink:href="#DejaVuSerif-2e" x="147.412109"/>
       <use xlink:href="#DejaVuSerif-30" x="179.199219"/>
       <use xlink:href="#DejaVuSerif-32" x="242.822266"/>
       <use xlink:href="#DejaVuSerif-35" x="306.445312"/>
      </g>
     </g>
    </g>
    <g id="ytick_8">
     <g id="line2d_77">
      <path d="M 56.717344 196.654131 
L 381.797344 196.654131 
" clip-path="url(#pe15da23170)" style="fill: none; stroke: #b0b0b0; stroke-width: 0.8; stroke-linecap: round"/>
     </g>
     <g id="line2d_78"/>
     <g id="text_23">
      <!-- 0.000 -->
      <g style="fill: #262626" transform="translate(27.452031 200.073428) scale(0.09 -0.09)">
       <use xlink:href="#DejaVuSerif-30"/>
       <use xlink:href="#DejaVuSerif-2e" x="63.623047"/>
       <use xlink:href="#DejaVuSerif-30" x="95.410156"/>
       <use xlink:href="#DejaVuSerif-30" x="159.033203"/>
       <use xlink:href="#DejaVuSerif-30" x="222.65625"/>
      </g>
     </g>
    </g>
    <g id="ytick_9">
     <g id="line2d_79">
      <path d="M 56.717344 174.630672 
L 381.797344 174.630672 
" clip-path="url(#pe15da23170)" style="fill: none; stroke: #b0b0b0; stroke-width: 0.8; stroke-linecap: round"/>
     </g>
     <g id="line2d_80"/>
     <g id="text_24">
      <!-- 0.025 -->
      <g style="fill: #262626" transform="translate(27.452031 178.049969) scale(0.09 -0.09)">
       <use xlink:href="#DejaVuSerif-30"/>
       <use xlink:href="#DejaVuSerif-2e" x="63.623047"/>
       <use xlink:href="#DejaVuSerif-30" x="95.410156"/>
       <use xlink:href="#DejaVuSerif-32" x="159.033203"/>
       <use xlink:href="#DejaVuSerif-35" x="222.65625"/>
      </g>
     </g>
    </g>
    <g id="text_25">
     <!-- $r$ $[rad/s]$ -->
     <g style="fill: #262626" transform="translate(14.038594 214.685) rotate(-90) scale(0.09 -0.09)">
      <defs>
       <path id="DejaVuSans-Oblique-72" d="M 2853 2969 
Q 2766 3016 2653 3041 
Q 2541 3066 2413 3066 
Q 1953 3066 1609 2717 
Q 1266 2369 1153 1784 
L 800 0 
L 225 0 
L 909 3500 
L 1484 3500 
L 1375 2956 
Q 1603 3259 1920 3421 
Q 2238 3584 2597 3584 
Q 2691 3584 2781 3573 
Q 2872 3563 2963 3538 
L 2853 2969 
z
" transform="scale(0.015625)"/>
       <path id="DejaVuSans-Oblique-61" d="M 3438 1997 
L 3047 0 
L 2472 0 
L 2578 531 
Q 2325 219 2001 64 
Q 1678 -91 1281 -91 
Q 834 -91 548 182 
Q 263 456 263 884 
Q 263 1497 752 1853 
Q 1241 2209 2100 2209 
L 2900 2209 
L 2931 2363 
Q 2938 2388 2941 2417 
Q 2944 2447 2944 2509 
Q 2944 2788 2717 2942 
Q 2491 3097 2081 3097 
Q 1800 3097 1504 3025 
Q 1209 2953 897 2809 
L 997 3341 
Q 1322 3463 1633 3523 
Q 1944 3584 2234 3584 
Q 2853 3584 3176 3315 
Q 3500 3047 3500 2534 
Q 3500 2431 3484 2292 
Q 3469 2153 3438 1997 
z
M 2816 1759 
L 2241 1759 
Q 1534 1759 1195 1570 
Q 856 1381 856 984 
Q 856 709 1029 553 
Q 1203 397 1509 397 
Q 1978 397 2328 733 
Q 2678 1069 2791 1631 
L 2816 1759 
z
" transform="scale(0.015625)"/>
       <path id="DejaVuSans-2f" d="M 1625 4666 
L 2156 4666 
L 531 -594 
L 0 -594 
L 1625 4666 
z
" transform="scale(0.015625)"/>
       <path id="DejaVuSans-Oblique-73" d="M 3200 3397 
L 3091 2853 
Q 2863 2978 2609 3040 
Q 2356 3103 2088 3103 
Q 1634 3103 1373 2948 
Q 1113 2794 1113 2528 
Q 1113 2219 1719 2053 
Q 1766 2041 1788 2034 
L 1972 1978 
Q 2547 1819 2739 1644 
Q 2931 1469 2931 1166 
Q 2931 609 2489 259 
Q 2047 -91 1331 -91 
Q 1053 -91 747 -37 
Q 441 16 72 128 
L 184 722 
Q 500 559 806 475 
Q 1113 391 1394 391 
Q 1816 391 2080 572 
Q 2344 753 2344 1031 
Q 2344 1331 1650 1516 
L 1591 1531 
L 1394 1581 
Q 956 1697 753 1886 
Q 550 2075 550 2369 
Q 550 2928 970 3256 
Q 1391 3584 2113 3584 
Q 2397 3584 2667 3537 
Q 2938 3491 3200 3397 
z
" transform="scale(0.015625)"/>
      </defs>
      <use xlink:href="#DejaVuSans-Oblique-72" transform="translate(0 0.015625)"/>
      <use xlink:href="#DejaVuSerif-20" transform="translate(41.113281 0.015625)"/>
      <use xlink:href="#DejaVuSans-5b" transform="translate(72.900391 0.015625)"/>
      <use xlink:href="#DejaVuSans-Oblique-72" transform="translate(111.914062 0.015625)"/>
      <use xlink:href="#DejaVuSans-Oblique-61" transform="translate(153.027344 0.015625)"/>
      <use xlink:href="#DejaVuSans-Oblique-64" transform="translate(214.306641 0.015625)"/>
      <use xlink:href="#DejaVuSans-2f" transform="translate(277.783203 0.015625)"/>
      <use xlink:href="#DejaVuSans-Oblique-73" transform="translate(311.474609 0.015625)"/>
      <use xlink:href="#DejaVuSans-5d" transform="translate(363.574219 0.015625)"/>
     </g>
    </g>
   </g>
   <g id="line2d_81">
    <path d="M 71.493707 196.654131 
L 72.201086 196.771684 
L 72.908466 197.110187 
L 73.77304 197.811094 
L 74.716212 198.915429 
L 75.737982 200.495166 
L 76.916947 202.76164 
L 78.567498 205.895999 
L 80.296647 208.694377 
L 82.025796 211.070178 
L 83.754945 213.107681 
L 85.95568 215.337664 
L 88.156415 217.177072 
L 90.278553 218.676839 
L 92.557885 220.046296 
L 94.994413 221.27496 
L 97.352344 222.237917 
L 101.282228 223.602052 
L 105.447905 224.82006 
L 108.9848 225.637748 
L 112.757489 226.421851 
L 119.202498 227.511919 
L 125.883301 228.307122 
L 126.669278 228.107832 
L 127.376657 227.692369 
L 128.241232 226.911871 
L 129.184404 225.7357 
L 130.206174 224.084392 
L 131.385139 221.732294 
L 132.721299 218.585912 
L 134.214655 214.454346 
L 136.022402 208.75568 
L 137.594355 203.946742 
L 139.166309 199.873283 
L 140.81686 196.226921 
L 142.624607 192.833484 
L 144.275158 190.188638 
L 146.082905 187.660805 
L 148.047847 185.300095 
L 150.012789 183.27268 
L 151.820535 181.660882 
L 153.942673 180.011074 
L 156.614994 178.245263 
L 159.523108 176.615537 
L 162.116831 175.380649 
L 164.789152 174.332797 
L 169.112025 172.831423 
L 175.792827 170.960351 
L 183.023814 169.264715 
L 188.761444 168.046439 
L 193.398707 167.258365 
L 199.293533 166.40289 
L 216.585023 164.364911 
L 220.279114 164.013508 
L 229.710835 163.013842 
L 243.622624 162.156984 
L 244.330003 162.373529 
L 245.11598 162.887042 
L 245.980555 163.726578 
L 247.002324 165.104442 
L 248.102692 167.013584 
L 249.281657 169.507954 
L 250.696415 173.028172 
L 252.268369 177.562185 
L 256.591241 190.577376 
L 258.163195 194.189669 
L 259.892344 197.57523 
L 261.70009 200.580378 
L 263.586435 203.280711 
L 265.472779 205.596667 
L 267.516319 207.76587 
L 269.874249 209.919681 
L 272.310777 211.832333 
L 274.983098 213.592341 
L 277.734017 215.158354 
L 280.32774 216.398323 
L 284.179027 218.002804 
L 287.715922 219.251411 
L 294.318127 221.189512 
L 309.487479 224.7348 
L 314.674926 225.695325 
L 322.691889 226.728481 
L 335.581909 228.38925 
L 342.184114 229.158769 
L 351.45864 230.020073 
L 356.1745 230.402078 
L 359.161212 230.555618 
L 362.383717 230.777261 
L 365.449027 230.977273 
L 365.449027 230.977273 
" clip-path="url(#pe15da23170)" style="fill: none; stroke: #0000ff; stroke-linecap: round"/>
   </g>
   <g id="line2d_82">
    <path d="M 71.493707 196.654131 
L 72.201086 196.771647 
L 72.908466 197.10988 
L 73.77304 197.809816 
L 74.716212 198.911876 
L 75.737982 200.487101 
L 76.916947 202.745043 
L 78.567498 205.859439 
L 80.296647 208.628064 
L 82.025796 210.965965 
L 83.754945 212.958609 
L 85.877083 215.050205 
L 87.763427 216.567042 
L 90.278553 218.269848 
L 92.40069 219.447147 
L 94.837218 220.534998 
L 98.609907 221.97616 
L 101.20363 222.719871 
L 105.919491 223.783938 
L 110.713949 224.706048 
L 115.351212 225.341857 
L 124.782934 226.331153 
L 127.455255 226.435005 
L 128.398427 226.044246 
L 129.263001 225.35872 
L 130.206174 224.29256 
L 131.149346 222.903054 
L 132.249713 220.87897 
L 133.585874 217.909461 
L 135.07923 214.024991 
L 136.729781 209.069839 
L 139.4807 200.657934 
L 141.052653 196.79255 
L 142.703204 193.334072 
L 144.432353 190.255788 
L 146.2401 187.500031 
L 148.205042 184.933918 
L 150.091386 182.843331 
L 152.134926 180.912298 
L 154.178466 179.301323 
L 156.536396 177.739544 
L 159.130119 176.282113 
L 161.645245 175.087297 
L 164.317566 174.065088 
L 168.719036 172.687338 
L 171.862943 171.918199 
L 177.128988 170.813997 
L 186.246319 169.215831 
L 193.162914 168.25627 
L 199.136338 167.690874 
L 227.431502 165.579507 
L 234.819684 165.374918 
L 245.823359 164.864208 
L 246.530738 165.106969 
L 247.316715 165.617176 
L 248.18129 166.464728 
L 249.124462 167.724889 
L 250.224829 169.590056 
L 251.403794 172.056322 
L 252.89715 175.749131 
L 254.547702 180.476674 
L 258.870574 193.403174 
L 260.442528 196.96762 
L 262.014481 200.035311 
L 263.665032 202.809764 
L 265.472779 205.417701 
L 267.359123 207.74521 
L 269.402663 209.920359 
L 271.289007 211.6162 
L 273.725535 213.489941 
L 276.319259 215.147559 
L 278.598591 216.366723 
L 282.135487 217.970135 
L 284.41482 218.812787 
L 288.580497 220.077138 
L 291.803001 220.899594 
L 299.348379 222.47966 
L 303.199665 223.137723 
L 313.417363 224.675772 
L 330.551657 226.256973 
L 336.446483 226.58231 
L 347.921744 227.278742 
L 354.523949 227.682861 
L 367.02098 228.249318 
L 367.02098 228.249318 
" clip-path="url(#pe15da23170)" style="fill: none; stroke: #008000; stroke-linecap: round"/>
   </g>
   <g id="line2d_83">
    <path d="M 71.493707 196.654131 
L 72.122489 196.756265 
L 72.829868 197.10371 
L 73.615845 197.754737 
L 74.480419 198.773337 
L 75.502189 200.332756 
L 76.759752 202.713711 
L 78.488901 206.048917 
L 80.21805 208.900742 
L 82.025796 211.453951 
L 83.833543 213.637632 
L 85.798485 215.654232 
L 87.842025 217.435815 
L 89.885564 218.94254 
L 92.243495 220.398779 
L 94.680023 221.640767 
L 97.430941 222.795138 
L 100.653446 223.909467 
L 104.033146 224.847737 
L 108.120226 225.736415 
L 113.38627 226.635706 
L 118.495119 227.281252 
L 124.940129 227.860721 
L 125.56891 227.80974 
L 126.27629 227.539737 
L 127.062266 226.973694 
L 127.926841 226.032544 
L 128.870013 224.633121 
L 129.970381 222.580152 
L 131.227943 219.721196 
L 132.642702 215.914097 
L 134.371851 210.60253 
L 137.908746 199.457043 
L 139.559297 195.296512 
L 141.209849 191.737452 
L 142.8604 188.688709 
L 144.589549 185.95075 
L 146.475893 183.39666 
L 148.362237 181.214442 
L 150.327179 179.273642 
L 152.449317 177.481998 
L 154.650052 175.91 
L 157.165177 174.385072 
L 159.837498 173.02416 
L 162.82421 171.757633 
L 166.20391 170.567221 
L 170.29099 169.405813 
L 174.69246 168.389479 
L 179.565516 167.498316 
L 185.224549 166.675963 
L 192.455535 165.865545 
L 200.393901 165.19698 
L 209.039645 164.676109 
L 219.571734 164.24084 
L 232.147363 163.97826 
L 238.277982 163.97783 
L 238.985361 164.264691 
L 239.69274 164.792283 
L 240.557315 165.728827 
L 241.500487 167.094506 
L 242.600854 169.130581 
L 243.858417 171.959783 
L 245.273175 175.715421 
L 246.923727 180.760744 
L 250.932208 193.457953 
L 252.504162 197.384266 
L 254.154713 200.919594 
L 255.883862 204.081502 
L 257.613011 206.793231 
L 259.420758 209.223275 
L 261.3857 211.480719 
L 263.350642 213.405513 
L 265.472779 215.171802 
L 267.909307 216.903921 
L 270.50303 218.47038 
L 273.253949 219.864973 
L 276.319259 221.159195 
L 279.856154 222.411821 
L 283.786038 223.562868 
L 288.423301 224.678936 
L 293.21776 225.607322 
L 298.876792 226.468781 
L 305.4004 227.238257 
L 313.653156 227.988458 
L 322.613292 228.577155 
L 333.538369 229.067902 
L 347.685951 229.421888 
L 352.087421 229.494582 
L 352.087421 229.494582 
" clip-path="url(#pe15da23170)" style="fill: none; stroke: #ff0000; stroke-linecap: round"/>
   </g>
   <g id="patch_9">
    <path d="M 56.717344 234.42 
L 56.717344 158.68 
" style="fill: none; stroke: #000000; stroke-linejoin: miter; stroke-linecap: square"/>
   </g>
   <g id="patch_10">
    <path d="M 56.717344 234.42 
L 381.797344 234.42 
" style="fill: none; stroke: #000000; stroke-linejoin: miter; stroke-linecap: square"/>
   </g>
  </g>
 </g>
 <defs>
  <clipPath id="pdc42a3bf1c">
   <rect x="56.717344" y="7.2" width="325.08" height="75.74"/>
  </clipPath>
  <clipPath id="p520b0f1109">
   <rect x="56.717344" y="82.94" width="325.08" height="75.74"/>
  </clipPath>
  <clipPath id="pe15da23170">
   <rect x="56.717344" y="158.68" width="325.08" height="75.74"/>
  </clipPath>
 </defs>
</svg>
