<?xml version="1.0" encoding="utf-8" standalone="no"?>
<!DOCTYPE svg PUBLIC "-//W3C//DTD SVG 1.1//EN"
  "http://www.w3.org/Graphics/SVG/1.1/DTD/svg11.dtd">
<svg xmlns:xlink="http://www.w3.org/1999/xlink" width="282.878438pt" height="143.634375pt" viewBox="0 0 282.878438 143.634375" xmlns="http://www.w3.org/2000/svg" version="1.1">
 <metadata>
  <rdf:RDF xmlns:dc="http://purl.org/dc/elements/1.1/" xmlns:cc="http://creativecommons.org/ns#" xmlns:rdf="http://www.w3.org/1999/02/22-rdf-syntax-ns#">
   <cc:Work>
    <dc:type rdf:resource="http://purl.org/dc/dcmitype/StillImage"/>
    <dc:date>2024-02-13T12:47:48.106577</dc:date>
    <dc:format>image/svg+xml</dc:format>
    <dc:creator>
     <cc:Agent>
      <dc:title>Matplotlib v3.8.2, https://matplotlib.org/</dc:title>
     </cc:Agent>
    </dc:creator>
   </cc:Work>
  </rdf:RDF>
 </metadata>
 <defs>
  <style type="text/css">*{stroke-linejoin: round; stroke-linecap: butt}</style>
 </defs>
 <g id="figure_1">
  <g id="patch_1">
   <path d="M 0 143.634375 
L 282.878438 143.634375 
L 282.878438 -0 
L 0 -0 
z
" style="fill: #ffffff"/>
  </g>
  <g id="axes_1">
   <g id="patch_2">
    <path d="M 57.859219 51.565 
L 225.019219 51.565 
L 225.019219 19.655 
L 57.859219 19.655 
z
" style="fill: #ffffff"/>
   </g>
   <g id="line2d_1">
    <path d="M 65.457401 35.655272 
L 66.709017 35.858116 
L 68.122133 36.317583 
L 71.432861 37.532098 
L 73.451598 38.442745 
L 78.054317 40.625795 
L 86.492636 43.727487 
L 90.287861 44.797491 
L 92.750719 45.310098 
L 93.881212 45.322374 
L 95.132829 45.09894 
L 96.50557 44.617121 
L 97.87831 43.90015 
L 100.744916 42.023986 
L 103.328899 40.01802 
L 106.15513 37.899024 
L 111.767218 34.235528 
L 114.391576 32.629774 
L 116.975559 31.344338 
L 122.668396 28.82015 
L 125.333128 27.912144 
L 135.547935 24.904558 
L 141.886768 23.514048 
L 147.862229 22.556928 
L 151.213331 22.19218 
L 153.433942 22.164701 
L 154.564434 22.348155 
L 155.937175 22.818726 
L 157.43104 23.571195 
L 158.924905 24.57762 
L 161.710762 26.80513 
L 167.605473 31.828328 
L 175.276672 37.044051 
L 177.860655 38.421188 
L 183.714991 41.237812 
L 186.460472 42.215139 
L 195.706286 45.135533 
L 203.094862 46.909782 
L 212.179177 48.381882 
L 215.368781 48.606673 
L 216.781896 48.529024 
L 216.862646 48.515003 
L 216.862646 48.515003 
" clip-path="url(#p3924221909)" style="fill: none; stroke: #000000; stroke-width: 0.6; stroke-linecap: round"/>
   </g>
   <g id="matplotlib.axis_1">
    <g id="xtick_1">
     <g id="line2d_2">
      <path d="M 65.457401 51.565 
L 65.457401 19.655 
" clip-path="url(#p3924221909)" style="fill: none; stroke: #b0b0b0; stroke-width: 0.8; stroke-linecap: round"/>
     </g>
     <g id="line2d_3"/>
    </g>
    <g id="xtick_2">
     <g id="line2d_4">
      <path d="M 106.067672 51.565 
L 106.067672 19.655 
" clip-path="url(#p3924221909)" style="fill: none; stroke: #b0b0b0; stroke-width: 0.8; stroke-linecap: round"/>
     </g>
     <g id="line2d_5"/>
    </g>
    <g id="xtick_3">
     <g id="line2d_6">
      <path d="M 146.677944 51.565 
L 146.677944 19.655 
" clip-path="url(#p3924221909)" style="fill: none; stroke: #b0b0b0; stroke-width: 0.8; stroke-linecap: round"/>
     </g>
     <g id="line2d_7"/>
    </g>
    <g id="xtick_4">
     <g id="line2d_8">
      <path d="M 187.288215 51.565 
L 187.288215 19.655 
" clip-path="url(#p3924221909)" style="fill: none; stroke: #b0b0b0; stroke-width: 0.8; stroke-linecap: round"/>
     </g>
     <g id="line2d_9"/>
    </g>
   </g>
   <g id="matplotlib.axis_2">
    <g id="ytick_1">
     <g id="line2d_10">
      <path d="M 57.859219 46.476231 
L 225.019219 46.476231 
" clip-path="url(#p3924221909)" style="fill: none; stroke: #b0b0b0; stroke-width: 0.8; stroke-linecap: round"/>
     </g>
     <g id="line2d_11"/>
     <g id="text_1">
      <!-- −5 -->
      <g style="fill: #262626" transform="translate(44.039688 49.135684) scale(0.07 -0.07)">
       <defs>
        <path id="DejaVuSerif-2212" d="M 678 2259 
L 4684 2259 
L 4684 1753 
L 678 1753 
L 678 2259 
z
" transform="scale(0.015625)"/>
        <path id="DejaVuSerif-35" d="M 3219 4666 
L 3219 4153 
L 1081 4153 
L 1081 2816 
Q 1244 2928 1461 2984 
Q 1678 3041 1947 3041 
Q 2703 3041 3140 2622 
Q 3578 2203 3578 1478 
Q 3578 738 3136 323 
Q 2694 -91 1894 -91 
Q 1572 -91 1234 -12 
Q 897 66 544 225 
L 544 1131 
L 897 1131 
Q 925 688 1179 453 
Q 1434 219 1894 219 
Q 2388 219 2653 544 
Q 2919 869 2919 1478 
Q 2919 2084 2655 2407 
Q 2391 2731 1894 2731 
Q 1613 2731 1398 2631 
Q 1184 2531 1019 2322 
L 750 2322 
L 750 4666 
L 3219 4666 
z
" transform="scale(0.015625)"/>
       </defs>
       <use xlink:href="#DejaVuSerif-2212"/>
       <use xlink:href="#DejaVuSerif-35" x="83.789062"/>
      </g>
     </g>
    </g>
    <g id="ytick_2">
     <g id="line2d_12">
      <path d="M 57.859219 35.68115 
L 225.019219 35.68115 
" clip-path="url(#p3924221909)" style="fill: none; stroke: #b0b0b0; stroke-width: 0.8; stroke-linecap: round"/>
     </g>
     <g id="line2d_13"/>
     <g id="text_2">
      <!-- 0 -->
      <g style="fill: #262626" transform="translate(49.905469 38.340604) scale(0.07 -0.07)">
       <defs>
        <path id="DejaVuSerif-30" d="M 2034 219 
Q 2513 219 2750 744 
Q 2988 1269 2988 2328 
Q 2988 3391 2750 3916 
Q 2513 4441 2034 4441 
Q 1556 4441 1318 3916 
Q 1081 3391 1081 2328 
Q 1081 1269 1318 744 
Q 1556 219 2034 219 
z
M 2034 -91 
Q 1275 -91 848 546 
Q 422 1184 422 2328 
Q 422 3475 848 4112 
Q 1275 4750 2034 4750 
Q 2797 4750 3222 4112 
Q 3647 3475 3647 2328 
Q 3647 1184 3222 546 
Q 2797 -91 2034 -91 
z
" transform="scale(0.015625)"/>
       </defs>
       <use xlink:href="#DejaVuSerif-30"/>
      </g>
     </g>
    </g>
    <g id="ytick_3">
     <g id="line2d_14">
      <path d="M 57.859219 24.88607 
L 225.019219 24.88607 
" clip-path="url(#p3924221909)" style="fill: none; stroke: #b0b0b0; stroke-width: 0.8; stroke-linecap: round"/>
     </g>
     <g id="line2d_15"/>
     <g id="text_3">
      <!-- 5 -->
      <g style="fill: #262626" transform="translate(49.905469 27.545523) scale(0.07 -0.07)">
       <use xlink:href="#DejaVuSerif-35"/>
      </g>
     </g>
    </g>
    <g id="text_4">
     <!-- $\beta$ $[deg]$ -->
     <g style="fill: #262626" transform="translate(22.98375 48.315) rotate(-90) scale(0.07 -0.07)">
      <defs>
       <path id="DejaVuSans-Oblique-3b2" d="M 872 216 
L 572 -1331 
L -6 -1331 
L 928 3478 
Q 1206 4903 2538 4903 
Q 3888 4903 3659 3700 
Q 3503 2844 2894 2531 
Q 3713 2250 3553 1416 
Q 3272 -69 1759 -66 
Q 1097 -63 872 216 
z
M 1019 966 
Q 1259 422 1875 425 
Q 2775 425 2966 1406 
Q 3138 2288 1675 2219 
L 1778 2750 
Q 2909 2731 3106 3750 
Q 3241 4438 2509 4434 
Q 1691 4434 1503 3459 
L 1019 966 
z
" transform="scale(0.015625)"/>
       <path id="DejaVuSerif-20" transform="scale(0.015625)"/>
       <path id="DejaVuSans-5b" d="M 550 4863 
L 1875 4863 
L 1875 4416 
L 1125 4416 
L 1125 -397 
L 1875 -397 
L 1875 -844 
L 550 -844 
L 550 4863 
z
" transform="scale(0.015625)"/>
       <path id="DejaVuSans-Oblique-64" d="M 2675 525 
Q 2444 222 2128 65 
Q 1813 -91 1428 -91 
Q 903 -91 598 267 
Q 294 625 294 1247 
Q 294 1766 478 2236 
Q 663 2706 1013 3078 
Q 1244 3325 1534 3454 
Q 1825 3584 2144 3584 
Q 2481 3584 2739 3421 
Q 2997 3259 3138 2956 
L 3513 4863 
L 4091 4863 
L 3144 0 
L 2566 0 
L 2675 525 
z
M 891 1350 
Q 891 897 1095 644 
Q 1300 391 1663 391 
Q 1931 391 2161 520 
Q 2391 650 2566 903 
Q 2750 1166 2856 1509 
Q 2963 1853 2963 2188 
Q 2963 2622 2758 2865 
Q 2553 3109 2194 3109 
Q 1922 3109 1687 2981 
Q 1453 2853 1288 2613 
Q 1106 2353 998 2009 
Q 891 1666 891 1350 
z
" transform="scale(0.015625)"/>
       <path id="DejaVuSans-Oblique-65" d="M 3078 2063 
Q 3088 2113 3092 2166 
Q 3097 2219 3097 2272 
Q 3097 2653 2873 2875 
Q 2650 3097 2266 3097 
Q 1838 3097 1509 2826 
Q 1181 2556 1013 2059 
L 3078 2063 
z
M 3578 1613 
L 903 1613 
Q 884 1494 878 1425 
Q 872 1356 872 1306 
Q 872 872 1139 634 
Q 1406 397 1894 397 
Q 2269 397 2603 481 
Q 2938 566 3225 728 
L 3116 159 
Q 2806 34 2476 -28 
Q 2147 -91 1806 -91 
Q 1078 -91 686 257 
Q 294 606 294 1247 
Q 294 1794 489 2264 
Q 684 2734 1063 3103 
Q 1306 3334 1642 3459 
Q 1978 3584 2356 3584 
Q 2950 3584 3301 3228 
Q 3653 2872 3653 2272 
Q 3653 2128 3634 1964 
Q 3616 1800 3578 1613 
z
" transform="scale(0.015625)"/>
       <path id="DejaVuSans-Oblique-67" d="M 3816 3500 
L 3219 434 
Q 3047 -456 2561 -893 
Q 2075 -1331 1253 -1331 
Q 950 -1331 690 -1286 
Q 431 -1241 206 -1147 
L 313 -588 
Q 525 -725 762 -790 
Q 1000 -856 1269 -856 
Q 1816 -856 2167 -557 
Q 2519 -259 2631 300 
L 2681 563 
Q 2441 288 2122 144 
Q 1803 0 1434 0 
Q 903 0 598 351 
Q 294 703 294 1319 
Q 294 1803 478 2267 
Q 663 2731 997 3091 
Q 1219 3328 1514 3456 
Q 1809 3584 2131 3584 
Q 2484 3584 2746 3420 
Q 3009 3256 3138 2956 
L 3238 3500 
L 3816 3500 
z
M 2950 2216 
Q 2950 2641 2750 2872 
Q 2550 3103 2181 3103 
Q 1953 3103 1747 3012 
Q 1541 2922 1394 2759 
Q 1156 2491 1023 2127 
Q 891 1763 891 1375 
Q 891 944 1092 712 
Q 1294 481 1672 481 
Q 2219 481 2584 976 
Q 2950 1472 2950 2216 
z
" transform="scale(0.015625)"/>
       <path id="DejaVuSans-5d" d="M 1947 4863 
L 1947 -844 
L 622 -844 
L 622 -397 
L 1369 -397 
L 1369 4416 
L 622 4416 
L 622 4863 
L 1947 4863 
z
" transform="scale(0.015625)"/>
      </defs>
      <use xlink:href="#DejaVuSans-Oblique-3b2" transform="translate(0 0.390625)"/>
      <use xlink:href="#DejaVuSerif-20" transform="translate(63.818359 0.390625)"/>
      <use xlink:href="#DejaVuSans-5b" transform="translate(95.605469 0.390625)"/>
      <use xlink:href="#DejaVuSans-Oblique-64" transform="translate(134.619141 0.390625)"/>
      <use xlink:href="#DejaVuSans-Oblique-65" transform="translate(198.095703 0.390625)"/>
      <use xlink:href="#DejaVuSans-Oblique-67" transform="translate(259.619141 0.390625)"/>
      <use xlink:href="#DejaVuSans-5d" transform="translate(323.095703 0.390625)"/>
     </g>
    </g>
   </g>
   <g id="line2d_16">
    <path d="M 65.457401 35.68115 
L 66.716319 35.792023 
L 67.894017 36.117194 
L 69.92453 37.003544 
L 82.391884 42.629465 
L 87.265116 44.44879 
L 92.016518 45.978495 
L 94.209473 46.527813 
L 95.34656 46.555029 
L 96.443038 46.366484 
L 97.539515 45.955802 
L 98.676603 45.288488 
L 102.250307 42.74211 
L 109.722597 37.408891 
L 113.580572 34.962538 
L 117.438548 32.77483 
L 121.377745 30.788172 
L 125.519992 28.940778 
L 129.66224 27.324553 
L 134.251201 25.778234 
L 139.286874 24.323594 
L 144.728651 22.985392 
L 150.495309 21.789732 
L 154.718778 21.106626 
L 155.855865 21.191682 
L 156.992953 21.499646 
L 158.13004 22.04162 
L 159.267128 22.829002 
L 164.546463 27.134218 
L 169.541527 31.079716 
L 173.521333 33.923715 
L 177.379309 36.394185 
L 181.196675 38.572768 
L 185.582584 40.783883 
L 189.846663 42.667829 
L 194.151351 44.321536 
L 198.618481 45.804935 
L 203.572934 47.219587 
L 209.055321 48.560345 
L 215.025031 49.776723 
L 216.893103 50.114545 
L 216.893103 50.114545 
" clip-path="url(#p3924221909)" style="fill: none; stroke: #0000ff; stroke-width: 0.6; stroke-linecap: round"/>
   </g>
   <g id="line2d_17">
    <path d="M 65.457401 35.68115 
L 66.716319 35.791877 
L 67.894017 36.116121 
L 69.965141 37.01517 
L 80.401981 41.652561 
L 84.950331 43.341489 
L 89.417461 44.764954 
L 94.128252 46.030092 
L 95.30595 46.167172 
L 96.443038 46.086685 
L 97.539515 45.790208 
L 98.676603 45.247628 
L 100.016742 44.341455 
L 104.443261 41.047468 
L 109.357104 37.509085 
L 113.012029 35.15616 
L 116.585733 33.114684 
L 120.200047 31.291614 
L 124.139243 29.548307 
L 128.11905 28.03301 
L 132.383128 26.647018 
L 137.337581 25.289803 
L 142.657527 24.08714 
L 148.586627 22.991334 
L 155.165491 22.014539 
L 156.343188 22.017084 
L 157.480276 22.237572 
L 158.617364 22.686776 
L 159.795062 23.397264 
L 161.460083 24.723209 
L 171.206548 32.582689 
L 174.617811 34.94994 
L 178.110294 37.105447 
L 181.683998 39.05127 
L 185.663805 40.958467 
L 189.44056 42.526229 
L 193.501587 43.980872 
L 198.009327 45.360655 
L 202.92317 46.625333 
L 207.918233 47.69241 
L 213.238179 48.628151 
L 217.421037 49.251113 
L 217.421037 49.251113 
" clip-path="url(#p3924221909)" style="fill: none; stroke: #008000; stroke-width: 0.6; stroke-linecap: round"/>
   </g>
   <g id="line2d_18">
    <path d="M 65.457401 35.68115 
L 66.83815 35.789054 
L 68.056458 36.10975 
L 70.290023 37.050783 
L 81.173576 41.81741 
L 85.072162 43.152083 
L 89.051968 44.278697 
L 93.153606 45.209897 
L 94.371914 45.286671 
L 95.549612 45.137763 
L 96.646089 44.778318 
L 97.742566 44.187223 
L 99.204536 43.103044 
L 109.966258 34.862621 
L 113.052639 32.967545 
L 116.13902 31.333577 
L 119.347231 29.888045 
L 122.677273 28.632767 
L 126.372808 27.482452 
L 130.433835 26.458668 
L 134.860355 25.57518 
L 139.814808 24.815896 
L 145.662687 24.151927 
L 151.185684 23.732513 
L 152.444602 23.869156 
L 153.6223 24.219313 
L 154.759388 24.785897 
L 155.937086 25.623786 
L 158.942246 28.252351 
L 164.140361 32.761028 
L 167.267351 35.165319 
L 170.231901 37.168871 
L 173.196451 38.90801 
L 176.323442 40.482925 
L 179.531654 41.849747 
L 182.983527 43.08023 
L 186.679061 44.156239 
L 190.821309 45.127358 
L 195.49149 45.994906 
L 200.527164 46.69459 
L 206.943587 47.346635 
L 209.502034 47.552743 
L 209.502034 47.552743 
" clip-path="url(#p3924221909)" style="fill: none; stroke: #ff0000; stroke-width: 0.6; stroke-linecap: round"/>
   </g>
   <g id="patch_3">
    <path d="M 57.859219 51.565 
L 57.859219 19.655 
" style="fill: none; stroke: #000000; stroke-linejoin: miter; stroke-linecap: square"/>
   </g>
   <g id="patch_4">
    <path d="M 57.859219 51.565 
L 225.019219 51.565 
" style="fill: none; stroke: #000000; stroke-linejoin: miter; stroke-linecap: square"/>
   </g>
   <g id="legend_1">
    <g id="line2d_19">
     <path d="M 10 12.868906 
L 17 12.868906 
L 24 12.868906 
" style="fill: none; stroke: #000000; stroke-width: 0.6; stroke-linecap: round"/>
    </g>
    <g id="text_5">
     <!-- Model test -->
     <g style="fill: #262626" transform="translate(29.6 15.318906) scale(0.07 -0.07)">
      <defs>
       <path id="DejaVuSerif-4d" d="M 353 0 
L 353 331 
L 947 331 
L 947 4331 
L 319 4331 
L 319 4666 
L 1678 4666 
L 3316 1344 
L 4953 4666 
L 6228 4666 
L 6228 4331 
L 5606 4331 
L 5606 331 
L 6203 331 
L 6203 0 
L 4378 0 
L 4378 331 
L 4972 331 
L 4972 3938 
L 3372 684 
L 2931 684 
L 1331 3938 
L 1331 331 
L 1925 331 
L 1925 0 
L 353 0 
z
" transform="scale(0.015625)"/>
       <path id="DejaVuSerif-6f" d="M 1925 219 
Q 2388 219 2623 584 
Q 2859 950 2859 1663 
Q 2859 2375 2623 2739 
Q 2388 3103 1925 3103 
Q 1463 3103 1227 2739 
Q 991 2375 991 1663 
Q 991 950 1228 584 
Q 1466 219 1925 219 
z
M 1925 -91 
Q 1200 -91 759 389 
Q 319 869 319 1663 
Q 319 2456 758 2934 
Q 1197 3413 1925 3413 
Q 2653 3413 3092 2934 
Q 3531 2456 3531 1663 
Q 3531 869 3092 389 
Q 2653 -91 1925 -91 
z
" transform="scale(0.015625)"/>
       <path id="DejaVuSerif-64" d="M 3359 331 
L 3909 331 
L 3909 0 
L 2784 0 
L 2784 519 
Q 2616 206 2355 57 
Q 2094 -91 1709 -91 
Q 1097 -91 708 395 
Q 319 881 319 1663 
Q 319 2444 706 2928 
Q 1094 3413 1709 3413 
Q 2094 3413 2355 3264 
Q 2616 3116 2784 2803 
L 2784 4531 
L 2241 4531 
L 2241 4863 
L 3359 4863 
L 3359 331 
z
M 2784 1497 
L 2784 1825 
Q 2784 2422 2554 2737 
Q 2325 3053 1888 3053 
Q 1444 3053 1217 2703 
Q 991 2353 991 1663 
Q 991 975 1217 622 
Q 1444 269 1888 269 
Q 2325 269 2554 583 
Q 2784 897 2784 1497 
z
" transform="scale(0.015625)"/>
       <path id="DejaVuSerif-65" d="M 3469 1600 
L 991 1600 
L 991 1575 
Q 991 903 1244 561 
Q 1497 219 1991 219 
Q 2369 219 2611 417 
Q 2853 616 2950 1006 
L 3413 1006 
Q 3275 459 2904 184 
Q 2534 -91 1931 -91 
Q 1203 -91 761 389 
Q 319 869 319 1663 
Q 319 2450 753 2931 
Q 1188 3413 1894 3413 
Q 2647 3413 3050 2948 
Q 3453 2484 3469 1600 
z
M 2791 1931 
Q 2772 2513 2545 2808 
Q 2319 3103 1894 3103 
Q 1497 3103 1269 2806 
Q 1041 2509 991 1931 
L 2791 1931 
z
" transform="scale(0.015625)"/>
       <path id="DejaVuSerif-6c" d="M 1313 331 
L 1856 331 
L 1856 0 
L 184 0 
L 184 331 
L 738 331 
L 738 4531 
L 184 4531 
L 184 4863 
L 1313 4863 
L 1313 331 
z
" transform="scale(0.015625)"/>
       <path id="DejaVuSerif-74" d="M 691 2988 
L 184 2988 
L 184 3322 
L 691 3322 
L 691 4353 
L 1269 4353 
L 1269 3322 
L 2350 3322 
L 2350 2988 
L 1269 2988 
L 1269 878 
Q 1269 456 1350 337 
Q 1431 219 1650 219 
Q 1875 219 1978 351 
Q 2081 484 2088 781 
L 2522 781 
Q 2497 328 2275 118 
Q 2053 -91 1600 -91 
Q 1103 -91 897 129 
Q 691 350 691 878 
L 691 2988 
z
" transform="scale(0.015625)"/>
       <path id="DejaVuSerif-73" d="M 359 184 
L 359 959 
L 691 959 
Q 703 588 923 403 
Q 1144 219 1575 219 
Q 1963 219 2166 364 
Q 2369 509 2369 788 
Q 2369 1006 2220 1140 
Q 2072 1275 1594 1428 
L 1178 1569 
Q 750 1706 558 1912 
Q 366 2119 366 2438 
Q 366 2894 700 3153 
Q 1034 3413 1625 3413 
Q 1888 3413 2178 3344 
Q 2469 3275 2778 3144 
L 2778 2419 
L 2447 2419 
Q 2434 2741 2221 2922 
Q 2009 3103 1644 3103 
Q 1281 3103 1095 2975 
Q 909 2847 909 2591 
Q 909 2381 1050 2254 
Q 1191 2128 1613 1997 
L 2069 1856 
Q 2541 1709 2748 1489 
Q 2956 1269 2956 922 
Q 2956 450 2595 179 
Q 2234 -91 1600 -91 
Q 1278 -91 972 -22 
Q 666 47 359 184 
z
" transform="scale(0.015625)"/>
      </defs>
      <use xlink:href="#DejaVuSerif-4d"/>
      <use xlink:href="#DejaVuSerif-6f" x="102.392578"/>
      <use xlink:href="#DejaVuSerif-64" x="162.597656"/>
      <use xlink:href="#DejaVuSerif-65" x="226.611328"/>
      <use xlink:href="#DejaVuSerif-6c" x="285.791016"/>
      <use xlink:href="#DejaVuSerif-20" x="317.773438"/>
      <use xlink:href="#DejaVuSerif-74" x="349.560547"/>
      <use xlink:href="#DejaVuSerif-65" x="389.746094"/>
      <use xlink:href="#DejaVuSerif-73" x="448.925781"/>
      <use xlink:href="#DejaVuSerif-74" x="500.244141"/>
     </g>
    </g>
    <g id="line2d_20">
     <path d="M 81.430625 12.868906 
L 88.430625 12.868906 
L 95.430625 12.868906 
" style="fill: none; stroke: #0000ff; stroke-width: 0.6; stroke-linecap: round"/>
    </g>
    <g id="text_6">
     <!-- Reference -->
     <g style="fill: #262626" transform="translate(101.030625 15.318906) scale(0.07 -0.07)">
      <defs>
       <path id="DejaVuSerif-52" d="M 3066 2316 
Q 3284 2256 3442 2114 
Q 3600 1972 3725 1716 
L 4403 331 
L 4972 331 
L 4972 0 
L 3872 0 
L 3144 1484 
Q 2934 1916 2759 2042 
Q 2584 2169 2278 2169 
L 1581 2169 
L 1581 331 
L 2241 331 
L 2241 0 
L 353 0 
L 353 331 
L 947 331 
L 947 4331 
L 353 4331 
L 353 4666 
L 2719 4666 
Q 3400 4666 3770 4341 
Q 4141 4016 4141 3419 
Q 4141 2938 3870 2661 
Q 3600 2384 3066 2316 
z
M 1581 2503 
L 2503 2503 
Q 2975 2503 3200 2726 
Q 3425 2950 3425 3419 
Q 3425 3888 3200 4109 
Q 2975 4331 2503 4331 
L 1581 4331 
L 1581 2503 
z
" transform="scale(0.015625)"/>
       <path id="DejaVuSerif-66" d="M 2753 4078 
L 2450 4078 
Q 2447 4313 2317 4434 
Q 2188 4556 1941 4556 
Q 1619 4556 1487 4379 
Q 1356 4203 1356 3750 
L 1356 3322 
L 2284 3322 
L 2284 2988 
L 1356 2988 
L 1356 331 
L 2094 331 
L 2094 0 
L 231 0 
L 231 331 
L 781 331 
L 781 2988 
L 231 2988 
L 231 3322 
L 781 3322 
L 781 3738 
Q 781 4294 1070 4578 
Q 1359 4863 1919 4863 
Q 2128 4863 2337 4825 
Q 2547 4788 2753 4709 
L 2753 4078 
z
" transform="scale(0.015625)"/>
       <path id="DejaVuSerif-72" d="M 3059 3328 
L 3059 2497 
L 2728 2497 
Q 2713 2744 2591 2866 
Q 2469 2988 2234 2988 
Q 1809 2988 1582 2694 
Q 1356 2400 1356 1850 
L 1356 331 
L 2022 331 
L 2022 0 
L 263 0 
L 263 331 
L 781 331 
L 781 2994 
L 231 2994 
L 231 3322 
L 1356 3322 
L 1356 2731 
Q 1525 3078 1790 3245 
Q 2056 3413 2438 3413 
Q 2578 3413 2733 3391 
Q 2888 3369 3059 3328 
z
" transform="scale(0.015625)"/>
       <path id="DejaVuSerif-6e" d="M 263 0 
L 263 331 
L 781 331 
L 781 2988 
L 231 2988 
L 231 3322 
L 1356 3322 
L 1356 2731 
Q 1516 3069 1770 3241 
Q 2025 3413 2363 3413 
Q 2913 3413 3172 3097 
Q 3431 2781 3431 2113 
L 3431 331 
L 3944 331 
L 3944 0 
L 2356 0 
L 2356 331 
L 2853 331 
L 2853 1931 
Q 2853 2541 2703 2767 
Q 2553 2994 2175 2994 
Q 1775 2994 1565 2701 
Q 1356 2409 1356 1850 
L 1356 331 
L 1856 331 
L 1856 0 
L 263 0 
z
" transform="scale(0.015625)"/>
       <path id="DejaVuSerif-63" d="M 3291 997 
Q 3169 466 2822 187 
Q 2475 -91 1925 -91 
Q 1200 -91 759 389 
Q 319 869 319 1663 
Q 319 2459 759 2936 
Q 1200 3413 1925 3413 
Q 2241 3413 2553 3339 
Q 2866 3266 3181 3116 
L 3181 2266 
L 2847 2266 
Q 2781 2703 2561 2903 
Q 2341 3103 1931 3103 
Q 1466 3103 1228 2742 
Q 991 2381 991 1663 
Q 991 944 1227 581 
Q 1463 219 1931 219 
Q 2303 219 2525 412 
Q 2747 606 2828 997 
L 3291 997 
z
" transform="scale(0.015625)"/>
      </defs>
      <use xlink:href="#DejaVuSerif-52"/>
      <use xlink:href="#DejaVuSerif-65" x="75.292969"/>
      <use xlink:href="#DejaVuSerif-66" x="134.472656"/>
      <use xlink:href="#DejaVuSerif-65" x="171.484375"/>
      <use xlink:href="#DejaVuSerif-72" x="230.664062"/>
      <use xlink:href="#DejaVuSerif-65" x="278.466797"/>
      <use xlink:href="#DejaVuSerif-6e" x="337.646484"/>
      <use xlink:href="#DejaVuSerif-63" x="402.050781"/>
      <use xlink:href="#DejaVuSerif-65" x="458.056641"/>
     </g>
    </g>
    <g id="line2d_21">
     <path d="M 151.239219 12.868906 
L 158.239219 12.868906 
L 165.239219 12.868906 
" style="fill: none; stroke: #008000; stroke-width: 0.6; stroke-linecap: round"/>
    </g>
    <g id="text_7">
     <!-- PISM -->
     <g style="fill: #262626" transform="translate(170.839219 15.318906) scale(0.07 -0.07)">
      <defs>
       <path id="DejaVuSerif-50" d="M 1581 2375 
L 2406 2375 
Q 2872 2375 3115 2626 
Q 3359 2878 3359 3353 
Q 3359 3831 3115 4081 
Q 2872 4331 2406 4331 
L 1581 4331 
L 1581 2375 
z
M 353 0 
L 353 331 
L 947 331 
L 947 4331 
L 353 4331 
L 353 4666 
L 2559 4666 
Q 3259 4666 3668 4311 
Q 4078 3956 4078 3353 
Q 4078 2753 3668 2397 
Q 3259 2041 2559 2041 
L 1581 2041 
L 1581 331 
L 2303 331 
L 2303 0 
L 353 0 
z
" transform="scale(0.015625)"/>
       <path id="DejaVuSerif-49" d="M 1581 331 
L 2175 331 
L 2175 0 
L 353 0 
L 353 331 
L 947 331 
L 947 4331 
L 353 4331 
L 353 4666 
L 2175 4666 
L 2175 4331 
L 1581 4331 
L 1581 331 
z
" transform="scale(0.015625)"/>
       <path id="DejaVuSerif-53" d="M 594 225 
L 594 1288 
L 953 1284 
Q 969 753 1261 498 
Q 1553 244 2150 244 
Q 2706 244 2998 464 
Q 3291 684 3291 1106 
Q 3291 1444 3114 1625 
Q 2938 1806 2369 1978 
L 1753 2163 
Q 1084 2366 811 2669 
Q 538 2972 538 3500 
Q 538 4094 959 4422 
Q 1381 4750 2144 4750 
Q 2469 4750 2856 4679 
Q 3244 4609 3681 4475 
L 3681 3481 
L 3328 3481 
Q 3275 3975 2998 4195 
Q 2722 4416 2156 4416 
Q 1663 4416 1405 4214 
Q 1147 4013 1147 3628 
Q 1147 3294 1340 3103 
Q 1534 2913 2163 2725 
L 2741 2553 
Q 3375 2363 3645 2067 
Q 3916 1772 3916 1275 
Q 3916 597 3481 253 
Q 3047 -91 2188 -91 
Q 1803 -91 1404 -12 
Q 1006 66 594 225 
z
" transform="scale(0.015625)"/>
      </defs>
      <use xlink:href="#DejaVuSerif-50"/>
      <use xlink:href="#DejaVuSerif-49" x="67.285156"/>
      <use xlink:href="#DejaVuSerif-53" x="106.787109"/>
      <use xlink:href="#DejaVuSerif-4d" x="175.292969"/>
     </g>
    </g>
    <g id="line2d_22">
     <path d="M 204.27625 12.868906 
L 211.27625 12.868906 
L 218.27625 12.868906 
" style="fill: none; stroke: #ff0000; stroke-width: 0.6; stroke-linecap: round"/>
    </g>
    <g id="text_8">
     <!-- Mathematical -->
     <g style="fill: #262626" transform="translate(223.87625 15.318906) scale(0.07 -0.07)">
      <defs>
       <path id="DejaVuSerif-61" d="M 2547 1044 
L 2547 1747 
L 1806 1747 
Q 1378 1747 1168 1562 
Q 959 1378 959 997 
Q 959 650 1171 447 
Q 1384 244 1747 244 
Q 2106 244 2326 466 
Q 2547 688 2547 1044 
z
M 3122 2075 
L 3122 331 
L 3634 331 
L 3634 0 
L 2547 0 
L 2547 359 
Q 2356 128 2106 18 
Q 1856 -91 1522 -91 
Q 969 -91 644 203 
Q 319 497 319 997 
Q 319 1513 691 1797 
Q 1063 2081 1741 2081 
L 2547 2081 
L 2547 2309 
Q 2547 2688 2317 2895 
Q 2088 3103 1672 3103 
Q 1328 3103 1125 2947 
Q 922 2791 872 2484 
L 575 2484 
L 575 3156 
Q 875 3284 1158 3348 
Q 1441 3413 1709 3413 
Q 2400 3413 2761 3070 
Q 3122 2728 3122 2075 
z
" transform="scale(0.015625)"/>
       <path id="DejaVuSerif-68" d="M 263 0 
L 263 331 
L 781 331 
L 781 4531 
L 231 4531 
L 231 4863 
L 1356 4863 
L 1356 2731 
Q 1516 3069 1770 3241 
Q 2025 3413 2363 3413 
Q 2913 3413 3172 3097 
Q 3431 2781 3431 2113 
L 3431 331 
L 3944 331 
L 3944 0 
L 2356 0 
L 2356 331 
L 2853 331 
L 2853 1931 
Q 2853 2541 2704 2764 
Q 2556 2988 2175 2988 
Q 1775 2988 1565 2697 
Q 1356 2406 1356 1850 
L 1356 331 
L 1856 331 
L 1856 0 
L 263 0 
z
" transform="scale(0.015625)"/>
       <path id="DejaVuSerif-6d" d="M 3316 2675 
Q 3481 3041 3739 3227 
Q 3997 3413 4341 3413 
Q 4863 3413 5119 3089 
Q 5375 2766 5375 2113 
L 5375 331 
L 5894 331 
L 5894 0 
L 4300 0 
L 4300 331 
L 4800 331 
L 4800 2047 
Q 4800 2556 4650 2772 
Q 4500 2988 4153 2988 
Q 3769 2988 3567 2697 
Q 3366 2406 3366 1850 
L 3366 331 
L 3866 331 
L 3866 0 
L 2291 0 
L 2291 331 
L 2791 331 
L 2791 2069 
Q 2791 2566 2641 2777 
Q 2491 2988 2144 2988 
Q 1759 2988 1557 2697 
Q 1356 2406 1356 1850 
L 1356 331 
L 1856 331 
L 1856 0 
L 263 0 
L 263 331 
L 781 331 
L 781 2994 
L 231 2994 
L 231 3322 
L 1356 3322 
L 1356 2731 
Q 1516 3063 1762 3238 
Q 2009 3413 2322 3413 
Q 2709 3413 2968 3220 
Q 3228 3028 3316 2675 
z
" transform="scale(0.015625)"/>
       <path id="DejaVuSerif-69" d="M 622 4353 
Q 622 4497 726 4603 
Q 831 4709 978 4709 
Q 1122 4709 1226 4603 
Q 1331 4497 1331 4353 
Q 1331 4206 1228 4103 
Q 1125 4000 978 4000 
Q 831 4000 726 4103 
Q 622 4206 622 4353 
z
M 1356 331 
L 1900 331 
L 1900 0 
L 231 0 
L 231 331 
L 781 331 
L 781 2988 
L 231 2988 
L 231 3322 
L 1356 3322 
L 1356 331 
z
" transform="scale(0.015625)"/>
      </defs>
      <use xlink:href="#DejaVuSerif-4d"/>
      <use xlink:href="#DejaVuSerif-61" x="102.392578"/>
      <use xlink:href="#DejaVuSerif-74" x="162.011719"/>
      <use xlink:href="#DejaVuSerif-68" x="202.197266"/>
      <use xlink:href="#DejaVuSerif-65" x="266.601562"/>
      <use xlink:href="#DejaVuSerif-6d" x="325.78125"/>
      <use xlink:href="#DejaVuSerif-61" x="420.605469"/>
      <use xlink:href="#DejaVuSerif-74" x="480.224609"/>
      <use xlink:href="#DejaVuSerif-69" x="520.410156"/>
      <use xlink:href="#DejaVuSerif-63" x="552.392578"/>
      <use xlink:href="#DejaVuSerif-61" x="608.398438"/>
      <use xlink:href="#DejaVuSerif-6c" x="668.017578"/>
     </g>
    </g>
   </g>
  </g>
  <g id="axes_2">
   <g id="patch_5">
    <path d="M 57.859219 83.475 
L 225.019219 83.475 
L 225.019219 51.565 
L 57.859219 51.565 
z
" style="fill: #ffffff"/>
   </g>
   <g id="line2d_23">
    <path d="M 65.457401 67.694189 
L 67.960634 67.855643 
L 69.979371 68.224073 
L 72.36148 68.886608 
L 74.985837 69.865123 
L 78.619563 71.484455 
L 82.374413 73.385538 
L 87.784627 76.409699 
L 96.061447 81.16042 
L 97.636062 81.685425 
L 99.129927 81.950201 
L 100.825666 82.022351 
L 102.763653 81.877573 
L 105.065013 81.475404 
L 107.68937 80.788399 
L 110.596351 79.7859 
L 114.108953 78.322298 
L 118.429049 76.264392 
L 124.969756 72.885053 
L 131.470087 69.301603 
L 138.697164 64.970191 
L 156.017925 54.433149 
L 157.754038 53.712897 
L 159.247903 53.328064 
L 160.862892 53.149481 
L 162.679755 53.176911 
L 164.900366 53.447327 
L 167.605473 54.009506 
L 170.472079 54.815678 
L 173.459809 55.908154 
L 177.497282 57.639076 
L 181.938502 59.822432 
L 189.327078 63.659301 
L 194.898791 66.768901 
L 202.933363 71.489335 
L 213.067421 77.588968 
L 216.862646 79.870596 
L 216.862646 79.870596 
" clip-path="url(#p5f04f17706)" style="fill: none; stroke: #000000; stroke-width: 0.6; stroke-linecap: round"/>
   </g>
   <g id="line2d_24">
    <path d="M 65.457401 67.863397 
L 66.063022 70.49563 
L 68.162508 79.128168 
L 68.52588 79.063968 
L 92.427722 78.958912 
L 94.163835 71.543943 
L 97.87831 56.070203 
L 97.999435 56.107018 
L 100.744916 56.118242 
L 153.272443 56.117344 
L 153.514691 57.124353 
L 156.300548 68.769391 
L 156.986918 71.652591 
L 158.803781 79.128168 
L 159.288278 79.065314 
L 164.294745 79.064417 
L 215.732153 78.965646 
L 216.862646 74.107935 
L 216.862646 74.107935 
" clip-path="url(#p5f04f17706)" style="fill: none; stroke-dasharray: 2.22,0.96; stroke-dashoffset: 0; stroke: #808080; stroke-width: 0.6"/>
   </g>
   <g id="matplotlib.axis_3">
    <g id="xtick_5">
     <g id="line2d_25">
      <path d="M 65.457401 83.475 
L 65.457401 51.565 
" clip-path="url(#p5f04f17706)" style="fill: none; stroke: #b0b0b0; stroke-width: 0.8; stroke-linecap: round"/>
     </g>
     <g id="line2d_26"/>
    </g>
    <g id="xtick_6">
     <g id="line2d_27">
      <path d="M 106.067672 83.475 
L 106.067672 51.565 
" clip-path="url(#p5f04f17706)" style="fill: none; stroke: #b0b0b0; stroke-width: 0.8; stroke-linecap: round"/>
     </g>
     <g id="line2d_28"/>
    </g>
    <g id="xtick_7">
     <g id="line2d_29">
      <path d="M 146.677944 83.475 
L 146.677944 51.565 
" clip-path="url(#p5f04f17706)" style="fill: none; stroke: #b0b0b0; stroke-width: 0.8; stroke-linecap: round"/>
     </g>
     <g id="line2d_30"/>
    </g>
    <g id="xtick_8">
     <g id="line2d_31">
      <path d="M 187.288215 83.475 
L 187.288215 51.565 
" clip-path="url(#p5f04f17706)" style="fill: none; stroke: #b0b0b0; stroke-width: 0.8; stroke-linecap: round"/>
     </g>
     <g id="line2d_32"/>
    </g>
   </g>
   <g id="matplotlib.axis_4">
    <g id="ytick_4">
     <g id="line2d_33">
      <path d="M 57.859219 79.064676 
L 225.019219 79.064676 
" clip-path="url(#p5f04f17706)" style="fill: none; stroke: #b0b0b0; stroke-width: 0.8; stroke-linecap: round"/>
     </g>
     <g id="line2d_34"/>
     <g id="text_9">
      <!-- −10 -->
      <g style="fill: #262626" transform="translate(39.585938 81.724129) scale(0.07 -0.07)">
       <defs>
        <path id="DejaVuSerif-31" d="M 909 0 
L 909 331 
L 1722 331 
L 1722 4213 
L 781 3603 
L 781 4013 
L 1919 4750 
L 2350 4750 
L 2350 331 
L 3163 331 
L 3163 0 
L 909 0 
z
" transform="scale(0.015625)"/>
       </defs>
       <use xlink:href="#DejaVuSerif-2212"/>
       <use xlink:href="#DejaVuSerif-31" x="83.789062"/>
       <use xlink:href="#DejaVuSerif-30" x="147.412109"/>
      </g>
     </g>
    </g>
    <g id="ytick_5">
     <g id="line2d_35">
      <path d="M 57.859219 67.591329 
L 225.019219 67.591329 
" clip-path="url(#p5f04f17706)" style="fill: none; stroke: #b0b0b0; stroke-width: 0.8; stroke-linecap: round"/>
     </g>
     <g id="line2d_36"/>
     <g id="text_10">
      <!-- 0 -->
      <g style="fill: #262626" transform="translate(49.905469 70.250782) scale(0.07 -0.07)">
       <use xlink:href="#DejaVuSerif-30"/>
      </g>
     </g>
    </g>
    <g id="ytick_6">
     <g id="line2d_37">
      <path d="M 57.859219 56.117982 
L 225.019219 56.117982 
" clip-path="url(#p5f04f17706)" style="fill: none; stroke: #b0b0b0; stroke-width: 0.8; stroke-linecap: round"/>
     </g>
     <g id="line2d_38"/>
     <g id="text_11">
      <!-- 10 -->
      <g style="fill: #262626" transform="translate(45.451719 58.777435) scale(0.07 -0.07)">
       <use xlink:href="#DejaVuSerif-31"/>
       <use xlink:href="#DejaVuSerif-30" x="63.623047"/>
      </g>
     </g>
    </g>
    <g id="text_12">
     <!-- $\psi$ $[deg]$ -->
     <g style="fill: #262626" transform="translate(22.98375 80.295) rotate(-90) scale(0.07 -0.07)">
      <defs>
       <path id="DejaVuSans-Oblique-3c8" d="M 1591 -78 
Q 891 38 616 341 
Q 278 713 425 1472 
L 819 3500 
L 1400 3500 
L 1009 1494 
Q 900 922 1119 684 
Q 1313 478 1691 434 
L 2284 3500 
L 2856 3500 
L 2263 438 
Q 2681 481 2928 688 
Q 3247 950 3353 1497 
L 3741 3500 
L 4322 3500 
L 3928 1475 
Q 3775 688 3300 344 
Q 2872 34 2163 -75 
L 1919 -1331 
L 1347 -1331 
L 1591 -78 
z
" transform="scale(0.015625)"/>
      </defs>
      <use xlink:href="#DejaVuSans-Oblique-3c8" transform="translate(0 0.015625)"/>
      <use xlink:href="#DejaVuSerif-20" transform="translate(65.966797 0.015625)"/>
      <use xlink:href="#DejaVuSans-5b" transform="translate(97.753906 0.015625)"/>
      <use xlink:href="#DejaVuSans-Oblique-64" transform="translate(136.767578 0.015625)"/>
      <use xlink:href="#DejaVuSans-Oblique-65" transform="translate(200.244141 0.015625)"/>
      <use xlink:href="#DejaVuSans-Oblique-67" transform="translate(261.767578 0.015625)"/>
      <use xlink:href="#DejaVuSans-5d" transform="translate(325.244141 0.015625)"/>
     </g>
    </g>
   </g>
   <g id="line2d_39">
    <path d="M 65.457401 67.591329 
L 68.259509 67.701744 
L 70.086972 68.022012 
L 72.279926 68.637887 
L 75.000814 69.640767 
L 78.452687 71.160406 
L 82.879207 73.364319 
L 88.564645 76.451758 
L 97.052192 81.103542 
L 98.554772 81.569121 
L 100.016742 81.782305 
L 101.681763 81.794148 
L 103.631056 81.579942 
L 105.945841 81.093524 
L 108.74795 80.266742 
L 112.159213 79.019597 
L 116.382681 77.230292 
L 121.418355 74.849338 
L 127.185013 71.869442 
L 134.21059 67.970987 
L 142.088983 63.349268 
L 151.063853 57.81989 
L 156.992953 54.218555 
L 158.617364 53.540405 
L 160.038723 53.182922 
L 161.622524 53.024011 
L 163.449986 53.071202 
L 165.60233 53.356562 
L 168.160777 53.928343 
L 171.247158 54.855846 
L 174.983303 56.220379 
L 179.409823 58.080288 
L 184.689158 60.550304 
L 190.455817 63.501837 
L 197.197122 67.207663 
L 205.197345 71.861145 
L 214.172215 77.352236 
L 216.893103 79.05964 
L 216.893103 79.05964 
" clip-path="url(#p5f04f17706)" style="fill: none; stroke: #0000ff; stroke-width: 0.6; stroke-linecap: round"/>
   </g>
   <g id="line2d_40">
    <path d="M 65.457401 67.591329 
L 68.259509 67.701523 
L 70.086972 68.020359 
L 72.320536 68.644037 
L 75.122645 69.669354 
L 78.81818 71.275527 
L 83.732023 73.668136 
L 90.513938 77.236011 
L 97.295854 80.778647 
L 98.879654 81.284861 
L 100.301014 81.505053 
L 101.884814 81.519615 
L 103.752887 81.307354 
L 105.986452 80.820633 
L 108.70734 79.990082 
L 112.159213 78.694612 
L 116.626343 76.769644 
L 122.271171 74.086222 
L 129.296748 70.48184 
L 138.231007 65.636046 
L 149.277001 59.376204 
L 158.292481 54.302745 
L 159.876282 53.750981 
L 161.297642 53.491727 
L 162.881442 53.434141 
L 164.749515 53.595627 
L 166.98308 54.023055 
L 169.663358 54.771396 
L 173.03401 55.955641 
L 177.298089 57.698961 
L 182.739865 60.173622 
L 188.953237 63.24487 
L 196.709798 67.336382 
L 206.456264 72.745414 
L 217.421037 79.042343 
L 217.421037 79.042343 
" clip-path="url(#p5f04f17706)" style="fill: none; stroke: #008000; stroke-width: 0.6; stroke-linecap: round"/>
   </g>
   <g id="line2d_41">
    <path d="M 65.457401 67.591329 
L 68.178289 67.699911 
L 70.005751 68.022559 
L 72.158095 68.636678 
L 74.838373 69.644835 
L 78.249636 71.180602 
L 82.757376 73.469972 
L 88.930138 76.870699 
L 96.158766 80.846753 
L 97.701956 81.360089 
L 99.082705 81.586819 
L 100.625896 81.604393 
L 102.412748 81.391261 
L 104.524482 80.905802 
L 107.082929 80.080693 
L 110.25053 78.814754 
L 114.230337 76.974289 
L 119.347231 74.353054 
L 126.210367 70.571268 
L 135.266457 65.311502 
L 149.683104 56.650585 
L 153.459859 54.488531 
L 155.08427 53.835965 
L 156.50563 53.505084 
L 157.967599 53.3995 
L 159.673231 53.507607 
L 161.663134 53.864254 
L 164.05914 54.528029 
L 167.02369 55.59239 
L 170.678614 57.151901 
L 175.226965 59.343751 
L 181.034234 62.401906 
L 188.790795 66.75342 
L 199.187025 72.85458 
L 209.502034 79.048734 
L 209.502034 79.048734 
" clip-path="url(#p5f04f17706)" style="fill: none; stroke: #ff0000; stroke-width: 0.6; stroke-linecap: round"/>
   </g>
   <g id="patch_6">
    <path d="M 57.859219 83.475 
L 57.859219 51.565 
" style="fill: none; stroke: #000000; stroke-linejoin: miter; stroke-linecap: square"/>
   </g>
   <g id="patch_7">
    <path d="M 57.859219 83.475 
L 225.019219 83.475 
" style="fill: none; stroke: #000000; stroke-linejoin: miter; stroke-linecap: square"/>
   </g>
  </g>
  <g id="axes_3">
   <g id="patch_8">
    <path d="M 57.859219 115.385 
L 225.019219 115.385 
L 225.019219 83.475 
L 57.859219 83.475 
z
" style="fill: #ffffff"/>
   </g>
   <g id="line2d_42">
    <path d="M 65.457401 99.942002 
L 66.063022 100.285387 
L 66.830141 100.999833 
L 67.920259 102.362784 
L 69.37375 104.171815 
L 70.74649 105.455273 
L 74.178343 108.398389 
L 75.833707 109.397675 
L 76.964199 109.781256 
L 78.538814 110.292813 
L 80.961298 111.271575 
L 83.383782 111.987212 
L 86.008139 112.456353 
L 87.421255 112.885835 
L 89.68224 113.293351 
L 91.90285 113.407219 
L 92.871844 113.286471 
L 93.477465 112.927678 
L 94.12346 112.254798 
L 94.930955 111.046428 
L 95.980698 109.03584 
L 97.393814 105.798988 
L 99.089552 102.011077 
L 100.462293 99.603946 
L 102.158032 97.250169 
L 103.450023 95.8573 
L 105.186137 94.347364 
L 107.648996 92.504215 
L 108.819863 91.761681 
L 111.928717 90.086672 
L 116.168064 88.555047 
L 118.186801 88.105211 
L 125.171629 87.293634 
L 126.948117 87.240277 
L 131.712336 86.137475 
L 134.255944 85.877011 
L 135.346062 85.630201 
L 138.253042 85.365021 
L 139.585409 85.445961 
L 141.160023 85.550405 
L 143.86513 85.374138 
L 146.489488 85.379029 
L 147.902603 85.485563 
L 151.697828 85.039539 
L 152.707196 85.173158 
L 153.474316 85.491885 
L 154.120312 86.020803 
L 155.250805 87.315186 
L 156.260173 88.780699 
L 157.148417 90.501375 
L 158.763406 94.246431 
L 159.934274 96.778747 
L 161.26664 99.113381 
L 162.72013 101.17521 
L 163.769873 102.297304 
L 165.465612 103.726226 
L 167.080601 104.784166 
L 168.614841 105.587598 
L 172.167817 108.018086 
L 173.540558 108.659281 
L 174.913299 109.080771 
L 176.124541 109.492002 
L 178.950772 110.618699 
L 180.606136 111.014755 
L 181.615505 111.018779 
L 182.867121 111.025213 
L 188.035087 111.663124 
L 189.892325 111.88621 
L 191.547689 112.255884 
L 194.29317 112.520651 
L 197.523149 112.875005 
L 199.945633 113.138262 
L 201.802871 113.091461 
L 203.821607 113.029496 
L 206.809337 113.420017 
L 208.303203 113.382261 
L 210.685312 113.175322 
L 213.390419 113.443439 
L 215.045783 113.378502 
L 216.014776 113.088873 
L 216.539648 112.717534 
L 216.862646 112.371526 
L 216.862646 112.371526 
" clip-path="url(#pec90df3797)" style="fill: none; stroke: #000000; stroke-width: 0.6; stroke-linecap: round"/>
   </g>
   <g id="matplotlib.axis_5">
    <g id="xtick_9">
     <g id="line2d_43">
      <path d="M 65.457401 115.385 
L 65.457401 83.475 
" clip-path="url(#pec90df3797)" style="fill: none; stroke: #b0b0b0; stroke-width: 0.8; stroke-linecap: round"/>
     </g>
     <g id="line2d_44"/>
     <g id="text_13">
      <!-- 0 -->
      <g style="fill: #262626" transform="translate(63.230526 124.203906) scale(0.07 -0.07)">
       <use xlink:href="#DejaVuSerif-30"/>
      </g>
     </g>
    </g>
    <g id="xtick_10">
     <g id="line2d_45">
      <path d="M 106.067672 115.385 
L 106.067672 83.475 
" clip-path="url(#pec90df3797)" style="fill: none; stroke: #b0b0b0; stroke-width: 0.8; stroke-linecap: round"/>
     </g>
     <g id="line2d_46"/>
     <g id="text_14">
      <!-- 10 -->
      <g style="fill: #262626" transform="translate(101.613922 124.203906) scale(0.07 -0.07)">
       <use xlink:href="#DejaVuSerif-31"/>
       <use xlink:href="#DejaVuSerif-30" x="63.623047"/>
      </g>
     </g>
    </g>
    <g id="xtick_11">
     <g id="line2d_47">
      <path d="M 146.677944 115.385 
L 146.677944 83.475 
" clip-path="url(#pec90df3797)" style="fill: none; stroke: #b0b0b0; stroke-width: 0.8; stroke-linecap: round"/>
     </g>
     <g id="line2d_48"/>
     <g id="text_15">
      <!-- 20 -->
      <g style="fill: #262626" transform="translate(142.224194 124.203906) scale(0.07 -0.07)">
       <defs>
        <path id="DejaVuSerif-32" d="M 819 3553 
L 469 3553 
L 469 4384 
Q 803 4563 1142 4656 
Q 1481 4750 1806 4750 
Q 2534 4750 2956 4397 
Q 3378 4044 3378 3438 
Q 3378 2753 2422 1800 
Q 2347 1728 2309 1691 
L 1131 513 
L 3078 513 
L 3078 1088 
L 3444 1088 
L 3444 0 
L 434 0 
L 434 341 
L 1850 1753 
Q 2319 2222 2519 2614 
Q 2719 3006 2719 3438 
Q 2719 3909 2473 4175 
Q 2228 4441 1797 4441 
Q 1350 4441 1106 4219 
Q 863 3997 819 3553 
z
" transform="scale(0.015625)"/>
       </defs>
       <use xlink:href="#DejaVuSerif-32"/>
       <use xlink:href="#DejaVuSerif-30" x="63.623047"/>
      </g>
     </g>
    </g>
    <g id="xtick_12">
     <g id="line2d_49">
      <path d="M 187.288215 115.385 
L 187.288215 83.475 
" clip-path="url(#pec90df3797)" style="fill: none; stroke: #b0b0b0; stroke-width: 0.8; stroke-linecap: round"/>
     </g>
     <g id="line2d_50"/>
     <g id="text_16">
      <!-- 30 -->
      <g style="fill: #262626" transform="translate(182.834465 124.203906) scale(0.07 -0.07)">
       <defs>
        <path id="DejaVuSerif-33" d="M 622 4469 
Q 988 4606 1323 4678 
Q 1659 4750 1953 4750 
Q 2638 4750 3022 4454 
Q 3406 4159 3406 3634 
Q 3406 3213 3140 2930 
Q 2875 2647 2388 2547 
Q 2963 2466 3280 2130 
Q 3597 1794 3597 1259 
Q 3597 606 3158 257 
Q 2719 -91 1894 -91 
Q 1528 -91 1179 -12 
Q 831 66 488 225 
L 488 1131 
L 838 1131 
Q 869 681 1141 450 
Q 1413 219 1906 219 
Q 2384 219 2661 495 
Q 2938 772 2938 1253 
Q 2938 1803 2653 2086 
Q 2369 2369 1819 2369 
L 1522 2369 
L 1522 2688 
L 1678 2688 
Q 2225 2688 2498 2914 
Q 2772 3141 2772 3597 
Q 2772 4006 2547 4223 
Q 2322 4441 1900 4441 
Q 1478 4441 1245 4241 
Q 1013 4041 972 3647 
L 622 3647 
L 622 4469 
z
" transform="scale(0.015625)"/>
       </defs>
       <use xlink:href="#DejaVuSerif-33"/>
       <use xlink:href="#DejaVuSerif-30" x="63.623047"/>
      </g>
     </g>
    </g>
    <g id="text_17">
     <!-- Time [s] -->
     <g style="fill: #262626" transform="translate(126.955234 134.978594) scale(0.07 -0.07)">
      <defs>
       <path id="DejaVuSerif-54" d="M 1222 0 
L 1222 331 
L 1819 331 
L 1819 4294 
L 447 4294 
L 447 3566 
L 63 3566 
L 63 4666 
L 4206 4666 
L 4206 3566 
L 3822 3566 
L 3822 4294 
L 2450 4294 
L 2450 331 
L 3047 331 
L 3047 0 
L 1222 0 
z
" transform="scale(0.015625)"/>
       <path id="DejaVuSerif-5b" d="M 550 4863 
L 2003 4863 
L 2003 4531 
L 1147 4531 
L 1147 -513 
L 2003 -513 
L 2003 -844 
L 550 -844 
L 550 4863 
z
" transform="scale(0.015625)"/>
       <path id="DejaVuSerif-5d" d="M 1947 4863 
L 1947 -844 
L 494 -844 
L 494 -513 
L 1350 -513 
L 1350 4531 
L 494 4531 
L 494 4863 
L 1947 4863 
z
" transform="scale(0.015625)"/>
      </defs>
      <use xlink:href="#DejaVuSerif-54"/>
      <use xlink:href="#DejaVuSerif-69" x="66.699219"/>
      <use xlink:href="#DejaVuSerif-6d" x="98.681641"/>
      <use xlink:href="#DejaVuSerif-65" x="193.505859"/>
      <use xlink:href="#DejaVuSerif-20" x="252.685547"/>
      <use xlink:href="#DejaVuSerif-5b" x="284.472656"/>
      <use xlink:href="#DejaVuSerif-73" x="323.486328"/>
      <use xlink:href="#DejaVuSerif-5d" x="374.804688"/>
     </g>
    </g>
   </g>
   <g id="matplotlib.axis_6">
    <g id="ytick_7">
     <g id="line2d_51">
      <path d="M 57.859219 108.748339 
L 225.019219 108.748339 
" clip-path="url(#pec90df3797)" style="fill: none; stroke: #b0b0b0; stroke-width: 0.8; stroke-linecap: round"/>
     </g>
     <g id="line2d_52"/>
     <g id="text_18">
      <!-- −0.025 -->
      <g style="fill: #262626" transform="translate(28.45375 111.407792) scale(0.07 -0.07)">
       <defs>
        <path id="DejaVuSerif-2e" d="M 603 325 
Q 603 500 722 622 
Q 841 744 1019 744 
Q 1191 744 1312 622 
Q 1434 500 1434 325 
Q 1434 153 1312 31 
Q 1191 -91 1019 -91 
Q 841 -91 722 29 
Q 603 150 603 325 
z
" transform="scale(0.015625)"/>
       </defs>
       <use xlink:href="#DejaVuSerif-2212"/>
       <use xlink:href="#DejaVuSerif-30" x="83.789062"/>
       <use xlink:href="#DejaVuSerif-2e" x="147.412109"/>
       <use xlink:href="#DejaVuSerif-30" x="179.199219"/>
       <use xlink:href="#DejaVuSerif-32" x="242.822266"/>
       <use xlink:href="#DejaVuSerif-35" x="306.445312"/>
      </g>
     </g>
    </g>
    <g id="ytick_8">
     <g id="line2d_53">
      <path d="M 57.859219 99.47882 
L 225.019219 99.47882 
" clip-path="url(#pec90df3797)" style="fill: none; stroke: #b0b0b0; stroke-width: 0.8; stroke-linecap: round"/>
     </g>
     <g id="line2d_54"/>
     <g id="text_19">
      <!-- 0.000 -->
      <g style="fill: #262626" transform="translate(34.319531 102.138273) scale(0.07 -0.07)">
       <use xlink:href="#DejaVuSerif-30"/>
       <use xlink:href="#DejaVuSerif-2e" x="63.623047"/>
       <use xlink:href="#DejaVuSerif-30" x="95.410156"/>
       <use xlink:href="#DejaVuSerif-30" x="159.033203"/>
       <use xlink:href="#DejaVuSerif-30" x="222.65625"/>
      </g>
     </g>
    </g>
    <g id="ytick_9">
     <g id="line2d_55">
      <path d="M 57.859219 90.209301 
L 225.019219 90.209301 
" clip-path="url(#pec90df3797)" style="fill: none; stroke: #b0b0b0; stroke-width: 0.8; stroke-linecap: round"/>
     </g>
     <g id="line2d_56"/>
     <g id="text_20">
      <!-- 0.025 -->
      <g style="fill: #262626" transform="translate(34.319531 92.868754) scale(0.07 -0.07)">
       <use xlink:href="#DejaVuSerif-30"/>
       <use xlink:href="#DejaVuSerif-2e" x="63.623047"/>
       <use xlink:href="#DejaVuSerif-30" x="95.410156"/>
       <use xlink:href="#DejaVuSerif-32" x="159.033203"/>
       <use xlink:href="#DejaVuSerif-35" x="222.65625"/>
      </g>
     </g>
    </g>
    <g id="text_21">
     <!-- $r$ $[rad/s]$ -->
     <g style="fill: #262626" transform="translate(22.997969 113.535) rotate(-90) scale(0.07 -0.07)">
      <defs>
       <path id="DejaVuSans-Oblique-72" d="M 2853 2969 
Q 2766 3016 2653 3041 
Q 2541 3066 2413 3066 
Q 1953 3066 1609 2717 
Q 1266 2369 1153 1784 
L 800 0 
L 225 0 
L 909 3500 
L 1484 3500 
L 1375 2956 
Q 1603 3259 1920 3421 
Q 2238 3584 2597 3584 
Q 2691 3584 2781 3573 
Q 2872 3563 2963 3538 
L 2853 2969 
z
" transform="scale(0.015625)"/>
       <path id="DejaVuSans-Oblique-61" d="M 3438 1997 
L 3047 0 
L 2472 0 
L 2578 531 
Q 2325 219 2001 64 
Q 1678 -91 1281 -91 
Q 834 -91 548 182 
Q 263 456 263 884 
Q 263 1497 752 1853 
Q 1241 2209 2100 2209 
L 2900 2209 
L 2931 2363 
Q 2938 2388 2941 2417 
Q 2944 2447 2944 2509 
Q 2944 2788 2717 2942 
Q 2491 3097 2081 3097 
Q 1800 3097 1504 3025 
Q 1209 2953 897 2809 
L 997 3341 
Q 1322 3463 1633 3523 
Q 1944 3584 2234 3584 
Q 2853 3584 3176 3315 
Q 3500 3047 3500 2534 
Q 3500 2431 3484 2292 
Q 3469 2153 3438 1997 
z
M 2816 1759 
L 2241 1759 
Q 1534 1759 1195 1570 
Q 856 1381 856 984 
Q 856 709 1029 553 
Q 1203 397 1509 397 
Q 1978 397 2328 733 
Q 2678 1069 2791 1631 
L 2816 1759 
z
" transform="scale(0.015625)"/>
       <path id="DejaVuSans-2f" d="M 1625 4666 
L 2156 4666 
L 531 -594 
L 0 -594 
L 1625 4666 
z
" transform="scale(0.015625)"/>
       <path id="DejaVuSans-Oblique-73" d="M 3200 3397 
L 3091 2853 
Q 2863 2978 2609 3040 
Q 2356 3103 2088 3103 
Q 1634 3103 1373 2948 
Q 1113 2794 1113 2528 
Q 1113 2219 1719 2053 
Q 1766 2041 1788 2034 
L 1972 1978 
Q 2547 1819 2739 1644 
Q 2931 1469 2931 1166 
Q 2931 609 2489 259 
Q 2047 -91 1331 -91 
Q 1053 -91 747 -37 
Q 441 16 72 128 
L 184 722 
Q 500 559 806 475 
Q 1113 391 1394 391 
Q 1816 391 2080 572 
Q 2344 753 2344 1031 
Q 2344 1331 1650 1516 
L 1591 1531 
L 1394 1581 
Q 956 1697 753 1886 
Q 550 2075 550 2369 
Q 550 2928 970 3256 
Q 1391 3584 2113 3584 
Q 2397 3584 2667 3537 
Q 2938 3491 3200 3397 
z
" transform="scale(0.015625)"/>
      </defs>
      <use xlink:href="#DejaVuSans-Oblique-72" transform="translate(0 0.015625)"/>
      <use xlink:href="#DejaVuSerif-20" transform="translate(41.113281 0.015625)"/>
      <use xlink:href="#DejaVuSans-5b" transform="translate(72.900391 0.015625)"/>
      <use xlink:href="#DejaVuSans-Oblique-72" transform="translate(111.914062 0.015625)"/>
      <use xlink:href="#DejaVuSans-Oblique-61" transform="translate(153.027344 0.015625)"/>
      <use xlink:href="#DejaVuSans-Oblique-64" transform="translate(214.306641 0.015625)"/>
      <use xlink:href="#DejaVuSans-2f" transform="translate(277.783203 0.015625)"/>
      <use xlink:href="#DejaVuSans-Oblique-73" transform="translate(311.474609 0.015625)"/>
      <use xlink:href="#DejaVuSans-5d" transform="translate(363.574219 0.015625)"/>
     </g>
    </g>
   </g>
   <g id="line2d_57">
    <path d="M 65.457401 99.47882 
L 66.025944 99.598821 
L 66.635098 99.976461 
L 67.284863 100.643776 
L 68.097068 101.825199 
L 69.559038 104.062732 
L 70.817956 105.569022 
L 72.158095 106.84114 
L 73.741896 108.016753 
L 75.528748 109.040988 
L 77.518651 109.903636 
L 79.874047 110.693055 
L 82.554325 111.344948 
L 87.508778 112.215761 
L 92.788113 112.834769 
L 93.600319 112.823653 
L 94.168863 112.576472 
L 94.778017 112.061786 
L 95.549612 111.110916 
L 96.443038 109.607985 
L 97.458295 107.444691 
L 98.717213 104.202002 
L 99.81369 101.590079 
L 100.950778 99.429567 
L 102.169086 97.569242 
L 103.549835 95.8763 
L 104.849364 94.582217 
L 106.433165 93.2988 
L 108.016965 92.29469 
L 109.885038 91.332613 
L 112.118603 90.433445 
L 115.083152 89.528644 
L 120.64676 88.289235 
L 126.291587 87.309399 
L 131.570923 86.655586 
L 136.484766 86.186062 
L 148.586627 85.213767 
L 154.150234 84.968458 
L 154.718778 85.21882 
L 155.409152 85.810029 
L 156.140137 86.745476 
L 157.033563 88.263291 
L 158.08943 90.525804 
L 159.307738 93.690898 
L 160.404216 96.34174 
L 161.541303 98.534221 
L 162.800222 100.477652 
L 164.09975 102.088432 
L 165.60233 103.581155 
L 167.267351 104.903577 
L 168.810542 105.901116 
L 170.922276 106.977269 
L 173.03401 107.833612 
L 176.404663 108.907296 
L 180.140808 109.822256 
L 188.262862 111.329198 
L 198.37482 112.550876 
L 207.34969 113.358974 
L 211.410717 113.595726 
L 216.893103 113.934545 
L 216.893103 113.934545 
" clip-path="url(#pec90df3797)" style="fill: none; stroke: #0000ff; stroke-width: 0.6; stroke-linecap: round"/>
   </g>
   <g id="line2d_58">
    <path d="M 65.457401 99.47882 
L 66.025944 99.598759 
L 66.635098 99.975904 
L 67.284863 100.641764 
L 68.097068 101.819318 
L 69.518428 103.985518 
L 70.777346 105.476712 
L 72.158095 106.771936 
L 73.579455 107.804796 
L 75.244476 108.735897 
L 76.909497 109.442824 
L 79.346113 110.210909 
L 82.188832 110.831527 
L 85.031551 111.297199 
L 88.483425 111.695138 
L 94.331304 112.064754 
L 94.899847 111.782622 
L 95.590222 111.17804 
L 96.321207 110.238219 
L 97.214633 108.701946 
L 98.2705 106.409829 
L 99.73247 102.626662 
L 100.828947 100.165087 
L 102.047255 97.987748 
L 103.265563 96.246113 
L 104.605702 94.719293 
L 106.148893 93.321009 
L 107.692083 92.231809 
L 109.478935 91.271677 
L 111.509449 90.44577 
L 114.067896 89.660019 
L 116.545122 89.106884 
L 119.509672 88.578005 
L 125.276331 87.770229 
L 130.758717 87.25762 
L 140.383352 86.635439 
L 155.530983 86.196207 
L 156.180747 86.626453 
L 156.871122 87.377984 
L 157.683327 88.607978 
L 158.657974 90.501342 
L 159.795062 93.21229 
L 161.744355 98.003946 
L 162.881442 100.083019 
L 164.180971 101.986287 
L 165.4805 103.504926 
L 166.861249 104.795544 
L 168.60749 106.100019 
L 170.272512 107.049256 
L 172.424856 107.99285 
L 175.145744 108.86234 
L 177.58236 109.442956 
L 181.602777 110.165328 
L 189.39995 111.234975 
L 195.938203 111.837275 
L 203.329273 112.309196 
L 210.233019 112.584224 
L 214.82198 112.729459 
L 217.421037 112.820923 
L 217.421037 112.820923 
" clip-path="url(#pec90df3797)" style="fill: none; stroke: #008000; stroke-width: 0.6; stroke-linecap: round"/>
   </g>
   <g id="line2d_59">
    <path d="M 65.457401 99.47882 
L 65.985334 99.593048 
L 66.553878 99.954322 
L 67.244253 100.682328 
L 68.097068 101.950665 
L 69.518428 104.16775 
L 70.817956 105.765608 
L 72.198706 107.113547 
L 73.701286 108.268 
L 75.325697 109.239606 
L 77.234379 110.109989 
L 79.346113 110.828913 
L 81.82334 111.439922 
L 85.234603 112.03773 
L 89.458071 112.517641 
L 93.072385 112.739538 
L 93.640929 112.512262 
L 94.209473 112.047372 
L 94.899847 111.188379 
L 95.752663 109.742313 
L 96.76792 107.529921 
L 98.067449 104.12408 
L 99.366977 100.764489 
L 100.544675 98.349937 
L 101.762983 96.343489 
L 103.062512 94.637077 
L 104.443261 93.197881 
L 105.945841 91.955707 
L 107.651473 90.841485 
L 109.560156 89.8737 
L 111.7125 89.033585 
L 114.230337 88.298717 
L 117.479159 87.590768 
L 121.052862 87.043412 
L 126.291587 86.492072 
L 132.058246 86.080701 
L 139.489926 85.773972 
L 148.505406 85.609395 
L 151.063853 85.692158 
L 151.673007 86.059068 
L 152.322772 86.727295 
L 153.094367 87.864011 
L 153.987793 89.594703 
L 155.12488 92.322905 
L 157.886379 99.249512 
L 159.104687 101.434161 
L 160.363605 103.236854 
L 161.744355 104.816572 
L 163.165714 106.110909 
L 164.790125 107.279495 
L 166.576977 108.284488 
L 168.729321 109.230709 
L 171.125327 110.039875 
L 174.130487 110.814573 
L 177.622971 111.48091 
L 181.96827 112.061073 
L 187.328826 112.537229 
L 194.801116 112.978023 
L 203.126221 113.218323 
L 209.502034 113.30921 
L 209.502034 113.30921 
" clip-path="url(#pec90df3797)" style="fill: none; stroke: #ff0000; stroke-width: 0.6; stroke-linecap: round"/>
   </g>
   <g id="patch_9">
    <path d="M 57.859219 115.385 
L 57.859219 83.475 
" style="fill: none; stroke: #000000; stroke-linejoin: miter; stroke-linecap: square"/>
   </g>
   <g id="patch_10">
    <path d="M 57.859219 115.385 
L 225.019219 115.385 
" style="fill: none; stroke: #000000; stroke-linejoin: miter; stroke-linecap: square"/>
   </g>
  </g>
 </g>
 <defs>
  <clipPath id="p3924221909">
   <rect x="57.859219" y="19.655" width="167.16" height="31.91"/>
  </clipPath>
  <clipPath id="p5f04f17706">
   <rect x="57.859219" y="51.565" width="167.16" height="31.91"/>
  </clipPath>
  <clipPath id="pec90df3797">
   <rect x="57.859219" y="83.475" width="167.16" height="31.91"/>
  </clipPath>
 </defs>
</svg>
