<?xml version="1.0" encoding="utf-8" standalone="no"?>
<!DOCTYPE svg PUBLIC "-//W3C//DTD SVG 1.1//EN"
  "http://www.w3.org/Graphics/SVG/1.1/DTD/svg11.dtd">
<svg xmlns:xlink="http://www.w3.org/1999/xlink" width="511.725781pt" height="339.531875pt" viewBox="0 0 511.725781 339.531875" xmlns="http://www.w3.org/2000/svg" version="1.1">
 <metadata>
  <rdf:RDF xmlns:dc="http://purl.org/dc/elements/1.1/" xmlns:cc="http://creativecommons.org/ns#" xmlns:rdf="http://www.w3.org/1999/02/22-rdf-syntax-ns#">
   <cc:Work>
    <dc:type rdf:resource="http://purl.org/dc/dcmitype/StillImage"/>
    <dc:date>2024-02-01T17:42:33.770746</dc:date>
    <dc:format>image/svg+xml</dc:format>
    <dc:creator>
     <cc:Agent>
      <dc:title>Matplotlib v3.8.2, https://matplotlib.org/</dc:title>
     </cc:Agent>
    </dc:creator>
   </cc:Work>
  </rdf:RDF>
 </metadata>
 <defs>
  <style type="text/css">*{stroke-linejoin: round; stroke-linecap: butt}</style>
 </defs>
 <g id="figure_1">
  <g id="patch_1">
   <path d="M 0 339.531875 
L 511.725781 339.531875 
L 511.725781 0 
L 0 0 
z
" style="fill: #ffffff"/>
  </g>
  <g id="axes_1">
   <g id="patch_2">
    <path d="M 59.055781 105.98 
L 504.525781 105.98 
L 504.525781 7.2 
L 59.055781 7.2 
z
" style="fill: #ffffff"/>
   </g>
   <g id="line2d_1">
    <path d="M 79.304418 56.782233 
L 81.896543 56.824752 
L 83.624626 57.082746 
L 85.352709 57.587147 
L 87.368807 58.413527 
L 91.881024 60.563594 
L 97.545298 63.819318 
L 102.057516 65.934571 
L 105.129664 67.671511 
L 108.77784 70.135644 
L 113.866085 73.692466 
L 117.034238 75.249091 
L 120.298396 76.492068 
L 123.946572 77.908776 
L 126.442692 79.241125 
L 132.20297 82.464718 
L 134.603086 83.452338 
L 137.675234 84.576252 
L 139.691331 85.292844 
L 141.419415 85.791823 
L 144.683572 86.779825 
L 148.811772 88.288247 
L 150.539855 88.605392 
L 152.075929 88.684043 
L 153.612003 88.602377 
L 157.06817 88.10391 
L 159.276276 87.545104 
L 162.828448 86.145094 
L 165.132559 84.848406 
L 168.68473 82.545368 
L 170.604823 81.031554 
L 172.140897 79.641709 
L 174.925032 76.787366 
L 176.845124 74.87733 
L 180.685309 71.564985 
L 182.797411 69.671765 
L 185.389536 67.232901 
L 192.589884 60.748544 
L 194.701986 58.793179 
L 197.48612 56.477904 
L 200.846282 54.093214 
L 211.79081 46.910265 
L 213.326885 45.777591 
L 215.150973 44.754736 
L 219.8552 42.269771 
L 222.543329 41.26292 
L 224.559427 40.562373 
L 227.631575 39.159825 
L 232.91183 36.615121 
L 241.264233 33.164441 
L 246.352478 31.630874 
L 248.656589 31.1088 
L 251.344719 30.080435 
L 254.032849 29.051122 
L 261.425205 26.679377 
L 265.937423 25.642632 
L 267.761511 25.236426 
L 271.409687 24.100431 
L 274.289826 23.379991 
L 278.322021 22.556484 
L 281.586178 22.027791 
L 289.266549 20.375213 
L 291.954679 19.833681 
L 295.026827 19.285349 
L 296.946919 19.106835 
L 298.963017 18.81869 
L 307.987452 17.660552 
L 311.347614 17.213246 
L 313.74773 16.85169 
L 316.531864 16.614635 
L 318.451957 16.779321 
L 320.852073 17.240968 
L 322.100133 17.707182 
L 324.692258 18.914484 
L 327.668402 20.325748 
L 331.220573 21.73156 
L 333.23667 22.773037 
L 334.580735 23.664182 
L 336.500828 25.259073 
L 338.228911 26.885922 
L 340.725032 29.403935 
L 342.645124 31.75568 
L 345.429259 35.06088 
L 347.253347 36.999074 
L 348.885426 38.350238 
L 353.781662 42.303731 
L 356.181778 44.879424 
L 359.829954 48.59907 
L 363.28612 51.711087 
L 368.182357 55.663747 
L 371.35051 57.848141 
L 373.462611 59.313744 
L 376.438755 61.3201 
L 383.831112 66.112735 
L 387.575292 68.182105 
L 392.279519 70.403894 
L 396.791737 72.215328 
L 398.999844 73.100816 
L 401.015941 74.042233 
L 406.008182 76.422446 
L 409.464349 77.691539 
L 412.248483 78.464225 
L 427.705229 83.803038 
L 429.433312 84.361771 
L 431.545414 85.002822 
L 433.465507 85.464188 
L 442.009919 87.541638 
L 446.906155 88.886074 
L 450.266317 89.46141 
L 453.146456 90.059115 
L 456.506619 90.739566 
L 459.290753 91.217791 
L 462.170892 91.704858 
L 466.107082 92.277599 
L 467.835165 92.582759 
L 470.043272 92.997003 
L 473.595443 93.494092 
L 475.419531 93.734714 
L 478.395675 94.044799 
L 483.963943 94.652035 
L 484.251957 94.69558 
L 484.251957 94.69558 
" clip-path="url(#p70aa7b3f2e)" style="fill: none; stroke: #000000; stroke-linecap: round"/>
   </g>
   <g id="matplotlib.axis_1">
    <g id="xtick_1">
     <g id="line2d_2">
      <path d="M 79.304418 105.98 
L 79.304418 7.2 
" clip-path="url(#p70aa7b3f2e)" style="fill: none; stroke: #b0b0b0; stroke-width: 0.8; stroke-linecap: round"/>
     </g>
     <g id="line2d_3"/>
    </g>
    <g id="xtick_2">
     <g id="line2d_4">
      <path d="M 175.95662 105.98 
L 175.95662 7.2 
" clip-path="url(#p70aa7b3f2e)" style="fill: none; stroke: #b0b0b0; stroke-width: 0.8; stroke-linecap: round"/>
     </g>
     <g id="line2d_5"/>
    </g>
    <g id="xtick_3">
     <g id="line2d_6">
      <path d="M 272.608822 105.98 
L 272.608822 7.2 
" clip-path="url(#p70aa7b3f2e)" style="fill: none; stroke: #b0b0b0; stroke-width: 0.8; stroke-linecap: round"/>
     </g>
     <g id="line2d_7"/>
    </g>
    <g id="xtick_4">
     <g id="line2d_8">
      <path d="M 369.261024 105.98 
L 369.261024 7.2 
" clip-path="url(#p70aa7b3f2e)" style="fill: none; stroke: #b0b0b0; stroke-width: 0.8; stroke-linecap: round"/>
     </g>
     <g id="line2d_9"/>
    </g>
    <g id="xtick_5">
     <g id="line2d_10">
      <path d="M 465.913226 105.98 
L 465.913226 7.2 
" clip-path="url(#p70aa7b3f2e)" style="fill: none; stroke: #b0b0b0; stroke-width: 0.8; stroke-linecap: round"/>
     </g>
     <g id="line2d_11"/>
    </g>
   </g>
   <g id="matplotlib.axis_2">
    <g id="ytick_1">
     <g id="line2d_12">
      <path d="M 59.055781 87.540177 
L 504.525781 87.540177 
" clip-path="url(#p70aa7b3f2e)" style="fill: none; stroke: #b0b0b0; stroke-width: 0.8; stroke-linecap: round"/>
     </g>
     <g id="line2d_13"/>
     <g id="text_1">
      <!-- −10 -->
      <g style="fill: #262626" transform="translate(32.340625 91.719318) scale(0.11 -0.11)">
       <defs>
        <path id="DejaVuSerif-2212" d="M 678 2259 
L 4684 2259 
L 4684 1753 
L 678 1753 
L 678 2259 
z
" transform="scale(0.015625)"/>
        <path id="DejaVuSerif-31" d="M 909 0 
L 909 331 
L 1722 331 
L 1722 4213 
L 781 3603 
L 781 4013 
L 1919 4750 
L 2350 4750 
L 2350 331 
L 3163 331 
L 3163 0 
L 909 0 
z
" transform="scale(0.015625)"/>
        <path id="DejaVuSerif-30" d="M 2034 219 
Q 2513 219 2750 744 
Q 2988 1269 2988 2328 
Q 2988 3391 2750 3916 
Q 2513 4441 2034 4441 
Q 1556 4441 1318 3916 
Q 1081 3391 1081 2328 
Q 1081 1269 1318 744 
Q 1556 219 2034 219 
z
M 2034 -91 
Q 1275 -91 848 546 
Q 422 1184 422 2328 
Q 422 3475 848 4112 
Q 1275 4750 2034 4750 
Q 2797 4750 3222 4112 
Q 3647 3475 3647 2328 
Q 3647 1184 3222 546 
Q 2797 -91 2034 -91 
z
" transform="scale(0.015625)"/>
       </defs>
       <use xlink:href="#DejaVuSerif-2212"/>
       <use xlink:href="#DejaVuSerif-31" x="83.789062"/>
       <use xlink:href="#DejaVuSerif-30" x="147.412109"/>
      </g>
     </g>
    </g>
    <g id="ytick_2">
     <g id="line2d_14">
      <path d="M 59.055781 56.807782 
L 504.525781 56.807782 
" clip-path="url(#p70aa7b3f2e)" style="fill: none; stroke: #b0b0b0; stroke-width: 0.8; stroke-linecap: round"/>
     </g>
     <g id="line2d_15"/>
     <g id="text_2">
      <!-- 0 -->
      <g style="fill: #262626" transform="translate(48.557031 60.986922) scale(0.11 -0.11)">
       <use xlink:href="#DejaVuSerif-30"/>
      </g>
     </g>
    </g>
    <g id="ytick_3">
     <g id="line2d_16">
      <path d="M 59.055781 26.075386 
L 504.525781 26.075386 
" clip-path="url(#p70aa7b3f2e)" style="fill: none; stroke: #b0b0b0; stroke-width: 0.8; stroke-linecap: round"/>
     </g>
     <g id="line2d_17"/>
     <g id="text_3">
      <!-- 10 -->
      <g style="fill: #262626" transform="translate(41.558281 30.254527) scale(0.11 -0.11)">
       <use xlink:href="#DejaVuSerif-31"/>
       <use xlink:href="#DejaVuSerif-30" x="63.623047"/>
      </g>
     </g>
    </g>
    <g id="text_4">
     <!-- $\beta$ $[deg]$ -->
     <g style="fill: #262626" transform="translate(26.030625 76.555) rotate(-90) scale(0.11 -0.11)">
      <defs>
       <path id="DejaVuSans-Oblique-3b2" d="M 872 216 
L 572 -1331 
L -6 -1331 
L 928 3478 
Q 1206 4903 2538 4903 
Q 3888 4903 3659 3700 
Q 3503 2844 2894 2531 
Q 3713 2250 3553 1416 
Q 3272 -69 1759 -66 
Q 1097 -63 872 216 
z
M 1019 966 
Q 1259 422 1875 425 
Q 2775 425 2966 1406 
Q 3138 2288 1675 2219 
L 1778 2750 
Q 2909 2731 3106 3750 
Q 3241 4438 2509 4434 
Q 1691 4434 1503 3459 
L 1019 966 
z
" transform="scale(0.015625)"/>
       <path id="DejaVuSerif-20" transform="scale(0.015625)"/>
       <path id="DejaVuSans-5b" d="M 550 4863 
L 1875 4863 
L 1875 4416 
L 1125 4416 
L 1125 -397 
L 1875 -397 
L 1875 -844 
L 550 -844 
L 550 4863 
z
" transform="scale(0.015625)"/>
       <path id="DejaVuSans-Oblique-64" d="M 2675 525 
Q 2444 222 2128 65 
Q 1813 -91 1428 -91 
Q 903 -91 598 267 
Q 294 625 294 1247 
Q 294 1766 478 2236 
Q 663 2706 1013 3078 
Q 1244 3325 1534 3454 
Q 1825 3584 2144 3584 
Q 2481 3584 2739 3421 
Q 2997 3259 3138 2956 
L 3513 4863 
L 4091 4863 
L 3144 0 
L 2566 0 
L 2675 525 
z
M 891 1350 
Q 891 897 1095 644 
Q 1300 391 1663 391 
Q 1931 391 2161 520 
Q 2391 650 2566 903 
Q 2750 1166 2856 1509 
Q 2963 1853 2963 2188 
Q 2963 2622 2758 2865 
Q 2553 3109 2194 3109 
Q 1922 3109 1687 2981 
Q 1453 2853 1288 2613 
Q 1106 2353 998 2009 
Q 891 1666 891 1350 
z
" transform="scale(0.015625)"/>
       <path id="DejaVuSans-Oblique-65" d="M 3078 2063 
Q 3088 2113 3092 2166 
Q 3097 2219 3097 2272 
Q 3097 2653 2873 2875 
Q 2650 3097 2266 3097 
Q 1838 3097 1509 2826 
Q 1181 2556 1013 2059 
L 3078 2063 
z
M 3578 1613 
L 903 1613 
Q 884 1494 878 1425 
Q 872 1356 872 1306 
Q 872 872 1139 634 
Q 1406 397 1894 397 
Q 2269 397 2603 481 
Q 2938 566 3225 728 
L 3116 159 
Q 2806 34 2476 -28 
Q 2147 -91 1806 -91 
Q 1078 -91 686 257 
Q 294 606 294 1247 
Q 294 1794 489 2264 
Q 684 2734 1063 3103 
Q 1306 3334 1642 3459 
Q 1978 3584 2356 3584 
Q 2950 3584 3301 3228 
Q 3653 2872 3653 2272 
Q 3653 2128 3634 1964 
Q 3616 1800 3578 1613 
z
" transform="scale(0.015625)"/>
       <path id="DejaVuSans-Oblique-67" d="M 3816 3500 
L 3219 434 
Q 3047 -456 2561 -893 
Q 2075 -1331 1253 -1331 
Q 950 -1331 690 -1286 
Q 431 -1241 206 -1147 
L 313 -588 
Q 525 -725 762 -790 
Q 1000 -856 1269 -856 
Q 1816 -856 2167 -557 
Q 2519 -259 2631 300 
L 2681 563 
Q 2441 288 2122 144 
Q 1803 0 1434 0 
Q 903 0 598 351 
Q 294 703 294 1319 
Q 294 1803 478 2267 
Q 663 2731 997 3091 
Q 1219 3328 1514 3456 
Q 1809 3584 2131 3584 
Q 2484 3584 2746 3420 
Q 3009 3256 3138 2956 
L 3238 3500 
L 3816 3500 
z
M 2950 2216 
Q 2950 2641 2750 2872 
Q 2550 3103 2181 3103 
Q 1953 3103 1747 3012 
Q 1541 2922 1394 2759 
Q 1156 2491 1023 2127 
Q 891 1763 891 1375 
Q 891 944 1092 712 
Q 1294 481 1672 481 
Q 2219 481 2584 976 
Q 2950 1472 2950 2216 
z
" transform="scale(0.015625)"/>
       <path id="DejaVuSans-5d" d="M 1947 4863 
L 1947 -844 
L 622 -844 
L 622 -397 
L 1369 -397 
L 1369 4416 
L 622 4416 
L 622 4863 
L 1947 4863 
z
" transform="scale(0.015625)"/>
      </defs>
      <use xlink:href="#DejaVuSans-Oblique-3b2" transform="translate(0 0.390625)"/>
      <use xlink:href="#DejaVuSerif-20" transform="translate(63.818359 0.390625)"/>
      <use xlink:href="#DejaVuSans-5b" transform="translate(95.605469 0.390625)"/>
      <use xlink:href="#DejaVuSans-Oblique-64" transform="translate(134.619141 0.390625)"/>
      <use xlink:href="#DejaVuSans-Oblique-65" transform="translate(198.095703 0.390625)"/>
      <use xlink:href="#DejaVuSans-Oblique-67" transform="translate(259.619141 0.390625)"/>
      <use xlink:href="#DejaVuSans-5d" transform="translate(323.095703 0.390625)"/>
     </g>
    </g>
   </g>
   <g id="line2d_18">
    <path d="M 79.304418 56.807782 
L 81.817375 56.918793 
L 84.23368 57.250065 
L 86.553333 57.795382 
L 88.776333 58.542159 
L 91.095986 59.55592 
L 94.76877 61.470682 
L 117.965298 73.805402 
L 125.50417 77.412907 
L 132.366477 80.469364 
L 140.098653 83.66596 
L 147.540872 86.517117 
L 152.083526 88.07044 
L 154.209874 88.532741 
L 156.336223 88.766075 
L 158.365919 88.769962 
L 160.395615 88.558044 
L 162.521964 88.114361 
L 164.648312 87.444753 
L 166.871313 86.506654 
L 169.190966 85.283043 
L 171.510619 83.803242 
L 174.023576 81.938633 
L 177.696359 78.882338 
L 192.967407 66.110088 
L 199.346453 61.144678 
L 205.435542 56.691481 
L 211.814587 52.332169 
L 218.000328 48.37177 
L 223.606156 45.036829 
L 229.695244 41.659738 
L 236.07429 38.371975 
L 243.033248 35.039526 
L 250.088859 31.902987 
L 257.434426 28.889436 
L 265.06995 25.997831 
L 273.478692 23.058521 
L 281.984086 20.324492 
L 291.552654 17.492336 
L 300.541308 15.077129 
L 310.593138 12.611241 
L 314.265921 11.853723 
L 316.295617 11.694701 
L 318.325314 11.75642 
L 320.35501 12.035813 
L 322.481358 12.552852 
L 324.607707 13.300425 
L 326.830707 14.322292 
L 329.247013 15.690372 
L 331.75997 17.376489 
L 334.369579 19.405456 
L 337.172493 21.880189 
L 358.242673 41.241929 
L 364.138458 46.233965 
L 369.93759 50.83439 
L 375.833374 55.22959 
L 381.632506 59.285727 
L 388.108204 63.54003 
L 393.810684 67.046287 
L 399.513164 70.300686 
L 405.892209 73.684111 
L 413.141124 77.270407 
L 420.776648 80.776057 
L 427.638954 83.684747 
L 435.177826 86.649502 
L 443.489916 89.669074 
L 452.188614 92.586061 
L 460.500703 95.146716 
L 470.745837 98.055953 
L 480.314405 100.520601 
L 484.277145 101.49 
L 484.277145 101.49 
" clip-path="url(#p70aa7b3f2e)" style="fill: none; stroke: #0000ff; stroke-linecap: round"/>
   </g>
   <g id="line2d_19">
    <path d="M 79.304418 56.807782 
L 81.817375 56.918674 
L 84.23368 57.249168 
L 86.553333 57.792533 
L 88.872986 58.573106 
L 91.192638 59.590187 
L 95.155379 61.646704 
L 112.456123 70.724428 
L 119.898343 74.273507 
L 126.663997 77.255745 
L 133.429651 79.993889 
L 140.775218 82.708292 
L 147.347568 84.939997 
L 153.243352 86.738473 
L 155.466353 87.151832 
L 157.592701 87.326534 
L 159.71905 87.28319 
L 161.845398 87.015776 
L 163.971747 86.517457 
L 166.194747 85.762707 
L 168.5144 84.729704 
L 170.834053 83.44831 
L 173.250358 81.854678 
L 175.763315 79.929252 
L 179.532751 76.729786 
L 192.097538 66.016221 
L 197.993322 61.321891 
L 203.309193 57.347466 
L 208.721716 53.575882 
L 214.617501 49.735214 
L 219.933372 46.523131 
L 225.5392 43.413826 
L 231.338332 40.451038 
L 237.42742 37.589347 
L 243.806466 34.828075 
L 250.282163 32.258612 
L 257.434426 29.664507 
L 264.586689 27.301595 
L 272.51217 24.917295 
L 281.597477 22.428245 
L 290.779436 20.144336 
L 300.734613 17.913084 
L 311.656312 15.698139 
L 316.295617 14.908471 
L 318.421966 14.815033 
L 320.548314 14.945562 
L 322.674663 15.300297 
L 324.897663 15.90775 
L 327.120664 16.746421 
L 329.440317 17.864979 
L 331.856622 19.28527 
L 334.369579 21.028373 
L 336.882537 23.039004 
L 339.878755 25.738886 
L 358.725934 43.255136 
L 364.621719 48.298897 
L 369.744285 52.376929 
L 375.446765 56.632497 
L 381.052593 60.521535 
L 386.755073 64.204986 
L 392.264248 67.511499 
L 397.870076 70.610594 
L 403.475904 73.455907 
L 409.46834 76.258453 
L 416.04069 79.08228 
L 423.096301 81.872462 
L 430.731825 84.632844 
L 437.884088 86.983093 
L 446.389482 89.54156 
L 454.991528 91.892489 
L 464.366791 94.193407 
L 474.901881 96.547962 
L 484.277145 98.44116 
L 484.277145 98.44116 
" clip-path="url(#p70aa7b3f2e)" style="fill: none; stroke: #008000; stroke-linecap: round"/>
   </g>
   <g id="line2d_20">
    <path d="M 79.304418 56.807782 
L 82.203984 56.922221 
L 84.716941 57.243305 
L 86.939942 57.742407 
L 88.969638 58.411428 
L 90.999334 59.309229 
L 93.125683 60.503837 
L 102.984207 66.145696 
L 111.102992 70.538112 
L 118.351907 74.213767 
L 125.407518 77.540537 
L 132.269824 80.530195 
L 139.035479 83.237365 
L 145.801133 85.708027 
L 151.600265 87.617613 
L 153.629961 88.034978 
L 155.563005 88.217775 
L 157.592701 88.191969 
L 159.622398 87.94313 
L 161.652094 87.464979 
L 163.68179 86.761617 
L 165.808139 85.789277 
L 168.031139 84.521481 
L 170.350792 82.934126 
L 172.767097 81.003438 
L 175.183402 78.797538 
L 179.339447 74.599052 
L 184.848622 69.247333 
L 190.164494 64.391037 
L 195.28706 60.011294 
L 200.409627 55.921193 
L 205.532194 52.113217 
L 210.65476 48.577454 
L 215.873979 45.247316 
L 221.286503 42.05669 
L 226.89233 39.00854 
L 232.498158 36.21087 
L 238.393942 33.518315 
L 244.483031 30.982638 
L 250.765424 28.609453 
L 257.531078 26.299661 
L 264.490037 24.162193 
L 271.6423 22.198907 
L 279.277824 20.346398 
L 287.299957 18.631281 
L 295.032133 17.19857 
L 304.407397 15.688972 
L 308.08018 15.244712 
L 310.109876 15.272536 
L 312.139573 15.522008 
L 314.169269 15.995463 
L 316.295617 16.72216 
L 318.421966 17.688704 
L 320.644967 18.936555 
L 322.964619 20.492696 
L 325.477577 22.456282 
L 328.087186 24.784053 
L 330.793448 27.507109 
L 334.659536 31.777352 
L 340.168711 37.680372 
L 345.484583 43.042091 
L 350.413845 47.695599 
L 355.343107 52.039048 
L 360.175717 56.005349 
L 365.10498 59.765414 
L 370.130894 63.320902 
L 375.253461 66.673404 
L 380.47268 69.825912 
L 385.788551 72.781215 
L 391.394379 75.638452 
L 397.386815 78.437519 
L 403.669208 81.128044 
L 409.854949 83.530988 
L 416.330647 85.805348 
L 422.999649 87.912455 
L 430.441868 90.029626 
L 437.98074 91.94404 
L 445.42296 93.608347 
L 454.604919 95.402521 
L 463.690226 96.951741 
L 468.136227 97.625429 
L 468.136227 97.625429 
" clip-path="url(#p70aa7b3f2e)" style="fill: none; stroke: #ff0000; stroke-linecap: round"/>
   </g>
   <g id="patch_3">
    <path d="M 59.055781 105.98 
L 59.055781 7.2 
" style="fill: none; stroke: #000000; stroke-linejoin: miter; stroke-linecap: square"/>
   </g>
   <g id="patch_4">
    <path d="M 59.055781 105.98 
L 504.525781 105.98 
" style="fill: none; stroke: #000000; stroke-linejoin: miter; stroke-linecap: square"/>
   </g>
   <g id="legend_1">
    <g id="line2d_21">
     <path d="M 210.21 41.348125 
L 221.21 41.348125 
L 232.21 41.348125 
" style="fill: none; stroke: #000000; stroke-linecap: round"/>
    </g>
    <g id="text_5">
     <!-- Experiment -->
     <g style="fill: #262626" transform="translate(241.01 45.198125) scale(0.11 -0.11)">
      <defs>
       <path id="DejaVuSerif-45" d="M 353 0 
L 353 331 
L 947 331 
L 947 4331 
L 353 4331 
L 353 4666 
L 4109 4666 
L 4109 3628 
L 3725 3628 
L 3725 4281 
L 1581 4281 
L 1581 2719 
L 3109 2719 
L 3109 3303 
L 3494 3303 
L 3494 1753 
L 3109 1753 
L 3109 2338 
L 1581 2338 
L 1581 384 
L 3775 384 
L 3775 1038 
L 4159 1038 
L 4159 0 
L 353 0 
z
" transform="scale(0.015625)"/>
       <path id="DejaVuSerif-78" d="M 1863 2028 
L 2559 2988 
L 2113 2988 
L 2113 3322 
L 3391 3322 
L 3391 2988 
L 2950 2988 
L 2059 1759 
L 3097 331 
L 3531 331 
L 3531 0 
L 1997 0 
L 1997 331 
L 2419 331 
L 1697 1325 
L 972 331 
L 1403 331 
L 1403 0 
L 141 0 
L 141 331 
L 581 331 
L 1497 1594 
L 488 2988 
L 78 2988 
L 78 3322 
L 1563 3322 
L 1563 2988 
L 1166 2988 
L 1863 2028 
z
" transform="scale(0.015625)"/>
       <path id="DejaVuSerif-70" d="M 1313 1825 
L 1313 1497 
Q 1313 897 1542 583 
Q 1772 269 2209 269 
Q 2650 269 2876 622 
Q 3103 975 3103 1663 
Q 3103 2353 2876 2703 
Q 2650 3053 2209 3053 
Q 1772 3053 1542 2737 
Q 1313 2422 1313 1825 
z
M 738 2988 
L 184 2988 
L 184 3322 
L 1313 3322 
L 1313 2803 
Q 1481 3116 1742 3264 
Q 2003 3413 2388 3413 
Q 3000 3413 3387 2928 
Q 3775 2444 3775 1663 
Q 3775 881 3387 395 
Q 3000 -91 2388 -91 
Q 2003 -91 1742 57 
Q 1481 206 1313 519 
L 1313 -997 
L 1856 -997 
L 1856 -1331 
L 184 -1331 
L 184 -997 
L 738 -997 
L 738 2988 
z
" transform="scale(0.015625)"/>
       <path id="DejaVuSerif-65" d="M 3469 1600 
L 991 1600 
L 991 1575 
Q 991 903 1244 561 
Q 1497 219 1991 219 
Q 2369 219 2611 417 
Q 2853 616 2950 1006 
L 3413 1006 
Q 3275 459 2904 184 
Q 2534 -91 1931 -91 
Q 1203 -91 761 389 
Q 319 869 319 1663 
Q 319 2450 753 2931 
Q 1188 3413 1894 3413 
Q 2647 3413 3050 2948 
Q 3453 2484 3469 1600 
z
M 2791 1931 
Q 2772 2513 2545 2808 
Q 2319 3103 1894 3103 
Q 1497 3103 1269 2806 
Q 1041 2509 991 1931 
L 2791 1931 
z
" transform="scale(0.015625)"/>
       <path id="DejaVuSerif-72" d="M 3059 3328 
L 3059 2497 
L 2728 2497 
Q 2713 2744 2591 2866 
Q 2469 2988 2234 2988 
Q 1809 2988 1582 2694 
Q 1356 2400 1356 1850 
L 1356 331 
L 2022 331 
L 2022 0 
L 263 0 
L 263 331 
L 781 331 
L 781 2994 
L 231 2994 
L 231 3322 
L 1356 3322 
L 1356 2731 
Q 1525 3078 1790 3245 
Q 2056 3413 2438 3413 
Q 2578 3413 2733 3391 
Q 2888 3369 3059 3328 
z
" transform="scale(0.015625)"/>
       <path id="DejaVuSerif-69" d="M 622 4353 
Q 622 4497 726 4603 
Q 831 4709 978 4709 
Q 1122 4709 1226 4603 
Q 1331 4497 1331 4353 
Q 1331 4206 1228 4103 
Q 1125 4000 978 4000 
Q 831 4000 726 4103 
Q 622 4206 622 4353 
z
M 1356 331 
L 1900 331 
L 1900 0 
L 231 0 
L 231 331 
L 781 331 
L 781 2988 
L 231 2988 
L 231 3322 
L 1356 3322 
L 1356 331 
z
" transform="scale(0.015625)"/>
       <path id="DejaVuSerif-6d" d="M 3316 2675 
Q 3481 3041 3739 3227 
Q 3997 3413 4341 3413 
Q 4863 3413 5119 3089 
Q 5375 2766 5375 2113 
L 5375 331 
L 5894 331 
L 5894 0 
L 4300 0 
L 4300 331 
L 4800 331 
L 4800 2047 
Q 4800 2556 4650 2772 
Q 4500 2988 4153 2988 
Q 3769 2988 3567 2697 
Q 3366 2406 3366 1850 
L 3366 331 
L 3866 331 
L 3866 0 
L 2291 0 
L 2291 331 
L 2791 331 
L 2791 2069 
Q 2791 2566 2641 2777 
Q 2491 2988 2144 2988 
Q 1759 2988 1557 2697 
Q 1356 2406 1356 1850 
L 1356 331 
L 1856 331 
L 1856 0 
L 263 0 
L 263 331 
L 781 331 
L 781 2994 
L 231 2994 
L 231 3322 
L 1356 3322 
L 1356 2731 
Q 1516 3063 1762 3238 
Q 2009 3413 2322 3413 
Q 2709 3413 2968 3220 
Q 3228 3028 3316 2675 
z
" transform="scale(0.015625)"/>
       <path id="DejaVuSerif-6e" d="M 263 0 
L 263 331 
L 781 331 
L 781 2988 
L 231 2988 
L 231 3322 
L 1356 3322 
L 1356 2731 
Q 1516 3069 1770 3241 
Q 2025 3413 2363 3413 
Q 2913 3413 3172 3097 
Q 3431 2781 3431 2113 
L 3431 331 
L 3944 331 
L 3944 0 
L 2356 0 
L 2356 331 
L 2853 331 
L 2853 1931 
Q 2853 2541 2703 2767 
Q 2553 2994 2175 2994 
Q 1775 2994 1565 2701 
Q 1356 2409 1356 1850 
L 1356 331 
L 1856 331 
L 1856 0 
L 263 0 
z
" transform="scale(0.015625)"/>
       <path id="DejaVuSerif-74" d="M 691 2988 
L 184 2988 
L 184 3322 
L 691 3322 
L 691 4353 
L 1269 4353 
L 1269 3322 
L 2350 3322 
L 2350 2988 
L 1269 2988 
L 1269 878 
Q 1269 456 1350 337 
Q 1431 219 1650 219 
Q 1875 219 1978 351 
Q 2081 484 2088 781 
L 2522 781 
Q 2497 328 2275 118 
Q 2053 -91 1600 -91 
Q 1103 -91 897 129 
Q 691 350 691 878 
L 691 2988 
z
" transform="scale(0.015625)"/>
      </defs>
      <use xlink:href="#DejaVuSerif-45"/>
      <use xlink:href="#DejaVuSerif-78" x="72.998047"/>
      <use xlink:href="#DejaVuSerif-70" x="129.394531"/>
      <use xlink:href="#DejaVuSerif-65" x="193.408203"/>
      <use xlink:href="#DejaVuSerif-72" x="252.587891"/>
      <use xlink:href="#DejaVuSerif-69" x="300.390625"/>
      <use xlink:href="#DejaVuSerif-6d" x="332.373047"/>
      <use xlink:href="#DejaVuSerif-65" x="427.197266"/>
      <use xlink:href="#DejaVuSerif-6e" x="486.376953"/>
      <use xlink:href="#DejaVuSerif-74" x="550.78125"/>
     </g>
    </g>
    <g id="line2d_22">
     <path d="M 210.21 57.494063 
L 221.21 57.494063 
L 232.21 57.494063 
" style="fill: none; stroke: #0000ff; stroke-linecap: round"/>
    </g>
    <g id="text_6">
     <!-- Reference model -->
     <g style="fill: #262626" transform="translate(241.01 61.344063) scale(0.11 -0.11)">
      <defs>
       <path id="DejaVuSerif-52" d="M 3066 2316 
Q 3284 2256 3442 2114 
Q 3600 1972 3725 1716 
L 4403 331 
L 4972 331 
L 4972 0 
L 3872 0 
L 3144 1484 
Q 2934 1916 2759 2042 
Q 2584 2169 2278 2169 
L 1581 2169 
L 1581 331 
L 2241 331 
L 2241 0 
L 353 0 
L 353 331 
L 947 331 
L 947 4331 
L 353 4331 
L 353 4666 
L 2719 4666 
Q 3400 4666 3770 4341 
Q 4141 4016 4141 3419 
Q 4141 2938 3870 2661 
Q 3600 2384 3066 2316 
z
M 1581 2503 
L 2503 2503 
Q 2975 2503 3200 2726 
Q 3425 2950 3425 3419 
Q 3425 3888 3200 4109 
Q 2975 4331 2503 4331 
L 1581 4331 
L 1581 2503 
z
" transform="scale(0.015625)"/>
       <path id="DejaVuSerif-66" d="M 2753 4078 
L 2450 4078 
Q 2447 4313 2317 4434 
Q 2188 4556 1941 4556 
Q 1619 4556 1487 4379 
Q 1356 4203 1356 3750 
L 1356 3322 
L 2284 3322 
L 2284 2988 
L 1356 2988 
L 1356 331 
L 2094 331 
L 2094 0 
L 231 0 
L 231 331 
L 781 331 
L 781 2988 
L 231 2988 
L 231 3322 
L 781 3322 
L 781 3738 
Q 781 4294 1070 4578 
Q 1359 4863 1919 4863 
Q 2128 4863 2337 4825 
Q 2547 4788 2753 4709 
L 2753 4078 
z
" transform="scale(0.015625)"/>
       <path id="DejaVuSerif-63" d="M 3291 997 
Q 3169 466 2822 187 
Q 2475 -91 1925 -91 
Q 1200 -91 759 389 
Q 319 869 319 1663 
Q 319 2459 759 2936 
Q 1200 3413 1925 3413 
Q 2241 3413 2553 3339 
Q 2866 3266 3181 3116 
L 3181 2266 
L 2847 2266 
Q 2781 2703 2561 2903 
Q 2341 3103 1931 3103 
Q 1466 3103 1228 2742 
Q 991 2381 991 1663 
Q 991 944 1227 581 
Q 1463 219 1931 219 
Q 2303 219 2525 412 
Q 2747 606 2828 997 
L 3291 997 
z
" transform="scale(0.015625)"/>
       <path id="DejaVuSerif-6f" d="M 1925 219 
Q 2388 219 2623 584 
Q 2859 950 2859 1663 
Q 2859 2375 2623 2739 
Q 2388 3103 1925 3103 
Q 1463 3103 1227 2739 
Q 991 2375 991 1663 
Q 991 950 1228 584 
Q 1466 219 1925 219 
z
M 1925 -91 
Q 1200 -91 759 389 
Q 319 869 319 1663 
Q 319 2456 758 2934 
Q 1197 3413 1925 3413 
Q 2653 3413 3092 2934 
Q 3531 2456 3531 1663 
Q 3531 869 3092 389 
Q 2653 -91 1925 -91 
z
" transform="scale(0.015625)"/>
       <path id="DejaVuSerif-64" d="M 3359 331 
L 3909 331 
L 3909 0 
L 2784 0 
L 2784 519 
Q 2616 206 2355 57 
Q 2094 -91 1709 -91 
Q 1097 -91 708 395 
Q 319 881 319 1663 
Q 319 2444 706 2928 
Q 1094 3413 1709 3413 
Q 2094 3413 2355 3264 
Q 2616 3116 2784 2803 
L 2784 4531 
L 2241 4531 
L 2241 4863 
L 3359 4863 
L 3359 331 
z
M 2784 1497 
L 2784 1825 
Q 2784 2422 2554 2737 
Q 2325 3053 1888 3053 
Q 1444 3053 1217 2703 
Q 991 2353 991 1663 
Q 991 975 1217 622 
Q 1444 269 1888 269 
Q 2325 269 2554 583 
Q 2784 897 2784 1497 
z
" transform="scale(0.015625)"/>
       <path id="DejaVuSerif-6c" d="M 1313 331 
L 1856 331 
L 1856 0 
L 184 0 
L 184 331 
L 738 331 
L 738 4531 
L 184 4531 
L 184 4863 
L 1313 4863 
L 1313 331 
z
" transform="scale(0.015625)"/>
      </defs>
      <use xlink:href="#DejaVuSerif-52"/>
      <use xlink:href="#DejaVuSerif-65" x="75.292969"/>
      <use xlink:href="#DejaVuSerif-66" x="134.472656"/>
      <use xlink:href="#DejaVuSerif-65" x="171.484375"/>
      <use xlink:href="#DejaVuSerif-72" x="230.664062"/>
      <use xlink:href="#DejaVuSerif-65" x="278.466797"/>
      <use xlink:href="#DejaVuSerif-6e" x="337.646484"/>
      <use xlink:href="#DejaVuSerif-63" x="402.050781"/>
      <use xlink:href="#DejaVuSerif-65" x="458.056641"/>
      <use xlink:href="#DejaVuSerif-20" x="517.236328"/>
      <use xlink:href="#DejaVuSerif-6d" x="549.023438"/>
      <use xlink:href="#DejaVuSerif-6f" x="643.847656"/>
      <use xlink:href="#DejaVuSerif-64" x="704.052734"/>
      <use xlink:href="#DejaVuSerif-65" x="768.066406"/>
      <use xlink:href="#DejaVuSerif-6c" x="827.246094"/>
     </g>
    </g>
    <g id="line2d_23">
     <path d="M 210.21 73.64 
L 221.21 73.64 
L 232.21 73.64 
" style="fill: none; stroke: #008000; stroke-linecap: round"/>
    </g>
    <g id="text_7">
     <!-- Physics informed ID -->
     <g style="fill: #262626" transform="translate(241.01 77.49) scale(0.11 -0.11)">
      <defs>
       <path id="DejaVuSerif-50" d="M 1581 2375 
L 2406 2375 
Q 2872 2375 3115 2626 
Q 3359 2878 3359 3353 
Q 3359 3831 3115 4081 
Q 2872 4331 2406 4331 
L 1581 4331 
L 1581 2375 
z
M 353 0 
L 353 331 
L 947 331 
L 947 4331 
L 353 4331 
L 353 4666 
L 2559 4666 
Q 3259 4666 3668 4311 
Q 4078 3956 4078 3353 
Q 4078 2753 3668 2397 
Q 3259 2041 2559 2041 
L 1581 2041 
L 1581 331 
L 2303 331 
L 2303 0 
L 353 0 
z
" transform="scale(0.015625)"/>
       <path id="DejaVuSerif-68" d="M 263 0 
L 263 331 
L 781 331 
L 781 4531 
L 231 4531 
L 231 4863 
L 1356 4863 
L 1356 2731 
Q 1516 3069 1770 3241 
Q 2025 3413 2363 3413 
Q 2913 3413 3172 3097 
Q 3431 2781 3431 2113 
L 3431 331 
L 3944 331 
L 3944 0 
L 2356 0 
L 2356 331 
L 2853 331 
L 2853 1931 
Q 2853 2541 2704 2764 
Q 2556 2988 2175 2988 
Q 1775 2988 1565 2697 
Q 1356 2406 1356 1850 
L 1356 331 
L 1856 331 
L 1856 0 
L 263 0 
z
" transform="scale(0.015625)"/>
       <path id="DejaVuSerif-79" d="M 1381 -609 
L 1600 -56 
L 359 2988 
L -19 2988 
L -19 3322 
L 1509 3322 
L 1509 2988 
L 978 2988 
L 1913 703 
L 2847 2988 
L 2350 2988 
L 2350 3322 
L 3597 3322 
L 3597 2988 
L 3225 2988 
L 1703 -750 
Q 1547 -1138 1356 -1280 
Q 1166 -1422 819 -1422 
Q 672 -1422 517 -1397 
Q 363 -1372 206 -1325 
L 206 -691 
L 500 -691 
Q 519 -903 608 -995 
Q 697 -1088 884 -1088 
Q 1056 -1088 1161 -992 
Q 1266 -897 1381 -609 
z
" transform="scale(0.015625)"/>
       <path id="DejaVuSerif-73" d="M 359 184 
L 359 959 
L 691 959 
Q 703 588 923 403 
Q 1144 219 1575 219 
Q 1963 219 2166 364 
Q 2369 509 2369 788 
Q 2369 1006 2220 1140 
Q 2072 1275 1594 1428 
L 1178 1569 
Q 750 1706 558 1912 
Q 366 2119 366 2438 
Q 366 2894 700 3153 
Q 1034 3413 1625 3413 
Q 1888 3413 2178 3344 
Q 2469 3275 2778 3144 
L 2778 2419 
L 2447 2419 
Q 2434 2741 2221 2922 
Q 2009 3103 1644 3103 
Q 1281 3103 1095 2975 
Q 909 2847 909 2591 
Q 909 2381 1050 2254 
Q 1191 2128 1613 1997 
L 2069 1856 
Q 2541 1709 2748 1489 
Q 2956 1269 2956 922 
Q 2956 450 2595 179 
Q 2234 -91 1600 -91 
Q 1278 -91 972 -22 
Q 666 47 359 184 
z
" transform="scale(0.015625)"/>
       <path id="DejaVuSerif-49" d="M 1581 331 
L 2175 331 
L 2175 0 
L 353 0 
L 353 331 
L 947 331 
L 947 4331 
L 353 4331 
L 353 4666 
L 2175 4666 
L 2175 4331 
L 1581 4331 
L 1581 331 
z
" transform="scale(0.015625)"/>
       <path id="DejaVuSerif-44" d="M 1581 331 
L 2163 331 
Q 3072 331 3558 850 
Q 4044 1369 4044 2338 
Q 4044 3306 3559 3818 
Q 3075 4331 2163 4331 
L 1581 4331 
L 1581 331 
z
M 353 0 
L 353 331 
L 947 331 
L 947 4331 
L 353 4331 
L 353 4666 
L 2209 4666 
Q 3416 4666 4089 4050 
Q 4763 3434 4763 2338 
Q 4763 1238 4088 619 
Q 3413 0 2209 0 
L 353 0 
z
" transform="scale(0.015625)"/>
      </defs>
      <use xlink:href="#DejaVuSerif-50"/>
      <use xlink:href="#DejaVuSerif-68" x="67.285156"/>
      <use xlink:href="#DejaVuSerif-79" x="131.689453"/>
      <use xlink:href="#DejaVuSerif-73" x="188.183594"/>
      <use xlink:href="#DejaVuSerif-69" x="239.501953"/>
      <use xlink:href="#DejaVuSerif-63" x="271.484375"/>
      <use xlink:href="#DejaVuSerif-73" x="327.490234"/>
      <use xlink:href="#DejaVuSerif-20" x="378.808594"/>
      <use xlink:href="#DejaVuSerif-69" x="410.595703"/>
      <use xlink:href="#DejaVuSerif-6e" x="442.578125"/>
      <use xlink:href="#DejaVuSerif-66" x="506.982422"/>
      <use xlink:href="#DejaVuSerif-6f" x="543.994141"/>
      <use xlink:href="#DejaVuSerif-72" x="604.199219"/>
      <use xlink:href="#DejaVuSerif-6d" x="652.001953"/>
      <use xlink:href="#DejaVuSerif-65" x="746.826172"/>
      <use xlink:href="#DejaVuSerif-64" x="806.005859"/>
      <use xlink:href="#DejaVuSerif-20" x="870.019531"/>
      <use xlink:href="#DejaVuSerif-49" x="901.806641"/>
      <use xlink:href="#DejaVuSerif-44" x="941.308594"/>
     </g>
    </g>
    <g id="line2d_24">
     <path d="M 210.21 89.942344 
L 221.21 89.942344 
L 232.21 89.942344 
" style="fill: none; stroke: #ff0000; stroke-linecap: round"/>
    </g>
    <g id="text_8">
     <!-- Abkowitz ID -->
     <g style="fill: #262626" transform="translate(241.01 93.792344) scale(0.11 -0.11)">
      <defs>
       <path id="DejaVuSerif-41" d="M 1281 1691 
L 2994 1691 
L 2138 3909 
L 1281 1691 
z
M -38 0 
L -38 331 
L 372 331 
L 2034 4666 
L 2559 4666 
L 4225 331 
L 4684 331 
L 4684 0 
L 2988 0 
L 2988 331 
L 3506 331 
L 3116 1356 
L 1153 1356 
L 763 331 
L 1275 331 
L 1275 0 
L -38 0 
z
" transform="scale(0.015625)"/>
       <path id="DejaVuSerif-62" d="M 738 331 
L 738 4531 
L 184 4531 
L 184 4863 
L 1313 4863 
L 1313 2803 
Q 1481 3116 1742 3264 
Q 2003 3413 2388 3413 
Q 3000 3413 3387 2928 
Q 3775 2444 3775 1663 
Q 3775 881 3387 395 
Q 3000 -91 2388 -91 
Q 2003 -91 1742 57 
Q 1481 206 1313 519 
L 1313 0 
L 184 0 
L 184 331 
L 738 331 
z
M 1313 1497 
Q 1313 897 1542 583 
Q 1772 269 2209 269 
Q 2650 269 2876 622 
Q 3103 975 3103 1663 
Q 3103 2353 2876 2703 
Q 2650 3053 2209 3053 
Q 1772 3053 1542 2737 
Q 1313 2422 1313 1825 
L 1313 1497 
z
" transform="scale(0.015625)"/>
       <path id="DejaVuSerif-6b" d="M 1831 0 
L 219 0 
L 219 331 
L 738 331 
L 738 4531 
L 184 4531 
L 184 4863 
L 1313 4863 
L 1313 1697 
L 2713 2988 
L 2234 2988 
L 2234 3322 
L 3738 3322 
L 3738 2988 
L 3169 2988 
L 2181 2075 
L 3444 331 
L 3922 331 
L 3922 0 
L 2284 0 
L 2284 331 
L 2759 331 
L 1766 1697 
L 1313 1275 
L 1313 331 
L 1831 331 
L 1831 0 
z
" transform="scale(0.015625)"/>
       <path id="DejaVuSerif-77" d="M 3072 3322 
L 3922 728 
L 4672 2988 
L 4191 2988 
L 4191 3322 
L 5394 3322 
L 5394 2988 
L 5025 2988 
L 4038 0 
L 3559 0 
L 2741 2484 
L 1919 0 
L 1459 0 
L 475 2988 
L 103 2988 
L 103 3322 
L 1606 3322 
L 1606 2988 
L 1069 2988 
L 1813 728 
L 2669 3322 
L 3072 3322 
z
" transform="scale(0.015625)"/>
       <path id="DejaVuSerif-7a" d="M 256 0 
L 256 269 
L 2338 2988 
L 691 2988 
L 691 2413 
L 359 2413 
L 359 3322 
L 3078 3322 
L 3078 3053 
L 997 331 
L 2803 331 
L 2803 934 
L 3138 934 
L 3138 0 
L 256 0 
z
" transform="scale(0.015625)"/>
      </defs>
      <use xlink:href="#DejaVuSerif-41"/>
      <use xlink:href="#DejaVuSerif-62" x="72.216797"/>
      <use xlink:href="#DejaVuSerif-6b" x="136.230469"/>
      <use xlink:href="#DejaVuSerif-6f" x="196.826172"/>
      <use xlink:href="#DejaVuSerif-77" x="257.03125"/>
      <use xlink:href="#DejaVuSerif-69" x="342.626953"/>
      <use xlink:href="#DejaVuSerif-74" x="374.609375"/>
      <use xlink:href="#DejaVuSerif-7a" x="414.794922"/>
      <use xlink:href="#DejaVuSerif-20" x="467.480469"/>
      <use xlink:href="#DejaVuSerif-49" x="499.267578"/>
      <use xlink:href="#DejaVuSerif-44" x="538.769531"/>
     </g>
    </g>
   </g>
  </g>
  <g id="axes_2">
   <g id="patch_5">
    <path d="M 59.055781 204.76 
L 504.525781 204.76 
L 504.525781 105.98 
L 59.055781 105.98 
z
" style="fill: #ffffff"/>
   </g>
   <g id="line2d_25">
    <path d="M 79.304418 155.335645 
L 84.008645 155.387038 
L 87.368807 155.6378 
L 90.440955 156.079855 
L 93.225089 156.676265 
L 96.105228 157.548966 
L 99.46539 158.802461 
L 103.017562 160.381102 
L 108.297817 163.012551 
L 113.002044 165.730708 
L 118.666317 169.20182 
L 123.178535 172.0759 
L 138.539276 182.636382 
L 153.804012 193.427974 
L 157.164175 195.477189 
L 160.140318 197.035954 
L 162.540434 198.079645 
L 165.708587 199.169394 
L 168.012698 199.746246 
L 170.412814 200.121558 
L 172.81293 200.268168 
L 175.213045 200.188335 
L 178.189189 199.866844 
L 181.453347 199.240891 
L 184.909513 198.347829 
L 188.749699 197.137366 
L 194.029953 195.211095 
L 200.558268 192.37272 
L 207.85462 188.876711 
L 215.534991 184.78001 
L 228.495616 177.545379 
L 237.712061 172.132855 
L 248.46458 165.521743 
L 252.208761 163.194397 
L 266.321442 154.185097 
L 272.945761 149.846406 
L 317.779925 120.829313 
L 320.948078 118.969941 
L 326.420342 116.045698 
L 329.588494 114.691633 
L 332.372629 113.738695 
L 334.772745 113.133271 
L 337.652884 112.640642 
L 340.341013 112.414591 
L 342.741129 112.435343 
L 345.909282 112.712475 
L 349.941477 113.366234 
L 353.109629 114.123239 
L 358.197875 115.604483 
L 364.72619 117.847019 
L 368.278361 119.283126 
L 375.862727 122.638961 
L 382.391042 125.741736 
L 398.519821 133.97996 
L 411.480446 141.049921 
L 424.82509 148.733835 
L 435.19359 154.907901 
L 438.553752 156.97636 
L 449.210266 163.496741 
L 453.62648 166.191782 
L 464.763017 173.019009 
L 472.155374 177.639297 
L 484.251957 185.085995 
L 484.251957 185.085995 
" clip-path="url(#p772a4d9812)" style="fill: none; stroke: #000000; stroke-linecap: round"/>
   </g>
   <g id="line2d_26">
    <path d="M 79.304418 155.595174 
L 81.128506 160.365561 
L 89.672918 182.230802 
L 89.768923 182.230802 
L 92.169038 188.428559 
L 92.457052 188.490563 
L 97.257284 188.470541 
L 147.179693 188.471832 
L 147.371702 188.067519 
L 148.043734 186.246814 
L 160.236323 155.046831 
L 161.292374 152.321265 
L 161.388378 152.321265 
L 173.100944 122.363288 
L 174.06099 122.445959 
L 182.509398 122.449834 
L 190.861801 122.448542 
L 315.763827 122.447251 
L 315.955837 122.874816 
L 316.243851 123.696361 
L 316.531864 124.427484 
L 317.587915 127.134966 
L 328.340434 154.410005 
L 333.23667 166.932755 
L 333.332675 166.932755 
L 337.076856 176.531656 
L 337.940897 178.748924 
L 339.668981 183.147936 
L 340.245009 184.572077 
L 341.781083 188.410475 
L 342.069097 188.489271 
L 361.462032 188.469895 
L 484.251957 188.469895 
L 484.251957 188.469895 
" clip-path="url(#p772a4d9812)" style="fill: none; stroke-dasharray: 5.55,2.4; stroke-dashoffset: 0; stroke: #808080; stroke-width: 1.5"/>
   </g>
   <g id="matplotlib.axis_3">
    <g id="xtick_6">
     <g id="line2d_27">
      <path d="M 79.304418 204.76 
L 79.304418 105.98 
" clip-path="url(#p772a4d9812)" style="fill: none; stroke: #b0b0b0; stroke-width: 0.8; stroke-linecap: round"/>
     </g>
     <g id="line2d_28"/>
    </g>
    <g id="xtick_7">
     <g id="line2d_29">
      <path d="M 175.95662 204.76 
L 175.95662 105.98 
" clip-path="url(#p772a4d9812)" style="fill: none; stroke: #b0b0b0; stroke-width: 0.8; stroke-linecap: round"/>
     </g>
     <g id="line2d_30"/>
    </g>
    <g id="xtick_8">
     <g id="line2d_31">
      <path d="M 272.608822 204.76 
L 272.608822 105.98 
" clip-path="url(#p772a4d9812)" style="fill: none; stroke: #b0b0b0; stroke-width: 0.8; stroke-linecap: round"/>
     </g>
     <g id="line2d_32"/>
    </g>
    <g id="xtick_9">
     <g id="line2d_33">
      <path d="M 369.261024 204.76 
L 369.261024 105.98 
" clip-path="url(#p772a4d9812)" style="fill: none; stroke: #b0b0b0; stroke-width: 0.8; stroke-linecap: round"/>
     </g>
     <g id="line2d_34"/>
    </g>
    <g id="xtick_10">
     <g id="line2d_35">
      <path d="M 465.913226 204.76 
L 465.913226 105.98 
" clip-path="url(#p772a4d9812)" style="fill: none; stroke: #b0b0b0; stroke-width: 0.8; stroke-linecap: round"/>
     </g>
     <g id="line2d_36"/>
    </g>
   </g>
   <g id="matplotlib.axis_4">
    <g id="ytick_4">
     <g id="line2d_37">
      <path d="M 59.055781 188.470642 
L 504.525781 188.470642 
" clip-path="url(#p772a4d9812)" style="fill: none; stroke: #b0b0b0; stroke-width: 0.8; stroke-linecap: round"/>
     </g>
     <g id="line2d_38"/>
     <g id="text_9">
      <!-- −20 -->
      <g style="fill: #262626" transform="translate(32.340625 192.649782) scale(0.11 -0.11)">
       <defs>
        <path id="DejaVuSerif-32" d="M 819 3553 
L 469 3553 
L 469 4384 
Q 803 4563 1142 4656 
Q 1481 4750 1806 4750 
Q 2534 4750 2956 4397 
Q 3378 4044 3378 3438 
Q 3378 2753 2422 1800 
Q 2347 1728 2309 1691 
L 1131 513 
L 3078 513 
L 3078 1088 
L 3444 1088 
L 3444 0 
L 434 0 
L 434 341 
L 1850 1753 
Q 2319 2222 2519 2614 
Q 2719 3006 2719 3438 
Q 2719 3909 2473 4175 
Q 2228 4441 1797 4441 
Q 1350 4441 1106 4219 
Q 863 3997 819 3553 
z
" transform="scale(0.015625)"/>
       </defs>
       <use xlink:href="#DejaVuSerif-2212"/>
       <use xlink:href="#DejaVuSerif-32" x="83.789062"/>
       <use xlink:href="#DejaVuSerif-30" x="147.412109"/>
      </g>
     </g>
    </g>
    <g id="ytick_5">
     <g id="line2d_39">
      <path d="M 59.055781 155.459542 
L 504.525781 155.459542 
" clip-path="url(#p772a4d9812)" style="fill: none; stroke: #b0b0b0; stroke-width: 0.8; stroke-linecap: round"/>
     </g>
     <g id="line2d_40"/>
     <g id="text_10">
      <!-- 0 -->
      <g style="fill: #262626" transform="translate(48.557031 159.638682) scale(0.11 -0.11)">
       <use xlink:href="#DejaVuSerif-30"/>
      </g>
     </g>
    </g>
    <g id="ytick_6">
     <g id="line2d_41">
      <path d="M 59.055781 122.448441 
L 504.525781 122.448441 
" clip-path="url(#p772a4d9812)" style="fill: none; stroke: #b0b0b0; stroke-width: 0.8; stroke-linecap: round"/>
     </g>
     <g id="line2d_42"/>
     <g id="text_11">
      <!-- 20 -->
      <g style="fill: #262626" transform="translate(41.558281 126.627582) scale(0.11 -0.11)">
       <use xlink:href="#DejaVuSerif-32"/>
       <use xlink:href="#DejaVuSerif-30" x="63.623047"/>
      </g>
     </g>
    </g>
    <g id="text_12">
     <!-- $\psi$ $[deg]$ -->
     <g style="fill: #262626" transform="translate(26.030625 175.445) rotate(-90) scale(0.11 -0.11)">
      <defs>
       <path id="DejaVuSans-Oblique-3c8" d="M 1591 -78 
Q 891 38 616 341 
Q 278 713 425 1472 
L 819 3500 
L 1400 3500 
L 1009 1494 
Q 900 922 1119 684 
Q 1313 478 1691 434 
L 2284 3500 
L 2856 3500 
L 2263 438 
Q 2681 481 2928 688 
Q 3247 950 3353 1497 
L 3741 3500 
L 4322 3500 
L 3928 1475 
Q 3775 688 3300 344 
Q 2872 34 2163 -75 
L 1919 -1331 
L 1347 -1331 
L 1591 -78 
z
" transform="scale(0.015625)"/>
      </defs>
      <use xlink:href="#DejaVuSans-Oblique-3c8" transform="translate(0 0.015625)"/>
      <use xlink:href="#DejaVuSerif-20" transform="translate(65.966797 0.015625)"/>
      <use xlink:href="#DejaVuSans-5b" transform="translate(97.753906 0.015625)"/>
      <use xlink:href="#DejaVuSans-Oblique-64" transform="translate(136.767578 0.015625)"/>
      <use xlink:href="#DejaVuSans-Oblique-65" transform="translate(200.244141 0.015625)"/>
      <use xlink:href="#DejaVuSans-Oblique-67" transform="translate(261.767578 0.015625)"/>
      <use xlink:href="#DejaVuSans-5d" transform="translate(325.244141 0.015625)"/>
     </g>
    </g>
   </g>
   <g id="line2d_43">
    <path d="M 79.304418 155.459542 
L 85.200202 155.569416 
L 88.486377 155.856022 
L 91.385943 156.327878 
L 94.188857 157.008344 
L 97.378379 158.018663 
L 101.051163 159.425241 
L 105.207208 161.261367 
L 110.039818 163.648547 
L 115.742298 166.722445 
L 122.4113 170.578461 
L 130.143476 175.310011 
L 139.228783 181.137398 
L 149.473916 187.979898 
L 157.10944 193.036408 
L 160.58892 195.046401 
L 163.585138 196.526484 
L 166.388052 197.663251 
L 168.997661 198.484339 
L 171.510619 199.042436 
L 173.926924 199.352692 
L 176.343229 199.435856 
L 178.952838 199.293509 
L 181.852404 198.905063 
L 185.041927 198.251924 
L 188.618058 197.29384 
L 192.677451 195.973353 
L 197.316757 194.226582 
L 202.632628 191.981084 
L 208.721716 189.157117 
L 215.390718 185.815673 
L 222.736286 181.879413 
L 231.048375 177.170675 
L 240.133682 171.762657 
L 249.605598 165.865433 
L 260.333992 158.918498 
L 272.028909 151.07579 
L 284.787 142.249245 
L 300.251352 131.252942 
L 320.35501 116.930247 
L 323.641185 114.98921 
L 326.540751 113.525376 
L 329.247013 112.397997 
L 331.856622 111.545831 
L 334.369579 110.954805 
L 336.785884 110.607118 
L 339.298842 110.472015 
L 342.101755 110.555441 
L 345.194626 110.878541 
L 348.674105 111.474514 
L 352.540193 112.369522 
L 356.79289 113.586181 
L 361.528848 115.176689 
L 366.941371 117.236686 
L 373.03046 119.794306 
L 379.699462 122.839239 
L 386.851725 126.348599 
L 394.487249 130.348766 
L 403.379252 135.269504 
L 412.851167 140.763148 
L 422.226431 146.456605 
L 432.761521 153.120106 
L 444.649742 160.909618 
L 457.117876 169.347107 
L 471.132445 179.099395 
L 484.277145 188.444617 
L 484.277145 188.444617 
" clip-path="url(#p772a4d9812)" style="fill: none; stroke: #0000ff; stroke-linecap: round"/>
   </g>
   <g id="line2d_44">
    <path d="M 79.304418 155.459542 
L 85.200202 155.569525 
L 88.486377 155.856529 
L 91.385943 156.32904 
L 94.188857 157.010146 
L 97.378379 158.020311 
L 101.051163 159.42379 
L 105.30386 161.294831 
L 110.329775 163.761065 
L 116.418863 167.007582 
L 123.764431 171.186225 
L 132.753085 176.566479 
L 144.061393 183.605649 
L 159.815702 193.45755 
L 163.101877 195.14479 
L 166.001443 196.389568 
L 168.707705 197.314394 
L 171.317314 197.968514 
L 173.733619 198.351806 
L 176.149924 198.510223 
L 178.566229 198.444105 
L 181.272491 198.136694 
L 184.268709 197.563147 
L 187.651536 196.680108 
L 191.420972 195.460976 
L 195.866973 193.778152 
L 200.892888 191.633698 
L 206.885325 188.829012 
L 213.747631 185.369425 
L 221.383155 181.262323 
L 230.951723 175.858038 
L 241.486813 169.648424 
L 253.278382 162.43255 
L 267.099647 153.703453 
L 283.04726 143.371523 
L 302.474353 130.481356 
L 321.708141 117.755392 
L 325.090968 115.876581 
L 328.087186 114.458622 
L 330.8901 113.374766 
L 333.499709 112.596786 
L 336.012667 112.071939 
L 338.428972 111.78597 
L 340.941929 111.717633 
L 343.648191 111.876896 
L 346.644409 112.282763 
L 350.027236 112.97358 
L 353.796672 113.978505 
L 358.049369 115.35064 
L 362.881979 117.15312 
L 368.487807 119.493148 
L 374.963504 122.443842 
L 382.309072 126.046059 
L 390.234552 130.183011 
L 399.416511 135.238203 
L 410.628167 141.669747 
L 422.226431 148.576654 
L 434.984522 156.441898 
L 449.772309 165.82267 
L 468.812793 178.201023 
L 484.277145 188.426285 
L 484.277145 188.426285 
" clip-path="url(#p772a4d9812)" style="fill: none; stroke: #008000; stroke-linecap: round"/>
   </g>
   <g id="line2d_45">
    <path d="M 79.304418 155.459542 
L 85.490159 155.567715 
L 88.969638 155.857459 
L 91.965856 156.324316 
L 94.962074 157.023884 
L 98.344901 158.054218 
L 102.114337 159.443587 
L 106.270382 161.217163 
L 110.909688 163.445735 
L 116.032254 166.15601 
L 121.831387 169.482017 
L 128.307084 173.457727 
L 135.749304 178.292911 
L 144.544654 184.28178 
L 159.139137 194.283578 
L 162.232007 196.008587 
L 165.034921 197.315673 
L 167.64453 198.283763 
L 170.157488 198.975279 
L 172.573793 199.410238 
L 174.990098 199.616416 
L 177.406403 199.593976 
L 180.112665 199.330639 
L 183.205535 198.793826 
L 186.685014 197.954246 
L 190.551102 196.785623 
L 194.803799 195.264028 
L 199.443105 193.365085 
L 204.565672 191.021633 
L 210.171499 188.205608 
L 216.260588 184.894341 
L 222.92959 181.009233 
L 230.275157 176.468628 
L 238.683899 171.000289 
L 248.252467 164.505628 
L 259.947384 156.285717 
L 275.218431 145.265353 
L 314.072617 117.096233 
L 317.262139 115.212109 
L 320.065053 113.805517 
L 322.771315 112.695351 
L 325.284272 111.897938 
L 327.79723 111.332127 
L 330.213535 111.011371 
L 332.62984 110.910546 
L 335.239449 111.030536 
L 338.235667 111.394844 
L 341.618494 112.031551 
L 345.484583 112.993234 
L 349.737279 114.287253 
L 354.376585 115.938566 
L 359.4025 117.969537 
L 364.815023 120.398417 
L 370.710807 123.293378 
L 377.089853 126.677152 
L 384.048811 130.626554 
L 391.780987 135.281222 
L 400.189729 140.609247 
L 409.854949 147.008567 
L 421.163257 154.771042 
L 435.564435 164.940833 
L 457.214528 180.539303 
L 468.136227 188.442814 
L 468.136227 188.442814 
" clip-path="url(#p772a4d9812)" style="fill: none; stroke: #ff0000; stroke-linecap: round"/>
   </g>
   <g id="patch_6">
    <path d="M 59.055781 204.76 
L 59.055781 105.98 
" style="fill: none; stroke: #000000; stroke-linejoin: miter; stroke-linecap: square"/>
   </g>
   <g id="patch_7">
    <path d="M 59.055781 204.76 
L 504.525781 204.76 
" style="fill: none; stroke: #000000; stroke-linejoin: miter; stroke-linecap: square"/>
   </g>
  </g>
  <g id="axes_3">
   <g id="patch_8">
    <path d="M 59.055781 303.54 
L 504.525781 303.54 
L 504.525781 204.76 
L 59.055781 204.76 
z
" style="fill: #ffffff"/>
   </g>
   <g id="line2d_46">
    <path d="M 79.304418 253.617702 
L 80.072455 253.710651 
L 81.22451 254.133454 
L 82.088552 254.684078 
L 83.528621 255.956683 
L 85.064696 257.56714 
L 86.60077 259.510962 
L 88.616867 262.364295 
L 92.073034 267.644676 
L 94.569154 272.101798 
L 96.105228 274.59116 
L 97.641302 276.720746 
L 100.809455 280.77799 
L 102.057516 282.19634 
L 104.265622 284.288216 
L 104.745645 284.364378 
L 105.609687 284.525444 
L 106.281719 284.955265 
L 107.241766 285.88157 
L 111.081951 289.901482 
L 112.234007 290.54151 
L 114.634122 291.513343 
L 115.594169 291.959694 
L 116.938234 292.581953 
L 117.994284 293.013363 
L 118.762322 293.105915 
L 119.914377 292.715909 
L 120.490405 292.788092 
L 121.546456 293.501258 
L 124.234586 295.377698 
L 124.906618 295.679336 
L 126.346688 296.174743 
L 131.818952 297.289313 
L 132.586989 297.37524 
L 132.971007 297.145619 
L 134.411077 295.889324 
L 134.987104 295.872996 
L 135.467128 296.057749 
L 135.947151 296.403161 
L 137.195211 297.448117 
L 138.059253 298.027675 
L 138.82729 298.261998 
L 140.843387 298.379629 
L 141.995443 298.397165 
L 142.955489 298.530076 
L 146.603665 299.028445 
L 147.275697 298.910153 
L 147.851725 298.361982 
L 148.427753 297.834331 
L 149.19579 297.403671 
L 151.595906 296.699122 
L 152.651957 295.864443 
L 153.612003 294.843799 
L 155.82011 291.713168 
L 158.892258 286.109426 
L 160.140318 283.865902 
L 161.484383 281.171305 
L 164.844545 273.753587 
L 166.18861 271.047 
L 168.204707 266.289582 
L 175.021036 249.780698 
L 175.885078 248.297068 
L 178.477203 244.284984 
L 180.013277 242.109072 
L 182.221384 239.232225 
L 183.853462 237.467062 
L 186.829606 234.567274 
L 190.189768 231.946782 
L 192.013856 231.430396 
L 193.645935 230.033946 
L 194.893995 228.842861 
L 197.678129 227.163615 
L 199.406213 226.339725 
L 200.558268 225.62326 
L 202.67037 224.71429 
L 203.438407 224.383854 
L 204.782472 223.924073 
L 205.3585 224.075409 
L 206.030532 224.180775 
L 206.702565 224.037593 
L 208.04663 223.159677 
L 209.966722 221.828115 
L 210.830764 221.441232 
L 212.846861 220.938114 
L 213.518894 220.806123 
L 214.094922 220.717779 
L 215.727 220.343802 
L 218.799149 219.873536 
L 219.279172 220.098785 
L 220.335223 220.704251 
L 220.91125 220.763973 
L 221.391274 220.63718 
L 222.35132 220.002939 
L 223.791389 219.076666 
L 224.559427 218.866358 
L 226.479519 218.522814 
L 229.743677 218.126242 
L 232.91183 217.436547 
L 233.295848 217.641594 
L 234.15989 218.219981 
L 234.927927 218.414197 
L 235.599959 218.292119 
L 236.367996 217.839835 
L 237.232038 217.248132 
L 238.192084 216.547635 
L 239.152131 216.255752 
L 240.016172 216.123998 
L 242.03227 216.119261 
L 243.472339 216.086353 
L 247.21652 215.630143 
L 247.696543 215.889755 
L 249.136612 216.806268 
L 249.616636 216.767648 
L 250.384673 216.396077 
L 251.15271 215.817694 
L 251.728738 215.504426 
L 252.592779 215.304697 
L 257.201002 214.744769 
L 258.83308 214.697974 
L 261.617215 214.321206 
L 261.905229 214.44229 
L 263.537307 215.66159 
L 264.20934 215.579932 
L 264.785368 215.28611 
L 265.553405 214.655521 
L 266.609456 213.845326 
L 267.089479 213.668518 
L 267.857516 213.597367 
L 269.105576 213.644662 
L 271.697701 213.963959 
L 274.673845 213.881407 
L 275.729896 213.84799 
L 276.305923 214.011212 
L 276.785947 214.439563 
L 277.649988 215.179419 
L 278.034007 215.319244 
L 278.51403 215.303607 
L 279.090058 215.115654 
L 280.146109 214.517625 
L 280.818141 214.163194 
L 282.546225 213.685765 
L 290.3226 213.630206 
L 290.706618 213.831495 
L 291.378651 214.427809 
L 292.242692 215.023295 
L 292.81872 215.071395 
L 293.298743 214.913632 
L 294.642808 214.249426 
L 296.658905 213.552522 
L 302.611193 213.995519 
L 303.859253 214.058514 
L 304.915304 214.237101 
L 305.491332 214.7535 
L 306.163364 215.244199 
L 306.835397 215.469384 
L 307.987452 215.319014 
L 310.579577 214.158618 
L 311.347614 214.102902 
L 313.459716 214.542974 
L 314.803781 214.687395 
L 315.667823 214.781503 
L 317.011888 214.90775 
L 317.779925 215.112673 
L 319.027985 215.824287 
L 319.604013 216.69219 
L 321.044082 218.891195 
L 321.716115 219.471854 
L 322.580156 220.037004 
L 323.732212 220.839516 
L 324.692258 221.940473 
L 325.844314 223.597625 
L 328.24443 227.611966 
L 331.98861 234.558127 
L 334.100712 238.970723 
L 335.348772 241.675454 
L 337.748888 246.376573 
L 339.86099 250.706802 
L 343.989189 259.303902 
L 347.445356 264.414999 
L 348.021384 264.871409 
L 349.173439 265.610383 
L 350.133486 266.731958 
L 353.685657 270.994722 
L 354.741708 271.913572 
L 355.60575 272.465042 
L 357.813856 273.712793 
L 358.965912 274.626218 
L 360.021963 275.364823 
L 362.230069 276.469261 
L 363.958153 276.511762 
L 364.534181 276.796256 
L 365.206213 277.300814 
L 367.030301 278.971565 
L 368.854389 280.306558 
L 374.230649 282.528815 
L 375.766723 282.861756 
L 376.630764 282.969456 
L 377.686815 282.783923 
L 378.358848 282.939968 
L 382.871065 285.196182 
L 383.639103 285.423691 
L 389.495385 286.014986 
L 390.551436 286.187405 
L 391.031459 286.02261 
L 392.183515 285.409378 
L 392.567533 285.331544 
L 392.951552 285.408733 
L 393.431575 285.666353 
L 394.295617 286.17803 
L 396.0237 286.828073 
L 397.079751 287.128919 
L 397.943793 287.464009 
L 399.287858 287.527015 
L 400.439913 287.507307 
L 401.39996 287.680504 
L 401.975987 287.780594 
L 403.032038 288.016516 
L 405.048136 288.477018 
L 405.432154 288.215189 
L 406.200191 287.664212 
L 406.680214 287.468391 
L 407.352247 287.559699 
L 408.312293 288.017445 
L 409.944372 288.93961 
L 412.152478 289.480882 
L 419.44883 290.265298 
L 419.928854 289.887798 
L 420.792895 289.315816 
L 421.176914 289.245437 
L 421.656937 289.288696 
L 422.13696 289.509491 
L 423.193011 290.153694 
L 424.921094 291.092699 
L 425.785136 291.294936 
L 426.745182 291.290395 
L 427.705229 291.415015 
L 429.913335 291.424364 
L 431.161396 291.400598 
L 431.641419 291.364394 
L 433.94553 291.416392 
L 435.19359 290.620442 
L 435.673613 290.605543 
L 436.44165 290.981921 
L 438.073729 292.149231 
L 438.841766 292.475821 
L 439.417794 292.51697 
L 441.625901 292.411366 
L 442.489942 292.340845 
L 443.930012 292.241625 
L 444.506039 292.189739 
L 447.866202 292.507388 
L 448.442229 292.053956 
L 449.69029 291.163609 
L 450.362322 291.068247 
L 451.802392 291.502957 
L 453.722484 292.504526 
L 454.778535 292.767893 
L 455.930591 292.610346 
L 456.602623 292.457152 
L 457.658674 292.451427 
L 458.714725 292.543461 
L 461.594864 292.666249 
L 462.458906 292.500578 
L 464.186989 291.402981 
L 464.667012 291.365004 
L 465.627059 291.742038 
L 467.835165 292.813587 
L 468.699207 292.840154 
L 469.563249 292.767875 
L 472.251378 292.849055 
L 473.595443 292.848353 
L 476.571587 292.459481 
L 476.955605 292.17426 
L 477.723642 291.598117 
L 478.395675 291.367688 
L 478.875698 291.324058 
L 479.73974 291.524227 
L 480.9878 292.139256 
L 481.755837 292.327407 
L 484.251957 292.978678 
L 484.251957 292.978678 
" clip-path="url(#pedd65d424f)" style="fill: none; stroke: #000000; stroke-linecap: round"/>
   </g>
   <g id="matplotlib.axis_5">
    <g id="xtick_11">
     <g id="line2d_47">
      <path d="M 79.304418 303.54 
L 79.304418 204.76 
" clip-path="url(#pedd65d424f)" style="fill: none; stroke: #b0b0b0; stroke-width: 0.8; stroke-linecap: round"/>
     </g>
     <g id="line2d_48"/>
     <g id="text_13">
      <!-- 0 -->
      <g style="fill: #262626" transform="translate(75.805043 315.398281) scale(0.11 -0.11)">
       <use xlink:href="#DejaVuSerif-30"/>
      </g>
     </g>
    </g>
    <g id="xtick_12">
     <g id="line2d_49">
      <path d="M 175.95662 303.54 
L 175.95662 204.76 
" clip-path="url(#pedd65d424f)" style="fill: none; stroke: #b0b0b0; stroke-width: 0.8; stroke-linecap: round"/>
     </g>
     <g id="line2d_50"/>
     <g id="text_14">
      <!-- 10 -->
      <g style="fill: #262626" transform="translate(168.95787 315.398281) scale(0.11 -0.11)">
       <use xlink:href="#DejaVuSerif-31"/>
       <use xlink:href="#DejaVuSerif-30" x="63.623047"/>
      </g>
     </g>
    </g>
    <g id="xtick_13">
     <g id="line2d_51">
      <path d="M 272.608822 303.54 
L 272.608822 204.76 
" clip-path="url(#pedd65d424f)" style="fill: none; stroke: #b0b0b0; stroke-width: 0.8; stroke-linecap: round"/>
     </g>
     <g id="line2d_52"/>
     <g id="text_15">
      <!-- 20 -->
      <g style="fill: #262626" transform="translate(265.610072 315.398281) scale(0.11 -0.11)">
       <use xlink:href="#DejaVuSerif-32"/>
       <use xlink:href="#DejaVuSerif-30" x="63.623047"/>
      </g>
     </g>
    </g>
    <g id="xtick_14">
     <g id="line2d_53">
      <path d="M 369.261024 303.54 
L 369.261024 204.76 
" clip-path="url(#pedd65d424f)" style="fill: none; stroke: #b0b0b0; stroke-width: 0.8; stroke-linecap: round"/>
     </g>
     <g id="line2d_54"/>
     <g id="text_16">
      <!-- 30 -->
      <g style="fill: #262626" transform="translate(362.262274 315.398281) scale(0.11 -0.11)">
       <defs>
        <path id="DejaVuSerif-33" d="M 622 4469 
Q 988 4606 1323 4678 
Q 1659 4750 1953 4750 
Q 2638 4750 3022 4454 
Q 3406 4159 3406 3634 
Q 3406 3213 3140 2930 
Q 2875 2647 2388 2547 
Q 2963 2466 3280 2130 
Q 3597 1794 3597 1259 
Q 3597 606 3158 257 
Q 2719 -91 1894 -91 
Q 1528 -91 1179 -12 
Q 831 66 488 225 
L 488 1131 
L 838 1131 
Q 869 681 1141 450 
Q 1413 219 1906 219 
Q 2384 219 2661 495 
Q 2938 772 2938 1253 
Q 2938 1803 2653 2086 
Q 2369 2369 1819 2369 
L 1522 2369 
L 1522 2688 
L 1678 2688 
Q 2225 2688 2498 2914 
Q 2772 3141 2772 3597 
Q 2772 4006 2547 4223 
Q 2322 4441 1900 4441 
Q 1478 4441 1245 4241 
Q 1013 4041 972 3647 
L 622 3647 
L 622 4469 
z
" transform="scale(0.015625)"/>
       </defs>
       <use xlink:href="#DejaVuSerif-33"/>
       <use xlink:href="#DejaVuSerif-30" x="63.623047"/>
      </g>
     </g>
    </g>
    <g id="xtick_15">
     <g id="line2d_55">
      <path d="M 465.913226 303.54 
L 465.913226 204.76 
" clip-path="url(#pedd65d424f)" style="fill: none; stroke: #b0b0b0; stroke-width: 0.8; stroke-linecap: round"/>
     </g>
     <g id="line2d_56"/>
     <g id="text_17">
      <!-- 40 -->
      <g style="fill: #262626" transform="translate(458.914476 315.398281) scale(0.11 -0.11)">
       <defs>
        <path id="DejaVuSerif-34" d="M 2234 1581 
L 2234 4063 
L 641 1581 
L 2234 1581 
z
M 3609 0 
L 1484 0 
L 1484 331 
L 2234 331 
L 2234 1247 
L 197 1247 
L 197 1588 
L 2241 4750 
L 2859 4750 
L 2859 1581 
L 3750 1581 
L 3750 1247 
L 2859 1247 
L 2859 331 
L 3609 331 
L 3609 0 
z
" transform="scale(0.015625)"/>
       </defs>
       <use xlink:href="#DejaVuSerif-34"/>
       <use xlink:href="#DejaVuSerif-30" x="63.623047"/>
      </g>
     </g>
    </g>
    <g id="text_18">
     <!-- Time [s] -->
     <g style="fill: #262626" transform="translate(259.030234 330.044219) scale(0.11 -0.11)">
      <defs>
       <path id="DejaVuSerif-54" d="M 1222 0 
L 1222 331 
L 1819 331 
L 1819 4294 
L 447 4294 
L 447 3566 
L 63 3566 
L 63 4666 
L 4206 4666 
L 4206 3566 
L 3822 3566 
L 3822 4294 
L 2450 4294 
L 2450 331 
L 3047 331 
L 3047 0 
L 1222 0 
z
" transform="scale(0.015625)"/>
       <path id="DejaVuSerif-5b" d="M 550 4863 
L 2003 4863 
L 2003 4531 
L 1147 4531 
L 1147 -513 
L 2003 -513 
L 2003 -844 
L 550 -844 
L 550 4863 
z
" transform="scale(0.015625)"/>
       <path id="DejaVuSerif-5d" d="M 1947 4863 
L 1947 -844 
L 494 -844 
L 494 -513 
L 1350 -513 
L 1350 4531 
L 494 4531 
L 494 4863 
L 1947 4863 
z
" transform="scale(0.015625)"/>
      </defs>
      <use xlink:href="#DejaVuSerif-54"/>
      <use xlink:href="#DejaVuSerif-69" x="66.699219"/>
      <use xlink:href="#DejaVuSerif-6d" x="98.681641"/>
      <use xlink:href="#DejaVuSerif-65" x="193.505859"/>
      <use xlink:href="#DejaVuSerif-20" x="252.685547"/>
      <use xlink:href="#DejaVuSerif-5b" x="284.472656"/>
      <use xlink:href="#DejaVuSerif-73" x="323.486328"/>
      <use xlink:href="#DejaVuSerif-5d" x="374.804688"/>
     </g>
    </g>
   </g>
   <g id="matplotlib.axis_6">
    <g id="ytick_7">
     <g id="line2d_57">
      <path d="M 59.055781 284.324356 
L 504.525781 284.324356 
" clip-path="url(#pedd65d424f)" style="fill: none; stroke: #b0b0b0; stroke-width: 0.8; stroke-linecap: round"/>
     </g>
     <g id="line2d_58"/>
     <g id="text_19">
      <!-- −0.05 -->
      <g style="fill: #262626" transform="translate(21.845938 288.503497) scale(0.11 -0.11)">
       <defs>
        <path id="DejaVuSerif-2e" d="M 603 325 
Q 603 500 722 622 
Q 841 744 1019 744 
Q 1191 744 1312 622 
Q 1434 500 1434 325 
Q 1434 153 1312 31 
Q 1191 -91 1019 -91 
Q 841 -91 722 29 
Q 603 150 603 325 
z
" transform="scale(0.015625)"/>
        <path id="DejaVuSerif-35" d="M 3219 4666 
L 3219 4153 
L 1081 4153 
L 1081 2816 
Q 1244 2928 1461 2984 
Q 1678 3041 1947 3041 
Q 2703 3041 3140 2622 
Q 3578 2203 3578 1478 
Q 3578 738 3136 323 
Q 2694 -91 1894 -91 
Q 1572 -91 1234 -12 
Q 897 66 544 225 
L 544 1131 
L 897 1131 
Q 925 688 1179 453 
Q 1434 219 1894 219 
Q 2388 219 2653 544 
Q 2919 869 2919 1478 
Q 2919 2084 2655 2407 
Q 2391 2731 1894 2731 
Q 1613 2731 1398 2631 
Q 1184 2531 1019 2322 
L 750 2322 
L 750 4666 
L 3219 4666 
z
" transform="scale(0.015625)"/>
       </defs>
       <use xlink:href="#DejaVuSerif-2212"/>
       <use xlink:href="#DejaVuSerif-30" x="83.789062"/>
       <use xlink:href="#DejaVuSerif-2e" x="147.412109"/>
       <use xlink:href="#DejaVuSerif-30" x="179.199219"/>
       <use xlink:href="#DejaVuSerif-35" x="242.822266"/>
      </g>
     </g>
    </g>
    <g id="ytick_8">
     <g id="line2d_59">
      <path d="M 59.055781 254.281768 
L 504.525781 254.281768 
" clip-path="url(#pedd65d424f)" style="fill: none; stroke: #b0b0b0; stroke-width: 0.8; stroke-linecap: round"/>
     </g>
     <g id="line2d_60"/>
     <g id="text_20">
      <!-- 0.00 -->
      <g style="fill: #262626" transform="translate(31.063594 258.460909) scale(0.11 -0.11)">
       <use xlink:href="#DejaVuSerif-30"/>
       <use xlink:href="#DejaVuSerif-2e" x="63.623047"/>
       <use xlink:href="#DejaVuSerif-30" x="95.410156"/>
       <use xlink:href="#DejaVuSerif-30" x="159.033203"/>
      </g>
     </g>
    </g>
    <g id="ytick_9">
     <g id="line2d_61">
      <path d="M 59.055781 224.23918 
L 504.525781 224.23918 
" clip-path="url(#pedd65d424f)" style="fill: none; stroke: #b0b0b0; stroke-width: 0.8; stroke-linecap: round"/>
     </g>
     <g id="line2d_62"/>
     <g id="text_21">
      <!-- 0.05 -->
      <g style="fill: #262626" transform="translate(31.063594 228.418321) scale(0.11 -0.11)">
       <use xlink:href="#DejaVuSerif-30"/>
       <use xlink:href="#DejaVuSerif-2e" x="63.623047"/>
       <use xlink:href="#DejaVuSerif-30" x="95.410156"/>
       <use xlink:href="#DejaVuSerif-35" x="159.033203"/>
      </g>
     </g>
    </g>
    <g id="text_22">
     <!-- $r$ $[rad/s]$ -->
     <g style="fill: #262626" transform="translate(15.558281 276.315) rotate(-90) scale(0.11 -0.11)">
      <defs>
       <path id="DejaVuSans-Oblique-72" d="M 2853 2969 
Q 2766 3016 2653 3041 
Q 2541 3066 2413 3066 
Q 1953 3066 1609 2717 
Q 1266 2369 1153 1784 
L 800 0 
L 225 0 
L 909 3500 
L 1484 3500 
L 1375 2956 
Q 1603 3259 1920 3421 
Q 2238 3584 2597 3584 
Q 2691 3584 2781 3573 
Q 2872 3563 2963 3538 
L 2853 2969 
z
" transform="scale(0.015625)"/>
       <path id="DejaVuSans-Oblique-61" d="M 3438 1997 
L 3047 0 
L 2472 0 
L 2578 531 
Q 2325 219 2001 64 
Q 1678 -91 1281 -91 
Q 834 -91 548 182 
Q 263 456 263 884 
Q 263 1497 752 1853 
Q 1241 2209 2100 2209 
L 2900 2209 
L 2931 2363 
Q 2938 2388 2941 2417 
Q 2944 2447 2944 2509 
Q 2944 2788 2717 2942 
Q 2491 3097 2081 3097 
Q 1800 3097 1504 3025 
Q 1209 2953 897 2809 
L 997 3341 
Q 1322 3463 1633 3523 
Q 1944 3584 2234 3584 
Q 2853 3584 3176 3315 
Q 3500 3047 3500 2534 
Q 3500 2431 3484 2292 
Q 3469 2153 3438 1997 
z
M 2816 1759 
L 2241 1759 
Q 1534 1759 1195 1570 
Q 856 1381 856 984 
Q 856 709 1029 553 
Q 1203 397 1509 397 
Q 1978 397 2328 733 
Q 2678 1069 2791 1631 
L 2816 1759 
z
" transform="scale(0.015625)"/>
       <path id="DejaVuSans-2f" d="M 1625 4666 
L 2156 4666 
L 531 -594 
L 0 -594 
L 1625 4666 
z
" transform="scale(0.015625)"/>
       <path id="DejaVuSans-Oblique-73" d="M 3200 3397 
L 3091 2853 
Q 2863 2978 2609 3040 
Q 2356 3103 2088 3103 
Q 1634 3103 1373 2948 
Q 1113 2794 1113 2528 
Q 1113 2219 1719 2053 
Q 1766 2041 1788 2034 
L 1972 1978 
Q 2547 1819 2739 1644 
Q 2931 1469 2931 1166 
Q 2931 609 2489 259 
Q 2047 -91 1331 -91 
Q 1053 -91 747 -37 
Q 441 16 72 128 
L 184 722 
Q 500 559 806 475 
Q 1113 391 1394 391 
Q 1816 391 2080 572 
Q 2344 753 2344 1031 
Q 2344 1331 1650 1516 
L 1591 1531 
L 1394 1581 
Q 956 1697 753 1886 
Q 550 2075 550 2369 
Q 550 2928 970 3256 
Q 1391 3584 2113 3584 
Q 2397 3584 2667 3537 
Q 2938 3491 3200 3397 
z
" transform="scale(0.015625)"/>
      </defs>
      <use xlink:href="#DejaVuSans-Oblique-72" transform="translate(0 0.015625)"/>
      <use xlink:href="#DejaVuSerif-20" transform="translate(41.113281 0.015625)"/>
      <use xlink:href="#DejaVuSans-5b" transform="translate(72.900391 0.015625)"/>
      <use xlink:href="#DejaVuSans-Oblique-72" transform="translate(111.914062 0.015625)"/>
      <use xlink:href="#DejaVuSans-Oblique-61" transform="translate(153.027344 0.015625)"/>
      <use xlink:href="#DejaVuSans-Oblique-64" transform="translate(214.306641 0.015625)"/>
      <use xlink:href="#DejaVuSans-2f" transform="translate(277.783203 0.015625)"/>
      <use xlink:href="#DejaVuSans-Oblique-73" transform="translate(311.474609 0.015625)"/>
      <use xlink:href="#DejaVuSans-5d" transform="translate(363.574219 0.015625)"/>
     </g>
    </g>
   </g>
   <g id="line2d_63">
    <path d="M 79.304418 254.281768 
L 80.367592 254.401078 
L 81.430766 254.750348 
L 82.590592 255.375617 
L 83.943723 256.396769 
L 85.296854 257.7202 
L 86.843289 259.574661 
L 88.486377 261.91111 
L 90.516073 265.23039 
L 94.575466 272.069294 
L 96.411857 274.606833 
L 98.441554 277.00783 
L 100.567902 279.191122 
L 102.790903 281.166707 
L 105.787121 283.453802 
L 108.493383 285.178745 
L 111.00634 286.532436 
L 114.485819 288.101515 
L 117.482037 289.274328 
L 121.348126 290.527665 
L 126.180736 291.865147 
L 130.240128 292.798228 
L 135.845956 293.892815 
L 145.414524 295.458127 
L 150.827047 296.117531 
L 151.793569 295.985742 
L 152.856743 295.62072 
L 154.01657 294.969251 
L 155.273049 293.993649 
L 156.626179 292.643833 
L 158.075962 290.887507 
L 159.71905 288.544904 
L 161.652094 285.392428 
L 164.068399 281.008839 
L 166.678008 275.758292 
L 169.867531 268.823216 
L 173.443663 260.435449 
L 176.729837 252.762683 
L 178.372925 249.503228 
L 180.305969 246.166552 
L 182.142361 243.417197 
L 184.172057 240.764618 
L 186.49171 238.150013 
L 188.714711 235.960791 
L 191.131016 233.877938 
L 193.643973 232.02638 
L 196.543539 230.177659 
L 199.443105 228.583622 
L 203.212541 226.792338 
L 206.208759 225.575969 
L 212.3945 223.385743 
L 217.613719 221.754102 
L 221.769764 220.659575 
L 230.855071 218.646492 
L 238.490595 217.181717 
L 249.992207 215.213054 
L 261.010558 213.712602 
L 271.448996 212.507352 
L 284.593695 211.205793 
L 293.485698 210.524749 
L 304.890658 209.887791 
L 313.106095 209.580853 
L 314.072617 209.826928 
L 315.135791 210.314148 
L 316.295617 211.096933 
L 317.648748 212.307937 
L 319.098531 213.912974 
L 320.644967 215.958118 
L 322.578011 218.880636 
L 324.607707 222.369363 
L 327.313968 227.524518 
L 330.503491 234.113736 
L 334.272927 242.448536 
L 339.202189 253.406546 
L 341.038581 256.728752 
L 342.874973 259.626994 
L 344.904669 262.413461 
L 346.934366 264.834696 
L 349.254018 267.253433 
L 351.766976 269.552769 
L 354.473237 271.724241 
L 357.372803 273.791383 
L 360.369022 275.654497 
L 363.36524 277.259829 
L 366.554763 278.716377 
L 370.710807 280.368537 
L 375.930026 282.190241 
L 381.439202 283.89059 
L 390.717813 286.484355 
L 395.647075 287.639898 
L 401.349555 288.716349 
L 425.512606 292.838648 
L 434.018 293.980624 
L 454.991528 296.255434 
L 472.388924 297.639096 
L 484.277145 298.318607 
L 484.277145 298.318607 
" clip-path="url(#pedd65d424f)" style="fill: none; stroke: #0000ff; stroke-linecap: round"/>
   </g>
   <g id="line2d_64">
    <path d="M 79.304418 254.281768 
L 80.367592 254.401113 
L 81.430766 254.750609 
L 82.590592 255.376493 
L 83.943723 256.398991 
L 85.296854 257.724483 
L 86.843289 259.582025 
L 88.486377 261.922165 
L 90.516073 265.245391 
L 94.478813 271.933402 
L 96.315205 274.475951 
L 98.248249 276.759447 
L 100.277945 278.839206 
L 102.500946 280.801316 
L 105.30386 282.895867 
L 107.623513 284.347658 
L 110.233122 285.723055 
L 113.229341 286.99268 
L 116.805472 288.280748 
L 120.478256 289.3433 
L 124.344344 290.280017 
L 131.689911 291.652792 
L 139.615392 292.647378 
L 148.31409 293.544323 
L 152.470135 293.7729 
L 153.436657 293.585467 
L 154.499831 293.149455 
L 155.75631 292.384356 
L 157.012788 291.329489 
L 158.462571 289.833548 
L 160.105659 287.798091 
L 161.845398 285.267509 
L 163.971747 281.714891 
L 166.2914 277.396626 
L 168.997661 271.879228 
L 171.99388 265.257043 
L 175.666663 256.561198 
L 178.469577 250.129447 
L 180.305969 246.548655 
L 182.045709 243.601419 
L 183.978753 240.752997 
L 186.008449 238.157087 
L 188.134797 235.78325 
L 190.45445 233.532793 
L 192.580799 231.778558 
L 194.997104 230.083436 
L 197.993322 228.258674 
L 200.506279 226.961897 
L 203.889106 225.505694 
L 207.175281 224.334211 
L 213.361022 222.374851 
L 217.903676 221.12328 
L 221.18985 220.45119 
L 227.858852 219.311807 
L 237.814029 217.85695 
L 246.222771 216.818624 
L 255.984643 215.820702 
L 261.97708 215.33993 
L 289.716262 213.604715 
L 300.734613 213.280487 
L 315.232443 212.96889 
L 316.198965 213.232251 
L 317.358792 213.7937 
L 318.61527 214.651604 
L 319.968401 215.876421 
L 321.514836 217.607546 
L 323.157924 219.783417 
L 325.18762 222.857417 
L 327.410621 226.632814 
L 329.826926 231.177001 
L 332.919796 237.481365 
L 336.205971 244.688036 
L 341.328538 256.096472 
L 343.16493 259.487461 
L 345.001321 262.425795 
L 346.934366 265.10919 
L 349.060714 267.706278 
L 351.283715 270.074934 
L 353.796672 272.395342 
L 356.309629 274.422838 
L 359.112543 276.366551 
L 362.108761 278.169088 
L 364.718371 279.512306 
L 367.811241 280.837835 
L 372.16059 282.431125 
L 376.219983 283.730857 
L 381.922463 285.274323 
L 389.944596 287.188741 
L 394.777206 288.114177 
L 400.189729 288.912256 
L 412.657863 290.414689 
L 429.475346 292.2349 
L 437.207522 292.838813 
L 455.378136 294.022705 
L 484.277145 295.134933 
L 484.277145 295.134933 
" clip-path="url(#pedd65d424f)" style="fill: none; stroke: #008000; stroke-linecap: round"/>
   </g>
   <g id="line2d_65">
    <path d="M 79.304418 254.281768 
L 80.464244 254.399867 
L 81.62407 254.74978 
L 82.880549 255.37293 
L 84.137028 256.242416 
L 85.490159 257.438323 
L 87.133246 259.21606 
L 88.776333 261.337758 
L 90.709377 264.194121 
L 95.63864 271.73978 
L 97.764988 274.334361 
L 100.084641 276.803606 
L 102.597598 279.155503 
L 105.400512 281.481981 
L 108.39673 283.674895 
L 111.489601 285.656331 
L 114.872428 287.549556 
L 118.545212 289.348204 
L 122.507952 291.041293 
L 126.567344 292.529046 
L 131.20665 293.973752 
L 135.845956 295.186068 
L 140.87187 296.263176 
L 146.187742 297.173585 
L 151.020352 297.803072 
L 152.083526 297.695844 
L 153.1467 297.342107 
L 154.209874 296.750485 
L 155.369701 295.826845 
L 156.626179 294.534408 
L 158.075962 292.699559 
L 159.71905 290.228418 
L 161.458789 287.197656 
L 163.585138 283.032565 
L 166.098095 277.624579 
L 169.770879 269.138517 
L 178.469577 248.790353 
L 180.112665 245.91865 
L 181.852404 243.307219 
L 183.8821 240.667493 
L 186.105101 238.165318 
L 188.424754 235.867453 
L 191.034363 233.594008 
L 194.030582 231.273303 
L 197.316757 229.00139 
L 201.086192 226.687862 
L 204.855628 224.645875 
L 208.915021 222.70624 
L 213.650979 220.696335 
L 218.676893 218.811812 
L 223.606156 217.185753 
L 228.825374 215.696683 
L 234.237898 214.382327 
L 240.520291 213.102801 
L 246.899336 212.030729 
L 253.181729 211.198203 
L 261.010558 210.422222 
L 269.032691 209.850694 
L 277.924693 209.451023 
L 287.106652 209.290592 
L 300.251352 209.297312 
L 307.21031 209.505585 
L 308.273485 209.825884 
L 309.336659 210.390948 
L 310.496485 211.260935 
L 311.752964 212.48788 
L 313.202747 214.256358 
L 314.845834 216.638265 
L 316.682226 219.704678 
L 319.001879 224.103331 
L 321.901445 230.110115 
L 326.154142 239.575679 
L 334.369579 257.970617 
L 336.012667 260.710577 
L 337.849059 263.333044 
L 339.878755 265.820739 
L 342.101755 268.192052 
L 344.51806 270.452843 
L 347.417627 272.843736 
L 350.607149 275.178468 
L 354.183281 277.513341 
L 357.856064 279.650786 
L 362.108761 281.858496 
L 366.748067 284.00508 
L 371.484025 285.962045 
L 376.703244 287.869691 
L 382.405724 289.713107 
L 387.818247 291.241418 
L 394.10064 292.777863 
L 401.156251 294.272893 
L 407.341992 295.341631 
L 414.204298 296.295323 
L 421.74317 297.116241 
L 430.53852 297.827546 
L 439.72048 298.34409 
L 448.419178 298.619608 
L 459.630833 298.727566 
L 468.136227 298.693163 
L 468.136227 298.693163 
" clip-path="url(#pedd65d424f)" style="fill: none; stroke: #ff0000; stroke-linecap: round"/>
   </g>
   <g id="patch_9">
    <path d="M 59.055781 303.54 
L 59.055781 204.76 
" style="fill: none; stroke: #000000; stroke-linejoin: miter; stroke-linecap: square"/>
   </g>
   <g id="patch_10">
    <path d="M 59.055781 303.54 
L 504.525781 303.54 
" style="fill: none; stroke: #000000; stroke-linejoin: miter; stroke-linecap: square"/>
   </g>
  </g>
 </g>
 <defs>
  <clipPath id="p70aa7b3f2e">
   <rect x="59.055781" y="7.2" width="445.47" height="98.78"/>
  </clipPath>
  <clipPath id="p772a4d9812">
   <rect x="59.055781" y="105.98" width="445.47" height="98.78"/>
  </clipPath>
  <clipPath id="pedd65d424f">
   <rect x="59.055781" y="204.76" width="445.47" height="98.78"/>
  </clipPath>
 </defs>
</svg>
