<?xml version="1.0" encoding="utf-8" standalone="no"?>
<!DOCTYPE svg PUBLIC "-//W3C//DTD SVG 1.1//EN"
  "http://www.w3.org/Graphics/SVG/1.1/DTD/svg11.dtd">
<svg xmlns:xlink="http://www.w3.org/1999/xlink" width="219.591719pt" height="226.909375pt" viewBox="0 0 219.591719 226.909375" xmlns="http://www.w3.org/2000/svg" version="1.1">
 <metadata>
  <rdf:RDF xmlns:dc="http://purl.org/dc/elements/1.1/" xmlns:cc="http://creativecommons.org/ns#" xmlns:rdf="http://www.w3.org/1999/02/22-rdf-syntax-ns#">
   <cc:Work>
    <dc:type rdf:resource="http://purl.org/dc/dcmitype/StillImage"/>
    <dc:date>2024-02-13T13:10:58.843289</dc:date>
    <dc:format>image/svg+xml</dc:format>
    <dc:creator>
     <cc:Agent>
      <dc:title>Matplotlib v3.8.2, https://matplotlib.org/</dc:title>
     </cc:Agent>
    </dc:creator>
   </cc:Work>
  </rdf:RDF>
 </metadata>
 <defs>
  <style type="text/css">*{stroke-linejoin: round; stroke-linecap: butt}</style>
 </defs>
 <g id="figure_1">
  <g id="patch_1">
   <path d="M 0 226.909375 
L 219.591719 226.909375 
L 219.591719 0 
L 0 0 
z
" style="fill: #ffffff"/>
  </g>
  <g id="axes_1">
   <g id="patch_2">
    <path d="M 43.011719 71.02 
L 212.391719 71.02 
L 212.391719 7.2 
L 43.011719 7.2 
z
" style="fill: #ffffff"/>
   </g>
   <g id="line2d_1">
    <path d="M 50.71081 39.311545 
L 51.845672 39.496868 
L 53.053751 39.929326 
L 54.298439 40.618684 
L 55.543126 41.574063 
L 58.618237 44.460715 
L 65.390802 51.130209 
L 71.61424 56.211439 
L 74.359874 57.960594 
L 76.959074 59.401183 
L 77.947503 59.700021 
L 78.97254 59.776443 
L 79.997577 59.626897 
L 81.022613 59.254029 
L 82.120867 58.609009 
L 83.292338 57.654836 
L 84.500417 56.373727 
L 85.781713 54.678205 
L 87.465702 52.023694 
L 93.872182 41.896032 
L 96.06869 38.921612 
L 98.92415 35.463769 
L 101.486742 32.663033 
L 103.463598 30.84566 
L 107.527137 27.562196 
L 110.272772 25.540158 
L 113.018406 23.804448 
L 118.765934 20.505252 
L 122.060695 18.933005 
L 125.28224 17.578831 
L 131.286027 15.485095 
L 135.056698 14.460922 
L 138.241634 13.783128 
L 140.364925 13.527541 
L 141.682829 13.565485 
L 142.744475 13.853269 
L 144.062379 14.444006 
L 145.380284 15.270399 
L 146.551754 16.26919 
L 147.723225 17.570469 
L 149.041129 19.382649 
L 150.578685 21.891656 
L 156.106562 31.351152 
L 158.52272 35.11996 
L 160.755836 38.1829 
L 163.428254 41.461603 
L 165.917629 44.175775 
L 168.077528 46.205687 
L 170.676728 48.314519 
L 174.740267 51.345665 
L 178.291288 53.58435 
L 182.903954 56.275921 
L 185.686196 57.656833 
L 190.701555 59.836479 
L 194.289184 61.082485 
L 197.913422 62.142305 
L 202.379654 63.220281 
L 204.685986 63.690712 
L 204.685986 63.690712 
" clip-path="url(#p9546be70c2)" style="fill: none; stroke: #000000; stroke-width: 0.6; stroke-linecap: round"/>
   </g>
   <g id="matplotlib.axis_1">
    <g id="xtick_1">
     <g id="line2d_2">
      <path d="M 50.71081 71.02 
L 50.71081 7.2 
" clip-path="url(#p9546be70c2)" style="fill: none; stroke: #b0b0b0; stroke-width: 0.8; stroke-linecap: round"/>
     </g>
     <g id="line2d_3"/>
    </g>
    <g id="xtick_2">
     <g id="line2d_4">
      <path d="M 87.566199 71.02 
L 87.566199 7.2 
" clip-path="url(#p9546be70c2)" style="fill: none; stroke: #b0b0b0; stroke-width: 0.8; stroke-linecap: round"/>
     </g>
     <g id="line2d_5"/>
    </g>
    <g id="xtick_3">
     <g id="line2d_6">
      <path d="M 124.421589 71.02 
L 124.421589 7.2 
" clip-path="url(#p9546be70c2)" style="fill: none; stroke: #b0b0b0; stroke-width: 0.8; stroke-linecap: round"/>
     </g>
     <g id="line2d_7"/>
    </g>
    <g id="xtick_4">
     <g id="line2d_8">
      <path d="M 161.276979 71.02 
L 161.276979 7.2 
" clip-path="url(#p9546be70c2)" style="fill: none; stroke: #b0b0b0; stroke-width: 0.8; stroke-linecap: round"/>
     </g>
     <g id="line2d_9"/>
    </g>
    <g id="xtick_5">
     <g id="line2d_10">
      <path d="M 198.132368 71.02 
L 198.132368 7.2 
" clip-path="url(#p9546be70c2)" style="fill: none; stroke: #b0b0b0; stroke-width: 0.8; stroke-linecap: round"/>
     </g>
     <g id="line2d_11"/>
    </g>
   </g>
   <g id="matplotlib.axis_2">
    <g id="ytick_1">
     <g id="line2d_12">
      <path d="M 43.011719 59.116034 
L 212.391719 59.116034 
" clip-path="url(#p9546be70c2)" style="fill: none; stroke: #b0b0b0; stroke-width: 0.8; stroke-linecap: round"/>
     </g>
     <g id="line2d_13"/>
     <g id="text_1">
      <!-- −10 -->
      <g style="fill: #262626" transform="translate(24.738438 61.775487) scale(0.07 -0.07)">
       <defs>
        <path id="DejaVuSerif-2212" d="M 678 2259 
L 4684 2259 
L 4684 1753 
L 678 1753 
L 678 2259 
z
" transform="scale(0.015625)"/>
        <path id="DejaVuSerif-31" d="M 909 0 
L 909 331 
L 1722 331 
L 1722 4213 
L 781 3603 
L 781 4013 
L 1919 4750 
L 2350 4750 
L 2350 331 
L 3163 331 
L 3163 0 
L 909 0 
z
" transform="scale(0.015625)"/>
        <path id="DejaVuSerif-30" d="M 2034 219 
Q 2513 219 2750 744 
Q 2988 1269 2988 2328 
Q 2988 3391 2750 3916 
Q 2513 4441 2034 4441 
Q 1556 4441 1318 3916 
Q 1081 3391 1081 2328 
Q 1081 1269 1318 744 
Q 1556 219 2034 219 
z
M 2034 -91 
Q 1275 -91 848 546 
Q 422 1184 422 2328 
Q 422 3475 848 4112 
Q 1275 4750 2034 4750 
Q 2797 4750 3222 4112 
Q 3647 3475 3647 2328 
Q 3647 1184 3222 546 
Q 2797 -91 2034 -91 
z
" transform="scale(0.015625)"/>
       </defs>
       <use xlink:href="#DejaVuSerif-2212"/>
       <use xlink:href="#DejaVuSerif-31" x="83.789062"/>
       <use xlink:href="#DejaVuSerif-30" x="147.412109"/>
      </g>
     </g>
    </g>
    <g id="ytick_2">
     <g id="line2d_14">
      <path d="M 43.011719 39.230845 
L 212.391719 39.230845 
" clip-path="url(#p9546be70c2)" style="fill: none; stroke: #b0b0b0; stroke-width: 0.8; stroke-linecap: round"/>
     </g>
     <g id="line2d_15"/>
     <g id="text_2">
      <!-- 0 -->
      <g style="fill: #262626" transform="translate(35.057969 41.890298) scale(0.07 -0.07)">
       <use xlink:href="#DejaVuSerif-30"/>
      </g>
     </g>
    </g>
    <g id="ytick_3">
     <g id="line2d_16">
      <path d="M 43.011719 19.345655 
L 212.391719 19.345655 
" clip-path="url(#p9546be70c2)" style="fill: none; stroke: #b0b0b0; stroke-width: 0.8; stroke-linecap: round"/>
     </g>
     <g id="line2d_17"/>
     <g id="text_3">
      <!-- 10 -->
      <g style="fill: #262626" transform="translate(30.604219 22.005108) scale(0.07 -0.07)">
       <use xlink:href="#DejaVuSerif-31"/>
       <use xlink:href="#DejaVuSerif-30" x="63.623047"/>
      </g>
     </g>
    </g>
    <g id="text_4">
     <!-- $\beta$ $[deg]$ -->
     <g style="fill: #262626" transform="translate(12.59 51.815) rotate(-90) scale(0.07 -0.07)">
      <defs>
       <path id="DejaVuSans-Oblique-3b2" d="M 872 216 
L 572 -1331 
L -6 -1331 
L 928 3478 
Q 1206 4903 2538 4903 
Q 3888 4903 3659 3700 
Q 3503 2844 2894 2531 
Q 3713 2250 3553 1416 
Q 3272 -69 1759 -66 
Q 1097 -63 872 216 
z
M 1019 966 
Q 1259 422 1875 425 
Q 2775 425 2966 1406 
Q 3138 2288 1675 2219 
L 1778 2750 
Q 2909 2731 3106 3750 
Q 3241 4438 2509 4434 
Q 1691 4434 1503 3459 
L 1019 966 
z
" transform="scale(0.015625)"/>
       <path id="DejaVuSerif-20" transform="scale(0.015625)"/>
       <path id="DejaVuSans-5b" d="M 550 4863 
L 1875 4863 
L 1875 4416 
L 1125 4416 
L 1125 -397 
L 1875 -397 
L 1875 -844 
L 550 -844 
L 550 4863 
z
" transform="scale(0.015625)"/>
       <path id="DejaVuSans-Oblique-64" d="M 2675 525 
Q 2444 222 2128 65 
Q 1813 -91 1428 -91 
Q 903 -91 598 267 
Q 294 625 294 1247 
Q 294 1766 478 2236 
Q 663 2706 1013 3078 
Q 1244 3325 1534 3454 
Q 1825 3584 2144 3584 
Q 2481 3584 2739 3421 
Q 2997 3259 3138 2956 
L 3513 4863 
L 4091 4863 
L 3144 0 
L 2566 0 
L 2675 525 
z
M 891 1350 
Q 891 897 1095 644 
Q 1300 391 1663 391 
Q 1931 391 2161 520 
Q 2391 650 2566 903 
Q 2750 1166 2856 1509 
Q 2963 1853 2963 2188 
Q 2963 2622 2758 2865 
Q 2553 3109 2194 3109 
Q 1922 3109 1687 2981 
Q 1453 2853 1288 2613 
Q 1106 2353 998 2009 
Q 891 1666 891 1350 
z
" transform="scale(0.015625)"/>
       <path id="DejaVuSans-Oblique-65" d="M 3078 2063 
Q 3088 2113 3092 2166 
Q 3097 2219 3097 2272 
Q 3097 2653 2873 2875 
Q 2650 3097 2266 3097 
Q 1838 3097 1509 2826 
Q 1181 2556 1013 2059 
L 3078 2063 
z
M 3578 1613 
L 903 1613 
Q 884 1494 878 1425 
Q 872 1356 872 1306 
Q 872 872 1139 634 
Q 1406 397 1894 397 
Q 2269 397 2603 481 
Q 2938 566 3225 728 
L 3116 159 
Q 2806 34 2476 -28 
Q 2147 -91 1806 -91 
Q 1078 -91 686 257 
Q 294 606 294 1247 
Q 294 1794 489 2264 
Q 684 2734 1063 3103 
Q 1306 3334 1642 3459 
Q 1978 3584 2356 3584 
Q 2950 3584 3301 3228 
Q 3653 2872 3653 2272 
Q 3653 2128 3634 1964 
Q 3616 1800 3578 1613 
z
" transform="scale(0.015625)"/>
       <path id="DejaVuSans-Oblique-67" d="M 3816 3500 
L 3219 434 
Q 3047 -456 2561 -893 
Q 2075 -1331 1253 -1331 
Q 950 -1331 690 -1286 
Q 431 -1241 206 -1147 
L 313 -588 
Q 525 -725 762 -790 
Q 1000 -856 1269 -856 
Q 1816 -856 2167 -557 
Q 2519 -259 2631 300 
L 2681 563 
Q 2441 288 2122 144 
Q 1803 0 1434 0 
Q 903 0 598 351 
Q 294 703 294 1319 
Q 294 1803 478 2267 
Q 663 2731 997 3091 
Q 1219 3328 1514 3456 
Q 1809 3584 2131 3584 
Q 2484 3584 2746 3420 
Q 3009 3256 3138 2956 
L 3238 3500 
L 3816 3500 
z
M 2950 2216 
Q 2950 2641 2750 2872 
Q 2550 3103 2181 3103 
Q 1953 3103 1747 3012 
Q 1541 2922 1394 2759 
Q 1156 2491 1023 2127 
Q 891 1763 891 1375 
Q 891 944 1092 712 
Q 1294 481 1672 481 
Q 2219 481 2584 976 
Q 2950 1472 2950 2216 
z
" transform="scale(0.015625)"/>
       <path id="DejaVuSans-5d" d="M 1947 4863 
L 1947 -844 
L 622 -844 
L 622 -397 
L 1369 -397 
L 1369 4416 
L 622 4416 
L 622 4863 
L 1947 4863 
z
" transform="scale(0.015625)"/>
      </defs>
      <use xlink:href="#DejaVuSans-Oblique-3b2" transform="translate(0 0.390625)"/>
      <use xlink:href="#DejaVuSerif-20" transform="translate(63.818359 0.390625)"/>
      <use xlink:href="#DejaVuSans-5b" transform="translate(95.605469 0.390625)"/>
      <use xlink:href="#DejaVuSans-Oblique-64" transform="translate(134.619141 0.390625)"/>
      <use xlink:href="#DejaVuSans-Oblique-65" transform="translate(198.095703 0.390625)"/>
      <use xlink:href="#DejaVuSans-Oblique-67" transform="translate(259.619141 0.390625)"/>
      <use xlink:href="#DejaVuSans-5d" transform="translate(323.095703 0.390625)"/>
     </g>
    </g>
   </g>
   <g id="line2d_18">
    <path d="M 50.71081 39.230845 
L 51.890182 39.340933 
L 52.995844 39.662822 
L 54.06465 40.19777 
L 55.207167 41.023198 
L 57.197358 42.816402 
L 65.305544 50.169003 
L 68.991083 53.139169 
L 72.750333 55.890241 
L 76.620149 58.444363 
L 78.573484 59.535149 
L 79.605435 59.829965 
L 80.600531 59.881467 
L 81.595626 59.707652 
L 82.627577 59.289365 
L 83.696383 58.607913 
L 84.838901 57.606949 
L 86.091984 56.199194 
L 87.63991 54.08128 
L 95.047843 43.604432 
L 98.401684 39.341368 
L 101.644958 35.588953 
L 104.740811 32.317394 
L 107.873519 29.339696 
L 111.374781 26.325266 
L 114.839188 23.63371 
L 118.524727 21.053064 
L 122.431398 18.587422 
L 126.669768 16.191169 
L 130.797571 14.099652 
L 135.330784 12.047639 
L 139.753431 10.271341 
L 140.748527 10.105556 
L 141.706767 10.170587 
L 142.665007 10.449579 
L 143.696958 10.983386 
L 144.80262 11.810286 
L 146.018847 13.009253 
L 147.345641 14.641186 
L 148.856712 16.879257 
L 157.222886 29.884266 
L 160.503016 34.476313 
L 163.672579 38.516024 
L 166.952709 42.34625 
L 170.122272 45.733014 
L 173.328691 48.815181 
L 176.645676 51.705693 
L 180.110083 54.449284 
L 183.795622 57.09361 
L 187.665438 59.609126 
L 191.498398 61.844169 
L 196.289599 64.355983 
L 201.15451 66.635245 
L 204.692628 68.119091 
L 204.692628 68.119091 
" clip-path="url(#p9546be70c2)" style="fill: none; stroke: #0000ff; stroke-width: 0.6; stroke-linecap: round"/>
   </g>
   <g id="line2d_19">
    <path d="M 50.71081 39.230845 
L 51.890182 39.340784 
L 52.995844 39.661718 
L 54.06465 40.194176 
L 55.207167 41.014188 
L 57.34478 42.917746 
L 63.905039 48.729236 
L 67.590578 51.625417 
L 70.870708 53.93087 
L 74.519391 56.225671 
L 78.168075 58.265555 
L 79.347447 58.764071 
L 80.379398 58.966084 
L 81.374494 58.936062 
L 82.369589 58.686581 
L 83.438396 58.180997 
L 84.544057 57.401267 
L 85.72343 56.289135 
L 87.013369 54.750378 
L 88.782427 52.229397 
L 94.900422 43.421579 
L 97.996275 39.424522 
L 100.870995 36.069749 
L 103.893137 32.874677 
L 106.804713 30.13232 
L 109.86371 27.553617 
L 113.033274 25.172942 
L 116.460825 22.873072 
L 119.888376 20.832951 
L 123.758192 18.792365 
L 127.959706 16.832657 
L 132.456064 14.977213 
L 137.652674 13.081634 
L 140.785382 12.12934 
L 141.780478 12.097852 
L 142.812429 12.292344 
L 143.844379 12.726139 
L 144.950041 13.442039 
L 146.129414 14.47997 
L 147.419352 15.926862 
L 148.783002 17.795575 
L 150.920614 21.193912 
L 156.448923 29.939919 
L 159.729052 34.678223 
L 162.603773 38.423696 
L 165.625915 42.002873 
L 168.684912 45.282342 
L 171.596488 48.074659 
L 174.471208 50.524731 
L 177.751338 53.040056 
L 181.215745 55.402105 
L 185.048705 57.734659 
L 188.771099 59.733449 
L 193.156891 61.821315 
L 197.726959 63.753797 
L 202.333883 65.458021 
L 204.397785 66.160786 
L 204.397785 66.160786 
" clip-path="url(#p9546be70c2)" style="fill: none; stroke: #008000; stroke-width: 0.6; stroke-linecap: round"/>
   </g>
   <g id="line2d_20">
    <path d="M 50.71081 39.230845 
L 52.037604 39.343828 
L 53.143265 39.654977 
L 54.175216 40.174373 
L 55.170312 40.922782 
L 56.570817 42.314994 
L 61.693716 47.34282 
L 65.379255 50.657592 
L 68.769951 53.410851 
L 72.197502 55.903054 
L 75.698764 58.17931 
L 77.836376 59.359194 
L 78.831472 59.617687 
L 79.789712 59.638554 
L 80.747952 59.431119 
L 81.706192 58.994327 
L 82.738143 58.271565 
L 83.843805 57.214562 
L 85.023177 55.777462 
L 86.313116 53.841885 
L 93.831616 41.690967 
L 96.59577 37.893574 
L 99.286213 34.570823 
L 101.976657 31.596575 
L 104.777666 28.831896 
L 107.726098 26.232222 
L 110.748239 23.864651 
L 113.954658 21.630551 
L 117.38221 19.517599 
L 120.957182 17.572464 
L 124.937565 15.664943 
L 129.065368 13.939411 
L 133.93028 12.175445 
L 136.252169 11.506756 
L 137.210409 11.51545 
L 138.131794 11.741466 
L 139.090034 12.204323 
L 140.121985 12.960867 
L 141.227647 14.057311 
L 142.443875 15.588329 
L 143.807524 17.68484 
L 145.28174 20.379248 
L 148.340737 26.171752 
L 151.252313 31.244008 
L 153.942756 35.491785 
L 156.559489 39.20948 
L 159.176222 42.542399 
L 161.866665 45.609288 
L 164.630819 48.422566 
L 167.468684 50.993308 
L 170.490826 53.422597 
L 173.7341 55.747367 
L 177.087941 57.869494 
L 180.77348 59.933141 
L 184.495874 61.76707 
L 188.734244 63.599685 
L 193.341168 65.34872 
L 197.026707 66.579591 
L 197.026707 66.579591 
" clip-path="url(#p9546be70c2)" style="fill: none; stroke: #ff0000; stroke-width: 0.6; stroke-linecap: round"/>
   </g>
   <g id="patch_3">
    <path d="M 43.011719 71.02 
L 43.011719 7.2 
" style="fill: none; stroke: #000000; stroke-linejoin: miter; stroke-linecap: square"/>
   </g>
   <g id="patch_4">
    <path d="M 43.011719 71.02 
L 212.391719 71.02 
" style="fill: none; stroke: #000000; stroke-linejoin: miter; stroke-linecap: square"/>
   </g>
  </g>
  <g id="axes_2">
   <g id="patch_5">
    <path d="M 43.011719 134.84 
L 212.391719 134.84 
L 212.391719 71.02 
L 43.011719 71.02 
z
" style="fill: #ffffff"/>
   </g>
   <g id="line2d_21">
    <path d="M 50.71081 103.396617 
L 53.017143 103.486029 
L 54.591306 103.768842 
L 55.982428 104.239243 
L 57.410158 104.964179 
L 59.094147 106.077768 
L 61.180829 107.732483 
L 63.487162 109.871793 
L 66.891748 113.358554 
L 71.028504 117.985972 
L 75.275085 122.945031 
L 79.485058 127.783501 
L 81.169047 129.370962 
L 82.596777 130.425242 
L 83.914682 131.138173 
L 85.122761 131.547898 
L 86.294231 131.711156 
L 87.502311 131.648143 
L 88.856824 131.347936 
L 90.430987 130.766627 
L 92.371236 129.801034 
L 94.567743 128.461638 
L 97.093727 126.642345 
L 100.278663 124.068161 
L 104.85472 119.993535 
L 109.540603 115.539919 
L 113.933618 111.125542 
L 120.303489 104.504364 
L 127.991266 96.265538 
L 140.255099 83.112073 
L 143.293601 80.059289 
L 145.160633 78.477327 
L 146.66158 77.484713 
L 148.016093 76.847932 
L 149.333997 76.470207 
L 150.578685 76.341549 
L 151.859981 76.434331 
L 153.360928 76.770935 
L 155.044917 77.382241 
L 157.168207 78.403325 
L 159.767408 79.909623 
L 162.33 81.678903 
L 165.917629 84.434362 
L 171.665157 89.244359 
L 177.302859 94.31218 
L 183.70934 100.457201 
L 193.373973 110.161879 
L 204.685986 121.691424 
L 204.685986 121.691424 
" clip-path="url(#p7170a983d6)" style="fill: none; stroke: #000000; stroke-width: 0.6; stroke-linecap: round"/>
   </g>
   <g id="line2d_22">
    <path d="M 50.71081 103.559025 
L 52.284973 110.293181 
L 55.835994 124.296203 
L 58.508411 124.288058 
L 76.629598 124.192763 
L 81.827999 102.118609 
L 82.926253 97.631208 
L 83.621814 94.727979 
L 84.866502 89.39107 
L 85.818321 85.386251 
L 86.477274 82.605194 
L 87.721961 82.659765 
L 140.914052 82.75506 
L 142.085522 87.773912 
L 142.122131 87.773912 
L 150.944769 124.29946 
L 204.685986 124.28765 
L 204.685986 124.28765 
" clip-path="url(#p7170a983d6)" style="fill: none; stroke-dasharray: 2.22,0.96; stroke-dashoffset: 0; stroke: #808080; stroke-width: 0.6"/>
   </g>
   <g id="matplotlib.axis_3">
    <g id="xtick_6">
     <g id="line2d_23">
      <path d="M 50.71081 134.84 
L 50.71081 71.02 
" clip-path="url(#p7170a983d6)" style="fill: none; stroke: #b0b0b0; stroke-width: 0.8; stroke-linecap: round"/>
     </g>
     <g id="line2d_24"/>
    </g>
    <g id="xtick_7">
     <g id="line2d_25">
      <path d="M 87.566199 134.84 
L 87.566199 71.02 
" clip-path="url(#p7170a983d6)" style="fill: none; stroke: #b0b0b0; stroke-width: 0.8; stroke-linecap: round"/>
     </g>
     <g id="line2d_26"/>
    </g>
    <g id="xtick_8">
     <g id="line2d_27">
      <path d="M 124.421589 134.84 
L 124.421589 71.02 
" clip-path="url(#p7170a983d6)" style="fill: none; stroke: #b0b0b0; stroke-width: 0.8; stroke-linecap: round"/>
     </g>
     <g id="line2d_28"/>
    </g>
    <g id="xtick_9">
     <g id="line2d_29">
      <path d="M 161.276979 134.84 
L 161.276979 71.02 
" clip-path="url(#p7170a983d6)" style="fill: none; stroke: #b0b0b0; stroke-width: 0.8; stroke-linecap: round"/>
     </g>
     <g id="line2d_30"/>
    </g>
    <g id="xtick_10">
     <g id="line2d_31">
      <path d="M 198.132368 134.84 
L 198.132368 71.02 
" clip-path="url(#p7170a983d6)" style="fill: none; stroke: #b0b0b0; stroke-width: 0.8; stroke-linecap: round"/>
     </g>
     <g id="line2d_32"/>
    </g>
   </g>
   <g id="matplotlib.axis_4">
    <g id="ytick_4">
     <g id="line2d_33">
      <path d="M 43.011719 124.288121 
L 212.391719 124.288121 
" clip-path="url(#p7170a983d6)" style="fill: none; stroke: #b0b0b0; stroke-width: 0.8; stroke-linecap: round"/>
     </g>
     <g id="line2d_34"/>
     <g id="text_5">
      <!-- −20 -->
      <g style="fill: #262626" transform="translate(24.738438 126.947575) scale(0.07 -0.07)">
       <defs>
        <path id="DejaVuSerif-32" d="M 819 3553 
L 469 3553 
L 469 4384 
Q 803 4563 1142 4656 
Q 1481 4750 1806 4750 
Q 2534 4750 2956 4397 
Q 3378 4044 3378 3438 
Q 3378 2753 2422 1800 
Q 2347 1728 2309 1691 
L 1131 513 
L 3078 513 
L 3078 1088 
L 3444 1088 
L 3444 0 
L 434 0 
L 434 341 
L 1850 1753 
Q 2319 2222 2519 2614 
Q 2719 3006 2719 3438 
Q 2719 3909 2473 4175 
Q 2228 4441 1797 4441 
Q 1350 4441 1106 4219 
Q 863 3997 819 3553 
z
" transform="scale(0.015625)"/>
       </defs>
       <use xlink:href="#DejaVuSerif-2212"/>
       <use xlink:href="#DejaVuSerif-32" x="83.789062"/>
       <use xlink:href="#DejaVuSerif-30" x="147.412109"/>
      </g>
     </g>
    </g>
    <g id="ytick_5">
     <g id="line2d_35">
      <path d="M 43.011719 103.473504 
L 212.391719 103.473504 
" clip-path="url(#p7170a983d6)" style="fill: none; stroke: #b0b0b0; stroke-width: 0.8; stroke-linecap: round"/>
     </g>
     <g id="line2d_36"/>
     <g id="text_6">
      <!-- 0 -->
      <g style="fill: #262626" transform="translate(35.057969 106.132957) scale(0.07 -0.07)">
       <use xlink:href="#DejaVuSerif-30"/>
      </g>
     </g>
    </g>
    <g id="ytick_6">
     <g id="line2d_37">
      <path d="M 43.011719 82.658887 
L 212.391719 82.658887 
" clip-path="url(#p7170a983d6)" style="fill: none; stroke: #b0b0b0; stroke-width: 0.8; stroke-linecap: round"/>
     </g>
     <g id="line2d_38"/>
     <g id="text_7">
      <!-- 20 -->
      <g style="fill: #262626" transform="translate(30.604219 85.31834) scale(0.07 -0.07)">
       <use xlink:href="#DejaVuSerif-32"/>
       <use xlink:href="#DejaVuSerif-30" x="63.623047"/>
      </g>
     </g>
    </g>
    <g id="text_8">
     <!-- $\psi$ $[deg]$ -->
     <g style="fill: #262626" transform="translate(12.59 115.705) rotate(-90) scale(0.07 -0.07)">
      <defs>
       <path id="DejaVuSans-Oblique-3c8" d="M 1591 -78 
Q 891 38 616 341 
Q 278 713 425 1472 
L 819 3500 
L 1400 3500 
L 1009 1494 
Q 900 922 1119 684 
Q 1313 478 1691 434 
L 2284 3500 
L 2856 3500 
L 2263 438 
Q 2681 481 2928 688 
Q 3247 950 3353 1497 
L 3741 3500 
L 4322 3500 
L 3928 1475 
Q 3775 688 3300 344 
Q 2872 34 2163 -75 
L 1919 -1331 
L 1347 -1331 
L 1591 -78 
z
" transform="scale(0.015625)"/>
      </defs>
      <use xlink:href="#DejaVuSans-Oblique-3c8" transform="translate(0 0.015625)"/>
      <use xlink:href="#DejaVuSerif-20" transform="translate(65.966797 0.015625)"/>
      <use xlink:href="#DejaVuSans-5b" transform="translate(97.753906 0.015625)"/>
      <use xlink:href="#DejaVuSans-Oblique-64" transform="translate(136.767578 0.015625)"/>
      <use xlink:href="#DejaVuSans-Oblique-65" transform="translate(200.244141 0.015625)"/>
      <use xlink:href="#DejaVuSans-Oblique-67" transform="translate(261.767578 0.015625)"/>
      <use xlink:href="#DejaVuSans-5d" transform="translate(325.244141 0.015625)"/>
     </g>
    </g>
   </g>
   <g id="line2d_39">
    <path d="M 50.71081 103.473504 
L 53.327542 103.582931 
L 54.838613 103.88071 
L 56.202263 104.380779 
L 57.750189 105.199866 
L 59.629814 106.457927 
L 61.951704 108.296689 
L 64.826424 110.868602 
L 68.511963 114.481093 
L 73.00832 119.211663 
L 78.647195 125.483897 
L 81.00594 127.951726 
L 82.664433 129.369374 
L 84.064937 130.283739 
L 85.354876 130.865404 
L 86.534248 131.159223 
L 87.676766 131.219153 
L 88.929849 131.058865 
L 90.404064 130.637042 
L 92.136268 129.897254 
L 94.163314 128.779161 
L 96.59577 127.175943 
L 99.544201 124.953165 
L 102.971752 122.084071 
L 107.025845 118.380867 
L 111.70648 113.801414 
L 116.939945 108.358078 
L 122.763097 101.978456 
L 129.618199 94.136961 
L 138.610914 83.494022 
L 142.407019 79.110285 
L 144.102367 77.515639 
L 145.576583 76.425629 
L 146.903377 75.715105 
L 148.119605 75.305279 
L 149.298977 75.135959 
L 150.588916 75.178603 
L 152.063131 75.452006 
L 153.795335 76.006906 
L 155.785526 76.883807 
L 158.107415 78.158035 
L 160.871569 79.942071 
L 164.114844 82.310243 
L 167.726672 85.227172 
L 171.780765 88.799872 
L 176.571965 93.324511 
L 181.73172 98.508153 
L 187.40745 104.532016 
L 194.409974 112.31524 
L 201.928474 121.004091 
L 204.692628 124.265409 
L 204.692628 124.265409 
" clip-path="url(#p7170a983d6)" style="fill: none; stroke: #0000ff; stroke-width: 0.6; stroke-linecap: round"/>
   </g>
   <g id="line2d_40">
    <path d="M 50.71081 103.473504 
L 53.327542 103.582707 
L 54.838613 103.879386 
L 56.202263 104.376602 
L 57.750189 105.18832 
L 59.666669 106.457552 
L 62.025414 108.299712 
L 65.121267 111.017938 
L 69.101649 114.82522 
L 74.408825 120.227817 
L 82.148457 128.152566 
L 83.696383 129.295667 
L 85.060033 130.031384 
L 86.313116 130.455996 
L 87.492489 130.618448 
L 88.671861 130.548476 
L 89.998655 130.234803 
L 91.546581 129.63043 
L 93.389351 128.659541 
L 95.63753 127.211249 
L 98.401684 125.156177 
L 101.866091 122.290458 
L 105.957039 118.606981 
L 111.006227 113.758722 
L 117.087367 107.60103 
L 124.4953 99.759106 
L 133.52487 89.870093 
L 143.549536 78.891998 
L 145.134318 77.597666 
L 146.534823 76.729703 
L 147.824762 76.186031 
L 149.040989 75.914398 
L 150.220362 75.878781 
L 151.547156 76.068681 
L 153.095082 76.526106 
L 154.900996 77.302666 
L 157.038609 78.476886 
L 159.581631 80.136674 
L 162.751194 82.485011 
L 166.473589 85.526375 
L 170.711959 89.283415 
L 176.240267 94.500955 
L 182.395117 100.619054 
L 189.287075 107.790666 
L 197.616393 116.77142 
L 204.397785 124.259152 
L 204.397785 124.259152 
" clip-path="url(#p7170a983d6)" style="fill: none; stroke: #008000; stroke-width: 0.6; stroke-linecap: round"/>
   </g>
   <g id="line2d_41">
    <path d="M 50.71081 103.473504 
L 53.253832 103.581012 
L 54.801758 103.88201 
L 56.239118 104.394967 
L 57.8239 105.212614 
L 59.666669 106.424667 
L 61.841137 108.13002 
L 64.45787 110.477725 
L 67.590578 113.598881 
L 71.312973 117.63035 
L 75.698764 122.717523 
L 80.895374 128.753321 
L 82.406445 130.10468 
L 83.733239 131.007498 
L 84.949467 131.574419 
L 86.091984 131.86945 
L 87.234501 131.933797 
L 88.450729 131.772363 
L 89.851234 131.357247 
L 91.509726 130.624214 
L 93.463062 129.508111 
L 95.784951 127.913558 
L 98.475395 125.786986 
L 101.608103 123.01757 
L 105.109365 119.619166 
L 109.089747 115.437928 
L 113.586104 110.381402 
L 118.745859 104.232491 
L 124.679577 96.802566 
L 131.682101 87.665215 
L 139.311167 77.71691 
L 140.859093 76.168686 
L 142.185887 75.141199 
L 143.402115 74.468154 
L 144.544632 74.079659 
L 145.687149 73.925218 
L 146.903377 73.989295 
L 148.303882 74.290066 
L 149.962374 74.882228 
L 151.91571 75.826977 
L 154.163889 77.167717 
L 156.780621 78.995127 
L 159.729052 81.334008 
L 163.009182 84.224905 
L 166.694721 87.777509 
L 170.822525 92.069389 
L 175.429448 97.188249 
L 180.589203 103.260392 
L 186.596631 110.686522 
L 193.599156 119.708297 
L 197.026707 124.239162 
L 197.026707 124.239162 
" clip-path="url(#p7170a983d6)" style="fill: none; stroke: #ff0000; stroke-width: 0.6; stroke-linecap: round"/>
   </g>
   <g id="patch_6">
    <path d="M 43.011719 134.84 
L 43.011719 71.02 
" style="fill: none; stroke: #000000; stroke-linejoin: miter; stroke-linecap: square"/>
   </g>
   <g id="patch_7">
    <path d="M 43.011719 134.84 
L 212.391719 134.84 
" style="fill: none; stroke: #000000; stroke-linejoin: miter; stroke-linecap: square"/>
   </g>
  </g>
  <g id="axes_3">
   <g id="patch_8">
    <path d="M 43.011719 198.66 
L 212.391719 198.66 
L 212.391719 134.84 
L 43.011719 134.84 
z
" style="fill: #ffffff"/>
   </g>
   <g id="line2d_42">
    <path d="M 50.71081 166.755127 
L 51.259937 167.077763 
L 51.918889 167.732318 
L 52.724275 168.865986 
L 53.749312 170.71262 
L 54.884174 173.235214 
L 58.288761 181.413789 
L 59.277189 182.964374 
L 62.828209 187.601061 
L 63.926463 188.421445 
L 65.097934 188.995947 
L 65.866712 189.46325 
L 67.880177 190.953135 
L 68.868605 191.331737 
L 69.783817 191.448668 
L 71.35798 191.493591 
L 73.700922 192.499544 
L 74.982218 192.695043 
L 75.824212 192.601002 
L 77.654635 192.101252 
L 78.240371 191.512969 
L 78.899323 190.514129 
L 79.704709 188.869388 
L 80.802963 186.092145 
L 82.413735 181.278079 
L 83.878073 176.513464 
L 88.051437 162.385557 
L 89.222908 159.703639 
L 90.394379 157.55881 
L 91.492633 155.978955 
L 92.810537 154.496442 
L 95.739214 151.361024 
L 96.910684 150.488967 
L 101.52335 147.779429 
L 102.511779 147.571956 
L 104.305593 147.33553 
L 106.319058 146.475161 
L 107.783397 146.134259 
L 109.796862 145.814459 
L 111.2612 145.148115 
L 112.469279 144.932813 
L 113.604142 144.928277 
L 114.922046 144.963466 
L 118.070373 144.104246 
L 119.168627 144.129769 
L 120.340098 144.176378 
L 121.255309 143.77667 
L 122.060695 143.576883 
L 123.195558 143.550202 
L 124.586679 143.752443 
L 125.941192 144.004953 
L 126.893012 143.703448 
L 128.1377 143.409256 
L 129.126128 143.384662 
L 130.151165 143.582774 
L 131.359244 143.836252 
L 132.237847 143.617613 
L 133.262884 143.462592 
L 134.470963 143.539348 
L 135.642434 143.834175 
L 136.777296 144.120584 
L 137.655899 143.961262 
L 138.57111 143.866078 
L 139.925623 143.991608 
L 140.804226 144.277577 
L 141.353353 144.662811 
L 142.561432 145.944964 
L 143.33021 146.930782 
L 144.135596 148.36849 
L 145.160633 150.673033 
L 146.478537 154.23718 
L 149.919732 164.632299 
L 151.603722 169.609175 
L 152.59215 171.807808 
L 154.49579 175.348805 
L 155.484218 176.685885 
L 156.911948 178.222381 
L 158.156636 179.164717 
L 158.962022 179.905971 
L 160.938878 181.875713 
L 162.037132 182.614517 
L 163.245211 183.102257 
L 164.270248 183.600742 
L 165.954237 184.538036 
L 166.942666 184.802278 
L 168.297179 184.933753 
L 169.6883 185.058716 
L 172.836628 186.126741 
L 174.008098 186.250274 
L 175.069743 186.345001 
L 178.254679 187.384604 
L 179.389542 187.41835 
L 180.487795 187.462131 
L 183.270038 188.327268 
L 184.66116 188.28199 
L 185.759413 188.305143 
L 186.491583 188.612606 
L 187.370186 188.881282 
L 188.578265 188.964083 
L 190.005995 188.852446 
L 191.616767 188.596785 
L 194.289184 189.082466 
L 195.35083 189.010629 
L 197.108036 188.819713 
L 199.158109 189.232181 
L 200.183146 189.218406 
L 201.171574 188.955563 
L 202.196611 188.69671 
L 202.892172 188.821964 
L 204.685986 189.230546 
L 204.685986 189.230546 
" clip-path="url(#p4b7fe24518)" style="fill: none; stroke: #000000; stroke-width: 0.6; stroke-linecap: round"/>
   </g>
   <g id="matplotlib.axis_5">
    <g id="xtick_11">
     <g id="line2d_43">
      <path d="M 50.71081 198.66 
L 50.71081 134.84 
" clip-path="url(#p4b7fe24518)" style="fill: none; stroke: #b0b0b0; stroke-width: 0.8; stroke-linecap: round"/>
     </g>
     <g id="line2d_44"/>
     <g id="text_9">
      <!-- 0 -->
      <g style="fill: #262626" transform="translate(48.483935 207.478906) scale(0.07 -0.07)">
       <use xlink:href="#DejaVuSerif-30"/>
      </g>
     </g>
    </g>
    <g id="xtick_12">
     <g id="line2d_45">
      <path d="M 87.566199 198.66 
L 87.566199 134.84 
" clip-path="url(#p4b7fe24518)" style="fill: none; stroke: #b0b0b0; stroke-width: 0.8; stroke-linecap: round"/>
     </g>
     <g id="line2d_46"/>
     <g id="text_10">
      <!-- 10 -->
      <g style="fill: #262626" transform="translate(83.112449 207.478906) scale(0.07 -0.07)">
       <use xlink:href="#DejaVuSerif-31"/>
       <use xlink:href="#DejaVuSerif-30" x="63.623047"/>
      </g>
     </g>
    </g>
    <g id="xtick_13">
     <g id="line2d_47">
      <path d="M 124.421589 198.66 
L 124.421589 134.84 
" clip-path="url(#p4b7fe24518)" style="fill: none; stroke: #b0b0b0; stroke-width: 0.8; stroke-linecap: round"/>
     </g>
     <g id="line2d_48"/>
     <g id="text_11">
      <!-- 20 -->
      <g style="fill: #262626" transform="translate(119.967839 207.478906) scale(0.07 -0.07)">
       <use xlink:href="#DejaVuSerif-32"/>
       <use xlink:href="#DejaVuSerif-30" x="63.623047"/>
      </g>
     </g>
    </g>
    <g id="xtick_14">
     <g id="line2d_49">
      <path d="M 161.276979 198.66 
L 161.276979 134.84 
" clip-path="url(#p4b7fe24518)" style="fill: none; stroke: #b0b0b0; stroke-width: 0.8; stroke-linecap: round"/>
     </g>
     <g id="line2d_50"/>
     <g id="text_12">
      <!-- 30 -->
      <g style="fill: #262626" transform="translate(156.823229 207.478906) scale(0.07 -0.07)">
       <defs>
        <path id="DejaVuSerif-33" d="M 622 4469 
Q 988 4606 1323 4678 
Q 1659 4750 1953 4750 
Q 2638 4750 3022 4454 
Q 3406 4159 3406 3634 
Q 3406 3213 3140 2930 
Q 2875 2647 2388 2547 
Q 2963 2466 3280 2130 
Q 3597 1794 3597 1259 
Q 3597 606 3158 257 
Q 2719 -91 1894 -91 
Q 1528 -91 1179 -12 
Q 831 66 488 225 
L 488 1131 
L 838 1131 
Q 869 681 1141 450 
Q 1413 219 1906 219 
Q 2384 219 2661 495 
Q 2938 772 2938 1253 
Q 2938 1803 2653 2086 
Q 2369 2369 1819 2369 
L 1522 2369 
L 1522 2688 
L 1678 2688 
Q 2225 2688 2498 2914 
Q 2772 3141 2772 3597 
Q 2772 4006 2547 4223 
Q 2322 4441 1900 4441 
Q 1478 4441 1245 4241 
Q 1013 4041 972 3647 
L 622 3647 
L 622 4469 
z
" transform="scale(0.015625)"/>
       </defs>
       <use xlink:href="#DejaVuSerif-33"/>
       <use xlink:href="#DejaVuSerif-30" x="63.623047"/>
      </g>
     </g>
    </g>
    <g id="xtick_15">
     <g id="line2d_51">
      <path d="M 198.132368 198.66 
L 198.132368 134.84 
" clip-path="url(#p4b7fe24518)" style="fill: none; stroke: #b0b0b0; stroke-width: 0.8; stroke-linecap: round"/>
     </g>
     <g id="line2d_52"/>
     <g id="text_13">
      <!-- 40 -->
      <g style="fill: #262626" transform="translate(193.678618 207.478906) scale(0.07 -0.07)">
       <defs>
        <path id="DejaVuSerif-34" d="M 2234 1581 
L 2234 4063 
L 641 1581 
L 2234 1581 
z
M 3609 0 
L 1484 0 
L 1484 331 
L 2234 331 
L 2234 1247 
L 197 1247 
L 197 1588 
L 2241 4750 
L 2859 4750 
L 2859 1581 
L 3750 1581 
L 3750 1247 
L 2859 1247 
L 2859 331 
L 3609 331 
L 3609 0 
z
" transform="scale(0.015625)"/>
       </defs>
       <use xlink:href="#DejaVuSerif-34"/>
       <use xlink:href="#DejaVuSerif-30" x="63.623047"/>
      </g>
     </g>
    </g>
    <g id="text_14">
     <!-- Time [s] -->
     <g style="fill: #262626" transform="translate(113.217734 218.253594) scale(0.07 -0.07)">
      <defs>
       <path id="DejaVuSerif-54" d="M 1222 0 
L 1222 331 
L 1819 331 
L 1819 4294 
L 447 4294 
L 447 3566 
L 63 3566 
L 63 4666 
L 4206 4666 
L 4206 3566 
L 3822 3566 
L 3822 4294 
L 2450 4294 
L 2450 331 
L 3047 331 
L 3047 0 
L 1222 0 
z
" transform="scale(0.015625)"/>
       <path id="DejaVuSerif-69" d="M 622 4353 
Q 622 4497 726 4603 
Q 831 4709 978 4709 
Q 1122 4709 1226 4603 
Q 1331 4497 1331 4353 
Q 1331 4206 1228 4103 
Q 1125 4000 978 4000 
Q 831 4000 726 4103 
Q 622 4206 622 4353 
z
M 1356 331 
L 1900 331 
L 1900 0 
L 231 0 
L 231 331 
L 781 331 
L 781 2988 
L 231 2988 
L 231 3322 
L 1356 3322 
L 1356 331 
z
" transform="scale(0.015625)"/>
       <path id="DejaVuSerif-6d" d="M 3316 2675 
Q 3481 3041 3739 3227 
Q 3997 3413 4341 3413 
Q 4863 3413 5119 3089 
Q 5375 2766 5375 2113 
L 5375 331 
L 5894 331 
L 5894 0 
L 4300 0 
L 4300 331 
L 4800 331 
L 4800 2047 
Q 4800 2556 4650 2772 
Q 4500 2988 4153 2988 
Q 3769 2988 3567 2697 
Q 3366 2406 3366 1850 
L 3366 331 
L 3866 331 
L 3866 0 
L 2291 0 
L 2291 331 
L 2791 331 
L 2791 2069 
Q 2791 2566 2641 2777 
Q 2491 2988 2144 2988 
Q 1759 2988 1557 2697 
Q 1356 2406 1356 1850 
L 1356 331 
L 1856 331 
L 1856 0 
L 263 0 
L 263 331 
L 781 331 
L 781 2994 
L 231 2994 
L 231 3322 
L 1356 3322 
L 1356 2731 
Q 1516 3063 1762 3238 
Q 2009 3413 2322 3413 
Q 2709 3413 2968 3220 
Q 3228 3028 3316 2675 
z
" transform="scale(0.015625)"/>
       <path id="DejaVuSerif-65" d="M 3469 1600 
L 991 1600 
L 991 1575 
Q 991 903 1244 561 
Q 1497 219 1991 219 
Q 2369 219 2611 417 
Q 2853 616 2950 1006 
L 3413 1006 
Q 3275 459 2904 184 
Q 2534 -91 1931 -91 
Q 1203 -91 761 389 
Q 319 869 319 1663 
Q 319 2450 753 2931 
Q 1188 3413 1894 3413 
Q 2647 3413 3050 2948 
Q 3453 2484 3469 1600 
z
M 2791 1931 
Q 2772 2513 2545 2808 
Q 2319 3103 1894 3103 
Q 1497 3103 1269 2806 
Q 1041 2509 991 1931 
L 2791 1931 
z
" transform="scale(0.015625)"/>
       <path id="DejaVuSerif-5b" d="M 550 4863 
L 2003 4863 
L 2003 4531 
L 1147 4531 
L 1147 -513 
L 2003 -513 
L 2003 -844 
L 550 -844 
L 550 4863 
z
" transform="scale(0.015625)"/>
       <path id="DejaVuSerif-73" d="M 359 184 
L 359 959 
L 691 959 
Q 703 588 923 403 
Q 1144 219 1575 219 
Q 1963 219 2166 364 
Q 2369 509 2369 788 
Q 2369 1006 2220 1140 
Q 2072 1275 1594 1428 
L 1178 1569 
Q 750 1706 558 1912 
Q 366 2119 366 2438 
Q 366 2894 700 3153 
Q 1034 3413 1625 3413 
Q 1888 3413 2178 3344 
Q 2469 3275 2778 3144 
L 2778 2419 
L 2447 2419 
Q 2434 2741 2221 2922 
Q 2009 3103 1644 3103 
Q 1281 3103 1095 2975 
Q 909 2847 909 2591 
Q 909 2381 1050 2254 
Q 1191 2128 1613 1997 
L 2069 1856 
Q 2541 1709 2748 1489 
Q 2956 1269 2956 922 
Q 2956 450 2595 179 
Q 2234 -91 1600 -91 
Q 1278 -91 972 -22 
Q 666 47 359 184 
z
" transform="scale(0.015625)"/>
       <path id="DejaVuSerif-5d" d="M 1947 4863 
L 1947 -844 
L 494 -844 
L 494 -513 
L 1350 -513 
L 1350 4531 
L 494 4531 
L 494 4863 
L 1947 4863 
z
" transform="scale(0.015625)"/>
      </defs>
      <use xlink:href="#DejaVuSerif-54"/>
      <use xlink:href="#DejaVuSerif-69" x="66.699219"/>
      <use xlink:href="#DejaVuSerif-6d" x="98.681641"/>
      <use xlink:href="#DejaVuSerif-65" x="193.505859"/>
      <use xlink:href="#DejaVuSerif-20" x="252.685547"/>
      <use xlink:href="#DejaVuSerif-5b" x="284.472656"/>
      <use xlink:href="#DejaVuSerif-73" x="323.486328"/>
      <use xlink:href="#DejaVuSerif-5d" x="374.804688"/>
     </g>
    </g>
   </g>
   <g id="matplotlib.axis_6">
    <g id="ytick_7">
     <g id="line2d_53">
      <path d="M 43.011719 184.455008 
L 212.391719 184.455008 
" clip-path="url(#p4b7fe24518)" style="fill: none; stroke: #b0b0b0; stroke-width: 0.8; stroke-linecap: round"/>
     </g>
     <g id="line2d_54"/>
     <g id="text_15">
      <!-- −0.05 -->
      <g style="fill: #262626" transform="translate(18.06 187.114461) scale(0.07 -0.07)">
       <defs>
        <path id="DejaVuSerif-2e" d="M 603 325 
Q 603 500 722 622 
Q 841 744 1019 744 
Q 1191 744 1312 622 
Q 1434 500 1434 325 
Q 1434 153 1312 31 
Q 1191 -91 1019 -91 
Q 841 -91 722 29 
Q 603 150 603 325 
z
" transform="scale(0.015625)"/>
        <path id="DejaVuSerif-35" d="M 3219 4666 
L 3219 4153 
L 1081 4153 
L 1081 2816 
Q 1244 2928 1461 2984 
Q 1678 3041 1947 3041 
Q 2703 3041 3140 2622 
Q 3578 2203 3578 1478 
Q 3578 738 3136 323 
Q 2694 -91 1894 -91 
Q 1572 -91 1234 -12 
Q 897 66 544 225 
L 544 1131 
L 897 1131 
Q 925 688 1179 453 
Q 1434 219 1894 219 
Q 2388 219 2653 544 
Q 2919 869 2919 1478 
Q 2919 2084 2655 2407 
Q 2391 2731 1894 2731 
Q 1613 2731 1398 2631 
Q 1184 2531 1019 2322 
L 750 2322 
L 750 4666 
L 3219 4666 
z
" transform="scale(0.015625)"/>
       </defs>
       <use xlink:href="#DejaVuSerif-2212"/>
       <use xlink:href="#DejaVuSerif-30" x="83.789062"/>
       <use xlink:href="#DejaVuSerif-2e" x="147.412109"/>
       <use xlink:href="#DejaVuSerif-30" x="179.199219"/>
       <use xlink:href="#DejaVuSerif-35" x="242.822266"/>
      </g>
     </g>
    </g>
    <g id="ytick_8">
     <g id="line2d_55">
      <path d="M 43.011719 166.939924 
L 212.391719 166.939924 
" clip-path="url(#p4b7fe24518)" style="fill: none; stroke: #b0b0b0; stroke-width: 0.8; stroke-linecap: round"/>
     </g>
     <g id="line2d_56"/>
     <g id="text_16">
      <!-- 0.00 -->
      <g style="fill: #262626" transform="translate(23.925781 169.599377) scale(0.07 -0.07)">
       <use xlink:href="#DejaVuSerif-30"/>
       <use xlink:href="#DejaVuSerif-2e" x="63.623047"/>
       <use xlink:href="#DejaVuSerif-30" x="95.410156"/>
       <use xlink:href="#DejaVuSerif-30" x="159.033203"/>
      </g>
     </g>
    </g>
    <g id="ytick_9">
     <g id="line2d_57">
      <path d="M 43.011719 149.42484 
L 212.391719 149.42484 
" clip-path="url(#p4b7fe24518)" style="fill: none; stroke: #b0b0b0; stroke-width: 0.8; stroke-linecap: round"/>
     </g>
     <g id="line2d_58"/>
     <g id="text_17">
      <!-- 0.05 -->
      <g style="fill: #262626" transform="translate(23.925781 152.084293) scale(0.07 -0.07)">
       <use xlink:href="#DejaVuSerif-30"/>
       <use xlink:href="#DejaVuSerif-2e" x="63.623047"/>
       <use xlink:href="#DejaVuSerif-30" x="95.410156"/>
       <use xlink:href="#DejaVuSerif-35" x="159.033203"/>
      </g>
     </g>
    </g>
    <g id="text_18">
     <!-- $r$ $[rad/s]$ -->
     <g style="fill: #262626" transform="translate(12.604219 180.855) rotate(-90) scale(0.07 -0.07)">
      <defs>
       <path id="DejaVuSans-Oblique-72" d="M 2853 2969 
Q 2766 3016 2653 3041 
Q 2541 3066 2413 3066 
Q 1953 3066 1609 2717 
Q 1266 2369 1153 1784 
L 800 0 
L 225 0 
L 909 3500 
L 1484 3500 
L 1375 2956 
Q 1603 3259 1920 3421 
Q 2238 3584 2597 3584 
Q 2691 3584 2781 3573 
Q 2872 3563 2963 3538 
L 2853 2969 
z
" transform="scale(0.015625)"/>
       <path id="DejaVuSans-Oblique-61" d="M 3438 1997 
L 3047 0 
L 2472 0 
L 2578 531 
Q 2325 219 2001 64 
Q 1678 -91 1281 -91 
Q 834 -91 548 182 
Q 263 456 263 884 
Q 263 1497 752 1853 
Q 1241 2209 2100 2209 
L 2900 2209 
L 2931 2363 
Q 2938 2388 2941 2417 
Q 2944 2447 2944 2509 
Q 2944 2788 2717 2942 
Q 2491 3097 2081 3097 
Q 1800 3097 1504 3025 
Q 1209 2953 897 2809 
L 997 3341 
Q 1322 3463 1633 3523 
Q 1944 3584 2234 3584 
Q 2853 3584 3176 3315 
Q 3500 3047 3500 2534 
Q 3500 2431 3484 2292 
Q 3469 2153 3438 1997 
z
M 2816 1759 
L 2241 1759 
Q 1534 1759 1195 1570 
Q 856 1381 856 984 
Q 856 709 1029 553 
Q 1203 397 1509 397 
Q 1978 397 2328 733 
Q 2678 1069 2791 1631 
L 2816 1759 
z
" transform="scale(0.015625)"/>
       <path id="DejaVuSans-2f" d="M 1625 4666 
L 2156 4666 
L 531 -594 
L 0 -594 
L 1625 4666 
z
" transform="scale(0.015625)"/>
       <path id="DejaVuSans-Oblique-73" d="M 3200 3397 
L 3091 2853 
Q 2863 2978 2609 3040 
Q 2356 3103 2088 3103 
Q 1634 3103 1373 2948 
Q 1113 2794 1113 2528 
Q 1113 2219 1719 2053 
Q 1766 2041 1788 2034 
L 1972 1978 
Q 2547 1819 2739 1644 
Q 2931 1469 2931 1166 
Q 2931 609 2489 259 
Q 2047 -91 1331 -91 
Q 1053 -91 747 -37 
Q 441 16 72 128 
L 184 722 
Q 500 559 806 475 
Q 1113 391 1394 391 
Q 1816 391 2080 572 
Q 2344 753 2344 1031 
Q 2344 1331 1650 1516 
L 1591 1531 
L 1394 1581 
Q 956 1697 753 1886 
Q 550 2075 550 2369 
Q 550 2928 970 3256 
Q 1391 3584 2113 3584 
Q 2397 3584 2667 3537 
Q 2938 3491 3200 3397 
z
" transform="scale(0.015625)"/>
      </defs>
      <use xlink:href="#DejaVuSans-Oblique-72" transform="translate(0 0.015625)"/>
      <use xlink:href="#DejaVuSerif-20" transform="translate(41.113281 0.015625)"/>
      <use xlink:href="#DejaVuSans-5b" transform="translate(72.900391 0.015625)"/>
      <use xlink:href="#DejaVuSans-Oblique-72" transform="translate(111.914062 0.015625)"/>
      <use xlink:href="#DejaVuSans-Oblique-61" transform="translate(153.027344 0.015625)"/>
      <use xlink:href="#DejaVuSans-Oblique-64" transform="translate(214.306641 0.015625)"/>
      <use xlink:href="#DejaVuSans-2f" transform="translate(277.783203 0.015625)"/>
      <use xlink:href="#DejaVuSans-Oblique-73" transform="translate(311.474609 0.015625)"/>
      <use xlink:href="#DejaVuSans-5d" transform="translate(363.574219 0.015625)"/>
     </g>
    </g>
   </g>
   <g id="line2d_59">
    <path d="M 50.71081 166.939924 
L 51.226785 167.054343 
L 51.779616 167.413958 
L 52.443013 168.145278 
L 53.216976 169.363454 
L 54.101506 171.201745 
L 55.280878 174.229939 
L 56.791949 178.047549 
L 57.897611 180.188704 
L 59.187549 182.187574 
L 60.514343 183.835335 
L 61.877993 185.158804 
L 63.536485 186.44765 
L 65.305544 187.529267 
L 67.25888 188.442838 
L 70.539009 189.669994 
L 73.782284 190.587774 
L 77.836376 191.45346 
L 78.315497 191.323138 
L 78.905183 190.896535 
L 79.56858 190.12589 
L 80.342543 188.846119 
L 81.300783 186.811837 
L 82.4433 183.837345 
L 83.917516 179.360332 
L 85.797141 172.876663 
L 88.413873 163.816154 
L 89.55639 160.950194 
L 90.735763 158.58466 
L 92.062557 156.423215 
L 93.426206 154.628777 
L 94.789856 153.193921 
L 96.59577 151.621208 
L 98.327973 150.427679 
L 100.318164 149.310444 
L 104.003703 147.512801 
L 106.767857 146.542524 
L 112.111889 144.964559 
L 115.428874 144.155951 
L 121.21517 142.943834 
L 126.264359 142.137305 
L 130.429018 141.637539 
L 133.340593 141.375765 
L 139.642865 140.936212 
L 140.15884 141.194185 
L 140.785382 141.787385 
L 141.485634 142.796439 
L 142.407019 144.550883 
L 143.512681 147.188812 
L 144.913186 151.1325 
L 146.792811 157.172547 
L 150.257217 168.517243 
L 151.43659 171.220573 
L 152.652818 173.455799 
L 154.053322 175.557826 
L 155.564393 177.413418 
L 157.149175 179.035424 
L 158.918234 180.526824 
L 160.724148 181.756787 
L 163.119748 183.093568 
L 165.957613 184.446196 
L 170.269694 186.219893 
L 174.176365 187.401424 
L 179.852095 188.872895 
L 183.869333 189.77251 
L 188.697389 190.702014 
L 197.395261 191.8655 
L 203.586966 192.505266 
L 204.692628 192.584382 
L 204.692628 192.584382 
" clip-path="url(#p4b7fe24518)" style="fill: none; stroke: #0000ff; stroke-width: 0.6; stroke-linecap: round"/>
   </g>
   <g id="line2d_60">
    <path d="M 50.71081 166.939924 
L 51.226785 167.054282 
L 51.779616 167.413431 
L 52.443013 168.143096 
L 53.216976 169.35706 
L 54.101506 171.186402 
L 55.280878 174.193751 
L 56.755094 177.874107 
L 57.860755 179.98264 
L 59.150694 181.939813 
L 60.477488 183.517821 
L 61.767427 184.72515 
L 63.204787 185.759001 
L 64.973845 186.755445 
L 66.816615 187.564735 
L 69.027938 188.325102 
L 71.792093 189.00802 
L 76.546438 189.877912 
L 78.68405 190.08555 
L 79.200026 189.83417 
L 79.826568 189.271392 
L 80.563675 188.257967 
L 81.374494 186.74235 
L 82.406445 184.328714 
L 83.770094 180.521993 
L 85.502298 174.923591 
L 87.750476 166.805125 
L 88.966704 162.80858 
L 90.072366 159.952879 
L 91.251738 157.527914 
L 92.467966 155.497498 
L 93.757905 153.77728 
L 95.084699 152.39994 
L 96.632625 151.092272 
L 98.475395 149.867099 
L 99.986466 149.087237 
L 103.450872 147.574596 
L 105.55163 146.901895 
L 109.421445 145.90941 
L 112.885852 145.224115 
L 119.003847 144.214156 
L 125.158697 143.556404 
L 134.777954 142.782077 
L 138.574059 142.611042 
L 140.416828 142.644283 
L 140.969659 142.979638 
L 141.596201 143.636426 
L 142.370164 144.804698 
L 143.254693 146.565731 
L 144.39721 149.371474 
L 145.945137 153.837732 
L 147.824762 159.983109 
L 150.920614 170.176231 
L 152.063131 172.849229 
L 153.279359 175.130734 
L 154.532442 177.055731 
L 156.006658 178.910358 
L 157.480874 180.384044 
L 159.176222 181.770042 
L 160.724148 182.759811 
L 162.972327 183.911677 
L 165.920758 185.173177 
L 169.606297 186.475526 
L 172.444162 187.186364 
L 181.584298 188.839283 
L 188.476256 189.787655 
L 194.889094 190.424955 
L 199.569729 190.776061 
L 204.397785 191.026185 
L 204.397785 191.026185 
" clip-path="url(#p4b7fe24518)" style="fill: none; stroke: #008000; stroke-width: 0.6; stroke-linecap: round"/>
   </g>
   <g id="line2d_61">
    <path d="M 50.71081 166.939924 
L 51.18993 167.049198 
L 51.742761 167.423297 
L 52.406158 168.179406 
L 53.216976 169.484408 
L 54.285782 171.685555 
L 55.90742 175.638029 
L 57.160503 178.405409 
L 58.487297 180.801734 
L 59.887802 182.864907 
L 61.362017 184.642674 
L 62.983654 186.250039 
L 64.752713 187.674289 
L 66.669193 188.935378 
L 69.027938 190.205396 
L 71.681526 191.386226 
L 74.629958 192.45552 
L 77.320401 193.231982 
L 77.873232 193.140316 
L 78.426063 192.811465 
L 79.015749 192.186988 
L 79.716001 191.0984 
L 80.52682 189.38957 
L 81.521915 186.734796 
L 82.811854 182.586635 
L 84.728334 175.57688 
L 87.971609 163.632648 
L 89.07727 160.660517 
L 90.256643 158.124435 
L 91.509726 155.945832 
L 92.83652 154.078678 
L 94.384446 152.294874 
L 96.079794 150.67164 
L 97.996275 149.150151 
L 100.170743 147.703136 
L 102.898041 146.151473 
L 105.957039 144.669958 
L 109.347735 143.293669 
L 112.627864 142.150476 
L 116.681957 140.987684 
L 120.920327 139.980062 
L 125.711528 139.067871 
L 130.797571 138.308542 
L 135.809904 137.759531 
L 136.32588 137.949605 
L 136.915566 138.411584 
L 137.578963 139.248494 
L 138.316071 140.567874 
L 139.163745 142.571147 
L 140.232551 145.710564 
L 141.633056 150.550892 
L 144.102367 160.077385 
L 146.166269 167.733555 
L 147.235075 170.732796 
L 148.377592 173.290944 
L 149.59382 175.484149 
L 150.920614 177.414655 
L 152.468541 179.272827 
L 154.163889 180.951908 
L 156.264646 182.709979 
L 158.475969 184.272253 
L 161.534966 186.129778 
L 164.483398 187.651595 
L 167.57925 188.998387 
L 171.743909 190.554141 
L 175.945424 191.861706 
L 180.662914 193.092806 
L 185.306693 194.047566 
L 190.540158 194.903249 
L 196.84243 195.739146 
L 197.026707 195.759091 
L 197.026707 195.759091 
" clip-path="url(#p4b7fe24518)" style="fill: none; stroke: #ff0000; stroke-width: 0.6; stroke-linecap: round"/>
   </g>
   <g id="patch_9">
    <path d="M 43.011719 198.66 
L 43.011719 134.84 
" style="fill: none; stroke: #000000; stroke-linejoin: miter; stroke-linecap: square"/>
   </g>
   <g id="patch_10">
    <path d="M 43.011719 198.66 
L 212.391719 198.66 
" style="fill: none; stroke: #000000; stroke-linejoin: miter; stroke-linecap: square"/>
   </g>
  </g>
 </g>
 <defs>
  <clipPath id="p9546be70c2">
   <rect x="43.011719" y="7.2" width="169.38" height="63.82"/>
  </clipPath>
  <clipPath id="p7170a983d6">
   <rect x="43.011719" y="71.02" width="169.38" height="63.82"/>
  </clipPath>
  <clipPath id="p4b7fe24518">
   <rect x="43.011719" y="134.84" width="169.38" height="63.82"/>
  </clipPath>
 </defs>
</svg>
