<?xml version="1.0" encoding="utf-8" standalone="no"?>
<!DOCTYPE svg PUBLIC "-//W3C//DTD SVG 1.1//EN"
  "http://www.w3.org/Graphics/SVG/1.1/DTD/svg11.dtd">
<svg xmlns:xlink="http://www.w3.org/1999/xlink" width="388.971094pt" height="266.540625pt" viewBox="0 0 388.971094 266.540625" xmlns="http://www.w3.org/2000/svg" version="1.1">
 <metadata>
  <rdf:RDF xmlns:dc="http://purl.org/dc/elements/1.1/" xmlns:cc="http://creativecommons.org/ns#" xmlns:rdf="http://www.w3.org/1999/02/22-rdf-syntax-ns#">
   <cc:Work>
    <dc:type rdf:resource="http://purl.org/dc/dcmitype/StillImage"/>
    <dc:date>2024-02-12T15:02:50.542629</dc:date>
    <dc:format>image/svg+xml</dc:format>
    <dc:creator>
     <cc:Agent>
      <dc:title>Matplotlib v3.8.2, https://matplotlib.org/</dc:title>
     </cc:Agent>
    </dc:creator>
   </cc:Work>
  </rdf:RDF>
 </metadata>
 <defs>
  <style type="text/css">*{stroke-linejoin: round; stroke-linecap: butt}</style>
 </defs>
 <g id="figure_1">
  <g id="patch_1">
   <path d="M -0 266.540625 
L 388.971094 266.540625 
L 388.971094 0 
L -0 0 
z
" style="fill: #ffffff"/>
  </g>
  <g id="axes_1">
   <g id="patch_2">
    <path d="M 50.991094 82.94 
L 381.771094 82.94 
L 381.771094 7.2 
L 50.991094 7.2 
z
" style="fill: #ffffff"/>
   </g>
   <g id="line2d_1">
    <path d="M 66.026548 45.309189 
L 68.028329 45.49639 
L 70.101603 45.910485 
L 72.246368 46.562617 
L 74.319642 47.419268 
L 76.464407 48.545913 
L 81.683336 51.551656 
L 86.830774 54.850666 
L 90.691351 57.204329 
L 94.408945 59.189157 
L 106.133663 65.064176 
L 110.494686 66.80281 
L 115.999584 68.762863 
L 118.14435 69.342899 
L 119.931654 69.568821 
L 121.718959 69.577505 
L 123.506263 69.372032 
L 125.36506 68.934751 
L 127.223857 68.27079 
L 129.154146 67.354527 
L 131.084435 66.200125 
L 133.086216 64.746042 
L 135.159489 62.962414 
L 138.591114 59.623867 
L 148.885988 49.65674 
L 152.317613 46.672896 
L 155.963714 43.809817 
L 160.825183 40.291513 
L 164.757253 37.681714 
L 167.974401 35.824233 
L 171.977963 33.805827 
L 180.557025 29.724057 
L 184.989541 27.9129 
L 191.495329 25.544774 
L 198.859024 23.012717 
L 204.363922 21.40619 
L 210.440758 19.798276 
L 217.589976 18.219257 
L 224.381733 16.855002 
L 232.46035 15.570754 
L 238.03674 14.906588 
L 241.539857 14.696237 
L 243.613131 14.747308 
L 245.543419 15.050415 
L 247.831169 15.639968 
L 250.190411 16.472438 
L 252.263685 17.440097 
L 254.193974 18.592843 
L 256.195755 20.062891 
L 258.34052 21.921768 
L 260.771254 24.333404 
L 272.567465 36.572883 
L 276.213566 40.016157 
L 279.645191 42.941044 
L 283.648753 46.049408 
L 287.7953 48.996692 
L 291.584385 51.430834 
L 295.087502 53.41524 
L 299.091064 55.415228 
L 306.883712 59.023427 
L 311.101751 60.713078 
L 319.537829 63.827312 
L 326.544063 66.191138 
L 332.120453 67.775793 
L 338.91221 69.551714 
L 344.774569 70.818621 
L 351.208866 72.023314 
L 360.574342 73.470048 
L 366.722669 74.241782 
L 366.722669 74.241782 
" clip-path="url(#p4516d4d007)" style="fill: none; stroke: #000000; stroke-width: 0.75; stroke-linecap: round"/>
   </g>
   <g id="matplotlib.axis_1">
    <g id="xtick_1">
     <g id="line2d_2">
      <path d="M 66.026548 82.94 
L 66.026548 7.2 
" clip-path="url(#p4516d4d007)" style="fill: none; stroke: #b0b0b0; stroke-width: 0.8; stroke-linecap: round"/>
     </g>
     <g id="line2d_3"/>
    </g>
    <g id="xtick_2">
     <g id="line2d_4">
      <path d="M 138.00096 82.94 
L 138.00096 7.2 
" clip-path="url(#p4516d4d007)" style="fill: none; stroke: #b0b0b0; stroke-width: 0.8; stroke-linecap: round"/>
     </g>
     <g id="line2d_5"/>
    </g>
    <g id="xtick_3">
     <g id="line2d_6">
      <path d="M 209.975371 82.94 
L 209.975371 7.2 
" clip-path="url(#p4516d4d007)" style="fill: none; stroke: #b0b0b0; stroke-width: 0.8; stroke-linecap: round"/>
     </g>
     <g id="line2d_7"/>
    </g>
    <g id="xtick_4">
     <g id="line2d_8">
      <path d="M 281.949783 82.94 
L 281.949783 7.2 
" clip-path="url(#p4516d4d007)" style="fill: none; stroke: #b0b0b0; stroke-width: 0.8; stroke-linecap: round"/>
     </g>
     <g id="line2d_9"/>
    </g>
    <g id="xtick_5">
     <g id="line2d_10">
      <path d="M 353.924194 82.94 
L 353.924194 7.2 
" clip-path="url(#p4516d4d007)" style="fill: none; stroke: #b0b0b0; stroke-width: 0.8; stroke-linecap: round"/>
     </g>
     <g id="line2d_11"/>
    </g>
   </g>
   <g id="matplotlib.axis_2">
    <g id="ytick_1">
     <g id="line2d_12">
      <path d="M 50.991094 68.812667 
L 381.771094 68.812667 
" clip-path="url(#p4516d4d007)" style="fill: none; stroke: #b0b0b0; stroke-width: 0.8; stroke-linecap: round"/>
     </g>
     <g id="line2d_13"/>
     <g id="text_1">
      <!-- −10 -->
      <g style="fill: #262626" transform="translate(28.496875 72.231964) scale(0.09 -0.09)">
       <defs>
        <path id="DejaVuSerif-2212" d="M 678 2259 
L 4684 2259 
L 4684 1753 
L 678 1753 
L 678 2259 
z
" transform="scale(0.015625)"/>
        <path id="DejaVuSerif-31" d="M 909 0 
L 909 331 
L 1722 331 
L 1722 4213 
L 781 3603 
L 781 4013 
L 1919 4750 
L 2350 4750 
L 2350 331 
L 3163 331 
L 3163 0 
L 909 0 
z
" transform="scale(0.015625)"/>
        <path id="DejaVuSerif-30" d="M 2034 219 
Q 2513 219 2750 744 
Q 2988 1269 2988 2328 
Q 2988 3391 2750 3916 
Q 2513 4441 2034 4441 
Q 1556 4441 1318 3916 
Q 1081 3391 1081 2328 
Q 1081 1269 1318 744 
Q 1556 219 2034 219 
z
M 2034 -91 
Q 1275 -91 848 546 
Q 422 1184 422 2328 
Q 422 3475 848 4112 
Q 1275 4750 2034 4750 
Q 2797 4750 3222 4112 
Q 3647 3475 3647 2328 
Q 3647 1184 3222 546 
Q 2797 -91 2034 -91 
z
" transform="scale(0.015625)"/>
       </defs>
       <use xlink:href="#DejaVuSerif-2212"/>
       <use xlink:href="#DejaVuSerif-31" x="83.789062"/>
       <use xlink:href="#DejaVuSerif-30" x="147.412109"/>
      </g>
     </g>
    </g>
    <g id="ytick_2">
     <g id="line2d_14">
      <path d="M 50.991094 45.213415 
L 381.771094 45.213415 
" clip-path="url(#p4516d4d007)" style="fill: none; stroke: #b0b0b0; stroke-width: 0.8; stroke-linecap: round"/>
     </g>
     <g id="line2d_15"/>
     <g id="text_2">
      <!-- 0 -->
      <g style="fill: #262626" transform="translate(41.764844 48.632712) scale(0.09 -0.09)">
       <use xlink:href="#DejaVuSerif-30"/>
      </g>
     </g>
    </g>
    <g id="ytick_3">
     <g id="line2d_16">
      <path d="M 50.991094 21.614164 
L 381.771094 21.614164 
" clip-path="url(#p4516d4d007)" style="fill: none; stroke: #b0b0b0; stroke-width: 0.8; stroke-linecap: round"/>
     </g>
     <g id="line2d_17"/>
     <g id="text_3">
      <!-- 10 -->
      <g style="fill: #262626" transform="translate(36.038594 25.033461) scale(0.09 -0.09)">
       <use xlink:href="#DejaVuSerif-31"/>
       <use xlink:href="#DejaVuSerif-30" x="63.623047"/>
      </g>
     </g>
    </g>
    <g id="text_4">
     <!-- $\beta$ $[deg]$ -->
     <g style="fill: #262626" transform="translate(22.606875 61.405) rotate(-90) scale(0.09 -0.09)">
      <defs>
       <path id="DejaVuSans-Oblique-3b2" d="M 872 216 
L 572 -1331 
L -6 -1331 
L 928 3478 
Q 1206 4903 2538 4903 
Q 3888 4903 3659 3700 
Q 3503 2844 2894 2531 
Q 3713 2250 3553 1416 
Q 3272 -69 1759 -66 
Q 1097 -63 872 216 
z
M 1019 966 
Q 1259 422 1875 425 
Q 2775 425 2966 1406 
Q 3138 2288 1675 2219 
L 1778 2750 
Q 2909 2731 3106 3750 
Q 3241 4438 2509 4434 
Q 1691 4434 1503 3459 
L 1019 966 
z
" transform="scale(0.015625)"/>
       <path id="DejaVuSerif-20" transform="scale(0.015625)"/>
       <path id="DejaVuSans-5b" d="M 550 4863 
L 1875 4863 
L 1875 4416 
L 1125 4416 
L 1125 -397 
L 1875 -397 
L 1875 -844 
L 550 -844 
L 550 4863 
z
" transform="scale(0.015625)"/>
       <path id="DejaVuSans-Oblique-64" d="M 2675 525 
Q 2444 222 2128 65 
Q 1813 -91 1428 -91 
Q 903 -91 598 267 
Q 294 625 294 1247 
Q 294 1766 478 2236 
Q 663 2706 1013 3078 
Q 1244 3325 1534 3454 
Q 1825 3584 2144 3584 
Q 2481 3584 2739 3421 
Q 2997 3259 3138 2956 
L 3513 4863 
L 4091 4863 
L 3144 0 
L 2566 0 
L 2675 525 
z
M 891 1350 
Q 891 897 1095 644 
Q 1300 391 1663 391 
Q 1931 391 2161 520 
Q 2391 650 2566 903 
Q 2750 1166 2856 1509 
Q 2963 1853 2963 2188 
Q 2963 2622 2758 2865 
Q 2553 3109 2194 3109 
Q 1922 3109 1687 2981 
Q 1453 2853 1288 2613 
Q 1106 2353 998 2009 
Q 891 1666 891 1350 
z
" transform="scale(0.015625)"/>
       <path id="DejaVuSans-Oblique-65" d="M 3078 2063 
Q 3088 2113 3092 2166 
Q 3097 2219 3097 2272 
Q 3097 2653 2873 2875 
Q 2650 3097 2266 3097 
Q 1838 3097 1509 2826 
Q 1181 2556 1013 2059 
L 3078 2063 
z
M 3578 1613 
L 903 1613 
Q 884 1494 878 1425 
Q 872 1356 872 1306 
Q 872 872 1139 634 
Q 1406 397 1894 397 
Q 2269 397 2603 481 
Q 2938 566 3225 728 
L 3116 159 
Q 2806 34 2476 -28 
Q 2147 -91 1806 -91 
Q 1078 -91 686 257 
Q 294 606 294 1247 
Q 294 1794 489 2264 
Q 684 2734 1063 3103 
Q 1306 3334 1642 3459 
Q 1978 3584 2356 3584 
Q 2950 3584 3301 3228 
Q 3653 2872 3653 2272 
Q 3653 2128 3634 1964 
Q 3616 1800 3578 1613 
z
" transform="scale(0.015625)"/>
       <path id="DejaVuSans-Oblique-67" d="M 3816 3500 
L 3219 434 
Q 3047 -456 2561 -893 
Q 2075 -1331 1253 -1331 
Q 950 -1331 690 -1286 
Q 431 -1241 206 -1147 
L 313 -588 
Q 525 -725 762 -790 
Q 1000 -856 1269 -856 
Q 1816 -856 2167 -557 
Q 2519 -259 2631 300 
L 2681 563 
Q 2441 288 2122 144 
Q 1803 0 1434 0 
Q 903 0 598 351 
Q 294 703 294 1319 
Q 294 1803 478 2267 
Q 663 2731 997 3091 
Q 1219 3328 1514 3456 
Q 1809 3584 2131 3584 
Q 2484 3584 2746 3420 
Q 3009 3256 3138 2956 
L 3238 3500 
L 3816 3500 
z
M 2950 2216 
Q 2950 2641 2750 2872 
Q 2550 3103 2181 3103 
Q 1953 3103 1747 3012 
Q 1541 2922 1394 2759 
Q 1156 2491 1023 2127 
Q 891 1763 891 1375 
Q 891 944 1092 712 
Q 1294 481 1672 481 
Q 2219 481 2584 976 
Q 2950 1472 2950 2216 
z
" transform="scale(0.015625)"/>
       <path id="DejaVuSans-5d" d="M 1947 4863 
L 1947 -844 
L 622 -844 
L 622 -397 
L 1369 -397 
L 1369 4416 
L 622 4416 
L 622 4863 
L 1947 4863 
z
" transform="scale(0.015625)"/>
      </defs>
      <use xlink:href="#DejaVuSans-Oblique-3b2" transform="translate(0 0.390625)"/>
      <use xlink:href="#DejaVuSerif-20" transform="translate(63.818359 0.390625)"/>
      <use xlink:href="#DejaVuSans-5b" transform="translate(95.605469 0.390625)"/>
      <use xlink:href="#DejaVuSans-Oblique-64" transform="translate(134.619141 0.390625)"/>
      <use xlink:href="#DejaVuSans-Oblique-65" transform="translate(198.095703 0.390625)"/>
      <use xlink:href="#DejaVuSans-Oblique-67" transform="translate(259.619141 0.390625)"/>
      <use xlink:href="#DejaVuSans-5d" transform="translate(323.095703 0.390625)"/>
     </g>
    </g>
   </g>
   <g id="line2d_18">
    <path d="M 66.026548 45.213415 
L 68.113806 45.320372 
L 70.12909 45.643983 
L 72.072399 46.182258 
L 74.015708 46.95827 
L 76.318889 48.145379 
L 84.667921 52.854524 
L 92.081285 56.916484 
L 98.127136 59.996912 
L 104.604833 63.037142 
L 111.010555 65.792969 
L 117.848125 68.475108 
L 120.295255 69.274638 
L 122.166589 69.627438 
L 123.893975 69.730809 
L 125.693335 69.613675 
L 127.492696 69.264597 
L 129.292056 68.69279 
L 131.163391 67.862307 
L 133.1067 66.754343 
L 135.121983 65.351033 
L 137.497139 63.401961 
L 152.899663 50.172209 
L 158.153795 46.091879 
L 163.192004 42.469206 
L 168.734033 38.759932 
L 173.556319 35.803897 
L 178.666502 32.925707 
L 184.496429 29.897394 
L 190.254382 27.158126 
L 196.444182 24.465502 
L 203.209776 21.780634 
L 209.903397 19.365225 
L 217.172812 16.975758 
L 225.018023 14.647685 
L 233.511004 12.379406 
L 240.13265 10.809687 
L 241.93201 10.646307 
L 243.659396 10.717854 
L 245.386782 11.005354 
L 247.186142 11.530974 
L 249.057477 12.309496 
L 251.000786 13.36156 
L 253.088044 14.748065 
L 255.247276 16.453073 
L 257.694406 18.687104 
L 272.665083 32.899162 
L 278.063164 37.611648 
L 282.813475 41.459251 
L 288.139582 45.474636 
L 293.465688 49.204161 
L 298.503897 52.485715 
L 303.686055 55.573822 
L 309.372033 58.685785 
L 315.633807 61.822324 
L 321.895581 64.692324 
L 328.373278 67.413708 
L 335.066898 69.983689 
L 341.904467 72.362059 
L 350.10955 74.966385 
L 358.530556 77.38557 
L 366.08787 79.338002 
L 366.735639 79.497273 
L 366.735639 79.497273 
" clip-path="url(#p4516d4d007)" style="fill: none; stroke: #0000ff; stroke-width: 0.75; stroke-linecap: round"/>
   </g>
   <g id="line2d_19">
    <path d="M 66.026548 45.213415 
L 68.113806 45.320241 
L 70.12909 45.642971 
L 72.072399 46.178931 
L 74.015708 46.950357 
L 76.318889 48.126043 
L 93.592748 57.378719 
L 99.49465 60.150126 
L 104.964705 62.483868 
L 111.154504 64.882638 
L 117.272329 67.025727 
L 121.374871 68.278686 
L 123.31818 68.587531 
L 125.11754 68.645617 
L 126.9169 68.478783 
L 128.716261 68.089384 
L 130.587595 67.456795 
L 132.530904 66.55687 
L 134.474214 65.411041 
L 136.561471 63.916173 
L 138.936627 61.921733 
L 152.68374 49.892368 
L 157.578 46.038129 
L 162.184362 42.695185 
L 167.222571 39.330365 
L 171.828933 36.516339 
L 176.651219 33.836635 
L 181.761402 31.25097 
L 187.015534 28.842732 
L 192.701512 26.476526 
L 198.819337 24.179098 
L 205.153086 22.051926 
L 212.062629 19.96412 
L 219.691917 17.896531 
L 227.825025 15.927646 
L 236.965775 13.943818 
L 241.860035 13.056387 
L 243.659396 13.003664 
L 245.53073 13.181529 
L 247.330091 13.583195 
L 249.201425 14.231635 
L 251.144734 15.144336 
L 253.160018 16.338355 
L 255.31925 17.887277 
L 257.478483 19.709297 
L 260.429434 22.532018 
L 272.089288 33.790678 
L 277.199471 38.34507 
L 281.517936 41.915765 
L 286.268247 45.542962 
L 291.162507 48.993057 
L 296.128742 52.217246 
L 300.807078 54.985426 
L 305.269492 57.389864 
L 310.667573 60.036774 
L 316.065654 62.44057 
L 321.823606 64.767981 
L 328.373278 67.173285 
L 334.779001 69.278944 
L 342.264339 71.485801 
L 350.181525 73.588785 
L 357.882787 75.418127 
L 366.159844 77.173204 
L 366.159844 77.173204 
" clip-path="url(#p4516d4d007)" style="fill: none; stroke: #008000; stroke-width: 0.75; stroke-linecap: round"/>
   </g>
   <g id="line2d_20">
    <path d="M 66.026548 45.213415 
L 68.401704 45.324673 
L 70.488962 45.651204 
L 72.360297 46.176581 
L 74.087682 46.891167 
L 75.815068 47.851575 
L 84.81187 53.298101 
L 91.433516 57.051947 
L 97.191468 60.057815 
L 102.805473 62.738626 
L 108.6354 65.269155 
L 114.609276 67.620554 
L 118.639843 69.012926 
L 120.367229 69.3466 
L 122.094615 69.45544 
L 123.822001 69.334094 
L 125.549387 68.981021 
L 127.276772 68.397134 
L 129.076133 67.548389 
L 130.947467 66.412363 
L 132.890777 64.968594 
L 134.90606 63.185119 
L 137.065292 60.974858 
L 141.671655 56.211743 
L 146.49394 51.530915 
L 150.956354 47.505183 
L 155.202844 43.969723 
L 159.449334 40.721208 
L 163.695825 37.747916 
L 168.086264 34.944649 
L 172.692626 32.26645 
L 177.586886 29.678129 
L 182.625095 27.270088 
L 188.023176 24.936827 
L 193.63718 22.753457 
L 199.611056 20.662987 
L 206.016779 18.658917 
L 212.710399 16.78323 
L 219.979814 14.979315 
L 228.472795 13.119483 
L 232.863234 12.326915 
L 234.59062 12.298527 
L 236.246031 12.488247 
L 237.973417 12.918002 
L 239.700803 13.580523 
L 241.500163 14.516089 
L 243.371498 15.742236 
L 245.386782 17.339613 
L 247.546014 19.351751 
L 249.777221 21.746507 
L 260.141536 33.439072 
L 264.388026 37.729216 
L 268.490568 41.555337 
L 272.521135 45.011139 
L 276.623676 48.235592 
L 280.870166 51.287313 
L 285.260605 54.164674 
L 289.794993 56.868663 
L 294.401356 59.358553 
L 299.36759 61.788608 
L 304.837645 64.217605 
L 310.379675 66.428373 
L 316.353551 68.569827 
L 322.903223 70.679154 
L 329.596843 72.59238 
L 337.226131 74.536936 
L 345.359239 76.378807 
L 351.764962 77.670232 
L 351.764962 77.670232 
" clip-path="url(#p4516d4d007)" style="fill: none; stroke: #ff0000; stroke-width: 0.75; stroke-linecap: round"/>
   </g>
   <g id="patch_3">
    <path d="M 50.991094 82.94 
L 50.991094 7.2 
" style="fill: none; stroke: #000000; stroke-linejoin: miter; stroke-linecap: square"/>
   </g>
   <g id="patch_4">
    <path d="M 50.991094 82.94 
L 381.771094 82.94 
" style="fill: none; stroke: #000000; stroke-linejoin: miter; stroke-linecap: square"/>
   </g>
   <g id="legend_1">
    <g id="line2d_21">
     <path d="M 172.279688 30.187344 
L 181.279688 30.187344 
L 190.279688 30.187344 
" style="fill: none; stroke: #000000; stroke-width: 0.75; stroke-linecap: round"/>
    </g>
    <g id="text_5">
     <!-- Model test -->
     <g style="fill: #262626" transform="translate(197.479688 33.337344) scale(0.09 -0.09)">
      <defs>
       <path id="DejaVuSerif-4d" d="M 353 0 
L 353 331 
L 947 331 
L 947 4331 
L 319 4331 
L 319 4666 
L 1678 4666 
L 3316 1344 
L 4953 4666 
L 6228 4666 
L 6228 4331 
L 5606 4331 
L 5606 331 
L 6203 331 
L 6203 0 
L 4378 0 
L 4378 331 
L 4972 331 
L 4972 3938 
L 3372 684 
L 2931 684 
L 1331 3938 
L 1331 331 
L 1925 331 
L 1925 0 
L 353 0 
z
" transform="scale(0.015625)"/>
       <path id="DejaVuSerif-6f" d="M 1925 219 
Q 2388 219 2623 584 
Q 2859 950 2859 1663 
Q 2859 2375 2623 2739 
Q 2388 3103 1925 3103 
Q 1463 3103 1227 2739 
Q 991 2375 991 1663 
Q 991 950 1228 584 
Q 1466 219 1925 219 
z
M 1925 -91 
Q 1200 -91 759 389 
Q 319 869 319 1663 
Q 319 2456 758 2934 
Q 1197 3413 1925 3413 
Q 2653 3413 3092 2934 
Q 3531 2456 3531 1663 
Q 3531 869 3092 389 
Q 2653 -91 1925 -91 
z
" transform="scale(0.015625)"/>
       <path id="DejaVuSerif-64" d="M 3359 331 
L 3909 331 
L 3909 0 
L 2784 0 
L 2784 519 
Q 2616 206 2355 57 
Q 2094 -91 1709 -91 
Q 1097 -91 708 395 
Q 319 881 319 1663 
Q 319 2444 706 2928 
Q 1094 3413 1709 3413 
Q 2094 3413 2355 3264 
Q 2616 3116 2784 2803 
L 2784 4531 
L 2241 4531 
L 2241 4863 
L 3359 4863 
L 3359 331 
z
M 2784 1497 
L 2784 1825 
Q 2784 2422 2554 2737 
Q 2325 3053 1888 3053 
Q 1444 3053 1217 2703 
Q 991 2353 991 1663 
Q 991 975 1217 622 
Q 1444 269 1888 269 
Q 2325 269 2554 583 
Q 2784 897 2784 1497 
z
" transform="scale(0.015625)"/>
       <path id="DejaVuSerif-65" d="M 3469 1600 
L 991 1600 
L 991 1575 
Q 991 903 1244 561 
Q 1497 219 1991 219 
Q 2369 219 2611 417 
Q 2853 616 2950 1006 
L 3413 1006 
Q 3275 459 2904 184 
Q 2534 -91 1931 -91 
Q 1203 -91 761 389 
Q 319 869 319 1663 
Q 319 2450 753 2931 
Q 1188 3413 1894 3413 
Q 2647 3413 3050 2948 
Q 3453 2484 3469 1600 
z
M 2791 1931 
Q 2772 2513 2545 2808 
Q 2319 3103 1894 3103 
Q 1497 3103 1269 2806 
Q 1041 2509 991 1931 
L 2791 1931 
z
" transform="scale(0.015625)"/>
       <path id="DejaVuSerif-6c" d="M 1313 331 
L 1856 331 
L 1856 0 
L 184 0 
L 184 331 
L 738 331 
L 738 4531 
L 184 4531 
L 184 4863 
L 1313 4863 
L 1313 331 
z
" transform="scale(0.015625)"/>
       <path id="DejaVuSerif-74" d="M 691 2988 
L 184 2988 
L 184 3322 
L 691 3322 
L 691 4353 
L 1269 4353 
L 1269 3322 
L 2350 3322 
L 2350 2988 
L 1269 2988 
L 1269 878 
Q 1269 456 1350 337 
Q 1431 219 1650 219 
Q 1875 219 1978 351 
Q 2081 484 2088 781 
L 2522 781 
Q 2497 328 2275 118 
Q 2053 -91 1600 -91 
Q 1103 -91 897 129 
Q 691 350 691 878 
L 691 2988 
z
" transform="scale(0.015625)"/>
       <path id="DejaVuSerif-73" d="M 359 184 
L 359 959 
L 691 959 
Q 703 588 923 403 
Q 1144 219 1575 219 
Q 1963 219 2166 364 
Q 2369 509 2369 788 
Q 2369 1006 2220 1140 
Q 2072 1275 1594 1428 
L 1178 1569 
Q 750 1706 558 1912 
Q 366 2119 366 2438 
Q 366 2894 700 3153 
Q 1034 3413 1625 3413 
Q 1888 3413 2178 3344 
Q 2469 3275 2778 3144 
L 2778 2419 
L 2447 2419 
Q 2434 2741 2221 2922 
Q 2009 3103 1644 3103 
Q 1281 3103 1095 2975 
Q 909 2847 909 2591 
Q 909 2381 1050 2254 
Q 1191 2128 1613 1997 
L 2069 1856 
Q 2541 1709 2748 1489 
Q 2956 1269 2956 922 
Q 2956 450 2595 179 
Q 2234 -91 1600 -91 
Q 1278 -91 972 -22 
Q 666 47 359 184 
z
" transform="scale(0.015625)"/>
      </defs>
      <use xlink:href="#DejaVuSerif-4d"/>
      <use xlink:href="#DejaVuSerif-6f" x="102.392578"/>
      <use xlink:href="#DejaVuSerif-64" x="162.597656"/>
      <use xlink:href="#DejaVuSerif-65" x="226.611328"/>
      <use xlink:href="#DejaVuSerif-6c" x="285.791016"/>
      <use xlink:href="#DejaVuSerif-20" x="317.773438"/>
      <use xlink:href="#DejaVuSerif-74" x="349.560547"/>
      <use xlink:href="#DejaVuSerif-65" x="389.746094"/>
      <use xlink:href="#DejaVuSerif-73" x="448.925781"/>
      <use xlink:href="#DejaVuSerif-74" x="500.244141"/>
     </g>
    </g>
    <g id="line2d_22">
     <path d="M 172.279688 43.397656 
L 181.279688 43.397656 
L 190.279688 43.397656 
" style="fill: none; stroke: #0000ff; stroke-width: 0.75; stroke-linecap: round"/>
    </g>
    <g id="text_6">
     <!-- Reference -->
     <g style="fill: #262626" transform="translate(197.479688 46.547656) scale(0.09 -0.09)">
      <defs>
       <path id="DejaVuSerif-52" d="M 3066 2316 
Q 3284 2256 3442 2114 
Q 3600 1972 3725 1716 
L 4403 331 
L 4972 331 
L 4972 0 
L 3872 0 
L 3144 1484 
Q 2934 1916 2759 2042 
Q 2584 2169 2278 2169 
L 1581 2169 
L 1581 331 
L 2241 331 
L 2241 0 
L 353 0 
L 353 331 
L 947 331 
L 947 4331 
L 353 4331 
L 353 4666 
L 2719 4666 
Q 3400 4666 3770 4341 
Q 4141 4016 4141 3419 
Q 4141 2938 3870 2661 
Q 3600 2384 3066 2316 
z
M 1581 2503 
L 2503 2503 
Q 2975 2503 3200 2726 
Q 3425 2950 3425 3419 
Q 3425 3888 3200 4109 
Q 2975 4331 2503 4331 
L 1581 4331 
L 1581 2503 
z
" transform="scale(0.015625)"/>
       <path id="DejaVuSerif-66" d="M 2753 4078 
L 2450 4078 
Q 2447 4313 2317 4434 
Q 2188 4556 1941 4556 
Q 1619 4556 1487 4379 
Q 1356 4203 1356 3750 
L 1356 3322 
L 2284 3322 
L 2284 2988 
L 1356 2988 
L 1356 331 
L 2094 331 
L 2094 0 
L 231 0 
L 231 331 
L 781 331 
L 781 2988 
L 231 2988 
L 231 3322 
L 781 3322 
L 781 3738 
Q 781 4294 1070 4578 
Q 1359 4863 1919 4863 
Q 2128 4863 2337 4825 
Q 2547 4788 2753 4709 
L 2753 4078 
z
" transform="scale(0.015625)"/>
       <path id="DejaVuSerif-72" d="M 3059 3328 
L 3059 2497 
L 2728 2497 
Q 2713 2744 2591 2866 
Q 2469 2988 2234 2988 
Q 1809 2988 1582 2694 
Q 1356 2400 1356 1850 
L 1356 331 
L 2022 331 
L 2022 0 
L 263 0 
L 263 331 
L 781 331 
L 781 2994 
L 231 2994 
L 231 3322 
L 1356 3322 
L 1356 2731 
Q 1525 3078 1790 3245 
Q 2056 3413 2438 3413 
Q 2578 3413 2733 3391 
Q 2888 3369 3059 3328 
z
" transform="scale(0.015625)"/>
       <path id="DejaVuSerif-6e" d="M 263 0 
L 263 331 
L 781 331 
L 781 2988 
L 231 2988 
L 231 3322 
L 1356 3322 
L 1356 2731 
Q 1516 3069 1770 3241 
Q 2025 3413 2363 3413 
Q 2913 3413 3172 3097 
Q 3431 2781 3431 2113 
L 3431 331 
L 3944 331 
L 3944 0 
L 2356 0 
L 2356 331 
L 2853 331 
L 2853 1931 
Q 2853 2541 2703 2767 
Q 2553 2994 2175 2994 
Q 1775 2994 1565 2701 
Q 1356 2409 1356 1850 
L 1356 331 
L 1856 331 
L 1856 0 
L 263 0 
z
" transform="scale(0.015625)"/>
       <path id="DejaVuSerif-63" d="M 3291 997 
Q 3169 466 2822 187 
Q 2475 -91 1925 -91 
Q 1200 -91 759 389 
Q 319 869 319 1663 
Q 319 2459 759 2936 
Q 1200 3413 1925 3413 
Q 2241 3413 2553 3339 
Q 2866 3266 3181 3116 
L 3181 2266 
L 2847 2266 
Q 2781 2703 2561 2903 
Q 2341 3103 1931 3103 
Q 1466 3103 1228 2742 
Q 991 2381 991 1663 
Q 991 944 1227 581 
Q 1463 219 1931 219 
Q 2303 219 2525 412 
Q 2747 606 2828 997 
L 3291 997 
z
" transform="scale(0.015625)"/>
      </defs>
      <use xlink:href="#DejaVuSerif-52"/>
      <use xlink:href="#DejaVuSerif-65" x="75.292969"/>
      <use xlink:href="#DejaVuSerif-66" x="134.472656"/>
      <use xlink:href="#DejaVuSerif-65" x="171.484375"/>
      <use xlink:href="#DejaVuSerif-72" x="230.664062"/>
      <use xlink:href="#DejaVuSerif-65" x="278.466797"/>
      <use xlink:href="#DejaVuSerif-6e" x="337.646484"/>
      <use xlink:href="#DejaVuSerif-63" x="402.050781"/>
      <use xlink:href="#DejaVuSerif-65" x="458.056641"/>
     </g>
    </g>
    <g id="line2d_23">
     <path d="M 172.279688 56.607969 
L 181.279688 56.607969 
L 190.279688 56.607969 
" style="fill: none; stroke: #008000; stroke-width: 0.75; stroke-linecap: round"/>
    </g>
    <g id="text_7">
     <!-- PISM -->
     <g style="fill: #262626" transform="translate(197.479688 59.757969) scale(0.09 -0.09)">
      <defs>
       <path id="DejaVuSerif-50" d="M 1581 2375 
L 2406 2375 
Q 2872 2375 3115 2626 
Q 3359 2878 3359 3353 
Q 3359 3831 3115 4081 
Q 2872 4331 2406 4331 
L 1581 4331 
L 1581 2375 
z
M 353 0 
L 353 331 
L 947 331 
L 947 4331 
L 353 4331 
L 353 4666 
L 2559 4666 
Q 3259 4666 3668 4311 
Q 4078 3956 4078 3353 
Q 4078 2753 3668 2397 
Q 3259 2041 2559 2041 
L 1581 2041 
L 1581 331 
L 2303 331 
L 2303 0 
L 353 0 
z
" transform="scale(0.015625)"/>
       <path id="DejaVuSerif-49" d="M 1581 331 
L 2175 331 
L 2175 0 
L 353 0 
L 353 331 
L 947 331 
L 947 4331 
L 353 4331 
L 353 4666 
L 2175 4666 
L 2175 4331 
L 1581 4331 
L 1581 331 
z
" transform="scale(0.015625)"/>
       <path id="DejaVuSerif-53" d="M 594 225 
L 594 1288 
L 953 1284 
Q 969 753 1261 498 
Q 1553 244 2150 244 
Q 2706 244 2998 464 
Q 3291 684 3291 1106 
Q 3291 1444 3114 1625 
Q 2938 1806 2369 1978 
L 1753 2163 
Q 1084 2366 811 2669 
Q 538 2972 538 3500 
Q 538 4094 959 4422 
Q 1381 4750 2144 4750 
Q 2469 4750 2856 4679 
Q 3244 4609 3681 4475 
L 3681 3481 
L 3328 3481 
Q 3275 3975 2998 4195 
Q 2722 4416 2156 4416 
Q 1663 4416 1405 4214 
Q 1147 4013 1147 3628 
Q 1147 3294 1340 3103 
Q 1534 2913 2163 2725 
L 2741 2553 
Q 3375 2363 3645 2067 
Q 3916 1772 3916 1275 
Q 3916 597 3481 253 
Q 3047 -91 2188 -91 
Q 1803 -91 1404 -12 
Q 1006 66 594 225 
z
" transform="scale(0.015625)"/>
      </defs>
      <use xlink:href="#DejaVuSerif-50"/>
      <use xlink:href="#DejaVuSerif-49" x="67.285156"/>
      <use xlink:href="#DejaVuSerif-53" x="106.787109"/>
      <use xlink:href="#DejaVuSerif-4d" x="175.292969"/>
     </g>
    </g>
    <g id="line2d_24">
     <path d="M 172.279688 69.818281 
L 181.279688 69.818281 
L 190.279688 69.818281 
" style="fill: none; stroke: #ff0000; stroke-width: 0.75; stroke-linecap: round"/>
    </g>
    <g id="text_8">
     <!-- Mathematical -->
     <g style="fill: #262626" transform="translate(197.479688 72.968281) scale(0.09 -0.09)">
      <defs>
       <path id="DejaVuSerif-61" d="M 2547 1044 
L 2547 1747 
L 1806 1747 
Q 1378 1747 1168 1562 
Q 959 1378 959 997 
Q 959 650 1171 447 
Q 1384 244 1747 244 
Q 2106 244 2326 466 
Q 2547 688 2547 1044 
z
M 3122 2075 
L 3122 331 
L 3634 331 
L 3634 0 
L 2547 0 
L 2547 359 
Q 2356 128 2106 18 
Q 1856 -91 1522 -91 
Q 969 -91 644 203 
Q 319 497 319 997 
Q 319 1513 691 1797 
Q 1063 2081 1741 2081 
L 2547 2081 
L 2547 2309 
Q 2547 2688 2317 2895 
Q 2088 3103 1672 3103 
Q 1328 3103 1125 2947 
Q 922 2791 872 2484 
L 575 2484 
L 575 3156 
Q 875 3284 1158 3348 
Q 1441 3413 1709 3413 
Q 2400 3413 2761 3070 
Q 3122 2728 3122 2075 
z
" transform="scale(0.015625)"/>
       <path id="DejaVuSerif-68" d="M 263 0 
L 263 331 
L 781 331 
L 781 4531 
L 231 4531 
L 231 4863 
L 1356 4863 
L 1356 2731 
Q 1516 3069 1770 3241 
Q 2025 3413 2363 3413 
Q 2913 3413 3172 3097 
Q 3431 2781 3431 2113 
L 3431 331 
L 3944 331 
L 3944 0 
L 2356 0 
L 2356 331 
L 2853 331 
L 2853 1931 
Q 2853 2541 2704 2764 
Q 2556 2988 2175 2988 
Q 1775 2988 1565 2697 
Q 1356 2406 1356 1850 
L 1356 331 
L 1856 331 
L 1856 0 
L 263 0 
z
" transform="scale(0.015625)"/>
       <path id="DejaVuSerif-6d" d="M 3316 2675 
Q 3481 3041 3739 3227 
Q 3997 3413 4341 3413 
Q 4863 3413 5119 3089 
Q 5375 2766 5375 2113 
L 5375 331 
L 5894 331 
L 5894 0 
L 4300 0 
L 4300 331 
L 4800 331 
L 4800 2047 
Q 4800 2556 4650 2772 
Q 4500 2988 4153 2988 
Q 3769 2988 3567 2697 
Q 3366 2406 3366 1850 
L 3366 331 
L 3866 331 
L 3866 0 
L 2291 0 
L 2291 331 
L 2791 331 
L 2791 2069 
Q 2791 2566 2641 2777 
Q 2491 2988 2144 2988 
Q 1759 2988 1557 2697 
Q 1356 2406 1356 1850 
L 1356 331 
L 1856 331 
L 1856 0 
L 263 0 
L 263 331 
L 781 331 
L 781 2994 
L 231 2994 
L 231 3322 
L 1356 3322 
L 1356 2731 
Q 1516 3063 1762 3238 
Q 2009 3413 2322 3413 
Q 2709 3413 2968 3220 
Q 3228 3028 3316 2675 
z
" transform="scale(0.015625)"/>
       <path id="DejaVuSerif-69" d="M 622 4353 
Q 622 4497 726 4603 
Q 831 4709 978 4709 
Q 1122 4709 1226 4603 
Q 1331 4497 1331 4353 
Q 1331 4206 1228 4103 
Q 1125 4000 978 4000 
Q 831 4000 726 4103 
Q 622 4206 622 4353 
z
M 1356 331 
L 1900 331 
L 1900 0 
L 231 0 
L 231 331 
L 781 331 
L 781 2988 
L 231 2988 
L 231 3322 
L 1356 3322 
L 1356 331 
z
" transform="scale(0.015625)"/>
      </defs>
      <use xlink:href="#DejaVuSerif-4d"/>
      <use xlink:href="#DejaVuSerif-61" x="102.392578"/>
      <use xlink:href="#DejaVuSerif-74" x="162.011719"/>
      <use xlink:href="#DejaVuSerif-68" x="202.197266"/>
      <use xlink:href="#DejaVuSerif-65" x="266.601562"/>
      <use xlink:href="#DejaVuSerif-6d" x="325.78125"/>
      <use xlink:href="#DejaVuSerif-61" x="420.605469"/>
      <use xlink:href="#DejaVuSerif-74" x="480.224609"/>
      <use xlink:href="#DejaVuSerif-69" x="520.410156"/>
      <use xlink:href="#DejaVuSerif-63" x="552.392578"/>
      <use xlink:href="#DejaVuSerif-61" x="608.398438"/>
      <use xlink:href="#DejaVuSerif-6c" x="668.017578"/>
     </g>
    </g>
   </g>
  </g>
  <g id="axes_2">
   <g id="patch_5">
    <path d="M 50.991094 158.68 
L 381.771094 158.68 
L 381.771094 82.94 
L 50.991094 82.94 
z
" style="fill: #ffffff"/>
   </g>
   <g id="line2d_25">
    <path d="M 66.026548 121.36377 
L 70.244587 121.451731 
L 73.104274 121.731644 
L 75.677993 122.205757 
L 78.108727 122.884365 
L 80.82543 123.878281 
L 84.114071 125.332324 
L 87.545695 127.0835 
L 91.692242 129.475803 
L 97.411617 133.046001 
L 103.273976 137.009792 
L 112.782436 143.684925 
L 121.43299 149.8007 
L 124.36417 151.579963 
L 126.866396 152.841387 
L 129.225638 153.782124 
L 131.441896 154.430987 
L 133.515169 154.812212 
L 135.588442 154.968445 
L 137.733208 154.903656 
L 140.163942 154.598115 
L 142.880645 154.028616 
L 146.097793 153.118477 
L 149.886879 151.810178 
L 153.818949 150.20819 
L 158.680417 147.971943 
L 163.613378 145.483614 
L 171.906471 140.980752 
L 179.270166 136.738358 
L 186.562369 132.347814 
L 199.645438 124.139177 
L 215.230734 114.028453 
L 244.113576 95.264893 
L 248.045646 92.999643 
L 250.905333 91.597174 
L 253.40756 90.612162 
L 255.766802 89.92374 
L 258.054551 89.482861 
L 260.270809 89.27558 
L 262.487067 89.288008 
L 264.989293 89.529165 
L 267.777488 90.017379 
L 270.994637 90.816908 
L 274.926707 92.030578 
L 279.28773 93.601615 
L 283.720245 95.463129 
L 289.868573 98.299779 
L 298.090174 102.41634 
L 304.881931 105.983734 
L 314.461884 111.275816 
L 325.47168 117.703638 
L 340.19907 126.675868 
L 353.711092 135.004031 
L 366.722669 143.075595 
L 366.722669 143.075595 
" clip-path="url(#pa5d3464a50)" style="fill: none; stroke: #000000; stroke-width: 0.75; stroke-linecap: round"/>
   </g>
   <g id="line2d_26">
    <path d="M 66.026548 121.556511 
L 67.813853 126.23007 
L 70.530556 133.234125 
L 75.463516 145.737223 
L 75.677993 146.173165 
L 116.571522 146.158182 
L 116.785998 145.621714 
L 117.572412 143.58265 
L 127.65281 117.835547 
L 128.510716 115.650525 
L 129.440114 113.210802 
L 129.726083 112.458296 
L 131.942341 106.775113 
L 134.802028 99.462226 
L 135.373966 97.960598 
L 135.874411 96.689023 
L 137.518731 96.754752 
L 154.17641 96.752819 
L 242.111795 96.751852 
L 242.254779 97.0718 
L 242.540748 97.818506 
L 259.913348 142.1743 
L 260.413793 143.427993 
L 260.985731 144.995834 
L 261.200208 145.449657 
L 261.486176 146.112268 
L 261.772145 146.170748 
L 366.722669 146.156732 
L 366.722669 146.156732 
" clip-path="url(#pa5d3464a50)" style="fill: none; stroke-dasharray: 2.775,1.2; stroke-dashoffset: 0; stroke: #808080; stroke-width: 0.75"/>
   </g>
   <g id="matplotlib.axis_3">
    <g id="xtick_6">
     <g id="line2d_27">
      <path d="M 66.026548 158.68 
L 66.026548 82.94 
" clip-path="url(#pa5d3464a50)" style="fill: none; stroke: #b0b0b0; stroke-width: 0.8; stroke-linecap: round"/>
     </g>
     <g id="line2d_28"/>
    </g>
    <g id="xtick_7">
     <g id="line2d_29">
      <path d="M 138.00096 158.68 
L 138.00096 82.94 
" clip-path="url(#pa5d3464a50)" style="fill: none; stroke: #b0b0b0; stroke-width: 0.8; stroke-linecap: round"/>
     </g>
     <g id="line2d_30"/>
    </g>
    <g id="xtick_8">
     <g id="line2d_31">
      <path d="M 209.975371 158.68 
L 209.975371 82.94 
" clip-path="url(#pa5d3464a50)" style="fill: none; stroke: #b0b0b0; stroke-width: 0.8; stroke-linecap: round"/>
     </g>
     <g id="line2d_32"/>
    </g>
    <g id="xtick_9">
     <g id="line2d_33">
      <path d="M 281.949783 158.68 
L 281.949783 82.94 
" clip-path="url(#pa5d3464a50)" style="fill: none; stroke: #b0b0b0; stroke-width: 0.8; stroke-linecap: round"/>
     </g>
     <g id="line2d_34"/>
    </g>
    <g id="xtick_10">
     <g id="line2d_35">
      <path d="M 353.924194 158.68 
L 353.924194 82.94 
" clip-path="url(#pa5d3464a50)" style="fill: none; stroke: #b0b0b0; stroke-width: 0.8; stroke-linecap: round"/>
     </g>
     <g id="line2d_36"/>
    </g>
   </g>
   <g id="matplotlib.axis_4">
    <g id="ytick_4">
     <g id="line2d_37">
      <path d="M 50.991094 146.157291 
L 381.771094 146.157291 
" clip-path="url(#pa5d3464a50)" style="fill: none; stroke: #b0b0b0; stroke-width: 0.8; stroke-linecap: round"/>
     </g>
     <g id="line2d_38"/>
     <g id="text_9">
      <!-- −20 -->
      <g style="fill: #262626" transform="translate(28.496875 149.576588) scale(0.09 -0.09)">
       <defs>
        <path id="DejaVuSerif-32" d="M 819 3553 
L 469 3553 
L 469 4384 
Q 803 4563 1142 4656 
Q 1481 4750 1806 4750 
Q 2534 4750 2956 4397 
Q 3378 4044 3378 3438 
Q 3378 2753 2422 1800 
Q 2347 1728 2309 1691 
L 1131 513 
L 3078 513 
L 3078 1088 
L 3444 1088 
L 3444 0 
L 434 0 
L 434 341 
L 1850 1753 
Q 2319 2222 2519 2614 
Q 2719 3006 2719 3438 
Q 2719 3909 2473 4175 
Q 2228 4441 1797 4441 
Q 1350 4441 1106 4219 
Q 863 3997 819 3553 
z
" transform="scale(0.015625)"/>
       </defs>
       <use xlink:href="#DejaVuSerif-2212"/>
       <use xlink:href="#DejaVuSerif-32" x="83.789062"/>
       <use xlink:href="#DejaVuSerif-30" x="147.412109"/>
      </g>
     </g>
    </g>
    <g id="ytick_5">
     <g id="line2d_39">
      <path d="M 50.991094 121.455017 
L 381.771094 121.455017 
" clip-path="url(#pa5d3464a50)" style="fill: none; stroke: #b0b0b0; stroke-width: 0.8; stroke-linecap: round"/>
     </g>
     <g id="line2d_40"/>
     <g id="text_10">
      <!-- 0 -->
      <g style="fill: #262626" transform="translate(41.764844 124.874314) scale(0.09 -0.09)">
       <use xlink:href="#DejaVuSerif-30"/>
      </g>
     </g>
    </g>
    <g id="ytick_6">
     <g id="line2d_41">
      <path d="M 50.991094 96.752743 
L 381.771094 96.752743 
" clip-path="url(#pa5d3464a50)" style="fill: none; stroke: #b0b0b0; stroke-width: 0.8; stroke-linecap: round"/>
     </g>
     <g id="line2d_42"/>
     <g id="text_11">
      <!-- 20 -->
      <g style="fill: #262626" transform="translate(36.038594 100.17204) scale(0.09 -0.09)">
       <use xlink:href="#DejaVuSerif-32"/>
       <use xlink:href="#DejaVuSerif-30" x="63.623047"/>
      </g>
     </g>
    </g>
    <g id="text_12">
     <!-- $\psi$ $[deg]$ -->
     <g style="fill: #262626" transform="translate(22.606875 137.235) rotate(-90) scale(0.09 -0.09)">
      <defs>
       <path id="DejaVuSans-Oblique-3c8" d="M 1591 -78 
Q 891 38 616 341 
Q 278 713 425 1472 
L 819 3500 
L 1400 3500 
L 1009 1494 
Q 900 922 1119 684 
Q 1313 478 1691 434 
L 2284 3500 
L 2856 3500 
L 2263 438 
Q 2681 481 2928 688 
Q 3247 950 3353 1497 
L 3741 3500 
L 4322 3500 
L 3928 1475 
Q 3775 688 3300 344 
Q 2872 34 2163 -75 
L 1919 -1331 
L 1347 -1331 
L 1591 -78 
z
" transform="scale(0.015625)"/>
      </defs>
      <use xlink:href="#DejaVuSans-Oblique-3c8" transform="translate(0 0.015625)"/>
      <use xlink:href="#DejaVuSerif-20" transform="translate(65.966797 0.015625)"/>
      <use xlink:href="#DejaVuSans-5b" transform="translate(97.753906 0.015625)"/>
      <use xlink:href="#DejaVuSans-Oblique-64" transform="translate(136.767578 0.015625)"/>
      <use xlink:href="#DejaVuSans-Oblique-65" transform="translate(200.244141 0.015625)"/>
      <use xlink:href="#DejaVuSans-Oblique-67" transform="translate(261.767578 0.015625)"/>
      <use xlink:href="#DejaVuSans-5d" transform="translate(325.244141 0.015625)"/>
     </g>
    </g>
   </g>
   <g id="line2d_43">
    <path d="M 66.026548 121.455017 
L 70.848834 121.564748 
L 73.583861 121.856844 
L 76.030991 122.344377 
L 78.62207 123.101478 
L 81.644996 124.228457 
L 85.171742 125.791136 
L 89.418232 127.930043 
L 94.456441 130.727031 
L 100.64624 134.429681 
L 107.843681 139.001349 
L 116.336662 144.667377 
L 124.46977 150.08212 
L 127.276772 151.634241 
L 129.723902 152.74309 
L 132.027084 153.544269 
L 134.186316 154.063056 
L 136.273574 154.335598 
L 138.360832 154.378824 
L 140.664013 154.192642 
L 143.255092 153.753424 
L 146.206043 153.023201 
L 149.58884 151.951425 
L 153.547433 150.456414 
L 158.081821 148.501029 
L 163.407927 145.956987 
L 169.16588 142.9624 
L 176.075423 139.105332 
L 183.704711 134.591171 
L 191.981768 129.429471 
L 201.050544 123.511659 
L 211.414859 116.47203 
L 223.218663 108.176503 
L 238.405264 97.218855 
L 244.235191 93.095168 
L 247.186142 91.301934 
L 249.705246 90.022459 
L 252.080402 89.064194 
L 254.311609 88.40271 
L 256.470841 87.995576 
L 258.630073 87.822552 
L 260.933254 87.865995 
L 263.596308 88.146063 
L 266.619233 88.696782 
L 270.00203 89.542931 
L 273.816674 90.728678 
L 278.207113 92.334084 
L 283.245322 94.420227 
L 288.9313 97.01898 
L 295.1211 100.097493 
L 301.886695 103.722041 
L 309.659931 108.140857 
L 317.865014 113.05846 
L 326.717866 118.626397 
L 336.362438 124.960401 
L 347.950318 132.842177 
L 360.113993 141.386756 
L 366.735639 146.130337 
L 366.735639 146.130337 
" clip-path="url(#pa5d3464a50)" style="fill: none; stroke: #0000ff; stroke-width: 0.75; stroke-linecap: round"/>
   </g>
   <g id="line2d_44">
    <path d="M 66.026548 121.455017 
L 70.848834 121.564537 
L 73.583861 121.855621 
L 76.030991 122.340648 
L 78.62207 123.091819 
L 81.644996 124.206571 
L 85.243716 125.780246 
L 89.562181 127.920547 
L 94.960262 130.852658 
L 101.581908 134.711057 
L 110.074888 139.930183 
L 120.367229 146.525521 
L 125.189514 149.532204 
L 128.068491 151.063926 
L 130.587595 152.155449 
L 132.890777 152.914649 
L 135.050009 153.397991 
L 137.137267 153.639949 
L 139.224525 153.652328 
L 141.455731 153.433201 
L 143.974836 152.956483 
L 146.853812 152.181617 
L 150.23661 151.030503 
L 154.267177 149.412082 
L 159.017488 147.25621 
L 164.775441 144.387386 
L 171.253138 140.906689 
L 179.170323 136.391286 
L 188.311073 130.914468 
L 198.53144 124.530671 
L 211.054987 116.433831 
L 225.665793 106.71848 
L 247.114167 92.40247 
L 249.777221 91.036868 
L 252.224351 90.031505 
L 254.527532 89.328079 
L 256.686764 88.899319 
L 258.774022 88.70749 
L 260.933254 88.733777 
L 263.380384 88.992573 
L 266.187386 89.52281 
L 269.354261 90.353413 
L 273.024956 91.555587 
L 277.271446 93.188758 
L 282.309655 95.376159 
L 288.211556 98.186154 
L 294.761228 101.553866 
L 302.246567 105.663408 
L 311.747189 111.146135 
L 321.895581 117.268286 
L 332.691743 124.042276 
L 346.222932 132.805376 
L 361.553482 143.016455 
L 366.159844 146.122911 
L 366.159844 146.122911 
" clip-path="url(#pa5d3464a50)" style="fill: none; stroke: #008000; stroke-width: 0.75; stroke-linecap: round"/>
   </g>
   <g id="line2d_45">
    <path d="M 66.026548 121.455017 
L 70.704885 121.562584 
L 73.511887 121.860025 
L 76.030991 122.348461 
L 78.694045 123.10203 
L 81.644996 124.172811 
L 85.027793 125.641978 
L 88.914411 127.579518 
L 93.376825 130.058892 
L 98.558982 133.19936 
L 104.532858 137.08708 
L 111.298453 141.762256 
L 119.215638 147.514662 
L 123.534103 150.54997 
L 126.269131 152.206984 
L 128.644286 153.391536 
L 130.803519 154.229364 
L 132.890777 154.804489 
L 134.90606 155.132773 
L 136.921344 155.237189 
L 139.080576 155.116063 
L 141.527706 154.74356 
L 144.262734 154.096901 
L 147.429608 153.111869 
L 151.028328 151.755448 
L 155.202844 149.934334 
L 159.881181 147.641338 
L 165.135313 144.811394 
L 170.893266 141.449956 
L 177.227014 137.487402 
L 184.136557 132.897466 
L 191.765845 127.557167 
L 200.258826 121.33665 
L 209.831422 114.04105 
L 220.699558 105.470498 
L 233.798901 94.843625 
L 237.68552 91.842481 
L 240.420547 90.005844 
L 242.723728 88.712982 
L 244.882961 87.745379 
L 246.970219 87.05173 
L 248.985502 86.614919 
L 251.000786 86.405416 
L 253.160018 86.414992 
L 255.535174 86.650335 
L 258.270201 87.146828 
L 261.437075 87.955444 
L 265.035796 89.109438 
L 269.138337 90.668038 
L 273.672725 92.634536 
L 278.63896 95.034283 
L 284.03704 97.890948 
L 289.938942 101.270367 
L 296.488614 105.283302 
L 303.470132 109.824217 
L 311.171394 115.101951 
L 319.520425 121.096522 
L 329.021048 128.199726 
L 339.745235 136.503584 
L 351.764962 146.099187 
L 351.764962 146.099187 
" clip-path="url(#pa5d3464a50)" style="fill: none; stroke: #ff0000; stroke-width: 0.75; stroke-linecap: round"/>
   </g>
   <g id="patch_6">
    <path d="M 50.991094 158.68 
L 50.991094 82.94 
" style="fill: none; stroke: #000000; stroke-linejoin: miter; stroke-linecap: square"/>
   </g>
   <g id="patch_7">
    <path d="M 50.991094 158.68 
L 381.771094 158.68 
" style="fill: none; stroke: #000000; stroke-linejoin: miter; stroke-linecap: square"/>
   </g>
  </g>
  <g id="axes_3">
   <g id="patch_8">
    <path d="M 50.991094 234.42 
L 381.771094 234.42 
L 381.771094 158.68 
L 50.991094 158.68 
z
" style="fill: #ffffff"/>
   </g>
   <g id="line2d_46">
    <path d="M 66.026548 196.556085 
L 67.027439 196.905426 
L 68.171314 197.564439 
L 69.386681 198.527302 
L 70.888017 200.019387 
L 72.532337 201.965635 
L 74.176657 204.246491 
L 75.89247 207.036246 
L 77.751266 209.958001 
L 79.753047 212.687046 
L 81.325875 214.482153 
L 82.827211 215.85184 
L 86.40182 218.910764 
L 88.189125 220.370232 
L 89.618969 221.256958 
L 91.406273 222.103009 
L 93.193578 222.701667 
L 95.481328 223.436501 
L 99.556382 225.273683 
L 101.272194 225.687957 
L 102.916515 225.858838 
L 104.489343 225.792413 
L 105.776202 225.784636 
L 106.777093 226.051227 
L 109.279319 226.807674 
L 111.781545 227.225789 
L 113.640342 227.341888 
L 115.141678 227.219852 
L 118.644795 226.63624 
L 119.574193 226.09423 
L 120.575084 225.262344 
L 121.718959 224.015797 
L 123.148802 222.092101 
L 124.793123 219.50478 
L 126.723412 216.019744 
L 130.441005 208.887954 
L 133.443677 202.348274 
L 136.803809 195.122323 
L 138.519622 192.052925 
L 140.09245 189.695729 
L 141.808262 187.496086 
L 143.595567 185.571676 
L 145.311379 184.048258 
L 147.098684 182.753873 
L 150.24434 180.558647 
L 152.389105 179.171355 
L 154.891332 177.816973 
L 156.750128 177.070606 
L 160.825183 175.551003 
L 162.969948 174.657167 
L 164.971729 174.095801 
L 166.759034 173.818118 
L 168.546339 173.778699 
L 170.047674 173.673549 
L 171.477518 173.265223 
L 173.83676 172.649635 
L 176.410479 172.198529 
L 178.340768 172.054053 
L 180.557025 171.945104 
L 181.915377 171.534774 
L 183.845666 170.991984 
L 185.775955 170.722893 
L 188.135197 170.620972 
L 191.781298 170.620429 
L 195.641876 169.856246 
L 197.929626 169.662199 
L 200.002899 169.727127 
L 201.861696 169.783201 
L 203.005571 169.502688 
L 204.721383 169.112672 
L 206.508688 168.999232 
L 208.86793 169.086379 
L 210.798219 169.345577 
L 212.585523 169.58396 
L 213.657906 169.436993 
L 217.018039 168.868961 
L 218.876835 168.807906 
L 220.735632 168.984659 
L 223.666812 169.344631 
L 228.599772 168.937367 
L 230.81603 169.153278 
L 234.676608 169.653262 
L 238.03674 169.401414 
L 240.681951 169.598265 
L 242.111795 169.924166 
L 243.041193 170.33747 
L 244.614021 171.360367 
L 246.54431 172.710524 
L 247.688185 173.825907 
L 249.118029 175.553701 
L 250.762349 177.906035 
L 252.76413 181.195826 
L 257.196645 189.187554 
L 260.485286 195.409403 
L 262.558559 199.147048 
L 263.988403 201.287078 
L 265.704215 203.411208 
L 268.134949 206.18859 
L 269.636285 207.571803 
L 271.495082 208.949675 
L 273.425371 210.165139 
L 275.35566 211.06518 
L 276.99998 211.891546 
L 281.789956 214.737054 
L 283.577261 215.42133 
L 285.579042 215.908532 
L 287.509331 216.439541 
L 291.012448 217.643226 
L 292.656768 217.930842 
L 295.01601 218.122989 
L 298.519127 218.311569 
L 303.380595 219.387034 
L 306.168791 219.682357 
L 309.242954 219.889063 
L 313.318009 220.824823 
L 315.748743 221.076699 
L 318.036493 221.048452 
L 319.323352 221.102854 
L 320.753196 221.478298 
L 322.754977 221.947424 
L 324.685266 222.150041 
L 327.044508 222.129284 
L 329.618227 222.111672 
L 330.690609 222.355248 
L 332.549406 222.772753 
L 334.336711 222.900067 
L 337.196398 222.863104 
L 338.840718 222.651235 
L 340.628023 222.426247 
L 341.84339 222.583406 
L 344.488601 222.983093 
L 347.205303 223.054535 
L 349.135592 222.889815 
L 351.423342 222.681751 
L 352.99617 222.933508 
L 354.997951 223.172991 
L 357.500178 223.245758 
L 359.073006 223.059223 
L 362.14717 222.607746 
L 363.648506 222.822135 
L 366.365209 223.217191 
L 366.722669 223.229357 
L 366.722669 223.229357 
" clip-path="url(#pd4fb07fa3d)" style="fill: none; stroke: #000000; stroke-width: 0.75; stroke-linecap: round"/>
   </g>
   <g id="matplotlib.axis_5">
    <g id="xtick_11">
     <g id="line2d_47">
      <path d="M 66.026548 234.42 
L 66.026548 158.68 
" clip-path="url(#pd4fb07fa3d)" style="fill: none; stroke: #b0b0b0; stroke-width: 0.8; stroke-linecap: round"/>
     </g>
     <g id="line2d_48"/>
     <g id="text_13">
      <!-- 0 -->
      <g style="fill: #262626" transform="translate(63.163423 244.758594) scale(0.09 -0.09)">
       <use xlink:href="#DejaVuSerif-30"/>
      </g>
     </g>
    </g>
    <g id="xtick_12">
     <g id="line2d_49">
      <path d="M 138.00096 234.42 
L 138.00096 158.68 
" clip-path="url(#pd4fb07fa3d)" style="fill: none; stroke: #b0b0b0; stroke-width: 0.8; stroke-linecap: round"/>
     </g>
     <g id="line2d_50"/>
     <g id="text_14">
      <!-- 10 -->
      <g style="fill: #262626" transform="translate(132.27471 244.758594) scale(0.09 -0.09)">
       <use xlink:href="#DejaVuSerif-31"/>
       <use xlink:href="#DejaVuSerif-30" x="63.623047"/>
      </g>
     </g>
    </g>
    <g id="xtick_13">
     <g id="line2d_51">
      <path d="M 209.975371 234.42 
L 209.975371 158.68 
" clip-path="url(#pd4fb07fa3d)" style="fill: none; stroke: #b0b0b0; stroke-width: 0.8; stroke-linecap: round"/>
     </g>
     <g id="line2d_52"/>
     <g id="text_15">
      <!-- 20 -->
      <g style="fill: #262626" transform="translate(204.249121 244.758594) scale(0.09 -0.09)">
       <use xlink:href="#DejaVuSerif-32"/>
       <use xlink:href="#DejaVuSerif-30" x="63.623047"/>
      </g>
     </g>
    </g>
    <g id="xtick_14">
     <g id="line2d_53">
      <path d="M 281.949783 234.42 
L 281.949783 158.68 
" clip-path="url(#pd4fb07fa3d)" style="fill: none; stroke: #b0b0b0; stroke-width: 0.8; stroke-linecap: round"/>
     </g>
     <g id="line2d_54"/>
     <g id="text_16">
      <!-- 30 -->
      <g style="fill: #262626" transform="translate(276.223533 244.758594) scale(0.09 -0.09)">
       <defs>
        <path id="DejaVuSerif-33" d="M 622 4469 
Q 988 4606 1323 4678 
Q 1659 4750 1953 4750 
Q 2638 4750 3022 4454 
Q 3406 4159 3406 3634 
Q 3406 3213 3140 2930 
Q 2875 2647 2388 2547 
Q 2963 2466 3280 2130 
Q 3597 1794 3597 1259 
Q 3597 606 3158 257 
Q 2719 -91 1894 -91 
Q 1528 -91 1179 -12 
Q 831 66 488 225 
L 488 1131 
L 838 1131 
Q 869 681 1141 450 
Q 1413 219 1906 219 
Q 2384 219 2661 495 
Q 2938 772 2938 1253 
Q 2938 1803 2653 2086 
Q 2369 2369 1819 2369 
L 1522 2369 
L 1522 2688 
L 1678 2688 
Q 2225 2688 2498 2914 
Q 2772 3141 2772 3597 
Q 2772 4006 2547 4223 
Q 2322 4441 1900 4441 
Q 1478 4441 1245 4241 
Q 1013 4041 972 3647 
L 622 3647 
L 622 4469 
z
" transform="scale(0.015625)"/>
       </defs>
       <use xlink:href="#DejaVuSerif-33"/>
       <use xlink:href="#DejaVuSerif-30" x="63.623047"/>
      </g>
     </g>
    </g>
    <g id="xtick_15">
     <g id="line2d_55">
      <path d="M 353.924194 234.42 
L 353.924194 158.68 
" clip-path="url(#pd4fb07fa3d)" style="fill: none; stroke: #b0b0b0; stroke-width: 0.8; stroke-linecap: round"/>
     </g>
     <g id="line2d_56"/>
     <g id="text_17">
      <!-- 40 -->
      <g style="fill: #262626" transform="translate(348.197944 244.758594) scale(0.09 -0.09)">
       <defs>
        <path id="DejaVuSerif-34" d="M 2234 1581 
L 2234 4063 
L 641 1581 
L 2234 1581 
z
M 3609 0 
L 1484 0 
L 1484 331 
L 2234 331 
L 2234 1247 
L 197 1247 
L 197 1588 
L 2241 4750 
L 2859 4750 
L 2859 1581 
L 3750 1581 
L 3750 1247 
L 2859 1247 
L 2859 331 
L 3609 331 
L 3609 0 
z
" transform="scale(0.015625)"/>
       </defs>
       <use xlink:href="#DejaVuSerif-34"/>
       <use xlink:href="#DejaVuSerif-30" x="63.623047"/>
      </g>
     </g>
    </g>
    <g id="text_18">
     <!-- Time [s] -->
     <g style="fill: #262626" transform="translate(197.758828 257.468906) scale(0.09 -0.09)">
      <defs>
       <path id="DejaVuSerif-54" d="M 1222 0 
L 1222 331 
L 1819 331 
L 1819 4294 
L 447 4294 
L 447 3566 
L 63 3566 
L 63 4666 
L 4206 4666 
L 4206 3566 
L 3822 3566 
L 3822 4294 
L 2450 4294 
L 2450 331 
L 3047 331 
L 3047 0 
L 1222 0 
z
" transform="scale(0.015625)"/>
       <path id="DejaVuSerif-5b" d="M 550 4863 
L 2003 4863 
L 2003 4531 
L 1147 4531 
L 1147 -513 
L 2003 -513 
L 2003 -844 
L 550 -844 
L 550 4863 
z
" transform="scale(0.015625)"/>
       <path id="DejaVuSerif-5d" d="M 1947 4863 
L 1947 -844 
L 494 -844 
L 494 -513 
L 1350 -513 
L 1350 4531 
L 494 4531 
L 494 4863 
L 1947 4863 
z
" transform="scale(0.015625)"/>
      </defs>
      <use xlink:href="#DejaVuSerif-54"/>
      <use xlink:href="#DejaVuSerif-69" x="66.699219"/>
      <use xlink:href="#DejaVuSerif-6d" x="98.681641"/>
      <use xlink:href="#DejaVuSerif-65" x="193.505859"/>
      <use xlink:href="#DejaVuSerif-20" x="252.685547"/>
      <use xlink:href="#DejaVuSerif-5b" x="284.472656"/>
      <use xlink:href="#DejaVuSerif-73" x="323.486328"/>
      <use xlink:href="#DejaVuSerif-5d" x="374.804688"/>
     </g>
    </g>
   </g>
   <g id="matplotlib.axis_6">
    <g id="ytick_7">
     <g id="line2d_57">
      <path d="M 50.991094 217.561866 
L 381.771094 217.561866 
" clip-path="url(#pd4fb07fa3d)" style="fill: none; stroke: #b0b0b0; stroke-width: 0.8; stroke-linecap: round"/>
     </g>
     <g id="line2d_58"/>
     <g id="text_19">
      <!-- −0.05 -->
      <g style="fill: #262626" transform="translate(19.910312 220.981163) scale(0.09 -0.09)">
       <defs>
        <path id="DejaVuSerif-2e" d="M 603 325 
Q 603 500 722 622 
Q 841 744 1019 744 
Q 1191 744 1312 622 
Q 1434 500 1434 325 
Q 1434 153 1312 31 
Q 1191 -91 1019 -91 
Q 841 -91 722 29 
Q 603 150 603 325 
z
" transform="scale(0.015625)"/>
        <path id="DejaVuSerif-35" d="M 3219 4666 
L 3219 4153 
L 1081 4153 
L 1081 2816 
Q 1244 2928 1461 2984 
Q 1678 3041 1947 3041 
Q 2703 3041 3140 2622 
Q 3578 2203 3578 1478 
Q 3578 738 3136 323 
Q 2694 -91 1894 -91 
Q 1572 -91 1234 -12 
Q 897 66 544 225 
L 544 1131 
L 897 1131 
Q 925 688 1179 453 
Q 1434 219 1894 219 
Q 2388 219 2653 544 
Q 2919 869 2919 1478 
Q 2919 2084 2655 2407 
Q 2391 2731 1894 2731 
Q 1613 2731 1398 2631 
Q 1184 2531 1019 2322 
L 750 2322 
L 750 4666 
L 3219 4666 
z
" transform="scale(0.015625)"/>
       </defs>
       <use xlink:href="#DejaVuSerif-2212"/>
       <use xlink:href="#DejaVuSerif-30" x="83.789062"/>
       <use xlink:href="#DejaVuSerif-2e" x="147.412109"/>
       <use xlink:href="#DejaVuSerif-30" x="179.199219"/>
       <use xlink:href="#DejaVuSerif-35" x="242.822266"/>
      </g>
     </g>
    </g>
    <g id="ytick_8">
     <g id="line2d_59">
      <path d="M 50.991094 196.775397 
L 381.771094 196.775397 
" clip-path="url(#pd4fb07fa3d)" style="fill: none; stroke: #b0b0b0; stroke-width: 0.8; stroke-linecap: round"/>
     </g>
     <g id="line2d_60"/>
     <g id="text_20">
      <!-- 0.00 -->
      <g style="fill: #262626" transform="translate(27.452031 200.194694) scale(0.09 -0.09)">
       <use xlink:href="#DejaVuSerif-30"/>
       <use xlink:href="#DejaVuSerif-2e" x="63.623047"/>
       <use xlink:href="#DejaVuSerif-30" x="95.410156"/>
       <use xlink:href="#DejaVuSerif-30" x="159.033203"/>
      </g>
     </g>
    </g>
    <g id="ytick_9">
     <g id="line2d_61">
      <path d="M 50.991094 175.988928 
L 381.771094 175.988928 
" clip-path="url(#pd4fb07fa3d)" style="fill: none; stroke: #b0b0b0; stroke-width: 0.8; stroke-linecap: round"/>
     </g>
     <g id="line2d_62"/>
     <g id="text_21">
      <!-- 0.05 -->
      <g style="fill: #262626" transform="translate(27.452031 179.408225) scale(0.09 -0.09)">
       <use xlink:href="#DejaVuSerif-30"/>
       <use xlink:href="#DejaVuSerif-2e" x="63.623047"/>
       <use xlink:href="#DejaVuSerif-30" x="95.410156"/>
       <use xlink:href="#DejaVuSerif-35" x="159.033203"/>
      </g>
     </g>
    </g>
    <g id="text_22">
     <!-- $r$ $[rad/s]$ -->
     <g style="fill: #262626" transform="translate(14.038594 214.685) rotate(-90) scale(0.09 -0.09)">
      <defs>
       <path id="DejaVuSans-Oblique-72" d="M 2853 2969 
Q 2766 3016 2653 3041 
Q 2541 3066 2413 3066 
Q 1953 3066 1609 2717 
Q 1266 2369 1153 1784 
L 800 0 
L 225 0 
L 909 3500 
L 1484 3500 
L 1375 2956 
Q 1603 3259 1920 3421 
Q 2238 3584 2597 3584 
Q 2691 3584 2781 3573 
Q 2872 3563 2963 3538 
L 2853 2969 
z
" transform="scale(0.015625)"/>
       <path id="DejaVuSans-Oblique-61" d="M 3438 1997 
L 3047 0 
L 2472 0 
L 2578 531 
Q 2325 219 2001 64 
Q 1678 -91 1281 -91 
Q 834 -91 548 182 
Q 263 456 263 884 
Q 263 1497 752 1853 
Q 1241 2209 2100 2209 
L 2900 2209 
L 2931 2363 
Q 2938 2388 2941 2417 
Q 2944 2447 2944 2509 
Q 2944 2788 2717 2942 
Q 2491 3097 2081 3097 
Q 1800 3097 1504 3025 
Q 1209 2953 897 2809 
L 997 3341 
Q 1322 3463 1633 3523 
Q 1944 3584 2234 3584 
Q 2853 3584 3176 3315 
Q 3500 3047 3500 2534 
Q 3500 2431 3484 2292 
Q 3469 2153 3438 1997 
z
M 2816 1759 
L 2241 1759 
Q 1534 1759 1195 1570 
Q 856 1381 856 984 
Q 856 709 1029 553 
Q 1203 397 1509 397 
Q 1978 397 2328 733 
Q 2678 1069 2791 1631 
L 2816 1759 
z
" transform="scale(0.015625)"/>
       <path id="DejaVuSans-2f" d="M 1625 4666 
L 2156 4666 
L 531 -594 
L 0 -594 
L 1625 4666 
z
" transform="scale(0.015625)"/>
       <path id="DejaVuSans-Oblique-73" d="M 3200 3397 
L 3091 2853 
Q 2863 2978 2609 3040 
Q 2356 3103 2088 3103 
Q 1634 3103 1373 2948 
Q 1113 2794 1113 2528 
Q 1113 2219 1719 2053 
Q 1766 2041 1788 2034 
L 1972 1978 
Q 2547 1819 2739 1644 
Q 2931 1469 2931 1166 
Q 2931 609 2489 259 
Q 2047 -91 1331 -91 
Q 1053 -91 747 -37 
Q 441 16 72 128 
L 184 722 
Q 500 559 806 475 
Q 1113 391 1394 391 
Q 1816 391 2080 572 
Q 2344 753 2344 1031 
Q 2344 1331 1650 1516 
L 1591 1531 
L 1394 1581 
Q 956 1697 753 1886 
Q 550 2075 550 2369 
Q 550 2928 970 3256 
Q 1391 3584 2113 3584 
Q 2397 3584 2667 3537 
Q 2938 3491 3200 3397 
z
" transform="scale(0.015625)"/>
      </defs>
      <use xlink:href="#DejaVuSans-Oblique-72" transform="translate(0 0.015625)"/>
      <use xlink:href="#DejaVuSerif-20" transform="translate(41.113281 0.015625)"/>
      <use xlink:href="#DejaVuSans-5b" transform="translate(72.900391 0.015625)"/>
      <use xlink:href="#DejaVuSans-Oblique-72" transform="translate(111.914062 0.015625)"/>
      <use xlink:href="#DejaVuSans-Oblique-61" transform="translate(153.027344 0.015625)"/>
      <use xlink:href="#DejaVuSans-Oblique-64" transform="translate(214.306641 0.015625)"/>
      <use xlink:href="#DejaVuSans-2f" transform="translate(277.783203 0.015625)"/>
      <use xlink:href="#DejaVuSans-Oblique-73" transform="translate(311.474609 0.015625)"/>
      <use xlink:href="#DejaVuSans-5d" transform="translate(363.574219 0.015625)"/>
     </g>
    </g>
   </g>
   <g id="line2d_63">
    <path d="M 66.026548 196.775397 
L 66.962216 196.892527 
L 67.969857 197.264047 
L 69.049474 197.925806 
L 70.201064 198.908 
L 71.496604 200.32129 
L 72.936092 202.244842 
L 74.663478 204.949955 
L 77.398505 209.273198 
L 79.053917 211.39031 
L 80.853277 213.303185 
L 82.796586 215.050978 
L 84.883844 216.632394 
L 86.971102 217.927054 
L 89.490206 219.219407 
L 92.225234 220.389958 
L 95.176185 221.414403 
L 98.84688 222.419034 
L 104.748782 223.750882 
L 110.578709 224.765106 
L 118.567869 225.857295 
L 119.503536 225.820272 
L 120.367229 225.555385 
L 121.446845 224.989368 
L 122.526461 224.16772 
L 123.750026 222.936069 
L 125.189514 221.159053 
L 126.772952 218.841293 
L 128.788235 215.445652 
L 131.019442 211.230944 
L 133.682495 205.703007 
L 139.656371 193.068184 
L 141.311783 190.473332 
L 142.967194 188.275842 
L 144.766554 186.245929 
L 146.925787 184.167347 
L 149.013045 182.480814 
L 151.100303 181.066612 
L 153.83533 179.501246 
L 156.354435 178.267241 
L 159.449334 177.016815 
L 163.048055 175.807572 
L 169.669701 173.824812 
L 174.06014 172.855765 
L 180.177965 171.701466 
L 187.951201 170.372875 
L 196.732079 169.151642 
L 206.880471 167.981977 
L 225.881716 166.511226 
L 239.844752 165.942663 
L 240.780419 166.252896 
L 241.860035 166.873512 
L 242.939652 167.7708 
L 244.235191 169.141559 
L 245.674679 170.979755 
L 247.474039 173.677751 
L 249.561297 177.227568 
L 252.224351 182.280293 
L 255.391225 188.797656 
L 259.06192 196.37151 
L 260.573382 198.868596 
L 262.300768 201.307277 
L 264.028154 203.36934 
L 265.899489 205.279561 
L 268.130696 207.236756 
L 270.577826 209.056035 
L 273.09693 210.672832 
L 275.903932 212.205789 
L 278.782908 213.533675 
L 282.021757 214.775388 
L 286.916017 216.368858 
L 292.098175 217.81752 
L 299.799437 219.714424 
L 306.493057 220.94696 
L 314.914063 222.302221 
L 332.475819 224.669764 
L 337.514028 225.149694 
L 357.882787 226.779339 
L 363.856663 227.089073 
L 366.735639 227.209607 
L 366.735639 227.209607 
" clip-path="url(#pd4fb07fa3d)" style="fill: none; stroke: #0000ff; stroke-width: 0.75; stroke-linecap: round"/>
   </g>
   <g id="line2d_64">
    <path d="M 66.026548 196.775397 
L 66.962216 196.892469 
L 67.969857 197.26354 
L 69.049474 197.923947 
L 70.201064 198.903224 
L 71.496604 200.310815 
L 72.936092 202.224248 
L 74.663478 204.910932 
L 77.326531 209.077925 
L 78.981942 211.163004 
L 80.781303 213.046509 
L 82.580663 214.634796 
L 84.667921 216.164663 
L 86.683204 217.391576 
L 88.842437 218.455987 
L 91.433516 219.478526 
L 95.176185 220.664827 
L 99.782547 221.766698 
L 103.453242 222.428322 
L 109.499093 223.256105 
L 115.832841 223.941047 
L 120.583152 224.25417 
L 121.446845 224.032986 
L 122.598436 223.465768 
L 123.678052 222.665146 
L 124.901617 221.474262 
L 126.269131 219.808752 
L 127.852568 217.524138 
L 129.867851 214.191957 
L 131.955109 210.311954 
L 134.474214 205.192423 
L 137.497139 198.542028 
L 139.872294 193.461588 
L 141.455731 190.650455 
L 143.039169 188.284205 
L 144.766554 186.102951 
L 146.637889 184.078116 
L 148.581198 182.322784 
L 150.380558 180.953297 
L 152.539791 179.602687 
L 155.058895 178.268691 
L 157.793923 177.087681 
L 160.744874 176.037844 
L 166.214929 174.486277 
L 171.037215 173.375205 
L 176.219372 172.492206 
L 183.416813 171.461987 
L 196.948003 170.004617 
L 204.649265 169.441663 
L 218.684275 168.633419 
L 233.367055 168.000304 
L 241.068317 167.910974 
L 242.003984 168.206032 
L 243.011626 168.757448 
L 244.091242 169.598617 
L 245.386782 170.898169 
L 246.82627 172.693308 
L 248.553656 175.230911 
L 250.784862 178.992675 
L 253.231992 183.56783 
L 256.254918 189.724045 
L 260.789306 199.051002 
L 262.444717 201.716834 
L 264.172103 204.060062 
L 265.971463 206.119197 
L 267.986747 208.093464 
L 270.217953 209.939978 
L 272.233237 211.362029 
L 274.680367 212.809411 
L 277.487369 214.213808 
L 280.078448 215.269052 
L 283.605194 216.431926 
L 288.643403 217.837832 
L 294.905177 219.308574 
L 299.007718 220.096638 
L 304.045927 220.836963 
L 322.03953 222.805608 
L 334.203205 223.850054 
L 341.184723 224.2685 
L 352.700629 224.930608 
L 362.201251 225.218675 
L 366.159844 225.360377 
L 366.159844 225.360377 
" clip-path="url(#pd4fb07fa3d)" style="fill: none; stroke: #008000; stroke-width: 0.75; stroke-linecap: round"/>
   </g>
   <g id="line2d_65">
    <path d="M 66.026548 196.775397 
L 66.890241 196.885912 
L 67.825909 197.237184 
L 68.905525 197.90699 
L 70.12909 198.964102 
L 71.496604 200.463095 
L 73.223989 202.706401 
L 75.527171 206.112879 
L 77.542454 209.010911 
L 79.485763 211.392914 
L 81.573021 213.577303 
L 83.732254 215.498803 
L 86.035435 217.244174 
L 88.554539 218.873988 
L 91.145618 220.289993 
L 94.528415 221.846597 
L 97.911213 223.134295 
L 102.157703 224.493013 
L 106.83604 225.75227 
L 111.874248 226.880749 
L 117.632201 227.955316 
L 118.639843 227.945664 
L 119.57551 227.723948 
L 120.511178 227.282596 
L 121.518819 226.563691 
L 122.598436 225.525215 
L 123.822001 224.023358 
L 125.189514 221.984352 
L 126.772952 219.214324 
L 128.716261 215.344528 
L 131.379314 209.49983 
L 138.936627 192.589652 
L 140.520064 189.966936 
L 142.175476 187.644199 
L 143.974836 185.495225 
L 145.918145 183.524797 
L 148.005403 181.736525 
L 150.380558 180.010089 
L 153.115586 178.302822 
L 156.066537 176.734996 
L 159.449334 175.195882 
L 163.767799 173.521604 
L 168.51811 171.921951 
L 173.844217 170.365288 
L 179.530195 168.950346 
L 186.727636 167.397425 
L 193.709154 166.164525 
L 200.906595 165.078033 
L 209.183653 164.055198 
L 218.828224 163.089905 
L 231.783618 162.122833 
L 232.79126 162.243743 
L 233.798901 162.604826 
L 234.806543 163.205512 
L 235.886159 164.116191 
L 237.03775 165.387869 
L 238.333289 167.179902 
L 239.772777 169.567654 
L 241.644112 173.154947 
L 243.803345 177.810446 
L 247.258116 185.883257 
L 251.864479 196.579348 
L 253.375941 199.41492 
L 254.959378 201.918079 
L 256.686764 204.224542 
L 258.486124 206.260366 
L 260.429434 208.119829 
L 262.66064 209.935378 
L 265.10777 211.647447 
L 267.842798 213.284725 
L 271.29757 215.080075 
L 274.968265 216.731739 
L 279.502653 218.50492 
L 284.468887 220.215282 
L 289.651045 221.761325 
L 295.408997 223.23187 
L 302.894336 224.903458 
L 310.307701 226.301835 
L 318.728707 227.659756 
L 326.717866 228.697752 
L 336.07454 229.686268 
L 351.189166 230.939175 
L 351.764962 230.977273 
L 351.764962 230.977273 
" clip-path="url(#pd4fb07fa3d)" style="fill: none; stroke: #ff0000; stroke-width: 0.75; stroke-linecap: round"/>
   </g>
   <g id="patch_9">
    <path d="M 50.991094 234.42 
L 50.991094 158.68 
" style="fill: none; stroke: #000000; stroke-linejoin: miter; stroke-linecap: square"/>
   </g>
   <g id="patch_10">
    <path d="M 50.991094 234.42 
L 381.771094 234.42 
" style="fill: none; stroke: #000000; stroke-linejoin: miter; stroke-linecap: square"/>
   </g>
  </g>
 </g>
 <defs>
  <clipPath id="p4516d4d007">
   <rect x="50.991094" y="7.2" width="330.78" height="75.74"/>
  </clipPath>
  <clipPath id="pa5d3464a50">
   <rect x="50.991094" y="82.94" width="330.78" height="75.74"/>
  </clipPath>
  <clipPath id="pd4fb07fa3d">
   <rect x="50.991094" y="158.68" width="330.78" height="75.74"/>
  </clipPath>
 </defs>
</svg>
