<?xml version="1.0" encoding="utf-8" standalone="no"?>
<!DOCTYPE svg PUBLIC "-//W3C//DTD SVG 1.1//EN"
  "http://www.w3.org/Graphics/SVG/1.1/DTD/svg11.dtd">
<svg xmlns:xlink="http://www.w3.org/1999/xlink" width="396pt" height="234pt" viewBox="0 0 396 234" xmlns="http://www.w3.org/2000/svg" version="1.1">
 <metadata>
  <rdf:RDF xmlns:dc="http://purl.org/dc/elements/1.1/" xmlns:cc="http://creativecommons.org/ns#" xmlns:rdf="http://www.w3.org/1999/02/22-rdf-syntax-ns#">
   <cc:Work>
    <dc:type rdf:resource="http://purl.org/dc/dcmitype/StillImage"/>
    <dc:date>2024-02-13T12:22:17.429589</dc:date>
    <dc:format>image/svg+xml</dc:format>
    <dc:creator>
     <cc:Agent>
      <dc:title>Matplotlib v3.8.2, https://matplotlib.org/</dc:title>
     </cc:Agent>
    </dc:creator>
   </cc:Work>
  </rdf:RDF>
 </metadata>
 <defs>
  <style type="text/css">*{stroke-linejoin: round; stroke-linecap: butt}</style>
 </defs>
 <g id="figure_1">
  <g id="patch_1">
   <path d="M 0 234 
L 396 234 
L 396 0 
L 0 0 
z
" style="fill: #ffffff"/>
  </g>
  <g id="axes_1">
   <g id="patch_2">
    <path d="M 38.204771 55.878934 
L 392.99976 55.878934 
L 392.99976 14.926802 
L 38.204771 14.926802 
z
" style="fill: #ffffff"/>
   </g>
   <g id="matplotlib.axis_1">
    <g id="xtick_1">
     <g id="line2d_1">
      <path d="M 54.331816 55.878934 
L 54.331816 14.926802 
" clip-path="url(#p569796bfba)" style="fill: none; stroke: #b0b0b0; stroke-width: 0.8; stroke-linecap: round"/>
     </g>
     <g id="line2d_2"/>
    </g>
    <g id="xtick_2">
     <g id="line2d_3">
      <path d="M 101.303681 55.878934 
L 101.303681 14.926802 
" clip-path="url(#p569796bfba)" style="fill: none; stroke: #b0b0b0; stroke-width: 0.8; stroke-linecap: round"/>
     </g>
     <g id="line2d_4"/>
    </g>
    <g id="xtick_3">
     <g id="line2d_5">
      <path d="M 148.275545 55.878934 
L 148.275545 14.926802 
" clip-path="url(#p569796bfba)" style="fill: none; stroke: #b0b0b0; stroke-width: 0.8; stroke-linecap: round"/>
     </g>
     <g id="line2d_6"/>
    </g>
    <g id="xtick_4">
     <g id="line2d_7">
      <path d="M 195.24741 55.878934 
L 195.24741 14.926802 
" clip-path="url(#p569796bfba)" style="fill: none; stroke: #b0b0b0; stroke-width: 0.8; stroke-linecap: round"/>
     </g>
     <g id="line2d_8"/>
    </g>
    <g id="xtick_5">
     <g id="line2d_9">
      <path d="M 242.219274 55.878934 
L 242.219274 14.926802 
" clip-path="url(#p569796bfba)" style="fill: none; stroke: #b0b0b0; stroke-width: 0.8; stroke-linecap: round"/>
     </g>
     <g id="line2d_10"/>
    </g>
    <g id="xtick_6">
     <g id="line2d_11">
      <path d="M 289.191139 55.878934 
L 289.191139 14.926802 
" clip-path="url(#p569796bfba)" style="fill: none; stroke: #b0b0b0; stroke-width: 0.8; stroke-linecap: round"/>
     </g>
     <g id="line2d_12"/>
    </g>
    <g id="xtick_7">
     <g id="line2d_13">
      <path d="M 336.163003 55.878934 
L 336.163003 14.926802 
" clip-path="url(#p569796bfba)" style="fill: none; stroke: #b0b0b0; stroke-width: 0.8; stroke-linecap: round"/>
     </g>
     <g id="line2d_14"/>
    </g>
    <g id="xtick_8">
     <g id="line2d_15">
      <path d="M 383.134868 55.878934 
L 383.134868 14.926802 
" clip-path="url(#p569796bfba)" style="fill: none; stroke: #b0b0b0; stroke-width: 0.8; stroke-linecap: round"/>
     </g>
     <g id="line2d_16"/>
    </g>
   </g>
   <g id="matplotlib.axis_2">
    <g id="ytick_1">
     <g id="line2d_17">
      <path d="M 38.204771 53.708097 
L 392.99976 53.708097 
" clip-path="url(#p569796bfba)" style="fill: none; stroke: #b0b0b0; stroke-width: 0.8; stroke-linecap: round"/>
     </g>
     <g id="line2d_18"/>
     <g id="text_1">
      <!-- −50 -->
      <g style="fill: #262626" transform="translate(15.710552 57.127394) scale(0.09 -0.09)">
       <defs>
        <path id="DejaVuSerif-2212" d="M 678 2259 
L 4684 2259 
L 4684 1753 
L 678 1753 
L 678 2259 
z
" transform="scale(0.015625)"/>
        <path id="DejaVuSerif-35" d="M 3219 4666 
L 3219 4153 
L 1081 4153 
L 1081 2816 
Q 1244 2928 1461 2984 
Q 1678 3041 1947 3041 
Q 2703 3041 3140 2622 
Q 3578 2203 3578 1478 
Q 3578 738 3136 323 
Q 2694 -91 1894 -91 
Q 1572 -91 1234 -12 
Q 897 66 544 225 
L 544 1131 
L 897 1131 
Q 925 688 1179 453 
Q 1434 219 1894 219 
Q 2388 219 2653 544 
Q 2919 869 2919 1478 
Q 2919 2084 2655 2407 
Q 2391 2731 1894 2731 
Q 1613 2731 1398 2631 
Q 1184 2531 1019 2322 
L 750 2322 
L 750 4666 
L 3219 4666 
z
" transform="scale(0.015625)"/>
        <path id="DejaVuSerif-30" d="M 2034 219 
Q 2513 219 2750 744 
Q 2988 1269 2988 2328 
Q 2988 3391 2750 3916 
Q 2513 4441 2034 4441 
Q 1556 4441 1318 3916 
Q 1081 3391 1081 2328 
Q 1081 1269 1318 744 
Q 1556 219 2034 219 
z
M 2034 -91 
Q 1275 -91 848 546 
Q 422 1184 422 2328 
Q 422 3475 848 4112 
Q 1275 4750 2034 4750 
Q 2797 4750 3222 4112 
Q 3647 3475 3647 2328 
Q 3647 1184 3222 546 
Q 2797 -91 2034 -91 
z
" transform="scale(0.015625)"/>
       </defs>
       <use xlink:href="#DejaVuSerif-2212"/>
       <use xlink:href="#DejaVuSerif-35" x="83.789062"/>
       <use xlink:href="#DejaVuSerif-30" x="147.412109"/>
      </g>
     </g>
    </g>
    <g id="ytick_2">
     <g id="line2d_19">
      <path d="M 38.204771 37.024661 
L 392.99976 37.024661 
" clip-path="url(#p569796bfba)" style="fill: none; stroke: #b0b0b0; stroke-width: 0.8; stroke-linecap: round"/>
     </g>
     <g id="line2d_20"/>
     <g id="text_2">
      <!-- 0 -->
      <g style="fill: #262626" transform="translate(28.978521 40.443958) scale(0.09 -0.09)">
       <use xlink:href="#DejaVuSerif-30"/>
      </g>
     </g>
    </g>
    <g id="ytick_3">
     <g id="line2d_21">
      <path d="M 38.204771 20.341224 
L 392.99976 20.341224 
" clip-path="url(#p569796bfba)" style="fill: none; stroke: #b0b0b0; stroke-width: 0.8; stroke-linecap: round"/>
     </g>
     <g id="line2d_22"/>
     <g id="text_3">
      <!-- 50 -->
      <g style="fill: #262626" transform="translate(23.252271 23.760521) scale(0.09 -0.09)">
       <use xlink:href="#DejaVuSerif-35"/>
       <use xlink:href="#DejaVuSerif-30" x="63.623047"/>
      </g>
     </g>
    </g>
    <g id="text_4">
     <!-- $N_H(v)$ -->
     <g style="fill: #262626" transform="translate(9.838834 47.462868) rotate(-90) scale(0.09 -0.09)">
      <defs>
       <path id="DejaVuSans-Oblique-4e" d="M 1081 4666 
L 1931 4666 
L 3219 666 
L 4000 4666 
L 4616 4666 
L 3706 0 
L 2853 0 
L 1569 4025 
L 788 0 
L 172 0 
L 1081 4666 
z
" transform="scale(0.015625)"/>
       <path id="DejaVuSans-Oblique-48" d="M 1081 4666 
L 1716 4666 
L 1344 2753 
L 3634 2753 
L 4006 4666 
L 4641 4666 
L 3731 0 
L 3097 0 
L 3531 2222 
L 1241 2222 
L 806 0 
L 172 0 
L 1081 4666 
z
" transform="scale(0.015625)"/>
       <path id="DejaVuSans-28" d="M 1984 4856 
Q 1566 4138 1362 3434 
Q 1159 2731 1159 2009 
Q 1159 1288 1364 580 
Q 1569 -128 1984 -844 
L 1484 -844 
Q 1016 -109 783 600 
Q 550 1309 550 2009 
Q 550 2706 781 3412 
Q 1013 4119 1484 4856 
L 1984 4856 
z
" transform="scale(0.015625)"/>
       <path id="DejaVuSans-Oblique-76" d="M 459 3500 
L 1069 3500 
L 1581 525 
L 3256 3500 
L 3866 3500 
L 1875 0 
L 1100 0 
L 459 3500 
z
" transform="scale(0.015625)"/>
       <path id="DejaVuSans-29" d="M 513 4856 
L 1013 4856 
Q 1481 4119 1714 3412 
Q 1947 2706 1947 2009 
Q 1947 1309 1714 600 
Q 1481 -109 1013 -844 
L 513 -844 
Q 928 -128 1133 580 
Q 1338 1288 1338 2009 
Q 1338 2731 1133 3434 
Q 928 4138 513 4856 
z
" transform="scale(0.015625)"/>
      </defs>
      <use xlink:href="#DejaVuSans-Oblique-4e" transform="translate(0 0.125)"/>
      <use xlink:href="#DejaVuSans-Oblique-48" transform="translate(74.804688 -16.28125) scale(0.7)"/>
      <use xlink:href="#DejaVuSans-28" transform="translate(130.175781 0.125)"/>
      <use xlink:href="#DejaVuSans-Oblique-76" transform="translate(169.189453 0.125)"/>
      <use xlink:href="#DejaVuSans-29" transform="translate(228.369141 0.125)"/>
     </g>
    </g>
   </g>
   <g id="line2d_23">
    <path d="M 54.331816 37.016005 
L 56.244759 37.093705 
L 57.597817 37.387854 
L 60.910475 38.461724 
L 65.062961 40.051456 
L 68.468934 41.268121 
L 71.921563 43.008535 
L 73.60122 43.410337 
L 75.187564 43.492677 
L 76.120707 43.83529 
L 79.526679 45.231873 
L 80.599793 45.425778 
L 81.906194 45.322154 
L 82.79268 45.646269 
L 83.959108 46.090798 
L 85.032223 46.300045 
L 87.551709 46.581595 
L 88.951424 46.379724 
L 90.16451 46.58692 
L 91.610881 46.712433 
L 92.823967 46.557283 
L 94.363653 46.049152 
L 96.323254 44.990131 
L 97.53634 44.644239 
L 99.076026 43.951257 
L 101.175598 42.578937 
L 102.94857 41.414606 
L 106.354542 39.804089 
L 112.793229 36.487814 
L 115.126087 35.6004 
L 119.511859 33.851482 
L 121.611431 33.14945 
L 122.684545 32.948585 
L 123.897631 32.787333 
L 125.017403 32.44434 
L 127.723518 31.623517 
L 129.49649 31.308608 
L 130.709576 31.200144 
L 131.876005 30.813314 
L 133.182405 30.395719 
L 134.815405 30.101101 
L 136.261777 29.948088 
L 137.428206 30.024995 
L 138.454663 29.747847 
L 140.507578 29.223501 
L 142.467178 28.946714 
L 143.400321 28.942186 
L 144.426779 29.066497 
L 145.313265 28.908036 
L 148.392637 28.206006 
L 150.212266 28.143654 
L 151.61198 28.428198 
L 152.59178 28.243277 
L 155.017952 27.733628 
L 157.117524 27.630625 
L 158.423925 27.91064 
L 159.263753 27.78818 
L 160.943411 27.481386 
L 162.203154 27.369082 
L 164.489354 27.566694 
L 165.329183 27.785196 
L 166.075698 27.737287 
L 169.388356 27.130358 
L 170.508127 27.204662 
L 171.11467 27.371181 
L 172.654356 28.054005 
L 177.226757 28.666566 
L 178.346529 29.188925 
L 179.419643 29.83831 
L 180.726044 30.284009 
L 181.705844 30.706498 
L 186.184931 33.128587 
L 189.170988 34.304422 
L 191.363875 35.359761 
L 195.143104 36.902032 
L 199.575534 38.359959 
L 201.44182 38.977166 
L 203.72802 39.74457 
L 205.874249 40.242673 
L 208.067135 40.632075 
L 210.866565 41.353711 
L 213.526022 41.774474 
L 214.319194 41.88967 
L 218.891595 42.867972 
L 220.104681 42.946424 
L 221.084481 42.941604 
L 222.110938 43.19907 
L 224.257168 43.78603 
L 226.729997 43.996049 
L 228.362997 43.885298 
L 229.576083 44.192585 
L 231.25574 44.568004 
L 233.588598 44.794319 
L 235.501541 44.574858 
L 239.234114 45.240345 
L 241.053743 45.148215 
L 242.0802 44.975958 
L 242.826714 45.111802 
L 244.3664 45.430089 
L 247.119172 45.614386 
L 248.052316 45.425022 
L 248.845487 45.289712 
L 249.638659 45.350203 
L 250.525145 45.565249 
L 252.951317 45.906629 
L 254.86426 45.745446 
L 255.750746 45.462712 
L 256.683889 45.433049 
L 257.850318 45.461863 
L 260.556433 44.986696 
L 261.769519 44.552535 
L 262.88929 44.042171 
L 264.149033 43.733229 
L 265.128834 43.471357 
L 266.435234 42.800527 
L 269.561263 41.045588 
L 270.447749 40.738199 
L 272.827264 40.009529 
L 274.646893 39.193086 
L 278.659408 37.504057 
L 283.091837 36.145024 
L 285.144752 35.496465 
L 287.850867 34.578681 
L 289.577182 34.170206 
L 291.116868 34.012007 
L 292.88984 33.485929 
L 294.336211 33.127406 
L 296.249155 32.762029 
L 297.928812 32.606343 
L 299.141898 32.264687 
L 301.194813 31.727313 
L 302.687842 31.519979 
L 303.900928 31.507835 
L 304.694099 31.503655 
L 305.720557 31.319678 
L 308.193386 30.634654 
L 310.479586 30.40203 
L 312.299215 30.540604 
L 312.999073 30.302413 
L 314.35213 29.855876 
L 316.265073 29.653847 
L 317.664788 29.755718 
L 318.551274 29.804001 
L 319.717703 29.552265 
L 321.537332 29.17451 
L 324.476732 29.172737 
L 325.409875 29.317536 
L 326.576304 29.059846 
L 328.069333 28.763434 
L 331.195362 28.608803 
L 332.828363 28.914612 
L 333.994791 28.685185 
L 335.954392 28.33192 
L 336.980849 28.373844 
L 338.847135 28.633302 
L 339.500335 28.761484 
L 340.293507 28.646897 
L 341.599907 28.287989 
L 342.812993 28.252431 
L 343.746136 28.38872 
L 345.65908 29.057741 
L 346.498908 29.382739 
L 347.385394 29.50154 
L 348.551823 29.60496 
L 350.464766 30.048828 
L 351.911138 30.755225 
L 354.290653 32.130438 
L 358.303168 33.690054 
L 360.309426 34.550561 
L 364.321941 36.209491 
L 366.328198 36.929129 
L 370.853942 38.349537 
L 373.979972 39.201173 
L 375.706286 39.699279 
L 376.872715 40.056369 
L 376.872715 40.056369 
" clip-path="url(#p569796bfba)" style="fill: none; stroke: #0000ff; stroke-width: 0.75; stroke-linecap: round"/>
   </g>
   <g id="line2d_24">
    <path d="M 54.331816 37.017185 
L 56.338074 37.095805 
L 57.831103 37.398281 
L 61.470361 38.477233 
L 63.896533 39.299471 
L 68.375619 40.64633 
L 71.921563 42.193022 
L 73.647878 42.539631 
L 75.094249 42.590558 
L 76.260678 42.962318 
L 78.966793 43.953912 
L 80.553136 44.286036 
L 82.046165 44.220904 
L 83.912451 44.841635 
L 84.938909 45.02677 
L 87.738338 45.23665 
L 88.811452 45.096003 
L 90.304481 45.301148 
L 91.610881 45.392134 
L 92.917282 45.235765 
L 94.596939 44.685617 
L 95.856682 44.010325 
L 98.889397 43.099616 
L 101.175598 41.821972 
L 102.995227 40.798686 
L 105.934627 39.614978 
L 113.633058 36.270549 
L 119.65183 34.237668 
L 121.891374 33.609462 
L 122.731203 33.502372 
L 123.944289 33.356428 
L 125.623946 32.888216 
L 128.050118 32.298614 
L 129.636461 32.087109 
L 130.80289 31.975262 
L 131.922662 31.643385 
L 133.462348 31.244166 
L 136.308434 30.91864 
L 137.381549 30.985127 
L 138.50132 30.727039 
L 140.880835 30.222513 
L 142.887093 30.000368 
L 143.540293 30.072407 
L 144.426779 30.151077 
L 145.406579 29.991318 
L 148.206008 29.420635 
L 150.258923 29.365331 
L 151.798609 29.583688 
L 152.965038 29.353341 
L 154.877981 29.014558 
L 157.210839 28.935999 
L 158.517239 29.150866 
L 159.870296 28.943723 
L 162.43644 28.689445 
L 164.209412 28.770512 
L 165.609126 29.052607 
L 166.402298 28.938696 
L 168.315241 28.553145 
L 169.714956 28.483184 
L 171.11467 28.686807 
L 172.654356 29.276572 
L 177.273414 29.82044 
L 178.206557 30.171793 
L 179.512958 30.852618 
L 180.772701 31.215535 
L 181.845815 31.636593 
L 186.371559 33.715937 
L 188.937703 34.570365 
L 192.950218 36.204027 
L 196.216219 37.232153 
L 206.014221 39.817942 
L 207.693878 40.043047 
L 212.872822 41.133632 
L 214.645794 41.298446 
L 218.798281 42.057708 
L 220.104681 42.139375 
L 221.131138 42.141061 
L 222.437539 42.449806 
L 223.977225 42.826807 
L 225.656882 42.9971 
L 227.33654 42.946767 
L 228.223026 42.929101 
L 229.576083 43.215703 
L 231.349055 43.550769 
L 233.915198 43.671839 
L 235.268256 43.512449 
L 236.34137 43.732983 
L 238.067685 44.049575 
L 240.213914 44.158647 
L 240.913771 44.081152 
L 241.986886 43.888658 
L 242.920029 44.033713 
L 243.993143 44.251808 
L 247.352458 44.437359 
L 248.14563 44.254712 
L 249.032116 44.16409 
L 250.011916 44.282486 
L 252.064831 44.662712 
L 254.491003 44.664339 
L 256.590575 44.281656 
L 258.270232 44.262791 
L 261.349604 43.705324 
L 262.282747 43.299817 
L 263.589148 42.925156 
L 265.502091 42.454006 
L 266.715177 41.86499 
L 268.348177 41.11689 
L 270.774349 40.161941 
L 272.593978 39.677155 
L 274.786864 38.842963 
L 278.752722 37.411961 
L 289.343896 34.578285 
L 292.283297 34.128809 
L 294.709469 33.576937 
L 296.295812 33.341716 
L 298.068784 33.182994 
L 299.60847 32.796176 
L 301.754699 32.368023 
L 303.854271 32.255188 
L 304.834071 32.246233 
L 305.907185 32.039137 
L 307.866786 31.555955 
L 310.386272 31.295008 
L 312.532501 31.372258 
L 315.191959 30.742836 
L 317.338188 30.678859 
L 318.504617 30.791516 
L 319.531074 30.60951 
L 322.05056 30.233711 
L 323.310303 30.128717 
L 324.290104 30.192797 
L 325.363218 30.371193 
L 326.389675 30.19159 
L 327.976019 29.898317 
L 331.055391 29.741311 
L 331.615277 29.876499 
L 332.501763 30.038883 
L 333.341591 29.938767 
L 336.234335 29.507202 
L 338.380564 29.636548 
L 339.686964 29.885147 
L 340.57345 29.702362 
L 341.87985 29.464978 
L 343.419536 29.495639 
L 345.33248 29.989821 
L 346.685537 30.459461 
L 347.94528 30.558928 
L 349.624938 30.775486 
L 350.698052 31.085555 
L 352.284395 31.838888 
L 353.637453 32.554836 
L 355.737025 33.262838 
L 367.634599 37.244129 
L 370.434028 38.053551 
L 373.653371 38.854037 
L 374.959772 39.14467 
L 376.872715 39.643192 
L 376.872715 39.643192 
" clip-path="url(#p569796bfba)" style="fill: none; stroke: #008000; stroke-width: 0.75; stroke-linecap: round"/>
   </g>
   <g id="line2d_25">
    <path d="M 54.331816 37.023574 
L 58.950874 37.124881 
L 87.738338 38.218158 
L 90.537767 38.23176 
L 94.037053 38.173845 
L 99.076026 37.894148 
L 113.773029 36.90871 
L 129.963061 36.306076 
L 135.002034 36.151642 
L 150.072294 35.906359 
L 154.224781 35.873119 
L 158.283953 35.880715 
L 167.288784 35.817055 
L 171.254642 35.822933 
L 173.587499 35.904618 
L 178.253215 36.032892 
L 182.872273 36.31822 
L 188.564445 36.643841 
L 198.595733 37.157767 
L 212.499565 37.615758 
L 220.104681 37.768013 
L 222.997424 37.836523 
L 227.149911 37.890008 
L 229.902683 37.935556 
L 234.288455 37.978702 
L 236.901256 38.01857 
L 240.680485 38.058151 
L 244.086458 38.07641 
L 255.050889 38.110025 
L 257.570375 38.085144 
L 261.629547 37.979288 
L 265.362119 37.82148 
L 282.531952 36.93196 
L 304.880728 36.329534 
L 344.399337 35.960663 
L 352.657653 36.305161 
L 355.923653 36.4872 
L 376.872715 37.405228 
L 376.872715 37.405228 
" clip-path="url(#p569796bfba)" style="fill: none; stroke: #ff0000; stroke-width: 0.75; stroke-linecap: round"/>
   </g>
   <g id="patch_3">
    <path d="M 38.204771 55.878934 
L 38.204771 14.926802 
" style="fill: none; stroke: #000000; stroke-linejoin: miter; stroke-linecap: square"/>
   </g>
   <g id="patch_4">
    <path d="M 38.204771 55.878934 
L 392.99976 55.878934 
" style="fill: none; stroke: #000000; stroke-linejoin: miter; stroke-linecap: square"/>
   </g>
   <g id="legend_1">
    <g id="line2d_26">
     <path d="M 92.528672 10.334542 
L 101.528672 10.334542 
L 110.528672 10.334542 
" style="fill: none; stroke: #0000ff; stroke-width: 0.75; stroke-linecap: round"/>
    </g>
    <g id="text_5">
     <!-- Reference -->
     <g style="fill: #262626" transform="translate(117.728672 13.484542) scale(0.09 -0.09)">
      <defs>
       <path id="DejaVuSerif-52" d="M 3066 2316 
Q 3284 2256 3442 2114 
Q 3600 1972 3725 1716 
L 4403 331 
L 4972 331 
L 4972 0 
L 3872 0 
L 3144 1484 
Q 2934 1916 2759 2042 
Q 2584 2169 2278 2169 
L 1581 2169 
L 1581 331 
L 2241 331 
L 2241 0 
L 353 0 
L 353 331 
L 947 331 
L 947 4331 
L 353 4331 
L 353 4666 
L 2719 4666 
Q 3400 4666 3770 4341 
Q 4141 4016 4141 3419 
Q 4141 2938 3870 2661 
Q 3600 2384 3066 2316 
z
M 1581 2503 
L 2503 2503 
Q 2975 2503 3200 2726 
Q 3425 2950 3425 3419 
Q 3425 3888 3200 4109 
Q 2975 4331 2503 4331 
L 1581 4331 
L 1581 2503 
z
" transform="scale(0.015625)"/>
       <path id="DejaVuSerif-65" d="M 3469 1600 
L 991 1600 
L 991 1575 
Q 991 903 1244 561 
Q 1497 219 1991 219 
Q 2369 219 2611 417 
Q 2853 616 2950 1006 
L 3413 1006 
Q 3275 459 2904 184 
Q 2534 -91 1931 -91 
Q 1203 -91 761 389 
Q 319 869 319 1663 
Q 319 2450 753 2931 
Q 1188 3413 1894 3413 
Q 2647 3413 3050 2948 
Q 3453 2484 3469 1600 
z
M 2791 1931 
Q 2772 2513 2545 2808 
Q 2319 3103 1894 3103 
Q 1497 3103 1269 2806 
Q 1041 2509 991 1931 
L 2791 1931 
z
" transform="scale(0.015625)"/>
       <path id="DejaVuSerif-66" d="M 2753 4078 
L 2450 4078 
Q 2447 4313 2317 4434 
Q 2188 4556 1941 4556 
Q 1619 4556 1487 4379 
Q 1356 4203 1356 3750 
L 1356 3322 
L 2284 3322 
L 2284 2988 
L 1356 2988 
L 1356 331 
L 2094 331 
L 2094 0 
L 231 0 
L 231 331 
L 781 331 
L 781 2988 
L 231 2988 
L 231 3322 
L 781 3322 
L 781 3738 
Q 781 4294 1070 4578 
Q 1359 4863 1919 4863 
Q 2128 4863 2337 4825 
Q 2547 4788 2753 4709 
L 2753 4078 
z
" transform="scale(0.015625)"/>
       <path id="DejaVuSerif-72" d="M 3059 3328 
L 3059 2497 
L 2728 2497 
Q 2713 2744 2591 2866 
Q 2469 2988 2234 2988 
Q 1809 2988 1582 2694 
Q 1356 2400 1356 1850 
L 1356 331 
L 2022 331 
L 2022 0 
L 263 0 
L 263 331 
L 781 331 
L 781 2994 
L 231 2994 
L 231 3322 
L 1356 3322 
L 1356 2731 
Q 1525 3078 1790 3245 
Q 2056 3413 2438 3413 
Q 2578 3413 2733 3391 
Q 2888 3369 3059 3328 
z
" transform="scale(0.015625)"/>
       <path id="DejaVuSerif-6e" d="M 263 0 
L 263 331 
L 781 331 
L 781 2988 
L 231 2988 
L 231 3322 
L 1356 3322 
L 1356 2731 
Q 1516 3069 1770 3241 
Q 2025 3413 2363 3413 
Q 2913 3413 3172 3097 
Q 3431 2781 3431 2113 
L 3431 331 
L 3944 331 
L 3944 0 
L 2356 0 
L 2356 331 
L 2853 331 
L 2853 1931 
Q 2853 2541 2703 2767 
Q 2553 2994 2175 2994 
Q 1775 2994 1565 2701 
Q 1356 2409 1356 1850 
L 1356 331 
L 1856 331 
L 1856 0 
L 263 0 
z
" transform="scale(0.015625)"/>
       <path id="DejaVuSerif-63" d="M 3291 997 
Q 3169 466 2822 187 
Q 2475 -91 1925 -91 
Q 1200 -91 759 389 
Q 319 869 319 1663 
Q 319 2459 759 2936 
Q 1200 3413 1925 3413 
Q 2241 3413 2553 3339 
Q 2866 3266 3181 3116 
L 3181 2266 
L 2847 2266 
Q 2781 2703 2561 2903 
Q 2341 3103 1931 3103 
Q 1466 3103 1228 2742 
Q 991 2381 991 1663 
Q 991 944 1227 581 
Q 1463 219 1931 219 
Q 2303 219 2525 412 
Q 2747 606 2828 997 
L 3291 997 
z
" transform="scale(0.015625)"/>
      </defs>
      <use xlink:href="#DejaVuSerif-52"/>
      <use xlink:href="#DejaVuSerif-65" x="75.292969"/>
      <use xlink:href="#DejaVuSerif-66" x="134.472656"/>
      <use xlink:href="#DejaVuSerif-65" x="171.484375"/>
      <use xlink:href="#DejaVuSerif-72" x="230.664062"/>
      <use xlink:href="#DejaVuSerif-65" x="278.466797"/>
      <use xlink:href="#DejaVuSerif-6e" x="337.646484"/>
      <use xlink:href="#DejaVuSerif-63" x="402.050781"/>
      <use xlink:href="#DejaVuSerif-65" x="458.056641"/>
     </g>
    </g>
    <g id="line2d_27">
     <path d="M 182.282578 10.334542 
L 191.282578 10.334542 
L 200.282578 10.334542 
" style="fill: none; stroke: #008000; stroke-width: 0.75; stroke-linecap: round"/>
    </g>
    <g id="text_6">
     <!-- PISM -->
     <g style="fill: #262626" transform="translate(207.482578 13.484542) scale(0.09 -0.09)">
      <defs>
       <path id="DejaVuSerif-50" d="M 1581 2375 
L 2406 2375 
Q 2872 2375 3115 2626 
Q 3359 2878 3359 3353 
Q 3359 3831 3115 4081 
Q 2872 4331 2406 4331 
L 1581 4331 
L 1581 2375 
z
M 353 0 
L 353 331 
L 947 331 
L 947 4331 
L 353 4331 
L 353 4666 
L 2559 4666 
Q 3259 4666 3668 4311 
Q 4078 3956 4078 3353 
Q 4078 2753 3668 2397 
Q 3259 2041 2559 2041 
L 1581 2041 
L 1581 331 
L 2303 331 
L 2303 0 
L 353 0 
z
" transform="scale(0.015625)"/>
       <path id="DejaVuSerif-49" d="M 1581 331 
L 2175 331 
L 2175 0 
L 353 0 
L 353 331 
L 947 331 
L 947 4331 
L 353 4331 
L 353 4666 
L 2175 4666 
L 2175 4331 
L 1581 4331 
L 1581 331 
z
" transform="scale(0.015625)"/>
       <path id="DejaVuSerif-53" d="M 594 225 
L 594 1288 
L 953 1284 
Q 969 753 1261 498 
Q 1553 244 2150 244 
Q 2706 244 2998 464 
Q 3291 684 3291 1106 
Q 3291 1444 3114 1625 
Q 2938 1806 2369 1978 
L 1753 2163 
Q 1084 2366 811 2669 
Q 538 2972 538 3500 
Q 538 4094 959 4422 
Q 1381 4750 2144 4750 
Q 2469 4750 2856 4679 
Q 3244 4609 3681 4475 
L 3681 3481 
L 3328 3481 
Q 3275 3975 2998 4195 
Q 2722 4416 2156 4416 
Q 1663 4416 1405 4214 
Q 1147 4013 1147 3628 
Q 1147 3294 1340 3103 
Q 1534 2913 2163 2725 
L 2741 2553 
Q 3375 2363 3645 2067 
Q 3916 1772 3916 1275 
Q 3916 597 3481 253 
Q 3047 -91 2188 -91 
Q 1803 -91 1404 -12 
Q 1006 66 594 225 
z
" transform="scale(0.015625)"/>
       <path id="DejaVuSerif-4d" d="M 353 0 
L 353 331 
L 947 331 
L 947 4331 
L 319 4331 
L 319 4666 
L 1678 4666 
L 3316 1344 
L 4953 4666 
L 6228 4666 
L 6228 4331 
L 5606 4331 
L 5606 331 
L 6203 331 
L 6203 0 
L 4378 0 
L 4378 331 
L 4972 331 
L 4972 3938 
L 3372 684 
L 2931 684 
L 1331 3938 
L 1331 331 
L 1925 331 
L 1925 0 
L 353 0 
z
" transform="scale(0.015625)"/>
      </defs>
      <use xlink:href="#DejaVuSerif-50"/>
      <use xlink:href="#DejaVuSerif-49" x="67.285156"/>
      <use xlink:href="#DejaVuSerif-53" x="106.787109"/>
      <use xlink:href="#DejaVuSerif-4d" x="175.292969"/>
     </g>
    </g>
    <g id="line2d_28">
     <path d="M 250.473047 10.334542 
L 259.473047 10.334542 
L 268.473047 10.334542 
" style="fill: none; stroke: #ff0000; stroke-width: 0.75; stroke-linecap: round"/>
    </g>
    <g id="text_7">
     <!-- Mathematical -->
     <g style="fill: #262626" transform="translate(275.673047 13.484542) scale(0.09 -0.09)">
      <defs>
       <path id="DejaVuSerif-61" d="M 2547 1044 
L 2547 1747 
L 1806 1747 
Q 1378 1747 1168 1562 
Q 959 1378 959 997 
Q 959 650 1171 447 
Q 1384 244 1747 244 
Q 2106 244 2326 466 
Q 2547 688 2547 1044 
z
M 3122 2075 
L 3122 331 
L 3634 331 
L 3634 0 
L 2547 0 
L 2547 359 
Q 2356 128 2106 18 
Q 1856 -91 1522 -91 
Q 969 -91 644 203 
Q 319 497 319 997 
Q 319 1513 691 1797 
Q 1063 2081 1741 2081 
L 2547 2081 
L 2547 2309 
Q 2547 2688 2317 2895 
Q 2088 3103 1672 3103 
Q 1328 3103 1125 2947 
Q 922 2791 872 2484 
L 575 2484 
L 575 3156 
Q 875 3284 1158 3348 
Q 1441 3413 1709 3413 
Q 2400 3413 2761 3070 
Q 3122 2728 3122 2075 
z
" transform="scale(0.015625)"/>
       <path id="DejaVuSerif-74" d="M 691 2988 
L 184 2988 
L 184 3322 
L 691 3322 
L 691 4353 
L 1269 4353 
L 1269 3322 
L 2350 3322 
L 2350 2988 
L 1269 2988 
L 1269 878 
Q 1269 456 1350 337 
Q 1431 219 1650 219 
Q 1875 219 1978 351 
Q 2081 484 2088 781 
L 2522 781 
Q 2497 328 2275 118 
Q 2053 -91 1600 -91 
Q 1103 -91 897 129 
Q 691 350 691 878 
L 691 2988 
z
" transform="scale(0.015625)"/>
       <path id="DejaVuSerif-68" d="M 263 0 
L 263 331 
L 781 331 
L 781 4531 
L 231 4531 
L 231 4863 
L 1356 4863 
L 1356 2731 
Q 1516 3069 1770 3241 
Q 2025 3413 2363 3413 
Q 2913 3413 3172 3097 
Q 3431 2781 3431 2113 
L 3431 331 
L 3944 331 
L 3944 0 
L 2356 0 
L 2356 331 
L 2853 331 
L 2853 1931 
Q 2853 2541 2704 2764 
Q 2556 2988 2175 2988 
Q 1775 2988 1565 2697 
Q 1356 2406 1356 1850 
L 1356 331 
L 1856 331 
L 1856 0 
L 263 0 
z
" transform="scale(0.015625)"/>
       <path id="DejaVuSerif-6d" d="M 3316 2675 
Q 3481 3041 3739 3227 
Q 3997 3413 4341 3413 
Q 4863 3413 5119 3089 
Q 5375 2766 5375 2113 
L 5375 331 
L 5894 331 
L 5894 0 
L 4300 0 
L 4300 331 
L 4800 331 
L 4800 2047 
Q 4800 2556 4650 2772 
Q 4500 2988 4153 2988 
Q 3769 2988 3567 2697 
Q 3366 2406 3366 1850 
L 3366 331 
L 3866 331 
L 3866 0 
L 2291 0 
L 2291 331 
L 2791 331 
L 2791 2069 
Q 2791 2566 2641 2777 
Q 2491 2988 2144 2988 
Q 1759 2988 1557 2697 
Q 1356 2406 1356 1850 
L 1356 331 
L 1856 331 
L 1856 0 
L 263 0 
L 263 331 
L 781 331 
L 781 2994 
L 231 2994 
L 231 3322 
L 1356 3322 
L 1356 2731 
Q 1516 3063 1762 3238 
Q 2009 3413 2322 3413 
Q 2709 3413 2968 3220 
Q 3228 3028 3316 2675 
z
" transform="scale(0.015625)"/>
       <path id="DejaVuSerif-69" d="M 622 4353 
Q 622 4497 726 4603 
Q 831 4709 978 4709 
Q 1122 4709 1226 4603 
Q 1331 4497 1331 4353 
Q 1331 4206 1228 4103 
Q 1125 4000 978 4000 
Q 831 4000 726 4103 
Q 622 4206 622 4353 
z
M 1356 331 
L 1900 331 
L 1900 0 
L 231 0 
L 231 331 
L 781 331 
L 781 2988 
L 231 2988 
L 231 3322 
L 1356 3322 
L 1356 331 
z
" transform="scale(0.015625)"/>
       <path id="DejaVuSerif-6c" d="M 1313 331 
L 1856 331 
L 1856 0 
L 184 0 
L 184 331 
L 738 331 
L 738 4531 
L 184 4531 
L 184 4863 
L 1313 4863 
L 1313 331 
z
" transform="scale(0.015625)"/>
      </defs>
      <use xlink:href="#DejaVuSerif-4d"/>
      <use xlink:href="#DejaVuSerif-61" x="102.392578"/>
      <use xlink:href="#DejaVuSerif-74" x="162.011719"/>
      <use xlink:href="#DejaVuSerif-68" x="202.197266"/>
      <use xlink:href="#DejaVuSerif-65" x="266.601562"/>
      <use xlink:href="#DejaVuSerif-6d" x="325.78125"/>
      <use xlink:href="#DejaVuSerif-61" x="420.605469"/>
      <use xlink:href="#DejaVuSerif-74" x="480.224609"/>
      <use xlink:href="#DejaVuSerif-69" x="520.410156"/>
      <use xlink:href="#DejaVuSerif-63" x="552.392578"/>
      <use xlink:href="#DejaVuSerif-61" x="608.398438"/>
      <use xlink:href="#DejaVuSerif-6c" x="668.017578"/>
     </g>
    </g>
   </g>
  </g>
  <g id="axes_2">
   <g id="patch_5">
    <path d="M 38.204771 105.945668 
L 392.99976 105.945668 
L 392.99976 64.993535 
L 38.204771 64.993535 
z
" style="fill: #ffffff"/>
   </g>
   <g id="matplotlib.axis_3">
    <g id="xtick_9">
     <g id="line2d_29">
      <path d="M 54.331816 105.945668 
L 54.331816 64.993535 
" clip-path="url(#pa32d9e8fc1)" style="fill: none; stroke: #b0b0b0; stroke-width: 0.8; stroke-linecap: round"/>
     </g>
     <g id="line2d_30"/>
    </g>
    <g id="xtick_10">
     <g id="line2d_31">
      <path d="M 101.303681 105.945668 
L 101.303681 64.993535 
" clip-path="url(#pa32d9e8fc1)" style="fill: none; stroke: #b0b0b0; stroke-width: 0.8; stroke-linecap: round"/>
     </g>
     <g id="line2d_32"/>
    </g>
    <g id="xtick_11">
     <g id="line2d_33">
      <path d="M 148.275545 105.945668 
L 148.275545 64.993535 
" clip-path="url(#pa32d9e8fc1)" style="fill: none; stroke: #b0b0b0; stroke-width: 0.8; stroke-linecap: round"/>
     </g>
     <g id="line2d_34"/>
    </g>
    <g id="xtick_12">
     <g id="line2d_35">
      <path d="M 195.24741 105.945668 
L 195.24741 64.993535 
" clip-path="url(#pa32d9e8fc1)" style="fill: none; stroke: #b0b0b0; stroke-width: 0.8; stroke-linecap: round"/>
     </g>
     <g id="line2d_36"/>
    </g>
    <g id="xtick_13">
     <g id="line2d_37">
      <path d="M 242.219274 105.945668 
L 242.219274 64.993535 
" clip-path="url(#pa32d9e8fc1)" style="fill: none; stroke: #b0b0b0; stroke-width: 0.8; stroke-linecap: round"/>
     </g>
     <g id="line2d_38"/>
    </g>
    <g id="xtick_14">
     <g id="line2d_39">
      <path d="M 289.191139 105.945668 
L 289.191139 64.993535 
" clip-path="url(#pa32d9e8fc1)" style="fill: none; stroke: #b0b0b0; stroke-width: 0.8; stroke-linecap: round"/>
     </g>
     <g id="line2d_40"/>
    </g>
    <g id="xtick_15">
     <g id="line2d_41">
      <path d="M 336.163003 105.945668 
L 336.163003 64.993535 
" clip-path="url(#pa32d9e8fc1)" style="fill: none; stroke: #b0b0b0; stroke-width: 0.8; stroke-linecap: round"/>
     </g>
     <g id="line2d_42"/>
    </g>
    <g id="xtick_16">
     <g id="line2d_43">
      <path d="M 383.134868 105.945668 
L 383.134868 64.993535 
" clip-path="url(#pa32d9e8fc1)" style="fill: none; stroke: #b0b0b0; stroke-width: 0.8; stroke-linecap: round"/>
     </g>
     <g id="line2d_44"/>
    </g>
   </g>
   <g id="matplotlib.axis_4">
    <g id="ytick_4">
     <g id="line2d_45">
      <path d="M 38.204771 103.774831 
L 392.99976 103.774831 
" clip-path="url(#pa32d9e8fc1)" style="fill: none; stroke: #b0b0b0; stroke-width: 0.8; stroke-linecap: round"/>
     </g>
     <g id="line2d_46"/>
     <g id="text_8">
      <!-- −50 -->
      <g style="fill: #262626" transform="translate(15.710552 107.194127) scale(0.09 -0.09)">
       <use xlink:href="#DejaVuSerif-2212"/>
       <use xlink:href="#DejaVuSerif-35" x="83.789062"/>
       <use xlink:href="#DejaVuSerif-30" x="147.412109"/>
      </g>
     </g>
    </g>
    <g id="ytick_5">
     <g id="line2d_47">
      <path d="M 38.204771 87.091394 
L 392.99976 87.091394 
" clip-path="url(#pa32d9e8fc1)" style="fill: none; stroke: #b0b0b0; stroke-width: 0.8; stroke-linecap: round"/>
     </g>
     <g id="line2d_48"/>
     <g id="text_9">
      <!-- 0 -->
      <g style="fill: #262626" transform="translate(28.978521 90.510691) scale(0.09 -0.09)">
       <use xlink:href="#DejaVuSerif-30"/>
      </g>
     </g>
    </g>
    <g id="ytick_6">
     <g id="line2d_49">
      <path d="M 38.204771 70.407958 
L 392.99976 70.407958 
" clip-path="url(#pa32d9e8fc1)" style="fill: none; stroke: #b0b0b0; stroke-width: 0.8; stroke-linecap: round"/>
     </g>
     <g id="line2d_50"/>
     <g id="text_10">
      <!-- 50 -->
      <g style="fill: #262626" transform="translate(23.252271 73.827255) scale(0.09 -0.09)">
       <use xlink:href="#DejaVuSerif-35"/>
       <use xlink:href="#DejaVuSerif-30" x="63.623047"/>
      </g>
     </g>
    </g>
    <g id="text_11">
     <!-- $N_H(r)$ -->
     <g style="fill: #262626" transform="translate(9.838834 96.719602) rotate(-90) scale(0.09 -0.09)">
      <defs>
       <path id="DejaVuSans-Oblique-72" d="M 2853 2969 
Q 2766 3016 2653 3041 
Q 2541 3066 2413 3066 
Q 1953 3066 1609 2717 
Q 1266 2369 1153 1784 
L 800 0 
L 225 0 
L 909 3500 
L 1484 3500 
L 1375 2956 
Q 1603 3259 1920 3421 
Q 2238 3584 2597 3584 
Q 2691 3584 2781 3573 
Q 2872 3563 2963 3538 
L 2853 2969 
z
" transform="scale(0.015625)"/>
      </defs>
      <use xlink:href="#DejaVuSans-Oblique-4e" transform="translate(0 0.125)"/>
      <use xlink:href="#DejaVuSans-Oblique-48" transform="translate(74.804688 -16.28125) scale(0.7)"/>
      <use xlink:href="#DejaVuSans-28" transform="translate(130.175781 0.125)"/>
      <use xlink:href="#DejaVuSans-Oblique-72" transform="translate(169.189453 0.125)"/>
      <use xlink:href="#DejaVuSans-29" transform="translate(210.302734 0.125)"/>
     </g>
    </g>
   </g>
   <g id="line2d_51">
    <path d="M 54.331816 87.261507 
L 55.171645 87.154295 
L 56.058131 86.817045 
L 57.55116 85.95617 
L 59.324132 84.594152 
L 60.117303 84.023513 
L 61.237075 83.06686 
L 62.683447 81.755601 
L 64.456418 80.457799 
L 65.809476 79.667596 
L 66.695962 79.38816 
L 67.395819 79.379964 
L 68.142333 79.033851 
L 69.68202 78.065184 
L 70.381877 77.798082 
L 71.408334 77.56691 
L 73.227963 77.180819 
L 73.507906 77.20574 
L 74.394392 77.463157 
L 75.094249 77.254165 
L 76.260678 76.79393 
L 77.473764 76.488123 
L 80.31985 76.28177 
L 81.532936 76.914104 
L 82.092822 76.724618 
L 83.352565 76.230089 
L 84.379023 76.136457 
L 86.898509 76.075427 
L 87.365081 76.130742 
L 88.718138 76.808518 
L 90.444453 77.253089 
L 91.750853 78.136337 
L 94.736911 81.193336 
L 95.670054 82.282438 
L 97.256397 83.903595 
L 99.262655 86.330251 
L 101.035626 88.329545 
L 102.29537 89.232937 
L 104.25497 90.567073 
L 105.421399 91.220288 
L 106.821113 91.858806 
L 108.360799 92.379558 
L 109.3406 92.4768 
L 110.087114 92.818427 
L 110.833629 93.148803 
L 111.860086 93.491118 
L 115.312715 94.254794 
L 116.479144 94.137709 
L 117.598916 94.536979 
L 118.578716 94.820755 
L 122.217974 95.167889 
L 123.244431 94.824305 
L 123.850974 94.978133 
L 125.250689 95.407611 
L 126.230489 95.527623 
L 129.123232 95.665806 
L 130.056376 95.309189 
L 130.522947 95.355325 
L 132.669176 95.960641 
L 134.955377 96.03661 
L 136.355091 95.911119 
L 136.961634 95.669598 
L 137.474863 95.709644 
L 138.268034 95.952419 
L 140.834178 96.206402 
L 141.907292 96.19814 
L 143.400321 96.015103 
L 143.960207 95.771817 
L 144.426779 95.801381 
L 146.479693 96.335211 
L 147.459494 96.321556 
L 149.465751 96.268333 
L 150.072294 96.204889 
L 151.378694 95.732537 
L 154.73801 96.257132 
L 156.137724 96.22107 
L 157.117524 96.109704 
L 158.050667 95.680172 
L 158.610553 95.755571 
L 160.616811 96.097489 
L 162.949668 95.996273 
L 164.209412 95.771727 
L 164.909269 95.473883 
L 165.70244 95.501231 
L 167.148812 95.820307 
L 168.595184 95.778162 
L 170.834727 95.498509 
L 171.347956 95.037836 
L 171.954499 94.582895 
L 172.654356 94.345728 
L 173.494185 94.0719 
L 174.940557 93.152918 
L 176.620214 91.812339 
L 178.579815 89.946115 
L 180.072844 88.645165 
L 181.985787 86.85349 
L 182.965587 86.011644 
L 184.87853 84.833689 
L 185.904988 84.49634 
L 187.398017 83.673666 
L 188.611103 83.172192 
L 192.297018 82.34414 
L 192.903561 82.313638 
L 193.790047 81.98218 
L 195.889618 81.279932 
L 198.269133 80.875254 
L 199.155619 80.925331 
L 199.762162 80.93896 
L 200.741962 80.711422 
L 202.981506 80.242385 
L 205.361021 80.101666 
L 205.920906 80.184591 
L 206.760735 80.40186 
L 207.413935 80.238707 
L 209.933422 79.782092 
L 210.586622 79.774881 
L 212.359593 79.605125 
L 212.826165 79.681731 
L 213.526022 79.958139 
L 213.992594 79.929232 
L 217.071966 79.323621 
L 218.704966 79.257977 
L 219.731424 79.260801 
L 220.431281 79.566017 
L 220.94451 79.549957 
L 222.90411 79.031458 
L 224.677082 78.967586 
L 225.330282 78.979366 
L 226.076796 79.008562 
L 226.963282 79.160529 
L 227.616483 79.326392 
L 228.129711 79.208913 
L 229.436111 78.872818 
L 231.349055 78.837263 
L 232.748769 78.811823 
L 233.495284 78.822598 
L 235.03497 79.287745 
L 235.874799 79.053395 
L 237.041227 78.844585 
L 240.353885 78.842701 
L 240.727143 78.975411 
L 241.566971 79.30235 
L 242.126857 79.241808 
L 243.526572 78.909265 
L 245.346201 78.857344 
L 246.232687 78.867318 
L 247.49243 79.004985 
L 248.425573 79.363065 
L 249.078773 79.326205 
L 251.271659 78.905113 
L 252.718031 78.92776 
L 253.697831 78.990232 
L 254.817603 79.255776 
L 255.51746 79.632766 
L 258.036946 80.329434 
L 261.302947 82.588501 
L 264.242348 85.043647 
L 265.735377 86.439358 
L 266.99512 87.5222 
L 268.394834 88.573688 
L 273.900378 90.906397 
L 275.720007 91.366023 
L 276.419865 91.357261 
L 277.306351 91.598438 
L 278.519436 92.025633 
L 280.245751 92.436535 
L 282.06538 92.836152 
L 282.71858 92.76186 
L 283.418438 92.712236 
L 283.978323 92.896729 
L 285.238067 93.259595 
L 287.057695 93.474754 
L 289.250582 93.635291 
L 290.790268 93.422744 
L 293.21644 93.858584 
L 296.249155 94.058368 
L 297.088983 93.831767 
L 297.835498 93.843244 
L 298.908612 94.15453 
L 299.561812 94.308758 
L 303.247728 94.51148 
L 304.600785 94.255905 
L 305.860528 94.514589 
L 306.513728 94.716877 
L 308.240043 94.803336 
L 309.313157 94.781924 
L 310.432929 94.759862 
L 311.226101 94.502121 
L 312.579158 94.666855 
L 313.325673 94.976264 
L 314.258816 95.127965 
L 315.751845 95.084579 
L 317.431502 94.825531 
L 317.851416 94.654107 
L 318.551274 94.672038 
L 319.624388 94.947269 
L 323.543589 95.073419 
L 324.336761 94.817931 
L 324.803332 94.647016 
L 325.269904 94.616682 
L 325.969761 94.843038 
L 326.762933 95.035653 
L 328.11599 95.058031 
L 331.288677 94.98231 
L 332.035191 94.631134 
L 332.54842 94.664022 
L 334.927934 95.074522 
L 338.567192 94.683546 
L 339.360364 94.472076 
L 340.060221 94.613411 
L 341.086679 94.85224 
L 341.833193 94.778918 
L 343.839451 93.968574 
L 345.65908 92.72236 
L 346.498908 92.119503 
L 348.458509 90.931319 
L 354.850539 85.547205 
L 356.063625 84.8909 
L 359.282968 83.592689 
L 360.356083 83.319314 
L 362.315683 82.628331 
L 365.255084 81.890273 
L 366.374856 81.857427 
L 367.028056 81.794913 
L 371.040571 80.842125 
L 372.626914 80.671238 
L 373.1868 80.808301 
L 374.026629 80.938713 
L 374.726486 80.715009 
L 375.612972 80.495121 
L 376.872715 80.313708 
L 376.872715 80.313708 
" clip-path="url(#pa32d9e8fc1)" style="fill: none; stroke: #0000ff; stroke-width: 0.75; stroke-linecap: round"/>
   </g>
   <g id="line2d_52">
    <path d="M 54.331816 87.260873 
L 55.171645 87.154061 
L 56.058131 86.818068 
L 57.55116 85.960404 
L 59.324132 84.603466 
L 60.117303 84.034956 
L 61.237075 83.08187 
L 62.683447 81.775501 
L 64.503076 80.450813 
L 65.949447 79.626139 
L 66.649305 79.413085 
L 67.489133 79.378845 
L 68.095676 79.090521 
L 70.615163 77.768936 
L 72.574763 77.346934 
L 73.647878 77.303132 
L 74.394392 77.499067 
L 75.094249 77.290854 
L 76.260678 76.832336 
L 77.473764 76.52767 
L 80.31985 76.322086 
L 81.532936 76.952062 
L 82.092822 76.763283 
L 83.352565 76.270598 
L 84.379023 76.177315 
L 86.898509 76.116513 
L 87.365081 76.171621 
L 88.718138 76.84687 
L 90.444453 77.289782 
L 91.750853 78.169736 
L 94.736911 81.215334 
L 95.670054 82.300374 
L 97.256397 83.915485 
L 99.262655 86.33309 
L 101.035626 88.324927 
L 102.29537 89.22495 
L 104.25497 90.55411 
L 105.421399 91.204889 
L 106.821113 91.841026 
L 108.360799 92.359835 
L 109.3406 92.456714 
L 110.087114 92.797067 
L 110.833629 93.126211 
L 111.860086 93.46725 
L 115.312715 94.228077 
L 116.479144 94.111429 
L 117.598916 94.509209 
L 118.578716 94.791928 
L 122.217974 95.137766 
L 123.244431 94.795464 
L 123.850974 94.948719 
L 125.250689 95.376594 
L 126.230489 95.496159 
L 129.123232 95.633826 
L 130.056376 95.278539 
L 130.522947 95.324504 
L 132.669176 95.927562 
L 135.048691 96.006839 
L 136.21512 95.96674 
L 137.008291 95.633329 
L 137.474863 95.677501 
L 138.268034 95.91937 
L 140.834178 96.172406 
L 141.907292 96.164175 
L 143.400321 95.981821 
L 143.960207 95.739442 
L 144.426779 95.768895 
L 146.479693 96.300735 
L 147.459494 96.287131 
L 149.465751 96.234106 
L 150.072294 96.170899 
L 151.378694 95.700309 
L 154.784667 96.225376 
L 157.02421 96.117494 
L 158.377267 95.673999 
L 160.663468 96.064048 
L 164.06944 95.824273 
L 164.909269 95.442619 
L 165.70244 95.469866 
L 167.148812 95.787751 
L 168.595184 95.745763 
L 170.834727 95.467154 
L 171.347956 95.008199 
L 171.954499 94.554954 
L 172.654356 94.318672 
L 173.494185 94.045865 
L 174.940557 93.13031 
L 176.620214 91.794732 
L 178.579815 89.935468 
L 180.072844 88.63937 
L 181.985787 86.854378 
L 182.965587 86.015672 
L 184.87853 84.842109 
L 185.904988 84.506018 
L 187.398017 83.686413 
L 188.611103 83.18681 
L 192.297018 82.361845 
L 192.903561 82.331458 
L 193.790047 82.001235 
L 195.889618 81.301606 
L 198.269133 80.898438 
L 199.155619 80.948329 
L 199.762162 80.961906 
L 200.741962 80.735217 
L 202.981506 80.267929 
L 205.361021 80.127735 
L 205.920906 80.210351 
L 206.760735 80.42681 
L 207.460592 80.253967 
L 210.260022 79.816156 
L 211.566422 79.729856 
L 212.826165 79.709366 
L 213.526022 79.984744 
L 213.992594 79.955945 
L 217.071966 79.352592 
L 218.751623 79.282992 
L 219.778081 79.318102 
L 220.524595 79.609579 
L 221.131138 79.528 
L 222.717481 79.068036 
L 226.729997 79.076154 
L 227.616483 79.355352 
L 228.129711 79.238312 
L 229.436111 78.90347 
L 231.349055 78.868048 
L 232.748769 78.842703 
L 233.495284 78.853438 
L 235.03497 79.31685 
L 235.874799 79.083374 
L 237.087885 78.873809 
L 238.114342 78.886593 
L 240.820457 79.05865 
L 241.520314 79.32278 
L 241.986886 79.306849 
L 243.573229 78.941227 
L 244.972943 78.921383 
L 245.859429 78.883904 
L 247.539087 79.058486 
L 248.192287 79.347571 
L 248.938801 79.383579 
L 251.131688 78.938163 
L 253.324574 79.00874 
L 254.86426 79.318106 
L 255.424146 79.627135 
L 256.077346 79.780812 
L 257.243775 79.9863 
L 257.943632 80.300498 
L 259.250032 81.134774 
L 261.396261 82.687483 
L 263.262547 84.295407 
L 264.615605 85.362781 
L 268.348177 88.545291 
L 272.547321 90.481797 
L 275.626693 91.357504 
L 276.746465 91.40824 
L 280.572351 92.502572 
L 282.671923 92.753757 
L 283.325123 92.676189 
L 284.071638 92.911832 
L 284.864809 93.156893 
L 286.077895 93.366205 
L 289.343896 93.589761 
L 290.696953 93.384365 
L 295.082726 94.038443 
L 296.342469 93.995783 
L 296.949012 93.825835 
L 297.788841 93.807095 
L 300.728241 94.385793 
L 303.20107 94.495918 
L 304.647442 94.235124 
L 305.627242 94.391005 
L 306.793671 94.725771 
L 308.193386 94.776549 
L 309.966358 94.811449 
L 310.339615 94.761718 
L 311.552701 94.48636 
L 312.625815 94.665074 
L 313.279015 94.937193 
L 314.632073 95.105686 
L 317.291531 94.88296 
L 317.898074 94.619784 
L 318.644588 94.679916 
L 319.297788 94.867315 
L 321.39736 95.059781 
L 322.517132 95.035821 
L 323.450275 95.055872 
L 324.290104 94.816063 
L 324.849989 94.606348 
L 325.409875 94.624377 
L 326.529647 94.966085 
L 327.276161 95.012972 
L 330.868762 95.040984 
L 331.195362 95.000689 
L 332.175162 94.596445 
L 336.187678 95.00382 
L 338.61385 94.636956 
L 339.313707 94.440926 
L 340.153536 94.614327 
L 341.133336 94.824633 
L 341.786536 94.764755 
L 343.559508 94.10591 
L 345.565765 92.790577 
L 346.358937 92.184707 
L 347.245423 91.705649 
L 348.411852 90.955068 
L 351.164624 88.566472 
L 354.66391 85.676365 
L 356.016968 84.920148 
L 359.09634 83.642509 
L 360.40274 83.314161 
L 362.502312 82.59533 
L 363.902027 82.214056 
L 364.83517 81.980445 
L 365.861627 81.808102 
L 367.354656 81.718576 
L 370.480685 80.957132 
L 372.626914 80.695183 
L 373.1868 80.831735 
L 374.026629 80.961661 
L 374.726486 80.738791 
L 375.612972 80.519723 
L 376.872715 80.338987 
L 376.872715 80.338987 
" clip-path="url(#pa32d9e8fc1)" style="fill: none; stroke: #008000; stroke-width: 0.75; stroke-linecap: round"/>
   </g>
   <g id="line2d_53">
    <path d="M 54.331816 87.403755 
L 54.938359 87.295019 
L 55.544902 86.999859 
L 56.384731 86.288111 
L 57.457845 85.125248 
L 58.997531 83.013561 
L 61.796961 78.710929 
L 63.150018 76.621823 
L 65.24959 73.989749 
L 66.509333 72.912794 
L 67.489133 72.876654 
L 67.955705 72.498388 
L 70.055277 70.199963 
L 71.035077 69.734384 
L 72.434792 69.194402 
L 73.087992 68.94045 
L 73.461249 68.912064 
L 74.487706 69.388308 
L 74.860964 69.200099 
L 75.467507 68.744293 
L 76.027392 68.31762 
L 77.007193 67.770507 
L 77.940336 67.522788 
L 80.366508 67.295233 
L 80.833079 67.938672 
L 81.299651 68.387685 
L 81.672908 68.36414 
L 82.466079 67.71302 
L 83.11928 67.221935 
L 84.285708 66.985445 
L 85.312166 66.92919 
L 87.458395 67.074826 
L 88.251566 68.023603 
L 88.998081 68.277469 
L 89.417995 68.377201 
L 90.071195 68.733452 
L 91.14431 69.776015 
L 91.750853 70.648187 
L 94.643596 76.033891 
L 95.716711 78.341025 
L 97.396368 81.532476 
L 101.128941 89.50532 
L 103.088541 92.045981 
L 104.814856 94.097354 
L 106.261228 95.407652 
L 107.800914 96.571331 
L 108.267485 96.806807 
L 109.200628 96.903106 
L 109.853828 97.34675 
L 110.693657 98.107687 
L 111.9534 98.893502 
L 113.913001 99.80987 
L 115.40603 100.206822 
L 116.05923 99.927848 
L 116.619115 100.092462 
L 118.951973 101.401797 
L 120.538316 101.788246 
L 121.518117 101.955858 
L 122.217974 101.921392 
L 123.197774 101.285127 
L 123.664346 101.443086 
L 125.39066 102.408617 
L 128.936604 102.915899 
L 129.123232 102.835664 
L 129.963061 102.203591 
L 130.382976 102.213091 
L 131.082833 102.621531 
L 131.78269 103.131422 
L 132.855805 103.403273 
L 136.21512 103.449245 
L 136.914977 102.848581 
L 137.428206 102.888308 
L 138.547977 103.432464 
L 141.160778 103.856529 
L 142.093921 103.811721 
L 142.700464 103.88192 
L 143.027064 103.860343 
L 143.446978 103.419929 
L 143.866893 103.052989 
L 144.286807 103.03867 
L 144.753379 103.301412 
L 145.826493 103.971817 
L 147.086236 104.081269 
L 149.97898 103.898268 
L 150.352237 103.518204 
L 150.865466 103.012074 
L 151.28538 102.949745 
L 151.705295 103.092141 
L 153.711552 103.807284 
L 155.39121 103.903605 
L 157.117524 103.650746 
L 158.00401 102.867068 
L 158.423925 102.928369 
L 159.263753 103.311676 
L 159.776982 103.52872 
L 160.896754 103.60831 
L 161.549954 103.590318 
L 162.296468 103.482756 
L 163.976126 103.27088 
L 165.189212 102.430993 
L 165.562469 102.475894 
L 166.262326 102.820196 
L 167.102155 103.122473 
L 170.321499 102.800775 
L 170.834727 102.528475 
L 171.207985 101.94055 
L 171.861185 100.930813 
L 172.561042 100.448349 
L 173.540842 99.861828 
L 174.194042 99.186411 
L 175.8737 96.894088 
L 177.973272 93.515659 
L 179.233015 91.243835 
L 181.472558 87.61426 
L 183.012244 85.050785 
L 184.831873 82.969801 
L 185.951645 82.286188 
L 188.611103 79.894986 
L 190.29076 78.997242 
L 191.503846 78.340783 
L 191.92376 78.277717 
L 192.576961 78.389732 
L 193.090189 78.235858 
L 194.39659 77.226839 
L 195.096447 76.748634 
L 197.755905 75.766159 
L 198.782362 75.617608 
L 199.762162 75.794341 
L 200.415362 75.538677 
L 202.141677 74.681784 
L 203.121477 74.501045 
L 205.780935 74.309126 
L 206.714078 74.816131 
L 207.133992 74.642255 
L 209.840107 73.656062 
L 210.679936 73.635438 
L 211.846365 73.468993 
L 212.732851 73.392739 
L 213.572679 74.005704 
L 213.992594 73.940287 
L 214.739108 73.511762 
L 215.345651 73.176648 
L 216.278794 72.896212 
L 219.591452 72.613352 
L 219.964709 72.950381 
L 220.431281 73.273355 
L 220.804538 73.290707 
L 221.411081 72.992076 
L 222.064281 72.574666 
L 222.624167 72.333582 
L 222.997424 72.29073 
L 224.21051 72.15652 
L 224.677082 72.174519 
L 225.143653 72.15989 
L 226.216768 72.240385 
L 226.683339 72.279667 
L 227.523168 72.842661 
L 228.036397 72.677916 
L 229.436111 72.000507 
L 230.92914 71.901342 
L 233.635255 72.016091 
L 234.288455 72.640996 
L 234.801684 72.779908 
L 235.548199 72.557481 
L 236.294713 72.160377 
L 237.087885 71.945839 
L 237.554456 71.977817 
L 238.021028 71.982421 
L 238.767542 71.930425 
L 239.280771 71.958246 
L 240.587171 72.062168 
L 241.427 72.746475 
L 241.893571 72.767379 
L 242.220171 72.618309 
L 243.3866 72.077632 
L 246.932544 72.04874 
L 247.959001 72.677919 
L 248.425573 72.900695 
L 248.892144 72.900267 
L 250.805088 72.176888 
L 251.225002 72.057544 
L 254.21106 72.309571 
L 254.584317 72.45304 
L 255.004231 72.944216 
L 255.51746 73.395918 
L 256.590575 73.737436 
L 257.197118 73.969087 
L 257.850318 74.472714 
L 260.60309 77.795359 
L 268.394834 89.813171 
L 271.380892 92.391983 
L 272.360692 93.223409 
L 273.807064 94.056148 
L 274.506921 94.450563 
L 275.626693 94.954117 
L 276.559836 94.967526 
L 277.586293 95.584343 
L 278.892694 96.326546 
L 280.712323 97.126057 
L 281.41218 97.410013 
L 282.06538 97.639874 
L 282.531952 97.584776 
L 283.325123 97.384542 
L 283.885009 97.673522 
L 284.538209 98.108156 
L 286.17121 98.678554 
L 287.897524 98.923913 
L 288.504067 98.941931 
L 289.390553 99.048566 
L 290.323696 98.610174 
L 291.070211 98.82975 
L 292.703211 99.393467 
L 294.242897 99.651197 
L 294.709469 99.822284 
L 295.409326 99.909666 
L 296.249155 99.884098 
L 296.902355 99.512104 
L 297.742184 99.454566 
L 298.348727 99.750256 
L 299.468498 100.312471 
L 300.028384 100.427948 
L 301.801356 100.678502 
L 302.314585 100.681996 
L 302.87447 100.722848 
L 303.247728 100.7161 
L 303.854271 100.292723 
L 304.274185 100.179585 
L 305.160671 100.32021 
L 305.767214 100.646964 
L 306.513728 101.093247 
L 307.680157 101.23879 
L 308.753272 101.17083 
L 310.292958 101.257553 
L 311.366072 100.706578 
L 312.345872 100.80334 
L 314.02553 101.800258 
L 314.912016 101.828605 
L 316.918273 101.630247 
L 317.151559 101.575301 
L 317.524816 101.185123 
L 317.944731 100.961161 
L 318.411302 100.930693 
L 319.717703 101.522781 
L 321.490674 101.764002 
L 322.37716 101.681803 
L 322.843732 101.782169 
L 323.543589 101.747926 
L 324.196789 101.446041 
L 324.616704 101.039789 
L 325.17659 100.881149 
L 325.50319 101.040005 
L 326.296361 101.509831 
L 326.949561 101.73156 
L 327.322819 101.68962 
L 328.022676 101.718538 
L 328.955819 101.698012 
L 329.795648 101.648345 
L 330.728791 101.709557 
L 331.102048 101.732653 
L 331.521962 101.320935 
L 331.988534 100.946534 
L 332.361791 100.961748 
L 335.441163 101.715958 
L 335.81442 101.692473 
L 337.867335 101.452364 
L 338.100621 101.41 
L 338.660507 100.961476 
L 339.127078 100.674444 
L 339.546993 100.684215 
L 340.060221 100.903263 
L 340.946707 101.336491 
L 341.739879 101.254167 
L 342.673022 100.729348 
L 343.652822 99.924486 
L 345.285822 98.073412 
L 346.31228 96.536 
L 347.105451 95.737515 
L 348.551823 93.997085 
L 354.570596 84.594725 
L 355.830339 83.239759 
L 359.049683 80.747171 
L 359.982826 80.397645 
L 362.502312 78.80485 
L 363.575426 78.299096 
L 365.48837 77.482241 
L 366.281541 77.451391 
L 366.701456 77.507937 
L 367.168027 77.286361 
L 369.780828 75.919106 
L 370.294056 75.812601 
L 371.787085 75.443511 
L 372.300314 75.315138 
L 372.8602 75.330388 
L 373.886657 75.821378 
L 374.259914 75.69299 
L 375.333029 75.093423 
L 376.406144 74.748241 
L 376.872715 74.646259 
L 376.872715 74.646259 
" clip-path="url(#pa32d9e8fc1)" style="fill: none; stroke: #ff0000; stroke-width: 0.75; stroke-linecap: round"/>
   </g>
   <g id="patch_6">
    <path d="M 38.204771 105.945668 
L 38.204771 64.993535 
" style="fill: none; stroke: #000000; stroke-linejoin: miter; stroke-linecap: square"/>
   </g>
   <g id="patch_7">
    <path d="M 38.204771 105.945668 
L 392.99976 105.945668 
" style="fill: none; stroke: #000000; stroke-linejoin: miter; stroke-linecap: square"/>
   </g>
  </g>
  <g id="axes_3">
   <g id="patch_8">
    <path d="M 38.204771 156.012401 
L 392.99976 156.012401 
L 392.99976 115.060269 
L 38.204771 115.060269 
z
" style="fill: #ffffff"/>
   </g>
   <g id="matplotlib.axis_5">
    <g id="xtick_17">
     <g id="line2d_54">
      <path d="M 54.331816 156.012401 
L 54.331816 115.060269 
" clip-path="url(#p7a42f120e9)" style="fill: none; stroke: #b0b0b0; stroke-width: 0.8; stroke-linecap: round"/>
     </g>
     <g id="line2d_55"/>
    </g>
    <g id="xtick_18">
     <g id="line2d_56">
      <path d="M 101.303681 156.012401 
L 101.303681 115.060269 
" clip-path="url(#p7a42f120e9)" style="fill: none; stroke: #b0b0b0; stroke-width: 0.8; stroke-linecap: round"/>
     </g>
     <g id="line2d_57"/>
    </g>
    <g id="xtick_19">
     <g id="line2d_58">
      <path d="M 148.275545 156.012401 
L 148.275545 115.060269 
" clip-path="url(#p7a42f120e9)" style="fill: none; stroke: #b0b0b0; stroke-width: 0.8; stroke-linecap: round"/>
     </g>
     <g id="line2d_59"/>
    </g>
    <g id="xtick_20">
     <g id="line2d_60">
      <path d="M 195.24741 156.012401 
L 195.24741 115.060269 
" clip-path="url(#p7a42f120e9)" style="fill: none; stroke: #b0b0b0; stroke-width: 0.8; stroke-linecap: round"/>
     </g>
     <g id="line2d_61"/>
    </g>
    <g id="xtick_21">
     <g id="line2d_62">
      <path d="M 242.219274 156.012401 
L 242.219274 115.060269 
" clip-path="url(#p7a42f120e9)" style="fill: none; stroke: #b0b0b0; stroke-width: 0.8; stroke-linecap: round"/>
     </g>
     <g id="line2d_63"/>
    </g>
    <g id="xtick_22">
     <g id="line2d_64">
      <path d="M 289.191139 156.012401 
L 289.191139 115.060269 
" clip-path="url(#p7a42f120e9)" style="fill: none; stroke: #b0b0b0; stroke-width: 0.8; stroke-linecap: round"/>
     </g>
     <g id="line2d_65"/>
    </g>
    <g id="xtick_23">
     <g id="line2d_66">
      <path d="M 336.163003 156.012401 
L 336.163003 115.060269 
" clip-path="url(#p7a42f120e9)" style="fill: none; stroke: #b0b0b0; stroke-width: 0.8; stroke-linecap: round"/>
     </g>
     <g id="line2d_67"/>
    </g>
    <g id="xtick_24">
     <g id="line2d_68">
      <path d="M 383.134868 156.012401 
L 383.134868 115.060269 
" clip-path="url(#p7a42f120e9)" style="fill: none; stroke: #b0b0b0; stroke-width: 0.8; stroke-linecap: round"/>
     </g>
     <g id="line2d_69"/>
    </g>
   </g>
   <g id="matplotlib.axis_6">
    <g id="ytick_7">
     <g id="line2d_70">
      <path d="M 38.204771 153.841564 
L 392.99976 153.841564 
" clip-path="url(#p7a42f120e9)" style="fill: none; stroke: #b0b0b0; stroke-width: 0.8; stroke-linecap: round"/>
     </g>
     <g id="line2d_71"/>
     <g id="text_12">
      <!-- −50 -->
      <g style="fill: #262626" transform="translate(15.710552 157.260861) scale(0.09 -0.09)">
       <use xlink:href="#DejaVuSerif-2212"/>
       <use xlink:href="#DejaVuSerif-35" x="83.789062"/>
       <use xlink:href="#DejaVuSerif-30" x="147.412109"/>
      </g>
     </g>
    </g>
    <g id="ytick_8">
     <g id="line2d_72">
      <path d="M 38.204771 137.158128 
L 392.99976 137.158128 
" clip-path="url(#p7a42f120e9)" style="fill: none; stroke: #b0b0b0; stroke-width: 0.8; stroke-linecap: round"/>
     </g>
     <g id="line2d_73"/>
     <g id="text_13">
      <!-- 0 -->
      <g style="fill: #262626" transform="translate(28.978521 140.577425) scale(0.09 -0.09)">
       <use xlink:href="#DejaVuSerif-30"/>
      </g>
     </g>
    </g>
    <g id="ytick_9">
     <g id="line2d_74">
      <path d="M 38.204771 120.474692 
L 392.99976 120.474692 
" clip-path="url(#p7a42f120e9)" style="fill: none; stroke: #b0b0b0; stroke-width: 0.8; stroke-linecap: round"/>
     </g>
     <g id="line2d_75"/>
     <g id="text_14">
      <!-- 50 -->
      <g style="fill: #262626" transform="translate(23.252271 123.893988) scale(0.09 -0.09)">
       <use xlink:href="#DejaVuSerif-35"/>
       <use xlink:href="#DejaVuSerif-30" x="63.623047"/>
      </g>
     </g>
    </g>
    <g id="text_15">
     <!-- $Y_H(v)$ -->
     <g style="fill: #262626" transform="translate(9.838834 146.966335) rotate(-90) scale(0.09 -0.09)">
      <defs>
       <path id="DejaVuSans-Oblique-59" d="M 403 4666 
L 1081 4666 
L 1953 2747 
L 3616 4666 
L 4325 4666 
L 2209 2222 
L 1778 0 
L 1147 0 
L 1575 2222 
L 403 4666 
z
" transform="scale(0.015625)"/>
      </defs>
      <use xlink:href="#DejaVuSans-Oblique-59" transform="translate(0 0.125)"/>
      <use xlink:href="#DejaVuSans-Oblique-48" transform="translate(61.083984 -16.28125) scale(0.7)"/>
      <use xlink:href="#DejaVuSans-28" transform="translate(116.455078 0.125)"/>
      <use xlink:href="#DejaVuSans-Oblique-76" transform="translate(155.46875 0.125)"/>
      <use xlink:href="#DejaVuSans-29" transform="translate(214.648438 0.125)"/>
     </g>
    </g>
   </g>
   <g id="line2d_76">
    <path d="M 54.331816 137.153829 
L 56.804645 137.240785 
L 59.370789 137.621856 
L 62.123561 138.137248 
L 64.783018 138.614953 
L 68.842191 139.371825 
L 71.828249 140.115657 
L 73.974478 140.319173 
L 75.420849 140.4034 
L 77.193821 140.79138 
L 79.526679 141.233972 
L 80.786422 141.313044 
L 82.046165 141.295811 
L 86.245309 141.838454 
L 87.878309 141.860697 
L 89.231367 141.821014 
L 92.217424 141.944327 
L 93.897082 141.72498 
L 94.783568 141.495412 
L 95.949997 141.16053 
L 98.656112 140.710615 
L 100.335769 140.192126 
L 104.25497 139.077067 
L 106.681142 138.450462 
L 113.586401 136.733131 
L 122.871174 135.12959 
L 124.504174 134.970637 
L 128.749975 134.358722 
L 130.196347 134.30733 
L 131.596062 134.129039 
L 134.022234 133.784168 
L 136.86832 133.684837 
L 137.894777 133.627166 
L 141.720664 133.187023 
L 144.053521 133.204263 
L 145.359922 133.121149 
L 148.34598 132.781068 
L 150.445551 132.780757 
L 151.845266 132.87691 
L 153.711552 132.658045 
L 156.324353 132.4874 
L 157.537439 132.562469 
L 158.563896 132.628933 
L 160.710125 132.438662 
L 162.716383 132.366496 
L 164.675983 132.494096 
L 165.70244 132.572072 
L 167.242127 132.385837 
L 169.48167 132.243721 
L 171.161327 132.376186 
L 172.701013 132.705684 
L 177.8333 133.108493 
L 187.67796 135.458981 
L 189.824189 135.975441 
L 193.230161 136.741816 
L 198.31579 137.639181 
L 205.221049 138.690534 
L 213.199422 139.519764 
L 214.459165 139.591547 
L 219.918052 140.107423 
L 221.411081 140.127225 
L 223.743939 140.472677 
L 225.703539 140.593052 
L 229.62274 140.72459 
L 232.328855 140.968726 
L 233.961855 140.974837 
L 235.36157 140.893985 
L 240.820457 141.228892 
L 242.313486 141.11783 
L 247.679058 141.388706 
L 249.172087 141.267448 
L 251.178345 141.473366 
L 253.137945 141.567867 
L 255.564117 141.366675 
L 256.730546 141.336482 
L 258.550175 141.300033 
L 261.536233 140.95824 
L 263.775776 140.52953 
L 265.735377 140.223375 
L 270.541063 138.990691 
L 273.107207 138.58388 
L 280.619008 137.080477 
L 289.76381 135.738114 
L 291.443468 135.619305 
L 295.82924 135.070722 
L 304.694099 134.416301 
L 306.140471 134.250614 
L 308.6133 133.959546 
L 311.086129 133.917766 
L 312.71913 133.874345 
L 314.772044 133.570878 
L 317.524816 133.532787 
L 318.737902 133.557146 
L 323.310303 133.19311 
L 324.523389 133.264724 
L 325.643161 133.315308 
L 331.521962 133.030126 
L 332.688391 133.138222 
L 334.414706 132.956397 
L 335.627792 132.858255 
L 337.120821 132.866517 
L 338.847135 132.990834 
L 339.733621 133.050686 
L 340.993364 132.888667 
L 342.579708 132.796217 
L 344.725937 132.985819 
L 345.752394 133.22477 
L 346.96548 133.405409 
L 351.164624 133.852276 
L 352.890938 134.392565 
L 354.150682 134.698393 
L 367.867885 137.318072 
L 376.872715 138.663727 
L 376.872715 138.663727 
" clip-path="url(#p7a42f120e9)" style="fill: none; stroke: #0000ff; stroke-width: 0.75; stroke-linecap: round"/>
   </g>
   <g id="line2d_77">
    <path d="M 54.331816 137.15335 
L 56.711331 137.239481 
L 58.950874 137.598842 
L 65.436219 138.902486 
L 69.215448 139.738074 
L 71.64162 140.412833 
L 73.92782 140.673638 
L 75.187564 140.728533 
L 76.493964 141.014443 
L 79.573336 141.695996 
L 80.64645 141.791542 
L 81.999508 141.751056 
L 83.305908 142.036318 
L 85.172194 142.288296 
L 88.391538 142.328919 
L 89.417995 142.357498 
L 91.890824 142.495276 
L 93.383853 142.321905 
L 94.783568 141.979187 
L 95.90334 141.614825 
L 99.16934 140.951659 
L 101.642169 140.025658 
L 102.94857 139.581419 
L 107.287685 138.419564 
L 114.006315 136.60492 
L 118.67203 135.621666 
L 120.491659 135.217534 
L 122.871174 134.90333 
L 124.41086 134.742444 
L 129.449833 134.003377 
L 131.176147 133.874999 
L 134.908719 133.327268 
L 136.588377 133.281068 
L 137.754806 133.254009 
L 142.560493 132.691974 
L 143.540293 132.714869 
L 144.660064 132.755969 
L 146.106436 132.544415 
L 147.832751 132.319413 
L 150.258923 132.262969 
L 151.985237 132.388086 
L 156.884239 131.951033 
L 157.817382 132.092467 
L 158.843839 132.104968 
L 163.649526 131.835404 
L 164.536012 131.947161 
L 165.749098 132.057958 
L 167.008841 131.890992 
L 168.595184 131.722807 
L 170.414813 131.729867 
L 171.301299 131.890363 
L 172.561042 132.198 
L 173.960757 132.243871 
L 176.806843 132.478159 
L 178.253215 132.796853 
L 179.886215 133.295282 
L 182.638987 133.97354 
L 185.904988 134.946173 
L 187.724617 135.27922 
L 189.777531 135.830175 
L 193.090189 136.66457 
L 198.035848 137.640623 
L 205.687621 138.919813 
L 210.306679 139.473795 
L 213.665994 139.783954 
L 215.159023 139.966149 
L 218.14508 140.318251 
L 220.384624 140.413257 
L 221.644367 140.488559 
L 225.843511 140.979454 
L 227.66314 140.920527 
L 228.829569 141.004811 
L 231.535683 141.339995 
L 234.475084 141.330606 
L 235.594856 141.337341 
L 238.580913 141.672965 
L 240.680485 141.702871 
L 242.593429 141.584765 
L 245.019601 141.839797 
L 247.445773 141.889926 
L 250.058573 141.803843 
L 252.018174 142.038609 
L 254.770946 141.991874 
L 256.357289 141.791471 
L 259.156718 141.697551 
L 262.609347 141.088737 
L 264.195691 140.857139 
L 265.502091 140.62808 
L 267.181748 140.099889 
L 270.494406 139.201368 
L 273.153864 138.731758 
L 280.805637 137.039135 
L 289.950439 135.578084 
L 291.443468 135.447667 
L 295.689269 134.849296 
L 300.494956 134.325795 
L 302.641185 134.122675 
L 304.227528 134.124703 
L 305.580585 134.032483 
L 309.779729 133.511311 
L 310.666215 133.519502 
L 312.112587 133.590916 
L 313.04573 133.436653 
L 314.818702 133.168078 
L 317.291531 133.096376 
L 318.644588 133.164897 
L 323.543589 132.748587 
L 324.803332 132.867666 
L 325.643161 132.886685 
L 327.649419 132.627459 
L 329.329076 132.556706 
L 331.381991 132.54366 
L 332.688391 132.689847 
L 334.321391 132.504306 
L 335.721106 132.372455 
L 337.027506 132.385 
L 338.893792 132.535579 
L 339.826936 132.58698 
L 341.179993 132.386938 
L 342.299765 132.310971 
L 343.512851 132.359295 
L 345.519108 132.71767 
L 346.732194 132.967165 
L 348.785109 133.080235 
L 350.418109 133.297709 
L 352.05111 133.750146 
L 353.917396 134.369801 
L 358.723083 135.398525 
L 360.775997 135.903584 
L 366.561484 137.141345 
L 370.527342 137.832685 
L 375.333029 138.573737 
L 376.872715 138.831659 
L 376.872715 138.831659 
" clip-path="url(#p7a42f120e9)" style="fill: none; stroke: #008000; stroke-width: 0.75; stroke-linecap: round"/>
   </g>
   <g id="line2d_78">
    <path d="M 54.331816 137.147125 
L 56.058131 137.216275 
L 57.22456 137.492414 
L 58.85756 138.133398 
L 61.890275 139.535007 
L 63.896533 140.506273 
L 68.142333 142.336506 
L 69.495391 143.323586 
L 70.801791 144.26665 
L 71.874906 144.746097 
L 73.461249 145.276543 
L 75.420849 145.465409 
L 76.353992 145.952918 
L 79.106764 147.418449 
L 80.413165 147.867032 
L 81.066365 147.707098 
L 81.626251 147.646666 
L 82.186137 147.80601 
L 83.072622 148.276433 
L 84.332366 148.798511 
L 85.40548 148.999343 
L 87.784995 149.228635 
L 88.624824 149.040034 
L 89.417995 149.131981 
L 91.377596 149.484179 
L 92.544025 149.345282 
L 93.243882 149.106582 
L 94.690254 148.348119 
L 95.810025 147.461853 
L 96.55654 147.223878 
L 97.489683 146.866038 
L 98.889397 146.099461 
L 100.848998 144.504448 
L 103.135198 142.638326 
L 105.701342 141.122737 
L 109.247285 138.654911 
L 110.647 137.717445 
L 112.699915 136.52486 
L 115.592658 135.144605 
L 117.552259 134.307949 
L 118.765345 133.558501 
L 120.025088 132.88662 
L 122.264631 132.023086 
L 124.73746 131.45696 
L 127.956804 130.225279 
L 129.729775 129.890595 
L 130.616261 129.777253 
L 131.549404 129.426922 
L 133.275719 128.70262 
L 135.142005 128.287744 
L 136.448406 128.200465 
L 137.288234 128.278657 
L 137.941434 128.102305 
L 141.067464 127.096392 
L 142.653807 126.856418 
L 143.353664 126.870607 
L 144.380122 127.04173 
L 145.033322 126.932432 
L 146.573008 126.341346 
L 147.786094 126.02347 
L 149.185808 125.876734 
L 150.352237 125.915654 
L 151.472009 126.23342 
L 152.125209 126.139607 
L 155.017952 125.346939 
L 157.02421 125.190822 
L 157.817382 125.492198 
L 158.470582 125.570461 
L 159.170439 125.440553 
L 161.549954 124.916711 
L 162.296468 124.885123 
L 164.209412 125.00938 
L 165.469155 125.42632 
L 166.215669 125.314365 
L 168.641841 124.634835 
L 169.48167 124.578178 
L 170.834727 124.735852 
L 171.301299 125.026765 
L 172.281099 125.646836 
L 172.980956 125.792702 
L 174.987214 125.966401 
L 176.666871 126.335484 
L 178.019929 126.918087 
L 179.839558 128.239498 
L 182.26573 129.541175 
L 184.505273 131.152068 
L 187.258045 132.629481 
L 188.33116 133.158881 
L 194.443247 136.682589 
L 199.482219 138.824254 
L 201.11522 139.486005 
L 203.867992 140.667138 
L 205.780935 141.23423 
L 207.973821 141.706226 
L 209.840107 142.367637 
L 212.219622 143.051868 
L 213.059451 143.207217 
L 214.22588 143.31728 
L 219.591452 144.722199 
L 220.337967 144.65828 
L 221.177795 144.699322 
L 222.110938 145.007322 
L 224.117196 145.727937 
L 225.516911 145.93701 
L 227.149911 145.921607 
L 228.036397 145.825038 
L 228.736254 145.987259 
L 232.235541 146.896374 
L 233.541941 147.04078 
L 234.148484 146.866238 
L 234.988313 146.695818 
L 235.594856 146.782617 
L 237.927713 147.473425 
L 240.167257 147.656692 
L 240.820457 147.578511 
L 241.940229 147.261163 
L 242.593429 147.352421 
L 244.319743 147.83958 
L 247.585744 148.018615 
L 248.938801 147.661555 
L 249.965259 147.826599 
L 252.344774 148.427564 
L 254.584317 148.370564 
L 256.450603 147.830978 
L 257.990289 147.864771 
L 260.089861 147.408938 
L 261.349604 146.990965 
L 261.956147 146.594307 
L 263.122576 145.988391 
L 265.735377 145.00458 
L 270.121149 141.992869 
L 273.807064 140.409672 
L 277.492979 138.309253 
L 282.345323 136.28261 
L 285.518009 135.039168 
L 288.084153 133.960574 
L 289.577182 133.529413 
L 290.976896 133.371002 
L 292.56324 132.788886 
L 294.476183 132.158417 
L 296.295812 131.73744 
L 297.835498 131.56573 
L 299.141898 131.107031 
L 300.91487 130.507606 
L 302.407899 130.201174 
L 303.714299 130.121363 
L 304.740756 130.134736 
L 305.627242 129.943785 
L 308.333357 129.011366 
L 310.666215 128.778579 
L 311.506044 128.900407 
L 312.579158 128.819604 
L 314.585416 128.001586 
L 317.244873 127.792411 
L 318.457959 127.990485 
L 319.43776 127.745794 
L 321.490674 127.182678 
L 324.150132 127.04337 
L 325.223247 127.368234 
L 325.969761 127.252202 
L 328.069333 126.656076 
L 331.102048 126.441595 
L 331.615277 126.637211 
L 332.361791 126.864551 
L 333.061648 126.800352 
L 334.741306 126.289812 
L 335.81442 126.122568 
L 336.840878 126.144711 
L 338.61385 126.387095 
L 339.453678 126.650824 
L 340.060221 126.586657 
L 342.393079 125.988087 
L 343.466193 126.090513 
L 345.472451 126.897779 
L 346.265623 127.355424 
L 347.105451 127.574723 
L 350.184824 128.162539 
L 351.211281 128.72538 
L 352.471024 129.699253 
L 353.544139 130.525408 
L 355.177139 131.363616 
L 359.142997 133.323728 
L 364.321941 136.121846 
L 366.14157 136.96809 
L 369.547542 138.290576 
L 371.647114 139.151071 
L 373.326771 139.776325 
L 374.913115 140.261296 
L 376.872715 141.012175 
L 376.872715 141.012175 
" clip-path="url(#p7a42f120e9)" style="fill: none; stroke: #ff0000; stroke-width: 0.75; stroke-linecap: round"/>
   </g>
   <g id="patch_9">
    <path d="M 38.204771 156.012401 
L 38.204771 115.060269 
" style="fill: none; stroke: #000000; stroke-linejoin: miter; stroke-linecap: square"/>
   </g>
   <g id="patch_10">
    <path d="M 38.204771 156.012401 
L 392.99976 156.012401 
" style="fill: none; stroke: #000000; stroke-linejoin: miter; stroke-linecap: square"/>
   </g>
  </g>
  <g id="axes_4">
   <g id="patch_11">
    <path d="M 38.204771 206.079135 
L 392.99976 206.079135 
L 392.99976 165.127002 
L 38.204771 165.127002 
z
" style="fill: #ffffff"/>
   </g>
   <g id="matplotlib.axis_7">
    <g id="xtick_25">
     <g id="line2d_79">
      <path d="M 54.331816 206.079135 
L 54.331816 165.127002 
" clip-path="url(#p5c7c314545)" style="fill: none; stroke: #b0b0b0; stroke-width: 0.8; stroke-linecap: round"/>
     </g>
     <g id="line2d_80"/>
     <g id="text_16">
      <!-- 0 -->
      <g style="fill: #262626" transform="translate(51.468691 216.417729) scale(0.09 -0.09)">
       <use xlink:href="#DejaVuSerif-30"/>
      </g>
     </g>
    </g>
    <g id="xtick_26">
     <g id="line2d_81">
      <path d="M 101.303681 206.079135 
L 101.303681 165.127002 
" clip-path="url(#p5c7c314545)" style="fill: none; stroke: #b0b0b0; stroke-width: 0.8; stroke-linecap: round"/>
     </g>
     <g id="line2d_82"/>
     <g id="text_17">
      <!-- 10 -->
      <g style="fill: #262626" transform="translate(95.577431 216.417729) scale(0.09 -0.09)">
       <defs>
        <path id="DejaVuSerif-31" d="M 909 0 
L 909 331 
L 1722 331 
L 1722 4213 
L 781 3603 
L 781 4013 
L 1919 4750 
L 2350 4750 
L 2350 331 
L 3163 331 
L 3163 0 
L 909 0 
z
" transform="scale(0.015625)"/>
       </defs>
       <use xlink:href="#DejaVuSerif-31"/>
       <use xlink:href="#DejaVuSerif-30" x="63.623047"/>
      </g>
     </g>
    </g>
    <g id="xtick_27">
     <g id="line2d_83">
      <path d="M 148.275545 206.079135 
L 148.275545 165.127002 
" clip-path="url(#p5c7c314545)" style="fill: none; stroke: #b0b0b0; stroke-width: 0.8; stroke-linecap: round"/>
     </g>
     <g id="line2d_84"/>
     <g id="text_18">
      <!-- 20 -->
      <g style="fill: #262626" transform="translate(142.549295 216.417729) scale(0.09 -0.09)">
       <defs>
        <path id="DejaVuSerif-32" d="M 819 3553 
L 469 3553 
L 469 4384 
Q 803 4563 1142 4656 
Q 1481 4750 1806 4750 
Q 2534 4750 2956 4397 
Q 3378 4044 3378 3438 
Q 3378 2753 2422 1800 
Q 2347 1728 2309 1691 
L 1131 513 
L 3078 513 
L 3078 1088 
L 3444 1088 
L 3444 0 
L 434 0 
L 434 341 
L 1850 1753 
Q 2319 2222 2519 2614 
Q 2719 3006 2719 3438 
Q 2719 3909 2473 4175 
Q 2228 4441 1797 4441 
Q 1350 4441 1106 4219 
Q 863 3997 819 3553 
z
" transform="scale(0.015625)"/>
       </defs>
       <use xlink:href="#DejaVuSerif-32"/>
       <use xlink:href="#DejaVuSerif-30" x="63.623047"/>
      </g>
     </g>
    </g>
    <g id="xtick_28">
     <g id="line2d_85">
      <path d="M 195.24741 206.079135 
L 195.24741 165.127002 
" clip-path="url(#p5c7c314545)" style="fill: none; stroke: #b0b0b0; stroke-width: 0.8; stroke-linecap: round"/>
     </g>
     <g id="line2d_86"/>
     <g id="text_19">
      <!-- 30 -->
      <g style="fill: #262626" transform="translate(189.52116 216.417729) scale(0.09 -0.09)">
       <defs>
        <path id="DejaVuSerif-33" d="M 622 4469 
Q 988 4606 1323 4678 
Q 1659 4750 1953 4750 
Q 2638 4750 3022 4454 
Q 3406 4159 3406 3634 
Q 3406 3213 3140 2930 
Q 2875 2647 2388 2547 
Q 2963 2466 3280 2130 
Q 3597 1794 3597 1259 
Q 3597 606 3158 257 
Q 2719 -91 1894 -91 
Q 1528 -91 1179 -12 
Q 831 66 488 225 
L 488 1131 
L 838 1131 
Q 869 681 1141 450 
Q 1413 219 1906 219 
Q 2384 219 2661 495 
Q 2938 772 2938 1253 
Q 2938 1803 2653 2086 
Q 2369 2369 1819 2369 
L 1522 2369 
L 1522 2688 
L 1678 2688 
Q 2225 2688 2498 2914 
Q 2772 3141 2772 3597 
Q 2772 4006 2547 4223 
Q 2322 4441 1900 4441 
Q 1478 4441 1245 4241 
Q 1013 4041 972 3647 
L 622 3647 
L 622 4469 
z
" transform="scale(0.015625)"/>
       </defs>
       <use xlink:href="#DejaVuSerif-33"/>
       <use xlink:href="#DejaVuSerif-30" x="63.623047"/>
      </g>
     </g>
    </g>
    <g id="xtick_29">
     <g id="line2d_87">
      <path d="M 242.219274 206.079135 
L 242.219274 165.127002 
" clip-path="url(#p5c7c314545)" style="fill: none; stroke: #b0b0b0; stroke-width: 0.8; stroke-linecap: round"/>
     </g>
     <g id="line2d_88"/>
     <g id="text_20">
      <!-- 40 -->
      <g style="fill: #262626" transform="translate(236.493024 216.417729) scale(0.09 -0.09)">
       <defs>
        <path id="DejaVuSerif-34" d="M 2234 1581 
L 2234 4063 
L 641 1581 
L 2234 1581 
z
M 3609 0 
L 1484 0 
L 1484 331 
L 2234 331 
L 2234 1247 
L 197 1247 
L 197 1588 
L 2241 4750 
L 2859 4750 
L 2859 1581 
L 3750 1581 
L 3750 1247 
L 2859 1247 
L 2859 331 
L 3609 331 
L 3609 0 
z
" transform="scale(0.015625)"/>
       </defs>
       <use xlink:href="#DejaVuSerif-34"/>
       <use xlink:href="#DejaVuSerif-30" x="63.623047"/>
      </g>
     </g>
    </g>
    <g id="xtick_30">
     <g id="line2d_89">
      <path d="M 289.191139 206.079135 
L 289.191139 165.127002 
" clip-path="url(#p5c7c314545)" style="fill: none; stroke: #b0b0b0; stroke-width: 0.8; stroke-linecap: round"/>
     </g>
     <g id="line2d_90"/>
     <g id="text_21">
      <!-- 50 -->
      <g style="fill: #262626" transform="translate(283.464889 216.417729) scale(0.09 -0.09)">
       <use xlink:href="#DejaVuSerif-35"/>
       <use xlink:href="#DejaVuSerif-30" x="63.623047"/>
      </g>
     </g>
    </g>
    <g id="xtick_31">
     <g id="line2d_91">
      <path d="M 336.163003 206.079135 
L 336.163003 165.127002 
" clip-path="url(#p5c7c314545)" style="fill: none; stroke: #b0b0b0; stroke-width: 0.8; stroke-linecap: round"/>
     </g>
     <g id="line2d_92"/>
     <g id="text_22">
      <!-- 60 -->
      <g style="fill: #262626" transform="translate(330.436753 216.417729) scale(0.09 -0.09)">
       <defs>
        <path id="DejaVuSerif-36" d="M 2094 219 
Q 2534 219 2771 542 
Q 3009 866 3009 1472 
Q 3009 2078 2771 2401 
Q 2534 2725 2094 2725 
Q 1647 2725 1412 2412 
Q 1178 2100 1178 1509 
Q 1178 888 1415 553 
Q 1653 219 2094 219 
z
M 1075 2569 
Q 1288 2803 1556 2918 
Q 1825 3034 2163 3034 
Q 2859 3034 3264 2615 
Q 3669 2197 3669 1472 
Q 3669 763 3233 336 
Q 2797 -91 2069 -91 
Q 1278 -91 853 498 
Q 428 1088 428 2181 
Q 428 3406 931 4078 
Q 1434 4750 2350 4750 
Q 2597 4750 2869 4703 
Q 3141 4656 3425 4563 
L 3425 3794 
L 3072 3794 
Q 3034 4109 2831 4275 
Q 2628 4441 2284 4441 
Q 1678 4441 1381 3981 
Q 1084 3522 1075 2569 
z
" transform="scale(0.015625)"/>
       </defs>
       <use xlink:href="#DejaVuSerif-36"/>
       <use xlink:href="#DejaVuSerif-30" x="63.623047"/>
      </g>
     </g>
    </g>
    <g id="xtick_32">
     <g id="line2d_93">
      <path d="M 383.134868 206.079135 
L 383.134868 165.127002 
" clip-path="url(#p5c7c314545)" style="fill: none; stroke: #b0b0b0; stroke-width: 0.8; stroke-linecap: round"/>
     </g>
     <g id="line2d_94"/>
     <g id="text_23">
      <!-- 70 -->
      <g style="fill: #262626" transform="translate(377.408618 216.417729) scale(0.09 -0.09)">
       <defs>
        <path id="DejaVuSerif-37" d="M 3609 4347 
L 1784 0 
L 1319 0 
L 3059 4153 
L 903 4153 
L 903 3578 
L 538 3578 
L 538 4666 
L 3609 4666 
L 3609 4347 
z
" transform="scale(0.015625)"/>
       </defs>
       <use xlink:href="#DejaVuSerif-37"/>
       <use xlink:href="#DejaVuSerif-30" x="63.623047"/>
      </g>
     </g>
    </g>
    <g id="text_24">
     <!-- Time [s] -->
     <g style="fill: #262626" transform="translate(196.98 229.128041) scale(0.09 -0.09)">
      <defs>
       <path id="DejaVuSerif-54" d="M 1222 0 
L 1222 331 
L 1819 331 
L 1819 4294 
L 447 4294 
L 447 3566 
L 63 3566 
L 63 4666 
L 4206 4666 
L 4206 3566 
L 3822 3566 
L 3822 4294 
L 2450 4294 
L 2450 331 
L 3047 331 
L 3047 0 
L 1222 0 
z
" transform="scale(0.015625)"/>
       <path id="DejaVuSerif-20" transform="scale(0.015625)"/>
       <path id="DejaVuSerif-5b" d="M 550 4863 
L 2003 4863 
L 2003 4531 
L 1147 4531 
L 1147 -513 
L 2003 -513 
L 2003 -844 
L 550 -844 
L 550 4863 
z
" transform="scale(0.015625)"/>
       <path id="DejaVuSerif-73" d="M 359 184 
L 359 959 
L 691 959 
Q 703 588 923 403 
Q 1144 219 1575 219 
Q 1963 219 2166 364 
Q 2369 509 2369 788 
Q 2369 1006 2220 1140 
Q 2072 1275 1594 1428 
L 1178 1569 
Q 750 1706 558 1912 
Q 366 2119 366 2438 
Q 366 2894 700 3153 
Q 1034 3413 1625 3413 
Q 1888 3413 2178 3344 
Q 2469 3275 2778 3144 
L 2778 2419 
L 2447 2419 
Q 2434 2741 2221 2922 
Q 2009 3103 1644 3103 
Q 1281 3103 1095 2975 
Q 909 2847 909 2591 
Q 909 2381 1050 2254 
Q 1191 2128 1613 1997 
L 2069 1856 
Q 2541 1709 2748 1489 
Q 2956 1269 2956 922 
Q 2956 450 2595 179 
Q 2234 -91 1600 -91 
Q 1278 -91 972 -22 
Q 666 47 359 184 
z
" transform="scale(0.015625)"/>
       <path id="DejaVuSerif-5d" d="M 1947 4863 
L 1947 -844 
L 494 -844 
L 494 -513 
L 1350 -513 
L 1350 4531 
L 494 4531 
L 494 4863 
L 1947 4863 
z
" transform="scale(0.015625)"/>
      </defs>
      <use xlink:href="#DejaVuSerif-54"/>
      <use xlink:href="#DejaVuSerif-69" x="66.699219"/>
      <use xlink:href="#DejaVuSerif-6d" x="98.681641"/>
      <use xlink:href="#DejaVuSerif-65" x="193.505859"/>
      <use xlink:href="#DejaVuSerif-20" x="252.685547"/>
      <use xlink:href="#DejaVuSerif-5b" x="284.472656"/>
      <use xlink:href="#DejaVuSerif-73" x="323.486328"/>
      <use xlink:href="#DejaVuSerif-5d" x="374.804688"/>
     </g>
    </g>
   </g>
   <g id="matplotlib.axis_8">
    <g id="ytick_10">
     <g id="line2d_95">
      <path d="M 38.204771 203.908298 
L 392.99976 203.908298 
" clip-path="url(#p5c7c314545)" style="fill: none; stroke: #b0b0b0; stroke-width: 0.8; stroke-linecap: round"/>
     </g>
     <g id="line2d_96"/>
     <g id="text_25">
      <!-- −50 -->
      <g style="fill: #262626" transform="translate(15.710552 207.327595) scale(0.09 -0.09)">
       <use xlink:href="#DejaVuSerif-2212"/>
       <use xlink:href="#DejaVuSerif-35" x="83.789062"/>
       <use xlink:href="#DejaVuSerif-30" x="147.412109"/>
      </g>
     </g>
    </g>
    <g id="ytick_11">
     <g id="line2d_97">
      <path d="M 38.204771 187.224861 
L 392.99976 187.224861 
" clip-path="url(#p5c7c314545)" style="fill: none; stroke: #b0b0b0; stroke-width: 0.8; stroke-linecap: round"/>
     </g>
     <g id="line2d_98"/>
     <g id="text_26">
      <!-- 0 -->
      <g style="fill: #262626" transform="translate(28.978521 190.644158) scale(0.09 -0.09)">
       <use xlink:href="#DejaVuSerif-30"/>
      </g>
     </g>
    </g>
    <g id="ytick_12">
     <g id="line2d_99">
      <path d="M 38.204771 170.541425 
L 392.99976 170.541425 
" clip-path="url(#p5c7c314545)" style="fill: none; stroke: #b0b0b0; stroke-width: 0.8; stroke-linecap: round"/>
     </g>
     <g id="line2d_100"/>
     <g id="text_27">
      <!-- 50 -->
      <g style="fill: #262626" transform="translate(23.252271 173.960722) scale(0.09 -0.09)">
       <use xlink:href="#DejaVuSerif-35"/>
       <use xlink:href="#DejaVuSerif-30" x="63.623047"/>
      </g>
     </g>
    </g>
    <g id="text_28">
     <!-- $Y_H(r)$ -->
     <g style="fill: #262626" transform="translate(9.838834 196.223069) rotate(-90) scale(0.09 -0.09)">
      <use xlink:href="#DejaVuSans-Oblique-59" transform="translate(0 0.125)"/>
      <use xlink:href="#DejaVuSans-Oblique-48" transform="translate(61.083984 -16.28125) scale(0.7)"/>
      <use xlink:href="#DejaVuSans-28" transform="translate(116.455078 0.125)"/>
      <use xlink:href="#DejaVuSans-Oblique-72" transform="translate(155.46875 0.125)"/>
      <use xlink:href="#DejaVuSans-29" transform="translate(196.582031 0.125)"/>
     </g>
    </g>
   </g>
   <g id="line2d_101">
    <path d="M 54.331816 187.224861 
L 376.872715 187.224861 
L 376.872715 187.224861 
" clip-path="url(#p5c7c314545)" style="fill: none; stroke: #0000ff; stroke-width: 0.75; stroke-linecap: round"/>
   </g>
   <g id="line2d_102">
    <path d="M 54.331816 187.224861 
L 376.872715 187.224861 
L 376.872715 187.224861 
" clip-path="url(#p5c7c314545)" style="fill: none; stroke: #008000; stroke-width: 0.75; stroke-linecap: round"/>
   </g>
   <g id="line2d_103">
    <path d="M 54.331816 187.224861 
L 376.872715 187.224861 
L 376.872715 187.224861 
" clip-path="url(#p5c7c314545)" style="fill: none; stroke: #ff0000; stroke-width: 0.75; stroke-linecap: round"/>
   </g>
   <g id="patch_12">
    <path d="M 38.204771 206.079135 
L 38.204771 165.127002 
" style="fill: none; stroke: #000000; stroke-linejoin: miter; stroke-linecap: square"/>
   </g>
   <g id="patch_13">
    <path d="M 38.204771 206.079135 
L 392.99976 206.079135 
" style="fill: none; stroke: #000000; stroke-linejoin: miter; stroke-linecap: square"/>
   </g>
  </g>
 </g>
 <defs>
  <clipPath id="p569796bfba">
   <rect x="38.204771" y="14.926802" width="354.794989" height="40.952133"/>
  </clipPath>
  <clipPath id="pa32d9e8fc1">
   <rect x="38.204771" y="64.993535" width="354.794989" height="40.952133"/>
  </clipPath>
  <clipPath id="p7a42f120e9">
   <rect x="38.204771" y="115.060269" width="354.794989" height="40.952133"/>
  </clipPath>
  <clipPath id="p5c7c314545">
   <rect x="38.204771" y="165.127002" width="354.794989" height="40.952133"/>
  </clipPath>
 </defs>
</svg>
