<?xml version="1.0" encoding="utf-8" standalone="no"?>
<!DOCTYPE svg PUBLIC "-//W3C//DTD SVG 1.1//EN"
  "http://www.w3.org/Graphics/SVG/1.1/DTD/svg11.dtd">
<svg xmlns:xlink="http://www.w3.org/1999/xlink" width="446.4pt" height="345.6pt" viewBox="0 0 446.4 345.6" xmlns="http://www.w3.org/2000/svg" version="1.1">
 <metadata>
  <rdf:RDF xmlns:dc="http://purl.org/dc/elements/1.1/" xmlns:cc="http://creativecommons.org/ns#" xmlns:rdf="http://www.w3.org/1999/02/22-rdf-syntax-ns#">
   <cc:Work>
    <dc:type rdf:resource="http://purl.org/dc/dcmitype/StillImage"/>
    <dc:date>2024-02-12T14:00:23.194541</dc:date>
    <dc:format>image/svg+xml</dc:format>
    <dc:creator>
     <cc:Agent>
      <dc:title>Matplotlib v3.8.2, https://matplotlib.org/</dc:title>
     </cc:Agent>
    </dc:creator>
   </cc:Work>
  </rdf:RDF>
 </metadata>
 <defs>
  <style type="text/css">*{stroke-linejoin: round; stroke-linecap: butt}</style>
 </defs>
 <g id="figure_1">
  <g id="patch_1">
   <path d="M 0 345.6 
L 446.4 345.6 
L 446.4 0 
L 0 0 
z
" style="fill: #ffffff"/>
  </g>
  <g id="axes_1">
   <g id="patch_2">
    <path d="M 38.204771 88.170622 
L 443.39976 88.170622 
L 443.39976 19.286421 
L 38.204771 19.286421 
z
" style="fill: #ffffff"/>
   </g>
   <g id="matplotlib.axis_1">
    <g id="xtick_1">
     <g id="line2d_1">
      <path d="M 56.622725 88.170622 
L 56.622725 19.286421 
" clip-path="url(#p068e6319ee)" style="fill: none; stroke: #b0b0b0; stroke-width: 0.8; stroke-linecap: round"/>
     </g>
     <g id="line2d_2"/>
    </g>
    <g id="xtick_2">
     <g id="line2d_3">
      <path d="M 110.267125 88.170622 
L 110.267125 19.286421 
" clip-path="url(#p068e6319ee)" style="fill: none; stroke: #b0b0b0; stroke-width: 0.8; stroke-linecap: round"/>
     </g>
     <g id="line2d_4"/>
    </g>
    <g id="xtick_3">
     <g id="line2d_5">
      <path d="M 163.911524 88.170622 
L 163.911524 19.286421 
" clip-path="url(#p068e6319ee)" style="fill: none; stroke: #b0b0b0; stroke-width: 0.8; stroke-linecap: round"/>
     </g>
     <g id="line2d_6"/>
    </g>
    <g id="xtick_4">
     <g id="line2d_7">
      <path d="M 217.555924 88.170622 
L 217.555924 19.286421 
" clip-path="url(#p068e6319ee)" style="fill: none; stroke: #b0b0b0; stroke-width: 0.8; stroke-linecap: round"/>
     </g>
     <g id="line2d_8"/>
    </g>
    <g id="xtick_5">
     <g id="line2d_9">
      <path d="M 271.200323 88.170622 
L 271.200323 19.286421 
" clip-path="url(#p068e6319ee)" style="fill: none; stroke: #b0b0b0; stroke-width: 0.8; stroke-linecap: round"/>
     </g>
     <g id="line2d_10"/>
    </g>
    <g id="xtick_6">
     <g id="line2d_11">
      <path d="M 324.844723 88.170622 
L 324.844723 19.286421 
" clip-path="url(#p068e6319ee)" style="fill: none; stroke: #b0b0b0; stroke-width: 0.8; stroke-linecap: round"/>
     </g>
     <g id="line2d_12"/>
    </g>
    <g id="xtick_7">
     <g id="line2d_13">
      <path d="M 378.489122 88.170622 
L 378.489122 19.286421 
" clip-path="url(#p068e6319ee)" style="fill: none; stroke: #b0b0b0; stroke-width: 0.8; stroke-linecap: round"/>
     </g>
     <g id="line2d_14"/>
    </g>
    <g id="xtick_8">
     <g id="line2d_15">
      <path d="M 432.133522 88.170622 
L 432.133522 19.286421 
" clip-path="url(#p068e6319ee)" style="fill: none; stroke: #b0b0b0; stroke-width: 0.8; stroke-linecap: round"/>
     </g>
     <g id="line2d_16"/>
    </g>
   </g>
   <g id="matplotlib.axis_2">
    <g id="ytick_1">
     <g id="line2d_17">
      <path d="M 38.204771 84.51913 
L 443.39976 84.51913 
" clip-path="url(#p068e6319ee)" style="fill: none; stroke: #b0b0b0; stroke-width: 0.8; stroke-linecap: round"/>
     </g>
     <g id="line2d_18"/>
     <g id="text_1">
      <!-- −50 -->
      <g style="fill: #262626" transform="translate(15.710552 87.938427) scale(0.09 -0.09)">
       <defs>
        <path id="DejaVuSerif-2212" d="M 678 2259 
L 4684 2259 
L 4684 1753 
L 678 1753 
L 678 2259 
z
" transform="scale(0.015625)"/>
        <path id="DejaVuSerif-35" d="M 3219 4666 
L 3219 4153 
L 1081 4153 
L 1081 2816 
Q 1244 2928 1461 2984 
Q 1678 3041 1947 3041 
Q 2703 3041 3140 2622 
Q 3578 2203 3578 1478 
Q 3578 738 3136 323 
Q 2694 -91 1894 -91 
Q 1572 -91 1234 -12 
Q 897 66 544 225 
L 544 1131 
L 897 1131 
Q 925 688 1179 453 
Q 1434 219 1894 219 
Q 2388 219 2653 544 
Q 2919 869 2919 1478 
Q 2919 2084 2655 2407 
Q 2391 2731 1894 2731 
Q 1613 2731 1398 2631 
Q 1184 2531 1019 2322 
L 750 2322 
L 750 4666 
L 3219 4666 
z
" transform="scale(0.015625)"/>
        <path id="DejaVuSerif-30" d="M 2034 219 
Q 2513 219 2750 744 
Q 2988 1269 2988 2328 
Q 2988 3391 2750 3916 
Q 2513 4441 2034 4441 
Q 1556 4441 1318 3916 
Q 1081 3391 1081 2328 
Q 1081 1269 1318 744 
Q 1556 219 2034 219 
z
M 2034 -91 
Q 1275 -91 848 546 
Q 422 1184 422 2328 
Q 422 3475 848 4112 
Q 1275 4750 2034 4750 
Q 2797 4750 3222 4112 
Q 3647 3475 3647 2328 
Q 3647 1184 3222 546 
Q 2797 -91 2034 -91 
z
" transform="scale(0.015625)"/>
       </defs>
       <use xlink:href="#DejaVuSerif-2212"/>
       <use xlink:href="#DejaVuSerif-35" x="83.789062"/>
       <use xlink:href="#DejaVuSerif-30" x="147.412109"/>
      </g>
     </g>
    </g>
    <g id="ytick_2">
     <g id="line2d_19">
      <path d="M 38.204771 56.456484 
L 443.39976 56.456484 
" clip-path="url(#p068e6319ee)" style="fill: none; stroke: #b0b0b0; stroke-width: 0.8; stroke-linecap: round"/>
     </g>
     <g id="line2d_20"/>
     <g id="text_2">
      <!-- 0 -->
      <g style="fill: #262626" transform="translate(28.978521 59.875781) scale(0.09 -0.09)">
       <use xlink:href="#DejaVuSerif-30"/>
      </g>
     </g>
    </g>
    <g id="ytick_3">
     <g id="line2d_21">
      <path d="M 38.204771 28.393839 
L 443.39976 28.393839 
" clip-path="url(#p068e6319ee)" style="fill: none; stroke: #b0b0b0; stroke-width: 0.8; stroke-linecap: round"/>
     </g>
     <g id="line2d_22"/>
     <g id="text_3">
      <!-- 50 -->
      <g style="fill: #262626" transform="translate(23.252271 31.813136) scale(0.09 -0.09)">
       <use xlink:href="#DejaVuSerif-35"/>
       <use xlink:href="#DejaVuSerif-30" x="63.623047"/>
      </g>
     </g>
    </g>
    <g id="text_4">
     <!-- $N_H(v)$ -->
     <g style="fill: #262626" transform="translate(9.838834 65.788521) rotate(-90) scale(0.09 -0.09)">
      <defs>
       <path id="DejaVuSans-Oblique-4e" d="M 1081 4666 
L 1931 4666 
L 3219 666 
L 4000 4666 
L 4616 4666 
L 3706 0 
L 2853 0 
L 1569 4025 
L 788 0 
L 172 0 
L 1081 4666 
z
" transform="scale(0.015625)"/>
       <path id="DejaVuSans-Oblique-48" d="M 1081 4666 
L 1716 4666 
L 1344 2753 
L 3634 2753 
L 4006 4666 
L 4641 4666 
L 3731 0 
L 3097 0 
L 3531 2222 
L 1241 2222 
L 806 0 
L 172 0 
L 1081 4666 
z
" transform="scale(0.015625)"/>
       <path id="DejaVuSans-28" d="M 1984 4856 
Q 1566 4138 1362 3434 
Q 1159 2731 1159 2009 
Q 1159 1288 1364 580 
Q 1569 -128 1984 -844 
L 1484 -844 
Q 1016 -109 783 600 
Q 550 1309 550 2009 
Q 550 2706 781 3412 
Q 1013 4119 1484 4856 
L 1984 4856 
z
" transform="scale(0.015625)"/>
       <path id="DejaVuSans-Oblique-76" d="M 459 3500 
L 1069 3500 
L 1581 525 
L 3256 3500 
L 3866 3500 
L 1875 0 
L 1100 0 
L 459 3500 
z
" transform="scale(0.015625)"/>
       <path id="DejaVuSans-29" d="M 513 4856 
L 1013 4856 
Q 1481 4119 1714 3412 
Q 1947 2706 1947 2009 
Q 1947 1309 1714 600 
Q 1481 -109 1013 -844 
L 513 -844 
Q 928 -128 1133 580 
Q 1338 1288 1338 2009 
Q 1338 2731 1133 3434 
Q 928 4138 513 4856 
z
" transform="scale(0.015625)"/>
      </defs>
      <use xlink:href="#DejaVuSans-Oblique-4e" transform="translate(0 0.125)"/>
      <use xlink:href="#DejaVuSans-Oblique-48" transform="translate(74.804688 -16.28125) scale(0.7)"/>
      <use xlink:href="#DejaVuSans-28" transform="translate(130.175781 0.125)"/>
      <use xlink:href="#DejaVuSans-Oblique-76" transform="translate(169.189453 0.125)"/>
      <use xlink:href="#DejaVuSans-29" transform="translate(228.369141 0.125)"/>
     </g>
    </g>
   </g>
   <g id="line2d_23">
    <path d="M 56.622725 56.441925 
L 58.38113 56.501446 
L 59.553399 56.770098 
L 60.938809 57.332032 
L 64.615473 59.180016 
L 66.906727 60.563107 
L 70.370251 62.33046 
L 72.92793 63.725925 
L 76.071744 66.217248 
L 77.936718 67.041796 
L 78.576138 67.200212 
L 80.121402 67.231597 
L 81.027247 67.613791 
L 82.838936 68.836053 
L 84.490771 69.810108 
L 86.19589 70.606524 
L 86.568885 70.597858 
L 88.11415 70.413417 
L 88.913424 70.813694 
L 90.138979 71.546906 
L 91.151394 71.938773 
L 94.241923 72.583946 
L 94.721487 72.469297 
L 95.787187 72.178187 
L 96.586462 72.273901 
L 99.410566 72.72726 
L 100.369696 72.556171 
L 101.16897 72.215328 
L 102.44781 71.537983 
L 104.259499 69.972102 
L 106.550753 68.943992 
L 107.563168 68.241338 
L 108.842008 67.050013 
L 112.412101 63.674254 
L 114.863211 62.042426 
L 119.285864 58.484617 
L 120.671274 57.390019 
L 123.282238 55.618568 
L 126.319482 53.918484 
L 129.569866 52.176058 
L 131.274985 50.998679 
L 133.566239 49.891544 
L 134.525369 49.612162 
L 135.857494 49.395114 
L 136.869908 48.993473 
L 140.120292 47.495461 
L 142.251691 46.846444 
L 143.583816 46.737198 
L 144.489661 46.40266 
L 146.887485 45.231475 
L 148.486034 44.822133 
L 150.191154 44.55322 
L 151.363423 44.707493 
L 152.002843 44.520437 
L 154.826947 43.394341 
L 156.478782 42.999829 
L 158.130616 42.800734 
L 159.622596 43.061681 
L 160.262015 42.907112 
L 161.70071 42.266895 
L 162.819694 41.838152 
L 164.098534 41.615752 
L 166.016793 41.482932 
L 166.816068 41.832411 
L 167.562058 42.001311 
L 168.201478 41.905604 
L 169.320462 41.495309 
L 170.972297 40.953703 
L 172.464276 40.709578 
L 174.062826 40.678333 
L 175.18181 41.113931 
L 175.9278 41.071036 
L 180.030744 40.22012 
L 182.321998 40.490907 
L 183.334413 40.907678 
L 183.973832 40.902154 
L 184.932962 40.573228 
L 186.584796 39.999182 
L 188.076776 39.811431 
L 189.195761 39.915651 
L 189.888465 40.13729 
L 191.75344 41.367247 
L 193.032279 41.461698 
L 194.684114 41.68762 
L 195.803098 41.940946 
L 197.135223 42.475134 
L 197.934498 42.956718 
L 199.959327 44.65568 
L 201.184881 45.221655 
L 201.984156 45.744484 
L 203.529421 47.082906 
L 206.72652 49.608737 
L 207.738934 50.165166 
L 209.550624 51.091523 
L 211.628738 52.651928 
L 213.973277 54.232171 
L 215.625112 55.258893 
L 218.502501 56.782855 
L 223.404719 59.100784 
L 225.163123 60.03283 
L 227.187953 61.008713 
L 228.999642 61.665415 
L 229.958772 61.910592 
L 231.450751 62.222912 
L 232.676306 62.729532 
L 234.914275 63.56968 
L 237.685094 64.458617 
L 239.336929 64.639752 
L 243.972722 66.151739 
L 245.837696 66.42916 
L 247.063251 66.409174 
L 247.969096 66.715772 
L 250.26035 67.728283 
L 252.125324 68.07238 
L 253.883729 68.087651 
L 254.683003 67.918147 
L 255.428993 68.009166 
L 256.974258 68.597207 
L 258.306382 69.074914 
L 259.425367 69.26801 
L 261.556766 69.461166 
L 262.942176 69.076407 
L 263.52831 69.156417 
L 264.967005 69.710595 
L 266.19256 70.082496 
L 267.364829 70.252553 
L 269.496228 70.288314 
L 270.988208 69.827833 
L 271.680913 69.966591 
L 273.705742 70.60341 
L 275.730571 70.912996 
L 277.169266 70.875077 
L 277.702116 70.660921 
L 278.448105 70.392399 
L 279.300665 70.394449 
L 280.20651 70.637674 
L 281.591919 71.113319 
L 283.030614 71.373337 
L 285.268583 71.313255 
L 286.014573 70.90854 
L 286.760563 70.625137 
L 287.613122 70.589328 
L 289.211672 70.623123 
L 290.756936 70.220421 
L 291.769351 69.97948 
L 292.728481 69.599571 
L 293.421185 69.203338 
L 294.700025 68.313473 
L 295.659155 67.930166 
L 297.417559 67.266741 
L 298.749684 66.264161 
L 300.881083 64.537673 
L 301.680358 63.863728 
L 302.639487 63.07653 
L 303.438762 62.702901 
L 305.730016 61.715434 
L 307.754846 60.424959 
L 311.697934 57.867902 
L 315.214743 56.118172 
L 318.465127 54.757831 
L 319.850536 54.091028 
L 323.473915 52.273536 
L 324.965895 51.702556 
L 325.871739 51.634549 
L 326.937439 51.427239 
L 328.802413 50.628243 
L 330.454248 49.984907 
L 333.438207 49.266737 
L 334.717046 49.056828 
L 335.995886 48.55043 
L 338.18057 47.671989 
L 340.2054 47.206942 
L 341.271099 47.120354 
L 342.390084 47.191819 
L 343.668923 46.886767 
L 346.013463 45.841658 
L 348.837567 45.273569 
L 349.476986 45.401445 
L 350.436116 45.534216 
L 351.235391 45.549872 
L 351.768241 45.302586 
L 353.633215 44.385479 
L 356.084324 44.048817 
L 357.096739 44.135396 
L 357.789444 44.306727 
L 358.375578 44.310857 
L 359.334708 44.024854 
L 361.306252 43.306323 
L 364.609921 43.020495 
L 365.249341 43.291665 
L 366.101901 43.502578 
L 366.847891 43.349326 
L 369.139145 42.578081 
L 371.643539 42.318318 
L 373.028948 42.395417 
L 374.094648 42.829785 
L 374.734068 42.806849 
L 375.959623 42.444007 
L 378.570587 41.816394 
L 380.648701 41.950987 
L 381.288121 42.204648 
L 382.193965 42.551076 
L 382.88667 42.48299 
L 383.472805 42.224359 
L 384.48522 41.813918 
L 385.231209 41.71133 
L 386.296909 41.71599 
L 387.042899 41.888162 
L 388.907873 42.71437 
L 390.080143 43.510618 
L 390.826132 43.745848 
L 391.572122 43.81152 
L 392.850962 44.019342 
L 394.236371 44.416631 
L 395.515211 45.183051 
L 396.847335 46.298503 
L 398.07289 47.495415 
L 399.991149 48.673266 
L 405.372933 51.826091 
L 407.344477 53.091327 
L 412.992685 56.318431 
L 416.669349 57.983774 
L 418.694178 58.945996 
L 421.571567 60.086673 
L 422.583982 60.491463 
L 424.981806 61.556019 
L 424.981806 61.556019 
" clip-path="url(#p068e6319ee)" style="fill: none; stroke: #0000ff; stroke-linecap: round"/>
   </g>
   <g id="line2d_24">
    <path d="M 56.622725 56.443909 
L 58.4877 56.508391 
L 59.766539 56.789033 
L 61.365089 57.389653 
L 65.041752 59.051966 
L 67.173152 60.124829 
L 72.92793 62.735208 
L 76.071744 64.887001 
L 78.043288 65.63556 
L 78.735993 65.730385 
L 79.961547 65.732446 
L 80.867392 66.020056 
L 81.933092 66.605866 
L 84.330916 67.912852 
L 86.355745 68.694871 
L 86.888595 68.597498 
L 87.741155 68.438478 
L 88.380575 68.603697 
L 89.339704 69.103197 
L 90.458689 69.628001 
L 91.417819 69.884341 
L 94.614917 70.326088 
L 95.787187 70.035553 
L 96.639747 70.127332 
L 98.717861 70.532028 
L 99.783561 70.474103 
L 100.902545 70.177874 
L 102.44781 69.482599 
L 104.259499 68.130124 
L 106.657323 67.187571 
L 107.936163 66.358705 
L 110.333987 64.32353 
L 111.719397 63.092392 
L 112.998236 62.39702 
L 114.277076 61.676267 
L 118.806299 58.584594 
L 120.777844 57.196193 
L 123.761803 55.477855 
L 126.479337 54.19801 
L 129.250156 52.964999 
L 131.807835 51.507335 
L 134.205659 50.587974 
L 136.976478 49.964772 
L 139.800582 48.820963 
L 142.198406 48.157325 
L 143.743671 48.021355 
L 144.702801 47.674587 
L 146.567775 46.858467 
L 148.859029 46.328585 
L 150.244439 46.185752 
L 151.256853 46.312261 
L 151.896273 46.18129 
L 156.372212 44.845596 
L 158.343756 44.714058 
L 159.302886 44.89856 
L 160.20873 44.770192 
L 161.753995 44.178106 
L 163.032834 43.783493 
L 164.791239 43.576424 
L 166.283218 43.608181 
L 167.562058 43.971336 
L 168.254763 43.876348 
L 169.480317 43.482224 
L 171.665001 42.951342 
L 173.956256 42.792518 
L 175.661375 43.206583 
L 176.513935 43.020499 
L 178.325624 42.600434 
L 180.030744 42.432895 
L 182.321998 42.666778 
L 183.387698 43.033153 
L 184.080402 43.000284 
L 185.092817 42.678153 
L 186.371656 42.279947 
L 187.970206 42.080047 
L 189.568755 42.237187 
L 189.94175 42.395023 
L 191.5403 43.372485 
L 192.286289 43.473849 
L 195.270248 43.799578 
L 196.708943 44.207954 
L 197.827928 44.713653 
L 200.225752 46.383188 
L 202.250581 47.393398 
L 207.152799 50.772079 
L 210.403183 52.362504 
L 213.387142 54.184257 
L 216.957236 56.059482 
L 222.179164 58.290766 
L 224.203994 59.090963 
L 226.868243 60.265721 
L 228.626647 60.84011 
L 229.958772 61.167278 
L 231.504036 61.45169 
L 232.836161 61.933966 
L 237.525239 63.3599 
L 239.656639 63.62744 
L 242.907022 64.599468 
L 244.985137 65.029978 
L 245.731126 65.08448 
L 246.850111 65.019848 
L 247.755956 65.239391 
L 251.32605 66.380586 
L 253.297594 66.596678 
L 253.883729 66.502496 
L 254.736288 66.355054 
L 255.428993 66.434707 
L 257.134113 66.998858 
L 258.572807 67.403748 
L 260.384497 67.6694 
L 261.396911 67.733176 
L 262.995461 67.355151 
L 263.74145 67.490744 
L 267.151689 68.352255 
L 269.496228 68.403241 
L 271.041493 68.008333 
L 271.734198 68.142456 
L 273.386032 68.636056 
L 277.062696 68.925134 
L 277.648831 68.747302 
L 278.554675 68.480424 
L 279.24738 68.490549 
L 280.09994 68.664627 
L 282.071484 69.245575 
L 282.764189 69.335601 
L 285.268583 69.288498 
L 286.121143 68.887989 
L 286.813848 68.686467 
L 287.879547 68.692637 
L 288.838677 68.729304 
L 290.064231 68.530966 
L 292.302201 67.962075 
L 293.527755 67.393173 
L 294.593455 66.750254 
L 295.60587 66.381509 
L 297.524129 65.735005 
L 298.483259 65.122052 
L 303.119052 61.96053 
L 306.529291 60.598099 
L 309.19354 59.02935 
L 310.68552 58.140966 
L 313.243199 56.97463 
L 318.251987 55.058487 
L 319.424257 54.595785 
L 325.01918 52.341518 
L 325.978309 52.283717 
L 326.990724 52.095841 
L 328.695843 51.463158 
L 330.667388 50.81039 
L 332.852072 50.266964 
L 334.823616 50.03744 
L 335.942601 49.650165 
L 337.86086 48.965224 
L 339.35284 48.601074 
L 341.164529 48.377404 
L 342.390084 48.454455 
L 343.668923 48.190978 
L 346.066748 47.277358 
L 349.263847 46.855569 
L 350.862396 47.075954 
L 351.448531 46.968245 
L 352.354375 46.521683 
L 353.633215 46.030578 
L 356.137609 45.739421 
L 357.309879 45.881875 
L 358.109154 45.989963 
L 358.855143 45.859097 
L 359.974128 45.505312 
L 361.199682 45.112663 
L 364.343496 44.846669 
L 364.929631 44.964838 
L 365.995331 45.268242 
L 366.794606 45.150957 
L 369.83185 44.391403 
L 372.016534 44.234558 
L 373.135518 44.357004 
L 374.147933 44.692615 
L 374.893923 44.633492 
L 378.357447 43.816758 
L 379.210006 43.863395 
L 380.595416 43.922535 
L 381.128266 44.07503 
L 382.087395 44.435428 
L 382.833385 44.395892 
L 383.366235 44.212641 
L 384.325365 43.861167 
L 384.964784 43.741186 
L 386.883044 43.826503 
L 388.694733 44.449054 
L 390.239998 45.337917 
L 391.199127 45.524175 
L 392.477967 45.643586 
L 394.396226 46.125996 
L 395.941491 46.993521 
L 397.00719 47.832197 
L 398.126175 48.748057 
L 399.884579 49.684775 
L 402.921823 51.180799 
L 405.959067 52.800374 
L 408.836456 54.335244 
L 411.55399 55.745745 
L 413.25911 56.430285 
L 415.710219 57.353707 
L 419.973018 59.149157 
L 421.305142 59.533616 
L 422.370842 59.857837 
L 424.981806 60.861028 
L 424.981806 60.861028 
" clip-path="url(#p068e6319ee)" style="fill: none; stroke: #008000; stroke-linecap: round"/>
   </g>
   <g id="line2d_25">
    <path d="M 56.622725 56.454657 
L 60.672384 56.550857 
L 72.82136 57.357787 
L 77.883433 57.78291 
L 95.360907 58.438348 
L 97.918586 58.485448 
L 100.795975 58.457569 
L 108.096018 57.877739 
L 117.20775 56.928666 
L 127.118756 56.093433 
L 147.47362 55.027381 
L 158.237186 54.745992 
L 160.84815 54.725857 
L 165.537229 54.576586 
L 182.375283 54.455815 
L 184.453397 54.486767 
L 189.249046 54.381348 
L 197.934498 54.761875 
L 202.144011 55.128021 
L 208.484924 55.707282 
L 212.641153 56.065299 
L 221.06018 56.661015 
L 230.704762 57.15426 
L 236.2464 57.406364 
L 246.903396 57.702048 
L 269.656083 58.184353 
L 272.000623 58.16995 
L 275.091152 58.261488 
L 278.767815 58.201632 
L 281.272209 58.286124 
L 285.321868 58.318816 
L 289.211672 58.234806 
L 293.847465 58.013874 
L 297.044564 57.83916 
L 300.294948 57.524899 
L 305.783301 57.11278 
L 321.235946 56.066934 
L 326.671014 55.835187 
L 338.18057 55.353777 
L 349.317132 55.06272 
L 351.874811 55.048533 
L 355.338334 54.905677 
L 388.907873 54.731453 
L 391.412267 54.868154 
L 395.248786 55.017957 
L 409.156166 56.173909 
L 417.202199 56.683019 
L 424.981806 57.096623 
L 424.981806 57.096623 
" clip-path="url(#p068e6319ee)" style="fill: none; stroke: #ff0000; stroke-linecap: round"/>
   </g>
   <g id="patch_3">
    <path d="M 38.204771 88.170622 
L 38.204771 19.286421 
" style="fill: none; stroke: #000000; stroke-linejoin: miter; stroke-linecap: square"/>
   </g>
   <g id="patch_4">
    <path d="M 38.204771 88.170622 
L 443.39976 88.170622 
" style="fill: none; stroke: #000000; stroke-linejoin: miter; stroke-linecap: square"/>
   </g>
   <g id="legend_1">
    <g id="line2d_26">
     <path d="M 72.517031 10.409755 
L 81.517031 10.409755 
L 90.517031 10.409755 
" style="fill: none; stroke: #0000ff; stroke-linecap: round"/>
    </g>
    <g id="text_5">
     <!-- Reference model -->
     <g style="fill: #262626" transform="translate(97.717031 13.559755) scale(0.09 -0.09)">
      <defs>
       <path id="DejaVuSerif-52" d="M 3066 2316 
Q 3284 2256 3442 2114 
Q 3600 1972 3725 1716 
L 4403 331 
L 4972 331 
L 4972 0 
L 3872 0 
L 3144 1484 
Q 2934 1916 2759 2042 
Q 2584 2169 2278 2169 
L 1581 2169 
L 1581 331 
L 2241 331 
L 2241 0 
L 353 0 
L 353 331 
L 947 331 
L 947 4331 
L 353 4331 
L 353 4666 
L 2719 4666 
Q 3400 4666 3770 4341 
Q 4141 4016 4141 3419 
Q 4141 2938 3870 2661 
Q 3600 2384 3066 2316 
z
M 1581 2503 
L 2503 2503 
Q 2975 2503 3200 2726 
Q 3425 2950 3425 3419 
Q 3425 3888 3200 4109 
Q 2975 4331 2503 4331 
L 1581 4331 
L 1581 2503 
z
" transform="scale(0.015625)"/>
       <path id="DejaVuSerif-65" d="M 3469 1600 
L 991 1600 
L 991 1575 
Q 991 903 1244 561 
Q 1497 219 1991 219 
Q 2369 219 2611 417 
Q 2853 616 2950 1006 
L 3413 1006 
Q 3275 459 2904 184 
Q 2534 -91 1931 -91 
Q 1203 -91 761 389 
Q 319 869 319 1663 
Q 319 2450 753 2931 
Q 1188 3413 1894 3413 
Q 2647 3413 3050 2948 
Q 3453 2484 3469 1600 
z
M 2791 1931 
Q 2772 2513 2545 2808 
Q 2319 3103 1894 3103 
Q 1497 3103 1269 2806 
Q 1041 2509 991 1931 
L 2791 1931 
z
" transform="scale(0.015625)"/>
       <path id="DejaVuSerif-66" d="M 2753 4078 
L 2450 4078 
Q 2447 4313 2317 4434 
Q 2188 4556 1941 4556 
Q 1619 4556 1487 4379 
Q 1356 4203 1356 3750 
L 1356 3322 
L 2284 3322 
L 2284 2988 
L 1356 2988 
L 1356 331 
L 2094 331 
L 2094 0 
L 231 0 
L 231 331 
L 781 331 
L 781 2988 
L 231 2988 
L 231 3322 
L 781 3322 
L 781 3738 
Q 781 4294 1070 4578 
Q 1359 4863 1919 4863 
Q 2128 4863 2337 4825 
Q 2547 4788 2753 4709 
L 2753 4078 
z
" transform="scale(0.015625)"/>
       <path id="DejaVuSerif-72" d="M 3059 3328 
L 3059 2497 
L 2728 2497 
Q 2713 2744 2591 2866 
Q 2469 2988 2234 2988 
Q 1809 2988 1582 2694 
Q 1356 2400 1356 1850 
L 1356 331 
L 2022 331 
L 2022 0 
L 263 0 
L 263 331 
L 781 331 
L 781 2994 
L 231 2994 
L 231 3322 
L 1356 3322 
L 1356 2731 
Q 1525 3078 1790 3245 
Q 2056 3413 2438 3413 
Q 2578 3413 2733 3391 
Q 2888 3369 3059 3328 
z
" transform="scale(0.015625)"/>
       <path id="DejaVuSerif-6e" d="M 263 0 
L 263 331 
L 781 331 
L 781 2988 
L 231 2988 
L 231 3322 
L 1356 3322 
L 1356 2731 
Q 1516 3069 1770 3241 
Q 2025 3413 2363 3413 
Q 2913 3413 3172 3097 
Q 3431 2781 3431 2113 
L 3431 331 
L 3944 331 
L 3944 0 
L 2356 0 
L 2356 331 
L 2853 331 
L 2853 1931 
Q 2853 2541 2703 2767 
Q 2553 2994 2175 2994 
Q 1775 2994 1565 2701 
Q 1356 2409 1356 1850 
L 1356 331 
L 1856 331 
L 1856 0 
L 263 0 
z
" transform="scale(0.015625)"/>
       <path id="DejaVuSerif-63" d="M 3291 997 
Q 3169 466 2822 187 
Q 2475 -91 1925 -91 
Q 1200 -91 759 389 
Q 319 869 319 1663 
Q 319 2459 759 2936 
Q 1200 3413 1925 3413 
Q 2241 3413 2553 3339 
Q 2866 3266 3181 3116 
L 3181 2266 
L 2847 2266 
Q 2781 2703 2561 2903 
Q 2341 3103 1931 3103 
Q 1466 3103 1228 2742 
Q 991 2381 991 1663 
Q 991 944 1227 581 
Q 1463 219 1931 219 
Q 2303 219 2525 412 
Q 2747 606 2828 997 
L 3291 997 
z
" transform="scale(0.015625)"/>
       <path id="DejaVuSerif-20" transform="scale(0.015625)"/>
       <path id="DejaVuSerif-6d" d="M 3316 2675 
Q 3481 3041 3739 3227 
Q 3997 3413 4341 3413 
Q 4863 3413 5119 3089 
Q 5375 2766 5375 2113 
L 5375 331 
L 5894 331 
L 5894 0 
L 4300 0 
L 4300 331 
L 4800 331 
L 4800 2047 
Q 4800 2556 4650 2772 
Q 4500 2988 4153 2988 
Q 3769 2988 3567 2697 
Q 3366 2406 3366 1850 
L 3366 331 
L 3866 331 
L 3866 0 
L 2291 0 
L 2291 331 
L 2791 331 
L 2791 2069 
Q 2791 2566 2641 2777 
Q 2491 2988 2144 2988 
Q 1759 2988 1557 2697 
Q 1356 2406 1356 1850 
L 1356 331 
L 1856 331 
L 1856 0 
L 263 0 
L 263 331 
L 781 331 
L 781 2994 
L 231 2994 
L 231 3322 
L 1356 3322 
L 1356 2731 
Q 1516 3063 1762 3238 
Q 2009 3413 2322 3413 
Q 2709 3413 2968 3220 
Q 3228 3028 3316 2675 
z
" transform="scale(0.015625)"/>
       <path id="DejaVuSerif-6f" d="M 1925 219 
Q 2388 219 2623 584 
Q 2859 950 2859 1663 
Q 2859 2375 2623 2739 
Q 2388 3103 1925 3103 
Q 1463 3103 1227 2739 
Q 991 2375 991 1663 
Q 991 950 1228 584 
Q 1466 219 1925 219 
z
M 1925 -91 
Q 1200 -91 759 389 
Q 319 869 319 1663 
Q 319 2456 758 2934 
Q 1197 3413 1925 3413 
Q 2653 3413 3092 2934 
Q 3531 2456 3531 1663 
Q 3531 869 3092 389 
Q 2653 -91 1925 -91 
z
" transform="scale(0.015625)"/>
       <path id="DejaVuSerif-64" d="M 3359 331 
L 3909 331 
L 3909 0 
L 2784 0 
L 2784 519 
Q 2616 206 2355 57 
Q 2094 -91 1709 -91 
Q 1097 -91 708 395 
Q 319 881 319 1663 
Q 319 2444 706 2928 
Q 1094 3413 1709 3413 
Q 2094 3413 2355 3264 
Q 2616 3116 2784 2803 
L 2784 4531 
L 2241 4531 
L 2241 4863 
L 3359 4863 
L 3359 331 
z
M 2784 1497 
L 2784 1825 
Q 2784 2422 2554 2737 
Q 2325 3053 1888 3053 
Q 1444 3053 1217 2703 
Q 991 2353 991 1663 
Q 991 975 1217 622 
Q 1444 269 1888 269 
Q 2325 269 2554 583 
Q 2784 897 2784 1497 
z
" transform="scale(0.015625)"/>
       <path id="DejaVuSerif-6c" d="M 1313 331 
L 1856 331 
L 1856 0 
L 184 0 
L 184 331 
L 738 331 
L 738 4531 
L 184 4531 
L 184 4863 
L 1313 4863 
L 1313 331 
z
" transform="scale(0.015625)"/>
      </defs>
      <use xlink:href="#DejaVuSerif-52"/>
      <use xlink:href="#DejaVuSerif-65" x="75.292969"/>
      <use xlink:href="#DejaVuSerif-66" x="134.472656"/>
      <use xlink:href="#DejaVuSerif-65" x="171.484375"/>
      <use xlink:href="#DejaVuSerif-72" x="230.664062"/>
      <use xlink:href="#DejaVuSerif-65" x="278.466797"/>
      <use xlink:href="#DejaVuSerif-6e" x="337.646484"/>
      <use xlink:href="#DejaVuSerif-63" x="402.050781"/>
      <use xlink:href="#DejaVuSerif-65" x="458.056641"/>
      <use xlink:href="#DejaVuSerif-20" x="517.236328"/>
      <use xlink:href="#DejaVuSerif-6d" x="549.023438"/>
      <use xlink:href="#DejaVuSerif-6f" x="643.847656"/>
      <use xlink:href="#DejaVuSerif-64" x="704.052734"/>
      <use xlink:href="#DejaVuSerif-65" x="768.066406"/>
      <use xlink:href="#DejaVuSerif-6c" x="827.246094"/>
     </g>
    </g>
    <g id="line2d_27">
     <path d="M 193.050937 10.409755 
L 202.050937 10.409755 
L 211.050937 10.409755 
" style="fill: none; stroke: #008000; stroke-linecap: round"/>
    </g>
    <g id="text_6">
     <!-- Physics informed ID -->
     <g style="fill: #262626" transform="translate(218.250937 13.559755) scale(0.09 -0.09)">
      <defs>
       <path id="DejaVuSerif-50" d="M 1581 2375 
L 2406 2375 
Q 2872 2375 3115 2626 
Q 3359 2878 3359 3353 
Q 3359 3831 3115 4081 
Q 2872 4331 2406 4331 
L 1581 4331 
L 1581 2375 
z
M 353 0 
L 353 331 
L 947 331 
L 947 4331 
L 353 4331 
L 353 4666 
L 2559 4666 
Q 3259 4666 3668 4311 
Q 4078 3956 4078 3353 
Q 4078 2753 3668 2397 
Q 3259 2041 2559 2041 
L 1581 2041 
L 1581 331 
L 2303 331 
L 2303 0 
L 353 0 
z
" transform="scale(0.015625)"/>
       <path id="DejaVuSerif-68" d="M 263 0 
L 263 331 
L 781 331 
L 781 4531 
L 231 4531 
L 231 4863 
L 1356 4863 
L 1356 2731 
Q 1516 3069 1770 3241 
Q 2025 3413 2363 3413 
Q 2913 3413 3172 3097 
Q 3431 2781 3431 2113 
L 3431 331 
L 3944 331 
L 3944 0 
L 2356 0 
L 2356 331 
L 2853 331 
L 2853 1931 
Q 2853 2541 2704 2764 
Q 2556 2988 2175 2988 
Q 1775 2988 1565 2697 
Q 1356 2406 1356 1850 
L 1356 331 
L 1856 331 
L 1856 0 
L 263 0 
z
" transform="scale(0.015625)"/>
       <path id="DejaVuSerif-79" d="M 1381 -609 
L 1600 -56 
L 359 2988 
L -19 2988 
L -19 3322 
L 1509 3322 
L 1509 2988 
L 978 2988 
L 1913 703 
L 2847 2988 
L 2350 2988 
L 2350 3322 
L 3597 3322 
L 3597 2988 
L 3225 2988 
L 1703 -750 
Q 1547 -1138 1356 -1280 
Q 1166 -1422 819 -1422 
Q 672 -1422 517 -1397 
Q 363 -1372 206 -1325 
L 206 -691 
L 500 -691 
Q 519 -903 608 -995 
Q 697 -1088 884 -1088 
Q 1056 -1088 1161 -992 
Q 1266 -897 1381 -609 
z
" transform="scale(0.015625)"/>
       <path id="DejaVuSerif-73" d="M 359 184 
L 359 959 
L 691 959 
Q 703 588 923 403 
Q 1144 219 1575 219 
Q 1963 219 2166 364 
Q 2369 509 2369 788 
Q 2369 1006 2220 1140 
Q 2072 1275 1594 1428 
L 1178 1569 
Q 750 1706 558 1912 
Q 366 2119 366 2438 
Q 366 2894 700 3153 
Q 1034 3413 1625 3413 
Q 1888 3413 2178 3344 
Q 2469 3275 2778 3144 
L 2778 2419 
L 2447 2419 
Q 2434 2741 2221 2922 
Q 2009 3103 1644 3103 
Q 1281 3103 1095 2975 
Q 909 2847 909 2591 
Q 909 2381 1050 2254 
Q 1191 2128 1613 1997 
L 2069 1856 
Q 2541 1709 2748 1489 
Q 2956 1269 2956 922 
Q 2956 450 2595 179 
Q 2234 -91 1600 -91 
Q 1278 -91 972 -22 
Q 666 47 359 184 
z
" transform="scale(0.015625)"/>
       <path id="DejaVuSerif-69" d="M 622 4353 
Q 622 4497 726 4603 
Q 831 4709 978 4709 
Q 1122 4709 1226 4603 
Q 1331 4497 1331 4353 
Q 1331 4206 1228 4103 
Q 1125 4000 978 4000 
Q 831 4000 726 4103 
Q 622 4206 622 4353 
z
M 1356 331 
L 1900 331 
L 1900 0 
L 231 0 
L 231 331 
L 781 331 
L 781 2988 
L 231 2988 
L 231 3322 
L 1356 3322 
L 1356 331 
z
" transform="scale(0.015625)"/>
       <path id="DejaVuSerif-49" d="M 1581 331 
L 2175 331 
L 2175 0 
L 353 0 
L 353 331 
L 947 331 
L 947 4331 
L 353 4331 
L 353 4666 
L 2175 4666 
L 2175 4331 
L 1581 4331 
L 1581 331 
z
" transform="scale(0.015625)"/>
       <path id="DejaVuSerif-44" d="M 1581 331 
L 2163 331 
Q 3072 331 3558 850 
Q 4044 1369 4044 2338 
Q 4044 3306 3559 3818 
Q 3075 4331 2163 4331 
L 1581 4331 
L 1581 331 
z
M 353 0 
L 353 331 
L 947 331 
L 947 4331 
L 353 4331 
L 353 4666 
L 2209 4666 
Q 3416 4666 4089 4050 
Q 4763 3434 4763 2338 
Q 4763 1238 4088 619 
Q 3413 0 2209 0 
L 353 0 
z
" transform="scale(0.015625)"/>
      </defs>
      <use xlink:href="#DejaVuSerif-50"/>
      <use xlink:href="#DejaVuSerif-68" x="67.285156"/>
      <use xlink:href="#DejaVuSerif-79" x="131.689453"/>
      <use xlink:href="#DejaVuSerif-73" x="188.183594"/>
      <use xlink:href="#DejaVuSerif-69" x="239.501953"/>
      <use xlink:href="#DejaVuSerif-63" x="271.484375"/>
      <use xlink:href="#DejaVuSerif-73" x="327.490234"/>
      <use xlink:href="#DejaVuSerif-20" x="378.808594"/>
      <use xlink:href="#DejaVuSerif-69" x="410.595703"/>
      <use xlink:href="#DejaVuSerif-6e" x="442.578125"/>
      <use xlink:href="#DejaVuSerif-66" x="506.982422"/>
      <use xlink:href="#DejaVuSerif-6f" x="543.994141"/>
      <use xlink:href="#DejaVuSerif-72" x="604.199219"/>
      <use xlink:href="#DejaVuSerif-6d" x="652.001953"/>
      <use xlink:href="#DejaVuSerif-65" x="746.826172"/>
      <use xlink:href="#DejaVuSerif-64" x="806.005859"/>
      <use xlink:href="#DejaVuSerif-20" x="870.019531"/>
      <use xlink:href="#DejaVuSerif-49" x="901.806641"/>
      <use xlink:href="#DejaVuSerif-44" x="941.308594"/>
     </g>
    </g>
    <g id="line2d_28">
     <path d="M 328.183125 10.409755 
L 337.183125 10.409755 
L 346.183125 10.409755 
" style="fill: none; stroke: #ff0000; stroke-linecap: round"/>
    </g>
    <g id="text_7">
     <!-- Abkowitz ID -->
     <g style="fill: #262626" transform="translate(353.383125 13.559755) scale(0.09 -0.09)">
      <defs>
       <path id="DejaVuSerif-41" d="M 1281 1691 
L 2994 1691 
L 2138 3909 
L 1281 1691 
z
M -38 0 
L -38 331 
L 372 331 
L 2034 4666 
L 2559 4666 
L 4225 331 
L 4684 331 
L 4684 0 
L 2988 0 
L 2988 331 
L 3506 331 
L 3116 1356 
L 1153 1356 
L 763 331 
L 1275 331 
L 1275 0 
L -38 0 
z
" transform="scale(0.015625)"/>
       <path id="DejaVuSerif-62" d="M 738 331 
L 738 4531 
L 184 4531 
L 184 4863 
L 1313 4863 
L 1313 2803 
Q 1481 3116 1742 3264 
Q 2003 3413 2388 3413 
Q 3000 3413 3387 2928 
Q 3775 2444 3775 1663 
Q 3775 881 3387 395 
Q 3000 -91 2388 -91 
Q 2003 -91 1742 57 
Q 1481 206 1313 519 
L 1313 0 
L 184 0 
L 184 331 
L 738 331 
z
M 1313 1497 
Q 1313 897 1542 583 
Q 1772 269 2209 269 
Q 2650 269 2876 622 
Q 3103 975 3103 1663 
Q 3103 2353 2876 2703 
Q 2650 3053 2209 3053 
Q 1772 3053 1542 2737 
Q 1313 2422 1313 1825 
L 1313 1497 
z
" transform="scale(0.015625)"/>
       <path id="DejaVuSerif-6b" d="M 1831 0 
L 219 0 
L 219 331 
L 738 331 
L 738 4531 
L 184 4531 
L 184 4863 
L 1313 4863 
L 1313 1697 
L 2713 2988 
L 2234 2988 
L 2234 3322 
L 3738 3322 
L 3738 2988 
L 3169 2988 
L 2181 2075 
L 3444 331 
L 3922 331 
L 3922 0 
L 2284 0 
L 2284 331 
L 2759 331 
L 1766 1697 
L 1313 1275 
L 1313 331 
L 1831 331 
L 1831 0 
z
" transform="scale(0.015625)"/>
       <path id="DejaVuSerif-77" d="M 3072 3322 
L 3922 728 
L 4672 2988 
L 4191 2988 
L 4191 3322 
L 5394 3322 
L 5394 2988 
L 5025 2988 
L 4038 0 
L 3559 0 
L 2741 2484 
L 1919 0 
L 1459 0 
L 475 2988 
L 103 2988 
L 103 3322 
L 1606 3322 
L 1606 2988 
L 1069 2988 
L 1813 728 
L 2669 3322 
L 3072 3322 
z
" transform="scale(0.015625)"/>
       <path id="DejaVuSerif-74" d="M 691 2988 
L 184 2988 
L 184 3322 
L 691 3322 
L 691 4353 
L 1269 4353 
L 1269 3322 
L 2350 3322 
L 2350 2988 
L 1269 2988 
L 1269 878 
Q 1269 456 1350 337 
Q 1431 219 1650 219 
Q 1875 219 1978 351 
Q 2081 484 2088 781 
L 2522 781 
Q 2497 328 2275 118 
Q 2053 -91 1600 -91 
Q 1103 -91 897 129 
Q 691 350 691 878 
L 691 2988 
z
" transform="scale(0.015625)"/>
       <path id="DejaVuSerif-7a" d="M 256 0 
L 256 269 
L 2338 2988 
L 691 2988 
L 691 2413 
L 359 2413 
L 359 3322 
L 3078 3322 
L 3078 3053 
L 997 331 
L 2803 331 
L 2803 934 
L 3138 934 
L 3138 0 
L 256 0 
z
" transform="scale(0.015625)"/>
      </defs>
      <use xlink:href="#DejaVuSerif-41"/>
      <use xlink:href="#DejaVuSerif-62" x="72.216797"/>
      <use xlink:href="#DejaVuSerif-6b" x="136.230469"/>
      <use xlink:href="#DejaVuSerif-6f" x="196.826172"/>
      <use xlink:href="#DejaVuSerif-77" x="257.03125"/>
      <use xlink:href="#DejaVuSerif-69" x="342.626953"/>
      <use xlink:href="#DejaVuSerif-74" x="374.609375"/>
      <use xlink:href="#DejaVuSerif-7a" x="414.794922"/>
      <use xlink:href="#DejaVuSerif-20" x="467.480469"/>
      <use xlink:href="#DejaVuSerif-49" x="499.267578"/>
      <use xlink:href="#DejaVuSerif-44" x="538.769531"/>
     </g>
    </g>
   </g>
  </g>
  <g id="axes_2">
   <g id="patch_5">
    <path d="M 38.204771 164.67346 
L 443.39976 164.67346 
L 443.39976 95.789259 
L 38.204771 95.789259 
z
" style="fill: #ffffff"/>
   </g>
   <g id="matplotlib.axis_3">
    <g id="xtick_9">
     <g id="line2d_29">
      <path d="M 56.622725 164.67346 
L 56.622725 95.789259 
" clip-path="url(#pe50e22a2a1)" style="fill: none; stroke: #b0b0b0; stroke-width: 0.8; stroke-linecap: round"/>
     </g>
     <g id="line2d_30"/>
    </g>
    <g id="xtick_10">
     <g id="line2d_31">
      <path d="M 110.267125 164.67346 
L 110.267125 95.789259 
" clip-path="url(#pe50e22a2a1)" style="fill: none; stroke: #b0b0b0; stroke-width: 0.8; stroke-linecap: round"/>
     </g>
     <g id="line2d_32"/>
    </g>
    <g id="xtick_11">
     <g id="line2d_33">
      <path d="M 163.911524 164.67346 
L 163.911524 95.789259 
" clip-path="url(#pe50e22a2a1)" style="fill: none; stroke: #b0b0b0; stroke-width: 0.8; stroke-linecap: round"/>
     </g>
     <g id="line2d_34"/>
    </g>
    <g id="xtick_12">
     <g id="line2d_35">
      <path d="M 217.555924 164.67346 
L 217.555924 95.789259 
" clip-path="url(#pe50e22a2a1)" style="fill: none; stroke: #b0b0b0; stroke-width: 0.8; stroke-linecap: round"/>
     </g>
     <g id="line2d_36"/>
    </g>
    <g id="xtick_13">
     <g id="line2d_37">
      <path d="M 271.200323 164.67346 
L 271.200323 95.789259 
" clip-path="url(#pe50e22a2a1)" style="fill: none; stroke: #b0b0b0; stroke-width: 0.8; stroke-linecap: round"/>
     </g>
     <g id="line2d_38"/>
    </g>
    <g id="xtick_14">
     <g id="line2d_39">
      <path d="M 324.844723 164.67346 
L 324.844723 95.789259 
" clip-path="url(#pe50e22a2a1)" style="fill: none; stroke: #b0b0b0; stroke-width: 0.8; stroke-linecap: round"/>
     </g>
     <g id="line2d_40"/>
    </g>
    <g id="xtick_15">
     <g id="line2d_41">
      <path d="M 378.489122 164.67346 
L 378.489122 95.789259 
" clip-path="url(#pe50e22a2a1)" style="fill: none; stroke: #b0b0b0; stroke-width: 0.8; stroke-linecap: round"/>
     </g>
     <g id="line2d_42"/>
    </g>
    <g id="xtick_16">
     <g id="line2d_43">
      <path d="M 432.133522 164.67346 
L 432.133522 95.789259 
" clip-path="url(#pe50e22a2a1)" style="fill: none; stroke: #b0b0b0; stroke-width: 0.8; stroke-linecap: round"/>
     </g>
     <g id="line2d_44"/>
    </g>
   </g>
   <g id="matplotlib.axis_4">
    <g id="ytick_4">
     <g id="line2d_45">
      <path d="M 38.204771 161.021967 
L 443.39976 161.021967 
" clip-path="url(#pe50e22a2a1)" style="fill: none; stroke: #b0b0b0; stroke-width: 0.8; stroke-linecap: round"/>
     </g>
     <g id="line2d_46"/>
     <g id="text_8">
      <!-- −50 -->
      <g style="fill: #262626" transform="translate(15.710552 164.441264) scale(0.09 -0.09)">
       <use xlink:href="#DejaVuSerif-2212"/>
       <use xlink:href="#DejaVuSerif-35" x="83.789062"/>
       <use xlink:href="#DejaVuSerif-30" x="147.412109"/>
      </g>
     </g>
    </g>
    <g id="ytick_5">
     <g id="line2d_47">
      <path d="M 38.204771 132.959322 
L 443.39976 132.959322 
" clip-path="url(#pe50e22a2a1)" style="fill: none; stroke: #b0b0b0; stroke-width: 0.8; stroke-linecap: round"/>
     </g>
     <g id="line2d_48"/>
     <g id="text_9">
      <!-- 0 -->
      <g style="fill: #262626" transform="translate(28.978521 136.378619) scale(0.09 -0.09)">
       <use xlink:href="#DejaVuSerif-30"/>
      </g>
     </g>
    </g>
    <g id="ytick_6">
     <g id="line2d_49">
      <path d="M 38.204771 104.896677 
L 443.39976 104.896677 
" clip-path="url(#pe50e22a2a1)" style="fill: none; stroke: #b0b0b0; stroke-width: 0.8; stroke-linecap: round"/>
     </g>
     <g id="line2d_50"/>
     <g id="text_10">
      <!-- 50 -->
      <g style="fill: #262626" transform="translate(23.252271 108.315974) scale(0.09 -0.09)">
       <use xlink:href="#DejaVuSerif-35"/>
       <use xlink:href="#DejaVuSerif-30" x="63.623047"/>
      </g>
     </g>
    </g>
    <g id="text_11">
     <!-- $N_H(r)$ -->
     <g style="fill: #262626" transform="translate(9.838834 141.481359) rotate(-90) scale(0.09 -0.09)">
      <defs>
       <path id="DejaVuSans-Oblique-72" d="M 2853 2969 
Q 2766 3016 2653 3041 
Q 2541 3066 2413 3066 
Q 1953 3066 1609 2717 
Q 1266 2369 1153 1784 
L 800 0 
L 225 0 
L 909 3500 
L 1484 3500 
L 1375 2956 
Q 1603 3259 1920 3421 
Q 2238 3584 2597 3584 
Q 2691 3584 2781 3573 
Q 2872 3563 2963 3538 
L 2853 2969 
z
" transform="scale(0.015625)"/>
      </defs>
      <use xlink:href="#DejaVuSans-Oblique-4e" transform="translate(0 0.125)"/>
      <use xlink:href="#DejaVuSans-Oblique-48" transform="translate(74.804688 -16.28125) scale(0.7)"/>
      <use xlink:href="#DejaVuSans-28" transform="translate(130.175781 0.125)"/>
      <use xlink:href="#DejaVuSans-Oblique-72" transform="translate(169.189453 0.125)"/>
      <use xlink:href="#DejaVuSans-29" transform="translate(210.302734 0.125)"/>
     </g>
    </g>
   </g>
   <g id="line2d_51">
    <path d="M 56.622725 133.245464 
L 57.31543 133.145855 
L 58.06142 132.845958 
L 59.073834 132.142803 
L 60.192819 131.15821 
L 61.897939 129.286948 
L 65.254892 125.137674 
L 66.746872 123.311195 
L 69.251266 120.82918 
L 70.530106 119.970843 
L 71.64909 119.937737 
L 72.18194 119.591222 
L 74.579764 117.485722 
L 75.752034 117.046004 
L 77.030873 116.675121 
L 78.309713 116.26173 
L 78.629423 116.404285 
L 79.481983 116.775385 
L 80.121402 116.545721 
L 81.560097 115.685954 
L 83.904636 115.005498 
L 84.544056 114.941961 
L 85.76961 114.737283 
L 86.249175 114.742793 
L 86.568885 115.05768 
L 87.421445 115.825563 
L 87.90101 115.77568 
L 88.753569 115.207527 
L 89.499559 114.757663 
L 90.884969 114.534121 
L 94.348493 114.522779 
L 95.787187 115.642909 
L 97.012742 115.934089 
L 98.238296 116.732427 
L 99.463851 118.039293 
L 101.59525 120.983819 
L 102.44781 122.392404 
L 103.726649 124.715976 
L 105.858049 127.961191 
L 108.735438 133.114051 
L 109.907707 134.974055 
L 110.653697 135.758072 
L 115.182921 140.071926 
L 117.154465 141.313345 
L 118.380019 141.853673 
L 119.126009 141.889196 
L 119.712144 142.14805 
L 120.244994 142.539711 
L 120.777844 142.927408 
L 122.749388 143.879318 
L 123.442093 144.16712 
L 124.188082 144.455518 
L 125.360352 144.823041 
L 126.212912 145.028151 
L 127.331896 144.733377 
L 128.131171 145.057796 
L 130.26257 146.021093 
L 133.619524 146.590315 
L 134.205659 146.51077 
L 135.431214 145.977259 
L 135.857494 146.133245 
L 137.935608 147.028984 
L 139.480872 147.212146 
L 140.013722 147.236012 
L 141.185992 147.402845 
L 142.198406 147.263123 
L 142.997681 146.803033 
L 143.477246 146.811735 
L 144.276521 147.185892 
L 145.075795 147.652983 
L 146.30135 147.902016 
L 150.137869 147.944129 
L 150.937143 147.393884 
L 151.523278 147.430277 
L 152.802118 147.928757 
L 155.839362 148.310234 
L 158.024046 148.247398 
L 159.249601 147.548002 
L 159.675881 147.68147 
L 160.3153 148.103903 
L 161.008005 148.394232 
L 161.753995 148.505156 
L 162.979549 148.485065 
L 164.684669 148.387847 
L 165.590514 148.388983 
L 166.016793 148.254495 
L 167.135778 147.482531 
L 167.615343 147.536814 
L 168.308048 147.824394 
L 169.054037 148.099004 
L 170.599302 148.333772 
L 173.263551 148.310471 
L 173.956256 148.166531 
L 175.18181 147.3977 
L 176.03437 147.645584 
L 177.31321 148.053178 
L 178.112484 148.105112 
L 180.510308 147.939956 
L 181.309583 147.880909 
L 181.949003 147.703593 
L 182.748278 147.117754 
L 183.334413 146.99894 
L 184.027117 147.189518 
L 185.252672 147.621717 
L 185.732237 147.62957 
L 188.982621 147.395283 
L 189.781895 146.98849 
L 190.36803 146.172593 
L 190.847595 145.637089 
L 191.64687 145.195122 
L 192.819139 144.622178 
L 193.618414 143.927409 
L 195.057109 142.388047 
L 198.360777 137.990695 
L 199.692902 136.244783 
L 201.877586 133.361253 
L 203.476136 131.197648 
L 205.500965 129.263366 
L 206.0871 129.054193 
L 206.72652 128.711949 
L 209.923619 126.390751 
L 213.600282 124.869921 
L 214.186417 124.974125 
L 214.665982 124.973033 
L 215.411972 124.671905 
L 217.916366 123.301315 
L 219.514915 122.789999 
L 221.6996 122.478633 
L 222.392304 122.649239 
L 223.085009 122.510681 
L 225.003268 121.754565 
L 225.642688 121.54557 
L 226.974813 121.394326 
L 229.798917 121.373074 
L 230.491622 121.712496 
L 230.811331 121.68412 
L 232.676306 121.011481 
L 234.061715 120.648388 
L 236.619395 120.457207 
L 237.471954 120.379992 
L 238.697509 120.964019 
L 239.336929 120.769039 
L 240.722338 120.141416 
L 241.734753 119.946184 
L 243.333302 119.83085 
L 244.239147 119.797379 
L 245.517987 119.787745 
L 246.210691 120.274107 
L 246.690256 120.331451 
L 247.542816 119.997616 
L 248.608515 119.502842 
L 249.19465 119.404022 
L 252.125324 119.340995 
L 252.924599 119.354875 
L 253.457449 119.39086 
L 254.416579 119.906597 
L 255.002713 119.75568 
L 256.601263 119.135132 
L 258.359667 119.04466 
L 259.745077 119.092017 
L 260.491066 119.021744 
L 261.396911 119.149408 
L 262.142901 119.72186 
L 262.782321 119.84215 
L 263.52831 119.670945 
L 264.860435 119.148569 
L 265.606425 119.08996 
L 266.672124 119.095749 
L 269.176519 119.11275 
L 269.602798 119.397131 
L 270.295503 119.818485 
L 270.881638 119.832037 
L 271.734198 119.468249 
L 272.586757 119.204342 
L 273.545887 119.190663 
L 274.291877 119.172955 
L 275.517431 119.107946 
L 277.329121 119.445121 
L 278.021826 119.884936 
L 278.71453 119.972447 
L 279.46052 119.749733 
L 281.325494 119.192464 
L 284.575878 119.373369 
L 285.375153 119.585455 
L 286.600708 120.500536 
L 288.678822 121.135656 
L 289.371527 121.684002 
L 290.437226 122.673682 
L 292.994906 125.385158 
L 295.71244 128.752624 
L 297.364274 130.852396 
L 299.069393 133.152045 
L 300.934368 135.327282 
L 301.627073 135.765574 
L 303.492047 136.998672 
L 305.943156 138.736798 
L 307.008856 139.235959 
L 308.287695 139.799123 
L 309.140255 140.182484 
L 309.673105 140.118334 
L 310.205955 140.119144 
L 311.271654 140.540469 
L 312.443924 141.179346 
L 314.681893 141.972301 
L 315.641023 142.318503 
L 316.440298 142.562486 
L 317.079717 142.622584 
L 318.358557 142.443552 
L 320.916236 143.498926 
L 321.875366 143.639942 
L 324.5929 143.924525 
L 325.072465 143.912834 
L 326.138164 143.51124 
L 327.044009 143.730173 
L 330.081253 144.460281 
L 331.733087 144.702533 
L 333.065212 144.579911 
L 333.544777 144.34668 
L 334.663761 144.297864 
L 336.049171 144.896462 
L 336.901731 145.145174 
L 339.832405 145.409158 
L 340.525109 145.456579 
L 340.898104 145.440398 
L 342.283514 144.977737 
L 343.828778 145.410088 
L 344.521483 145.748554 
L 345.054333 145.860142 
L 345.533898 145.914146 
L 345.960178 145.919215 
L 347.239017 145.861915 
L 348.677712 146.010722 
L 349.103992 145.858193 
L 349.903266 145.424962 
L 351.395246 145.585382 
L 352.40766 146.222196 
L 353.206935 146.433555 
L 354.272635 146.453184 
L 356.084324 146.32507 
L 356.936884 146.114316 
L 357.523019 145.697572 
L 358.109154 145.606412 
L 358.535433 145.808 
L 359.281423 146.098948 
L 360.879973 146.447899 
L 361.732532 146.400343 
L 362.744947 146.325043 
L 363.331082 146.420978 
L 363.917217 146.42514 
L 364.982916 145.955868 
L 365.409196 145.70308 
L 366.048616 145.617355 
L 366.528181 145.851569 
L 368.180015 146.36612 
L 368.87272 146.34856 
L 369.72528 146.370402 
L 370.364699 146.317994 
L 370.844264 146.272623 
L 372.282959 146.350467 
L 372.709239 146.371625 
L 373.188803 145.994465 
L 373.721653 145.651491 
L 374.147933 145.665428 
L 377.664742 146.356331 
L 378.144307 146.327559 
L 380.701986 146.076054 
L 381.341406 145.665179 
L 381.874256 145.402239 
L 382.35382 145.41119 
L 382.99324 145.638657 
L 384.16551 146.015838 
L 384.751645 145.97552 
L 385.923914 145.452535 
L 387.042899 144.715232 
L 388.907873 143.019533 
L 390.080143 141.611167 
L 390.932702 140.9248 
L 392.477967 139.482607 
L 395.035646 136.225064 
L 398.81888 131.383093 
L 400.151004 130.067107 
L 401.269989 129.223358 
L 402.868538 128.075678 
L 403.667813 127.5623 
L 404.893368 127.074269 
L 405.799212 126.772038 
L 408.676601 125.332783 
L 410.914571 124.444192 
L 411.76713 124.201039 
L 412.672975 124.075822 
L 413.525535 124.139092 
L 415.497079 123.262614 
L 416.083214 123.006749 
L 417.575193 122.615127 
L 418.214613 122.466674 
L 420.239443 122.162371 
L 420.559152 122.267516 
L 421.358427 122.617062 
L 421.891277 122.556827 
L 422.424127 122.29073 
L 423.170117 121.980846 
L 424.981806 121.558805 
L 424.981806 121.558805 
" clip-path="url(#pe50e22a2a1)" style="fill: none; stroke: #0000ff; stroke-linecap: round"/>
   </g>
   <g id="line2d_52">
    <path d="M 56.622725 133.244396 
L 57.31543 133.145159 
L 58.06142 132.846381 
L 59.073834 132.145848 
L 60.192819 131.164927 
L 61.897939 129.300645 
L 65.254892 125.166846 
L 66.746872 123.347179 
L 69.251266 120.874421 
L 70.530106 120.019286 
L 71.64909 119.986303 
L 72.18194 119.64108 
L 74.579764 117.543433 
L 75.752034 117.105355 
L 77.030873 116.735855 
L 78.309713 116.324006 
L 78.682708 116.494816 
L 79.428698 116.830589 
L 79.748407 116.769654 
L 80.707537 116.245734 
L 82.519227 115.326201 
L 83.584926 115.100121 
L 86.355745 114.892444 
L 86.888595 115.479676 
L 87.421445 115.889466 
L 87.90101 115.839769 
L 88.753569 115.273735 
L 89.499559 114.825549 
L 90.884969 114.602841 
L 94.348493 114.59154 
L 95.787187 115.707493 
L 97.012742 115.997587 
L 98.238296 116.792947 
L 99.463851 118.09494 
L 101.59525 121.028483 
L 102.44781 122.431815 
L 103.779934 124.822925 
L 106.071189 128.351637 
L 108.735438 133.113474 
L 109.907707 134.96654 
L 110.653697 135.747633 
L 115.182921 140.045398 
L 117.154465 141.282188 
L 118.380019 141.8205 
L 119.126009 141.855891 
L 119.712144 142.113779 
L 120.244994 142.503979 
L 120.777844 142.890231 
L 122.749388 143.83859 
L 123.442093 144.125319 
L 124.188082 144.412642 
L 125.360352 144.778793 
L 126.212912 144.983138 
L 127.331896 144.689464 
L 128.131171 145.012673 
L 130.26257 145.972377 
L 133.619524 146.539476 
L 134.205659 146.460228 
L 135.431214 145.928706 
L 135.857494 146.084111 
L 137.935608 146.976509 
L 139.480872 147.158988 
L 140.013722 147.182765 
L 141.185992 147.348976 
L 142.198406 147.209775 
L 142.997681 146.751401 
L 143.477246 146.760071 
L 144.276521 147.132832 
L 145.075795 147.598181 
L 146.30135 147.846285 
L 150.137869 147.888241 
L 150.937143 147.340048 
L 151.523278 147.376305 
L 152.802118 147.872926 
L 155.839362 148.252981 
L 158.024046 148.190379 
L 159.249601 147.493591 
L 159.675881 147.626561 
L 160.3153 148.047419 
L 161.008005 148.336666 
L 161.753995 148.447176 
L 162.979549 148.42716 
L 164.684669 148.330304 
L 165.590514 148.331436 
L 166.016793 148.197449 
L 167.135778 147.428364 
L 167.615343 147.482445 
L 168.308048 147.768952 
L 169.054037 148.042538 
L 170.599302 148.276431 
L 173.263551 148.253216 
L 173.956256 148.109814 
L 175.18181 147.34385 
L 176.03437 147.59081 
L 177.31321 147.996883 
L 178.112484 148.048623 
L 180.510308 147.884084 
L 181.309583 147.825256 
L 181.949003 147.648602 
L 182.748278 147.064948 
L 183.334413 146.946577 
L 184.027117 147.136445 
L 185.252672 147.567031 
L 185.732237 147.574855 
L 188.982621 147.341441 
L 189.781895 146.936166 
L 190.36803 146.123312 
L 190.847595 145.589806 
L 191.64687 145.149487 
L 192.819139 144.578679 
L 193.671699 143.834901 
L 195.803098 141.454232 
L 197.614788 139.139915 
L 200.172467 135.630052 
L 202.090726 133.045891 
L 203.316281 131.372696 
L 205.0214 129.67847 
L 205.607535 129.220088 
L 206.992945 128.533274 
L 208.431639 127.363365 
L 209.337484 126.708565 
L 210.083473 126.353361 
L 211.255743 125.901923 
L 212.694438 125.203867 
L 213.546997 124.898452 
L 215.145547 124.848603 
L 216.264531 124.154073 
L 217.543371 123.460169 
L 221.113465 122.526884 
L 221.752885 122.538773 
L 222.605444 122.671949 
L 223.724429 122.311241 
L 225.695973 121.57763 
L 227.880657 121.342413 
L 229.798917 121.416287 
L 230.491622 121.754443 
L 230.811331 121.726173 
L 232.676306 121.056043 
L 234.061715 120.694303 
L 236.619395 120.503836 
L 237.471954 120.426909 
L 238.697509 121.008757 
L 239.336929 120.814504 
L 240.722338 120.189223 
L 241.734753 119.994718 
L 243.333302 119.879815 
L 244.239147 119.846469 
L 245.517987 119.83687 
L 246.210691 120.321419 
L 246.690256 120.378548 
L 247.542816 120.045958 
L 248.608515 119.55303 
L 249.19465 119.454579 
L 252.125324 119.391787 
L 252.924599 119.405615 
L 253.457449 119.441465 
L 254.416579 119.95528 
L 255.002713 119.804925 
L 256.601263 119.186691 
L 258.359667 119.096557 
L 259.745077 119.143737 
L 260.491066 119.073726 
L 261.396911 119.200914 
L 262.142901 119.771231 
L 262.782321 119.891073 
L 263.52831 119.720506 
L 264.860435 119.200078 
L 265.606425 119.141687 
L 266.672124 119.147455 
L 269.176519 119.164393 
L 269.602798 119.447714 
L 270.295503 119.867496 
L 270.881638 119.880997 
L 271.734198 119.518566 
L 272.586757 119.255644 
L 273.545887 119.242015 
L 274.291877 119.224373 
L 275.517431 119.159607 
L 277.329121 119.495524 
L 278.021826 119.933699 
L 278.71453 120.020884 
L 279.46052 119.799 
L 281.325494 119.24381 
L 284.575878 119.42404 
L 285.375153 119.635335 
L 286.600708 120.547003 
L 288.678822 121.179754 
L 289.371527 121.726055 
L 290.490511 122.765293 
L 293.58104 126.257236 
L 294.486885 127.425785 
L 297.790554 131.480461 
L 299.122678 133.218321 
L 300.934368 135.318451 
L 301.627073 135.755108 
L 303.492047 136.983606 
L 305.943156 138.71525 
L 307.008856 139.21255 
L 308.287695 139.773613 
L 309.140255 140.155544 
L 309.673105 140.091634 
L 310.205955 140.092441 
L 311.271654 140.512194 
L 312.443924 141.148688 
L 314.681893 141.938686 
L 315.641023 142.283597 
L 316.440298 142.526669 
L 317.079717 142.586543 
L 318.358557 142.408179 
L 320.916236 143.459617 
L 321.875366 143.600107 
L 324.5929 143.883629 
L 325.072465 143.871981 
L 326.138164 143.471885 
L 327.044009 143.690002 
L 330.081253 144.417386 
L 331.733087 144.658735 
L 333.065212 144.53657 
L 333.544777 144.304209 
L 334.717046 144.274023 
L 335.569606 144.618041 
L 337.274726 145.13959 
L 338.71342 145.347157 
L 339.192985 145.362662 
L 340.41854 145.383498 
L 340.844819 145.414222 
L 341.484239 145.058572 
L 341.963804 144.903596 
L 343.189359 145.071068 
L 343.988633 145.466514 
L 344.628053 145.73805 
L 346.013463 145.864048 
L 348.358002 145.917637 
L 348.837567 145.929462 
L 349.263847 145.698899 
L 349.903266 145.37847 
L 351.395246 145.538291 
L 352.40766 146.17273 
L 353.206935 146.383301 
L 354.272635 146.402857 
L 356.084324 146.27522 
L 356.936884 146.065253 
L 357.523019 145.650063 
L 358.109154 145.559242 
L 358.535433 145.760079 
L 359.281423 146.049941 
L 360.879973 146.397591 
L 361.732532 146.350212 
L 362.744947 146.275193 
L 363.331082 146.37077 
L 363.917217 146.374917 
L 364.982916 145.907396 
L 365.409196 145.655551 
L 366.048616 145.570145 
L 366.528181 145.803485 
L 368.180015 146.316118 
L 368.87272 146.298623 
L 369.72528 146.320384 
L 370.364699 146.268171 
L 370.844264 146.22297 
L 372.282959 146.300523 
L 372.709239 146.321602 
L 373.188803 145.945849 
L 373.721653 145.604154 
L 374.147933 145.618039 
L 377.664742 146.306365 
L 378.144307 146.2777 
L 380.701986 146.027133 
L 381.341406 145.61779 
L 381.874256 145.355831 
L 382.35382 145.364749 
L 382.99324 145.591367 
L 384.16551 145.967141 
L 384.751645 145.926974 
L 385.923914 145.40594 
L 387.042899 144.671386 
L 388.907873 142.982012 
L 390.080143 141.578899 
L 390.932702 140.895092 
L 392.477967 139.458277 
L 395.035646 136.212884 
L 398.81888 131.388972 
L 400.151004 130.077894 
L 401.269989 129.237292 
L 402.868538 128.093892 
L 403.667813 127.582429 
L 404.893368 127.096218 
L 405.799212 126.795114 
L 408.676601 125.361227 
L 410.914571 124.475951 
L 411.76713 124.233704 
L 412.672975 124.108954 
L 413.525535 124.171988 
L 415.497079 123.29878 
L 416.083214 123.043868 
L 417.575193 122.653707 
L 418.214613 122.505808 
L 420.239443 122.20264 
L 420.559152 122.307393 
L 421.358427 122.655635 
L 421.891277 122.595625 
L 422.424127 122.33052 
L 423.170117 122.021792 
L 424.981806 121.601325 
L 424.981806 121.601325 
" clip-path="url(#pe50e22a2a1)" style="fill: none; stroke: #008000; stroke-linecap: round"/>
   </g>
   <g id="line2d_53">
    <path d="M 56.622725 133.484733 
L 57.10229 133.391144 
L 57.794995 132.997112 
L 58.38113 132.382496 
L 59.553399 130.746372 
L 60.619099 128.843774 
L 62.164363 125.624659 
L 63.070208 123.78413 
L 63.816198 122.229361 
L 65.095037 119.000588 
L 66.320592 116.135891 
L 68.025711 112.771116 
L 69.624261 110.170997 
L 70.530106 109.109977 
L 70.956385 109.258426 
L 71.276095 109.272398 
L 71.595805 109.094699 
L 72.07537 108.562166 
L 72.71479 107.480973 
L 74.579764 104.546816 
L 75.538894 103.85006 
L 76.231599 103.500841 
L 76.817733 103.174629 
L 77.084158 103.019571 
L 77.510438 102.729163 
L 78.096573 102.404702 
L 78.469568 102.380485 
L 78.949133 102.932482 
L 79.322128 103.206416 
L 79.641838 103.181559 
L 79.908262 103.013767 
L 82.625797 100.405153 
L 85.183476 99.731537 
L 85.556471 99.631968 
L 85.98275 99.455402 
L 86.30246 99.572745 
L 86.94188 100.843946 
L 87.36816 101.460045 
L 87.634585 101.545234 
L 88.00758 101.308664 
L 88.487145 100.737068 
L 89.233134 99.759867 
L 89.765984 99.413125 
L 90.352119 99.212857 
L 92.163808 99.048096 
L 93.016368 99.006316 
L 93.549218 98.938004 
L 94.028783 98.938075 
L 94.241923 98.978836 
L 94.561632 99.503597 
L 95.254337 100.756474 
L 95.627332 101.067083 
L 96.426607 101.364848 
L 96.799602 101.54576 
L 97.812016 102.499333 
L 98.717861 103.926829 
L 99.517136 105.690343 
L 102.074815 112.293142 
L 102.55438 113.951563 
L 103.566794 117.37154 
L 106.763893 126.694642 
L 109.960992 136.783471 
L 110.706982 138.194608 
L 112.785096 142.167616 
L 114.436931 144.971965 
L 116.941325 148.076744 
L 118.273449 149.302033 
L 118.966154 149.283695 
L 119.499004 149.636781 
L 119.978569 150.13782 
L 121.523833 152.044894 
L 122.536248 152.884857 
L 123.228953 153.339958 
L 123.921658 153.927131 
L 125.999772 155.136467 
L 126.266197 155.084179 
L 126.639192 154.788168 
L 127.065472 154.566456 
L 127.331896 154.578751 
L 127.971316 155.002987 
L 129.516581 156.583778 
L 130.049431 156.849521 
L 130.422425 157.030367 
L 131.86112 157.583649 
L 133.246529 157.94839 
L 134.205659 157.842388 
L 134.791794 157.115922 
L 135.111504 156.87448 
L 135.484499 156.87447 
L 135.964064 157.259818 
L 137.136333 158.3925 
L 137.882323 158.768886 
L 138.575028 158.985049 
L 141.931981 159.548966 
L 142.304976 159.074515 
L 142.784541 158.514563 
L 143.317391 158.326025 
L 143.690386 158.531522 
L 144.489661 159.348963 
L 144.969225 159.860078 
L 145.502075 160.168938 
L 146.674345 160.418885 
L 149.658304 160.786439 
L 149.924729 160.731113 
L 150.244439 160.300305 
L 150.724004 159.605028 
L 151.150283 159.414827 
L 151.576563 159.577624 
L 152.162698 160.134733 
L 152.961973 160.517259 
L 154.720377 161.01154 
L 155.199942 161.081796 
L 155.732792 161.167125 
L 156.958346 161.09151 
L 157.970761 161.106815 
L 159.036461 159.749294 
L 159.302886 159.755202 
L 159.78245 160.105515 
L 160.901435 161.26891 
L 161.91385 161.523047 
L 162.819694 161.502305 
L 164.471529 161.272335 
L 165.856938 161.229598 
L 166.176648 160.775716 
L 166.922638 159.705309 
L 167.242348 159.611772 
L 167.775198 159.835752 
L 169.480317 160.921453 
L 170.279592 161.112638 
L 171.132152 161.268944 
L 171.878141 161.246518 
L 172.677416 161.152264 
L 173.902971 160.941672 
L 174.275966 160.373629 
L 174.75553 159.661087 
L 175.18181 159.470962 
L 175.767945 159.751479 
L 176.513935 160.294856 
L 177.046785 160.607994 
L 178.112484 160.769905 
L 178.911759 160.709041 
L 179.711034 160.582109 
L 180.563593 160.472675 
L 181.469438 160.340666 
L 181.842433 160.17429 
L 182.268713 159.511499 
L 182.908133 158.849454 
L 183.547552 158.780807 
L 184.400112 159.368879 
L 185.039532 159.791982 
L 185.412527 159.924658 
L 188.982621 159.466522 
L 189.72861 158.832302 
L 190.36803 157.22143 
L 190.847595 156.238141 
L 191.5403 155.496032 
L 192.446144 154.835138 
L 193.085564 154.004202 
L 193.778269 152.795557 
L 196.815513 146.311273 
L 198.200923 142.662352 
L 199.106767 140.320885 
L 204.062271 128.693073 
L 205.714105 125.986179 
L 206.566665 125.368532 
L 208.005359 123.329313 
L 209.071059 121.756669 
L 209.923619 120.898162 
L 210.563038 120.511314 
L 211.042603 120.165597 
L 212.641153 118.70237 
L 213.653567 118.104581 
L 214.825837 118.224951 
L 215.198832 117.960383 
L 215.944822 117.12274 
L 217.063806 115.836464 
L 217.703226 115.361017 
L 219.35506 114.365533 
L 220.31419 113.919424 
L 221.326605 113.671779 
L 221.59303 113.659654 
L 222.605444 113.999012 
L 223.458004 113.526886 
L 224.896698 112.475787 
L 225.802543 111.956868 
L 226.388678 111.80549 
L 227.347808 111.675275 
L 228.200367 111.525599 
L 228.839787 111.418083 
L 229.479207 111.386344 
L 229.798917 111.684742 
L 230.438337 112.292154 
L 230.758047 112.285324 
L 231.877031 111.551111 
L 232.676306 111.020788 
L 233.90186 110.366675 
L 235.127415 110.33871 
L 237.471954 109.861253 
L 238.058089 110.636274 
L 238.431084 110.92757 
L 238.697509 110.933638 
L 239.177074 110.711023 
L 240.562483 109.520369 
L 241.947893 109.047876 
L 242.640598 108.948997 
L 244.505572 108.730652 
L 245.091707 108.581285 
L 245.358132 108.606296 
L 245.677841 109.009893 
L 246.263976 109.699118 
L 246.743541 109.745651 
L 247.276391 109.384418 
L 248.928225 108.085631 
L 249.7275 107.948035 
L 250.207065 107.83011 
L 251.059625 107.904591 
L 251.645759 107.842302 
L 252.125324 107.953455 
L 252.658174 108.006533 
L 253.350879 107.96691 
L 253.564019 108.172738 
L 254.416579 108.992009 
L 254.842858 108.83503 
L 256.334838 107.623804 
L 257.293968 107.469665 
L 257.826817 107.44416 
L 258.412952 107.419476 
L 259.212227 107.53294 
L 259.531937 107.542904 
L 260.224642 107.402562 
L 261.183771 107.373242 
L 261.556766 107.850177 
L 262.196186 108.688926 
L 262.622466 108.882699 
L 263.208601 108.792315 
L 263.52831 108.559306 
L 264.647295 107.710529 
L 265.23343 107.484016 
L 266.831979 107.500875 
L 267.364829 107.444477 
L 268.323959 107.49643 
L 268.856809 107.472711 
L 269.336373 107.679168 
L 270.188933 108.742941 
L 270.508643 108.913158 
L 270.988208 108.783313 
L 272.746612 107.692502 
L 273.332747 107.681982 
L 276.423276 107.598014 
L 276.742986 107.742364 
L 277.329121 108.144649 
L 277.915256 108.859701 
L 278.28825 109.089626 
L 278.71453 109.112921 
L 279.14081 108.894739 
L 279.833515 108.51145 
L 280.31308 108.262012 
L 281.378779 107.683004 
L 282.817474 107.70944 
L 283.137184 107.750149 
L 283.616749 107.80106 
L 284.416023 107.974975 
L 284.948873 108.107082 
L 285.321868 108.33664 
L 285.641578 108.860888 
L 286.121143 109.641987 
L 286.600708 110.082595 
L 288.518967 111.082593 
L 288.891962 111.515134 
L 289.744522 112.841086 
L 290.437226 114.072908 
L 292.835051 118.717847 
L 293.3679 120.023291 
L 294.22046 122.156848 
L 295.28616 124.391239 
L 296.671569 127.356863 
L 297.577414 129.661023 
L 298.962823 133.070973 
L 301.040938 137.466636 
L 301.840213 138.346614 
L 303.811757 140.825774 
L 305.623446 143.273777 
L 307.062141 144.518705 
L 307.701561 145.011211 
L 309.30011 146.200356 
L 310.099385 146.080174 
L 310.419095 146.207498 
L 311.431509 147.052953 
L 312.443924 148.052867 
L 313.509624 148.77782 
L 316.973147 150.751966 
L 318.145417 150.273078 
L 318.624982 150.582749 
L 319.584112 151.523021 
L 320.436671 152.067235 
L 322.195076 152.643844 
L 323.20749 152.84895 
L 324.539615 153.062683 
L 324.91261 153.170783 
L 325.285605 152.851233 
L 325.765169 152.410769 
L 326.084879 152.319912 
L 326.937439 152.66341 
L 327.736714 153.152256 
L 328.003139 153.282772 
L 328.535989 153.635318 
L 329.228693 153.785152 
L 330.027968 154.066506 
L 331.253523 154.42726 
L 331.733087 154.522116 
L 333.011927 154.364029 
L 333.544777 153.868701 
L 334.557191 153.729211 
L 335.196611 154.139175 
L 336.262311 155.06153 
L 337.061586 155.372491 
L 337.75429 155.486295 
L 338.979845 155.838487 
L 340.41854 155.857902 
L 340.791534 155.954049 
L 341.217814 155.51668 
L 341.803949 155.02177 
L 342.123659 154.978349 
L 343.455783 155.463268 
L 344.947763 156.627108 
L 345.853608 156.797006 
L 346.333173 156.734997 
L 346.759452 156.731537 
L 347.185732 156.641866 
L 348.890852 156.836166 
L 349.423701 156.207185 
L 349.796696 155.871307 
L 350.169691 155.860964 
L 350.649256 155.772159 
L 350.862396 155.782966 
L 351.288676 156.023723 
L 351.714956 156.595162 
L 352.30109 157.235959 
L 352.780655 157.523848 
L 353.100365 157.635763 
L 353.47336 157.781051 
L 354.11278 157.757486 
L 356.883599 157.198083 
L 357.523019 156.3492 
L 358.002584 156.174152 
L 358.215723 156.237939 
L 359.601133 157.222956 
L 360.080698 157.388738 
L 360.666833 157.68392 
L 361.785817 157.624077 
L 362.425237 157.421265 
L 362.744947 157.501356 
L 363.171227 157.654327 
L 363.810647 157.716521 
L 364.556636 157.473361 
L 364.823061 157.104789 
L 365.249341 156.469207 
L 365.728906 156.174507 
L 366.048616 156.201905 
L 366.315041 156.42181 
L 366.954461 156.998287 
L 368.12673 157.582605 
L 369.299 157.565054 
L 370.364699 157.488413 
L 370.684409 157.412137 
L 372.762524 157.534545 
L 373.082233 157.053729 
L 373.774938 156.246542 
L 374.041363 156.256261 
L 376.492472 157.343779 
L 376.865467 157.564328 
L 377.291747 157.583999 
L 377.718027 157.530875 
L 378.144307 157.505976 
L 379.529716 157.240334 
L 380.169136 157.121676 
L 380.755271 156.999194 
L 381.074981 156.640977 
L 381.661116 155.935111 
L 382.193965 155.762646 
L 382.7801 156.080044 
L 384.05894 156.932299 
L 384.858215 156.782045 
L 385.764059 156.098651 
L 388.375023 152.646145 
L 388.801303 151.697627 
L 390.133428 148.749406 
L 390.666278 147.973438 
L 391.412267 146.87005 
L 392.744392 144.327572 
L 394.342941 140.621379 
L 397.060475 134.214146 
L 399.991149 127.913449 
L 401.056849 126.355986 
L 404.413803 122.378102 
L 406.278777 121.124319 
L 407.344477 120.015386 
L 408.836456 118.842255 
L 409.635731 118.299044 
L 411.021141 117.247245 
L 411.55399 116.957469 
L 412.19341 116.693796 
L 412.459835 116.582001 
L 413.47225 116.790151 
L 413.89853 116.466607 
L 416.562779 114.361722 
L 417.362054 113.991284 
L 417.894903 113.852723 
L 418.587608 113.580082 
L 419.013888 113.47241 
L 419.706593 113.151565 
L 420.452582 113.22223 
L 421.251857 113.92678 
L 421.678137 113.98221 
L 422.157702 113.631362 
L 423.223402 112.777939 
L 424.075961 112.359296 
L 424.981806 112.02578 
L 424.981806 112.02578 
" clip-path="url(#pe50e22a2a1)" style="fill: none; stroke: #ff0000; stroke-linecap: round"/>
   </g>
   <g id="patch_6">
    <path d="M 38.204771 164.67346 
L 38.204771 95.789259 
" style="fill: none; stroke: #000000; stroke-linejoin: miter; stroke-linecap: square"/>
   </g>
   <g id="patch_7">
    <path d="M 38.204771 164.67346 
L 443.39976 164.67346 
" style="fill: none; stroke: #000000; stroke-linejoin: miter; stroke-linecap: square"/>
   </g>
  </g>
  <g id="axes_3">
   <g id="patch_8">
    <path d="M 38.204771 241.176297 
L 443.39976 241.176297 
L 443.39976 172.292097 
L 38.204771 172.292097 
z
" style="fill: #ffffff"/>
   </g>
   <g id="matplotlib.axis_5">
    <g id="xtick_17">
     <g id="line2d_54">
      <path d="M 56.622725 241.176297 
L 56.622725 172.292097 
" clip-path="url(#p7f80a67fbc)" style="fill: none; stroke: #b0b0b0; stroke-width: 0.8; stroke-linecap: round"/>
     </g>
     <g id="line2d_55"/>
    </g>
    <g id="xtick_18">
     <g id="line2d_56">
      <path d="M 110.267125 241.176297 
L 110.267125 172.292097 
" clip-path="url(#p7f80a67fbc)" style="fill: none; stroke: #b0b0b0; stroke-width: 0.8; stroke-linecap: round"/>
     </g>
     <g id="line2d_57"/>
    </g>
    <g id="xtick_19">
     <g id="line2d_58">
      <path d="M 163.911524 241.176297 
L 163.911524 172.292097 
" clip-path="url(#p7f80a67fbc)" style="fill: none; stroke: #b0b0b0; stroke-width: 0.8; stroke-linecap: round"/>
     </g>
     <g id="line2d_59"/>
    </g>
    <g id="xtick_20">
     <g id="line2d_60">
      <path d="M 217.555924 241.176297 
L 217.555924 172.292097 
" clip-path="url(#p7f80a67fbc)" style="fill: none; stroke: #b0b0b0; stroke-width: 0.8; stroke-linecap: round"/>
     </g>
     <g id="line2d_61"/>
    </g>
    <g id="xtick_21">
     <g id="line2d_62">
      <path d="M 271.200323 241.176297 
L 271.200323 172.292097 
" clip-path="url(#p7f80a67fbc)" style="fill: none; stroke: #b0b0b0; stroke-width: 0.8; stroke-linecap: round"/>
     </g>
     <g id="line2d_63"/>
    </g>
    <g id="xtick_22">
     <g id="line2d_64">
      <path d="M 324.844723 241.176297 
L 324.844723 172.292097 
" clip-path="url(#p7f80a67fbc)" style="fill: none; stroke: #b0b0b0; stroke-width: 0.8; stroke-linecap: round"/>
     </g>
     <g id="line2d_65"/>
    </g>
    <g id="xtick_23">
     <g id="line2d_66">
      <path d="M 378.489122 241.176297 
L 378.489122 172.292097 
" clip-path="url(#p7f80a67fbc)" style="fill: none; stroke: #b0b0b0; stroke-width: 0.8; stroke-linecap: round"/>
     </g>
     <g id="line2d_67"/>
    </g>
    <g id="xtick_24">
     <g id="line2d_68">
      <path d="M 432.133522 241.176297 
L 432.133522 172.292097 
" clip-path="url(#p7f80a67fbc)" style="fill: none; stroke: #b0b0b0; stroke-width: 0.8; stroke-linecap: round"/>
     </g>
     <g id="line2d_69"/>
    </g>
   </g>
   <g id="matplotlib.axis_6">
    <g id="ytick_7">
     <g id="line2d_70">
      <path d="M 38.204771 237.524805 
L 443.39976 237.524805 
" clip-path="url(#p7f80a67fbc)" style="fill: none; stroke: #b0b0b0; stroke-width: 0.8; stroke-linecap: round"/>
     </g>
     <g id="line2d_71"/>
     <g id="text_12">
      <!-- −50 -->
      <g style="fill: #262626" transform="translate(15.710552 240.944102) scale(0.09 -0.09)">
       <use xlink:href="#DejaVuSerif-2212"/>
       <use xlink:href="#DejaVuSerif-35" x="83.789062"/>
       <use xlink:href="#DejaVuSerif-30" x="147.412109"/>
      </g>
     </g>
    </g>
    <g id="ytick_8">
     <g id="line2d_72">
      <path d="M 38.204771 209.46216 
L 443.39976 209.46216 
" clip-path="url(#p7f80a67fbc)" style="fill: none; stroke: #b0b0b0; stroke-width: 0.8; stroke-linecap: round"/>
     </g>
     <g id="line2d_73"/>
     <g id="text_13">
      <!-- 0 -->
      <g style="fill: #262626" transform="translate(28.978521 212.881457) scale(0.09 -0.09)">
       <use xlink:href="#DejaVuSerif-30"/>
      </g>
     </g>
    </g>
    <g id="ytick_9">
     <g id="line2d_74">
      <path d="M 38.204771 181.399515 
L 443.39976 181.399515 
" clip-path="url(#p7f80a67fbc)" style="fill: none; stroke: #b0b0b0; stroke-width: 0.8; stroke-linecap: round"/>
     </g>
     <g id="line2d_75"/>
     <g id="text_14">
      <!-- 50 -->
      <g style="fill: #262626" transform="translate(23.252271 184.818811) scale(0.09 -0.09)">
       <use xlink:href="#DejaVuSerif-35"/>
       <use xlink:href="#DejaVuSerif-30" x="63.623047"/>
      </g>
     </g>
    </g>
    <g id="text_15">
     <!-- $Y_H(v)$ -->
     <g style="fill: #262626" transform="translate(9.838834 218.164197) rotate(-90) scale(0.09 -0.09)">
      <defs>
       <path id="DejaVuSans-Oblique-59" d="M 403 4666 
L 1081 4666 
L 1953 2747 
L 3616 4666 
L 4325 4666 
L 2209 2222 
L 1778 0 
L 1147 0 
L 1575 2222 
L 403 4666 
z
" transform="scale(0.015625)"/>
      </defs>
      <use xlink:href="#DejaVuSans-Oblique-59" transform="translate(0 0.125)"/>
      <use xlink:href="#DejaVuSans-Oblique-48" transform="translate(61.083984 -16.28125) scale(0.7)"/>
      <use xlink:href="#DejaVuSans-28" transform="translate(116.455078 0.125)"/>
      <use xlink:href="#DejaVuSans-Oblique-76" transform="translate(155.46875 0.125)"/>
      <use xlink:href="#DejaVuSans-29" transform="translate(214.648438 0.125)"/>
     </g>
    </g>
   </g>
   <g id="line2d_76">
    <path d="M 56.622725 209.45493 
L 58.967264 209.536901 
L 60.725669 209.84762 
L 64.935182 210.919898 
L 67.546147 211.662246 
L 72.661505 212.964863 
L 76.764448 214.472458 
L 78.789278 214.791949 
L 80.121402 214.813267 
L 81.400242 215.115658 
L 85.076906 216.243384 
L 86.5156 216.491428 
L 88.167435 216.403104 
L 89.233134 216.700995 
L 90.938254 217.120016 
L 93.229508 217.353204 
L 94.668202 217.426545 
L 95.840472 217.269394 
L 96.959457 217.366606 
L 99.250711 217.553048 
L 100.84926 217.365281 
L 102.820805 216.757759 
L 103.939789 216.247289 
L 105.218629 216.011868 
L 106.710608 215.615404 
L 108.042733 215.108438 
L 110.387272 213.955053 
L 111.932537 213.20081 
L 118.646444 210.755791 
L 121.523833 209.61538 
L 124.561077 208.676889 
L 129.676436 207.296098 
L 131.594695 206.669117 
L 134.312229 206.07698 
L 136.710053 205.794637 
L 142.091836 204.692882 
L 144.116666 204.55052 
L 146.034925 204.049593 
L 147.68676 203.781277 
L 150.244439 203.556712 
L 151.469993 203.621015 
L 152.748833 203.371405 
L 155.519652 202.875976 
L 156.905061 202.74906 
L 158.343756 202.710519 
L 159.569311 202.812036 
L 160.581725 202.671694 
L 163.512399 202.131788 
L 166.229933 202.063987 
L 167.828483 202.27452 
L 169.054037 202.085523 
L 171.665001 201.696996 
L 174.116111 201.639197 
L 175.60809 201.847006 
L 177.20664 201.640324 
L 180.457023 201.403191 
L 182.428568 201.561511 
L 183.494267 201.750581 
L 184.346827 201.68724 
L 188.449771 201.204271 
L 189.83518 201.340273 
L 192.17972 201.994833 
L 195.110394 202.168505 
L 196.708943 202.419521 
L 197.987783 202.781868 
L 199.959327 203.601676 
L 202.943286 204.55075 
L 206.51338 205.985008 
L 207.898789 206.371179 
L 209.657194 206.834232 
L 217.063806 209.261605 
L 222.552159 210.588084 
L 224.843414 211.152943 
L 227.720803 211.831856 
L 230.065342 212.17727 
L 231.663891 212.36002 
L 237.578524 213.433894 
L 239.603354 213.574381 
L 242.907022 214.144198 
L 248.87494 214.780663 
L 250.633345 215.10588 
L 253.777159 215.25375 
L 255.215853 215.172649 
L 256.814403 215.461185 
L 259.158942 215.802208 
L 261.663336 215.900596 
L 263.208601 215.734356 
L 264.16773 215.889923 
L 267.311544 216.310721 
L 269.549513 216.321241 
L 271.041493 216.104222 
L 272.000623 216.240976 
L 273.279462 216.455867 
L 276.423276 216.656137 
L 277.595546 216.540494 
L 278.92767 216.365862 
L 280.20651 216.504784 
L 282.284624 216.838896 
L 283.723319 216.876604 
L 285.801433 216.700071 
L 286.920418 216.487116 
L 287.879547 216.497682 
L 289.158387 216.500865 
L 290.810221 216.288242 
L 293.527755 215.750518 
L 294.85988 215.311252 
L 296.245289 215.066117 
L 297.470844 214.813321 
L 298.909539 214.263559 
L 300.934368 213.457511 
L 304.184752 212.425592 
L 306.209581 211.940603 
L 308.9804 211.021565 
L 311.538079 210.205017 
L 317.505997 208.798304 
L 320.223531 208.185592 
L 323.580485 207.361028 
L 325.498745 207.073603 
L 327.044009 206.94556 
L 329.441833 206.425438 
L 332.479077 205.944242 
L 333.971057 205.861792 
L 335.569606 205.632916 
L 339.512695 204.929184 
L 341.271099 204.825676 
L 342.816364 204.832605 
L 344.041918 204.612314 
L 346.333173 204.153342 
L 348.944137 203.91326 
L 351.555101 203.982867 
L 354.00621 203.43183 
L 357.043454 203.333356 
L 358.215723 203.44116 
L 359.494563 203.257736 
L 362.371952 202.894283 
L 364.023787 202.790349 
L 365.036201 202.879711 
L 366.155186 203.027248 
L 367.327455 202.853545 
L 369.139145 202.569905 
L 372.655954 202.418057 
L 373.295373 202.548804 
L 374.307788 202.705854 
L 375.266918 202.609027 
L 378.570587 202.191638 
L 381.021696 202.316735 
L 382.513675 202.557168 
L 383.579375 202.368213 
L 384.911499 202.15234 
L 386.936329 202.209032 
L 389.067728 202.698613 
L 390.293283 203.078532 
L 391.412267 203.178405 
L 393.596952 203.375898 
L 395.088931 203.718145 
L 396.90062 204.446732 
L 398.445885 205.139162 
L 400.896994 205.839446 
L 414.0051 209.590673 
L 416.669349 210.220639 
L 420.399298 211.100405 
L 424.981806 211.994677 
L 424.981806 211.994677 
" clip-path="url(#p7f80a67fbc)" style="fill: none; stroke: #0000ff; stroke-linecap: round"/>
   </g>
   <g id="line2d_77">
    <path d="M 56.622725 209.454123 
L 58.860695 209.532299 
L 60.512529 209.837553 
L 64.508903 210.926335 
L 67.333007 211.85114 
L 72.60822 213.331998 
L 76.657879 215.004402 
L 78.576138 215.392798 
L 80.334542 215.445646 
L 81.613382 215.824262 
L 84.384201 216.799189 
L 86.142605 217.262941 
L 86.675455 217.255869 
L 88.00758 217.148145 
L 88.913424 217.387474 
L 90.511974 217.893252 
L 92.003953 218.104468 
L 94.082068 218.347244 
L 94.614917 218.326371 
L 96.000327 218.139066 
L 97.545591 218.340874 
L 99.197426 218.457415 
L 100.63612 218.302246 
L 102.55438 217.729272 
L 104.046359 216.971933 
L 107.509883 215.992897 
L 110.014277 214.679121 
L 112.571956 213.392673 
L 114.863211 212.545652 
L 124.081513 208.732113 
L 127.704891 207.711536 
L 129.676436 207.054499 
L 131.488125 206.386827 
L 134.418799 205.691504 
L 136.603483 205.412147 
L 142.038551 204.162886 
L 144.223236 203.979014 
L 145.715215 203.535247 
L 147.420335 203.184315 
L 150.404294 202.919496 
L 151.469993 202.969502 
L 152.695548 202.70552 
L 155.093372 202.210033 
L 157.757621 201.91086 
L 158.450326 201.978665 
L 159.569311 202.07029 
L 160.52844 201.925742 
L 164.098534 201.269937 
L 166.229933 201.238804 
L 167.775198 201.476896 
L 169.000752 201.274723 
L 171.345292 200.861193 
L 173.902971 200.721257 
L 176.087655 200.947563 
L 179.817604 200.496798 
L 182.428568 200.680283 
L 183.440982 200.886754 
L 184.240257 200.838682 
L 188.076776 200.273935 
L 189.62204 200.379921 
L 190.15489 200.573176 
L 191.273875 201.042038 
L 192.286289 201.164819 
L 195.696528 201.43182 
L 197.668073 201.890632 
L 198.627202 202.402923 
L 199.639617 202.846135 
L 202.943286 204.002938 
L 206.353525 205.52934 
L 207.632364 205.962919 
L 209.923619 206.645297 
L 215.358687 208.718122 
L 220.260905 210.142528 
L 223.138294 210.853076 
L 230.065342 212.48011 
L 231.557321 212.664037 
L 233.155871 213.039595 
L 234.807705 213.367082 
L 238.004804 213.879351 
L 239.177074 213.950621 
L 244.878567 214.926807 
L 245.944266 214.960613 
L 247.116536 214.962426 
L 248.555231 215.279431 
L 250.526775 215.721536 
L 252.391749 215.884933 
L 254.150154 215.836571 
L 255.109283 215.800199 
L 256.281553 216.019242 
L 258.572807 216.458672 
L 262.036331 216.541825 
L 262.995461 216.427613 
L 263.95459 216.560563 
L 266.885264 217.046466 
L 269.389658 217.116529 
L 271.307918 216.865543 
L 272.373617 217.095771 
L 273.439317 217.249961 
L 276.423276 217.458544 
L 277.542261 217.343747 
L 278.767815 217.136395 
L 279.726945 217.197652 
L 283.829889 217.700974 
L 285.428438 217.625381 
L 286.920418 217.27067 
L 287.826262 217.277887 
L 289.158387 217.285953 
L 290.703651 217.06894 
L 293.3679 216.523384 
L 294.75331 215.99185 
L 296.458429 215.658991 
L 297.524129 215.392161 
L 298.749684 214.876089 
L 302.586202 213.135805 
L 303.651902 212.867459 
L 306.262866 212.199791 
L 308.9804 211.195499 
L 311.431509 210.318148 
L 317.186287 208.787251 
L 320.063676 208.093033 
L 323.10092 207.245167 
L 325.179035 206.817515 
L 327.417004 206.585052 
L 331.573232 205.674365 
L 333.384922 205.496239 
L 335.196611 205.290816 
L 339.45941 204.429921 
L 341.324384 204.312966 
L 342.816364 204.316231 
L 343.988633 204.087341 
L 345.960178 203.609046 
L 349.210562 203.318682 
L 351.022251 203.461873 
L 351.768241 203.305104 
L 353.846355 202.774235 
L 356.990169 202.640255 
L 358.269008 202.766127 
L 359.654418 202.534044 
L 362.158812 202.160549 
L 363.544222 202.070637 
L 364.663206 202.052783 
L 366.368326 202.288945 
L 367.48731 202.08016 
L 368.97929 201.813461 
L 371.163974 201.685158 
L 372.922379 201.669752 
L 374.414358 201.951236 
L 375.426773 201.820433 
L 378.730442 201.383564 
L 381.128266 201.549041 
L 382.24725 201.78764 
L 383.046525 201.720281 
L 385.284494 201.319985 
L 386.456764 201.334199 
L 387.362609 201.491046 
L 389.174298 201.993015 
L 390.293283 202.366511 
L 391.358982 202.476665 
L 392.957532 202.608016 
L 394.556081 202.906471 
L 396.154631 203.502417 
L 397.060475 203.982513 
L 398.339315 204.617631 
L 400.470714 205.309119 
L 403.454673 206.265492 
L 413.79196 209.560433 
L 416.243069 210.180767 
L 420.665722 211.332001 
L 423.596396 211.933948 
L 424.981806 212.27715 
L 424.981806 212.27715 
" clip-path="url(#p7f80a67fbc)" style="fill: none; stroke: #008000; stroke-linecap: round"/>
   </g>
   <g id="line2d_78">
    <path d="M 56.622725 209.443652 
L 58.27456 209.502225 
L 59.340259 209.777297 
L 60.565814 210.356649 
L 64.082623 212.495217 
L 68.771701 215.866896 
L 72.82136 218.589769 
L 75.965174 221.803598 
L 78.362998 223.10132 
L 78.949133 223.086627 
L 79.801692 223.080036 
L 80.441112 223.29285 
L 81.133817 223.727086 
L 82.199517 224.637131 
L 84.597341 226.507726 
L 85.87618 227.298887 
L 86.40903 227.475245 
L 86.94188 227.307719 
L 87.634585 227.087083 
L 88.167435 227.229661 
L 88.806854 227.630962 
L 90.725114 228.978067 
L 92.003953 229.364902 
L 93.176223 229.643367 
L 94.401778 229.951298 
L 95.041197 229.665273 
L 95.733902 229.457069 
L 96.213467 229.474368 
L 99.197426 230.177719 
L 100.156556 229.997618 
L 100.902545 229.657786 
L 102.394525 228.699496 
L 104.152929 226.695584 
L 106.177759 225.610072 
L 107.350028 224.659073 
L 108.255873 223.666384 
L 110.333987 221.041155 
L 111.666112 219.280756 
L 112.731811 218.395108 
L 114.170506 217.247748 
L 119.019439 212.349593 
L 120.298279 210.994704 
L 123.655233 208.104157 
L 125.307067 206.96412 
L 129.942861 203.659206 
L 131.274985 202.523946 
L 133.406384 201.206963 
L 134.312229 200.796742 
L 136.230488 200.331054 
L 137.296188 199.702919 
L 139.587442 198.32801 
L 141.505702 197.455369 
L 142.198406 197.247163 
L 143.637101 197.089596 
L 144.649516 196.571364 
L 147.04734 195.133868 
L 148.539319 194.657372 
L 149.924729 194.29479 
L 150.457579 194.412284 
L 151.096998 194.531966 
L 151.576563 194.478105 
L 152.802118 193.841001 
L 154.826947 192.856961 
L 156.372212 192.372845 
L 158.237186 192.139792 
L 159.462741 192.445708 
L 160.048875 192.327506 
L 160.95472 191.877091 
L 163.245974 190.755355 
L 164.897809 190.492532 
L 166.070078 190.447067 
L 167.668628 191.087217 
L 168.414618 190.879296 
L 171.931426 189.528336 
L 173.263551 189.331821 
L 173.956256 189.351051 
L 175.60809 189.968812 
L 176.35408 189.752423 
L 178.485479 189.023789 
L 179.764319 188.812146 
L 182.162143 189.059791 
L 183.227843 189.659816 
L 183.760692 189.72479 
L 184.506682 189.490424 
L 187.330786 188.359729 
L 188.343201 188.311017 
L 189.51547 188.522619 
L 189.83518 188.67167 
L 190.36803 189.244978 
L 191.060735 189.927105 
L 191.75344 190.280027 
L 192.765854 190.381548 
L 193.671699 190.505254 
L 195.803098 191.00934 
L 196.975368 191.589878 
L 198.041068 192.427007 
L 199.426477 194.053607 
L 200.598747 194.845344 
L 201.557876 195.455331 
L 202.303866 196.17898 
L 205.44768 199.492129 
L 206.0871 200.127633 
L 207.206084 201.131106 
L 210.243328 203.282393 
L 212.801008 205.634111 
L 216.371101 208.477985 
L 218.982065 210.170345 
L 222.232449 212.188464 
L 223.884284 213.116365 
L 227.187953 215.249162 
L 228.679932 215.939625 
L 229.905487 216.385679 
L 231.397466 216.77024 
L 232.569736 217.38191 
L 234.86099 218.478918 
L 237.418669 219.598148 
L 237.951519 219.637374 
L 238.857364 219.69256 
L 239.656639 220.016625 
L 242.640598 221.366592 
L 245.517987 222.190093 
L 246.956681 222.090156 
L 247.755956 222.389152 
L 249.08808 223.202533 
L 250.313635 223.808025 
L 251.53919 224.123211 
L 252.604889 224.272489 
L 253.777159 224.287532 
L 254.842858 224.030018 
L 255.535563 224.193472 
L 257.134113 224.978798 
L 258.466237 225.55221 
L 261.290341 226.085435 
L 261.769906 225.896035 
L 262.729036 225.533107 
L 263.42174 225.564212 
L 264.48744 226.070117 
L 265.926135 226.714254 
L 267.311544 226.993176 
L 269.176519 227.142875 
L 269.602798 226.989935 
L 270.721783 226.474229 
L 271.361203 226.525706 
L 272.107193 226.881651 
L 273.119607 227.337002 
L 276.210136 227.876137 
L 277.222551 227.778408 
L 277.915256 227.394294 
L 278.448105 227.178136 
L 279.194095 227.165625 
L 280.046655 227.407235 
L 282.551049 228.386042 
L 283.403609 228.452716 
L 285.108728 228.4069 
L 285.481723 228.223121 
L 286.760563 227.474003 
L 287.506552 227.421803 
L 289.264957 227.458552 
L 292.302201 226.396495 
L 293.421185 225.666547 
L 294.593455 224.612894 
L 295.39273 224.168896 
L 297.310989 223.285466 
L 298.163549 222.54985 
L 299.602243 220.969236 
L 300.987653 219.641431 
L 301.680358 218.878589 
L 302.586202 217.922356 
L 303.278907 217.476967 
L 305.623446 216.22502 
L 307.701561 214.554689 
L 311.165084 211.604157 
L 315.800878 208.690881 
L 318.038847 207.502768 
L 319.264402 206.822838 
L 324.752755 203.495248 
L 325.33889 203.355362 
L 326.457874 203.230933 
L 327.257149 202.920574 
L 328.802413 202.053031 
L 330.294393 201.294704 
L 333.438207 200.322221 
L 334.610476 200.092913 
L 335.463036 199.714647 
L 337.008301 198.844749 
L 338.92656 198.003789 
L 340.791534 197.549824 
L 341.377669 197.613265 
L 342.230229 197.703958 
L 343.189359 197.50906 
L 343.935348 197.119377 
L 345.747038 196.052691 
L 347.079162 195.67747 
L 348.890852 195.248634 
L 351.288676 195.579039 
L 351.874811 195.203662 
L 353.420075 194.194544 
L 354.11278 194.005892 
L 355.817899 193.700472 
L 356.936884 193.728141 
L 357.896014 194.034716 
L 358.428863 194.009738 
L 359.547848 193.55786 
L 361.466107 192.7251 
L 364.023787 192.383589 
L 364.769776 192.448467 
L 365.888761 192.983136 
L 366.315041 192.957163 
L 367.220885 192.608299 
L 368.606295 191.954912 
L 370.790979 191.618151 
L 372.869094 191.491073 
L 373.561798 191.945499 
L 374.094648 192.139272 
L 374.680783 192.120281 
L 375.373488 191.8794 
L 376.279332 191.496743 
L 377.131892 191.097892 
L 378.623872 190.852081 
L 379.423146 190.963945 
L 380.435561 191.016435 
L 380.808556 191.071981 
L 381.234836 191.312825 
L 382.24725 191.788178 
L 382.7801 191.725881 
L 383.31295 191.478149 
L 384.218795 190.97999 
L 384.80493 190.760515 
L 386.510049 190.750509 
L 387.096184 190.968185 
L 388.961158 192.045833 
L 390.239998 193.097459 
L 391.092557 193.36373 
L 392.531252 193.562741 
L 394.609366 194.40175 
L 395.461926 195.083959 
L 396.634196 196.260651 
L 398.17946 198.163913 
L 400.044434 199.605936 
L 403.134963 201.852712 
L 406.012352 204.126294 
L 407.983897 205.663174 
L 412.61969 209.085186 
L 416.616064 211.367013 
L 418.374468 212.443839 
L 421.518282 214.059765 
L 422.264272 214.407289 
L 424.981806 215.944923 
L 424.981806 215.944923 
" clip-path="url(#p7f80a67fbc)" style="fill: none; stroke: #ff0000; stroke-linecap: round"/>
   </g>
   <g id="patch_9">
    <path d="M 38.204771 241.176297 
L 38.204771 172.292097 
" style="fill: none; stroke: #000000; stroke-linejoin: miter; stroke-linecap: square"/>
   </g>
   <g id="patch_10">
    <path d="M 38.204771 241.176297 
L 443.39976 241.176297 
" style="fill: none; stroke: #000000; stroke-linejoin: miter; stroke-linecap: square"/>
   </g>
  </g>
  <g id="axes_4">
   <g id="patch_11">
    <path d="M 38.204771 317.679135 
L 443.39976 317.679135 
L 443.39976 248.794934 
L 38.204771 248.794934 
z
" style="fill: #ffffff"/>
   </g>
   <g id="matplotlib.axis_7">
    <g id="xtick_25">
     <g id="line2d_79">
      <path d="M 56.622725 317.679135 
L 56.622725 248.794934 
" clip-path="url(#p356282d680)" style="fill: none; stroke: #b0b0b0; stroke-width: 0.8; stroke-linecap: round"/>
     </g>
     <g id="line2d_80"/>
     <g id="text_16">
      <!-- 0 -->
      <g style="fill: #262626" transform="translate(53.7596 328.017729) scale(0.09 -0.09)">
       <use xlink:href="#DejaVuSerif-30"/>
      </g>
     </g>
    </g>
    <g id="xtick_26">
     <g id="line2d_81">
      <path d="M 110.267125 317.679135 
L 110.267125 248.794934 
" clip-path="url(#p356282d680)" style="fill: none; stroke: #b0b0b0; stroke-width: 0.8; stroke-linecap: round"/>
     </g>
     <g id="line2d_82"/>
     <g id="text_17">
      <!-- 10 -->
      <g style="fill: #262626" transform="translate(104.540875 328.017729) scale(0.09 -0.09)">
       <defs>
        <path id="DejaVuSerif-31" d="M 909 0 
L 909 331 
L 1722 331 
L 1722 4213 
L 781 3603 
L 781 4013 
L 1919 4750 
L 2350 4750 
L 2350 331 
L 3163 331 
L 3163 0 
L 909 0 
z
" transform="scale(0.015625)"/>
       </defs>
       <use xlink:href="#DejaVuSerif-31"/>
       <use xlink:href="#DejaVuSerif-30" x="63.623047"/>
      </g>
     </g>
    </g>
    <g id="xtick_27">
     <g id="line2d_83">
      <path d="M 163.911524 317.679135 
L 163.911524 248.794934 
" clip-path="url(#p356282d680)" style="fill: none; stroke: #b0b0b0; stroke-width: 0.8; stroke-linecap: round"/>
     </g>
     <g id="line2d_84"/>
     <g id="text_18">
      <!-- 20 -->
      <g style="fill: #262626" transform="translate(158.185274 328.017729) scale(0.09 -0.09)">
       <defs>
        <path id="DejaVuSerif-32" d="M 819 3553 
L 469 3553 
L 469 4384 
Q 803 4563 1142 4656 
Q 1481 4750 1806 4750 
Q 2534 4750 2956 4397 
Q 3378 4044 3378 3438 
Q 3378 2753 2422 1800 
Q 2347 1728 2309 1691 
L 1131 513 
L 3078 513 
L 3078 1088 
L 3444 1088 
L 3444 0 
L 434 0 
L 434 341 
L 1850 1753 
Q 2319 2222 2519 2614 
Q 2719 3006 2719 3438 
Q 2719 3909 2473 4175 
Q 2228 4441 1797 4441 
Q 1350 4441 1106 4219 
Q 863 3997 819 3553 
z
" transform="scale(0.015625)"/>
       </defs>
       <use xlink:href="#DejaVuSerif-32"/>
       <use xlink:href="#DejaVuSerif-30" x="63.623047"/>
      </g>
     </g>
    </g>
    <g id="xtick_28">
     <g id="line2d_85">
      <path d="M 217.555924 317.679135 
L 217.555924 248.794934 
" clip-path="url(#p356282d680)" style="fill: none; stroke: #b0b0b0; stroke-width: 0.8; stroke-linecap: round"/>
     </g>
     <g id="line2d_86"/>
     <g id="text_19">
      <!-- 30 -->
      <g style="fill: #262626" transform="translate(211.829674 328.017729) scale(0.09 -0.09)">
       <defs>
        <path id="DejaVuSerif-33" d="M 622 4469 
Q 988 4606 1323 4678 
Q 1659 4750 1953 4750 
Q 2638 4750 3022 4454 
Q 3406 4159 3406 3634 
Q 3406 3213 3140 2930 
Q 2875 2647 2388 2547 
Q 2963 2466 3280 2130 
Q 3597 1794 3597 1259 
Q 3597 606 3158 257 
Q 2719 -91 1894 -91 
Q 1528 -91 1179 -12 
Q 831 66 488 225 
L 488 1131 
L 838 1131 
Q 869 681 1141 450 
Q 1413 219 1906 219 
Q 2384 219 2661 495 
Q 2938 772 2938 1253 
Q 2938 1803 2653 2086 
Q 2369 2369 1819 2369 
L 1522 2369 
L 1522 2688 
L 1678 2688 
Q 2225 2688 2498 2914 
Q 2772 3141 2772 3597 
Q 2772 4006 2547 4223 
Q 2322 4441 1900 4441 
Q 1478 4441 1245 4241 
Q 1013 4041 972 3647 
L 622 3647 
L 622 4469 
z
" transform="scale(0.015625)"/>
       </defs>
       <use xlink:href="#DejaVuSerif-33"/>
       <use xlink:href="#DejaVuSerif-30" x="63.623047"/>
      </g>
     </g>
    </g>
    <g id="xtick_29">
     <g id="line2d_87">
      <path d="M 271.200323 317.679135 
L 271.200323 248.794934 
" clip-path="url(#p356282d680)" style="fill: none; stroke: #b0b0b0; stroke-width: 0.8; stroke-linecap: round"/>
     </g>
     <g id="line2d_88"/>
     <g id="text_20">
      <!-- 40 -->
      <g style="fill: #262626" transform="translate(265.474073 328.017729) scale(0.09 -0.09)">
       <defs>
        <path id="DejaVuSerif-34" d="M 2234 1581 
L 2234 4063 
L 641 1581 
L 2234 1581 
z
M 3609 0 
L 1484 0 
L 1484 331 
L 2234 331 
L 2234 1247 
L 197 1247 
L 197 1588 
L 2241 4750 
L 2859 4750 
L 2859 1581 
L 3750 1581 
L 3750 1247 
L 2859 1247 
L 2859 331 
L 3609 331 
L 3609 0 
z
" transform="scale(0.015625)"/>
       </defs>
       <use xlink:href="#DejaVuSerif-34"/>
       <use xlink:href="#DejaVuSerif-30" x="63.623047"/>
      </g>
     </g>
    </g>
    <g id="xtick_30">
     <g id="line2d_89">
      <path d="M 324.844723 317.679135 
L 324.844723 248.794934 
" clip-path="url(#p356282d680)" style="fill: none; stroke: #b0b0b0; stroke-width: 0.8; stroke-linecap: round"/>
     </g>
     <g id="line2d_90"/>
     <g id="text_21">
      <!-- 50 -->
      <g style="fill: #262626" transform="translate(319.118473 328.017729) scale(0.09 -0.09)">
       <use xlink:href="#DejaVuSerif-35"/>
       <use xlink:href="#DejaVuSerif-30" x="63.623047"/>
      </g>
     </g>
    </g>
    <g id="xtick_31">
     <g id="line2d_91">
      <path d="M 378.489122 317.679135 
L 378.489122 248.794934 
" clip-path="url(#p356282d680)" style="fill: none; stroke: #b0b0b0; stroke-width: 0.8; stroke-linecap: round"/>
     </g>
     <g id="line2d_92"/>
     <g id="text_22">
      <!-- 60 -->
      <g style="fill: #262626" transform="translate(372.762872 328.017729) scale(0.09 -0.09)">
       <defs>
        <path id="DejaVuSerif-36" d="M 2094 219 
Q 2534 219 2771 542 
Q 3009 866 3009 1472 
Q 3009 2078 2771 2401 
Q 2534 2725 2094 2725 
Q 1647 2725 1412 2412 
Q 1178 2100 1178 1509 
Q 1178 888 1415 553 
Q 1653 219 2094 219 
z
M 1075 2569 
Q 1288 2803 1556 2918 
Q 1825 3034 2163 3034 
Q 2859 3034 3264 2615 
Q 3669 2197 3669 1472 
Q 3669 763 3233 336 
Q 2797 -91 2069 -91 
Q 1278 -91 853 498 
Q 428 1088 428 2181 
Q 428 3406 931 4078 
Q 1434 4750 2350 4750 
Q 2597 4750 2869 4703 
Q 3141 4656 3425 4563 
L 3425 3794 
L 3072 3794 
Q 3034 4109 2831 4275 
Q 2628 4441 2284 4441 
Q 1678 4441 1381 3981 
Q 1084 3522 1075 2569 
z
" transform="scale(0.015625)"/>
       </defs>
       <use xlink:href="#DejaVuSerif-36"/>
       <use xlink:href="#DejaVuSerif-30" x="63.623047"/>
      </g>
     </g>
    </g>
    <g id="xtick_32">
     <g id="line2d_93">
      <path d="M 432.133522 317.679135 
L 432.133522 248.794934 
" clip-path="url(#p356282d680)" style="fill: none; stroke: #b0b0b0; stroke-width: 0.8; stroke-linecap: round"/>
     </g>
     <g id="line2d_94"/>
     <g id="text_23">
      <!-- 70 -->
      <g style="fill: #262626" transform="translate(426.407272 328.017729) scale(0.09 -0.09)">
       <defs>
        <path id="DejaVuSerif-37" d="M 3609 4347 
L 1784 0 
L 1319 0 
L 3059 4153 
L 903 4153 
L 903 3578 
L 538 3578 
L 538 4666 
L 3609 4666 
L 3609 4347 
z
" transform="scale(0.015625)"/>
       </defs>
       <use xlink:href="#DejaVuSerif-37"/>
       <use xlink:href="#DejaVuSerif-30" x="63.623047"/>
      </g>
     </g>
    </g>
    <g id="text_24">
     <!-- Time [s] -->
     <g style="fill: #262626" transform="translate(222.18 340.728041) scale(0.09 -0.09)">
      <defs>
       <path id="DejaVuSerif-54" d="M 1222 0 
L 1222 331 
L 1819 331 
L 1819 4294 
L 447 4294 
L 447 3566 
L 63 3566 
L 63 4666 
L 4206 4666 
L 4206 3566 
L 3822 3566 
L 3822 4294 
L 2450 4294 
L 2450 331 
L 3047 331 
L 3047 0 
L 1222 0 
z
" transform="scale(0.015625)"/>
       <path id="DejaVuSerif-5b" d="M 550 4863 
L 2003 4863 
L 2003 4531 
L 1147 4531 
L 1147 -513 
L 2003 -513 
L 2003 -844 
L 550 -844 
L 550 4863 
z
" transform="scale(0.015625)"/>
       <path id="DejaVuSerif-5d" d="M 1947 4863 
L 1947 -844 
L 494 -844 
L 494 -513 
L 1350 -513 
L 1350 4531 
L 494 4531 
L 494 4863 
L 1947 4863 
z
" transform="scale(0.015625)"/>
      </defs>
      <use xlink:href="#DejaVuSerif-54"/>
      <use xlink:href="#DejaVuSerif-69" x="66.699219"/>
      <use xlink:href="#DejaVuSerif-6d" x="98.681641"/>
      <use xlink:href="#DejaVuSerif-65" x="193.505859"/>
      <use xlink:href="#DejaVuSerif-20" x="252.685547"/>
      <use xlink:href="#DejaVuSerif-5b" x="284.472656"/>
      <use xlink:href="#DejaVuSerif-73" x="323.486328"/>
      <use xlink:href="#DejaVuSerif-5d" x="374.804688"/>
     </g>
    </g>
   </g>
   <g id="matplotlib.axis_8">
    <g id="ytick_10">
     <g id="line2d_95">
      <path d="M 38.204771 314.027643 
L 443.39976 314.027643 
" clip-path="url(#p356282d680)" style="fill: none; stroke: #b0b0b0; stroke-width: 0.8; stroke-linecap: round"/>
     </g>
     <g id="line2d_96"/>
     <g id="text_25">
      <!-- −50 -->
      <g style="fill: #262626" transform="translate(15.710552 317.44694) scale(0.09 -0.09)">
       <use xlink:href="#DejaVuSerif-2212"/>
       <use xlink:href="#DejaVuSerif-35" x="83.789062"/>
       <use xlink:href="#DejaVuSerif-30" x="147.412109"/>
      </g>
     </g>
    </g>
    <g id="ytick_11">
     <g id="line2d_97">
      <path d="M 38.204771 285.964998 
L 443.39976 285.964998 
" clip-path="url(#p356282d680)" style="fill: none; stroke: #b0b0b0; stroke-width: 0.8; stroke-linecap: round"/>
     </g>
     <g id="line2d_98"/>
     <g id="text_26">
      <!-- 0 -->
      <g style="fill: #262626" transform="translate(28.978521 289.384295) scale(0.09 -0.09)">
       <use xlink:href="#DejaVuSerif-30"/>
      </g>
     </g>
    </g>
    <g id="ytick_12">
     <g id="line2d_99">
      <path d="M 38.204771 257.902352 
L 443.39976 257.902352 
" clip-path="url(#p356282d680)" style="fill: none; stroke: #b0b0b0; stroke-width: 0.8; stroke-linecap: round"/>
     </g>
     <g id="line2d_100"/>
     <g id="text_27">
      <!-- 50 -->
      <g style="fill: #262626" transform="translate(23.252271 261.321649) scale(0.09 -0.09)">
       <use xlink:href="#DejaVuSerif-35"/>
       <use xlink:href="#DejaVuSerif-30" x="63.623047"/>
      </g>
     </g>
    </g>
    <g id="text_28">
     <!-- $Y_H(r)$ -->
     <g style="fill: #262626" transform="translate(9.838834 293.857035) rotate(-90) scale(0.09 -0.09)">
      <use xlink:href="#DejaVuSans-Oblique-59" transform="translate(0 0.125)"/>
      <use xlink:href="#DejaVuSans-Oblique-48" transform="translate(61.083984 -16.28125) scale(0.7)"/>
      <use xlink:href="#DejaVuSans-28" transform="translate(116.455078 0.125)"/>
      <use xlink:href="#DejaVuSans-Oblique-72" transform="translate(155.46875 0.125)"/>
      <use xlink:href="#DejaVuSans-29" transform="translate(196.582031 0.125)"/>
     </g>
    </g>
   </g>
   <g id="line2d_101">
    <path d="M 56.622725 285.964998 
L 424.981806 285.964998 
L 424.981806 285.964998 
" clip-path="url(#p356282d680)" style="fill: none; stroke: #0000ff; stroke-linecap: round"/>
   </g>
   <g id="line2d_102">
    <path d="M 56.622725 285.964998 
L 424.981806 285.964998 
L 424.981806 285.964998 
" clip-path="url(#p356282d680)" style="fill: none; stroke: #008000; stroke-linecap: round"/>
   </g>
   <g id="line2d_103">
    <path d="M 56.622725 285.964998 
L 424.981806 285.964998 
L 424.981806 285.964998 
" clip-path="url(#p356282d680)" style="fill: none; stroke: #ff0000; stroke-linecap: round"/>
   </g>
   <g id="patch_12">
    <path d="M 38.204771 317.679135 
L 38.204771 248.794934 
" style="fill: none; stroke: #000000; stroke-linejoin: miter; stroke-linecap: square"/>
   </g>
   <g id="patch_13">
    <path d="M 38.204771 317.679135 
L 443.39976 317.679135 
" style="fill: none; stroke: #000000; stroke-linejoin: miter; stroke-linecap: square"/>
   </g>
  </g>
 </g>
 <defs>
  <clipPath id="p068e6319ee">
   <rect x="38.204771" y="19.286421" width="405.194989" height="68.884201"/>
  </clipPath>
  <clipPath id="pe50e22a2a1">
   <rect x="38.204771" y="95.789259" width="405.194989" height="68.884201"/>
  </clipPath>
  <clipPath id="p7f80a67fbc">
   <rect x="38.204771" y="172.292097" width="405.194989" height="68.884201"/>
  </clipPath>
  <clipPath id="p356282d680">
   <rect x="38.204771" y="248.794934" width="405.194989" height="68.884201"/>
  </clipPath>
 </defs>
</svg>
