<?xml version="1.0" encoding="utf-8" standalone="no"?>
<!DOCTYPE svg PUBLIC "-//W3C//DTD SVG 1.1//EN"
  "http://www.w3.org/Graphics/SVG/1.1/DTD/svg11.dtd">
<svg xmlns:xlink="http://www.w3.org/1999/xlink" width="388.61928pt" height="218.623104pt" viewBox="0 0 388.61928 218.623104" xmlns="http://www.w3.org/2000/svg" version="1.1">
 <metadata>
  <rdf:RDF xmlns:dc="http://purl.org/dc/elements/1.1/" xmlns:cc="http://creativecommons.org/ns#" xmlns:rdf="http://www.w3.org/1999/02/22-rdf-syntax-ns#">
   <cc:Work>
    <dc:type rdf:resource="http://purl.org/dc/dcmitype/StillImage"/>
    <dc:date>2024-02-16T10:05:35.980422</dc:date>
    <dc:format>image/svg+xml</dc:format>
    <dc:creator>
     <cc:Agent>
      <dc:title>Matplotlib v3.8.2, https://matplotlib.org/</dc:title>
     </cc:Agent>
    </dc:creator>
   </cc:Work>
  </rdf:RDF>
 </metadata>
 <defs>
  <style type="text/css">*{stroke-linejoin: round; stroke-linecap: butt}</style>
 </defs>
 <g id="figure_1">
  <g id="patch_1">
   <path d="M 0 218.623104 
L 388.61928 218.623104 
L 388.61928 0 
L 0 0 
z
" style="fill: #ffffff"/>
  </g>
  <g id="axes_1">
   <g id="patch_2">
    <path d="M 38.204771 53.205129 
L 385.61904 53.205129 
L 385.61904 16.731417 
L 38.204771 16.731417 
z
" style="fill: #ffffff"/>
   </g>
   <g id="matplotlib.axis_1">
    <g id="xtick_1">
     <g id="line2d_1">
      <path d="M 53.996329 53.205129 
L 53.996329 16.731417 
" clip-path="url(#pdb5c5b140e)" style="fill: none; stroke: #b0b0b0; stroke-width: 0.2; stroke-linecap: round"/>
     </g>
     <g id="line2d_2"/>
    </g>
    <g id="xtick_2">
     <g id="line2d_3">
      <path d="M 99.991048 53.205129 
L 99.991048 16.731417 
" clip-path="url(#pdb5c5b140e)" style="fill: none; stroke: #b0b0b0; stroke-width: 0.2; stroke-linecap: round"/>
     </g>
     <g id="line2d_4"/>
    </g>
    <g id="xtick_3">
     <g id="line2d_5">
      <path d="M 145.985768 53.205129 
L 145.985768 16.731417 
" clip-path="url(#pdb5c5b140e)" style="fill: none; stroke: #b0b0b0; stroke-width: 0.2; stroke-linecap: round"/>
     </g>
     <g id="line2d_6"/>
    </g>
    <g id="xtick_4">
     <g id="line2d_7">
      <path d="M 191.980487 53.205129 
L 191.980487 16.731417 
" clip-path="url(#pdb5c5b140e)" style="fill: none; stroke: #b0b0b0; stroke-width: 0.2; stroke-linecap: round"/>
     </g>
     <g id="line2d_8"/>
    </g>
    <g id="xtick_5">
     <g id="line2d_9">
      <path d="M 237.975207 53.205129 
L 237.975207 16.731417 
" clip-path="url(#pdb5c5b140e)" style="fill: none; stroke: #b0b0b0; stroke-width: 0.2; stroke-linecap: round"/>
     </g>
     <g id="line2d_10"/>
    </g>
    <g id="xtick_6">
     <g id="line2d_11">
      <path d="M 283.969926 53.205129 
L 283.969926 16.731417 
" clip-path="url(#pdb5c5b140e)" style="fill: none; stroke: #b0b0b0; stroke-width: 0.2; stroke-linecap: round"/>
     </g>
     <g id="line2d_12"/>
    </g>
    <g id="xtick_7">
     <g id="line2d_13">
      <path d="M 329.964646 53.205129 
L 329.964646 16.731417 
" clip-path="url(#pdb5c5b140e)" style="fill: none; stroke: #b0b0b0; stroke-width: 0.2; stroke-linecap: round"/>
     </g>
     <g id="line2d_14"/>
    </g>
    <g id="xtick_8">
     <g id="line2d_15">
      <path d="M 375.959365 53.205129 
L 375.959365 16.731417 
" clip-path="url(#pdb5c5b140e)" style="fill: none; stroke: #b0b0b0; stroke-width: 0.2; stroke-linecap: round"/>
     </g>
     <g id="line2d_16"/>
    </g>
   </g>
   <g id="matplotlib.axis_2">
    <g id="ytick_1">
     <g id="line2d_17">
      <path d="M 38.204771 51.271689 
L 385.61904 51.271689 
" clip-path="url(#pdb5c5b140e)" style="fill: none; stroke: #b0b0b0; stroke-width: 0.2; stroke-linecap: round"/>
     </g>
     <g id="line2d_18"/>
     <g id="text_1">
      <!-- −50 -->
      <g style="fill: #262626" transform="translate(15.710552 54.690986) scale(0.09 -0.09)">
       <defs>
        <path id="DejaVuSerif-2212" d="M 678 2259 
L 4684 2259 
L 4684 1753 
L 678 1753 
L 678 2259 
z
" transform="scale(0.015625)"/>
        <path id="DejaVuSerif-35" d="M 3219 4666 
L 3219 4153 
L 1081 4153 
L 1081 2816 
Q 1244 2928 1461 2984 
Q 1678 3041 1947 3041 
Q 2703 3041 3140 2622 
Q 3578 2203 3578 1478 
Q 3578 738 3136 323 
Q 2694 -91 1894 -91 
Q 1572 -91 1234 -12 
Q 897 66 544 225 
L 544 1131 
L 897 1131 
Q 925 688 1179 453 
Q 1434 219 1894 219 
Q 2388 219 2653 544 
Q 2919 869 2919 1478 
Q 2919 2084 2655 2407 
Q 2391 2731 1894 2731 
Q 1613 2731 1398 2631 
Q 1184 2531 1019 2322 
L 750 2322 
L 750 4666 
L 3219 4666 
z
" transform="scale(0.015625)"/>
        <path id="DejaVuSerif-30" d="M 2034 219 
Q 2513 219 2750 744 
Q 2988 1269 2988 2328 
Q 2988 3391 2750 3916 
Q 2513 4441 2034 4441 
Q 1556 4441 1318 3916 
Q 1081 3391 1081 2328 
Q 1081 1269 1318 744 
Q 1556 219 2034 219 
z
M 2034 -91 
Q 1275 -91 848 546 
Q 422 1184 422 2328 
Q 422 3475 848 4112 
Q 1275 4750 2034 4750 
Q 2797 4750 3222 4112 
Q 3647 3475 3647 2328 
Q 3647 1184 3222 546 
Q 2797 -91 2034 -91 
z
" transform="scale(0.015625)"/>
       </defs>
       <use xlink:href="#DejaVuSerif-2212"/>
       <use xlink:href="#DejaVuSerif-35" x="83.789062"/>
       <use xlink:href="#DejaVuSerif-30" x="147.412109"/>
      </g>
     </g>
    </g>
    <g id="ytick_2">
     <g id="line2d_19">
      <path d="M 38.204771 36.412711 
L 385.61904 36.412711 
" clip-path="url(#pdb5c5b140e)" style="fill: none; stroke: #b0b0b0; stroke-width: 0.2; stroke-linecap: round"/>
     </g>
     <g id="line2d_20"/>
     <g id="text_2">
      <!-- 0 -->
      <g style="fill: #262626" transform="translate(28.978521 39.832007) scale(0.09 -0.09)">
       <use xlink:href="#DejaVuSerif-30"/>
      </g>
     </g>
    </g>
    <g id="ytick_3">
     <g id="line2d_21">
      <path d="M 38.204771 21.553732 
L 385.61904 21.553732 
" clip-path="url(#pdb5c5b140e)" style="fill: none; stroke: #b0b0b0; stroke-width: 0.2; stroke-linecap: round"/>
     </g>
     <g id="line2d_22"/>
     <g id="text_3">
      <!-- 50 -->
      <g style="fill: #262626" transform="translate(23.252271 24.973029) scale(0.09 -0.09)">
       <use xlink:href="#DejaVuSerif-35"/>
       <use xlink:href="#DejaVuSerif-30" x="63.623047"/>
      </g>
     </g>
    </g>
    <g id="text_4">
     <!-- $N_H(v)$ -->
     <g style="fill: #262626" transform="translate(9.838834 47.028273) rotate(-90) scale(0.09 -0.09)">
      <defs>
       <path id="DejaVuSans-Oblique-4e" d="M 1081 4666 
L 1931 4666 
L 3219 666 
L 4000 4666 
L 4616 4666 
L 3706 0 
L 2853 0 
L 1569 4025 
L 788 0 
L 172 0 
L 1081 4666 
z
" transform="scale(0.015625)"/>
       <path id="DejaVuSans-Oblique-48" d="M 1081 4666 
L 1716 4666 
L 1344 2753 
L 3634 2753 
L 4006 4666 
L 4641 4666 
L 3731 0 
L 3097 0 
L 3531 2222 
L 1241 2222 
L 806 0 
L 172 0 
L 1081 4666 
z
" transform="scale(0.015625)"/>
       <path id="DejaVuSans-28" d="M 1984 4856 
Q 1566 4138 1362 3434 
Q 1159 2731 1159 2009 
Q 1159 1288 1364 580 
Q 1569 -128 1984 -844 
L 1484 -844 
Q 1016 -109 783 600 
Q 550 1309 550 2009 
Q 550 2706 781 3412 
Q 1013 4119 1484 4856 
L 1984 4856 
z
" transform="scale(0.015625)"/>
       <path id="DejaVuSans-Oblique-76" d="M 459 3500 
L 1069 3500 
L 1581 525 
L 3256 3500 
L 3866 3500 
L 1875 0 
L 1100 0 
L 459 3500 
z
" transform="scale(0.015625)"/>
       <path id="DejaVuSans-29" d="M 513 4856 
L 1013 4856 
Q 1481 4119 1714 3412 
Q 1947 2706 1947 2009 
Q 1947 1309 1714 600 
Q 1481 -109 1013 -844 
L 513 -844 
Q 928 -128 1133 580 
Q 1338 1288 1338 2009 
Q 1338 2731 1133 3434 
Q 928 4138 513 4856 
z
" transform="scale(0.015625)"/>
      </defs>
      <use xlink:href="#DejaVuSans-Oblique-4e" transform="translate(0 0.125)"/>
      <use xlink:href="#DejaVuSans-Oblique-48" transform="translate(74.804688 -16.28125) scale(0.7)"/>
      <use xlink:href="#DejaVuSans-28" transform="translate(130.175781 0.125)"/>
      <use xlink:href="#DejaVuSans-Oblique-76" transform="translate(169.189453 0.125)"/>
      <use xlink:href="#DejaVuSans-29" transform="translate(228.369141 0.125)"/>
     </g>
    </g>
   </g>
   <g id="line2d_23">
    <path d="M 53.996329 36.405001 
L 55.960851 36.486072 
L 57.422821 36.797979 
L 60.986372 37.910569 
L 63.316386 38.744717 
L 67.930728 40.23827 
L 70.900354 41.651095 
L 72.864876 42.100066 
L 74.509592 42.193884 
L 75.743129 42.654162 
L 78.25589 43.601153 
L 79.5808 43.912593 
L 81.134142 43.833308 
L 82.778858 44.417039 
L 83.69259 44.623749 
L 85.839858 44.892602 
L 86.616529 44.904335 
L 87.575947 44.737244 
L 88.535364 44.832637 
L 90.408513 45.046878 
L 91.77911 44.879809 
L 93.423826 44.31251 
L 94.611676 43.631562 
L 95.61678 43.407969 
L 97.124437 42.901239 
L 98.266601 42.328984 
L 100.459555 40.943413 
L 101.510346 40.359866 
L 106.49018 38.150875 
L 108.180583 37.242639 
L 110.236478 36.328385 
L 112.931985 35.356997 
L 120.561639 32.808944 
L 122.93734 32.418438 
L 126.409518 31.49243 
L 127.688742 31.322074 
L 128.967965 31.187237 
L 130.429935 30.713689 
L 131.617786 30.427631 
L 134.221919 30.110013 
L 135.40977 30.171626 
L 140.84647 29.164959 
L 143.085111 29.183699 
L 146.191797 28.551281 
L 148.156318 28.574398 
L 149.161423 28.759089 
L 149.938094 28.654574 
L 152.496541 28.149197 
L 154.36969 28.012572 
L 154.826555 28.097536 
L 155.740286 28.294004 
L 156.516958 28.230315 
L 159.760703 27.814556 
L 161.816598 27.973686 
L 162.776016 28.190629 
L 163.507001 28.123094 
L 166.979179 27.604939 
L 168.304089 27.79245 
L 169.811745 28.418137 
L 174.563147 29.036486 
L 175.248445 29.317313 
L 176.664729 30.082755 
L 179.542982 31.225886 
L 182.923787 32.879274 
L 187.720875 34.74392 
L 191.558545 36.198879 
L 196.218574 37.601984 
L 198.137409 38.183529 
L 200.376051 38.85934 
L 202.477632 39.288649 
L 204.396467 39.585888 
L 206.726482 40.148937 
L 209.650421 40.644798 
L 210.564152 40.727849 
L 215.955166 41.714086 
L 217.508509 41.718777 
L 219.335971 42.224801 
L 220.432448 42.440025 
L 222.808149 42.621725 
L 224.452865 42.529776 
L 229.29564 43.336407 
L 229.843878 43.267126 
L 231.168788 43.102766 
L 232.173893 43.319612 
L 234.229788 43.682969 
L 236.19431 43.77907 
L 236.833921 43.647893 
L 237.884712 43.496094 
L 238.798443 43.680906 
L 239.803547 43.874999 
L 242.910233 44.058768 
L 243.504158 43.947493 
L 244.463576 43.773917 
L 245.285934 43.832676 
L 248.803799 44.315467 
L 250.174395 44.242958 
L 251.453619 43.902715 
L 252.275977 43.913981 
L 253.326768 43.921641 
L 255.108543 43.645294 
L 256.844632 43.248625 
L 258.626408 42.559244 
L 261.139168 41.841896 
L 265.479391 39.750999 
L 268.037838 39.038675 
L 270.413539 38.054669 
L 272.286688 37.290313 
L 278.271626 35.565687 
L 279.824969 35.115029 
L 283.068715 34.122521 
L 284.484998 33.867426 
L 285.901281 33.71985 
L 291.383668 32.603474 
L 292.845637 32.411514 
L 296.591935 31.572952 
L 297.962532 31.459898 
L 299.241755 31.488721 
L 300.246859 31.303245 
L 302.074322 30.798342 
L 304.906888 30.52695 
L 306.505917 30.650431 
L 307.145529 30.473831 
L 308.744559 30.009834 
L 310.526334 29.84773 
L 311.714185 29.910957 
L 312.627916 29.989805 
L 313.861453 29.757476 
L 315.734601 29.416874 
L 318.201675 29.326251 
L 319.389526 29.55181 
L 320.39463 29.366608 
L 321.902286 29.066896 
L 325.283091 28.967472 
L 326.379569 29.20914 
L 327.15624 29.116098 
L 329.577628 28.685554 
L 330.582732 28.692623 
L 332.821373 29.000227 
L 333.460985 29.046349 
L 334.19197 28.890757 
L 335.425507 28.621724 
L 336.978849 28.631535 
L 338.440819 28.952566 
L 339.171804 29.270506 
L 340.039849 29.596566 
L 341.090639 29.715293 
L 342.552609 29.864497 
L 343.923206 30.184095 
L 345.202429 30.736743 
L 345.979101 31.216296 
L 347.075578 31.803532 
L 349.085786 32.517552 
L 353.928561 34.335374 
L 358.72565 36.109506 
L 366.263931 38.232318 
L 368.228453 38.673832 
L 369.827482 39.112879 
L 369.827482 39.112879 
" clip-path="url(#pdb5c5b140e)" style="fill: none; stroke: #0000ff; stroke-width: 0.75; stroke-linecap: round"/>
   </g>
   <g id="line2d_24">
    <path d="M 53.996329 36.406052 
L 56.052224 36.487234 
L 57.651253 36.801667 
L 61.443237 37.86639 
L 63.544819 38.485176 
L 67.930728 39.716903 
L 70.991727 40.958955 
L 72.81919 41.326151 
L 74.418219 41.388305 
L 75.46901 41.701041 
L 78.25589 42.621475 
L 79.626486 42.88591 
L 81.042769 42.804574 
L 82.002187 43.094302 
L 83.55553 43.486219 
L 86.251037 43.7883 
L 86.982021 43.671786 
L 87.804379 43.604071 
L 89.631842 43.824065 
L 90.956752 43.83864 
L 92.098916 43.643004 
L 93.652258 43.103689 
L 94.703049 42.623411 
L 97.672675 41.80229 
L 99.500138 40.88209 
L 102.149958 39.612763 
L 103.931733 38.967335 
L 111.972567 35.767412 
L 117.50064 34.076768 
L 119.282416 33.577116 
L 120.972818 33.275611 
L 122.252042 33.127793 
L 124.353623 32.591882 
L 126.409518 32.162991 
L 127.780115 32.0149 
L 128.922279 31.907269 
L 130.018756 31.606041 
L 131.617786 31.243309 
L 134.267606 30.974428 
L 135.364083 31.028139 
L 136.59762 30.758511 
L 138.927634 30.324115 
L 140.937843 30.159039 
L 142.902365 30.207311 
L 146.831408 29.588382 
L 148.110632 29.632154 
L 149.298482 29.797044 
L 150.486333 29.601441 
L 152.222422 29.300699 
L 154.552436 29.171009 
L 156.471271 29.351867 
L 159.852076 28.989013 
L 161.633852 29.072953 
L 162.867389 29.313079 
L 163.826807 29.189961 
L 166.156821 28.814006 
L 167.527418 28.837185 
L 168.486835 29.048327 
L 169.491939 29.446954 
L 170.405671 29.540574 
L 172.552939 29.67675 
L 174.014908 29.910404 
L 175.111386 30.216218 
L 177.075908 31.066562 
L 179.131803 31.739274 
L 182.010056 32.992082 
L 183.334966 33.47781 
L 186.030472 34.320136 
L 188.497546 35.241795 
L 191.604232 36.240878 
L 196.584066 37.522402 
L 198.777021 38.1256 
L 201.381155 38.716654 
L 209.650421 40.068027 
L 210.655525 40.155173 
L 215.4983 40.952317 
L 216.412031 40.96066 
L 217.554195 41.004132 
L 219.107538 41.377373 
L 220.752254 41.646784 
L 222.671089 41.782341 
L 223.493447 41.675385 
L 224.270119 41.671456 
L 225.777775 41.965041 
L 227.331118 42.22514 
L 229.889565 42.324801 
L 231.077415 42.186096 
L 232.036833 42.349686 
L 233.864295 42.663593 
L 235.371952 42.746166 
L 236.742548 42.685609 
L 237.701966 42.526297 
L 238.524324 42.622671 
L 239.986294 42.873396 
L 243.275726 42.975114 
L 244.783382 42.778056 
L 246.199665 42.997275 
L 248.027127 43.231837 
L 250.174395 43.175811 
L 251.544992 42.874118 
L 254.971484 42.672929 
L 256.433453 42.423453 
L 257.301498 42.122767 
L 258.626408 41.721563 
L 261.230542 41.061039 
L 265.388018 39.316717 
L 268.723137 38.446489 
L 273.702971 36.769552 
L 278.454373 35.645505 
L 280.373208 35.130478 
L 283.52558 34.332336 
L 284.622058 34.212369 
L 285.855595 34.095193 
L 288.459728 33.506676 
L 291.018175 33.131324 
L 292.388772 33.036051 
L 294.307607 32.613869 
L 296.454875 32.24812 
L 298.373711 32.16883 
L 299.287442 32.15684 
L 300.429606 31.946524 
L 302.485501 31.510642 
L 304.495709 31.298245 
L 305.729246 31.411065 
L 306.825723 31.37844 
L 309.52123 30.810354 
L 311.531438 30.760869 
L 312.719289 30.858137 
L 314.089885 30.61414 
L 315.414796 30.38815 
L 318.430108 30.350983 
L 319.435212 30.483918 
L 320.760122 30.240991 
L 322.039346 30.057669 
L 325.191718 29.956823 
L 326.516628 30.189041 
L 327.887225 29.989012 
L 329.577628 29.73865 
L 330.719791 29.753537 
L 334.009223 29.968022 
L 335.425507 29.683519 
L 337.070223 29.707044 
L 338.989058 30.165212 
L 340.222595 30.559035 
L 341.867311 30.680736 
L 343.283594 30.870515 
L 344.288698 31.155345 
L 345.750668 31.794041 
L 347.121265 32.448051 
L 350.547756 33.505709 
L 360.096246 36.466199 
L 362.791753 37.137209 
L 366.035498 37.947054 
L 369.005124 38.549671 
L 369.827482 38.744886 
L 369.827482 38.744886 
" clip-path="url(#pdb5c5b140e)" style="fill: none; stroke: #008000; stroke-width: 0.75; stroke-linecap: round"/>
   </g>
   <g id="line2d_25">
    <path d="M 53.996329 36.411743 
L 58.793417 36.512184 
L 69.803877 37.020901 
L 73.595861 37.123007 
L 76.611174 37.242907 
L 80.494531 37.334704 
L 83.098664 37.429256 
L 89.083603 37.481784 
L 92.738527 37.440826 
L 98.220914 37.15859 
L 111.241582 36.35269 
L 121.658117 35.949182 
L 155.009302 35.376312 
L 157.476376 35.364464 
L 162.31915 35.371902 
L 164.923284 35.328586 
L 168.578208 35.348982 
L 170.999596 35.416304 
L 175.796684 35.566294 
L 181.004951 35.859022 
L 192.015411 36.40447 
L 207.640213 36.906203 
L 222.671089 37.193111 
L 232.904878 37.302321 
L 236.879608 37.319495 
L 239.392368 37.343236 
L 243.961024 37.343468 
L 246.79359 37.385257 
L 251.088126 37.358939 
L 264.291541 36.891704 
L 268.083525 36.740245 
L 284.622058 36.092922 
L 289.053653 35.975707 
L 298.556457 35.797838 
L 301.982948 35.709516 
L 318.018929 35.519141 
L 323.821122 35.475131 
L 332.364507 35.465439 
L 334.740208 35.450226 
L 338.30376 35.472005 
L 348.354802 35.893453 
L 369.827482 36.751659 
L 369.827482 36.751659 
" clip-path="url(#pdb5c5b140e)" style="fill: none; stroke: #ff0000; stroke-width: 0.75; stroke-linecap: round"/>
   </g>
   <g id="patch_3">
    <path d="M 38.204771 53.205129 
L 38.204771 16.731417 
" style="fill: none; stroke: #000000; stroke-linejoin: miter; stroke-linecap: square"/>
   </g>
   <g id="patch_4">
    <path d="M 38.204771 53.205129 
L 385.61904 53.205129 
" style="fill: none; stroke: #000000; stroke-linejoin: miter; stroke-linecap: square"/>
   </g>
   <g id="legend_1">
    <g id="line2d_26">
     <path d="M 121.288234 10.283154 
L 130.288234 10.283154 
L 139.288234 10.283154 
" style="fill: none; stroke: #0000ff; stroke-width: 0.75; stroke-linecap: round"/>
    </g>
    <g id="text_5">
     <!-- Reference -->
     <g style="fill: #262626" transform="translate(146.488234 13.433154) scale(0.09 -0.09)">
      <defs>
       <path id="DejaVuSerif-52" d="M 3066 2316 
Q 3284 2256 3442 2114 
Q 3600 1972 3725 1716 
L 4403 331 
L 4972 331 
L 4972 0 
L 3872 0 
L 3144 1484 
Q 2934 1916 2759 2042 
Q 2584 2169 2278 2169 
L 1581 2169 
L 1581 331 
L 2241 331 
L 2241 0 
L 353 0 
L 353 331 
L 947 331 
L 947 4331 
L 353 4331 
L 353 4666 
L 2719 4666 
Q 3400 4666 3770 4341 
Q 4141 4016 4141 3419 
Q 4141 2938 3870 2661 
Q 3600 2384 3066 2316 
z
M 1581 2503 
L 2503 2503 
Q 2975 2503 3200 2726 
Q 3425 2950 3425 3419 
Q 3425 3888 3200 4109 
Q 2975 4331 2503 4331 
L 1581 4331 
L 1581 2503 
z
" transform="scale(0.015625)"/>
       <path id="DejaVuSerif-65" d="M 3469 1600 
L 991 1600 
L 991 1575 
Q 991 903 1244 561 
Q 1497 219 1991 219 
Q 2369 219 2611 417 
Q 2853 616 2950 1006 
L 3413 1006 
Q 3275 459 2904 184 
Q 2534 -91 1931 -91 
Q 1203 -91 761 389 
Q 319 869 319 1663 
Q 319 2450 753 2931 
Q 1188 3413 1894 3413 
Q 2647 3413 3050 2948 
Q 3453 2484 3469 1600 
z
M 2791 1931 
Q 2772 2513 2545 2808 
Q 2319 3103 1894 3103 
Q 1497 3103 1269 2806 
Q 1041 2509 991 1931 
L 2791 1931 
z
" transform="scale(0.015625)"/>
       <path id="DejaVuSerif-66" d="M 2753 4078 
L 2450 4078 
Q 2447 4313 2317 4434 
Q 2188 4556 1941 4556 
Q 1619 4556 1487 4379 
Q 1356 4203 1356 3750 
L 1356 3322 
L 2284 3322 
L 2284 2988 
L 1356 2988 
L 1356 331 
L 2094 331 
L 2094 0 
L 231 0 
L 231 331 
L 781 331 
L 781 2988 
L 231 2988 
L 231 3322 
L 781 3322 
L 781 3738 
Q 781 4294 1070 4578 
Q 1359 4863 1919 4863 
Q 2128 4863 2337 4825 
Q 2547 4788 2753 4709 
L 2753 4078 
z
" transform="scale(0.015625)"/>
       <path id="DejaVuSerif-72" d="M 3059 3328 
L 3059 2497 
L 2728 2497 
Q 2713 2744 2591 2866 
Q 2469 2988 2234 2988 
Q 1809 2988 1582 2694 
Q 1356 2400 1356 1850 
L 1356 331 
L 2022 331 
L 2022 0 
L 263 0 
L 263 331 
L 781 331 
L 781 2994 
L 231 2994 
L 231 3322 
L 1356 3322 
L 1356 2731 
Q 1525 3078 1790 3245 
Q 2056 3413 2438 3413 
Q 2578 3413 2733 3391 
Q 2888 3369 3059 3328 
z
" transform="scale(0.015625)"/>
       <path id="DejaVuSerif-6e" d="M 263 0 
L 263 331 
L 781 331 
L 781 2988 
L 231 2988 
L 231 3322 
L 1356 3322 
L 1356 2731 
Q 1516 3069 1770 3241 
Q 2025 3413 2363 3413 
Q 2913 3413 3172 3097 
Q 3431 2781 3431 2113 
L 3431 331 
L 3944 331 
L 3944 0 
L 2356 0 
L 2356 331 
L 2853 331 
L 2853 1931 
Q 2853 2541 2703 2767 
Q 2553 2994 2175 2994 
Q 1775 2994 1565 2701 
Q 1356 2409 1356 1850 
L 1356 331 
L 1856 331 
L 1856 0 
L 263 0 
z
" transform="scale(0.015625)"/>
       <path id="DejaVuSerif-63" d="M 3291 997 
Q 3169 466 2822 187 
Q 2475 -91 1925 -91 
Q 1200 -91 759 389 
Q 319 869 319 1663 
Q 319 2459 759 2936 
Q 1200 3413 1925 3413 
Q 2241 3413 2553 3339 
Q 2866 3266 3181 3116 
L 3181 2266 
L 2847 2266 
Q 2781 2703 2561 2903 
Q 2341 3103 1931 3103 
Q 1466 3103 1228 2742 
Q 991 2381 991 1663 
Q 991 944 1227 581 
Q 1463 219 1931 219 
Q 2303 219 2525 412 
Q 2747 606 2828 997 
L 3291 997 
z
" transform="scale(0.015625)"/>
      </defs>
      <use xlink:href="#DejaVuSerif-52"/>
      <use xlink:href="#DejaVuSerif-65" x="75.292969"/>
      <use xlink:href="#DejaVuSerif-66" x="134.472656"/>
      <use xlink:href="#DejaVuSerif-65" x="171.484375"/>
      <use xlink:href="#DejaVuSerif-72" x="230.664062"/>
      <use xlink:href="#DejaVuSerif-65" x="278.466797"/>
      <use xlink:href="#DejaVuSerif-6e" x="337.646484"/>
      <use xlink:href="#DejaVuSerif-63" x="402.050781"/>
      <use xlink:href="#DejaVuSerif-65" x="458.056641"/>
     </g>
    </g>
    <g id="line2d_27">
     <path d="M 211.04214 10.283154 
L 220.04214 10.283154 
L 229.04214 10.283154 
" style="fill: none; stroke: #008000; stroke-width: 0.75; stroke-linecap: round"/>
    </g>
    <g id="text_6">
     <!-- PI -->
     <g style="fill: #262626" transform="translate(236.24214 13.433154) scale(0.09 -0.09)">
      <defs>
       <path id="DejaVuSerif-50" d="M 1581 2375 
L 2406 2375 
Q 2872 2375 3115 2626 
Q 3359 2878 3359 3353 
Q 3359 3831 3115 4081 
Q 2872 4331 2406 4331 
L 1581 4331 
L 1581 2375 
z
M 353 0 
L 353 331 
L 947 331 
L 947 4331 
L 353 4331 
L 353 4666 
L 2559 4666 
Q 3259 4666 3668 4311 
Q 4078 3956 4078 3353 
Q 4078 2753 3668 2397 
Q 3259 2041 2559 2041 
L 1581 2041 
L 1581 331 
L 2303 331 
L 2303 0 
L 353 0 
z
" transform="scale(0.015625)"/>
       <path id="DejaVuSerif-49" d="M 1581 331 
L 2175 331 
L 2175 0 
L 353 0 
L 353 331 
L 947 331 
L 947 4331 
L 353 4331 
L 353 4666 
L 2175 4666 
L 2175 4331 
L 1581 4331 
L 1581 331 
z
" transform="scale(0.015625)"/>
      </defs>
      <use xlink:href="#DejaVuSerif-50"/>
      <use xlink:href="#DejaVuSerif-49" x="67.285156"/>
     </g>
    </g>
    <g id="line2d_28">
     <path d="M 263.852453 10.283154 
L 272.852453 10.283154 
L 281.852453 10.283154 
" style="fill: none; stroke: #ff0000; stroke-width: 0.75; stroke-linecap: round"/>
    </g>
    <g id="text_7">
     <!-- PU -->
     <g style="fill: #262626" transform="translate(289.052453 13.433154) scale(0.09 -0.09)">
      <defs>
       <path id="DejaVuSerif-55" d="M 897 4331 
L 300 4331 
L 300 4666 
L 2125 4666 
L 2125 4331 
L 1528 4331 
L 1528 1919 
Q 1528 1025 1820 672 
Q 2113 319 2828 319 
Q 3544 319 3836 672 
Q 4128 1025 4128 1919 
L 4128 4331 
L 3531 4331 
L 3531 4666 
L 5106 4666 
L 5106 4331 
L 4513 4331 
L 4513 1856 
Q 4513 791 4103 350 
Q 3694 -91 2713 -91 
Q 1731 -91 1314 353 
Q 897 797 897 1856 
L 897 4331 
z
" transform="scale(0.015625)"/>
      </defs>
      <use xlink:href="#DejaVuSerif-50"/>
      <use xlink:href="#DejaVuSerif-55" x="65.535156"/>
     </g>
    </g>
   </g>
  </g>
  <g id="axes_2">
   <g id="patch_5">
    <path d="M 38.204771 99.037499 
L 385.61904 99.037499 
L 385.61904 62.563787 
L 38.204771 62.563787 
z
" style="fill: #ffffff"/>
   </g>
   <g id="matplotlib.axis_3">
    <g id="xtick_9">
     <g id="line2d_29">
      <path d="M 53.996329 99.037499 
L 53.996329 62.563787 
" clip-path="url(#pa308c05f31)" style="fill: none; stroke: #b0b0b0; stroke-width: 0.2; stroke-linecap: round"/>
     </g>
     <g id="line2d_30"/>
    </g>
    <g id="xtick_10">
     <g id="line2d_31">
      <path d="M 99.991048 99.037499 
L 99.991048 62.563787 
" clip-path="url(#pa308c05f31)" style="fill: none; stroke: #b0b0b0; stroke-width: 0.2; stroke-linecap: round"/>
     </g>
     <g id="line2d_32"/>
    </g>
    <g id="xtick_11">
     <g id="line2d_33">
      <path d="M 145.985768 99.037499 
L 145.985768 62.563787 
" clip-path="url(#pa308c05f31)" style="fill: none; stroke: #b0b0b0; stroke-width: 0.2; stroke-linecap: round"/>
     </g>
     <g id="line2d_34"/>
    </g>
    <g id="xtick_12">
     <g id="line2d_35">
      <path d="M 191.980487 99.037499 
L 191.980487 62.563787 
" clip-path="url(#pa308c05f31)" style="fill: none; stroke: #b0b0b0; stroke-width: 0.2; stroke-linecap: round"/>
     </g>
     <g id="line2d_36"/>
    </g>
    <g id="xtick_13">
     <g id="line2d_37">
      <path d="M 237.975207 99.037499 
L 237.975207 62.563787 
" clip-path="url(#pa308c05f31)" style="fill: none; stroke: #b0b0b0; stroke-width: 0.2; stroke-linecap: round"/>
     </g>
     <g id="line2d_38"/>
    </g>
    <g id="xtick_14">
     <g id="line2d_39">
      <path d="M 283.969926 99.037499 
L 283.969926 62.563787 
" clip-path="url(#pa308c05f31)" style="fill: none; stroke: #b0b0b0; stroke-width: 0.2; stroke-linecap: round"/>
     </g>
     <g id="line2d_40"/>
    </g>
    <g id="xtick_15">
     <g id="line2d_41">
      <path d="M 329.964646 99.037499 
L 329.964646 62.563787 
" clip-path="url(#pa308c05f31)" style="fill: none; stroke: #b0b0b0; stroke-width: 0.2; stroke-linecap: round"/>
     </g>
     <g id="line2d_42"/>
    </g>
    <g id="xtick_16">
     <g id="line2d_43">
      <path d="M 375.959365 99.037499 
L 375.959365 62.563787 
" clip-path="url(#pa308c05f31)" style="fill: none; stroke: #b0b0b0; stroke-width: 0.2; stroke-linecap: round"/>
     </g>
     <g id="line2d_44"/>
    </g>
   </g>
   <g id="matplotlib.axis_4">
    <g id="ytick_4">
     <g id="line2d_45">
      <path d="M 38.204771 97.104059 
L 385.61904 97.104059 
" clip-path="url(#pa308c05f31)" style="fill: none; stroke: #b0b0b0; stroke-width: 0.2; stroke-linecap: round"/>
     </g>
     <g id="line2d_46"/>
     <g id="text_8">
      <!-- −50 -->
      <g style="fill: #262626" transform="translate(15.710552 100.523356) scale(0.09 -0.09)">
       <use xlink:href="#DejaVuSerif-2212"/>
       <use xlink:href="#DejaVuSerif-35" x="83.789062"/>
       <use xlink:href="#DejaVuSerif-30" x="147.412109"/>
      </g>
     </g>
    </g>
    <g id="ytick_5">
     <g id="line2d_47">
      <path d="M 38.204771 82.245081 
L 385.61904 82.245081 
" clip-path="url(#pa308c05f31)" style="fill: none; stroke: #b0b0b0; stroke-width: 0.2; stroke-linecap: round"/>
     </g>
     <g id="line2d_48"/>
     <g id="text_9">
      <!-- 0 -->
      <g style="fill: #262626" transform="translate(28.978521 85.664377) scale(0.09 -0.09)">
       <use xlink:href="#DejaVuSerif-30"/>
      </g>
     </g>
    </g>
    <g id="ytick_6">
     <g id="line2d_49">
      <path d="M 38.204771 67.386102 
L 385.61904 67.386102 
" clip-path="url(#pa308c05f31)" style="fill: none; stroke: #b0b0b0; stroke-width: 0.2; stroke-linecap: round"/>
     </g>
     <g id="line2d_50"/>
     <g id="text_10">
      <!-- 50 -->
      <g style="fill: #262626" transform="translate(23.252271 70.805399) scale(0.09 -0.09)">
       <use xlink:href="#DejaVuSerif-35"/>
       <use xlink:href="#DejaVuSerif-30" x="63.623047"/>
      </g>
     </g>
    </g>
    <g id="text_11">
     <!-- $N_H(r)$ -->
     <g style="fill: #262626" transform="translate(9.838834 92.050643) rotate(-90) scale(0.09 -0.09)">
      <defs>
       <path id="DejaVuSans-Oblique-72" d="M 2853 2969 
Q 2766 3016 2653 3041 
Q 2541 3066 2413 3066 
Q 1953 3066 1609 2717 
Q 1266 2369 1153 1784 
L 800 0 
L 225 0 
L 909 3500 
L 1484 3500 
L 1375 2956 
Q 1603 3259 1920 3421 
Q 2238 3584 2597 3584 
Q 2691 3584 2781 3573 
Q 2872 3563 2963 3538 
L 2853 2969 
z
" transform="scale(0.015625)"/>
      </defs>
      <use xlink:href="#DejaVuSans-Oblique-4e" transform="translate(0 0.125)"/>
      <use xlink:href="#DejaVuSans-Oblique-48" transform="translate(74.804688 -16.28125) scale(0.7)"/>
      <use xlink:href="#DejaVuSans-28" transform="translate(130.175781 0.125)"/>
      <use xlink:href="#DejaVuSans-Oblique-72" transform="translate(169.189453 0.125)"/>
      <use xlink:href="#DejaVuSans-29" transform="translate(210.302734 0.125)"/>
     </g>
    </g>
   </g>
   <g id="line2d_51">
    <path d="M 53.996329 82.39659 
L 54.864373 82.290483 
L 55.823791 81.939761 
L 57.240074 81.175978 
L 59.935581 79.319925 
L 61.123431 78.3358 
L 62.722461 77.106834 
L 64.504237 75.987663 
L 65.92052 75.36777 
L 67.016997 75.30806 
L 67.885042 74.848151 
L 69.301325 74.083839 
L 70.626235 73.782167 
L 72.636443 73.408271 
L 73.961353 73.609838 
L 76.65686 72.801356 
L 79.489427 72.64298 
L 80.722963 73.168563 
L 81.271202 72.972243 
L 82.550426 72.555385 
L 86.479469 72.568637 
L 87.438887 73.048483 
L 89.357722 73.482667 
L 90.636946 74.269325 
L 93.560885 76.992019 
L 94.520303 78.000726 
L 96.347765 79.746162 
L 99.86563 83.447438 
L 103.155062 85.498467 
L 105.256643 86.442775 
L 106.855673 86.957742 
L 107.723717 87.004238 
L 108.546075 87.317831 
L 109.185687 87.588518 
L 110.784717 88.046071 
L 113.754343 88.617615 
L 114.71376 88.494122 
L 115.627491 88.751292 
L 117.089461 89.154083 
L 119.693595 89.451047 
L 120.698699 89.344028 
L 121.47537 89.13234 
L 122.114982 89.285485 
L 123.714012 89.69487 
L 126.272459 89.881262 
L 127.323249 89.83764 
L 128.282667 89.556217 
L 128.967965 89.711367 
L 130.201502 90.091374 
L 131.983278 90.168852 
L 134.267606 90.129256 
L 134.815844 89.897066 
L 135.318396 89.893732 
L 136.780366 90.220324 
L 138.379396 90.347505 
L 139.749992 90.355936 
L 141.211962 90.192915 
L 141.760201 89.976234 
L 142.262753 90.015708 
L 144.455707 90.485272 
L 145.826304 90.433391 
L 147.059841 90.42176 
L 147.836513 90.321352 
L 148.704557 89.937494 
L 149.344169 90.006221 
L 151.71987 90.385747 
L 154.50675 90.334288 
L 155.740286 89.899483 
L 156.699704 90.101569 
L 157.796181 90.256891 
L 160.354629 90.176144 
L 161.633852 89.952008 
L 162.273464 89.710882 
L 163.095822 89.747423 
L 164.740538 90.011778 
L 168.167029 89.673429 
L 169.720372 88.734515 
L 170.953909 88.334765 
L 171.821954 87.816125 
L 173.101177 86.930043 
L 174.92864 85.488897 
L 176.801788 83.878051 
L 178.90337 82.118193 
L 179.954161 81.283409 
L 181.872996 80.224983 
L 182.786727 79.953953 
L 185.984786 78.655514 
L 186.85283 78.404231 
L 188.725979 77.970019 
L 189.594024 78.002696 
L 190.279322 77.804273 
L 192.015411 77.188233 
L 195.761708 76.745849 
L 196.492693 76.755384 
L 200.010558 76.123627 
L 202.477632 76.110242 
L 203.208617 76.290981 
L 204.076661 76.109433 
L 205.995497 75.730157 
L 208.005705 75.660188 
L 209.330615 75.712031 
L 209.92454 75.897884 
L 210.564152 75.814624 
L 212.528674 75.365612 
L 213.899271 75.300074 
L 215.452614 75.227035 
L 215.909479 75.250041 
L 216.82321 75.557562 
L 217.371449 75.468769 
L 219.47303 75.039629 
L 221.665985 75.038492 
L 222.990895 75.160323 
L 223.58482 75.333752 
L 224.315805 75.183507 
L 225.229536 74.93921 
L 227.102685 74.883682 
L 228.290536 74.892606 
L 229.569759 74.932825 
L 230.34643 75.27023 
L 230.986042 75.288636 
L 231.625654 75.134201 
L 232.539385 74.932381 
L 233.453116 74.919975 
L 235.509011 74.90248 
L 236.331369 74.937314 
L 237.564906 75.307395 
L 238.615697 75.054924 
L 239.483741 74.956846 
L 240.717278 74.934373 
L 242.042189 74.92236 
L 243.367099 75.154705 
L 243.961024 75.352552 
L 244.600636 75.343856 
L 247.433202 74.938735 
L 249.991649 75.108043 
L 251.864798 75.749254 
L 252.869902 75.949449 
L 253.69226 76.348936 
L 255.930901 77.702552 
L 260.362497 81.089034 
L 262.509765 82.843939 
L 263.560556 83.544831 
L 267.763719 85.304214 
L 269.134316 85.678318 
L 270.733345 86.056758 
L 271.647076 86.076273 
L 272.743553 86.415173 
L 273.565911 86.646948 
L 277.266522 87.368589 
L 278.500059 87.290513 
L 279.322417 87.562371 
L 280.373208 87.787052 
L 281.378312 87.896524 
L 284.210879 88.031182 
L 284.98755 87.827633 
L 285.809908 87.938754 
L 288.048549 88.289226 
L 291.109548 88.358011 
L 291.794847 88.236273 
L 292.662891 88.301945 
L 295.769577 88.821671 
L 297.825472 88.825623 
L 298.602143 88.594388 
L 299.652934 88.669936 
L 301.663143 89.098759 
L 302.62256 89.113664 
L 303.764724 89.098019 
L 304.815515 89.055536 
L 305.637873 88.846649 
L 306.917096 89.015774 
L 307.602395 89.267681 
L 308.607499 89.408792 
L 310.480648 89.340367 
L 311.622812 89.133431 
L 312.079677 88.975286 
L 312.810662 89.029043 
L 313.49596 89.202422 
L 315.186363 89.398646 
L 318.338735 89.150755 
L 318.93266 88.956574 
L 319.389526 88.96577 
L 321.034242 89.349681 
L 322.313465 89.343869 
L 325.283091 89.218713 
L 325.96839 88.95435 
L 326.608001 89.026015 
L 327.476046 89.143927 
L 329.851747 89.322479 
L 332.044702 89.137097 
L 333.049806 88.815391 
L 333.91785 88.984328 
L 335.105701 89.164221 
L 336.110805 88.953734 
L 338.623565 87.796258 
L 340.770833 86.390943 
L 341.775938 85.81913 
L 343.146534 84.778724 
L 348.583234 80.688966 
L 349.862458 80.0997 
L 352.192472 79.19383 
L 354.202681 78.673736 
L 355.618964 78.258044 
L 359.502321 77.578255 
L 360.141933 77.5417 
L 362.837439 76.837949 
L 363.568424 76.761192 
L 365.715692 76.529063 
L 366.126871 76.618631 
L 366.857856 76.775724 
L 367.314722 76.701034 
L 369.005124 76.308686 
L 369.827482 76.208585 
L 369.827482 76.208585 
" clip-path="url(#pa308c05f31)" style="fill: none; stroke: #0000ff; stroke-width: 0.75; stroke-linecap: round"/>
   </g>
   <g id="line2d_52">
    <path d="M 53.996329 82.396025 
L 54.864373 82.290314 
L 55.823791 81.9409 
L 57.240074 81.179965 
L 59.935581 79.330835 
L 61.123431 78.35038 
L 62.722461 77.125998 
L 64.504237 76.011001 
L 65.92052 75.39342 
L 67.016997 75.333933 
L 67.885042 74.875739 
L 69.301325 74.114277 
L 70.626235 73.813731 
L 72.636443 73.441229 
L 73.961353 73.642044 
L 76.702547 72.832241 
L 77.479218 72.77248 
L 79.078248 72.626709 
L 79.489427 72.678792 
L 80.722963 73.202415 
L 81.271202 73.006828 
L 82.550426 72.591524 
L 86.479469 72.604727 
L 87.438887 73.082783 
L 89.357722 73.515348 
L 90.636946 74.299072 
L 93.560885 77.011611 
L 94.520303 78.016556 
L 96.347765 79.755482 
L 99.86563 83.442954 
L 103.200748 85.509398 
L 104.525659 86.135857 
L 106.49018 86.873086 
L 106.947046 86.937013 
L 107.769404 86.998307 
L 108.500389 87.274088 
L 109.459806 87.668985 
L 110.464911 87.960286 
L 113.891402 88.554523 
L 114.668074 88.463886 
L 115.581805 88.710809 
L 117.089461 89.128315 
L 119.693595 89.424171 
L 120.698699 89.317552 
L 121.47537 89.106653 
L 122.114982 89.259226 
L 123.714012 89.667085 
L 126.272459 89.852782 
L 127.368936 89.790598 
L 128.191294 89.531652 
L 128.602473 89.577838 
L 130.749741 90.118268 
L 134.267606 90.099851 
L 134.815844 89.868527 
L 135.318396 89.865205 
L 136.826053 90.197337 
L 139.338813 90.329845 
L 140.389604 90.349847 
L 140.937843 90.309821 
L 142.080007 89.951435 
L 142.765305 90.171504 
L 143.404917 90.378121 
L 144.912573 90.451429 
L 146.602976 90.37872 
L 147.562393 90.376334 
L 147.882199 90.265091 
L 148.613184 89.919031 
L 149.115736 89.927329 
L 152.450855 90.377931 
L 154.141257 90.335931 
L 154.643809 90.247214 
L 155.603227 89.863617 
L 156.151465 89.942179 
L 158.253047 90.232215 
L 161.496792 89.997782 
L 162.182091 89.703291 
L 162.821702 89.663315 
L 165.10603 89.969684 
L 168.075656 89.704888 
L 168.623895 89.255727 
L 169.21782 88.871453 
L 169.948805 88.663396 
L 170.999596 88.291048 
L 172.096073 87.623596 
L 173.786476 86.397735 
L 178.76631 82.24823 
L 179.908474 81.315765 
L 181.781623 80.253364 
L 183.152219 79.797993 
L 185.710666 78.719455 
L 186.98989 78.37567 
L 188.680293 77.980384 
L 189.685397 78.005678 
L 190.599128 77.695401 
L 191.969724 77.215344 
L 195.441903 76.700493 
L 196.584066 76.757443 
L 197.954663 76.432337 
L 199.462319 76.172541 
L 202.294886 76.068183 
L 203.29999 76.305663 
L 206.817855 75.766734 
L 209.056496 75.609254 
L 210.19866 75.905522 
L 211.021018 75.696629 
L 212.345928 75.407234 
L 213.442405 75.351271 
L 215.818106 75.248718 
L 217.188703 75.540154 
L 219.929896 75.026043 
L 222.808149 75.106366 
L 223.72188 75.353918 
L 224.544238 75.132205 
L 225.549342 74.949633 
L 227.239745 74.923629 
L 229.478386 74.923112 
L 230.940356 75.320741 
L 231.854087 75.088295 
L 233.087624 74.923403 
L 234.229788 74.931142 
L 235.417638 74.927239 
L 236.651175 75.11367 
L 237.427846 75.335352 
L 238.067458 75.228219 
L 239.255309 74.984907 
L 241.219831 74.933946 
L 242.270621 74.955974 
L 243.138666 75.069842 
L 244.098083 75.392091 
L 244.692009 75.354866 
L 246.884963 74.984894 
L 249.763216 75.105299 
L 250.265768 75.267437 
L 251.225186 75.679897 
L 253.463827 76.245052 
L 256.707573 78.286237 
L 263.195063 83.335383 
L 264.063108 83.72543 
L 266.119003 84.594648 
L 268.129211 85.41495 
L 270.413539 86.048207 
L 272.560807 86.331449 
L 273.702971 86.663733 
L 277.586328 87.288222 
L 278.271626 87.226216 
L 278.956925 87.42901 
L 279.779283 87.658144 
L 282.292043 87.950645 
L 284.347938 87.959813 
L 284.98755 87.806812 
L 285.809908 87.917518 
L 288.048549 88.266683 
L 291.109548 88.335212 
L 291.794847 88.213928 
L 292.662891 88.279355 
L 295.769577 88.797143 
L 297.825472 88.80108 
L 298.602143 88.570707 
L 299.652934 88.645974 
L 301.663143 89.073197 
L 302.62256 89.088046 
L 303.764724 89.07246 
L 304.815515 89.030135 
L 305.637873 88.822028 
L 306.917096 88.990522 
L 307.602395 89.24149 
L 308.607499 89.382074 
L 310.480648 89.313904 
L 311.622812 89.10774 
L 312.079677 88.950184 
L 312.810662 89.003741 
L 313.49596 89.176474 
L 315.186363 89.371965 
L 318.338735 89.124999 
L 318.93266 88.931543 
L 319.389526 88.940704 
L 321.034242 89.323184 
L 322.313465 89.317393 
L 325.283091 89.192704 
L 325.96839 88.929327 
L 326.608001 89.000724 
L 327.476046 89.118197 
L 329.897433 89.294443 
L 331.085284 89.200048 
L 332.59294 88.875691 
L 333.095492 88.794112 
L 333.826477 88.933662 
L 335.060014 89.139331 
L 335.745312 89.017164 
L 336.613357 88.742007 
L 338.440819 87.900893 
L 339.080431 87.400786 
L 339.857102 86.836058 
L 343.146534 84.769275 
L 348.583234 80.69477 
L 349.862458 80.107701 
L 352.192472 79.20521 
L 354.202681 78.687056 
L 355.618964 78.272915 
L 359.502321 77.595661 
L 360.141933 77.559242 
L 362.837439 76.858116 
L 363.568424 76.781645 
L 365.715692 76.550382 
L 366.126871 76.639616 
L 366.857856 76.796123 
L 367.314722 76.721712 
L 369.005124 76.330827 
L 369.827482 76.231099 
L 369.827482 76.231099 
" clip-path="url(#pa308c05f31)" style="fill: none; stroke: #008000; stroke-width: 0.75; stroke-linecap: round"/>
   </g>
   <g id="line2d_53">
    <path d="M 53.996329 82.523282 
L 54.590254 82.426437 
L 55.229866 82.134862 
L 56.09791 81.451218 
L 57.103015 80.441736 
L 58.747731 78.361427 
L 59.707148 77.172064 
L 60.666566 75.81439 
L 62.494028 73.09487 
L 64.686983 70.576198 
L 65.92052 69.617015 
L 66.879937 69.584828 
L 67.336803 69.247928 
L 69.438384 67.176085 
L 71.265847 66.486445 
L 72.316637 66.092908 
L 72.727816 66.053796 
L 73.732921 66.477959 
L 74.1441 66.286936 
L 75.423323 65.43381 
L 76.291368 65.007871 
L 79.352367 64.514064 
L 79.5808 64.712438 
L 80.311784 65.544488 
L 80.63159 65.601231 
L 81.042769 65.389517 
L 82.687485 64.427042 
L 84.103769 64.301061 
L 86.251037 64.252646 
L 86.616529 64.653378 
L 87.119081 65.193893 
L 87.575947 65.409176 
L 88.672424 65.721105 
L 89.266349 66.082967 
L 89.860274 66.6572 
L 90.408513 67.266305 
L 91.916169 69.598939 
L 93.743632 73.003239 
L 94.520303 74.451629 
L 96.165019 77.294071 
L 99.819943 84.395025 
L 101.830152 86.7631 
L 103.748987 88.748935 
L 105.485076 90.101969 
L 106.992733 90.888315 
L 107.495285 90.901463 
L 108.08921 91.178833 
L 108.591762 91.611019 
L 109.140001 92.024637 
L 110.236478 92.660428 
L 110.87609 92.932062 
L 111.332955 93.170734 
L 112.109627 93.48347 
L 113.708656 93.960041 
L 114.759447 93.733352 
L 115.307685 94.007837 
L 117.135148 94.944404 
L 120.013401 95.49783 
L 120.515953 95.420493 
L 121.566743 94.901786 
L 121.932236 95.053444 
L 123.759698 95.934042 
L 127.140503 96.324115 
L 127.597369 95.961474 
L 128.054234 95.704646 
L 128.465413 95.713107 
L 129.196398 96.114955 
L 129.927383 96.567804 
L 130.658368 96.740827 
L 131.480726 96.79177 
L 132.48583 96.836225 
L 134.08486 96.891222 
L 134.952904 96.266781 
L 135.364083 96.314484 
L 136.46056 96.799133 
L 139.110381 97.171078 
L 140.435291 97.190398 
L 140.892156 97.148985 
L 141.851574 96.420656 
L 142.308439 96.53557 
L 142.856678 96.93397 
L 143.404917 97.234814 
L 144.547081 97.377064 
L 147.882199 97.026491 
L 148.521811 96.424715 
L 148.93299 96.369203 
L 149.389855 96.513213 
L 150.39496 96.964655 
L 151.811243 97.204995 
L 152.633601 97.22596 
L 154.735182 96.899659 
L 155.55754 96.291091 
L 155.923033 96.350164 
L 156.791077 96.719059 
L 157.430689 96.920259 
L 160.446002 96.799781 
L 161.451106 96.580217 
L 162.182091 95.991057 
L 162.684643 95.901259 
L 163.187195 96.055262 
L 164.192299 96.485137 
L 164.786224 96.500223 
L 165.562896 96.459586 
L 166.796433 96.390372 
L 167.89291 96.098949 
L 168.212716 95.827085 
L 169.35488 94.358974 
L 169.948805 94.074461 
L 170.771163 93.584307 
L 171.502148 92.85846 
L 173.420983 90.411117 
L 175.294132 87.549973 
L 176.162176 86.142978 
L 180.502399 79.885673 
L 181.827309 78.552849 
L 182.695354 78.115566 
L 185.482234 75.835653 
L 187.264009 74.960451 
L 188.132054 74.526922 
L 188.725979 74.395245 
L 189.411277 74.489787 
L 189.868143 74.357963 
L 191.284426 73.358054 
L 192.198157 72.892521 
L 195.21347 72.032459 
L 195.533276 72.055217 
L 196.127201 72.221089 
L 196.766813 72.069082 
L 198.502902 71.28295 
L 198.959767 71.137789 
L 200.878603 70.907405 
L 202.203513 70.822336 
L 202.614692 71.077485 
L 203.16293 71.320069 
L 203.711169 71.116428 
L 205.630004 70.335953 
L 206.406676 70.302423 
L 207.457467 70.239786 
L 208.416884 70.074524 
L 209.056496 70.014811 
L 210.107287 70.582632 
L 210.655525 70.393062 
L 211.889062 69.767039 
L 213.533778 69.5299 
L 215.041435 69.42384 
L 215.863793 69.374171 
L 216.320658 69.761482 
L 216.686151 69.950495 
L 217.051643 69.940905 
L 217.508509 69.738353 
L 218.696359 69.131916 
L 219.47303 69.014485 
L 221.300493 68.953472 
L 222.077164 69.03275 
L 222.762462 69.053125 
L 223.58482 69.554552 
L 224.133059 69.384265 
L 225.092477 68.870449 
L 225.686402 68.775375 
L 229.524073 68.779093 
L 230.48349 69.476951 
L 230.848983 69.48725 
L 231.260162 69.406056 
L 232.904878 68.758322 
L 234.915086 68.754479 
L 236.468429 68.938203 
L 237.38216 69.512801 
L 237.930399 69.383667 
L 238.752757 68.980411 
L 239.483741 68.86248 
L 240.351786 68.868765 
L 242.224935 68.805595 
L 243.138666 69.02064 
L 243.961024 69.589073 
L 244.463576 69.610876 
L 244.920441 69.450438 
L 245.925546 69.121693 
L 247.661635 68.858403 
L 249.763216 69.085989 
L 250.174395 69.286537 
L 250.996753 70.047306 
L 252.093231 70.360277 
L 252.595783 70.530854 
L 253.418141 71.139376 
L 255.885215 73.839596 
L 263.743302 84.769508 
L 265.799197 86.29113 
L 268.174898 88.114697 
L 270.504912 89.267809 
L 270.961778 89.205439 
L 271.418643 89.206227 
L 272.332374 89.61586 
L 273.337479 90.237009 
L 275.302 91.032786 
L 276.946716 91.630845 
L 277.403582 91.612627 
L 278.08888 91.406229 
L 278.545746 91.526172 
L 280.7387 92.515321 
L 283.068715 92.781274 
L 283.616953 92.867331 
L 284.165192 92.894646 
L 285.078923 92.504196 
L 285.855595 92.717054 
L 288.505415 93.437779 
L 290.881116 93.638806 
L 291.566414 93.299755 
L 292.251712 93.237552 
L 292.708578 93.383687 
L 294.39898 94.109072 
L 295.86095 94.334257 
L 296.272129 94.349388 
L 297.368606 94.385833 
L 297.734099 94.379823 
L 298.967636 93.940876 
L 300.064113 94.227489 
L 301.069217 94.75117 
L 302.028635 94.857902 
L 302.485501 94.84729 
L 302.805306 94.818287 
L 303.581978 94.81761 
L 304.678455 94.836019 
L 305.774932 94.368636 
L 306.825723 94.594457 
L 307.648081 95.161126 
L 308.104947 95.279797 
L 308.835932 95.407641 
L 310.389275 95.27212 
L 310.891827 95.208368 
L 311.485752 95.03504 
L 311.988304 94.629861 
L 312.490856 94.541229 
L 312.856348 94.737224 
L 313.49596 95.020098 
L 314.866557 95.359367 
L 315.597542 95.31313 
L 316.511273 95.258401 
L 317.287944 95.368706 
L 318.064616 95.200331 
L 319.06972 94.530339 
L 319.435212 94.610572 
L 320.39463 95.133709 
L 321.079928 95.28294 
L 322.587585 95.292255 
L 324.826226 95.308658 
L 325.054659 95.257493 
L 325.465838 94.871107 
L 325.877017 94.585058 
L 326.288196 94.610074 
L 326.973494 94.818187 
L 327.841538 94.982957 
L 328.389777 95.224399 
L 328.983702 95.28682 
L 329.577628 95.250571 
L 330.765478 95.117103 
L 331.587836 95.033557 
L 331.953328 94.9519 
L 332.318821 94.661218 
L 333.049806 94.309435 
L 333.643731 94.487344 
L 334.831581 94.939294 
L 335.334133 94.900095 
L 336.384924 94.363111 
L 338.349446 92.758771 
L 338.760625 92.236817 
L 339.948475 90.605822 
L 340.588087 90.030796 
L 341.730251 88.860175 
L 342.552609 87.756262 
L 348.309115 79.67024 
L 349.314219 78.748659 
L 352.283845 76.614776 
L 353.426009 76.2013 
L 354.568173 75.464254 
L 355.756023 74.864732 
L 356.898187 74.376172 
L 358.45153 73.739214 
L 359.410948 73.644389 
L 359.9135 73.699786 
L 361.10135 73.168929 
L 363.157245 72.22231 
L 365.624319 71.744465 
L 366.035498 71.849959 
L 366.766483 72.193976 
L 367.177662 72.131241 
L 367.634528 71.872528 
L 368.274139 71.571243 
L 369.827482 71.160913 
L 369.827482 71.160913 
" clip-path="url(#pa308c05f31)" style="fill: none; stroke: #ff0000; stroke-width: 0.75; stroke-linecap: round"/>
   </g>
   <g id="patch_6">
    <path d="M 38.204771 99.037499 
L 38.204771 62.563787 
" style="fill: none; stroke: #000000; stroke-linejoin: miter; stroke-linecap: square"/>
   </g>
   <g id="patch_7">
    <path d="M 38.204771 99.037499 
L 385.61904 99.037499 
" style="fill: none; stroke: #000000; stroke-linejoin: miter; stroke-linecap: square"/>
   </g>
  </g>
  <g id="axes_3">
   <g id="patch_8">
    <path d="M 38.204771 144.869869 
L 385.61904 144.869869 
L 385.61904 108.396157 
L 38.204771 108.396157 
z
" style="fill: #ffffff"/>
   </g>
   <g id="matplotlib.axis_5">
    <g id="xtick_17">
     <g id="line2d_54">
      <path d="M 53.996329 144.869869 
L 53.996329 108.396157 
" clip-path="url(#pb4b78cf3fe)" style="fill: none; stroke: #b0b0b0; stroke-width: 0.2; stroke-linecap: round"/>
     </g>
     <g id="line2d_55"/>
    </g>
    <g id="xtick_18">
     <g id="line2d_56">
      <path d="M 99.991048 144.869869 
L 99.991048 108.396157 
" clip-path="url(#pb4b78cf3fe)" style="fill: none; stroke: #b0b0b0; stroke-width: 0.2; stroke-linecap: round"/>
     </g>
     <g id="line2d_57"/>
    </g>
    <g id="xtick_19">
     <g id="line2d_58">
      <path d="M 145.985768 144.869869 
L 145.985768 108.396157 
" clip-path="url(#pb4b78cf3fe)" style="fill: none; stroke: #b0b0b0; stroke-width: 0.2; stroke-linecap: round"/>
     </g>
     <g id="line2d_59"/>
    </g>
    <g id="xtick_20">
     <g id="line2d_60">
      <path d="M 191.980487 144.869869 
L 191.980487 108.396157 
" clip-path="url(#pb4b78cf3fe)" style="fill: none; stroke: #b0b0b0; stroke-width: 0.2; stroke-linecap: round"/>
     </g>
     <g id="line2d_61"/>
    </g>
    <g id="xtick_21">
     <g id="line2d_62">
      <path d="M 237.975207 144.869869 
L 237.975207 108.396157 
" clip-path="url(#pb4b78cf3fe)" style="fill: none; stroke: #b0b0b0; stroke-width: 0.2; stroke-linecap: round"/>
     </g>
     <g id="line2d_63"/>
    </g>
    <g id="xtick_22">
     <g id="line2d_64">
      <path d="M 283.969926 144.869869 
L 283.969926 108.396157 
" clip-path="url(#pb4b78cf3fe)" style="fill: none; stroke: #b0b0b0; stroke-width: 0.2; stroke-linecap: round"/>
     </g>
     <g id="line2d_65"/>
    </g>
    <g id="xtick_23">
     <g id="line2d_66">
      <path d="M 329.964646 144.869869 
L 329.964646 108.396157 
" clip-path="url(#pb4b78cf3fe)" style="fill: none; stroke: #b0b0b0; stroke-width: 0.2; stroke-linecap: round"/>
     </g>
     <g id="line2d_67"/>
    </g>
    <g id="xtick_24">
     <g id="line2d_68">
      <path d="M 375.959365 144.869869 
L 375.959365 108.396157 
" clip-path="url(#pb4b78cf3fe)" style="fill: none; stroke: #b0b0b0; stroke-width: 0.2; stroke-linecap: round"/>
     </g>
     <g id="line2d_69"/>
    </g>
   </g>
   <g id="matplotlib.axis_6">
    <g id="ytick_7">
     <g id="line2d_70">
      <path d="M 38.204771 142.936429 
L 385.61904 142.936429 
" clip-path="url(#pb4b78cf3fe)" style="fill: none; stroke: #b0b0b0; stroke-width: 0.2; stroke-linecap: round"/>
     </g>
     <g id="line2d_71"/>
     <g id="text_12">
      <!-- −50 -->
      <g style="fill: #262626" transform="translate(15.710552 146.355726) scale(0.09 -0.09)">
       <use xlink:href="#DejaVuSerif-2212"/>
       <use xlink:href="#DejaVuSerif-35" x="83.789062"/>
       <use xlink:href="#DejaVuSerif-30" x="147.412109"/>
      </g>
     </g>
    </g>
    <g id="ytick_8">
     <g id="line2d_72">
      <path d="M 38.204771 128.077451 
L 385.61904 128.077451 
" clip-path="url(#pb4b78cf3fe)" style="fill: none; stroke: #b0b0b0; stroke-width: 0.2; stroke-linecap: round"/>
     </g>
     <g id="line2d_73"/>
     <g id="text_13">
      <!-- 0 -->
      <g style="fill: #262626" transform="translate(28.978521 131.496747) scale(0.09 -0.09)">
       <use xlink:href="#DejaVuSerif-30"/>
      </g>
     </g>
    </g>
    <g id="ytick_9">
     <g id="line2d_74">
      <path d="M 38.204771 113.218472 
L 385.61904 113.218472 
" clip-path="url(#pb4b78cf3fe)" style="fill: none; stroke: #b0b0b0; stroke-width: 0.2; stroke-linecap: round"/>
     </g>
     <g id="line2d_75"/>
     <g id="text_14">
      <!-- 50 -->
      <g style="fill: #262626" transform="translate(23.252271 116.637769) scale(0.09 -0.09)">
       <use xlink:href="#DejaVuSerif-35"/>
       <use xlink:href="#DejaVuSerif-30" x="63.623047"/>
      </g>
     </g>
    </g>
    <g id="text_15">
     <!-- $Y_H(v)$ -->
     <g style="fill: #262626" transform="translate(9.838834 138.063013) rotate(-90) scale(0.09 -0.09)">
      <defs>
       <path id="DejaVuSans-Oblique-59" d="M 403 4666 
L 1081 4666 
L 1953 2747 
L 3616 4666 
L 4325 4666 
L 2209 2222 
L 1778 0 
L 1147 0 
L 1575 2222 
L 403 4666 
z
" transform="scale(0.015625)"/>
      </defs>
      <use xlink:href="#DejaVuSans-Oblique-59" transform="translate(0 0.125)"/>
      <use xlink:href="#DejaVuSans-Oblique-48" transform="translate(61.083984 -16.28125) scale(0.7)"/>
      <use xlink:href="#DejaVuSans-28" transform="translate(116.455078 0.125)"/>
      <use xlink:href="#DejaVuSans-Oblique-76" transform="translate(155.46875 0.125)"/>
      <use xlink:href="#DejaVuSans-29" transform="translate(214.648438 0.125)"/>
     </g>
    </g>
   </g>
   <g id="line2d_76">
    <path d="M 53.996329 128.073622 
L 56.554776 128.164466 
L 59.798521 128.603878 
L 68.022101 130.000739 
L 71.35722 130.742054 
L 73.276055 130.892088 
L 74.646652 130.967828 
L 76.565487 131.352189 
L 79.032561 131.761734 
L 79.991979 131.768779 
L 81.042769 131.752633 
L 82.778858 132.052538 
L 84.195142 132.1881 
L 87.713006 132.210809 
L 89.266349 132.319557 
L 91.093811 132.340243 
L 92.921274 132.121137 
L 93.697945 131.909612 
L 94.840109 131.631456 
L 97.672675 131.176342 
L 100.094063 130.456407 
L 101.784465 129.984193 
L 105.804882 129.098797 
L 113.023358 127.537247 
L 120.607326 126.285021 
L 123.165773 126.058765 
L 126.866384 125.58418 
L 134.221919 124.947422 
L 135.729575 124.943967 
L 140.800783 124.478025 
L 143.907469 124.373357 
L 145.826304 124.187299 
L 148.339065 124.211477 
L 149.435542 124.266928 
L 151.674183 124.0329 
L 154.095571 123.911442 
L 155.192048 124.002943 
L 156.288525 124.031763 
L 160.902867 123.812372 
L 162.136404 123.937362 
L 163.278568 123.98075 
L 167.938597 123.746136 
L 168.623895 123.882272 
L 169.766059 124.103049 
L 171.639208 124.163338 
L 174.197655 124.360088 
L 175.613938 124.671151 
L 176.893161 124.974365 
L 179.999847 125.6243 
L 183.334966 126.389947 
L 186.578711 127.002889 
L 190.507755 127.795158 
L 195.807395 128.619329 
L 209.376302 130.18218 
L 211.158077 130.288461 
L 215.818106 130.709241 
L 218.742046 130.877833 
L 220.523821 131.075419 
L 226.64582 131.367907 
L 228.975834 131.503932 
L 230.34643 131.424934 
L 231.488594 131.426128 
L 234.640967 131.703717 
L 236.833921 131.670567 
L 238.158831 131.610575 
L 243.367099 131.839048 
L 244.737695 131.735117 
L 247.341829 131.975635 
L 249.260664 132.005971 
L 250.676947 131.877697 
L 251.864798 131.790173 
L 254.468931 131.723627 
L 257.301498 131.360609 
L 259.037587 131.08478 
L 261.184855 130.762159 
L 265.525078 129.729953 
L 268.403331 129.311294 
L 274.388269 128.181376 
L 284.347938 126.814901 
L 286.403833 126.677177 
L 291.520727 126.180703 
L 293.485249 126.005287 
L 296.363502 125.688384 
L 304.175903 125.151399 
L 305.226694 125.181817 
L 306.825723 125.182854 
L 309.978096 124.833552 
L 312.216737 124.882606 
L 313.313214 124.835029 
L 316.465586 124.590118 
L 318.293049 124.57205 
L 319.617959 124.658069 
L 325.237405 124.372167 
L 326.608001 124.495428 
L 332.044702 124.281435 
L 333.826477 124.394322 
L 336.70473 124.202668 
L 338.1667 124.342651 
L 339.217491 124.541958 
L 340.359654 124.723438 
L 344.562818 125.11304 
L 346.618712 125.689665 
L 348.674607 126.076833 
L 353.608755 126.983135 
L 359.273888 128.00544 
L 369.827482 129.418401 
L 369.827482 129.418401 
" clip-path="url(#pb4b78cf3fe)" style="fill: none; stroke: #0000ff; stroke-width: 0.75; stroke-linecap: round"/>
   </g>
   <g id="line2d_77">
    <path d="M 53.996329 128.073195 
L 56.417716 128.15928 
L 58.976163 128.543335 
L 61.397551 128.996687 
L 64.869729 129.63105 
L 68.661713 130.403026 
L 70.808981 130.953318 
L 72.910563 131.216677 
L 74.646652 131.290217 
L 76.428427 131.685255 
L 78.986874 132.165977 
L 79.900605 132.19075 
L 81.134142 132.17369 
L 85.245932 132.710897 
L 86.890648 132.727901 
L 88.124185 132.689822 
L 91.002438 132.821078 
L 92.829901 132.585459 
L 93.652258 132.353726 
L 94.885795 132.021651 
L 97.626989 131.535431 
L 100.368182 130.613657 
L 101.693092 130.216062 
L 105.530763 129.284424 
L 112.703552 127.536072 
L 121.840863 126.022574 
L 123.805385 125.722907 
L 127.094817 125.279821 
L 131.252293 124.812631 
L 134.08486 124.591737 
L 135.912322 124.56871 
L 139.932739 124.128589 
L 141.714514 124.155883 
L 142.902365 124.111514 
L 147.288274 123.703477 
L 148.384751 123.787798 
L 149.389855 123.845093 
L 151.856929 123.562722 
L 154.36969 123.440496 
L 155.100675 123.535821 
L 156.242839 123.584149 
L 160.720121 123.336804 
L 162.045031 123.460135 
L 163.050135 123.53733 
L 164.603478 123.347774 
L 166.979179 123.215479 
L 168.532522 123.385755 
L 169.811745 123.664371 
L 174.974326 124.079943 
L 189.456964 127.553202 
L 192.837769 128.180601 
L 202.614692 129.671605 
L 204.716273 129.87881 
L 209.421988 130.416881 
L 211.112391 130.528758 
L 214.721629 130.917921 
L 216.640464 130.975602 
L 217.828314 131.043675 
L 222.031478 131.482644 
L 226.463073 131.713605 
L 228.838774 131.879318 
L 230.026625 131.837289 
L 231.397221 131.789452 
L 235.737444 132.13137 
L 236.925294 132.058076 
L 237.976085 131.992699 
L 243.686904 132.207429 
L 244.783382 132.145611 
L 246.79359 132.354194 
L 249.123605 132.444733 
L 250.357141 132.364964 
L 251.544992 132.207005 
L 255.611095 132.030022 
L 257.118752 131.778477 
L 258.580721 131.475856 
L 261.230542 131.048247 
L 265.616451 129.903186 
L 268.586077 129.407754 
L 275.302 128.043125 
L 284.759117 126.669627 
L 286.266774 126.540456 
L 290.652683 125.995681 
L 298.602143 125.374872 
L 300.064113 125.287368 
L 303.490605 124.873564 
L 305.957679 124.887353 
L 306.780037 124.866586 
L 310.389275 124.457021 
L 311.805558 124.498953 
L 312.947722 124.507737 
L 317.836183 124.148634 
L 318.93266 124.267433 
L 319.800705 124.263804 
L 324.415047 123.941493 
L 325.83133 124.063086 
L 326.790748 124.084683 
L 330.719791 123.821502 
L 334.146283 123.934076 
L 335.51688 123.774534 
L 337.709834 123.873614 
L 339.902789 124.293566 
L 341.136326 124.381157 
L 343.009475 124.504805 
L 344.608504 124.793825 
L 346.161847 125.275856 
L 347.349697 125.594048 
L 356.943874 127.555641 
L 361.009977 128.235792 
L 369.827482 129.567969 
L 369.827482 129.567969 
" clip-path="url(#pb4b78cf3fe)" style="fill: none; stroke: #008000; stroke-width: 0.75; stroke-linecap: round"/>
   </g>
   <g id="line2d_78">
    <path d="M 53.996329 128.06765 
L 55.778105 128.141827 
L 57.011642 128.430034 
L 59.707148 129.391251 
L 60.894999 129.934416 
L 63.042267 130.936289 
L 68.067788 133.030584 
L 70.489175 134.576314 
L 72.408011 135.243451 
L 73.093309 135.294368 
L 74.1441 135.330352 
L 75.057831 135.651158 
L 79.032561 137.508516 
L 79.672173 137.596237 
L 81.042769 137.485221 
L 81.819441 137.816204 
L 83.235724 138.41099 
L 84.697694 138.652754 
L 86.159664 138.921023 
L 86.570843 138.886403 
L 87.66732 138.658931 
L 88.398305 138.751506 
L 90.31714 139.054323 
L 91.276558 138.958136 
L 92.098916 138.719253 
L 93.560885 138.005255 
L 94.56599 137.274028 
L 95.434034 137.020259 
L 96.484825 136.62766 
L 97.718362 135.980589 
L 99.408764 134.726865 
L 102.012898 132.849461 
L 103.794674 131.922257 
L 110.190791 127.993732 
L 112.657865 126.849741 
L 116.998088 124.926015 
L 118.277312 124.291755 
L 120.470266 123.510869 
L 122.80028 123.053977 
L 125.952653 121.937706 
L 127.734428 121.604916 
L 128.739533 121.493159 
L 129.607577 121.191709 
L 131.389353 120.521716 
L 133.216815 120.163057 
L 134.358979 120.090837 
L 135.318396 120.160352 
L 136.232128 119.885653 
L 138.425082 119.234261 
L 140.389604 118.916926 
L 141.074902 118.894442 
L 142.217066 119.067012 
L 143.039424 118.901662 
L 146.00905 118.100949 
L 148.064945 118.080014 
L 149.024363 118.34616 
L 149.755348 118.263887 
L 152.633601 117.552532 
L 154.643809 117.44128 
L 155.877346 117.760011 
L 156.745391 117.619668 
L 158.253047 117.2967 
L 159.532271 117.142567 
L 161.633852 117.274536 
L 162.730329 117.620665 
L 163.369941 117.573805 
L 166.522313 116.87628 
L 167.618791 116.938509 
L 168.304089 117.118978 
L 169.766059 117.903736 
L 170.497044 117.964575 
L 172.644312 118.175338 
L 174.014908 118.507126 
L 174.974326 118.871418 
L 175.613938 119.357969 
L 176.481982 119.940879 
L 177.669833 120.413429 
L 178.674937 120.89489 
L 183.472025 123.810503 
L 185.345174 124.590351 
L 190.233635 127.231178 
L 194.436798 128.962166 
L 196.903872 129.823013 
L 202.157826 131.681583 
L 205.355885 132.439748 
L 206.589422 132.79074 
L 209.650421 133.457475 
L 210.472779 133.539632 
L 212.117495 134.049078 
L 213.488092 134.380766 
L 216.137912 134.801478 
L 217.188703 134.763888 
L 218.14812 135.017786 
L 220.752254 135.781145 
L 222.122851 135.927194 
L 223.127955 135.906576 
L 223.950313 135.791032 
L 224.772671 135.94105 
L 228.336222 136.772266 
L 229.524073 136.874459 
L 231.397221 136.625979 
L 235.006459 137.377764 
L 236.651175 137.342702 
L 237.793339 137.077921 
L 238.524324 137.21749 
L 239.803547 137.563856 
L 242.727487 137.807627 
L 243.641218 137.603361 
L 244.509262 137.43234 
L 245.422994 137.538663 
L 247.981441 138.113938 
L 250.220082 138.011251 
L 251.453619 137.599089 
L 252.138917 137.597645 
L 253.235394 137.634865 
L 254.514618 137.400539 
L 257.118752 136.600704 
L 258.169542 136.039705 
L 259.494452 135.66449 
L 260.362497 135.396796 
L 261.367601 134.830759 
L 265.433705 132.336331 
L 268.357644 131.259336 
L 273.931404 128.515972 
L 277.951821 127.094712 
L 279.733596 126.466001 
L 283.160088 125.135381 
L 284.302252 124.848795 
L 285.992654 124.62724 
L 291.018175 123.24779 
L 292.114653 123.15504 
L 293.07407 122.916209 
L 296.911741 121.881291 
L 298.236651 121.815161 
L 299.196069 121.822119 
L 300.1098 121.63592 
L 302.302754 120.89974 
L 304.450022 120.550196 
L 305.135321 120.64526 
L 306.094738 120.757059 
L 306.642977 120.726433 
L 307.419648 120.402365 
L 308.516126 119.980942 
L 310.069469 119.765473 
L 311.485752 119.746395 
L 312.536543 119.919435 
L 313.358901 119.764279 
L 315.369109 119.215292 
L 318.018929 119.028161 
L 318.567168 119.200973 
L 319.389526 119.355558 
L 320.25757 119.171342 
L 321.491107 118.807483 
L 324.36936 118.553275 
L 325.374464 118.648002 
L 326.333882 118.915807 
L 326.882121 118.863476 
L 329.988807 118.221116 
L 332.181761 118.409282 
L 333.186865 118.719198 
L 333.826477 118.649341 
L 336.156491 118.130547 
L 337.161596 118.234568 
L 338.806312 118.772724 
L 340.268281 119.471267 
L 341.182012 119.565922 
L 342.598296 119.76202 
L 343.6034 120.026625 
L 345.06537 120.782463 
L 345.933414 121.434259 
L 347.029891 122.194674 
L 349.131473 123.146155 
L 356.030143 126.447815 
L 358.771336 127.709219 
L 366.53805 130.448034 
L 367.954334 130.856526 
L 369.827482 131.510029 
L 369.827482 131.510029 
" clip-path="url(#pb4b78cf3fe)" style="fill: none; stroke: #ff0000; stroke-width: 0.75; stroke-linecap: round"/>
   </g>
   <g id="patch_9">
    <path d="M 38.204771 144.869869 
L 38.204771 108.396157 
" style="fill: none; stroke: #000000; stroke-linejoin: miter; stroke-linecap: square"/>
   </g>
   <g id="patch_10">
    <path d="M 38.204771 144.869869 
L 385.61904 144.869869 
" style="fill: none; stroke: #000000; stroke-linejoin: miter; stroke-linecap: square"/>
   </g>
  </g>
  <g id="axes_4">
   <g id="patch_11">
    <path d="M 38.204771 190.702239 
L 385.61904 190.702239 
L 385.61904 154.228527 
L 38.204771 154.228527 
z
" style="fill: #ffffff"/>
   </g>
   <g id="matplotlib.axis_7">
    <g id="xtick_25">
     <g id="line2d_79">
      <path d="M 53.996329 190.702239 
L 53.996329 154.228527 
" clip-path="url(#p0748ad95f7)" style="fill: none; stroke: #b0b0b0; stroke-width: 0.2; stroke-linecap: round"/>
     </g>
     <g id="line2d_80"/>
     <g id="text_16">
      <!-- 0 -->
      <g style="fill: #262626" transform="translate(51.133204 201.040833) scale(0.09 -0.09)">
       <use xlink:href="#DejaVuSerif-30"/>
      </g>
     </g>
    </g>
    <g id="xtick_26">
     <g id="line2d_81">
      <path d="M 99.991048 190.702239 
L 99.991048 154.228527 
" clip-path="url(#p0748ad95f7)" style="fill: none; stroke: #b0b0b0; stroke-width: 0.2; stroke-linecap: round"/>
     </g>
     <g id="line2d_82"/>
     <g id="text_17">
      <!-- 10 -->
      <g style="fill: #262626" transform="translate(94.264798 201.040833) scale(0.09 -0.09)">
       <defs>
        <path id="DejaVuSerif-31" d="M 909 0 
L 909 331 
L 1722 331 
L 1722 4213 
L 781 3603 
L 781 4013 
L 1919 4750 
L 2350 4750 
L 2350 331 
L 3163 331 
L 3163 0 
L 909 0 
z
" transform="scale(0.015625)"/>
       </defs>
       <use xlink:href="#DejaVuSerif-31"/>
       <use xlink:href="#DejaVuSerif-30" x="63.623047"/>
      </g>
     </g>
    </g>
    <g id="xtick_27">
     <g id="line2d_83">
      <path d="M 145.985768 190.702239 
L 145.985768 154.228527 
" clip-path="url(#p0748ad95f7)" style="fill: none; stroke: #b0b0b0; stroke-width: 0.2; stroke-linecap: round"/>
     </g>
     <g id="line2d_84"/>
     <g id="text_18">
      <!-- 20 -->
      <g style="fill: #262626" transform="translate(140.259518 201.040833) scale(0.09 -0.09)">
       <defs>
        <path id="DejaVuSerif-32" d="M 819 3553 
L 469 3553 
L 469 4384 
Q 803 4563 1142 4656 
Q 1481 4750 1806 4750 
Q 2534 4750 2956 4397 
Q 3378 4044 3378 3438 
Q 3378 2753 2422 1800 
Q 2347 1728 2309 1691 
L 1131 513 
L 3078 513 
L 3078 1088 
L 3444 1088 
L 3444 0 
L 434 0 
L 434 341 
L 1850 1753 
Q 2319 2222 2519 2614 
Q 2719 3006 2719 3438 
Q 2719 3909 2473 4175 
Q 2228 4441 1797 4441 
Q 1350 4441 1106 4219 
Q 863 3997 819 3553 
z
" transform="scale(0.015625)"/>
       </defs>
       <use xlink:href="#DejaVuSerif-32"/>
       <use xlink:href="#DejaVuSerif-30" x="63.623047"/>
      </g>
     </g>
    </g>
    <g id="xtick_28">
     <g id="line2d_85">
      <path d="M 191.980487 190.702239 
L 191.980487 154.228527 
" clip-path="url(#p0748ad95f7)" style="fill: none; stroke: #b0b0b0; stroke-width: 0.2; stroke-linecap: round"/>
     </g>
     <g id="line2d_86"/>
     <g id="text_19">
      <!-- 30 -->
      <g style="fill: #262626" transform="translate(186.254237 201.040833) scale(0.09 -0.09)">
       <defs>
        <path id="DejaVuSerif-33" d="M 622 4469 
Q 988 4606 1323 4678 
Q 1659 4750 1953 4750 
Q 2638 4750 3022 4454 
Q 3406 4159 3406 3634 
Q 3406 3213 3140 2930 
Q 2875 2647 2388 2547 
Q 2963 2466 3280 2130 
Q 3597 1794 3597 1259 
Q 3597 606 3158 257 
Q 2719 -91 1894 -91 
Q 1528 -91 1179 -12 
Q 831 66 488 225 
L 488 1131 
L 838 1131 
Q 869 681 1141 450 
Q 1413 219 1906 219 
Q 2384 219 2661 495 
Q 2938 772 2938 1253 
Q 2938 1803 2653 2086 
Q 2369 2369 1819 2369 
L 1522 2369 
L 1522 2688 
L 1678 2688 
Q 2225 2688 2498 2914 
Q 2772 3141 2772 3597 
Q 2772 4006 2547 4223 
Q 2322 4441 1900 4441 
Q 1478 4441 1245 4241 
Q 1013 4041 972 3647 
L 622 3647 
L 622 4469 
z
" transform="scale(0.015625)"/>
       </defs>
       <use xlink:href="#DejaVuSerif-33"/>
       <use xlink:href="#DejaVuSerif-30" x="63.623047"/>
      </g>
     </g>
    </g>
    <g id="xtick_29">
     <g id="line2d_87">
      <path d="M 237.975207 190.702239 
L 237.975207 154.228527 
" clip-path="url(#p0748ad95f7)" style="fill: none; stroke: #b0b0b0; stroke-width: 0.2; stroke-linecap: round"/>
     </g>
     <g id="line2d_88"/>
     <g id="text_20">
      <!-- 40 -->
      <g style="fill: #262626" transform="translate(232.248957 201.040833) scale(0.09 -0.09)">
       <defs>
        <path id="DejaVuSerif-34" d="M 2234 1581 
L 2234 4063 
L 641 1581 
L 2234 1581 
z
M 3609 0 
L 1484 0 
L 1484 331 
L 2234 331 
L 2234 1247 
L 197 1247 
L 197 1588 
L 2241 4750 
L 2859 4750 
L 2859 1581 
L 3750 1581 
L 3750 1247 
L 2859 1247 
L 2859 331 
L 3609 331 
L 3609 0 
z
" transform="scale(0.015625)"/>
       </defs>
       <use xlink:href="#DejaVuSerif-34"/>
       <use xlink:href="#DejaVuSerif-30" x="63.623047"/>
      </g>
     </g>
    </g>
    <g id="xtick_30">
     <g id="line2d_89">
      <path d="M 283.969926 190.702239 
L 283.969926 154.228527 
" clip-path="url(#p0748ad95f7)" style="fill: none; stroke: #b0b0b0; stroke-width: 0.2; stroke-linecap: round"/>
     </g>
     <g id="line2d_90"/>
     <g id="text_21">
      <!-- 50 -->
      <g style="fill: #262626" transform="translate(278.243676 201.040833) scale(0.09 -0.09)">
       <use xlink:href="#DejaVuSerif-35"/>
       <use xlink:href="#DejaVuSerif-30" x="63.623047"/>
      </g>
     </g>
    </g>
    <g id="xtick_31">
     <g id="line2d_91">
      <path d="M 329.964646 190.702239 
L 329.964646 154.228527 
" clip-path="url(#p0748ad95f7)" style="fill: none; stroke: #b0b0b0; stroke-width: 0.2; stroke-linecap: round"/>
     </g>
     <g id="line2d_92"/>
     <g id="text_22">
      <!-- 60 -->
      <g style="fill: #262626" transform="translate(324.238396 201.040833) scale(0.09 -0.09)">
       <defs>
        <path id="DejaVuSerif-36" d="M 2094 219 
Q 2534 219 2771 542 
Q 3009 866 3009 1472 
Q 3009 2078 2771 2401 
Q 2534 2725 2094 2725 
Q 1647 2725 1412 2412 
Q 1178 2100 1178 1509 
Q 1178 888 1415 553 
Q 1653 219 2094 219 
z
M 1075 2569 
Q 1288 2803 1556 2918 
Q 1825 3034 2163 3034 
Q 2859 3034 3264 2615 
Q 3669 2197 3669 1472 
Q 3669 763 3233 336 
Q 2797 -91 2069 -91 
Q 1278 -91 853 498 
Q 428 1088 428 2181 
Q 428 3406 931 4078 
Q 1434 4750 2350 4750 
Q 2597 4750 2869 4703 
Q 3141 4656 3425 4563 
L 3425 3794 
L 3072 3794 
Q 3034 4109 2831 4275 
Q 2628 4441 2284 4441 
Q 1678 4441 1381 3981 
Q 1084 3522 1075 2569 
z
" transform="scale(0.015625)"/>
       </defs>
       <use xlink:href="#DejaVuSerif-36"/>
       <use xlink:href="#DejaVuSerif-30" x="63.623047"/>
      </g>
     </g>
    </g>
    <g id="xtick_32">
     <g id="line2d_93">
      <path d="M 375.959365 190.702239 
L 375.959365 154.228527 
" clip-path="url(#p0748ad95f7)" style="fill: none; stroke: #b0b0b0; stroke-width: 0.2; stroke-linecap: round"/>
     </g>
     <g id="line2d_94"/>
     <g id="text_23">
      <!-- 70 -->
      <g style="fill: #262626" transform="translate(370.233115 201.040833) scale(0.09 -0.09)">
       <defs>
        <path id="DejaVuSerif-37" d="M 3609 4347 
L 1784 0 
L 1319 0 
L 3059 4153 
L 903 4153 
L 903 3578 
L 538 3578 
L 538 4666 
L 3609 4666 
L 3609 4347 
z
" transform="scale(0.015625)"/>
       </defs>
       <use xlink:href="#DejaVuSerif-37"/>
       <use xlink:href="#DejaVuSerif-30" x="63.623047"/>
      </g>
     </g>
    </g>
    <g id="text_24">
     <!-- Time [s] -->
     <g style="fill: #262626" transform="translate(193.28964 213.751145) scale(0.09 -0.09)">
      <defs>
       <path id="DejaVuSerif-54" d="M 1222 0 
L 1222 331 
L 1819 331 
L 1819 4294 
L 447 4294 
L 447 3566 
L 63 3566 
L 63 4666 
L 4206 4666 
L 4206 3566 
L 3822 3566 
L 3822 4294 
L 2450 4294 
L 2450 331 
L 3047 331 
L 3047 0 
L 1222 0 
z
" transform="scale(0.015625)"/>
       <path id="DejaVuSerif-69" d="M 622 4353 
Q 622 4497 726 4603 
Q 831 4709 978 4709 
Q 1122 4709 1226 4603 
Q 1331 4497 1331 4353 
Q 1331 4206 1228 4103 
Q 1125 4000 978 4000 
Q 831 4000 726 4103 
Q 622 4206 622 4353 
z
M 1356 331 
L 1900 331 
L 1900 0 
L 231 0 
L 231 331 
L 781 331 
L 781 2988 
L 231 2988 
L 231 3322 
L 1356 3322 
L 1356 331 
z
" transform="scale(0.015625)"/>
       <path id="DejaVuSerif-6d" d="M 3316 2675 
Q 3481 3041 3739 3227 
Q 3997 3413 4341 3413 
Q 4863 3413 5119 3089 
Q 5375 2766 5375 2113 
L 5375 331 
L 5894 331 
L 5894 0 
L 4300 0 
L 4300 331 
L 4800 331 
L 4800 2047 
Q 4800 2556 4650 2772 
Q 4500 2988 4153 2988 
Q 3769 2988 3567 2697 
Q 3366 2406 3366 1850 
L 3366 331 
L 3866 331 
L 3866 0 
L 2291 0 
L 2291 331 
L 2791 331 
L 2791 2069 
Q 2791 2566 2641 2777 
Q 2491 2988 2144 2988 
Q 1759 2988 1557 2697 
Q 1356 2406 1356 1850 
L 1356 331 
L 1856 331 
L 1856 0 
L 263 0 
L 263 331 
L 781 331 
L 781 2994 
L 231 2994 
L 231 3322 
L 1356 3322 
L 1356 2731 
Q 1516 3063 1762 3238 
Q 2009 3413 2322 3413 
Q 2709 3413 2968 3220 
Q 3228 3028 3316 2675 
z
" transform="scale(0.015625)"/>
       <path id="DejaVuSerif-20" transform="scale(0.015625)"/>
       <path id="DejaVuSerif-5b" d="M 550 4863 
L 2003 4863 
L 2003 4531 
L 1147 4531 
L 1147 -513 
L 2003 -513 
L 2003 -844 
L 550 -844 
L 550 4863 
z
" transform="scale(0.015625)"/>
       <path id="DejaVuSerif-73" d="M 359 184 
L 359 959 
L 691 959 
Q 703 588 923 403 
Q 1144 219 1575 219 
Q 1963 219 2166 364 
Q 2369 509 2369 788 
Q 2369 1006 2220 1140 
Q 2072 1275 1594 1428 
L 1178 1569 
Q 750 1706 558 1912 
Q 366 2119 366 2438 
Q 366 2894 700 3153 
Q 1034 3413 1625 3413 
Q 1888 3413 2178 3344 
Q 2469 3275 2778 3144 
L 2778 2419 
L 2447 2419 
Q 2434 2741 2221 2922 
Q 2009 3103 1644 3103 
Q 1281 3103 1095 2975 
Q 909 2847 909 2591 
Q 909 2381 1050 2254 
Q 1191 2128 1613 1997 
L 2069 1856 
Q 2541 1709 2748 1489 
Q 2956 1269 2956 922 
Q 2956 450 2595 179 
Q 2234 -91 1600 -91 
Q 1278 -91 972 -22 
Q 666 47 359 184 
z
" transform="scale(0.015625)"/>
       <path id="DejaVuSerif-5d" d="M 1947 4863 
L 1947 -844 
L 494 -844 
L 494 -513 
L 1350 -513 
L 1350 4531 
L 494 4531 
L 494 4863 
L 1947 4863 
z
" transform="scale(0.015625)"/>
      </defs>
      <use xlink:href="#DejaVuSerif-54"/>
      <use xlink:href="#DejaVuSerif-69" x="66.699219"/>
      <use xlink:href="#DejaVuSerif-6d" x="98.681641"/>
      <use xlink:href="#DejaVuSerif-65" x="193.505859"/>
      <use xlink:href="#DejaVuSerif-20" x="252.685547"/>
      <use xlink:href="#DejaVuSerif-5b" x="284.472656"/>
      <use xlink:href="#DejaVuSerif-73" x="323.486328"/>
      <use xlink:href="#DejaVuSerif-5d" x="374.804688"/>
     </g>
    </g>
   </g>
   <g id="matplotlib.axis_8">
    <g id="ytick_10">
     <g id="line2d_95">
      <path d="M 38.204771 188.768799 
L 385.61904 188.768799 
" clip-path="url(#p0748ad95f7)" style="fill: none; stroke: #b0b0b0; stroke-width: 0.2; stroke-linecap: round"/>
     </g>
     <g id="line2d_96"/>
     <g id="text_25">
      <!-- −50 -->
      <g style="fill: #262626" transform="translate(15.710552 192.188096) scale(0.09 -0.09)">
       <use xlink:href="#DejaVuSerif-2212"/>
       <use xlink:href="#DejaVuSerif-35" x="83.789062"/>
       <use xlink:href="#DejaVuSerif-30" x="147.412109"/>
      </g>
     </g>
    </g>
    <g id="ytick_11">
     <g id="line2d_97">
      <path d="M 38.204771 173.909821 
L 385.61904 173.909821 
" clip-path="url(#p0748ad95f7)" style="fill: none; stroke: #b0b0b0; stroke-width: 0.2; stroke-linecap: round"/>
     </g>
     <g id="line2d_98"/>
     <g id="text_26">
      <!-- 0 -->
      <g style="fill: #262626" transform="translate(28.978521 177.329117) scale(0.09 -0.09)">
       <use xlink:href="#DejaVuSerif-30"/>
      </g>
     </g>
    </g>
    <g id="ytick_12">
     <g id="line2d_99">
      <path d="M 38.204771 159.050842 
L 385.61904 159.050842 
" clip-path="url(#p0748ad95f7)" style="fill: none; stroke: #b0b0b0; stroke-width: 0.2; stroke-linecap: round"/>
     </g>
     <g id="line2d_100"/>
     <g id="text_27">
      <!-- 50 -->
      <g style="fill: #262626" transform="translate(23.252271 162.470139) scale(0.09 -0.09)">
       <use xlink:href="#DejaVuSerif-35"/>
       <use xlink:href="#DejaVuSerif-30" x="63.623047"/>
      </g>
     </g>
    </g>
    <g id="text_28">
     <!-- $Y_H(r)$ -->
     <g style="fill: #262626" transform="translate(9.838834 183.085383) rotate(-90) scale(0.09 -0.09)">
      <use xlink:href="#DejaVuSans-Oblique-59" transform="translate(0 0.125)"/>
      <use xlink:href="#DejaVuSans-Oblique-48" transform="translate(61.083984 -16.28125) scale(0.7)"/>
      <use xlink:href="#DejaVuSans-28" transform="translate(116.455078 0.125)"/>
      <use xlink:href="#DejaVuSans-Oblique-72" transform="translate(155.46875 0.125)"/>
      <use xlink:href="#DejaVuSans-29" transform="translate(196.582031 0.125)"/>
     </g>
    </g>
   </g>
   <g id="line2d_101">
    <path d="M 53.996329 173.909821 
L 369.827482 173.909821 
L 369.827482 173.909821 
" clip-path="url(#p0748ad95f7)" style="fill: none; stroke: #0000ff; stroke-width: 0.75; stroke-linecap: round"/>
   </g>
   <g id="line2d_102">
    <path d="M 53.996329 173.909821 
L 369.827482 173.909821 
L 369.827482 173.909821 
" clip-path="url(#p0748ad95f7)" style="fill: none; stroke: #008000; stroke-width: 0.75; stroke-linecap: round"/>
   </g>
   <g id="line2d_103">
    <path d="M 53.996329 173.909821 
L 369.827482 173.909821 
L 369.827482 173.909821 
" clip-path="url(#p0748ad95f7)" style="fill: none; stroke: #ff0000; stroke-width: 0.75; stroke-linecap: round"/>
   </g>
   <g id="patch_12">
    <path d="M 38.204771 190.702239 
L 38.204771 154.228527 
" style="fill: none; stroke: #000000; stroke-linejoin: miter; stroke-linecap: square"/>
   </g>
   <g id="patch_13">
    <path d="M 38.204771 190.702239 
L 385.61904 190.702239 
" style="fill: none; stroke: #000000; stroke-linejoin: miter; stroke-linecap: square"/>
   </g>
  </g>
 </g>
 <defs>
  <clipPath id="pdb5c5b140e">
   <rect x="38.204771" y="16.731417" width="347.414269" height="36.473712"/>
  </clipPath>
  <clipPath id="pa308c05f31">
   <rect x="38.204771" y="62.563787" width="347.414269" height="36.473712"/>
  </clipPath>
  <clipPath id="pb4b78cf3fe">
   <rect x="38.204771" y="108.396157" width="347.414269" height="36.473712"/>
  </clipPath>
  <clipPath id="p0748ad95f7">
   <rect x="38.204771" y="154.228527" width="347.414269" height="36.473712"/>
  </clipPath>
 </defs>
</svg>
