<?xml version="1.0" encoding="utf-8" standalone="no"?>
<!DOCTYPE svg PUBLIC "-//W3C//DTD SVG 1.1//EN"
  "http://www.w3.org/Graphics/SVG/1.1/DTD/svg11.dtd">
<svg xmlns:xlink="http://www.w3.org/1999/xlink" width="221.23975pt" height="245.546375pt" viewBox="0 0 221.23975 245.546375" xmlns="http://www.w3.org/2000/svg" version="1.1">
 <metadata>
  <rdf:RDF xmlns:dc="http://purl.org/dc/elements/1.1/" xmlns:cc="http://creativecommons.org/ns#" xmlns:rdf="http://www.w3.org/1999/02/22-rdf-syntax-ns#">
   <cc:Work>
    <dc:type rdf:resource="http://purl.org/dc/dcmitype/StillImage"/>
    <dc:date>2024-02-16T10:21:25.806729</dc:date>
    <dc:format>image/svg+xml</dc:format>
    <dc:creator>
     <cc:Agent>
      <dc:title>Matplotlib v3.8.2, https://matplotlib.org/</dc:title>
     </cc:Agent>
    </dc:creator>
   </cc:Work>
  </rdf:RDF>
 </metadata>
 <defs>
  <style type="text/css">*{stroke-linejoin: round; stroke-linecap: butt}</style>
 </defs>
 <g id="figure_1">
  <g id="patch_1">
   <path d="M 0 245.546375 
L 221.23975 245.546375 
L 221.23975 0 
L 0 0 
z
" style="fill: #ffffff"/>
  </g>
  <g id="axes_1">
   <g id="patch_2">
    <path d="M 47.465469 91.651706 
L 214.03975 91.651706 
L 214.03975 28.829059 
L 47.465469 28.829059 
z
" style="fill: #ffffff"/>
   </g>
   <g id="line2d_1">
    <path d="M 55.037027 60.329511 
L 55.922159 60.570388 
L 56.92799 61.086806 
L 58.175221 62.007583 
L 62.802046 65.619871 
L 67.469105 70.023455 
L 74.268526 75.074891 
L 76.481355 76.514098 
L 79.579317 78.226213 
L 81.631213 79.146467 
L 82.637044 79.397189 
L 83.44171 79.346651 
L 84.326841 79.058592 
L 85.29244 78.505432 
L 86.338504 77.645379 
L 87.465036 76.416069 
L 89.838798 73.377605 
L 91.769995 70.508014 
L 95.431222 64.963593 
L 97.88545 61.827682 
L 104.684872 53.453302 
L 107.179334 51.108981 
L 111.725692 47.12229 
L 113.737356 45.687783 
L 116.87555 43.797421 
L 120.174677 41.666242 
L 122.387507 40.373874 
L 125.445235 38.901127 
L 130.273226 36.762229 
L 133.733286 35.601863 
L 138.722211 34.139332 
L 140.733874 33.795967 
L 142.262738 33.741402 
L 143.228336 33.883229 
L 144.073235 34.259858 
L 145.079066 34.95775 
L 146.245831 36.048806 
L 147.452829 37.490174 
L 148.901226 39.603204 
L 150.953122 42.90584 
L 156.626012 52.515995 
L 163.184034 61.48242 
L 164.994531 63.652913 
L 167.32806 66.054243 
L 172.437684 70.962615 
L 174.368881 72.414765 
L 178.995706 75.462946 
L 183.099498 78.073097 
L 186.318159 79.748933 
L 191.025451 82.062718 
L 193.560146 82.941066 
L 201.083766 85.350139 
L 203.377062 85.741007 
L 205.107092 85.828774 
L 205.911758 85.64704 
L 205.911758 85.64704 
" clip-path="url(#p71669164b7)" style="fill: none; stroke: #000000; stroke-width: 0.6; stroke-linecap: round"/>
   </g>
   <g id="matplotlib.axis_1">
    <g id="xtick_1">
     <g id="line2d_2">
      <path d="M 55.037027 91.651706 
L 55.037027 28.829059 
" clip-path="url(#p71669164b7)" style="fill: none; stroke: #b0b0b0; stroke-width: 0.1; stroke-linecap: round"/>
     </g>
     <g id="line2d_3"/>
    </g>
    <g id="xtick_2">
     <g id="line2d_4">
      <path d="M 95.505003 91.651706 
L 95.505003 28.829059 
" clip-path="url(#p71669164b7)" style="fill: none; stroke: #b0b0b0; stroke-width: 0.1; stroke-linecap: round"/>
     </g>
     <g id="line2d_5"/>
    </g>
    <g id="xtick_3">
     <g id="line2d_6">
      <path d="M 135.972978 91.651706 
L 135.972978 28.829059 
" clip-path="url(#p71669164b7)" style="fill: none; stroke: #b0b0b0; stroke-width: 0.1; stroke-linecap: round"/>
     </g>
     <g id="line2d_7"/>
    </g>
    <g id="xtick_4">
     <g id="line2d_8">
      <path d="M 176.440954 91.651706 
L 176.440954 28.829059 
" clip-path="url(#p71669164b7)" style="fill: none; stroke: #b0b0b0; stroke-width: 0.1; stroke-linecap: round"/>
     </g>
     <g id="line2d_9"/>
    </g>
   </g>
   <g id="matplotlib.axis_2">
    <g id="ytick_1">
     <g id="line2d_10">
      <path d="M 47.465469 81.633218 
L 214.03975 81.633218 
" clip-path="url(#p71669164b7)" style="fill: none; stroke: #b0b0b0; stroke-width: 0.1; stroke-linecap: round"/>
     </g>
     <g id="line2d_11"/>
     <g id="text_1">
      <!-- −5 -->
      <g style="fill: #262626" transform="translate(33.645938 84.292671) scale(0.07 -0.07)">
       <defs>
        <path id="DejaVuSerif-2212" d="M 678 2259 
L 4684 2259 
L 4684 1753 
L 678 1753 
L 678 2259 
z
" transform="scale(0.015625)"/>
        <path id="DejaVuSerif-35" d="M 3219 4666 
L 3219 4153 
L 1081 4153 
L 1081 2816 
Q 1244 2928 1461 2984 
Q 1678 3041 1947 3041 
Q 2703 3041 3140 2622 
Q 3578 2203 3578 1478 
Q 3578 738 3136 323 
Q 2694 -91 1894 -91 
Q 1572 -91 1234 -12 
Q 897 66 544 225 
L 544 1131 
L 897 1131 
Q 925 688 1179 453 
Q 1434 219 1894 219 
Q 2388 219 2653 544 
Q 2919 869 2919 1478 
Q 2919 2084 2655 2407 
Q 2391 2731 1894 2731 
Q 1613 2731 1398 2631 
Q 1184 2531 1019 2322 
L 750 2322 
L 750 4666 
L 3219 4666 
z
" transform="scale(0.015625)"/>
       </defs>
       <use xlink:href="#DejaVuSerif-2212"/>
       <use xlink:href="#DejaVuSerif-35" x="83.789062"/>
      </g>
     </g>
    </g>
    <g id="ytick_2">
     <g id="line2d_12">
      <path d="M 47.465469 60.380459 
L 214.03975 60.380459 
" clip-path="url(#p71669164b7)" style="fill: none; stroke: #b0b0b0; stroke-width: 0.1; stroke-linecap: round"/>
     </g>
     <g id="line2d_13"/>
     <g id="text_2">
      <!-- 0 -->
      <g style="fill: #262626" transform="translate(39.511719 63.039912) scale(0.07 -0.07)">
       <defs>
        <path id="DejaVuSerif-30" d="M 2034 219 
Q 2513 219 2750 744 
Q 2988 1269 2988 2328 
Q 2988 3391 2750 3916 
Q 2513 4441 2034 4441 
Q 1556 4441 1318 3916 
Q 1081 3391 1081 2328 
Q 1081 1269 1318 744 
Q 1556 219 2034 219 
z
M 2034 -91 
Q 1275 -91 848 546 
Q 422 1184 422 2328 
Q 422 3475 848 4112 
Q 1275 4750 2034 4750 
Q 2797 4750 3222 4112 
Q 3647 3475 3647 2328 
Q 3647 1184 3222 546 
Q 2797 -91 2034 -91 
z
" transform="scale(0.015625)"/>
       </defs>
       <use xlink:href="#DejaVuSerif-30"/>
      </g>
     </g>
    </g>
    <g id="ytick_3">
     <g id="line2d_14">
      <path d="M 47.465469 39.127701 
L 214.03975 39.127701 
" clip-path="url(#p71669164b7)" style="fill: none; stroke: #b0b0b0; stroke-width: 0.1; stroke-linecap: round"/>
     </g>
     <g id="line2d_15"/>
     <g id="text_3">
      <!-- 5 -->
      <g style="fill: #262626" transform="translate(39.511719 41.787154) scale(0.07 -0.07)">
       <use xlink:href="#DejaVuSerif-35"/>
      </g>
     </g>
    </g>
    <g id="text_4">
     <!-- $\beta$ $[deg]$ -->
     <g style="fill: #262626" transform="translate(12.59 72.945382) rotate(-90) scale(0.07 -0.07)">
      <defs>
       <path id="DejaVuSans-Oblique-3b2" d="M 872 216 
L 572 -1331 
L -6 -1331 
L 928 3478 
Q 1206 4903 2538 4903 
Q 3888 4903 3659 3700 
Q 3503 2844 2894 2531 
Q 3713 2250 3553 1416 
Q 3272 -69 1759 -66 
Q 1097 -63 872 216 
z
M 1019 966 
Q 1259 422 1875 425 
Q 2775 425 2966 1406 
Q 3138 2288 1675 2219 
L 1778 2750 
Q 2909 2731 3106 3750 
Q 3241 4438 2509 4434 
Q 1691 4434 1503 3459 
L 1019 966 
z
" transform="scale(0.015625)"/>
       <path id="DejaVuSerif-20" transform="scale(0.015625)"/>
       <path id="DejaVuSans-5b" d="M 550 4863 
L 1875 4863 
L 1875 4416 
L 1125 4416 
L 1125 -397 
L 1875 -397 
L 1875 -844 
L 550 -844 
L 550 4863 
z
" transform="scale(0.015625)"/>
       <path id="DejaVuSans-Oblique-64" d="M 2675 525 
Q 2444 222 2128 65 
Q 1813 -91 1428 -91 
Q 903 -91 598 267 
Q 294 625 294 1247 
Q 294 1766 478 2236 
Q 663 2706 1013 3078 
Q 1244 3325 1534 3454 
Q 1825 3584 2144 3584 
Q 2481 3584 2739 3421 
Q 2997 3259 3138 2956 
L 3513 4863 
L 4091 4863 
L 3144 0 
L 2566 0 
L 2675 525 
z
M 891 1350 
Q 891 897 1095 644 
Q 1300 391 1663 391 
Q 1931 391 2161 520 
Q 2391 650 2566 903 
Q 2750 1166 2856 1509 
Q 2963 1853 2963 2188 
Q 2963 2622 2758 2865 
Q 2553 3109 2194 3109 
Q 1922 3109 1687 2981 
Q 1453 2853 1288 2613 
Q 1106 2353 998 2009 
Q 891 1666 891 1350 
z
" transform="scale(0.015625)"/>
       <path id="DejaVuSans-Oblique-65" d="M 3078 2063 
Q 3088 2113 3092 2166 
Q 3097 2219 3097 2272 
Q 3097 2653 2873 2875 
Q 2650 3097 2266 3097 
Q 1838 3097 1509 2826 
Q 1181 2556 1013 2059 
L 3078 2063 
z
M 3578 1613 
L 903 1613 
Q 884 1494 878 1425 
Q 872 1356 872 1306 
Q 872 872 1139 634 
Q 1406 397 1894 397 
Q 2269 397 2603 481 
Q 2938 566 3225 728 
L 3116 159 
Q 2806 34 2476 -28 
Q 2147 -91 1806 -91 
Q 1078 -91 686 257 
Q 294 606 294 1247 
Q 294 1794 489 2264 
Q 684 2734 1063 3103 
Q 1306 3334 1642 3459 
Q 1978 3584 2356 3584 
Q 2950 3584 3301 3228 
Q 3653 2872 3653 2272 
Q 3653 2128 3634 1964 
Q 3616 1800 3578 1613 
z
" transform="scale(0.015625)"/>
       <path id="DejaVuSans-Oblique-67" d="M 3816 3500 
L 3219 434 
Q 3047 -456 2561 -893 
Q 2075 -1331 1253 -1331 
Q 950 -1331 690 -1286 
Q 431 -1241 206 -1147 
L 313 -588 
Q 525 -725 762 -790 
Q 1000 -856 1269 -856 
Q 1816 -856 2167 -557 
Q 2519 -259 2631 300 
L 2681 563 
Q 2441 288 2122 144 
Q 1803 0 1434 0 
Q 903 0 598 351 
Q 294 703 294 1319 
Q 294 1803 478 2267 
Q 663 2731 997 3091 
Q 1219 3328 1514 3456 
Q 1809 3584 2131 3584 
Q 2484 3584 2746 3420 
Q 3009 3256 3138 2956 
L 3238 3500 
L 3816 3500 
z
M 2950 2216 
Q 2950 2641 2750 2872 
Q 2550 3103 2181 3103 
Q 1953 3103 1747 3012 
Q 1541 2922 1394 2759 
Q 1156 2491 1023 2127 
Q 891 1763 891 1375 
Q 891 944 1092 712 
Q 1294 481 1672 481 
Q 2219 481 2584 976 
Q 2950 1472 2950 2216 
z
" transform="scale(0.015625)"/>
       <path id="DejaVuSans-5d" d="M 1947 4863 
L 1947 -844 
L 622 -844 
L 622 -397 
L 1369 -397 
L 1369 4416 
L 622 4416 
L 622 4863 
L 1947 4863 
z
" transform="scale(0.015625)"/>
      </defs>
      <use xlink:href="#DejaVuSans-Oblique-3b2" transform="translate(0 0.390625)"/>
      <use xlink:href="#DejaVuSerif-20" transform="translate(63.818359 0.390625)"/>
      <use xlink:href="#DejaVuSans-5b" transform="translate(95.605469 0.390625)"/>
      <use xlink:href="#DejaVuSans-Oblique-64" transform="translate(134.619141 0.390625)"/>
      <use xlink:href="#DejaVuSans-Oblique-65" transform="translate(198.095703 0.390625)"/>
      <use xlink:href="#DejaVuSans-Oblique-67" transform="translate(259.619141 0.390625)"/>
      <use xlink:href="#DejaVuSans-5d" transform="translate(323.095703 0.390625)"/>
     </g>
    </g>
   </g>
   <g id="line2d_16">
    <path d="M 55.037027 60.380459 
L 55.927322 60.489255 
L 56.77715 60.809672 
L 57.626977 61.362787 
L 59.488504 62.983916 
L 71.143281 73.447955 
L 74.704463 76.177071 
L 78.306113 78.669008 
L 82.069635 80.986637 
L 83.445546 81.667106 
L 84.295373 81.816187 
L 85.104733 81.73262 
L 85.914093 81.417155 
L 86.723452 80.860848 
L 87.613747 79.965309 
L 88.787319 78.418361 
L 92.672244 72.873086 
L 98.054485 65.241272 
L 101.372859 60.92894 
L 104.569829 57.137292 
L 107.888203 53.566508 
L 111.125641 50.408338 
L 114.524951 47.414037 
L 117.721921 44.875709 
L 121.202167 42.412406 
L 124.763349 40.17223 
L 128.364999 38.148827 
L 132.371329 36.146177 
L 136.701402 34.23748 
L 141.071943 32.557501 
L 143.74283 31.706134 
L 144.592657 31.722986 
L 145.402017 31.963503 
L 146.211376 32.431189 
L 147.101672 33.217023 
L 148.032435 34.354788 
L 149.408346 36.475147 
L 159.889552 52.979085 
L 163.005586 57.296715 
L 166.243024 61.39621 
L 169.480462 65.119402 
L 172.879772 68.647267 
L 176.157678 71.724846 
L 179.233245 74.332253 
L 182.592087 76.898282 
L 185.991397 79.22233 
L 189.71445 81.484076 
L 193.599376 83.578529 
L 197.686642 85.538887 
L 201.895311 87.297821 
L 205.942109 88.796131 
L 205.942109 88.796131 
" clip-path="url(#p71669164b7)" style="fill: none; stroke: #0000ff; stroke-width: 0.6; stroke-linecap: round"/>
   </g>
   <g id="line2d_17">
    <path d="M 55.037027 60.380459 
L 55.927322 60.489153 
L 56.77715 60.808902 
L 57.626977 61.360209 
L 59.56944 63.043248 
L 69.079415 71.46178 
L 72.681064 74.216614 
L 76.120842 76.553714 
L 79.682024 78.701841 
L 83.445546 80.684517 
L 84.335841 80.973558 
L 85.185669 81.017665 
L 85.995028 80.837912 
L 86.804388 80.423064 
L 87.654215 79.728432 
L 88.584979 78.667804 
L 90.486974 75.975765 
L 99.5518 62.957601 
L 102.586899 59.153013 
L 105.460125 55.891425 
L 108.535691 52.740339 
L 111.813597 49.731002 
L 114.848695 47.249621 
L 117.883793 45.043117 
L 121.121231 42.954653 
L 124.722881 40.91777 
L 128.243595 39.169147 
L 131.966649 37.554812 
L 136.296722 35.928171 
L 140.829136 34.473294 
L 144.633125 33.445223 
L 145.482953 33.458834 
L 146.292312 33.690035 
L 147.101672 34.149327 
L 147.991967 34.919196 
L 148.922731 36.02841 
L 150.055834 37.761902 
L 161.022655 55.154318 
L 163.774478 58.888514 
L 166.688172 62.481947 
L 169.642334 65.766808 
L 172.7179 68.842265 
L 175.874403 71.680976 
L 178.869033 74.072359 
L 181.944599 76.263881 
L 185.384377 78.440008 
L 188.864623 80.373053 
L 192.587677 82.187891 
L 196.31073 83.756582 
L 200.276592 85.207668 
L 205.051813 86.697092 
L 206.468192 87.096252 
L 206.468192 87.096252 
" clip-path="url(#p71669164b7)" style="fill: none; stroke: #008000; stroke-width: 0.6; stroke-linecap: round"/>
   </g>
   <g id="line2d_18">
    <path d="M 55.037027 60.380459 
L 56.048726 60.491023 
L 56.939022 60.808102 
L 57.788849 61.346481 
L 59.97412 63.184739 
L 69.76737 71.761796 
L 72.721532 73.887279 
L 75.675695 75.744151 
L 78.670325 77.367721 
L 81.867295 78.843255 
L 83.121802 79.253428 
L 83.97163 79.281538 
L 84.821457 79.081469 
L 85.630817 78.658723 
L 86.480644 77.954567 
L 87.37094 76.914182 
L 88.827787 74.742961 
L 92.995988 68.10074 
L 96.435766 62.840708 
L 99.187589 59.032711 
L 101.777539 55.827483 
L 104.286553 53.0739 
L 106.795568 50.646996 
L 109.34505 48.488266 
L 111.935001 46.586537 
L 114.727291 44.816389 
L 117.640985 43.237378 
L 120.75702 41.802878 
L 124.034926 40.540939 
L 127.596108 39.409166 
L 131.683373 38.365103 
L 136.013446 37.489625 
L 140.222116 36.854448 
L 141.112411 36.937497 
L 141.962239 37.231937 
L 142.812066 37.752426 
L 143.702362 38.564677 
L 144.633125 39.7197 
L 145.725761 41.457167 
L 149.286943 47.687372 
L 153.090932 54.173528 
L 155.842755 58.428925 
L 158.392237 61.965636 
L 160.860784 65.01387 
L 163.32933 67.711681 
L 165.838345 70.128139 
L 168.347359 72.24075 
L 170.977778 74.172428 
L 173.648664 75.862516 
L 176.52189 77.415342 
L 179.597456 78.825131 
L 183.037234 80.156395 
L 186.436544 81.234768 
L 190.200066 82.194239 
L 194.853883 83.140555 
L 198.576937 83.752596 
L 198.576937 83.752596 
" clip-path="url(#p71669164b7)" style="fill: none; stroke: #ff0000; stroke-width: 0.6; stroke-linecap: round"/>
   </g>
   <g id="patch_3">
    <path d="M 47.465469 91.651706 
L 47.465469 28.829059 
" style="fill: none; stroke: #000000; stroke-linejoin: miter; stroke-linecap: square"/>
   </g>
   <g id="patch_4">
    <path d="M 47.465469 91.651706 
L 214.03975 91.651706 
" style="fill: none; stroke: #000000; stroke-linejoin: miter; stroke-linecap: square"/>
   </g>
   <g id="legend_1">
    <g id="line2d_19">
     <path d="M 79.99386 12.868906 
L 86.99386 12.868906 
L 93.99386 12.868906 
" style="fill: none; stroke: #000000; stroke-width: 0.6; stroke-linecap: round"/>
    </g>
    <g id="text_5">
     <!-- Model test -->
     <g style="fill: #262626" transform="translate(99.59386 15.318906) scale(0.07 -0.07)">
      <defs>
       <path id="DejaVuSerif-4d" d="M 353 0 
L 353 331 
L 947 331 
L 947 4331 
L 319 4331 
L 319 4666 
L 1678 4666 
L 3316 1344 
L 4953 4666 
L 6228 4666 
L 6228 4331 
L 5606 4331 
L 5606 331 
L 6203 331 
L 6203 0 
L 4378 0 
L 4378 331 
L 4972 331 
L 4972 3938 
L 3372 684 
L 2931 684 
L 1331 3938 
L 1331 331 
L 1925 331 
L 1925 0 
L 353 0 
z
" transform="scale(0.015625)"/>
       <path id="DejaVuSerif-6f" d="M 1925 219 
Q 2388 219 2623 584 
Q 2859 950 2859 1663 
Q 2859 2375 2623 2739 
Q 2388 3103 1925 3103 
Q 1463 3103 1227 2739 
Q 991 2375 991 1663 
Q 991 950 1228 584 
Q 1466 219 1925 219 
z
M 1925 -91 
Q 1200 -91 759 389 
Q 319 869 319 1663 
Q 319 2456 758 2934 
Q 1197 3413 1925 3413 
Q 2653 3413 3092 2934 
Q 3531 2456 3531 1663 
Q 3531 869 3092 389 
Q 2653 -91 1925 -91 
z
" transform="scale(0.015625)"/>
       <path id="DejaVuSerif-64" d="M 3359 331 
L 3909 331 
L 3909 0 
L 2784 0 
L 2784 519 
Q 2616 206 2355 57 
Q 2094 -91 1709 -91 
Q 1097 -91 708 395 
Q 319 881 319 1663 
Q 319 2444 706 2928 
Q 1094 3413 1709 3413 
Q 2094 3413 2355 3264 
Q 2616 3116 2784 2803 
L 2784 4531 
L 2241 4531 
L 2241 4863 
L 3359 4863 
L 3359 331 
z
M 2784 1497 
L 2784 1825 
Q 2784 2422 2554 2737 
Q 2325 3053 1888 3053 
Q 1444 3053 1217 2703 
Q 991 2353 991 1663 
Q 991 975 1217 622 
Q 1444 269 1888 269 
Q 2325 269 2554 583 
Q 2784 897 2784 1497 
z
" transform="scale(0.015625)"/>
       <path id="DejaVuSerif-65" d="M 3469 1600 
L 991 1600 
L 991 1575 
Q 991 903 1244 561 
Q 1497 219 1991 219 
Q 2369 219 2611 417 
Q 2853 616 2950 1006 
L 3413 1006 
Q 3275 459 2904 184 
Q 2534 -91 1931 -91 
Q 1203 -91 761 389 
Q 319 869 319 1663 
Q 319 2450 753 2931 
Q 1188 3413 1894 3413 
Q 2647 3413 3050 2948 
Q 3453 2484 3469 1600 
z
M 2791 1931 
Q 2772 2513 2545 2808 
Q 2319 3103 1894 3103 
Q 1497 3103 1269 2806 
Q 1041 2509 991 1931 
L 2791 1931 
z
" transform="scale(0.015625)"/>
       <path id="DejaVuSerif-6c" d="M 1313 331 
L 1856 331 
L 1856 0 
L 184 0 
L 184 331 
L 738 331 
L 738 4531 
L 184 4531 
L 184 4863 
L 1313 4863 
L 1313 331 
z
" transform="scale(0.015625)"/>
       <path id="DejaVuSerif-74" d="M 691 2988 
L 184 2988 
L 184 3322 
L 691 3322 
L 691 4353 
L 1269 4353 
L 1269 3322 
L 2350 3322 
L 2350 2988 
L 1269 2988 
L 1269 878 
Q 1269 456 1350 337 
Q 1431 219 1650 219 
Q 1875 219 1978 351 
Q 2081 484 2088 781 
L 2522 781 
Q 2497 328 2275 118 
Q 2053 -91 1600 -91 
Q 1103 -91 897 129 
Q 691 350 691 878 
L 691 2988 
z
" transform="scale(0.015625)"/>
       <path id="DejaVuSerif-73" d="M 359 184 
L 359 959 
L 691 959 
Q 703 588 923 403 
Q 1144 219 1575 219 
Q 1963 219 2166 364 
Q 2369 509 2369 788 
Q 2369 1006 2220 1140 
Q 2072 1275 1594 1428 
L 1178 1569 
Q 750 1706 558 1912 
Q 366 2119 366 2438 
Q 366 2894 700 3153 
Q 1034 3413 1625 3413 
Q 1888 3413 2178 3344 
Q 2469 3275 2778 3144 
L 2778 2419 
L 2447 2419 
Q 2434 2741 2221 2922 
Q 2009 3103 1644 3103 
Q 1281 3103 1095 2975 
Q 909 2847 909 2591 
Q 909 2381 1050 2254 
Q 1191 2128 1613 1997 
L 2069 1856 
Q 2541 1709 2748 1489 
Q 2956 1269 2956 922 
Q 2956 450 2595 179 
Q 2234 -91 1600 -91 
Q 1278 -91 972 -22 
Q 666 47 359 184 
z
" transform="scale(0.015625)"/>
      </defs>
      <use xlink:href="#DejaVuSerif-4d"/>
      <use xlink:href="#DejaVuSerif-6f" x="102.392578"/>
      <use xlink:href="#DejaVuSerif-64" x="162.597656"/>
      <use xlink:href="#DejaVuSerif-65" x="226.611328"/>
      <use xlink:href="#DejaVuSerif-6c" x="285.791016"/>
      <use xlink:href="#DejaVuSerif-20" x="317.773438"/>
      <use xlink:href="#DejaVuSerif-74" x="349.560547"/>
      <use xlink:href="#DejaVuSerif-65" x="389.746094"/>
      <use xlink:href="#DejaVuSerif-73" x="448.925781"/>
      <use xlink:href="#DejaVuSerif-74" x="500.244141"/>
     </g>
    </g>
    <g id="line2d_20">
     <path d="M 79.99386 23.143594 
L 86.99386 23.143594 
L 93.99386 23.143594 
" style="fill: none; stroke: #0000ff; stroke-width: 0.6; stroke-linecap: round"/>
    </g>
    <g id="text_6">
     <!-- Reference -->
     <g style="fill: #262626" transform="translate(99.59386 25.593594) scale(0.07 -0.07)">
      <defs>
       <path id="DejaVuSerif-52" d="M 3066 2316 
Q 3284 2256 3442 2114 
Q 3600 1972 3725 1716 
L 4403 331 
L 4972 331 
L 4972 0 
L 3872 0 
L 3144 1484 
Q 2934 1916 2759 2042 
Q 2584 2169 2278 2169 
L 1581 2169 
L 1581 331 
L 2241 331 
L 2241 0 
L 353 0 
L 353 331 
L 947 331 
L 947 4331 
L 353 4331 
L 353 4666 
L 2719 4666 
Q 3400 4666 3770 4341 
Q 4141 4016 4141 3419 
Q 4141 2938 3870 2661 
Q 3600 2384 3066 2316 
z
M 1581 2503 
L 2503 2503 
Q 2975 2503 3200 2726 
Q 3425 2950 3425 3419 
Q 3425 3888 3200 4109 
Q 2975 4331 2503 4331 
L 1581 4331 
L 1581 2503 
z
" transform="scale(0.015625)"/>
       <path id="DejaVuSerif-66" d="M 2753 4078 
L 2450 4078 
Q 2447 4313 2317 4434 
Q 2188 4556 1941 4556 
Q 1619 4556 1487 4379 
Q 1356 4203 1356 3750 
L 1356 3322 
L 2284 3322 
L 2284 2988 
L 1356 2988 
L 1356 331 
L 2094 331 
L 2094 0 
L 231 0 
L 231 331 
L 781 331 
L 781 2988 
L 231 2988 
L 231 3322 
L 781 3322 
L 781 3738 
Q 781 4294 1070 4578 
Q 1359 4863 1919 4863 
Q 2128 4863 2337 4825 
Q 2547 4788 2753 4709 
L 2753 4078 
z
" transform="scale(0.015625)"/>
       <path id="DejaVuSerif-72" d="M 3059 3328 
L 3059 2497 
L 2728 2497 
Q 2713 2744 2591 2866 
Q 2469 2988 2234 2988 
Q 1809 2988 1582 2694 
Q 1356 2400 1356 1850 
L 1356 331 
L 2022 331 
L 2022 0 
L 263 0 
L 263 331 
L 781 331 
L 781 2994 
L 231 2994 
L 231 3322 
L 1356 3322 
L 1356 2731 
Q 1525 3078 1790 3245 
Q 2056 3413 2438 3413 
Q 2578 3413 2733 3391 
Q 2888 3369 3059 3328 
z
" transform="scale(0.015625)"/>
       <path id="DejaVuSerif-6e" d="M 263 0 
L 263 331 
L 781 331 
L 781 2988 
L 231 2988 
L 231 3322 
L 1356 3322 
L 1356 2731 
Q 1516 3069 1770 3241 
Q 2025 3413 2363 3413 
Q 2913 3413 3172 3097 
Q 3431 2781 3431 2113 
L 3431 331 
L 3944 331 
L 3944 0 
L 2356 0 
L 2356 331 
L 2853 331 
L 2853 1931 
Q 2853 2541 2703 2767 
Q 2553 2994 2175 2994 
Q 1775 2994 1565 2701 
Q 1356 2409 1356 1850 
L 1356 331 
L 1856 331 
L 1856 0 
L 263 0 
z
" transform="scale(0.015625)"/>
       <path id="DejaVuSerif-63" d="M 3291 997 
Q 3169 466 2822 187 
Q 2475 -91 1925 -91 
Q 1200 -91 759 389 
Q 319 869 319 1663 
Q 319 2459 759 2936 
Q 1200 3413 1925 3413 
Q 2241 3413 2553 3339 
Q 2866 3266 3181 3116 
L 3181 2266 
L 2847 2266 
Q 2781 2703 2561 2903 
Q 2341 3103 1931 3103 
Q 1466 3103 1228 2742 
Q 991 2381 991 1663 
Q 991 944 1227 581 
Q 1463 219 1931 219 
Q 2303 219 2525 412 
Q 2747 606 2828 997 
L 3291 997 
z
" transform="scale(0.015625)"/>
      </defs>
      <use xlink:href="#DejaVuSerif-52"/>
      <use xlink:href="#DejaVuSerif-65" x="75.292969"/>
      <use xlink:href="#DejaVuSerif-66" x="134.472656"/>
      <use xlink:href="#DejaVuSerif-65" x="171.484375"/>
      <use xlink:href="#DejaVuSerif-72" x="230.664062"/>
      <use xlink:href="#DejaVuSerif-65" x="278.466797"/>
      <use xlink:href="#DejaVuSerif-6e" x="337.646484"/>
      <use xlink:href="#DejaVuSerif-63" x="402.050781"/>
      <use xlink:href="#DejaVuSerif-65" x="458.056641"/>
     </g>
    </g>
    <g id="line2d_21">
     <path d="M 151.424485 12.868906 
L 158.424485 12.868906 
L 165.424485 12.868906 
" style="fill: none; stroke: #008000; stroke-width: 0.6; stroke-linecap: round"/>
    </g>
    <g id="text_7">
     <!-- PI -->
     <g style="fill: #262626" transform="translate(171.024485 15.318906) scale(0.07 -0.07)">
      <defs>
       <path id="DejaVuSerif-50" d="M 1581 2375 
L 2406 2375 
Q 2872 2375 3115 2626 
Q 3359 2878 3359 3353 
Q 3359 3831 3115 4081 
Q 2872 4331 2406 4331 
L 1581 4331 
L 1581 2375 
z
M 353 0 
L 353 331 
L 947 331 
L 947 4331 
L 353 4331 
L 353 4666 
L 2559 4666 
Q 3259 4666 3668 4311 
Q 4078 3956 4078 3353 
Q 4078 2753 3668 2397 
Q 3259 2041 2559 2041 
L 1581 2041 
L 1581 331 
L 2303 331 
L 2303 0 
L 353 0 
z
" transform="scale(0.015625)"/>
       <path id="DejaVuSerif-49" d="M 1581 331 
L 2175 331 
L 2175 0 
L 353 0 
L 353 331 
L 947 331 
L 947 4331 
L 353 4331 
L 353 4666 
L 2175 4666 
L 2175 4331 
L 1581 4331 
L 1581 331 
z
" transform="scale(0.015625)"/>
      </defs>
      <use xlink:href="#DejaVuSerif-50"/>
      <use xlink:href="#DejaVuSerif-49" x="67.285156"/>
     </g>
    </g>
    <g id="line2d_22">
     <path d="M 151.424485 23.143594 
L 158.424485 23.143594 
L 165.424485 23.143594 
" style="fill: none; stroke: #ff0000; stroke-width: 0.6; stroke-linecap: round"/>
    </g>
    <g id="text_8">
     <!-- PU -->
     <g style="fill: #262626" transform="translate(171.024485 25.593594) scale(0.07 -0.07)">
      <defs>
       <path id="DejaVuSerif-55" d="M 897 4331 
L 300 4331 
L 300 4666 
L 2125 4666 
L 2125 4331 
L 1528 4331 
L 1528 1919 
Q 1528 1025 1820 672 
Q 2113 319 2828 319 
Q 3544 319 3836 672 
Q 4128 1025 4128 1919 
L 4128 4331 
L 3531 4331 
L 3531 4666 
L 5106 4666 
L 5106 4331 
L 4513 4331 
L 4513 1856 
Q 4513 791 4103 350 
Q 3694 -91 2713 -91 
Q 1731 -91 1314 353 
Q 897 797 897 1856 
L 897 4331 
z
" transform="scale(0.015625)"/>
      </defs>
      <use xlink:href="#DejaVuSerif-50"/>
      <use xlink:href="#DejaVuSerif-55" x="65.535156"/>
     </g>
    </g>
   </g>
  </g>
  <g id="axes_2">
   <g id="patch_5">
    <path d="M 47.465469 154.474353 
L 214.03975 154.474353 
L 214.03975 91.651706 
L 47.465469 91.651706 
z
" style="fill: #ffffff"/>
   </g>
   <g id="line2d_23">
    <path d="M 55.037027 123.405963 
L 56.887757 123.58587 
L 58.295921 123.950454 
L 59.865018 124.599531 
L 61.635282 125.574266 
L 63.526245 126.889527 
L 65.779308 128.733018 
L 69.038202 131.711034 
L 72.136163 134.866947 
L 76.722755 139.912576 
L 81.671446 145.78327 
L 84.367075 148.852152 
L 85.775239 150.108291 
L 86.942003 150.868227 
L 88.028301 151.324325 
L 89.195066 151.572208 
L 90.442297 151.60748 
L 91.810228 151.422353 
L 93.379325 150.977738 
L 95.189822 150.225764 
L 97.161252 149.160807 
L 99.374081 147.688076 
L 101.82831 145.775709 
L 104.725105 143.239469 
L 108.507032 139.604036 
L 113.375256 134.637997 
L 119.450479 128.129878 
L 124.841736 121.884011 
L 135.946116 108.429114 
L 145.159533 97.415073 
L 146.567697 96.192021 
L 147.734461 95.454974 
L 148.860993 95.00523 
L 150.027757 94.778887 
L 151.315222 94.761406 
L 152.723386 94.97058 
L 154.413183 95.452706 
L 156.384613 96.257083 
L 158.677909 97.433953 
L 160.729805 98.756165 
L 163.143801 100.586821 
L 166.362462 103.317115 
L 169.460423 106.266728 
L 176.662176 113.556983 
L 181.932734 119.23759 
L 188.329822 126.529204 
L 202.652863 143.516061 
L 205.911758 147.378201 
L 205.911758 147.378201 
" clip-path="url(#p952d26dc09)" style="fill: none; stroke: #000000; stroke-width: 0.6; stroke-linecap: round"/>
   </g>
   <g id="line2d_24">
    <path d="M 55.037027 123.73909 
L 55.640526 128.921285 
L 57.732656 145.916551 
L 58.014288 145.792807 
L 59.704085 145.790156 
L 62.238781 145.79104 
L 81.872612 145.792807 
L 82.033545 144.415721 
L 83.562409 131.661316 
L 87.344336 100.521301 
L 87.585736 100.606154 
L 90.321597 100.615877 
L 142.544371 100.614109 
L 142.78577 102.596654 
L 145.561865 125.522762 
L 146.245831 131.199047 
L 148.056328 145.916551 
L 148.418427 145.797227 
L 150.18869 145.79104 
L 204.744993 145.791924 
L 204.865693 144.761318 
L 205.791058 137.043268 
L 205.911758 136.032992 
L 205.911758 136.032992 
" clip-path="url(#p952d26dc09)" style="fill: none; stroke-dasharray: 2.22,0.96; stroke-dashoffset: 0; stroke: #808080; stroke-width: 0.6"/>
   </g>
   <g id="matplotlib.axis_3">
    <g id="xtick_5">
     <g id="line2d_25">
      <path d="M 55.037027 154.474353 
L 55.037027 91.651706 
" clip-path="url(#p952d26dc09)" style="fill: none; stroke: #b0b0b0; stroke-width: 0.1; stroke-linecap: round"/>
     </g>
     <g id="line2d_26"/>
    </g>
    <g id="xtick_6">
     <g id="line2d_27">
      <path d="M 95.505003 154.474353 
L 95.505003 91.651706 
" clip-path="url(#p952d26dc09)" style="fill: none; stroke: #b0b0b0; stroke-width: 0.1; stroke-linecap: round"/>
     </g>
     <g id="line2d_28"/>
    </g>
    <g id="xtick_7">
     <g id="line2d_29">
      <path d="M 135.972978 154.474353 
L 135.972978 91.651706 
" clip-path="url(#p952d26dc09)" style="fill: none; stroke: #b0b0b0; stroke-width: 0.1; stroke-linecap: round"/>
     </g>
     <g id="line2d_30"/>
    </g>
    <g id="xtick_8">
     <g id="line2d_31">
      <path d="M 176.440954 154.474353 
L 176.440954 91.651706 
" clip-path="url(#p952d26dc09)" style="fill: none; stroke: #b0b0b0; stroke-width: 0.1; stroke-linecap: round"/>
     </g>
     <g id="line2d_32"/>
    </g>
   </g>
   <g id="matplotlib.axis_4">
    <g id="ytick_4">
     <g id="line2d_33">
      <path d="M 47.465469 145.791551 
L 214.03975 145.791551 
" clip-path="url(#p952d26dc09)" style="fill: none; stroke: #b0b0b0; stroke-width: 0.1; stroke-linecap: round"/>
     </g>
     <g id="line2d_34"/>
     <g id="text_9">
      <!-- −10 -->
      <g style="fill: #262626" transform="translate(29.192187 148.451004) scale(0.07 -0.07)">
       <defs>
        <path id="DejaVuSerif-31" d="M 909 0 
L 909 331 
L 1722 331 
L 1722 4213 
L 781 3603 
L 781 4013 
L 1919 4750 
L 2350 4750 
L 2350 331 
L 3163 331 
L 3163 0 
L 909 0 
z
" transform="scale(0.015625)"/>
       </defs>
       <use xlink:href="#DejaVuSerif-2212"/>
       <use xlink:href="#DejaVuSerif-31" x="83.789062"/>
       <use xlink:href="#DejaVuSerif-30" x="147.412109"/>
      </g>
     </g>
    </g>
    <g id="ytick_5">
     <g id="line2d_35">
      <path d="M 47.465469 123.203458 
L 214.03975 123.203458 
" clip-path="url(#p952d26dc09)" style="fill: none; stroke: #b0b0b0; stroke-width: 0.1; stroke-linecap: round"/>
     </g>
     <g id="line2d_36"/>
     <g id="text_10">
      <!-- 0 -->
      <g style="fill: #262626" transform="translate(39.511719 125.862911) scale(0.07 -0.07)">
       <use xlink:href="#DejaVuSerif-30"/>
      </g>
     </g>
    </g>
    <g id="ytick_6">
     <g id="line2d_37">
      <path d="M 47.465469 100.615366 
L 214.03975 100.615366 
" clip-path="url(#p952d26dc09)" style="fill: none; stroke: #b0b0b0; stroke-width: 0.1; stroke-linecap: round"/>
     </g>
     <g id="line2d_38"/>
     <g id="text_11">
      <!-- 10 -->
      <g style="fill: #262626" transform="translate(35.057969 103.274819) scale(0.07 -0.07)">
       <use xlink:href="#DejaVuSerif-31"/>
       <use xlink:href="#DejaVuSerif-30" x="63.623047"/>
      </g>
     </g>
    </g>
    <g id="text_12">
     <!-- $\psi$ $[deg]$ -->
     <g style="fill: #262626" transform="translate(12.59 135.83803) rotate(-90) scale(0.07 -0.07)">
      <defs>
       <path id="DejaVuSans-Oblique-3c8" d="M 1591 -78 
Q 891 38 616 341 
Q 278 713 425 1472 
L 819 3500 
L 1400 3500 
L 1009 1494 
Q 900 922 1119 684 
Q 1313 478 1691 434 
L 2284 3500 
L 2856 3500 
L 2263 438 
Q 2681 481 2928 688 
Q 3247 950 3353 1497 
L 3741 3500 
L 4322 3500 
L 3928 1475 
Q 3775 688 3300 344 
Q 2872 34 2163 -75 
L 1919 -1331 
L 1347 -1331 
L 1591 -78 
z
" transform="scale(0.015625)"/>
      </defs>
      <use xlink:href="#DejaVuSans-Oblique-3c8" transform="translate(0 0.015625)"/>
      <use xlink:href="#DejaVuSerif-20" transform="translate(65.966797 0.015625)"/>
      <use xlink:href="#DejaVuSans-5b" transform="translate(97.753906 0.015625)"/>
      <use xlink:href="#DejaVuSans-Oblique-64" transform="translate(136.767578 0.015625)"/>
      <use xlink:href="#DejaVuSans-Oblique-65" transform="translate(200.244141 0.015625)"/>
      <use xlink:href="#DejaVuSans-Oblique-67" transform="translate(261.767578 0.015625)"/>
      <use xlink:href="#DejaVuSans-5d" transform="translate(325.244141 0.015625)"/>
     </g>
    </g>
   </g>
   <g id="line2d_39">
    <path d="M 55.037027 123.203458 
L 57.222298 123.309739 
L 58.476805 123.59701 
L 59.893184 124.16451 
L 61.552371 125.084413 
L 63.535302 126.452574 
L 65.922912 128.382097 
L 68.877075 131.068302 
L 72.559661 134.735785 
L 77.051606 139.529532 
L 82.676654 145.876988 
L 85.307073 148.748023 
L 86.682984 149.92712 
L 87.816087 150.627246 
L 88.868255 151.019517 
L 90.001358 151.195013 
L 91.215397 151.156284 
L 92.591308 150.886699 
L 94.16956 150.342359 
L 95.990618 149.469346 
L 98.135421 148.184561 
L 100.684904 146.38618 
L 103.76047 143.92857 
L 107.36212 140.7557 
L 111.489853 136.81604 
L 116.062734 132.139498 
L 121.444975 126.304679 
L 127.879383 118.991876 
L 134.718471 110.871394 
L 142.488323 101.290607 
L 145.725761 97.409746 
L 147.14214 96.078186 
L 148.315711 95.269825 
L 149.367878 94.810014 
L 150.500982 94.559398 
L 151.755489 94.517627 
L 153.1314 94.698285 
L 154.709651 95.136502 
L 156.53071 95.882951 
L 158.635045 96.997609 
L 161.103591 98.565538 
L 164.057754 100.72283 
L 167.416596 103.461689 
L 171.301521 106.925416 
L 175.510191 110.969531 
L 180.285412 115.876815 
L 185.708121 121.771067 
L 192.182997 129.144735 
L 198.738809 136.937457 
L 205.942109 145.781636 
L 205.942109 145.781636 
" clip-path="url(#p952d26dc09)" style="fill: none; stroke: #0000ff; stroke-width: 0.6; stroke-linecap: round"/>
   </g>
   <g id="line2d_40">
    <path d="M 55.037027 123.203458 
L 57.222298 123.309575 
L 58.517273 123.608787 
L 59.933652 124.179916 
L 61.592839 125.097371 
L 63.616238 126.485114 
L 66.125252 128.492468 
L 69.281754 131.3166 
L 73.36902 135.288984 
L 78.670325 140.770911 
L 86.682984 149.102087 
L 87.937491 149.955514 
L 88.989659 150.416245 
L 90.041826 150.63252 
L 91.174929 150.639955 
L 92.469905 150.419338 
L 93.926752 149.940339 
L 95.626407 149.141971 
L 97.649805 147.935558 
L 100.118352 146.194014 
L 103.15345 143.769916 
L 106.95744 140.431111 
L 111.570789 136.069385 
L 116.993498 130.614745 
L 123.670714 123.576039 
L 131.359629 115.147025 
L 140.667264 104.623356 
L 146.9398 97.581895 
L 148.275243 96.478115 
L 149.408346 95.816697 
L 150.460514 95.462522 
L 151.593617 95.324382 
L 152.848124 95.405625 
L 154.264504 95.73206 
L 155.883223 96.343492 
L 157.785217 97.311209 
L 160.051424 98.729019 
L 162.762778 100.696008 
L 166.12162 103.418009 
L 170.208886 107.026279 
L 174.943639 111.506605 
L 180.487752 117.084287 
L 187.003096 123.962305 
L 194.975287 132.718064 
L 205.132749 144.213344 
L 206.468192 145.747582 
L 206.468192 145.747582 
" clip-path="url(#p952d26dc09)" style="fill: none; stroke: #008000; stroke-width: 0.6; stroke-linecap: round"/>
   </g>
   <g id="line2d_41">
    <path d="M 55.037027 123.203458 
L 57.18183 123.312463 
L 58.436337 123.606421 
L 59.812248 124.167261 
L 61.430967 125.078878 
L 63.37343 126.44409 
L 65.720573 128.380672 
L 68.634267 131.086702 
L 72.397789 134.904359 
L 77.294414 140.208052 
L 85.590349 149.266927 
L 86.804388 150.117514 
L 87.856555 150.589498 
L 88.868255 150.800797 
L 89.96089 150.803821 
L 91.174929 150.583687 
L 92.591308 150.089517 
L 94.210028 149.280861 
L 96.15249 148.048756 
L 98.459165 146.30835 
L 101.251455 143.910846 
L 104.691233 140.649813 
L 108.940371 136.302413 
L 114.403547 130.378581 
L 121.202167 122.666119 
L 130.631206 111.609213 
L 142.771598 97.369282 
L 144.066574 96.308862 
L 145.159209 95.691339 
L 146.170908 95.370764 
L 147.263544 95.263286 
L 148.437115 95.373628 
L 149.772558 95.725566 
L 151.310341 96.368949 
L 153.1314 97.383872 
L 155.276203 98.845003 
L 157.866153 100.890792 
L 160.982188 103.649025 
L 164.745709 107.290062 
L 169.359058 112.076197 
L 175.226915 118.498588 
L 182.673023 126.989414 
L 193.356568 139.546283 
L 198.576937 145.760165 
L 198.576937 145.760165 
" clip-path="url(#p952d26dc09)" style="fill: none; stroke: #ff0000; stroke-width: 0.6; stroke-linecap: round"/>
   </g>
   <g id="patch_6">
    <path d="M 47.465469 154.474353 
L 47.465469 91.651706 
" style="fill: none; stroke: #000000; stroke-linejoin: miter; stroke-linecap: square"/>
   </g>
   <g id="patch_7">
    <path d="M 47.465469 154.474353 
L 214.03975 154.474353 
" style="fill: none; stroke: #000000; stroke-linejoin: miter; stroke-linecap: square"/>
   </g>
  </g>
  <g id="axes_3">
   <g id="patch_8">
    <path d="M 47.465469 217.297 
L 214.03975 217.297 
L 214.03975 154.474353 
L 47.465469 154.474353 
z
" style="fill: #ffffff"/>
   </g>
   <g id="line2d_42">
    <path d="M 55.037027 186.893678 
L 55.479593 187.346932 
L 56.083092 188.320014 
L 56.887757 190.096901 
L 59.583386 196.46375 
L 63.405545 203.113857 
L 65.336742 205.473236 
L 66.18164 206.092431 
L 68.15307 207.343997 
L 69.963567 208.834944 
L 72.09593 210.263289 
L 72.940828 210.618552 
L 73.866193 210.7395 
L 74.590392 210.909883 
L 75.354824 211.408647 
L 76.642288 212.246114 
L 78.452785 212.987937 
L 79.659783 213.263742 
L 81.188647 213.411108 
L 82.194479 213.268999 
L 82.637044 212.900662 
L 83.119844 212.18305 
L 83.683109 210.928601 
L 84.447541 208.619514 
L 85.453373 204.797124 
L 86.821304 198.614939 
L 88.551334 190.967159 
L 89.879031 186.348303 
L 91.488362 181.887195 
L 92.655126 179.321484 
L 93.862124 177.173138 
L 95.471455 174.653488 
L 98.891282 170.039721 
L 100.701779 168.029436 
L 101.989243 166.998364 
L 105.046971 164.760225 
L 107.098867 163.746943 
L 108.104699 163.473022 
L 109.553096 163.126244 
L 110.96126 162.568791 
L 112.449891 162.304015 
L 114.984587 162.037498 
L 115.869718 162.038005 
L 116.432984 161.824724 
L 120.134444 159.932146 
L 121.059809 159.716087 
L 123.393338 159.338208 
L 124.358937 158.813819 
L 125.324535 158.597202 
L 128.422496 158.257437 
L 129.468561 158.525063 
L 130.152526 158.610331 
L 131.641157 158.336324 
L 134.618418 158.037533 
L 135.423083 158.120845 
L 137.072647 158.461734 
L 137.877312 158.180101 
L 139.44641 157.68588 
L 140.733874 157.54867 
L 141.578772 157.646254 
L 142.182271 157.941374 
L 142.78577 158.494612 
L 143.308803 159.330263 
L 144.234168 161.343866 
L 145.239999 164.021385 
L 146.044664 166.825099 
L 147.171196 171.715584 
L 149.424258 181.573548 
L 150.67149 185.7522 
L 152.03942 189.516677 
L 153.005019 191.530667 
L 154.493649 194.051554 
L 156.143213 196.275085 
L 157.95371 198.182583 
L 160.568872 201.844767 
L 161.936803 203.3705 
L 163.224267 204.406672 
L 164.431265 205.049336 
L 165.195697 205.591491 
L 167.931559 207.788974 
L 169.339723 208.544813 
L 170.063922 208.73518 
L 170.868587 208.688659 
L 171.793952 208.654516 
L 172.960716 209.005979 
L 174.690747 209.389253 
L 176.098911 209.765129 
L 177.426608 209.996631 
L 178.633606 210.202147 
L 181.449935 211.317489 
L 184.467429 211.810878 
L 185.754894 212.023636 
L 187.645857 212.593793 
L 189.456354 212.892628 
L 190.824285 212.793552 
L 192.755481 212.610616 
L 194.405045 213.198579 
L 195.410876 213.374903 
L 196.899507 213.446759 
L 197.784639 213.235639 
L 199.15257 212.880557 
L 199.715835 212.935762 
L 201.928665 213.422961 
L 203.135663 213.500896 
L 203.940328 213.399513 
L 204.664526 213.070017 
L 205.227792 212.604602 
L 205.670358 211.889096 
L 205.911758 211.364239 
L 205.911758 211.364239 
" clip-path="url(#p42af346296)" style="fill: none; stroke: #000000; stroke-width: 0.6; stroke-linecap: round"/>
   </g>
   <g id="matplotlib.axis_5">
    <g id="xtick_9">
     <g id="line2d_43">
      <path d="M 55.037027 217.297 
L 55.037027 154.474353 
" clip-path="url(#p42af346296)" style="fill: none; stroke: #b0b0b0; stroke-width: 0.1; stroke-linecap: round"/>
     </g>
     <g id="line2d_44"/>
     <g id="text_13">
      <!-- 0 -->
      <g style="fill: #262626" transform="translate(52.810152 226.115906) scale(0.07 -0.07)">
       <use xlink:href="#DejaVuSerif-30"/>
      </g>
     </g>
    </g>
    <g id="xtick_10">
     <g id="line2d_45">
      <path d="M 95.505003 217.297 
L 95.505003 154.474353 
" clip-path="url(#p42af346296)" style="fill: none; stroke: #b0b0b0; stroke-width: 0.1; stroke-linecap: round"/>
     </g>
     <g id="line2d_46"/>
     <g id="text_14">
      <!-- 10 -->
      <g style="fill: #262626" transform="translate(91.051253 226.115906) scale(0.07 -0.07)">
       <use xlink:href="#DejaVuSerif-31"/>
       <use xlink:href="#DejaVuSerif-30" x="63.623047"/>
      </g>
     </g>
    </g>
    <g id="xtick_11">
     <g id="line2d_47">
      <path d="M 135.972978 217.297 
L 135.972978 154.474353 
" clip-path="url(#p42af346296)" style="fill: none; stroke: #b0b0b0; stroke-width: 0.1; stroke-linecap: round"/>
     </g>
     <g id="line2d_48"/>
     <g id="text_15">
      <!-- 20 -->
      <g style="fill: #262626" transform="translate(131.519228 226.115906) scale(0.07 -0.07)">
       <defs>
        <path id="DejaVuSerif-32" d="M 819 3553 
L 469 3553 
L 469 4384 
Q 803 4563 1142 4656 
Q 1481 4750 1806 4750 
Q 2534 4750 2956 4397 
Q 3378 4044 3378 3438 
Q 3378 2753 2422 1800 
Q 2347 1728 2309 1691 
L 1131 513 
L 3078 513 
L 3078 1088 
L 3444 1088 
L 3444 0 
L 434 0 
L 434 341 
L 1850 1753 
Q 2319 2222 2519 2614 
Q 2719 3006 2719 3438 
Q 2719 3909 2473 4175 
Q 2228 4441 1797 4441 
Q 1350 4441 1106 4219 
Q 863 3997 819 3553 
z
" transform="scale(0.015625)"/>
       </defs>
       <use xlink:href="#DejaVuSerif-32"/>
       <use xlink:href="#DejaVuSerif-30" x="63.623047"/>
      </g>
     </g>
    </g>
    <g id="xtick_12">
     <g id="line2d_49">
      <path d="M 176.440954 217.297 
L 176.440954 154.474353 
" clip-path="url(#p42af346296)" style="fill: none; stroke: #b0b0b0; stroke-width: 0.1; stroke-linecap: round"/>
     </g>
     <g id="line2d_50"/>
     <g id="text_16">
      <!-- 30 -->
      <g style="fill: #262626" transform="translate(171.987204 226.115906) scale(0.07 -0.07)">
       <defs>
        <path id="DejaVuSerif-33" d="M 622 4469 
Q 988 4606 1323 4678 
Q 1659 4750 1953 4750 
Q 2638 4750 3022 4454 
Q 3406 4159 3406 3634 
Q 3406 3213 3140 2930 
Q 2875 2647 2388 2547 
Q 2963 2466 3280 2130 
Q 3597 1794 3597 1259 
Q 3597 606 3158 257 
Q 2719 -91 1894 -91 
Q 1528 -91 1179 -12 
Q 831 66 488 225 
L 488 1131 
L 838 1131 
Q 869 681 1141 450 
Q 1413 219 1906 219 
Q 2384 219 2661 495 
Q 2938 772 2938 1253 
Q 2938 1803 2653 2086 
Q 2369 2369 1819 2369 
L 1522 2369 
L 1522 2688 
L 1678 2688 
Q 2225 2688 2498 2914 
Q 2772 3141 2772 3597 
Q 2772 4006 2547 4223 
Q 2322 4441 1900 4441 
Q 1478 4441 1245 4241 
Q 1013 4041 972 3647 
L 622 3647 
L 622 4469 
z
" transform="scale(0.015625)"/>
       </defs>
       <use xlink:href="#DejaVuSerif-33"/>
       <use xlink:href="#DejaVuSerif-30" x="63.623047"/>
      </g>
     </g>
    </g>
    <g id="text_17">
     <!-- Time [s] -->
     <g style="fill: #262626" transform="translate(116.268625 236.890594) scale(0.07 -0.07)">
      <defs>
       <path id="DejaVuSerif-54" d="M 1222 0 
L 1222 331 
L 1819 331 
L 1819 4294 
L 447 4294 
L 447 3566 
L 63 3566 
L 63 4666 
L 4206 4666 
L 4206 3566 
L 3822 3566 
L 3822 4294 
L 2450 4294 
L 2450 331 
L 3047 331 
L 3047 0 
L 1222 0 
z
" transform="scale(0.015625)"/>
       <path id="DejaVuSerif-69" d="M 622 4353 
Q 622 4497 726 4603 
Q 831 4709 978 4709 
Q 1122 4709 1226 4603 
Q 1331 4497 1331 4353 
Q 1331 4206 1228 4103 
Q 1125 4000 978 4000 
Q 831 4000 726 4103 
Q 622 4206 622 4353 
z
M 1356 331 
L 1900 331 
L 1900 0 
L 231 0 
L 231 331 
L 781 331 
L 781 2988 
L 231 2988 
L 231 3322 
L 1356 3322 
L 1356 331 
z
" transform="scale(0.015625)"/>
       <path id="DejaVuSerif-6d" d="M 3316 2675 
Q 3481 3041 3739 3227 
Q 3997 3413 4341 3413 
Q 4863 3413 5119 3089 
Q 5375 2766 5375 2113 
L 5375 331 
L 5894 331 
L 5894 0 
L 4300 0 
L 4300 331 
L 4800 331 
L 4800 2047 
Q 4800 2556 4650 2772 
Q 4500 2988 4153 2988 
Q 3769 2988 3567 2697 
Q 3366 2406 3366 1850 
L 3366 331 
L 3866 331 
L 3866 0 
L 2291 0 
L 2291 331 
L 2791 331 
L 2791 2069 
Q 2791 2566 2641 2777 
Q 2491 2988 2144 2988 
Q 1759 2988 1557 2697 
Q 1356 2406 1356 1850 
L 1356 331 
L 1856 331 
L 1856 0 
L 263 0 
L 263 331 
L 781 331 
L 781 2994 
L 231 2994 
L 231 3322 
L 1356 3322 
L 1356 2731 
Q 1516 3063 1762 3238 
Q 2009 3413 2322 3413 
Q 2709 3413 2968 3220 
Q 3228 3028 3316 2675 
z
" transform="scale(0.015625)"/>
       <path id="DejaVuSerif-5b" d="M 550 4863 
L 2003 4863 
L 2003 4531 
L 1147 4531 
L 1147 -513 
L 2003 -513 
L 2003 -844 
L 550 -844 
L 550 4863 
z
" transform="scale(0.015625)"/>
       <path id="DejaVuSerif-5d" d="M 1947 4863 
L 1947 -844 
L 494 -844 
L 494 -513 
L 1350 -513 
L 1350 4531 
L 494 4531 
L 494 4863 
L 1947 4863 
z
" transform="scale(0.015625)"/>
      </defs>
      <use xlink:href="#DejaVuSerif-54"/>
      <use xlink:href="#DejaVuSerif-69" x="66.699219"/>
      <use xlink:href="#DejaVuSerif-6d" x="98.681641"/>
      <use xlink:href="#DejaVuSerif-65" x="193.505859"/>
      <use xlink:href="#DejaVuSerif-20" x="252.685547"/>
      <use xlink:href="#DejaVuSerif-5b" x="284.472656"/>
      <use xlink:href="#DejaVuSerif-73" x="323.486328"/>
      <use xlink:href="#DejaVuSerif-5d" x="374.804688"/>
     </g>
    </g>
   </g>
   <g id="matplotlib.axis_6">
    <g id="ytick_7">
     <g id="line2d_51">
      <path d="M 47.465469 204.231108 
L 214.03975 204.231108 
" clip-path="url(#p42af346296)" style="fill: none; stroke: #b0b0b0; stroke-width: 0.1; stroke-linecap: round"/>
     </g>
     <g id="line2d_52"/>
     <g id="text_18">
      <!-- −0.025 -->
      <g style="fill: #262626" transform="translate(18.06 206.890562) scale(0.07 -0.07)">
       <defs>
        <path id="DejaVuSerif-2e" d="M 603 325 
Q 603 500 722 622 
Q 841 744 1019 744 
Q 1191 744 1312 622 
Q 1434 500 1434 325 
Q 1434 153 1312 31 
Q 1191 -91 1019 -91 
Q 841 -91 722 29 
Q 603 150 603 325 
z
" transform="scale(0.015625)"/>
       </defs>
       <use xlink:href="#DejaVuSerif-2212"/>
       <use xlink:href="#DejaVuSerif-30" x="83.789062"/>
       <use xlink:href="#DejaVuSerif-2e" x="147.412109"/>
       <use xlink:href="#DejaVuSerif-30" x="179.199219"/>
       <use xlink:href="#DejaVuSerif-32" x="242.822266"/>
       <use xlink:href="#DejaVuSerif-35" x="306.445312"/>
      </g>
     </g>
    </g>
    <g id="ytick_8">
     <g id="line2d_53">
      <path d="M 47.465469 185.981791 
L 214.03975 185.981791 
" clip-path="url(#p42af346296)" style="fill: none; stroke: #b0b0b0; stroke-width: 0.1; stroke-linecap: round"/>
     </g>
     <g id="line2d_54"/>
     <g id="text_19">
      <!-- 0.000 -->
      <g style="fill: #262626" transform="translate(23.925781 188.641244) scale(0.07 -0.07)">
       <use xlink:href="#DejaVuSerif-30"/>
       <use xlink:href="#DejaVuSerif-2e" x="63.623047"/>
       <use xlink:href="#DejaVuSerif-30" x="95.410156"/>
       <use xlink:href="#DejaVuSerif-30" x="159.033203"/>
       <use xlink:href="#DejaVuSerif-30" x="222.65625"/>
      </g>
     </g>
    </g>
    <g id="ytick_9">
     <g id="line2d_55">
      <path d="M 47.465469 167.732473 
L 214.03975 167.732473 
" clip-path="url(#p42af346296)" style="fill: none; stroke: #b0b0b0; stroke-width: 0.1; stroke-linecap: round"/>
     </g>
     <g id="line2d_56"/>
     <g id="text_20">
      <!-- 0.025 -->
      <g style="fill: #262626" transform="translate(23.925781 170.391926) scale(0.07 -0.07)">
       <use xlink:href="#DejaVuSerif-30"/>
       <use xlink:href="#DejaVuSerif-2e" x="63.623047"/>
       <use xlink:href="#DejaVuSerif-30" x="95.410156"/>
       <use xlink:href="#DejaVuSerif-32" x="159.033203"/>
       <use xlink:href="#DejaVuSerif-35" x="222.65625"/>
      </g>
     </g>
    </g>
    <g id="text_21">
     <!-- $r$ $[rad/s]$ -->
     <g style="fill: #262626" transform="translate(12.604219 199.990677) rotate(-90) scale(0.07 -0.07)">
      <defs>
       <path id="DejaVuSans-Oblique-72" d="M 2853 2969 
Q 2766 3016 2653 3041 
Q 2541 3066 2413 3066 
Q 1953 3066 1609 2717 
Q 1266 2369 1153 1784 
L 800 0 
L 225 0 
L 909 3500 
L 1484 3500 
L 1375 2956 
Q 1603 3259 1920 3421 
Q 2238 3584 2597 3584 
Q 2691 3584 2781 3573 
Q 2872 3563 2963 3538 
L 2853 2969 
z
" transform="scale(0.015625)"/>
       <path id="DejaVuSans-Oblique-61" d="M 3438 1997 
L 3047 0 
L 2472 0 
L 2578 531 
Q 2325 219 2001 64 
Q 1678 -91 1281 -91 
Q 834 -91 548 182 
Q 263 456 263 884 
Q 263 1497 752 1853 
Q 1241 2209 2100 2209 
L 2900 2209 
L 2931 2363 
Q 2938 2388 2941 2417 
Q 2944 2447 2944 2509 
Q 2944 2788 2717 2942 
Q 2491 3097 2081 3097 
Q 1800 3097 1504 3025 
Q 1209 2953 897 2809 
L 997 3341 
Q 1322 3463 1633 3523 
Q 1944 3584 2234 3584 
Q 2853 3584 3176 3315 
Q 3500 3047 3500 2534 
Q 3500 2431 3484 2292 
Q 3469 2153 3438 1997 
z
M 2816 1759 
L 2241 1759 
Q 1534 1759 1195 1570 
Q 856 1381 856 984 
Q 856 709 1029 553 
Q 1203 397 1509 397 
Q 1978 397 2328 733 
Q 2678 1069 2791 1631 
L 2816 1759 
z
" transform="scale(0.015625)"/>
       <path id="DejaVuSans-2f" d="M 1625 4666 
L 2156 4666 
L 531 -594 
L 0 -594 
L 1625 4666 
z
" transform="scale(0.015625)"/>
       <path id="DejaVuSans-Oblique-73" d="M 3200 3397 
L 3091 2853 
Q 2863 2978 2609 3040 
Q 2356 3103 2088 3103 
Q 1634 3103 1373 2948 
Q 1113 2794 1113 2528 
Q 1113 2219 1719 2053 
Q 1766 2041 1788 2034 
L 1972 1978 
Q 2547 1819 2739 1644 
Q 2931 1469 2931 1166 
Q 2931 609 2489 259 
Q 2047 -91 1331 -91 
Q 1053 -91 747 -37 
Q 441 16 72 128 
L 184 722 
Q 500 559 806 475 
Q 1113 391 1394 391 
Q 1816 391 2080 572 
Q 2344 753 2344 1031 
Q 2344 1331 1650 1516 
L 1591 1531 
L 1394 1581 
Q 956 1697 753 1886 
Q 550 2075 550 2369 
Q 550 2928 970 3256 
Q 1391 3584 2113 3584 
Q 2397 3584 2667 3537 
Q 2938 3491 3200 3397 
z
" transform="scale(0.015625)"/>
      </defs>
      <use xlink:href="#DejaVuSans-Oblique-72" transform="translate(0 0.015625)"/>
      <use xlink:href="#DejaVuSerif-20" transform="translate(41.113281 0.015625)"/>
      <use xlink:href="#DejaVuSans-5b" transform="translate(72.900391 0.015625)"/>
      <use xlink:href="#DejaVuSans-Oblique-72" transform="translate(111.914062 0.015625)"/>
      <use xlink:href="#DejaVuSans-Oblique-61" transform="translate(153.027344 0.015625)"/>
      <use xlink:href="#DejaVuSans-Oblique-64" transform="translate(214.306641 0.015625)"/>
      <use xlink:href="#DejaVuSans-2f" transform="translate(277.783203 0.015625)"/>
      <use xlink:href="#DejaVuSans-Oblique-73" transform="translate(311.474609 0.015625)"/>
      <use xlink:href="#DejaVuSans-5d" transform="translate(363.574219 0.015625)"/>
     </g>
    </g>
   </g>
   <g id="line2d_57">
    <path d="M 55.037027 185.981791 
L 55.441707 186.103311 
L 55.886855 186.505496 
L 56.453406 187.390869 
L 57.100894 188.897339 
L 57.991189 191.682952 
L 59.124293 195.006344 
L 60.297864 197.800679 
L 61.552371 200.206077 
L 62.928282 202.311801 
L 64.304193 204.020077 
L 65.882445 205.564899 
L 67.541632 206.869004 
L 69.200819 207.943636 
L 71.224217 208.987943 
L 73.652296 209.949209 
L 76.56599 210.933156 
L 79.682024 211.705547 
L 82.95993 212.306053 
L 83.405078 212.030838 
L 83.890694 211.417096 
L 84.538181 210.140568 
L 85.226137 208.279275 
L 86.075964 205.30341 
L 87.087664 200.907523 
L 90.203698 186.578247 
L 91.377269 182.891513 
L 92.591308 179.798306 
L 93.886284 177.08018 
L 95.262195 174.720876 
L 96.55717 172.900429 
L 98.216357 170.997788 
L 100.239756 169.141376 
L 102.020347 167.847261 
L 104.650765 166.313753 
L 108.292883 164.634886 
L 115.253375 162.144468 
L 118.167069 161.358418 
L 126.3416 159.718834 
L 134.920811 158.317785 
L 139.615096 157.706669 
L 143.54049 157.482576 
L 143.985638 157.907489 
L 144.552189 158.825397 
L 145.199677 160.343045 
L 146.009036 162.868358 
L 146.9398 166.531958 
L 148.032435 171.766257 
L 149.853494 180.649153 
L 150.986597 184.79981 
L 152.160169 188.276191 
L 153.374208 191.207373 
L 154.669183 193.771794 
L 156.085562 196.074614 
L 157.623346 198.156491 
L 159.161129 199.815941 
L 161.144059 201.621319 
L 163.046054 202.978423 
L 165.716941 204.607684 
L 169.804206 206.533606 
L 177.250314 209.269481 
L 185.546249 211.363315 
L 199.103021 213.639385 
L 205.942109 214.441425 
L 205.942109 214.441425 
" clip-path="url(#p42af346296)" style="fill: none; stroke: #0000ff; stroke-width: 0.6; stroke-linecap: round"/>
   </g>
   <g id="line2d_58">
    <path d="M 55.037027 185.981791 
L 55.441707 186.103267 
L 55.886855 186.505077 
L 56.453406 187.388961 
L 57.100894 188.891643 
L 57.991189 191.664482 
L 59.083825 194.854329 
L 60.257396 197.620735 
L 61.511903 200.000078 
L 62.685474 201.78982 
L 64.020918 203.418079 
L 65.477765 204.837977 
L 66.934612 205.935071 
L 68.917543 207.131186 
L 70.860006 207.99476 
L 74.016508 209.086263 
L 75.918502 209.570928 
L 79.722492 210.323311 
L 83.76929 210.782646 
L 84.17397 210.448675 
L 84.700053 209.711366 
L 85.347541 208.368081 
L 86.075964 206.286294 
L 86.96626 203.021895 
L 88.018427 198.264128 
L 90.56791 186.243154 
L 91.701013 182.41937 
L 92.874584 179.214473 
L 94.048156 176.611497 
L 95.424067 174.118307 
L 96.719042 172.222736 
L 97.973549 170.755264 
L 99.430396 169.356349 
L 101.049115 168.11364 
L 102.910642 166.960656 
L 104.691233 166.091514 
L 107.969139 164.804623 
L 114.039336 163.059213 
L 121.040295 161.794131 
L 135.001747 160.24261 
L 144.390317 159.568541 
L 144.794997 159.831715 
L 145.321081 160.478933 
L 145.887633 161.570901 
L 146.575588 163.406741 
L 147.425416 166.337274 
L 148.437115 170.658632 
L 149.73209 177.311206 
L 150.784258 182.246883 
L 151.917361 186.507071 
L 153.090932 190.058127 
L 154.304972 193.04478 
L 155.599947 195.620795 
L 156.894922 197.714702 
L 158.230365 199.51542 
L 159.72768 201.120089 
L 161.508271 202.655804 
L 163.53167 203.998367 
L 165.716941 205.13246 
L 168.225955 206.173162 
L 171.058713 207.107552 
L 176.279082 208.650664 
L 181.094771 209.629528 
L 189.633514 210.906226 
L 195.339499 211.462178 
L 206.468192 212.248987 
L 206.468192 212.248987 
" clip-path="url(#p42af346296)" style="fill: none; stroke: #008000; stroke-width: 0.6; stroke-linecap: round"/>
   </g>
   <g id="line2d_59">
    <path d="M 55.037027 185.981791 
L 55.401239 186.091331 
L 55.846387 186.501865 
L 56.332002 187.277463 
L 56.97949 188.772349 
L 57.788849 191.262047 
L 58.962421 194.880621 
L 60.17646 197.913993 
L 61.430967 200.444838 
L 62.725942 202.546341 
L 64.061386 204.306133 
L 65.477765 205.795026 
L 67.096484 207.159536 
L 68.755671 208.2563 
L 70.536262 209.17943 
L 72.883404 210.124956 
L 75.271015 210.848319 
L 78.467985 211.564017 
L 82.069635 212.112368 
L 82.595718 212.072632 
L 83.000398 211.775085 
L 83.486014 211.106721 
L 84.052566 209.904992 
L 84.740521 207.910267 
L 85.590349 204.723881 
L 86.682984 199.649275 
L 89.718082 184.813609 
L 90.891654 180.776843 
L 92.065225 177.517326 
L 93.279264 174.786465 
L 94.574239 172.42076 
L 95.909683 170.434001 
L 97.326062 168.706096 
L 98.904313 167.143704 
L 100.5635 165.811164 
L 102.384559 164.638164 
L 104.407957 163.59985 
L 106.836036 162.592057 
L 109.34505 161.788972 
L 112.380149 161.056181 
L 117.317242 160.135473 
L 121.525911 159.590896 
L 126.54394 159.150811 
L 134.597067 158.742557 
L 140.060244 158.682741 
L 140.464924 158.945251 
L 140.95054 159.561724 
L 141.476623 160.585258 
L 142.205047 162.588327 
L 143.014406 165.514558 
L 144.026106 170.059855 
L 145.402017 177.379229 
L 146.53512 182.986547 
L 147.668223 187.513888 
L 148.841795 191.300725 
L 150.055834 194.463116 
L 151.350809 197.204199 
L 152.645785 199.419889 
L 154.021696 201.339329 
L 155.478543 202.992828 
L 157.097262 204.494998 
L 158.918321 205.881801 
L 160.94172 207.120306 
L 163.12699 208.208717 
L 165.676473 209.233451 
L 168.306891 210.054422 
L 171.544329 210.839188 
L 175.307851 211.512136 
L 180.406816 212.204934 
L 185.343909 212.666327 
L 192.344869 213.036103 
L 198.576937 213.210298 
L 198.576937 213.210298 
" clip-path="url(#p42af346296)" style="fill: none; stroke: #ff0000; stroke-width: 0.6; stroke-linecap: round"/>
   </g>
   <g id="patch_9">
    <path d="M 47.465469 217.297 
L 47.465469 154.474353 
" style="fill: none; stroke: #000000; stroke-linejoin: miter; stroke-linecap: square"/>
   </g>
   <g id="patch_10">
    <path d="M 47.465469 217.297 
L 214.03975 217.297 
" style="fill: none; stroke: #000000; stroke-linejoin: miter; stroke-linecap: square"/>
   </g>
  </g>
 </g>
 <defs>
  <clipPath id="p71669164b7">
   <rect x="47.465469" y="28.829059" width="166.574282" height="62.822647"/>
  </clipPath>
  <clipPath id="p952d26dc09">
   <rect x="47.465469" y="91.651706" width="166.574282" height="62.822647"/>
  </clipPath>
  <clipPath id="p42af346296">
   <rect x="47.465469" y="154.474353" width="166.574282" height="62.822647"/>
  </clipPath>
 </defs>
</svg>
