<?xml version="1.0" encoding="utf-8" standalone="no"?>
<!DOCTYPE svg PUBLIC "-//W3C//DTD SVG 1.1//EN"
  "http://www.w3.org/Graphics/SVG/1.1/DTD/svg11.dtd">
<svg xmlns:xlink="http://www.w3.org/1999/xlink" width="396pt" height="273.6pt" viewBox="0 0 396 273.6" xmlns="http://www.w3.org/2000/svg" version="1.1">
 <metadata>
  <rdf:RDF xmlns:dc="http://purl.org/dc/elements/1.1/" xmlns:cc="http://creativecommons.org/ns#" xmlns:rdf="http://www.w3.org/1999/02/22-rdf-syntax-ns#">
   <cc:Work>
    <dc:type rdf:resource="http://purl.org/dc/dcmitype/StillImage"/>
    <dc:date>2024-02-12T15:02:51.521225</dc:date>
    <dc:format>image/svg+xml</dc:format>
    <dc:creator>
     <cc:Agent>
      <dc:title>Matplotlib v3.8.2, https://matplotlib.org/</dc:title>
     </cc:Agent>
    </dc:creator>
   </cc:Work>
  </rdf:RDF>
 </metadata>
 <defs>
  <style type="text/css">*{stroke-linejoin: round; stroke-linecap: butt}</style>
 </defs>
 <g id="figure_1">
  <g id="patch_1">
   <path d="M 0 273.6 
L 396 273.6 
L 396 0 
L 0 0 
z
" style="fill: #ffffff"/>
  </g>
  <g id="axes_1">
   <g id="patch_2">
    <path d="M 38.204771 65.517456 
L 392.99976 65.517456 
L 392.99976 14.013848 
L 38.204771 14.013848 
z
" style="fill: #ffffff"/>
   </g>
   <g id="matplotlib.axis_1">
    <g id="xtick_1">
     <g id="line2d_1">
      <path d="M 54.331816 65.517456 
L 54.331816 14.013848 
" clip-path="url(#p16960f2f37)" style="fill: none; stroke: #b0b0b0; stroke-width: 0.8; stroke-linecap: round"/>
     </g>
     <g id="line2d_2"/>
    </g>
    <g id="xtick_2">
     <g id="line2d_3">
      <path d="M 101.303681 65.517456 
L 101.303681 14.013848 
" clip-path="url(#p16960f2f37)" style="fill: none; stroke: #b0b0b0; stroke-width: 0.8; stroke-linecap: round"/>
     </g>
     <g id="line2d_4"/>
    </g>
    <g id="xtick_3">
     <g id="line2d_5">
      <path d="M 148.275545 65.517456 
L 148.275545 14.013848 
" clip-path="url(#p16960f2f37)" style="fill: none; stroke: #b0b0b0; stroke-width: 0.8; stroke-linecap: round"/>
     </g>
     <g id="line2d_6"/>
    </g>
    <g id="xtick_4">
     <g id="line2d_7">
      <path d="M 195.24741 65.517456 
L 195.24741 14.013848 
" clip-path="url(#p16960f2f37)" style="fill: none; stroke: #b0b0b0; stroke-width: 0.8; stroke-linecap: round"/>
     </g>
     <g id="line2d_8"/>
    </g>
    <g id="xtick_5">
     <g id="line2d_9">
      <path d="M 242.219274 65.517456 
L 242.219274 14.013848 
" clip-path="url(#p16960f2f37)" style="fill: none; stroke: #b0b0b0; stroke-width: 0.8; stroke-linecap: round"/>
     </g>
     <g id="line2d_10"/>
    </g>
    <g id="xtick_6">
     <g id="line2d_11">
      <path d="M 289.191139 65.517456 
L 289.191139 14.013848 
" clip-path="url(#p16960f2f37)" style="fill: none; stroke: #b0b0b0; stroke-width: 0.8; stroke-linecap: round"/>
     </g>
     <g id="line2d_12"/>
    </g>
    <g id="xtick_7">
     <g id="line2d_13">
      <path d="M 336.163003 65.517456 
L 336.163003 14.013848 
" clip-path="url(#p16960f2f37)" style="fill: none; stroke: #b0b0b0; stroke-width: 0.8; stroke-linecap: round"/>
     </g>
     <g id="line2d_14"/>
    </g>
    <g id="xtick_8">
     <g id="line2d_15">
      <path d="M 383.134868 65.517456 
L 383.134868 14.013848 
" clip-path="url(#p16960f2f37)" style="fill: none; stroke: #b0b0b0; stroke-width: 0.8; stroke-linecap: round"/>
     </g>
     <g id="line2d_16"/>
    </g>
   </g>
   <g id="matplotlib.axis_2">
    <g id="ytick_1">
     <g id="line2d_17">
      <path d="M 38.204771 62.787294 
L 392.99976 62.787294 
" clip-path="url(#p16960f2f37)" style="fill: none; stroke: #b0b0b0; stroke-width: 0.8; stroke-linecap: round"/>
     </g>
     <g id="line2d_18"/>
     <g id="text_1">
      <!-- −50 -->
      <g style="fill: #262626" transform="translate(15.710552 66.206591) scale(0.09 -0.09)">
       <defs>
        <path id="DejaVuSerif-2212" d="M 678 2259 
L 4684 2259 
L 4684 1753 
L 678 1753 
L 678 2259 
z
" transform="scale(0.015625)"/>
        <path id="DejaVuSerif-35" d="M 3219 4666 
L 3219 4153 
L 1081 4153 
L 1081 2816 
Q 1244 2928 1461 2984 
Q 1678 3041 1947 3041 
Q 2703 3041 3140 2622 
Q 3578 2203 3578 1478 
Q 3578 738 3136 323 
Q 2694 -91 1894 -91 
Q 1572 -91 1234 -12 
Q 897 66 544 225 
L 544 1131 
L 897 1131 
Q 925 688 1179 453 
Q 1434 219 1894 219 
Q 2388 219 2653 544 
Q 2919 869 2919 1478 
Q 2919 2084 2655 2407 
Q 2391 2731 1894 2731 
Q 1613 2731 1398 2631 
Q 1184 2531 1019 2322 
L 750 2322 
L 750 4666 
L 3219 4666 
z
" transform="scale(0.015625)"/>
        <path id="DejaVuSerif-30" d="M 2034 219 
Q 2513 219 2750 744 
Q 2988 1269 2988 2328 
Q 2988 3391 2750 3916 
Q 2513 4441 2034 4441 
Q 1556 4441 1318 3916 
Q 1081 3391 1081 2328 
Q 1081 1269 1318 744 
Q 1556 219 2034 219 
z
M 2034 -91 
Q 1275 -91 848 546 
Q 422 1184 422 2328 
Q 422 3475 848 4112 
Q 1275 4750 2034 4750 
Q 2797 4750 3222 4112 
Q 3647 3475 3647 2328 
Q 3647 1184 3222 546 
Q 2797 -91 2034 -91 
z
" transform="scale(0.015625)"/>
       </defs>
       <use xlink:href="#DejaVuSerif-2212"/>
       <use xlink:href="#DejaVuSerif-35" x="83.789062"/>
       <use xlink:href="#DejaVuSerif-30" x="147.412109"/>
      </g>
     </g>
    </g>
    <g id="ytick_2">
     <g id="line2d_19">
      <path d="M 38.204771 41.805306 
L 392.99976 41.805306 
" clip-path="url(#p16960f2f37)" style="fill: none; stroke: #b0b0b0; stroke-width: 0.8; stroke-linecap: round"/>
     </g>
     <g id="line2d_20"/>
     <g id="text_2">
      <!-- 0 -->
      <g style="fill: #262626" transform="translate(28.978521 45.224603) scale(0.09 -0.09)">
       <use xlink:href="#DejaVuSerif-30"/>
      </g>
     </g>
    </g>
    <g id="ytick_3">
     <g id="line2d_21">
      <path d="M 38.204771 20.823318 
L 392.99976 20.823318 
" clip-path="url(#p16960f2f37)" style="fill: none; stroke: #b0b0b0; stroke-width: 0.8; stroke-linecap: round"/>
     </g>
     <g id="line2d_22"/>
     <g id="text_3">
      <!-- 50 -->
      <g style="fill: #262626" transform="translate(23.252271 24.242615) scale(0.09 -0.09)">
       <use xlink:href="#DejaVuSerif-35"/>
       <use xlink:href="#DejaVuSerif-30" x="63.623047"/>
      </g>
     </g>
    </g>
    <g id="text_4">
     <!-- $N_H(v)$ -->
     <g style="fill: #262626" transform="translate(9.838834 51.825652) rotate(-90) scale(0.09 -0.09)">
      <defs>
       <path id="DejaVuSans-Oblique-4e" d="M 1081 4666 
L 1931 4666 
L 3219 666 
L 4000 4666 
L 4616 4666 
L 3706 0 
L 2853 0 
L 1569 4025 
L 788 0 
L 172 0 
L 1081 4666 
z
" transform="scale(0.015625)"/>
       <path id="DejaVuSans-Oblique-48" d="M 1081 4666 
L 1716 4666 
L 1344 2753 
L 3634 2753 
L 4006 4666 
L 4641 4666 
L 3731 0 
L 3097 0 
L 3531 2222 
L 1241 2222 
L 806 0 
L 172 0 
L 1081 4666 
z
" transform="scale(0.015625)"/>
       <path id="DejaVuSans-28" d="M 1984 4856 
Q 1566 4138 1362 3434 
Q 1159 2731 1159 2009 
Q 1159 1288 1364 580 
Q 1569 -128 1984 -844 
L 1484 -844 
Q 1016 -109 783 600 
Q 550 1309 550 2009 
Q 550 2706 781 3412 
Q 1013 4119 1484 4856 
L 1984 4856 
z
" transform="scale(0.015625)"/>
       <path id="DejaVuSans-Oblique-76" d="M 459 3500 
L 1069 3500 
L 1581 525 
L 3256 3500 
L 3866 3500 
L 1875 0 
L 1100 0 
L 459 3500 
z
" transform="scale(0.015625)"/>
       <path id="DejaVuSans-29" d="M 513 4856 
L 1013 4856 
Q 1481 4119 1714 3412 
Q 1947 2706 1947 2009 
Q 1947 1309 1714 600 
Q 1481 -109 1013 -844 
L 513 -844 
Q 928 -128 1133 580 
Q 1338 1288 1338 2009 
Q 1338 2731 1133 3434 
Q 928 4138 513 4856 
z
" transform="scale(0.015625)"/>
      </defs>
      <use xlink:href="#DejaVuSans-Oblique-4e" transform="translate(0 0.125)"/>
      <use xlink:href="#DejaVuSans-Oblique-48" transform="translate(74.804688 -16.28125) scale(0.7)"/>
      <use xlink:href="#DejaVuSans-28" transform="translate(130.175781 0.125)"/>
      <use xlink:href="#DejaVuSans-Oblique-76" transform="translate(169.189453 0.125)"/>
      <use xlink:href="#DejaVuSans-29" transform="translate(228.369141 0.125)"/>
     </g>
    </g>
   </g>
   <g id="line2d_23">
    <path d="M 54.331816 41.79442 
L 56.058131 41.862831 
L 57.271217 42.150861 
L 58.950874 42.809394 
L 61.890275 44.156771 
L 63.896533 45.117653 
L 68.188991 46.957793 
L 69.542048 47.943176 
L 70.895106 48.889002 
L 72.108191 49.399489 
L 73.694535 49.833356 
L 74.814306 49.844126 
L 75.607478 50.10428 
L 76.493964 50.591225 
L 78.780164 51.810845 
L 80.413165 52.39971 
L 81.066365 52.241486 
L 81.626251 52.1817 
L 82.186137 52.339341 
L 83.072622 52.804734 
L 84.332366 53.32123 
L 85.40548 53.519914 
L 87.784995 53.746755 
L 88.624824 53.56017 
L 89.417995 53.651134 
L 91.424253 53.998196 
L 92.310739 53.908798 
L 93.43051 53.551862 
L 94.596939 52.960412 
L 95.763368 52.02068 
L 96.55654 51.763433 
L 97.489683 51.409418 
L 98.889397 50.651038 
L 100.848998 49.073079 
L 103.135198 47.22691 
L 105.701342 45.727526 
L 109.247285 43.286085 
L 110.647 42.358642 
L 112.699915 41.178809 
L 115.592658 39.813312 
L 117.552259 38.985601 
L 118.765345 38.244166 
L 120.025088 37.579469 
L 122.264631 36.725168 
L 124.784117 36.145773 
L 128.003461 34.934952 
L 129.776433 34.615295 
L 130.80289 34.452884 
L 131.689376 34.08753 
L 133.042433 33.510242 
L 134.955377 33.067778 
L 136.308434 32.914338 
L 137.241577 33.022355 
L 137.801463 32.895603 
L 141.860635 31.731261 
L 143.493636 31.669085 
L 144.333464 31.797912 
L 145.079979 31.674658 
L 146.899608 30.994073 
L 147.972722 30.764056 
L 149.419094 30.630996 
L 150.398894 30.700353 
L 151.378694 30.995982 
L 152.125209 30.904596 
L 155.017952 30.120403 
L 157.02421 29.965955 
L 157.864039 30.276945 
L 158.470582 30.341535 
L 159.170439 30.213016 
L 161.549954 29.694775 
L 162.296468 29.663524 
L 164.209412 29.786453 
L 165.469155 30.198934 
L 166.215669 30.088177 
L 168.688498 29.406906 
L 169.621641 29.364425 
L 170.694756 29.489706 
L 171.068013 29.632853 
L 172.514385 30.491818 
L 173.214242 30.570151 
L 174.753928 30.709213 
L 176.480243 31.035117 
L 178.113243 31.747769 
L 179.699586 32.913615 
L 180.819358 33.366124 
L 181.752501 33.892618 
L 185.251788 36.34764 
L 186.324902 36.968017 
L 188.704417 38.079619 
L 191.457189 39.762466 
L 195.236418 41.692504 
L 200.322048 43.7633 
L 205.547649 45.783935 
L 206.387478 45.909106 
L 207.367278 46.103556 
L 208.906964 46.650859 
L 210.073393 47.016115 
L 213.339394 47.779558 
L 214.039251 47.851382 
L 215.345651 48.269545 
L 217.025309 48.765957 
L 219.871395 49.27951 
L 221.084481 49.246772 
L 221.970967 49.514492 
L 224.583768 50.353228 
L 225.983482 50.51919 
L 226.963282 50.524854 
L 228.083054 50.38327 
L 228.96954 50.617168 
L 231.115769 51.275709 
L 233.775227 51.528697 
L 235.081627 51.241571 
L 235.68817 51.357229 
L 238.720885 52.106147 
L 240.633828 52.172972 
L 242.220171 51.820758 
L 242.966686 52.031742 
L 243.993143 52.328744 
L 247.072515 52.613392 
L 247.959001 52.405085 
L 248.752173 52.203051 
L 249.685316 52.282851 
L 251.598259 52.836924 
L 252.344774 52.954249 
L 254.584317 52.897858 
L 256.450603 52.364042 
L 257.990289 52.397473 
L 260.089861 51.946514 
L 261.349604 51.53301 
L 261.956147 51.140593 
L 263.122576 50.541156 
L 265.735377 49.567864 
L 270.121149 46.588354 
L 273.807064 45.022085 
L 277.492979 42.944123 
L 282.39198 40.9227 
L 285.378038 39.773019 
L 288.224124 38.589153 
L 289.483867 38.223195 
L 291.303496 37.957869 
L 296.295812 36.442576 
L 297.835498 36.272702 
L 299.141898 35.818907 
L 300.91487 35.225892 
L 302.407899 34.922736 
L 303.714299 34.843779 
L 304.740756 34.857008 
L 305.627242 34.668099 
L 308.333357 33.74565 
L 310.666215 33.515351 
L 311.506044 33.635877 
L 312.579158 33.555938 
L 314.585416 32.746666 
L 317.244873 32.539728 
L 318.457959 32.735684 
L 319.43776 32.493609 
L 321.490674 31.936514 
L 324.196789 31.817194 
L 325.083275 32.105072 
L 325.596504 32.082684 
L 326.622961 31.77229 
L 327.696076 31.471545 
L 328.909162 31.34378 
L 330.262219 31.230622 
L 331.288677 31.250669 
L 332.501763 31.633326 
L 333.154963 31.534697 
L 334.601334 31.093926 
L 335.347849 30.941531 
L 336.560935 30.878157 
L 337.774021 30.95946 
L 338.333907 31.027768 
L 339.500335 31.413089 
L 340.200193 31.302546 
L 342.113136 30.776918 
L 342.952965 30.778369 
L 343.932765 31.008616 
L 345.425794 31.622424 
L 346.358937 32.144505 
L 347.058794 32.317715 
L 350.044852 32.842132 
L 351.257938 33.493743 
L 352.424367 34.383251 
L 353.450824 35.1869 
L 355.083825 36.029798 
L 357.883254 37.401584 
L 366.608141 41.782626 
L 368.940999 42.662568 
L 373.466743 44.427396 
L 374.959772 44.892247 
L 376.872715 45.618145 
L 376.872715 45.618145 
" clip-path="url(#p16960f2f37)" style="fill: none; stroke: #0000ff; stroke-width: 0.75; stroke-linecap: round"/>
   </g>
   <g id="line2d_24">
    <path d="M 54.331816 41.795904 
L 56.151445 41.867069 
L 57.457845 42.157336 
L 60.397246 43.151951 
L 62.123561 43.946943 
L 63.709904 44.60013 
L 68.235648 46.281213 
L 69.635362 47.170717 
L 70.848448 47.90182 
L 72.061534 48.349239 
L 73.60122 48.741775 
L 75.187564 48.831217 
L 76.07405 49.18036 
L 79.246736 50.623398 
L 80.459822 50.952387 
L 81.999508 50.843356 
L 82.746022 51.148639 
L 84.239051 51.729793 
L 86.665223 52.11404 
L 87.691681 52.146151 
L 88.764795 51.956316 
L 89.557967 52.06375 
L 91.190967 52.329363 
L 92.264082 52.267478 
L 93.43051 51.950981 
L 94.643596 51.402607 
L 95.90334 50.575278 
L 98.796083 49.500111 
L 100.055826 48.646455 
L 103.321827 46.403542 
L 105.23477 45.466203 
L 113.073172 41.094479 
L 115.592658 40.084791 
L 117.645573 39.328606 
L 119.045287 38.577823 
L 120.165059 38.104907 
L 122.357945 37.403323 
L 124.317546 37.082989 
L 128.983261 35.62412 
L 129.729775 35.595344 
L 130.662919 35.488355 
L 131.596062 35.179759 
L 133.415691 34.545096 
L 136.075148 34.101128 
L 137.84812 34.097177 
L 140.647549 33.30218 
L 141.907292 33.100098 
L 143.58695 33.074319 
L 144.286807 33.162387 
L 145.126636 33.042819 
L 146.666322 32.535367 
L 147.739437 32.296263 
L 150.118951 32.1356 
L 151.93858 32.428739 
L 156.37101 31.586138 
L 157.257496 31.647366 
L 158.283953 31.906259 
L 158.98381 31.834867 
L 162.203154 31.316892 
L 164.442697 31.512819 
L 165.37584 31.773095 
L 166.029041 31.728138 
L 169.248384 31.058934 
L 170.414813 31.123472 
L 171.11467 31.319172 
L 172.607699 32.054884 
L 174.847242 32.231616 
L 176.060328 32.400998 
L 177.413386 32.792391 
L 178.206557 33.18677 
L 179.419643 33.999102 
L 180.679387 34.468414 
L 181.565872 34.859639 
L 186.464874 37.678424 
L 188.937703 38.718651 
L 192.670275 40.647013 
L 194.863161 41.562666 
L 199.435562 43.216213 
L 201.068562 43.775063 
L 203.72802 44.759819 
L 205.780935 45.288254 
L 208.067135 45.723875 
L 210.77325 46.485094 
L 213.106108 46.974256 
L 214.132565 47.045707 
L 215.85888 47.548799 
L 217.118623 47.833899 
L 219.918052 48.256319 
L 220.991167 48.220255 
L 222.017624 48.478599 
L 224.303825 49.156399 
L 226.636682 49.387594 
L 228.736254 49.349622 
L 232.422169 50.154758 
L 233.72857 50.213802 
L 235.314913 49.970813 
L 236.154742 50.188758 
L 237.787742 50.597606 
L 239.420742 50.740242 
L 240.913771 50.679929 
L 241.893571 50.441935 
L 242.500114 50.49552 
L 243.339943 50.767458 
L 244.273086 50.928277 
L 247.49243 51.109855 
L 249.312059 50.806244 
L 250.338516 51.03285 
L 252.438088 51.434284 
L 254.724288 51.335766 
L 256.030689 50.933696 
L 256.870517 50.959958 
L 258.083603 50.938853 
L 260.60309 50.44023 
L 261.956147 49.868332 
L 263.169233 49.337182 
L 265.595405 48.585916 
L 266.901805 47.770504 
L 269.701235 46.103037 
L 270.541063 45.813684 
L 272.360692 45.2408 
L 274.926836 44.023367 
L 277.772922 42.679852 
L 280.805637 41.57115 
L 289.623839 38.703088 
L 290.930239 38.579774 
L 292.283297 38.163326 
L 294.336211 37.571897 
L 296.202497 37.177501 
L 298.068784 36.973818 
L 299.28187 36.588463 
L 301.428099 35.999306 
L 303.481013 35.764708 
L 304.694099 35.80809 
L 305.720557 35.608244 
L 308.100071 34.883219 
L 309.546443 34.67367 
L 310.526243 34.618163 
L 312.019272 34.790809 
L 312.579158 34.680204 
L 314.632073 33.976447 
L 316.918273 33.792544 
L 317.384845 33.8356 
L 318.317988 33.979656 
L 319.11116 33.853319 
L 322.05056 33.264642 
L 323.03036 33.163531 
L 324.103475 33.149629 
L 325.50319 33.420862 
L 326.622961 33.139641 
L 327.78939 32.863461 
L 329.842305 32.70059 
L 331.195362 32.663544 
L 332.828363 32.995731 
L 333.901477 32.767562 
L 336.047706 32.354786 
L 336.980849 32.408319 
L 338.847135 32.690156 
L 339.453678 32.827025 
L 340.106878 32.760004 
L 342.486393 32.262274 
L 343.559508 32.373564 
L 345.33248 32.957912 
L 346.592223 33.528034 
L 347.478709 33.634106 
L 349.158366 33.843102 
L 350.184824 34.118755 
L 351.257938 34.626486 
L 352.517681 35.467604 
L 353.544139 36.137779 
L 355.270453 36.89204 
L 358.349825 38.201902 
L 360.449397 39.184209 
L 365.581684 41.452026 
L 373.560057 44.088833 
L 374.8198 44.426324 
L 376.872715 45.098512 
L 376.872715 45.098512 
" clip-path="url(#p16960f2f37)" style="fill: none; stroke: #008000; stroke-width: 0.75; stroke-linecap: round"/>
   </g>
   <g id="line2d_25">
    <path d="M 54.331816 41.803939 
L 58.390989 41.901845 
L 69.915305 42.613289 
L 72.94802 42.797053 
L 88.811452 43.280604 
L 94.270339 43.2375 
L 108.780714 42.036558 
L 114.006315 41.647091 
L 130.009718 40.901067 
L 133.042433 40.764036 
L 142.513835 40.529208 
L 150.725494 40.427853 
L 152.59178 40.418973 
L 157.35081 40.334088 
L 159.310411 40.34528 
L 163.976126 40.286164 
L 167.382098 40.283114 
L 170.741413 40.260161 
L 177.693329 40.509621 
L 181.892473 40.824611 
L 188.097874 41.292083 
L 203.214791 42.21024 
L 211.799708 42.521969 
L 227.149911 42.893613 
L 229.529426 42.934974 
L 234.05517 43.014562 
L 236.294713 43.029596 
L 240.7738 43.101606 
L 243.153314 43.098774 
L 246.652601 43.164852 
L 258.503518 43.122857 
L 262.469376 42.938873 
L 286.871067 41.470532 
L 294.476183 41.184408 
L 304.274185 40.937936 
L 307.260243 40.825418 
L 310.899501 40.771776 
L 313.37233 40.720034 
L 316.265073 40.641662 
L 327.13619 40.521977 
L 331.708591 40.504227 
L 333.434906 40.507174 
L 338.847135 40.480547 
L 340.526793 40.469537 
L 343.279565 40.425159 
L 346.405594 40.595054 
L 355.597053 41.109357 
L 376.872715 42.283927 
L 376.872715 42.283927 
" clip-path="url(#p16960f2f37)" style="fill: none; stroke: #ff0000; stroke-width: 0.75; stroke-linecap: round"/>
   </g>
   <g id="patch_3">
    <path d="M 38.204771 65.517456 
L 38.204771 14.013848 
" style="fill: none; stroke: #000000; stroke-linejoin: miter; stroke-linecap: square"/>
   </g>
   <g id="patch_4">
    <path d="M 38.204771 65.517456 
L 392.99976 65.517456 
" style="fill: none; stroke: #000000; stroke-linejoin: miter; stroke-linecap: square"/>
   </g>
   <g id="legend_1">
    <g id="line2d_26">
     <path d="M 92.528672 10.35136 
L 101.528672 10.35136 
L 110.528672 10.35136 
" style="fill: none; stroke: #0000ff; stroke-width: 0.75; stroke-linecap: round"/>
    </g>
    <g id="text_5">
     <!-- Reference -->
     <g style="fill: #262626" transform="translate(117.728672 13.50136) scale(0.09 -0.09)">
      <defs>
       <path id="DejaVuSerif-52" d="M 3066 2316 
Q 3284 2256 3442 2114 
Q 3600 1972 3725 1716 
L 4403 331 
L 4972 331 
L 4972 0 
L 3872 0 
L 3144 1484 
Q 2934 1916 2759 2042 
Q 2584 2169 2278 2169 
L 1581 2169 
L 1581 331 
L 2241 331 
L 2241 0 
L 353 0 
L 353 331 
L 947 331 
L 947 4331 
L 353 4331 
L 353 4666 
L 2719 4666 
Q 3400 4666 3770 4341 
Q 4141 4016 4141 3419 
Q 4141 2938 3870 2661 
Q 3600 2384 3066 2316 
z
M 1581 2503 
L 2503 2503 
Q 2975 2503 3200 2726 
Q 3425 2950 3425 3419 
Q 3425 3888 3200 4109 
Q 2975 4331 2503 4331 
L 1581 4331 
L 1581 2503 
z
" transform="scale(0.015625)"/>
       <path id="DejaVuSerif-65" d="M 3469 1600 
L 991 1600 
L 991 1575 
Q 991 903 1244 561 
Q 1497 219 1991 219 
Q 2369 219 2611 417 
Q 2853 616 2950 1006 
L 3413 1006 
Q 3275 459 2904 184 
Q 2534 -91 1931 -91 
Q 1203 -91 761 389 
Q 319 869 319 1663 
Q 319 2450 753 2931 
Q 1188 3413 1894 3413 
Q 2647 3413 3050 2948 
Q 3453 2484 3469 1600 
z
M 2791 1931 
Q 2772 2513 2545 2808 
Q 2319 3103 1894 3103 
Q 1497 3103 1269 2806 
Q 1041 2509 991 1931 
L 2791 1931 
z
" transform="scale(0.015625)"/>
       <path id="DejaVuSerif-66" d="M 2753 4078 
L 2450 4078 
Q 2447 4313 2317 4434 
Q 2188 4556 1941 4556 
Q 1619 4556 1487 4379 
Q 1356 4203 1356 3750 
L 1356 3322 
L 2284 3322 
L 2284 2988 
L 1356 2988 
L 1356 331 
L 2094 331 
L 2094 0 
L 231 0 
L 231 331 
L 781 331 
L 781 2988 
L 231 2988 
L 231 3322 
L 781 3322 
L 781 3738 
Q 781 4294 1070 4578 
Q 1359 4863 1919 4863 
Q 2128 4863 2337 4825 
Q 2547 4788 2753 4709 
L 2753 4078 
z
" transform="scale(0.015625)"/>
       <path id="DejaVuSerif-72" d="M 3059 3328 
L 3059 2497 
L 2728 2497 
Q 2713 2744 2591 2866 
Q 2469 2988 2234 2988 
Q 1809 2988 1582 2694 
Q 1356 2400 1356 1850 
L 1356 331 
L 2022 331 
L 2022 0 
L 263 0 
L 263 331 
L 781 331 
L 781 2994 
L 231 2994 
L 231 3322 
L 1356 3322 
L 1356 2731 
Q 1525 3078 1790 3245 
Q 2056 3413 2438 3413 
Q 2578 3413 2733 3391 
Q 2888 3369 3059 3328 
z
" transform="scale(0.015625)"/>
       <path id="DejaVuSerif-6e" d="M 263 0 
L 263 331 
L 781 331 
L 781 2988 
L 231 2988 
L 231 3322 
L 1356 3322 
L 1356 2731 
Q 1516 3069 1770 3241 
Q 2025 3413 2363 3413 
Q 2913 3413 3172 3097 
Q 3431 2781 3431 2113 
L 3431 331 
L 3944 331 
L 3944 0 
L 2356 0 
L 2356 331 
L 2853 331 
L 2853 1931 
Q 2853 2541 2703 2767 
Q 2553 2994 2175 2994 
Q 1775 2994 1565 2701 
Q 1356 2409 1356 1850 
L 1356 331 
L 1856 331 
L 1856 0 
L 263 0 
z
" transform="scale(0.015625)"/>
       <path id="DejaVuSerif-63" d="M 3291 997 
Q 3169 466 2822 187 
Q 2475 -91 1925 -91 
Q 1200 -91 759 389 
Q 319 869 319 1663 
Q 319 2459 759 2936 
Q 1200 3413 1925 3413 
Q 2241 3413 2553 3339 
Q 2866 3266 3181 3116 
L 3181 2266 
L 2847 2266 
Q 2781 2703 2561 2903 
Q 2341 3103 1931 3103 
Q 1466 3103 1228 2742 
Q 991 2381 991 1663 
Q 991 944 1227 581 
Q 1463 219 1931 219 
Q 2303 219 2525 412 
Q 2747 606 2828 997 
L 3291 997 
z
" transform="scale(0.015625)"/>
      </defs>
      <use xlink:href="#DejaVuSerif-52"/>
      <use xlink:href="#DejaVuSerif-65" x="75.292969"/>
      <use xlink:href="#DejaVuSerif-66" x="134.472656"/>
      <use xlink:href="#DejaVuSerif-65" x="171.484375"/>
      <use xlink:href="#DejaVuSerif-72" x="230.664062"/>
      <use xlink:href="#DejaVuSerif-65" x="278.466797"/>
      <use xlink:href="#DejaVuSerif-6e" x="337.646484"/>
      <use xlink:href="#DejaVuSerif-63" x="402.050781"/>
      <use xlink:href="#DejaVuSerif-65" x="458.056641"/>
     </g>
    </g>
    <g id="line2d_27">
     <path d="M 182.282578 10.35136 
L 191.282578 10.35136 
L 200.282578 10.35136 
" style="fill: none; stroke: #008000; stroke-width: 0.75; stroke-linecap: round"/>
    </g>
    <g id="text_6">
     <!-- PISM -->
     <g style="fill: #262626" transform="translate(207.482578 13.50136) scale(0.09 -0.09)">
      <defs>
       <path id="DejaVuSerif-50" d="M 1581 2375 
L 2406 2375 
Q 2872 2375 3115 2626 
Q 3359 2878 3359 3353 
Q 3359 3831 3115 4081 
Q 2872 4331 2406 4331 
L 1581 4331 
L 1581 2375 
z
M 353 0 
L 353 331 
L 947 331 
L 947 4331 
L 353 4331 
L 353 4666 
L 2559 4666 
Q 3259 4666 3668 4311 
Q 4078 3956 4078 3353 
Q 4078 2753 3668 2397 
Q 3259 2041 2559 2041 
L 1581 2041 
L 1581 331 
L 2303 331 
L 2303 0 
L 353 0 
z
" transform="scale(0.015625)"/>
       <path id="DejaVuSerif-49" d="M 1581 331 
L 2175 331 
L 2175 0 
L 353 0 
L 353 331 
L 947 331 
L 947 4331 
L 353 4331 
L 353 4666 
L 2175 4666 
L 2175 4331 
L 1581 4331 
L 1581 331 
z
" transform="scale(0.015625)"/>
       <path id="DejaVuSerif-53" d="M 594 225 
L 594 1288 
L 953 1284 
Q 969 753 1261 498 
Q 1553 244 2150 244 
Q 2706 244 2998 464 
Q 3291 684 3291 1106 
Q 3291 1444 3114 1625 
Q 2938 1806 2369 1978 
L 1753 2163 
Q 1084 2366 811 2669 
Q 538 2972 538 3500 
Q 538 4094 959 4422 
Q 1381 4750 2144 4750 
Q 2469 4750 2856 4679 
Q 3244 4609 3681 4475 
L 3681 3481 
L 3328 3481 
Q 3275 3975 2998 4195 
Q 2722 4416 2156 4416 
Q 1663 4416 1405 4214 
Q 1147 4013 1147 3628 
Q 1147 3294 1340 3103 
Q 1534 2913 2163 2725 
L 2741 2553 
Q 3375 2363 3645 2067 
Q 3916 1772 3916 1275 
Q 3916 597 3481 253 
Q 3047 -91 2188 -91 
Q 1803 -91 1404 -12 
Q 1006 66 594 225 
z
" transform="scale(0.015625)"/>
       <path id="DejaVuSerif-4d" d="M 353 0 
L 353 331 
L 947 331 
L 947 4331 
L 319 4331 
L 319 4666 
L 1678 4666 
L 3316 1344 
L 4953 4666 
L 6228 4666 
L 6228 4331 
L 5606 4331 
L 5606 331 
L 6203 331 
L 6203 0 
L 4378 0 
L 4378 331 
L 4972 331 
L 4972 3938 
L 3372 684 
L 2931 684 
L 1331 3938 
L 1331 331 
L 1925 331 
L 1925 0 
L 353 0 
z
" transform="scale(0.015625)"/>
      </defs>
      <use xlink:href="#DejaVuSerif-50"/>
      <use xlink:href="#DejaVuSerif-49" x="67.285156"/>
      <use xlink:href="#DejaVuSerif-53" x="106.787109"/>
      <use xlink:href="#DejaVuSerif-4d" x="175.292969"/>
     </g>
    </g>
    <g id="line2d_28">
     <path d="M 250.473047 10.35136 
L 259.473047 10.35136 
L 268.473047 10.35136 
" style="fill: none; stroke: #ff0000; stroke-width: 0.75; stroke-linecap: round"/>
    </g>
    <g id="text_7">
     <!-- Mathematical -->
     <g style="fill: #262626" transform="translate(275.673047 13.50136) scale(0.09 -0.09)">
      <defs>
       <path id="DejaVuSerif-61" d="M 2547 1044 
L 2547 1747 
L 1806 1747 
Q 1378 1747 1168 1562 
Q 959 1378 959 997 
Q 959 650 1171 447 
Q 1384 244 1747 244 
Q 2106 244 2326 466 
Q 2547 688 2547 1044 
z
M 3122 2075 
L 3122 331 
L 3634 331 
L 3634 0 
L 2547 0 
L 2547 359 
Q 2356 128 2106 18 
Q 1856 -91 1522 -91 
Q 969 -91 644 203 
Q 319 497 319 997 
Q 319 1513 691 1797 
Q 1063 2081 1741 2081 
L 2547 2081 
L 2547 2309 
Q 2547 2688 2317 2895 
Q 2088 3103 1672 3103 
Q 1328 3103 1125 2947 
Q 922 2791 872 2484 
L 575 2484 
L 575 3156 
Q 875 3284 1158 3348 
Q 1441 3413 1709 3413 
Q 2400 3413 2761 3070 
Q 3122 2728 3122 2075 
z
" transform="scale(0.015625)"/>
       <path id="DejaVuSerif-74" d="M 691 2988 
L 184 2988 
L 184 3322 
L 691 3322 
L 691 4353 
L 1269 4353 
L 1269 3322 
L 2350 3322 
L 2350 2988 
L 1269 2988 
L 1269 878 
Q 1269 456 1350 337 
Q 1431 219 1650 219 
Q 1875 219 1978 351 
Q 2081 484 2088 781 
L 2522 781 
Q 2497 328 2275 118 
Q 2053 -91 1600 -91 
Q 1103 -91 897 129 
Q 691 350 691 878 
L 691 2988 
z
" transform="scale(0.015625)"/>
       <path id="DejaVuSerif-68" d="M 263 0 
L 263 331 
L 781 331 
L 781 4531 
L 231 4531 
L 231 4863 
L 1356 4863 
L 1356 2731 
Q 1516 3069 1770 3241 
Q 2025 3413 2363 3413 
Q 2913 3413 3172 3097 
Q 3431 2781 3431 2113 
L 3431 331 
L 3944 331 
L 3944 0 
L 2356 0 
L 2356 331 
L 2853 331 
L 2853 1931 
Q 2853 2541 2704 2764 
Q 2556 2988 2175 2988 
Q 1775 2988 1565 2697 
Q 1356 2406 1356 1850 
L 1356 331 
L 1856 331 
L 1856 0 
L 263 0 
z
" transform="scale(0.015625)"/>
       <path id="DejaVuSerif-6d" d="M 3316 2675 
Q 3481 3041 3739 3227 
Q 3997 3413 4341 3413 
Q 4863 3413 5119 3089 
Q 5375 2766 5375 2113 
L 5375 331 
L 5894 331 
L 5894 0 
L 4300 0 
L 4300 331 
L 4800 331 
L 4800 2047 
Q 4800 2556 4650 2772 
Q 4500 2988 4153 2988 
Q 3769 2988 3567 2697 
Q 3366 2406 3366 1850 
L 3366 331 
L 3866 331 
L 3866 0 
L 2291 0 
L 2291 331 
L 2791 331 
L 2791 2069 
Q 2791 2566 2641 2777 
Q 2491 2988 2144 2988 
Q 1759 2988 1557 2697 
Q 1356 2406 1356 1850 
L 1356 331 
L 1856 331 
L 1856 0 
L 263 0 
L 263 331 
L 781 331 
L 781 2994 
L 231 2994 
L 231 3322 
L 1356 3322 
L 1356 2731 
Q 1516 3063 1762 3238 
Q 2009 3413 2322 3413 
Q 2709 3413 2968 3220 
Q 3228 3028 3316 2675 
z
" transform="scale(0.015625)"/>
       <path id="DejaVuSerif-69" d="M 622 4353 
Q 622 4497 726 4603 
Q 831 4709 978 4709 
Q 1122 4709 1226 4603 
Q 1331 4497 1331 4353 
Q 1331 4206 1228 4103 
Q 1125 4000 978 4000 
Q 831 4000 726 4103 
Q 622 4206 622 4353 
z
M 1356 331 
L 1900 331 
L 1900 0 
L 231 0 
L 231 331 
L 781 331 
L 781 2988 
L 231 2988 
L 231 3322 
L 1356 3322 
L 1356 331 
z
" transform="scale(0.015625)"/>
       <path id="DejaVuSerif-6c" d="M 1313 331 
L 1856 331 
L 1856 0 
L 184 0 
L 184 331 
L 738 331 
L 738 4531 
L 184 4531 
L 184 4863 
L 1313 4863 
L 1313 331 
z
" transform="scale(0.015625)"/>
      </defs>
      <use xlink:href="#DejaVuSerif-4d"/>
      <use xlink:href="#DejaVuSerif-61" x="102.392578"/>
      <use xlink:href="#DejaVuSerif-74" x="162.011719"/>
      <use xlink:href="#DejaVuSerif-68" x="202.197266"/>
      <use xlink:href="#DejaVuSerif-65" x="266.601562"/>
      <use xlink:href="#DejaVuSerif-6d" x="325.78125"/>
      <use xlink:href="#DejaVuSerif-61" x="420.605469"/>
      <use xlink:href="#DejaVuSerif-74" x="480.224609"/>
      <use xlink:href="#DejaVuSerif-69" x="520.410156"/>
      <use xlink:href="#DejaVuSerif-63" x="552.392578"/>
      <use xlink:href="#DejaVuSerif-61" x="608.398438"/>
      <use xlink:href="#DejaVuSerif-6c" x="668.017578"/>
     </g>
    </g>
   </g>
  </g>
  <g id="axes_2">
   <g id="patch_5">
    <path d="M 38.204771 125.571349 
L 392.99976 125.571349 
L 392.99976 74.067741 
L 38.204771 74.067741 
z
" style="fill: #ffffff"/>
   </g>
   <g id="matplotlib.axis_3">
    <g id="xtick_9">
     <g id="line2d_29">
      <path d="M 54.331816 125.571349 
L 54.331816 74.067741 
" clip-path="url(#p06593a7a0b)" style="fill: none; stroke: #b0b0b0; stroke-width: 0.8; stroke-linecap: round"/>
     </g>
     <g id="line2d_30"/>
    </g>
    <g id="xtick_10">
     <g id="line2d_31">
      <path d="M 101.303681 125.571349 
L 101.303681 74.067741 
" clip-path="url(#p06593a7a0b)" style="fill: none; stroke: #b0b0b0; stroke-width: 0.8; stroke-linecap: round"/>
     </g>
     <g id="line2d_32"/>
    </g>
    <g id="xtick_11">
     <g id="line2d_33">
      <path d="M 148.275545 125.571349 
L 148.275545 74.067741 
" clip-path="url(#p06593a7a0b)" style="fill: none; stroke: #b0b0b0; stroke-width: 0.8; stroke-linecap: round"/>
     </g>
     <g id="line2d_34"/>
    </g>
    <g id="xtick_12">
     <g id="line2d_35">
      <path d="M 195.24741 125.571349 
L 195.24741 74.067741 
" clip-path="url(#p06593a7a0b)" style="fill: none; stroke: #b0b0b0; stroke-width: 0.8; stroke-linecap: round"/>
     </g>
     <g id="line2d_36"/>
    </g>
    <g id="xtick_13">
     <g id="line2d_37">
      <path d="M 242.219274 125.571349 
L 242.219274 74.067741 
" clip-path="url(#p06593a7a0b)" style="fill: none; stroke: #b0b0b0; stroke-width: 0.8; stroke-linecap: round"/>
     </g>
     <g id="line2d_38"/>
    </g>
    <g id="xtick_14">
     <g id="line2d_39">
      <path d="M 289.191139 125.571349 
L 289.191139 74.067741 
" clip-path="url(#p06593a7a0b)" style="fill: none; stroke: #b0b0b0; stroke-width: 0.8; stroke-linecap: round"/>
     </g>
     <g id="line2d_40"/>
    </g>
    <g id="xtick_15">
     <g id="line2d_41">
      <path d="M 336.163003 125.571349 
L 336.163003 74.067741 
" clip-path="url(#p06593a7a0b)" style="fill: none; stroke: #b0b0b0; stroke-width: 0.8; stroke-linecap: round"/>
     </g>
     <g id="line2d_42"/>
    </g>
    <g id="xtick_16">
     <g id="line2d_43">
      <path d="M 383.134868 125.571349 
L 383.134868 74.067741 
" clip-path="url(#p06593a7a0b)" style="fill: none; stroke: #b0b0b0; stroke-width: 0.8; stroke-linecap: round"/>
     </g>
     <g id="line2d_44"/>
    </g>
   </g>
   <g id="matplotlib.axis_4">
    <g id="ytick_4">
     <g id="line2d_45">
      <path d="M 38.204771 122.841187 
L 392.99976 122.841187 
" clip-path="url(#p06593a7a0b)" style="fill: none; stroke: #b0b0b0; stroke-width: 0.8; stroke-linecap: round"/>
     </g>
     <g id="line2d_46"/>
     <g id="text_8">
      <!-- −50 -->
      <g style="fill: #262626" transform="translate(15.710552 126.260484) scale(0.09 -0.09)">
       <use xlink:href="#DejaVuSerif-2212"/>
       <use xlink:href="#DejaVuSerif-35" x="83.789062"/>
       <use xlink:href="#DejaVuSerif-30" x="147.412109"/>
      </g>
     </g>
    </g>
    <g id="ytick_5">
     <g id="line2d_47">
      <path d="M 38.204771 101.859199 
L 392.99976 101.859199 
" clip-path="url(#p06593a7a0b)" style="fill: none; stroke: #b0b0b0; stroke-width: 0.8; stroke-linecap: round"/>
     </g>
     <g id="line2d_48"/>
     <g id="text_9">
      <!-- 0 -->
      <g style="fill: #262626" transform="translate(28.978521 105.278496) scale(0.09 -0.09)">
       <use xlink:href="#DejaVuSerif-30"/>
      </g>
     </g>
    </g>
    <g id="ytick_6">
     <g id="line2d_49">
      <path d="M 38.204771 80.877211 
L 392.99976 80.877211 
" clip-path="url(#p06593a7a0b)" style="fill: none; stroke: #b0b0b0; stroke-width: 0.8; stroke-linecap: round"/>
     </g>
     <g id="line2d_50"/>
     <g id="text_10">
      <!-- 50 -->
      <g style="fill: #262626" transform="translate(23.252271 84.296508) scale(0.09 -0.09)">
       <use xlink:href="#DejaVuSerif-35"/>
       <use xlink:href="#DejaVuSerif-30" x="63.623047"/>
      </g>
     </g>
    </g>
    <g id="text_11">
     <!-- $N_H(r)$ -->
     <g style="fill: #262626" transform="translate(9.838834 111.069545) rotate(-90) scale(0.09 -0.09)">
      <defs>
       <path id="DejaVuSans-Oblique-72" d="M 2853 2969 
Q 2766 3016 2653 3041 
Q 2541 3066 2413 3066 
Q 1953 3066 1609 2717 
Q 1266 2369 1153 1784 
L 800 0 
L 225 0 
L 909 3500 
L 1484 3500 
L 1375 2956 
Q 1603 3259 1920 3421 
Q 2238 3584 2597 3584 
Q 2691 3584 2781 3573 
Q 2872 3563 2963 3538 
L 2853 2969 
z
" transform="scale(0.015625)"/>
      </defs>
      <use xlink:href="#DejaVuSans-Oblique-4e" transform="translate(0 0.125)"/>
      <use xlink:href="#DejaVuSans-Oblique-48" transform="translate(74.804688 -16.28125) scale(0.7)"/>
      <use xlink:href="#DejaVuSans-28" transform="translate(130.175781 0.125)"/>
      <use xlink:href="#DejaVuSans-Oblique-72" transform="translate(169.189453 0.125)"/>
      <use xlink:href="#DejaVuSans-29" transform="translate(210.302734 0.125)"/>
     </g>
    </g>
   </g>
   <g id="line2d_51">
    <path d="M 54.331816 102.073142 
L 55.078331 101.964967 
L 55.824845 101.650787 
L 57.084588 100.81607 
L 58.437646 99.615194 
L 61.423703 96.563758 
L 62.916732 94.914026 
L 64.59639 93.396234 
L 65.90279 92.465091 
L 66.55599 92.15034 
L 67.395819 92.160889 
L 68.095676 91.7592 
L 70.568505 90.110023 
L 71.408334 89.880695 
L 72.808049 89.499745 
L 73.414592 89.396038 
L 73.834506 89.608752 
L 74.347735 89.75873 
L 75.000935 89.533926 
L 76.913878 88.654957 
L 78.266936 88.438387 
L 80.366508 88.300315 
L 81.579594 89.050903 
L 81.999508 88.873683 
L 83.865794 88.117889 
L 87.131795 88.002619 
L 87.411738 88.109013 
L 88.438195 88.864024 
L 90.071195 89.285387 
L 91.237624 90.079082 
L 91.79751 90.653908 
L 93.197225 92.304616 
L 94.596939 94.201986 
L 95.483425 95.573053 
L 98.469483 99.668442 
L 100.662369 102.970954 
L 101.408884 103.760466 
L 106.027942 107.429471 
L 108.314142 108.513829 
L 109.107314 108.545783 
L 109.947143 108.949898 
L 110.693657 109.404532 
L 112.093372 109.983194 
L 115.079429 110.889568 
L 115.499344 110.801956 
L 116.245858 110.66247 
L 117.132344 110.980015 
L 119.371888 111.750816 
L 122.264631 111.991398 
L 123.384403 111.59727 
L 124.037603 111.876467 
L 125.017403 112.261102 
L 126.603746 112.502261 
L 129.123232 112.642841 
L 130.009718 112.202518 
L 130.429633 112.23017 
L 131.082833 112.496176 
L 131.876005 112.873708 
L 132.76249 113.019858 
L 133.602319 113.049531 
L 134.862062 113.10477 
L 136.168463 113.091417 
L 137.101606 112.631684 
L 137.614834 112.769326 
L 138.687949 113.080586 
L 141.020807 113.344289 
L 143.027064 113.344669 
L 143.58695 112.936489 
L 144.006864 112.767877 
L 144.426779 112.813347 
L 146.386379 113.482569 
L 147.646122 113.447378 
L 149.279123 113.402522 
L 150.025637 113.3489 
L 151.238723 112.717159 
L 151.845266 112.870176 
L 153.198323 113.247435 
L 156.977553 113.281764 
L 158.190639 112.661083 
L 159.077125 112.895435 
L 159.870296 113.13331 
L 160.850097 113.177152 
L 162.996326 113.052641 
L 163.976126 112.940932 
L 165.282526 112.356395 
L 165.982383 112.532505 
L 167.335441 112.82745 
L 169.48167 112.741374 
L 170.601442 112.531937 
L 171.021356 112.253715 
L 172.047813 111.221991 
L 173.027613 110.864273 
L 173.727471 110.486336 
L 174.427328 109.936366 
L 177.366729 106.981247 
L 183.665444 99.926815 
L 184.87853 99.019787 
L 185.811673 98.653018 
L 188.891046 96.850265 
L 189.730874 96.562741 
L 191.177246 95.973617 
L 191.830446 95.810459 
L 193.043532 95.80853 
L 193.650075 95.512508 
L 195.003133 94.808593 
L 196.02959 94.518732 
L 197.149362 94.210596 
L 198.222476 94.047131 
L 198.968991 94.050353 
L 199.622191 94.142434 
L 200.322048 93.975219 
L 202.934849 93.247461 
L 206.014221 93.222418 
L 206.620764 93.456904 
L 207.040678 93.364262 
L 208.627021 92.881937 
L 210.166707 92.679422 
L 211.706393 92.552325 
L 212.639536 92.438401 
L 213.012794 92.667422 
L 213.619337 92.898888 
L 214.365851 92.723309 
L 215.392308 92.315031 
L 217.071966 92.090029 
L 218.471681 92.022323 
L 219.638109 91.961169 
L 220.851195 92.397001 
L 221.457738 92.187545 
L 222.810796 91.725243 
L 226.916625 91.854992 
L 227.476511 92.096839 
L 227.943083 92.016571 
L 229.809369 91.486155 
L 231.768969 91.512462 
L 232.702112 91.450496 
L 233.541941 91.481326 
L 234.195141 91.912816 
L 234.661713 92.056334 
L 235.454884 91.948262 
L 236.248056 91.641542 
L 237.507799 91.504527 
L 238.767542 91.475074 
L 239.654028 91.491143 
L 240.633828 91.596716 
L 241.566971 92.063277 
L 242.033543 92.014907 
L 243.806515 91.572282 
L 247.49243 91.689296 
L 248.378916 92.135476 
L 249.078773 92.093278 
L 251.225002 91.562141 
L 254.491003 91.781169 
L 255.097546 92.244564 
L 255.704089 92.543965 
L 257.617032 93.066164 
L 258.736804 93.874861 
L 261.116318 96.018141 
L 261.676204 96.654662 
L 262.702662 97.798479 
L 265.455434 100.69217 
L 266.948463 102.351401 
L 268.348177 103.694544 
L 269.93452 104.546933 
L 273.573778 106.55214 
L 274.833521 107.03801 
L 275.486722 107.263069 
L 276.606493 107.26913 
L 277.492979 107.623049 
L 278.332808 108.005178 
L 280.805637 108.764573 
L 282.112037 109.08738 
L 282.531952 109.046377 
L 283.37178 108.919266 
L 283.931666 109.13513 
L 284.864809 109.516054 
L 285.984581 109.772275 
L 289.297239 110.076983 
L 290.603639 109.781346 
L 292.003354 110.153812 
L 292.796525 110.297696 
L 294.616154 110.555027 
L 295.50264 110.641935 
L 296.249155 110.62124 
L 296.995669 110.35218 
L 297.648869 110.312666 
L 298.208755 110.46476 
L 299.748441 110.970364 
L 302.501213 111.159637 
L 303.481013 111.073286 
L 304.040899 110.842864 
L 304.460814 110.845175 
L 305.860528 111.195008 
L 306.467071 111.438573 
L 307.493529 111.572526 
L 308.986557 111.535288 
L 310.619558 111.392043 
L 311.086129 111.181882 
L 312.252558 111.21457 
L 314.305473 111.968935 
L 315.00533 111.947879 
L 317.384845 111.623408 
L 317.851416 111.370473 
L 318.457959 111.355275 
L 319.531074 111.728314 
L 320.324246 111.896155 
L 321.024103 111.967412 
L 322.423817 111.866746 
L 323.310303 111.940146 
L 324.103475 111.760595 
L 324.896647 111.336329 
L 325.316561 111.333696 
L 327.229504 111.865141 
L 327.976019 111.877036 
L 331.242019 111.81309 
L 332.175162 111.33329 
L 334.461363 111.809386 
L 335.067906 111.888331 
L 338.147278 111.648056 
L 338.707164 111.331192 
L 339.173735 111.155184 
L 339.59365 111.176794 
L 340.153536 111.355863 
L 341.040022 111.620817 
L 341.926507 111.491449 
L 342.626365 111.224594 
L 344.212708 110.270996 
L 345.052537 109.651576 
L 346.545566 108.150669 
L 347.851966 107.223002 
L 349.578281 105.48867 
L 354.430624 100.267097 
L 355.830339 99.221118 
L 359.142997 97.495673 
L 360.449397 97.067478 
L 361.662483 96.480472 
L 362.455655 96.198933 
L 365.861627 95.189771 
L 367.261342 95.108996 
L 368.567742 94.609127 
L 369.174285 94.393191 
L 370.340714 94.128562 
L 371.647114 93.924273 
L 372.486943 93.784763 
L 373.046829 93.887709 
L 373.653371 94.117612 
L 374.119943 94.095693 
L 376.872715 93.335216 
L 376.872715 93.335216 
" clip-path="url(#p06593a7a0b)" style="fill: none; stroke: #0000ff; stroke-width: 0.75; stroke-linecap: round"/>
   </g>
   <g id="line2d_52">
    <path d="M 54.331816 102.072344 
L 55.078331 101.964573 
L 55.824845 101.651564 
L 57.084588 100.81996 
L 58.437646 99.623563 
L 61.423703 96.583508 
L 62.916732 94.939929 
L 64.59639 93.427798 
L 65.949447 92.470492 
L 66.602647 92.193319 
L 67.302505 92.219184 
L 67.815733 91.991805 
L 68.748876 91.263252 
L 70.055277 90.332987 
L 71.221706 89.968148 
L 72.434792 89.646822 
L 73.27462 89.426235 
L 73.554563 89.497637 
L 74.207763 89.789222 
L 74.627678 89.737555 
L 75.280878 89.440569 
L 76.353992 88.920111 
L 77.940336 88.506162 
L 80.413165 88.384428 
L 81.346308 89.101133 
L 81.719565 89.059185 
L 82.652708 88.5208 
L 83.259251 88.264654 
L 84.565651 88.132503 
L 86.245309 88.078815 
L 87.271766 88.074203 
L 87.691681 88.432335 
L 88.344881 88.879522 
L 89.138052 89.031696 
L 90.117853 89.359068 
L 90.677738 89.705896 
L 91.564224 90.433017 
L 94.223682 93.605679 
L 96.043311 96.255111 
L 97.023111 97.528273 
L 101.362226 103.715164 
L 106.074599 107.432908 
L 107.707599 108.278207 
L 108.360799 108.485073 
L 109.247285 108.57111 
L 109.900485 108.891609 
L 111.113571 109.586047 
L 115.219401 110.858669 
L 116.525801 110.703097 
L 117.412287 111.085426 
L 118.298773 111.48055 
L 119.371888 111.713924 
L 122.264631 111.953609 
L 123.384403 111.56095 
L 124.037603 111.839106 
L 125.017403 112.222306 
L 126.603746 112.462566 
L 129.123232 112.602622 
L 130.009718 112.163941 
L 130.429633 112.191489 
L 131.082833 112.456504 
L 131.876005 112.832627 
L 132.76249 112.978233 
L 133.602319 113.007795 
L 134.862062 113.062828 
L 136.168463 113.049525 
L 137.101606 112.591507 
L 137.614834 112.728635 
L 138.687949 113.038734 
L 141.020807 113.301453 
L 143.027064 113.301832 
L 143.58695 112.895174 
L 144.006864 112.727191 
L 144.426779 112.772492 
L 146.386379 113.439218 
L 147.646122 113.404158 
L 149.279123 113.359469 
L 150.025637 113.306047 
L 151.238723 112.676662 
L 151.845266 112.829108 
L 153.198323 113.204961 
L 156.977553 113.239162 
L 158.190639 112.620796 
L 159.077125 112.854274 
L 159.870296 113.091261 
L 160.850097 113.13494 
L 162.996326 113.010894 
L 163.976126 112.899601 
L 165.282526 112.317244 
L 165.982383 112.492697 
L 167.335441 112.786543 
L 169.48167 112.700788 
L 170.601442 112.492131 
L 171.021356 112.214947 
L 172.047813 111.187071 
L 173.027613 110.830687 
L 173.727471 110.45416 
L 174.427328 109.906241 
L 177.366729 106.962143 
L 183.665444 99.934022 
L 184.87853 99.030377 
L 185.811673 98.664976 
L 188.891046 96.868947 
L 189.730874 96.582495 
L 191.177246 95.995568 
L 191.830446 95.833018 
L 193.043532 95.831097 
L 193.650075 95.536179 
L 195.003133 94.83489 
L 196.02959 94.546109 
L 197.149362 94.239122 
L 198.222476 94.076267 
L 198.968991 94.079478 
L 199.622191 94.171215 
L 200.322048 94.004624 
L 202.934849 93.27958 
L 206.014221 93.25463 
L 206.620764 93.488242 
L 207.040678 93.395945 
L 208.627021 92.915419 
L 210.166707 92.71366 
L 211.706393 92.587036 
L 212.639536 92.473537 
L 213.059451 92.728871 
L 213.665994 92.927933 
L 214.319194 92.778714 
L 215.672251 92.279808 
L 216.325451 92.169333 
L 218.285052 92.070416 
L 219.591452 91.979812 
L 220.104681 92.294826 
L 220.524595 92.449665 
L 221.037824 92.376639 
L 221.830996 92.058858 
L 222.624167 91.788905 
L 223.23071 91.723426 
L 225.283625 91.688015 
L 226.216768 91.72531 
L 226.729997 91.778801 
L 227.569825 92.13245 
L 228.083054 92.005819 
L 229.156169 91.592349 
L 229.902683 91.524416 
L 231.535683 91.529112 
L 232.095569 91.536275 
L 233.681912 91.610016 
L 234.521741 92.067465 
L 235.081627 92.072816 
L 235.594856 91.919316 
L 236.248056 91.67965 
L 237.507799 91.543146 
L 238.767542 91.513803 
L 239.654028 91.529812 
L 240.633828 91.634991 
L 241.566971 92.099812 
L 242.033543 92.051623 
L 243.806515 91.610648 
L 247.49243 91.727226 
L 248.378916 92.171742 
L 249.078773 92.129702 
L 251.225002 91.600545 
L 254.491003 91.818757 
L 255.097546 92.280423 
L 255.704089 92.578708 
L 257.617032 93.098958 
L 258.736804 93.904639 
L 261.116318 96.039926 
L 261.676204 96.674073 
L 262.702662 97.813624 
L 265.455434 100.696523 
L 266.948463 102.349565 
L 268.348177 103.687698 
L 269.981177 104.56412 
L 273.340492 106.465751 
L 275.160121 107.156106 
L 275.580036 107.230741 
L 276.466522 107.213443 
L 277.166379 107.447526 
L 279.965808 108.474798 
L 282.438637 109.049125 
L 283.37178 108.892935 
L 283.931666 109.107994 
L 284.864809 109.487497 
L 285.984581 109.742762 
L 289.297239 110.046334 
L 290.603639 109.751799 
L 292.003354 110.122876 
L 292.796525 110.266223 
L 294.616154 110.522595 
L 295.50264 110.609178 
L 296.249155 110.58856 
L 296.995669 110.320505 
L 297.648869 110.281137 
L 298.208755 110.432664 
L 299.748441 110.936382 
L 302.54787 111.125936 
L 303.667642 110.946835 
L 304.227528 110.791713 
L 305.114014 110.872053 
L 306.233785 111.323689 
L 306.886986 111.468959 
L 307.9601 111.503902 
L 310.479586 111.440203 
L 311.226101 111.144567 
L 312.532501 111.320737 
L 313.418987 111.772966 
L 314.445444 111.93703 
L 315.518559 111.881092 
L 317.431502 111.549787 
L 317.804759 111.347862 
L 318.364645 111.288869 
L 320.884131 111.921482 
L 321.304046 111.890838 
L 322.423817 111.829421 
L 323.310303 111.902548 
L 324.103475 111.723666 
L 324.896647 111.300983 
L 325.316561 111.298359 
L 327.229504 111.827823 
L 327.976019 111.839673 
L 331.242019 111.775965 
L 332.175162 111.297955 
L 334.461363 111.772275 
L 335.067906 111.850926 
L 338.147278 111.611547 
L 338.707164 111.295864 
L 339.173735 111.120513 
L 339.59365 111.142043 
L 340.153536 111.320444 
L 341.040022 111.58441 
L 341.926507 111.455524 
L 342.626365 111.189664 
L 344.212708 110.239623 
L 345.052537 109.622513 
L 346.545566 108.127204 
L 347.851966 107.202997 
L 349.578281 105.475133 
L 354.430624 100.273035 
L 355.830339 99.230957 
L 359.142997 97.511947 
L 360.449397 97.085349 
L 361.662483 96.500533 
L 362.455655 96.220044 
L 365.861627 95.214646 
L 367.261342 95.134172 
L 368.567742 94.636167 
L 369.174285 94.421037 
L 370.340714 94.157395 
L 371.647114 93.953868 
L 372.486943 93.814878 
L 373.046829 93.91744 
L 373.653371 94.146486 
L 374.119943 94.124649 
L 376.872715 93.367007 
L 376.872715 93.367007 
" clip-path="url(#p06593a7a0b)" style="fill: none; stroke: #008000; stroke-width: 0.75; stroke-linecap: round"/>
   </g>
   <g id="line2d_53">
    <path d="M 54.331816 102.25204 
L 54.845045 102.149802 
L 55.451588 101.820161 
L 56.104788 101.172457 
L 57.177903 99.809252 
L 58.344331 97.904858 
L 61.237075 92.565364 
L 62.496818 89.882689 
L 63.709904 87.73517 
L 65.90279 84.609809 
L 66.509333 84.027427 
L 67.442476 84.016005 
L 67.955705 83.506248 
L 70.055277 80.615626 
L 70.98842 80.052736 
L 73.414592 78.974438 
L 73.694535 79.215342 
L 74.161106 79.604277 
L 74.534363 79.582097 
L 75.420849 78.827356 
L 76.913878 77.613671 
L 78.03365 77.235174 
L 78.826822 77.11753 
L 79.293393 77.017345 
L 79.759965 76.895472 
L 80.039908 76.808858 
L 80.31985 76.896593 
L 81.486279 78.371391 
L 81.859536 78.158545 
L 83.11928 76.870296 
L 84.192394 76.571331 
L 86.525252 76.432445 
L 87.131795 76.415852 
L 87.318423 76.501179 
L 87.598366 76.929316 
L 88.158252 77.781648 
L 88.531509 78.03433 
L 89.091395 78.203137 
L 89.697938 78.485402 
L 90.724396 79.518457 
L 91.610881 80.89773 
L 92.730653 83.245732 
L 94.083711 86.29889 
L 94.550282 87.647404 
L 95.483425 90.316625 
L 98.376169 97.571047 
L 100.988969 104.625208 
L 101.642169 105.701578 
L 105.608027 111.624032 
L 107.241028 113.249541 
L 108.314142 114.078381 
L 108.967342 114.082657 
L 109.480571 114.388661 
L 110.087114 115.084604 
L 110.600343 115.620268 
L 111.393514 116.287458 
L 112.699915 117.140152 
L 113.353115 117.583183 
L 114.006315 117.904656 
L 115.172744 118.451928 
L 115.452687 118.317965 
L 115.965915 118.027824 
L 116.292515 118.043936 
L 116.805744 118.340893 
L 118.205459 119.551936 
L 119.418545 120.032429 
L 120.491659 120.336452 
L 122.264631 120.463866 
L 123.291088 119.724769 
L 123.617688 119.871274 
L 125.297346 121.088968 
L 126.090518 121.318216 
L 129.076575 121.704919 
L 130.14969 120.809243 
L 130.569604 120.979121 
L 131.316119 121.646872 
L 131.829347 122.053276 
L 132.342576 122.27244 
L 134.582119 122.471864 
L 135.375291 122.567028 
L 135.935177 122.669346 
L 136.21512 122.431713 
L 136.914977 121.676286 
L 137.381549 121.690934 
L 138.454663 122.377921 
L 139.48112 122.694443 
L 140.274292 122.831226 
L 141.207435 122.934335 
L 143.073721 122.904626 
L 144.053521 121.876171 
L 144.473436 122.007199 
L 144.940007 122.443532 
L 145.733179 123.049655 
L 146.246408 123.178712 
L 147.879408 123.106749 
L 149.139151 123.064128 
L 149.792351 123.033156 
L 150.118951 122.857811 
L 151.098752 121.797988 
L 151.472009 121.852615 
L 152.031895 122.212069 
L 153.105009 122.758067 
L 155.204581 123.014171 
L 157.070867 122.737046 
L 158.143982 121.681525 
L 158.750525 121.947626 
L 159.963611 122.581648 
L 162.389783 122.460001 
L 163.182954 122.378112 
L 163.929469 122.255769 
L 165.095897 121.171352 
L 165.515812 121.187127 
L 166.215669 121.6052 
L 166.868869 121.967223 
L 167.335441 121.999018 
L 168.595184 121.919503 
L 170.601442 121.456398 
L 170.928042 121.119723 
L 171.44127 119.999586 
L 171.861185 119.264397 
L 172.514385 118.685269 
L 173.494185 117.979242 
L 174.613957 116.3834 
L 176.620214 112.76125 
L 178.299872 109.113998 
L 179.186358 107.171902 
L 181.472558 102.516783 
L 183.012244 99.292819 
L 184.831873 96.675662 
L 185.904988 95.866454 
L 186.931445 94.592389 
L 187.957902 93.341824 
L 188.704417 92.755979 
L 189.63756 92.215244 
L 191.59716 90.802157 
L 191.877103 90.760124 
L 192.670275 90.902033 
L 193.043532 90.749007 
L 193.463447 90.396418 
L 194.816504 89.056714 
L 195.469704 88.652687 
L 198.31579 87.497768 
L 198.829019 87.44607 
L 199.528876 87.700224 
L 200.042105 87.541339 
L 202.794877 86.070531 
L 204.007963 85.902338 
L 204.567849 85.83355 
L 205.267706 85.736746 
L 205.687621 85.72943 
L 206.014221 86.000408 
L 206.527449 86.40669 
L 206.854049 86.379571 
L 208.253764 85.573509 
L 208.906964 85.203637 
L 209.326879 84.996191 
L 209.933422 84.979868 
L 210.353336 85.003896 
L 211.753051 84.750024 
L 212.639536 84.560801 
L 212.919479 84.860294 
L 213.432708 85.358981 
L 213.852622 85.360198 
L 214.365851 85.083948 
L 215.20568 84.440189 
L 216.465423 83.983355 
L 217.725166 83.849975 
L 218.378366 83.802867 
L 219.031566 83.70373 
L 219.544795 83.617099 
L 219.918052 84.009165 
L 220.337967 84.443776 
L 220.711224 84.529265 
L 221.037824 84.382213 
L 221.551053 84.022128 
L 222.764139 83.259303 
L 224.303825 83.101223 
L 226.450054 83.142062 
L 226.683339 83.231173 
L 227.476511 83.933629 
L 227.803111 83.865064 
L 228.129711 83.656228 
L 229.249483 82.905799 
L 231.535683 82.820163 
L 231.955598 82.862776 
L 233.448627 82.728899 
L 233.775227 83.085496 
L 234.38177 83.741438 
L 234.70837 83.857495 
L 235.268256 83.775238 
L 235.781484 83.381432 
L 236.154742 83.150053 
L 236.807942 82.848918 
L 237.601113 82.866367 
L 238.207656 82.837734 
L 238.860856 82.78216 
L 239.840657 82.813456 
L 240.4472 82.849358 
L 240.7738 83.173562 
L 241.287028 83.717949 
L 241.660286 83.876302 
L 242.0802 83.756208 
L 242.7334 83.304676 
L 243.199972 83.036048 
L 243.946486 82.963342 
L 244.646343 82.970841 
L 246.326001 82.86704 
L 247.352458 83.084087 
L 247.679058 83.418455 
L 248.238944 83.929963 
L 248.612201 84.039024 
L 248.985459 83.965422 
L 251.411631 82.961701 
L 252.064831 82.943996 
L 252.718031 83.006964 
L 253.137945 83.063076 
L 253.511202 83.142309 
L 254.444346 83.320347 
L 254.724288 83.632301 
L 255.564117 84.660021 
L 256.124003 84.922841 
L 257.290432 85.421615 
L 258.036946 86.243841 
L 260.976347 90.875284 
L 261.816176 92.623516 
L 262.609347 94.233814 
L 265.455434 99.71631 
L 266.808491 102.491199 
L 268.30152 105.170948 
L 268.908063 105.755363 
L 270.447749 107.352946 
L 271.567521 108.763051 
L 272.593978 109.752199 
L 273.807064 110.618448 
L 274.413607 111.041352 
L 275.533379 111.774835 
L 276.186579 111.652206 
L 276.793122 111.899465 
L 277.539636 112.494167 
L 278.332808 113.144399 
L 279.919151 114.022302 
L 281.318866 114.790154 
L 282.39198 115.125808 
L 283.511752 114.880017 
L 285.657981 116.299884 
L 287.850867 116.741716 
L 288.737353 116.821343 
L 289.343896 116.92202 
L 289.670496 116.631689 
L 290.137068 116.350581 
L 290.556982 116.397816 
L 290.976896 116.567507 
L 292.656554 117.324694 
L 293.309754 117.516197 
L 294.102926 117.651931 
L 294.382869 117.703045 
L 294.942754 117.954244 
L 295.689269 117.9844 
L 296.295812 117.904277 
L 296.949012 117.469225 
L 297.555555 117.368704 
L 298.068784 117.563685 
L 298.768641 118.048234 
L 299.60847 118.534978 
L 300.868213 118.803279 
L 301.334784 118.93002 
L 301.661384 118.95351 
L 302.734499 118.94959 
L 303.247728 118.994362 
L 303.667642 118.608315 
L 304.134213 118.321943 
L 304.554128 118.38519 
L 304.974042 118.441871 
L 305.393957 118.634606 
L 305.767214 118.907413 
L 306.467071 119.448773 
L 307.026957 119.571575 
L 307.400214 119.684857 
L 307.726814 119.642311 
L 309.639758 119.673821 
L 310.246301 119.711531 
L 310.806186 119.142937 
L 311.086129 118.977439 
L 312.112587 118.97504 
L 312.485844 119.249476 
L 313.558958 120.195122 
L 314.398787 120.436191 
L 316.591673 120.199683 
L 317.338188 119.850366 
L 317.851416 119.323728 
L 318.411302 119.264246 
L 319.671045 120.007136 
L 320.044303 120.12468 
L 320.650846 120.351523 
L 321.210731 120.368297 
L 322.237189 120.165711 
L 323.543589 120.292043 
L 324.196789 119.912376 
L 324.616704 119.401451 
L 325.129932 119.199364 
L 325.409875 119.320196 
L 326.203047 119.916 
L 326.762933 120.204831 
L 327.322819 120.218714 
L 327.836047 120.254577 
L 328.675876 120.28013 
L 329.609019 120.143012 
L 330.402191 120.173752 
L 330.775448 120.262406 
L 331.148705 120.233697 
L 331.475305 119.81691 
L 331.988534 119.284169 
L 332.315134 119.293984 
L 332.87502 119.508693 
L 333.761506 119.802144 
L 334.368049 120.05472 
L 334.83462 120.286178 
L 335.347849 120.271855 
L 338.100621 119.867048 
L 338.520535 119.443807 
L 339.080421 118.968004 
L 339.407021 118.908877 
L 340.060221 119.229749 
L 340.90005 119.766495 
L 341.506593 119.768665 
L 341.87985 119.574518 
L 342.859651 118.842624 
L 343.419536 118.311263 
L 344.585965 116.893334 
L 345.052537 116.167502 
L 346.452251 113.526539 
L 347.898623 111.629329 
L 348.971738 109.73884 
L 352.331053 102.973764 
L 355.177139 97.824441 
L 356.016968 96.826381 
L 358.956368 93.908789 
L 360.029483 93.400774 
L 361.195912 92.359465 
L 362.175712 91.636799 
L 363.855369 90.590293 
L 364.601884 90.138306 
L 365.395055 89.804201 
L 366.048256 89.645335 
L 366.701456 89.806527 
L 367.12137 89.567346 
L 367.821227 89.116893 
L 368.287799 88.800203 
L 369.407571 88.015468 
L 370.154085 87.681389 
L 370.807285 87.520246 
L 371.5538 87.320211 
L 372.8602 87.067924 
L 373.886657 87.685419 
L 374.259914 87.523952 
L 375.286372 86.786942 
L 376.872715 86.207527 
L 376.872715 86.207527 
" clip-path="url(#p06593a7a0b)" style="fill: none; stroke: #ff0000; stroke-width: 0.75; stroke-linecap: round"/>
   </g>
   <g id="patch_6">
    <path d="M 38.204771 125.571349 
L 38.204771 74.067741 
" style="fill: none; stroke: #000000; stroke-linejoin: miter; stroke-linecap: square"/>
   </g>
   <g id="patch_7">
    <path d="M 38.204771 125.571349 
L 392.99976 125.571349 
" style="fill: none; stroke: #000000; stroke-linejoin: miter; stroke-linecap: square"/>
   </g>
  </g>
  <g id="axes_3">
   <g id="patch_8">
    <path d="M 38.204771 185.625242 
L 392.99976 185.625242 
L 392.99976 134.121634 
L 38.204771 134.121634 
z
" style="fill: #ffffff"/>
   </g>
   <g id="matplotlib.axis_5">
    <g id="xtick_17">
     <g id="line2d_54">
      <path d="M 54.331816 185.625242 
L 54.331816 134.121634 
" clip-path="url(#p64635b7270)" style="fill: none; stroke: #b0b0b0; stroke-width: 0.8; stroke-linecap: round"/>
     </g>
     <g id="line2d_55"/>
    </g>
    <g id="xtick_18">
     <g id="line2d_56">
      <path d="M 101.303681 185.625242 
L 101.303681 134.121634 
" clip-path="url(#p64635b7270)" style="fill: none; stroke: #b0b0b0; stroke-width: 0.8; stroke-linecap: round"/>
     </g>
     <g id="line2d_57"/>
    </g>
    <g id="xtick_19">
     <g id="line2d_58">
      <path d="M 148.275545 185.625242 
L 148.275545 134.121634 
" clip-path="url(#p64635b7270)" style="fill: none; stroke: #b0b0b0; stroke-width: 0.8; stroke-linecap: round"/>
     </g>
     <g id="line2d_59"/>
    </g>
    <g id="xtick_20">
     <g id="line2d_60">
      <path d="M 195.24741 185.625242 
L 195.24741 134.121634 
" clip-path="url(#p64635b7270)" style="fill: none; stroke: #b0b0b0; stroke-width: 0.8; stroke-linecap: round"/>
     </g>
     <g id="line2d_61"/>
    </g>
    <g id="xtick_21">
     <g id="line2d_62">
      <path d="M 242.219274 185.625242 
L 242.219274 134.121634 
" clip-path="url(#p64635b7270)" style="fill: none; stroke: #b0b0b0; stroke-width: 0.8; stroke-linecap: round"/>
     </g>
     <g id="line2d_63"/>
    </g>
    <g id="xtick_22">
     <g id="line2d_64">
      <path d="M 289.191139 185.625242 
L 289.191139 134.121634 
" clip-path="url(#p64635b7270)" style="fill: none; stroke: #b0b0b0; stroke-width: 0.8; stroke-linecap: round"/>
     </g>
     <g id="line2d_65"/>
    </g>
    <g id="xtick_23">
     <g id="line2d_66">
      <path d="M 336.163003 185.625242 
L 336.163003 134.121634 
" clip-path="url(#p64635b7270)" style="fill: none; stroke: #b0b0b0; stroke-width: 0.8; stroke-linecap: round"/>
     </g>
     <g id="line2d_67"/>
    </g>
    <g id="xtick_24">
     <g id="line2d_68">
      <path d="M 383.134868 185.625242 
L 383.134868 134.121634 
" clip-path="url(#p64635b7270)" style="fill: none; stroke: #b0b0b0; stroke-width: 0.8; stroke-linecap: round"/>
     </g>
     <g id="line2d_69"/>
    </g>
   </g>
   <g id="matplotlib.axis_6">
    <g id="ytick_7">
     <g id="line2d_70">
      <path d="M 38.204771 182.89508 
L 392.99976 182.89508 
" clip-path="url(#p64635b7270)" style="fill: none; stroke: #b0b0b0; stroke-width: 0.8; stroke-linecap: round"/>
     </g>
     <g id="line2d_71"/>
     <g id="text_12">
      <!-- −50 -->
      <g style="fill: #262626" transform="translate(15.710552 186.314377) scale(0.09 -0.09)">
       <use xlink:href="#DejaVuSerif-2212"/>
       <use xlink:href="#DejaVuSerif-35" x="83.789062"/>
       <use xlink:href="#DejaVuSerif-30" x="147.412109"/>
      </g>
     </g>
    </g>
    <g id="ytick_8">
     <g id="line2d_72">
      <path d="M 38.204771 161.913092 
L 392.99976 161.913092 
" clip-path="url(#p64635b7270)" style="fill: none; stroke: #b0b0b0; stroke-width: 0.8; stroke-linecap: round"/>
     </g>
     <g id="line2d_73"/>
     <g id="text_13">
      <!-- 0 -->
      <g style="fill: #262626" transform="translate(28.978521 165.332389) scale(0.09 -0.09)">
       <use xlink:href="#DejaVuSerif-30"/>
      </g>
     </g>
    </g>
    <g id="ytick_9">
     <g id="line2d_74">
      <path d="M 38.204771 140.931104 
L 392.99976 140.931104 
" clip-path="url(#p64635b7270)" style="fill: none; stroke: #b0b0b0; stroke-width: 0.8; stroke-linecap: round"/>
     </g>
     <g id="line2d_75"/>
     <g id="text_14">
      <!-- 50 -->
      <g style="fill: #262626" transform="translate(23.252271 144.350401) scale(0.09 -0.09)">
       <use xlink:href="#DejaVuSerif-35"/>
       <use xlink:href="#DejaVuSerif-30" x="63.623047"/>
      </g>
     </g>
    </g>
    <g id="text_15">
     <!-- $Y_H(v)$ -->
     <g style="fill: #262626" transform="translate(9.838834 171.303438) rotate(-90) scale(0.09 -0.09)">
      <defs>
       <path id="DejaVuSans-Oblique-59" d="M 403 4666 
L 1081 4666 
L 1953 2747 
L 3616 4666 
L 4325 4666 
L 2209 2222 
L 1778 0 
L 1147 0 
L 1575 2222 
L 403 4666 
z
" transform="scale(0.015625)"/>
      </defs>
      <use xlink:href="#DejaVuSans-Oblique-59" transform="translate(0 0.125)"/>
      <use xlink:href="#DejaVuSans-Oblique-48" transform="translate(61.083984 -16.28125) scale(0.7)"/>
      <use xlink:href="#DejaVuSans-28" transform="translate(116.455078 0.125)"/>
      <use xlink:href="#DejaVuSans-Oblique-76" transform="translate(155.46875 0.125)"/>
      <use xlink:href="#DejaVuSans-29" transform="translate(214.648438 0.125)"/>
     </g>
    </g>
   </g>
   <g id="line2d_76">
    <path d="M 54.331816 161.907686 
L 56.618017 161.993947 
L 58.577617 162.333626 
L 63.336647 163.437933 
L 69.68202 165.017201 
L 71.175048 165.498077 
L 73.507906 165.90264 
L 75.420849 165.994521 
L 76.913878 166.400197 
L 79.573336 167.047477 
L 80.599793 167.1602 
L 82.046165 167.116866 
L 85.918709 167.766267 
L 87.878309 167.827296 
L 89.091395 167.76641 
L 92.590682 167.896334 
L 94.130368 167.614568 
L 94.736911 167.389592 
L 95.949997 166.946728 
L 98.469483 166.436965 
L 100.009169 165.867193 
L 103.135198 164.605554 
L 106.54117 163.586124 
L 112.326657 161.700005 
L 115.872601 160.873449 
L 118.205459 160.323715 
L 120.258373 159.765899 
L 122.731203 159.366042 
L 124.177574 159.222397 
L 129.589804 158.343229 
L 131.082833 158.216857 
L 134.768748 157.593109 
L 136.635034 157.530066 
L 137.661491 157.510981 
L 142.047264 156.8993 
L 143.680264 156.90757 
L 144.800036 156.920366 
L 150.072294 156.348944 
L 152.405152 156.457682 
L 155.624495 156.072397 
L 157.444124 156.113577 
L 158.470582 156.219985 
L 159.637011 156.095944 
L 162.10984 155.881054 
L 164.489354 156.005904 
L 165.515812 156.148814 
L 166.588926 156.033741 
L 168.408555 155.778985 
L 170.321499 155.766282 
L 171.207985 155.91587 
L 172.467728 156.288254 
L 173.680814 156.342771 
L 176.480243 156.56443 
L 178.346529 157.019106 
L 179.606272 157.474143 
L 182.825616 158.380264 
L 185.485073 159.283064 
L 186.838131 159.609946 
L 188.65776 160.047633 
L 192.763589 161.272153 
L 196.402847 162.100291 
L 205.780935 163.915711 
L 208.533707 164.250833 
L 211.659736 164.72884 
L 213.619337 164.881538 
L 215.019051 165.066225 
L 219.078224 165.580641 
L 220.384624 165.596118 
L 221.551053 165.66785 
L 226.216768 166.253257 
L 227.196568 166.213271 
L 228.269683 166.187217 
L 233.775227 166.741896 
L 235.36157 166.611507 
L 237.274513 166.918435 
L 239.094142 167.041139 
L 241.193714 166.960517 
L 242.220171 166.886939 
L 243.433257 167.080523 
L 244.832972 167.195101 
L 247.16583 167.275488 
L 248.098973 167.150811 
L 248.985459 167.074879 
L 250.245202 167.203314 
L 252.251459 167.445632 
L 254.491003 167.437524 
L 256.730546 167.168016 
L 258.316889 167.142233 
L 260.976347 166.810821 
L 262.142776 166.492629 
L 263.589148 166.17988 
L 265.688719 165.783423 
L 271.054292 164.136416 
L 273.247178 163.668324 
L 279.592551 162.022035 
L 289.157267 160.163822 
L 290.463668 160.102757 
L 292.003354 159.876026 
L 295.082726 159.365207 
L 297.182298 159.221155 
L 298.768641 159.015418 
L 301.754699 158.545767 
L 304.087556 158.478137 
L 305.300642 158.415945 
L 307.353557 158.019375 
L 308.6133 157.890384 
L 310.899501 157.824241 
L 312.39253 157.85118 
L 316.078445 157.318379 
L 317.571474 157.360027 
L 318.551274 157.403266 
L 320.09096 157.178066 
L 321.304046 157.021678 
L 324.476732 157.008995 
L 325.596504 157.08467 
L 331.148705 156.65201 
L 333.434906 156.77742 
L 337.167478 156.51638 
L 338.847135 156.672079 
L 339.640307 156.75205 
L 340.620107 156.609062 
L 341.926507 156.444815 
L 343.419536 156.468679 
L 345.472451 156.872106 
L 346.545566 157.147643 
L 348.131909 157.247768 
L 349.904881 157.433784 
L 351.351252 157.815164 
L 352.844281 158.415874 
L 354.057367 158.795569 
L 366.888084 161.949037 
L 369.827485 162.532848 
L 373.420086 163.210067 
L 375.566315 163.558959 
L 376.872715 163.806614 
L 376.872715 163.806614 
" clip-path="url(#p64635b7270)" style="fill: none; stroke: #0000ff; stroke-width: 0.75; stroke-linecap: round"/>
   </g>
   <g id="line2d_77">
    <path d="M 54.331816 161.907083 
L 56.524702 161.991285 
L 58.344331 162.326939 
L 62.450161 163.380666 
L 65.016304 164.003608 
L 68.795534 164.988702 
L 71.501649 165.974032 
L 73.461249 166.346617 
L 75.654135 166.505048 
L 80.506479 167.754974 
L 81.999508 167.689406 
L 83.025965 167.971055 
L 84.472337 168.289603 
L 86.38528 168.471178 
L 87.738338 168.513724 
L 88.904767 168.405572 
L 90.677738 168.597491 
L 92.077453 168.614785 
L 93.337196 168.417216 
L 94.690254 168.024027 
L 95.949997 167.508174 
L 98.376169 166.97076 
L 99.682569 166.461917 
L 103.835056 164.714632 
L 105.374742 164.201573 
L 112.793229 161.540394 
L 115.592658 160.813493 
L 118.01883 160.212723 
L 120.351688 159.505436 
L 122.544574 159.088245 
L 124.177574 158.92228 
L 129.543147 157.944763 
L 130.849547 157.847057 
L 132.062633 157.55031 
L 133.835605 157.219249 
L 136.588377 157.037093 
L 137.661491 157.019975 
L 141.95395 156.347141 
L 143.540293 156.32501 
L 144.520093 156.384675 
L 145.54655 156.233145 
L 147.926065 155.82097 
L 150.398894 155.783054 
L 151.565323 155.9474 
L 152.778409 155.78252 
L 155.251238 155.443748 
L 157.35081 155.443454 
L 158.283953 155.586506 
L 159.217096 155.507212 
L 162.156497 155.208765 
L 164.582669 155.370143 
L 165.609126 155.505315 
L 166.495612 155.394763 
L 168.968441 155.051015 
L 170.834727 155.129197 
L 171.487927 155.370322 
L 172.514385 155.667941 
L 173.587499 155.718699 
L 175.8737 155.879617 
L 177.739986 156.225375 
L 178.439843 156.520675 
L 179.652929 156.991792 
L 182.825616 157.986217 
L 185.20513 158.882503 
L 186.604845 159.306705 
L 188.704417 159.856478 
L 192.530303 161.129661 
L 195.189761 161.839473 
L 203.681363 163.791926 
L 206.060878 164.160913 
L 208.020478 164.407459 
L 211.053193 164.947048 
L 213.619337 165.212635 
L 214.925737 165.400088 
L 217.678509 165.829487 
L 220.104681 166.024197 
L 221.27111 166.042209 
L 223.044082 166.413163 
L 224.443796 166.620759 
L 227.243225 166.686343 
L 228.129711 166.651942 
L 229.436111 166.86573 
L 232.328855 167.240045 
L 233.821884 167.272645 
L 235.174941 167.123411 
L 236.248056 167.289265 
L 238.860856 167.607123 
L 241.007085 167.562766 
L 242.126857 167.434437 
L 243.199972 167.61136 
L 244.506372 167.759843 
L 247.772373 167.806028 
L 248.985459 167.650618 
L 250.198545 167.783652 
L 252.018174 168.051048 
L 254.630974 168.027539 
L 256.310632 167.738908 
L 258.596832 167.698055 
L 261.629547 167.192656 
L 263.029262 166.752667 
L 266.201948 166.01797 
L 270.494406 164.482781 
L 272.920578 163.959975 
L 275.626693 163.090706 
L 277.399665 162.564311 
L 283.231809 161.276947 
L 285.284724 160.81499 
L 288.644039 160.05305 
L 289.903782 159.926934 
L 291.303496 159.789271 
L 296.575755 158.950276 
L 298.162098 158.810827 
L 302.781156 158.084191 
L 303.900928 158.083109 
L 304.927385 158.065564 
L 306.140471 157.848589 
L 308.333357 157.464087 
L 310.899501 157.368175 
L 312.345872 157.405735 
L 313.465644 157.115016 
L 314.632073 156.909586 
L 317.244873 156.798406 
L 318.644588 156.89099 
L 323.310303 156.370271 
L 324.336761 156.431638 
L 325.363218 156.565168 
L 326.529647 156.39369 
L 328.022676 156.181835 
L 330.588819 156.072574 
L 331.521962 156.142431 
L 332.54842 156.29853 
L 333.761506 156.158249 
L 336.420963 155.873786 
L 338.893792 156.099526 
L 339.733621 156.171172 
L 340.620107 156.017458 
L 341.87985 155.836771 
L 343.512851 155.877821 
L 345.379137 156.2749 
L 346.63888 156.630315 
L 348.738452 156.779929 
L 350.371452 157.046712 
L 351.72451 157.488798 
L 352.657653 157.933903 
L 353.730767 158.349235 
L 356.343568 159.056253 
L 368.194485 162.206709 
L 375.053086 163.636817 
L 376.872715 164.017815 
L 376.872715 164.017815 
" clip-path="url(#p64635b7270)" style="fill: none; stroke: #008000; stroke-width: 0.75; stroke-linecap: round"/>
   </g>
   <g id="line2d_78">
    <path d="M 54.331816 161.899254 
L 55.918159 161.962805 
L 56.991274 162.244431 
L 58.297674 162.841843 
L 61.563675 164.668913 
L 63.196675 165.734902 
L 68.702219 168.907287 
L 71.081734 171.036613 
L 73.087992 172.014367 
L 73.647878 172.12163 
L 74.860964 172.143497 
L 75.514164 172.411271 
L 76.493964 173.082158 
L 78.593536 174.520453 
L 80.31985 175.380274 
L 80.786422 175.289244 
L 81.672908 175.110177 
L 82.326108 175.38181 
L 84.845594 176.700069 
L 85.872052 176.886149 
L 87.645023 177.156359 
L 88.438195 176.878855 
L 89.138052 176.90453 
L 90.024538 177.160482 
L 91.237624 177.405511 
L 91.844167 177.375021 
L 92.683996 177.201391 
L 93.570482 176.778768 
L 94.456968 176.247909 
L 96.043311 174.759554 
L 98.096226 173.753285 
L 99.122683 172.9429 
L 100.289112 171.730236 
L 103.27517 168.710524 
L 105.048142 167.461537 
L 112.559943 161.211028 
L 114.706172 159.901411 
L 115.965915 159.207527 
L 117.36563 158.446061 
L 118.485402 157.612928 
L 119.791802 156.671548 
L 121.658088 155.695547 
L 122.497917 155.413371 
L 123.897631 155.138506 
L 124.73746 154.742996 
L 127.816832 153.243314 
L 129.49649 152.774338 
L 130.522947 152.662325 
L 131.502747 152.219335 
L 133.042433 151.368024 
L 134.675434 150.878526 
L 136.168463 150.584642 
L 137.614834 150.660211 
L 138.547977 150.233404 
L 140.507578 149.440696 
L 141.95395 149.095024 
L 143.26035 148.945998 
L 144.333464 149.191232 
L 144.986665 149.07179 
L 146.712979 148.246715 
L 147.646122 147.936517 
L 149.045837 147.739003 
L 150.30558 147.753515 
L 151.518666 148.174118 
L 152.078552 148.06906 
L 153.058352 147.672608 
L 154.784667 147.103317 
L 156.69761 146.842183 
L 157.164181 146.916114 
L 158.190639 147.334597 
L 158.797182 147.289374 
L 162.43644 146.484113 
L 164.022783 146.543529 
L 165.749098 147.141445 
L 166.402298 146.94549 
L 167.988641 146.301158 
L 169.435013 146.092132 
L 170.414813 146.191192 
L 171.021356 146.401858 
L 172.654356 147.57092 
L 173.820785 147.664219 
L 175.827043 148.006472 
L 176.8535 148.378255 
L 177.973272 148.990487 
L 180.072844 150.827756 
L 181.845815 151.939459 
L 186.138273 155.657589 
L 188.937703 157.370045 
L 192.157046 159.834419 
L 193.696732 160.862694 
L 195.656333 161.995885 
L 205.407678 166.917814 
L 206.247506 167.114366 
L 207.273964 167.346049 
L 208.440393 167.855814 
L 211.986336 169.237993 
L 213.106108 169.520936 
L 213.992594 169.584678 
L 215.252337 170.086239 
L 216.885337 170.724407 
L 220.058024 171.387007 
L 221.037824 171.364694 
L 221.737681 171.59907 
L 224.397139 172.749679 
L 227.149911 172.934516 
L 227.943083 172.808935 
L 228.549626 172.944095 
L 229.762712 173.45273 
L 230.975798 173.920417 
L 233.075369 174.301998 
L 233.72857 174.289013 
L 235.221598 173.917629 
L 235.734827 174.072702 
L 237.927713 174.886166 
L 239.793999 175.087254 
L 240.867114 174.99632 
L 241.940229 174.619213 
L 242.546771 174.716771 
L 244.739658 175.414398 
L 246.83923 175.681331 
L 247.725715 175.509926 
L 248.565544 175.159042 
L 249.312059 175.160991 
L 250.151887 175.413924 
L 252.018174 176.048454 
L 254.257717 176.092527 
L 254.724288 175.94036 
L 255.890717 175.371791 
L 256.777203 175.370785 
L 257.710346 175.414699 
L 258.550175 175.247356 
L 260.60309 174.622279 
L 261.816176 173.906082 
L 262.609347 173.297336 
L 263.449176 172.892899 
L 265.502091 171.963133 
L 266.388577 171.190676 
L 269.841206 168.144829 
L 270.867663 167.683494 
L 272.314035 166.997882 
L 274.04035 165.82508 
L 277.492979 163.360809 
L 282.06538 160.942698 
L 285.751295 159.115546 
L 288.45741 157.714206 
L 289.530525 157.35399 
L 291.116868 157.0965 
L 292.329954 156.529022 
L 294.569497 155.589675 
L 295.735926 155.214367 
L 296.902355 155.057027 
L 298.068784 154.801938 
L 298.95527 154.398465 
L 300.91487 153.549038 
L 302.267927 153.186688 
L 303.620985 153.046832 
L 304.647442 153.092536 
L 305.580585 152.860271 
L 306.700357 152.254016 
L 307.726814 151.823803 
L 310.246301 151.285868 
L 312.39253 151.515369 
L 313.185701 151.04387 
L 314.02553 150.574478 
L 314.912016 150.335275 
L 316.498359 150.11814 
L 317.571474 150.25811 
L 318.178017 150.383169 
L 318.644588 150.347477 
L 320.09096 149.792323 
L 320.930789 149.452029 
L 321.72396 149.343882 
L 323.123675 149.175854 
L 323.730218 149.137144 
L 324.243446 149.24232 
L 325.129932 149.591991 
L 325.596504 149.553248 
L 326.48299 149.223578 
L 327.742733 148.764864 
L 328.675876 148.624787 
L 329.935619 148.49627 
L 331.102048 148.435403 
L 331.568619 148.651399 
L 332.22182 148.946322 
L 332.781705 148.955546 
L 333.761506 148.660017 
L 335.954392 148.015246 
L 336.700906 148.043321 
L 337.913992 148.117526 
L 338.28725 148.191848 
L 339.686964 148.697429 
L 340.340164 148.492162 
L 341.506593 147.970155 
L 342.299765 147.874247 
L 342.952965 147.895142 
L 343.792794 148.127823 
L 345.33248 148.891185 
L 346.498908 149.695283 
L 347.198766 149.876555 
L 348.59848 150.063596 
L 350.044852 150.518693 
L 351.164624 151.27038 
L 352.237738 152.258031 
L 353.35751 153.430218 
L 354.897196 154.461046 
L 357.416682 156.020033 
L 360.07614 157.78776 
L 363.108855 159.835238 
L 366.001598 161.608498 
L 374.1666 165.465266 
L 375.892915 166.280124 
L 376.872715 166.760149 
L 376.872715 166.760149 
" clip-path="url(#p64635b7270)" style="fill: none; stroke: #ff0000; stroke-width: 0.75; stroke-linecap: round"/>
   </g>
   <g id="patch_9">
    <path d="M 38.204771 185.625242 
L 38.204771 134.121634 
" style="fill: none; stroke: #000000; stroke-linejoin: miter; stroke-linecap: square"/>
   </g>
   <g id="patch_10">
    <path d="M 38.204771 185.625242 
L 392.99976 185.625242 
" style="fill: none; stroke: #000000; stroke-linejoin: miter; stroke-linecap: square"/>
   </g>
  </g>
  <g id="axes_4">
   <g id="patch_11">
    <path d="M 38.204771 245.679135 
L 392.99976 245.679135 
L 392.99976 194.175528 
L 38.204771 194.175528 
z
" style="fill: #ffffff"/>
   </g>
   <g id="matplotlib.axis_7">
    <g id="xtick_25">
     <g id="line2d_79">
      <path d="M 54.331816 245.679135 
L 54.331816 194.175528 
" clip-path="url(#p26c2785098)" style="fill: none; stroke: #b0b0b0; stroke-width: 0.8; stroke-linecap: round"/>
     </g>
     <g id="line2d_80"/>
     <g id="text_16">
      <!-- 0 -->
      <g style="fill: #262626" transform="translate(51.468691 256.017729) scale(0.09 -0.09)">
       <use xlink:href="#DejaVuSerif-30"/>
      </g>
     </g>
    </g>
    <g id="xtick_26">
     <g id="line2d_81">
      <path d="M 101.303681 245.679135 
L 101.303681 194.175528 
" clip-path="url(#p26c2785098)" style="fill: none; stroke: #b0b0b0; stroke-width: 0.8; stroke-linecap: round"/>
     </g>
     <g id="line2d_82"/>
     <g id="text_17">
      <!-- 10 -->
      <g style="fill: #262626" transform="translate(95.577431 256.017729) scale(0.09 -0.09)">
       <defs>
        <path id="DejaVuSerif-31" d="M 909 0 
L 909 331 
L 1722 331 
L 1722 4213 
L 781 3603 
L 781 4013 
L 1919 4750 
L 2350 4750 
L 2350 331 
L 3163 331 
L 3163 0 
L 909 0 
z
" transform="scale(0.015625)"/>
       </defs>
       <use xlink:href="#DejaVuSerif-31"/>
       <use xlink:href="#DejaVuSerif-30" x="63.623047"/>
      </g>
     </g>
    </g>
    <g id="xtick_27">
     <g id="line2d_83">
      <path d="M 148.275545 245.679135 
L 148.275545 194.175528 
" clip-path="url(#p26c2785098)" style="fill: none; stroke: #b0b0b0; stroke-width: 0.8; stroke-linecap: round"/>
     </g>
     <g id="line2d_84"/>
     <g id="text_18">
      <!-- 20 -->
      <g style="fill: #262626" transform="translate(142.549295 256.017729) scale(0.09 -0.09)">
       <defs>
        <path id="DejaVuSerif-32" d="M 819 3553 
L 469 3553 
L 469 4384 
Q 803 4563 1142 4656 
Q 1481 4750 1806 4750 
Q 2534 4750 2956 4397 
Q 3378 4044 3378 3438 
Q 3378 2753 2422 1800 
Q 2347 1728 2309 1691 
L 1131 513 
L 3078 513 
L 3078 1088 
L 3444 1088 
L 3444 0 
L 434 0 
L 434 341 
L 1850 1753 
Q 2319 2222 2519 2614 
Q 2719 3006 2719 3438 
Q 2719 3909 2473 4175 
Q 2228 4441 1797 4441 
Q 1350 4441 1106 4219 
Q 863 3997 819 3553 
z
" transform="scale(0.015625)"/>
       </defs>
       <use xlink:href="#DejaVuSerif-32"/>
       <use xlink:href="#DejaVuSerif-30" x="63.623047"/>
      </g>
     </g>
    </g>
    <g id="xtick_28">
     <g id="line2d_85">
      <path d="M 195.24741 245.679135 
L 195.24741 194.175528 
" clip-path="url(#p26c2785098)" style="fill: none; stroke: #b0b0b0; stroke-width: 0.8; stroke-linecap: round"/>
     </g>
     <g id="line2d_86"/>
     <g id="text_19">
      <!-- 30 -->
      <g style="fill: #262626" transform="translate(189.52116 256.017729) scale(0.09 -0.09)">
       <defs>
        <path id="DejaVuSerif-33" d="M 622 4469 
Q 988 4606 1323 4678 
Q 1659 4750 1953 4750 
Q 2638 4750 3022 4454 
Q 3406 4159 3406 3634 
Q 3406 3213 3140 2930 
Q 2875 2647 2388 2547 
Q 2963 2466 3280 2130 
Q 3597 1794 3597 1259 
Q 3597 606 3158 257 
Q 2719 -91 1894 -91 
Q 1528 -91 1179 -12 
Q 831 66 488 225 
L 488 1131 
L 838 1131 
Q 869 681 1141 450 
Q 1413 219 1906 219 
Q 2384 219 2661 495 
Q 2938 772 2938 1253 
Q 2938 1803 2653 2086 
Q 2369 2369 1819 2369 
L 1522 2369 
L 1522 2688 
L 1678 2688 
Q 2225 2688 2498 2914 
Q 2772 3141 2772 3597 
Q 2772 4006 2547 4223 
Q 2322 4441 1900 4441 
Q 1478 4441 1245 4241 
Q 1013 4041 972 3647 
L 622 3647 
L 622 4469 
z
" transform="scale(0.015625)"/>
       </defs>
       <use xlink:href="#DejaVuSerif-33"/>
       <use xlink:href="#DejaVuSerif-30" x="63.623047"/>
      </g>
     </g>
    </g>
    <g id="xtick_29">
     <g id="line2d_87">
      <path d="M 242.219274 245.679135 
L 242.219274 194.175528 
" clip-path="url(#p26c2785098)" style="fill: none; stroke: #b0b0b0; stroke-width: 0.8; stroke-linecap: round"/>
     </g>
     <g id="line2d_88"/>
     <g id="text_20">
      <!-- 40 -->
      <g style="fill: #262626" transform="translate(236.493024 256.017729) scale(0.09 -0.09)">
       <defs>
        <path id="DejaVuSerif-34" d="M 2234 1581 
L 2234 4063 
L 641 1581 
L 2234 1581 
z
M 3609 0 
L 1484 0 
L 1484 331 
L 2234 331 
L 2234 1247 
L 197 1247 
L 197 1588 
L 2241 4750 
L 2859 4750 
L 2859 1581 
L 3750 1581 
L 3750 1247 
L 2859 1247 
L 2859 331 
L 3609 331 
L 3609 0 
z
" transform="scale(0.015625)"/>
       </defs>
       <use xlink:href="#DejaVuSerif-34"/>
       <use xlink:href="#DejaVuSerif-30" x="63.623047"/>
      </g>
     </g>
    </g>
    <g id="xtick_30">
     <g id="line2d_89">
      <path d="M 289.191139 245.679135 
L 289.191139 194.175528 
" clip-path="url(#p26c2785098)" style="fill: none; stroke: #b0b0b0; stroke-width: 0.8; stroke-linecap: round"/>
     </g>
     <g id="line2d_90"/>
     <g id="text_21">
      <!-- 50 -->
      <g style="fill: #262626" transform="translate(283.464889 256.017729) scale(0.09 -0.09)">
       <use xlink:href="#DejaVuSerif-35"/>
       <use xlink:href="#DejaVuSerif-30" x="63.623047"/>
      </g>
     </g>
    </g>
    <g id="xtick_31">
     <g id="line2d_91">
      <path d="M 336.163003 245.679135 
L 336.163003 194.175528 
" clip-path="url(#p26c2785098)" style="fill: none; stroke: #b0b0b0; stroke-width: 0.8; stroke-linecap: round"/>
     </g>
     <g id="line2d_92"/>
     <g id="text_22">
      <!-- 60 -->
      <g style="fill: #262626" transform="translate(330.436753 256.017729) scale(0.09 -0.09)">
       <defs>
        <path id="DejaVuSerif-36" d="M 2094 219 
Q 2534 219 2771 542 
Q 3009 866 3009 1472 
Q 3009 2078 2771 2401 
Q 2534 2725 2094 2725 
Q 1647 2725 1412 2412 
Q 1178 2100 1178 1509 
Q 1178 888 1415 553 
Q 1653 219 2094 219 
z
M 1075 2569 
Q 1288 2803 1556 2918 
Q 1825 3034 2163 3034 
Q 2859 3034 3264 2615 
Q 3669 2197 3669 1472 
Q 3669 763 3233 336 
Q 2797 -91 2069 -91 
Q 1278 -91 853 498 
Q 428 1088 428 2181 
Q 428 3406 931 4078 
Q 1434 4750 2350 4750 
Q 2597 4750 2869 4703 
Q 3141 4656 3425 4563 
L 3425 3794 
L 3072 3794 
Q 3034 4109 2831 4275 
Q 2628 4441 2284 4441 
Q 1678 4441 1381 3981 
Q 1084 3522 1075 2569 
z
" transform="scale(0.015625)"/>
       </defs>
       <use xlink:href="#DejaVuSerif-36"/>
       <use xlink:href="#DejaVuSerif-30" x="63.623047"/>
      </g>
     </g>
    </g>
    <g id="xtick_32">
     <g id="line2d_93">
      <path d="M 383.134868 245.679135 
L 383.134868 194.175528 
" clip-path="url(#p26c2785098)" style="fill: none; stroke: #b0b0b0; stroke-width: 0.8; stroke-linecap: round"/>
     </g>
     <g id="line2d_94"/>
     <g id="text_23">
      <!-- 70 -->
      <g style="fill: #262626" transform="translate(377.408618 256.017729) scale(0.09 -0.09)">
       <defs>
        <path id="DejaVuSerif-37" d="M 3609 4347 
L 1784 0 
L 1319 0 
L 3059 4153 
L 903 4153 
L 903 3578 
L 538 3578 
L 538 4666 
L 3609 4666 
L 3609 4347 
z
" transform="scale(0.015625)"/>
       </defs>
       <use xlink:href="#DejaVuSerif-37"/>
       <use xlink:href="#DejaVuSerif-30" x="63.623047"/>
      </g>
     </g>
    </g>
    <g id="text_24">
     <!-- Time [s] -->
     <g style="fill: #262626" transform="translate(196.98 268.728041) scale(0.09 -0.09)">
      <defs>
       <path id="DejaVuSerif-54" d="M 1222 0 
L 1222 331 
L 1819 331 
L 1819 4294 
L 447 4294 
L 447 3566 
L 63 3566 
L 63 4666 
L 4206 4666 
L 4206 3566 
L 3822 3566 
L 3822 4294 
L 2450 4294 
L 2450 331 
L 3047 331 
L 3047 0 
L 1222 0 
z
" transform="scale(0.015625)"/>
       <path id="DejaVuSerif-20" transform="scale(0.015625)"/>
       <path id="DejaVuSerif-5b" d="M 550 4863 
L 2003 4863 
L 2003 4531 
L 1147 4531 
L 1147 -513 
L 2003 -513 
L 2003 -844 
L 550 -844 
L 550 4863 
z
" transform="scale(0.015625)"/>
       <path id="DejaVuSerif-73" d="M 359 184 
L 359 959 
L 691 959 
Q 703 588 923 403 
Q 1144 219 1575 219 
Q 1963 219 2166 364 
Q 2369 509 2369 788 
Q 2369 1006 2220 1140 
Q 2072 1275 1594 1428 
L 1178 1569 
Q 750 1706 558 1912 
Q 366 2119 366 2438 
Q 366 2894 700 3153 
Q 1034 3413 1625 3413 
Q 1888 3413 2178 3344 
Q 2469 3275 2778 3144 
L 2778 2419 
L 2447 2419 
Q 2434 2741 2221 2922 
Q 2009 3103 1644 3103 
Q 1281 3103 1095 2975 
Q 909 2847 909 2591 
Q 909 2381 1050 2254 
Q 1191 2128 1613 1997 
L 2069 1856 
Q 2541 1709 2748 1489 
Q 2956 1269 2956 922 
Q 2956 450 2595 179 
Q 2234 -91 1600 -91 
Q 1278 -91 972 -22 
Q 666 47 359 184 
z
" transform="scale(0.015625)"/>
       <path id="DejaVuSerif-5d" d="M 1947 4863 
L 1947 -844 
L 494 -844 
L 494 -513 
L 1350 -513 
L 1350 4531 
L 494 4531 
L 494 4863 
L 1947 4863 
z
" transform="scale(0.015625)"/>
      </defs>
      <use xlink:href="#DejaVuSerif-54"/>
      <use xlink:href="#DejaVuSerif-69" x="66.699219"/>
      <use xlink:href="#DejaVuSerif-6d" x="98.681641"/>
      <use xlink:href="#DejaVuSerif-65" x="193.505859"/>
      <use xlink:href="#DejaVuSerif-20" x="252.685547"/>
      <use xlink:href="#DejaVuSerif-5b" x="284.472656"/>
      <use xlink:href="#DejaVuSerif-73" x="323.486328"/>
      <use xlink:href="#DejaVuSerif-5d" x="374.804688"/>
     </g>
    </g>
   </g>
   <g id="matplotlib.axis_8">
    <g id="ytick_10">
     <g id="line2d_95">
      <path d="M 38.204771 242.948973 
L 392.99976 242.948973 
" clip-path="url(#p26c2785098)" style="fill: none; stroke: #b0b0b0; stroke-width: 0.8; stroke-linecap: round"/>
     </g>
     <g id="line2d_96"/>
     <g id="text_25">
      <!-- −50 -->
      <g style="fill: #262626" transform="translate(15.710552 246.36827) scale(0.09 -0.09)">
       <use xlink:href="#DejaVuSerif-2212"/>
       <use xlink:href="#DejaVuSerif-35" x="83.789062"/>
       <use xlink:href="#DejaVuSerif-30" x="147.412109"/>
      </g>
     </g>
    </g>
    <g id="ytick_11">
     <g id="line2d_97">
      <path d="M 38.204771 221.966985 
L 392.99976 221.966985 
" clip-path="url(#p26c2785098)" style="fill: none; stroke: #b0b0b0; stroke-width: 0.8; stroke-linecap: round"/>
     </g>
     <g id="line2d_98"/>
     <g id="text_26">
      <!-- 0 -->
      <g style="fill: #262626" transform="translate(28.978521 225.386282) scale(0.09 -0.09)">
       <use xlink:href="#DejaVuSerif-30"/>
      </g>
     </g>
    </g>
    <g id="ytick_12">
     <g id="line2d_99">
      <path d="M 38.204771 200.984997 
L 392.99976 200.984997 
" clip-path="url(#p26c2785098)" style="fill: none; stroke: #b0b0b0; stroke-width: 0.8; stroke-linecap: round"/>
     </g>
     <g id="line2d_100"/>
     <g id="text_27">
      <!-- 50 -->
      <g style="fill: #262626" transform="translate(23.252271 204.404294) scale(0.09 -0.09)">
       <use xlink:href="#DejaVuSerif-35"/>
       <use xlink:href="#DejaVuSerif-30" x="63.623047"/>
      </g>
     </g>
    </g>
    <g id="text_28">
     <!-- $Y_H(r)$ -->
     <g style="fill: #262626" transform="translate(9.838834 230.547331) rotate(-90) scale(0.09 -0.09)">
      <use xlink:href="#DejaVuSans-Oblique-59" transform="translate(0 0.125)"/>
      <use xlink:href="#DejaVuSans-Oblique-48" transform="translate(61.083984 -16.28125) scale(0.7)"/>
      <use xlink:href="#DejaVuSans-28" transform="translate(116.455078 0.125)"/>
      <use xlink:href="#DejaVuSans-Oblique-72" transform="translate(155.46875 0.125)"/>
      <use xlink:href="#DejaVuSans-29" transform="translate(196.582031 0.125)"/>
     </g>
    </g>
   </g>
   <g id="line2d_101">
    <path d="M 54.331816 221.966985 
L 376.872715 221.966985 
L 376.872715 221.966985 
" clip-path="url(#p26c2785098)" style="fill: none; stroke: #0000ff; stroke-width: 0.75; stroke-linecap: round"/>
   </g>
   <g id="line2d_102">
    <path d="M 54.331816 221.966985 
L 376.872715 221.966985 
L 376.872715 221.966985 
" clip-path="url(#p26c2785098)" style="fill: none; stroke: #008000; stroke-width: 0.75; stroke-linecap: round"/>
   </g>
   <g id="line2d_103">
    <path d="M 54.331816 221.966985 
L 376.872715 221.966985 
L 376.872715 221.966985 
" clip-path="url(#p26c2785098)" style="fill: none; stroke: #ff0000; stroke-width: 0.75; stroke-linecap: round"/>
   </g>
   <g id="patch_12">
    <path d="M 38.204771 245.679135 
L 38.204771 194.175528 
" style="fill: none; stroke: #000000; stroke-linejoin: miter; stroke-linecap: square"/>
   </g>
   <g id="patch_13">
    <path d="M 38.204771 245.679135 
L 392.99976 245.679135 
" style="fill: none; stroke: #000000; stroke-linejoin: miter; stroke-linecap: square"/>
   </g>
  </g>
 </g>
 <defs>
  <clipPath id="p16960f2f37">
   <rect x="38.204771" y="14.013848" width="354.794989" height="51.503607"/>
  </clipPath>
  <clipPath id="p06593a7a0b">
   <rect x="38.204771" y="74.067741" width="354.794989" height="51.503607"/>
  </clipPath>
  <clipPath id="p64635b7270">
   <rect x="38.204771" y="134.121634" width="354.794989" height="51.503607"/>
  </clipPath>
  <clipPath id="p26c2785098">
   <rect x="38.204771" y="194.175528" width="354.794989" height="51.503607"/>
  </clipPath>
 </defs>
</svg>
