<?xml version="1.0" encoding="utf-8" standalone="no"?>
<!DOCTYPE svg PUBLIC "-//W3C//DTD SVG 1.1//EN"
  "http://www.w3.org/Graphics/SVG/1.1/DTD/svg11.dtd">
<svg xmlns:xlink="http://www.w3.org/1999/xlink" width="221.23975pt" height="245.546375pt" viewBox="0 0 221.23975 245.546375" xmlns="http://www.w3.org/2000/svg" version="1.1">
 <metadata>
  <rdf:RDF xmlns:dc="http://purl.org/dc/elements/1.1/" xmlns:cc="http://creativecommons.org/ns#" xmlns:rdf="http://www.w3.org/1999/02/22-rdf-syntax-ns#">
   <cc:Work>
    <dc:type rdf:resource="http://purl.org/dc/dcmitype/StillImage"/>
    <dc:date>2024-05-28T08:32:39.046256</dc:date>
    <dc:format>image/svg+xml</dc:format>
    <dc:creator>
     <cc:Agent>
      <dc:title>Matplotlib v3.8.2, https://matplotlib.org/</dc:title>
     </cc:Agent>
    </dc:creator>
   </cc:Work>
  </rdf:RDF>
 </metadata>
 <defs>
  <style type="text/css">*{stroke-linejoin: round; stroke-linecap: butt}</style>
 </defs>
 <g id="figure_1">
  <g id="patch_1">
   <path d="M 0 245.546375 
L 221.23975 245.546375 
L 221.23975 0 
L 0 0 
z
" style="fill: #ffffff"/>
  </g>
  <g id="axes_1">
   <g id="patch_2">
    <path d="M 47.465469 91.651706 
L 214.03975 91.651706 
L 214.03975 28.829059 
L 47.465469 28.829059 
z
" style="fill: #ffffff"/>
   </g>
   <g id="line2d_1">
    <path d="M 55.037027 60.531616 
L 55.966349 60.678857 
L 56.814776 61.029574 
L 57.663263 61.616323 
L 59.925866 63.675209 
L 63.683379 67.038466 
L 66.551957 69.287904 
L 69.218544 71.095058 
L 72.774057 73.20767 
L 78.592112 76.66112 
L 82.632464 78.992107 
L 83.521274 79.196537 
L 84.369745 79.164078 
L 85.177857 78.916158 
L 86.026284 78.418486 
L 86.874767 77.658551 
L 87.925234 76.383387 
L 89.985841 73.520646 
L 94.955426 66.063167 
L 98.753362 60.597661 
L 101.541106 56.977341 
L 104.32899 53.721559 
L 106.833924 51.128209 
L 109.419744 48.77614 
L 111.843928 46.864609 
L 114.672155 44.92733 
L 117.661983 43.138117 
L 121.702331 40.995718 
L 126.55071 38.655385 
L 132.489971 36.052664 
L 135.520243 34.876409 
L 138.025196 34.130662 
L 140.368586 33.657283 
L 142.75237 33.400364 
L 143.600841 33.514773 
L 144.449312 33.858926 
L 145.338158 34.470669 
L 146.267448 35.38914 
L 147.27754 36.71509 
L 148.408821 38.586141 
L 151.439129 44.125737 
L 155.196553 50.898943 
L 157.499596 54.579755 
L 159.802513 57.827769 
L 162.226773 60.866419 
L 165.014537 63.999878 
L 167.681128 66.672774 
L 170.953794 69.61559 
L 174.590081 72.604208 
L 177.741591 74.869692 
L 181.216262 77.10356 
L 184.327279 78.845 
L 187.034301 80.106215 
L 190.549375 81.470157 
L 197.660304 84.015809 
L 201.862265 85.213425 
L 205.094508 85.902232 
L 205.740959 85.883824 
L 205.740959 85.883824 
" clip-path="url(#p5b869157f8)" style="fill: none; stroke: #000000; stroke-width: 0.6; stroke-linecap: round"/>
   </g>
   <g id="matplotlib.axis_1">
    <g id="xtick_1">
     <g id="line2d_2">
      <path d="M 55.037027 91.651706 
L 55.037027 28.829059 
" clip-path="url(#p5b869157f8)" style="fill: none; stroke: #b0b0b0; stroke-width: 0.1; stroke-linecap: round"/>
     </g>
     <g id="line2d_3"/>
    </g>
    <g id="xtick_2">
     <g id="line2d_4">
      <path d="M 95.440219 91.651706 
L 95.440219 28.829059 
" clip-path="url(#p5b869157f8)" style="fill: none; stroke: #b0b0b0; stroke-width: 0.1; stroke-linecap: round"/>
     </g>
     <g id="line2d_5"/>
    </g>
    <g id="xtick_3">
     <g id="line2d_6">
      <path d="M 135.843412 91.651706 
L 135.843412 28.829059 
" clip-path="url(#p5b869157f8)" style="fill: none; stroke: #b0b0b0; stroke-width: 0.1; stroke-linecap: round"/>
     </g>
     <g id="line2d_7"/>
    </g>
    <g id="xtick_4">
     <g id="line2d_8">
      <path d="M 176.246604 91.651706 
L 176.246604 28.829059 
" clip-path="url(#p5b869157f8)" style="fill: none; stroke: #b0b0b0; stroke-width: 0.1; stroke-linecap: round"/>
     </g>
     <g id="line2d_9"/>
    </g>
   </g>
   <g id="matplotlib.axis_2">
    <g id="ytick_1">
     <g id="line2d_10">
      <path d="M 47.465469 81.630121 
L 214.03975 81.630121 
" clip-path="url(#p5b869157f8)" style="fill: none; stroke: #b0b0b0; stroke-width: 0.1; stroke-linecap: round"/>
     </g>
     <g id="line2d_11"/>
     <g id="text_1">
      <!-- −5 -->
      <g style="fill: #262626" transform="translate(33.645938 84.289574) scale(0.07 -0.07)">
       <defs>
        <path id="DejaVuSerif-2212" d="M 678 2259 
L 4684 2259 
L 4684 1753 
L 678 1753 
L 678 2259 
z
" transform="scale(0.015625)"/>
        <path id="DejaVuSerif-35" d="M 3219 4666 
L 3219 4153 
L 1081 4153 
L 1081 2816 
Q 1244 2928 1461 2984 
Q 1678 3041 1947 3041 
Q 2703 3041 3140 2622 
Q 3578 2203 3578 1478 
Q 3578 738 3136 323 
Q 2694 -91 1894 -91 
Q 1572 -91 1234 -12 
Q 897 66 544 225 
L 544 1131 
L 897 1131 
Q 925 688 1179 453 
Q 1434 219 1894 219 
Q 2388 219 2653 544 
Q 2919 869 2919 1478 
Q 2919 2084 2655 2407 
Q 2391 2731 1894 2731 
Q 1613 2731 1398 2631 
Q 1184 2531 1019 2322 
L 750 2322 
L 750 4666 
L 3219 4666 
z
" transform="scale(0.015625)"/>
       </defs>
       <use xlink:href="#DejaVuSerif-2212"/>
       <use xlink:href="#DejaVuSerif-35" x="83.789062"/>
      </g>
     </g>
    </g>
    <g id="ytick_2">
     <g id="line2d_12">
      <path d="M 47.465469 60.390776 
L 214.03975 60.390776 
" clip-path="url(#p5b869157f8)" style="fill: none; stroke: #b0b0b0; stroke-width: 0.1; stroke-linecap: round"/>
     </g>
     <g id="line2d_13"/>
     <g id="text_2">
      <!-- 0 -->
      <g style="fill: #262626" transform="translate(39.511719 63.050229) scale(0.07 -0.07)">
       <defs>
        <path id="DejaVuSerif-30" d="M 2034 219 
Q 2513 219 2750 744 
Q 2988 1269 2988 2328 
Q 2988 3391 2750 3916 
Q 2513 4441 2034 4441 
Q 1556 4441 1318 3916 
Q 1081 3391 1081 2328 
Q 1081 1269 1318 744 
Q 1556 219 2034 219 
z
M 2034 -91 
Q 1275 -91 848 546 
Q 422 1184 422 2328 
Q 422 3475 848 4112 
Q 1275 4750 2034 4750 
Q 2797 4750 3222 4112 
Q 3647 3475 3647 2328 
Q 3647 1184 3222 546 
Q 2797 -91 2034 -91 
z
" transform="scale(0.015625)"/>
       </defs>
       <use xlink:href="#DejaVuSerif-30"/>
      </g>
     </g>
    </g>
    <g id="ytick_3">
     <g id="line2d_14">
      <path d="M 47.465469 39.151431 
L 214.03975 39.151431 
" clip-path="url(#p5b869157f8)" style="fill: none; stroke: #b0b0b0; stroke-width: 0.1; stroke-linecap: round"/>
     </g>
     <g id="line2d_15"/>
     <g id="text_3">
      <!-- 5 -->
      <g style="fill: #262626" transform="translate(39.511719 41.810884) scale(0.07 -0.07)">
       <use xlink:href="#DejaVuSerif-35"/>
      </g>
     </g>
    </g>
    <g id="text_4">
     <!-- $\beta$ $[deg]$ -->
     <g style="fill: #262626" transform="translate(12.59 72.945382) rotate(-90) scale(0.07 -0.07)">
      <defs>
       <path id="DejaVuSans-Oblique-3b2" d="M 872 216 
L 572 -1331 
L -6 -1331 
L 928 3478 
Q 1206 4903 2538 4903 
Q 3888 4903 3659 3700 
Q 3503 2844 2894 2531 
Q 3713 2250 3553 1416 
Q 3272 -69 1759 -66 
Q 1097 -63 872 216 
z
M 1019 966 
Q 1259 422 1875 425 
Q 2775 425 2966 1406 
Q 3138 2288 1675 2219 
L 1778 2750 
Q 2909 2731 3106 3750 
Q 3241 4438 2509 4434 
Q 1691 4434 1503 3459 
L 1019 966 
z
" transform="scale(0.015625)"/>
       <path id="DejaVuSerif-20" transform="scale(0.015625)"/>
       <path id="DejaVuSans-5b" d="M 550 4863 
L 1875 4863 
L 1875 4416 
L 1125 4416 
L 1125 -397 
L 1875 -397 
L 1875 -844 
L 550 -844 
L 550 4863 
z
" transform="scale(0.015625)"/>
       <path id="DejaVuSans-Oblique-64" d="M 2675 525 
Q 2444 222 2128 65 
Q 1813 -91 1428 -91 
Q 903 -91 598 267 
Q 294 625 294 1247 
Q 294 1766 478 2236 
Q 663 2706 1013 3078 
Q 1244 3325 1534 3454 
Q 1825 3584 2144 3584 
Q 2481 3584 2739 3421 
Q 2997 3259 3138 2956 
L 3513 4863 
L 4091 4863 
L 3144 0 
L 2566 0 
L 2675 525 
z
M 891 1350 
Q 891 897 1095 644 
Q 1300 391 1663 391 
Q 1931 391 2161 520 
Q 2391 650 2566 903 
Q 2750 1166 2856 1509 
Q 2963 1853 2963 2188 
Q 2963 2622 2758 2865 
Q 2553 3109 2194 3109 
Q 1922 3109 1687 2981 
Q 1453 2853 1288 2613 
Q 1106 2353 998 2009 
Q 891 1666 891 1350 
z
" transform="scale(0.015625)"/>
       <path id="DejaVuSans-Oblique-65" d="M 3078 2063 
Q 3088 2113 3092 2166 
Q 3097 2219 3097 2272 
Q 3097 2653 2873 2875 
Q 2650 3097 2266 3097 
Q 1838 3097 1509 2826 
Q 1181 2556 1013 2059 
L 3078 2063 
z
M 3578 1613 
L 903 1613 
Q 884 1494 878 1425 
Q 872 1356 872 1306 
Q 872 872 1139 634 
Q 1406 397 1894 397 
Q 2269 397 2603 481 
Q 2938 566 3225 728 
L 3116 159 
Q 2806 34 2476 -28 
Q 2147 -91 1806 -91 
Q 1078 -91 686 257 
Q 294 606 294 1247 
Q 294 1794 489 2264 
Q 684 2734 1063 3103 
Q 1306 3334 1642 3459 
Q 1978 3584 2356 3584 
Q 2950 3584 3301 3228 
Q 3653 2872 3653 2272 
Q 3653 2128 3634 1964 
Q 3616 1800 3578 1613 
z
" transform="scale(0.015625)"/>
       <path id="DejaVuSans-Oblique-67" d="M 3816 3500 
L 3219 434 
Q 3047 -456 2561 -893 
Q 2075 -1331 1253 -1331 
Q 950 -1331 690 -1286 
Q 431 -1241 206 -1147 
L 313 -588 
Q 525 -725 762 -790 
Q 1000 -856 1269 -856 
Q 1816 -856 2167 -557 
Q 2519 -259 2631 300 
L 2681 563 
Q 2441 288 2122 144 
Q 1803 0 1434 0 
Q 903 0 598 351 
Q 294 703 294 1319 
Q 294 1803 478 2267 
Q 663 2731 997 3091 
Q 1219 3328 1514 3456 
Q 1809 3584 2131 3584 
Q 2484 3584 2746 3420 
Q 3009 3256 3138 2956 
L 3238 3500 
L 3816 3500 
z
M 2950 2216 
Q 2950 2641 2750 2872 
Q 2550 3103 2181 3103 
Q 1953 3103 1747 3012 
Q 1541 2922 1394 2759 
Q 1156 2491 1023 2127 
Q 891 1763 891 1375 
Q 891 944 1092 712 
Q 1294 481 1672 481 
Q 2219 481 2584 976 
Q 2950 1472 2950 2216 
z
" transform="scale(0.015625)"/>
       <path id="DejaVuSans-5d" d="M 1947 4863 
L 1947 -844 
L 622 -844 
L 622 -397 
L 1369 -397 
L 1369 4416 
L 622 4416 
L 622 4863 
L 1947 4863 
z
" transform="scale(0.015625)"/>
      </defs>
      <use xlink:href="#DejaVuSans-Oblique-3b2" transform="translate(0 0.390625)"/>
      <use xlink:href="#DejaVuSerif-20" transform="translate(63.818359 0.390625)"/>
      <use xlink:href="#DejaVuSans-5b" transform="translate(95.605469 0.390625)"/>
      <use xlink:href="#DejaVuSans-Oblique-64" transform="translate(134.619141 0.390625)"/>
      <use xlink:href="#DejaVuSans-Oblique-65" transform="translate(198.095703 0.390625)"/>
      <use xlink:href="#DejaVuSans-Oblique-67" transform="translate(259.619141 0.390625)"/>
      <use xlink:href="#DejaVuSans-5d" transform="translate(323.095703 0.390625)"/>
     </g>
    </g>
   </g>
   <g id="line2d_16">
    <path d="M 55.037027 60.390776 
L 55.925897 60.498663 
L 56.774364 60.817195 
L 57.622831 61.369629 
L 59.521781 63.021267 
L 71.561933 73.777303 
L 75.157817 76.500132 
L 78.713298 78.920279 
L 82.228376 81.066212 
L 83.440471 81.650962 
L 84.288938 81.801691 
L 85.097002 81.715862 
L 85.905066 81.402964 
L 86.71313 80.844814 
L 87.602 79.951354 
L 88.814096 78.361062 
L 92.28877 73.412041 
L 98.349249 64.842534 
L 101.783521 60.432721 
L 104.93497 56.741878 
L 108.167225 53.303755 
L 111.278271 50.290584 
L 114.672139 47.30605 
L 117.904394 44.755888 
L 121.540682 42.195426 
L 125.298179 39.84999 
L 129.015272 37.781346 
L 132.974785 35.824293 
L 137.015104 34.073196 
L 141.621068 32.322922 
L 143.681631 31.701649 
L 144.530098 31.7293 
L 145.338162 31.98018 
L 146.146226 32.464665 
L 147.035096 33.272195 
L 147.96437 34.426375 
L 149.418885 36.681403 
L 160.004521 53.320244 
L 163.357986 57.930784 
L 166.509435 61.862011 
L 169.660884 65.427215 
L 173.014349 68.877672 
L 176.165798 71.826361 
L 179.35765 74.519977 
L 182.670712 77.029209 
L 186.226193 79.43677 
L 190.104899 81.774537 
L 194.226025 83.962941 
L 198.306747 85.869659 
L 202.791502 87.708574 
L 205.781338 88.796131 
L 205.781338 88.796131 
" clip-path="url(#p5b869157f8)" style="fill: none; stroke: #0000ff; stroke-width: 0.6; stroke-linecap: round"/>
   </g>
   <g id="line2d_17">
    <path d="M 55.037027 60.390776 
L 55.925897 60.498563 
L 56.774364 60.816412 
L 57.622831 61.366994 
L 59.562185 63.043272 
L 69.258951 71.613973 
L 72.572013 74.141607 
L 76.046687 76.513671 
L 79.400152 78.547965 
L 82.996036 80.470137 
L 84.208132 80.953766 
L 85.056599 81.028187 
L 85.864663 80.879121 
L 86.672727 80.501497 
L 87.521194 79.848503 
L 88.450467 78.8338 
L 89.985788 76.692133 
L 100.490618 61.752818 
L 103.399648 58.211315 
L 106.227872 55.085989 
L 109.258111 52.062848 
L 112.490367 49.167535 
L 115.480203 46.77909 
L 118.510442 44.634576 
L 121.823504 42.55226 
L 125.540598 40.502712 
L 129.378901 38.665066 
L 133.500027 36.958334 
L 137.944378 35.378942 
L 142.711955 33.932673 
L 144.853324 33.440644 
L 145.661388 33.515121 
L 146.509855 33.82415 
L 147.358322 34.379527 
L 148.247192 35.239611 
L 149.216869 36.501762 
L 150.994609 39.340169 
L 159.640892 53.185449 
L 162.711535 57.537409 
L 165.620565 61.282965 
L 168.569998 64.703269 
L 171.317415 67.569417 
L 174.347654 70.419919 
L 177.499103 73.074062 
L 180.771762 75.511656 
L 184.125227 77.708237 
L 187.640305 79.730408 
L 191.438205 81.642609 
L 195.55933 83.434706 
L 199.842069 85.035466 
L 204.326823 86.461415 
L 206.468192 87.073231 
L 206.468192 87.073231 
" clip-path="url(#p5b869157f8)" style="fill: none; stroke: #008000; stroke-width: 0.6; stroke-linecap: round"/>
   </g>
   <g id="line2d_18">
    <path d="M 55.037027 60.390776 
L 56.047107 60.501228 
L 56.97638 60.836947 
L 57.86525 61.416129 
L 60.087426 63.29006 
L 69.541773 71.571931 
L 72.491206 73.714149 
L 75.400236 75.560998 
L 78.390072 77.20485 
L 81.420312 78.629821 
L 83.076843 79.228959 
L 83.92531 79.274215 
L 84.773777 79.097159 
L 85.58184 78.701875 
L 86.430308 78.027903 
L 87.319178 77.022312 
L 88.571677 75.188102 
L 92.207964 69.424765 
L 96.127074 63.362805 
L 98.914894 59.46532 
L 101.500698 56.22761 
L 104.005696 53.440386 
L 106.510694 50.980336 
L 109.056095 48.788115 
L 111.6419 46.85176 
L 114.348913 45.103777 
L 117.257943 43.495183 
L 120.288183 42.063949 
L 123.520438 40.787148 
L 127.075919 39.62843 
L 130.873819 38.622565 
L 135.43938 37.650429 
L 139.802925 36.944775 
L 140.853408 36.916996 
L 141.742278 37.13686 
L 142.631148 37.596343 
L 143.520018 38.321856 
L 144.449292 39.382938 
L 145.459372 40.899166 
L 148.772433 46.648122 
L 153.095575 54.051969 
L 155.883395 58.370625 
L 158.428796 61.907172 
L 160.893391 64.958367 
L 163.357986 67.661359 
L 165.822581 70.0429 
L 168.367982 72.192546 
L 170.953786 74.086479 
L 173.701203 75.824476 
L 176.56983 77.380925 
L 179.640472 78.794603 
L 182.872728 80.037501 
L 186.670628 81.239979 
L 190.630141 82.259856 
L 194.912879 83.129704 
L 198.629973 83.72172 
L 198.629973 83.72172 
" clip-path="url(#p5b869157f8)" style="fill: none; stroke: #ff0000; stroke-width: 0.6; stroke-linecap: round"/>
   </g>
   <g id="patch_3">
    <path d="M 47.465469 91.651706 
L 47.465469 28.829059 
" style="fill: none; stroke: #000000; stroke-linejoin: miter; stroke-linecap: square"/>
   </g>
   <g id="patch_4">
    <path d="M 47.465469 91.651706 
L 214.03975 91.651706 
" style="fill: none; stroke: #000000; stroke-linejoin: miter; stroke-linecap: square"/>
   </g>
   <g id="legend_1">
    <g id="line2d_19">
     <path d="M 79.99386 12.868906 
L 86.99386 12.868906 
L 93.99386 12.868906 
" style="fill: none; stroke: #000000; stroke-width: 0.6; stroke-linecap: round"/>
    </g>
    <g id="text_5">
     <!-- Model test -->
     <g style="fill: #262626" transform="translate(99.59386 15.318906) scale(0.07 -0.07)">
      <defs>
       <path id="DejaVuSerif-4d" d="M 353 0 
L 353 331 
L 947 331 
L 947 4331 
L 319 4331 
L 319 4666 
L 1678 4666 
L 3316 1344 
L 4953 4666 
L 6228 4666 
L 6228 4331 
L 5606 4331 
L 5606 331 
L 6203 331 
L 6203 0 
L 4378 0 
L 4378 331 
L 4972 331 
L 4972 3938 
L 3372 684 
L 2931 684 
L 1331 3938 
L 1331 331 
L 1925 331 
L 1925 0 
L 353 0 
z
" transform="scale(0.015625)"/>
       <path id="DejaVuSerif-6f" d="M 1925 219 
Q 2388 219 2623 584 
Q 2859 950 2859 1663 
Q 2859 2375 2623 2739 
Q 2388 3103 1925 3103 
Q 1463 3103 1227 2739 
Q 991 2375 991 1663 
Q 991 950 1228 584 
Q 1466 219 1925 219 
z
M 1925 -91 
Q 1200 -91 759 389 
Q 319 869 319 1663 
Q 319 2456 758 2934 
Q 1197 3413 1925 3413 
Q 2653 3413 3092 2934 
Q 3531 2456 3531 1663 
Q 3531 869 3092 389 
Q 2653 -91 1925 -91 
z
" transform="scale(0.015625)"/>
       <path id="DejaVuSerif-64" d="M 3359 331 
L 3909 331 
L 3909 0 
L 2784 0 
L 2784 519 
Q 2616 206 2355 57 
Q 2094 -91 1709 -91 
Q 1097 -91 708 395 
Q 319 881 319 1663 
Q 319 2444 706 2928 
Q 1094 3413 1709 3413 
Q 2094 3413 2355 3264 
Q 2616 3116 2784 2803 
L 2784 4531 
L 2241 4531 
L 2241 4863 
L 3359 4863 
L 3359 331 
z
M 2784 1497 
L 2784 1825 
Q 2784 2422 2554 2737 
Q 2325 3053 1888 3053 
Q 1444 3053 1217 2703 
Q 991 2353 991 1663 
Q 991 975 1217 622 
Q 1444 269 1888 269 
Q 2325 269 2554 583 
Q 2784 897 2784 1497 
z
" transform="scale(0.015625)"/>
       <path id="DejaVuSerif-65" d="M 3469 1600 
L 991 1600 
L 991 1575 
Q 991 903 1244 561 
Q 1497 219 1991 219 
Q 2369 219 2611 417 
Q 2853 616 2950 1006 
L 3413 1006 
Q 3275 459 2904 184 
Q 2534 -91 1931 -91 
Q 1203 -91 761 389 
Q 319 869 319 1663 
Q 319 2450 753 2931 
Q 1188 3413 1894 3413 
Q 2647 3413 3050 2948 
Q 3453 2484 3469 1600 
z
M 2791 1931 
Q 2772 2513 2545 2808 
Q 2319 3103 1894 3103 
Q 1497 3103 1269 2806 
Q 1041 2509 991 1931 
L 2791 1931 
z
" transform="scale(0.015625)"/>
       <path id="DejaVuSerif-6c" d="M 1313 331 
L 1856 331 
L 1856 0 
L 184 0 
L 184 331 
L 738 331 
L 738 4531 
L 184 4531 
L 184 4863 
L 1313 4863 
L 1313 331 
z
" transform="scale(0.015625)"/>
       <path id="DejaVuSerif-74" d="M 691 2988 
L 184 2988 
L 184 3322 
L 691 3322 
L 691 4353 
L 1269 4353 
L 1269 3322 
L 2350 3322 
L 2350 2988 
L 1269 2988 
L 1269 878 
Q 1269 456 1350 337 
Q 1431 219 1650 219 
Q 1875 219 1978 351 
Q 2081 484 2088 781 
L 2522 781 
Q 2497 328 2275 118 
Q 2053 -91 1600 -91 
Q 1103 -91 897 129 
Q 691 350 691 878 
L 691 2988 
z
" transform="scale(0.015625)"/>
       <path id="DejaVuSerif-73" d="M 359 184 
L 359 959 
L 691 959 
Q 703 588 923 403 
Q 1144 219 1575 219 
Q 1963 219 2166 364 
Q 2369 509 2369 788 
Q 2369 1006 2220 1140 
Q 2072 1275 1594 1428 
L 1178 1569 
Q 750 1706 558 1912 
Q 366 2119 366 2438 
Q 366 2894 700 3153 
Q 1034 3413 1625 3413 
Q 1888 3413 2178 3344 
Q 2469 3275 2778 3144 
L 2778 2419 
L 2447 2419 
Q 2434 2741 2221 2922 
Q 2009 3103 1644 3103 
Q 1281 3103 1095 2975 
Q 909 2847 909 2591 
Q 909 2381 1050 2254 
Q 1191 2128 1613 1997 
L 2069 1856 
Q 2541 1709 2748 1489 
Q 2956 1269 2956 922 
Q 2956 450 2595 179 
Q 2234 -91 1600 -91 
Q 1278 -91 972 -22 
Q 666 47 359 184 
z
" transform="scale(0.015625)"/>
      </defs>
      <use xlink:href="#DejaVuSerif-4d"/>
      <use xlink:href="#DejaVuSerif-6f" x="102.392578"/>
      <use xlink:href="#DejaVuSerif-64" x="162.597656"/>
      <use xlink:href="#DejaVuSerif-65" x="226.611328"/>
      <use xlink:href="#DejaVuSerif-6c" x="285.791016"/>
      <use xlink:href="#DejaVuSerif-20" x="317.773438"/>
      <use xlink:href="#DejaVuSerif-74" x="349.560547"/>
      <use xlink:href="#DejaVuSerif-65" x="389.746094"/>
      <use xlink:href="#DejaVuSerif-73" x="448.925781"/>
      <use xlink:href="#DejaVuSerif-74" x="500.244141"/>
     </g>
    </g>
    <g id="line2d_20">
     <path d="M 79.99386 23.143594 
L 86.99386 23.143594 
L 93.99386 23.143594 
" style="fill: none; stroke: #0000ff; stroke-width: 0.6; stroke-linecap: round"/>
    </g>
    <g id="text_6">
     <!-- Reference -->
     <g style="fill: #262626" transform="translate(99.59386 25.593594) scale(0.07 -0.07)">
      <defs>
       <path id="DejaVuSerif-52" d="M 3066 2316 
Q 3284 2256 3442 2114 
Q 3600 1972 3725 1716 
L 4403 331 
L 4972 331 
L 4972 0 
L 3872 0 
L 3144 1484 
Q 2934 1916 2759 2042 
Q 2584 2169 2278 2169 
L 1581 2169 
L 1581 331 
L 2241 331 
L 2241 0 
L 353 0 
L 353 331 
L 947 331 
L 947 4331 
L 353 4331 
L 353 4666 
L 2719 4666 
Q 3400 4666 3770 4341 
Q 4141 4016 4141 3419 
Q 4141 2938 3870 2661 
Q 3600 2384 3066 2316 
z
M 1581 2503 
L 2503 2503 
Q 2975 2503 3200 2726 
Q 3425 2950 3425 3419 
Q 3425 3888 3200 4109 
Q 2975 4331 2503 4331 
L 1581 4331 
L 1581 2503 
z
" transform="scale(0.015625)"/>
       <path id="DejaVuSerif-66" d="M 2753 4078 
L 2450 4078 
Q 2447 4313 2317 4434 
Q 2188 4556 1941 4556 
Q 1619 4556 1487 4379 
Q 1356 4203 1356 3750 
L 1356 3322 
L 2284 3322 
L 2284 2988 
L 1356 2988 
L 1356 331 
L 2094 331 
L 2094 0 
L 231 0 
L 231 331 
L 781 331 
L 781 2988 
L 231 2988 
L 231 3322 
L 781 3322 
L 781 3738 
Q 781 4294 1070 4578 
Q 1359 4863 1919 4863 
Q 2128 4863 2337 4825 
Q 2547 4788 2753 4709 
L 2753 4078 
z
" transform="scale(0.015625)"/>
       <path id="DejaVuSerif-72" d="M 3059 3328 
L 3059 2497 
L 2728 2497 
Q 2713 2744 2591 2866 
Q 2469 2988 2234 2988 
Q 1809 2988 1582 2694 
Q 1356 2400 1356 1850 
L 1356 331 
L 2022 331 
L 2022 0 
L 263 0 
L 263 331 
L 781 331 
L 781 2994 
L 231 2994 
L 231 3322 
L 1356 3322 
L 1356 2731 
Q 1525 3078 1790 3245 
Q 2056 3413 2438 3413 
Q 2578 3413 2733 3391 
Q 2888 3369 3059 3328 
z
" transform="scale(0.015625)"/>
       <path id="DejaVuSerif-6e" d="M 263 0 
L 263 331 
L 781 331 
L 781 2988 
L 231 2988 
L 231 3322 
L 1356 3322 
L 1356 2731 
Q 1516 3069 1770 3241 
Q 2025 3413 2363 3413 
Q 2913 3413 3172 3097 
Q 3431 2781 3431 2113 
L 3431 331 
L 3944 331 
L 3944 0 
L 2356 0 
L 2356 331 
L 2853 331 
L 2853 1931 
Q 2853 2541 2703 2767 
Q 2553 2994 2175 2994 
Q 1775 2994 1565 2701 
Q 1356 2409 1356 1850 
L 1356 331 
L 1856 331 
L 1856 0 
L 263 0 
z
" transform="scale(0.015625)"/>
       <path id="DejaVuSerif-63" d="M 3291 997 
Q 3169 466 2822 187 
Q 2475 -91 1925 -91 
Q 1200 -91 759 389 
Q 319 869 319 1663 
Q 319 2459 759 2936 
Q 1200 3413 1925 3413 
Q 2241 3413 2553 3339 
Q 2866 3266 3181 3116 
L 3181 2266 
L 2847 2266 
Q 2781 2703 2561 2903 
Q 2341 3103 1931 3103 
Q 1466 3103 1228 2742 
Q 991 2381 991 1663 
Q 991 944 1227 581 
Q 1463 219 1931 219 
Q 2303 219 2525 412 
Q 2747 606 2828 997 
L 3291 997 
z
" transform="scale(0.015625)"/>
      </defs>
      <use xlink:href="#DejaVuSerif-52"/>
      <use xlink:href="#DejaVuSerif-65" x="75.292969"/>
      <use xlink:href="#DejaVuSerif-66" x="134.472656"/>
      <use xlink:href="#DejaVuSerif-65" x="171.484375"/>
      <use xlink:href="#DejaVuSerif-72" x="230.664062"/>
      <use xlink:href="#DejaVuSerif-65" x="278.466797"/>
      <use xlink:href="#DejaVuSerif-6e" x="337.646484"/>
      <use xlink:href="#DejaVuSerif-63" x="402.050781"/>
      <use xlink:href="#DejaVuSerif-65" x="458.056641"/>
     </g>
    </g>
    <g id="line2d_21">
     <path d="M 151.424485 12.868906 
L 158.424485 12.868906 
L 165.424485 12.868906 
" style="fill: none; stroke: #008000; stroke-width: 0.6; stroke-linecap: round"/>
    </g>
    <g id="text_7">
     <!-- PI -->
     <g style="fill: #262626" transform="translate(171.024485 15.318906) scale(0.07 -0.07)">
      <defs>
       <path id="DejaVuSerif-50" d="M 1581 2375 
L 2406 2375 
Q 2872 2375 3115 2626 
Q 3359 2878 3359 3353 
Q 3359 3831 3115 4081 
Q 2872 4331 2406 4331 
L 1581 4331 
L 1581 2375 
z
M 353 0 
L 353 331 
L 947 331 
L 947 4331 
L 353 4331 
L 353 4666 
L 2559 4666 
Q 3259 4666 3668 4311 
Q 4078 3956 4078 3353 
Q 4078 2753 3668 2397 
Q 3259 2041 2559 2041 
L 1581 2041 
L 1581 331 
L 2303 331 
L 2303 0 
L 353 0 
z
" transform="scale(0.015625)"/>
       <path id="DejaVuSerif-49" d="M 1581 331 
L 2175 331 
L 2175 0 
L 353 0 
L 353 331 
L 947 331 
L 947 4331 
L 353 4331 
L 353 4666 
L 2175 4666 
L 2175 4331 
L 1581 4331 
L 1581 331 
z
" transform="scale(0.015625)"/>
      </defs>
      <use xlink:href="#DejaVuSerif-50"/>
      <use xlink:href="#DejaVuSerif-49" x="67.285156"/>
     </g>
    </g>
    <g id="line2d_22">
     <path d="M 151.424485 23.143594 
L 158.424485 23.143594 
L 165.424485 23.143594 
" style="fill: none; stroke: #ff0000; stroke-width: 0.6; stroke-linecap: round"/>
    </g>
    <g id="text_8">
     <!-- PU -->
     <g style="fill: #262626" transform="translate(171.024485 25.593594) scale(0.07 -0.07)">
      <defs>
       <path id="DejaVuSerif-55" d="M 897 4331 
L 300 4331 
L 300 4666 
L 2125 4666 
L 2125 4331 
L 1528 4331 
L 1528 1919 
Q 1528 1025 1820 672 
Q 2113 319 2828 319 
Q 3544 319 3836 672 
Q 4128 1025 4128 1919 
L 4128 4331 
L 3531 4331 
L 3531 4666 
L 5106 4666 
L 5106 4331 
L 4513 4331 
L 4513 1856 
Q 4513 791 4103 350 
Q 3694 -91 2713 -91 
Q 1731 -91 1314 353 
Q 897 797 897 1856 
L 897 4331 
z
" transform="scale(0.015625)"/>
      </defs>
      <use xlink:href="#DejaVuSerif-50"/>
      <use xlink:href="#DejaVuSerif-55" x="65.535156"/>
     </g>
    </g>
   </g>
  </g>
  <g id="axes_2">
   <g id="patch_5">
    <path d="M 47.465469 154.474353 
L 214.03975 154.474353 
L 214.03975 91.651706 
L 47.465469 91.651706 
z
" style="fill: #ffffff"/>
   </g>
   <g id="line2d_23">
    <path d="M 55.037027 123.401208 
L 56.976384 123.610924 
L 58.430915 123.995136 
L 59.96635 124.639247 
L 61.703598 125.617004 
L 63.642935 126.976052 
L 65.905498 128.847102 
L 68.774108 131.521858 
L 72.168061 134.998763 
L 76.208284 139.467957 
L 84.410168 148.643458 
L 85.945538 149.970794 
L 87.238375 150.80389 
L 88.410088 151.296672 
L 89.622309 151.562567 
L 90.874683 151.611189 
L 92.248424 151.437005 
L 93.743285 151.015317 
L 95.399836 150.307153 
L 97.258359 149.263325 
L 99.359386 147.823339 
L 101.743198 145.912046 
L 104.611756 143.309706 
L 108.530882 139.430185 
L 116.530674 131.131069 
L 121.621492 125.553559 
L 127.075947 119.227869 
L 132.530395 112.563248 
L 142.509959 100.294841 
L 144.893739 97.677172 
L 146.42906 96.308279 
L 147.721946 95.441645 
L 148.853284 94.940054 
L 150.025001 94.663845 
L 151.237048 94.608087 
L 152.570398 94.772102 
L 154.105695 95.190802 
L 155.883436 95.915381 
L 157.903567 96.985058 
L 160.125739 98.422768 
L 162.630753 100.314465 
L 165.701472 102.92847 
L 169.176106 106.178841 
L 173.418401 110.490265 
L 180.731399 118.224158 
L 188.206022 126.461435 
L 192.367632 131.403188 
L 204.08442 145.506731 
L 205.740959 147.356521 
L 205.740959 147.356521 
" clip-path="url(#paa0bb89c4f)" style="fill: none; stroke: #000000; stroke-width: 0.6; stroke-linecap: round"/>
   </g>
   <g id="line2d_24">
    <path d="M 55.037027 123.758432 
L 55.643131 128.9438 
L 57.744049 145.949474 
L 58.026896 145.825655 
L 59.723809 145.823001 
L 62.309638 145.825655 
L 67.360065 145.825655 
L 81.824384 145.825655 
L 81.986065 144.447725 
L 83.561713 131.344123 
L 87.319226 100.526424 
L 87.359597 100.562686 
L 87.682827 100.615751 
L 90.309046 100.621058 
L 92.814028 100.621058 
L 142.429185 100.619289 
L 142.671568 102.603048 
L 147.115955 139.672728 
L 147.924067 145.949474 
L 147.964398 145.921172 
L 148.2472 145.83273 
L 150.065332 145.823886 
L 204.528843 145.82477 
L 204.650081 144.793534 
L 205.579326 137.070757 
L 205.740959 135.732626 
L 205.740959 135.732626 
" clip-path="url(#paa0bb89c4f)" style="fill: none; stroke-dasharray: 2.22,0.96; stroke-dashoffset: 0; stroke: #808080; stroke-width: 0.6"/>
   </g>
   <g id="matplotlib.axis_3">
    <g id="xtick_5">
     <g id="line2d_25">
      <path d="M 55.037027 154.474353 
L 55.037027 91.651706 
" clip-path="url(#paa0bb89c4f)" style="fill: none; stroke: #b0b0b0; stroke-width: 0.1; stroke-linecap: round"/>
     </g>
     <g id="line2d_26"/>
    </g>
    <g id="xtick_6">
     <g id="line2d_27">
      <path d="M 95.440219 154.474353 
L 95.440219 91.651706 
" clip-path="url(#paa0bb89c4f)" style="fill: none; stroke: #b0b0b0; stroke-width: 0.1; stroke-linecap: round"/>
     </g>
     <g id="line2d_28"/>
    </g>
    <g id="xtick_7">
     <g id="line2d_29">
      <path d="M 135.843412 154.474353 
L 135.843412 91.651706 
" clip-path="url(#paa0bb89c4f)" style="fill: none; stroke: #b0b0b0; stroke-width: 0.1; stroke-linecap: round"/>
     </g>
     <g id="line2d_30"/>
    </g>
    <g id="xtick_8">
     <g id="line2d_31">
      <path d="M 176.246604 154.474353 
L 176.246604 91.651706 
" clip-path="url(#paa0bb89c4f)" style="fill: none; stroke: #b0b0b0; stroke-width: 0.1; stroke-linecap: round"/>
     </g>
     <g id="line2d_32"/>
    </g>
   </g>
   <g id="matplotlib.axis_4">
    <g id="ytick_4">
     <g id="line2d_33">
      <path d="M 47.465469 145.824397 
L 214.03975 145.824397 
" clip-path="url(#paa0bb89c4f)" style="fill: none; stroke: #b0b0b0; stroke-width: 0.1; stroke-linecap: round"/>
     </g>
     <g id="line2d_34"/>
     <g id="text_9">
      <!-- −10 -->
      <g style="fill: #262626" transform="translate(29.192187 148.48385) scale(0.07 -0.07)">
       <defs>
        <path id="DejaVuSerif-31" d="M 909 0 
L 909 331 
L 1722 331 
L 1722 4213 
L 781 3603 
L 781 4013 
L 1919 4750 
L 2350 4750 
L 2350 331 
L 3163 331 
L 3163 0 
L 909 0 
z
" transform="scale(0.015625)"/>
       </defs>
       <use xlink:href="#DejaVuSerif-2212"/>
       <use xlink:href="#DejaVuSerif-31" x="83.789062"/>
       <use xlink:href="#DejaVuSerif-30" x="147.412109"/>
      </g>
     </g>
    </g>
    <g id="ytick_5">
     <g id="line2d_35">
      <path d="M 47.465469 123.222472 
L 214.03975 123.222472 
" clip-path="url(#paa0bb89c4f)" style="fill: none; stroke: #b0b0b0; stroke-width: 0.1; stroke-linecap: round"/>
     </g>
     <g id="line2d_36"/>
     <g id="text_10">
      <!-- 0 -->
      <g style="fill: #262626" transform="translate(39.511719 125.881925) scale(0.07 -0.07)">
       <use xlink:href="#DejaVuSerif-30"/>
      </g>
     </g>
    </g>
    <g id="ytick_6">
     <g id="line2d_37">
      <path d="M 47.465469 100.620546 
L 214.03975 100.620546 
" clip-path="url(#paa0bb89c4f)" style="fill: none; stroke: #b0b0b0; stroke-width: 0.1; stroke-linecap: round"/>
     </g>
     <g id="line2d_38"/>
     <g id="text_11">
      <!-- 10 -->
      <g style="fill: #262626" transform="translate(35.057969 103.279999) scale(0.07 -0.07)">
       <use xlink:href="#DejaVuSerif-31"/>
       <use xlink:href="#DejaVuSerif-30" x="63.623047"/>
      </g>
     </g>
    </g>
    <g id="text_12">
     <!-- $\psi$ $[deg]$ -->
     <g style="fill: #262626" transform="translate(12.59 135.83803) rotate(-90) scale(0.07 -0.07)">
      <defs>
       <path id="DejaVuSans-Oblique-3c8" d="M 1591 -78 
Q 891 38 616 341 
Q 278 713 425 1472 
L 819 3500 
L 1400 3500 
L 1009 1494 
Q 900 922 1119 684 
Q 1313 478 1691 434 
L 2284 3500 
L 2856 3500 
L 2263 438 
Q 2681 481 2928 688 
Q 3247 950 3353 1497 
L 3741 3500 
L 4322 3500 
L 3928 1475 
Q 3775 688 3300 344 
Q 2872 34 2163 -75 
L 1919 -1331 
L 1347 -1331 
L 1591 -78 
z
" transform="scale(0.015625)"/>
      </defs>
      <use xlink:href="#DejaVuSans-Oblique-3c8" transform="translate(0 0.015625)"/>
      <use xlink:href="#DejaVuSerif-20" transform="translate(65.966797 0.015625)"/>
      <use xlink:href="#DejaVuSans-5b" transform="translate(97.753906 0.015625)"/>
      <use xlink:href="#DejaVuSans-Oblique-64" transform="translate(136.767578 0.015625)"/>
      <use xlink:href="#DejaVuSans-Oblique-65" transform="translate(200.244141 0.015625)"/>
      <use xlink:href="#DejaVuSans-Oblique-67" transform="translate(261.767578 0.015625)"/>
      <use xlink:href="#DejaVuSans-5d" transform="translate(325.244141 0.015625)"/>
     </g>
    </g>
   </g>
   <g id="line2d_39">
    <path d="M 55.037027 123.222472 
L 57.218799 123.327815 
L 58.511702 123.626392 
L 59.925813 124.197748 
L 61.582344 125.120185 
L 63.562101 126.490035 
L 65.986292 128.452002 
L 69.016532 131.212817 
L 72.652819 134.839514 
L 77.21838 139.718559 
L 82.672811 145.87539 
L 85.299018 148.739467 
L 86.672727 149.915669 
L 87.844419 150.634349 
L 88.894902 151.018469 
L 90.026192 151.188284 
L 91.238287 151.144983 
L 92.611996 150.870818 
L 94.18772 150.324368 
L 96.005864 149.450583 
L 98.147233 148.16546 
L 100.733038 146.340761 
L 103.763277 143.91823 
L 107.359161 140.751902 
L 111.480287 136.821563 
L 116.005444 132.190628 
L 121.338666 126.405145 
L 127.479951 119.411594 
L 134.267687 111.322441 
L 142.509939 101.135648 
L 145.620984 97.402532 
L 147.035096 96.072201 
L 148.206789 95.266704 
L 149.257272 94.808841 
L 150.388561 94.559332 
L 151.64106 94.51738 
L 153.014769 94.696871 
L 154.590493 95.132973 
L 156.408637 95.877267 
L 158.509603 96.989965 
L 160.974198 98.55855 
L 163.842824 100.655427 
L 167.236692 103.418942 
L 171.155802 106.903704 
L 175.317331 110.899851 
L 180.044504 115.758088 
L 185.498935 121.683904 
L 191.680624 128.733432 
L 198.751182 137.146737 
L 205.781338 145.810223 
L 205.781338 145.810223 
" clip-path="url(#paa0bb89c4f)" style="fill: none; stroke: #0000ff; stroke-width: 0.6; stroke-linecap: round"/>
   </g>
   <g id="line2d_40">
    <path d="M 55.037027 123.222472 
L 57.259203 123.33347 
L 58.552105 123.638328 
L 59.966216 124.213217 
L 61.622747 125.134025 
L 63.642907 126.522909 
L 66.147905 128.529854 
L 69.339757 131.389673 
L 73.42048 135.360648 
L 78.753701 140.880471 
L 86.672727 149.116014 
L 87.925226 149.969059 
L 88.975709 150.430642 
L 90.026192 150.648176 
L 91.197884 150.654174 
L 92.490786 150.42994 
L 93.945301 149.948879 
L 95.642235 149.149062 
L 97.662395 147.944897 
L 100.12699 146.206545 
L 103.197632 143.749517 
L 106.955129 140.446924 
L 111.52069 136.130522 
L 116.813508 130.80362 
L 123.560841 123.688672 
L 131.479867 114.999742 
L 140.813005 104.419337 
L 146.913887 97.578459 
L 148.247192 96.475903 
L 149.378481 95.813668 
L 150.428964 95.457684 
L 151.560254 95.317617 
L 152.812753 95.396802 
L 154.226864 95.720014 
L 155.842992 96.327579 
L 157.741942 97.292445 
L 160.004521 98.703699 
L 162.711535 100.668886 
L 165.984193 103.332675 
L 170.024513 106.916068 
L 174.913299 111.556597 
L 180.327327 117.006708 
L 187.236273 124.288616 
L 195.195702 133.01599 
L 204.973274 144.084836 
L 206.468192 145.803733 
L 206.468192 145.803733 
" clip-path="url(#paa0bb89c4f)" style="fill: none; stroke: #008000; stroke-width: 0.6; stroke-linecap: round"/>
   </g>
   <g id="line2d_41">
    <path d="M 55.037027 123.222472 
L 57.178396 123.331014 
L 58.430895 123.623398 
L 59.804604 124.181139 
L 61.420731 125.087917 
L 63.360085 126.447243 
L 65.70347 128.373951 
L 68.6125 131.068014 
L 72.329593 134.828609 
L 77.21838 140.110975 
L 85.662647 149.310257 
L 86.874743 150.150039 
L 87.925226 150.612966 
L 88.935305 150.817511 
L 90.026192 150.81532 
L 91.238287 150.591576 
L 92.652399 150.09555 
L 94.268527 149.286018 
L 96.20788 148.054968 
L 98.510862 146.318155 
L 101.298682 143.927219 
L 104.732954 140.674493 
L 108.975289 136.340592 
L 114.470123 130.388969 
L 121.338666 122.603601 
L 130.833416 111.477926 
L 142.833164 97.431447 
L 144.126066 96.366054 
L 145.216953 95.741627 
L 146.227032 95.413914 
L 147.317919 95.299486 
L 148.489611 95.402167 
L 149.822916 95.74734 
L 151.358238 96.383005 
L 153.176381 97.390234 
L 155.317751 98.844304 
L 157.863152 100.849859 
L 160.933794 103.561974 
L 164.691291 107.193271 
L 169.297255 111.969497 
L 175.115315 118.334066 
L 182.670712 126.945599 
L 192.89272 138.968063 
L 198.629973 145.801735 
L 198.629973 145.801735 
" clip-path="url(#paa0bb89c4f)" style="fill: none; stroke: #ff0000; stroke-width: 0.6; stroke-linecap: round"/>
   </g>
   <g id="patch_6">
    <path d="M 47.465469 154.474353 
L 47.465469 91.651706 
" style="fill: none; stroke: #000000; stroke-linejoin: miter; stroke-linecap: square"/>
   </g>
   <g id="patch_7">
    <path d="M 47.465469 154.474353 
L 214.03975 154.474353 
" style="fill: none; stroke: #000000; stroke-linejoin: miter; stroke-linecap: square"/>
   </g>
  </g>
  <g id="axes_3">
   <g id="patch_8">
    <path d="M 47.465469 217.297 
L 214.03975 217.297 
L 214.03975 154.474353 
L 47.465469 154.474353 
z
" style="fill: #ffffff"/>
   </g>
   <g id="line2d_42">
    <path d="M 55.037027 187.216576 
L 55.562277 187.729147 
L 56.208732 188.723285 
L 57.057251 190.463767 
L 60.733942 198.692101 
L 62.511674 201.765347 
L 64.046967 204.014881 
L 65.339857 205.525873 
L 66.673159 206.752972 
L 68.531754 208.14919 
L 70.915502 209.62919 
L 73.339685 210.865196 
L 75.440663 211.739332 
L 76.773953 212.054479 
L 78.107246 212.125241 
L 79.804285 212.052044 
L 81.581945 211.759263 
L 82.268767 211.475519 
L 82.794016 210.966825 
L 83.440483 209.998246 
L 84.167818 208.481555 
L 85.056652 206.074944 
L 86.066711 202.658683 
L 87.319226 197.601508 
L 88.814108 191.632579 
L 90.268615 186.739404 
L 91.763553 182.505967 
L 93.258451 178.922543 
L 94.793813 175.7829 
L 96.329134 173.155589 
L 97.985629 170.770853 
L 99.803764 168.528063 
L 101.662356 166.564628 
L 103.116935 165.326051 
L 104.611756 164.344926 
L 106.349134 163.475139 
L 107.844004 162.965094 
L 109.258156 162.736222 
L 114.348998 162.150719 
L 116.853964 161.689866 
L 120.167006 160.717218 
L 123.56087 159.776017 
L 130.752614 157.847624 
L 131.762693 157.645508 
L 134.550514 157.566737 
L 137.136326 157.732317 
L 139.156482 158.081631 
L 140.772605 158.564942 
L 142.267536 159.250724 
L 142.913971 159.726151 
L 143.520079 160.524593 
L 144.247312 161.89976 
L 145.095755 164.018685 
L 146.146278 167.29624 
L 147.27754 171.603442 
L 150.509775 184.645228 
L 151.681552 188.28691 
L 152.853269 191.236663 
L 154.186526 193.958181 
L 155.519851 196.172002 
L 157.257116 198.585082 
L 159.277263 201.084582 
L 161.176234 203.057168 
L 162.873156 204.532414 
L 164.448945 205.615383 
L 168.044793 207.668147 
L 170.630585 209.032152 
L 171.842648 209.41005 
L 173.216393 209.579885 
L 175.519339 209.834798 
L 181.620261 210.692887 
L 185.014109 211.069507 
L 186.509056 211.423266 
L 187.923139 211.981421 
L 191.034185 213.429979 
L 192.407885 213.762639 
L 193.983614 213.904811 
L 196.165419 213.861358 
L 198.468388 213.609225 
L 201.013794 213.072352 
L 203.236018 212.449696 
L 204.407638 211.898036 
L 205.013774 211.417548 
L 205.579326 210.650775 
L 205.740959 210.373127 
L 205.740959 210.373127 
" clip-path="url(#p407b38dc98)" style="fill: none; stroke: #000000; stroke-width: 0.6; stroke-linecap: round"/>
   </g>
   <g id="matplotlib.axis_5">
    <g id="xtick_9">
     <g id="line2d_43">
      <path d="M 55.037027 217.297 
L 55.037027 154.474353 
" clip-path="url(#p407b38dc98)" style="fill: none; stroke: #b0b0b0; stroke-width: 0.1; stroke-linecap: round"/>
     </g>
     <g id="line2d_44"/>
     <g id="text_13">
      <!-- 0 -->
      <g style="fill: #262626" transform="translate(52.810152 226.115906) scale(0.07 -0.07)">
       <use xlink:href="#DejaVuSerif-30"/>
      </g>
     </g>
    </g>
    <g id="xtick_10">
     <g id="line2d_45">
      <path d="M 95.440219 217.297 
L 95.440219 154.474353 
" clip-path="url(#p407b38dc98)" style="fill: none; stroke: #b0b0b0; stroke-width: 0.1; stroke-linecap: round"/>
     </g>
     <g id="line2d_46"/>
     <g id="text_14">
      <!-- 10 -->
      <g style="fill: #262626" transform="translate(90.986469 226.115906) scale(0.07 -0.07)">
       <use xlink:href="#DejaVuSerif-31"/>
       <use xlink:href="#DejaVuSerif-30" x="63.623047"/>
      </g>
     </g>
    </g>
    <g id="xtick_11">
     <g id="line2d_47">
      <path d="M 135.843412 217.297 
L 135.843412 154.474353 
" clip-path="url(#p407b38dc98)" style="fill: none; stroke: #b0b0b0; stroke-width: 0.1; stroke-linecap: round"/>
     </g>
     <g id="line2d_48"/>
     <g id="text_15">
      <!-- 20 -->
      <g style="fill: #262626" transform="translate(131.389662 226.115906) scale(0.07 -0.07)">
       <defs>
        <path id="DejaVuSerif-32" d="M 819 3553 
L 469 3553 
L 469 4384 
Q 803 4563 1142 4656 
Q 1481 4750 1806 4750 
Q 2534 4750 2956 4397 
Q 3378 4044 3378 3438 
Q 3378 2753 2422 1800 
Q 2347 1728 2309 1691 
L 1131 513 
L 3078 513 
L 3078 1088 
L 3444 1088 
L 3444 0 
L 434 0 
L 434 341 
L 1850 1753 
Q 2319 2222 2519 2614 
Q 2719 3006 2719 3438 
Q 2719 3909 2473 4175 
Q 2228 4441 1797 4441 
Q 1350 4441 1106 4219 
Q 863 3997 819 3553 
z
" transform="scale(0.015625)"/>
       </defs>
       <use xlink:href="#DejaVuSerif-32"/>
       <use xlink:href="#DejaVuSerif-30" x="63.623047"/>
      </g>
     </g>
    </g>
    <g id="xtick_12">
     <g id="line2d_49">
      <path d="M 176.246604 217.297 
L 176.246604 154.474353 
" clip-path="url(#p407b38dc98)" style="fill: none; stroke: #b0b0b0; stroke-width: 0.1; stroke-linecap: round"/>
     </g>
     <g id="line2d_50"/>
     <g id="text_16">
      <!-- 30 -->
      <g style="fill: #262626" transform="translate(171.792854 226.115906) scale(0.07 -0.07)">
       <defs>
        <path id="DejaVuSerif-33" d="M 622 4469 
Q 988 4606 1323 4678 
Q 1659 4750 1953 4750 
Q 2638 4750 3022 4454 
Q 3406 4159 3406 3634 
Q 3406 3213 3140 2930 
Q 2875 2647 2388 2547 
Q 2963 2466 3280 2130 
Q 3597 1794 3597 1259 
Q 3597 606 3158 257 
Q 2719 -91 1894 -91 
Q 1528 -91 1179 -12 
Q 831 66 488 225 
L 488 1131 
L 838 1131 
Q 869 681 1141 450 
Q 1413 219 1906 219 
Q 2384 219 2661 495 
Q 2938 772 2938 1253 
Q 2938 1803 2653 2086 
Q 2369 2369 1819 2369 
L 1522 2369 
L 1522 2688 
L 1678 2688 
Q 2225 2688 2498 2914 
Q 2772 3141 2772 3597 
Q 2772 4006 2547 4223 
Q 2322 4441 1900 4441 
Q 1478 4441 1245 4241 
Q 1013 4041 972 3647 
L 622 3647 
L 622 4469 
z
" transform="scale(0.015625)"/>
       </defs>
       <use xlink:href="#DejaVuSerif-33"/>
       <use xlink:href="#DejaVuSerif-30" x="63.623047"/>
      </g>
     </g>
    </g>
    <g id="text_17">
     <!-- Time [s] -->
     <g style="fill: #262626" transform="translate(116.268625 236.890594) scale(0.07 -0.07)">
      <defs>
       <path id="DejaVuSerif-54" d="M 1222 0 
L 1222 331 
L 1819 331 
L 1819 4294 
L 447 4294 
L 447 3566 
L 63 3566 
L 63 4666 
L 4206 4666 
L 4206 3566 
L 3822 3566 
L 3822 4294 
L 2450 4294 
L 2450 331 
L 3047 331 
L 3047 0 
L 1222 0 
z
" transform="scale(0.015625)"/>
       <path id="DejaVuSerif-69" d="M 622 4353 
Q 622 4497 726 4603 
Q 831 4709 978 4709 
Q 1122 4709 1226 4603 
Q 1331 4497 1331 4353 
Q 1331 4206 1228 4103 
Q 1125 4000 978 4000 
Q 831 4000 726 4103 
Q 622 4206 622 4353 
z
M 1356 331 
L 1900 331 
L 1900 0 
L 231 0 
L 231 331 
L 781 331 
L 781 2988 
L 231 2988 
L 231 3322 
L 1356 3322 
L 1356 331 
z
" transform="scale(0.015625)"/>
       <path id="DejaVuSerif-6d" d="M 3316 2675 
Q 3481 3041 3739 3227 
Q 3997 3413 4341 3413 
Q 4863 3413 5119 3089 
Q 5375 2766 5375 2113 
L 5375 331 
L 5894 331 
L 5894 0 
L 4300 0 
L 4300 331 
L 4800 331 
L 4800 2047 
Q 4800 2556 4650 2772 
Q 4500 2988 4153 2988 
Q 3769 2988 3567 2697 
Q 3366 2406 3366 1850 
L 3366 331 
L 3866 331 
L 3866 0 
L 2291 0 
L 2291 331 
L 2791 331 
L 2791 2069 
Q 2791 2566 2641 2777 
Q 2491 2988 2144 2988 
Q 1759 2988 1557 2697 
Q 1356 2406 1356 1850 
L 1356 331 
L 1856 331 
L 1856 0 
L 263 0 
L 263 331 
L 781 331 
L 781 2994 
L 231 2994 
L 231 3322 
L 1356 3322 
L 1356 2731 
Q 1516 3063 1762 3238 
Q 2009 3413 2322 3413 
Q 2709 3413 2968 3220 
Q 3228 3028 3316 2675 
z
" transform="scale(0.015625)"/>
       <path id="DejaVuSerif-5b" d="M 550 4863 
L 2003 4863 
L 2003 4531 
L 1147 4531 
L 1147 -513 
L 2003 -513 
L 2003 -844 
L 550 -844 
L 550 4863 
z
" transform="scale(0.015625)"/>
       <path id="DejaVuSerif-5d" d="M 1947 4863 
L 1947 -844 
L 494 -844 
L 494 -513 
L 1350 -513 
L 1350 4531 
L 494 4531 
L 494 4863 
L 1947 4863 
z
" transform="scale(0.015625)"/>
      </defs>
      <use xlink:href="#DejaVuSerif-54"/>
      <use xlink:href="#DejaVuSerif-69" x="66.699219"/>
      <use xlink:href="#DejaVuSerif-6d" x="98.681641"/>
      <use xlink:href="#DejaVuSerif-65" x="193.505859"/>
      <use xlink:href="#DejaVuSerif-20" x="252.685547"/>
      <use xlink:href="#DejaVuSerif-5b" x="284.472656"/>
      <use xlink:href="#DejaVuSerif-73" x="323.486328"/>
      <use xlink:href="#DejaVuSerif-5d" x="374.804688"/>
     </g>
    </g>
   </g>
   <g id="matplotlib.axis_6">
    <g id="ytick_7">
     <g id="line2d_51">
      <path d="M 47.465469 204.254657 
L 214.03975 204.254657 
" clip-path="url(#p407b38dc98)" style="fill: none; stroke: #b0b0b0; stroke-width: 0.1; stroke-linecap: round"/>
     </g>
     <g id="line2d_52"/>
     <g id="text_18">
      <!-- −0.025 -->
      <g style="fill: #262626" transform="translate(18.06 206.91411) scale(0.07 -0.07)">
       <defs>
        <path id="DejaVuSerif-2e" d="M 603 325 
Q 603 500 722 622 
Q 841 744 1019 744 
Q 1191 744 1312 622 
Q 1434 500 1434 325 
Q 1434 153 1312 31 
Q 1191 -91 1019 -91 
Q 841 -91 722 29 
Q 603 150 603 325 
z
" transform="scale(0.015625)"/>
       </defs>
       <use xlink:href="#DejaVuSerif-2212"/>
       <use xlink:href="#DejaVuSerif-30" x="83.789062"/>
       <use xlink:href="#DejaVuSerif-2e" x="147.412109"/>
       <use xlink:href="#DejaVuSerif-30" x="179.199219"/>
       <use xlink:href="#DejaVuSerif-32" x="242.822266"/>
       <use xlink:href="#DejaVuSerif-35" x="306.445312"/>
      </g>
     </g>
    </g>
    <g id="ytick_8">
     <g id="line2d_53">
      <path d="M 47.465469 186.004059 
L 214.03975 186.004059 
" clip-path="url(#p407b38dc98)" style="fill: none; stroke: #b0b0b0; stroke-width: 0.1; stroke-linecap: round"/>
     </g>
     <g id="line2d_54"/>
     <g id="text_19">
      <!-- 0.000 -->
      <g style="fill: #262626" transform="translate(23.925781 188.663512) scale(0.07 -0.07)">
       <use xlink:href="#DejaVuSerif-30"/>
       <use xlink:href="#DejaVuSerif-2e" x="63.623047"/>
       <use xlink:href="#DejaVuSerif-30" x="95.410156"/>
       <use xlink:href="#DejaVuSerif-30" x="159.033203"/>
       <use xlink:href="#DejaVuSerif-30" x="222.65625"/>
      </g>
     </g>
    </g>
    <g id="ytick_9">
     <g id="line2d_55">
      <path d="M 47.465469 167.753461 
L 214.03975 167.753461 
" clip-path="url(#p407b38dc98)" style="fill: none; stroke: #b0b0b0; stroke-width: 0.1; stroke-linecap: round"/>
     </g>
     <g id="line2d_56"/>
     <g id="text_20">
      <!-- 0.025 -->
      <g style="fill: #262626" transform="translate(23.925781 170.412914) scale(0.07 -0.07)">
       <use xlink:href="#DejaVuSerif-30"/>
       <use xlink:href="#DejaVuSerif-2e" x="63.623047"/>
       <use xlink:href="#DejaVuSerif-30" x="95.410156"/>
       <use xlink:href="#DejaVuSerif-32" x="159.033203"/>
       <use xlink:href="#DejaVuSerif-35" x="222.65625"/>
      </g>
     </g>
    </g>
    <g id="text_21">
     <!-- $r$ $[rad/s]$ -->
     <g style="fill: #262626" transform="translate(12.604219 199.990677) rotate(-90) scale(0.07 -0.07)">
      <defs>
       <path id="DejaVuSans-Oblique-72" d="M 2853 2969 
Q 2766 3016 2653 3041 
Q 2541 3066 2413 3066 
Q 1953 3066 1609 2717 
Q 1266 2369 1153 1784 
L 800 0 
L 225 0 
L 909 3500 
L 1484 3500 
L 1375 2956 
Q 1603 3259 1920 3421 
Q 2238 3584 2597 3584 
Q 2691 3584 2781 3573 
Q 2872 3563 2963 3538 
L 2853 2969 
z
" transform="scale(0.015625)"/>
       <path id="DejaVuSans-Oblique-61" d="M 3438 1997 
L 3047 0 
L 2472 0 
L 2578 531 
Q 2325 219 2001 64 
Q 1678 -91 1281 -91 
Q 834 -91 548 182 
Q 263 456 263 884 
Q 263 1497 752 1853 
Q 1241 2209 2100 2209 
L 2900 2209 
L 2931 2363 
Q 2938 2388 2941 2417 
Q 2944 2447 2944 2509 
Q 2944 2788 2717 2942 
Q 2491 3097 2081 3097 
Q 1800 3097 1504 3025 
Q 1209 2953 897 2809 
L 997 3341 
Q 1322 3463 1633 3523 
Q 1944 3584 2234 3584 
Q 2853 3584 3176 3315 
Q 3500 3047 3500 2534 
Q 3500 2431 3484 2292 
Q 3469 2153 3438 1997 
z
M 2816 1759 
L 2241 1759 
Q 1534 1759 1195 1570 
Q 856 1381 856 984 
Q 856 709 1029 553 
Q 1203 397 1509 397 
Q 1978 397 2328 733 
Q 2678 1069 2791 1631 
L 2816 1759 
z
" transform="scale(0.015625)"/>
       <path id="DejaVuSans-2f" d="M 1625 4666 
L 2156 4666 
L 531 -594 
L 0 -594 
L 1625 4666 
z
" transform="scale(0.015625)"/>
       <path id="DejaVuSans-Oblique-73" d="M 3200 3397 
L 3091 2853 
Q 2863 2978 2609 3040 
Q 2356 3103 2088 3103 
Q 1634 3103 1373 2948 
Q 1113 2794 1113 2528 
Q 1113 2219 1719 2053 
Q 1766 2041 1788 2034 
L 1972 1978 
Q 2547 1819 2739 1644 
Q 2931 1469 2931 1166 
Q 2931 609 2489 259 
Q 2047 -91 1331 -91 
Q 1053 -91 747 -37 
Q 441 16 72 128 
L 184 722 
Q 500 559 806 475 
Q 1113 391 1394 391 
Q 1816 391 2080 572 
Q 2344 753 2344 1031 
Q 2344 1331 1650 1516 
L 1591 1531 
L 1394 1581 
Q 956 1697 753 1886 
Q 550 2075 550 2369 
Q 550 2928 970 3256 
Q 1391 3584 2113 3584 
Q 2397 3584 2667 3537 
Q 2938 3491 3200 3397 
z
" transform="scale(0.015625)"/>
      </defs>
      <use xlink:href="#DejaVuSans-Oblique-72" transform="translate(0 0.015625)"/>
      <use xlink:href="#DejaVuSerif-20" transform="translate(41.113281 0.015625)"/>
      <use xlink:href="#DejaVuSans-5b" transform="translate(72.900391 0.015625)"/>
      <use xlink:href="#DejaVuSans-Oblique-72" transform="translate(111.914062 0.015625)"/>
      <use xlink:href="#DejaVuSans-Oblique-61" transform="translate(153.027344 0.015625)"/>
      <use xlink:href="#DejaVuSans-Oblique-64" transform="translate(214.306641 0.015625)"/>
      <use xlink:href="#DejaVuSans-2f" transform="translate(277.783203 0.015625)"/>
      <use xlink:href="#DejaVuSans-Oblique-73" transform="translate(311.474609 0.015625)"/>
      <use xlink:href="#DejaVuSans-5d" transform="translate(363.574219 0.015625)"/>
     </g>
    </g>
   </g>
   <g id="line2d_57">
    <path d="M 55.037027 186.004059 
L 55.441059 186.124359 
L 55.885494 186.521706 
L 56.410736 187.320543 
L 57.057187 188.78874 
L 57.86525 191.274604 
L 59.036943 194.770034 
L 60.208636 197.599467 
L 61.461135 200.046257 
L 62.754037 202.055669 
L 64.208552 203.864056 
L 65.905486 205.566341 
L 67.238791 206.610382 
L 69.299354 207.91913 
L 71.27911 208.978912 
L 72.854835 209.623627 
L 76.693138 210.885841 
L 82.996036 212.249727 
L 83.400068 211.970314 
L 83.884906 211.355149 
L 84.450551 210.277797 
L 85.177809 208.356968 
L 86.026276 205.424974 
L 87.036355 201.081047 
L 88.410064 194.082212 
L 89.460547 189.382993 
L 90.63224 185.155645 
L 91.803932 181.735304 
L 93.056431 178.788257 
L 94.389736 176.215781 
L 95.884655 173.841448 
L 97.419976 171.904737 
L 98.955297 170.340326 
L 101.217876 168.469069 
L 103.359245 167.095683 
L 106.187469 165.635749 
L 110.914642 163.694059 
L 116.813508 161.754016 
L 120.409392 160.870661 
L 130.793013 158.863811 
L 135.479783 158.201493 
L 138.550426 157.836891 
L 143.075583 157.339154 
L 143.479615 157.511802 
L 143.92405 157.963813 
L 144.489695 158.909544 
L 145.136146 160.455762 
L 145.903807 162.907582 
L 146.873483 166.788294 
L 148.045176 172.483779 
L 149.540094 179.857446 
L 150.671383 184.151972 
L 151.843076 187.731798 
L 153.014769 190.655019 
L 154.388477 193.465319 
L 155.923799 196.009389 
L 157.378313 197.987557 
L 158.792425 199.602007 
L 160.448956 201.150181 
L 162.024681 202.396925 
L 163.883227 203.635127 
L 166.186209 204.906474 
L 169.014433 206.192742 
L 173.53959 208.008086 
L 178.872812 209.777802 
L 182.589906 210.722879 
L 190.064496 212.257561 
L 195.438121 213.148847 
L 198.46836 213.574478 
L 205.781338 214.441425 
L 205.781338 214.441425 
" clip-path="url(#p407b38dc98)" style="fill: none; stroke: #0000ff; stroke-width: 0.6; stroke-linecap: round"/>
   </g>
   <g id="line2d_58">
    <path d="M 55.037027 186.004059 
L 55.441059 186.124316 
L 55.885494 186.521294 
L 56.451139 187.396009 
L 57.09759 188.892247 
L 57.946057 191.524747 
L 59.117749 194.941954 
L 60.329845 197.775771 
L 61.541941 200.05068 
L 62.79444 201.918406 
L 64.046939 203.435499 
L 65.541857 204.874046 
L 66.996372 205.965934 
L 68.814516 207.052731 
L 70.996288 208.045482 
L 72.491206 208.600004 
L 76.006284 209.574289 
L 78.228459 210.056575 
L 83.723294 210.769187 
L 84.127326 210.47534 
L 84.612164 209.821425 
L 85.258615 208.530287 
L 85.985872 206.520526 
L 86.834339 203.509408 
L 87.884822 198.878202 
L 90.753449 185.565393 
L 91.884739 181.897834 
L 93.096834 178.719944 
L 94.349333 176.049559 
L 95.642235 173.830976 
L 97.09675 171.818324 
L 98.430056 170.359612 
L 100.12699 168.828093 
L 101.581505 167.795712 
L 103.80368 166.539404 
L 105.460211 165.798075 
L 109.540934 164.371917 
L 115.641816 162.732286 
L 120.00536 161.993993 
L 125.096163 161.278517 
L 130.065755 160.740184 
L 144.368485 159.655813 
L 144.732114 159.874368 
L 145.216953 160.443448 
L 145.782597 161.481792 
L 146.469451 163.243225 
L 147.317919 166.087311 
L 148.327998 170.312984 
L 149.499691 176.217841 
L 150.63098 181.715609 
L 151.721866 185.940918 
L 152.853156 189.474177 
L 154.024848 192.452385 
L 155.398557 195.296438 
L 156.731862 197.525528 
L 158.105571 199.363928 
L 159.640892 201.035646 
L 161.25702 202.491737 
L 163.075164 203.802728 
L 164.974114 204.91385 
L 167.277096 205.936098 
L 169.984109 206.908562 
L 176.650636 208.749283 
L 180.569746 209.522694 
L 191.963446 211.065585 
L 194.185622 211.296477 
L 199.59965 211.795467 
L 206.468192 212.244917 
L 206.468192 212.244917 
" clip-path="url(#p407b38dc98)" style="fill: none; stroke: #008000; stroke-width: 0.6; stroke-linecap: round"/>
   </g>
   <g id="line2d_59">
    <path d="M 55.037027 186.004059 
L 55.400656 186.112362 
L 55.804688 186.474628 
L 56.289526 187.218129 
L 56.935977 188.670481 
L 57.744041 191.116105 
L 58.956137 194.849136 
L 60.168232 197.863392 
L 61.420731 200.391602 
L 62.67323 202.432213 
L 64.006536 204.175582 
L 65.461051 205.708334 
L 67.036775 207.047005 
L 68.652903 208.124779 
L 70.673062 209.174856 
L 72.814432 210.032854 
L 75.157817 210.751135 
L 78.147653 211.422754 
L 81.703134 211.989438 
L 82.632407 212.005503 
L 83.036439 211.710244 
L 83.521278 211.030942 
L 84.086922 209.846019 
L 84.773777 207.871374 
L 85.622244 204.700681 
L 86.71313 199.671319 
L 89.783773 184.740167 
L 90.955465 180.745869 
L 92.167561 177.41965 
L 93.42006 174.640012 
L 94.672559 172.38703 
L 96.005864 170.431926 
L 97.460379 168.68716 
L 98.9957 167.186156 
L 100.652231 165.875748 
L 102.551181 164.661292 
L 104.611744 163.612625 
L 106.955129 162.677337 
L 109.823756 161.779918 
L 112.975205 161.033297 
L 117.21754 160.276346 
L 121.419472 159.7061 
L 126.308258 159.275547 
L 132.853576 158.940019 
L 140.045344 158.816052 
L 140.449376 158.991803 
L 140.893811 159.460171 
L 141.419052 160.375645 
L 142.065504 161.990725 
L 142.833164 164.54185 
L 143.762438 168.448976 
L 144.974533 174.55486 
L 146.671467 183.216245 
L 147.802757 187.682206 
L 148.974449 191.422619 
L 150.186545 194.560432 
L 151.439044 197.194174 
L 152.731946 199.400724 
L 154.105655 201.329166 
L 155.56017 202.982689 
L 157.176297 204.493196 
L 158.994441 205.8753 
L 160.974198 207.108939 
L 163.196373 208.215226 
L 165.701371 209.222458 
L 168.367982 210.048153 
L 171.64064 210.822887 
L 175.721363 211.554818 
L 180.610149 212.180707 
L 187.034257 212.777503 
L 192.811913 213.050823 
L 198.629973 213.200412 
L 198.629973 213.200412 
" clip-path="url(#p407b38dc98)" style="fill: none; stroke: #ff0000; stroke-width: 0.6; stroke-linecap: round"/>
   </g>
   <g id="patch_9">
    <path d="M 47.465469 217.297 
L 47.465469 154.474353 
" style="fill: none; stroke: #000000; stroke-linejoin: miter; stroke-linecap: square"/>
   </g>
   <g id="patch_10">
    <path d="M 47.465469 217.297 
L 214.03975 217.297 
" style="fill: none; stroke: #000000; stroke-linejoin: miter; stroke-linecap: square"/>
   </g>
  </g>
 </g>
 <defs>
  <clipPath id="p5b869157f8">
   <rect x="47.465469" y="28.829059" width="166.574282" height="62.822647"/>
  </clipPath>
  <clipPath id="paa0bb89c4f">
   <rect x="47.465469" y="91.651706" width="166.574282" height="62.822647"/>
  </clipPath>
  <clipPath id="p407b38dc98">
   <rect x="47.465469" y="154.474353" width="166.574282" height="62.822647"/>
  </clipPath>
 </defs>
</svg>
