<?xml version="1.0" encoding="utf-8" standalone="no"?>
<!DOCTYPE svg PUBLIC "-//W3C//DTD SVG 1.1//EN"
  "http://www.w3.org/Graphics/SVG/1.1/DTD/svg11.dtd">
<svg xmlns:xlink="http://www.w3.org/1999/xlink" width="219.591719pt" height="131.179375pt" viewBox="0 0 219.591719 131.179375" xmlns="http://www.w3.org/2000/svg" version="1.1">
 <metadata>
  <rdf:RDF xmlns:dc="http://purl.org/dc/elements/1.1/" xmlns:cc="http://creativecommons.org/ns#" xmlns:rdf="http://www.w3.org/1999/02/22-rdf-syntax-ns#">
   <cc:Work>
    <dc:type rdf:resource="http://purl.org/dc/dcmitype/StillImage"/>
    <dc:date>2024-02-13T12:47:53.927562</dc:date>
    <dc:format>image/svg+xml</dc:format>
    <dc:creator>
     <cc:Agent>
      <dc:title>Matplotlib v3.8.2, https://matplotlib.org/</dc:title>
     </cc:Agent>
    </dc:creator>
   </cc:Work>
  </rdf:RDF>
 </metadata>
 <defs>
  <style type="text/css">*{stroke-linejoin: round; stroke-linecap: butt}</style>
 </defs>
 <g id="figure_1">
  <g id="patch_1">
   <path d="M 0 131.179375 
L 219.591719 131.179375 
L 219.591719 -0 
L 0 -0 
z
" style="fill: #ffffff"/>
  </g>
  <g id="axes_1">
   <g id="patch_2">
    <path d="M 43.011719 39.11 
L 212.391719 39.11 
L 212.391719 7.2 
L 43.011719 7.2 
z
" style="fill: #ffffff"/>
   </g>
   <g id="line2d_1">
    <path d="M 50.71081 23.255773 
L 52.284973 23.413551 
L 53.968962 23.805633 
L 55.616343 24.419835 
L 59.753099 26.417026 
L 64.329156 28.712737 
L 70.955287 31.474517 
L 74.359874 32.580297 
L 77.398376 33.381409 
L 78.826106 33.489645 
L 80.253836 33.377326 
L 81.718174 33.037262 
L 83.255729 32.444452 
L 84.793285 31.608341 
L 86.367448 30.494496 
L 95.409738 23.48768 
L 98.594673 21.523703 
L 101.816218 19.768999 
L 104.37881 18.645662 
L 110.419206 16.320366 
L 114.336311 15.112607 
L 120.04723 13.536095 
L 125.538499 12.342351 
L 132.896799 11.114224 
L 138.35146 10.482197 
L 141.170311 10.354594 
L 142.561432 10.495147 
L 144.355247 10.902533 
L 146.039236 11.498322 
L 147.503574 12.251846 
L 149.077738 13.318906 
L 150.944769 14.869904 
L 155.703869 18.941914 
L 158.632546 21.239823 
L 161.341572 23.066293 
L 164.563116 24.971472 
L 167.381967 26.393148 
L 170.420469 27.657211 
L 175.435828 29.50144 
L 181.512832 31.344964 
L 185.503154 32.386493 
L 191.873026 33.73226 
L 197.108036 34.561099 
L 203.770775 35.35436 
L 204.685986 35.445356 
L 204.685986 35.445356 
" clip-path="url(#p5e57dcce67)" style="fill: none; stroke: #000000; stroke-width: 0.6; stroke-linecap: round"/>
   </g>
   <g id="matplotlib.axis_1">
    <g id="xtick_1">
     <g id="line2d_2">
      <path d="M 50.71081 39.11 
L 50.71081 7.2 
" clip-path="url(#p5e57dcce67)" style="fill: none; stroke: #b0b0b0; stroke-width: 0.8; stroke-linecap: round"/>
     </g>
     <g id="line2d_3"/>
    </g>
    <g id="xtick_2">
     <g id="line2d_4">
      <path d="M 87.566199 39.11 
L 87.566199 7.2 
" clip-path="url(#p5e57dcce67)" style="fill: none; stroke: #b0b0b0; stroke-width: 0.8; stroke-linecap: round"/>
     </g>
     <g id="line2d_5"/>
    </g>
    <g id="xtick_3">
     <g id="line2d_6">
      <path d="M 124.421589 39.11 
L 124.421589 7.2 
" clip-path="url(#p5e57dcce67)" style="fill: none; stroke: #b0b0b0; stroke-width: 0.8; stroke-linecap: round"/>
     </g>
     <g id="line2d_7"/>
    </g>
    <g id="xtick_4">
     <g id="line2d_8">
      <path d="M 161.276979 39.11 
L 161.276979 7.2 
" clip-path="url(#p5e57dcce67)" style="fill: none; stroke: #b0b0b0; stroke-width: 0.8; stroke-linecap: round"/>
     </g>
     <g id="line2d_9"/>
    </g>
    <g id="xtick_5">
     <g id="line2d_10">
      <path d="M 198.132368 39.11 
L 198.132368 7.2 
" clip-path="url(#p5e57dcce67)" style="fill: none; stroke: #b0b0b0; stroke-width: 0.8; stroke-linecap: round"/>
     </g>
     <g id="line2d_11"/>
    </g>
   </g>
   <g id="matplotlib.axis_2">
    <g id="ytick_1">
     <g id="line2d_12">
      <path d="M 43.011719 33.158017 
L 212.391719 33.158017 
" clip-path="url(#p5e57dcce67)" style="fill: none; stroke: #b0b0b0; stroke-width: 0.8; stroke-linecap: round"/>
     </g>
     <g id="line2d_13"/>
     <g id="text_1">
      <!-- −10 -->
      <g style="fill: #262626" transform="translate(24.738438 35.81747) scale(0.07 -0.07)">
       <defs>
        <path id="DejaVuSerif-2212" d="M 678 2259 
L 4684 2259 
L 4684 1753 
L 678 1753 
L 678 2259 
z
" transform="scale(0.015625)"/>
        <path id="DejaVuSerif-31" d="M 909 0 
L 909 331 
L 1722 331 
L 1722 4213 
L 781 3603 
L 781 4013 
L 1919 4750 
L 2350 4750 
L 2350 331 
L 3163 331 
L 3163 0 
L 909 0 
z
" transform="scale(0.015625)"/>
        <path id="DejaVuSerif-30" d="M 2034 219 
Q 2513 219 2750 744 
Q 2988 1269 2988 2328 
Q 2988 3391 2750 3916 
Q 2513 4441 2034 4441 
Q 1556 4441 1318 3916 
Q 1081 3391 1081 2328 
Q 1081 1269 1318 744 
Q 1556 219 2034 219 
z
M 2034 -91 
Q 1275 -91 848 546 
Q 422 1184 422 2328 
Q 422 3475 848 4112 
Q 1275 4750 2034 4750 
Q 2797 4750 3222 4112 
Q 3647 3475 3647 2328 
Q 3647 1184 3222 546 
Q 2797 -91 2034 -91 
z
" transform="scale(0.015625)"/>
       </defs>
       <use xlink:href="#DejaVuSerif-2212"/>
       <use xlink:href="#DejaVuSerif-31" x="83.789062"/>
       <use xlink:href="#DejaVuSerif-30" x="147.412109"/>
      </g>
     </g>
    </g>
    <g id="ytick_2">
     <g id="line2d_14">
      <path d="M 43.011719 23.215422 
L 212.391719 23.215422 
" clip-path="url(#p5e57dcce67)" style="fill: none; stroke: #b0b0b0; stroke-width: 0.8; stroke-linecap: round"/>
     </g>
     <g id="line2d_15"/>
     <g id="text_2">
      <!-- 0 -->
      <g style="fill: #262626" transform="translate(35.057969 25.874875) scale(0.07 -0.07)">
       <use xlink:href="#DejaVuSerif-30"/>
      </g>
     </g>
    </g>
    <g id="ytick_3">
     <g id="line2d_16">
      <path d="M 43.011719 13.272828 
L 212.391719 13.272828 
" clip-path="url(#p5e57dcce67)" style="fill: none; stroke: #b0b0b0; stroke-width: 0.8; stroke-linecap: round"/>
     </g>
     <g id="line2d_17"/>
     <g id="text_3">
      <!-- 10 -->
      <g style="fill: #262626" transform="translate(30.604219 15.932281) scale(0.07 -0.07)">
       <use xlink:href="#DejaVuSerif-31"/>
       <use xlink:href="#DejaVuSerif-30" x="63.623047"/>
      </g>
     </g>
    </g>
    <g id="text_4">
     <!-- $\beta$ $[deg]$ -->
     <g style="fill: #262626" transform="translate(12.59 35.86) rotate(-90) scale(0.07 -0.07)">
      <defs>
       <path id="DejaVuSans-Oblique-3b2" d="M 872 216 
L 572 -1331 
L -6 -1331 
L 928 3478 
Q 1206 4903 2538 4903 
Q 3888 4903 3659 3700 
Q 3503 2844 2894 2531 
Q 3713 2250 3553 1416 
Q 3272 -69 1759 -66 
Q 1097 -63 872 216 
z
M 1019 966 
Q 1259 422 1875 425 
Q 2775 425 2966 1406 
Q 3138 2288 1675 2219 
L 1778 2750 
Q 2909 2731 3106 3750 
Q 3241 4438 2509 4434 
Q 1691 4434 1503 3459 
L 1019 966 
z
" transform="scale(0.015625)"/>
       <path id="DejaVuSerif-20" transform="scale(0.015625)"/>
       <path id="DejaVuSans-5b" d="M 550 4863 
L 1875 4863 
L 1875 4416 
L 1125 4416 
L 1125 -397 
L 1875 -397 
L 1875 -844 
L 550 -844 
L 550 4863 
z
" transform="scale(0.015625)"/>
       <path id="DejaVuSans-Oblique-64" d="M 2675 525 
Q 2444 222 2128 65 
Q 1813 -91 1428 -91 
Q 903 -91 598 267 
Q 294 625 294 1247 
Q 294 1766 478 2236 
Q 663 2706 1013 3078 
Q 1244 3325 1534 3454 
Q 1825 3584 2144 3584 
Q 2481 3584 2739 3421 
Q 2997 3259 3138 2956 
L 3513 4863 
L 4091 4863 
L 3144 0 
L 2566 0 
L 2675 525 
z
M 891 1350 
Q 891 897 1095 644 
Q 1300 391 1663 391 
Q 1931 391 2161 520 
Q 2391 650 2566 903 
Q 2750 1166 2856 1509 
Q 2963 1853 2963 2188 
Q 2963 2622 2758 2865 
Q 2553 3109 2194 3109 
Q 1922 3109 1687 2981 
Q 1453 2853 1288 2613 
Q 1106 2353 998 2009 
Q 891 1666 891 1350 
z
" transform="scale(0.015625)"/>
       <path id="DejaVuSans-Oblique-65" d="M 3078 2063 
Q 3088 2113 3092 2166 
Q 3097 2219 3097 2272 
Q 3097 2653 2873 2875 
Q 2650 3097 2266 3097 
Q 1838 3097 1509 2826 
Q 1181 2556 1013 2059 
L 3078 2063 
z
M 3578 1613 
L 903 1613 
Q 884 1494 878 1425 
Q 872 1356 872 1306 
Q 872 872 1139 634 
Q 1406 397 1894 397 
Q 2269 397 2603 481 
Q 2938 566 3225 728 
L 3116 159 
Q 2806 34 2476 -28 
Q 2147 -91 1806 -91 
Q 1078 -91 686 257 
Q 294 606 294 1247 
Q 294 1794 489 2264 
Q 684 2734 1063 3103 
Q 1306 3334 1642 3459 
Q 1978 3584 2356 3584 
Q 2950 3584 3301 3228 
Q 3653 2872 3653 2272 
Q 3653 2128 3634 1964 
Q 3616 1800 3578 1613 
z
" transform="scale(0.015625)"/>
       <path id="DejaVuSans-Oblique-67" d="M 3816 3500 
L 3219 434 
Q 3047 -456 2561 -893 
Q 2075 -1331 1253 -1331 
Q 950 -1331 690 -1286 
Q 431 -1241 206 -1147 
L 313 -588 
Q 525 -725 762 -790 
Q 1000 -856 1269 -856 
Q 1816 -856 2167 -557 
Q 2519 -259 2631 300 
L 2681 563 
Q 2441 288 2122 144 
Q 1803 0 1434 0 
Q 903 0 598 351 
Q 294 703 294 1319 
Q 294 1803 478 2267 
Q 663 2731 997 3091 
Q 1219 3328 1514 3456 
Q 1809 3584 2131 3584 
Q 2484 3584 2746 3420 
Q 3009 3256 3138 2956 
L 3238 3500 
L 3816 3500 
z
M 2950 2216 
Q 2950 2641 2750 2872 
Q 2550 3103 2181 3103 
Q 1953 3103 1747 3012 
Q 1541 2922 1394 2759 
Q 1156 2491 1023 2127 
Q 891 1763 891 1375 
Q 891 944 1092 712 
Q 1294 481 1672 481 
Q 2219 481 2584 976 
Q 2950 1472 2950 2216 
z
" transform="scale(0.015625)"/>
       <path id="DejaVuSans-5d" d="M 1947 4863 
L 1947 -844 
L 622 -844 
L 622 -397 
L 1369 -397 
L 1369 4416 
L 622 4416 
L 622 4863 
L 1947 4863 
z
" transform="scale(0.015625)"/>
      </defs>
      <use xlink:href="#DejaVuSans-Oblique-3b2" transform="translate(0 0.390625)"/>
      <use xlink:href="#DejaVuSerif-20" transform="translate(63.818359 0.390625)"/>
      <use xlink:href="#DejaVuSans-5b" transform="translate(95.605469 0.390625)"/>
      <use xlink:href="#DejaVuSans-Oblique-64" transform="translate(134.619141 0.390625)"/>
      <use xlink:href="#DejaVuSans-Oblique-65" transform="translate(198.095703 0.390625)"/>
      <use xlink:href="#DejaVuSans-Oblique-67" transform="translate(259.619141 0.390625)"/>
      <use xlink:href="#DejaVuSans-5d" transform="translate(323.095703 0.390625)"/>
     </g>
    </g>
   </g>
   <g id="line2d_18">
    <path d="M 50.71081 23.215422 
L 52.369302 23.326563 
L 53.917229 23.655075 
L 55.465155 24.221069 
L 60.108934 26.366048 
L 65.710953 28.854754 
L 70.539009 30.751939 
L 75.588198 32.495171 
L 78.757761 33.402525 
L 80.158266 33.543214 
L 81.558771 33.45909 
L 82.959276 33.152437 
L 84.433491 32.596823 
L 85.981418 31.76811 
L 87.861042 30.481139 
L 95.416397 25.158745 
L 99.323069 22.72095 
L 103.487728 20.399709 
L 107.283833 18.538601 
L 111.70648 16.627617 
L 116.276548 14.896791 
L 121.178315 13.274314 
L 126.559202 11.725283 
L 132.308642 10.295343 
L 139.016323 8.867871 
L 140.637961 8.6563 
L 142.00161 8.716682 
L 143.402115 9.003521 
L 144.87633 9.537342 
L 146.461112 10.358108 
L 148.119605 11.47202 
L 151.362879 14.038937 
L 156.854332 18.272147 
L 160.797859 21.033712 
L 164.70453 23.479082 
L 168.832334 25.799456 
L 172.591583 27.666541 
L 176.977375 29.590425 
L 181.510588 31.341986 
L 186.559776 33.057479 
L 191.977518 34.65341 
L 198.316645 36.267507 
L 204.692628 37.659545 
L 204.692628 37.659545 
" clip-path="url(#p5e57dcce67)" style="fill: none; stroke: #0000ff; stroke-width: 0.6; stroke-linecap: round"/>
   </g>
   <g id="line2d_19">
    <path d="M 50.71081 23.215422 
L 52.369302 23.326355 
L 53.917229 23.653513 
L 55.465155 24.215449 
L 61.067174 26.74793 
L 65.674098 28.678394 
L 70.281022 30.367543 
L 75.145933 31.897071 
L 79.163171 32.952319 
L 80.637386 33.090286 
L 82.074746 32.992219 
L 83.548962 32.657312 
L 85.060033 32.075621 
L 86.607959 31.234637 
L 88.450729 29.958397 
L 95.71124 24.768918 
L 99.286213 22.538158 
L 103.082318 20.448623 
L 106.620436 18.748539 
L 110.563963 17.10186 
L 114.839188 15.564202 
L 119.482967 14.130784 
L 124.679577 12.770829 
L 130.613295 11.454599 
L 137.468397 10.172265 
L 141.190791 9.644718 
L 142.591296 9.71534 
L 143.991801 10.003316 
L 145.466017 10.531006 
L 147.050798 11.340472 
L 148.709291 12.4429 
L 151.326024 14.5254 
L 157.001754 18.983365 
L 160.724148 21.608218 
L 164.299121 23.837346 
L 168.05837 25.919442 
L 171.633343 27.653983 
L 175.429448 29.245295 
L 179.630963 30.778542 
L 184.459019 32.297237 
L 189.471352 33.641722 
L 195.515636 35.023387 
L 201.670486 36.212728 
L 204.397785 36.680393 
L 204.397785 36.680393 
" clip-path="url(#p5e57dcce67)" style="fill: none; stroke: #008000; stroke-width: 0.6; stroke-linecap: round"/>
   </g>
   <g id="line2d_20">
    <path d="M 50.71081 23.215422 
L 52.516724 23.325353 
L 53.990939 23.631791 
L 55.317733 24.128083 
L 58.671574 25.810123 
L 64.015605 28.334563 
L 68.438252 30.177309 
L 72.897754 31.7899 
L 77.357256 33.174764 
L 78.757761 33.403356 
L 80.084555 33.399572 
L 81.411349 33.176513 
L 82.774999 32.720496 
L 84.212359 32.000108 
L 85.686574 31.013668 
L 87.381922 29.597676 
L 91.030606 26.56786 
L 94.458157 23.997829 
L 97.701432 21.842164 
L 100.981561 19.928923 
L 104.409112 18.189124 
L 108.168362 16.533921 
L 112.1856 15.014916 
L 116.534536 13.60833 
L 121.325736 12.292762 
L 126.780334 11.032722 
L 132.750907 9.89022 
L 136.510157 9.343477 
L 137.836951 9.422559 
L 139.163745 9.724732 
L 140.527394 10.264618 
L 142.00161 11.09663 
L 143.586392 12.259115 
L 145.28174 13.789624 
L 148.746146 17.052755 
L 152.026276 19.855185 
L 155.122129 22.208492 
L 158.217981 24.282159 
L 161.461256 26.18444 
L 164.888807 27.934636 
L 168.46378 29.512347 
L 172.554728 31.06764 
L 176.866809 32.468698 
L 181.805431 33.833179 
L 187.075752 35.054958 
L 193.304312 36.26783 
L 197.026707 36.889795 
L 197.026707 36.889795 
" clip-path="url(#p5e57dcce67)" style="fill: none; stroke: #ff0000; stroke-width: 0.6; stroke-linecap: round"/>
   </g>
   <g id="patch_3">
    <path d="M 43.011719 39.11 
L 43.011719 7.2 
" style="fill: none; stroke: #000000; stroke-linejoin: miter; stroke-linecap: square"/>
   </g>
   <g id="patch_4">
    <path d="M 43.011719 39.11 
L 212.391719 39.11 
" style="fill: none; stroke: #000000; stroke-linejoin: miter; stroke-linecap: square"/>
   </g>
  </g>
  <g id="axes_2">
   <g id="patch_5">
    <path d="M 43.011719 71.02 
L 212.391719 71.02 
L 212.391719 39.11 
L 43.011719 39.11 
z
" style="fill: #ffffff"/>
   </g>
   <g id="line2d_21">
    <path d="M 50.71081 55.298309 
L 53.749312 55.394524 
L 55.799385 55.68178 
L 57.776242 56.192524 
L 60.229009 57.071353 
L 62.938035 58.270044 
L 67.038182 60.358449 
L 72.78571 63.601144 
L 80.583312 68.028685 
L 82.486952 68.777125 
L 84.244158 69.236952 
L 85.891538 69.440484 
L 87.575527 69.418794 
L 89.552384 69.158991 
L 92.005151 68.599888 
L 94.970436 67.694567 
L 98.594673 66.333939 
L 102.658212 64.585474 
L 109.101301 61.582045 
L 115.141697 58.550513 
L 122.463389 54.697469 
L 142.268565 44.120738 
L 144.977591 42.908532 
L 146.954447 42.262743 
L 148.78487 41.899094 
L 150.542076 41.771063 
L 152.409108 41.866405 
L 154.642224 42.20838 
L 157.497683 42.890039 
L 160.865662 43.919305 
L 165.148851 45.508321 
L 171.518723 48.158349 
L 178.510939 51.324548 
L 187.040709 55.478897 
L 204.685986 64.445712 
L 204.685986 64.445712 
" clip-path="url(#p46ea4ba5db)" style="fill: none; stroke: #000000; stroke-width: 0.6; stroke-linecap: round"/>
   </g>
   <g id="line2d_22">
    <path d="M 50.71081 55.379512 
L 52.35819 58.896863 
L 55.652952 65.750748 
L 76.629598 65.696382 
L 81.974433 54.347357 
L 82.04765 54.26937 
L 82.889645 52.504994 
L 83.768248 50.635549 
L 84.207549 49.722512 
L 84.976327 48.091303 
L 85.891538 46.129414 
L 86.33084 45.22778 
L 86.587099 44.915018 
L 87.905004 44.929882 
L 140.914052 44.97753 
L 142.085522 47.486956 
L 142.158739 47.563721 
L 147.540183 58.953877 
L 147.6134 59.0339 
L 150.834944 65.742604 
L 151.347462 65.74464 
L 204.685986 65.743825 
L 204.685986 65.743825 
" clip-path="url(#p46ea4ba5db)" style="fill: none; stroke-dasharray: 2.22,0.96; stroke-dashoffset: 0; stroke: #808080; stroke-width: 0.6"/>
   </g>
   <g id="matplotlib.axis_3">
    <g id="xtick_6">
     <g id="line2d_23">
      <path d="M 50.71081 71.02 
L 50.71081 39.11 
" clip-path="url(#p46ea4ba5db)" style="fill: none; stroke: #b0b0b0; stroke-width: 0.8; stroke-linecap: round"/>
     </g>
     <g id="line2d_24"/>
    </g>
    <g id="xtick_7">
     <g id="line2d_25">
      <path d="M 87.566199 71.02 
L 87.566199 39.11 
" clip-path="url(#p46ea4ba5db)" style="fill: none; stroke: #b0b0b0; stroke-width: 0.8; stroke-linecap: round"/>
     </g>
     <g id="line2d_26"/>
    </g>
    <g id="xtick_8">
     <g id="line2d_27">
      <path d="M 124.421589 71.02 
L 124.421589 39.11 
" clip-path="url(#p46ea4ba5db)" style="fill: none; stroke: #b0b0b0; stroke-width: 0.8; stroke-linecap: round"/>
     </g>
     <g id="line2d_28"/>
    </g>
    <g id="xtick_9">
     <g id="line2d_29">
      <path d="M 161.276979 71.02 
L 161.276979 39.11 
" clip-path="url(#p46ea4ba5db)" style="fill: none; stroke: #b0b0b0; stroke-width: 0.8; stroke-linecap: round"/>
     </g>
     <g id="line2d_30"/>
    </g>
    <g id="xtick_10">
     <g id="line2d_31">
      <path d="M 198.132368 71.02 
L 198.132368 39.11 
" clip-path="url(#p46ea4ba5db)" style="fill: none; stroke: #b0b0b0; stroke-width: 0.8; stroke-linecap: round"/>
     </g>
     <g id="line2d_32"/>
    </g>
   </g>
   <g id="matplotlib.axis_4">
    <g id="ytick_4">
     <g id="line2d_33">
      <path d="M 43.011719 68.345888 
L 212.391719 68.345888 
" clip-path="url(#p46ea4ba5db)" style="fill: none; stroke: #b0b0b0; stroke-width: 0.8; stroke-linecap: round"/>
     </g>
     <g id="line2d_34"/>
     <g id="text_5">
      <!-- −25 -->
      <g style="fill: #262626" transform="translate(24.738438 71.005341) scale(0.07 -0.07)">
       <defs>
        <path id="DejaVuSerif-32" d="M 819 3553 
L 469 3553 
L 469 4384 
Q 803 4563 1142 4656 
Q 1481 4750 1806 4750 
Q 2534 4750 2956 4397 
Q 3378 4044 3378 3438 
Q 3378 2753 2422 1800 
Q 2347 1728 2309 1691 
L 1131 513 
L 3078 513 
L 3078 1088 
L 3444 1088 
L 3444 0 
L 434 0 
L 434 341 
L 1850 1753 
Q 2319 2222 2519 2614 
Q 2719 3006 2719 3438 
Q 2719 3909 2473 4175 
Q 2228 4441 1797 4441 
Q 1350 4441 1106 4219 
Q 863 3997 819 3553 
z
" transform="scale(0.015625)"/>
        <path id="DejaVuSerif-35" d="M 3219 4666 
L 3219 4153 
L 1081 4153 
L 1081 2816 
Q 1244 2928 1461 2984 
Q 1678 3041 1947 3041 
Q 2703 3041 3140 2622 
Q 3578 2203 3578 1478 
Q 3578 738 3136 323 
Q 2694 -91 1894 -91 
Q 1572 -91 1234 -12 
Q 897 66 544 225 
L 544 1131 
L 897 1131 
Q 925 688 1179 453 
Q 1434 219 1894 219 
Q 2388 219 2653 544 
Q 2919 869 2919 1478 
Q 2919 2084 2655 2407 
Q 2391 2731 1894 2731 
Q 1613 2731 1398 2631 
Q 1184 2531 1019 2322 
L 750 2322 
L 750 4666 
L 3219 4666 
z
" transform="scale(0.015625)"/>
       </defs>
       <use xlink:href="#DejaVuSerif-2212"/>
       <use xlink:href="#DejaVuSerif-32" x="83.789062"/>
       <use xlink:href="#DejaVuSerif-35" x="147.412109"/>
      </g>
     </g>
    </g>
    <g id="ytick_5">
     <g id="line2d_35">
      <path d="M 43.011719 55.336752 
L 212.391719 55.336752 
" clip-path="url(#p46ea4ba5db)" style="fill: none; stroke: #b0b0b0; stroke-width: 0.8; stroke-linecap: round"/>
     </g>
     <g id="line2d_36"/>
     <g id="text_6">
      <!-- 0 -->
      <g style="fill: #262626" transform="translate(35.057969 57.996205) scale(0.07 -0.07)">
       <use xlink:href="#DejaVuSerif-30"/>
      </g>
     </g>
    </g>
    <g id="ytick_6">
     <g id="line2d_37">
      <path d="M 43.011719 42.327616 
L 212.391719 42.327616 
" clip-path="url(#p46ea4ba5db)" style="fill: none; stroke: #b0b0b0; stroke-width: 0.8; stroke-linecap: round"/>
     </g>
     <g id="line2d_38"/>
     <g id="text_7">
      <!-- 25 -->
      <g style="fill: #262626" transform="translate(30.604219 44.987069) scale(0.07 -0.07)">
       <use xlink:href="#DejaVuSerif-32"/>
       <use xlink:href="#DejaVuSerif-35" x="63.623047"/>
      </g>
     </g>
    </g>
    <g id="text_8">
     <!-- $\psi$ $[deg]$ -->
     <g style="fill: #262626" transform="translate(12.59 67.84) rotate(-90) scale(0.07 -0.07)">
      <defs>
       <path id="DejaVuSans-Oblique-3c8" d="M 1591 -78 
Q 891 38 616 341 
Q 278 713 425 1472 
L 819 3500 
L 1400 3500 
L 1009 1494 
Q 900 922 1119 684 
Q 1313 478 1691 434 
L 2284 3500 
L 2856 3500 
L 2263 438 
Q 2681 481 2928 688 
Q 3247 950 3353 1497 
L 3741 3500 
L 4322 3500 
L 3928 1475 
Q 3775 688 3300 344 
Q 2872 34 2163 -75 
L 1919 -1331 
L 1347 -1331 
L 1591 -78 
z
" transform="scale(0.015625)"/>
      </defs>
      <use xlink:href="#DejaVuSans-Oblique-3c8" transform="translate(0 0.015625)"/>
      <use xlink:href="#DejaVuSerif-20" transform="translate(65.966797 0.015625)"/>
      <use xlink:href="#DejaVuSans-5b" transform="translate(97.753906 0.015625)"/>
      <use xlink:href="#DejaVuSans-Oblique-64" transform="translate(136.767578 0.015625)"/>
      <use xlink:href="#DejaVuSans-Oblique-65" transform="translate(200.244141 0.015625)"/>
      <use xlink:href="#DejaVuSans-Oblique-67" transform="translate(261.767578 0.015625)"/>
      <use xlink:href="#DejaVuSans-5d" transform="translate(325.244141 0.015625)"/>
     </g>
    </g>
   </g>
   <g id="line2d_39">
    <path d="M 50.71081 55.336752 
L 54.027795 55.44544 
L 55.98113 55.74206 
L 58.081888 56.301659 
L 60.735476 57.250498 
L 64.199882 58.742936 
L 68.733095 60.953166 
L 74.519391 64.030834 
L 81.96418 68.005428 
L 83.88066 68.689833 
L 85.612864 69.074836 
L 87.234501 69.210841 
L 88.966704 69.125567 
L 91.067461 68.790606 
L 93.610483 68.153367 
L 96.816902 67.109325 
L 100.797284 65.568671 
L 105.441063 63.530426 
L 111.22736 60.741889 
L 117.787619 57.324619 
L 125.379829 53.111511 
L 134.925375 47.546476 
L 143.180982 42.770636 
L 145.171173 41.947474 
L 146.940232 41.449609 
L 148.63558 41.202001 
L 150.367783 41.178427 
L 152.468541 41.380792 
L 155.011563 41.858099 
L 158.07056 42.66801 
L 161.792954 43.894029 
L 166.252456 45.601958 
L 171.227934 47.748708 
L 177.272218 50.604977 
L 183.906188 53.989282 
L 191.461543 58.100172 
L 200.67539 63.367145 
L 204.692628 65.732705 
L 204.692628 65.732705 
" clip-path="url(#p46ea4ba5db)" style="fill: none; stroke: #0000ff; stroke-width: 0.6; stroke-linecap: round"/>
   </g>
   <g id="line2d_40">
    <path d="M 50.71081 55.336752 
L 54.027795 55.445157 
L 55.98113 55.740291 
L 58.118743 56.30622 
L 60.809186 57.259026 
L 64.421015 58.790226 
L 69.322781 61.122055 
L 76.214739 64.662813 
L 82.148457 67.676283 
L 84.101793 68.371303 
L 85.870851 68.767474 
L 87.529344 68.909856 
L 89.187837 68.826361 
L 91.178028 68.497049 
L 93.647339 67.853091 
L 96.816902 66.782708 
L 100.90785 65.154751 
L 105.993894 62.886345 
L 112.554154 59.710429 
L 120.514918 55.604782 
L 130.981848 49.942872 
L 144.3235 42.710718 
L 146.23998 42.044644 
L 147.972183 41.67019 
L 149.630676 41.534765 
L 151.399734 41.618672 
L 153.574202 41.954741 
L 156.190935 42.591556 
L 159.471065 43.629835 
L 163.709434 45.220817 
L 168.795478 47.37542 
L 175.208316 50.352988 
L 182.874237 54.153745 
L 192.051229 58.96779 
L 203.550111 65.258264 
L 204.397785 65.729576 
L 204.397785 65.729576 
" clip-path="url(#p46ea4ba5db)" style="fill: none; stroke: #008000; stroke-width: 0.6; stroke-linecap: round"/>
   </g>
   <g id="line2d_41">
    <path d="M 50.71081 55.336752 
L 53.990939 55.44728 
L 56.017986 55.75037 
L 58.155598 56.306023 
L 60.735476 57.215235 
L 63.905039 58.579664 
L 67.81171 60.514743 
L 72.566056 63.125425 
L 78.61034 66.713769 
L 81.227072 68.1384 
L 83.069842 68.895893 
L 84.728334 69.345257 
L 86.313116 69.549893 
L 87.934753 69.533252 
L 89.851234 69.278624 
L 92.173123 68.735997 
L 95.010988 67.836352 
L 98.438539 66.508916 
L 102.492632 64.693468 
L 107.136411 62.363983 
L 112.443587 59.447911 
L 118.635293 55.783795 
L 125.895805 51.220504 
L 134.741098 45.388582 
L 139.2006 42.52005 
L 141.117081 41.573029 
L 142.812429 40.980707 
L 144.39721 40.658279 
L 145.981992 40.560569 
L 147.824762 40.681888 
L 150.07294 41.064629 
L 152.800239 41.76283 
L 156.080369 42.840534 
L 159.876474 44.328876 
L 164.188555 46.264801 
L 169.127177 48.734905 
L 174.655485 51.753437 
L 180.957757 55.453022 
L 188.439401 60.113448 
L 197.026707 65.719581 
L 197.026707 65.719581 
" clip-path="url(#p46ea4ba5db)" style="fill: none; stroke: #ff0000; stroke-width: 0.6; stroke-linecap: round"/>
   </g>
   <g id="patch_6">
    <path d="M 43.011719 71.02 
L 43.011719 39.11 
" style="fill: none; stroke: #000000; stroke-linejoin: miter; stroke-linecap: square"/>
   </g>
   <g id="patch_7">
    <path d="M 43.011719 71.02 
L 212.391719 71.02 
" style="fill: none; stroke: #000000; stroke-linejoin: miter; stroke-linecap: square"/>
   </g>
  </g>
  <g id="axes_3">
   <g id="patch_8">
    <path d="M 43.011719 102.93 
L 212.391719 102.93 
L 212.391719 71.02 
L 43.011719 71.02 
z
" style="fill: #ffffff"/>
   </g>
   <g id="line2d_42">
    <path d="M 50.71081 86.977564 
L 51.479587 87.233144 
L 52.394799 87.78139 
L 53.529661 88.741889 
L 54.774349 90.083194 
L 56.275295 92.076886 
L 57.739634 93.773695 
L 58.911104 94.820364 
L 61.912998 96.921958 
L 63.04786 97.494749 
L 64.402373 97.940801 
L 66.306013 98.516944 
L 67.953394 99.094961 
L 69.271298 99.306738 
L 70.479377 99.290137 
L 71.321372 99.3384 
L 74.323265 99.916418 
L 75.64117 99.919117 
L 77.764461 99.606528 
L 78.533238 99.155921 
L 79.411841 98.357608 
L 80.583312 96.946474 
L 82.04765 94.788633 
L 83.914682 91.793036 
L 88.051437 84.792778 
L 89.332733 83.340673 
L 90.650638 82.17681 
L 91.968542 81.304359 
L 95.885648 79.217523 
L 97.349986 78.717737 
L 99.436668 78.057643 
L 100.937615 77.603777 
L 102.365345 77.393133 
L 104.744895 77.155595 
L 106.648534 76.788637 
L 108.40574 76.654629 
L 109.61382 76.553979 
L 111.920152 76.102507 
L 113.677358 76.068141 
L 115.141697 76.043816 
L 117.704289 75.67183 
L 119.315061 75.674262 
L 120.52314 75.655529 
L 122.42678 75.371417 
L 124.220595 75.433902 
L 126.380494 75.53977 
L 128.503784 75.286759 
L 129.894906 75.356909 
L 131.725329 75.479395 
L 133.628968 75.331904 
L 135.422783 75.479968 
L 137.106772 75.639946 
L 139.266671 75.552292 
L 140.694401 75.713224 
L 141.499787 76.0025 
L 143.293601 77.037557 
L 144.245421 77.89603 
L 145.4535 79.307198 
L 146.954447 81.425584 
L 152.152848 89.051216 
L 153.836838 90.713554 
L 155.081525 91.691355 
L 156.692297 92.61043 
L 158.156636 93.182359 
L 159.254889 93.713517 
L 161.048704 94.581423 
L 162.403217 94.993616 
L 165.551544 95.780887 
L 166.906057 95.997754 
L 168.809697 96.064648 
L 169.871342 96.16613 
L 172.507151 96.626431 
L 174.264357 96.723256 
L 175.289394 96.815712 
L 177.851986 97.259305 
L 179.462759 97.306955 
L 180.707446 97.374493 
L 182.867345 97.745119 
L 184.478117 97.74763 
L 186.015673 97.796767 
L 187.772879 98.065074 
L 189.859561 98.040536 
L 192.01946 97.954696 
L 193.813274 98.129383 
L 195.680306 98.072221 
L 197.144644 98.014514 
L 199.560802 98.22689 
L 200.842098 98.132688 
L 202.562696 97.97012 
L 204.685986 98.215273 
L 204.685986 98.215273 
" clip-path="url(#pfe3c41c647)" style="fill: none; stroke: #000000; stroke-width: 0.6; stroke-linecap: round"/>
   </g>
   <g id="matplotlib.axis_5">
    <g id="xtick_11">
     <g id="line2d_43">
      <path d="M 50.71081 102.93 
L 50.71081 71.02 
" clip-path="url(#pfe3c41c647)" style="fill: none; stroke: #b0b0b0; stroke-width: 0.8; stroke-linecap: round"/>
     </g>
     <g id="line2d_44"/>
     <g id="text_9">
      <!-- 0 -->
      <g style="fill: #262626" transform="translate(48.483935 111.748906) scale(0.07 -0.07)">
       <use xlink:href="#DejaVuSerif-30"/>
      </g>
     </g>
    </g>
    <g id="xtick_12">
     <g id="line2d_45">
      <path d="M 87.566199 102.93 
L 87.566199 71.02 
" clip-path="url(#pfe3c41c647)" style="fill: none; stroke: #b0b0b0; stroke-width: 0.8; stroke-linecap: round"/>
     </g>
     <g id="line2d_46"/>
     <g id="text_10">
      <!-- 10 -->
      <g style="fill: #262626" transform="translate(83.112449 111.748906) scale(0.07 -0.07)">
       <use xlink:href="#DejaVuSerif-31"/>
       <use xlink:href="#DejaVuSerif-30" x="63.623047"/>
      </g>
     </g>
    </g>
    <g id="xtick_13">
     <g id="line2d_47">
      <path d="M 124.421589 102.93 
L 124.421589 71.02 
" clip-path="url(#pfe3c41c647)" style="fill: none; stroke: #b0b0b0; stroke-width: 0.8; stroke-linecap: round"/>
     </g>
     <g id="line2d_48"/>
     <g id="text_11">
      <!-- 20 -->
      <g style="fill: #262626" transform="translate(119.967839 111.748906) scale(0.07 -0.07)">
       <use xlink:href="#DejaVuSerif-32"/>
       <use xlink:href="#DejaVuSerif-30" x="63.623047"/>
      </g>
     </g>
    </g>
    <g id="xtick_14">
     <g id="line2d_49">
      <path d="M 161.276979 102.93 
L 161.276979 71.02 
" clip-path="url(#pfe3c41c647)" style="fill: none; stroke: #b0b0b0; stroke-width: 0.8; stroke-linecap: round"/>
     </g>
     <g id="line2d_50"/>
     <g id="text_12">
      <!-- 30 -->
      <g style="fill: #262626" transform="translate(156.823229 111.748906) scale(0.07 -0.07)">
       <defs>
        <path id="DejaVuSerif-33" d="M 622 4469 
Q 988 4606 1323 4678 
Q 1659 4750 1953 4750 
Q 2638 4750 3022 4454 
Q 3406 4159 3406 3634 
Q 3406 3213 3140 2930 
Q 2875 2647 2388 2547 
Q 2963 2466 3280 2130 
Q 3597 1794 3597 1259 
Q 3597 606 3158 257 
Q 2719 -91 1894 -91 
Q 1528 -91 1179 -12 
Q 831 66 488 225 
L 488 1131 
L 838 1131 
Q 869 681 1141 450 
Q 1413 219 1906 219 
Q 2384 219 2661 495 
Q 2938 772 2938 1253 
Q 2938 1803 2653 2086 
Q 2369 2369 1819 2369 
L 1522 2369 
L 1522 2688 
L 1678 2688 
Q 2225 2688 2498 2914 
Q 2772 3141 2772 3597 
Q 2772 4006 2547 4223 
Q 2322 4441 1900 4441 
Q 1478 4441 1245 4241 
Q 1013 4041 972 3647 
L 622 3647 
L 622 4469 
z
" transform="scale(0.015625)"/>
       </defs>
       <use xlink:href="#DejaVuSerif-33"/>
       <use xlink:href="#DejaVuSerif-30" x="63.623047"/>
      </g>
     </g>
    </g>
    <g id="xtick_15">
     <g id="line2d_51">
      <path d="M 198.132368 102.93 
L 198.132368 71.02 
" clip-path="url(#pfe3c41c647)" style="fill: none; stroke: #b0b0b0; stroke-width: 0.8; stroke-linecap: round"/>
     </g>
     <g id="line2d_52"/>
     <g id="text_13">
      <!-- 40 -->
      <g style="fill: #262626" transform="translate(193.678618 111.748906) scale(0.07 -0.07)">
       <defs>
        <path id="DejaVuSerif-34" d="M 2234 1581 
L 2234 4063 
L 641 1581 
L 2234 1581 
z
M 3609 0 
L 1484 0 
L 1484 331 
L 2234 331 
L 2234 1247 
L 197 1247 
L 197 1588 
L 2241 4750 
L 2859 4750 
L 2859 1581 
L 3750 1581 
L 3750 1247 
L 2859 1247 
L 2859 331 
L 3609 331 
L 3609 0 
z
" transform="scale(0.015625)"/>
       </defs>
       <use xlink:href="#DejaVuSerif-34"/>
       <use xlink:href="#DejaVuSerif-30" x="63.623047"/>
      </g>
     </g>
    </g>
    <g id="text_14">
     <!-- Time [s] -->
     <g style="fill: #262626" transform="translate(113.217734 122.523594) scale(0.07 -0.07)">
      <defs>
       <path id="DejaVuSerif-54" d="M 1222 0 
L 1222 331 
L 1819 331 
L 1819 4294 
L 447 4294 
L 447 3566 
L 63 3566 
L 63 4666 
L 4206 4666 
L 4206 3566 
L 3822 3566 
L 3822 4294 
L 2450 4294 
L 2450 331 
L 3047 331 
L 3047 0 
L 1222 0 
z
" transform="scale(0.015625)"/>
       <path id="DejaVuSerif-69" d="M 622 4353 
Q 622 4497 726 4603 
Q 831 4709 978 4709 
Q 1122 4709 1226 4603 
Q 1331 4497 1331 4353 
Q 1331 4206 1228 4103 
Q 1125 4000 978 4000 
Q 831 4000 726 4103 
Q 622 4206 622 4353 
z
M 1356 331 
L 1900 331 
L 1900 0 
L 231 0 
L 231 331 
L 781 331 
L 781 2988 
L 231 2988 
L 231 3322 
L 1356 3322 
L 1356 331 
z
" transform="scale(0.015625)"/>
       <path id="DejaVuSerif-6d" d="M 3316 2675 
Q 3481 3041 3739 3227 
Q 3997 3413 4341 3413 
Q 4863 3413 5119 3089 
Q 5375 2766 5375 2113 
L 5375 331 
L 5894 331 
L 5894 0 
L 4300 0 
L 4300 331 
L 4800 331 
L 4800 2047 
Q 4800 2556 4650 2772 
Q 4500 2988 4153 2988 
Q 3769 2988 3567 2697 
Q 3366 2406 3366 1850 
L 3366 331 
L 3866 331 
L 3866 0 
L 2291 0 
L 2291 331 
L 2791 331 
L 2791 2069 
Q 2791 2566 2641 2777 
Q 2491 2988 2144 2988 
Q 1759 2988 1557 2697 
Q 1356 2406 1356 1850 
L 1356 331 
L 1856 331 
L 1856 0 
L 263 0 
L 263 331 
L 781 331 
L 781 2994 
L 231 2994 
L 231 3322 
L 1356 3322 
L 1356 2731 
Q 1516 3063 1762 3238 
Q 2009 3413 2322 3413 
Q 2709 3413 2968 3220 
Q 3228 3028 3316 2675 
z
" transform="scale(0.015625)"/>
       <path id="DejaVuSerif-65" d="M 3469 1600 
L 991 1600 
L 991 1575 
Q 991 903 1244 561 
Q 1497 219 1991 219 
Q 2369 219 2611 417 
Q 2853 616 2950 1006 
L 3413 1006 
Q 3275 459 2904 184 
Q 2534 -91 1931 -91 
Q 1203 -91 761 389 
Q 319 869 319 1663 
Q 319 2450 753 2931 
Q 1188 3413 1894 3413 
Q 2647 3413 3050 2948 
Q 3453 2484 3469 1600 
z
M 2791 1931 
Q 2772 2513 2545 2808 
Q 2319 3103 1894 3103 
Q 1497 3103 1269 2806 
Q 1041 2509 991 1931 
L 2791 1931 
z
" transform="scale(0.015625)"/>
       <path id="DejaVuSerif-5b" d="M 550 4863 
L 2003 4863 
L 2003 4531 
L 1147 4531 
L 1147 -513 
L 2003 -513 
L 2003 -844 
L 550 -844 
L 550 4863 
z
" transform="scale(0.015625)"/>
       <path id="DejaVuSerif-73" d="M 359 184 
L 359 959 
L 691 959 
Q 703 588 923 403 
Q 1144 219 1575 219 
Q 1963 219 2166 364 
Q 2369 509 2369 788 
Q 2369 1006 2220 1140 
Q 2072 1275 1594 1428 
L 1178 1569 
Q 750 1706 558 1912 
Q 366 2119 366 2438 
Q 366 2894 700 3153 
Q 1034 3413 1625 3413 
Q 1888 3413 2178 3344 
Q 2469 3275 2778 3144 
L 2778 2419 
L 2447 2419 
Q 2434 2741 2221 2922 
Q 2009 3103 1644 3103 
Q 1281 3103 1095 2975 
Q 909 2847 909 2591 
Q 909 2381 1050 2254 
Q 1191 2128 1613 1997 
L 2069 1856 
Q 2541 1709 2748 1489 
Q 2956 1269 2956 922 
Q 2956 450 2595 179 
Q 2234 -91 1600 -91 
Q 1278 -91 972 -22 
Q 666 47 359 184 
z
" transform="scale(0.015625)"/>
       <path id="DejaVuSerif-5d" d="M 1947 4863 
L 1947 -844 
L 494 -844 
L 494 -513 
L 1350 -513 
L 1350 4531 
L 494 4531 
L 494 4863 
L 1947 4863 
z
" transform="scale(0.015625)"/>
      </defs>
      <use xlink:href="#DejaVuSerif-54"/>
      <use xlink:href="#DejaVuSerif-69" x="66.699219"/>
      <use xlink:href="#DejaVuSerif-6d" x="98.681641"/>
      <use xlink:href="#DejaVuSerif-65" x="193.505859"/>
      <use xlink:href="#DejaVuSerif-20" x="252.685547"/>
      <use xlink:href="#DejaVuSerif-5b" x="284.472656"/>
      <use xlink:href="#DejaVuSerif-73" x="323.486328"/>
      <use xlink:href="#DejaVuSerif-5d" x="374.804688"/>
     </g>
    </g>
   </g>
   <g id="matplotlib.axis_6">
    <g id="ytick_7">
     <g id="line2d_53">
      <path d="M 43.011719 95.827504 
L 212.391719 95.827504 
" clip-path="url(#pfe3c41c647)" style="fill: none; stroke: #b0b0b0; stroke-width: 0.8; stroke-linecap: round"/>
     </g>
     <g id="line2d_54"/>
     <g id="text_15">
      <!-- −0.05 -->
      <g style="fill: #262626" transform="translate(18.06 98.486957) scale(0.07 -0.07)">
       <defs>
        <path id="DejaVuSerif-2e" d="M 603 325 
Q 603 500 722 622 
Q 841 744 1019 744 
Q 1191 744 1312 622 
Q 1434 500 1434 325 
Q 1434 153 1312 31 
Q 1191 -91 1019 -91 
Q 841 -91 722 29 
Q 603 150 603 325 
z
" transform="scale(0.015625)"/>
       </defs>
       <use xlink:href="#DejaVuSerif-2212"/>
       <use xlink:href="#DejaVuSerif-30" x="83.789062"/>
       <use xlink:href="#DejaVuSerif-2e" x="147.412109"/>
       <use xlink:href="#DejaVuSerif-30" x="179.199219"/>
       <use xlink:href="#DejaVuSerif-35" x="242.822266"/>
      </g>
     </g>
    </g>
    <g id="ytick_8">
     <g id="line2d_55">
      <path d="M 43.011719 87.069962 
L 212.391719 87.069962 
" clip-path="url(#pfe3c41c647)" style="fill: none; stroke: #b0b0b0; stroke-width: 0.8; stroke-linecap: round"/>
     </g>
     <g id="line2d_56"/>
     <g id="text_16">
      <!-- 0.00 -->
      <g style="fill: #262626" transform="translate(23.925781 89.729415) scale(0.07 -0.07)">
       <use xlink:href="#DejaVuSerif-30"/>
       <use xlink:href="#DejaVuSerif-2e" x="63.623047"/>
       <use xlink:href="#DejaVuSerif-30" x="95.410156"/>
       <use xlink:href="#DejaVuSerif-30" x="159.033203"/>
      </g>
     </g>
    </g>
    <g id="ytick_9">
     <g id="line2d_57">
      <path d="M 43.011719 78.31242 
L 212.391719 78.31242 
" clip-path="url(#pfe3c41c647)" style="fill: none; stroke: #b0b0b0; stroke-width: 0.8; stroke-linecap: round"/>
     </g>
     <g id="line2d_58"/>
     <g id="text_17">
      <!-- 0.05 -->
      <g style="fill: #262626" transform="translate(23.925781 80.971873) scale(0.07 -0.07)">
       <use xlink:href="#DejaVuSerif-30"/>
       <use xlink:href="#DejaVuSerif-2e" x="63.623047"/>
       <use xlink:href="#DejaVuSerif-30" x="95.410156"/>
       <use xlink:href="#DejaVuSerif-35" x="159.033203"/>
      </g>
     </g>
    </g>
    <g id="text_18">
     <!-- $r$ $[rad/s]$ -->
     <g style="fill: #262626" transform="translate(12.604219 101.08) rotate(-90) scale(0.07 -0.07)">
      <defs>
       <path id="DejaVuSans-Oblique-72" d="M 2853 2969 
Q 2766 3016 2653 3041 
Q 2541 3066 2413 3066 
Q 1953 3066 1609 2717 
Q 1266 2369 1153 1784 
L 800 0 
L 225 0 
L 909 3500 
L 1484 3500 
L 1375 2956 
Q 1603 3259 1920 3421 
Q 2238 3584 2597 3584 
Q 2691 3584 2781 3573 
Q 2872 3563 2963 3538 
L 2853 2969 
z
" transform="scale(0.015625)"/>
       <path id="DejaVuSans-Oblique-61" d="M 3438 1997 
L 3047 0 
L 2472 0 
L 2578 531 
Q 2325 219 2001 64 
Q 1678 -91 1281 -91 
Q 834 -91 548 182 
Q 263 456 263 884 
Q 263 1497 752 1853 
Q 1241 2209 2100 2209 
L 2900 2209 
L 2931 2363 
Q 2938 2388 2941 2417 
Q 2944 2447 2944 2509 
Q 2944 2788 2717 2942 
Q 2491 3097 2081 3097 
Q 1800 3097 1504 3025 
Q 1209 2953 897 2809 
L 997 3341 
Q 1322 3463 1633 3523 
Q 1944 3584 2234 3584 
Q 2853 3584 3176 3315 
Q 3500 3047 3500 2534 
Q 3500 2431 3484 2292 
Q 3469 2153 3438 1997 
z
M 2816 1759 
L 2241 1759 
Q 1534 1759 1195 1570 
Q 856 1381 856 984 
Q 856 709 1029 553 
Q 1203 397 1509 397 
Q 1978 397 2328 733 
Q 2678 1069 2791 1631 
L 2816 1759 
z
" transform="scale(0.015625)"/>
       <path id="DejaVuSans-2f" d="M 1625 4666 
L 2156 4666 
L 531 -594 
L 0 -594 
L 1625 4666 
z
" transform="scale(0.015625)"/>
       <path id="DejaVuSans-Oblique-73" d="M 3200 3397 
L 3091 2853 
Q 2863 2978 2609 3040 
Q 2356 3103 2088 3103 
Q 1634 3103 1373 2948 
Q 1113 2794 1113 2528 
Q 1113 2219 1719 2053 
Q 1766 2041 1788 2034 
L 1972 1978 
Q 2547 1819 2739 1644 
Q 2931 1469 2931 1166 
Q 2931 609 2489 259 
Q 2047 -91 1331 -91 
Q 1053 -91 747 -37 
Q 441 16 72 128 
L 184 722 
Q 500 559 806 475 
Q 1113 391 1394 391 
Q 1816 391 2080 572 
Q 2344 753 2344 1031 
Q 2344 1331 1650 1516 
L 1591 1531 
L 1394 1581 
Q 956 1697 753 1886 
Q 550 2075 550 2369 
Q 550 2928 970 3256 
Q 1391 3584 2113 3584 
Q 2397 3584 2667 3537 
Q 2938 3491 3200 3397 
z
" transform="scale(0.015625)"/>
      </defs>
      <use xlink:href="#DejaVuSans-Oblique-72" transform="translate(0 0.015625)"/>
      <use xlink:href="#DejaVuSerif-20" transform="translate(41.113281 0.015625)"/>
      <use xlink:href="#DejaVuSans-5b" transform="translate(72.900391 0.015625)"/>
      <use xlink:href="#DejaVuSans-Oblique-72" transform="translate(111.914062 0.015625)"/>
      <use xlink:href="#DejaVuSans-Oblique-61" transform="translate(153.027344 0.015625)"/>
      <use xlink:href="#DejaVuSans-Oblique-64" transform="translate(214.306641 0.015625)"/>
      <use xlink:href="#DejaVuSans-2f" transform="translate(277.783203 0.015625)"/>
      <use xlink:href="#DejaVuSans-Oblique-73" transform="translate(311.474609 0.015625)"/>
      <use xlink:href="#DejaVuSans-5d" transform="translate(363.574219 0.015625)"/>
     </g>
    </g>
   </g>
   <g id="line2d_59">
    <path d="M 50.71081 87.069962 
L 51.447917 87.184302 
L 52.258736 87.55464 
L 53.180121 88.248579 
L 54.175216 89.287002 
L 55.50201 91.019945 
L 56.828804 92.663664 
L 58.081888 93.851293 
L 59.556103 94.941781 
L 61.10403 95.822977 
L 63.02051 96.638792 
L 65.121267 97.314693 
L 67.738 97.918145 
L 72.086936 98.670458 
L 77.099269 99.274584 
L 78.241786 99.279263 
L 79.015749 98.99482 
L 79.863423 98.442309 
L 80.858518 97.503663 
L 82.037891 96.073868 
L 83.585817 93.811198 
L 85.465442 90.634485 
L 88.59815 85.255024 
L 89.851234 83.755459 
L 91.251738 82.446678 
L 92.762809 81.328323 
L 94.384446 80.395661 
L 96.558914 79.424852 
L 98.843949 78.657551 
L 102.861186 77.600732 
L 105.957039 77.005026 
L 111.448492 76.173672 
L 117.45592 75.450898 
L 125.600962 74.719833 
L 131.387258 74.368257 
L 139.790287 74.093773 
L 140.527394 74.353807 
L 141.338213 74.878891 
L 142.370164 75.836208 
L 143.586392 77.290374 
L 145.097463 79.447019 
L 147.161365 82.814048 
L 150.109796 87.668852 
L 151.43659 89.210286 
L 152.837095 90.47811 
L 154.495587 91.668429 
L 156.448923 92.778885 
L 158.586535 93.735135 
L 160.94528 94.545344 
L 164.483398 95.48621 
L 169.716863 96.617371 
L 175.355738 97.454782 
L 185.232982 98.633731 
L 190.466447 99.077213 
L 201.265077 99.767858 
L 204.692628 99.892191 
L 204.692628 99.892191 
" clip-path="url(#pfe3c41c647)" style="fill: none; stroke: #0000ff; stroke-width: 0.6; stroke-linecap: round"/>
   </g>
   <g id="line2d_60">
    <path d="M 50.71081 87.069962 
L 51.447917 87.184214 
L 52.258736 87.553857 
L 53.180121 88.245515 
L 54.175216 89.278837 
L 55.538866 91.047767 
L 56.828804 92.615401 
L 58.081888 93.776057 
L 59.482392 94.782598 
L 61.17774 95.704926 
L 62.873088 96.371108 
L 65.231833 97.04153 
L 68.106554 97.618052 
L 71.312973 98.050386 
L 76.472727 98.53361 
L 78.905183 98.603252 
L 79.679146 98.314875 
L 80.52682 97.758061 
L 81.448205 96.893345 
L 82.627577 95.476293 
L 84.138648 93.295197 
L 86.018273 90.164294 
L 89.408969 84.391214 
L 90.588341 83.0118 
L 91.951991 81.750444 
L 93.426206 80.689146 
L 94.974133 79.852538 
L 96.927468 79.039833 
L 99.433635 78.277993 
L 103.598294 77.359907 
L 106.952134 76.863294 
L 112.517298 76.245973 
L 120.514918 75.618317 
L 131.866378 75.097469 
L 140.269407 74.898345 
L 141.006514 75.1052 
L 141.817333 75.567079 
L 142.775573 76.379255 
L 143.91809 77.666014 
L 145.35545 79.63194 
L 147.19822 82.533714 
L 151.252313 89.106958 
L 152.542251 90.50335 
L 154.016467 91.756177 
L 155.711815 92.886661 
L 157.444018 93.775304 
L 159.618486 94.641186 
L 161.82981 95.277303 
L 165.625915 96.129393 
L 170.38026 96.945809 
L 174.434353 97.377683 
L 185.085561 98.299207 
L 193.414879 98.746324 
L 204.397785 99.113092 
L 204.397785 99.113092 
" clip-path="url(#pfe3c41c647)" style="fill: none; stroke: #008000; stroke-width: 0.6; stroke-linecap: round"/>
   </g>
   <g id="line2d_61">
    <path d="M 50.71081 87.069962 
L 51.411062 87.184014 
L 52.185025 87.546713 
L 53.10641 88.242378 
L 54.285782 89.442777 
L 58.339875 93.87944 
L 59.924657 95.056905 
L 61.730571 96.118701 
L 63.757618 97.052454 
L 66.116363 97.898823 
L 69.101649 98.720767 
L 72.787188 99.506388 
L 77.209835 100.211723 
L 77.983798 100.146524 
L 78.720906 99.866712 
L 79.531724 99.310807 
L 80.416254 98.42425 
L 81.48506 97.021384 
L 82.848709 94.82965 
L 84.912611 91.036608 
L 87.934753 85.47189 
L 89.114126 83.886195 
L 90.404064 82.521686 
L 91.841425 81.320823 
L 93.463062 80.258138 
L 95.526964 79.183812 
L 97.885708 78.215503 
L 100.83414 77.251032 
L 104.6671 76.231245 
L 108.90547 75.332964 
L 113.954658 74.473503 
L 120.25693 73.662108 
L 127.112033 73.017638 
L 134.962231 72.499689 
L 136.178458 72.537266 
L 136.952422 72.824642 
L 137.76324 73.370301 
L 138.647769 74.246663 
L 139.67972 75.607075 
L 141.04337 77.814353 
L 142.95985 81.402877 
L 146.387401 87.806276 
L 147.566774 89.367338 
L 148.856712 90.706081 
L 150.294073 91.876084 
L 152.063131 93.010071 
L 154.090178 94.042369 
L 156.780621 95.149442 
L 159.98704 96.213639 
L 163.893711 97.283425 
L 168.132081 98.209092 
L 173.807811 99.212303 
L 180.146938 100.086208 
L 186.707198 100.75016 
L 194.852239 101.355879 
L 197.026707 101.479545 
L 197.026707 101.479545 
" clip-path="url(#pfe3c41c647)" style="fill: none; stroke: #ff0000; stroke-width: 0.6; stroke-linecap: round"/>
   </g>
   <g id="patch_9">
    <path d="M 43.011719 102.93 
L 43.011719 71.02 
" style="fill: none; stroke: #000000; stroke-linejoin: miter; stroke-linecap: square"/>
   </g>
   <g id="patch_10">
    <path d="M 43.011719 102.93 
L 212.391719 102.93 
" style="fill: none; stroke: #000000; stroke-linejoin: miter; stroke-linecap: square"/>
   </g>
  </g>
 </g>
 <defs>
  <clipPath id="p5e57dcce67">
   <rect x="43.011719" y="7.2" width="169.38" height="31.91"/>
  </clipPath>
  <clipPath id="p46ea4ba5db">
   <rect x="43.011719" y="39.11" width="169.38" height="31.91"/>
  </clipPath>
  <clipPath id="pfe3c41c647">
   <rect x="43.011719" y="71.02" width="169.38" height="31.91"/>
  </clipPath>
 </defs>
</svg>
