<?xml version="1.0" encoding="utf-8" standalone="no"?>
<!DOCTYPE svg PUBLIC "-//W3C//DTD SVG 1.1//EN"
  "http://www.w3.org/Graphics/SVG/1.1/DTD/svg11.dtd">
<svg xmlns:xlink="http://www.w3.org/1999/xlink" width="219.048163pt" height="223.917316pt" viewBox="0 0 219.048163 223.917316" xmlns="http://www.w3.org/2000/svg" version="1.1">
 <metadata>
  <rdf:RDF xmlns:dc="http://purl.org/dc/elements/1.1/" xmlns:cc="http://creativecommons.org/ns#" xmlns:rdf="http://www.w3.org/1999/02/22-rdf-syntax-ns#">
   <cc:Work>
    <dc:type rdf:resource="http://purl.org/dc/dcmitype/StillImage"/>
    <dc:date>2024-08-15T08:23:40.093502</dc:date>
    <dc:format>image/svg+xml</dc:format>
    <dc:creator>
     <cc:Agent>
      <dc:title>Matplotlib v3.8.2, https://matplotlib.org/</dc:title>
     </cc:Agent>
    </dc:creator>
   </cc:Work>
  </rdf:RDF>
 </metadata>
 <defs>
  <style type="text/css">*{stroke-linejoin: round; stroke-linecap: butt}</style>
 </defs>
 <g id="figure_1">
  <g id="patch_1">
   <path d="M 0 223.917316 
L 219.048163 223.917316 
L 219.048163 0 
L 0 0 
z
" style="fill: #ffffff"/>
  </g>
  <g id="axes_1">
   <g id="patch_2">
    <path d="M 43.011719 70.022647 
L 211.848163 70.022647 
L 211.848163 7.2 
L 43.011719 7.2 
z
" style="fill: #ffffff"/>
   </g>
   <g id="line2d_1">
    <path d="M 50.686103 38.914421 
L 51.962107 39.108899 
L 53.201747 39.526912 
L 54.368374 40.156277 
L 55.462081 40.997399 
L 58.050602 43.478801 
L 65.7068 50.892066 
L 69.279673 53.883092 
L 72.050453 55.928163 
L 74.529582 57.483967 
L 76.826385 58.670701 
L 77.810751 58.920638 
L 78.795161 58.941094 
L 79.779466 58.742715 
L 80.836755 58.301292 
L 81.96699 57.582996 
L 83.170067 56.54925 
L 84.446136 55.153843 
L 85.758573 53.383636 
L 87.90966 49.984372 
L 93.159537 41.740971 
L 95.602215 38.362864 
L 98.00845 35.411801 
L 100.378208 32.848189 
L 102.711531 30.652824 
L 105.628154 28.232178 
L 108.909356 25.77875 
L 111.89888 23.814829 
L 116.055086 21.382843 
L 119.700903 19.486719 
L 122.982076 18.028877 
L 126.737223 16.607458 
L 131.330992 15.105692 
L 134.830872 14.15895 
L 137.492363 13.653749 
L 139.862096 13.436592 
L 140.919335 13.495388 
L 141.976708 13.793681 
L 143.10687 14.353385 
L 144.309947 15.201698 
L 145.622416 16.41004 
L 147.007808 17.998814 
L 148.50257 20.070394 
L 150.070288 22.640293 
L 155.575414 31.960075 
L 158.091018 35.744803 
L 160.424312 38.8609 
L 162.75762 41.607674 
L 165.090942 44.011871 
L 167.570089 46.240982 
L 170.55961 48.616843 
L 173.767903 50.893727 
L 177.377274 53.166531 
L 181.533494 55.531644 
L 184.960509 57.229128 
L 188.496913 58.738707 
L 192.033301 60.012685 
L 196.04365 61.206143 
L 201.038405 62.461607 
L 203.080138 62.850916 
L 203.080138 62.850916 
" clip-path="url(#pa6561cc6ed)" style="fill: none; stroke: #000000; stroke-width: 0.6; stroke-linecap: round"/>
   </g>
   <g id="matplotlib.axis_1">
    <g id="xtick_1">
     <g id="line2d_2">
      <path d="M 50.686103 70.022647 
L 50.686103 7.2 
" clip-path="url(#pa6561cc6ed)" style="fill: none; stroke: #b0b0b0; stroke-width: 0.1; stroke-linecap: round"/>
     </g>
     <g id="line2d_3"/>
    </g>
    <g id="xtick_2">
     <g id="line2d_4">
      <path d="M 87.143983 70.022647 
L 87.143983 7.2 
" clip-path="url(#pa6561cc6ed)" style="fill: none; stroke: #b0b0b0; stroke-width: 0.1; stroke-linecap: round"/>
     </g>
     <g id="line2d_5"/>
    </g>
    <g id="xtick_3">
     <g id="line2d_6">
      <path d="M 123.601863 70.022647 
L 123.601863 7.2 
" clip-path="url(#pa6561cc6ed)" style="fill: none; stroke: #b0b0b0; stroke-width: 0.1; stroke-linecap: round"/>
     </g>
     <g id="line2d_7"/>
    </g>
    <g id="xtick_4">
     <g id="line2d_8">
      <path d="M 160.059744 70.022647 
L 160.059744 7.2 
" clip-path="url(#pa6561cc6ed)" style="fill: none; stroke: #b0b0b0; stroke-width: 0.1; stroke-linecap: round"/>
     </g>
     <g id="line2d_9"/>
    </g>
    <g id="xtick_5">
     <g id="line2d_10">
      <path d="M 196.517624 70.022647 
L 196.517624 7.2 
" clip-path="url(#pa6561cc6ed)" style="fill: none; stroke: #b0b0b0; stroke-width: 0.1; stroke-linecap: round"/>
     </g>
     <g id="line2d_11"/>
    </g>
   </g>
   <g id="matplotlib.axis_2">
    <g id="ytick_1">
     <g id="line2d_12">
      <path d="M 43.011719 58.304535 
L 211.848163 58.304535 
" clip-path="url(#pa6561cc6ed)" style="fill: none; stroke: #b0b0b0; stroke-width: 0.1; stroke-linecap: round"/>
     </g>
     <g id="line2d_13"/>
     <g id="text_1">
      <!-- −10 -->
      <g style="fill: #262626" transform="translate(24.738438 60.963988) scale(0.07 -0.07)">
       <defs>
        <path id="DejaVuSerif-2212" d="M 678 2259 
L 4684 2259 
L 4684 1753 
L 678 1753 
L 678 2259 
z
" transform="scale(0.015625)"/>
        <path id="DejaVuSerif-31" d="M 909 0 
L 909 331 
L 1722 331 
L 1722 4213 
L 781 3603 
L 781 4013 
L 1919 4750 
L 2350 4750 
L 2350 331 
L 3163 331 
L 3163 0 
L 909 0 
z
" transform="scale(0.015625)"/>
        <path id="DejaVuSerif-30" d="M 2034 219 
Q 2513 219 2750 744 
Q 2988 1269 2988 2328 
Q 2988 3391 2750 3916 
Q 2513 4441 2034 4441 
Q 1556 4441 1318 3916 
Q 1081 3391 1081 2328 
Q 1081 1269 1318 744 
Q 1556 219 2034 219 
z
M 2034 -91 
Q 1275 -91 848 546 
Q 422 1184 422 2328 
Q 422 3475 848 4112 
Q 1275 4750 2034 4750 
Q 2797 4750 3222 4112 
Q 3647 3475 3647 2328 
Q 3647 1184 3222 546 
Q 2797 -91 2034 -91 
z
" transform="scale(0.015625)"/>
       </defs>
       <use xlink:href="#DejaVuSerif-2212"/>
       <use xlink:href="#DejaVuSerif-31" x="83.789062"/>
       <use xlink:href="#DejaVuSerif-30" x="147.412109"/>
      </g>
     </g>
    </g>
    <g id="ytick_2">
     <g id="line2d_14">
      <path d="M 43.011719 38.739117 
L 211.848163 38.739117 
" clip-path="url(#pa6561cc6ed)" style="fill: none; stroke: #b0b0b0; stroke-width: 0.1; stroke-linecap: round"/>
     </g>
     <g id="line2d_15"/>
     <g id="text_2">
      <!-- 0 -->
      <g style="fill: #262626" transform="translate(35.057969 41.39857) scale(0.07 -0.07)">
       <use xlink:href="#DejaVuSerif-30"/>
      </g>
     </g>
    </g>
    <g id="ytick_3">
     <g id="line2d_16">
      <path d="M 43.011719 19.173699 
L 211.848163 19.173699 
" clip-path="url(#pa6561cc6ed)" style="fill: none; stroke: #b0b0b0; stroke-width: 0.1; stroke-linecap: round"/>
     </g>
     <g id="line2d_17"/>
     <g id="text_3">
      <!-- 10 -->
      <g style="fill: #262626" transform="translate(30.604219 21.833152) scale(0.07 -0.07)">
       <use xlink:href="#DejaVuSerif-31"/>
       <use xlink:href="#DejaVuSerif-30" x="63.623047"/>
      </g>
     </g>
    </g>
    <g id="text_4">
     <!-- $\beta$ $[deg]$ -->
     <g style="fill: #262626" transform="translate(12.59 51.316324) rotate(-90) scale(0.07 -0.07)">
      <defs>
       <path id="DejaVuSans-Oblique-3b2" d="M 872 216 
L 572 -1331 
L -6 -1331 
L 928 3478 
Q 1206 4903 2538 4903 
Q 3888 4903 3659 3700 
Q 3503 2844 2894 2531 
Q 3713 2250 3553 1416 
Q 3272 -69 1759 -66 
Q 1097 -63 872 216 
z
M 1019 966 
Q 1259 422 1875 425 
Q 2775 425 2966 1406 
Q 3138 2288 1675 2219 
L 1778 2750 
Q 2909 2731 3106 3750 
Q 3241 4438 2509 4434 
Q 1691 4434 1503 3459 
L 1019 966 
z
" transform="scale(0.015625)"/>
       <path id="DejaVuSerif-20" transform="scale(0.015625)"/>
       <path id="DejaVuSans-5b" d="M 550 4863 
L 1875 4863 
L 1875 4416 
L 1125 4416 
L 1125 -397 
L 1875 -397 
L 1875 -844 
L 550 -844 
L 550 4863 
z
" transform="scale(0.015625)"/>
       <path id="DejaVuSans-Oblique-64" d="M 2675 525 
Q 2444 222 2128 65 
Q 1813 -91 1428 -91 
Q 903 -91 598 267 
Q 294 625 294 1247 
Q 294 1766 478 2236 
Q 663 2706 1013 3078 
Q 1244 3325 1534 3454 
Q 1825 3584 2144 3584 
Q 2481 3584 2739 3421 
Q 2997 3259 3138 2956 
L 3513 4863 
L 4091 4863 
L 3144 0 
L 2566 0 
L 2675 525 
z
M 891 1350 
Q 891 897 1095 644 
Q 1300 391 1663 391 
Q 1931 391 2161 520 
Q 2391 650 2566 903 
Q 2750 1166 2856 1509 
Q 2963 1853 2963 2188 
Q 2963 2622 2758 2865 
Q 2553 3109 2194 3109 
Q 1922 3109 1687 2981 
Q 1453 2853 1288 2613 
Q 1106 2353 998 2009 
Q 891 1666 891 1350 
z
" transform="scale(0.015625)"/>
       <path id="DejaVuSans-Oblique-65" d="M 3078 2063 
Q 3088 2113 3092 2166 
Q 3097 2219 3097 2272 
Q 3097 2653 2873 2875 
Q 2650 3097 2266 3097 
Q 1838 3097 1509 2826 
Q 1181 2556 1013 2059 
L 3078 2063 
z
M 3578 1613 
L 903 1613 
Q 884 1494 878 1425 
Q 872 1356 872 1306 
Q 872 872 1139 634 
Q 1406 397 1894 397 
Q 2269 397 2603 481 
Q 2938 566 3225 728 
L 3116 159 
Q 2806 34 2476 -28 
Q 2147 -91 1806 -91 
Q 1078 -91 686 257 
Q 294 606 294 1247 
Q 294 1794 489 2264 
Q 684 2734 1063 3103 
Q 1306 3334 1642 3459 
Q 1978 3584 2356 3584 
Q 2950 3584 3301 3228 
Q 3653 2872 3653 2272 
Q 3653 2128 3634 1964 
Q 3616 1800 3578 1613 
z
" transform="scale(0.015625)"/>
       <path id="DejaVuSans-Oblique-67" d="M 3816 3500 
L 3219 434 
Q 3047 -456 2561 -893 
Q 2075 -1331 1253 -1331 
Q 950 -1331 690 -1286 
Q 431 -1241 206 -1147 
L 313 -588 
Q 525 -725 762 -790 
Q 1000 -856 1269 -856 
Q 1816 -856 2167 -557 
Q 2519 -259 2631 300 
L 2681 563 
Q 2441 288 2122 144 
Q 1803 0 1434 0 
Q 903 0 598 351 
Q 294 703 294 1319 
Q 294 1803 478 2267 
Q 663 2731 997 3091 
Q 1219 3328 1514 3456 
Q 1809 3584 2131 3584 
Q 2484 3584 2746 3420 
Q 3009 3256 3138 2956 
L 3238 3500 
L 3816 3500 
z
M 2950 2216 
Q 2950 2641 2750 2872 
Q 2550 3103 2181 3103 
Q 1953 3103 1747 3012 
Q 1541 2922 1394 2759 
Q 1156 2491 1023 2127 
Q 891 1763 891 1375 
Q 891 944 1092 712 
Q 1294 481 1672 481 
Q 2219 481 2584 976 
Q 2950 1472 2950 2216 
z
" transform="scale(0.015625)"/>
       <path id="DejaVuSans-5d" d="M 1947 4863 
L 1947 -844 
L 622 -844 
L 622 -397 
L 1369 -397 
L 1369 4416 
L 622 4416 
L 622 4863 
L 1947 4863 
z
" transform="scale(0.015625)"/>
      </defs>
      <use xlink:href="#DejaVuSans-Oblique-3b2" transform="translate(0 0.390625)"/>
      <use xlink:href="#DejaVuSerif-20" transform="translate(63.818359 0.390625)"/>
      <use xlink:href="#DejaVuSans-5b" transform="translate(95.605469 0.390625)"/>
      <use xlink:href="#DejaVuSans-Oblique-64" transform="translate(134.619141 0.390625)"/>
      <use xlink:href="#DejaVuSans-Oblique-65" transform="translate(198.095703 0.390625)"/>
      <use xlink:href="#DejaVuSans-Oblique-67" transform="translate(259.619141 0.390625)"/>
      <use xlink:href="#DejaVuSans-5d" transform="translate(323.095703 0.390625)"/>
     </g>
    </g>
   </g>
   <g id="line2d_18">
    <path d="M 50.686103 38.739117 
L 51.852755 38.847356 
L 52.982949 39.177886 
L 54.076685 39.73366 
L 55.243338 40.589321 
L 57.576642 42.695967 
L 64.394266 48.872197 
L 68.258801 52.034261 
L 71.758757 54.621319 
L 75.513919 57.120131 
L 78.138887 58.652448 
L 79.196165 58.979753 
L 80.14407 59.050989 
L 81.128433 58.903945 
L 82.112796 58.53319 
L 83.170074 57.89361 
L 84.300268 56.94568 
L 85.539836 55.600078 
L 86.961694 53.702491 
L 95.018885 42.418305 
L 98.227179 38.410711 
L 101.544846 34.631842 
L 104.57085 31.502381 
L 107.742685 28.54306 
L 111.133268 25.680194 
L 114.742599 22.932621 
L 118.351929 20.461486 
L 122.252922 18.059525 
L 126.554952 15.692087 
L 131.039271 13.48384 
L 136.070459 11.276325 
L 139.132921 10.137083 
L 140.117283 10.058945 
L 141.101646 10.212656 
L 142.086009 10.589831 
L 143.143287 11.242016 
L 144.273482 12.203832 
L 145.549508 13.593587 
L 146.934907 15.444493 
L 148.976548 18.629901 
L 155.320219 28.451199 
L 158.74726 33.305595 
L 161.84618 37.291566 
L 165.163847 41.199689 
L 168.408599 44.688675 
L 171.471061 47.663884 
L 174.898101 50.674243 
L 178.3616 53.428143 
L 182.116762 56.120907 
L 186.127128 58.720059 
L 190.028122 60.989714 
L 194.147862 63.150083 
L 198.668639 65.282602 
L 203.116501 67.167072 
L 203.116501 67.167072 
" clip-path="url(#pa6561cc6ed)" style="fill: none; stroke: #0000ff; stroke-width: 0.6; stroke-linecap: round"/>
   </g>
   <g id="line2d_19">
    <path d="M 50.686103 38.739117 
L 51.852755 38.847179 
L 52.982949 39.176441 
L 54.076685 39.728776 
L 55.243338 40.57689 
L 57.722474 42.784623 
L 63.592192 47.954729 
L 67.128607 50.740453 
L 70.51919 53.13486 
L 74.019146 55.33635 
L 77.701392 57.382565 
L 79.123249 58.001184 
L 80.14407 58.192044 
L 81.128433 58.155896 
L 82.112796 57.898397 
L 83.170074 57.385482 
L 84.26381 56.602066 
L 85.430463 55.490172 
L 86.706488 53.961495 
L 88.492925 51.415983 
L 93.852233 43.737603 
L 97.096984 39.5313 
L 100.086531 36.033333 
L 103.112535 32.829994 
L 105.919791 30.171515 
L 108.945796 27.610211 
L 112.227005 25.124134 
L 115.471756 22.942285 
L 119.081086 20.784208 
L 122.79979 18.817592 
L 126.919531 16.899492 
L 131.185103 15.154369 
L 135.997543 13.43066 
L 140.263115 12.112117 
L 141.283935 12.03327 
L 142.268298 12.176264 
L 143.289119 12.555196 
L 144.346397 13.191023 
L 145.51305 14.163478 
L 146.752618 15.491022 
L 148.101559 17.267352 
L 149.851537 19.992699 
L 155.356677 28.683458 
L 158.601429 33.373792 
L 161.590975 37.28577 
L 164.471147 40.712767 
L 167.752357 44.251048 
L 170.632529 47.02255 
L 173.658533 49.614521 
L 176.939743 52.145667 
L 180.476157 54.574229 
L 184.049029 56.749325 
L 187.658359 58.70703 
L 191.632268 60.614362 
L 195.934298 62.446361 
L 200.564449 64.193674 
L 204.173779 65.389013 
L 204.173779 65.389013 
" clip-path="url(#pa6561cc6ed)" style="fill: none; stroke: #008000; stroke-width: 0.6; stroke-linecap: round"/>
   </g>
   <g id="line2d_20">
    <path d="M 50.686103 38.739117 
L 51.962128 38.852141 
L 53.128781 39.183411 
L 54.222517 39.723264 
L 55.316253 40.508923 
L 56.993316 42.057825 
L 65.889039 50.509919 
L 68.987959 52.996879 
L 72.159794 55.253691 
L 75.404546 57.288246 
L 77.22744 58.242917 
L 78.24826 58.483536 
L 79.232623 58.492806 
L 80.253444 58.278293 
L 81.274264 57.838464 
L 82.331543 57.140959 
L 83.461737 56.119412 
L 84.664847 54.714191 
L 85.940873 52.866089 
L 88.456467 48.641107 
L 91.84705 43.104789 
L 94.399101 39.364065 
L 96.878237 36.118582 
L 99.393831 33.190524 
L 101.945882 30.559593 
L 104.680224 28.062342 
L 107.48748 25.794496 
L 110.477027 23.666322 
L 113.648862 21.682643 
L 117.075903 19.804612 
L 120.831065 18.005186 
L 124.6956 16.388941 
L 128.924714 14.865139 
L 133.919444 13.311132 
L 137.273569 12.451634 
L 138.294389 12.459421 
L 139.351668 12.690771 
L 140.445404 13.162718 
L 141.575599 13.890844 
L 142.742251 14.905667 
L 143.981819 16.28253 
L 145.294302 18.077609 
L 146.752618 20.470394 
L 152.986915 31.096423 
L 155.575425 34.932453 
L 158.127476 38.3151 
L 160.679528 41.331488 
L 163.304495 44.093125 
L 166.002378 46.614652 
L 168.882551 48.99753 
L 171.945013 51.245152 
L 175.189764 53.347709 
L 178.580347 55.282618 
L 182.189677 57.08909 
L 186.309418 58.891224 
L 190.647906 60.541022 
L 195.278056 62.071268 
L 200.710281 63.58876 
L 203.152959 64.201336 
L 203.152959 64.201336 
" clip-path="url(#pa6561cc6ed)" style="fill: none; stroke: #ff0000; stroke-width: 0.6; stroke-linecap: round"/>
   </g>
   <g id="patch_3">
    <path d="M 43.011719 70.022647 
L 43.011719 7.2 
" style="fill: none; stroke: #000000; stroke-linejoin: miter; stroke-linecap: square"/>
   </g>
   <g id="patch_4">
    <path d="M 43.011719 70.022647 
L 211.848163 70.022647 
" style="fill: none; stroke: #000000; stroke-linejoin: miter; stroke-linecap: square"/>
   </g>
  </g>
  <g id="axes_2">
   <g id="patch_5">
    <path d="M 43.011719 132.845294 
L 211.848163 132.845294 
L 211.848163 70.022647 
L 43.011719 70.022647 
z
" style="fill: #ffffff"/>
   </g>
   <g id="line2d_21">
    <path d="M 50.686103 101.626824 
L 53.128781 101.74326 
L 54.732909 102.044844 
L 56.118371 102.53095 
L 57.576678 103.289891 
L 59.25369 104.423725 
L 61.258895 106.061643 
L 63.738024 108.389913 
L 66.909983 111.69069 
L 71.029589 116.315579 
L 80.107587 126.64165 
L 81.675283 127.927687 
L 83.060704 128.783383 
L 84.336759 129.315354 
L 85.539836 129.581061 
L 86.706488 129.614866 
L 87.98254 129.419913 
L 89.440844 128.959388 
L 91.154412 128.172789 
L 93.232475 126.961806 
L 95.748079 125.226657 
L 98.737571 122.881332 
L 102.456293 119.662623 
L 107.159407 115.286842 
L 112.482214 110.023892 
L 119.044669 103.207784 
L 130.601831 90.793374 
L 141.028832 79.689906 
L 143.179749 77.703039 
L 144.856855 76.449395 
L 146.315196 75.628178 
L 147.664127 75.115737 
L 148.940079 74.859891 
L 150.216116 74.831085 
L 151.56508 75.030699 
L 153.096303 75.486256 
L 154.919197 76.266974 
L 157.143117 77.471919 
L 159.768088 79.154335 
L 162.866993 81.414961 
L 166.840895 84.607885 
L 172.01794 89.058906 
L 177.30434 93.89971 
L 183.210564 99.621804 
L 192.507258 108.996662 
L 203.080138 119.810928 
L 203.080138 119.810928 
" clip-path="url(#p3f75dcf667)" style="fill: none; stroke: #000000; stroke-width: 0.6; stroke-linecap: round"/>
   </g>
   <g id="line2d_22">
    <path d="M 50.686103 101.756158 
L 52.253784 108.423224 
L 55.061052 120.232912 
L 55.571462 122.291978 
L 76.316076 122.184327 
L 80.946209 102.641149 
L 82.368103 96.653047 
L 83.352371 92.477261 
L 83.680484 91.128608 
L 84.300279 88.492585 
L 84.847126 86.213381 
L 86.086686 81.011086 
L 87.362745 81.065113 
L 139.935049 81.159458 
L 141.138126 86.28031 
L 146.825515 110.207317 
L 149.815076 122.290365 
L 160.934791 122.278269 
L 203.080138 122.278269 
L 203.080138 122.278269 
" clip-path="url(#p3f75dcf667)" style="fill: none; stroke-dasharray: 2.22,0.96; stroke-dashoffset: 0; stroke: #808080; stroke-width: 0.6"/>
   </g>
   <g id="matplotlib.axis_3">
    <g id="xtick_6">
     <g id="line2d_23">
      <path d="M 50.686103 132.845294 
L 50.686103 70.022647 
" clip-path="url(#p3f75dcf667)" style="fill: none; stroke: #b0b0b0; stroke-width: 0.1; stroke-linecap: round"/>
     </g>
     <g id="line2d_24"/>
    </g>
    <g id="xtick_7">
     <g id="line2d_25">
      <path d="M 87.143983 132.845294 
L 87.143983 70.022647 
" clip-path="url(#p3f75dcf667)" style="fill: none; stroke: #b0b0b0; stroke-width: 0.1; stroke-linecap: round"/>
     </g>
     <g id="line2d_26"/>
    </g>
    <g id="xtick_8">
     <g id="line2d_27">
      <path d="M 123.601863 132.845294 
L 123.601863 70.022647 
" clip-path="url(#p3f75dcf667)" style="fill: none; stroke: #b0b0b0; stroke-width: 0.1; stroke-linecap: round"/>
     </g>
     <g id="line2d_28"/>
    </g>
    <g id="xtick_9">
     <g id="line2d_29">
      <path d="M 160.059744 132.845294 
L 160.059744 70.022647 
" clip-path="url(#p3f75dcf667)" style="fill: none; stroke: #b0b0b0; stroke-width: 0.1; stroke-linecap: round"/>
     </g>
     <g id="line2d_30"/>
    </g>
    <g id="xtick_10">
     <g id="line2d_31">
      <path d="M 196.517624 132.845294 
L 196.517624 70.022647 
" clip-path="url(#p3f75dcf667)" style="fill: none; stroke: #b0b0b0; stroke-width: 0.1; stroke-linecap: round"/>
     </g>
     <g id="line2d_32"/>
    </g>
   </g>
   <g id="matplotlib.axis_4">
    <g id="ytick_4">
     <g id="line2d_33">
      <path d="M 43.011719 122.278736 
L 211.848163 122.278736 
" clip-path="url(#p3f75dcf667)" style="fill: none; stroke: #b0b0b0; stroke-width: 0.1; stroke-linecap: round"/>
     </g>
     <g id="line2d_34"/>
     <g id="text_5">
      <!-- −20 -->
      <g style="fill: #262626" transform="translate(24.738438 124.938189) scale(0.07 -0.07)">
       <defs>
        <path id="DejaVuSerif-32" d="M 819 3553 
L 469 3553 
L 469 4384 
Q 803 4563 1142 4656 
Q 1481 4750 1806 4750 
Q 2534 4750 2956 4397 
Q 3378 4044 3378 3438 
Q 3378 2753 2422 1800 
Q 2347 1728 2309 1691 
L 1131 513 
L 3078 513 
L 3078 1088 
L 3444 1088 
L 3444 0 
L 434 0 
L 434 341 
L 1850 1753 
Q 2319 2222 2519 2614 
Q 2719 3006 2719 3438 
Q 2719 3909 2473 4175 
Q 2228 4441 1797 4441 
Q 1350 4441 1106 4219 
Q 863 3997 819 3553 
z
" transform="scale(0.015625)"/>
       </defs>
       <use xlink:href="#DejaVuSerif-2212"/>
       <use xlink:href="#DejaVuSerif-32" x="83.789062"/>
       <use xlink:href="#DejaVuSerif-30" x="147.412109"/>
      </g>
     </g>
    </g>
    <g id="ytick_5">
     <g id="line2d_35">
      <path d="M 43.011719 101.67149 
L 211.848163 101.67149 
" clip-path="url(#p3f75dcf667)" style="fill: none; stroke: #b0b0b0; stroke-width: 0.1; stroke-linecap: round"/>
     </g>
     <g id="line2d_36"/>
     <g id="text_6">
      <!-- 0 -->
      <g style="fill: #262626" transform="translate(35.057969 104.330943) scale(0.07 -0.07)">
       <use xlink:href="#DejaVuSerif-30"/>
      </g>
     </g>
    </g>
    <g id="ytick_6">
     <g id="line2d_37">
      <path d="M 43.011719 81.064243 
L 211.848163 81.064243 
" clip-path="url(#p3f75dcf667)" style="fill: none; stroke: #b0b0b0; stroke-width: 0.1; stroke-linecap: round"/>
     </g>
     <g id="line2d_38"/>
     <g id="text_7">
      <!-- 20 -->
      <g style="fill: #262626" transform="translate(30.604219 83.723697) scale(0.07 -0.07)">
       <use xlink:href="#DejaVuSerif-32"/>
       <use xlink:href="#DejaVuSerif-30" x="63.623047"/>
      </g>
     </g>
    </g>
    <g id="text_8">
     <!-- $\psi$ $[deg]$ -->
     <g style="fill: #262626" transform="translate(12.59 114.208971) rotate(-90) scale(0.07 -0.07)">
      <defs>
       <path id="DejaVuSans-Oblique-3c8" d="M 1591 -78 
Q 891 38 616 341 
Q 278 713 425 1472 
L 819 3500 
L 1400 3500 
L 1009 1494 
Q 900 922 1119 684 
Q 1313 478 1691 434 
L 2284 3500 
L 2856 3500 
L 2263 438 
Q 2681 481 2928 688 
Q 3247 950 3353 1497 
L 3741 3500 
L 4322 3500 
L 3928 1475 
Q 3775 688 3300 344 
Q 2872 34 2163 -75 
L 1919 -1331 
L 1347 -1331 
L 1591 -78 
z
" transform="scale(0.015625)"/>
      </defs>
      <use xlink:href="#DejaVuSans-Oblique-3c8" transform="translate(0 0.015625)"/>
      <use xlink:href="#DejaVuSerif-20" transform="translate(65.966797 0.015625)"/>
      <use xlink:href="#DejaVuSans-5b" transform="translate(97.753906 0.015625)"/>
      <use xlink:href="#DejaVuSans-Oblique-64" transform="translate(136.767578 0.015625)"/>
      <use xlink:href="#DejaVuSans-Oblique-65" transform="translate(200.244141 0.015625)"/>
      <use xlink:href="#DejaVuSans-Oblique-67" transform="translate(261.767578 0.015625)"/>
      <use xlink:href="#DejaVuSans-5d" transform="translate(325.244141 0.015625)"/>
     </g>
    </g>
   </g>
   <g id="line2d_39">
    <path d="M 50.686103 101.67149 
L 53.274612 101.779747 
L 54.769385 102.074332 
L 56.118327 102.56872 
L 57.649558 103.378858 
L 59.50891 104.624898 
L 61.805756 106.445345 
L 64.685929 109.025418 
L 68.295259 112.569382 
L 72.852494 117.374422 
L 81.748217 126.869486 
L 83.206532 127.927225 
L 84.519016 128.613231 
L 85.722126 128.998725 
L 86.85232 129.135606 
L 88.05543 129.053269 
L 89.440829 128.727995 
L 91.044976 128.116599 
L 92.940786 127.147843 
L 95.237632 125.714171 
L 97.971974 123.734853 
L 101.216725 121.104911 
L 104.935429 117.79335 
L 109.456206 113.460151 
L 114.450935 108.354683 
L 120.138365 102.209773 
L 126.810157 94.662564 
L 134.685059 85.408008 
L 141.684972 77.218329 
L 143.325577 75.724835 
L 144.747434 74.718654 
L 146.059918 74.058057 
L 147.263028 73.692848 
L 148.466138 73.562472 
L 149.778622 73.648555 
L 151.309853 73.978536 
L 153.096289 74.601529 
L 155.13793 75.555326 
L 157.54415 76.93502 
L 160.424323 78.85674 
L 163.778448 81.369534 
L 167.424236 84.381432 
L 171.616892 88.144569 
L 176.46579 92.796092 
L 181.788641 98.223416 
L 187.548986 104.41596 
L 194.69473 112.439306 
L 202.824838 121.917914 
L 203.116501 122.26356 
L 203.116501 122.26356 
" clip-path="url(#p3f75dcf667)" style="fill: none; stroke: #0000ff; stroke-width: 0.6; stroke-linecap: round"/>
   </g>
   <g id="line2d_40">
    <path d="M 50.686103 101.67149 
L 53.274612 101.779381 
L 54.769385 102.07219 
L 56.118327 102.562321 
L 57.686016 103.384432 
L 59.618283 104.665925 
L 61.988046 106.517477 
L 65.086965 109.238665 
L 69.13379 113.103159 
L 74.529556 118.58439 
L 81.821132 126.015643 
L 83.352363 127.158665 
L 84.701305 127.902693 
L 85.940873 128.341295 
L 87.107525 128.522595 
L 88.274177 128.474467 
L 89.586661 128.185831 
L 91.117892 127.611512 
L 92.940786 126.678398 
L 95.164717 125.278513 
L 97.899058 123.283155 
L 101.326099 120.494696 
L 105.372923 116.905314 
L 110.622858 111.94211 
L 116.674866 105.903523 
L 123.784153 98.48759 
L 132.534044 89.033171 
L 143.507866 77.168342 
L 145.075555 75.932332 
L 146.460955 75.114096 
L 147.73698 74.612991 
L 148.94009 74.378842 
L 150.1432 74.375482 
L 151.492142 74.599711 
L 153.059831 75.090186 
L 154.882725 75.89821 
L 157.070198 77.120072 
L 159.731623 78.874391 
L 162.976374 81.288402 
L 166.877368 84.483502 
L 171.361687 88.462993 
L 177.085574 93.84597 
L 183.319872 100.024654 
L 190.57499 107.536398 
L 198.923844 116.505412 
L 204.173779 122.271797 
L 204.173779 122.271797 
" clip-path="url(#p3f75dcf667)" style="fill: none; stroke: #008000; stroke-width: 0.6; stroke-linecap: round"/>
   </g>
   <g id="line2d_41">
    <path d="M 50.686103 101.67149 
L 53.274612 101.780666 
L 54.805843 102.074123 
L 56.2277 102.569585 
L 57.758931 103.344735 
L 59.50891 104.490136 
L 61.550551 106.105259 
L 63.993229 108.337017 
L 66.946317 111.349125 
L 70.665021 115.475963 
L 75.441003 121.125631 
L 79.852407 126.302291 
L 81.493012 127.833394 
L 82.878411 128.837375 
L 84.154437 129.494044 
L 85.357547 129.865833 
L 86.487741 129.989221 
L 87.690851 129.892763 
L 89.039793 129.552572 
L 90.571024 128.930108 
L 92.393918 127.938291 
L 94.581391 126.482186 
L 97.206358 124.453878 
L 100.341736 121.73753 
L 104.06044 118.211663 
L 108.435385 113.746771 
L 113.612404 108.135885 
L 119.88316 100.998451 
L 128.049725 91.343403 
L 140.627694 76.429374 
L 142.268298 74.978902 
L 143.690156 74.006951 
L 145.002639 73.369737 
L 146.242207 73.008536 
L 147.481775 72.879444 
L 148.830717 72.966151 
L 150.361948 73.295267 
L 152.111926 73.905956 
L 154.190025 74.87826 
L 156.632703 76.279236 
L 159.476418 78.175862 
L 162.757627 80.639388 
L 166.549247 83.77402 
L 170.814819 87.595525 
L 175.627259 92.216411 
L 181.205315 97.893061 
L 187.621902 104.750704 
L 195.460346 113.465672 
L 203.152959 122.248664 
L 203.152959 122.248664 
" clip-path="url(#p3f75dcf667)" style="fill: none; stroke: #ff0000; stroke-width: 0.6; stroke-linecap: round"/>
   </g>
   <g id="patch_6">
    <path d="M 43.011719 132.845294 
L 43.011719 70.022647 
" style="fill: none; stroke: #000000; stroke-linejoin: miter; stroke-linecap: square"/>
   </g>
   <g id="patch_7">
    <path d="M 43.011719 132.845294 
L 211.848163 132.845294 
" style="fill: none; stroke: #000000; stroke-linejoin: miter; stroke-linecap: square"/>
   </g>
  </g>
  <g id="axes_3">
   <g id="patch_8">
    <path d="M 43.011719 195.667941 
L 211.848163 195.667941 
L 211.848163 132.845294 
L 43.011719 132.845294 
z
" style="fill: #ffffff"/>
   </g>
   <g id="line2d_42">
    <path d="M 50.686103 164.282209 
L 51.305916 164.623847 
L 51.998583 165.287025 
L 52.764256 166.344823 
L 53.639278 167.944102 
L 54.623539 170.211313 
L 55.790206 173.498544 
L 57.212136 177.350187 
L 58.524565 180.296648 
L 59.837023 182.702045 
L 61.113056 184.593797 
L 62.425522 186.154394 
L 63.847394 187.493691 
L 65.451551 188.682044 
L 67.238024 189.720308 
L 69.279673 190.636602 
L 71.540028 191.399746 
L 73.508739 191.84055 
L 74.930589 191.941919 
L 76.133699 191.802663 
L 76.79 191.546153 
L 77.373337 191.025615 
L 78.065993 190.07778 
L 78.904495 188.509895 
L 79.925315 186.080093 
L 81.201341 182.408218 
L 82.841957 176.956468 
L 85.357547 167.729872 
L 87.472111 160.140028 
L 88.638822 156.902615 
L 89.805419 154.302472 
L 90.972046 152.222931 
L 92.211632 150.45223 
L 93.633478 148.821844 
L 95.274083 147.28781 
L 97.133468 145.849633 
L 98.956391 144.705236 
L 100.888622 143.751135 
L 103.003154 142.94879 
L 106.721952 141.833402 
L 111.2791 140.678683 
L 115.143617 139.956311 
L 119.956068 139.265088 
L 122.982076 139.070423 
L 130.49241 138.891121 
L 136.033979 139.043956 
L 137.820426 139.297224 
L 139.27877 139.722789 
L 140.336031 140.244315 
L 140.992287 140.872329 
L 141.757884 141.932312 
L 142.669328 143.59457 
L 143.799595 146.157284 
L 145.221387 149.978889 
L 147.22657 156.078545 
L 151.528611 169.370369 
L 152.731816 172.030492 
L 153.934882 174.156587 
L 155.210937 175.956268 
L 156.596271 177.527482 
L 158.273308 179.079272 
L 160.205594 180.568167 
L 162.101385 181.763119 
L 163.924279 182.667507 
L 165.820104 183.362683 
L 168.481514 184.081616 
L 180.439736 186.920025 
L 184.231344 187.540025 
L 187.07507 187.807385 
L 191.559349 187.942494 
L 203.080138 188.161179 
L 203.080138 188.161179 
" clip-path="url(#pfe29421443)" style="fill: none; stroke: #000000; stroke-width: 0.6; stroke-linecap: round"/>
   </g>
   <g id="matplotlib.axis_5">
    <g id="xtick_11">
     <g id="line2d_43">
      <path d="M 50.686103 195.667941 
L 50.686103 132.845294 
" clip-path="url(#pfe29421443)" style="fill: none; stroke: #b0b0b0; stroke-width: 0.1; stroke-linecap: round"/>
     </g>
     <g id="line2d_44"/>
     <g id="text_9">
      <!-- 0 -->
      <g style="fill: #262626" transform="translate(48.459228 204.486848) scale(0.07 -0.07)">
       <use xlink:href="#DejaVuSerif-30"/>
      </g>
     </g>
    </g>
    <g id="xtick_12">
     <g id="line2d_45">
      <path d="M 87.143983 195.667941 
L 87.143983 132.845294 
" clip-path="url(#pfe29421443)" style="fill: none; stroke: #b0b0b0; stroke-width: 0.1; stroke-linecap: round"/>
     </g>
     <g id="line2d_46"/>
     <g id="text_10">
      <!-- 10 -->
      <g style="fill: #262626" transform="translate(82.690233 204.486848) scale(0.07 -0.07)">
       <use xlink:href="#DejaVuSerif-31"/>
       <use xlink:href="#DejaVuSerif-30" x="63.623047"/>
      </g>
     </g>
    </g>
    <g id="xtick_13">
     <g id="line2d_47">
      <path d="M 123.601863 195.667941 
L 123.601863 132.845294 
" clip-path="url(#pfe29421443)" style="fill: none; stroke: #b0b0b0; stroke-width: 0.1; stroke-linecap: round"/>
     </g>
     <g id="line2d_48"/>
     <g id="text_11">
      <!-- 20 -->
      <g style="fill: #262626" transform="translate(119.148113 204.486848) scale(0.07 -0.07)">
       <use xlink:href="#DejaVuSerif-32"/>
       <use xlink:href="#DejaVuSerif-30" x="63.623047"/>
      </g>
     </g>
    </g>
    <g id="xtick_14">
     <g id="line2d_49">
      <path d="M 160.059744 195.667941 
L 160.059744 132.845294 
" clip-path="url(#pfe29421443)" style="fill: none; stroke: #b0b0b0; stroke-width: 0.1; stroke-linecap: round"/>
     </g>
     <g id="line2d_50"/>
     <g id="text_12">
      <!-- 30 -->
      <g style="fill: #262626" transform="translate(155.605994 204.486848) scale(0.07 -0.07)">
       <defs>
        <path id="DejaVuSerif-33" d="M 622 4469 
Q 988 4606 1323 4678 
Q 1659 4750 1953 4750 
Q 2638 4750 3022 4454 
Q 3406 4159 3406 3634 
Q 3406 3213 3140 2930 
Q 2875 2647 2388 2547 
Q 2963 2466 3280 2130 
Q 3597 1794 3597 1259 
Q 3597 606 3158 257 
Q 2719 -91 1894 -91 
Q 1528 -91 1179 -12 
Q 831 66 488 225 
L 488 1131 
L 838 1131 
Q 869 681 1141 450 
Q 1413 219 1906 219 
Q 2384 219 2661 495 
Q 2938 772 2938 1253 
Q 2938 1803 2653 2086 
Q 2369 2369 1819 2369 
L 1522 2369 
L 1522 2688 
L 1678 2688 
Q 2225 2688 2498 2914 
Q 2772 3141 2772 3597 
Q 2772 4006 2547 4223 
Q 2322 4441 1900 4441 
Q 1478 4441 1245 4241 
Q 1013 4041 972 3647 
L 622 3647 
L 622 4469 
z
" transform="scale(0.015625)"/>
       </defs>
       <use xlink:href="#DejaVuSerif-33"/>
       <use xlink:href="#DejaVuSerif-30" x="63.623047"/>
      </g>
     </g>
    </g>
    <g id="xtick_15">
     <g id="line2d_51">
      <path d="M 196.517624 195.667941 
L 196.517624 132.845294 
" clip-path="url(#pfe29421443)" style="fill: none; stroke: #b0b0b0; stroke-width: 0.1; stroke-linecap: round"/>
     </g>
     <g id="line2d_52"/>
     <g id="text_13">
      <!-- 40 -->
      <g style="fill: #262626" transform="translate(192.063874 204.486848) scale(0.07 -0.07)">
       <defs>
        <path id="DejaVuSerif-34" d="M 2234 1581 
L 2234 4063 
L 641 1581 
L 2234 1581 
z
M 3609 0 
L 1484 0 
L 1484 331 
L 2234 331 
L 2234 1247 
L 197 1247 
L 197 1588 
L 2241 4750 
L 2859 4750 
L 2859 1581 
L 3750 1581 
L 3750 1247 
L 2859 1247 
L 2859 331 
L 3609 331 
L 3609 0 
z
" transform="scale(0.015625)"/>
       </defs>
       <use xlink:href="#DejaVuSerif-34"/>
       <use xlink:href="#DejaVuSerif-30" x="63.623047"/>
      </g>
     </g>
    </g>
    <g id="text_14">
     <!-- Time [s] -->
     <g style="fill: #262626" transform="translate(112.945957 215.261535) scale(0.07 -0.07)">
      <defs>
       <path id="DejaVuSerif-54" d="M 1222 0 
L 1222 331 
L 1819 331 
L 1819 4294 
L 447 4294 
L 447 3566 
L 63 3566 
L 63 4666 
L 4206 4666 
L 4206 3566 
L 3822 3566 
L 3822 4294 
L 2450 4294 
L 2450 331 
L 3047 331 
L 3047 0 
L 1222 0 
z
" transform="scale(0.015625)"/>
       <path id="DejaVuSerif-69" d="M 622 4353 
Q 622 4497 726 4603 
Q 831 4709 978 4709 
Q 1122 4709 1226 4603 
Q 1331 4497 1331 4353 
Q 1331 4206 1228 4103 
Q 1125 4000 978 4000 
Q 831 4000 726 4103 
Q 622 4206 622 4353 
z
M 1356 331 
L 1900 331 
L 1900 0 
L 231 0 
L 231 331 
L 781 331 
L 781 2988 
L 231 2988 
L 231 3322 
L 1356 3322 
L 1356 331 
z
" transform="scale(0.015625)"/>
       <path id="DejaVuSerif-6d" d="M 3316 2675 
Q 3481 3041 3739 3227 
Q 3997 3413 4341 3413 
Q 4863 3413 5119 3089 
Q 5375 2766 5375 2113 
L 5375 331 
L 5894 331 
L 5894 0 
L 4300 0 
L 4300 331 
L 4800 331 
L 4800 2047 
Q 4800 2556 4650 2772 
Q 4500 2988 4153 2988 
Q 3769 2988 3567 2697 
Q 3366 2406 3366 1850 
L 3366 331 
L 3866 331 
L 3866 0 
L 2291 0 
L 2291 331 
L 2791 331 
L 2791 2069 
Q 2791 2566 2641 2777 
Q 2491 2988 2144 2988 
Q 1759 2988 1557 2697 
Q 1356 2406 1356 1850 
L 1356 331 
L 1856 331 
L 1856 0 
L 263 0 
L 263 331 
L 781 331 
L 781 2994 
L 231 2994 
L 231 3322 
L 1356 3322 
L 1356 2731 
Q 1516 3063 1762 3238 
Q 2009 3413 2322 3413 
Q 2709 3413 2968 3220 
Q 3228 3028 3316 2675 
z
" transform="scale(0.015625)"/>
       <path id="DejaVuSerif-65" d="M 3469 1600 
L 991 1600 
L 991 1575 
Q 991 903 1244 561 
Q 1497 219 1991 219 
Q 2369 219 2611 417 
Q 2853 616 2950 1006 
L 3413 1006 
Q 3275 459 2904 184 
Q 2534 -91 1931 -91 
Q 1203 -91 761 389 
Q 319 869 319 1663 
Q 319 2450 753 2931 
Q 1188 3413 1894 3413 
Q 2647 3413 3050 2948 
Q 3453 2484 3469 1600 
z
M 2791 1931 
Q 2772 2513 2545 2808 
Q 2319 3103 1894 3103 
Q 1497 3103 1269 2806 
Q 1041 2509 991 1931 
L 2791 1931 
z
" transform="scale(0.015625)"/>
       <path id="DejaVuSerif-5b" d="M 550 4863 
L 2003 4863 
L 2003 4531 
L 1147 4531 
L 1147 -513 
L 2003 -513 
L 2003 -844 
L 550 -844 
L 550 4863 
z
" transform="scale(0.015625)"/>
       <path id="DejaVuSerif-73" d="M 359 184 
L 359 959 
L 691 959 
Q 703 588 923 403 
Q 1144 219 1575 219 
Q 1963 219 2166 364 
Q 2369 509 2369 788 
Q 2369 1006 2220 1140 
Q 2072 1275 1594 1428 
L 1178 1569 
Q 750 1706 558 1912 
Q 366 2119 366 2438 
Q 366 2894 700 3153 
Q 1034 3413 1625 3413 
Q 1888 3413 2178 3344 
Q 2469 3275 2778 3144 
L 2778 2419 
L 2447 2419 
Q 2434 2741 2221 2922 
Q 2009 3103 1644 3103 
Q 1281 3103 1095 2975 
Q 909 2847 909 2591 
Q 909 2381 1050 2254 
Q 1191 2128 1613 1997 
L 2069 1856 
Q 2541 1709 2748 1489 
Q 2956 1269 2956 922 
Q 2956 450 2595 179 
Q 2234 -91 1600 -91 
Q 1278 -91 972 -22 
Q 666 47 359 184 
z
" transform="scale(0.015625)"/>
       <path id="DejaVuSerif-5d" d="M 1947 4863 
L 1947 -844 
L 494 -844 
L 494 -513 
L 1350 -513 
L 1350 4531 
L 494 4531 
L 494 4863 
L 1947 4863 
z
" transform="scale(0.015625)"/>
      </defs>
      <use xlink:href="#DejaVuSerif-54"/>
      <use xlink:href="#DejaVuSerif-69" x="66.699219"/>
      <use xlink:href="#DejaVuSerif-6d" x="98.681641"/>
      <use xlink:href="#DejaVuSerif-65" x="193.505859"/>
      <use xlink:href="#DejaVuSerif-20" x="252.685547"/>
      <use xlink:href="#DejaVuSerif-5b" x="284.472656"/>
      <use xlink:href="#DejaVuSerif-73" x="323.486328"/>
      <use xlink:href="#DejaVuSerif-5d" x="374.804688"/>
     </g>
    </g>
   </g>
   <g id="matplotlib.axis_6">
    <g id="ytick_7">
     <g id="line2d_53">
      <path d="M 43.011719 183.135018 
L 211.848163 183.135018 
" clip-path="url(#pfe29421443)" style="fill: none; stroke: #b0b0b0; stroke-width: 0.1; stroke-linecap: round"/>
     </g>
     <g id="line2d_54"/>
     <g id="text_15">
      <!-- −0.05 -->
      <g style="fill: #262626" transform="translate(18.06 185.794471) scale(0.07 -0.07)">
       <defs>
        <path id="DejaVuSerif-2e" d="M 603 325 
Q 603 500 722 622 
Q 841 744 1019 744 
Q 1191 744 1312 622 
Q 1434 500 1434 325 
Q 1434 153 1312 31 
Q 1191 -91 1019 -91 
Q 841 -91 722 29 
Q 603 150 603 325 
z
" transform="scale(0.015625)"/>
        <path id="DejaVuSerif-35" d="M 3219 4666 
L 3219 4153 
L 1081 4153 
L 1081 2816 
Q 1244 2928 1461 2984 
Q 1678 3041 1947 3041 
Q 2703 3041 3140 2622 
Q 3578 2203 3578 1478 
Q 3578 738 3136 323 
Q 2694 -91 1894 -91 
Q 1572 -91 1234 -12 
Q 897 66 544 225 
L 544 1131 
L 897 1131 
Q 925 688 1179 453 
Q 1434 219 1894 219 
Q 2388 219 2653 544 
Q 2919 869 2919 1478 
Q 2919 2084 2655 2407 
Q 2391 2731 1894 2731 
Q 1613 2731 1398 2631 
Q 1184 2531 1019 2322 
L 750 2322 
L 750 4666 
L 3219 4666 
z
" transform="scale(0.015625)"/>
       </defs>
       <use xlink:href="#DejaVuSerif-2212"/>
       <use xlink:href="#DejaVuSerif-30" x="83.789062"/>
       <use xlink:href="#DejaVuSerif-2e" x="147.412109"/>
       <use xlink:href="#DejaVuSerif-30" x="179.199219"/>
       <use xlink:href="#DejaVuSerif-35" x="242.822266"/>
      </g>
     </g>
    </g>
    <g id="ytick_8">
     <g id="line2d_55">
      <path d="M 43.011719 164.182887 
L 211.848163 164.182887 
" clip-path="url(#pfe29421443)" style="fill: none; stroke: #b0b0b0; stroke-width: 0.1; stroke-linecap: round"/>
     </g>
     <g id="line2d_56"/>
     <g id="text_16">
      <!-- 0.00 -->
      <g style="fill: #262626" transform="translate(23.925781 166.84234) scale(0.07 -0.07)">
       <use xlink:href="#DejaVuSerif-30"/>
       <use xlink:href="#DejaVuSerif-2e" x="63.623047"/>
       <use xlink:href="#DejaVuSerif-30" x="95.410156"/>
       <use xlink:href="#DejaVuSerif-30" x="159.033203"/>
      </g>
     </g>
    </g>
    <g id="ytick_9">
     <g id="line2d_57">
      <path d="M 43.011719 145.230756 
L 211.848163 145.230756 
" clip-path="url(#pfe29421443)" style="fill: none; stroke: #b0b0b0; stroke-width: 0.1; stroke-linecap: round"/>
     </g>
     <g id="line2d_58"/>
     <g id="text_17">
      <!-- 0.05 -->
      <g style="fill: #262626" transform="translate(23.925781 147.890209) scale(0.07 -0.07)">
       <use xlink:href="#DejaVuSerif-30"/>
       <use xlink:href="#DejaVuSerif-2e" x="63.623047"/>
       <use xlink:href="#DejaVuSerif-30" x="95.410156"/>
       <use xlink:href="#DejaVuSerif-35" x="159.033203"/>
      </g>
     </g>
    </g>
    <g id="text_18">
     <!-- $r$ $[rad/s]$ -->
     <g style="fill: #262626" transform="translate(12.604219 178.361618) rotate(-90) scale(0.07 -0.07)">
      <defs>
       <path id="DejaVuSans-Oblique-72" d="M 2853 2969 
Q 2766 3016 2653 3041 
Q 2541 3066 2413 3066 
Q 1953 3066 1609 2717 
Q 1266 2369 1153 1784 
L 800 0 
L 225 0 
L 909 3500 
L 1484 3500 
L 1375 2956 
Q 1603 3259 1920 3421 
Q 2238 3584 2597 3584 
Q 2691 3584 2781 3573 
Q 2872 3563 2963 3538 
L 2853 2969 
z
" transform="scale(0.015625)"/>
       <path id="DejaVuSans-Oblique-61" d="M 3438 1997 
L 3047 0 
L 2472 0 
L 2578 531 
Q 2325 219 2001 64 
Q 1678 -91 1281 -91 
Q 834 -91 548 182 
Q 263 456 263 884 
Q 263 1497 752 1853 
Q 1241 2209 2100 2209 
L 2900 2209 
L 2931 2363 
Q 2938 2388 2941 2417 
Q 2944 2447 2944 2509 
Q 2944 2788 2717 2942 
Q 2491 3097 2081 3097 
Q 1800 3097 1504 3025 
Q 1209 2953 897 2809 
L 997 3341 
Q 1322 3463 1633 3523 
Q 1944 3584 2234 3584 
Q 2853 3584 3176 3315 
Q 3500 3047 3500 2534 
Q 3500 2431 3484 2292 
Q 3469 2153 3438 1997 
z
M 2816 1759 
L 2241 1759 
Q 1534 1759 1195 1570 
Q 856 1381 856 984 
Q 856 709 1029 553 
Q 1203 397 1509 397 
Q 1978 397 2328 733 
Q 2678 1069 2791 1631 
L 2816 1759 
z
" transform="scale(0.015625)"/>
       <path id="DejaVuSans-2f" d="M 1625 4666 
L 2156 4666 
L 531 -594 
L 0 -594 
L 1625 4666 
z
" transform="scale(0.015625)"/>
       <path id="DejaVuSans-Oblique-73" d="M 3200 3397 
L 3091 2853 
Q 2863 2978 2609 3040 
Q 2356 3103 2088 3103 
Q 1634 3103 1373 2948 
Q 1113 2794 1113 2528 
Q 1113 2219 1719 2053 
Q 1766 2041 1788 2034 
L 1972 1978 
Q 2547 1819 2739 1644 
Q 2931 1469 2931 1166 
Q 2931 609 2489 259 
Q 2047 -91 1331 -91 
Q 1053 -91 747 -37 
Q 441 16 72 128 
L 184 722 
Q 500 559 806 475 
Q 1113 391 1394 391 
Q 1816 391 2080 572 
Q 2344 753 2344 1031 
Q 2344 1331 1650 1516 
L 1591 1531 
L 1394 1581 
Q 956 1697 753 1886 
Q 550 2075 550 2369 
Q 550 2928 970 3256 
Q 1391 3584 2113 3584 
Q 2397 3584 2667 3537 
Q 2938 3491 3200 3397 
z
" transform="scale(0.015625)"/>
      </defs>
      <use xlink:href="#DejaVuSans-Oblique-72" transform="translate(0 0.015625)"/>
      <use xlink:href="#DejaVuSerif-20" transform="translate(41.113281 0.015625)"/>
      <use xlink:href="#DejaVuSans-5b" transform="translate(72.900391 0.015625)"/>
      <use xlink:href="#DejaVuSans-Oblique-72" transform="translate(111.914062 0.015625)"/>
      <use xlink:href="#DejaVuSans-Oblique-61" transform="translate(153.027344 0.015625)"/>
      <use xlink:href="#DejaVuSans-Oblique-64" transform="translate(214.306641 0.015625)"/>
      <use xlink:href="#DejaVuSans-2f" transform="translate(277.783203 0.015625)"/>
      <use xlink:href="#DejaVuSans-Oblique-73" transform="translate(311.474609 0.015625)"/>
      <use xlink:href="#DejaVuSans-5d" transform="translate(363.574219 0.015625)"/>
     </g>
    </g>
   </g>
   <g id="line2d_59">
    <path d="M 50.686103 164.182887 
L 51.160055 164.289547 
L 51.706923 164.66138 
L 52.326707 165.379889 
L 53.055865 166.591793 
L 53.930854 168.515615 
L 55.02459 171.516154 
L 56.774569 176.362307 
L 57.904763 178.725535 
L 59.107873 180.747709 
L 60.347441 182.420095 
L 61.623467 183.796598 
L 63.081782 185.072346 
L 64.758844 186.218035 
L 66.654654 187.27776 
L 68.842127 188.275352 
L 71.211889 189.090116 
L 74.63893 190.02785 
L 77.701392 190.626057 
L 78.175344 190.414052 
L 78.758671 189.892341 
L 79.414912 188.988275 
L 80.180528 187.512061 
L 81.164891 185.107739 
L 82.368001 181.54092 
L 83.93569 176.172509 
L 85.867957 168.715107 
L 87.727309 161.620122 
L 88.821046 158.454559 
L 89.95124 155.820485 
L 91.190808 153.47366 
L 92.430376 151.550491 
L 93.706402 149.956924 
L 95.45638 148.189389 
L 97.133442 146.801022 
L 99.247999 145.402604 
L 102.274003 143.6936 
L 104.38856 142.751699 
L 107.195817 141.736931 
L 112.263463 140.159945 
L 117.29465 138.879202 
L 122.872706 137.794379 
L 129.872619 136.779561 
L 135.487133 136.162872 
L 138.731884 136.02469 
L 139.278752 136.356535 
L 139.82562 136.958937 
L 140.554778 138.132924 
L 141.429767 139.993986 
L 142.523503 142.876165 
L 143.945361 147.298153 
L 145.841171 153.985986 
L 149.158838 165.859183 
L 150.32549 168.786087 
L 151.5286 171.213574 
L 152.877541 173.435162 
L 154.372315 175.468099 
L 155.940003 177.228328 
L 157.689982 178.852929 
L 159.330586 180.06557 
L 161.554517 181.427069 
L 164.653437 183.064299 
L 167.934646 184.597664 
L 170.26795 185.477849 
L 175.26268 187.017763 
L 179.090758 188.052715 
L 185.288597 189.502554 
L 188.132312 190.014627 
L 195.569719 191.114269 
L 203.116501 191.931605 
L 203.116501 191.931605 
" clip-path="url(#pfe29421443)" style="fill: none; stroke: #0000ff; stroke-width: 0.6; stroke-linecap: round"/>
   </g>
   <g id="line2d_60">
    <path d="M 50.686103 164.182887 
L 51.160055 164.289459 
L 51.706923 164.660528 
L 52.326707 165.376453 
L 53.055865 166.581781 
L 53.930854 168.49096 
L 55.02459 171.46009 
L 56.738111 176.137841 
L 57.831847 178.38007 
L 58.998499 180.270261 
L 60.274525 181.931997 
L 61.550551 183.253518 
L 62.93595 184.369652 
L 64.540097 185.375399 
L 66.290075 186.227321 
L 68.842127 187.189539 
L 71.211889 187.842102 
L 74.347267 188.506327 
L 78.211802 189.080796 
L 78.722213 188.943474 
L 79.305539 188.518488 
L 79.925323 187.75278 
L 80.727396 186.361274 
L 81.602385 184.374403 
L 82.769037 181.153948 
L 84.227353 176.42675 
L 86.013789 169.8368 
L 88.857503 159.204438 
L 89.95124 156.284162 
L 91.117892 153.782444 
L 92.248086 151.810253 
L 93.524112 150.031255 
L 94.909512 148.505594 
L 96.440743 147.134367 
L 98.008431 146.029454 
L 99.977157 144.928836 
L 102.711498 143.641042 
L 104.862513 142.86797 
L 108.727048 141.870152 
L 112.99262 140.924268 
L 117.47694 140.157378 
L 122.034175 139.515483 
L 130.784066 138.658946 
L 139.898536 138.093719 
L 140.372488 138.258134 
L 140.919357 138.694324 
L 141.575599 139.510057 
L 142.341214 140.845911 
L 143.289119 142.980883 
L 144.492229 146.284861 
L 146.059918 151.314702 
L 148.028643 158.437248 
L 150.252574 166.497653 
L 151.34631 169.468927 
L 152.549421 172.092309 
L 153.825446 174.356238 
L 155.210846 176.366825 
L 156.596245 177.970757 
L 158.163934 179.459089 
L 159.768081 180.641398 
L 161.84618 181.89797 
L 163.887821 182.915568 
L 168.481514 184.788263 
L 170.559613 185.388009 
L 175.918922 186.577011 
L 181.606351 187.630983 
L 189.809374 188.766072 
L 198.850929 189.76372 
L 203.152959 189.981075 
L 204.173779 190.018708 
L 204.173779 190.018708 
" clip-path="url(#pfe29421443)" style="fill: none; stroke: #008000; stroke-width: 0.6; stroke-linecap: round"/>
   </g>
   <g id="line2d_61">
    <path d="M 50.686103 164.182887 
L 51.160055 164.292874 
L 51.706923 164.676134 
L 52.363165 165.450037 
L 53.128781 166.722319 
L 54.149601 168.884935 
L 55.607916 172.580652 
L 57.357895 176.891487 
L 58.81621 179.879649 
L 60.238067 182.295868 
L 61.696382 184.336017 
L 63.191156 186.052378 
L 64.795302 187.553254 
L 66.472365 188.817974 
L 68.368175 189.960419 
L 70.51919 190.994813 
L 72.779578 191.81735 
L 75.732666 192.639217 
L 76.789945 192.796098 
L 77.300355 192.584202 
L 77.847224 192.105974 
L 78.467007 191.257798 
L 79.232623 189.805198 
L 80.180528 187.488365 
L 81.34718 183.992959 
L 82.914869 178.522201 
L 85.175257 169.742089 
L 87.472104 160.970516 
L 88.675214 157.389299 
L 89.878324 154.469969 
L 91.117892 152.032415 
L 92.430376 149.95316 
L 93.815775 148.182221 
L 95.419922 146.496642 
L 97.096984 145.062453 
L 98.992794 143.738188 
L 101.216725 142.458885 
L 103.805234 141.240304 
L 106.904154 140.03834 
L 110.185363 139.023602 
L 114.122815 138.045827 
L 118.279013 137.251441 
L 122.726874 136.621865 
L 127.867435 136.130796 
L 133.955902 135.783767 
L 137.018363 135.766696 
L 137.60169 136.066701 
L 138.221474 136.65527 
L 138.950631 137.685338 
L 139.82562 139.350136 
L 140.882899 141.891365 
L 142.195383 145.670983 
L 144.018277 151.666805 
L 148.320306 166.165419 
L 149.559874 169.169719 
L 150.8359 171.691813 
L 152.184842 173.862279 
L 153.533783 175.63499 
L 155.065014 177.297739 
L 156.85145 178.899053 
L 159.075381 180.525983 
L 161.299312 181.876971 
L 163.814906 183.169419 
L 166.950283 184.503747 
L 170.377324 185.766173 
L 174.05957 186.918585 
L 178.033479 187.928673 
L 183.319872 189.020465 
L 187.877107 189.75337 
L 194.257236 190.506884 
L 201.257149 191.051093 
L 203.152959 191.160828 
L 203.152959 191.160828 
" clip-path="url(#pfe29421443)" style="fill: none; stroke: #ff0000; stroke-width: 0.6; stroke-linecap: round"/>
   </g>
   <g id="patch_9">
    <path d="M 43.011719 195.667941 
L 43.011719 132.845294 
" style="fill: none; stroke: #000000; stroke-linejoin: miter; stroke-linecap: square"/>
   </g>
   <g id="patch_10">
    <path d="M 43.011719 195.667941 
L 211.848163 195.667941 
" style="fill: none; stroke: #000000; stroke-linejoin: miter; stroke-linecap: square"/>
   </g>
  </g>
 </g>
 <defs>
  <clipPath id="pa6561cc6ed">
   <rect x="43.011719" y="7.2" width="168.836444" height="62.822647"/>
  </clipPath>
  <clipPath id="p3f75dcf667">
   <rect x="43.011719" y="70.022647" width="168.836444" height="62.822647"/>
  </clipPath>
  <clipPath id="pfe29421443">
   <rect x="43.011719" y="132.845294" width="168.836444" height="62.822647"/>
  </clipPath>
 </defs>
</svg>
