<?xml version="1.0" encoding="utf-8" standalone="no"?>
<!DOCTYPE svg PUBLIC "-//W3C//DTD SVG 1.1//EN"
  "http://www.w3.org/Graphics/SVG/1.1/DTD/svg11.dtd">
<svg xmlns:xlink="http://www.w3.org/1999/xlink" width="219.188163pt" height="223.917316pt" viewBox="0 0 219.188163 223.917316" xmlns="http://www.w3.org/2000/svg" version="1.1">
 <metadata>
  <rdf:RDF xmlns:dc="http://purl.org/dc/elements/1.1/" xmlns:cc="http://creativecommons.org/ns#" xmlns:rdf="http://www.w3.org/1999/02/22-rdf-syntax-ns#">
   <cc:Work>
    <dc:type rdf:resource="http://purl.org/dc/dcmitype/StillImage"/>
    <dc:date>2024-03-06T12:46:19.314472</dc:date>
    <dc:format>image/svg+xml</dc:format>
    <dc:creator>
     <cc:Agent>
      <dc:title>Matplotlib v3.8.2, https://matplotlib.org/</dc:title>
     </cc:Agent>
    </dc:creator>
   </cc:Work>
  </rdf:RDF>
 </metadata>
 <defs>
  <style type="text/css">*{stroke-linejoin: round; stroke-linecap: butt}</style>
 </defs>
 <g id="figure_1">
  <g id="patch_1">
   <path d="M 0 223.917316 
L 219.188163 223.917316 
L 219.188163 0 
L 0 0 
z
" style="fill: #ffffff"/>
  </g>
  <g id="axes_1">
   <g id="patch_2">
    <path d="M 43.151719 70.022647 
L 211.988163 70.022647 
L 211.988163 7.2 
L 43.151719 7.2 
z
" style="fill: #ffffff"/>
   </g>
   <g id="line2d_1">
    <path d="M 50.826103 38.809719 
L 51.957323 38.992145 
L 53.161525 39.417845 
L 54.402219 40.09643 
L 55.642912 41.036879 
L 58.708154 43.87842 
L 65.495476 50.473941 
L 71.698942 55.470196 
L 74.508748 57.232411 
L 77.026625 58.600572 
L 78.011882 58.8861 
L 79.033629 58.95333 
L 80.055377 58.798299 
L 81.113615 58.405974 
L 82.208344 57.755003 
L 83.376056 56.798373 
L 84.580258 55.519115 
L 85.857442 53.830654 
L 87.681991 50.974264 
L 93.775985 41.458047 
L 95.965443 38.517903 
L 98.775249 35.147652 
L 101.366108 32.337364 
L 103.336621 30.537176 
L 107.204665 27.443153 
L 110.087452 25.327401 
L 112.824275 23.609455 
L 118.662832 20.297323 
L 121.983511 18.733156 
L 125.194717 17.403364 
L 131.215729 15.333912 
L 135.229736 14.269079 
L 138.659888 13.586827 
L 140.59391 13.410848 
L 141.615658 13.485452 
L 142.746878 13.816405 
L 144.097044 14.448799 
L 145.374229 15.279871 
L 146.54194 16.307285 
L 147.709651 17.635265 
L 149.059817 19.521834 
L 150.66542 22.172078 
L 154.533464 28.737959 
L 157.598706 33.663889 
L 159.788165 36.748987 
L 162.342534 39.948164 
L 164.933393 42.849692 
L 167.122852 44.98641 
L 169.421784 46.907161 
L 173.946665 50.311623 
L 176.683488 52.060068 
L 181.828716 55.087368 
L 184.602031 56.516183 
L 189.272876 58.58766 
L 192.228645 59.675376 
L 196.534581 61.007283 
L 201.278408 62.191541 
L 204.307159 62.807899 
L 204.307159 62.807899 
" clip-path="url(#p0448c4b165)" style="fill: none; stroke: #000000; stroke-width: 0.6; stroke-linecap: round"/>
   </g>
   <g id="matplotlib.axis_1">
    <g id="xtick_1">
     <g id="line2d_2">
      <path d="M 50.826103 70.022647 
L 50.826103 7.2 
" clip-path="url(#p0448c4b165)" style="fill: none; stroke: #b0b0b0; stroke-width: 0.1; stroke-linecap: round"/>
     </g>
     <g id="line2d_3"/>
    </g>
    <g id="xtick_2">
     <g id="line2d_4">
      <path d="M 87.56322 70.022647 
L 87.56322 7.2 
" clip-path="url(#p0448c4b165)" style="fill: none; stroke: #b0b0b0; stroke-width: 0.1; stroke-linecap: round"/>
     </g>
     <g id="line2d_5"/>
    </g>
    <g id="xtick_3">
     <g id="line2d_6">
      <path d="M 124.300337 70.022647 
L 124.300337 7.2 
" clip-path="url(#p0448c4b165)" style="fill: none; stroke: #b0b0b0; stroke-width: 0.1; stroke-linecap: round"/>
     </g>
     <g id="line2d_7"/>
    </g>
    <g id="xtick_4">
     <g id="line2d_8">
      <path d="M 161.037455 70.022647 
L 161.037455 7.2 
" clip-path="url(#p0448c4b165)" style="fill: none; stroke: #b0b0b0; stroke-width: 0.1; stroke-linecap: round"/>
     </g>
     <g id="line2d_9"/>
    </g>
    <g id="xtick_5">
     <g id="line2d_10">
      <path d="M 197.774572 70.022647 
L 197.774572 7.2 
" clip-path="url(#p0448c4b165)" style="fill: none; stroke: #b0b0b0; stroke-width: 0.1; stroke-linecap: round"/>
     </g>
     <g id="line2d_11"/>
    </g>
   </g>
   <g id="matplotlib.axis_2">
    <g id="ytick_1">
     <g id="line2d_12">
      <path d="M 43.151719 58.304711 
L 211.988163 58.304711 
" clip-path="url(#p0448c4b165)" style="fill: none; stroke: #b0b0b0; stroke-width: 0.1; stroke-linecap: round"/>
     </g>
     <g id="line2d_13"/>
     <g id="text_1">
      <!-- −10 -->
      <g style="fill: #262626" transform="translate(24.878437 60.964165) scale(0.07 -0.07)">
       <defs>
        <path id="DejaVuSerif-2212" d="M 678 2259 
L 4684 2259 
L 4684 1753 
L 678 1753 
L 678 2259 
z
" transform="scale(0.015625)"/>
        <path id="DejaVuSerif-31" d="M 909 0 
L 909 331 
L 1722 331 
L 1722 4213 
L 781 3603 
L 781 4013 
L 1919 4750 
L 2350 4750 
L 2350 331 
L 3163 331 
L 3163 0 
L 909 0 
z
" transform="scale(0.015625)"/>
        <path id="DejaVuSerif-30" d="M 2034 219 
Q 2513 219 2750 744 
Q 2988 1269 2988 2328 
Q 2988 3391 2750 3916 
Q 2513 4441 2034 4441 
Q 1556 4441 1318 3916 
Q 1081 3391 1081 2328 
Q 1081 1269 1318 744 
Q 1556 219 2034 219 
z
M 2034 -91 
Q 1275 -91 848 546 
Q 422 1184 422 2328 
Q 422 3475 848 4112 
Q 1275 4750 2034 4750 
Q 2797 4750 3222 4112 
Q 3647 3475 3647 2328 
Q 3647 1184 3222 546 
Q 2797 -91 2034 -91 
z
" transform="scale(0.015625)"/>
       </defs>
       <use xlink:href="#DejaVuSerif-2212"/>
       <use xlink:href="#DejaVuSerif-31" x="83.789062"/>
       <use xlink:href="#DejaVuSerif-30" x="147.412109"/>
      </g>
     </g>
    </g>
    <g id="ytick_2">
     <g id="line2d_14">
      <path d="M 43.151719 38.73028 
L 211.988163 38.73028 
" clip-path="url(#p0448c4b165)" style="fill: none; stroke: #b0b0b0; stroke-width: 0.1; stroke-linecap: round"/>
     </g>
     <g id="line2d_15"/>
     <g id="text_2">
      <!-- 0 -->
      <g style="fill: #262626" transform="translate(35.197969 41.389733) scale(0.07 -0.07)">
       <use xlink:href="#DejaVuSerif-30"/>
      </g>
     </g>
    </g>
    <g id="ytick_3">
     <g id="line2d_16">
      <path d="M 43.151719 19.155848 
L 211.988163 19.155848 
" clip-path="url(#p0448c4b165)" style="fill: none; stroke: #b0b0b0; stroke-width: 0.1; stroke-linecap: round"/>
     </g>
     <g id="line2d_17"/>
     <g id="text_3">
      <!-- 10 -->
      <g style="fill: #262626" transform="translate(30.744219 21.815301) scale(0.07 -0.07)">
       <use xlink:href="#DejaVuSerif-31"/>
       <use xlink:href="#DejaVuSerif-30" x="63.623047"/>
      </g>
     </g>
    </g>
    <g id="text_4">
     <!-- $\beta$ [deg] -->
     <g style="fill: #262626" transform="translate(12.59 51.246324) rotate(-90) scale(0.07 -0.07)">
      <defs>
       <path id="DejaVuSans-Oblique-3b2" d="M 872 216 
L 572 -1331 
L -6 -1331 
L 928 3478 
Q 1206 4903 2538 4903 
Q 3888 4903 3659 3700 
Q 3503 2844 2894 2531 
Q 3713 2250 3553 1416 
Q 3272 -69 1759 -66 
Q 1097 -63 872 216 
z
M 1019 966 
Q 1259 422 1875 425 
Q 2775 425 2966 1406 
Q 3138 2288 1675 2219 
L 1778 2750 
Q 2909 2731 3106 3750 
Q 3241 4438 2509 4434 
Q 1691 4434 1503 3459 
L 1019 966 
z
" transform="scale(0.015625)"/>
       <path id="DejaVuSerif-20" transform="scale(0.015625)"/>
       <path id="DejaVuSerif-5b" d="M 550 4863 
L 2003 4863 
L 2003 4531 
L 1147 4531 
L 1147 -513 
L 2003 -513 
L 2003 -844 
L 550 -844 
L 550 4863 
z
" transform="scale(0.015625)"/>
       <path id="DejaVuSerif-64" d="M 3359 331 
L 3909 331 
L 3909 0 
L 2784 0 
L 2784 519 
Q 2616 206 2355 57 
Q 2094 -91 1709 -91 
Q 1097 -91 708 395 
Q 319 881 319 1663 
Q 319 2444 706 2928 
Q 1094 3413 1709 3413 
Q 2094 3413 2355 3264 
Q 2616 3116 2784 2803 
L 2784 4531 
L 2241 4531 
L 2241 4863 
L 3359 4863 
L 3359 331 
z
M 2784 1497 
L 2784 1825 
Q 2784 2422 2554 2737 
Q 2325 3053 1888 3053 
Q 1444 3053 1217 2703 
Q 991 2353 991 1663 
Q 991 975 1217 622 
Q 1444 269 1888 269 
Q 2325 269 2554 583 
Q 2784 897 2784 1497 
z
" transform="scale(0.015625)"/>
       <path id="DejaVuSerif-65" d="M 3469 1600 
L 991 1600 
L 991 1575 
Q 991 903 1244 561 
Q 1497 219 1991 219 
Q 2369 219 2611 417 
Q 2853 616 2950 1006 
L 3413 1006 
Q 3275 459 2904 184 
Q 2534 -91 1931 -91 
Q 1203 -91 761 389 
Q 319 869 319 1663 
Q 319 2450 753 2931 
Q 1188 3413 1894 3413 
Q 2647 3413 3050 2948 
Q 3453 2484 3469 1600 
z
M 2791 1931 
Q 2772 2513 2545 2808 
Q 2319 3103 1894 3103 
Q 1497 3103 1269 2806 
Q 1041 2509 991 1931 
L 2791 1931 
z
" transform="scale(0.015625)"/>
       <path id="DejaVuSerif-67" d="M 3359 2988 
L 3359 72 
Q 3359 -644 2965 -1033 
Q 2572 -1422 1844 -1422 
Q 1516 -1422 1216 -1362 
Q 916 -1303 641 -1184 
L 641 -488 
L 941 -488 
Q 997 -813 1206 -963 
Q 1416 -1113 1806 -1113 
Q 2313 -1113 2548 -827 
Q 2784 -541 2784 72 
L 2784 519 
Q 2616 206 2355 57 
Q 2094 -91 1709 -91 
Q 1097 -91 708 395 
Q 319 881 319 1663 
Q 319 2444 706 2928 
Q 1094 3413 1709 3413 
Q 2094 3413 2355 3264 
Q 2616 3116 2784 2803 
L 2784 3322 
L 3909 3322 
L 3909 2988 
L 3359 2988 
z
M 2784 1825 
Q 2784 2422 2554 2737 
Q 2325 3053 1888 3053 
Q 1444 3053 1217 2703 
Q 991 2353 991 1663 
Q 991 975 1217 622 
Q 1444 269 1888 269 
Q 2325 269 2554 583 
Q 2784 897 2784 1497 
L 2784 1825 
z
" transform="scale(0.015625)"/>
       <path id="DejaVuSerif-5d" d="M 1947 4863 
L 1947 -844 
L 494 -844 
L 494 -513 
L 1350 -513 
L 1350 4531 
L 494 4531 
L 494 4863 
L 1947 4863 
z
" transform="scale(0.015625)"/>
      </defs>
      <use xlink:href="#DejaVuSans-Oblique-3b2" transform="translate(0 0.390625)"/>
      <use xlink:href="#DejaVuSerif-20" transform="translate(63.818359 0.390625)"/>
      <use xlink:href="#DejaVuSerif-5b" transform="translate(95.605469 0.390625)"/>
      <use xlink:href="#DejaVuSerif-64" transform="translate(134.619141 0.390625)"/>
      <use xlink:href="#DejaVuSerif-65" transform="translate(198.632812 0.390625)"/>
      <use xlink:href="#DejaVuSerif-67" transform="translate(257.8125 0.390625)"/>
      <use xlink:href="#DejaVuSerif-5d" transform="translate(321.826172 0.390625)"/>
     </g>
    </g>
   </g>
   <g id="line2d_18">
    <path d="M 50.826103 38.73028 
L 52.00169 38.838647 
L 53.103804 39.155506 
L 54.205917 39.704273 
L 55.344768 40.524741 
L 57.438784 42.394078 
L 65.410738 49.528143 
L 69.121187 52.477001 
L 72.90511 55.204829 
L 76.799245 57.733881 
L 78.6361 58.731577 
L 79.66474 59.013437 
L 80.656642 59.055824 
L 81.648544 58.876407 
L 82.677183 58.456351 
L 83.74256 57.777014 
L 84.88141 56.782936 
L 86.130472 55.38792 
L 87.710168 53.244082 
L 94.910644 43.180032 
L 98.290458 38.927048 
L 101.523325 35.225966 
L 104.609243 31.997554 
L 107.768635 29.0265 
L 111.295398 26.026385 
L 114.785424 23.350142 
L 118.495873 20.788357 
L 122.426744 18.344716 
L 126.724987 15.95352 
L 130.949756 13.853222 
L 135.61537 11.786137 
L 139.69319 10.19406 
L 140.685092 10.056374 
L 141.640257 10.144929 
L 142.632159 10.459654 
L 143.697535 11.042103 
L 144.836386 11.93159 
L 146.085448 13.205107 
L 147.444721 14.925974 
L 149.097892 17.42073 
L 155.637099 27.541549 
L 159.127125 32.525198 
L 162.213043 36.540025 
L 165.482646 40.437513 
L 168.935935 44.199785 
L 171.948379 47.152707 
L 175.291456 50.122145 
L 178.965168 53.072736 
L 182.602143 55.712525 
L 186.533014 58.289865 
L 190.096515 60.39944 
L 194.431495 62.712093 
L 198.913423 64.867598 
L 203.468826 66.828519 
L 204.313779 67.167072 
L 204.313779 67.167072 
" clip-path="url(#p0448c4b165)" style="fill: none; stroke: #0000ff; stroke-width: 0.6; stroke-linecap: round"/>
   </g>
   <g id="line2d_19">
    <path d="M 50.826103 38.73028 
L 52.00169 38.838501 
L 53.103804 39.15442 
L 54.205917 39.700613 
L 55.344768 40.515635 
L 57.585732 42.49137 
L 64.014728 48.11015 
L 67.688439 50.958171 
L 70.99478 53.248808 
L 74.668492 55.524104 
L 78.342204 57.543539 
L 79.481054 57.990308 
L 80.509693 58.165131 
L 81.464859 58.116755 
L 82.493498 57.841389 
L 83.558874 57.318952 
L 84.697725 56.495769 
L 85.873313 55.365333 
L 87.159112 53.814162 
L 89.106179 51.043679 
L 94.506535 43.347848 
L 97.665927 39.279117 
L 100.56816 35.902233 
L 103.61734 32.691306 
L 106.482836 30.0013 
L 109.568753 27.409487 
L 112.728145 25.047393 
L 116.144697 22.766637 
L 119.561249 20.742271 
L 123.418647 18.719576 
L 127.606678 16.778044 
L 132.125343 14.926184 
L 137.305277 13.051631 
L 140.57488 12.057588 
L 141.60352 12.02131 
L 142.632159 12.212763 
L 143.660798 12.639779 
L 144.762912 13.344491 
L 145.9385 14.366202 
L 147.224299 15.790482 
L 148.583572 17.629992 
L 150.751062 21.034005 
L 156.298367 29.693742 
L 159.56797 34.348017 
L 162.433465 38.025819 
L 165.445909 41.540656 
L 168.49509 44.760674 
L 171.397322 47.501402 
L 174.299554 49.935725 
L 177.569158 52.402068 
L 181.059184 54.741887 
L 184.916581 57.048185 
L 188.700504 59.040173 
L 193.108958 61.096789 
L 198.031732 63.125369 
L 203.02798 64.910839 
L 204.019882 65.23937 
L 204.019882 65.23937 
" clip-path="url(#p0448c4b165)" style="fill: none; stroke: #008000; stroke-width: 0.6; stroke-linecap: round"/>
   </g>
   <g id="line2d_20">
    <path d="M 50.826103 38.73028 
L 52.148639 38.841498 
L 53.250752 39.147784 
L 54.316129 39.681838 
L 55.308031 40.428047 
L 56.814253 41.913033 
L 61.883975 46.817746 
L 65.557687 50.071323 
L 68.974239 52.799895 
L 72.427528 55.266452 
L 75.954291 57.515299 
L 77.901358 58.557711 
L 78.89326 58.803444 
L 79.848425 58.815375 
L 80.80359 58.602484 
L 81.795493 58.142555 
L 82.824132 57.41293 
L 83.926245 56.353803 
L 85.13857 54.869096 
L 86.461107 52.872641 
L 92.596205 42.919461 
L 95.388226 38.961314 
L 98.106773 35.488817 
L 100.788582 32.418496 
L 103.543866 29.602202 
L 106.446098 26.954737 
L 109.421805 24.537975 
L 112.617934 22.233081 
L 115.924275 20.122926 
L 119.451038 18.131623 
L 123.271698 16.233348 
L 127.239307 14.503724 
L 131.574287 12.857144 
L 135.725581 11.495252 
L 136.680746 11.418293 
L 137.635911 11.565363 
L 138.591076 11.942804 
L 139.582978 12.57474 
L 140.685092 13.558851 
L 141.86068 14.918654 
L 143.183216 16.809322 
L 144.615963 19.26562 
L 150.457165 29.894816 
L 153.175712 34.225236 
L 155.784047 37.968692 
L 158.392382 41.326648 
L 161.074192 44.416048 
L 163.829476 47.24949 
L 166.658234 49.83962 
L 169.597203 52.226487 
L 172.866807 54.593528 
L 176.173147 56.706562 
L 179.810122 58.760806 
L 183.483834 60.592512 
L 187.635128 62.405678 
L 192.153793 64.140609 
L 196.672459 65.651631 
L 196.672459 65.651631 
" clip-path="url(#p0448c4b165)" style="fill: none; stroke: #ff0000; stroke-width: 0.6; stroke-linecap: round"/>
   </g>
   <g id="patch_3">
    <path d="M 43.151719 70.022647 
L 43.151719 7.2 
" style="fill: none; stroke: #000000; stroke-linejoin: miter; stroke-linecap: square"/>
   </g>
   <g id="patch_4">
    <path d="M 43.151719 70.022647 
L 211.988163 70.022647 
" style="fill: none; stroke: #000000; stroke-linejoin: miter; stroke-linecap: square"/>
   </g>
  </g>
  <g id="axes_2">
   <g id="patch_5">
    <path d="M 43.151719 132.845294 
L 211.988163 132.845294 
L 211.988163 70.022647 
L 43.151719 70.022647 
z
" style="fill: #ffffff"/>
   </g>
   <g id="line2d_21">
    <path d="M 50.826103 101.893296 
L 53.125034 101.98131 
L 54.730637 102.269016 
L 56.117295 102.738148 
L 57.576934 103.478802 
L 59.29201 104.61154 
L 61.371995 106.255078 
L 63.707418 108.408607 
L 67.13757 111.894502 
L 71.662451 116.908036 
L 76.406279 122.417353 
L 79.726958 126.120871 
L 81.369052 127.610496 
L 82.7922 128.612267 
L 84.105875 129.277695 
L 85.310078 129.644723 
L 86.477789 129.770155 
L 87.718482 129.670067 
L 89.14163 129.318042 
L 90.783724 128.67409 
L 92.827219 127.621003 
L 95.016678 126.248812 
L 97.71701 124.27459 
L 100.818743 121.742712 
L 105.89099 117.226432 
L 111.218672 112.134666 
L 118.626341 104.613379 
L 129.062761 93.579779 
L 139.316726 82.728208 
L 142.965824 79.055142 
L 144.863355 77.445522 
L 146.395976 76.427331 
L 147.746142 75.787055 
L 149.059817 75.402036 
L 150.300511 75.262358 
L 151.577695 75.341791 
L 153.073825 75.662775 
L 154.75241 76.255083 
L 156.868887 77.252457 
L 159.459746 78.727439 
L 162.014115 80.462418 
L 165.626722 83.198136 
L 171.355805 87.930759 
L 177.011907 92.950826 
L 183.397828 98.999815 
L 193.067938 108.589602 
L 204.307159 119.902199 
L 204.307159 119.902199 
" clip-path="url(#pb72a62bc05)" style="fill: none; stroke: #000000; stroke-width: 0.6; stroke-linecap: round"/>
   </g>
   <g id="line2d_22">
    <path d="M 50.826103 102.053165 
L 52.395215 108.682083 
L 55.93484 122.466271 
L 58.635172 122.458253 
L 76.661716 122.364448 
L 81.843435 100.63526 
L 82.938164 96.217986 
L 83.631492 93.360127 
L 84.872186 88.106622 
L 85.820951 84.164388 
L 86.477789 81.426793 
L 87.754973 81.48051 
L 140.739874 81.574316 
L 141.907586 86.514736 
L 141.944077 86.514736 
L 150.738402 122.469478 
L 204.307159 122.457852 
L 204.307159 122.457852 
" clip-path="url(#pb72a62bc05)" style="fill: none; stroke-dasharray: 2.22,0.96; stroke-dashoffset: 0; stroke: #808080; stroke-width: 0.6"/>
   </g>
   <g id="matplotlib.axis_3">
    <g id="xtick_6">
     <g id="line2d_23">
      <path d="M 50.826103 132.845294 
L 50.826103 70.022647 
" clip-path="url(#pb72a62bc05)" style="fill: none; stroke: #b0b0b0; stroke-width: 0.1; stroke-linecap: round"/>
     </g>
     <g id="line2d_24"/>
    </g>
    <g id="xtick_7">
     <g id="line2d_25">
      <path d="M 87.56322 132.845294 
L 87.56322 70.022647 
" clip-path="url(#pb72a62bc05)" style="fill: none; stroke: #b0b0b0; stroke-width: 0.1; stroke-linecap: round"/>
     </g>
     <g id="line2d_26"/>
    </g>
    <g id="xtick_8">
     <g id="line2d_27">
      <path d="M 124.300337 132.845294 
L 124.300337 70.022647 
" clip-path="url(#pb72a62bc05)" style="fill: none; stroke: #b0b0b0; stroke-width: 0.1; stroke-linecap: round"/>
     </g>
     <g id="line2d_28"/>
    </g>
    <g id="xtick_9">
     <g id="line2d_29">
      <path d="M 161.037455 132.845294 
L 161.037455 70.022647 
" clip-path="url(#pb72a62bc05)" style="fill: none; stroke: #b0b0b0; stroke-width: 0.1; stroke-linecap: round"/>
     </g>
     <g id="line2d_30"/>
    </g>
    <g id="xtick_10">
     <g id="line2d_31">
      <path d="M 197.774572 132.845294 
L 197.774572 70.022647 
" clip-path="url(#pb72a62bc05)" style="fill: none; stroke: #b0b0b0; stroke-width: 0.1; stroke-linecap: round"/>
     </g>
     <g id="line2d_32"/>
    </g>
   </g>
   <g id="matplotlib.axis_4">
    <g id="ytick_4">
     <g id="line2d_33">
      <path d="M 43.151719 122.458316 
L 211.988163 122.458316 
" clip-path="url(#pb72a62bc05)" style="fill: none; stroke: #b0b0b0; stroke-width: 0.1; stroke-linecap: round"/>
     </g>
     <g id="line2d_34"/>
     <g id="text_5">
      <!-- −20 -->
      <g style="fill: #262626" transform="translate(24.878437 125.117769) scale(0.07 -0.07)">
       <defs>
        <path id="DejaVuSerif-32" d="M 819 3553 
L 469 3553 
L 469 4384 
Q 803 4563 1142 4656 
Q 1481 4750 1806 4750 
Q 2534 4750 2956 4397 
Q 3378 4044 3378 3438 
Q 3378 2753 2422 1800 
Q 2347 1728 2309 1691 
L 1131 513 
L 3078 513 
L 3078 1088 
L 3444 1088 
L 3444 0 
L 434 0 
L 434 341 
L 1850 1753 
Q 2319 2222 2519 2614 
Q 2719 3006 2719 3438 
Q 2719 3909 2473 4175 
Q 2228 4441 1797 4441 
Q 1350 4441 1106 4219 
Q 863 3997 819 3553 
z
" transform="scale(0.015625)"/>
       </defs>
       <use xlink:href="#DejaVuSerif-2212"/>
       <use xlink:href="#DejaVuSerif-32" x="83.789062"/>
       <use xlink:href="#DejaVuSerif-30" x="147.412109"/>
      </g>
     </g>
    </g>
    <g id="ytick_5">
     <g id="line2d_35">
      <path d="M 43.151719 101.968981 
L 211.988163 101.968981 
" clip-path="url(#pb72a62bc05)" style="fill: none; stroke: #b0b0b0; stroke-width: 0.1; stroke-linecap: round"/>
     </g>
     <g id="line2d_36"/>
     <g id="text_6">
      <!-- 0 -->
      <g style="fill: #262626" transform="translate(35.197969 104.628434) scale(0.07 -0.07)">
       <use xlink:href="#DejaVuSerif-30"/>
      </g>
     </g>
    </g>
    <g id="ytick_6">
     <g id="line2d_37">
      <path d="M 43.151719 81.479646 
L 211.988163 81.479646 
" clip-path="url(#pb72a62bc05)" style="fill: none; stroke: #b0b0b0; stroke-width: 0.1; stroke-linecap: round"/>
     </g>
     <g id="line2d_38"/>
     <g id="text_7">
      <!-- 20 -->
      <g style="fill: #262626" transform="translate(30.744219 84.139099) scale(0.07 -0.07)">
       <use xlink:href="#DejaVuSerif-32"/>
       <use xlink:href="#DejaVuSerif-30" x="63.623047"/>
      </g>
     </g>
    </g>
    <g id="text_8">
     <!-- $\psi$ [deg] -->
     <g style="fill: #262626" transform="translate(12.59 114.138971) rotate(-90) scale(0.07 -0.07)">
      <defs>
       <path id="DejaVuSans-Oblique-3c8" d="M 1591 -78 
Q 891 38 616 341 
Q 278 713 425 1472 
L 819 3500 
L 1400 3500 
L 1009 1494 
Q 900 922 1119 684 
Q 1313 478 1691 434 
L 2284 3500 
L 2856 3500 
L 2263 438 
Q 2681 481 2928 688 
Q 3247 950 3353 1497 
L 3741 3500 
L 4322 3500 
L 3928 1475 
Q 3775 688 3300 344 
Q 2872 34 2163 -75 
L 1919 -1331 
L 1347 -1331 
L 1591 -78 
z
" transform="scale(0.015625)"/>
      </defs>
      <use xlink:href="#DejaVuSans-Oblique-3c8" transform="translate(0 0.015625)"/>
      <use xlink:href="#DejaVuSerif-20" transform="translate(65.966797 0.015625)"/>
      <use xlink:href="#DejaVuSerif-5b" transform="translate(97.753906 0.015625)"/>
      <use xlink:href="#DejaVuSerif-64" transform="translate(136.767578 0.015625)"/>
      <use xlink:href="#DejaVuSerif-65" transform="translate(200.78125 0.015625)"/>
      <use xlink:href="#DejaVuSerif-67" transform="translate(259.960938 0.015625)"/>
      <use xlink:href="#DejaVuSerif-5d" transform="translate(323.974609 0.015625)"/>
     </g>
    </g>
   </g>
   <g id="line2d_39">
    <path d="M 50.826103 101.968981 
L 53.434438 102.076698 
L 54.94066 102.369823 
L 56.299933 102.862078 
L 57.842892 103.668364 
L 59.716485 104.906764 
L 62.030923 106.716791 
L 64.933156 109.282584 
L 68.643605 112.878358 
L 73.16227 117.57916 
L 79.076946 124.077811 
L 81.244436 126.26872 
L 82.860869 127.594173 
L 84.256879 128.457652 
L 85.505941 128.981542 
L 86.681529 129.241824 
L 87.857117 129.271143 
L 89.142916 129.07527 
L 90.649138 128.61439 
L 92.41252 127.834575 
L 94.506535 126.656172 
L 97.004659 124.989668 
L 100.05384 122.676429 
L 103.507129 119.776072 
L 107.731898 115.918636 
L 112.470986 111.288127 
L 117.871342 105.687131 
L 123.932966 99.069481 
L 131.096704 90.91256 
L 143.25669 76.991796 
L 144.799649 75.737108 
L 146.158922 74.903856 
L 147.444721 74.371863 
L 148.657046 74.111476 
L 149.906108 74.076912 
L 151.338856 74.268009 
L 152.992026 74.72151 
L 154.902356 75.482722 
L 157.106583 76.605271 
L 159.714919 78.192944 
L 162.800837 80.340218 
L 166.3276 83.070691 
L 170.14826 86.31259 
L 174.777137 90.543179 
L 179.846859 95.482495 
L 185.394164 101.207704 
L 191.859896 108.220491 
L 199.280794 116.592585 
L 204.313779 122.435959 
L 204.313779 122.435959 
" clip-path="url(#pb72a62bc05)" style="fill: none; stroke: #0000ff; stroke-width: 0.6; stroke-linecap: round"/>
   </g>
   <g id="line2d_40">
    <path d="M 50.826103 101.968981 
L 53.434438 102.076478 
L 54.94066 102.36852 
L 56.299933 102.857966 
L 57.879629 103.678591 
L 59.789959 104.932658 
L 62.177872 106.78014 
L 65.300527 109.495622 
L 69.34161 113.322811 
L 74.705229 118.72683 
L 82.08939 126.201599 
L 83.632348 127.340971 
L 84.991622 128.079627 
L 86.240684 128.512138 
L 87.416272 128.686548 
L 88.591859 128.631356 
L 89.914396 128.334621 
L 91.457354 127.750256 
L 93.29421 126.803868 
L 95.535175 125.386067 
L 98.290458 123.369816 
L 101.780484 120.523223 
L 105.895042 116.865958 
L 110.964764 112.057661 
L 117.026388 105.994376 
L 124.484023 98.195376 
L 133.558091 88.376463 
L 143.330164 77.804709 
L 144.946597 76.49752 
L 146.342608 75.643121 
L 147.628407 75.107946 
L 148.840732 74.840558 
L 150.01632 74.805497 
L 151.338856 74.99243 
L 152.881815 75.442706 
L 154.681934 76.207131 
L 156.812686 77.363 
L 159.384285 79.022201 
L 162.580414 81.365084 
L 166.3276 84.395154 
L 170.589105 88.133768 
L 176.246622 93.418264 
L 182.491932 99.565817 
L 189.655669 106.949654 
L 198.068469 115.934613 
L 204.019882 122.4298 
L 204.019882 122.4298 
" clip-path="url(#pb72a62bc05)" style="fill: none; stroke: #008000; stroke-width: 0.6; stroke-linecap: round"/>
   </g>
   <g id="line2d_41">
    <path d="M 50.826103 101.968981 
L 53.397701 102.079244 
L 54.94066 102.381147 
L 56.373407 102.892007 
L 57.953103 103.70229 
L 59.826696 104.926555 
L 62.030923 106.644561 
L 64.675996 109.001602 
L 67.835388 112.125207 
L 71.619311 116.190161 
L 76.064502 121.302993 
L 80.80359 126.744772 
L 82.346549 128.126557 
L 83.705823 129.05186 
L 84.918148 129.617572 
L 86.093735 129.921167 
L 87.232586 129.984508 
L 88.444911 129.825597 
L 89.877658 129.403499 
L 91.530829 128.676898 
L 93.514633 127.550919 
L 95.829071 125.973371 
L 98.547618 123.842387 
L 101.70701 121.07272 
L 105.233774 117.678627 
L 109.238119 113.509209 
L 113.756785 108.474243 
L 118.936718 102.360828 
L 124.924868 94.937732 
L 132.015132 85.780875 
L 139.068659 76.695579 
L 140.611618 75.155413 
L 141.970891 74.103567 
L 143.183216 73.433127 
L 144.358804 73.034491 
L 145.497654 72.882464 
L 146.746716 72.950538 
L 148.179464 73.262635 
L 149.832634 73.855288 
L 151.816438 74.813672 
L 154.09414 76.16866 
L 156.739212 78.009095 
L 159.714919 80.358415 
L 163.021259 83.25635 
L 166.768445 86.84642 
L 170.956477 91.173861 
L 175.658828 96.364798 
L 180.875498 102.461754 
L 186.97386 109.941753 
L 194.137598 119.094768 
L 196.672459 122.410122 
L 196.672459 122.410122 
" clip-path="url(#pb72a62bc05)" style="fill: none; stroke: #ff0000; stroke-width: 0.6; stroke-linecap: round"/>
   </g>
   <g id="patch_6">
    <path d="M 43.151719 132.845294 
L 43.151719 70.022647 
" style="fill: none; stroke: #000000; stroke-linejoin: miter; stroke-linecap: square"/>
   </g>
   <g id="patch_7">
    <path d="M 43.151719 132.845294 
L 211.988163 132.845294 
" style="fill: none; stroke: #000000; stroke-linejoin: miter; stroke-linecap: square"/>
   </g>
  </g>
  <g id="axes_3">
   <g id="patch_8">
    <path d="M 43.151719 195.667941 
L 211.988163 195.667941 
L 211.988163 132.845294 
L 43.151719 132.845294 
z
" style="fill: #ffffff"/>
   </g>
   <g id="line2d_42">
    <path d="M 50.826103 164.261665 
L 51.373467 164.579259 
L 52.030305 165.223585 
L 52.833106 166.339536 
L 53.854854 168.157312 
L 54.986074 170.640483 
L 58.379735 178.691247 
L 59.364992 180.2176 
L 62.904617 184.781826 
L 63.999346 185.58939 
L 65.167057 186.154914 
L 65.933368 186.614914 
L 67.940372 188.081516 
L 68.925628 188.454201 
L 69.837903 188.569305 
L 71.407015 188.613526 
L 73.778928 189.612444 
L 75.019621 189.796203 
L 75.858914 189.703631 
L 77.683463 189.211691 
L 78.267319 188.632601 
L 78.924156 187.649371 
L 79.726958 186.030333 
L 80.821687 183.296491 
L 82.42729 178.557658 
L 83.886929 173.867503 
L 88.046901 159.96038 
L 89.214612 157.320374 
L 90.382324 155.209064 
L 91.477053 153.653898 
L 92.827219 152.153971 
L 95.564043 149.234837 
L 96.804736 148.294945 
L 98.08192 147.625395 
L 98.848231 147.122701 
L 100.417343 146.038504 
L 101.585054 145.548269 
L 102.57031 145.371008 
L 104.139423 145.196238 
L 106.620809 144.192368 
L 107.934484 143.944897 
L 109.503596 143.757532 
L 111.583582 142.897281 
L 112.933748 142.746838 
L 114.064969 142.843214 
L 114.794788 142.820922 
L 118.261431 141.951358 
L 119.392652 142.033432 
L 120.231944 142.035767 
L 121.144219 141.642305 
L 121.94702 141.445641 
L 123.078241 141.419377 
L 124.464898 141.618457 
L 125.815064 141.867021 
L 126.80032 141.558413 
L 128.041014 141.275724 
L 129.02627 141.259629 
L 130.048017 141.462091 
L 131.215729 141.700956 
L 132.091512 141.485734 
L 133.11326 141.333136 
L 134.317462 141.408692 
L 135.485173 141.698912 
L 136.616394 141.980845 
L 137.492177 141.824013 
L 138.440943 141.730857 
L 139.864091 141.876313 
L 140.703383 142.171783 
L 141.250748 142.583144 
L 142.710387 144.150719 
L 143.440207 145.217627 
L 144.352481 146.998987 
L 145.483701 149.72714 
L 146.90685 153.765949 
L 151.796641 168.024359 
L 153.073825 170.592361 
L 154.314518 172.776931 
L 155.336266 174.122959 
L 156.722923 175.581199 
L 158.073089 176.588694 
L 158.875891 177.363901 
L 160.554476 179.029254 
L 161.722187 179.835815 
L 162.853407 180.300628 
L 163.948137 180.798739 
L 165.736195 181.780594 
L 166.721451 182.033133 
L 168.071617 182.15658 
L 169.385293 182.266187 
L 172.815445 183.377708 
L 173.983156 183.448447 
L 174.749466 183.532776 
L 178.143127 184.5891 
L 179.34733 184.585267 
L 180.11364 184.622016 
L 180.989424 185.00046 
L 182.120644 185.383422 
L 183.251864 185.503182 
L 185.806233 185.610277 
L 186.973944 186.029455 
L 188.105165 186.12209 
L 189.528313 186.041835 
L 191.462335 185.806926 
L 193.250393 186.204928 
L 194.892487 186.186854 
L 196.790018 185.990603 
L 198.687549 186.377619 
L 199.818769 186.373897 
L 200.840516 186.102307 
L 201.825773 185.860354 
L 202.519101 185.98365 
L 204.307159 186.385847 
L 204.307159 186.385847 
" clip-path="url(#p2976138bd0)" style="fill: none; stroke: #000000; stroke-width: 0.6; stroke-linecap: round"/>
   </g>
   <g id="matplotlib.axis_5">
    <g id="xtick_11">
     <g id="line2d_43">
      <path d="M 50.826103 195.667941 
L 50.826103 132.845294 
" clip-path="url(#p2976138bd0)" style="fill: none; stroke: #b0b0b0; stroke-width: 0.1; stroke-linecap: round"/>
     </g>
     <g id="line2d_44"/>
     <g id="text_9">
      <!-- 0 -->
      <g style="fill: #262626" transform="translate(48.599228 204.486848) scale(0.07 -0.07)">
       <use xlink:href="#DejaVuSerif-30"/>
      </g>
     </g>
    </g>
    <g id="xtick_12">
     <g id="line2d_45">
      <path d="M 87.56322 195.667941 
L 87.56322 132.845294 
" clip-path="url(#p2976138bd0)" style="fill: none; stroke: #b0b0b0; stroke-width: 0.1; stroke-linecap: round"/>
     </g>
     <g id="line2d_46"/>
     <g id="text_10">
      <!-- 10 -->
      <g style="fill: #262626" transform="translate(83.10947 204.486848) scale(0.07 -0.07)">
       <use xlink:href="#DejaVuSerif-31"/>
       <use xlink:href="#DejaVuSerif-30" x="63.623047"/>
      </g>
     </g>
    </g>
    <g id="xtick_13">
     <g id="line2d_47">
      <path d="M 124.300337 195.667941 
L 124.300337 132.845294 
" clip-path="url(#p2976138bd0)" style="fill: none; stroke: #b0b0b0; stroke-width: 0.1; stroke-linecap: round"/>
     </g>
     <g id="line2d_48"/>
     <g id="text_11">
      <!-- 20 -->
      <g style="fill: #262626" transform="translate(119.846587 204.486848) scale(0.07 -0.07)">
       <use xlink:href="#DejaVuSerif-32"/>
       <use xlink:href="#DejaVuSerif-30" x="63.623047"/>
      </g>
     </g>
    </g>
    <g id="xtick_14">
     <g id="line2d_49">
      <path d="M 161.037455 195.667941 
L 161.037455 132.845294 
" clip-path="url(#p2976138bd0)" style="fill: none; stroke: #b0b0b0; stroke-width: 0.1; stroke-linecap: round"/>
     </g>
     <g id="line2d_50"/>
     <g id="text_12">
      <!-- 30 -->
      <g style="fill: #262626" transform="translate(156.583705 204.486848) scale(0.07 -0.07)">
       <defs>
        <path id="DejaVuSerif-33" d="M 622 4469 
Q 988 4606 1323 4678 
Q 1659 4750 1953 4750 
Q 2638 4750 3022 4454 
Q 3406 4159 3406 3634 
Q 3406 3213 3140 2930 
Q 2875 2647 2388 2547 
Q 2963 2466 3280 2130 
Q 3597 1794 3597 1259 
Q 3597 606 3158 257 
Q 2719 -91 1894 -91 
Q 1528 -91 1179 -12 
Q 831 66 488 225 
L 488 1131 
L 838 1131 
Q 869 681 1141 450 
Q 1413 219 1906 219 
Q 2384 219 2661 495 
Q 2938 772 2938 1253 
Q 2938 1803 2653 2086 
Q 2369 2369 1819 2369 
L 1522 2369 
L 1522 2688 
L 1678 2688 
Q 2225 2688 2498 2914 
Q 2772 3141 2772 3597 
Q 2772 4006 2547 4223 
Q 2322 4441 1900 4441 
Q 1478 4441 1245 4241 
Q 1013 4041 972 3647 
L 622 3647 
L 622 4469 
z
" transform="scale(0.015625)"/>
       </defs>
       <use xlink:href="#DejaVuSerif-33"/>
       <use xlink:href="#DejaVuSerif-30" x="63.623047"/>
      </g>
     </g>
    </g>
    <g id="xtick_15">
     <g id="line2d_51">
      <path d="M 197.774572 195.667941 
L 197.774572 132.845294 
" clip-path="url(#p2976138bd0)" style="fill: none; stroke: #b0b0b0; stroke-width: 0.1; stroke-linecap: round"/>
     </g>
     <g id="line2d_52"/>
     <g id="text_13">
      <!-- 40 -->
      <g style="fill: #262626" transform="translate(193.320822 204.486848) scale(0.07 -0.07)">
       <defs>
        <path id="DejaVuSerif-34" d="M 2234 1581 
L 2234 4063 
L 641 1581 
L 2234 1581 
z
M 3609 0 
L 1484 0 
L 1484 331 
L 2234 331 
L 2234 1247 
L 197 1247 
L 197 1588 
L 2241 4750 
L 2859 4750 
L 2859 1581 
L 3750 1581 
L 3750 1247 
L 2859 1247 
L 2859 331 
L 3609 331 
L 3609 0 
z
" transform="scale(0.015625)"/>
       </defs>
       <use xlink:href="#DejaVuSerif-34"/>
       <use xlink:href="#DejaVuSerif-30" x="63.623047"/>
      </g>
     </g>
    </g>
    <g id="text_14">
     <!-- Time [s] -->
     <g style="fill: #262626" transform="translate(113.085957 215.261535) scale(0.07 -0.07)">
      <defs>
       <path id="DejaVuSerif-54" d="M 1222 0 
L 1222 331 
L 1819 331 
L 1819 4294 
L 447 4294 
L 447 3566 
L 63 3566 
L 63 4666 
L 4206 4666 
L 4206 3566 
L 3822 3566 
L 3822 4294 
L 2450 4294 
L 2450 331 
L 3047 331 
L 3047 0 
L 1222 0 
z
" transform="scale(0.015625)"/>
       <path id="DejaVuSerif-69" d="M 622 4353 
Q 622 4497 726 4603 
Q 831 4709 978 4709 
Q 1122 4709 1226 4603 
Q 1331 4497 1331 4353 
Q 1331 4206 1228 4103 
Q 1125 4000 978 4000 
Q 831 4000 726 4103 
Q 622 4206 622 4353 
z
M 1356 331 
L 1900 331 
L 1900 0 
L 231 0 
L 231 331 
L 781 331 
L 781 2988 
L 231 2988 
L 231 3322 
L 1356 3322 
L 1356 331 
z
" transform="scale(0.015625)"/>
       <path id="DejaVuSerif-6d" d="M 3316 2675 
Q 3481 3041 3739 3227 
Q 3997 3413 4341 3413 
Q 4863 3413 5119 3089 
Q 5375 2766 5375 2113 
L 5375 331 
L 5894 331 
L 5894 0 
L 4300 0 
L 4300 331 
L 4800 331 
L 4800 2047 
Q 4800 2556 4650 2772 
Q 4500 2988 4153 2988 
Q 3769 2988 3567 2697 
Q 3366 2406 3366 1850 
L 3366 331 
L 3866 331 
L 3866 0 
L 2291 0 
L 2291 331 
L 2791 331 
L 2791 2069 
Q 2791 2566 2641 2777 
Q 2491 2988 2144 2988 
Q 1759 2988 1557 2697 
Q 1356 2406 1356 1850 
L 1356 331 
L 1856 331 
L 1856 0 
L 263 0 
L 263 331 
L 781 331 
L 781 2994 
L 231 2994 
L 231 3322 
L 1356 3322 
L 1356 2731 
Q 1516 3063 1762 3238 
Q 2009 3413 2322 3413 
Q 2709 3413 2968 3220 
Q 3228 3028 3316 2675 
z
" transform="scale(0.015625)"/>
       <path id="DejaVuSerif-73" d="M 359 184 
L 359 959 
L 691 959 
Q 703 588 923 403 
Q 1144 219 1575 219 
Q 1963 219 2166 364 
Q 2369 509 2369 788 
Q 2369 1006 2220 1140 
Q 2072 1275 1594 1428 
L 1178 1569 
Q 750 1706 558 1912 
Q 366 2119 366 2438 
Q 366 2894 700 3153 
Q 1034 3413 1625 3413 
Q 1888 3413 2178 3344 
Q 2469 3275 2778 3144 
L 2778 2419 
L 2447 2419 
Q 2434 2741 2221 2922 
Q 2009 3103 1644 3103 
Q 1281 3103 1095 2975 
Q 909 2847 909 2591 
Q 909 2381 1050 2254 
Q 1191 2128 1613 1997 
L 2069 1856 
Q 2541 1709 2748 1489 
Q 2956 1269 2956 922 
Q 2956 450 2595 179 
Q 2234 -91 1600 -91 
Q 1278 -91 972 -22 
Q 666 47 359 184 
z
" transform="scale(0.015625)"/>
      </defs>
      <use xlink:href="#DejaVuSerif-54"/>
      <use xlink:href="#DejaVuSerif-69" x="66.699219"/>
      <use xlink:href="#DejaVuSerif-6d" x="98.681641"/>
      <use xlink:href="#DejaVuSerif-65" x="193.505859"/>
      <use xlink:href="#DejaVuSerif-20" x="252.685547"/>
      <use xlink:href="#DejaVuSerif-5b" x="284.472656"/>
      <use xlink:href="#DejaVuSerif-73" x="323.486328"/>
      <use xlink:href="#DejaVuSerif-5d" x="374.804688"/>
     </g>
    </g>
   </g>
   <g id="matplotlib.axis_6">
    <g id="ytick_7">
     <g id="line2d_53">
      <path d="M 43.151719 181.684939 
L 211.988163 181.684939 
" clip-path="url(#p2976138bd0)" style="fill: none; stroke: #b0b0b0; stroke-width: 0.1; stroke-linecap: round"/>
     </g>
     <g id="line2d_54"/>
     <g id="text_15">
      <!-- −0.05 -->
      <g style="fill: #262626" transform="translate(18.2 184.344392) scale(0.07 -0.07)">
       <defs>
        <path id="DejaVuSerif-2e" d="M 603 325 
Q 603 500 722 622 
Q 841 744 1019 744 
Q 1191 744 1312 622 
Q 1434 500 1434 325 
Q 1434 153 1312 31 
Q 1191 -91 1019 -91 
Q 841 -91 722 29 
Q 603 150 603 325 
z
" transform="scale(0.015625)"/>
        <path id="DejaVuSerif-35" d="M 3219 4666 
L 3219 4153 
L 1081 4153 
L 1081 2816 
Q 1244 2928 1461 2984 
Q 1678 3041 1947 3041 
Q 2703 3041 3140 2622 
Q 3578 2203 3578 1478 
Q 3578 738 3136 323 
Q 2694 -91 1894 -91 
Q 1572 -91 1234 -12 
Q 897 66 544 225 
L 544 1131 
L 897 1131 
Q 925 688 1179 453 
Q 1434 219 1894 219 
Q 2388 219 2653 544 
Q 2919 869 2919 1478 
Q 2919 2084 2655 2407 
Q 2391 2731 1894 2731 
Q 1613 2731 1398 2631 
Q 1184 2531 1019 2322 
L 750 2322 
L 750 4666 
L 3219 4666 
z
" transform="scale(0.015625)"/>
       </defs>
       <use xlink:href="#DejaVuSerif-2212"/>
       <use xlink:href="#DejaVuSerif-30" x="83.789062"/>
       <use xlink:href="#DejaVuSerif-2e" x="147.412109"/>
       <use xlink:href="#DejaVuSerif-30" x="179.199219"/>
       <use xlink:href="#DejaVuSerif-35" x="242.822266"/>
      </g>
     </g>
    </g>
    <g id="ytick_8">
     <g id="line2d_55">
      <path d="M 43.151719 164.443574 
L 211.988163 164.443574 
" clip-path="url(#p2976138bd0)" style="fill: none; stroke: #b0b0b0; stroke-width: 0.1; stroke-linecap: round"/>
     </g>
     <g id="line2d_56"/>
     <g id="text_16">
      <!-- 0.00 -->
      <g style="fill: #262626" transform="translate(24.065781 167.103027) scale(0.07 -0.07)">
       <use xlink:href="#DejaVuSerif-30"/>
       <use xlink:href="#DejaVuSerif-2e" x="63.623047"/>
       <use xlink:href="#DejaVuSerif-30" x="95.410156"/>
       <use xlink:href="#DejaVuSerif-30" x="159.033203"/>
      </g>
     </g>
    </g>
    <g id="ytick_9">
     <g id="line2d_57">
      <path d="M 43.151719 147.202208 
L 211.988163 147.202208 
" clip-path="url(#p2976138bd0)" style="fill: none; stroke: #b0b0b0; stroke-width: 0.1; stroke-linecap: round"/>
     </g>
     <g id="line2d_58"/>
     <g id="text_17">
      <!-- 0.05 -->
      <g style="fill: #262626" transform="translate(24.065781 149.861661) scale(0.07 -0.07)">
       <use xlink:href="#DejaVuSerif-30"/>
       <use xlink:href="#DejaVuSerif-2e" x="63.623047"/>
       <use xlink:href="#DejaVuSerif-30" x="95.410156"/>
       <use xlink:href="#DejaVuSerif-35" x="159.033203"/>
      </g>
     </g>
    </g>
    <g id="text_18">
     <!-- $r$ [rad/s] -->
     <g style="fill: #262626" transform="translate(12.744219 178.536618) rotate(-90) scale(0.07 -0.07)">
      <defs>
       <path id="DejaVuSans-Oblique-72" d="M 2853 2969 
Q 2766 3016 2653 3041 
Q 2541 3066 2413 3066 
Q 1953 3066 1609 2717 
Q 1266 2369 1153 1784 
L 800 0 
L 225 0 
L 909 3500 
L 1484 3500 
L 1375 2956 
Q 1603 3259 1920 3421 
Q 2238 3584 2597 3584 
Q 2691 3584 2781 3573 
Q 2872 3563 2963 3538 
L 2853 2969 
z
" transform="scale(0.015625)"/>
       <path id="DejaVuSerif-72" d="M 3059 3328 
L 3059 2497 
L 2728 2497 
Q 2713 2744 2591 2866 
Q 2469 2988 2234 2988 
Q 1809 2988 1582 2694 
Q 1356 2400 1356 1850 
L 1356 331 
L 2022 331 
L 2022 0 
L 263 0 
L 263 331 
L 781 331 
L 781 2994 
L 231 2994 
L 231 3322 
L 1356 3322 
L 1356 2731 
Q 1525 3078 1790 3245 
Q 2056 3413 2438 3413 
Q 2578 3413 2733 3391 
Q 2888 3369 3059 3328 
z
" transform="scale(0.015625)"/>
       <path id="DejaVuSerif-61" d="M 2547 1044 
L 2547 1747 
L 1806 1747 
Q 1378 1747 1168 1562 
Q 959 1378 959 997 
Q 959 650 1171 447 
Q 1384 244 1747 244 
Q 2106 244 2326 466 
Q 2547 688 2547 1044 
z
M 3122 2075 
L 3122 331 
L 3634 331 
L 3634 0 
L 2547 0 
L 2547 359 
Q 2356 128 2106 18 
Q 1856 -91 1522 -91 
Q 969 -91 644 203 
Q 319 497 319 997 
Q 319 1513 691 1797 
Q 1063 2081 1741 2081 
L 2547 2081 
L 2547 2309 
Q 2547 2688 2317 2895 
Q 2088 3103 1672 3103 
Q 1328 3103 1125 2947 
Q 922 2791 872 2484 
L 575 2484 
L 575 3156 
Q 875 3284 1158 3348 
Q 1441 3413 1709 3413 
Q 2400 3413 2761 3070 
Q 3122 2728 3122 2075 
z
" transform="scale(0.015625)"/>
       <path id="DejaVuSerif-2f" d="M 1656 4666 
L 2156 4666 
L 500 -594 
L 0 -594 
L 1656 4666 
z
" transform="scale(0.015625)"/>
      </defs>
      <use xlink:href="#DejaVuSans-Oblique-72" transform="translate(0 0.015625)"/>
      <use xlink:href="#DejaVuSerif-20" transform="translate(41.113281 0.015625)"/>
      <use xlink:href="#DejaVuSerif-5b" transform="translate(72.900391 0.015625)"/>
      <use xlink:href="#DejaVuSerif-72" transform="translate(111.914062 0.015625)"/>
      <use xlink:href="#DejaVuSerif-61" transform="translate(159.716797 0.015625)"/>
      <use xlink:href="#DejaVuSerif-64" transform="translate(219.335938 0.015625)"/>
      <use xlink:href="#DejaVuSerif-2f" transform="translate(283.349609 0.015625)"/>
      <use xlink:href="#DejaVuSerif-73" transform="translate(317.041016 0.015625)"/>
      <use xlink:href="#DejaVuSerif-5d" transform="translate(368.359375 0.015625)"/>
     </g>
    </g>
   </g>
   <g id="line2d_59">
    <path d="M 50.826103 164.443574 
L 51.340422 164.556204 
L 51.891479 164.9102 
L 52.552747 165.630091 
L 53.324227 166.829229 
L 54.205917 168.638792 
L 55.381505 171.619664 
L 56.887727 175.377613 
L 57.98984 177.485307 
L 59.27564 179.45294 
L 60.598176 181.07495 
L 61.957449 182.377736 
L 63.610619 183.646441 
L 65.410738 184.730454 
L 67.357805 185.625332 
L 70.664146 186.841475 
L 73.970487 187.75801 
L 77.680935 188.56954 
L 78.195255 188.510418 
L 78.746312 188.182167 
L 79.370843 187.55389 
L 80.068848 186.531265 
L 80.987276 184.748675 
L 82.052652 182.169966 
L 83.4854 178.057366 
L 85.212045 172.3619 
L 88.702071 160.580385 
L 89.840921 157.918163 
L 91.089983 155.586526 
L 92.485994 153.4786 
L 93.882004 151.794284 
L 95.4617 150.277635 
L 97.188345 148.909709 
L 99.098675 147.714867 
L 102.515227 145.937283 
L 104.572505 145.086414 
L 107.989057 143.976143 
L 113.866996 142.350311 
L 120.112306 141.008782 
L 123.896229 140.385663 
L 129.039426 139.675354 
L 136.864432 138.987306 
L 139.619715 138.896768 
L 140.170772 139.243758 
L 140.83204 139.962071 
L 141.60352 141.183939 
L 142.558685 143.130964 
L 143.807747 146.260506 
L 145.277232 150.562684 
L 147.297773 157.193307 
L 149.722423 165.140914 
L 150.861273 167.887207 
L 152.036861 170.173988 
L 153.359397 172.265626 
L 154.755408 174.078132 
L 156.408578 175.864104 
L 158.135223 177.391318 
L 159.898604 178.661297 
L 161.955883 179.856316 
L 164.600955 181.183955 
L 168.935935 183.05705 
L 171.250374 183.820654 
L 175.364931 184.965253 
L 181.683715 186.51852 
L 187.341231 187.67347 
L 191.455788 188.261939 
L 204.313779 189.687271 
L 204.313779 189.687271 
" clip-path="url(#p2976138bd0)" style="fill: none; stroke: #0000ff; stroke-width: 0.6; stroke-linecap: round"/>
   </g>
   <g id="line2d_60">
    <path d="M 50.826103 164.443574 
L 51.340422 164.556144 
L 51.891479 164.909681 
L 52.552747 165.627943 
L 53.324227 166.822936 
L 54.205917 168.623689 
L 55.381505 171.584041 
L 56.85099 175.206882 
L 57.953103 177.282464 
L 59.238902 179.209051 
L 60.561439 180.762398 
L 61.847238 181.95086 
L 63.279985 182.968554 
L 65.043367 183.949426 
L 66.91696 184.760467 
L 69.121187 185.505026 
L 71.913208 186.181785 
L 76.578822 187.023097 
L 78.709575 187.22749 
L 79.223894 186.980038 
L 79.885162 186.384447 
L 80.619905 185.369637 
L 81.464859 183.783307 
L 82.530235 181.278972 
L 83.889508 177.482339 
L 85.616153 171.927867 
L 89.657236 158.517129 
L 90.796086 156.016071 
L 92.118623 153.679796 
L 93.404422 151.881375 
L 94.653484 150.516116 
L 96.269917 149.093161 
L 97.923087 147.950997 
L 99.649732 147.008406 
L 102.992809 145.53704 
L 104.976614 144.867046 
L 108.540114 143.932279 
L 111.883192 143.234992 
L 118.569347 142.114545 
L 124.300337 141.493411 
L 133.300931 140.758877 
L 138.627813 140.487542 
L 140.280984 140.542123 
L 140.83204 140.88801 
L 141.456571 141.550908 
L 142.228051 142.717703 
L 143.109742 144.468652 
L 144.285329 147.3448 
L 145.828288 151.770142 
L 147.738618 157.968343 
L 150.640851 167.437926 
L 151.779701 170.107532 
L 152.955289 172.319303 
L 154.277825 174.350884 
L 155.74731 176.186394 
L 157.216795 177.644681 
L 158.906702 179.015403 
L 160.449661 179.9955 
L 162.690625 181.133038 
L 165.629595 182.3779 
L 169.340043 183.673882 
L 172.205539 184.380621 
L 181.500029 186.034368 
L 187.965762 186.919766 
L 192.631376 187.391881 
L 198.472578 187.86976 
L 204.019882 188.153424 
L 204.019882 188.153424 
" clip-path="url(#p2976138bd0)" style="fill: none; stroke: #008000; stroke-width: 0.6; stroke-linecap: round"/>
   </g>
   <g id="line2d_61">
    <path d="M 50.826103 164.443574 
L 51.303685 164.55114 
L 51.854742 164.919392 
L 52.51601 165.663685 
L 53.324227 166.948293 
L 54.389603 169.115041 
L 56.006036 173.005749 
L 57.255098 175.72988 
L 58.577634 178.088757 
L 59.973645 180.119688 
L 61.44313 181.869672 
L 63.059563 183.451918 
L 64.822944 184.853911 
L 66.733274 186.095291 
L 69.08445 187.345462 
L 71.76626 188.522449 
L 74.741966 189.58446 
L 77.350301 190.324751 
L 77.901358 190.234516 
L 78.452415 189.910805 
L 79.040209 189.296087 
L 79.738214 188.224511 
L 80.546431 186.542386 
L 81.538333 183.929099 
L 82.824132 179.845765 
L 84.734462 172.945555 
L 87.967328 161.187982 
L 89.069442 158.262299 
L 90.24503 155.765849 
L 91.494092 153.621293 
L 92.816628 151.783318 
L 94.359587 150.027391 
L 96.049494 148.429524 
L 97.959824 146.931812 
L 100.164051 145.48505 
L 102.882598 143.960968 
L 105.968516 142.48966 
L 109.421805 141.111254 
L 112.728145 139.984591 
L 116.87944 138.820584 
L 121.177682 137.827979 
L 126.026982 136.933152 
L 131.133441 136.198115 
L 135.688844 135.725506 
L 136.239901 135.948703 
L 136.827695 136.436301 
L 137.488963 137.296842 
L 138.223705 138.635624 
L 139.105396 140.74695 
L 140.207509 144.012689 
L 141.640257 148.982976 
L 144.579226 160.240981 
L 146.048711 165.451244 
L 147.114087 168.357154 
L 148.252938 170.840016 
L 149.465263 172.970845 
L 150.787799 174.850033 
L 152.330758 176.662447 
L 154.020665 178.30232 
L 156.114681 180.022827 
L 158.355645 181.576139 
L 161.221141 183.292887 
L 164.196847 184.814324 
L 167.282765 186.142714 
L 171.470796 187.688758 
L 175.695565 188.986244 
L 180.397916 190.19609 
L 185.100267 191.147691 
L 190.390412 191.997161 
L 196.562247 192.800632 
L 196.672459 192.812366 
L 196.672459 192.812366 
" clip-path="url(#p2976138bd0)" style="fill: none; stroke: #ff0000; stroke-width: 0.6; stroke-linecap: round"/>
   </g>
   <g id="patch_9">
    <path d="M 43.151719 195.667941 
L 43.151719 132.845294 
" style="fill: none; stroke: #000000; stroke-linejoin: miter; stroke-linecap: square"/>
   </g>
   <g id="patch_10">
    <path d="M 43.151719 195.667941 
L 211.988163 195.667941 
" style="fill: none; stroke: #000000; stroke-linejoin: miter; stroke-linecap: square"/>
   </g>
  </g>
 </g>
 <defs>
  <clipPath id="p0448c4b165">
   <rect x="43.151719" y="7.2" width="168.836444" height="62.822647"/>
  </clipPath>
  <clipPath id="pb72a62bc05">
   <rect x="43.151719" y="70.022647" width="168.836444" height="62.822647"/>
  </clipPath>
  <clipPath id="p2976138bd0">
   <rect x="43.151719" y="132.845294" width="168.836444" height="62.822647"/>
  </clipPath>
 </defs>
</svg>
