<?xml version="1.0" encoding="utf-8" standalone="no"?>
<!DOCTYPE svg PUBLIC "-//W3C//DTD SVG 1.1//EN"
  "http://www.w3.org/Graphics/SVG/1.1/DTD/svg11.dtd">
<svg xmlns:xlink="http://www.w3.org/1999/xlink" width="221.825469pt" height="248.937375pt" viewBox="0 0 221.825469 248.937375" xmlns="http://www.w3.org/2000/svg" version="1.1">
 <metadata>
  <rdf:RDF xmlns:dc="http://purl.org/dc/elements/1.1/" xmlns:cc="http://creativecommons.org/ns#" xmlns:rdf="http://www.w3.org/1999/02/22-rdf-syntax-ns#">
   <cc:Work>
    <dc:type rdf:resource="http://purl.org/dc/dcmitype/StillImage"/>
    <dc:date>2024-02-13T13:10:58.565915</dc:date>
    <dc:format>image/svg+xml</dc:format>
    <dc:creator>
     <cc:Agent>
      <dc:title>Matplotlib v3.8.2, https://matplotlib.org/</dc:title>
     </cc:Agent>
    </dc:creator>
   </cc:Work>
  </rdf:RDF>
 </metadata>
 <defs>
  <style type="text/css">*{stroke-linejoin: round; stroke-linecap: butt}</style>
 </defs>
 <g id="figure_1">
  <g id="patch_1">
   <path d="M 0 248.937375 
L 221.825469 248.937375 
L 221.825469 0 
L 0 0 
z
" style="fill: #ffffff"/>
  </g>
  <g id="axes_1">
   <g id="patch_2">
    <path d="M 47.465469 93.048 
L 214.625469 93.048 
L 214.625469 29.228 
L 47.465469 29.228 
z
" style="fill: #ffffff"/>
   </g>
   <g id="line2d_1">
    <path d="M 55.063651 61.228544 
L 55.951895 61.473245 
L 56.961263 61.997862 
L 58.21288 62.933256 
L 62.855974 66.602891 
L 67.539443 71.076386 
L 71.253918 73.806578 
L 75.937387 77.2713 
L 78.642494 78.848045 
L 81.186102 80.118813 
L 82.558843 80.576262 
L 83.366338 80.58158 
L 84.214207 80.357787 
L 85.183201 79.855702 
L 86.232944 79.045043 
L 87.323061 77.913043 
L 89.543672 75.096279 
L 91.400909 72.392201 
L 96.286252 65.018082 
L 103.755577 55.445346 
L 105.693565 53.445343 
L 109.569539 49.866489 
L 112.315021 47.527246 
L 114.333757 46.119899 
L 122.812451 40.87117 
L 126.325053 39.175498 
L 130.927772 37.151319 
L 134.440374 35.979036 
L 139.043093 34.622577 
L 141.06183 34.273761 
L 142.59607 34.21833 
L 143.565063 34.362408 
L 144.412933 34.745017 
L 145.381926 35.420941 
L 146.552793 36.519339 
L 147.764035 37.972504 
L 149.177151 40.049757 
L 151.276637 43.457739 
L 154.102868 48.616099 
L 156.000481 51.799883 
L 157.817344 54.405125 
L 162.621937 61.081235 
L 164.681048 63.767914 
L 166.57866 65.857353 
L 171.787001 71.07003 
L 173.724988 72.710078 
L 175.905224 74.242131 
L 184.424292 79.723508 
L 190.72275 82.966682 
L 192.822236 83.779621 
L 201.462429 86.611158 
L 204.006037 87.052627 
L 205.701776 87.128222 
L 206.468896 86.948005 
L 206.468896 86.948005 
" clip-path="url(#p8a9c2810bf)" style="fill: none; stroke: #000000; stroke-width: 0.6; stroke-linecap: round"/>
   </g>
   <g id="matplotlib.axis_1">
    <g id="xtick_1">
     <g id="line2d_2">
      <path d="M 55.063651 93.048 
L 55.063651 29.228 
" clip-path="url(#p8a9c2810bf)" style="fill: none; stroke: #b0b0b0; stroke-width: 0.8; stroke-linecap: round"/>
     </g>
     <g id="line2d_3"/>
    </g>
    <g id="xtick_2">
     <g id="line2d_4">
      <path d="M 95.673922 93.048 
L 95.673922 29.228 
" clip-path="url(#p8a9c2810bf)" style="fill: none; stroke: #b0b0b0; stroke-width: 0.8; stroke-linecap: round"/>
     </g>
     <g id="line2d_5"/>
    </g>
    <g id="xtick_3">
     <g id="line2d_6">
      <path d="M 136.284194 93.048 
L 136.284194 29.228 
" clip-path="url(#p8a9c2810bf)" style="fill: none; stroke: #b0b0b0; stroke-width: 0.8; stroke-linecap: round"/>
     </g>
     <g id="line2d_7"/>
    </g>
    <g id="xtick_4">
     <g id="line2d_8">
      <path d="M 176.894465 93.048 
L 176.894465 29.228 
" clip-path="url(#p8a9c2810bf)" style="fill: none; stroke: #b0b0b0; stroke-width: 0.8; stroke-linecap: round"/>
     </g>
     <g id="line2d_9"/>
    </g>
   </g>
   <g id="matplotlib.axis_2">
    <g id="ytick_1">
     <g id="line2d_10">
      <path d="M 47.465469 82.870462 
L 214.625469 82.870462 
" clip-path="url(#p8a9c2810bf)" style="fill: none; stroke: #b0b0b0; stroke-width: 0.8; stroke-linecap: round"/>
     </g>
     <g id="line2d_11"/>
     <g id="text_1">
      <!-- −5 -->
      <g style="fill: #262626" transform="translate(33.645938 85.529915) scale(0.07 -0.07)">
       <defs>
        <path id="DejaVuSerif-2212" d="M 678 2259 
L 4684 2259 
L 4684 1753 
L 678 1753 
L 678 2259 
z
" transform="scale(0.015625)"/>
        <path id="DejaVuSerif-35" d="M 3219 4666 
L 3219 4153 
L 1081 4153 
L 1081 2816 
Q 1244 2928 1461 2984 
Q 1678 3041 1947 3041 
Q 2703 3041 3140 2622 
Q 3578 2203 3578 1478 
Q 3578 738 3136 323 
Q 2694 -91 1894 -91 
Q 1572 -91 1234 -12 
Q 897 66 544 225 
L 544 1131 
L 897 1131 
Q 925 688 1179 453 
Q 1434 219 1894 219 
Q 2388 219 2653 544 
Q 2919 869 2919 1478 
Q 2919 2084 2655 2407 
Q 2391 2731 1894 2731 
Q 1613 2731 1398 2631 
Q 1184 2531 1019 2322 
L 750 2322 
L 750 4666 
L 3219 4666 
z
" transform="scale(0.015625)"/>
       </defs>
       <use xlink:href="#DejaVuSerif-2212"/>
       <use xlink:href="#DejaVuSerif-35" x="83.789062"/>
      </g>
     </g>
    </g>
    <g id="ytick_2">
     <g id="line2d_12">
      <path d="M 47.465469 61.280301 
L 214.625469 61.280301 
" clip-path="url(#p8a9c2810bf)" style="fill: none; stroke: #b0b0b0; stroke-width: 0.8; stroke-linecap: round"/>
     </g>
     <g id="line2d_13"/>
     <g id="text_2">
      <!-- 0 -->
      <g style="fill: #262626" transform="translate(39.511719 63.939754) scale(0.07 -0.07)">
       <defs>
        <path id="DejaVuSerif-30" d="M 2034 219 
Q 2513 219 2750 744 
Q 2988 1269 2988 2328 
Q 2988 3391 2750 3916 
Q 2513 4441 2034 4441 
Q 1556 4441 1318 3916 
Q 1081 3391 1081 2328 
Q 1081 1269 1318 744 
Q 1556 219 2034 219 
z
M 2034 -91 
Q 1275 -91 848 546 
Q 422 1184 422 2328 
Q 422 3475 848 4112 
Q 1275 4750 2034 4750 
Q 2797 4750 3222 4112 
Q 3647 3475 3647 2328 
Q 3647 1184 3222 546 
Q 2797 -91 2034 -91 
z
" transform="scale(0.015625)"/>
       </defs>
       <use xlink:href="#DejaVuSerif-30"/>
      </g>
     </g>
    </g>
    <g id="ytick_3">
     <g id="line2d_14">
      <path d="M 47.465469 39.69014 
L 214.625469 39.69014 
" clip-path="url(#p8a9c2810bf)" style="fill: none; stroke: #b0b0b0; stroke-width: 0.8; stroke-linecap: round"/>
     </g>
     <g id="line2d_15"/>
     <g id="text_3">
      <!-- 5 -->
      <g style="fill: #262626" transform="translate(39.511719 42.349593) scale(0.07 -0.07)">
       <use xlink:href="#DejaVuSerif-35"/>
      </g>
     </g>
    </g>
    <g id="text_4">
     <!-- $\beta$ $[deg]$ -->
     <g style="fill: #262626" transform="translate(12.59 73.843) rotate(-90) scale(0.07 -0.07)">
      <defs>
       <path id="DejaVuSans-Oblique-3b2" d="M 872 216 
L 572 -1331 
L -6 -1331 
L 928 3478 
Q 1206 4903 2538 4903 
Q 3888 4903 3659 3700 
Q 3503 2844 2894 2531 
Q 3713 2250 3553 1416 
Q 3272 -69 1759 -66 
Q 1097 -63 872 216 
z
M 1019 966 
Q 1259 422 1875 425 
Q 2775 425 2966 1406 
Q 3138 2288 1675 2219 
L 1778 2750 
Q 2909 2731 3106 3750 
Q 3241 4438 2509 4434 
Q 1691 4434 1503 3459 
L 1019 966 
z
" transform="scale(0.015625)"/>
       <path id="DejaVuSerif-20" transform="scale(0.015625)"/>
       <path id="DejaVuSans-5b" d="M 550 4863 
L 1875 4863 
L 1875 4416 
L 1125 4416 
L 1125 -397 
L 1875 -397 
L 1875 -844 
L 550 -844 
L 550 4863 
z
" transform="scale(0.015625)"/>
       <path id="DejaVuSans-Oblique-64" d="M 2675 525 
Q 2444 222 2128 65 
Q 1813 -91 1428 -91 
Q 903 -91 598 267 
Q 294 625 294 1247 
Q 294 1766 478 2236 
Q 663 2706 1013 3078 
Q 1244 3325 1534 3454 
Q 1825 3584 2144 3584 
Q 2481 3584 2739 3421 
Q 2997 3259 3138 2956 
L 3513 4863 
L 4091 4863 
L 3144 0 
L 2566 0 
L 2675 525 
z
M 891 1350 
Q 891 897 1095 644 
Q 1300 391 1663 391 
Q 1931 391 2161 520 
Q 2391 650 2566 903 
Q 2750 1166 2856 1509 
Q 2963 1853 2963 2188 
Q 2963 2622 2758 2865 
Q 2553 3109 2194 3109 
Q 1922 3109 1687 2981 
Q 1453 2853 1288 2613 
Q 1106 2353 998 2009 
Q 891 1666 891 1350 
z
" transform="scale(0.015625)"/>
       <path id="DejaVuSans-Oblique-65" d="M 3078 2063 
Q 3088 2113 3092 2166 
Q 3097 2219 3097 2272 
Q 3097 2653 2873 2875 
Q 2650 3097 2266 3097 
Q 1838 3097 1509 2826 
Q 1181 2556 1013 2059 
L 3078 2063 
z
M 3578 1613 
L 903 1613 
Q 884 1494 878 1425 
Q 872 1356 872 1306 
Q 872 872 1139 634 
Q 1406 397 1894 397 
Q 2269 397 2603 481 
Q 2938 566 3225 728 
L 3116 159 
Q 2806 34 2476 -28 
Q 2147 -91 1806 -91 
Q 1078 -91 686 257 
Q 294 606 294 1247 
Q 294 1794 489 2264 
Q 684 2734 1063 3103 
Q 1306 3334 1642 3459 
Q 1978 3584 2356 3584 
Q 2950 3584 3301 3228 
Q 3653 2872 3653 2272 
Q 3653 2128 3634 1964 
Q 3616 1800 3578 1613 
z
" transform="scale(0.015625)"/>
       <path id="DejaVuSans-Oblique-67" d="M 3816 3500 
L 3219 434 
Q 3047 -456 2561 -893 
Q 2075 -1331 1253 -1331 
Q 950 -1331 690 -1286 
Q 431 -1241 206 -1147 
L 313 -588 
Q 525 -725 762 -790 
Q 1000 -856 1269 -856 
Q 1816 -856 2167 -557 
Q 2519 -259 2631 300 
L 2681 563 
Q 2441 288 2122 144 
Q 1803 0 1434 0 
Q 903 0 598 351 
Q 294 703 294 1319 
Q 294 1803 478 2267 
Q 663 2731 997 3091 
Q 1219 3328 1514 3456 
Q 1809 3584 2131 3584 
Q 2484 3584 2746 3420 
Q 3009 3256 3138 2956 
L 3238 3500 
L 3816 3500 
z
M 2950 2216 
Q 2950 2641 2750 2872 
Q 2550 3103 2181 3103 
Q 1953 3103 1747 3012 
Q 1541 2922 1394 2759 
Q 1156 2491 1023 2127 
Q 891 1763 891 1375 
Q 891 944 1092 712 
Q 1294 481 1672 481 
Q 2219 481 2584 976 
Q 2950 1472 2950 2216 
z
" transform="scale(0.015625)"/>
       <path id="DejaVuSans-5d" d="M 1947 4863 
L 1947 -844 
L 622 -844 
L 622 -397 
L 1369 -397 
L 1369 4416 
L 622 4416 
L 622 4863 
L 1947 4863 
z
" transform="scale(0.015625)"/>
      </defs>
      <use xlink:href="#DejaVuSans-Oblique-3b2" transform="translate(0 0.390625)"/>
      <use xlink:href="#DejaVuSerif-20" transform="translate(63.818359 0.390625)"/>
      <use xlink:href="#DejaVuSans-5b" transform="translate(95.605469 0.390625)"/>
      <use xlink:href="#DejaVuSans-Oblique-64" transform="translate(134.619141 0.390625)"/>
      <use xlink:href="#DejaVuSans-Oblique-65" transform="translate(198.095703 0.390625)"/>
      <use xlink:href="#DejaVuSans-Oblique-67" transform="translate(259.619141 0.390625)"/>
      <use xlink:href="#DejaVuSans-5d" transform="translate(323.095703 0.390625)"/>
     </g>
    </g>
   </g>
   <g id="line2d_16">
    <path d="M 55.063651 61.280301 
L 55.957077 61.390823 
L 56.809892 61.716328 
L 57.662708 62.278224 
L 59.53078 63.925089 
L 71.226539 74.555252 
L 74.800243 77.327694 
L 78.373946 79.832404 
L 82.110091 82.165593 
L 83.572061 82.904888 
L 84.424877 83.056336 
L 85.237082 82.971442 
L 86.049288 82.650969 
L 86.861493 82.085829 
L 87.754919 81.176074 
L 88.932617 79.604567 
L 92.831203 73.971256 
L 98.232369 66.218282 
L 101.521801 61.888577 
L 104.689402 58.078345 
L 108.019445 54.442473 
L 111.268266 51.226031 
L 114.679529 48.17708 
L 117.887741 45.591206 
L 121.217783 43.192235 
L 124.710266 40.948562 
L 128.365191 38.84911 
L 132.385608 36.796928 
L 136.690297 34.858436 
L 141.035596 33.149716 
L 144.040756 32.155872 
L 144.852961 32.155892 
L 145.665167 32.377625 
L 146.477372 32.829153 
L 147.330188 33.559528 
L 148.223614 34.616532 
L 149.360701 36.346574 
L 153.584169 43.253481 
L 158.376182 50.910591 
L 161.868665 56.036152 
L 165.076876 60.333503 
L 168.122647 64.060875 
L 171.087197 67.365717 
L 174.53907 70.86915 
L 177.990943 74.022893 
L 181.483426 76.868759 
L 184.894689 79.362122 
L 188.346562 81.603061 
L 192.001486 83.723651 
L 196.387396 85.982538 
L 200.367202 87.777032 
L 205.077994 89.636341 
L 206.499353 90.147091 
L 206.499353 90.147091 
" clip-path="url(#p8a9c2810bf)" style="fill: none; stroke: #0000ff; stroke-width: 0.6; stroke-linecap: round"/>
   </g>
   <g id="line2d_17">
    <path d="M 55.063651 61.280301 
L 55.957077 61.39072 
L 56.809892 61.715545 
L 57.662708 62.275604 
L 59.571391 63.948339 
L 69.155415 72.537546 
L 72.769729 75.336114 
L 76.180992 77.684018 
L 79.795306 79.892547 
L 83.572061 81.906699 
L 84.465487 82.200329 
L 85.318303 82.245137 
L 86.130508 82.062529 
L 86.942714 81.641096 
L 87.795529 80.935435 
L 88.729566 79.85797 
L 90.597638 77.18303 
L 99.85678 63.73669 
L 102.902551 59.8863 
L 105.78588 56.587328 
L 108.79104 53.479214 
L 112.039862 50.461775 
L 115.045022 47.972815 
L 118.090792 45.727734 
L 121.299004 43.627434 
L 124.832097 41.596429 
L 128.365191 39.809127 
L 132.101336 38.158753 
L 136.406025 36.511463 
L 140.832544 35.061297 
L 144.852961 33.933562 
L 145.705777 33.915305 
L 146.517982 34.116573 
L 147.330188 34.547623 
L 148.223614 35.291552 
L 149.15765 36.376375 
L 150.213517 37.973456 
L 154.883698 45.73031 
L 159.025946 52.400085 
L 162.193547 57.064459 
L 165.239317 61.127248 
L 168.163257 64.644305 
L 170.924755 67.645467 
L 174.132967 70.797103 
L 177.178737 73.477526 
L 180.50878 76.072671 
L 183.676381 78.253751 
L 187.047033 80.31673 
L 190.701958 82.280015 
L 194.438103 84.031984 
L 198.620961 85.722802 
L 202.803819 87.161242 
L 207.027287 88.420226 
L 207.027287 88.420226 
" clip-path="url(#p8a9c2810bf)" style="fill: none; stroke: #008000; stroke-width: 0.6; stroke-linecap: round"/>
   </g>
   <g id="line2d_18">
    <path d="M 55.063651 61.280301 
L 56.078907 61.39262 
L 56.972333 61.714733 
L 57.825149 62.261658 
L 60.018104 64.1291 
L 69.845789 72.842324 
L 72.810339 75.00155 
L 75.774889 76.887902 
L 78.739439 78.516671 
L 81.94765 80.018826 
L 83.206569 80.445875 
L 84.059384 80.485267 
L 84.87159 80.308007 
L 85.683795 79.902595 
L 86.536611 79.213933 
L 87.430037 78.186038 
L 88.648345 76.376099 
L 92.140829 70.766126 
L 96.201856 64.382061 
L 99.003964 60.3992 
L 101.603022 57.090283 
L 104.120859 54.242536 
L 106.638696 51.73055 
L 109.197143 49.494168 
L 111.75559 47.551064 
L 114.517088 45.737638 
L 117.400417 44.115009 
L 120.486798 42.636462 
L 123.73562 41.330972 
L 127.268713 40.153872 
L 131.28913 39.078054 
L 135.553209 38.167912 
L 140.18278 37.410289 
L 141.076206 37.404756 
L 141.929022 37.608878 
L 142.822448 38.062381 
L 143.675263 38.746045 
L 144.609299 39.793961 
L 145.583946 41.232724 
L 148.304834 45.986426 
L 153.340508 54.774156 
L 156.102006 59.116609 
L 158.660453 62.728737 
L 161.13768 65.843553 
L 163.614907 68.600897 
L 166.132743 71.071261 
L 168.65058 73.231431 
L 171.290248 75.206748 
L 173.970526 76.935704 
L 176.813245 78.503245 
L 179.859015 79.930518 
L 183.270278 81.28284 
L 186.640931 82.382707 
L 190.336465 83.355237 
L 194.884816 84.31167 
L 199.108284 85.023487 
L 199.108284 85.023487 
" clip-path="url(#p8a9c2810bf)" style="fill: none; stroke: #ff0000; stroke-width: 0.6; stroke-linecap: round"/>
   </g>
   <g id="patch_3">
    <path d="M 47.465469 93.048 
L 47.465469 29.228 
" style="fill: none; stroke: #000000; stroke-linejoin: miter; stroke-linecap: square"/>
   </g>
   <g id="patch_4">
    <path d="M 47.465469 93.048 
L 214.625469 93.048 
" style="fill: none; stroke: #000000; stroke-linejoin: miter; stroke-linecap: square"/>
   </g>
   <g id="legend_1">
    <g id="line2d_19">
     <path d="M 61.029062 12.868906 
L 68.029062 12.868906 
L 75.029062 12.868906 
" style="fill: none; stroke: #000000; stroke-width: 0.6; stroke-linecap: round"/>
    </g>
    <g id="text_5">
     <!-- Model test -->
     <g style="fill: #262626" transform="translate(80.629062 15.318906) scale(0.07 -0.07)">
      <defs>
       <path id="DejaVuSerif-4d" d="M 353 0 
L 353 331 
L 947 331 
L 947 4331 
L 319 4331 
L 319 4666 
L 1678 4666 
L 3316 1344 
L 4953 4666 
L 6228 4666 
L 6228 4331 
L 5606 4331 
L 5606 331 
L 6203 331 
L 6203 0 
L 4378 0 
L 4378 331 
L 4972 331 
L 4972 3938 
L 3372 684 
L 2931 684 
L 1331 3938 
L 1331 331 
L 1925 331 
L 1925 0 
L 353 0 
z
" transform="scale(0.015625)"/>
       <path id="DejaVuSerif-6f" d="M 1925 219 
Q 2388 219 2623 584 
Q 2859 950 2859 1663 
Q 2859 2375 2623 2739 
Q 2388 3103 1925 3103 
Q 1463 3103 1227 2739 
Q 991 2375 991 1663 
Q 991 950 1228 584 
Q 1466 219 1925 219 
z
M 1925 -91 
Q 1200 -91 759 389 
Q 319 869 319 1663 
Q 319 2456 758 2934 
Q 1197 3413 1925 3413 
Q 2653 3413 3092 2934 
Q 3531 2456 3531 1663 
Q 3531 869 3092 389 
Q 2653 -91 1925 -91 
z
" transform="scale(0.015625)"/>
       <path id="DejaVuSerif-64" d="M 3359 331 
L 3909 331 
L 3909 0 
L 2784 0 
L 2784 519 
Q 2616 206 2355 57 
Q 2094 -91 1709 -91 
Q 1097 -91 708 395 
Q 319 881 319 1663 
Q 319 2444 706 2928 
Q 1094 3413 1709 3413 
Q 2094 3413 2355 3264 
Q 2616 3116 2784 2803 
L 2784 4531 
L 2241 4531 
L 2241 4863 
L 3359 4863 
L 3359 331 
z
M 2784 1497 
L 2784 1825 
Q 2784 2422 2554 2737 
Q 2325 3053 1888 3053 
Q 1444 3053 1217 2703 
Q 991 2353 991 1663 
Q 991 975 1217 622 
Q 1444 269 1888 269 
Q 2325 269 2554 583 
Q 2784 897 2784 1497 
z
" transform="scale(0.015625)"/>
       <path id="DejaVuSerif-65" d="M 3469 1600 
L 991 1600 
L 991 1575 
Q 991 903 1244 561 
Q 1497 219 1991 219 
Q 2369 219 2611 417 
Q 2853 616 2950 1006 
L 3413 1006 
Q 3275 459 2904 184 
Q 2534 -91 1931 -91 
Q 1203 -91 761 389 
Q 319 869 319 1663 
Q 319 2450 753 2931 
Q 1188 3413 1894 3413 
Q 2647 3413 3050 2948 
Q 3453 2484 3469 1600 
z
M 2791 1931 
Q 2772 2513 2545 2808 
Q 2319 3103 1894 3103 
Q 1497 3103 1269 2806 
Q 1041 2509 991 1931 
L 2791 1931 
z
" transform="scale(0.015625)"/>
       <path id="DejaVuSerif-6c" d="M 1313 331 
L 1856 331 
L 1856 0 
L 184 0 
L 184 331 
L 738 331 
L 738 4531 
L 184 4531 
L 184 4863 
L 1313 4863 
L 1313 331 
z
" transform="scale(0.015625)"/>
       <path id="DejaVuSerif-74" d="M 691 2988 
L 184 2988 
L 184 3322 
L 691 3322 
L 691 4353 
L 1269 4353 
L 1269 3322 
L 2350 3322 
L 2350 2988 
L 1269 2988 
L 1269 878 
Q 1269 456 1350 337 
Q 1431 219 1650 219 
Q 1875 219 1978 351 
Q 2081 484 2088 781 
L 2522 781 
Q 2497 328 2275 118 
Q 2053 -91 1600 -91 
Q 1103 -91 897 129 
Q 691 350 691 878 
L 691 2988 
z
" transform="scale(0.015625)"/>
       <path id="DejaVuSerif-73" d="M 359 184 
L 359 959 
L 691 959 
Q 703 588 923 403 
Q 1144 219 1575 219 
Q 1963 219 2166 364 
Q 2369 509 2369 788 
Q 2369 1006 2220 1140 
Q 2072 1275 1594 1428 
L 1178 1569 
Q 750 1706 558 1912 
Q 366 2119 366 2438 
Q 366 2894 700 3153 
Q 1034 3413 1625 3413 
Q 1888 3413 2178 3344 
Q 2469 3275 2778 3144 
L 2778 2419 
L 2447 2419 
Q 2434 2741 2221 2922 
Q 2009 3103 1644 3103 
Q 1281 3103 1095 2975 
Q 909 2847 909 2591 
Q 909 2381 1050 2254 
Q 1191 2128 1613 1997 
L 2069 1856 
Q 2541 1709 2748 1489 
Q 2956 1269 2956 922 
Q 2956 450 2595 179 
Q 2234 -91 1600 -91 
Q 1278 -91 972 -22 
Q 666 47 359 184 
z
" transform="scale(0.015625)"/>
      </defs>
      <use xlink:href="#DejaVuSerif-4d"/>
      <use xlink:href="#DejaVuSerif-6f" x="102.392578"/>
      <use xlink:href="#DejaVuSerif-64" x="162.597656"/>
      <use xlink:href="#DejaVuSerif-65" x="226.611328"/>
      <use xlink:href="#DejaVuSerif-6c" x="285.791016"/>
      <use xlink:href="#DejaVuSerif-20" x="317.773438"/>
      <use xlink:href="#DejaVuSerif-74" x="349.560547"/>
      <use xlink:href="#DejaVuSerif-65" x="389.746094"/>
      <use xlink:href="#DejaVuSerif-73" x="448.925781"/>
      <use xlink:href="#DejaVuSerif-74" x="500.244141"/>
     </g>
    </g>
    <g id="line2d_20">
     <path d="M 61.029062 23.143594 
L 68.029062 23.143594 
L 75.029062 23.143594 
" style="fill: none; stroke: #0000ff; stroke-width: 0.6; stroke-linecap: round"/>
    </g>
    <g id="text_6">
     <!-- Reference -->
     <g style="fill: #262626" transform="translate(80.629062 25.593594) scale(0.07 -0.07)">
      <defs>
       <path id="DejaVuSerif-52" d="M 3066 2316 
Q 3284 2256 3442 2114 
Q 3600 1972 3725 1716 
L 4403 331 
L 4972 331 
L 4972 0 
L 3872 0 
L 3144 1484 
Q 2934 1916 2759 2042 
Q 2584 2169 2278 2169 
L 1581 2169 
L 1581 331 
L 2241 331 
L 2241 0 
L 353 0 
L 353 331 
L 947 331 
L 947 4331 
L 353 4331 
L 353 4666 
L 2719 4666 
Q 3400 4666 3770 4341 
Q 4141 4016 4141 3419 
Q 4141 2938 3870 2661 
Q 3600 2384 3066 2316 
z
M 1581 2503 
L 2503 2503 
Q 2975 2503 3200 2726 
Q 3425 2950 3425 3419 
Q 3425 3888 3200 4109 
Q 2975 4331 2503 4331 
L 1581 4331 
L 1581 2503 
z
" transform="scale(0.015625)"/>
       <path id="DejaVuSerif-66" d="M 2753 4078 
L 2450 4078 
Q 2447 4313 2317 4434 
Q 2188 4556 1941 4556 
Q 1619 4556 1487 4379 
Q 1356 4203 1356 3750 
L 1356 3322 
L 2284 3322 
L 2284 2988 
L 1356 2988 
L 1356 331 
L 2094 331 
L 2094 0 
L 231 0 
L 231 331 
L 781 331 
L 781 2988 
L 231 2988 
L 231 3322 
L 781 3322 
L 781 3738 
Q 781 4294 1070 4578 
Q 1359 4863 1919 4863 
Q 2128 4863 2337 4825 
Q 2547 4788 2753 4709 
L 2753 4078 
z
" transform="scale(0.015625)"/>
       <path id="DejaVuSerif-72" d="M 3059 3328 
L 3059 2497 
L 2728 2497 
Q 2713 2744 2591 2866 
Q 2469 2988 2234 2988 
Q 1809 2988 1582 2694 
Q 1356 2400 1356 1850 
L 1356 331 
L 2022 331 
L 2022 0 
L 263 0 
L 263 331 
L 781 331 
L 781 2994 
L 231 2994 
L 231 3322 
L 1356 3322 
L 1356 2731 
Q 1525 3078 1790 3245 
Q 2056 3413 2438 3413 
Q 2578 3413 2733 3391 
Q 2888 3369 3059 3328 
z
" transform="scale(0.015625)"/>
       <path id="DejaVuSerif-6e" d="M 263 0 
L 263 331 
L 781 331 
L 781 2988 
L 231 2988 
L 231 3322 
L 1356 3322 
L 1356 2731 
Q 1516 3069 1770 3241 
Q 2025 3413 2363 3413 
Q 2913 3413 3172 3097 
Q 3431 2781 3431 2113 
L 3431 331 
L 3944 331 
L 3944 0 
L 2356 0 
L 2356 331 
L 2853 331 
L 2853 1931 
Q 2853 2541 2703 2767 
Q 2553 2994 2175 2994 
Q 1775 2994 1565 2701 
Q 1356 2409 1356 1850 
L 1356 331 
L 1856 331 
L 1856 0 
L 263 0 
z
" transform="scale(0.015625)"/>
       <path id="DejaVuSerif-63" d="M 3291 997 
Q 3169 466 2822 187 
Q 2475 -91 1925 -91 
Q 1200 -91 759 389 
Q 319 869 319 1663 
Q 319 2459 759 2936 
Q 1200 3413 1925 3413 
Q 2241 3413 2553 3339 
Q 2866 3266 3181 3116 
L 3181 2266 
L 2847 2266 
Q 2781 2703 2561 2903 
Q 2341 3103 1931 3103 
Q 1466 3103 1228 2742 
Q 991 2381 991 1663 
Q 991 944 1227 581 
Q 1463 219 1931 219 
Q 2303 219 2525 412 
Q 2747 606 2828 997 
L 3291 997 
z
" transform="scale(0.015625)"/>
      </defs>
      <use xlink:href="#DejaVuSerif-52"/>
      <use xlink:href="#DejaVuSerif-65" x="75.292969"/>
      <use xlink:href="#DejaVuSerif-66" x="134.472656"/>
      <use xlink:href="#DejaVuSerif-65" x="171.484375"/>
      <use xlink:href="#DejaVuSerif-72" x="230.664062"/>
      <use xlink:href="#DejaVuSerif-65" x="278.466797"/>
      <use xlink:href="#DejaVuSerif-6e" x="337.646484"/>
      <use xlink:href="#DejaVuSerif-63" x="402.050781"/>
      <use xlink:href="#DejaVuSerif-65" x="458.056641"/>
     </g>
    </g>
    <g id="line2d_21">
     <path d="M 132.459687 12.868906 
L 139.459687 12.868906 
L 146.459687 12.868906 
" style="fill: none; stroke: #008000; stroke-width: 0.6; stroke-linecap: round"/>
    </g>
    <g id="text_7">
     <!-- PISM -->
     <g style="fill: #262626" transform="translate(152.059687 15.318906) scale(0.07 -0.07)">
      <defs>
       <path id="DejaVuSerif-50" d="M 1581 2375 
L 2406 2375 
Q 2872 2375 3115 2626 
Q 3359 2878 3359 3353 
Q 3359 3831 3115 4081 
Q 2872 4331 2406 4331 
L 1581 4331 
L 1581 2375 
z
M 353 0 
L 353 331 
L 947 331 
L 947 4331 
L 353 4331 
L 353 4666 
L 2559 4666 
Q 3259 4666 3668 4311 
Q 4078 3956 4078 3353 
Q 4078 2753 3668 2397 
Q 3259 2041 2559 2041 
L 1581 2041 
L 1581 331 
L 2303 331 
L 2303 0 
L 353 0 
z
" transform="scale(0.015625)"/>
       <path id="DejaVuSerif-49" d="M 1581 331 
L 2175 331 
L 2175 0 
L 353 0 
L 353 331 
L 947 331 
L 947 4331 
L 353 4331 
L 353 4666 
L 2175 4666 
L 2175 4331 
L 1581 4331 
L 1581 331 
z
" transform="scale(0.015625)"/>
       <path id="DejaVuSerif-53" d="M 594 225 
L 594 1288 
L 953 1284 
Q 969 753 1261 498 
Q 1553 244 2150 244 
Q 2706 244 2998 464 
Q 3291 684 3291 1106 
Q 3291 1444 3114 1625 
Q 2938 1806 2369 1978 
L 1753 2163 
Q 1084 2366 811 2669 
Q 538 2972 538 3500 
Q 538 4094 959 4422 
Q 1381 4750 2144 4750 
Q 2469 4750 2856 4679 
Q 3244 4609 3681 4475 
L 3681 3481 
L 3328 3481 
Q 3275 3975 2998 4195 
Q 2722 4416 2156 4416 
Q 1663 4416 1405 4214 
Q 1147 4013 1147 3628 
Q 1147 3294 1340 3103 
Q 1534 2913 2163 2725 
L 2741 2553 
Q 3375 2363 3645 2067 
Q 3916 1772 3916 1275 
Q 3916 597 3481 253 
Q 3047 -91 2188 -91 
Q 1803 -91 1404 -12 
Q 1006 66 594 225 
z
" transform="scale(0.015625)"/>
      </defs>
      <use xlink:href="#DejaVuSerif-50"/>
      <use xlink:href="#DejaVuSerif-49" x="67.285156"/>
      <use xlink:href="#DejaVuSerif-53" x="106.787109"/>
      <use xlink:href="#DejaVuSerif-4d" x="175.292969"/>
     </g>
    </g>
    <g id="line2d_22">
     <path d="M 132.459687 23.143594 
L 139.459687 23.143594 
L 146.459687 23.143594 
" style="fill: none; stroke: #ff0000; stroke-width: 0.6; stroke-linecap: round"/>
    </g>
    <g id="text_8">
     <!-- Mathematical -->
     <g style="fill: #262626" transform="translate(152.059687 25.593594) scale(0.07 -0.07)">
      <defs>
       <path id="DejaVuSerif-61" d="M 2547 1044 
L 2547 1747 
L 1806 1747 
Q 1378 1747 1168 1562 
Q 959 1378 959 997 
Q 959 650 1171 447 
Q 1384 244 1747 244 
Q 2106 244 2326 466 
Q 2547 688 2547 1044 
z
M 3122 2075 
L 3122 331 
L 3634 331 
L 3634 0 
L 2547 0 
L 2547 359 
Q 2356 128 2106 18 
Q 1856 -91 1522 -91 
Q 969 -91 644 203 
Q 319 497 319 997 
Q 319 1513 691 1797 
Q 1063 2081 1741 2081 
L 2547 2081 
L 2547 2309 
Q 2547 2688 2317 2895 
Q 2088 3103 1672 3103 
Q 1328 3103 1125 2947 
Q 922 2791 872 2484 
L 575 2484 
L 575 3156 
Q 875 3284 1158 3348 
Q 1441 3413 1709 3413 
Q 2400 3413 2761 3070 
Q 3122 2728 3122 2075 
z
" transform="scale(0.015625)"/>
       <path id="DejaVuSerif-68" d="M 263 0 
L 263 331 
L 781 331 
L 781 4531 
L 231 4531 
L 231 4863 
L 1356 4863 
L 1356 2731 
Q 1516 3069 1770 3241 
Q 2025 3413 2363 3413 
Q 2913 3413 3172 3097 
Q 3431 2781 3431 2113 
L 3431 331 
L 3944 331 
L 3944 0 
L 2356 0 
L 2356 331 
L 2853 331 
L 2853 1931 
Q 2853 2541 2704 2764 
Q 2556 2988 2175 2988 
Q 1775 2988 1565 2697 
Q 1356 2406 1356 1850 
L 1356 331 
L 1856 331 
L 1856 0 
L 263 0 
z
" transform="scale(0.015625)"/>
       <path id="DejaVuSerif-6d" d="M 3316 2675 
Q 3481 3041 3739 3227 
Q 3997 3413 4341 3413 
Q 4863 3413 5119 3089 
Q 5375 2766 5375 2113 
L 5375 331 
L 5894 331 
L 5894 0 
L 4300 0 
L 4300 331 
L 4800 331 
L 4800 2047 
Q 4800 2556 4650 2772 
Q 4500 2988 4153 2988 
Q 3769 2988 3567 2697 
Q 3366 2406 3366 1850 
L 3366 331 
L 3866 331 
L 3866 0 
L 2291 0 
L 2291 331 
L 2791 331 
L 2791 2069 
Q 2791 2566 2641 2777 
Q 2491 2988 2144 2988 
Q 1759 2988 1557 2697 
Q 1356 2406 1356 1850 
L 1356 331 
L 1856 331 
L 1856 0 
L 263 0 
L 263 331 
L 781 331 
L 781 2994 
L 231 2994 
L 231 3322 
L 1356 3322 
L 1356 2731 
Q 1516 3063 1762 3238 
Q 2009 3413 2322 3413 
Q 2709 3413 2968 3220 
Q 3228 3028 3316 2675 
z
" transform="scale(0.015625)"/>
       <path id="DejaVuSerif-69" d="M 622 4353 
Q 622 4497 726 4603 
Q 831 4709 978 4709 
Q 1122 4709 1226 4603 
Q 1331 4497 1331 4353 
Q 1331 4206 1228 4103 
Q 1125 4000 978 4000 
Q 831 4000 726 4103 
Q 622 4206 622 4353 
z
M 1356 331 
L 1900 331 
L 1900 0 
L 231 0 
L 231 331 
L 781 331 
L 781 2988 
L 231 2988 
L 231 3322 
L 1356 3322 
L 1356 331 
z
" transform="scale(0.015625)"/>
      </defs>
      <use xlink:href="#DejaVuSerif-4d"/>
      <use xlink:href="#DejaVuSerif-61" x="102.392578"/>
      <use xlink:href="#DejaVuSerif-74" x="162.011719"/>
      <use xlink:href="#DejaVuSerif-68" x="202.197266"/>
      <use xlink:href="#DejaVuSerif-65" x="266.601562"/>
      <use xlink:href="#DejaVuSerif-6d" x="325.78125"/>
      <use xlink:href="#DejaVuSerif-61" x="420.605469"/>
      <use xlink:href="#DejaVuSerif-74" x="480.224609"/>
      <use xlink:href="#DejaVuSerif-69" x="520.410156"/>
      <use xlink:href="#DejaVuSerif-63" x="552.392578"/>
      <use xlink:href="#DejaVuSerif-61" x="608.398438"/>
      <use xlink:href="#DejaVuSerif-6c" x="668.017578"/>
     </g>
    </g>
   </g>
  </g>
  <g id="axes_2">
   <g id="patch_5">
    <path d="M 47.465469 156.868 
L 214.625469 156.868 
L 214.625469 93.048 
L 47.465469 93.048 
z
" style="fill: #ffffff"/>
   </g>
   <g id="line2d_23">
    <path d="M 55.063651 125.306378 
L 56.920888 125.489141 
L 58.334004 125.859513 
L 59.908618 126.518894 
L 61.644732 127.483634 
L 63.50197 128.783604 
L 65.72258 130.611688 
L 68.992933 133.624738 
L 72.061413 136.775649 
L 76.583383 141.793187 
L 81.266852 147.400689 
L 84.49683 151.156542 
L 85.869571 152.401098 
L 87.040438 153.182713 
L 88.130556 153.655026 
L 89.301423 153.914867 
L 90.55304 153.957697 
L 91.925781 153.776095 
L 93.500395 153.33007 
L 95.276884 152.590825 
L 97.255246 151.519392 
L 99.435481 150.062305 
L 101.857965 148.16577 
L 104.724571 145.642378 
L 108.398672 142.084464 
L 113.445513 136.887451 
L 119.582472 130.243344 
L 124.871562 124.053228 
L 135.086369 111.538519 
L 145.058928 99.353369 
L 146.593168 97.914549 
L 147.80441 97.066804 
L 148.934903 96.545467 
L 150.10577 96.260118 
L 151.357386 96.190812 
L 152.730127 96.345228 
L 154.345117 96.759878 
L 156.242729 97.48794 
L 158.584464 98.644658 
L 160.562825 99.871989 
L 162.82381 101.542035 
L 165.932665 104.137199 
L 168.758896 106.775247 
L 174.088361 112.141294 
L 179.821573 118.196077 
L 184.787665 123.779103 
L 190.72275 130.741466 
L 205.338403 148.335874 
L 206.468896 149.659192 
L 206.468896 149.659192 
" clip-path="url(#p619f9679d8)" style="fill: none; stroke: #000000; stroke-width: 0.6; stroke-linecap: round"/>
   </g>
   <g id="line2d_24">
    <path d="M 55.063651 125.644794 
L 55.669272 130.909259 
L 57.768758 148.174337 
L 58.051381 148.048629 
L 59.747119 148.045935 
L 62.250353 148.047731 
L 67.216445 148.046833 
L 72.263286 148.048629 
L 81.993597 148.048629 
L 82.155096 146.64968 
L 83.689336 133.692791 
L 87.48456 102.058406 
L 87.726809 102.144606 
L 90.431916 102.154483 
L 142.878693 102.152687 
L 143.120941 104.166707 
L 145.906798 127.456783 
L 146.593168 133.223182 
L 148.410031 148.174337 
L 148.733029 148.055812 
L 150.509517 148.045935 
L 155.515984 148.048629 
L 158.019217 148.046833 
L 205.298028 148.047731 
L 205.419153 147.000764 
L 206.347772 139.160185 
L 206.468896 138.13387 
L 206.468896 138.13387 
" clip-path="url(#p619f9679d8)" style="fill: none; stroke-dasharray: 2.22,0.96; stroke-dashoffset: 0; stroke: #808080; stroke-width: 0.6"/>
   </g>
   <g id="matplotlib.axis_3">
    <g id="xtick_5">
     <g id="line2d_25">
      <path d="M 55.063651 156.868 
L 55.063651 93.048 
" clip-path="url(#p619f9679d8)" style="fill: none; stroke: #b0b0b0; stroke-width: 0.8; stroke-linecap: round"/>
     </g>
     <g id="line2d_26"/>
    </g>
    <g id="xtick_6">
     <g id="line2d_27">
      <path d="M 95.673922 156.868 
L 95.673922 93.048 
" clip-path="url(#p619f9679d8)" style="fill: none; stroke: #b0b0b0; stroke-width: 0.8; stroke-linecap: round"/>
     </g>
     <g id="line2d_28"/>
    </g>
    <g id="xtick_7">
     <g id="line2d_29">
      <path d="M 136.284194 156.868 
L 136.284194 93.048 
" clip-path="url(#p619f9679d8)" style="fill: none; stroke: #b0b0b0; stroke-width: 0.8; stroke-linecap: round"/>
     </g>
     <g id="line2d_30"/>
    </g>
    <g id="xtick_8">
     <g id="line2d_31">
      <path d="M 176.894465 156.868 
L 176.894465 93.048 
" clip-path="url(#p619f9679d8)" style="fill: none; stroke: #b0b0b0; stroke-width: 0.8; stroke-linecap: round"/>
     </g>
     <g id="line2d_32"/>
    </g>
   </g>
   <g id="matplotlib.axis_4">
    <g id="ytick_4">
     <g id="line2d_33">
      <path d="M 47.465469 148.047352 
L 214.625469 148.047352 
" clip-path="url(#p619f9679d8)" style="fill: none; stroke: #b0b0b0; stroke-width: 0.8; stroke-linecap: round"/>
     </g>
     <g id="line2d_34"/>
     <g id="text_9">
      <!-- −10 -->
      <g style="fill: #262626" transform="translate(29.192187 150.706805) scale(0.07 -0.07)">
       <defs>
        <path id="DejaVuSerif-31" d="M 909 0 
L 909 331 
L 1722 331 
L 1722 4213 
L 781 3603 
L 781 4013 
L 1919 4750 
L 2350 4750 
L 2350 331 
L 3163 331 
L 3163 0 
L 909 0 
z
" transform="scale(0.015625)"/>
       </defs>
       <use xlink:href="#DejaVuSerif-2212"/>
       <use xlink:href="#DejaVuSerif-31" x="83.789062"/>
       <use xlink:href="#DejaVuSerif-30" x="147.412109"/>
      </g>
     </g>
    </g>
    <g id="ytick_5">
     <g id="line2d_35">
      <path d="M 47.465469 125.100658 
L 214.625469 125.100658 
" clip-path="url(#p619f9679d8)" style="fill: none; stroke: #b0b0b0; stroke-width: 0.8; stroke-linecap: round"/>
     </g>
     <g id="line2d_36"/>
     <g id="text_10">
      <!-- 0 -->
      <g style="fill: #262626" transform="translate(39.511719 127.760111) scale(0.07 -0.07)">
       <use xlink:href="#DejaVuSerif-30"/>
      </g>
     </g>
    </g>
    <g id="ytick_6">
     <g id="line2d_37">
      <path d="M 47.465469 102.153964 
L 214.625469 102.153964 
" clip-path="url(#p619f9679d8)" style="fill: none; stroke: #b0b0b0; stroke-width: 0.8; stroke-linecap: round"/>
     </g>
     <g id="line2d_38"/>
     <g id="text_11">
      <!-- 10 -->
      <g style="fill: #262626" transform="translate(35.057969 104.813417) scale(0.07 -0.07)">
       <use xlink:href="#DejaVuSerif-31"/>
       <use xlink:href="#DejaVuSerif-30" x="63.623047"/>
      </g>
     </g>
    </g>
    <g id="text_12">
     <!-- $\psi$ $[deg]$ -->
     <g style="fill: #262626" transform="translate(12.59 137.733) rotate(-90) scale(0.07 -0.07)">
      <defs>
       <path id="DejaVuSans-Oblique-3c8" d="M 1591 -78 
Q 891 38 616 341 
Q 278 713 425 1472 
L 819 3500 
L 1400 3500 
L 1009 1494 
Q 900 922 1119 684 
Q 1313 478 1691 434 
L 2284 3500 
L 2856 3500 
L 2263 438 
Q 2681 481 2928 688 
Q 3247 950 3353 1497 
L 3741 3500 
L 4322 3500 
L 3928 1475 
Q 3775 688 3300 344 
Q 2872 34 2163 -75 
L 1919 -1331 
L 1347 -1331 
L 1591 -78 
z
" transform="scale(0.015625)"/>
      </defs>
      <use xlink:href="#DejaVuSans-Oblique-3c8" transform="translate(0 0.015625)"/>
      <use xlink:href="#DejaVuSerif-20" transform="translate(65.966797 0.015625)"/>
      <use xlink:href="#DejaVuSans-5b" transform="translate(97.753906 0.015625)"/>
      <use xlink:href="#DejaVuSans-Oblique-64" transform="translate(136.767578 0.015625)"/>
      <use xlink:href="#DejaVuSans-Oblique-65" transform="translate(200.244141 0.015625)"/>
      <use xlink:href="#DejaVuSans-Oblique-67" transform="translate(261.767578 0.015625)"/>
      <use xlink:href="#DejaVuSans-5d" transform="translate(325.244141 0.015625)"/>
     </g>
    </g>
   </g>
   <g id="line2d_39">
    <path d="M 55.063651 125.100658 
L 57.256605 125.208627 
L 58.515524 125.500458 
L 59.896273 126.057385 
L 61.520684 126.960481 
L 63.469977 128.309273 
L 65.825373 130.220684 
L 68.749312 132.894875 
L 72.363626 136.519855 
L 76.830756 141.325086 
L 82.394363 147.659791 
L 85.480744 151.090348 
L 86.861493 152.278648 
L 87.998581 152.979882 
L 89.054448 153.368834 
L 90.150925 153.536599 
L 91.369233 153.497254 
L 92.749983 153.22339 
L 94.293173 152.687313 
L 96.080025 151.827777 
L 98.232369 150.531878 
L 100.750206 148.744056 
L 103.755366 146.327021 
L 107.28846 143.194966 
L 111.390097 139.253656 
L 115.938448 134.567901 
L 121.299004 128.707239 
L 127.796647 121.251805 
L 134.578562 113.119577 
L 142.213293 103.611495 
L 146.11188 98.854236 
L 147.533239 97.511488 
L 148.670327 96.723559 
L 149.726194 96.256449 
L 150.863281 96.001854 
L 152.081589 95.957409 
L 153.462339 96.134589 
L 155.005529 96.560101 
L 156.792381 97.28884 
L 158.863505 98.383535 
L 161.300121 99.931787 
L 164.18345 102.041636 
L 167.472882 104.731077 
L 171.249638 108.109833 
L 175.432496 112.143269 
L 180.021456 116.87855 
L 185.341402 122.687441 
L 191.798435 130.08776 
L 198.377299 137.960161 
L 206.499353 148.03728 
L 206.499353 148.03728 
" clip-path="url(#p619f9679d8)" style="fill: none; stroke: #0000ff; stroke-width: 0.6; stroke-linecap: round"/>
   </g>
   <g id="line2d_40">
    <path d="M 55.063651 125.100658 
L 57.256605 125.208459 
L 58.515524 125.499373 
L 59.896273 126.053536 
L 61.561294 126.973894 
L 63.551197 128.343047 
L 65.987814 130.299893 
L 69.074194 133.07462 
L 73.054001 136.966177 
L 78.292726 142.425201 
L 86.902104 151.475293 
L 88.120412 152.300079 
L 89.176279 152.758285 
L 90.232146 152.969235 
L 91.369233 152.969216 
L 92.668762 152.738179 
L 94.130732 152.245495 
L 95.836363 151.428958 
L 97.866877 150.198565 
L 100.344103 148.425219 
L 103.389874 145.959101 
L 107.166629 142.601811 
L 111.75559 138.211004 
L 117.156756 132.714289 
L 123.81684 125.611685 
L 131.451571 117.144986 
L 140.751324 106.508904 
L 147.289577 99.072335 
L 148.629716 97.951031 
L 149.766804 97.279114 
L 150.782061 96.928739 
L 151.878538 96.781653 
L 153.096846 96.84407 
L 154.477595 97.144208 
L 156.061396 97.724585 
L 157.929469 98.658785 
L 160.122423 100.017347 
L 162.762091 101.922366 
L 166.010913 104.551132 
L 169.990719 108.068016 
L 174.701511 112.537897 
L 179.980846 117.870833 
L 186.356659 124.63479 
L 194.07261 133.165237 
L 203.981517 144.468828 
L 207.027287 148.002685 
L 207.027287 148.002685 
" clip-path="url(#p619f9679d8)" style="fill: none; stroke: #008000; stroke-width: 0.6; stroke-linecap: round"/>
   </g>
   <g id="line2d_41">
    <path d="M 55.063651 125.100658 
L 57.215995 125.211393 
L 58.474913 125.510018 
L 59.855663 126.079762 
L 61.480073 127.005852 
L 63.388756 128.361327 
L 65.703542 130.288014 
L 68.586871 132.989261 
L 72.282406 136.771832 
L 77.074418 142.010462 
L 85.805626 151.644799 
L 86.983324 152.465311 
L 88.039191 152.934515 
L 89.054448 153.140188 
L 90.150925 153.135322 
L 91.369233 152.904555 
L 92.749983 152.413552 
L 94.374393 151.592058 
L 96.283076 150.368925 
L 98.557251 148.638612 
L 101.31875 146.248137 
L 104.730013 142.985895 
L 108.912871 138.667351 
L 114.314037 132.754311 
L 121.014732 125.07644 
L 130.233263 114.151006 
L 143.18794 98.779749 
L 144.446858 97.750982 
L 145.543336 97.134022 
L 146.558593 96.81784 
L 147.65507 96.717115 
L 148.832768 96.836489 
L 150.172907 97.200685 
L 151.716097 97.860263 
L 153.502949 98.871168 
L 155.655293 100.355495 
L 158.21374 102.399319 
L 161.300121 105.159631 
L 165.036266 108.810988 
L 169.625227 113.621453 
L 175.432496 120.04555 
L 182.823565 128.565628 
L 193.301015 141.020061 
L 199.108284 148.015468 
L 199.108284 148.015468 
" clip-path="url(#p619f9679d8)" style="fill: none; stroke: #ff0000; stroke-width: 0.6; stroke-linecap: round"/>
   </g>
   <g id="patch_6">
    <path d="M 47.465469 156.868 
L 47.465469 93.048 
" style="fill: none; stroke: #000000; stroke-linejoin: miter; stroke-linecap: square"/>
   </g>
   <g id="patch_7">
    <path d="M 47.465469 156.868 
L 214.625469 156.868 
" style="fill: none; stroke: #000000; stroke-linejoin: miter; stroke-linecap: square"/>
   </g>
  </g>
  <g id="axes_3">
   <g id="patch_8">
    <path d="M 47.465469 220.688 
L 214.625469 220.688 
L 214.625469 156.868 
L 47.465469 156.868 
z
" style="fill: #ffffff"/>
   </g>
   <g id="line2d_42">
    <path d="M 55.063651 189.802004 
L 55.507773 190.262454 
L 56.113394 191.250984 
L 56.920888 193.056081 
L 59.625995 199.524007 
L 63.461595 206.279689 
L 65.399582 208.676526 
L 66.247451 209.30555 
L 68.225813 210.576986 
L 70.002301 212.061406 
L 72.101787 213.495384 
L 72.990032 213.892424 
L 73.837901 214.017018 
L 74.645396 214.180484 
L 75.331766 214.615421 
L 76.866006 215.614615 
L 78.682869 216.348702 
L 79.97486 216.622539 
L 81.468725 216.73375 
L 82.316595 216.596052 
L 82.760717 216.221867 
L 83.245214 215.492863 
L 83.81046 214.218498 
L 84.57758 211.872753 
L 85.586948 207.98968 
L 86.959689 201.709348 
L 88.655428 194.096338 
L 89.987794 189.371073 
L 91.562408 184.919018 
L 92.692901 182.35594 
L 93.863768 180.203691 
L 95.721006 177.252616 
L 98.991359 172.777942 
L 100.969721 170.563877 
L 102.423211 169.400231 
L 104.88607 167.535014 
L 106.460684 166.681216 
L 108.035299 166.06744 
L 110.215535 165.448665 
L 111.426776 165.032745 
L 114.253008 164.525703 
L 115.100877 164.536519 
L 116.110245 164.55173 
L 116.675492 164.335063 
L 120.389967 162.412439 
L 121.318586 162.19295 
L 123.66032 161.809072 
L 124.629314 161.276358 
L 125.598307 161.056302 
L 128.707162 160.711143 
L 129.71653 160.970813 
L 130.402901 161.073326 
L 131.412269 160.872335 
L 133.067633 160.688682 
L 135.974614 160.640581 
L 137.347354 160.926268 
L 138.0741 160.68143 
L 139.648714 160.155258 
L 140.940706 159.993241 
L 141.869324 160.07842 
L 142.474945 160.362275 
L 143.080566 160.90177 
L 143.605438 161.724334 
L 144.453307 163.560339 
L 145.462676 166.202322 
L 146.27017 168.940716 
L 147.319913 173.448249 
L 149.903896 184.84628 
L 151.155513 189.009177 
L 152.487879 192.659951 
L 153.456873 194.662639 
L 154.950738 197.192408 
L 156.565727 199.372248 
L 158.261466 201.15146 
L 161.289571 205.38785 
L 162.541187 206.72518 
L 163.792804 207.694944 
L 166.013414 209.154207 
L 168.072526 210.848633 
L 169.64714 211.74181 
L 170.41426 211.982011 
L 171.18138 211.961663 
L 172.231123 211.908311 
L 173.361615 212.253422 
L 175.057354 212.639565 
L 176.510845 213.025615 
L 177.802836 213.263684 
L 179.135202 213.498409 
L 181.638435 214.552153 
L 183.778296 214.941481 
L 186.523778 215.442672 
L 187.775395 215.8361 
L 190.197879 216.212377 
L 191.610994 216.064866 
L 193.064485 215.877766 
L 193.952729 216.17292 
L 195.446594 216.6402 
L 197.182707 216.793643 
L 198.030577 216.649656 
L 199.968564 216.20284 
L 200.856808 216.420007 
L 202.75442 216.788135 
L 204.167536 216.801965 
L 204.853906 216.589861 
L 205.580652 216.133096 
L 205.984399 215.636801 
L 206.468896 214.661052 
L 206.468896 214.661052 
" clip-path="url(#p72db5d2df4)" style="fill: none; stroke: #000000; stroke-width: 0.6; stroke-linecap: round"/>
   </g>
   <g id="matplotlib.axis_5">
    <g id="xtick_9">
     <g id="line2d_43">
      <path d="M 55.063651 220.688 
L 55.063651 156.868 
" clip-path="url(#p72db5d2df4)" style="fill: none; stroke: #b0b0b0; stroke-width: 0.8; stroke-linecap: round"/>
     </g>
     <g id="line2d_44"/>
     <g id="text_13">
      <!-- 0 -->
      <g style="fill: #262626" transform="translate(52.836776 229.506906) scale(0.07 -0.07)">
       <use xlink:href="#DejaVuSerif-30"/>
      </g>
     </g>
    </g>
    <g id="xtick_10">
     <g id="line2d_45">
      <path d="M 95.673922 220.688 
L 95.673922 156.868 
" clip-path="url(#p72db5d2df4)" style="fill: none; stroke: #b0b0b0; stroke-width: 0.8; stroke-linecap: round"/>
     </g>
     <g id="line2d_46"/>
     <g id="text_14">
      <!-- 10 -->
      <g style="fill: #262626" transform="translate(91.220172 229.506906) scale(0.07 -0.07)">
       <use xlink:href="#DejaVuSerif-31"/>
       <use xlink:href="#DejaVuSerif-30" x="63.623047"/>
      </g>
     </g>
    </g>
    <g id="xtick_11">
     <g id="line2d_47">
      <path d="M 136.284194 220.688 
L 136.284194 156.868 
" clip-path="url(#p72db5d2df4)" style="fill: none; stroke: #b0b0b0; stroke-width: 0.8; stroke-linecap: round"/>
     </g>
     <g id="line2d_48"/>
     <g id="text_15">
      <!-- 20 -->
      <g style="fill: #262626" transform="translate(131.830444 229.506906) scale(0.07 -0.07)">
       <defs>
        <path id="DejaVuSerif-32" d="M 819 3553 
L 469 3553 
L 469 4384 
Q 803 4563 1142 4656 
Q 1481 4750 1806 4750 
Q 2534 4750 2956 4397 
Q 3378 4044 3378 3438 
Q 3378 2753 2422 1800 
Q 2347 1728 2309 1691 
L 1131 513 
L 3078 513 
L 3078 1088 
L 3444 1088 
L 3444 0 
L 434 0 
L 434 341 
L 1850 1753 
Q 2319 2222 2519 2614 
Q 2719 3006 2719 3438 
Q 2719 3909 2473 4175 
Q 2228 4441 1797 4441 
Q 1350 4441 1106 4219 
Q 863 3997 819 3553 
z
" transform="scale(0.015625)"/>
       </defs>
       <use xlink:href="#DejaVuSerif-32"/>
       <use xlink:href="#DejaVuSerif-30" x="63.623047"/>
      </g>
     </g>
    </g>
    <g id="xtick_12">
     <g id="line2d_49">
      <path d="M 176.894465 220.688 
L 176.894465 156.868 
" clip-path="url(#p72db5d2df4)" style="fill: none; stroke: #b0b0b0; stroke-width: 0.8; stroke-linecap: round"/>
     </g>
     <g id="line2d_50"/>
     <g id="text_16">
      <!-- 30 -->
      <g style="fill: #262626" transform="translate(172.440715 229.506906) scale(0.07 -0.07)">
       <defs>
        <path id="DejaVuSerif-33" d="M 622 4469 
Q 988 4606 1323 4678 
Q 1659 4750 1953 4750 
Q 2638 4750 3022 4454 
Q 3406 4159 3406 3634 
Q 3406 3213 3140 2930 
Q 2875 2647 2388 2547 
Q 2963 2466 3280 2130 
Q 3597 1794 3597 1259 
Q 3597 606 3158 257 
Q 2719 -91 1894 -91 
Q 1528 -91 1179 -12 
Q 831 66 488 225 
L 488 1131 
L 838 1131 
Q 869 681 1141 450 
Q 1413 219 1906 219 
Q 2384 219 2661 495 
Q 2938 772 2938 1253 
Q 2938 1803 2653 2086 
Q 2369 2369 1819 2369 
L 1522 2369 
L 1522 2688 
L 1678 2688 
Q 2225 2688 2498 2914 
Q 2772 3141 2772 3597 
Q 2772 4006 2547 4223 
Q 2322 4441 1900 4441 
Q 1478 4441 1245 4241 
Q 1013 4041 972 3647 
L 622 3647 
L 622 4469 
z
" transform="scale(0.015625)"/>
       </defs>
       <use xlink:href="#DejaVuSerif-33"/>
       <use xlink:href="#DejaVuSerif-30" x="63.623047"/>
      </g>
     </g>
    </g>
    <g id="text_17">
     <!-- Time [s] -->
     <g style="fill: #262626" transform="translate(116.561484 240.281594) scale(0.07 -0.07)">
      <defs>
       <path id="DejaVuSerif-54" d="M 1222 0 
L 1222 331 
L 1819 331 
L 1819 4294 
L 447 4294 
L 447 3566 
L 63 3566 
L 63 4666 
L 4206 4666 
L 4206 3566 
L 3822 3566 
L 3822 4294 
L 2450 4294 
L 2450 331 
L 3047 331 
L 3047 0 
L 1222 0 
z
" transform="scale(0.015625)"/>
       <path id="DejaVuSerif-5b" d="M 550 4863 
L 2003 4863 
L 2003 4531 
L 1147 4531 
L 1147 -513 
L 2003 -513 
L 2003 -844 
L 550 -844 
L 550 4863 
z
" transform="scale(0.015625)"/>
       <path id="DejaVuSerif-5d" d="M 1947 4863 
L 1947 -844 
L 494 -844 
L 494 -513 
L 1350 -513 
L 1350 4531 
L 494 4531 
L 494 4863 
L 1947 4863 
z
" transform="scale(0.015625)"/>
      </defs>
      <use xlink:href="#DejaVuSerif-54"/>
      <use xlink:href="#DejaVuSerif-69" x="66.699219"/>
      <use xlink:href="#DejaVuSerif-6d" x="98.681641"/>
      <use xlink:href="#DejaVuSerif-65" x="193.505859"/>
      <use xlink:href="#DejaVuSerif-20" x="252.685547"/>
      <use xlink:href="#DejaVuSerif-5b" x="284.472656"/>
      <use xlink:href="#DejaVuSerif-73" x="323.486328"/>
      <use xlink:href="#DejaVuSerif-5d" x="374.804688"/>
     </g>
    </g>
   </g>
   <g id="matplotlib.axis_6">
    <g id="ytick_7">
     <g id="line2d_51">
      <path d="M 47.465469 207.414678 
L 214.625469 207.414678 
" clip-path="url(#p72db5d2df4)" style="fill: none; stroke: #b0b0b0; stroke-width: 0.8; stroke-linecap: round"/>
     </g>
     <g id="line2d_52"/>
     <g id="text_18">
      <!-- −0.025 -->
      <g style="fill: #262626" transform="translate(18.06 210.074131) scale(0.07 -0.07)">
       <defs>
        <path id="DejaVuSerif-2e" d="M 603 325 
Q 603 500 722 622 
Q 841 744 1019 744 
Q 1191 744 1312 622 
Q 1434 500 1434 325 
Q 1434 153 1312 31 
Q 1191 -91 1019 -91 
Q 841 -91 722 29 
Q 603 150 603 325 
z
" transform="scale(0.015625)"/>
       </defs>
       <use xlink:href="#DejaVuSerif-2212"/>
       <use xlink:href="#DejaVuSerif-30" x="83.789062"/>
       <use xlink:href="#DejaVuSerif-2e" x="147.412109"/>
       <use xlink:href="#DejaVuSerif-30" x="179.199219"/>
       <use xlink:href="#DejaVuSerif-32" x="242.822266"/>
       <use xlink:href="#DejaVuSerif-35" x="306.445312"/>
      </g>
     </g>
    </g>
    <g id="ytick_8">
     <g id="line2d_53">
      <path d="M 47.465469 188.87564 
L 214.625469 188.87564 
" clip-path="url(#p72db5d2df4)" style="fill: none; stroke: #b0b0b0; stroke-width: 0.8; stroke-linecap: round"/>
     </g>
     <g id="line2d_54"/>
     <g id="text_19">
      <!-- 0.000 -->
      <g style="fill: #262626" transform="translate(23.925781 191.535093) scale(0.07 -0.07)">
       <use xlink:href="#DejaVuSerif-30"/>
       <use xlink:href="#DejaVuSerif-2e" x="63.623047"/>
       <use xlink:href="#DejaVuSerif-30" x="95.410156"/>
       <use xlink:href="#DejaVuSerif-30" x="159.033203"/>
       <use xlink:href="#DejaVuSerif-30" x="222.65625"/>
      </g>
     </g>
    </g>
    <g id="ytick_9">
     <g id="line2d_55">
      <path d="M 47.465469 170.336602 
L 214.625469 170.336602 
" clip-path="url(#p72db5d2df4)" style="fill: none; stroke: #b0b0b0; stroke-width: 0.8; stroke-linecap: round"/>
     </g>
     <g id="line2d_56"/>
     <g id="text_20">
      <!-- 0.025 -->
      <g style="fill: #262626" transform="translate(23.925781 172.996055) scale(0.07 -0.07)">
       <use xlink:href="#DejaVuSerif-30"/>
       <use xlink:href="#DejaVuSerif-2e" x="63.623047"/>
       <use xlink:href="#DejaVuSerif-30" x="95.410156"/>
       <use xlink:href="#DejaVuSerif-32" x="159.033203"/>
       <use xlink:href="#DejaVuSerif-35" x="222.65625"/>
      </g>
     </g>
    </g>
    <g id="text_21">
     <!-- $r$ $[rad/s]$ -->
     <g style="fill: #262626" transform="translate(12.604219 202.883) rotate(-90) scale(0.07 -0.07)">
      <defs>
       <path id="DejaVuSans-Oblique-72" d="M 2853 2969 
Q 2766 3016 2653 3041 
Q 2541 3066 2413 3066 
Q 1953 3066 1609 2717 
Q 1266 2369 1153 1784 
L 800 0 
L 225 0 
L 909 3500 
L 1484 3500 
L 1375 2956 
Q 1603 3259 1920 3421 
Q 2238 3584 2597 3584 
Q 2691 3584 2781 3573 
Q 2872 3563 2963 3538 
L 2853 2969 
z
" transform="scale(0.015625)"/>
       <path id="DejaVuSans-Oblique-61" d="M 3438 1997 
L 3047 0 
L 2472 0 
L 2578 531 
Q 2325 219 2001 64 
Q 1678 -91 1281 -91 
Q 834 -91 548 182 
Q 263 456 263 884 
Q 263 1497 752 1853 
Q 1241 2209 2100 2209 
L 2900 2209 
L 2931 2363 
Q 2938 2388 2941 2417 
Q 2944 2447 2944 2509 
Q 2944 2788 2717 2942 
Q 2491 3097 2081 3097 
Q 1800 3097 1504 3025 
Q 1209 2953 897 2809 
L 997 3341 
Q 1322 3463 1633 3523 
Q 1944 3584 2234 3584 
Q 2853 3584 3176 3315 
Q 3500 3047 3500 2534 
Q 3500 2431 3484 2292 
Q 3469 2153 3438 1997 
z
M 2816 1759 
L 2241 1759 
Q 1534 1759 1195 1570 
Q 856 1381 856 984 
Q 856 709 1029 553 
Q 1203 397 1509 397 
Q 1978 397 2328 733 
Q 2678 1069 2791 1631 
L 2816 1759 
z
" transform="scale(0.015625)"/>
       <path id="DejaVuSans-2f" d="M 1625 4666 
L 2156 4666 
L 531 -594 
L 0 -594 
L 1625 4666 
z
" transform="scale(0.015625)"/>
       <path id="DejaVuSans-Oblique-73" d="M 3200 3397 
L 3091 2853 
Q 2863 2978 2609 3040 
Q 2356 3103 2088 3103 
Q 1634 3103 1373 2948 
Q 1113 2794 1113 2528 
Q 1113 2219 1719 2053 
Q 1766 2041 1788 2034 
L 1972 1978 
Q 2547 1819 2739 1644 
Q 2931 1469 2931 1166 
Q 2931 609 2489 259 
Q 2047 -91 1331 -91 
Q 1053 -91 747 -37 
Q 441 16 72 128 
L 184 722 
Q 500 559 806 475 
Q 1113 391 1394 391 
Q 1816 391 2080 572 
Q 2344 753 2344 1031 
Q 2344 1331 1650 1516 
L 1591 1531 
L 1394 1581 
Q 956 1697 753 1886 
Q 550 2075 550 2369 
Q 550 2928 970 3256 
Q 1391 3584 2113 3584 
Q 2397 3584 2667 3537 
Q 2938 3491 3200 3397 
z
" transform="scale(0.015625)"/>
      </defs>
      <use xlink:href="#DejaVuSans-Oblique-72" transform="translate(0 0.015625)"/>
      <use xlink:href="#DejaVuSerif-20" transform="translate(41.113281 0.015625)"/>
      <use xlink:href="#DejaVuSans-5b" transform="translate(72.900391 0.015625)"/>
      <use xlink:href="#DejaVuSans-Oblique-72" transform="translate(111.914062 0.015625)"/>
      <use xlink:href="#DejaVuSans-Oblique-61" transform="translate(153.027344 0.015625)"/>
      <use xlink:href="#DejaVuSans-Oblique-64" transform="translate(214.306641 0.015625)"/>
      <use xlink:href="#DejaVuSans-2f" transform="translate(277.783203 0.015625)"/>
      <use xlink:href="#DejaVuSans-Oblique-73" transform="translate(311.474609 0.015625)"/>
      <use xlink:href="#DejaVuSans-5d" transform="translate(363.574219 0.015625)"/>
     </g>
    </g>
   </g>
   <g id="line2d_57">
    <path d="M 55.063651 188.87564 
L 55.469753 188.99909 
L 55.916466 189.407659 
L 56.4444 190.230058 
L 57.053554 191.618606 
L 57.825149 193.982077 
L 59.002847 197.603701 
L 60.221155 200.617785 
L 61.439463 203.041559 
L 62.657771 205.005179 
L 64.119741 206.91753 
L 65.338049 208.199773 
L 66.800019 209.474285 
L 68.871143 210.941212 
L 70.820436 212.016741 
L 72.647898 212.796191 
L 77.033808 214.326925 
L 80.160798 215.085663 
L 83.125348 215.601918 
L 83.572061 215.298927 
L 84.059384 214.64658 
L 84.709149 213.322076 
L 85.399523 211.399353 
L 86.292949 208.179604 
L 87.348816 203.445799 
L 90.110315 190.363705 
L 91.247403 186.56939 
L 92.4251 183.374789 
L 93.724629 180.467945 
L 95.064768 178.029508 
L 96.526738 175.84886 
L 98.151149 173.90886 
L 99.613119 172.472897 
L 101.481191 170.955365 
L 103.552315 169.620684 
L 106.557475 168.053834 
L 108.912871 167.030459 
L 112.973898 165.504864 
L 117.278587 164.140487 
L 119.349711 163.655978 
L 124.588436 162.598275 
L 130.395704 161.525463 
L 138.030435 160.366502 
L 143.431602 159.769152 
L 143.837704 159.898746 
L 144.284417 160.304244 
L 144.812351 161.131473 
L 145.421505 162.503058 
L 146.1931 164.829982 
L 147.127136 168.414376 
L 148.183003 173.382828 
L 150.416568 184.279228 
L 151.553656 188.339824 
L 152.731354 191.74524 
L 153.990272 194.713453 
L 155.289801 197.223258 
L 156.71116 199.489668 
L 158.21374 201.485503 
L 159.797541 203.171768 
L 161.665614 204.860059 
L 163.614907 206.250236 
L 166.173354 207.817815 
L 170.193771 209.73797 
L 177.666061 212.522014 
L 185.828725 214.623677 
L 199.230115 216.929948 
L 206.499353 217.787091 
L 206.499353 217.787091 
" clip-path="url(#p72db5d2df4)" style="fill: none; stroke: #0000ff; stroke-width: 0.6; stroke-linecap: round"/>
   </g>
   <g id="line2d_58">
    <path d="M 55.063651 188.87564 
L 55.469753 188.999045 
L 55.916466 189.407234 
L 56.4444 190.228277 
L 57.053554 191.613444 
L 57.825149 193.967359 
L 59.002847 197.563625 
L 60.221155 200.525456 
L 61.480073 202.974908 
L 62.657771 204.821955 
L 63.99791 206.498851 
L 65.45988 207.960264 
L 66.88124 209.06239 
L 68.871143 210.2974 
L 70.779826 211.176139 
L 74.637801 212.512399 
L 76.668315 212.99615 
L 79.186152 213.508886 
L 83.775113 214.120588 
L 84.140605 213.894361 
L 84.627928 213.310407 
L 85.237082 212.186291 
L 85.927457 210.394438 
L 86.780273 207.478037 
L 87.754919 203.314033 
L 89.013838 196.859039 
L 90.069705 191.773103 
L 91.166182 187.520213 
L 92.34388 183.823098 
L 93.521578 180.837971 
L 94.780496 178.247909 
L 96.080025 176.059065 
L 97.420164 174.234455 
L 98.922744 172.615195 
L 100.465934 171.286125 
L 102.252786 170.056067 
L 104.242689 168.959549 
L 107.450901 167.602645 
L 111.7962 166.21593 
L 113.664273 165.727843 
L 117.481638 164.942249 
L 121.664496 164.265278 
L 124.669656 163.840454 
L 129.908381 163.19473 
L 140.101559 162.347709 
L 144.528079 161.99498 
L 144.934182 162.147628 
L 145.380895 162.571369 
L 145.908828 163.393182 
L 146.517982 164.780156 
L 147.289577 167.133955 
L 148.223614 170.746737 
L 149.320091 175.920951 
L 151.391215 186.091438 
L 152.528302 190.21623 
L 153.706 193.676673 
L 154.924308 196.583101 
L 156.183227 199.02792 
L 157.645197 201.333291 
L 158.944725 203.003507 
L 160.528526 204.636429 
L 162.152937 205.991619 
L 164.264671 207.365814 
L 166.376405 208.444949 
L 168.528749 209.341795 
L 171.493299 210.336788 
L 176.732024 211.904397 
L 181.524036 212.892055 
L 189.808532 214.157133 
L 195.656411 214.745629 
L 207.027287 215.559846 
L 207.027287 215.559846 
" clip-path="url(#p72db5d2df4)" style="fill: none; stroke: #008000; stroke-width: 0.6; stroke-linecap: round"/>
   </g>
   <g id="line2d_59">
    <path d="M 55.063651 188.87564 
L 55.429143 188.986919 
L 55.835246 189.354247 
L 56.322569 190.1154 
L 56.931723 191.493737 
L 57.743928 193.958383 
L 58.962237 197.801647 
L 60.180545 200.904844 
L 61.439463 203.49396 
L 62.738992 205.642961 
L 64.079131 207.442533 
L 65.50049 208.964701 
L 67.084291 210.327853 
L 68.708702 211.430375 
L 70.495554 212.384866 
L 72.769729 213.328602 
L 75.084514 214.060796 
L 78.170895 214.787104 
L 81.703989 215.354866 
L 82.678635 215.397076 
L 83.084738 215.12028 
L 83.572061 214.469749 
L 84.140605 213.279545 
L 84.83098 211.286315 
L 85.643185 208.258304 
L 86.739662 203.17442 
L 89.947874 187.377093 
L 91.125572 183.336799 
L 92.30327 180.073175 
L 93.521578 177.337273 
L 94.821106 174.964985 
L 96.201856 172.915993 
L 97.623215 171.191837 
L 99.247626 169.593088 
L 100.912647 168.267669 
L 102.740109 167.09912 
L 104.770623 166.062363 
L 107.207239 165.054787 
L 109.725076 164.253118 
L 112.770847 163.519989 
L 117.644079 162.606215 
L 121.867547 162.056755 
L 126.862611 161.616052 
L 134.944055 161.202778 
L 140.385831 161.143199 
L 140.791934 161.409877 
L 141.279257 162.036137 
L 141.807191 163.07592 
L 142.497565 164.981697 
L 143.309771 167.918538 
L 144.325028 172.499786 
L 145.665167 179.680951 
L 146.802254 185.465348 
L 147.939342 190.134529 
L 149.076429 193.918076 
L 150.254127 197.101197 
L 151.513046 199.878942 
L 152.771964 202.139817 
L 154.152713 204.162159 
L 155.614683 205.899602 
L 157.198484 207.436433 
L 158.985336 208.863558 
L 160.894018 210.093386 
L 163.086973 211.247709 
L 165.5642 212.301017 
L 168.163257 213.166477 
L 171.330858 213.986062 
L 174.863952 214.664253 
L 179.737184 215.375851 
L 184.772858 215.904282 
L 190.539517 216.258543 
L 198.377299 216.52371 
L 199.108284 216.536419 
L 199.108284 216.536419 
" clip-path="url(#p72db5d2df4)" style="fill: none; stroke: #ff0000; stroke-width: 0.6; stroke-linecap: round"/>
   </g>
   <g id="patch_9">
    <path d="M 47.465469 220.688 
L 47.465469 156.868 
" style="fill: none; stroke: #000000; stroke-linejoin: miter; stroke-linecap: square"/>
   </g>
   <g id="patch_10">
    <path d="M 47.465469 220.688 
L 214.625469 220.688 
" style="fill: none; stroke: #000000; stroke-linejoin: miter; stroke-linecap: square"/>
   </g>
  </g>
 </g>
 <defs>
  <clipPath id="p8a9c2810bf">
   <rect x="47.465469" y="29.228" width="167.16" height="63.82"/>
  </clipPath>
  <clipPath id="p619f9679d8">
   <rect x="47.465469" y="93.048" width="167.16" height="63.82"/>
  </clipPath>
  <clipPath id="p72db5d2df4">
   <rect x="47.465469" y="156.868" width="167.16" height="63.82"/>
  </clipPath>
 </defs>
</svg>
