<?xml version="1.0" encoding="utf-8" standalone="no"?>
<!DOCTYPE svg PUBLIC "-//W3C//DTD SVG 1.1//EN"
  "http://www.w3.org/Graphics/SVG/1.1/DTD/svg11.dtd">
<svg xmlns:xlink="http://www.w3.org/1999/xlink" width="217.371719pt" height="270.636175pt" viewBox="0 0 217.371719 270.636175" xmlns="http://www.w3.org/2000/svg" version="1.1">
 <metadata>
  <rdf:RDF xmlns:dc="http://purl.org/dc/elements/1.1/" xmlns:cc="http://creativecommons.org/ns#" xmlns:rdf="http://www.w3.org/1999/02/22-rdf-syntax-ns#">
   <cc:Work>
    <dc:type rdf:resource="http://purl.org/dc/dcmitype/StillImage"/>
    <dc:date>2024-02-13T13:08:39.909746</dc:date>
    <dc:format>image/svg+xml</dc:format>
    <dc:creator>
     <cc:Agent>
      <dc:title>Matplotlib v3.8.2, https://matplotlib.org/</dc:title>
     </cc:Agent>
    </dc:creator>
   </cc:Work>
  </rdf:RDF>
 </metadata>
 <defs>
  <style type="text/css">*{stroke-linejoin: round; stroke-linecap: butt}</style>
 </defs>
 <g id="figure_1">
  <g id="patch_1">
   <path d="M 0 270.636175 
L 217.371719 270.636175 
L 217.371719 0 
L 0 0 
z
" style="fill: #ffffff"/>
  </g>
  <g id="axes_1">
   <g id="patch_2">
    <path d="M 43.011719 101.9828 
L 210.171719 101.9828 
L 210.171719 31.7808 
L 43.011719 31.7808 
z
" style="fill: #ffffff"/>
   </g>
   <g id="line2d_1">
    <path d="M 50.609901 66.981398 
L 51.45777 67.233139 
L 52.426764 67.771862 
L 53.516881 68.650585 
L 55.737492 70.41519 
L 57.392856 71.85161 
L 59.088594 73.65551 
L 62.237823 77.060355 
L 64.095061 78.640866 
L 68.455532 82.24552 
L 70.878016 84.19716 
L 73.219751 85.768007 
L 76.167106 87.484769 
L 77.782095 88.189381 
L 78.549215 88.29834 
L 79.316335 88.182124 
L 80.164204 87.826123 
L 81.133198 87.16372 
L 82.182941 86.15708 
L 83.273059 84.79421 
L 85.574419 81.499745 
L 87.472031 78.355501 
L 91.146132 72.159815 
L 93.568615 68.712043 
L 100.43232 59.297487 
L 102.814429 56.800353 
L 107.457523 52.258136 
L 109.39551 50.70747 
L 111.979493 48.963792 
L 114.967223 46.862148 
L 117.793455 44.919323 
L 120.296688 43.541654 
L 125.545403 40.88641 
L 128.371634 39.770671 
L 133.822223 37.923711 
L 135.962084 37.423455 
L 137.617448 37.262432 
L 138.869065 37.356675 
L 139.636185 37.660973 
L 140.605178 38.31757 
L 141.735671 39.391386 
L 142.906538 40.826095 
L 144.077405 42.610564 
L 146.499889 46.821609 
L 148.680125 51.153652 
L 151.062234 55.768396 
L 152.798347 58.624048 
L 160.146549 69.668445 
L 162.003786 71.935074 
L 166.889129 77.347171 
L 168.827116 79.227338 
L 170.765103 80.791523 
L 178.315178 86.285316 
L 180.778037 87.792568 
L 187.480242 91.439253 
L 190.750595 92.68043 
L 196.08006 94.658412 
L 198.502544 95.222882 
L 200.440531 95.470272 
L 201.530649 95.422911 
L 202.015146 95.272806 
L 202.015146 95.272806 
" clip-path="url(#pa7a21d870b)" style="fill: none; stroke: #000000; stroke-width: 0.6; stroke-linecap: round"/>
   </g>
   <g id="matplotlib.axis_1">
    <g id="xtick_1">
     <g id="line2d_2">
      <path d="M 50.609901 101.9828 
L 50.609901 31.7808 
" clip-path="url(#pa7a21d870b)" style="fill: none; stroke: #b0b0b0; stroke-width: 0.8; stroke-linecap: round"/>
     </g>
     <g id="line2d_3"/>
    </g>
    <g id="xtick_2">
     <g id="line2d_4">
      <path d="M 91.220172 101.9828 
L 91.220172 31.7808 
" clip-path="url(#pa7a21d870b)" style="fill: none; stroke: #b0b0b0; stroke-width: 0.8; stroke-linecap: round"/>
     </g>
     <g id="line2d_5"/>
    </g>
    <g id="xtick_3">
     <g id="line2d_6">
      <path d="M 131.830444 101.9828 
L 131.830444 31.7808 
" clip-path="url(#pa7a21d870b)" style="fill: none; stroke: #b0b0b0; stroke-width: 0.8; stroke-linecap: round"/>
     </g>
     <g id="line2d_7"/>
    </g>
    <g id="xtick_4">
     <g id="line2d_8">
      <path d="M 172.440715 101.9828 
L 172.440715 31.7808 
" clip-path="url(#pa7a21d870b)" style="fill: none; stroke: #b0b0b0; stroke-width: 0.8; stroke-linecap: round"/>
     </g>
     <g id="line2d_9"/>
    </g>
   </g>
   <g id="matplotlib.axis_2">
    <g id="ytick_1">
     <g id="line2d_10">
      <path d="M 43.011719 90.787508 
L 210.171719 90.787508 
" clip-path="url(#pa7a21d870b)" style="fill: none; stroke: #b0b0b0; stroke-width: 0.8; stroke-linecap: round"/>
     </g>
     <g id="line2d_11"/>
     <g id="text_1">
      <!-- −5 -->
      <g style="fill: #262626" transform="translate(29.192187 93.446961) scale(0.07 -0.07)">
       <defs>
        <path id="DejaVuSerif-2212" d="M 678 2259 
L 4684 2259 
L 4684 1753 
L 678 1753 
L 678 2259 
z
" transform="scale(0.015625)"/>
        <path id="DejaVuSerif-35" d="M 3219 4666 
L 3219 4153 
L 1081 4153 
L 1081 2816 
Q 1244 2928 1461 2984 
Q 1678 3041 1947 3041 
Q 2703 3041 3140 2622 
Q 3578 2203 3578 1478 
Q 3578 738 3136 323 
Q 2694 -91 1894 -91 
Q 1572 -91 1234 -12 
Q 897 66 544 225 
L 544 1131 
L 897 1131 
Q 925 688 1179 453 
Q 1434 219 1894 219 
Q 2388 219 2653 544 
Q 2919 869 2919 1478 
Q 2919 2084 2655 2407 
Q 2391 2731 1894 2731 
Q 1613 2731 1398 2631 
Q 1184 2531 1019 2322 
L 750 2322 
L 750 4666 
L 3219 4666 
z
" transform="scale(0.015625)"/>
       </defs>
       <use xlink:href="#DejaVuSerif-2212"/>
       <use xlink:href="#DejaVuSerif-35" x="83.789062"/>
      </g>
     </g>
    </g>
    <g id="ytick_2">
     <g id="line2d_12">
      <path d="M 43.011719 67.038331 
L 210.171719 67.038331 
" clip-path="url(#pa7a21d870b)" style="fill: none; stroke: #b0b0b0; stroke-width: 0.8; stroke-linecap: round"/>
     </g>
     <g id="line2d_13"/>
     <g id="text_2">
      <!-- 0 -->
      <g style="fill: #262626" transform="translate(35.057969 69.697784) scale(0.07 -0.07)">
       <defs>
        <path id="DejaVuSerif-30" d="M 2034 219 
Q 2513 219 2750 744 
Q 2988 1269 2988 2328 
Q 2988 3391 2750 3916 
Q 2513 4441 2034 4441 
Q 1556 4441 1318 3916 
Q 1081 3391 1081 2328 
Q 1081 1269 1318 744 
Q 1556 219 2034 219 
z
M 2034 -91 
Q 1275 -91 848 546 
Q 422 1184 422 2328 
Q 422 3475 848 4112 
Q 1275 4750 2034 4750 
Q 2797 4750 3222 4112 
Q 3647 3475 3647 2328 
Q 3647 1184 3222 546 
Q 2797 -91 2034 -91 
z
" transform="scale(0.015625)"/>
       </defs>
       <use xlink:href="#DejaVuSerif-30"/>
      </g>
     </g>
    </g>
    <g id="ytick_3">
     <g id="line2d_14">
      <path d="M 43.011719 43.289154 
L 210.171719 43.289154 
" clip-path="url(#pa7a21d870b)" style="fill: none; stroke: #b0b0b0; stroke-width: 0.8; stroke-linecap: round"/>
     </g>
     <g id="line2d_15"/>
     <g id="text_3">
      <!-- 5 -->
      <g style="fill: #262626" transform="translate(35.057969 45.948607) scale(0.07 -0.07)">
       <use xlink:href="#DejaVuSerif-35"/>
      </g>
     </g>
    </g>
    <g id="text_4">
     <!-- $\beta$ $[deg]$ -->
     <g style="fill: #262626" transform="translate(12.59 79.5868) rotate(-90) scale(0.07 -0.07)">
      <defs>
       <path id="DejaVuSans-Oblique-3b2" d="M 872 216 
L 572 -1331 
L -6 -1331 
L 928 3478 
Q 1206 4903 2538 4903 
Q 3888 4903 3659 3700 
Q 3503 2844 2894 2531 
Q 3713 2250 3553 1416 
Q 3272 -69 1759 -66 
Q 1097 -63 872 216 
z
M 1019 966 
Q 1259 422 1875 425 
Q 2775 425 2966 1406 
Q 3138 2288 1675 2219 
L 1778 2750 
Q 2909 2731 3106 3750 
Q 3241 4438 2509 4434 
Q 1691 4434 1503 3459 
L 1019 966 
z
" transform="scale(0.015625)"/>
       <path id="DejaVuSerif-20" transform="scale(0.015625)"/>
       <path id="DejaVuSans-5b" d="M 550 4863 
L 1875 4863 
L 1875 4416 
L 1125 4416 
L 1125 -397 
L 1875 -397 
L 1875 -844 
L 550 -844 
L 550 4863 
z
" transform="scale(0.015625)"/>
       <path id="DejaVuSans-Oblique-64" d="M 2675 525 
Q 2444 222 2128 65 
Q 1813 -91 1428 -91 
Q 903 -91 598 267 
Q 294 625 294 1247 
Q 294 1766 478 2236 
Q 663 2706 1013 3078 
Q 1244 3325 1534 3454 
Q 1825 3584 2144 3584 
Q 2481 3584 2739 3421 
Q 2997 3259 3138 2956 
L 3513 4863 
L 4091 4863 
L 3144 0 
L 2566 0 
L 2675 525 
z
M 891 1350 
Q 891 897 1095 644 
Q 1300 391 1663 391 
Q 1931 391 2161 520 
Q 2391 650 2566 903 
Q 2750 1166 2856 1509 
Q 2963 1853 2963 2188 
Q 2963 2622 2758 2865 
Q 2553 3109 2194 3109 
Q 1922 3109 1687 2981 
Q 1453 2853 1288 2613 
Q 1106 2353 998 2009 
Q 891 1666 891 1350 
z
" transform="scale(0.015625)"/>
       <path id="DejaVuSans-Oblique-65" d="M 3078 2063 
Q 3088 2113 3092 2166 
Q 3097 2219 3097 2272 
Q 3097 2653 2873 2875 
Q 2650 3097 2266 3097 
Q 1838 3097 1509 2826 
Q 1181 2556 1013 2059 
L 3078 2063 
z
M 3578 1613 
L 903 1613 
Q 884 1494 878 1425 
Q 872 1356 872 1306 
Q 872 872 1139 634 
Q 1406 397 1894 397 
Q 2269 397 2603 481 
Q 2938 566 3225 728 
L 3116 159 
Q 2806 34 2476 -28 
Q 2147 -91 1806 -91 
Q 1078 -91 686 257 
Q 294 606 294 1247 
Q 294 1794 489 2264 
Q 684 2734 1063 3103 
Q 1306 3334 1642 3459 
Q 1978 3584 2356 3584 
Q 2950 3584 3301 3228 
Q 3653 2872 3653 2272 
Q 3653 2128 3634 1964 
Q 3616 1800 3578 1613 
z
" transform="scale(0.015625)"/>
       <path id="DejaVuSans-Oblique-67" d="M 3816 3500 
L 3219 434 
Q 3047 -456 2561 -893 
Q 2075 -1331 1253 -1331 
Q 950 -1331 690 -1286 
Q 431 -1241 206 -1147 
L 313 -588 
Q 525 -725 762 -790 
Q 1000 -856 1269 -856 
Q 1816 -856 2167 -557 
Q 2519 -259 2631 300 
L 2681 563 
Q 2441 288 2122 144 
Q 1803 0 1434 0 
Q 903 0 598 351 
Q 294 703 294 1319 
Q 294 1803 478 2267 
Q 663 2731 997 3091 
Q 1219 3328 1514 3456 
Q 1809 3584 2131 3584 
Q 2484 3584 2746 3420 
Q 3009 3256 3138 2956 
L 3238 3500 
L 3816 3500 
z
M 2950 2216 
Q 2950 2641 2750 2872 
Q 2550 3103 2181 3103 
Q 1953 3103 1747 3012 
Q 1541 2922 1394 2759 
Q 1156 2491 1023 2127 
Q 891 1763 891 1375 
Q 891 944 1092 712 
Q 1294 481 1672 481 
Q 2219 481 2584 976 
Q 2950 1472 2950 2216 
z
" transform="scale(0.015625)"/>
       <path id="DejaVuSans-5d" d="M 1947 4863 
L 1947 -844 
L 622 -844 
L 622 -397 
L 1369 -397 
L 1369 4416 
L 622 4416 
L 622 4863 
L 1947 4863 
z
" transform="scale(0.015625)"/>
      </defs>
      <use xlink:href="#DejaVuSans-Oblique-3b2" transform="translate(0 0.390625)"/>
      <use xlink:href="#DejaVuSerif-20" transform="translate(63.818359 0.390625)"/>
      <use xlink:href="#DejaVuSans-5b" transform="translate(95.605469 0.390625)"/>
      <use xlink:href="#DejaVuSans-Oblique-64" transform="translate(134.619141 0.390625)"/>
      <use xlink:href="#DejaVuSans-Oblique-65" transform="translate(198.095703 0.390625)"/>
      <use xlink:href="#DejaVuSans-Oblique-67" transform="translate(259.619141 0.390625)"/>
      <use xlink:href="#DejaVuSans-5d" transform="translate(323.095703 0.390625)"/>
     </g>
    </g>
   </g>
   <g id="line2d_16">
    <path d="M 50.609901 67.038331 
L 51.462716 67.14884 
L 52.315532 67.495017 
L 53.168348 68.100614 
L 54.792759 69.662679 
L 59.50355 74.53678 
L 63.808239 78.868953 
L 67.584994 82.360138 
L 71.280529 85.440507 
L 74.651181 87.9701 
L 78.346716 90.455555 
L 79.240142 90.865209 
L 80.011737 90.993256 
L 80.783332 90.898586 
L 81.554928 90.569973 
L 82.326523 89.998849 
L 83.179338 89.079718 
L 84.235205 87.565642 
L 87.362196 82.637807 
L 94.184722 71.862986 
L 97.555375 67.037126 
L 100.601145 63.058418 
L 103.728136 59.331424 
L 106.855127 55.936716 
L 110.185169 52.662841 
L 113.31216 49.882727 
L 116.520371 47.325883 
L 119.687973 45.057601 
L 123.302287 42.730167 
L 127.200873 40.496257 
L 131.2619 38.432972 
L 135.363537 36.595114 
L 139.383954 35.038464 
L 140.19616 34.979221 
L 140.967755 35.146639 
L 141.73935 35.538723 
L 142.551555 36.204979 
L 143.444981 37.245014 
L 144.419628 38.763605 
L 148.521265 46.104379 
L 153.75999 55.358393 
L 157.171253 60.893371 
L 160.298244 65.536259 
L 163.303404 69.623002 
L 166.267954 73.304714 
L 169.882268 77.371474 
L 173.293531 80.824612 
L 176.664184 83.87457 
L 180.116057 86.679842 
L 183.324268 89.005082 
L 186.938582 91.356727 
L 190.918389 93.664285 
L 194.776365 95.64852 
L 198.999833 97.555928 
L 202.045603 98.7918 
L 202.045603 98.7918 
" clip-path="url(#pa7a21d870b)" style="fill: none; stroke: #0000ff; stroke-width: 0.6; stroke-linecap: round"/>
   </g>
   <g id="line2d_17">
    <path d="M 50.609901 67.038331 
L 51.462716 67.148742 
L 52.315532 67.494216 
L 53.168348 68.097868 
L 54.833369 69.689254 
L 65.43265 80.068768 
L 68.925133 82.982244 
L 72.377006 85.542635 
L 75.585218 87.663134 
L 79.199532 89.76787 
L 80.052347 90.058524 
L 80.864553 90.09965 
L 81.636148 89.914978 
L 82.407743 89.493278 
L 83.219949 88.788541 
L 84.153985 87.64874 
L 85.575344 85.446693 
L 90.326746 77.644255 
L 94.144112 71.609869 
L 97.149272 67.261607 
L 100.073211 63.413772 
L 103.118982 59.794354 
L 106.042921 56.670254 
L 109.088692 53.730285 
L 112.093852 51.144801 
L 115.383284 48.636857 
L 118.469664 46.561212 
L 122.043368 44.423781 
L 125.657683 42.53633 
L 129.434438 40.820688 
L 133.495465 39.209776 
L 138.206256 37.599405 
L 140.683483 36.923614 
L 141.495688 36.977384 
L 142.267284 37.252072 
L 143.038879 37.758472 
L 143.891694 38.586305 
L 144.78512 39.764517 
L 145.881598 41.617456 
L 156.602709 60.614186 
L 159.364208 64.84099 
L 162.247537 68.853657 
L 165.090256 72.431509 
L 168.014196 75.755842 
L 171.019356 78.847449 
L 173.862075 81.466628 
L 176.948456 84.01632 
L 180.197277 86.395519 
L 183.446099 88.508033 
L 186.938582 90.514203 
L 190.593507 92.352191 
L 194.695144 94.138666 
L 198.918612 95.7061 
L 202.573537 96.892248 
L 202.573537 96.892248 
" clip-path="url(#pa7a21d870b)" style="fill: none; stroke: #008000; stroke-width: 0.6; stroke-linecap: round"/>
   </g>
   <g id="line2d_18">
    <path d="M 50.609901 67.038331 
L 51.584547 67.151622 
L 52.437363 67.47275 
L 53.290178 68.048111 
L 55.280082 69.891728 
L 59.584771 74.271725 
L 63.361526 77.95222 
L 66.407296 80.604601 
L 69.290626 82.817762 
L 72.173955 84.752499 
L 75.057284 86.420879 
L 78.062444 87.911128 
L 78.95587 88.153425 
L 79.768076 88.143539 
L 80.539671 87.918679 
L 81.311266 87.463619 
L 82.123471 86.721414 
L 83.016897 85.574873 
L 84.316426 83.435953 
L 87.97135 76.965123 
L 91.748106 70.450267 
L 94.509604 66.129277 
L 97.068051 62.536808 
L 99.504668 59.487389 
L 101.981894 56.743428 
L 104.459121 54.330441 
L 106.936347 52.223123 
L 109.576015 50.271996 
L 112.296903 48.534548 
L 115.220843 46.931992 
L 118.266613 45.515115 
L 121.596655 44.217083 
L 124.967308 43.13477 
L 128.947115 42.089631 
L 133.170583 41.211964 
L 136.297574 40.749566 
L 137.191 40.897485 
L 138.003205 41.261005 
L 138.856021 41.894318 
L 139.708836 42.80831 
L 140.642873 44.145365 
L 141.820571 46.275335 
L 145.922208 54.284617 
L 149.333471 60.686784 
L 152.013749 65.253145 
L 154.490975 69.045606 
L 156.927592 72.373125 
L 159.364208 75.323369 
L 161.800824 77.931005 
L 164.278051 80.256115 
L 166.836498 82.357423 
L 169.435555 84.205843 
L 172.197054 85.892159 
L 175.120993 87.417563 
L 178.410425 88.877963 
L 181.659247 90.077177 
L 185.314171 91.171203 
L 189.53764 92.185775 
L 194.248431 93.088481 
L 194.654534 93.155835 
L 194.654534 93.155835 
" clip-path="url(#pa7a21d870b)" style="fill: none; stroke: #ff0000; stroke-width: 0.6; stroke-linecap: round"/>
   </g>
   <g id="patch_3">
    <path d="M 43.011719 101.9828 
L 43.011719 31.7808 
" style="fill: none; stroke: #000000; stroke-linejoin: miter; stroke-linecap: square"/>
   </g>
   <g id="patch_4">
    <path d="M 43.011719 101.9828 
L 210.171719 101.9828 
" style="fill: none; stroke: #000000; stroke-linejoin: miter; stroke-linecap: square"/>
   </g>
   <g id="legend_1">
    <g id="line2d_19">
     <path d="M 56.575312 12.868906 
L 63.575312 12.868906 
L 70.575312 12.868906 
" style="fill: none; stroke: #000000; stroke-width: 0.6; stroke-linecap: round"/>
    </g>
    <g id="text_5">
     <!-- Model test -->
     <g style="fill: #262626" transform="translate(76.175312 15.318906) scale(0.07 -0.07)">
      <defs>
       <path id="DejaVuSerif-4d" d="M 353 0 
L 353 331 
L 947 331 
L 947 4331 
L 319 4331 
L 319 4666 
L 1678 4666 
L 3316 1344 
L 4953 4666 
L 6228 4666 
L 6228 4331 
L 5606 4331 
L 5606 331 
L 6203 331 
L 6203 0 
L 4378 0 
L 4378 331 
L 4972 331 
L 4972 3938 
L 3372 684 
L 2931 684 
L 1331 3938 
L 1331 331 
L 1925 331 
L 1925 0 
L 353 0 
z
" transform="scale(0.015625)"/>
       <path id="DejaVuSerif-6f" d="M 1925 219 
Q 2388 219 2623 584 
Q 2859 950 2859 1663 
Q 2859 2375 2623 2739 
Q 2388 3103 1925 3103 
Q 1463 3103 1227 2739 
Q 991 2375 991 1663 
Q 991 950 1228 584 
Q 1466 219 1925 219 
z
M 1925 -91 
Q 1200 -91 759 389 
Q 319 869 319 1663 
Q 319 2456 758 2934 
Q 1197 3413 1925 3413 
Q 2653 3413 3092 2934 
Q 3531 2456 3531 1663 
Q 3531 869 3092 389 
Q 2653 -91 1925 -91 
z
" transform="scale(0.015625)"/>
       <path id="DejaVuSerif-64" d="M 3359 331 
L 3909 331 
L 3909 0 
L 2784 0 
L 2784 519 
Q 2616 206 2355 57 
Q 2094 -91 1709 -91 
Q 1097 -91 708 395 
Q 319 881 319 1663 
Q 319 2444 706 2928 
Q 1094 3413 1709 3413 
Q 2094 3413 2355 3264 
Q 2616 3116 2784 2803 
L 2784 4531 
L 2241 4531 
L 2241 4863 
L 3359 4863 
L 3359 331 
z
M 2784 1497 
L 2784 1825 
Q 2784 2422 2554 2737 
Q 2325 3053 1888 3053 
Q 1444 3053 1217 2703 
Q 991 2353 991 1663 
Q 991 975 1217 622 
Q 1444 269 1888 269 
Q 2325 269 2554 583 
Q 2784 897 2784 1497 
z
" transform="scale(0.015625)"/>
       <path id="DejaVuSerif-65" d="M 3469 1600 
L 991 1600 
L 991 1575 
Q 991 903 1244 561 
Q 1497 219 1991 219 
Q 2369 219 2611 417 
Q 2853 616 2950 1006 
L 3413 1006 
Q 3275 459 2904 184 
Q 2534 -91 1931 -91 
Q 1203 -91 761 389 
Q 319 869 319 1663 
Q 319 2450 753 2931 
Q 1188 3413 1894 3413 
Q 2647 3413 3050 2948 
Q 3453 2484 3469 1600 
z
M 2791 1931 
Q 2772 2513 2545 2808 
Q 2319 3103 1894 3103 
Q 1497 3103 1269 2806 
Q 1041 2509 991 1931 
L 2791 1931 
z
" transform="scale(0.015625)"/>
       <path id="DejaVuSerif-6c" d="M 1313 331 
L 1856 331 
L 1856 0 
L 184 0 
L 184 331 
L 738 331 
L 738 4531 
L 184 4531 
L 184 4863 
L 1313 4863 
L 1313 331 
z
" transform="scale(0.015625)"/>
       <path id="DejaVuSerif-74" d="M 691 2988 
L 184 2988 
L 184 3322 
L 691 3322 
L 691 4353 
L 1269 4353 
L 1269 3322 
L 2350 3322 
L 2350 2988 
L 1269 2988 
L 1269 878 
Q 1269 456 1350 337 
Q 1431 219 1650 219 
Q 1875 219 1978 351 
Q 2081 484 2088 781 
L 2522 781 
Q 2497 328 2275 118 
Q 2053 -91 1600 -91 
Q 1103 -91 897 129 
Q 691 350 691 878 
L 691 2988 
z
" transform="scale(0.015625)"/>
       <path id="DejaVuSerif-73" d="M 359 184 
L 359 959 
L 691 959 
Q 703 588 923 403 
Q 1144 219 1575 219 
Q 1963 219 2166 364 
Q 2369 509 2369 788 
Q 2369 1006 2220 1140 
Q 2072 1275 1594 1428 
L 1178 1569 
Q 750 1706 558 1912 
Q 366 2119 366 2438 
Q 366 2894 700 3153 
Q 1034 3413 1625 3413 
Q 1888 3413 2178 3344 
Q 2469 3275 2778 3144 
L 2778 2419 
L 2447 2419 
Q 2434 2741 2221 2922 
Q 2009 3103 1644 3103 
Q 1281 3103 1095 2975 
Q 909 2847 909 2591 
Q 909 2381 1050 2254 
Q 1191 2128 1613 1997 
L 2069 1856 
Q 2541 1709 2748 1489 
Q 2956 1269 2956 922 
Q 2956 450 2595 179 
Q 2234 -91 1600 -91 
Q 1278 -91 972 -22 
Q 666 47 359 184 
z
" transform="scale(0.015625)"/>
      </defs>
      <use xlink:href="#DejaVuSerif-4d"/>
      <use xlink:href="#DejaVuSerif-6f" x="102.392578"/>
      <use xlink:href="#DejaVuSerif-64" x="162.597656"/>
      <use xlink:href="#DejaVuSerif-65" x="226.611328"/>
      <use xlink:href="#DejaVuSerif-6c" x="285.791016"/>
      <use xlink:href="#DejaVuSerif-20" x="317.773438"/>
      <use xlink:href="#DejaVuSerif-74" x="349.560547"/>
      <use xlink:href="#DejaVuSerif-65" x="389.746094"/>
      <use xlink:href="#DejaVuSerif-73" x="448.925781"/>
      <use xlink:href="#DejaVuSerif-74" x="500.244141"/>
     </g>
    </g>
    <g id="line2d_20">
     <path d="M 56.575312 23.143594 
L 63.575312 23.143594 
L 70.575312 23.143594 
" style="fill: none; stroke: #0000ff; stroke-width: 0.6; stroke-linecap: round"/>
    </g>
    <g id="text_6">
     <!-- Reference -->
     <g style="fill: #262626" transform="translate(76.175312 25.593594) scale(0.07 -0.07)">
      <defs>
       <path id="DejaVuSerif-52" d="M 3066 2316 
Q 3284 2256 3442 2114 
Q 3600 1972 3725 1716 
L 4403 331 
L 4972 331 
L 4972 0 
L 3872 0 
L 3144 1484 
Q 2934 1916 2759 2042 
Q 2584 2169 2278 2169 
L 1581 2169 
L 1581 331 
L 2241 331 
L 2241 0 
L 353 0 
L 353 331 
L 947 331 
L 947 4331 
L 353 4331 
L 353 4666 
L 2719 4666 
Q 3400 4666 3770 4341 
Q 4141 4016 4141 3419 
Q 4141 2938 3870 2661 
Q 3600 2384 3066 2316 
z
M 1581 2503 
L 2503 2503 
Q 2975 2503 3200 2726 
Q 3425 2950 3425 3419 
Q 3425 3888 3200 4109 
Q 2975 4331 2503 4331 
L 1581 4331 
L 1581 2503 
z
" transform="scale(0.015625)"/>
       <path id="DejaVuSerif-66" d="M 2753 4078 
L 2450 4078 
Q 2447 4313 2317 4434 
Q 2188 4556 1941 4556 
Q 1619 4556 1487 4379 
Q 1356 4203 1356 3750 
L 1356 3322 
L 2284 3322 
L 2284 2988 
L 1356 2988 
L 1356 331 
L 2094 331 
L 2094 0 
L 231 0 
L 231 331 
L 781 331 
L 781 2988 
L 231 2988 
L 231 3322 
L 781 3322 
L 781 3738 
Q 781 4294 1070 4578 
Q 1359 4863 1919 4863 
Q 2128 4863 2337 4825 
Q 2547 4788 2753 4709 
L 2753 4078 
z
" transform="scale(0.015625)"/>
       <path id="DejaVuSerif-72" d="M 3059 3328 
L 3059 2497 
L 2728 2497 
Q 2713 2744 2591 2866 
Q 2469 2988 2234 2988 
Q 1809 2988 1582 2694 
Q 1356 2400 1356 1850 
L 1356 331 
L 2022 331 
L 2022 0 
L 263 0 
L 263 331 
L 781 331 
L 781 2994 
L 231 2994 
L 231 3322 
L 1356 3322 
L 1356 2731 
Q 1525 3078 1790 3245 
Q 2056 3413 2438 3413 
Q 2578 3413 2733 3391 
Q 2888 3369 3059 3328 
z
" transform="scale(0.015625)"/>
       <path id="DejaVuSerif-6e" d="M 263 0 
L 263 331 
L 781 331 
L 781 2988 
L 231 2988 
L 231 3322 
L 1356 3322 
L 1356 2731 
Q 1516 3069 1770 3241 
Q 2025 3413 2363 3413 
Q 2913 3413 3172 3097 
Q 3431 2781 3431 2113 
L 3431 331 
L 3944 331 
L 3944 0 
L 2356 0 
L 2356 331 
L 2853 331 
L 2853 1931 
Q 2853 2541 2703 2767 
Q 2553 2994 2175 2994 
Q 1775 2994 1565 2701 
Q 1356 2409 1356 1850 
L 1356 331 
L 1856 331 
L 1856 0 
L 263 0 
z
" transform="scale(0.015625)"/>
       <path id="DejaVuSerif-63" d="M 3291 997 
Q 3169 466 2822 187 
Q 2475 -91 1925 -91 
Q 1200 -91 759 389 
Q 319 869 319 1663 
Q 319 2459 759 2936 
Q 1200 3413 1925 3413 
Q 2241 3413 2553 3339 
Q 2866 3266 3181 3116 
L 3181 2266 
L 2847 2266 
Q 2781 2703 2561 2903 
Q 2341 3103 1931 3103 
Q 1466 3103 1228 2742 
Q 991 2381 991 1663 
Q 991 944 1227 581 
Q 1463 219 1931 219 
Q 2303 219 2525 412 
Q 2747 606 2828 997 
L 3291 997 
z
" transform="scale(0.015625)"/>
      </defs>
      <use xlink:href="#DejaVuSerif-52"/>
      <use xlink:href="#DejaVuSerif-65" x="75.292969"/>
      <use xlink:href="#DejaVuSerif-66" x="134.472656"/>
      <use xlink:href="#DejaVuSerif-65" x="171.484375"/>
      <use xlink:href="#DejaVuSerif-72" x="230.664062"/>
      <use xlink:href="#DejaVuSerif-65" x="278.466797"/>
      <use xlink:href="#DejaVuSerif-6e" x="337.646484"/>
      <use xlink:href="#DejaVuSerif-63" x="402.050781"/>
      <use xlink:href="#DejaVuSerif-65" x="458.056641"/>
     </g>
    </g>
    <g id="line2d_21">
     <path d="M 128.005937 12.868906 
L 135.005937 12.868906 
L 142.005937 12.868906 
" style="fill: none; stroke: #008000; stroke-width: 0.6; stroke-linecap: round"/>
    </g>
    <g id="text_7">
     <!-- PISM -->
     <g style="fill: #262626" transform="translate(147.605937 15.318906) scale(0.07 -0.07)">
      <defs>
       <path id="DejaVuSerif-50" d="M 1581 2375 
L 2406 2375 
Q 2872 2375 3115 2626 
Q 3359 2878 3359 3353 
Q 3359 3831 3115 4081 
Q 2872 4331 2406 4331 
L 1581 4331 
L 1581 2375 
z
M 353 0 
L 353 331 
L 947 331 
L 947 4331 
L 353 4331 
L 353 4666 
L 2559 4666 
Q 3259 4666 3668 4311 
Q 4078 3956 4078 3353 
Q 4078 2753 3668 2397 
Q 3259 2041 2559 2041 
L 1581 2041 
L 1581 331 
L 2303 331 
L 2303 0 
L 353 0 
z
" transform="scale(0.015625)"/>
       <path id="DejaVuSerif-49" d="M 1581 331 
L 2175 331 
L 2175 0 
L 353 0 
L 353 331 
L 947 331 
L 947 4331 
L 353 4331 
L 353 4666 
L 2175 4666 
L 2175 4331 
L 1581 4331 
L 1581 331 
z
" transform="scale(0.015625)"/>
       <path id="DejaVuSerif-53" d="M 594 225 
L 594 1288 
L 953 1284 
Q 969 753 1261 498 
Q 1553 244 2150 244 
Q 2706 244 2998 464 
Q 3291 684 3291 1106 
Q 3291 1444 3114 1625 
Q 2938 1806 2369 1978 
L 1753 2163 
Q 1084 2366 811 2669 
Q 538 2972 538 3500 
Q 538 4094 959 4422 
Q 1381 4750 2144 4750 
Q 2469 4750 2856 4679 
Q 3244 4609 3681 4475 
L 3681 3481 
L 3328 3481 
Q 3275 3975 2998 4195 
Q 2722 4416 2156 4416 
Q 1663 4416 1405 4214 
Q 1147 4013 1147 3628 
Q 1147 3294 1340 3103 
Q 1534 2913 2163 2725 
L 2741 2553 
Q 3375 2363 3645 2067 
Q 3916 1772 3916 1275 
Q 3916 597 3481 253 
Q 3047 -91 2188 -91 
Q 1803 -91 1404 -12 
Q 1006 66 594 225 
z
" transform="scale(0.015625)"/>
      </defs>
      <use xlink:href="#DejaVuSerif-50"/>
      <use xlink:href="#DejaVuSerif-49" x="67.285156"/>
      <use xlink:href="#DejaVuSerif-53" x="106.787109"/>
      <use xlink:href="#DejaVuSerif-4d" x="175.292969"/>
     </g>
    </g>
    <g id="line2d_22">
     <path d="M 128.005937 23.143594 
L 135.005937 23.143594 
L 142.005937 23.143594 
" style="fill: none; stroke: #ff0000; stroke-width: 0.6; stroke-linecap: round"/>
    </g>
    <g id="text_8">
     <!-- Mathematical -->
     <g style="fill: #262626" transform="translate(147.605937 25.593594) scale(0.07 -0.07)">
      <defs>
       <path id="DejaVuSerif-61" d="M 2547 1044 
L 2547 1747 
L 1806 1747 
Q 1378 1747 1168 1562 
Q 959 1378 959 997 
Q 959 650 1171 447 
Q 1384 244 1747 244 
Q 2106 244 2326 466 
Q 2547 688 2547 1044 
z
M 3122 2075 
L 3122 331 
L 3634 331 
L 3634 0 
L 2547 0 
L 2547 359 
Q 2356 128 2106 18 
Q 1856 -91 1522 -91 
Q 969 -91 644 203 
Q 319 497 319 997 
Q 319 1513 691 1797 
Q 1063 2081 1741 2081 
L 2547 2081 
L 2547 2309 
Q 2547 2688 2317 2895 
Q 2088 3103 1672 3103 
Q 1328 3103 1125 2947 
Q 922 2791 872 2484 
L 575 2484 
L 575 3156 
Q 875 3284 1158 3348 
Q 1441 3413 1709 3413 
Q 2400 3413 2761 3070 
Q 3122 2728 3122 2075 
z
" transform="scale(0.015625)"/>
       <path id="DejaVuSerif-68" d="M 263 0 
L 263 331 
L 781 331 
L 781 4531 
L 231 4531 
L 231 4863 
L 1356 4863 
L 1356 2731 
Q 1516 3069 1770 3241 
Q 2025 3413 2363 3413 
Q 2913 3413 3172 3097 
Q 3431 2781 3431 2113 
L 3431 331 
L 3944 331 
L 3944 0 
L 2356 0 
L 2356 331 
L 2853 331 
L 2853 1931 
Q 2853 2541 2704 2764 
Q 2556 2988 2175 2988 
Q 1775 2988 1565 2697 
Q 1356 2406 1356 1850 
L 1356 331 
L 1856 331 
L 1856 0 
L 263 0 
z
" transform="scale(0.015625)"/>
       <path id="DejaVuSerif-6d" d="M 3316 2675 
Q 3481 3041 3739 3227 
Q 3997 3413 4341 3413 
Q 4863 3413 5119 3089 
Q 5375 2766 5375 2113 
L 5375 331 
L 5894 331 
L 5894 0 
L 4300 0 
L 4300 331 
L 4800 331 
L 4800 2047 
Q 4800 2556 4650 2772 
Q 4500 2988 4153 2988 
Q 3769 2988 3567 2697 
Q 3366 2406 3366 1850 
L 3366 331 
L 3866 331 
L 3866 0 
L 2291 0 
L 2291 331 
L 2791 331 
L 2791 2069 
Q 2791 2566 2641 2777 
Q 2491 2988 2144 2988 
Q 1759 2988 1557 2697 
Q 1356 2406 1356 1850 
L 1356 331 
L 1856 331 
L 1856 0 
L 263 0 
L 263 331 
L 781 331 
L 781 2994 
L 231 2994 
L 231 3322 
L 1356 3322 
L 1356 2731 
Q 1516 3063 1762 3238 
Q 2009 3413 2322 3413 
Q 2709 3413 2968 3220 
Q 3228 3028 3316 2675 
z
" transform="scale(0.015625)"/>
       <path id="DejaVuSerif-69" d="M 622 4353 
Q 622 4497 726 4603 
Q 831 4709 978 4709 
Q 1122 4709 1226 4603 
Q 1331 4497 1331 4353 
Q 1331 4206 1228 4103 
Q 1125 4000 978 4000 
Q 831 4000 726 4103 
Q 622 4206 622 4353 
z
M 1356 331 
L 1900 331 
L 1900 0 
L 231 0 
L 231 331 
L 781 331 
L 781 2988 
L 231 2988 
L 231 3322 
L 1356 3322 
L 1356 331 
z
" transform="scale(0.015625)"/>
      </defs>
      <use xlink:href="#DejaVuSerif-4d"/>
      <use xlink:href="#DejaVuSerif-61" x="102.392578"/>
      <use xlink:href="#DejaVuSerif-74" x="162.011719"/>
      <use xlink:href="#DejaVuSerif-68" x="202.197266"/>
      <use xlink:href="#DejaVuSerif-65" x="266.601562"/>
      <use xlink:href="#DejaVuSerif-6d" x="325.78125"/>
      <use xlink:href="#DejaVuSerif-61" x="420.605469"/>
      <use xlink:href="#DejaVuSerif-74" x="480.224609"/>
      <use xlink:href="#DejaVuSerif-69" x="520.410156"/>
      <use xlink:href="#DejaVuSerif-63" x="552.392578"/>
      <use xlink:href="#DejaVuSerif-61" x="608.398438"/>
      <use xlink:href="#DejaVuSerif-6c" x="668.017578"/>
     </g>
    </g>
   </g>
  </g>
  <g id="axes_2">
   <g id="patch_5">
    <path d="M 43.011719 172.1848 
L 210.171719 172.1848 
L 210.171719 101.9828 
L 43.011719 101.9828 
z
" style="fill: #ffffff"/>
   </g>
   <g id="line2d_23">
    <path d="M 50.609901 137.467015 
L 52.386389 137.652394 
L 53.718755 138.015964 
L 55.172245 138.653266 
L 56.867984 139.643388 
L 58.604098 140.926554 
L 60.703584 142.765026 
L 63.691314 145.721664 
L 66.517545 148.815408 
L 70.23202 153.237522 
L 73.623498 157.534747 
L 80.648701 166.549563 
L 81.900318 167.664169 
L 82.990436 168.355017 
L 84.040179 168.766867 
L 85.170671 168.971799 
L 86.381913 168.962646 
L 87.714279 168.724577 
L 89.248519 168.213655 
L 90.984633 167.393967 
L 92.882245 166.247107 
L 94.981731 164.698536 
L 97.323466 162.68597 
L 100.109322 160.000802 
L 103.581549 156.321463 
L 108.588016 150.674473 
L 114.724975 143.401215 
L 119.610318 137.155661 
L 125.868401 128.758378 
L 135.356463 115.910096 
L 140.28218 109.295054 
L 141.856795 107.597722 
L 143.068037 106.592266 
L 144.158155 105.964498 
L 145.248272 105.595545 
L 146.41914 105.440912 
L 147.670756 105.505404 
L 149.083872 105.808538 
L 150.739236 106.392139 
L 152.677223 107.317994 
L 154.776709 108.549882 
L 156.795446 110.016977 
L 159.177555 112.039891 
L 162.326784 115.018466 
L 165.354889 118.225567 
L 172.339718 126.085 
L 177.588433 132.358949 
L 183.886891 140.325372 
L 194.424696 154.212772 
L 202.015146 164.255111 
L 202.015146 164.255111 
" clip-path="url(#p91d85b9bef)" style="fill: none; stroke: #000000; stroke-width: 0.6; stroke-linecap: round"/>
   </g>
   <g id="line2d_24">
    <path d="M 50.609901 137.839273 
L 51.215522 143.630185 
L 53.315008 162.62177 
L 53.597631 162.483492 
L 55.131871 162.480529 
L 59.73459 162.483492 
L 64.25656 162.483492 
L 77.539847 162.483492 
L 77.701346 160.944648 
L 79.235586 146.69207 
L 83.03081 111.894247 
L 83.273059 111.989067 
L 85.735917 111.999931 
L 138.424943 111.997956 
L 138.667191 114.213378 
L 141.453048 139.832461 
L 142.139418 146.1755 
L 143.956281 162.62177 
L 144.279279 162.491393 
L 145.894268 162.481516 
L 200.844278 162.482504 
L 200.965403 161.33084 
L 201.894022 152.706203 
L 202.015146 151.577257 
L 202.015146 151.577257 
" clip-path="url(#p91d85b9bef)" style="fill: none; stroke-dasharray: 2.22,0.96; stroke-dashoffset: 0; stroke: #808080; stroke-width: 0.6"/>
   </g>
   <g id="matplotlib.axis_3">
    <g id="xtick_5">
     <g id="line2d_25">
      <path d="M 50.609901 172.1848 
L 50.609901 101.9828 
" clip-path="url(#p91d85b9bef)" style="fill: none; stroke: #b0b0b0; stroke-width: 0.8; stroke-linecap: round"/>
     </g>
     <g id="line2d_26"/>
    </g>
    <g id="xtick_6">
     <g id="line2d_27">
      <path d="M 91.220172 172.1848 
L 91.220172 101.9828 
" clip-path="url(#p91d85b9bef)" style="fill: none; stroke: #b0b0b0; stroke-width: 0.8; stroke-linecap: round"/>
     </g>
     <g id="line2d_28"/>
    </g>
    <g id="xtick_7">
     <g id="line2d_29">
      <path d="M 131.830444 172.1848 
L 131.830444 101.9828 
" clip-path="url(#p91d85b9bef)" style="fill: none; stroke: #b0b0b0; stroke-width: 0.8; stroke-linecap: round"/>
     </g>
     <g id="line2d_30"/>
    </g>
    <g id="xtick_8">
     <g id="line2d_31">
      <path d="M 172.440715 172.1848 
L 172.440715 101.9828 
" clip-path="url(#p91d85b9bef)" style="fill: none; stroke: #b0b0b0; stroke-width: 0.8; stroke-linecap: round"/>
     </g>
     <g id="line2d_32"/>
    </g>
   </g>
   <g id="matplotlib.axis_4">
    <g id="ytick_4">
     <g id="line2d_33">
      <path d="M 43.011719 162.482088 
L 210.171719 162.482088 
" clip-path="url(#p91d85b9bef)" style="fill: none; stroke: #b0b0b0; stroke-width: 0.8; stroke-linecap: round"/>
     </g>
     <g id="line2d_34"/>
     <g id="text_9">
      <!-- −10 -->
      <g style="fill: #262626" transform="translate(24.738437 165.141541) scale(0.07 -0.07)">
       <defs>
        <path id="DejaVuSerif-31" d="M 909 0 
L 909 331 
L 1722 331 
L 1722 4213 
L 781 3603 
L 781 4013 
L 1919 4750 
L 2350 4750 
L 2350 331 
L 3163 331 
L 3163 0 
L 909 0 
z
" transform="scale(0.015625)"/>
       </defs>
       <use xlink:href="#DejaVuSerif-2212"/>
       <use xlink:href="#DejaVuSerif-31" x="83.789062"/>
       <use xlink:href="#DejaVuSerif-30" x="147.412109"/>
      </g>
     </g>
    </g>
    <g id="ytick_5">
     <g id="line2d_35">
      <path d="M 43.011719 137.240724 
L 210.171719 137.240724 
" clip-path="url(#p91d85b9bef)" style="fill: none; stroke: #b0b0b0; stroke-width: 0.8; stroke-linecap: round"/>
     </g>
     <g id="line2d_36"/>
     <g id="text_10">
      <!-- 0 -->
      <g style="fill: #262626" transform="translate(35.057969 139.900177) scale(0.07 -0.07)">
       <use xlink:href="#DejaVuSerif-30"/>
      </g>
     </g>
    </g>
    <g id="ytick_6">
     <g id="line2d_37">
      <path d="M 43.011719 111.99936 
L 210.171719 111.99936 
" clip-path="url(#p91d85b9bef)" style="fill: none; stroke: #b0b0b0; stroke-width: 0.8; stroke-linecap: round"/>
     </g>
     <g id="line2d_38"/>
     <g id="text_11">
      <!-- 10 -->
      <g style="fill: #262626" transform="translate(30.604219 114.658813) scale(0.07 -0.07)">
       <use xlink:href="#DejaVuSerif-31"/>
       <use xlink:href="#DejaVuSerif-30" x="63.623047"/>
      </g>
     </g>
    </g>
    <g id="text_12">
     <!-- $\psi$ $[deg]$ -->
     <g style="fill: #262626" transform="translate(12.59 149.8588) rotate(-90) scale(0.07 -0.07)">
      <defs>
       <path id="DejaVuSans-Oblique-3c8" d="M 1591 -78 
Q 891 38 616 341 
Q 278 713 425 1472 
L 819 3500 
L 1400 3500 
L 1009 1494 
Q 900 922 1119 684 
Q 1313 478 1691 434 
L 2284 3500 
L 2856 3500 
L 2263 438 
Q 2681 481 2928 688 
Q 3247 950 3353 1497 
L 3741 3500 
L 4322 3500 
L 3928 1475 
Q 3775 688 3300 344 
Q 2872 34 2163 -75 
L 1919 -1331 
L 1347 -1331 
L 1591 -78 
z
" transform="scale(0.015625)"/>
      </defs>
      <use xlink:href="#DejaVuSans-Oblique-3c8" transform="translate(0 0.015625)"/>
      <use xlink:href="#DejaVuSerif-20" transform="translate(65.966797 0.015625)"/>
      <use xlink:href="#DejaVuSans-5b" transform="translate(97.753906 0.015625)"/>
      <use xlink:href="#DejaVuSans-Oblique-64" transform="translate(136.767578 0.015625)"/>
      <use xlink:href="#DejaVuSans-Oblique-65" transform="translate(200.244141 0.015625)"/>
      <use xlink:href="#DejaVuSans-Oblique-67" transform="translate(261.767578 0.015625)"/>
      <use xlink:href="#DejaVuSans-5d" transform="translate(325.244141 0.015625)"/>
     </g>
    </g>
   </g>
   <g id="line2d_39">
    <path d="M 50.609901 137.240724 
L 52.721635 137.347044 
L 53.939943 137.638698 
L 55.239472 138.188227 
L 56.782662 139.094639 
L 58.610124 140.439252 
L 60.803079 142.339819 
L 63.483357 144.966934 
L 66.772789 148.514295 
L 70.955647 153.369354 
L 75.99132 159.575441 
L 81.351876 166.168235 
L 82.651405 167.327356 
L 83.707272 167.991867 
L 84.722529 168.368257 
L 85.778396 168.524898 
L 86.956094 168.471659 
L 88.255622 168.187887 
L 89.758202 167.622795 
L 91.463834 166.736518 
L 93.494347 165.418461 
L 95.890353 163.584002 
L 98.733072 161.114144 
L 102.103725 157.881584 
L 106.002311 153.824613 
L 110.34761 148.974797 
L 115.302063 143.097214 
L 121.231163 135.714839 
L 127.728806 127.262298 
L 134.876214 117.591955 
L 141.942401 108.044449 
L 143.24193 106.749939 
L 144.338407 105.952299 
L 145.353664 105.483411 
L 146.450142 105.226538 
L 147.627839 105.18315 
L 148.927368 105.360216 
L 150.389338 105.786216 
L 152.054359 106.50398 
L 154.003652 107.596025 
L 156.277827 109.133506 
L 158.958105 111.227424 
L 162.044486 113.928012 
L 165.577579 117.320357 
L 169.679217 121.575504 
L 174.065126 126.457227 
L 179.1008 132.401209 
L 184.989289 139.71473 
L 191.608764 148.296052 
L 199.202884 158.547589 
L 202.045603 162.471008 
L 202.045603 162.471008 
" clip-path="url(#p91d85b9bef)" style="fill: none; stroke: #0000ff; stroke-width: 0.6; stroke-linecap: round"/>
   </g>
   <g id="line2d_40">
    <path d="M 50.609901 137.240724 
L 52.721635 137.346885 
L 53.939943 137.637676 
L 55.239472 138.184591 
L 56.782662 139.083567 
L 58.610124 140.414087 
L 60.884299 142.359255 
L 63.727018 145.099049 
L 67.381943 148.949645 
L 72.011514 154.166387 
L 78.062444 161.331418 
L 81.676758 165.52814 
L 83.016897 166.715891 
L 84.113375 167.407884 
L 85.088021 167.77292 
L 86.103278 167.920189 
L 87.240366 167.855795 
L 88.499284 167.555897 
L 89.961254 166.968442 
L 91.666885 166.028996 
L 93.656788 164.669486 
L 96.093405 162.726401 
L 99.098565 160.032678 
L 102.83471 156.368021 
L 107.34245 151.617924 
L 112.621785 145.708814 
L 119.119429 138.094077 
L 126.469888 129.14275 
L 135.68842 117.567005 
L 142.957658 108.48361 
L 144.257187 107.313186 
L 145.353664 106.616604 
L 146.328311 106.251613 
L 147.384178 106.091722 
L 148.561876 106.146842 
L 149.861404 106.437734 
L 151.363984 107.01334 
L 153.110226 107.933484 
L 155.14074 109.265811 
L 157.617966 111.171035 
L 160.623126 113.77623 
L 164.318661 117.288857 
L 168.70457 121.774641 
L 173.537193 127.040675 
L 179.425682 133.796408 
L 186.370039 142.118625 
L 194.857585 152.647735 
L 202.573537 162.432954 
L 202.573537 162.432954 
" clip-path="url(#p91d85b9bef)" style="fill: none; stroke: #008000; stroke-width: 0.6; stroke-linecap: round"/>
   </g>
   <g id="line2d_41">
    <path d="M 50.609901 137.240724 
L 52.681024 137.349709 
L 53.899333 137.648328 
L 55.198861 138.210321 
L 56.701441 139.11197 
L 58.488293 140.454597 
L 60.640638 142.362086 
L 63.320916 145.051386 
L 66.691568 148.766245 
L 71.036867 153.902286 
L 76.844136 161.132013 
L 80.539671 165.645993 
L 81.839199 166.851306 
L 82.935677 167.575293 
L 83.910323 167.957383 
L 84.92558 168.107436 
L 86.022057 168.034471 
L 87.240366 167.719846 
L 88.621115 167.125155 
L 90.245526 166.171716 
L 92.154208 164.781836 
L 94.428384 162.839185 
L 97.189882 160.175266 
L 100.601145 156.557701 
L 104.784003 151.782883 
L 110.144559 145.30885 
L 116.804643 136.901231 
L 125.941954 124.98174 
L 138.69358 108.329698 
L 139.952498 107.187001 
L 141.008365 106.516908 
L 141.983012 106.158032 
L 142.998268 106.020869 
L 144.094746 106.097794 
L 145.353664 106.417955 
L 146.775024 107.020724 
L 148.440045 107.980702 
L 150.389338 109.373215 
L 152.704123 111.306794 
L 155.506232 113.950257 
L 158.876885 117.449478 
L 162.937912 121.997982 
L 168.014196 128.031877 
L 174.55245 136.168512 
L 182.836945 146.853628 
L 194.654534 162.447015 
L 194.654534 162.447015 
" clip-path="url(#p91d85b9bef)" style="fill: none; stroke: #ff0000; stroke-width: 0.6; stroke-linecap: round"/>
   </g>
   <g id="patch_6">
    <path d="M 43.011719 172.1848 
L 43.011719 101.9828 
" style="fill: none; stroke: #000000; stroke-linejoin: miter; stroke-linecap: square"/>
   </g>
   <g id="patch_7">
    <path d="M 43.011719 172.1848 
L 210.171719 172.1848 
" style="fill: none; stroke: #000000; stroke-linejoin: miter; stroke-linecap: square"/>
   </g>
  </g>
  <g id="axes_3">
   <g id="patch_8">
    <path d="M 43.011719 242.3868 
L 210.171719 242.3868 
L 210.171719 172.1848 
L 43.011719 172.1848 
z
" style="fill: #ffffff"/>
   </g>
   <g id="line2d_42">
    <path d="M 50.609901 208.412204 
L 51.054023 208.918699 
L 51.619269 209.920985 
L 52.426764 211.881699 
L 55.252995 219.267595 
L 59.04822 226.596809 
L 60.905457 229.132687 
L 61.712952 229.812342 
L 63.973937 231.469362 
L 65.548551 232.897547 
L 67.607663 234.44823 
L 68.455532 234.885475 
L 69.263027 235.038338 
L 70.151271 235.209202 
L 70.756892 235.609939 
L 72.493005 236.847668 
L 74.229119 237.613572 
L 75.440361 237.901588 
L 76.934226 238.040418 
L 77.82247 237.90833 
L 78.226217 237.570884 
L 78.670339 236.907344 
L 79.235586 235.611773 
L 79.962331 233.287314 
L 80.89095 229.520075 
L 82.102192 223.623995 
L 84.363177 212.453938 
L 85.614793 207.668481 
L 87.229783 202.707553 
L 88.40065 199.861361 
L 89.611892 197.473344 
L 91.146132 194.797309 
L 94.618358 189.578527 
L 96.394847 187.373817 
L 97.565714 186.319914 
L 100.755318 183.704057 
L 102.693305 182.621452 
L 103.621924 182.293845 
L 105.64066 181.683529 
L 106.851902 181.196898 
L 108.466892 180.890653 
L 110.404879 180.591796 
L 111.737245 180.618586 
L 112.262116 180.374127 
L 115.53247 178.472543 
L 116.461089 178.117237 
L 117.510832 177.99275 
L 118.843198 177.846317 
L 119.448819 177.439815 
L 120.215939 177.018604 
L 121.144557 176.791932 
L 124.213037 176.405621 
L 125.182031 176.670469 
L 125.908776 176.813785 
L 126.71627 176.646017 
L 128.008262 176.427466 
L 131.076742 176.208658 
L 132.207234 176.568084 
L 132.85323 176.655776 
L 133.499225 176.433414 
L 135.235339 175.791467 
L 136.486956 175.622565 
L 137.3752 175.704147 
L 137.980821 175.999427 
L 138.586442 176.56902 
L 139.070938 177.363818 
L 139.838058 179.139223 
L 140.847427 181.942472 
L 141.654921 184.797904 
L 142.58354 189.009865 
L 145.773144 204.23686 
L 146.984386 208.459998 
L 148.195628 211.965256 
L 149.204996 214.167385 
L 150.537362 216.606867 
L 152.071602 218.895582 
L 153.888465 221.027141 
L 156.512823 225.119497 
L 157.885564 226.824448 
L 159.13718 227.952894 
L 160.186923 228.584537 
L 160.994418 229.157217 
L 164.385895 232.083358 
L 165.637512 232.737364 
L 166.283508 232.829425 
L 168.302244 232.893245 
L 169.917234 233.380968 
L 175.044825 234.689462 
L 176.296441 235.361251 
L 177.426934 235.695917 
L 180.414664 236.248238 
L 181.787405 236.494009 
L 183.604268 237.111781 
L 185.58263 237.465395 
L 186.874621 237.354362 
L 188.812608 237.149938 
L 190.225724 237.71556 
L 191.113968 237.953979 
L 192.769332 238.101176 
L 193.576827 237.944621 
L 195.474439 237.44883 
L 196.201184 237.634289 
L 198.139171 238.077255 
L 199.390788 238.142219 
L 200.117533 238.003495 
L 200.803904 237.635968 
L 201.328775 237.143218 
L 201.772897 236.343666 
L 202.015146 235.757157 
L 202.015146 235.757157 
" clip-path="url(#p12abf31a8a)" style="fill: none; stroke: #000000; stroke-width: 0.6; stroke-linecap: round"/>
   </g>
   <g id="matplotlib.axis_5">
    <g id="xtick_9">
     <g id="line2d_43">
      <path d="M 50.609901 242.3868 
L 50.609901 172.1848 
" clip-path="url(#p12abf31a8a)" style="fill: none; stroke: #b0b0b0; stroke-width: 0.8; stroke-linecap: round"/>
     </g>
     <g id="line2d_44"/>
     <g id="text_13">
      <!-- 0 -->
      <g style="fill: #262626" transform="translate(48.383026 251.205706) scale(0.07 -0.07)">
       <use xlink:href="#DejaVuSerif-30"/>
      </g>
     </g>
    </g>
    <g id="xtick_10">
     <g id="line2d_45">
      <path d="M 91.220172 242.3868 
L 91.220172 172.1848 
" clip-path="url(#p12abf31a8a)" style="fill: none; stroke: #b0b0b0; stroke-width: 0.8; stroke-linecap: round"/>
     </g>
     <g id="line2d_46"/>
     <g id="text_14">
      <!-- 10 -->
      <g style="fill: #262626" transform="translate(86.766422 251.205706) scale(0.07 -0.07)">
       <use xlink:href="#DejaVuSerif-31"/>
       <use xlink:href="#DejaVuSerif-30" x="63.623047"/>
      </g>
     </g>
    </g>
    <g id="xtick_11">
     <g id="line2d_47">
      <path d="M 131.830444 242.3868 
L 131.830444 172.1848 
" clip-path="url(#p12abf31a8a)" style="fill: none; stroke: #b0b0b0; stroke-width: 0.8; stroke-linecap: round"/>
     </g>
     <g id="line2d_48"/>
     <g id="text_15">
      <!-- 20 -->
      <g style="fill: #262626" transform="translate(127.376694 251.205706) scale(0.07 -0.07)">
       <defs>
        <path id="DejaVuSerif-32" d="M 819 3553 
L 469 3553 
L 469 4384 
Q 803 4563 1142 4656 
Q 1481 4750 1806 4750 
Q 2534 4750 2956 4397 
Q 3378 4044 3378 3438 
Q 3378 2753 2422 1800 
Q 2347 1728 2309 1691 
L 1131 513 
L 3078 513 
L 3078 1088 
L 3444 1088 
L 3444 0 
L 434 0 
L 434 341 
L 1850 1753 
Q 2319 2222 2519 2614 
Q 2719 3006 2719 3438 
Q 2719 3909 2473 4175 
Q 2228 4441 1797 4441 
Q 1350 4441 1106 4219 
Q 863 3997 819 3553 
z
" transform="scale(0.015625)"/>
       </defs>
       <use xlink:href="#DejaVuSerif-32"/>
       <use xlink:href="#DejaVuSerif-30" x="63.623047"/>
      </g>
     </g>
    </g>
    <g id="xtick_12">
     <g id="line2d_49">
      <path d="M 172.440715 242.3868 
L 172.440715 172.1848 
" clip-path="url(#p12abf31a8a)" style="fill: none; stroke: #b0b0b0; stroke-width: 0.8; stroke-linecap: round"/>
     </g>
     <g id="line2d_50"/>
     <g id="text_16">
      <!-- 30 -->
      <g style="fill: #262626" transform="translate(167.986965 251.205706) scale(0.07 -0.07)">
       <defs>
        <path id="DejaVuSerif-33" d="M 622 4469 
Q 988 4606 1323 4678 
Q 1659 4750 1953 4750 
Q 2638 4750 3022 4454 
Q 3406 4159 3406 3634 
Q 3406 3213 3140 2930 
Q 2875 2647 2388 2547 
Q 2963 2466 3280 2130 
Q 3597 1794 3597 1259 
Q 3597 606 3158 257 
Q 2719 -91 1894 -91 
Q 1528 -91 1179 -12 
Q 831 66 488 225 
L 488 1131 
L 838 1131 
Q 869 681 1141 450 
Q 1413 219 1906 219 
Q 2384 219 2661 495 
Q 2938 772 2938 1253 
Q 2938 1803 2653 2086 
Q 2369 2369 1819 2369 
L 1522 2369 
L 1522 2688 
L 1678 2688 
Q 2225 2688 2498 2914 
Q 2772 3141 2772 3597 
Q 2772 4006 2547 4223 
Q 2322 4441 1900 4441 
Q 1478 4441 1245 4241 
Q 1013 4041 972 3647 
L 622 3647 
L 622 4469 
z
" transform="scale(0.015625)"/>
       </defs>
       <use xlink:href="#DejaVuSerif-33"/>
       <use xlink:href="#DejaVuSerif-30" x="63.623047"/>
      </g>
     </g>
    </g>
    <g id="text_17">
     <!-- Time [s] -->
     <g style="fill: #262626" transform="translate(112.107734 261.980394) scale(0.07 -0.07)">
      <defs>
       <path id="DejaVuSerif-54" d="M 1222 0 
L 1222 331 
L 1819 331 
L 1819 4294 
L 447 4294 
L 447 3566 
L 63 3566 
L 63 4666 
L 4206 4666 
L 4206 3566 
L 3822 3566 
L 3822 4294 
L 2450 4294 
L 2450 331 
L 3047 331 
L 3047 0 
L 1222 0 
z
" transform="scale(0.015625)"/>
       <path id="DejaVuSerif-5b" d="M 550 4863 
L 2003 4863 
L 2003 4531 
L 1147 4531 
L 1147 -513 
L 2003 -513 
L 2003 -844 
L 550 -844 
L 550 4863 
z
" transform="scale(0.015625)"/>
       <path id="DejaVuSerif-5d" d="M 1947 4863 
L 1947 -844 
L 494 -844 
L 494 -513 
L 1350 -513 
L 1350 4531 
L 494 4531 
L 494 4863 
L 1947 4863 
z
" transform="scale(0.015625)"/>
      </defs>
      <use xlink:href="#DejaVuSerif-54"/>
      <use xlink:href="#DejaVuSerif-69" x="66.699219"/>
      <use xlink:href="#DejaVuSerif-6d" x="98.681641"/>
      <use xlink:href="#DejaVuSerif-65" x="193.505859"/>
      <use xlink:href="#DejaVuSerif-20" x="252.685547"/>
      <use xlink:href="#DejaVuSerif-5b" x="284.472656"/>
      <use xlink:href="#DejaVuSerif-73" x="323.486328"/>
      <use xlink:href="#DejaVuSerif-5d" x="374.804688"/>
     </g>
    </g>
   </g>
   <g id="matplotlib.axis_6">
    <g id="ytick_7">
     <g id="line2d_51">
      <path d="M 43.011719 240.021911 
L 210.171719 240.021911 
" clip-path="url(#p12abf31a8a)" style="fill: none; stroke: #b0b0b0; stroke-width: 0.8; stroke-linecap: round"/>
     </g>
     <g id="line2d_52"/>
     <g id="text_18">
      <!-- −0.04 -->
      <g style="fill: #262626" transform="translate(18.06 242.681364) scale(0.07 -0.07)">
       <defs>
        <path id="DejaVuSerif-2e" d="M 603 325 
Q 603 500 722 622 
Q 841 744 1019 744 
Q 1191 744 1312 622 
Q 1434 500 1434 325 
Q 1434 153 1312 31 
Q 1191 -91 1019 -91 
Q 841 -91 722 29 
Q 603 150 603 325 
z
" transform="scale(0.015625)"/>
        <path id="DejaVuSerif-34" d="M 2234 1581 
L 2234 4063 
L 641 1581 
L 2234 1581 
z
M 3609 0 
L 1484 0 
L 1484 331 
L 2234 331 
L 2234 1247 
L 197 1247 
L 197 1588 
L 2241 4750 
L 2859 4750 
L 2859 1581 
L 3750 1581 
L 3750 1247 
L 2859 1247 
L 2859 331 
L 3609 331 
L 3609 0 
z
" transform="scale(0.015625)"/>
       </defs>
       <use xlink:href="#DejaVuSerif-2212"/>
       <use xlink:href="#DejaVuSerif-30" x="83.789062"/>
       <use xlink:href="#DejaVuSerif-2e" x="147.412109"/>
       <use xlink:href="#DejaVuSerif-30" x="179.199219"/>
       <use xlink:href="#DejaVuSerif-34" x="242.822266"/>
      </g>
     </g>
    </g>
    <g id="ytick_8">
     <g id="line2d_53">
      <path d="M 43.011719 223.707558 
L 210.171719 223.707558 
" clip-path="url(#p12abf31a8a)" style="fill: none; stroke: #b0b0b0; stroke-width: 0.8; stroke-linecap: round"/>
     </g>
     <g id="line2d_54"/>
     <g id="text_19">
      <!-- −0.02 -->
      <g style="fill: #262626" transform="translate(18.06 226.367011) scale(0.07 -0.07)">
       <use xlink:href="#DejaVuSerif-2212"/>
       <use xlink:href="#DejaVuSerif-30" x="83.789062"/>
       <use xlink:href="#DejaVuSerif-2e" x="147.412109"/>
       <use xlink:href="#DejaVuSerif-30" x="179.199219"/>
       <use xlink:href="#DejaVuSerif-32" x="242.822266"/>
      </g>
     </g>
    </g>
    <g id="ytick_9">
     <g id="line2d_55">
      <path d="M 43.011719 207.393204 
L 210.171719 207.393204 
" clip-path="url(#p12abf31a8a)" style="fill: none; stroke: #b0b0b0; stroke-width: 0.8; stroke-linecap: round"/>
     </g>
     <g id="line2d_56"/>
     <g id="text_20">
      <!-- 0.00 -->
      <g style="fill: #262626" transform="translate(23.925781 210.052657) scale(0.07 -0.07)">
       <use xlink:href="#DejaVuSerif-30"/>
       <use xlink:href="#DejaVuSerif-2e" x="63.623047"/>
       <use xlink:href="#DejaVuSerif-30" x="95.410156"/>
       <use xlink:href="#DejaVuSerif-30" x="159.033203"/>
      </g>
     </g>
    </g>
    <g id="ytick_10">
     <g id="line2d_57">
      <path d="M 43.011719 191.07885 
L 210.171719 191.07885 
" clip-path="url(#p12abf31a8a)" style="fill: none; stroke: #b0b0b0; stroke-width: 0.8; stroke-linecap: round"/>
     </g>
     <g id="line2d_58"/>
     <g id="text_21">
      <!-- 0.02 -->
      <g style="fill: #262626" transform="translate(23.925781 193.738303) scale(0.07 -0.07)">
       <use xlink:href="#DejaVuSerif-30"/>
       <use xlink:href="#DejaVuSerif-2e" x="63.623047"/>
       <use xlink:href="#DejaVuSerif-30" x="95.410156"/>
       <use xlink:href="#DejaVuSerif-32" x="159.033203"/>
      </g>
     </g>
    </g>
    <g id="ytick_11">
     <g id="line2d_59">
      <path d="M 43.011719 174.764497 
L 210.171719 174.764497 
" clip-path="url(#p12abf31a8a)" style="fill: none; stroke: #b0b0b0; stroke-width: 0.8; stroke-linecap: round"/>
     </g>
     <g id="line2d_60"/>
     <g id="text_22">
      <!-- 0.04 -->
      <g style="fill: #262626" transform="translate(23.925781 177.42395) scale(0.07 -0.07)">
       <use xlink:href="#DejaVuSerif-30"/>
       <use xlink:href="#DejaVuSerif-2e" x="63.623047"/>
       <use xlink:href="#DejaVuSerif-30" x="95.410156"/>
       <use xlink:href="#DejaVuSerif-34" x="159.033203"/>
      </g>
     </g>
    </g>
    <g id="text_23">
     <!-- $r$ $[rad/s]$ -->
     <g style="fill: #262626" transform="translate(12.604219 221.3908) rotate(-90) scale(0.07 -0.07)">
      <defs>
       <path id="DejaVuSans-Oblique-72" d="M 2853 2969 
Q 2766 3016 2653 3041 
Q 2541 3066 2413 3066 
Q 1953 3066 1609 2717 
Q 1266 2369 1153 1784 
L 800 0 
L 225 0 
L 909 3500 
L 1484 3500 
L 1375 2956 
Q 1603 3259 1920 3421 
Q 2238 3584 2597 3584 
Q 2691 3584 2781 3573 
Q 2872 3563 2963 3538 
L 2853 2969 
z
" transform="scale(0.015625)"/>
       <path id="DejaVuSans-Oblique-61" d="M 3438 1997 
L 3047 0 
L 2472 0 
L 2578 531 
Q 2325 219 2001 64 
Q 1678 -91 1281 -91 
Q 834 -91 548 182 
Q 263 456 263 884 
Q 263 1497 752 1853 
Q 1241 2209 2100 2209 
L 2900 2209 
L 2931 2363 
Q 2938 2388 2941 2417 
Q 2944 2447 2944 2509 
Q 2944 2788 2717 2942 
Q 2491 3097 2081 3097 
Q 1800 3097 1504 3025 
Q 1209 2953 897 2809 
L 997 3341 
Q 1322 3463 1633 3523 
Q 1944 3584 2234 3584 
Q 2853 3584 3176 3315 
Q 3500 3047 3500 2534 
Q 3500 2431 3484 2292 
Q 3469 2153 3438 1997 
z
M 2816 1759 
L 2241 1759 
Q 1534 1759 1195 1570 
Q 856 1381 856 984 
Q 856 709 1029 553 
Q 1203 397 1509 397 
Q 1978 397 2328 733 
Q 2678 1069 2791 1631 
L 2816 1759 
z
" transform="scale(0.015625)"/>
       <path id="DejaVuSans-2f" d="M 1625 4666 
L 2156 4666 
L 531 -594 
L 0 -594 
L 1625 4666 
z
" transform="scale(0.015625)"/>
       <path id="DejaVuSans-Oblique-73" d="M 3200 3397 
L 3091 2853 
Q 2863 2978 2609 3040 
Q 2356 3103 2088 3103 
Q 1634 3103 1373 2948 
Q 1113 2794 1113 2528 
Q 1113 2219 1719 2053 
Q 1766 2041 1788 2034 
L 1972 1978 
Q 2547 1819 2739 1644 
Q 2931 1469 2931 1166 
Q 2931 609 2489 259 
Q 2047 -91 1331 -91 
Q 1053 -91 747 -37 
Q 441 16 72 128 
L 184 722 
Q 500 559 806 475 
Q 1113 391 1394 391 
Q 1816 391 2080 572 
Q 2344 753 2344 1031 
Q 2344 1331 1650 1516 
L 1591 1531 
L 1394 1581 
Q 956 1697 753 1886 
Q 550 2075 550 2369 
Q 550 2928 970 3256 
Q 1391 3584 2113 3584 
Q 2397 3584 2667 3537 
Q 2938 3491 3200 3397 
z
" transform="scale(0.015625)"/>
      </defs>
      <use xlink:href="#DejaVuSans-Oblique-72" transform="translate(0 0.015625)"/>
      <use xlink:href="#DejaVuSerif-20" transform="translate(41.113281 0.015625)"/>
      <use xlink:href="#DejaVuSans-5b" transform="translate(72.900391 0.015625)"/>
      <use xlink:href="#DejaVuSans-Oblique-72" transform="translate(111.914062 0.015625)"/>
      <use xlink:href="#DejaVuSans-Oblique-61" transform="translate(153.027344 0.015625)"/>
      <use xlink:href="#DejaVuSans-Oblique-64" transform="translate(214.306641 0.015625)"/>
      <use xlink:href="#DejaVuSans-2f" transform="translate(277.783203 0.015625)"/>
      <use xlink:href="#DejaVuSans-Oblique-73" transform="translate(311.474609 0.015625)"/>
      <use xlink:href="#DejaVuSans-5d" transform="translate(363.574219 0.015625)"/>
     </g>
    </g>
   </g>
   <g id="line2d_61">
    <path d="M 50.609901 207.393204 
L 50.975393 207.503185 
L 51.381496 207.873718 
L 51.868819 208.637812 
L 52.477973 210.067062 
L 53.208958 212.407075 
L 54.711538 217.47781 
L 55.889236 220.600377 
L 57.148154 223.288321 
L 58.488293 225.57912 
L 59.869042 227.500994 
L 61.371623 229.156342 
L 62.874203 230.498887 
L 64.539224 231.747586 
L 66.447906 232.892209 
L 68.234758 233.722592 
L 72.539447 235.37712 
L 75.544607 236.186502 
L 78.630988 236.809599 
L 79.077701 236.502057 
L 79.524414 235.888776 
L 80.133568 234.594865 
L 80.823943 232.585173 
L 81.676758 229.334377 
L 82.692015 224.497881 
L 83.869713 217.784205 
L 84.92558 212.228731 
L 86.022057 207.591455 
L 87.199755 203.562037 
L 88.458674 200.070384 
L 89.758202 197.110307 
L 91.220172 194.392733 
L 92.479091 192.49504 
L 94.144112 190.424598 
L 95.930964 188.611315 
L 97.636595 187.2171 
L 99.301616 186.086513 
L 101.860063 184.617642 
L 104.865223 183.180416 
L 107.748553 181.993165 
L 112.053242 180.4341 
L 114.936571 179.64159 
L 119.687973 178.584461 
L 128.33796 176.889856 
L 135.68842 175.77713 
L 139.343344 175.493307 
L 139.749447 175.85985 
L 140.23677 176.632444 
L 140.845924 178.041457 
L 141.576909 180.349325 
L 142.470335 183.954831 
L 143.526202 189.21982 
L 146.16587 203.208132 
L 147.302957 207.507808 
L 148.480655 211.119051 
L 149.780184 214.375331 
L 151.079713 217.036577 
L 152.541682 219.523192 
L 153.800601 221.316299 
L 155.384401 223.162946 
L 157.211864 224.976065 
L 159.079936 226.445896 
L 161.638383 228.184354 
L 165.740021 230.341768 
L 173.13109 233.379632 
L 180.806431 235.600213 
L 192.014866 237.836298 
L 194.654534 238.238726 
L 202.045603 239.1958 
L 202.045603 239.1958 
" clip-path="url(#p12abf31a8a)" style="fill: none; stroke: #0000ff; stroke-width: 0.6; stroke-linecap: round"/>
   </g>
   <g id="line2d_62">
    <path d="M 50.609901 207.393204 
L 50.975393 207.503149 
L 51.381496 207.873372 
L 51.868819 208.636321 
L 52.477973 210.062337 
L 53.208958 212.394713 
L 54.670928 217.307939 
L 55.848626 220.399296 
L 57.107544 223.058125 
L 58.285242 225.058096 
L 59.584771 226.82835 
L 61.00613 228.38629 
L 62.386879 229.567747 
L 64.295562 230.885834 
L 66.123024 231.835374 
L 68.47842 232.840573 
L 71.321139 233.696255 
L 76.275592 234.734363 
L 79.361973 235.147563 
L 79.727465 234.872247 
L 80.214789 234.203628 
L 80.823943 232.936113 
L 81.514317 230.929483 
L 82.367133 227.684081 
L 83.341779 223.065327 
L 84.600698 215.934732 
L 85.656565 210.388045 
L 86.753042 205.747022 
L 87.93074 201.709839 
L 89.108438 198.450619 
L 90.367356 195.619571 
L 91.666885 193.227641 
L 92.966414 191.2879 
L 94.428384 189.549722 
L 95.930964 188.113607 
L 97.636595 186.802612 
L 99.626498 185.569022 
L 102.509828 184.195868 
L 104.174849 183.577671 
L 109.982118 181.741783 
L 115.626945 180.555325 
L 121.352994 179.668839 
L 125.3328 179.153994 
L 135.72903 178.20322 
L 139.952498 177.826034 
L 140.317991 177.895127 
L 140.724093 178.214631 
L 141.252027 178.966748 
L 141.820571 180.218973 
L 142.510945 182.304801 
L 143.363761 185.61522 
L 144.379018 190.484207 
L 145.637936 197.704144 
L 146.693803 203.219582 
L 147.830891 207.980185 
L 149.008589 211.94836 
L 150.186287 215.185963 
L 151.445205 218.000914 
L 152.704123 220.299229 
L 154.044262 222.354059 
L 155.506232 224.136408 
L 157.252474 225.857908 
L 159.120546 227.284943 
L 161.11045 228.498111 
L 163.790728 229.789177 
L 167.08016 231.01482 
L 171.953392 232.638424 
L 174.999163 233.363567 
L 178.572866 234.098198 
L 182.918165 234.86313 
L 189.334588 235.709055 
L 196.928709 236.263216 
L 199.121664 236.483876 
L 202.573537 236.745831 
L 202.573537 236.745831 
" clip-path="url(#p12abf31a8a)" style="fill: none; stroke: #008000; stroke-width: 0.6; stroke-linecap: round"/>
   </g>
   <g id="line2d_63">
    <path d="M 50.609901 207.393204 
L 50.975393 207.515611 
L 51.381496 207.919672 
L 51.868819 208.75694 
L 52.477973 210.273111 
L 53.290178 212.984222 
L 54.508487 217.211812 
L 55.726795 220.625328 
L 56.945103 223.391012 
L 58.204021 225.703672 
L 59.54416 227.709166 
L 60.92491 229.36189 
L 62.4681 230.85226 
L 64.01129 232.039117 
L 65.798142 233.125517 
L 67.869266 234.105622 
L 70.02161 234.907493 
L 72.823719 235.696159 
L 75.9101 236.311585 
L 78.184275 236.582126 
L 78.549767 236.34571 
L 78.99648 235.762629 
L 79.524414 234.659314 
L 80.174178 232.752887 
L 80.986384 229.624063 
L 81.96103 224.891123 
L 83.219949 217.612777 
L 84.519477 210.221677 
L 85.656565 205.074171 
L 86.834263 200.759893 
L 88.011961 197.272093 
L 89.230269 194.344363 
L 90.529798 191.801535 
L 91.910547 189.600377 
L 93.331906 187.748981 
L 94.956317 186.02583 
L 96.580728 184.629538 
L 98.36758 183.388619 
L 100.641755 182.135171 
L 102.997151 181.093672 
L 105.433767 180.259062 
L 108.398317 179.483176 
L 113.027888 178.525064 
L 116.967084 177.947753 
L 121.759096 177.456349 
L 128.825284 177.014551 
L 135.68842 176.838998 
L 136.053912 176.944938 
L 136.460015 177.321737 
L 136.947338 178.094559 
L 137.515882 179.452781 
L 138.246867 181.840623 
L 139.099682 185.456033 
L 140.155549 190.955989 
L 143.20132 207.593725 
L 144.338407 211.978775 
L 145.516105 215.660879 
L 146.775024 218.859209 
L 148.033942 221.465936 
L 149.374081 223.724682 
L 150.71422 225.576181 
L 152.2168 227.283049 
L 153.922432 228.881931 
L 155.668673 230.21842 
L 157.739797 231.51742 
L 160.095193 232.717441 
L 162.531809 233.711533 
L 165.496359 234.65192 
L 168.62335 235.409034 
L 173.009259 236.205989 
L 178.288595 236.921419 
L 182.918165 237.32332 
L 189.862522 237.684967 
L 194.654534 237.820061 
L 194.654534 237.820061 
" clip-path="url(#p12abf31a8a)" style="fill: none; stroke: #ff0000; stroke-width: 0.6; stroke-linecap: round"/>
   </g>
   <g id="patch_9">
    <path d="M 43.011719 242.3868 
L 43.011719 172.1848 
" style="fill: none; stroke: #000000; stroke-linejoin: miter; stroke-linecap: square"/>
   </g>
   <g id="patch_10">
    <path d="M 43.011719 242.3868 
L 210.171719 242.3868 
" style="fill: none; stroke: #000000; stroke-linejoin: miter; stroke-linecap: square"/>
   </g>
  </g>
 </g>
 <defs>
  <clipPath id="pa7a21d870b">
   <rect x="43.011719" y="31.7808" width="167.16" height="70.202"/>
  </clipPath>
  <clipPath id="p91d85b9bef">
   <rect x="43.011719" y="101.9828" width="167.16" height="70.202"/>
  </clipPath>
  <clipPath id="p12abf31a8a">
   <rect x="43.011719" y="172.1848" width="167.16" height="70.202"/>
  </clipPath>
 </defs>
</svg>
