<?xml version="1.0" encoding="utf-8" standalone="no"?>
<!DOCTYPE svg PUBLIC "-//W3C//DTD SVG 1.1//EN"
  "http://www.w3.org/Graphics/SVG/1.1/DTD/svg11.dtd">
<svg xmlns:xlink="http://www.w3.org/1999/xlink" width="388.971094pt" height="220.174743pt" viewBox="0 0 388.971094 220.174743" xmlns="http://www.w3.org/2000/svg" version="1.1">
 <metadata>
  <rdf:RDF xmlns:dc="http://purl.org/dc/elements/1.1/" xmlns:cc="http://creativecommons.org/ns#" xmlns:rdf="http://www.w3.org/1999/02/22-rdf-syntax-ns#">
   <cc:Work>
    <dc:type rdf:resource="http://purl.org/dc/dcmitype/StillImage"/>
    <dc:date>2024-02-13T12:25:41.320232</dc:date>
    <dc:format>image/svg+xml</dc:format>
    <dc:creator>
     <cc:Agent>
      <dc:title>Matplotlib v3.8.2, https://matplotlib.org/</dc:title>
     </cc:Agent>
    </dc:creator>
   </cc:Work>
  </rdf:RDF>
 </metadata>
 <defs>
  <style type="text/css">*{stroke-linejoin: round; stroke-linecap: butt}</style>
 </defs>
 <g id="figure_1">
  <g id="patch_1">
   <path d="M -0 220.174743 
L 388.971094 220.174743 
L 388.971094 0 
L -0 0 
z
" style="fill: #ffffff"/>
  </g>
  <g id="axes_1">
   <g id="patch_2">
    <path d="M 50.991094 67.484706 
L 381.771094 67.484706 
L 381.771094 7.2 
L 50.991094 7.2 
z
" style="fill: #ffffff"/>
   </g>
   <g id="line2d_1">
    <path d="M 66.026548 37.532734 
L 68.242806 37.70779 
L 70.602048 38.116292 
L 72.96129 38.744839 
L 75.24904 39.579254 
L 79.896032 41.648112 
L 84.257055 43.798445 
L 90.905828 47.097157 
L 95.266851 48.928762 
L 106.491124 53.377161 
L 111.495577 54.938646 
L 117.000475 56.447699 
L 118.859271 56.756115 
L 120.861053 56.866651 
L 122.862834 56.763345 
L 124.936107 56.433912 
L 127.00938 55.878694 
L 129.225638 55.049001 
L 131.370403 54.008092 
L 133.515169 52.727796 
L 135.802919 51.098597 
L 150.816277 39.627204 
L 154.462378 37.252706 
L 159.252355 34.422447 
L 164.256808 31.710452 
L 167.759925 30.075138 
L 172.120948 28.320918 
L 180.985978 24.980017 
L 185.918939 23.407037 
L 195.641876 20.633881 
L 201.146774 19.236202 
L 209.797328 17.350865 
L 216.08864 16.231272 
L 224.953671 14.805554 
L 232.889303 13.815778 
L 238.966139 13.271702 
L 242.540748 13.157226 
L 244.471037 13.293906 
L 246.901771 13.706695 
L 249.618474 14.401132 
L 251.906224 15.202935 
L 253.979497 16.155828 
L 256.124263 17.392685 
L 258.412012 18.970762 
L 261.057223 21.077816 
L 270.279715 28.745717 
L 274.855214 32.33052 
L 278.429824 34.849333 
L 282.504878 37.436103 
L 287.008886 40.039741 
L 291.298416 42.26708 
L 295.087502 43.984687 
L 299.59151 45.76667 
L 307.670126 48.713028 
L 313.246517 50.440953 
L 322.611993 53.133152 
L 327.973906 54.490997 
L 337.196398 56.497365 
L 342.987265 57.543651 
L 351.423342 58.82403 
L 361.146279 60.006634 
L 366.722669 60.561422 
L 366.722669 60.561422 
" clip-path="url(#pd0d74ee9cb)" style="fill: none; stroke: #000000; stroke-width: 0.75; stroke-linecap: round"/>
   </g>
   <g id="matplotlib.axis_1">
    <g id="xtick_1">
     <g id="line2d_2">
      <path d="M 66.026548 67.484706 
L 66.026548 7.2 
" clip-path="url(#pd0d74ee9cb)" style="fill: none; stroke: #b0b0b0; stroke-width: 0.8; stroke-linecap: round"/>
     </g>
     <g id="line2d_3"/>
    </g>
    <g id="xtick_2">
     <g id="line2d_4">
      <path d="M 138.00096 67.484706 
L 138.00096 7.2 
" clip-path="url(#pd0d74ee9cb)" style="fill: none; stroke: #b0b0b0; stroke-width: 0.8; stroke-linecap: round"/>
     </g>
     <g id="line2d_5"/>
    </g>
    <g id="xtick_3">
     <g id="line2d_6">
      <path d="M 209.975371 67.484706 
L 209.975371 7.2 
" clip-path="url(#pd0d74ee9cb)" style="fill: none; stroke: #b0b0b0; stroke-width: 0.8; stroke-linecap: round"/>
     </g>
     <g id="line2d_7"/>
    </g>
    <g id="xtick_4">
     <g id="line2d_8">
      <path d="M 281.949783 67.484706 
L 281.949783 7.2 
" clip-path="url(#pd0d74ee9cb)" style="fill: none; stroke: #b0b0b0; stroke-width: 0.8; stroke-linecap: round"/>
     </g>
     <g id="line2d_9"/>
    </g>
    <g id="xtick_5">
     <g id="line2d_10">
      <path d="M 353.924194 67.484706 
L 353.924194 7.2 
" clip-path="url(#pd0d74ee9cb)" style="fill: none; stroke: #b0b0b0; stroke-width: 0.8; stroke-linecap: round"/>
     </g>
     <g id="line2d_11"/>
    </g>
   </g>
   <g id="matplotlib.axis_2">
    <g id="ytick_1">
     <g id="line2d_12">
      <path d="M 50.991094 56.240157 
L 381.771094 56.240157 
" clip-path="url(#pd0d74ee9cb)" style="fill: none; stroke: #b0b0b0; stroke-width: 0.8; stroke-linecap: round"/>
     </g>
     <g id="line2d_13"/>
     <g id="text_1">
      <!-- −10 -->
      <g style="fill: #262626" transform="translate(28.496875 59.659454) scale(0.09 -0.09)">
       <defs>
        <path id="DejaVuSerif-2212" d="M 678 2259 
L 4684 2259 
L 4684 1753 
L 678 1753 
L 678 2259 
z
" transform="scale(0.015625)"/>
        <path id="DejaVuSerif-31" d="M 909 0 
L 909 331 
L 1722 331 
L 1722 4213 
L 781 3603 
L 781 4013 
L 1919 4750 
L 2350 4750 
L 2350 331 
L 3163 331 
L 3163 0 
L 909 0 
z
" transform="scale(0.015625)"/>
        <path id="DejaVuSerif-30" d="M 2034 219 
Q 2513 219 2750 744 
Q 2988 1269 2988 2328 
Q 2988 3391 2750 3916 
Q 2513 4441 2034 4441 
Q 1556 4441 1318 3916 
Q 1081 3391 1081 2328 
Q 1081 1269 1318 744 
Q 1556 219 2034 219 
z
M 2034 -91 
Q 1275 -91 848 546 
Q 422 1184 422 2328 
Q 422 3475 848 4112 
Q 1275 4750 2034 4750 
Q 2797 4750 3222 4112 
Q 3647 3475 3647 2328 
Q 3647 1184 3222 546 
Q 2797 -91 2034 -91 
z
" transform="scale(0.015625)"/>
       </defs>
       <use xlink:href="#DejaVuSerif-2212"/>
       <use xlink:href="#DejaVuSerif-31" x="83.789062"/>
       <use xlink:href="#DejaVuSerif-30" x="147.412109"/>
      </g>
     </g>
    </g>
    <g id="ytick_2">
     <g id="line2d_14">
      <path d="M 50.991094 37.456503 
L 381.771094 37.456503 
" clip-path="url(#pd0d74ee9cb)" style="fill: none; stroke: #b0b0b0; stroke-width: 0.8; stroke-linecap: round"/>
     </g>
     <g id="line2d_15"/>
     <g id="text_2">
      <!-- 0 -->
      <g style="fill: #262626" transform="translate(41.764844 40.8758) scale(0.09 -0.09)">
       <use xlink:href="#DejaVuSerif-30"/>
      </g>
     </g>
    </g>
    <g id="ytick_3">
     <g id="line2d_16">
      <path d="M 50.991094 18.672849 
L 381.771094 18.672849 
" clip-path="url(#pd0d74ee9cb)" style="fill: none; stroke: #b0b0b0; stroke-width: 0.8; stroke-linecap: round"/>
     </g>
     <g id="line2d_17"/>
     <g id="text_3">
      <!-- 10 -->
      <g style="fill: #262626" transform="translate(36.038594 22.092146) scale(0.09 -0.09)">
       <use xlink:href="#DejaVuSerif-31"/>
       <use xlink:href="#DejaVuSerif-30" x="63.623047"/>
      </g>
     </g>
    </g>
    <g id="text_4">
     <!-- $\beta$ $[deg]$ -->
     <g style="fill: #262626" transform="translate(22.606875 53.677353) rotate(-90) scale(0.09 -0.09)">
      <defs>
       <path id="DejaVuSans-Oblique-3b2" d="M 872 216 
L 572 -1331 
L -6 -1331 
L 928 3478 
Q 1206 4903 2538 4903 
Q 3888 4903 3659 3700 
Q 3503 2844 2894 2531 
Q 3713 2250 3553 1416 
Q 3272 -69 1759 -66 
Q 1097 -63 872 216 
z
M 1019 966 
Q 1259 422 1875 425 
Q 2775 425 2966 1406 
Q 3138 2288 1675 2219 
L 1778 2750 
Q 2909 2731 3106 3750 
Q 3241 4438 2509 4434 
Q 1691 4434 1503 3459 
L 1019 966 
z
" transform="scale(0.015625)"/>
       <path id="DejaVuSerif-20" transform="scale(0.015625)"/>
       <path id="DejaVuSans-5b" d="M 550 4863 
L 1875 4863 
L 1875 4416 
L 1125 4416 
L 1125 -397 
L 1875 -397 
L 1875 -844 
L 550 -844 
L 550 4863 
z
" transform="scale(0.015625)"/>
       <path id="DejaVuSans-Oblique-64" d="M 2675 525 
Q 2444 222 2128 65 
Q 1813 -91 1428 -91 
Q 903 -91 598 267 
Q 294 625 294 1247 
Q 294 1766 478 2236 
Q 663 2706 1013 3078 
Q 1244 3325 1534 3454 
Q 1825 3584 2144 3584 
Q 2481 3584 2739 3421 
Q 2997 3259 3138 2956 
L 3513 4863 
L 4091 4863 
L 3144 0 
L 2566 0 
L 2675 525 
z
M 891 1350 
Q 891 897 1095 644 
Q 1300 391 1663 391 
Q 1931 391 2161 520 
Q 2391 650 2566 903 
Q 2750 1166 2856 1509 
Q 2963 1853 2963 2188 
Q 2963 2622 2758 2865 
Q 2553 3109 2194 3109 
Q 1922 3109 1687 2981 
Q 1453 2853 1288 2613 
Q 1106 2353 998 2009 
Q 891 1666 891 1350 
z
" transform="scale(0.015625)"/>
       <path id="DejaVuSans-Oblique-65" d="M 3078 2063 
Q 3088 2113 3092 2166 
Q 3097 2219 3097 2272 
Q 3097 2653 2873 2875 
Q 2650 3097 2266 3097 
Q 1838 3097 1509 2826 
Q 1181 2556 1013 2059 
L 3078 2063 
z
M 3578 1613 
L 903 1613 
Q 884 1494 878 1425 
Q 872 1356 872 1306 
Q 872 872 1139 634 
Q 1406 397 1894 397 
Q 2269 397 2603 481 
Q 2938 566 3225 728 
L 3116 159 
Q 2806 34 2476 -28 
Q 2147 -91 1806 -91 
Q 1078 -91 686 257 
Q 294 606 294 1247 
Q 294 1794 489 2264 
Q 684 2734 1063 3103 
Q 1306 3334 1642 3459 
Q 1978 3584 2356 3584 
Q 2950 3584 3301 3228 
Q 3653 2872 3653 2272 
Q 3653 2128 3634 1964 
Q 3616 1800 3578 1613 
z
" transform="scale(0.015625)"/>
       <path id="DejaVuSans-Oblique-67" d="M 3816 3500 
L 3219 434 
Q 3047 -456 2561 -893 
Q 2075 -1331 1253 -1331 
Q 950 -1331 690 -1286 
Q 431 -1241 206 -1147 
L 313 -588 
Q 525 -725 762 -790 
Q 1000 -856 1269 -856 
Q 1816 -856 2167 -557 
Q 2519 -259 2631 300 
L 2681 563 
Q 2441 288 2122 144 
Q 1803 0 1434 0 
Q 903 0 598 351 
Q 294 703 294 1319 
Q 294 1803 478 2267 
Q 663 2731 997 3091 
Q 1219 3328 1514 3456 
Q 1809 3584 2131 3584 
Q 2484 3584 2746 3420 
Q 3009 3256 3138 2956 
L 3238 3500 
L 3816 3500 
z
M 2950 2216 
Q 2950 2641 2750 2872 
Q 2550 3103 2181 3103 
Q 1953 3103 1747 3012 
Q 1541 2922 1394 2759 
Q 1156 2491 1023 2127 
Q 891 1763 891 1375 
Q 891 944 1092 712 
Q 1294 481 1672 481 
Q 2219 481 2584 976 
Q 2950 1472 2950 2216 
z
" transform="scale(0.015625)"/>
       <path id="DejaVuSans-5d" d="M 1947 4863 
L 1947 -844 
L 622 -844 
L 622 -397 
L 1369 -397 
L 1369 4416 
L 622 4416 
L 622 4863 
L 1947 4863 
z
" transform="scale(0.015625)"/>
      </defs>
      <use xlink:href="#DejaVuSans-Oblique-3b2" transform="translate(0 0.390625)"/>
      <use xlink:href="#DejaVuSerif-20" transform="translate(63.818359 0.390625)"/>
      <use xlink:href="#DejaVuSans-5b" transform="translate(95.605469 0.390625)"/>
      <use xlink:href="#DejaVuSans-Oblique-64" transform="translate(134.619141 0.390625)"/>
      <use xlink:href="#DejaVuSans-Oblique-65" transform="translate(198.095703 0.390625)"/>
      <use xlink:href="#DejaVuSans-Oblique-67" transform="translate(259.619141 0.390625)"/>
      <use xlink:href="#DejaVuSans-5d" transform="translate(323.095703 0.390625)"/>
     </g>
    </g>
   </g>
   <g id="line2d_18">
    <path d="M 66.026548 37.456503 
L 68.401704 37.567157 
L 70.632911 37.892321 
L 72.720169 38.412692 
L 74.879401 39.178472 
L 78.550096 40.778998 
L 93.880646 47.522691 
L 100.502291 50.134445 
L 107.123937 52.530286 
L 114.17743 54.853007 
L 119.791434 56.500897 
L 121.878692 56.858019 
L 123.822001 56.970903 
L 125.837284 56.862315 
L 127.852568 56.523298 
L 129.867851 55.961425 
L 131.955109 55.148078 
L 134.114341 54.068504 
L 136.417523 52.665075 
L 140.44809 49.874646 
L 150.596482 42.896002 
L 156.426409 39.194891 
L 161.82449 36.033894 
L 167.87034 32.763629 
L 173.196447 30.136107 
L 178.810451 27.614269 
L 185.216174 24.982565 
L 191.621896 22.595287 
L 198.459465 20.285676 
L 205.800855 18.039795 
L 213.790015 15.842925 
L 221.923123 13.83496 
L 230.056232 12.034788 
L 239.412905 10.177594 
L 241.356215 9.964961 
L 243.227549 9.969923 
L 245.242833 10.203164 
L 247.258116 10.667614 
L 249.345374 11.378537 
L 251.576581 12.387897 
L 253.879762 13.680308 
L 256.254918 15.270745 
L 259.997587 18.119242 
L 272.305211 27.396634 
L 278.135139 31.454042 
L 283.245322 34.73585 
L 289.003275 38.160621 
L 294.905177 41.401407 
L 300.159309 44.052242 
L 305.917262 46.70082 
L 311.891138 49.211283 
L 318.224886 51.647156 
L 324.918506 53.994398 
L 332.619768 56.44593 
L 339.601286 58.447927 
L 347.806369 60.576846 
L 356.371324 62.586217 
L 365.152202 64.433833 
L 366.735639 64.744492 
L 366.735639 64.744492 
" clip-path="url(#pd0d74ee9cb)" style="fill: none; stroke: #0000ff; stroke-width: 0.75; stroke-linecap: round"/>
   </g>
   <g id="line2d_19">
    <path d="M 66.026548 37.456503 
L 68.401704 37.567003 
L 70.632911 37.891173 
L 72.792143 38.430732 
L 74.951375 39.198585 
L 79.053917 40.970792 
L 91.289567 46.22724 
L 98.19911 48.87724 
L 104.316935 50.991927 
L 111.154504 53.112079 
L 117.992073 55.008001 
L 121.662768 55.863245 
L 123.750026 56.088429 
L 125.76531 56.079404 
L 127.780593 55.846952 
L 129.867851 55.377227 
L 131.955109 54.676844 
L 134.114341 53.716064 
L 136.345548 52.475808 
L 138.864653 50.806073 
L 153.115586 40.900738 
L 158.297744 37.682229 
L 163.192004 34.899166 
L 168.590085 32.086115 
L 173.556319 29.747012 
L 179.026374 27.419724 
L 184.640378 25.270494 
L 190.902152 23.118322 
L 197.523798 21.084197 
L 204.433341 19.204989 
L 212.134603 17.343127 
L 220.627584 15.524312 
L 229.912283 13.769761 
L 239.772777 12.121231 
L 242.291882 11.835026 
L 244.307165 11.848268 
L 246.394423 12.091808 
L 248.481681 12.576214 
L 250.640914 13.31676 
L 252.87212 14.32578 
L 255.175302 15.617798 
L 257.478483 17.156685 
L 260.717331 19.628032 
L 271.873365 28.206154 
L 277.34342 32.088253 
L 281.949783 35.103595 
L 287.059966 38.178007 
L 292.314098 41.078616 
L 297.712179 43.799875 
L 302.894336 46.15359 
L 308.292417 48.349545 
L 314.194319 50.52586 
L 320.672016 52.664724 
L 327.941431 54.815567 
L 335.066898 56.682267 
L 343.41593 58.62261 
L 352.340757 60.468362 
L 361.121635 62.060228 
L 366.159844 62.894667 
L 366.159844 62.894667 
" clip-path="url(#pd0d74ee9cb)" style="fill: none; stroke: #008000; stroke-width: 0.75; stroke-linecap: round"/>
   </g>
   <g id="line2d_20">
    <path d="M 66.026548 37.456503 
L 68.689602 37.569607 
L 70.920808 37.884918 
L 72.936092 38.391776 
L 74.879401 39.117005 
L 77.614429 40.440262 
L 86.755179 44.790412 
L 93.520773 47.77011 
L 99.782547 50.281999 
L 105.972347 52.523343 
L 112.593992 54.681795 
L 118.351945 56.337875 
L 120.295255 56.657636 
L 122.238564 56.750681 
L 124.109898 56.621218 
L 125.981233 56.275099 
L 127.924542 55.688495 
L 129.939826 54.841347 
L 132.027084 53.718301 
L 134.114341 52.344963 
L 136.345548 50.613183 
L 143.471015 44.790717 
L 148.437249 41.058702 
L 153.043612 37.868573 
L 157.649974 34.949056 
L 162.256336 32.292692 
L 167.006648 29.812721 
L 171.972882 27.471748 
L 177.298988 25.2069 
L 182.769044 23.122586 
L 188.74292 21.084136 
L 195.076668 19.161665 
L 201.842263 17.339691 
L 209.327601 15.559701 
L 217.172812 13.924476 
L 225.665793 12.380233 
L 232.647311 11.296216 
L 234.59062 11.258136 
L 236.461955 11.441837 
L 238.405264 11.865573 
L 240.348573 12.524549 
L 242.363856 13.448582 
L 244.451114 14.652395 
L 246.682321 16.202172 
L 248.985502 18.073693 
L 251.72053 20.604534 
L 256.61479 25.057415 
L 261.365101 29.095815 
L 265.75554 32.542355 
L 270.074005 35.653465 
L 274.464444 38.539657 
L 278.926857 41.206726 
L 283.605194 43.742718 
L 288.499454 46.139052 
L 293.537663 48.358518 
L 298.935744 50.488442 
L 304.981594 52.630893 
L 311.099419 54.557613 
L 317.865014 56.450913 
L 325.062455 58.236663 
L 332.907666 59.942022 
L 341.688544 61.623166 
L 350.829294 63.147522 
L 351.764962 63.290272 
L 351.764962 63.290272 
" clip-path="url(#pd0d74ee9cb)" style="fill: none; stroke: #ff0000; stroke-width: 0.75; stroke-linecap: round"/>
   </g>
   <g id="patch_3">
    <path d="M 50.991094 67.484706 
L 50.991094 7.2 
" style="fill: none; stroke: #000000; stroke-linejoin: miter; stroke-linecap: square"/>
   </g>
   <g id="patch_4">
    <path d="M 50.991094 67.484706 
L 381.771094 67.484706 
" style="fill: none; stroke: #000000; stroke-linejoin: miter; stroke-linecap: square"/>
   </g>
  </g>
  <g id="axes_2">
   <g id="patch_5">
    <path d="M 50.991094 127.769412 
L 381.771094 127.769412 
L 381.771094 67.484706 
L 50.991094 67.484706 
z
" style="fill: #ffffff"/>
   </g>
   <g id="line2d_21">
    <path d="M 66.026548 98.067828 
L 70.602048 98.156147 
L 73.747704 98.437443 
L 76.535899 98.908563 
L 79.395586 99.630514 
L 82.684227 100.70169 
L 86.544805 102.193387 
L 90.691351 104.049374 
L 96.768187 107.033612 
L 102.702038 110.208072 
L 113.354373 116.163157 
L 121.718959 120.84976 
L 124.793123 122.305023 
L 127.438333 123.321444 
L 130.012052 124.076099 
L 132.442786 124.55623 
L 134.730536 124.785374 
L 137.089778 124.79683 
L 139.734989 124.575662 
L 142.737661 124.095074 
L 146.31227 123.28873 
L 150.530308 122.105621 
L 155.034316 120.598334 
L 160.896675 118.381623 
L 166.902018 115.860627 
L 176.553463 111.567602 
L 186.490876 106.845632 
L 200.717821 99.731174 
L 214.801781 92.452314 
L 245.614912 76.580195 
L 249.403997 74.935278 
L 252.335177 73.902947 
L 254.980388 73.204805 
L 257.554106 72.753892 
L 260.056333 72.535689 
L 262.558559 72.540407 
L 265.418246 72.777738 
L 268.635395 73.270555 
L 272.495972 74.102506 
L 277.357441 75.390759 
L 281.789956 76.786024 
L 288.081268 79.030336 
L 294.730041 81.636095 
L 305.096408 85.918321 
L 315.391282 90.462509 
L 327.258984 96.008298 
L 341.485929 102.917833 
L 356.999733 110.559556 
L 366.722669 115.349198 
L 366.722669 115.349198 
" clip-path="url(#p5d6371e2c6)" style="fill: none; stroke: #000000; stroke-width: 0.75; stroke-linecap: round"/>
   </g>
   <g id="line2d_22">
    <path d="M 66.026548 98.221239 
L 67.885345 102.094228 
L 73.747704 114.085569 
L 73.819196 114.085569 
L 75.677993 117.814686 
L 116.643014 117.711976 
L 122.719849 105.214393 
L 127.00938 96.436694 
L 127.581318 95.388818 
L 128.582208 93.352305 
L 129.511607 91.473513 
L 130.726974 88.988076 
L 131.298911 87.780171 
L 131.799357 86.794613 
L 133.2292 83.844479 
L 133.87263 82.50155 
L 135.945903 78.426602 
L 136.803809 78.479689 
L 242.183287 78.569705 
L 243.541638 81.413666 
L 246.54431 87.413184 
L 255.123372 104.973966 
L 255.194864 104.973966 
L 258.769473 112.2941 
L 259.412903 113.632027 
L 261.629161 117.813917 
L 273.06791 117.801607 
L 366.722669 117.801607 
L 366.722669 117.801607 
" clip-path="url(#p5d6371e2c6)" style="fill: none; stroke-dasharray: 2.775,1.2; stroke-dashoffset: 0; stroke: #808080; stroke-width: 0.75"/>
   </g>
   <g id="matplotlib.axis_3">
    <g id="xtick_6">
     <g id="line2d_23">
      <path d="M 66.026548 127.769412 
L 66.026548 67.484706 
" clip-path="url(#p5d6371e2c6)" style="fill: none; stroke: #b0b0b0; stroke-width: 0.8; stroke-linecap: round"/>
     </g>
     <g id="line2d_24"/>
    </g>
    <g id="xtick_7">
     <g id="line2d_25">
      <path d="M 138.00096 127.769412 
L 138.00096 67.484706 
" clip-path="url(#p5d6371e2c6)" style="fill: none; stroke: #b0b0b0; stroke-width: 0.8; stroke-linecap: round"/>
     </g>
     <g id="line2d_26"/>
    </g>
    <g id="xtick_8">
     <g id="line2d_27">
      <path d="M 209.975371 127.769412 
L 209.975371 67.484706 
" clip-path="url(#p5d6371e2c6)" style="fill: none; stroke: #b0b0b0; stroke-width: 0.8; stroke-linecap: round"/>
     </g>
     <g id="line2d_28"/>
    </g>
    <g id="xtick_9">
     <g id="line2d_29">
      <path d="M 281.949783 127.769412 
L 281.949783 67.484706 
" clip-path="url(#p5d6371e2c6)" style="fill: none; stroke: #b0b0b0; stroke-width: 0.8; stroke-linecap: round"/>
     </g>
     <g id="line2d_30"/>
    </g>
    <g id="xtick_10">
     <g id="line2d_31">
      <path d="M 353.924194 127.769412 
L 353.924194 67.484706 
" clip-path="url(#p5d6371e2c6)" style="fill: none; stroke: #b0b0b0; stroke-width: 0.8; stroke-linecap: round"/>
     </g>
     <g id="line2d_32"/>
    </g>
   </g>
   <g id="matplotlib.axis_4">
    <g id="ytick_4">
     <g id="line2d_33">
      <path d="M 50.991094 122.717451 
L 381.771094 122.717451 
" clip-path="url(#p5d6371e2c6)" style="fill: none; stroke: #b0b0b0; stroke-width: 0.8; stroke-linecap: round"/>
     </g>
     <g id="line2d_34"/>
     <g id="text_5">
      <!-- −25 -->
      <g style="fill: #262626" transform="translate(28.496875 126.136748) scale(0.09 -0.09)">
       <defs>
        <path id="DejaVuSerif-32" d="M 819 3553 
L 469 3553 
L 469 4384 
Q 803 4563 1142 4656 
Q 1481 4750 1806 4750 
Q 2534 4750 2956 4397 
Q 3378 4044 3378 3438 
Q 3378 2753 2422 1800 
Q 2347 1728 2309 1691 
L 1131 513 
L 3078 513 
L 3078 1088 
L 3444 1088 
L 3444 0 
L 434 0 
L 434 341 
L 1850 1753 
Q 2319 2222 2519 2614 
Q 2719 3006 2719 3438 
Q 2719 3909 2473 4175 
Q 2228 4441 1797 4441 
Q 1350 4441 1106 4219 
Q 863 3997 819 3553 
z
" transform="scale(0.015625)"/>
        <path id="DejaVuSerif-35" d="M 3219 4666 
L 3219 4153 
L 1081 4153 
L 1081 2816 
Q 1244 2928 1461 2984 
Q 1678 3041 1947 3041 
Q 2703 3041 3140 2622 
Q 3578 2203 3578 1478 
Q 3578 738 3136 323 
Q 2694 -91 1894 -91 
Q 1572 -91 1234 -12 
Q 897 66 544 225 
L 544 1131 
L 897 1131 
Q 925 688 1179 453 
Q 1434 219 1894 219 
Q 2388 219 2653 544 
Q 2919 869 2919 1478 
Q 2919 2084 2655 2407 
Q 2391 2731 1894 2731 
Q 1613 2731 1398 2631 
Q 1184 2531 1019 2322 
L 750 2322 
L 750 4666 
L 3219 4666 
z
" transform="scale(0.015625)"/>
       </defs>
       <use xlink:href="#DejaVuSerif-2212"/>
       <use xlink:href="#DejaVuSerif-32" x="83.789062"/>
       <use xlink:href="#DejaVuSerif-35" x="147.412109"/>
      </g>
     </g>
    </g>
    <g id="ytick_5">
     <g id="line2d_35">
      <path d="M 50.991094 98.140456 
L 381.771094 98.140456 
" clip-path="url(#p5d6371e2c6)" style="fill: none; stroke: #b0b0b0; stroke-width: 0.8; stroke-linecap: round"/>
     </g>
     <g id="line2d_36"/>
     <g id="text_6">
      <!-- 0 -->
      <g style="fill: #262626" transform="translate(41.764844 101.559752) scale(0.09 -0.09)">
       <use xlink:href="#DejaVuSerif-30"/>
      </g>
     </g>
    </g>
    <g id="ytick_6">
     <g id="line2d_37">
      <path d="M 50.991094 73.56346 
L 381.771094 73.56346 
" clip-path="url(#p5d6371e2c6)" style="fill: none; stroke: #b0b0b0; stroke-width: 0.8; stroke-linecap: round"/>
     </g>
     <g id="line2d_38"/>
     <g id="text_7">
      <!-- 25 -->
      <g style="fill: #262626" transform="translate(36.038594 76.982757) scale(0.09 -0.09)">
       <use xlink:href="#DejaVuSerif-32"/>
       <use xlink:href="#DejaVuSerif-35" x="63.623047"/>
      </g>
     </g>
    </g>
    <g id="text_8">
     <!-- $\psi$ $[deg]$ -->
     <g style="fill: #262626" transform="translate(22.606875 114.052059) rotate(-90) scale(0.09 -0.09)">
      <defs>
       <path id="DejaVuSans-Oblique-3c8" d="M 1591 -78 
Q 891 38 616 341 
Q 278 713 425 1472 
L 819 3500 
L 1400 3500 
L 1009 1494 
Q 900 922 1119 684 
Q 1313 478 1691 434 
L 2284 3500 
L 2856 3500 
L 2263 438 
Q 2681 481 2928 688 
Q 3247 950 3353 1497 
L 3741 3500 
L 4322 3500 
L 3928 1475 
Q 3775 688 3300 344 
Q 2872 34 2163 -75 
L 1919 -1331 
L 1347 -1331 
L 1591 -78 
z
" transform="scale(0.015625)"/>
      </defs>
      <use xlink:href="#DejaVuSans-Oblique-3c8" transform="translate(0 0.015625)"/>
      <use xlink:href="#DejaVuSerif-20" transform="translate(65.966797 0.015625)"/>
      <use xlink:href="#DejaVuSans-5b" transform="translate(97.753906 0.015625)"/>
      <use xlink:href="#DejaVuSans-Oblique-64" transform="translate(136.767578 0.015625)"/>
      <use xlink:href="#DejaVuSans-Oblique-65" transform="translate(200.244141 0.015625)"/>
      <use xlink:href="#DejaVuSans-Oblique-67" transform="translate(261.767578 0.015625)"/>
      <use xlink:href="#DejaVuSans-5d" transform="translate(325.244141 0.015625)"/>
     </g>
    </g>
   </g>
   <g id="line2d_39">
    <path d="M 66.026548 98.140456 
L 71.208706 98.248104 
L 74.159657 98.534988 
L 76.82271 99.013208 
L 79.845635 99.79213 
L 83.444356 100.959557 
L 87.690846 102.579311 
L 92.873004 104.800856 
L 99.278726 107.800343 
L 106.908014 111.622586 
L 116.048764 116.460089 
L 124.829642 121.095925 
L 127.852568 122.38705 
L 130.515621 123.285155 
L 132.962751 123.883402 
L 135.337906 124.236992 
L 137.641088 124.354038 
L 140.088218 124.250677 
L 142.89522 123.906602 
L 146.134068 123.283077 
L 149.948712 122.313313 
L 154.411126 120.941762 
L 159.665258 119.085071 
L 165.783083 116.682641 
L 172.620652 113.748179 
L 180.681786 110.043614 
L 189.390689 105.794572 
L 199.107235 100.803682 
L 210.047346 94.925019 
L 222.570893 87.938707 
L 239.125008 78.431399 
L 244.523089 75.418793 
L 247.617988 73.951651 
L 250.353016 72.893951 
L 252.87212 72.15074 
L 255.31925 71.65822 
L 257.694406 71.408352 
L 260.21351 71.377186 
L 263.092487 71.573278 
L 266.40331 72.029865 
L 270.217953 72.788854 
L 274.536418 73.880717 
L 279.502653 75.371054 
L 285.33258 77.359568 
L 291.810277 79.806148 
L 298.71982 82.652562 
L 306.924903 86.283411 
L 315.921705 90.512484 
L 325.422327 95.228232 
L 335.642693 100.547965 
L 348.166241 107.322848 
L 361.481507 114.781794 
L 366.735639 117.780598 
L 366.735639 117.780598 
" clip-path="url(#p5d6371e2c6)" style="fill: none; stroke: #0000ff; stroke-width: 0.75; stroke-linecap: round"/>
   </g>
   <g id="line2d_40">
    <path d="M 66.026548 98.140456 
L 71.208706 98.247881 
L 74.159657 98.533693 
L 76.894684 99.024927 
L 79.989584 99.822745 
L 83.660279 101.009679 
L 88.050718 102.67042 
L 93.664722 105.043838 
L 100.64624 108.246735 
L 109.715016 112.665878 
L 121.014999 118.429951 
L 125.621361 120.684335 
L 128.716261 121.950025 
L 131.379314 122.805504 
L 133.898418 123.38282 
L 136.273574 123.70027 
L 138.576755 123.783936 
L 141.023885 123.640139 
L 143.830887 123.239921 
L 147.069736 122.544189 
L 150.884379 121.486482 
L 155.490742 119.968472 
L 161.032771 117.898919 
L 167.726392 115.154836 
L 175.571602 111.686405 
L 184.928276 107.304842 
L 195.796412 101.967114 
L 208.895755 95.26846 
L 224.586177 86.989079 
L 247.546014 74.826225 
L 250.42499 73.698004 
L 253.016069 72.914679 
L 255.463199 72.399036 
L 257.838355 72.121877 
L 260.21351 72.070623 
L 262.876564 72.246109 
L 265.899489 72.673192 
L 269.426235 73.402312 
L 273.528776 74.486716 
L 278.351062 75.999462 
L 284.180989 78.071632 
L 290.946584 80.715843 
L 298.503897 83.912323 
L 307.860571 88.125745 
L 318.440809 93.126839 
L 330.100664 98.888743 
L 344.351597 106.197844 
L 360.401891 114.686413 
L 366.159844 117.774687 
L 366.159844 117.774687 
" clip-path="url(#p5d6371e2c6)" style="fill: none; stroke: #008000; stroke-width: 0.75; stroke-linecap: round"/>
   </g>
   <g id="line2d_41">
    <path d="M 66.026548 98.140456 
L 71.136732 98.25063 
L 74.159657 98.545751 
L 76.966659 99.041647 
L 80.061559 99.824361 
L 83.588305 100.953303 
L 87.690846 102.509772 
L 92.441157 104.559579 
L 97.983187 107.201258 
L 104.38891 110.505834 
L 111.7303 114.548003 
L 125.909259 122.45689 
L 128.500337 123.508952 
L 130.947467 124.264523 
L 133.250649 124.744533 
L 135.481855 124.987861 
L 137.785036 125.01175 
L 140.304141 124.806486 
L 143.183117 124.344939 
L 146.49394 123.587133 
L 150.380558 122.465039 
L 154.842972 120.940504 
L 159.953155 118.953762 
L 165.711108 116.472432 
L 172.044856 113.49717 
L 179.098349 109.932425 
L 186.799611 105.787925 
L 195.508514 100.841645 
L 205.22506 95.060153 
L 216.309119 88.199088 
L 229.264513 79.907569 
L 237.68552 74.570571 
L 240.63647 73.003615 
L 243.155575 71.910067 
L 245.53073 71.117493 
L 247.833912 70.586113 
L 250.065118 70.297987 
L 252.368299 70.22787 
L 254.959378 70.377626 
L 257.982304 70.783794 
L 261.437075 71.476712 
L 265.467642 72.516894 
L 270.074005 73.943178 
L 275.184188 75.762341 
L 280.870166 78.027461 
L 287.059966 80.737929 
L 293.897535 83.981019 
L 301.382874 87.781443 
L 309.659931 92.243209 
L 318.656732 97.352025 
L 328.877099 103.42166 
L 340.464979 110.569271 
L 351.764962 117.755805 
L 351.764962 117.755805 
" clip-path="url(#p5d6371e2c6)" style="fill: none; stroke: #ff0000; stroke-width: 0.75; stroke-linecap: round"/>
   </g>
   <g id="patch_6">
    <path d="M 50.991094 127.769412 
L 50.991094 67.484706 
" style="fill: none; stroke: #000000; stroke-linejoin: miter; stroke-linecap: square"/>
   </g>
   <g id="patch_7">
    <path d="M 50.991094 127.769412 
L 381.771094 127.769412 
" style="fill: none; stroke: #000000; stroke-linejoin: miter; stroke-linecap: square"/>
   </g>
  </g>
  <g id="axes_3">
   <g id="patch_8">
    <path d="M 50.991094 188.054118 
L 381.771094 188.054118 
L 381.771094 127.769412 
L 50.991094 127.769412 
z
" style="fill: #ffffff"/>
   </g>
   <g id="line2d_42">
    <path d="M 66.026548 157.916608 
L 67.098931 158.221371 
L 68.314298 158.79873 
L 69.67265 159.69327 
L 71.31697 161.053173 
L 73.104274 162.821285 
L 74.748595 164.743218 
L 79.038126 170.018621 
L 80.896922 171.825281 
L 82.46975 173.035229 
L 88.618078 177.105643 
L 90.33389 177.871047 
L 92.264179 178.502058 
L 96.625203 179.775254 
L 98.984445 180.617204 
L 100.771749 181.027216 
L 102.559054 181.22677 
L 104.274866 181.200931 
L 105.919186 181.200842 
L 107.277538 181.531681 
L 109.422303 182.018996 
L 112.210498 182.366616 
L 114.140787 182.406596 
L 117.572412 182.133268 
L 118.644795 181.85869 
L 119.717178 181.345625 
L 120.861053 180.538804 
L 122.147912 179.341783 
L 123.863724 177.385166 
L 125.651029 174.987062 
L 129.726083 168.902286 
L 132.442786 164.296926 
L 137.089778 156.341339 
L 138.80559 153.966969 
L 140.521403 151.990008 
L 142.308707 150.24908 
L 144.167504 148.741919 
L 146.026301 147.524023 
L 150.458816 145.063172 
L 152.818058 143.88092 
L 155.391777 142.823905 
L 157.679527 142.170343 
L 160.038769 141.497028 
L 163.112933 140.448183 
L 165.32919 139.980844 
L 167.259479 139.793483 
L 170.691104 139.572755 
L 174.623174 138.760046 
L 177.482861 138.438028 
L 181.486424 138.117272 
L 184.131634 137.526117 
L 186.419384 137.314101 
L 188.778626 137.295228 
L 191.423837 137.332091 
L 197.572165 136.520467 
L 199.788422 136.54881 
L 202.076172 136.577876 
L 206.437195 135.983652 
L 209.082406 136.066749 
L 211.370156 136.34652 
L 212.728508 136.442536 
L 214.158351 136.248292 
L 216.946546 135.88471 
L 219.01982 135.835121 
L 221.164585 136.027882 
L 223.523827 136.267318 
L 225.311132 136.051894 
L 227.312913 135.913476 
L 229.743647 135.997903 
L 232.031397 136.289739 
L 234.10467 136.5359 
L 235.891975 136.377773 
L 237.750772 136.296927 
L 240.681951 136.459726 
L 242.254779 136.756932 
L 243.327162 137.182403 
L 246.186849 138.705529 
L 247.473708 139.641921 
L 248.903552 140.976735 
L 250.619364 142.897789 
L 252.692638 145.59131 
L 257.053661 151.845031 
L 260.342301 156.786238 
L 262.630051 160.071737 
L 264.131387 161.834174 
L 266.276152 163.923125 
L 268.349426 165.756845 
L 269.922254 166.866898 
L 272.210004 168.168329 
L 273.997308 168.981762 
L 278.00087 170.642241 
L 280.717573 171.971756 
L 282.862339 172.74191 
L 284.649643 173.158419 
L 287.723807 173.807287 
L 291.012448 174.700766 
L 292.942737 174.957647 
L 295.587947 175.087875 
L 298.376143 175.206274 
L 304.52447 176.215136 
L 306.81222 176.331825 
L 308.956986 176.433802 
L 314.819345 177.384209 
L 317.107095 177.441115 
L 319.537829 177.488699 
L 324.613774 178.285509 
L 327.187492 178.266027 
L 329.832703 178.282094 
L 331.620008 178.64882 
L 333.33582 178.845127 
L 336.052523 178.889637 
L 338.411765 178.746247 
L 340.913991 178.522532 
L 342.701296 178.767969 
L 344.631585 178.958225 
L 347.777241 178.988017 
L 350.136483 178.759876 
L 351.494834 178.716259 
L 353.925569 179.021436 
L 356.570779 179.166959 
L 358.429576 179.091121 
L 361.003295 178.701324 
L 362.218662 178.656317 
L 364.077459 178.884615 
L 366.651177 179.145963 
L 366.722669 179.147006 
L 366.722669 179.147006 
" clip-path="url(#p18caf3caf9)" style="fill: none; stroke: #000000; stroke-width: 0.75; stroke-linecap: round"/>
   </g>
   <g id="matplotlib.axis_5">
    <g id="xtick_11">
     <g id="line2d_43">
      <path d="M 66.026548 188.054118 
L 66.026548 127.769412 
" clip-path="url(#p18caf3caf9)" style="fill: none; stroke: #b0b0b0; stroke-width: 0.8; stroke-linecap: round"/>
     </g>
     <g id="line2d_44"/>
     <g id="text_9">
      <!-- 0 -->
      <g style="fill: #262626" transform="translate(63.163423 198.392711) scale(0.09 -0.09)">
       <use xlink:href="#DejaVuSerif-30"/>
      </g>
     </g>
    </g>
    <g id="xtick_12">
     <g id="line2d_45">
      <path d="M 138.00096 188.054118 
L 138.00096 127.769412 
" clip-path="url(#p18caf3caf9)" style="fill: none; stroke: #b0b0b0; stroke-width: 0.8; stroke-linecap: round"/>
     </g>
     <g id="line2d_46"/>
     <g id="text_10">
      <!-- 10 -->
      <g style="fill: #262626" transform="translate(132.27471 198.392711) scale(0.09 -0.09)">
       <use xlink:href="#DejaVuSerif-31"/>
       <use xlink:href="#DejaVuSerif-30" x="63.623047"/>
      </g>
     </g>
    </g>
    <g id="xtick_13">
     <g id="line2d_47">
      <path d="M 209.975371 188.054118 
L 209.975371 127.769412 
" clip-path="url(#p18caf3caf9)" style="fill: none; stroke: #b0b0b0; stroke-width: 0.8; stroke-linecap: round"/>
     </g>
     <g id="line2d_48"/>
     <g id="text_11">
      <!-- 20 -->
      <g style="fill: #262626" transform="translate(204.249121 198.392711) scale(0.09 -0.09)">
       <use xlink:href="#DejaVuSerif-32"/>
       <use xlink:href="#DejaVuSerif-30" x="63.623047"/>
      </g>
     </g>
    </g>
    <g id="xtick_14">
     <g id="line2d_49">
      <path d="M 281.949783 188.054118 
L 281.949783 127.769412 
" clip-path="url(#p18caf3caf9)" style="fill: none; stroke: #b0b0b0; stroke-width: 0.8; stroke-linecap: round"/>
     </g>
     <g id="line2d_50"/>
     <g id="text_12">
      <!-- 30 -->
      <g style="fill: #262626" transform="translate(276.223533 198.392711) scale(0.09 -0.09)">
       <defs>
        <path id="DejaVuSerif-33" d="M 622 4469 
Q 988 4606 1323 4678 
Q 1659 4750 1953 4750 
Q 2638 4750 3022 4454 
Q 3406 4159 3406 3634 
Q 3406 3213 3140 2930 
Q 2875 2647 2388 2547 
Q 2963 2466 3280 2130 
Q 3597 1794 3597 1259 
Q 3597 606 3158 257 
Q 2719 -91 1894 -91 
Q 1528 -91 1179 -12 
Q 831 66 488 225 
L 488 1131 
L 838 1131 
Q 869 681 1141 450 
Q 1413 219 1906 219 
Q 2384 219 2661 495 
Q 2938 772 2938 1253 
Q 2938 1803 2653 2086 
Q 2369 2369 1819 2369 
L 1522 2369 
L 1522 2688 
L 1678 2688 
Q 2225 2688 2498 2914 
Q 2772 3141 2772 3597 
Q 2772 4006 2547 4223 
Q 2322 4441 1900 4441 
Q 1478 4441 1245 4241 
Q 1013 4041 972 3647 
L 622 3647 
L 622 4469 
z
" transform="scale(0.015625)"/>
       </defs>
       <use xlink:href="#DejaVuSerif-33"/>
       <use xlink:href="#DejaVuSerif-30" x="63.623047"/>
      </g>
     </g>
    </g>
    <g id="xtick_15">
     <g id="line2d_51">
      <path d="M 353.924194 188.054118 
L 353.924194 127.769412 
" clip-path="url(#p18caf3caf9)" style="fill: none; stroke: #b0b0b0; stroke-width: 0.8; stroke-linecap: round"/>
     </g>
     <g id="line2d_52"/>
     <g id="text_13">
      <!-- 40 -->
      <g style="fill: #262626" transform="translate(348.197944 198.392711) scale(0.09 -0.09)">
       <defs>
        <path id="DejaVuSerif-34" d="M 2234 1581 
L 2234 4063 
L 641 1581 
L 2234 1581 
z
M 3609 0 
L 1484 0 
L 1484 331 
L 2234 331 
L 2234 1247 
L 197 1247 
L 197 1588 
L 2241 4750 
L 2859 4750 
L 2859 1581 
L 3750 1581 
L 3750 1247 
L 2859 1247 
L 2859 331 
L 3609 331 
L 3609 0 
z
" transform="scale(0.015625)"/>
       </defs>
       <use xlink:href="#DejaVuSerif-34"/>
       <use xlink:href="#DejaVuSerif-30" x="63.623047"/>
      </g>
     </g>
    </g>
    <g id="text_14">
     <!-- Time [s] -->
     <g style="fill: #262626" transform="translate(197.758828 211.103024) scale(0.09 -0.09)">
      <defs>
       <path id="DejaVuSerif-54" d="M 1222 0 
L 1222 331 
L 1819 331 
L 1819 4294 
L 447 4294 
L 447 3566 
L 63 3566 
L 63 4666 
L 4206 4666 
L 4206 3566 
L 3822 3566 
L 3822 4294 
L 2450 4294 
L 2450 331 
L 3047 331 
L 3047 0 
L 1222 0 
z
" transform="scale(0.015625)"/>
       <path id="DejaVuSerif-69" d="M 622 4353 
Q 622 4497 726 4603 
Q 831 4709 978 4709 
Q 1122 4709 1226 4603 
Q 1331 4497 1331 4353 
Q 1331 4206 1228 4103 
Q 1125 4000 978 4000 
Q 831 4000 726 4103 
Q 622 4206 622 4353 
z
M 1356 331 
L 1900 331 
L 1900 0 
L 231 0 
L 231 331 
L 781 331 
L 781 2988 
L 231 2988 
L 231 3322 
L 1356 3322 
L 1356 331 
z
" transform="scale(0.015625)"/>
       <path id="DejaVuSerif-6d" d="M 3316 2675 
Q 3481 3041 3739 3227 
Q 3997 3413 4341 3413 
Q 4863 3413 5119 3089 
Q 5375 2766 5375 2113 
L 5375 331 
L 5894 331 
L 5894 0 
L 4300 0 
L 4300 331 
L 4800 331 
L 4800 2047 
Q 4800 2556 4650 2772 
Q 4500 2988 4153 2988 
Q 3769 2988 3567 2697 
Q 3366 2406 3366 1850 
L 3366 331 
L 3866 331 
L 3866 0 
L 2291 0 
L 2291 331 
L 2791 331 
L 2791 2069 
Q 2791 2566 2641 2777 
Q 2491 2988 2144 2988 
Q 1759 2988 1557 2697 
Q 1356 2406 1356 1850 
L 1356 331 
L 1856 331 
L 1856 0 
L 263 0 
L 263 331 
L 781 331 
L 781 2994 
L 231 2994 
L 231 3322 
L 1356 3322 
L 1356 2731 
Q 1516 3063 1762 3238 
Q 2009 3413 2322 3413 
Q 2709 3413 2968 3220 
Q 3228 3028 3316 2675 
z
" transform="scale(0.015625)"/>
       <path id="DejaVuSerif-65" d="M 3469 1600 
L 991 1600 
L 991 1575 
Q 991 903 1244 561 
Q 1497 219 1991 219 
Q 2369 219 2611 417 
Q 2853 616 2950 1006 
L 3413 1006 
Q 3275 459 2904 184 
Q 2534 -91 1931 -91 
Q 1203 -91 761 389 
Q 319 869 319 1663 
Q 319 2450 753 2931 
Q 1188 3413 1894 3413 
Q 2647 3413 3050 2948 
Q 3453 2484 3469 1600 
z
M 2791 1931 
Q 2772 2513 2545 2808 
Q 2319 3103 1894 3103 
Q 1497 3103 1269 2806 
Q 1041 2509 991 1931 
L 2791 1931 
z
" transform="scale(0.015625)"/>
       <path id="DejaVuSerif-5b" d="M 550 4863 
L 2003 4863 
L 2003 4531 
L 1147 4531 
L 1147 -513 
L 2003 -513 
L 2003 -844 
L 550 -844 
L 550 4863 
z
" transform="scale(0.015625)"/>
       <path id="DejaVuSerif-73" d="M 359 184 
L 359 959 
L 691 959 
Q 703 588 923 403 
Q 1144 219 1575 219 
Q 1963 219 2166 364 
Q 2369 509 2369 788 
Q 2369 1006 2220 1140 
Q 2072 1275 1594 1428 
L 1178 1569 
Q 750 1706 558 1912 
Q 366 2119 366 2438 
Q 366 2894 700 3153 
Q 1034 3413 1625 3413 
Q 1888 3413 2178 3344 
Q 2469 3275 2778 3144 
L 2778 2419 
L 2447 2419 
Q 2434 2741 2221 2922 
Q 2009 3103 1644 3103 
Q 1281 3103 1095 2975 
Q 909 2847 909 2591 
Q 909 2381 1050 2254 
Q 1191 2128 1613 1997 
L 2069 1856 
Q 2541 1709 2748 1489 
Q 2956 1269 2956 922 
Q 2956 450 2595 179 
Q 2234 -91 1600 -91 
Q 1278 -91 972 -22 
Q 666 47 359 184 
z
" transform="scale(0.015625)"/>
       <path id="DejaVuSerif-5d" d="M 1947 4863 
L 1947 -844 
L 494 -844 
L 494 -513 
L 1350 -513 
L 1350 4531 
L 494 4531 
L 494 4863 
L 1947 4863 
z
" transform="scale(0.015625)"/>
      </defs>
      <use xlink:href="#DejaVuSerif-54"/>
      <use xlink:href="#DejaVuSerif-69" x="66.699219"/>
      <use xlink:href="#DejaVuSerif-6d" x="98.681641"/>
      <use xlink:href="#DejaVuSerif-65" x="193.505859"/>
      <use xlink:href="#DejaVuSerif-20" x="252.685547"/>
      <use xlink:href="#DejaVuSerif-5b" x="284.472656"/>
      <use xlink:href="#DejaVuSerif-73" x="323.486328"/>
      <use xlink:href="#DejaVuSerif-5d" x="374.804688"/>
     </g>
    </g>
   </g>
   <g id="matplotlib.axis_6">
    <g id="ytick_7">
     <g id="line2d_53">
      <path d="M 50.991094 174.636008 
L 381.771094 174.636008 
" clip-path="url(#p18caf3caf9)" style="fill: none; stroke: #b0b0b0; stroke-width: 0.8; stroke-linecap: round"/>
     </g>
     <g id="line2d_54"/>
     <g id="text_15">
      <!-- −0.05 -->
      <g style="fill: #262626" transform="translate(19.910312 178.055305) scale(0.09 -0.09)">
       <defs>
        <path id="DejaVuSerif-2e" d="M 603 325 
Q 603 500 722 622 
Q 841 744 1019 744 
Q 1191 744 1312 622 
Q 1434 500 1434 325 
Q 1434 153 1312 31 
Q 1191 -91 1019 -91 
Q 841 -91 722 29 
Q 603 150 603 325 
z
" transform="scale(0.015625)"/>
       </defs>
       <use xlink:href="#DejaVuSerif-2212"/>
       <use xlink:href="#DejaVuSerif-30" x="83.789062"/>
       <use xlink:href="#DejaVuSerif-2e" x="147.412109"/>
       <use xlink:href="#DejaVuSerif-30" x="179.199219"/>
       <use xlink:href="#DejaVuSerif-35" x="242.822266"/>
      </g>
     </g>
    </g>
    <g id="ytick_8">
     <g id="line2d_55">
      <path d="M 50.991094 158.091168 
L 381.771094 158.091168 
" clip-path="url(#p18caf3caf9)" style="fill: none; stroke: #b0b0b0; stroke-width: 0.8; stroke-linecap: round"/>
     </g>
     <g id="line2d_56"/>
     <g id="text_16">
      <!-- 0.00 -->
      <g style="fill: #262626" transform="translate(27.452031 161.510465) scale(0.09 -0.09)">
       <use xlink:href="#DejaVuSerif-30"/>
       <use xlink:href="#DejaVuSerif-2e" x="63.623047"/>
       <use xlink:href="#DejaVuSerif-30" x="95.410156"/>
       <use xlink:href="#DejaVuSerif-30" x="159.033203"/>
      </g>
     </g>
    </g>
    <g id="ytick_9">
     <g id="line2d_57">
      <path d="M 50.991094 141.546328 
L 381.771094 141.546328 
" clip-path="url(#p18caf3caf9)" style="fill: none; stroke: #b0b0b0; stroke-width: 0.8; stroke-linecap: round"/>
     </g>
     <g id="line2d_58"/>
     <g id="text_17">
      <!-- 0.05 -->
      <g style="fill: #262626" transform="translate(27.452031 144.965625) scale(0.09 -0.09)">
       <use xlink:href="#DejaVuSerif-30"/>
       <use xlink:href="#DejaVuSerif-2e" x="63.623047"/>
       <use xlink:href="#DejaVuSerif-30" x="95.410156"/>
       <use xlink:href="#DejaVuSerif-35" x="159.033203"/>
      </g>
     </g>
    </g>
    <g id="text_18">
     <!-- $r$ $[rad/s]$ -->
     <g style="fill: #262626" transform="translate(14.038594 176.046765) rotate(-90) scale(0.09 -0.09)">
      <defs>
       <path id="DejaVuSans-Oblique-72" d="M 2853 2969 
Q 2766 3016 2653 3041 
Q 2541 3066 2413 3066 
Q 1953 3066 1609 2717 
Q 1266 2369 1153 1784 
L 800 0 
L 225 0 
L 909 3500 
L 1484 3500 
L 1375 2956 
Q 1603 3259 1920 3421 
Q 2238 3584 2597 3584 
Q 2691 3584 2781 3573 
Q 2872 3563 2963 3538 
L 2853 2969 
z
" transform="scale(0.015625)"/>
       <path id="DejaVuSans-Oblique-61" d="M 3438 1997 
L 3047 0 
L 2472 0 
L 2578 531 
Q 2325 219 2001 64 
Q 1678 -91 1281 -91 
Q 834 -91 548 182 
Q 263 456 263 884 
Q 263 1497 752 1853 
Q 1241 2209 2100 2209 
L 2900 2209 
L 2931 2363 
Q 2938 2388 2941 2417 
Q 2944 2447 2944 2509 
Q 2944 2788 2717 2942 
Q 2491 3097 2081 3097 
Q 1800 3097 1504 3025 
Q 1209 2953 897 2809 
L 997 3341 
Q 1322 3463 1633 3523 
Q 1944 3584 2234 3584 
Q 2853 3584 3176 3315 
Q 3500 3047 3500 2534 
Q 3500 2431 3484 2292 
Q 3469 2153 3438 1997 
z
M 2816 1759 
L 2241 1759 
Q 1534 1759 1195 1570 
Q 856 1381 856 984 
Q 856 709 1029 553 
Q 1203 397 1509 397 
Q 1978 397 2328 733 
Q 2678 1069 2791 1631 
L 2816 1759 
z
" transform="scale(0.015625)"/>
       <path id="DejaVuSans-2f" d="M 1625 4666 
L 2156 4666 
L 531 -594 
L 0 -594 
L 1625 4666 
z
" transform="scale(0.015625)"/>
       <path id="DejaVuSans-Oblique-73" d="M 3200 3397 
L 3091 2853 
Q 2863 2978 2609 3040 
Q 2356 3103 2088 3103 
Q 1634 3103 1373 2948 
Q 1113 2794 1113 2528 
Q 1113 2219 1719 2053 
Q 1766 2041 1788 2034 
L 1972 1978 
Q 2547 1819 2739 1644 
Q 2931 1469 2931 1166 
Q 2931 609 2489 259 
Q 2047 -91 1331 -91 
Q 1053 -91 747 -37 
Q 441 16 72 128 
L 184 722 
Q 500 559 806 475 
Q 1113 391 1394 391 
Q 1816 391 2080 572 
Q 2344 753 2344 1031 
Q 2344 1331 1650 1516 
L 1591 1531 
L 1394 1581 
Q 956 1697 753 1886 
Q 550 2075 550 2369 
Q 550 2928 970 3256 
Q 1391 3584 2113 3584 
Q 2397 3584 2667 3537 
Q 2938 3491 3200 3397 
z
" transform="scale(0.015625)"/>
      </defs>
      <use xlink:href="#DejaVuSans-Oblique-72" transform="translate(0 0.015625)"/>
      <use xlink:href="#DejaVuSerif-20" transform="translate(41.113281 0.015625)"/>
      <use xlink:href="#DejaVuSans-5b" transform="translate(72.900391 0.015625)"/>
      <use xlink:href="#DejaVuSans-Oblique-72" transform="translate(111.914062 0.015625)"/>
      <use xlink:href="#DejaVuSans-Oblique-61" transform="translate(153.027344 0.015625)"/>
      <use xlink:href="#DejaVuSans-Oblique-64" transform="translate(214.306641 0.015625)"/>
      <use xlink:href="#DejaVuSans-2f" transform="translate(277.783203 0.015625)"/>
      <use xlink:href="#DejaVuSans-Oblique-73" transform="translate(311.474609 0.015625)"/>
      <use xlink:href="#DejaVuSans-5d" transform="translate(363.574219 0.015625)"/>
     </g>
    </g>
   </g>
   <g id="line2d_59">
    <path d="M 66.026548 158.091168 
L 67.03419 158.199248 
L 68.113806 158.538943 
L 69.265397 159.138183 
L 70.560936 160.074817 
L 71.92845 161.342539 
L 73.511887 163.128587 
L 76.030991 166.40243 
L 77.758377 168.430937 
L 79.485763 170.113123 
L 81.501047 171.737577 
L 83.660279 173.186899 
L 85.819511 174.382221 
L 88.266641 175.478624 
L 91.361541 176.613003 
L 94.672364 177.576891 
L 98.487008 178.431452 
L 104.89273 179.584228 
L 111.370427 180.463735 
L 118.711817 181.245224 
L 119.719459 181.17205 
L 120.799075 180.842576 
L 121.950666 180.267862 
L 123.174231 179.40497 
L 124.613719 178.095927 
L 126.197156 176.358924 
L 128.068491 173.954598 
L 130.299698 170.716677 
L 132.890777 166.542661 
L 136.129625 160.875996 
L 138.792678 156.368502 
L 140.376115 154.201827 
L 142.103501 152.20245 
L 143.974836 150.38843 
L 146.062094 148.682207 
L 148.221326 147.198463 
L 150.524507 145.878319 
L 153.331509 144.559693 
L 156.498383 143.309121 
L 159.953155 142.218768 
L 165.207287 140.843937 
L 169.597726 139.838005 
L 174.563961 138.970485 
L 183.056941 137.721997 
L 191.262024 136.696695 
L 203.929521 135.405396 
L 214.437785 134.601558 
L 220.195738 134.275824 
L 232.863234 133.720374 
L 239.988701 133.576415 
L 241.068317 133.909387 
L 242.291882 134.551824 
L 243.587421 135.52264 
L 245.098884 136.942362 
L 246.754295 138.813419 
L 248.841553 141.519066 
L 251.144734 144.880612 
L 254.16766 149.693071 
L 259.709689 158.665189 
L 261.437075 160.768012 
L 263.236436 162.620011 
L 265.251719 164.360611 
L 267.5549 166.041447 
L 270.00203 167.543052 
L 272.881007 169.050325 
L 275.975906 170.401736 
L 279.142781 171.549034 
L 282.813475 172.634449 
L 288.859326 174.13902 
L 297.280332 175.925676 
L 301.742746 176.652869 
L 309.587957 177.728499 
L 323.83889 179.430251 
L 334.994924 180.50061 
L 350.253499 181.505991 
L 364.864305 182.248508 
L 366.735639 182.315057 
L 366.735639 182.315057 
" clip-path="url(#p18caf3caf9)" style="fill: none; stroke: #0000ff; stroke-width: 0.75; stroke-linecap: round"/>
   </g>
   <g id="line2d_60">
    <path d="M 66.026548 158.091168 
L 67.03419 158.199191 
L 68.113806 158.538445 
L 69.265397 159.136371 
L 70.632911 160.129315 
L 72.000424 161.406014 
L 73.583861 163.195952 
L 78.62207 169.207871 
L 80.421431 170.760393 
L 82.36474 172.166874 
L 84.523972 173.446175 
L 86.755179 174.531966 
L 89.130334 175.447459 
L 92.081285 176.339861 
L 95.75198 177.226487 
L 100.430317 178.088387 
L 104.89273 178.681074 
L 112.953865 179.498809 
L 119.431562 179.962674 
L 120.727101 179.945251 
L 121.734743 179.692634 
L 122.958308 179.145663 
L 124.253847 178.283236 
L 125.477412 177.222084 
L 127.060849 175.554668 
L 128.788235 173.413659 
L 130.875493 170.496723 
L 133.466572 166.463966 
L 136.561471 161.171542 
L 140.016243 155.234633 
L 141.671655 152.938753 
L 143.327066 151.02196 
L 145.126426 149.265655 
L 147.069736 147.653165 
L 149.228968 146.169039 
L 151.244251 145.044356 
L 153.979279 143.791084 
L 156.714307 142.773139 
L 160.097104 141.746989 
L 164.847415 140.638718 
L 169.453778 139.721656 
L 174.132114 139.027824 
L 183.920634 137.896755 
L 198.099593 136.705561 
L 208.679832 136.128924 
L 225.44987 135.439369 
L 238.117366 135.101761 
L 241.28424 135.1553 
L 242.363856 135.487214 
L 243.515447 136.078561 
L 244.810986 137.004379 
L 246.1785 138.246954 
L 247.833912 140.067312 
L 249.777221 142.543444 
L 252.224351 146.037646 
L 255.031353 150.457662 
L 258.486124 156.295452 
L 260.501408 159.495251 
L 262.156819 161.681444 
L 263.884205 163.599992 
L 265.75554 165.345064 
L 267.914772 167.048252 
L 270.289928 168.613624 
L 272.521135 169.84741 
L 275.328137 171.129239 
L 278.423036 172.29861 
L 281.302013 173.152367 
L 285.764426 174.236558 
L 291.306456 175.367848 
L 298.431923 176.574788 
L 304.045927 177.242798 
L 323.83889 178.951808 
L 331.684101 179.500149 
L 346.150958 180.208896 
L 358.602531 180.646979 
L 366.159844 180.843176 
L 366.159844 180.843176 
" clip-path="url(#p18caf3caf9)" style="fill: none; stroke: #008000; stroke-width: 0.75; stroke-linecap: round"/>
   </g>
   <g id="line2d_61">
    <path d="M 66.026548 158.091168 
L 67.03419 158.210598 
L 68.041832 158.547764 
L 69.193422 159.168559 
L 70.488962 160.123039 
L 72.072399 161.589267 
L 73.943734 163.628023 
L 78.766019 169.059622 
L 80.853277 170.897511 
L 83.084484 172.559862 
L 85.459639 174.055989 
L 88.194667 175.507547 
L 91.001669 176.750112 
L 94.60039 178.070236 
L 98.343059 179.188981 
L 103.309293 180.415679 
L 108.923298 181.547436 
L 115.400995 182.602718 
L 118.351945 182.921562 
L 119.431562 182.762209 
L 120.511178 182.373152 
L 121.662768 181.703738 
L 122.814359 180.782574 
L 124.109898 179.461093 
L 125.621361 177.586976 
L 127.348747 175.076036 
L 129.579954 171.40485 
L 132.746828 165.71825 
L 138.144909 155.942029 
L 139.728346 153.672668 
L 141.455731 151.589499 
L 143.327066 149.696995 
L 145.34235 147.982391 
L 147.501582 146.443335 
L 149.948712 144.981528 
L 152.899663 143.487621 
L 156.066537 142.140156 
L 159.809206 140.796798 
L 164.631492 139.337214 
L 170.101547 137.920619 
L 175.715551 136.680474 
L 183.128916 135.291855 
L 189.966485 134.232912 
L 199.179209 133.054548 
L 208.31996 132.12517 
L 219.116121 131.260419 
L 231.999541 130.515111 
L 233.079157 130.669506 
L 234.230748 131.074852 
L 235.382338 131.730616 
L 236.605903 132.699713 
L 237.901443 134.027462 
L 239.340931 135.833228 
L 241.068317 138.372842 
L 243.155575 141.846846 
L 246.034551 147.115358 
L 252.368299 158.730848 
L 253.951737 160.956148 
L 255.607148 162.90978 
L 257.406508 164.700778 
L 259.349817 166.329355 
L 261.50905 167.846671 
L 264.100129 169.392609 
L 266.979105 170.841928 
L 270.721774 172.436196 
L 274.680367 173.878984 
L 279.574627 175.40771 
L 285.044682 176.893968 
L 290.802635 178.226867 
L 297.640204 179.564307 
L 305.557389 180.899458 
L 314.266293 182.122081 
L 322.975197 183.133298 
L 333.267538 184.075268 
L 343.847776 184.843399 
L 351.764962 185.313904 
L 351.764962 185.313904 
" clip-path="url(#p18caf3caf9)" style="fill: none; stroke: #ff0000; stroke-width: 0.75; stroke-linecap: round"/>
   </g>
   <g id="patch_9">
    <path d="M 50.991094 188.054118 
L 50.991094 127.769412 
" style="fill: none; stroke: #000000; stroke-linejoin: miter; stroke-linecap: square"/>
   </g>
   <g id="patch_10">
    <path d="M 50.991094 188.054118 
L 381.771094 188.054118 
" style="fill: none; stroke: #000000; stroke-linejoin: miter; stroke-linecap: square"/>
   </g>
   <g id="legend_1">
    <g id="line2d_62">
     <path d="M 285.468281 135.301461 
L 294.468281 135.301461 
L 303.468281 135.301461 
" style="fill: none; stroke: #000000; stroke-width: 0.75; stroke-linecap: round"/>
    </g>
    <g id="text_19">
     <!-- Model test -->
     <g style="fill: #262626" transform="translate(310.668281 138.451461) scale(0.09 -0.09)">
      <defs>
       <path id="DejaVuSerif-4d" d="M 353 0 
L 353 331 
L 947 331 
L 947 4331 
L 319 4331 
L 319 4666 
L 1678 4666 
L 3316 1344 
L 4953 4666 
L 6228 4666 
L 6228 4331 
L 5606 4331 
L 5606 331 
L 6203 331 
L 6203 0 
L 4378 0 
L 4378 331 
L 4972 331 
L 4972 3938 
L 3372 684 
L 2931 684 
L 1331 3938 
L 1331 331 
L 1925 331 
L 1925 0 
L 353 0 
z
" transform="scale(0.015625)"/>
       <path id="DejaVuSerif-6f" d="M 1925 219 
Q 2388 219 2623 584 
Q 2859 950 2859 1663 
Q 2859 2375 2623 2739 
Q 2388 3103 1925 3103 
Q 1463 3103 1227 2739 
Q 991 2375 991 1663 
Q 991 950 1228 584 
Q 1466 219 1925 219 
z
M 1925 -91 
Q 1200 -91 759 389 
Q 319 869 319 1663 
Q 319 2456 758 2934 
Q 1197 3413 1925 3413 
Q 2653 3413 3092 2934 
Q 3531 2456 3531 1663 
Q 3531 869 3092 389 
Q 2653 -91 1925 -91 
z
" transform="scale(0.015625)"/>
       <path id="DejaVuSerif-64" d="M 3359 331 
L 3909 331 
L 3909 0 
L 2784 0 
L 2784 519 
Q 2616 206 2355 57 
Q 2094 -91 1709 -91 
Q 1097 -91 708 395 
Q 319 881 319 1663 
Q 319 2444 706 2928 
Q 1094 3413 1709 3413 
Q 2094 3413 2355 3264 
Q 2616 3116 2784 2803 
L 2784 4531 
L 2241 4531 
L 2241 4863 
L 3359 4863 
L 3359 331 
z
M 2784 1497 
L 2784 1825 
Q 2784 2422 2554 2737 
Q 2325 3053 1888 3053 
Q 1444 3053 1217 2703 
Q 991 2353 991 1663 
Q 991 975 1217 622 
Q 1444 269 1888 269 
Q 2325 269 2554 583 
Q 2784 897 2784 1497 
z
" transform="scale(0.015625)"/>
       <path id="DejaVuSerif-6c" d="M 1313 331 
L 1856 331 
L 1856 0 
L 184 0 
L 184 331 
L 738 331 
L 738 4531 
L 184 4531 
L 184 4863 
L 1313 4863 
L 1313 331 
z
" transform="scale(0.015625)"/>
       <path id="DejaVuSerif-74" d="M 691 2988 
L 184 2988 
L 184 3322 
L 691 3322 
L 691 4353 
L 1269 4353 
L 1269 3322 
L 2350 3322 
L 2350 2988 
L 1269 2988 
L 1269 878 
Q 1269 456 1350 337 
Q 1431 219 1650 219 
Q 1875 219 1978 351 
Q 2081 484 2088 781 
L 2522 781 
Q 2497 328 2275 118 
Q 2053 -91 1600 -91 
Q 1103 -91 897 129 
Q 691 350 691 878 
L 691 2988 
z
" transform="scale(0.015625)"/>
      </defs>
      <use xlink:href="#DejaVuSerif-4d"/>
      <use xlink:href="#DejaVuSerif-6f" x="102.392578"/>
      <use xlink:href="#DejaVuSerif-64" x="162.597656"/>
      <use xlink:href="#DejaVuSerif-65" x="226.611328"/>
      <use xlink:href="#DejaVuSerif-6c" x="285.791016"/>
      <use xlink:href="#DejaVuSerif-20" x="317.773438"/>
      <use xlink:href="#DejaVuSerif-74" x="349.560547"/>
      <use xlink:href="#DejaVuSerif-65" x="389.746094"/>
      <use xlink:href="#DejaVuSerif-73" x="448.925781"/>
      <use xlink:href="#DejaVuSerif-74" x="500.244141"/>
     </g>
    </g>
    <g id="line2d_63">
     <path d="M 285.468281 148.511774 
L 294.468281 148.511774 
L 303.468281 148.511774 
" style="fill: none; stroke: #0000ff; stroke-width: 0.75; stroke-linecap: round"/>
    </g>
    <g id="text_20">
     <!-- Reference -->
     <g style="fill: #262626" transform="translate(310.668281 151.661774) scale(0.09 -0.09)">
      <defs>
       <path id="DejaVuSerif-52" d="M 3066 2316 
Q 3284 2256 3442 2114 
Q 3600 1972 3725 1716 
L 4403 331 
L 4972 331 
L 4972 0 
L 3872 0 
L 3144 1484 
Q 2934 1916 2759 2042 
Q 2584 2169 2278 2169 
L 1581 2169 
L 1581 331 
L 2241 331 
L 2241 0 
L 353 0 
L 353 331 
L 947 331 
L 947 4331 
L 353 4331 
L 353 4666 
L 2719 4666 
Q 3400 4666 3770 4341 
Q 4141 4016 4141 3419 
Q 4141 2938 3870 2661 
Q 3600 2384 3066 2316 
z
M 1581 2503 
L 2503 2503 
Q 2975 2503 3200 2726 
Q 3425 2950 3425 3419 
Q 3425 3888 3200 4109 
Q 2975 4331 2503 4331 
L 1581 4331 
L 1581 2503 
z
" transform="scale(0.015625)"/>
       <path id="DejaVuSerif-66" d="M 2753 4078 
L 2450 4078 
Q 2447 4313 2317 4434 
Q 2188 4556 1941 4556 
Q 1619 4556 1487 4379 
Q 1356 4203 1356 3750 
L 1356 3322 
L 2284 3322 
L 2284 2988 
L 1356 2988 
L 1356 331 
L 2094 331 
L 2094 0 
L 231 0 
L 231 331 
L 781 331 
L 781 2988 
L 231 2988 
L 231 3322 
L 781 3322 
L 781 3738 
Q 781 4294 1070 4578 
Q 1359 4863 1919 4863 
Q 2128 4863 2337 4825 
Q 2547 4788 2753 4709 
L 2753 4078 
z
" transform="scale(0.015625)"/>
       <path id="DejaVuSerif-72" d="M 3059 3328 
L 3059 2497 
L 2728 2497 
Q 2713 2744 2591 2866 
Q 2469 2988 2234 2988 
Q 1809 2988 1582 2694 
Q 1356 2400 1356 1850 
L 1356 331 
L 2022 331 
L 2022 0 
L 263 0 
L 263 331 
L 781 331 
L 781 2994 
L 231 2994 
L 231 3322 
L 1356 3322 
L 1356 2731 
Q 1525 3078 1790 3245 
Q 2056 3413 2438 3413 
Q 2578 3413 2733 3391 
Q 2888 3369 3059 3328 
z
" transform="scale(0.015625)"/>
       <path id="DejaVuSerif-6e" d="M 263 0 
L 263 331 
L 781 331 
L 781 2988 
L 231 2988 
L 231 3322 
L 1356 3322 
L 1356 2731 
Q 1516 3069 1770 3241 
Q 2025 3413 2363 3413 
Q 2913 3413 3172 3097 
Q 3431 2781 3431 2113 
L 3431 331 
L 3944 331 
L 3944 0 
L 2356 0 
L 2356 331 
L 2853 331 
L 2853 1931 
Q 2853 2541 2703 2767 
Q 2553 2994 2175 2994 
Q 1775 2994 1565 2701 
Q 1356 2409 1356 1850 
L 1356 331 
L 1856 331 
L 1856 0 
L 263 0 
z
" transform="scale(0.015625)"/>
       <path id="DejaVuSerif-63" d="M 3291 997 
Q 3169 466 2822 187 
Q 2475 -91 1925 -91 
Q 1200 -91 759 389 
Q 319 869 319 1663 
Q 319 2459 759 2936 
Q 1200 3413 1925 3413 
Q 2241 3413 2553 3339 
Q 2866 3266 3181 3116 
L 3181 2266 
L 2847 2266 
Q 2781 2703 2561 2903 
Q 2341 3103 1931 3103 
Q 1466 3103 1228 2742 
Q 991 2381 991 1663 
Q 991 944 1227 581 
Q 1463 219 1931 219 
Q 2303 219 2525 412 
Q 2747 606 2828 997 
L 3291 997 
z
" transform="scale(0.015625)"/>
      </defs>
      <use xlink:href="#DejaVuSerif-52"/>
      <use xlink:href="#DejaVuSerif-65" x="75.292969"/>
      <use xlink:href="#DejaVuSerif-66" x="134.472656"/>
      <use xlink:href="#DejaVuSerif-65" x="171.484375"/>
      <use xlink:href="#DejaVuSerif-72" x="230.664062"/>
      <use xlink:href="#DejaVuSerif-65" x="278.466797"/>
      <use xlink:href="#DejaVuSerif-6e" x="337.646484"/>
      <use xlink:href="#DejaVuSerif-63" x="402.050781"/>
      <use xlink:href="#DejaVuSerif-65" x="458.056641"/>
     </g>
    </g>
    <g id="line2d_64">
     <path d="M 285.468281 161.722086 
L 294.468281 161.722086 
L 303.468281 161.722086 
" style="fill: none; stroke: #008000; stroke-width: 0.75; stroke-linecap: round"/>
    </g>
    <g id="text_21">
     <!-- PISM -->
     <g style="fill: #262626" transform="translate(310.668281 164.872086) scale(0.09 -0.09)">
      <defs>
       <path id="DejaVuSerif-50" d="M 1581 2375 
L 2406 2375 
Q 2872 2375 3115 2626 
Q 3359 2878 3359 3353 
Q 3359 3831 3115 4081 
Q 2872 4331 2406 4331 
L 1581 4331 
L 1581 2375 
z
M 353 0 
L 353 331 
L 947 331 
L 947 4331 
L 353 4331 
L 353 4666 
L 2559 4666 
Q 3259 4666 3668 4311 
Q 4078 3956 4078 3353 
Q 4078 2753 3668 2397 
Q 3259 2041 2559 2041 
L 1581 2041 
L 1581 331 
L 2303 331 
L 2303 0 
L 353 0 
z
" transform="scale(0.015625)"/>
       <path id="DejaVuSerif-49" d="M 1581 331 
L 2175 331 
L 2175 0 
L 353 0 
L 353 331 
L 947 331 
L 947 4331 
L 353 4331 
L 353 4666 
L 2175 4666 
L 2175 4331 
L 1581 4331 
L 1581 331 
z
" transform="scale(0.015625)"/>
       <path id="DejaVuSerif-53" d="M 594 225 
L 594 1288 
L 953 1284 
Q 969 753 1261 498 
Q 1553 244 2150 244 
Q 2706 244 2998 464 
Q 3291 684 3291 1106 
Q 3291 1444 3114 1625 
Q 2938 1806 2369 1978 
L 1753 2163 
Q 1084 2366 811 2669 
Q 538 2972 538 3500 
Q 538 4094 959 4422 
Q 1381 4750 2144 4750 
Q 2469 4750 2856 4679 
Q 3244 4609 3681 4475 
L 3681 3481 
L 3328 3481 
Q 3275 3975 2998 4195 
Q 2722 4416 2156 4416 
Q 1663 4416 1405 4214 
Q 1147 4013 1147 3628 
Q 1147 3294 1340 3103 
Q 1534 2913 2163 2725 
L 2741 2553 
Q 3375 2363 3645 2067 
Q 3916 1772 3916 1275 
Q 3916 597 3481 253 
Q 3047 -91 2188 -91 
Q 1803 -91 1404 -12 
Q 1006 66 594 225 
z
" transform="scale(0.015625)"/>
      </defs>
      <use xlink:href="#DejaVuSerif-50"/>
      <use xlink:href="#DejaVuSerif-49" x="67.285156"/>
      <use xlink:href="#DejaVuSerif-53" x="106.787109"/>
      <use xlink:href="#DejaVuSerif-4d" x="175.292969"/>
     </g>
    </g>
    <g id="line2d_65">
     <path d="M 285.468281 174.932399 
L 294.468281 174.932399 
L 303.468281 174.932399 
" style="fill: none; stroke: #ff0000; stroke-width: 0.75; stroke-linecap: round"/>
    </g>
    <g id="text_22">
     <!-- Mathematical -->
     <g style="fill: #262626" transform="translate(310.668281 178.082399) scale(0.09 -0.09)">
      <defs>
       <path id="DejaVuSerif-61" d="M 2547 1044 
L 2547 1747 
L 1806 1747 
Q 1378 1747 1168 1562 
Q 959 1378 959 997 
Q 959 650 1171 447 
Q 1384 244 1747 244 
Q 2106 244 2326 466 
Q 2547 688 2547 1044 
z
M 3122 2075 
L 3122 331 
L 3634 331 
L 3634 0 
L 2547 0 
L 2547 359 
Q 2356 128 2106 18 
Q 1856 -91 1522 -91 
Q 969 -91 644 203 
Q 319 497 319 997 
Q 319 1513 691 1797 
Q 1063 2081 1741 2081 
L 2547 2081 
L 2547 2309 
Q 2547 2688 2317 2895 
Q 2088 3103 1672 3103 
Q 1328 3103 1125 2947 
Q 922 2791 872 2484 
L 575 2484 
L 575 3156 
Q 875 3284 1158 3348 
Q 1441 3413 1709 3413 
Q 2400 3413 2761 3070 
Q 3122 2728 3122 2075 
z
" transform="scale(0.015625)"/>
       <path id="DejaVuSerif-68" d="M 263 0 
L 263 331 
L 781 331 
L 781 4531 
L 231 4531 
L 231 4863 
L 1356 4863 
L 1356 2731 
Q 1516 3069 1770 3241 
Q 2025 3413 2363 3413 
Q 2913 3413 3172 3097 
Q 3431 2781 3431 2113 
L 3431 331 
L 3944 331 
L 3944 0 
L 2356 0 
L 2356 331 
L 2853 331 
L 2853 1931 
Q 2853 2541 2704 2764 
Q 2556 2988 2175 2988 
Q 1775 2988 1565 2697 
Q 1356 2406 1356 1850 
L 1356 331 
L 1856 331 
L 1856 0 
L 263 0 
z
" transform="scale(0.015625)"/>
      </defs>
      <use xlink:href="#DejaVuSerif-4d"/>
      <use xlink:href="#DejaVuSerif-61" x="102.392578"/>
      <use xlink:href="#DejaVuSerif-74" x="162.011719"/>
      <use xlink:href="#DejaVuSerif-68" x="202.197266"/>
      <use xlink:href="#DejaVuSerif-65" x="266.601562"/>
      <use xlink:href="#DejaVuSerif-6d" x="325.78125"/>
      <use xlink:href="#DejaVuSerif-61" x="420.605469"/>
      <use xlink:href="#DejaVuSerif-74" x="480.224609"/>
      <use xlink:href="#DejaVuSerif-69" x="520.410156"/>
      <use xlink:href="#DejaVuSerif-63" x="552.392578"/>
      <use xlink:href="#DejaVuSerif-61" x="608.398438"/>
      <use xlink:href="#DejaVuSerif-6c" x="668.017578"/>
     </g>
    </g>
   </g>
  </g>
 </g>
 <defs>
  <clipPath id="pd0d74ee9cb">
   <rect x="50.991094" y="7.2" width="330.78" height="60.284706"/>
  </clipPath>
  <clipPath id="p5d6371e2c6">
   <rect x="50.991094" y="67.484706" width="330.78" height="60.284706"/>
  </clipPath>
  <clipPath id="p18caf3caf9">
   <rect x="50.991094" y="127.769412" width="330.78" height="60.284706"/>
  </clipPath>
 </defs>
</svg>
