<?xml version="1.0" encoding="utf-8" standalone="no"?>
<!DOCTYPE svg PUBLIC "-//W3C//DTD SVG 1.1//EN"
  "http://www.w3.org/Graphics/SVG/1.1/DTD/svg11.dtd">
<svg xmlns:xlink="http://www.w3.org/1999/xlink" width="219.048163pt" height="223.917316pt" viewBox="0 0 219.048163 223.917316" xmlns="http://www.w3.org/2000/svg" version="1.1">
 <metadata>
  <rdf:RDF xmlns:dc="http://purl.org/dc/elements/1.1/" xmlns:cc="http://creativecommons.org/ns#" xmlns:rdf="http://www.w3.org/1999/02/22-rdf-syntax-ns#">
   <cc:Work>
    <dc:type rdf:resource="http://purl.org/dc/dcmitype/StillImage"/>
    <dc:date>2024-05-28T08:32:39.248675</dc:date>
    <dc:format>image/svg+xml</dc:format>
    <dc:creator>
     <cc:Agent>
      <dc:title>Matplotlib v3.8.2, https://matplotlib.org/</dc:title>
     </cc:Agent>
    </dc:creator>
   </cc:Work>
  </rdf:RDF>
 </metadata>
 <defs>
  <style type="text/css">*{stroke-linejoin: round; stroke-linecap: butt}</style>
 </defs>
 <g id="figure_1">
  <g id="patch_1">
   <path d="M 0 223.917316 
L 219.048163 223.917316 
L 219.048163 0 
L 0 0 
z
" style="fill: #ffffff"/>
  </g>
  <g id="axes_1">
   <g id="patch_2">
    <path d="M 43.011719 70.022647 
L 211.848163 70.022647 
L 211.848163 7.2 
L 43.011719 7.2 
z
" style="fill: #ffffff"/>
   </g>
   <g id="line2d_1">
    <path d="M 50.686103 39.160223 
L 51.967891 39.463071 
L 53.213152 39.985829 
L 54.421775 40.73186 
L 55.59361 41.712637 
L 59.548923 45.367177 
L 62.222395 47.499964 
L 70.718973 54.041909 
L 75.003952 57.505292 
L 77.018142 58.860335 
L 77.970392 59.223688 
L 78.885975 59.344079 
L 79.801499 59.243831 
L 80.753815 58.915948 
L 81.779205 58.320484 
L 82.87787 57.418744 
L 84.08646 56.123347 
L 85.368242 54.409798 
L 86.796637 52.105987 
L 91.997078 43.518935 
L 94.560667 39.775692 
L 96.867948 36.78161 
L 99.211794 34.102668 
L 101.372608 31.959802 
L 103.789678 29.888893 
L 106.719593 27.683039 
L 110.088899 25.427629 
L 114.776664 22.57075 
L 119.098186 20.178102 
L 122.870401 18.340861 
L 126.862264 16.672309 
L 132.941756 14.367279 
L 135.578701 13.584478 
L 138.105644 13.062231 
L 140.302983 12.830736 
L 141.291848 12.890472 
L 142.28063 13.184519 
L 143.306086 13.722976 
L 144.44144 14.577109 
L 145.686602 15.798797 
L 147.078268 17.487467 
L 148.579818 19.674891 
L 150.154617 22.368422 
L 154.329651 29.87496 
L 156.636914 33.526919 
L 158.907542 36.707969 
L 161.178164 39.50901 
L 163.412191 41.916442 
L 165.792697 44.154531 
L 168.466195 46.356397 
L 171.982004 48.943219 
L 177.03607 52.366606 
L 181.284299 54.998113 
L 184.433924 56.688771 
L 187.400378 58.026252 
L 190.696452 59.251748 
L 195.054601 60.620758 
L 203.148331 62.918275 
L 204.173761 63.130476 
L 204.173761 63.130476 
" clip-path="url(#p06553f8792)" style="fill: none; stroke: #000000; stroke-width: 0.6; stroke-linecap: round"/>
   </g>
   <g id="matplotlib.axis_1">
    <g id="xtick_1">
     <g id="line2d_2">
      <path d="M 50.686103 70.022647 
L 50.686103 7.2 
" clip-path="url(#p06553f8792)" style="fill: none; stroke: #b0b0b0; stroke-width: 0.1; stroke-linecap: round"/>
     </g>
     <g id="line2d_3"/>
    </g>
    <g id="xtick_2">
     <g id="line2d_4">
      <path d="M 87.309266 70.022647 
L 87.309266 7.2 
" clip-path="url(#p06553f8792)" style="fill: none; stroke: #b0b0b0; stroke-width: 0.1; stroke-linecap: round"/>
     </g>
     <g id="line2d_5"/>
    </g>
    <g id="xtick_3">
     <g id="line2d_6">
      <path d="M 123.932429 70.022647 
L 123.932429 7.2 
" clip-path="url(#p06553f8792)" style="fill: none; stroke: #b0b0b0; stroke-width: 0.1; stroke-linecap: round"/>
     </g>
     <g id="line2d_7"/>
    </g>
    <g id="xtick_4">
     <g id="line2d_8">
      <path d="M 160.555592 70.022647 
L 160.555592 7.2 
" clip-path="url(#p06553f8792)" style="fill: none; stroke: #b0b0b0; stroke-width: 0.1; stroke-linecap: round"/>
     </g>
     <g id="line2d_9"/>
    </g>
    <g id="xtick_5">
     <g id="line2d_10">
      <path d="M 197.178755 70.022647 
L 197.178755 7.2 
" clip-path="url(#p06553f8792)" style="fill: none; stroke: #b0b0b0; stroke-width: 0.1; stroke-linecap: round"/>
     </g>
     <g id="line2d_11"/>
    </g>
   </g>
   <g id="matplotlib.axis_2">
    <g id="ytick_1">
     <g id="line2d_12">
      <path d="M 43.011719 58.279051 
L 211.848163 58.279051 
" clip-path="url(#p06553f8792)" style="fill: none; stroke: #b0b0b0; stroke-width: 0.1; stroke-linecap: round"/>
     </g>
     <g id="line2d_13"/>
     <g id="text_1">
      <!-- −10 -->
      <g style="fill: #262626" transform="translate(24.738438 60.938504) scale(0.07 -0.07)">
       <defs>
        <path id="DejaVuSerif-2212" d="M 678 2259 
L 4684 2259 
L 4684 1753 
L 678 1753 
L 678 2259 
z
" transform="scale(0.015625)"/>
        <path id="DejaVuSerif-31" d="M 909 0 
L 909 331 
L 1722 331 
L 1722 4213 
L 781 3603 
L 781 4013 
L 1919 4750 
L 2350 4750 
L 2350 331 
L 3163 331 
L 3163 0 
L 909 0 
z
" transform="scale(0.015625)"/>
        <path id="DejaVuSerif-30" d="M 2034 219 
Q 2513 219 2750 744 
Q 2988 1269 2988 2328 
Q 2988 3391 2750 3916 
Q 2513 4441 2034 4441 
Q 1556 4441 1318 3916 
Q 1081 3391 1081 2328 
Q 1081 1269 1318 744 
Q 1556 219 2034 219 
z
M 2034 -91 
Q 1275 -91 848 546 
Q 422 1184 422 2328 
Q 422 3475 848 4112 
Q 1275 4750 2034 4750 
Q 2797 4750 3222 4112 
Q 3647 3475 3647 2328 
Q 3647 1184 3222 546 
Q 2797 -91 2034 -91 
z
" transform="scale(0.015625)"/>
       </defs>
       <use xlink:href="#DejaVuSerif-2212"/>
       <use xlink:href="#DejaVuSerif-31" x="83.789062"/>
       <use xlink:href="#DejaVuSerif-30" x="147.412109"/>
      </g>
     </g>
    </g>
    <g id="ytick_2">
     <g id="line2d_14">
      <path d="M 43.011719 38.733318 
L 211.848163 38.733318 
" clip-path="url(#p06553f8792)" style="fill: none; stroke: #b0b0b0; stroke-width: 0.1; stroke-linecap: round"/>
     </g>
     <g id="line2d_15"/>
     <g id="text_2">
      <!-- 0 -->
      <g style="fill: #262626" transform="translate(35.057969 41.392771) scale(0.07 -0.07)">
       <use xlink:href="#DejaVuSerif-30"/>
      </g>
     </g>
    </g>
    <g id="ytick_3">
     <g id="line2d_16">
      <path d="M 43.011719 19.187586 
L 211.848163 19.187586 
" clip-path="url(#p06553f8792)" style="fill: none; stroke: #b0b0b0; stroke-width: 0.1; stroke-linecap: round"/>
     </g>
     <g id="line2d_17"/>
     <g id="text_3">
      <!-- 10 -->
      <g style="fill: #262626" transform="translate(30.604219 21.847039) scale(0.07 -0.07)">
       <use xlink:href="#DejaVuSerif-31"/>
       <use xlink:href="#DejaVuSerif-30" x="63.623047"/>
      </g>
     </g>
    </g>
    <g id="text_4">
     <!-- $\beta$ $[deg]$ -->
     <g style="fill: #262626" transform="translate(12.59 51.316324) rotate(-90) scale(0.07 -0.07)">
      <defs>
       <path id="DejaVuSans-Oblique-3b2" d="M 872 216 
L 572 -1331 
L -6 -1331 
L 928 3478 
Q 1206 4903 2538 4903 
Q 3888 4903 3659 3700 
Q 3503 2844 2894 2531 
Q 3713 2250 3553 1416 
Q 3272 -69 1759 -66 
Q 1097 -63 872 216 
z
M 1019 966 
Q 1259 422 1875 425 
Q 2775 425 2966 1406 
Q 3138 2288 1675 2219 
L 1778 2750 
Q 2909 2731 3106 3750 
Q 3241 4438 2509 4434 
Q 1691 4434 1503 3459 
L 1019 966 
z
" transform="scale(0.015625)"/>
       <path id="DejaVuSerif-20" transform="scale(0.015625)"/>
       <path id="DejaVuSans-5b" d="M 550 4863 
L 1875 4863 
L 1875 4416 
L 1125 4416 
L 1125 -397 
L 1875 -397 
L 1875 -844 
L 550 -844 
L 550 4863 
z
" transform="scale(0.015625)"/>
       <path id="DejaVuSans-Oblique-64" d="M 2675 525 
Q 2444 222 2128 65 
Q 1813 -91 1428 -91 
Q 903 -91 598 267 
Q 294 625 294 1247 
Q 294 1766 478 2236 
Q 663 2706 1013 3078 
Q 1244 3325 1534 3454 
Q 1825 3584 2144 3584 
Q 2481 3584 2739 3421 
Q 2997 3259 3138 2956 
L 3513 4863 
L 4091 4863 
L 3144 0 
L 2566 0 
L 2675 525 
z
M 891 1350 
Q 891 897 1095 644 
Q 1300 391 1663 391 
Q 1931 391 2161 520 
Q 2391 650 2566 903 
Q 2750 1166 2856 1509 
Q 2963 1853 2963 2188 
Q 2963 2622 2758 2865 
Q 2553 3109 2194 3109 
Q 1922 3109 1687 2981 
Q 1453 2853 1288 2613 
Q 1106 2353 998 2009 
Q 891 1666 891 1350 
z
" transform="scale(0.015625)"/>
       <path id="DejaVuSans-Oblique-65" d="M 3078 2063 
Q 3088 2113 3092 2166 
Q 3097 2219 3097 2272 
Q 3097 2653 2873 2875 
Q 2650 3097 2266 3097 
Q 1838 3097 1509 2826 
Q 1181 2556 1013 2059 
L 3078 2063 
z
M 3578 1613 
L 903 1613 
Q 884 1494 878 1425 
Q 872 1356 872 1306 
Q 872 872 1139 634 
Q 1406 397 1894 397 
Q 2269 397 2603 481 
Q 2938 566 3225 728 
L 3116 159 
Q 2806 34 2476 -28 
Q 2147 -91 1806 -91 
Q 1078 -91 686 257 
Q 294 606 294 1247 
Q 294 1794 489 2264 
Q 684 2734 1063 3103 
Q 1306 3334 1642 3459 
Q 1978 3584 2356 3584 
Q 2950 3584 3301 3228 
Q 3653 2872 3653 2272 
Q 3653 2128 3634 1964 
Q 3616 1800 3578 1613 
z
" transform="scale(0.015625)"/>
       <path id="DejaVuSans-Oblique-67" d="M 3816 3500 
L 3219 434 
Q 3047 -456 2561 -893 
Q 2075 -1331 1253 -1331 
Q 950 -1331 690 -1286 
Q 431 -1241 206 -1147 
L 313 -588 
Q 525 -725 762 -790 
Q 1000 -856 1269 -856 
Q 1816 -856 2167 -557 
Q 2519 -259 2631 300 
L 2681 563 
Q 2441 288 2122 144 
Q 1803 0 1434 0 
Q 903 0 598 351 
Q 294 703 294 1319 
Q 294 1803 478 2267 
Q 663 2731 997 3091 
Q 1219 3328 1514 3456 
Q 1809 3584 2131 3584 
Q 2484 3584 2746 3420 
Q 3009 3256 3138 2956 
L 3238 3500 
L 3816 3500 
z
M 2950 2216 
Q 2950 2641 2750 2872 
Q 2550 3103 2181 3103 
Q 1953 3103 1747 3012 
Q 1541 2922 1394 2759 
Q 1156 2491 1023 2127 
Q 891 1763 891 1375 
Q 891 944 1092 712 
Q 1294 481 1672 481 
Q 2219 481 2584 976 
Q 2950 1472 2950 2216 
z
" transform="scale(0.015625)"/>
       <path id="DejaVuSans-5d" d="M 1947 4863 
L 1947 -844 
L 622 -844 
L 622 -397 
L 1369 -397 
L 1369 4416 
L 622 4416 
L 622 4863 
L 1947 4863 
z
" transform="scale(0.015625)"/>
      </defs>
      <use xlink:href="#DejaVuSans-Oblique-3b2" transform="translate(0 0.390625)"/>
      <use xlink:href="#DejaVuSerif-20" transform="translate(63.818359 0.390625)"/>
      <use xlink:href="#DejaVuSans-5b" transform="translate(95.605469 0.390625)"/>
      <use xlink:href="#DejaVuSans-Oblique-64" transform="translate(134.619141 0.390625)"/>
      <use xlink:href="#DejaVuSans-Oblique-65" transform="translate(198.095703 0.390625)"/>
      <use xlink:href="#DejaVuSans-Oblique-67" transform="translate(259.619141 0.390625)"/>
      <use xlink:href="#DejaVuSans-5d" transform="translate(323.095703 0.390625)"/>
     </g>
    </g>
   </g>
   <g id="line2d_18">
    <path d="M 50.686103 38.733318 
L 51.858044 38.840651 
L 52.993362 39.16836 
L 54.092057 39.719822 
L 55.263998 40.56909 
L 57.71775 42.763706 
L 65.188875 49.427467 
L 68.887815 52.383895 
L 72.66 55.116771 
L 76.35894 57.524801 
L 78.519707 58.724872 
L 79.581778 59.013843 
L 80.533981 59.055556 
L 81.522806 58.877567 
L 82.511631 58.478364 
L 83.573703 57.809397 
L 84.709021 56.831179 
L 85.954209 55.455216 
L 87.455758 53.437245 
L 94.853637 43.125115 
L 97.966606 39.212074 
L 101.189445 35.505798 
L 104.339037 32.194428 
L 107.525252 29.177141 
L 110.931206 26.261345 
L 114.410406 23.573483 
L 118.329085 20.843877 
L 122.028024 18.54015 
L 126.312934 16.152684 
L 130.927453 13.83555 
L 135.322233 11.869038 
L 139.57052 10.195479 
L 140.559345 10.056567 
L 141.54817 10.148457 
L 142.573619 10.48204 
L 143.599067 11.052229 
L 144.734386 11.943858 
L 145.979573 13.220505 
L 147.33463 14.944802 
L 148.982672 17.440065 
L 155.757958 27.912473 
L 159.127289 32.695257 
L 162.276881 36.764238 
L 165.499719 40.573093 
L 168.978919 44.337388 
L 172.018642 47.299105 
L 175.424596 50.31105 
L 178.94042 53.111927 
L 182.675983 55.808844 
L 186.960893 58.598745 
L 190.733078 60.796301 
L 195.530713 63.309575 
L 200.47484 65.611615 
L 204.173779 67.167072 
L 204.173779 67.167072 
" clip-path="url(#p06553f8792)" style="fill: none; stroke: #0000ff; stroke-width: 0.6; stroke-linecap: round"/>
   </g>
   <g id="line2d_19">
    <path d="M 50.686103 38.733318 
L 51.858044 38.840507 
L 52.993362 39.167232 
L 54.092057 39.716089 
L 55.263998 40.559739 
L 57.900866 42.888245 
L 63.467587 47.751676 
L 67.129903 50.621928 
L 70.425988 52.935212 
L 74.051681 55.213562 
L 77.713997 57.24952 
L 79.288793 57.949922 
L 80.314242 58.149877 
L 81.303067 58.123258 
L 82.328516 57.872908 
L 83.353964 57.394268 
L 84.452659 56.635615 
L 85.6246 55.550544 
L 86.906411 54.046282 
L 88.700946 51.52313 
L 94.560652 43.199445 
L 97.746867 39.118902 
L 100.640097 35.764709 
L 103.643196 32.620433 
L 106.536426 29.914775 
L 109.576149 27.378678 
L 112.872234 24.922809 
L 116.241565 22.690821 
L 119.903881 20.538901 
L 123.566197 18.640895 
L 128.107469 16.545537 
L 132.575495 14.738562 
L 138.178839 12.752911 
L 140.632591 12.053668 
L 141.65804 12.048724 
L 142.646865 12.259415 
L 143.672314 12.704056 
L 144.771009 13.428791 
L 145.94295 14.473472 
L 147.224761 15.919056 
L 148.616441 17.833803 
L 151.253309 21.999893 
L 156.380551 29.969946 
L 159.49352 34.391024 
L 162.38675 38.106643 
L 165.353226 41.567517 
L 168.429572 44.802768 
L 171.249556 47.461199 
L 174.472394 50.163108 
L 177.731855 52.600175 
L 181.101186 54.85208 
L 185.129734 57.247091 
L 188.645558 59.099299 
L 192.820599 61.045821 
L 197.544987 62.996055 
L 202.342621 64.748232 
L 203.770924 65.22877 
L 203.770924 65.22877 
" clip-path="url(#p06553f8792)" style="fill: none; stroke: #008000; stroke-width: 0.6; stroke-linecap: round"/>
   </g>
   <g id="line2d_20">
    <path d="M 50.686103 38.733318 
L 52.004536 38.843065 
L 53.139855 39.160094 
L 54.201926 39.696285 
L 55.190752 40.440721 
L 56.802171 42.021104 
L 61.856167 46.860222 
L 65.59173 50.130742 
L 69.034307 52.845375 
L 72.476885 55.276579 
L 75.919462 57.437819 
L 77.933736 58.510596 
L 78.959185 58.756751 
L 79.911387 58.758938 
L 80.863589 58.537316 
L 81.852414 58.075925 
L 82.877863 57.348712 
L 83.976558 56.29112 
L 85.185122 54.806786 
L 86.503556 52.815156 
L 92.180146 43.594423 
L 95.036753 39.504303 
L 97.78349 35.958478 
L 100.493604 32.820599 
L 103.240342 29.984386 
L 106.133572 27.31561 
L 109.136671 24.846903 
L 112.213017 22.605241 
L 115.545724 20.452584 
L 119.098171 18.425483 
L 122.943603 16.491892 
L 126.935528 14.738762 
L 131.366931 13.040795 
L 135.798334 11.574301 
L 136.750536 11.498443 
L 137.666115 11.640249 
L 138.65494 12.028168 
L 139.643766 12.659065 
L 140.742461 13.640871 
L 141.914402 14.999728 
L 143.232836 16.888333 
L 144.661139 19.331252 
L 150.630715 30.16499 
L 153.340829 34.458682 
L 155.941073 38.168129 
L 158.541318 41.494893 
L 161.214809 44.555943 
L 163.924923 47.325989 
L 166.744907 49.895275 
L 169.67476 52.263131 
L 172.897598 54.583334 
L 176.230306 56.7118 
L 179.855999 58.758491 
L 183.701431 60.671832 
L 187.62011 62.376442 
L 192.198005 64.121127 
L 196.592784 65.587303 
L 196.592784 65.587303 
" clip-path="url(#p06553f8792)" style="fill: none; stroke: #ff0000; stroke-width: 0.6; stroke-linecap: round"/>
   </g>
   <g id="patch_3">
    <path d="M 43.011719 70.022647 
L 43.011719 7.2 
" style="fill: none; stroke: #000000; stroke-linejoin: miter; stroke-linecap: square"/>
   </g>
   <g id="patch_4">
    <path d="M 43.011719 70.022647 
L 211.848163 70.022647 
" style="fill: none; stroke: #000000; stroke-linejoin: miter; stroke-linecap: square"/>
   </g>
  </g>
  <g id="axes_2">
   <g id="patch_5">
    <path d="M 43.011719 132.845294 
L 211.848163 132.845294 
L 211.848163 70.022647 
L 43.011719 70.022647 
z
" style="fill: #ffffff"/>
   </g>
   <g id="line2d_21">
    <path d="M 50.686103 101.981352 
L 53.249731 102.149091 
L 54.897752 102.48369 
L 56.326088 103.001981 
L 57.827627 103.792704 
L 59.548923 104.958432 
L 61.599794 106.630422 
L 64.126796 108.99557 
L 67.386272 112.368451 
L 71.781096 117.26074 
L 79.764927 126.19749 
L 81.449607 127.646435 
L 82.914512 128.622561 
L 84.232953 129.245193 
L 85.478159 129.594649 
L 86.686738 129.702022 
L 87.931852 129.584374 
L 89.323529 129.226436 
L 90.935087 128.57584 
L 92.839393 127.560149 
L 95.183297 126.045487 
L 97.893382 124.023427 
L 101.262749 121.211871 
L 105.291239 117.550371 
L 110.821421 112.201392 
L 117.230386 105.684233 
L 126.422899 95.971099 
L 140.44953 81.056923 
L 143.086336 78.594248 
L 144.880867 77.214433 
L 146.455667 76.278874 
L 147.883992 75.685923 
L 149.239024 75.364911 
L 150.520849 75.286717 
L 151.875913 75.432766 
L 153.414174 75.830884 
L 155.172013 76.521671 
L 157.22288 77.574139 
L 159.676691 79.093587 
L 162.643138 81.202253 
L 166.415298 84.173253 
L 171.542534 88.507225 
L 176.669806 93.128444 
L 182.749222 98.922609 
L 190.769698 106.898095 
L 204.173761 120.37961 
L 204.173761 120.37961 
" clip-path="url(#pd143e808ff)" style="fill: none; stroke: #000000; stroke-width: 0.6; stroke-linecap: round"/>
   </g>
   <g id="line2d_22">
    <path d="M 50.686103 102.044307 
L 52.260891 108.680722 
L 55.080886 120.436118 
L 55.59361 122.485717 
L 76.43227 122.378562 
L 81.083394 102.92523 
L 82.511734 96.964657 
L 83.500464 92.808068 
L 83.830065 91.465615 
L 84.45267 88.841711 
L 85.001995 86.572985 
L 86.247176 81.394607 
L 87.529019 81.448385 
L 140.339661 81.542296 
L 141.548192 86.639606 
L 147.261365 110.456613 
L 150.264479 122.484112 
L 161.471156 122.472072 
L 204.173761 122.472072 
L 204.173761 122.472072 
" clip-path="url(#pd143e808ff)" style="fill: none; stroke-dasharray: 2.22,0.96; stroke-dashoffset: 0; stroke: #808080; stroke-width: 0.6"/>
   </g>
   <g id="matplotlib.axis_3">
    <g id="xtick_6">
     <g id="line2d_23">
      <path d="M 50.686103 132.845294 
L 50.686103 70.022647 
" clip-path="url(#pd143e808ff)" style="fill: none; stroke: #b0b0b0; stroke-width: 0.1; stroke-linecap: round"/>
     </g>
     <g id="line2d_24"/>
    </g>
    <g id="xtick_7">
     <g id="line2d_25">
      <path d="M 87.309266 132.845294 
L 87.309266 70.022647 
" clip-path="url(#pd143e808ff)" style="fill: none; stroke: #b0b0b0; stroke-width: 0.1; stroke-linecap: round"/>
     </g>
     <g id="line2d_26"/>
    </g>
    <g id="xtick_8">
     <g id="line2d_27">
      <path d="M 123.932429 132.845294 
L 123.932429 70.022647 
" clip-path="url(#pd143e808ff)" style="fill: none; stroke: #b0b0b0; stroke-width: 0.1; stroke-linecap: round"/>
     </g>
     <g id="line2d_28"/>
    </g>
    <g id="xtick_9">
     <g id="line2d_29">
      <path d="M 160.555592 132.845294 
L 160.555592 70.022647 
" clip-path="url(#pd143e808ff)" style="fill: none; stroke: #b0b0b0; stroke-width: 0.1; stroke-linecap: round"/>
     </g>
     <g id="line2d_30"/>
    </g>
    <g id="xtick_10">
     <g id="line2d_31">
      <path d="M 197.178755 132.845294 
L 197.178755 70.022647 
" clip-path="url(#pd143e808ff)" style="fill: none; stroke: #b0b0b0; stroke-width: 0.1; stroke-linecap: round"/>
     </g>
     <g id="line2d_32"/>
    </g>
   </g>
   <g id="matplotlib.axis_4">
    <g id="ytick_4">
     <g id="line2d_33">
      <path d="M 43.011719 122.472536 
L 211.848163 122.472536 
" clip-path="url(#pd143e808ff)" style="fill: none; stroke: #b0b0b0; stroke-width: 0.1; stroke-linecap: round"/>
     </g>
     <g id="line2d_34"/>
     <g id="text_5">
      <!-- −20 -->
      <g style="fill: #262626" transform="translate(24.738438 125.131989) scale(0.07 -0.07)">
       <defs>
        <path id="DejaVuSerif-32" d="M 819 3553 
L 469 3553 
L 469 4384 
Q 803 4563 1142 4656 
Q 1481 4750 1806 4750 
Q 2534 4750 2956 4397 
Q 3378 4044 3378 3438 
Q 3378 2753 2422 1800 
Q 2347 1728 2309 1691 
L 1131 513 
L 3078 513 
L 3078 1088 
L 3444 1088 
L 3444 0 
L 434 0 
L 434 341 
L 1850 1753 
Q 2319 2222 2519 2614 
Q 2719 3006 2719 3438 
Q 2719 3909 2473 4175 
Q 2228 4441 1797 4441 
Q 1350 4441 1106 4219 
Q 863 3997 819 3553 
z
" transform="scale(0.015625)"/>
       </defs>
       <use xlink:href="#DejaVuSerif-2212"/>
       <use xlink:href="#DejaVuSerif-32" x="83.789062"/>
       <use xlink:href="#DejaVuSerif-30" x="147.412109"/>
      </g>
     </g>
    </g>
    <g id="ytick_5">
     <g id="line2d_35">
      <path d="M 43.011719 101.960028 
L 211.848163 101.960028 
" clip-path="url(#pd143e808ff)" style="fill: none; stroke: #b0b0b0; stroke-width: 0.1; stroke-linecap: round"/>
     </g>
     <g id="line2d_36"/>
     <g id="text_6">
      <!-- 0 -->
      <g style="fill: #262626" transform="translate(35.057969 104.619481) scale(0.07 -0.07)">
       <use xlink:href="#DejaVuSerif-30"/>
      </g>
     </g>
    </g>
    <g id="ytick_6">
     <g id="line2d_37">
      <path d="M 43.011719 81.447519 
L 211.848163 81.447519 
" clip-path="url(#pd143e808ff)" style="fill: none; stroke: #b0b0b0; stroke-width: 0.1; stroke-linecap: round"/>
     </g>
     <g id="line2d_38"/>
     <g id="text_7">
      <!-- 20 -->
      <g style="fill: #262626" transform="translate(30.604219 84.106973) scale(0.07 -0.07)">
       <use xlink:href="#DejaVuSerif-32"/>
       <use xlink:href="#DejaVuSerif-30" x="63.623047"/>
      </g>
     </g>
    </g>
    <g id="text_8">
     <!-- $\psi$ $[deg]$ -->
     <g style="fill: #262626" transform="translate(12.59 114.208971) rotate(-90) scale(0.07 -0.07)">
      <defs>
       <path id="DejaVuSans-Oblique-3c8" d="M 1591 -78 
Q 891 38 616 341 
Q 278 713 425 1472 
L 819 3500 
L 1400 3500 
L 1009 1494 
Q 900 922 1119 684 
Q 1313 478 1691 434 
L 2284 3500 
L 2856 3500 
L 2263 438 
Q 2681 481 2928 688 
Q 3247 950 3353 1497 
L 3741 3500 
L 4322 3500 
L 3928 1475 
Q 3775 688 3300 344 
Q 2872 34 2163 -75 
L 1919 -1331 
L 1347 -1331 
L 1591 -78 
z
" transform="scale(0.015625)"/>
      </defs>
      <use xlink:href="#DejaVuSans-Oblique-3c8" transform="translate(0 0.015625)"/>
      <use xlink:href="#DejaVuSerif-20" transform="translate(65.966797 0.015625)"/>
      <use xlink:href="#DejaVuSans-5b" transform="translate(97.753906 0.015625)"/>
      <use xlink:href="#DejaVuSans-Oblique-64" transform="translate(136.767578 0.015625)"/>
      <use xlink:href="#DejaVuSans-Oblique-65" transform="translate(200.244141 0.015625)"/>
      <use xlink:href="#DejaVuSans-Oblique-67" transform="translate(261.767578 0.015625)"/>
      <use xlink:href="#DejaVuSans-5d" transform="translate(325.244141 0.015625)"/>
     </g>
    </g>
   </g>
   <g id="line2d_39">
    <path d="M 50.686103 101.960028 
L 53.32297 102.070375 
L 54.82452 102.364891 
L 56.179577 102.856143 
L 57.754373 103.679694 
L 59.658778 104.941524 
L 61.966037 106.747989 
L 64.89589 109.338572 
L 68.521583 112.854391 
L 73.062855 117.582003 
L 81.998907 127.005561 
L 83.463834 128.058191 
L 84.782267 128.742363 
L 85.990832 129.128545 
L 87.162773 129.269817 
L 88.371337 129.187081 
L 89.763018 128.864832 
L 91.41106 128.243006 
L 93.352088 127.259777 
L 95.659347 125.832379 
L 98.442707 123.839444 
L 101.738792 121.198632 
L 105.510978 117.878211 
L 110.015627 113.608091 
L 115.069623 108.501972 
L 120.70959 102.47955 
L 127.594745 94.788852 
L 135.17574 85.97283 
L 142.463749 77.540658 
L 144.111792 76.067312 
L 145.540095 75.079504 
L 146.858529 74.434198 
L 148.067093 74.083468 
L 149.275658 73.965399 
L 150.630715 74.065452 
L 152.168888 74.40602 
L 153.963423 75.035422 
L 156.050943 76.011165 
L 158.504695 77.415358 
L 161.434548 79.360924 
L 164.803879 81.870709 
L 168.539442 84.935078 
L 172.860975 88.788213 
L 177.731855 93.432661 
L 183.042214 98.802665 
L 188.755428 104.896104 
L 195.860321 112.817129 
L 203.807548 122.023591 
L 204.173779 122.454164 
L 204.173779 122.454164 
" clip-path="url(#pd143e808ff)" style="fill: none; stroke: #0000ff; stroke-width: 0.6; stroke-linecap: round"/>
   </g>
   <g id="line2d_40">
    <path d="M 50.686103 101.960028 
L 53.32297 102.070147 
L 54.82452 102.363567 
L 56.2162 102.868392 
L 57.790996 103.690482 
L 59.732024 104.968311 
L 62.149153 106.841106 
L 65.262122 109.551815 
L 69.290669 113.367374 
L 74.564405 118.679028 
L 82.03553 126.235198 
L 83.573703 127.369165 
L 84.92876 128.103852 
L 86.173948 128.533947 
L 87.345889 128.706313 
L 88.51783 128.649631 
L 89.836264 128.353405 
L 91.374437 127.771841 
L 93.205595 126.83148 
L 95.439608 125.422945 
L 98.186345 123.417823 
L 101.592299 120.643193 
L 105.65747 117.036967 
L 110.784713 112.179144 
L 116.754289 106.207017 
L 124.042298 98.589848 
L 132.612119 89.308734 
L 143.415952 77.618073 
L 144.990748 76.368822 
L 146.382428 75.539975 
L 147.664239 75.030466 
L 148.872803 74.788323 
L 150.081367 74.778737 
L 151.436424 74.999475 
L 153.01122 75.48961 
L 154.842379 76.299321 
L 157.003145 77.506173 
L 159.640013 79.245292 
L 162.862851 81.645968 
L 166.67166 84.767861 
L 171.06644 88.66571 
L 176.669784 93.943479 
L 182.822475 100.051516 
L 189.744253 107.243317 
L 198.167581 116.295381 
L 203.770924 122.454065 
L 203.770924 122.454065 
" clip-path="url(#pd143e808ff)" style="fill: none; stroke: #008000; stroke-width: 0.6; stroke-linecap: round"/>
   </g>
   <g id="line2d_41">
    <path d="M 50.686103 101.960028 
L 53.249724 102.06835 
L 54.787897 102.365173 
L 56.2162 102.867284 
L 57.790996 103.664635 
L 59.658778 104.869999 
L 61.856167 106.564011 
L 64.493035 108.888381 
L 67.642627 111.970772 
L 71.37819 115.947057 
L 75.809592 120.998715 
L 80.936835 126.84989 
L 82.475008 128.202633 
L 83.793442 129.083412 
L 85.002006 129.636146 
L 86.173948 129.928513 
L 87.309266 129.982488 
L 88.554453 129.809546 
L 89.982757 129.378958 
L 91.667422 128.629763 
L 93.645073 127.499955 
L 95.988955 125.895894 
L 98.699069 123.764446 
L 101.885285 120.964806 
L 105.437731 117.541207 
L 109.429656 113.376594 
L 114.007552 108.268664 
L 119.171418 102.163769 
L 125.140993 94.749547 
L 132.172641 85.653783 
L 139.094418 76.724794 
L 140.669214 75.14834 
L 142.024271 74.098796 
L 143.232836 73.431357 
L 144.404777 73.034129 
L 145.540095 72.88236 
L 146.785283 72.951188 
L 148.213586 73.262842 
L 149.898252 73.870203 
L 151.875902 74.832404 
L 154.183162 76.213859 
L 156.820029 78.059542 
L 159.786506 80.412136 
L 163.119213 83.34574 
L 166.854776 86.940129 
L 171.029817 91.27298 
L 175.644335 96.388434 
L 180.954694 102.619466 
L 187.034139 110.106109 
L 194.139033 119.220729 
L 196.592784 122.438448 
L 196.592784 122.438448 
" clip-path="url(#pd143e808ff)" style="fill: none; stroke: #ff0000; stroke-width: 0.6; stroke-linecap: round"/>
   </g>
   <g id="patch_6">
    <path d="M 43.011719 132.845294 
L 43.011719 70.022647 
" style="fill: none; stroke: #000000; stroke-linejoin: miter; stroke-linecap: square"/>
   </g>
   <g id="patch_7">
    <path d="M 43.011719 132.845294 
L 211.848163 132.845294 
" style="fill: none; stroke: #000000; stroke-linejoin: miter; stroke-linecap: square"/>
   </g>
  </g>
  <g id="axes_3">
   <g id="patch_8">
    <path d="M 43.011719 195.667941 
L 211.848163 195.667941 
L 211.848163 132.845294 
L 43.011719 132.845294 
z
" style="fill: #ffffff"/>
   </g>
   <g id="line2d_42">
    <path d="M 50.686103 164.904298 
L 51.345312 165.211174 
L 52.077783 165.826584 
L 52.920101 166.857335 
L 53.835709 168.338926 
L 54.861121 170.443287 
L 56.252845 173.907508 
L 57.75449 177.289202 
L 59.146035 179.880959 
L 60.501129 181.953106 
L 61.856153 183.640284 
L 63.174601 184.931271 
L 64.786046 186.169435 
L 66.543943 187.206648 
L 68.631471 188.146009 
L 70.535853 188.742495 
L 73.026243 189.2097 
L 74.674267 189.334896 
L 76.065962 189.232183 
L 76.871653 188.999841 
L 77.457638 188.559151 
L 78.153508 187.748151 
L 78.995826 186.40263 
L 80.021242 184.322229 
L 81.303107 181.183414 
L 82.87787 176.699002 
L 85.001995 169.934924 
L 87.931852 160.559496 
L 89.177062 157.561643 
L 90.422231 155.133083 
L 91.667433 153.174718 
L 92.985852 151.517633 
L 94.377533 150.110518 
L 96.538285 148.31399 
L 98.259599 147.12057 
L 100.090742 146.164965 
L 103.093919 144.868077 
L 105.511044 144.113498 
L 108.074625 143.574164 
L 114.190777 142.469238 
L 119.42778 141.788724 
L 130.964131 140.983445 
L 134.1869 141.437761 
L 138.252082 142.174759 
L 140.010012 142.823406 
L 140.925664 143.337922 
L 141.658069 144.057812 
L 142.536992 145.253212 
L 143.599071 147.094997 
L 144.880867 149.790289 
L 146.492305 153.726534 
L 148.763018 159.938373 
L 151.802704 168.277248 
L 153.047866 170.843971 
L 154.402963 173.117805 
L 155.86782 175.136765 
L 157.33275 176.771888 
L 158.944191 178.228433 
L 160.628838 179.449943 
L 162.533342 180.548625 
L 164.401046 181.396445 
L 166.342066 182.024406 
L 169.41839 182.741282 
L 180.588477 185.121513 
L 185.642499 185.800259 
L 188.975207 186.035509 
L 194.065794 186.17165 
L 199.742424 186.148608 
L 202.452549 185.921089 
L 204.173761 185.6875 
L 204.173761 185.6875 
" clip-path="url(#pad3f1fe4af)" style="fill: none; stroke: #000000; stroke-width: 0.6; stroke-linecap: round"/>
   </g>
   <g id="matplotlib.axis_5">
    <g id="xtick_11">
     <g id="line2d_43">
      <path d="M 50.686103 195.667941 
L 50.686103 132.845294 
" clip-path="url(#pad3f1fe4af)" style="fill: none; stroke: #b0b0b0; stroke-width: 0.1; stroke-linecap: round"/>
     </g>
     <g id="line2d_44"/>
     <g id="text_9">
      <!-- 0 -->
      <g style="fill: #262626" transform="translate(48.459228 204.486848) scale(0.07 -0.07)">
       <use xlink:href="#DejaVuSerif-30"/>
      </g>
     </g>
    </g>
    <g id="xtick_12">
     <g id="line2d_45">
      <path d="M 87.309266 195.667941 
L 87.309266 132.845294 
" clip-path="url(#pad3f1fe4af)" style="fill: none; stroke: #b0b0b0; stroke-width: 0.1; stroke-linecap: round"/>
     </g>
     <g id="line2d_46"/>
     <g id="text_10">
      <!-- 10 -->
      <g style="fill: #262626" transform="translate(82.855516 204.486848) scale(0.07 -0.07)">
       <use xlink:href="#DejaVuSerif-31"/>
       <use xlink:href="#DejaVuSerif-30" x="63.623047"/>
      </g>
     </g>
    </g>
    <g id="xtick_13">
     <g id="line2d_47">
      <path d="M 123.932429 195.667941 
L 123.932429 132.845294 
" clip-path="url(#pad3f1fe4af)" style="fill: none; stroke: #b0b0b0; stroke-width: 0.1; stroke-linecap: round"/>
     </g>
     <g id="line2d_48"/>
     <g id="text_11">
      <!-- 20 -->
      <g style="fill: #262626" transform="translate(119.478679 204.486848) scale(0.07 -0.07)">
       <use xlink:href="#DejaVuSerif-32"/>
       <use xlink:href="#DejaVuSerif-30" x="63.623047"/>
      </g>
     </g>
    </g>
    <g id="xtick_14">
     <g id="line2d_49">
      <path d="M 160.555592 195.667941 
L 160.555592 132.845294 
" clip-path="url(#pad3f1fe4af)" style="fill: none; stroke: #b0b0b0; stroke-width: 0.1; stroke-linecap: round"/>
     </g>
     <g id="line2d_50"/>
     <g id="text_12">
      <!-- 30 -->
      <g style="fill: #262626" transform="translate(156.101842 204.486848) scale(0.07 -0.07)">
       <defs>
        <path id="DejaVuSerif-33" d="M 622 4469 
Q 988 4606 1323 4678 
Q 1659 4750 1953 4750 
Q 2638 4750 3022 4454 
Q 3406 4159 3406 3634 
Q 3406 3213 3140 2930 
Q 2875 2647 2388 2547 
Q 2963 2466 3280 2130 
Q 3597 1794 3597 1259 
Q 3597 606 3158 257 
Q 2719 -91 1894 -91 
Q 1528 -91 1179 -12 
Q 831 66 488 225 
L 488 1131 
L 838 1131 
Q 869 681 1141 450 
Q 1413 219 1906 219 
Q 2384 219 2661 495 
Q 2938 772 2938 1253 
Q 2938 1803 2653 2086 
Q 2369 2369 1819 2369 
L 1522 2369 
L 1522 2688 
L 1678 2688 
Q 2225 2688 2498 2914 
Q 2772 3141 2772 3597 
Q 2772 4006 2547 4223 
Q 2322 4441 1900 4441 
Q 1478 4441 1245 4241 
Q 1013 4041 972 3647 
L 622 3647 
L 622 4469 
z
" transform="scale(0.015625)"/>
       </defs>
       <use xlink:href="#DejaVuSerif-33"/>
       <use xlink:href="#DejaVuSerif-30" x="63.623047"/>
      </g>
     </g>
    </g>
    <g id="xtick_15">
     <g id="line2d_51">
      <path d="M 197.178755 195.667941 
L 197.178755 132.845294 
" clip-path="url(#pad3f1fe4af)" style="fill: none; stroke: #b0b0b0; stroke-width: 0.1; stroke-linecap: round"/>
     </g>
     <g id="line2d_52"/>
     <g id="text_13">
      <!-- 40 -->
      <g style="fill: #262626" transform="translate(192.725005 204.486848) scale(0.07 -0.07)">
       <defs>
        <path id="DejaVuSerif-34" d="M 2234 1581 
L 2234 4063 
L 641 1581 
L 2234 1581 
z
M 3609 0 
L 1484 0 
L 1484 331 
L 2234 331 
L 2234 1247 
L 197 1247 
L 197 1588 
L 2241 4750 
L 2859 4750 
L 2859 1581 
L 3750 1581 
L 3750 1247 
L 2859 1247 
L 2859 331 
L 3609 331 
L 3609 0 
z
" transform="scale(0.015625)"/>
       </defs>
       <use xlink:href="#DejaVuSerif-34"/>
       <use xlink:href="#DejaVuSerif-30" x="63.623047"/>
      </g>
     </g>
    </g>
    <g id="text_14">
     <!-- Time [s] -->
     <g style="fill: #262626" transform="translate(112.945957 215.261535) scale(0.07 -0.07)">
      <defs>
       <path id="DejaVuSerif-54" d="M 1222 0 
L 1222 331 
L 1819 331 
L 1819 4294 
L 447 4294 
L 447 3566 
L 63 3566 
L 63 4666 
L 4206 4666 
L 4206 3566 
L 3822 3566 
L 3822 4294 
L 2450 4294 
L 2450 331 
L 3047 331 
L 3047 0 
L 1222 0 
z
" transform="scale(0.015625)"/>
       <path id="DejaVuSerif-69" d="M 622 4353 
Q 622 4497 726 4603 
Q 831 4709 978 4709 
Q 1122 4709 1226 4603 
Q 1331 4497 1331 4353 
Q 1331 4206 1228 4103 
Q 1125 4000 978 4000 
Q 831 4000 726 4103 
Q 622 4206 622 4353 
z
M 1356 331 
L 1900 331 
L 1900 0 
L 231 0 
L 231 331 
L 781 331 
L 781 2988 
L 231 2988 
L 231 3322 
L 1356 3322 
L 1356 331 
z
" transform="scale(0.015625)"/>
       <path id="DejaVuSerif-6d" d="M 3316 2675 
Q 3481 3041 3739 3227 
Q 3997 3413 4341 3413 
Q 4863 3413 5119 3089 
Q 5375 2766 5375 2113 
L 5375 331 
L 5894 331 
L 5894 0 
L 4300 0 
L 4300 331 
L 4800 331 
L 4800 2047 
Q 4800 2556 4650 2772 
Q 4500 2988 4153 2988 
Q 3769 2988 3567 2697 
Q 3366 2406 3366 1850 
L 3366 331 
L 3866 331 
L 3866 0 
L 2291 0 
L 2291 331 
L 2791 331 
L 2791 2069 
Q 2791 2566 2641 2777 
Q 2491 2988 2144 2988 
Q 1759 2988 1557 2697 
Q 1356 2406 1356 1850 
L 1356 331 
L 1856 331 
L 1856 0 
L 263 0 
L 263 331 
L 781 331 
L 781 2994 
L 231 2994 
L 231 3322 
L 1356 3322 
L 1356 2731 
Q 1516 3063 1762 3238 
Q 2009 3413 2322 3413 
Q 2709 3413 2968 3220 
Q 3228 3028 3316 2675 
z
" transform="scale(0.015625)"/>
       <path id="DejaVuSerif-65" d="M 3469 1600 
L 991 1600 
L 991 1575 
Q 991 903 1244 561 
Q 1497 219 1991 219 
Q 2369 219 2611 417 
Q 2853 616 2950 1006 
L 3413 1006 
Q 3275 459 2904 184 
Q 2534 -91 1931 -91 
Q 1203 -91 761 389 
Q 319 869 319 1663 
Q 319 2450 753 2931 
Q 1188 3413 1894 3413 
Q 2647 3413 3050 2948 
Q 3453 2484 3469 1600 
z
M 2791 1931 
Q 2772 2513 2545 2808 
Q 2319 3103 1894 3103 
Q 1497 3103 1269 2806 
Q 1041 2509 991 1931 
L 2791 1931 
z
" transform="scale(0.015625)"/>
       <path id="DejaVuSerif-5b" d="M 550 4863 
L 2003 4863 
L 2003 4531 
L 1147 4531 
L 1147 -513 
L 2003 -513 
L 2003 -844 
L 550 -844 
L 550 4863 
z
" transform="scale(0.015625)"/>
       <path id="DejaVuSerif-73" d="M 359 184 
L 359 959 
L 691 959 
Q 703 588 923 403 
Q 1144 219 1575 219 
Q 1963 219 2166 364 
Q 2369 509 2369 788 
Q 2369 1006 2220 1140 
Q 2072 1275 1594 1428 
L 1178 1569 
Q 750 1706 558 1912 
Q 366 2119 366 2438 
Q 366 2894 700 3153 
Q 1034 3413 1625 3413 
Q 1888 3413 2178 3344 
Q 2469 3275 2778 3144 
L 2778 2419 
L 2447 2419 
Q 2434 2741 2221 2922 
Q 2009 3103 1644 3103 
Q 1281 3103 1095 2975 
Q 909 2847 909 2591 
Q 909 2381 1050 2254 
Q 1191 2128 1613 1997 
L 2069 1856 
Q 2541 1709 2748 1489 
Q 2956 1269 2956 922 
Q 2956 450 2595 179 
Q 2234 -91 1600 -91 
Q 1278 -91 972 -22 
Q 666 47 359 184 
z
" transform="scale(0.015625)"/>
       <path id="DejaVuSerif-5d" d="M 1947 4863 
L 1947 -844 
L 494 -844 
L 494 -513 
L 1350 -513 
L 1350 4531 
L 494 4531 
L 494 4863 
L 1947 4863 
z
" transform="scale(0.015625)"/>
      </defs>
      <use xlink:href="#DejaVuSerif-54"/>
      <use xlink:href="#DejaVuSerif-69" x="66.699219"/>
      <use xlink:href="#DejaVuSerif-6d" x="98.681641"/>
      <use xlink:href="#DejaVuSerif-65" x="193.505859"/>
      <use xlink:href="#DejaVuSerif-20" x="252.685547"/>
      <use xlink:href="#DejaVuSerif-5b" x="284.472656"/>
      <use xlink:href="#DejaVuSerif-73" x="323.486328"/>
      <use xlink:href="#DejaVuSerif-5d" x="374.804688"/>
     </g>
    </g>
   </g>
   <g id="matplotlib.axis_6">
    <g id="ytick_7">
     <g id="line2d_53">
      <path d="M 43.011719 181.713515 
L 211.848163 181.713515 
" clip-path="url(#pad3f1fe4af)" style="fill: none; stroke: #b0b0b0; stroke-width: 0.1; stroke-linecap: round"/>
     </g>
     <g id="line2d_54"/>
     <g id="text_15">
      <!-- −0.05 -->
      <g style="fill: #262626" transform="translate(18.06 184.372968) scale(0.07 -0.07)">
       <defs>
        <path id="DejaVuSerif-2e" d="M 603 325 
Q 603 500 722 622 
Q 841 744 1019 744 
Q 1191 744 1312 622 
Q 1434 500 1434 325 
Q 1434 153 1312 31 
Q 1191 -91 1019 -91 
Q 841 -91 722 29 
Q 603 150 603 325 
z
" transform="scale(0.015625)"/>
        <path id="DejaVuSerif-35" d="M 3219 4666 
L 3219 4153 
L 1081 4153 
L 1081 2816 
Q 1244 2928 1461 2984 
Q 1678 3041 1947 3041 
Q 2703 3041 3140 2622 
Q 3578 2203 3578 1478 
Q 3578 738 3136 323 
Q 2694 -91 1894 -91 
Q 1572 -91 1234 -12 
Q 897 66 544 225 
L 544 1131 
L 897 1131 
Q 925 688 1179 453 
Q 1434 219 1894 219 
Q 2388 219 2653 544 
Q 2919 869 2919 1478 
Q 2919 2084 2655 2407 
Q 2391 2731 1894 2731 
Q 1613 2731 1398 2631 
Q 1184 2531 1019 2322 
L 750 2322 
L 750 4666 
L 3219 4666 
z
" transform="scale(0.015625)"/>
       </defs>
       <use xlink:href="#DejaVuSerif-2212"/>
       <use xlink:href="#DejaVuSerif-30" x="83.789062"/>
       <use xlink:href="#DejaVuSerif-2e" x="147.412109"/>
       <use xlink:href="#DejaVuSerif-30" x="179.199219"/>
       <use xlink:href="#DejaVuSerif-35" x="242.822266"/>
      </g>
     </g>
    </g>
    <g id="ytick_8">
     <g id="line2d_55">
      <path d="M 43.011719 164.425917 
L 211.848163 164.425917 
" clip-path="url(#pad3f1fe4af)" style="fill: none; stroke: #b0b0b0; stroke-width: 0.1; stroke-linecap: round"/>
     </g>
     <g id="line2d_56"/>
     <g id="text_16">
      <!-- 0.00 -->
      <g style="fill: #262626" transform="translate(23.925781 167.08537) scale(0.07 -0.07)">
       <use xlink:href="#DejaVuSerif-30"/>
       <use xlink:href="#DejaVuSerif-2e" x="63.623047"/>
       <use xlink:href="#DejaVuSerif-30" x="95.410156"/>
       <use xlink:href="#DejaVuSerif-30" x="159.033203"/>
      </g>
     </g>
    </g>
    <g id="ytick_9">
     <g id="line2d_57">
      <path d="M 43.011719 147.138319 
L 211.848163 147.138319 
" clip-path="url(#pad3f1fe4af)" style="fill: none; stroke: #b0b0b0; stroke-width: 0.1; stroke-linecap: round"/>
     </g>
     <g id="line2d_58"/>
     <g id="text_17">
      <!-- 0.05 -->
      <g style="fill: #262626" transform="translate(23.925781 149.797773) scale(0.07 -0.07)">
       <use xlink:href="#DejaVuSerif-30"/>
       <use xlink:href="#DejaVuSerif-2e" x="63.623047"/>
       <use xlink:href="#DejaVuSerif-30" x="95.410156"/>
       <use xlink:href="#DejaVuSerif-35" x="159.033203"/>
      </g>
     </g>
    </g>
    <g id="text_18">
     <!-- $r$ $[rad/s]$ -->
     <g style="fill: #262626" transform="translate(12.604219 178.361618) rotate(-90) scale(0.07 -0.07)">
      <defs>
       <path id="DejaVuSans-Oblique-72" d="M 2853 2969 
Q 2766 3016 2653 3041 
Q 2541 3066 2413 3066 
Q 1953 3066 1609 2717 
Q 1266 2369 1153 1784 
L 800 0 
L 225 0 
L 909 3500 
L 1484 3500 
L 1375 2956 
Q 1603 3259 1920 3421 
Q 2238 3584 2597 3584 
Q 2691 3584 2781 3573 
Q 2872 3563 2963 3538 
L 2853 2969 
z
" transform="scale(0.015625)"/>
       <path id="DejaVuSans-Oblique-61" d="M 3438 1997 
L 3047 0 
L 2472 0 
L 2578 531 
Q 2325 219 2001 64 
Q 1678 -91 1281 -91 
Q 834 -91 548 182 
Q 263 456 263 884 
Q 263 1497 752 1853 
Q 1241 2209 2100 2209 
L 2900 2209 
L 2931 2363 
Q 2938 2388 2941 2417 
Q 2944 2447 2944 2509 
Q 2944 2788 2717 2942 
Q 2491 3097 2081 3097 
Q 1800 3097 1504 3025 
Q 1209 2953 897 2809 
L 997 3341 
Q 1322 3463 1633 3523 
Q 1944 3584 2234 3584 
Q 2853 3584 3176 3315 
Q 3500 3047 3500 2534 
Q 3500 2431 3484 2292 
Q 3469 2153 3438 1997 
z
M 2816 1759 
L 2241 1759 
Q 1534 1759 1195 1570 
Q 856 1381 856 984 
Q 856 709 1029 553 
Q 1203 397 1509 397 
Q 1978 397 2328 733 
Q 2678 1069 2791 1631 
L 2816 1759 
z
" transform="scale(0.015625)"/>
       <path id="DejaVuSans-2f" d="M 1625 4666 
L 2156 4666 
L 531 -594 
L 0 -594 
L 1625 4666 
z
" transform="scale(0.015625)"/>
       <path id="DejaVuSans-Oblique-73" d="M 3200 3397 
L 3091 2853 
Q 2863 2978 2609 3040 
Q 2356 3103 2088 3103 
Q 1634 3103 1373 2948 
Q 1113 2794 1113 2528 
Q 1113 2219 1719 2053 
Q 1766 2041 1788 2034 
L 1972 1978 
Q 2547 1819 2739 1644 
Q 2931 1469 2931 1166 
Q 2931 609 2489 259 
Q 2047 -91 1331 -91 
Q 1053 -91 747 -37 
Q 441 16 72 128 
L 184 722 
Q 500 559 806 475 
Q 1113 391 1394 391 
Q 1816 391 2080 572 
Q 2344 753 2344 1031 
Q 2344 1331 1650 1516 
L 1591 1531 
L 1394 1581 
Q 956 1697 753 1886 
Q 550 2075 550 2369 
Q 550 2928 970 3256 
Q 1391 3584 2113 3584 
Q 2397 3584 2667 3537 
Q 2938 3491 3200 3397 
z
" transform="scale(0.015625)"/>
      </defs>
      <use xlink:href="#DejaVuSans-Oblique-72" transform="translate(0 0.015625)"/>
      <use xlink:href="#DejaVuSerif-20" transform="translate(41.113281 0.015625)"/>
      <use xlink:href="#DejaVuSans-5b" transform="translate(72.900391 0.015625)"/>
      <use xlink:href="#DejaVuSans-Oblique-72" transform="translate(111.914062 0.015625)"/>
      <use xlink:href="#DejaVuSans-Oblique-61" transform="translate(153.027344 0.015625)"/>
      <use xlink:href="#DejaVuSans-Oblique-64" transform="translate(214.306641 0.015625)"/>
      <use xlink:href="#DejaVuSans-2f" transform="translate(277.783203 0.015625)"/>
      <use xlink:href="#DejaVuSans-Oblique-73" transform="translate(311.474609 0.015625)"/>
      <use xlink:href="#DejaVuSans-5d" transform="translate(363.574219 0.015625)"/>
     </g>
    </g>
   </g>
   <g id="line2d_59">
    <path d="M 50.686103 164.425917 
L 51.198827 164.536647 
L 51.784797 164.916302 
L 52.444014 165.639843 
L 53.176478 166.780502 
L 54.055434 168.564203 
L 55.263998 171.605076 
L 56.655678 175.078963 
L 57.827619 177.353172 
L 59.10943 179.310934 
L 60.427864 180.931126 
L 61.966037 182.416043 
L 63.430963 183.50851 
L 65.408614 184.704478 
L 67.386265 185.6493 
L 69.98651 186.617558 
L 72.916363 187.483337 
L 76.432186 188.267779 
L 78.006982 188.459199 
L 78.519707 188.203258 
L 79.178923 187.592272 
L 79.874764 186.629934 
L 80.717096 185.04739 
L 81.815791 182.469355 
L 83.170848 178.626411 
L 84.92876 172.922142 
L 88.737569 160.205024 
L 89.90951 157.5525 
L 91.154698 155.287337 
L 92.473132 153.353686 
L 93.828189 151.757965 
L 95.476231 150.174914 
L 97.014404 148.999316 
L 99.175171 147.649444 
L 102.581125 145.886466 
L 104.851761 144.961098 
L 108.221092 143.849033 
L 112.762364 142.588231 
L 118.219215 141.332271 
L 121.881532 140.70778 
L 133.893929 139.09427 
L 138.325332 138.731738 
L 139.424027 138.745638 
L 139.973374 139.064122 
L 140.595968 139.709077 
L 141.365054 140.87 
L 142.280634 142.691347 
L 143.415952 145.469587 
L 144.990748 149.992889 
L 146.895152 156.214213 
L 149.678513 165.342449 
L 150.813831 168.048773 
L 152.022395 170.355475 
L 153.377452 172.459645 
L 154.915625 174.417677 
L 156.453798 176.039115 
L 158.284956 177.603336 
L 159.932998 178.735583 
L 162.423373 180.140167 
L 165.243357 181.476341 
L 169.271905 183.184589 
L 171.505918 183.895551 
L 176.193683 185.213026 
L 184.397271 187.096787 
L 188.425819 187.896797 
L 193.846047 188.670043 
L 200.584709 189.486606 
L 204.173779 189.77739 
L 204.173779 189.77739 
" clip-path="url(#pad3f1fe4af)" style="fill: none; stroke: #0000ff; stroke-width: 0.6; stroke-linecap: round"/>
   </g>
   <g id="line2d_60">
    <path d="M 50.686103 164.425917 
L 51.198827 164.536589 
L 51.784797 164.915736 
L 52.444014 165.637606 
L 53.176478 166.774273 
L 54.055434 168.549337 
L 55.263998 171.569785 
L 56.655678 175.000461 
L 57.790996 177.159531 
L 58.999561 178.977482 
L 60.244748 180.468915 
L 61.856167 181.961303 
L 63.284471 182.982304 
L 64.89589 183.849022 
L 67.313019 184.894399 
L 69.400539 185.519345 
L 72.843116 186.353429 
L 77.237896 187.066575 
L 78.666199 187.129795 
L 79.215547 186.864053 
L 79.801517 186.331366 
L 80.497357 185.383018 
L 81.33969 183.836143 
L 82.438385 181.303133 
L 83.756819 177.64223 
L 85.404861 172.378264 
L 87.565628 164.65562 
L 88.774192 160.666511 
L 89.836264 157.902872 
L 91.008205 155.465223 
L 92.253393 153.381885 
L 93.571827 151.620963 
L 94.926884 150.217074 
L 96.465056 148.919091 
L 98.369461 147.649644 
L 100.09075 146.754558 
L 102.98398 145.512301 
L 105.584224 144.667922 
L 109.063425 143.802071 
L 114.373783 142.745592 
L 118.951679 142.065196 
L 122.613995 141.646636 
L 132.026148 140.815165 
L 140.046621 140.442699 
L 140.595968 140.715302 
L 141.181939 141.283271 
L 141.987648 142.413394 
L 142.866604 144.074521 
L 143.965299 146.670245 
L 145.356979 150.57655 
L 147.224761 156.520376 
L 150.740584 167.930447 
L 151.875902 170.487711 
L 153.12109 172.745831 
L 154.476147 174.748419 
L 155.867827 176.434401 
L 157.406 177.928936 
L 158.90755 179.091331 
L 160.775331 180.247453 
L 163.045967 181.371071 
L 165.463096 182.367219 
L 169.528267 183.762966 
L 171.798903 184.29807 
L 181.064563 186.033219 
L 189.780876 187.182508 
L 200.438217 188.08919 
L 203.770924 188.24608 
L 203.770924 188.24608 
" clip-path="url(#pad3f1fe4af)" style="fill: none; stroke: #008000; stroke-width: 0.6; stroke-linecap: round"/>
   </g>
   <g id="line2d_61">
    <path d="M 50.686103 164.425917 
L 51.198827 164.547269 
L 51.711551 164.893179 
L 52.334145 165.578111 
L 53.139855 166.827517 
L 54.165303 168.866234 
L 55.593606 172.231869 
L 56.838794 175.035394 
L 58.120605 177.402422 
L 59.512285 179.49955 
L 60.977211 181.319528 
L 62.478761 182.840115 
L 64.20005 184.263376 
L 66.214324 185.631401 
L 68.448337 186.865162 
L 71.085204 188.074018 
L 73.978434 189.136721 
L 77.347765 190.133131 
L 77.897113 190.058452 
L 78.44646 189.753318 
L 79.032431 189.159282 
L 79.764894 188.059403 
L 80.570604 186.41064 
L 81.559429 183.842768 
L 82.84124 179.844445 
L 84.599152 173.539804 
L 88.078352 160.960767 
L 89.21367 158.017712 
L 90.385611 155.592162 
L 91.667422 153.459338 
L 93.059102 151.579675 
L 94.597275 149.87387 
L 96.428433 148.191391 
L 98.369461 146.707825 
L 100.67672 145.245961 
L 103.56995 143.69584 
L 106.719542 142.229436 
L 109.979004 140.955828 
L 113.677943 139.761355 
L 118.109346 138.548092 
L 122.467502 137.585632 
L 127.484876 136.715911 
L 133.417828 135.917382 
L 135.834957 135.745956 
L 136.384304 135.996792 
L 137.006898 136.552154 
L 137.666115 137.476482 
L 138.471825 139.045367 
L 139.387404 141.353134 
L 140.595968 145.099824 
L 142.170764 150.768794 
L 146.345805 166.201526 
L 147.4445 169.041198 
L 148.579818 171.383906 
L 149.825005 173.460055 
L 151.180062 175.307928 
L 152.791481 177.112608 
L 154.586016 178.777971 
L 156.71016 180.436751 
L 159.200535 182.095931 
L 162.38675 183.901287 
L 165.499719 185.402337 
L 168.832427 186.756855 
L 173.227206 188.288824 
L 177.109262 189.419509 
L 181.650534 190.499126 
L 186.8144 191.487997 
L 191.758527 192.249459 
L 196.592784 192.812366 
L 196.592784 192.812366 
" clip-path="url(#pad3f1fe4af)" style="fill: none; stroke: #ff0000; stroke-width: 0.6; stroke-linecap: round"/>
   </g>
   <g id="patch_9">
    <path d="M 43.011719 195.667941 
L 43.011719 132.845294 
" style="fill: none; stroke: #000000; stroke-linejoin: miter; stroke-linecap: square"/>
   </g>
   <g id="patch_10">
    <path d="M 43.011719 195.667941 
L 211.848163 195.667941 
" style="fill: none; stroke: #000000; stroke-linejoin: miter; stroke-linecap: square"/>
   </g>
  </g>
 </g>
 <defs>
  <clipPath id="p06553f8792">
   <rect x="43.011719" y="7.2" width="168.836444" height="62.822647"/>
  </clipPath>
  <clipPath id="pd143e808ff">
   <rect x="43.011719" y="70.022647" width="168.836444" height="62.822647"/>
  </clipPath>
  <clipPath id="pad3f1fe4af">
   <rect x="43.011719" y="132.845294" width="168.836444" height="62.822647"/>
  </clipPath>
 </defs>
</svg>
