<?xml version="1.0" encoding="utf-8" standalone="no"?>
<!DOCTYPE svg PUBLIC "-//W3C//DTD SVG 1.1//EN"
  "http://www.w3.org/Graphics/SVG/1.1/DTD/svg11.dtd">
<svg xmlns:xlink="http://www.w3.org/1999/xlink" width="219.048163pt" height="223.917316pt" viewBox="0 0 219.048163 223.917316" xmlns="http://www.w3.org/2000/svg" version="1.1">
 <metadata>
  <rdf:RDF xmlns:dc="http://purl.org/dc/elements/1.1/" xmlns:cc="http://creativecommons.org/ns#" xmlns:rdf="http://www.w3.org/1999/02/22-rdf-syntax-ns#">
   <cc:Work>
    <dc:type rdf:resource="http://purl.org/dc/dcmitype/StillImage"/>
    <dc:date>2024-02-16T10:05:35.007376</dc:date>
    <dc:format>image/svg+xml</dc:format>
    <dc:creator>
     <cc:Agent>
      <dc:title>Matplotlib v3.8.2, https://matplotlib.org/</dc:title>
     </cc:Agent>
    </dc:creator>
   </cc:Work>
  </rdf:RDF>
 </metadata>
 <defs>
  <style type="text/css">*{stroke-linejoin: round; stroke-linecap: butt}</style>
 </defs>
 <g id="figure_1">
  <g id="patch_1">
   <path d="M 0 223.917316 
L 219.048163 223.917316 
L 219.048163 0 
L 0 0 
z
" style="fill: #ffffff"/>
  </g>
  <g id="axes_1">
   <g id="patch_2">
    <path d="M 43.011719 70.022647 
L 211.848163 70.022647 
L 211.848163 7.2 
L 43.011719 7.2 
z
" style="fill: #ffffff"/>
   </g>
   <g id="line2d_1">
    <path d="M 50.686103 38.809719 
L 51.817323 38.992145 
L 53.021525 39.417845 
L 54.262219 40.09643 
L 55.502912 41.036879 
L 58.568154 43.87842 
L 65.355476 50.473941 
L 71.558942 55.470196 
L 74.368748 57.232411 
L 76.886625 58.600572 
L 77.871882 58.8861 
L 78.893629 58.95333 
L 79.915377 58.798299 
L 80.973615 58.405974 
L 82.068344 57.755003 
L 83.236056 56.798373 
L 84.440258 55.519115 
L 85.717442 53.830654 
L 87.541991 50.974264 
L 93.635985 41.458047 
L 95.825443 38.517903 
L 98.635249 35.147652 
L 101.226108 32.337364 
L 103.196621 30.537176 
L 107.064665 27.443153 
L 109.947452 25.327401 
L 112.684275 23.609455 
L 118.522832 20.297323 
L 121.843511 18.733156 
L 125.054717 17.403364 
L 131.075729 15.333912 
L 135.089736 14.269079 
L 138.519888 13.586827 
L 140.45391 13.410848 
L 141.475658 13.485452 
L 142.606878 13.816405 
L 143.957044 14.448799 
L 145.234229 15.279871 
L 146.40194 16.307285 
L 147.569651 17.635265 
L 148.919817 19.521834 
L 150.52542 22.172078 
L 154.393464 28.737959 
L 157.458706 33.663889 
L 159.648165 36.748987 
L 162.202534 39.948164 
L 164.793393 42.849692 
L 166.982852 44.98641 
L 169.281784 46.907161 
L 173.806665 50.311623 
L 176.543488 52.060068 
L 181.688716 55.087368 
L 184.462031 56.516183 
L 189.132876 58.58766 
L 192.088645 59.675376 
L 196.394581 61.007283 
L 201.138408 62.191541 
L 204.167159 62.807899 
L 204.167159 62.807899 
" clip-path="url(#p68c923671d)" style="fill: none; stroke: #000000; stroke-width: 0.6; stroke-linecap: round"/>
   </g>
   <g id="matplotlib.axis_1">
    <g id="xtick_1">
     <g id="line2d_2">
      <path d="M 50.686103 70.022647 
L 50.686103 7.2 
" clip-path="url(#p68c923671d)" style="fill: none; stroke: #b0b0b0; stroke-width: 0.2; stroke-linecap: round"/>
     </g>
     <g id="line2d_3"/>
    </g>
    <g id="xtick_2">
     <g id="line2d_4">
      <path d="M 87.42322 70.022647 
L 87.42322 7.2 
" clip-path="url(#p68c923671d)" style="fill: none; stroke: #b0b0b0; stroke-width: 0.2; stroke-linecap: round"/>
     </g>
     <g id="line2d_5"/>
    </g>
    <g id="xtick_3">
     <g id="line2d_6">
      <path d="M 124.160337 70.022647 
L 124.160337 7.2 
" clip-path="url(#p68c923671d)" style="fill: none; stroke: #b0b0b0; stroke-width: 0.2; stroke-linecap: round"/>
     </g>
     <g id="line2d_7"/>
    </g>
    <g id="xtick_4">
     <g id="line2d_8">
      <path d="M 160.897455 70.022647 
L 160.897455 7.2 
" clip-path="url(#p68c923671d)" style="fill: none; stroke: #b0b0b0; stroke-width: 0.2; stroke-linecap: round"/>
     </g>
     <g id="line2d_9"/>
    </g>
    <g id="xtick_5">
     <g id="line2d_10">
      <path d="M 197.634572 70.022647 
L 197.634572 7.2 
" clip-path="url(#p68c923671d)" style="fill: none; stroke: #b0b0b0; stroke-width: 0.2; stroke-linecap: round"/>
     </g>
     <g id="line2d_11"/>
    </g>
   </g>
   <g id="matplotlib.axis_2">
    <g id="ytick_1">
     <g id="line2d_12">
      <path d="M 43.011719 58.304711 
L 211.848163 58.304711 
" clip-path="url(#p68c923671d)" style="fill: none; stroke: #b0b0b0; stroke-width: 0.2; stroke-linecap: round"/>
     </g>
     <g id="line2d_13"/>
     <g id="text_1">
      <!-- −10 -->
      <g style="fill: #262626" transform="translate(24.738438 60.964165) scale(0.07 -0.07)">
       <defs>
        <path id="DejaVuSerif-2212" d="M 678 2259 
L 4684 2259 
L 4684 1753 
L 678 1753 
L 678 2259 
z
" transform="scale(0.015625)"/>
        <path id="DejaVuSerif-31" d="M 909 0 
L 909 331 
L 1722 331 
L 1722 4213 
L 781 3603 
L 781 4013 
L 1919 4750 
L 2350 4750 
L 2350 331 
L 3163 331 
L 3163 0 
L 909 0 
z
" transform="scale(0.015625)"/>
        <path id="DejaVuSerif-30" d="M 2034 219 
Q 2513 219 2750 744 
Q 2988 1269 2988 2328 
Q 2988 3391 2750 3916 
Q 2513 4441 2034 4441 
Q 1556 4441 1318 3916 
Q 1081 3391 1081 2328 
Q 1081 1269 1318 744 
Q 1556 219 2034 219 
z
M 2034 -91 
Q 1275 -91 848 546 
Q 422 1184 422 2328 
Q 422 3475 848 4112 
Q 1275 4750 2034 4750 
Q 2797 4750 3222 4112 
Q 3647 3475 3647 2328 
Q 3647 1184 3222 546 
Q 2797 -91 2034 -91 
z
" transform="scale(0.015625)"/>
       </defs>
       <use xlink:href="#DejaVuSerif-2212"/>
       <use xlink:href="#DejaVuSerif-31" x="83.789062"/>
       <use xlink:href="#DejaVuSerif-30" x="147.412109"/>
      </g>
     </g>
    </g>
    <g id="ytick_2">
     <g id="line2d_14">
      <path d="M 43.011719 38.73028 
L 211.848163 38.73028 
" clip-path="url(#p68c923671d)" style="fill: none; stroke: #b0b0b0; stroke-width: 0.2; stroke-linecap: round"/>
     </g>
     <g id="line2d_15"/>
     <g id="text_2">
      <!-- 0 -->
      <g style="fill: #262626" transform="translate(35.057969 41.389733) scale(0.07 -0.07)">
       <use xlink:href="#DejaVuSerif-30"/>
      </g>
     </g>
    </g>
    <g id="ytick_3">
     <g id="line2d_16">
      <path d="M 43.011719 19.155848 
L 211.848163 19.155848 
" clip-path="url(#p68c923671d)" style="fill: none; stroke: #b0b0b0; stroke-width: 0.2; stroke-linecap: round"/>
     </g>
     <g id="line2d_17"/>
     <g id="text_3">
      <!-- 10 -->
      <g style="fill: #262626" transform="translate(30.604219 21.815301) scale(0.07 -0.07)">
       <use xlink:href="#DejaVuSerif-31"/>
       <use xlink:href="#DejaVuSerif-30" x="63.623047"/>
      </g>
     </g>
    </g>
    <g id="text_4">
     <!-- $\beta$ $[deg]$ -->
     <g style="fill: #262626" transform="translate(12.59 51.316324) rotate(-90) scale(0.07 -0.07)">
      <defs>
       <path id="DejaVuSans-Oblique-3b2" d="M 872 216 
L 572 -1331 
L -6 -1331 
L 928 3478 
Q 1206 4903 2538 4903 
Q 3888 4903 3659 3700 
Q 3503 2844 2894 2531 
Q 3713 2250 3553 1416 
Q 3272 -69 1759 -66 
Q 1097 -63 872 216 
z
M 1019 966 
Q 1259 422 1875 425 
Q 2775 425 2966 1406 
Q 3138 2288 1675 2219 
L 1778 2750 
Q 2909 2731 3106 3750 
Q 3241 4438 2509 4434 
Q 1691 4434 1503 3459 
L 1019 966 
z
" transform="scale(0.015625)"/>
       <path id="DejaVuSerif-20" transform="scale(0.015625)"/>
       <path id="DejaVuSans-5b" d="M 550 4863 
L 1875 4863 
L 1875 4416 
L 1125 4416 
L 1125 -397 
L 1875 -397 
L 1875 -844 
L 550 -844 
L 550 4863 
z
" transform="scale(0.015625)"/>
       <path id="DejaVuSans-Oblique-64" d="M 2675 525 
Q 2444 222 2128 65 
Q 1813 -91 1428 -91 
Q 903 -91 598 267 
Q 294 625 294 1247 
Q 294 1766 478 2236 
Q 663 2706 1013 3078 
Q 1244 3325 1534 3454 
Q 1825 3584 2144 3584 
Q 2481 3584 2739 3421 
Q 2997 3259 3138 2956 
L 3513 4863 
L 4091 4863 
L 3144 0 
L 2566 0 
L 2675 525 
z
M 891 1350 
Q 891 897 1095 644 
Q 1300 391 1663 391 
Q 1931 391 2161 520 
Q 2391 650 2566 903 
Q 2750 1166 2856 1509 
Q 2963 1853 2963 2188 
Q 2963 2622 2758 2865 
Q 2553 3109 2194 3109 
Q 1922 3109 1687 2981 
Q 1453 2853 1288 2613 
Q 1106 2353 998 2009 
Q 891 1666 891 1350 
z
" transform="scale(0.015625)"/>
       <path id="DejaVuSans-Oblique-65" d="M 3078 2063 
Q 3088 2113 3092 2166 
Q 3097 2219 3097 2272 
Q 3097 2653 2873 2875 
Q 2650 3097 2266 3097 
Q 1838 3097 1509 2826 
Q 1181 2556 1013 2059 
L 3078 2063 
z
M 3578 1613 
L 903 1613 
Q 884 1494 878 1425 
Q 872 1356 872 1306 
Q 872 872 1139 634 
Q 1406 397 1894 397 
Q 2269 397 2603 481 
Q 2938 566 3225 728 
L 3116 159 
Q 2806 34 2476 -28 
Q 2147 -91 1806 -91 
Q 1078 -91 686 257 
Q 294 606 294 1247 
Q 294 1794 489 2264 
Q 684 2734 1063 3103 
Q 1306 3334 1642 3459 
Q 1978 3584 2356 3584 
Q 2950 3584 3301 3228 
Q 3653 2872 3653 2272 
Q 3653 2128 3634 1964 
Q 3616 1800 3578 1613 
z
" transform="scale(0.015625)"/>
       <path id="DejaVuSans-Oblique-67" d="M 3816 3500 
L 3219 434 
Q 3047 -456 2561 -893 
Q 2075 -1331 1253 -1331 
Q 950 -1331 690 -1286 
Q 431 -1241 206 -1147 
L 313 -588 
Q 525 -725 762 -790 
Q 1000 -856 1269 -856 
Q 1816 -856 2167 -557 
Q 2519 -259 2631 300 
L 2681 563 
Q 2441 288 2122 144 
Q 1803 0 1434 0 
Q 903 0 598 351 
Q 294 703 294 1319 
Q 294 1803 478 2267 
Q 663 2731 997 3091 
Q 1219 3328 1514 3456 
Q 1809 3584 2131 3584 
Q 2484 3584 2746 3420 
Q 3009 3256 3138 2956 
L 3238 3500 
L 3816 3500 
z
M 2950 2216 
Q 2950 2641 2750 2872 
Q 2550 3103 2181 3103 
Q 1953 3103 1747 3012 
Q 1541 2922 1394 2759 
Q 1156 2491 1023 2127 
Q 891 1763 891 1375 
Q 891 944 1092 712 
Q 1294 481 1672 481 
Q 2219 481 2584 976 
Q 2950 1472 2950 2216 
z
" transform="scale(0.015625)"/>
       <path id="DejaVuSans-5d" d="M 1947 4863 
L 1947 -844 
L 622 -844 
L 622 -397 
L 1369 -397 
L 1369 4416 
L 622 4416 
L 622 4863 
L 1947 4863 
z
" transform="scale(0.015625)"/>
      </defs>
      <use xlink:href="#DejaVuSans-Oblique-3b2" transform="translate(0 0.390625)"/>
      <use xlink:href="#DejaVuSerif-20" transform="translate(63.818359 0.390625)"/>
      <use xlink:href="#DejaVuSans-5b" transform="translate(95.605469 0.390625)"/>
      <use xlink:href="#DejaVuSans-Oblique-64" transform="translate(134.619141 0.390625)"/>
      <use xlink:href="#DejaVuSans-Oblique-65" transform="translate(198.095703 0.390625)"/>
      <use xlink:href="#DejaVuSans-Oblique-67" transform="translate(259.619141 0.390625)"/>
      <use xlink:href="#DejaVuSans-5d" transform="translate(323.095703 0.390625)"/>
     </g>
    </g>
   </g>
   <g id="line2d_18">
    <path d="M 50.686103 38.73028 
L 51.86169 38.838647 
L 52.963804 39.155506 
L 54.065917 39.704273 
L 55.204768 40.524741 
L 57.298784 42.394078 
L 65.270738 49.528143 
L 68.981187 52.477001 
L 72.76511 55.204829 
L 76.659245 57.733881 
L 78.4961 58.731577 
L 79.52474 59.013437 
L 80.516642 59.055824 
L 81.508544 58.876407 
L 82.537183 58.456351 
L 83.60256 57.777014 
L 84.74141 56.782936 
L 85.990472 55.38792 
L 87.570168 53.244082 
L 94.770644 43.180032 
L 98.150458 38.927048 
L 101.383325 35.225966 
L 104.469243 31.997554 
L 107.628635 29.0265 
L 111.155398 26.026385 
L 114.645424 23.350142 
L 118.355873 20.788357 
L 122.286744 18.344716 
L 126.584987 15.95352 
L 130.809756 13.853222 
L 135.47537 11.786137 
L 139.55319 10.19406 
L 140.545092 10.056374 
L 141.500257 10.144929 
L 142.492159 10.459654 
L 143.557535 11.042103 
L 144.696386 11.93159 
L 145.945448 13.205107 
L 147.304721 14.925974 
L 148.957892 17.42073 
L 155.497099 27.541549 
L 158.987125 32.525198 
L 162.073043 36.540025 
L 165.342646 40.437513 
L 168.795935 44.199785 
L 171.808379 47.152707 
L 175.151456 50.122145 
L 178.825168 53.072736 
L 182.462143 55.712525 
L 186.393014 58.289865 
L 189.956515 60.39944 
L 194.291495 62.712093 
L 198.773423 64.867598 
L 203.328826 66.828519 
L 204.173779 67.167072 
L 204.173779 67.167072 
" clip-path="url(#p68c923671d)" style="fill: none; stroke: #0000ff; stroke-width: 0.6; stroke-linecap: round"/>
   </g>
   <g id="line2d_19">
    <path d="M 50.686103 38.73028 
L 51.86169 38.838501 
L 52.963804 39.15442 
L 54.065917 39.700613 
L 55.204768 40.515635 
L 57.445732 42.49137 
L 63.874728 48.11015 
L 67.548439 50.958171 
L 70.85478 53.248808 
L 74.528492 55.524104 
L 78.202204 57.543539 
L 79.341054 57.990308 
L 80.369693 58.165131 
L 81.324859 58.116755 
L 82.353498 57.841389 
L 83.418874 57.318952 
L 84.557725 56.495769 
L 85.733313 55.365333 
L 87.019112 53.814162 
L 88.966179 51.043679 
L 94.366535 43.347848 
L 97.525927 39.279117 
L 100.42816 35.902233 
L 103.47734 32.691306 
L 106.342836 30.0013 
L 109.428753 27.409487 
L 112.588145 25.047393 
L 116.004697 22.766637 
L 119.421249 20.742271 
L 123.278647 18.719576 
L 127.466678 16.778044 
L 131.985343 14.926184 
L 137.165277 13.051631 
L 140.43488 12.057588 
L 141.46352 12.02131 
L 142.492159 12.212763 
L 143.520798 12.639779 
L 144.622912 13.344491 
L 145.7985 14.366202 
L 147.084299 15.790482 
L 148.443572 17.629992 
L 150.611062 21.034005 
L 156.158367 29.693742 
L 159.42797 34.348017 
L 162.293465 38.025819 
L 165.305909 41.540656 
L 168.35509 44.760674 
L 171.257322 47.501403 
L 174.159554 49.935725 
L 177.429158 52.402068 
L 180.919184 54.741887 
L 184.776581 57.048185 
L 188.560504 59.040173 
L 192.968958 61.096789 
L 197.891732 63.125369 
L 202.88798 64.910839 
L 203.879882 65.23937 
L 203.879882 65.23937 
" clip-path="url(#p68c923671d)" style="fill: none; stroke: #008000; stroke-width: 0.6; stroke-linecap: round"/>
   </g>
   <g id="line2d_20">
    <path d="M 50.686103 38.73028 
L 52.008639 38.841498 
L 53.110752 39.147784 
L 54.176129 39.681838 
L 55.168031 40.428047 
L 56.674253 41.913033 
L 61.743975 46.817746 
L 65.417687 50.071323 
L 68.834239 52.799895 
L 72.287528 55.266452 
L 75.814291 57.515299 
L 77.761358 58.557711 
L 78.75326 58.803444 
L 79.708425 58.815375 
L 80.66359 58.602484 
L 81.655493 58.142555 
L 82.684132 57.41293 
L 83.786245 56.353803 
L 84.99857 54.869096 
L 86.321107 52.872641 
L 92.456205 42.919461 
L 95.248226 38.961314 
L 97.966773 35.488817 
L 100.648582 32.418496 
L 103.403866 29.602202 
L 106.306098 26.954737 
L 109.281805 24.537975 
L 112.477934 22.233081 
L 115.784275 20.122926 
L 119.311038 18.131623 
L 123.131698 16.233348 
L 127.099307 14.503724 
L 131.434287 12.857144 
L 135.585581 11.495252 
L 136.540746 11.418293 
L 137.495911 11.565363 
L 138.451076 11.942804 
L 139.442978 12.57474 
L 140.545092 13.558851 
L 141.72068 14.918654 
L 143.043216 16.809322 
L 144.475963 19.26562 
L 150.317165 29.894816 
L 153.035712 34.225236 
L 155.644047 37.968692 
L 158.252382 41.326648 
L 160.934192 44.416048 
L 163.689476 47.24949 
L 166.518234 49.83962 
L 169.457203 52.226487 
L 172.726807 54.593528 
L 176.033147 56.706562 
L 179.670122 58.760806 
L 183.343834 60.592512 
L 187.495128 62.405678 
L 192.013793 64.140609 
L 196.532459 65.651631 
L 196.532459 65.651631 
" clip-path="url(#p68c923671d)" style="fill: none; stroke: #ff0000; stroke-width: 0.6; stroke-linecap: round"/>
   </g>
   <g id="patch_3">
    <path d="M 43.011719 70.022647 
L 43.011719 7.2 
" style="fill: none; stroke: #000000; stroke-linejoin: miter; stroke-linecap: square"/>
   </g>
   <g id="patch_4">
    <path d="M 43.011719 70.022647 
L 211.848163 70.022647 
" style="fill: none; stroke: #000000; stroke-linejoin: miter; stroke-linecap: square"/>
   </g>
  </g>
  <g id="axes_2">
   <g id="patch_5">
    <path d="M 43.011719 132.845294 
L 211.848163 132.845294 
L 211.848163 70.022647 
L 43.011719 70.022647 
z
" style="fill: #ffffff"/>
   </g>
   <g id="line2d_21">
    <path d="M 50.686103 101.893296 
L 52.985034 101.98131 
L 54.590637 102.269016 
L 55.977295 102.738148 
L 57.436934 103.478802 
L 59.15201 104.61154 
L 61.231995 106.255078 
L 63.567418 108.408607 
L 66.99757 111.894502 
L 71.522451 116.908036 
L 76.266279 122.417353 
L 79.586958 126.120871 
L 81.229052 127.610496 
L 82.6522 128.612267 
L 83.965875 129.277695 
L 85.170078 129.644723 
L 86.337789 129.770155 
L 87.578482 129.670067 
L 89.00163 129.318042 
L 90.643724 128.67409 
L 92.687219 127.621003 
L 94.876678 126.248812 
L 97.57701 124.27459 
L 100.678743 121.742712 
L 105.75099 117.226432 
L 111.078672 112.134666 
L 118.486341 104.613379 
L 128.922761 93.579779 
L 139.176726 82.728208 
L 142.825824 79.055142 
L 144.723355 77.445522 
L 146.255976 76.427331 
L 147.606142 75.787055 
L 148.919817 75.402036 
L 150.160511 75.262358 
L 151.437695 75.341791 
L 152.933825 75.662775 
L 154.61241 76.255083 
L 156.728887 77.252457 
L 159.319746 78.727439 
L 161.874115 80.462418 
L 165.486722 83.198136 
L 171.215805 87.930759 
L 176.871907 92.950826 
L 183.257828 98.999815 
L 192.927938 108.589602 
L 204.167159 119.902199 
L 204.167159 119.902199 
" clip-path="url(#pd70eb63ea3)" style="fill: none; stroke: #000000; stroke-width: 0.6; stroke-linecap: round"/>
   </g>
   <g id="line2d_22">
    <path d="M 50.686103 102.053165 
L 52.255215 108.682083 
L 55.79484 122.466271 
L 58.495172 122.458253 
L 76.521716 122.364448 
L 81.703435 100.63526 
L 82.798164 96.217986 
L 83.491492 93.360127 
L 84.732186 88.106622 
L 85.680951 84.164388 
L 86.337789 81.426793 
L 87.614973 81.48051 
L 140.599874 81.574316 
L 141.767586 86.514736 
L 141.804077 86.514736 
L 150.598402 122.469478 
L 204.167159 122.457852 
L 204.167159 122.457852 
" clip-path="url(#pd70eb63ea3)" style="fill: none; stroke-dasharray: 2.22,0.96; stroke-dashoffset: 0; stroke: #808080; stroke-width: 0.6"/>
   </g>
   <g id="matplotlib.axis_3">
    <g id="xtick_6">
     <g id="line2d_23">
      <path d="M 50.686103 132.845294 
L 50.686103 70.022647 
" clip-path="url(#pd70eb63ea3)" style="fill: none; stroke: #b0b0b0; stroke-width: 0.2; stroke-linecap: round"/>
     </g>
     <g id="line2d_24"/>
    </g>
    <g id="xtick_7">
     <g id="line2d_25">
      <path d="M 87.42322 132.845294 
L 87.42322 70.022647 
" clip-path="url(#pd70eb63ea3)" style="fill: none; stroke: #b0b0b0; stroke-width: 0.2; stroke-linecap: round"/>
     </g>
     <g id="line2d_26"/>
    </g>
    <g id="xtick_8">
     <g id="line2d_27">
      <path d="M 124.160337 132.845294 
L 124.160337 70.022647 
" clip-path="url(#pd70eb63ea3)" style="fill: none; stroke: #b0b0b0; stroke-width: 0.2; stroke-linecap: round"/>
     </g>
     <g id="line2d_28"/>
    </g>
    <g id="xtick_9">
     <g id="line2d_29">
      <path d="M 160.897455 132.845294 
L 160.897455 70.022647 
" clip-path="url(#pd70eb63ea3)" style="fill: none; stroke: #b0b0b0; stroke-width: 0.2; stroke-linecap: round"/>
     </g>
     <g id="line2d_30"/>
    </g>
    <g id="xtick_10">
     <g id="line2d_31">
      <path d="M 197.634572 132.845294 
L 197.634572 70.022647 
" clip-path="url(#pd70eb63ea3)" style="fill: none; stroke: #b0b0b0; stroke-width: 0.2; stroke-linecap: round"/>
     </g>
     <g id="line2d_32"/>
    </g>
   </g>
   <g id="matplotlib.axis_4">
    <g id="ytick_4">
     <g id="line2d_33">
      <path d="M 43.011719 122.458316 
L 211.848163 122.458316 
" clip-path="url(#pd70eb63ea3)" style="fill: none; stroke: #b0b0b0; stroke-width: 0.2; stroke-linecap: round"/>
     </g>
     <g id="line2d_34"/>
     <g id="text_5">
      <!-- −20 -->
      <g style="fill: #262626" transform="translate(24.738438 125.117769) scale(0.07 -0.07)">
       <defs>
        <path id="DejaVuSerif-32" d="M 819 3553 
L 469 3553 
L 469 4384 
Q 803 4563 1142 4656 
Q 1481 4750 1806 4750 
Q 2534 4750 2956 4397 
Q 3378 4044 3378 3438 
Q 3378 2753 2422 1800 
Q 2347 1728 2309 1691 
L 1131 513 
L 3078 513 
L 3078 1088 
L 3444 1088 
L 3444 0 
L 434 0 
L 434 341 
L 1850 1753 
Q 2319 2222 2519 2614 
Q 2719 3006 2719 3438 
Q 2719 3909 2473 4175 
Q 2228 4441 1797 4441 
Q 1350 4441 1106 4219 
Q 863 3997 819 3553 
z
" transform="scale(0.015625)"/>
       </defs>
       <use xlink:href="#DejaVuSerif-2212"/>
       <use xlink:href="#DejaVuSerif-32" x="83.789062"/>
       <use xlink:href="#DejaVuSerif-30" x="147.412109"/>
      </g>
     </g>
    </g>
    <g id="ytick_5">
     <g id="line2d_35">
      <path d="M 43.011719 101.968981 
L 211.848163 101.968981 
" clip-path="url(#pd70eb63ea3)" style="fill: none; stroke: #b0b0b0; stroke-width: 0.2; stroke-linecap: round"/>
     </g>
     <g id="line2d_36"/>
     <g id="text_6">
      <!-- 0 -->
      <g style="fill: #262626" transform="translate(35.057969 104.628434) scale(0.07 -0.07)">
       <use xlink:href="#DejaVuSerif-30"/>
      </g>
     </g>
    </g>
    <g id="ytick_6">
     <g id="line2d_37">
      <path d="M 43.011719 81.479646 
L 211.848163 81.479646 
" clip-path="url(#pd70eb63ea3)" style="fill: none; stroke: #b0b0b0; stroke-width: 0.2; stroke-linecap: round"/>
     </g>
     <g id="line2d_38"/>
     <g id="text_7">
      <!-- 20 -->
      <g style="fill: #262626" transform="translate(30.604219 84.139099) scale(0.07 -0.07)">
       <use xlink:href="#DejaVuSerif-32"/>
       <use xlink:href="#DejaVuSerif-30" x="63.623047"/>
      </g>
     </g>
    </g>
    <g id="text_8">
     <!-- $\psi$ $[deg]$ -->
     <g style="fill: #262626" transform="translate(12.59 114.208971) rotate(-90) scale(0.07 -0.07)">
      <defs>
       <path id="DejaVuSans-Oblique-3c8" d="M 1591 -78 
Q 891 38 616 341 
Q 278 713 425 1472 
L 819 3500 
L 1400 3500 
L 1009 1494 
Q 900 922 1119 684 
Q 1313 478 1691 434 
L 2284 3500 
L 2856 3500 
L 2263 438 
Q 2681 481 2928 688 
Q 3247 950 3353 1497 
L 3741 3500 
L 4322 3500 
L 3928 1475 
Q 3775 688 3300 344 
Q 2872 34 2163 -75 
L 1919 -1331 
L 1347 -1331 
L 1591 -78 
z
" transform="scale(0.015625)"/>
      </defs>
      <use xlink:href="#DejaVuSans-Oblique-3c8" transform="translate(0 0.015625)"/>
      <use xlink:href="#DejaVuSerif-20" transform="translate(65.966797 0.015625)"/>
      <use xlink:href="#DejaVuSans-5b" transform="translate(97.753906 0.015625)"/>
      <use xlink:href="#DejaVuSans-Oblique-64" transform="translate(136.767578 0.015625)"/>
      <use xlink:href="#DejaVuSans-Oblique-65" transform="translate(200.244141 0.015625)"/>
      <use xlink:href="#DejaVuSans-Oblique-67" transform="translate(261.767578 0.015625)"/>
      <use xlink:href="#DejaVuSans-5d" transform="translate(325.244141 0.015625)"/>
     </g>
    </g>
   </g>
   <g id="line2d_39">
    <path d="M 50.686103 101.968981 
L 53.294438 102.076698 
L 54.80066 102.369823 
L 56.159933 102.862078 
L 57.702892 103.668364 
L 59.576485 104.906764 
L 61.890923 106.716791 
L 64.793156 109.282584 
L 68.503605 112.878358 
L 73.02227 117.57916 
L 78.936946 124.077811 
L 81.104436 126.26872 
L 82.720869 127.594173 
L 84.116879 128.457652 
L 85.365941 128.981542 
L 86.541529 129.241824 
L 87.717117 129.271143 
L 89.002916 129.07527 
L 90.509138 128.61439 
L 92.27252 127.834575 
L 94.366535 126.656172 
L 96.864659 124.989668 
L 99.91384 122.676429 
L 103.367129 119.776072 
L 107.591898 115.918636 
L 112.330986 111.288127 
L 117.731342 105.687131 
L 123.792966 99.069481 
L 130.956704 90.91256 
L 143.11669 76.991796 
L 144.659649 75.737108 
L 146.018922 74.903856 
L 147.304721 74.371863 
L 148.517046 74.111476 
L 149.766108 74.076912 
L 151.198856 74.268009 
L 152.852026 74.72151 
L 154.762356 75.482722 
L 156.966583 76.605271 
L 159.574919 78.192944 
L 162.660837 80.340218 
L 166.1876 83.070691 
L 170.00826 86.31259 
L 174.637137 90.543179 
L 179.706859 95.482495 
L 185.254164 101.207704 
L 191.719896 108.220491 
L 199.140794 116.592585 
L 204.173779 122.435959 
L 204.173779 122.435959 
" clip-path="url(#pd70eb63ea3)" style="fill: none; stroke: #0000ff; stroke-width: 0.6; stroke-linecap: round"/>
   </g>
   <g id="line2d_40">
    <path d="M 50.686103 101.968981 
L 53.294438 102.076478 
L 54.80066 102.36852 
L 56.159933 102.857966 
L 57.739629 103.678591 
L 59.649959 104.932658 
L 62.037872 106.78014 
L 65.160527 109.495622 
L 69.20161 113.322811 
L 74.565229 118.72683 
L 81.94939 126.201599 
L 83.492348 127.340971 
L 84.851622 128.079627 
L 86.100684 128.512138 
L 87.276272 128.686548 
L 88.451859 128.631356 
L 89.774396 128.334621 
L 91.317354 127.750256 
L 93.15421 126.803868 
L 95.395175 125.386067 
L 98.150458 123.369816 
L 101.640484 120.523223 
L 105.755042 116.865958 
L 110.824764 112.057661 
L 116.886388 105.994376 
L 124.344023 98.195376 
L 133.418091 88.376463 
L 143.190164 77.804709 
L 144.806597 76.49752 
L 146.202608 75.643121 
L 147.488407 75.107946 
L 148.700732 74.840558 
L 149.87632 74.805497 
L 151.198856 74.99243 
L 152.741815 75.442706 
L 154.541934 76.207131 
L 156.672686 77.363 
L 159.244285 79.022201 
L 162.440414 81.365084 
L 166.1876 84.395154 
L 170.449105 88.133768 
L 176.106622 93.418264 
L 182.351932 99.565817 
L 189.515669 106.949654 
L 197.928469 115.934613 
L 203.879882 122.429799 
L 203.879882 122.429799 
" clip-path="url(#pd70eb63ea3)" style="fill: none; stroke: #008000; stroke-width: 0.6; stroke-linecap: round"/>
   </g>
   <g id="line2d_41">
    <path d="M 50.686103 101.968981 
L 53.257701 102.079244 
L 54.80066 102.381147 
L 56.233407 102.892007 
L 57.813103 103.70229 
L 59.686696 104.926555 
L 61.890923 106.644561 
L 64.535996 109.001602 
L 67.695388 112.125207 
L 71.479311 116.190161 
L 75.924502 121.302993 
L 80.66359 126.744772 
L 82.206549 128.126557 
L 83.565823 129.05186 
L 84.778148 129.617572 
L 85.953735 129.921167 
L 87.092586 129.984508 
L 88.304911 129.825597 
L 89.737658 129.403499 
L 91.390829 128.676898 
L 93.374633 127.550919 
L 95.689071 125.973371 
L 98.407618 123.842387 
L 101.56701 121.07272 
L 105.093774 117.678627 
L 109.098119 113.509209 
L 113.616785 108.474243 
L 118.796718 102.360828 
L 124.784868 94.937732 
L 131.875132 85.780875 
L 138.928659 76.695579 
L 140.471618 75.155413 
L 141.830891 74.103567 
L 143.043216 73.433127 
L 144.218804 73.034491 
L 145.357654 72.882464 
L 146.606716 72.950538 
L 148.039464 73.262635 
L 149.692634 73.855288 
L 151.676438 74.813672 
L 153.95414 76.16866 
L 156.599212 78.009095 
L 159.574919 80.358415 
L 162.881259 83.25635 
L 166.628445 86.84642 
L 170.816477 91.173861 
L 175.518828 96.364798 
L 180.735498 102.461754 
L 186.83386 109.941753 
L 193.997598 119.094768 
L 196.532459 122.410122 
L 196.532459 122.410122 
" clip-path="url(#pd70eb63ea3)" style="fill: none; stroke: #ff0000; stroke-width: 0.6; stroke-linecap: round"/>
   </g>
   <g id="patch_6">
    <path d="M 43.011719 132.845294 
L 43.011719 70.022647 
" style="fill: none; stroke: #000000; stroke-linejoin: miter; stroke-linecap: square"/>
   </g>
   <g id="patch_7">
    <path d="M 43.011719 132.845294 
L 211.848163 132.845294 
" style="fill: none; stroke: #000000; stroke-linejoin: miter; stroke-linecap: square"/>
   </g>
  </g>
  <g id="axes_3">
   <g id="patch_8">
    <path d="M 43.011719 195.667941 
L 211.848163 195.667941 
L 211.848163 132.845294 
L 43.011719 132.845294 
z
" style="fill: #ffffff"/>
   </g>
   <g id="line2d_42">
    <path d="M 50.686103 164.261665 
L 51.233467 164.579259 
L 51.890305 165.223585 
L 52.693106 166.339536 
L 53.714854 168.157312 
L 54.846074 170.640483 
L 58.239735 178.691247 
L 59.224992 180.2176 
L 62.764617 184.781826 
L 63.859346 185.58939 
L 65.027057 186.154914 
L 65.793368 186.614914 
L 67.800372 188.081516 
L 68.785628 188.454201 
L 69.697903 188.569305 
L 71.267015 188.613526 
L 73.638928 189.612444 
L 74.879621 189.796203 
L 75.718914 189.703631 
L 77.543463 189.211691 
L 78.127319 188.632601 
L 78.784156 187.649371 
L 79.586958 186.030333 
L 80.681687 183.296491 
L 82.28729 178.557658 
L 83.746929 173.867503 
L 87.906901 159.96038 
L 89.074612 157.320374 
L 90.242324 155.209064 
L 91.337053 153.653898 
L 92.687219 152.153971 
L 95.424043 149.234837 
L 96.664736 148.294945 
L 97.94192 147.625395 
L 98.708231 147.122701 
L 100.277343 146.038504 
L 101.445054 145.548269 
L 102.43031 145.371008 
L 103.999423 145.196238 
L 106.480809 144.192368 
L 107.794484 143.944897 
L 109.363596 143.757532 
L 111.443582 142.897281 
L 112.793748 142.746838 
L 113.924969 142.843214 
L 114.654788 142.820922 
L 118.121431 141.951358 
L 119.252652 142.033432 
L 120.091944 142.035767 
L 121.004219 141.642305 
L 121.80702 141.445641 
L 122.938241 141.419377 
L 124.324898 141.618457 
L 125.675064 141.867021 
L 126.66032 141.558413 
L 127.901014 141.275724 
L 128.88627 141.259629 
L 129.908017 141.462091 
L 131.075729 141.700956 
L 131.951512 141.485734 
L 132.97326 141.333136 
L 134.177462 141.408692 
L 135.345173 141.698912 
L 136.476394 141.980845 
L 137.352177 141.824013 
L 138.300943 141.730857 
L 139.724091 141.876313 
L 140.563383 142.171783 
L 141.110748 142.583144 
L 142.570387 144.150719 
L 143.300207 145.217627 
L 144.212481 146.998987 
L 145.343701 149.72714 
L 146.76685 153.765949 
L 151.656641 168.024359 
L 152.933825 170.592361 
L 154.174518 172.776931 
L 155.196266 174.122959 
L 156.582923 175.581199 
L 157.933089 176.588694 
L 158.735891 177.363901 
L 160.414476 179.029254 
L 161.582187 179.835815 
L 162.713407 180.300628 
L 163.808137 180.798739 
L 165.596195 181.780594 
L 166.581451 182.033133 
L 167.931617 182.15658 
L 169.245293 182.266187 
L 172.675445 183.377708 
L 173.843156 183.448447 
L 174.609466 183.532776 
L 178.003127 184.5891 
L 179.20733 184.585267 
L 179.97364 184.622016 
L 180.849424 185.00046 
L 181.980644 185.383422 
L 183.111864 185.503182 
L 185.666233 185.610277 
L 186.833944 186.029455 
L 187.965165 186.12209 
L 189.388313 186.041835 
L 191.322335 185.806926 
L 193.110393 186.204928 
L 194.752487 186.186854 
L 196.650018 185.990603 
L 198.547549 186.377619 
L 199.678769 186.373897 
L 200.700516 186.102307 
L 201.685773 185.860354 
L 202.379101 185.98365 
L 204.167159 186.385847 
L 204.167159 186.385847 
" clip-path="url(#p909493da76)" style="fill: none; stroke: #000000; stroke-width: 0.6; stroke-linecap: round"/>
   </g>
   <g id="matplotlib.axis_5">
    <g id="xtick_11">
     <g id="line2d_43">
      <path d="M 50.686103 195.667941 
L 50.686103 132.845294 
" clip-path="url(#p909493da76)" style="fill: none; stroke: #b0b0b0; stroke-width: 0.2; stroke-linecap: round"/>
     </g>
     <g id="line2d_44"/>
     <g id="text_9">
      <!-- 0 -->
      <g style="fill: #262626" transform="translate(48.459228 204.486848) scale(0.07 -0.07)">
       <use xlink:href="#DejaVuSerif-30"/>
      </g>
     </g>
    </g>
    <g id="xtick_12">
     <g id="line2d_45">
      <path d="M 87.42322 195.667941 
L 87.42322 132.845294 
" clip-path="url(#p909493da76)" style="fill: none; stroke: #b0b0b0; stroke-width: 0.2; stroke-linecap: round"/>
     </g>
     <g id="line2d_46"/>
     <g id="text_10">
      <!-- 10 -->
      <g style="fill: #262626" transform="translate(82.96947 204.486848) scale(0.07 -0.07)">
       <use xlink:href="#DejaVuSerif-31"/>
       <use xlink:href="#DejaVuSerif-30" x="63.623047"/>
      </g>
     </g>
    </g>
    <g id="xtick_13">
     <g id="line2d_47">
      <path d="M 124.160337 195.667941 
L 124.160337 132.845294 
" clip-path="url(#p909493da76)" style="fill: none; stroke: #b0b0b0; stroke-width: 0.2; stroke-linecap: round"/>
     </g>
     <g id="line2d_48"/>
     <g id="text_11">
      <!-- 20 -->
      <g style="fill: #262626" transform="translate(119.706587 204.486848) scale(0.07 -0.07)">
       <use xlink:href="#DejaVuSerif-32"/>
       <use xlink:href="#DejaVuSerif-30" x="63.623047"/>
      </g>
     </g>
    </g>
    <g id="xtick_14">
     <g id="line2d_49">
      <path d="M 160.897455 195.667941 
L 160.897455 132.845294 
" clip-path="url(#p909493da76)" style="fill: none; stroke: #b0b0b0; stroke-width: 0.2; stroke-linecap: round"/>
     </g>
     <g id="line2d_50"/>
     <g id="text_12">
      <!-- 30 -->
      <g style="fill: #262626" transform="translate(156.443705 204.486848) scale(0.07 -0.07)">
       <defs>
        <path id="DejaVuSerif-33" d="M 622 4469 
Q 988 4606 1323 4678 
Q 1659 4750 1953 4750 
Q 2638 4750 3022 4454 
Q 3406 4159 3406 3634 
Q 3406 3213 3140 2930 
Q 2875 2647 2388 2547 
Q 2963 2466 3280 2130 
Q 3597 1794 3597 1259 
Q 3597 606 3158 257 
Q 2719 -91 1894 -91 
Q 1528 -91 1179 -12 
Q 831 66 488 225 
L 488 1131 
L 838 1131 
Q 869 681 1141 450 
Q 1413 219 1906 219 
Q 2384 219 2661 495 
Q 2938 772 2938 1253 
Q 2938 1803 2653 2086 
Q 2369 2369 1819 2369 
L 1522 2369 
L 1522 2688 
L 1678 2688 
Q 2225 2688 2498 2914 
Q 2772 3141 2772 3597 
Q 2772 4006 2547 4223 
Q 2322 4441 1900 4441 
Q 1478 4441 1245 4241 
Q 1013 4041 972 3647 
L 622 3647 
L 622 4469 
z
" transform="scale(0.015625)"/>
       </defs>
       <use xlink:href="#DejaVuSerif-33"/>
       <use xlink:href="#DejaVuSerif-30" x="63.623047"/>
      </g>
     </g>
    </g>
    <g id="xtick_15">
     <g id="line2d_51">
      <path d="M 197.634572 195.667941 
L 197.634572 132.845294 
" clip-path="url(#p909493da76)" style="fill: none; stroke: #b0b0b0; stroke-width: 0.2; stroke-linecap: round"/>
     </g>
     <g id="line2d_52"/>
     <g id="text_13">
      <!-- 40 -->
      <g style="fill: #262626" transform="translate(193.180822 204.486848) scale(0.07 -0.07)">
       <defs>
        <path id="DejaVuSerif-34" d="M 2234 1581 
L 2234 4063 
L 641 1581 
L 2234 1581 
z
M 3609 0 
L 1484 0 
L 1484 331 
L 2234 331 
L 2234 1247 
L 197 1247 
L 197 1588 
L 2241 4750 
L 2859 4750 
L 2859 1581 
L 3750 1581 
L 3750 1247 
L 2859 1247 
L 2859 331 
L 3609 331 
L 3609 0 
z
" transform="scale(0.015625)"/>
       </defs>
       <use xlink:href="#DejaVuSerif-34"/>
       <use xlink:href="#DejaVuSerif-30" x="63.623047"/>
      </g>
     </g>
    </g>
    <g id="text_14">
     <!-- Time [s] -->
     <g style="fill: #262626" transform="translate(112.945957 215.261535) scale(0.07 -0.07)">
      <defs>
       <path id="DejaVuSerif-54" d="M 1222 0 
L 1222 331 
L 1819 331 
L 1819 4294 
L 447 4294 
L 447 3566 
L 63 3566 
L 63 4666 
L 4206 4666 
L 4206 3566 
L 3822 3566 
L 3822 4294 
L 2450 4294 
L 2450 331 
L 3047 331 
L 3047 0 
L 1222 0 
z
" transform="scale(0.015625)"/>
       <path id="DejaVuSerif-69" d="M 622 4353 
Q 622 4497 726 4603 
Q 831 4709 978 4709 
Q 1122 4709 1226 4603 
Q 1331 4497 1331 4353 
Q 1331 4206 1228 4103 
Q 1125 4000 978 4000 
Q 831 4000 726 4103 
Q 622 4206 622 4353 
z
M 1356 331 
L 1900 331 
L 1900 0 
L 231 0 
L 231 331 
L 781 331 
L 781 2988 
L 231 2988 
L 231 3322 
L 1356 3322 
L 1356 331 
z
" transform="scale(0.015625)"/>
       <path id="DejaVuSerif-6d" d="M 3316 2675 
Q 3481 3041 3739 3227 
Q 3997 3413 4341 3413 
Q 4863 3413 5119 3089 
Q 5375 2766 5375 2113 
L 5375 331 
L 5894 331 
L 5894 0 
L 4300 0 
L 4300 331 
L 4800 331 
L 4800 2047 
Q 4800 2556 4650 2772 
Q 4500 2988 4153 2988 
Q 3769 2988 3567 2697 
Q 3366 2406 3366 1850 
L 3366 331 
L 3866 331 
L 3866 0 
L 2291 0 
L 2291 331 
L 2791 331 
L 2791 2069 
Q 2791 2566 2641 2777 
Q 2491 2988 2144 2988 
Q 1759 2988 1557 2697 
Q 1356 2406 1356 1850 
L 1356 331 
L 1856 331 
L 1856 0 
L 263 0 
L 263 331 
L 781 331 
L 781 2994 
L 231 2994 
L 231 3322 
L 1356 3322 
L 1356 2731 
Q 1516 3063 1762 3238 
Q 2009 3413 2322 3413 
Q 2709 3413 2968 3220 
Q 3228 3028 3316 2675 
z
" transform="scale(0.015625)"/>
       <path id="DejaVuSerif-65" d="M 3469 1600 
L 991 1600 
L 991 1575 
Q 991 903 1244 561 
Q 1497 219 1991 219 
Q 2369 219 2611 417 
Q 2853 616 2950 1006 
L 3413 1006 
Q 3275 459 2904 184 
Q 2534 -91 1931 -91 
Q 1203 -91 761 389 
Q 319 869 319 1663 
Q 319 2450 753 2931 
Q 1188 3413 1894 3413 
Q 2647 3413 3050 2948 
Q 3453 2484 3469 1600 
z
M 2791 1931 
Q 2772 2513 2545 2808 
Q 2319 3103 1894 3103 
Q 1497 3103 1269 2806 
Q 1041 2509 991 1931 
L 2791 1931 
z
" transform="scale(0.015625)"/>
       <path id="DejaVuSerif-5b" d="M 550 4863 
L 2003 4863 
L 2003 4531 
L 1147 4531 
L 1147 -513 
L 2003 -513 
L 2003 -844 
L 550 -844 
L 550 4863 
z
" transform="scale(0.015625)"/>
       <path id="DejaVuSerif-73" d="M 359 184 
L 359 959 
L 691 959 
Q 703 588 923 403 
Q 1144 219 1575 219 
Q 1963 219 2166 364 
Q 2369 509 2369 788 
Q 2369 1006 2220 1140 
Q 2072 1275 1594 1428 
L 1178 1569 
Q 750 1706 558 1912 
Q 366 2119 366 2438 
Q 366 2894 700 3153 
Q 1034 3413 1625 3413 
Q 1888 3413 2178 3344 
Q 2469 3275 2778 3144 
L 2778 2419 
L 2447 2419 
Q 2434 2741 2221 2922 
Q 2009 3103 1644 3103 
Q 1281 3103 1095 2975 
Q 909 2847 909 2591 
Q 909 2381 1050 2254 
Q 1191 2128 1613 1997 
L 2069 1856 
Q 2541 1709 2748 1489 
Q 2956 1269 2956 922 
Q 2956 450 2595 179 
Q 2234 -91 1600 -91 
Q 1278 -91 972 -22 
Q 666 47 359 184 
z
" transform="scale(0.015625)"/>
       <path id="DejaVuSerif-5d" d="M 1947 4863 
L 1947 -844 
L 494 -844 
L 494 -513 
L 1350 -513 
L 1350 4531 
L 494 4531 
L 494 4863 
L 1947 4863 
z
" transform="scale(0.015625)"/>
      </defs>
      <use xlink:href="#DejaVuSerif-54"/>
      <use xlink:href="#DejaVuSerif-69" x="66.699219"/>
      <use xlink:href="#DejaVuSerif-6d" x="98.681641"/>
      <use xlink:href="#DejaVuSerif-65" x="193.505859"/>
      <use xlink:href="#DejaVuSerif-20" x="252.685547"/>
      <use xlink:href="#DejaVuSerif-5b" x="284.472656"/>
      <use xlink:href="#DejaVuSerif-73" x="323.486328"/>
      <use xlink:href="#DejaVuSerif-5d" x="374.804688"/>
     </g>
    </g>
   </g>
   <g id="matplotlib.axis_6">
    <g id="ytick_7">
     <g id="line2d_53">
      <path d="M 43.011719 181.684939 
L 211.848163 181.684939 
" clip-path="url(#p909493da76)" style="fill: none; stroke: #b0b0b0; stroke-width: 0.2; stroke-linecap: round"/>
     </g>
     <g id="line2d_54"/>
     <g id="text_15">
      <!-- −0.05 -->
      <g style="fill: #262626" transform="translate(18.06 184.344392) scale(0.07 -0.07)">
       <defs>
        <path id="DejaVuSerif-2e" d="M 603 325 
Q 603 500 722 622 
Q 841 744 1019 744 
Q 1191 744 1312 622 
Q 1434 500 1434 325 
Q 1434 153 1312 31 
Q 1191 -91 1019 -91 
Q 841 -91 722 29 
Q 603 150 603 325 
z
" transform="scale(0.015625)"/>
        <path id="DejaVuSerif-35" d="M 3219 4666 
L 3219 4153 
L 1081 4153 
L 1081 2816 
Q 1244 2928 1461 2984 
Q 1678 3041 1947 3041 
Q 2703 3041 3140 2622 
Q 3578 2203 3578 1478 
Q 3578 738 3136 323 
Q 2694 -91 1894 -91 
Q 1572 -91 1234 -12 
Q 897 66 544 225 
L 544 1131 
L 897 1131 
Q 925 688 1179 453 
Q 1434 219 1894 219 
Q 2388 219 2653 544 
Q 2919 869 2919 1478 
Q 2919 2084 2655 2407 
Q 2391 2731 1894 2731 
Q 1613 2731 1398 2631 
Q 1184 2531 1019 2322 
L 750 2322 
L 750 4666 
L 3219 4666 
z
" transform="scale(0.015625)"/>
       </defs>
       <use xlink:href="#DejaVuSerif-2212"/>
       <use xlink:href="#DejaVuSerif-30" x="83.789062"/>
       <use xlink:href="#DejaVuSerif-2e" x="147.412109"/>
       <use xlink:href="#DejaVuSerif-30" x="179.199219"/>
       <use xlink:href="#DejaVuSerif-35" x="242.822266"/>
      </g>
     </g>
    </g>
    <g id="ytick_8">
     <g id="line2d_55">
      <path d="M 43.011719 164.443574 
L 211.848163 164.443574 
" clip-path="url(#p909493da76)" style="fill: none; stroke: #b0b0b0; stroke-width: 0.2; stroke-linecap: round"/>
     </g>
     <g id="line2d_56"/>
     <g id="text_16">
      <!-- 0.00 -->
      <g style="fill: #262626" transform="translate(23.925781 167.103027) scale(0.07 -0.07)">
       <use xlink:href="#DejaVuSerif-30"/>
       <use xlink:href="#DejaVuSerif-2e" x="63.623047"/>
       <use xlink:href="#DejaVuSerif-30" x="95.410156"/>
       <use xlink:href="#DejaVuSerif-30" x="159.033203"/>
      </g>
     </g>
    </g>
    <g id="ytick_9">
     <g id="line2d_57">
      <path d="M 43.011719 147.202208 
L 211.848163 147.202208 
" clip-path="url(#p909493da76)" style="fill: none; stroke: #b0b0b0; stroke-width: 0.2; stroke-linecap: round"/>
     </g>
     <g id="line2d_58"/>
     <g id="text_17">
      <!-- 0.05 -->
      <g style="fill: #262626" transform="translate(23.925781 149.861661) scale(0.07 -0.07)">
       <use xlink:href="#DejaVuSerif-30"/>
       <use xlink:href="#DejaVuSerif-2e" x="63.623047"/>
       <use xlink:href="#DejaVuSerif-30" x="95.410156"/>
       <use xlink:href="#DejaVuSerif-35" x="159.033203"/>
      </g>
     </g>
    </g>
    <g id="text_18">
     <!-- $r$ $[rad/s]$ -->
     <g style="fill: #262626" transform="translate(12.604219 178.361618) rotate(-90) scale(0.07 -0.07)">
      <defs>
       <path id="DejaVuSans-Oblique-72" d="M 2853 2969 
Q 2766 3016 2653 3041 
Q 2541 3066 2413 3066 
Q 1953 3066 1609 2717 
Q 1266 2369 1153 1784 
L 800 0 
L 225 0 
L 909 3500 
L 1484 3500 
L 1375 2956 
Q 1603 3259 1920 3421 
Q 2238 3584 2597 3584 
Q 2691 3584 2781 3573 
Q 2872 3563 2963 3538 
L 2853 2969 
z
" transform="scale(0.015625)"/>
       <path id="DejaVuSans-Oblique-61" d="M 3438 1997 
L 3047 0 
L 2472 0 
L 2578 531 
Q 2325 219 2001 64 
Q 1678 -91 1281 -91 
Q 834 -91 548 182 
Q 263 456 263 884 
Q 263 1497 752 1853 
Q 1241 2209 2100 2209 
L 2900 2209 
L 2931 2363 
Q 2938 2388 2941 2417 
Q 2944 2447 2944 2509 
Q 2944 2788 2717 2942 
Q 2491 3097 2081 3097 
Q 1800 3097 1504 3025 
Q 1209 2953 897 2809 
L 997 3341 
Q 1322 3463 1633 3523 
Q 1944 3584 2234 3584 
Q 2853 3584 3176 3315 
Q 3500 3047 3500 2534 
Q 3500 2431 3484 2292 
Q 3469 2153 3438 1997 
z
M 2816 1759 
L 2241 1759 
Q 1534 1759 1195 1570 
Q 856 1381 856 984 
Q 856 709 1029 553 
Q 1203 397 1509 397 
Q 1978 397 2328 733 
Q 2678 1069 2791 1631 
L 2816 1759 
z
" transform="scale(0.015625)"/>
       <path id="DejaVuSans-2f" d="M 1625 4666 
L 2156 4666 
L 531 -594 
L 0 -594 
L 1625 4666 
z
" transform="scale(0.015625)"/>
       <path id="DejaVuSans-Oblique-73" d="M 3200 3397 
L 3091 2853 
Q 2863 2978 2609 3040 
Q 2356 3103 2088 3103 
Q 1634 3103 1373 2948 
Q 1113 2794 1113 2528 
Q 1113 2219 1719 2053 
Q 1766 2041 1788 2034 
L 1972 1978 
Q 2547 1819 2739 1644 
Q 2931 1469 2931 1166 
Q 2931 609 2489 259 
Q 2047 -91 1331 -91 
Q 1053 -91 747 -37 
Q 441 16 72 128 
L 184 722 
Q 500 559 806 475 
Q 1113 391 1394 391 
Q 1816 391 2080 572 
Q 2344 753 2344 1031 
Q 2344 1331 1650 1516 
L 1591 1531 
L 1394 1581 
Q 956 1697 753 1886 
Q 550 2075 550 2369 
Q 550 2928 970 3256 
Q 1391 3584 2113 3584 
Q 2397 3584 2667 3537 
Q 2938 3491 3200 3397 
z
" transform="scale(0.015625)"/>
      </defs>
      <use xlink:href="#DejaVuSans-Oblique-72" transform="translate(0 0.015625)"/>
      <use xlink:href="#DejaVuSerif-20" transform="translate(41.113281 0.015625)"/>
      <use xlink:href="#DejaVuSans-5b" transform="translate(72.900391 0.015625)"/>
      <use xlink:href="#DejaVuSans-Oblique-72" transform="translate(111.914062 0.015625)"/>
      <use xlink:href="#DejaVuSans-Oblique-61" transform="translate(153.027344 0.015625)"/>
      <use xlink:href="#DejaVuSans-Oblique-64" transform="translate(214.306641 0.015625)"/>
      <use xlink:href="#DejaVuSans-2f" transform="translate(277.783203 0.015625)"/>
      <use xlink:href="#DejaVuSans-Oblique-73" transform="translate(311.474609 0.015625)"/>
      <use xlink:href="#DejaVuSans-5d" transform="translate(363.574219 0.015625)"/>
     </g>
    </g>
   </g>
   <g id="line2d_59">
    <path d="M 50.686103 164.443574 
L 51.200422 164.556204 
L 51.751479 164.9102 
L 52.412747 165.630091 
L 53.184227 166.829229 
L 54.065917 168.638792 
L 55.241505 171.619664 
L 56.747727 175.377613 
L 57.84984 177.485307 
L 59.13564 179.45294 
L 60.458176 181.07495 
L 61.817449 182.377736 
L 63.470619 183.646441 
L 65.270738 184.730454 
L 67.217805 185.625332 
L 70.524146 186.841475 
L 73.830487 187.75801 
L 77.540935 188.56954 
L 78.055255 188.510418 
L 78.606312 188.182167 
L 79.230843 187.55389 
L 79.928848 186.531265 
L 80.847276 184.748675 
L 81.912652 182.169966 
L 83.3454 178.057366 
L 85.072045 172.3619 
L 88.562071 160.580385 
L 89.700921 157.918163 
L 90.949983 155.586526 
L 92.345994 153.4786 
L 93.742004 151.794284 
L 95.3217 150.277635 
L 97.048345 148.909709 
L 98.958675 147.714867 
L 102.375227 145.937283 
L 104.432505 145.086414 
L 107.849057 143.976143 
L 113.726996 142.350311 
L 119.972306 141.008782 
L 123.756229 140.385663 
L 128.899426 139.675354 
L 136.724432 138.987306 
L 139.479715 138.896768 
L 140.030772 139.243758 
L 140.69204 139.962071 
L 141.46352 141.183939 
L 142.418685 143.130964 
L 143.667747 146.260506 
L 145.137232 150.562684 
L 147.157773 157.193307 
L 149.582423 165.140914 
L 150.721273 167.887207 
L 151.896861 170.173988 
L 153.219397 172.265626 
L 154.615408 174.078132 
L 156.268578 175.864104 
L 157.995223 177.391318 
L 159.758604 178.661297 
L 161.815883 179.856316 
L 164.460955 181.183955 
L 168.795935 183.05705 
L 171.110374 183.820654 
L 175.224931 184.965253 
L 181.543715 186.51852 
L 187.201231 187.67347 
L 191.315788 188.261939 
L 204.173779 189.687271 
L 204.173779 189.687271 
" clip-path="url(#p909493da76)" style="fill: none; stroke: #0000ff; stroke-width: 0.6; stroke-linecap: round"/>
   </g>
   <g id="line2d_60">
    <path d="M 50.686103 164.443574 
L 51.200422 164.556144 
L 51.751479 164.909681 
L 52.412747 165.627943 
L 53.184227 166.822936 
L 54.065917 168.623689 
L 55.241505 171.584041 
L 56.71099 175.206882 
L 57.813103 177.282464 
L 59.098902 179.209051 
L 60.421439 180.762398 
L 61.707238 181.95086 
L 63.139985 182.968554 
L 64.903367 183.949426 
L 66.77696 184.760467 
L 68.981187 185.505026 
L 71.773208 186.181785 
L 76.438822 187.023097 
L 78.569575 187.22749 
L 79.083894 186.980038 
L 79.745162 186.384447 
L 80.479905 185.369637 
L 81.324859 183.783307 
L 82.390235 181.278972 
L 83.749508 177.482339 
L 85.476153 171.927867 
L 89.517236 158.517129 
L 90.656086 156.016071 
L 91.978623 153.679796 
L 93.264422 151.881375 
L 94.513484 150.516116 
L 96.129917 149.093161 
L 97.783087 147.950997 
L 99.509732 147.008406 
L 102.852809 145.53704 
L 104.836614 144.867046 
L 108.400114 143.932279 
L 111.743192 143.234992 
L 118.429347 142.114545 
L 124.160337 141.493411 
L 133.160931 140.758877 
L 138.487813 140.487542 
L 140.140984 140.542123 
L 140.69204 140.88801 
L 141.316571 141.550908 
L 142.088051 142.717703 
L 142.969742 144.468652 
L 144.145329 147.3448 
L 145.688288 151.770142 
L 147.598618 157.968343 
L 150.500851 167.437926 
L 151.639701 170.107532 
L 152.815289 172.319303 
L 154.137825 174.350884 
L 155.60731 176.186394 
L 157.076795 177.644681 
L 158.766702 179.015403 
L 160.309661 179.9955 
L 162.550625 181.133038 
L 165.489595 182.3779 
L 169.200043 183.673882 
L 172.065539 184.380621 
L 181.360029 186.034368 
L 187.825762 186.919767 
L 192.491376 187.391881 
L 198.332578 187.86976 
L 203.879882 188.153424 
L 203.879882 188.153424 
" clip-path="url(#p909493da76)" style="fill: none; stroke: #008000; stroke-width: 0.6; stroke-linecap: round"/>
   </g>
   <g id="line2d_61">
    <path d="M 50.686103 164.443574 
L 51.163685 164.55114 
L 51.714742 164.919392 
L 52.37601 165.663685 
L 53.184227 166.948293 
L 54.249603 169.115041 
L 55.866036 173.005749 
L 57.115098 175.72988 
L 58.437634 178.088757 
L 59.833645 180.119688 
L 61.30313 181.869672 
L 62.919563 183.451918 
L 64.682944 184.853911 
L 66.593274 186.095291 
L 68.94445 187.345462 
L 71.62626 188.522449 
L 74.601966 189.58446 
L 77.210301 190.324751 
L 77.761358 190.234516 
L 78.312415 189.910805 
L 78.900209 189.296087 
L 79.598214 188.224511 
L 80.406431 186.542386 
L 81.398333 183.929099 
L 82.684132 179.845765 
L 84.594462 172.945555 
L 87.827328 161.187982 
L 88.929442 158.262299 
L 90.10503 155.765849 
L 91.354092 153.621293 
L 92.676628 151.783318 
L 94.219587 150.027391 
L 95.909494 148.429524 
L 97.819824 146.931812 
L 100.024051 145.48505 
L 102.742598 143.960968 
L 105.828516 142.48966 
L 109.281805 141.111254 
L 112.588145 139.984591 
L 116.73944 138.820584 
L 121.037682 137.827979 
L 125.886982 136.933152 
L 130.993441 136.198115 
L 135.548844 135.725506 
L 136.099901 135.948703 
L 136.687695 136.436301 
L 137.348963 137.296842 
L 138.083705 138.635624 
L 138.965396 140.74695 
L 140.067509 144.012689 
L 141.500257 148.982976 
L 144.439226 160.240981 
L 145.908711 165.451244 
L 146.974087 168.357154 
L 148.112938 170.840016 
L 149.325263 172.970845 
L 150.647799 174.850033 
L 152.190758 176.662447 
L 153.880665 178.30232 
L 155.974681 180.022827 
L 158.215645 181.576139 
L 161.081141 183.292887 
L 164.056847 184.814324 
L 167.142765 186.142714 
L 171.330796 187.688758 
L 175.555565 188.986244 
L 180.257916 190.19609 
L 184.960267 191.147691 
L 190.250412 191.997161 
L 196.422247 192.800632 
L 196.532459 192.812366 
L 196.532459 192.812366 
" clip-path="url(#p909493da76)" style="fill: none; stroke: #ff0000; stroke-width: 0.6; stroke-linecap: round"/>
   </g>
   <g id="patch_9">
    <path d="M 43.011719 195.667941 
L 43.011719 132.845294 
" style="fill: none; stroke: #000000; stroke-linejoin: miter; stroke-linecap: square"/>
   </g>
   <g id="patch_10">
    <path d="M 43.011719 195.667941 
L 211.848163 195.667941 
" style="fill: none; stroke: #000000; stroke-linejoin: miter; stroke-linecap: square"/>
   </g>
  </g>
 </g>
 <defs>
  <clipPath id="p68c923671d">
   <rect x="43.011719" y="7.2" width="168.836444" height="62.822647"/>
  </clipPath>
  <clipPath id="pd70eb63ea3">
   <rect x="43.011719" y="70.022647" width="168.836444" height="62.822647"/>
  </clipPath>
  <clipPath id="p909493da76">
   <rect x="43.011719" y="132.845294" width="168.836444" height="62.822647"/>
  </clipPath>
 </defs>
</svg>
