<?xml version="1.0" encoding="utf-8" standalone="no"?>
<!DOCTYPE svg PUBLIC "-//W3C//DTD SVG 1.1//EN"
  "http://www.w3.org/Graphics/SVG/1.1/DTD/svg11.dtd">
<svg xmlns:xlink="http://www.w3.org/1999/xlink" width="438.501094pt" height="337.100625pt" viewBox="0 0 438.501094 337.100625" xmlns="http://www.w3.org/2000/svg" version="1.1">
 <metadata>
  <rdf:RDF xmlns:dc="http://purl.org/dc/elements/1.1/" xmlns:cc="http://creativecommons.org/ns#" xmlns:rdf="http://www.w3.org/1999/02/22-rdf-syntax-ns#">
   <cc:Work>
    <dc:type rdf:resource="http://purl.org/dc/dcmitype/StillImage"/>
    <dc:date>2024-02-12T13:57:27.796229</dc:date>
    <dc:format>image/svg+xml</dc:format>
    <dc:creator>
     <cc:Agent>
      <dc:title>Matplotlib v3.8.2, https://matplotlib.org/</dc:title>
     </cc:Agent>
    </dc:creator>
   </cc:Work>
  </rdf:RDF>
 </metadata>
 <defs>
  <style type="text/css">*{stroke-linejoin: round; stroke-linecap: butt}</style>
 </defs>
 <g id="figure_1">
  <g id="patch_1">
   <path d="M 0 337.100625 
L 438.501094 337.100625 
L 438.501094 0 
L 0 0 
z
" style="fill: #ffffff"/>
  </g>
  <g id="axes_1">
   <g id="patch_2">
    <path d="M 50.991094 106.46 
L 431.301094 106.46 
L 431.301094 7.2 
L 50.991094 7.2 
z
" style="fill: #ffffff"/>
   </g>
   <g id="line2d_1">
    <path d="M 68.277912 57.023167 
L 70.49088 57.065893 
L 71.966193 57.325141 
L 73.441505 57.831992 
L 75.244665 58.705901 
L 79.096869 60.880455 
L 83.932615 64.137159 
L 88.604438 66.775388 
L 90.817406 68.336976 
L 93.686069 70.652007 
L 97.702197 73.964195 
L 100.406936 75.53932 
L 103.193638 76.794876 
L 106.226224 78.161656 
L 108.111345 79.318182 
L 114.914175 83.58425 
L 122.536622 86.575237 
L 124.175858 87.204492 
L 127.700215 88.705926 
L 129.011604 88.99079 
L 130.568878 89.081861 
L 131.962228 88.967262 
L 134.748929 88.477092 
L 136.716013 87.866412 
L 139.174866 86.759058 
L 140.814102 85.750307 
L 144.092574 83.329637 
L 146.305543 81.311921 
L 147.862817 79.615638 
L 153.272296 73.408692 
L 156.878615 69.688745 
L 159.501392 66.851709 
L 169.828579 56.141067 
L 172.533318 53.960309 
L 176.959255 50.651036 
L 180.729498 47.723544 
L 182.696581 45.96505 
L 184.335817 44.883826 
L 188.024098 42.56653 
L 189.909219 41.676906 
L 193.843385 39.929832 
L 195.400659 39.008537 
L 197.69559 37.690683 
L 203.105068 34.906827 
L 204.908228 34.046606 
L 207.367082 32.975021 
L 211.793019 31.538932 
L 213.186369 31.088845 
L 215.399338 30.068493 
L 217.612306 29.094197 
L 224.16925 26.641418 
L 226.792028 25.901325 
L 229.16892 25.32407 
L 237.119214 22.821992 
L 238.676488 22.559912 
L 240.479648 22.210756 
L 247.364439 20.485002 
L 249.823293 19.895072 
L 252.44607 19.344075 
L 254.085306 19.164694 
L 255.806504 18.875148 
L 263.510913 17.711383 
L 266.379576 17.261903 
L 268.428621 16.89859 
L 270.805513 16.660384 
L 272.444749 16.82587 
L 274.493794 17.28976 
L 275.641259 17.798853 
L 277.936189 19.070631 
L 280.231119 20.354296 
L 283.427629 21.846629 
L 284.984904 22.792533 
L 286.296292 23.817603 
L 288.181414 25.689352 
L 290.886153 28.765828 
L 292.361465 30.788987 
L 295.885823 35.750296 
L 297.11525 37.232102 
L 298.672524 38.726714 
L 301.950996 41.738277 
L 303.50827 43.583163 
L 307.032627 47.971923 
L 310.311099 51.519487 
L 314.409189 55.463997 
L 317.441775 57.97222 
L 319.654744 59.773029 
L 322.851254 62.275299 
L 326.211688 64.871652 
L 328.342694 66.455517 
L 331.78509 68.662358 
L 338.423995 72.14412 
L 343.341703 74.611103 
L 347.357831 76.835677 
L 350.308456 78.079136 
L 351.947692 78.583276 
L 360.635642 82.074998 
L 363.668229 83.184737 
L 366.45493 84.489089 
L 369.241631 85.460468 
L 376.208384 87.374773 
L 380.634321 88.862465 
L 382.109633 89.28301 
L 384.978296 89.861141 
L 387.43715 90.461751 
L 390.305813 91.145509 
L 392.682705 91.626058 
L 395.141559 92.115491 
L 398.501993 92.691015 
L 399.977305 92.997658 
L 401.862426 93.413915 
L 404.895013 93.913419 
L 406.452287 94.155211 
L 408.993103 94.466802 
L 413.746887 95.07699 
L 413.992772 95.120746 
L 413.992772 95.120746 
" clip-path="url(#p0f586fba85)" style="fill: none; stroke: #000000; stroke-linecap: round"/>
   </g>
   <g id="matplotlib.axis_1">
    <g id="xtick_1">
     <g id="line2d_2">
      <path d="M 68.277912 106.46 
L 68.277912 7.2 
" clip-path="url(#p0f586fba85)" style="fill: none; stroke: #b0b0b0; stroke-width: 0.8; stroke-linecap: round"/>
     </g>
     <g id="line2d_3"/>
    </g>
    <g id="xtick_2">
     <g id="line2d_4">
      <path d="M 150.792557 106.46 
L 150.792557 7.2 
" clip-path="url(#p0f586fba85)" style="fill: none; stroke: #b0b0b0; stroke-width: 0.8; stroke-linecap: round"/>
     </g>
     <g id="line2d_5"/>
    </g>
    <g id="xtick_3">
     <g id="line2d_6">
      <path d="M 233.307202 106.46 
L 233.307202 7.2 
" clip-path="url(#p0f586fba85)" style="fill: none; stroke: #b0b0b0; stroke-width: 0.8; stroke-linecap: round"/>
     </g>
     <g id="line2d_7"/>
    </g>
    <g id="xtick_4">
     <g id="line2d_8">
      <path d="M 315.821848 106.46 
L 315.821848 7.2 
" clip-path="url(#p0f586fba85)" style="fill: none; stroke: #b0b0b0; stroke-width: 0.8; stroke-linecap: round"/>
     </g>
     <g id="line2d_9"/>
    </g>
    <g id="xtick_5">
     <g id="line2d_10">
      <path d="M 398.336493 106.46 
L 398.336493 7.2 
" clip-path="url(#p0f586fba85)" style="fill: none; stroke: #b0b0b0; stroke-width: 0.8; stroke-linecap: round"/>
     </g>
     <g id="line2d_11"/>
    </g>
   </g>
   <g id="matplotlib.axis_2">
    <g id="ytick_1">
     <g id="line2d_12">
      <path d="M 50.991094 87.930573 
L 431.301094 87.930573 
" clip-path="url(#p0f586fba85)" style="fill: none; stroke: #b0b0b0; stroke-width: 0.8; stroke-linecap: round"/>
     </g>
     <g id="line2d_13"/>
     <g id="text_1">
      <!-- −10 -->
      <g style="fill: #262626" transform="translate(28.496875 91.349869) scale(0.09 -0.09)">
       <defs>
        <path id="DejaVuSerif-2212" d="M 678 2259 
L 4684 2259 
L 4684 1753 
L 678 1753 
L 678 2259 
z
" transform="scale(0.015625)"/>
        <path id="DejaVuSerif-31" d="M 909 0 
L 909 331 
L 1722 331 
L 1722 4213 
L 781 3603 
L 781 4013 
L 1919 4750 
L 2350 4750 
L 2350 331 
L 3163 331 
L 3163 0 
L 909 0 
z
" transform="scale(0.015625)"/>
        <path id="DejaVuSerif-30" d="M 2034 219 
Q 2513 219 2750 744 
Q 2988 1269 2988 2328 
Q 2988 3391 2750 3916 
Q 2513 4441 2034 4441 
Q 1556 4441 1318 3916 
Q 1081 3391 1081 2328 
Q 1081 1269 1318 744 
Q 1556 219 2034 219 
z
M 2034 -91 
Q 1275 -91 848 546 
Q 422 1184 422 2328 
Q 422 3475 848 4112 
Q 1275 4750 2034 4750 
Q 2797 4750 3222 4112 
Q 3647 3475 3647 2328 
Q 3647 1184 3222 546 
Q 2797 -91 2034 -91 
z
" transform="scale(0.015625)"/>
       </defs>
       <use xlink:href="#DejaVuSerif-2212"/>
       <use xlink:href="#DejaVuSerif-31" x="83.789062"/>
       <use xlink:href="#DejaVuSerif-30" x="147.412109"/>
      </g>
     </g>
    </g>
    <g id="ytick_2">
     <g id="line2d_14">
      <path d="M 50.991094 57.04884 
L 431.301094 57.04884 
" clip-path="url(#p0f586fba85)" style="fill: none; stroke: #b0b0b0; stroke-width: 0.8; stroke-linecap: round"/>
     </g>
     <g id="line2d_15"/>
     <g id="text_2">
      <!-- 0 -->
      <g style="fill: #262626" transform="translate(41.764844 60.468137) scale(0.09 -0.09)">
       <use xlink:href="#DejaVuSerif-30"/>
      </g>
     </g>
    </g>
    <g id="ytick_3">
     <g id="line2d_16">
      <path d="M 50.991094 26.167107 
L 431.301094 26.167107 
" clip-path="url(#p0f586fba85)" style="fill: none; stroke: #b0b0b0; stroke-width: 0.8; stroke-linecap: round"/>
     </g>
     <g id="line2d_17"/>
     <g id="text_3">
      <!-- 10 -->
      <g style="fill: #262626" transform="translate(36.038594 29.586404) scale(0.09 -0.09)">
       <use xlink:href="#DejaVuSerif-31"/>
       <use xlink:href="#DejaVuSerif-30" x="63.623047"/>
      </g>
     </g>
    </g>
    <g id="text_4">
     <!-- $\beta$ $[deg]$ -->
     <g style="fill: #262626" transform="translate(22.606875 73.165) rotate(-90) scale(0.09 -0.09)">
      <defs>
       <path id="DejaVuSans-Oblique-3b2" d="M 872 216 
L 572 -1331 
L -6 -1331 
L 928 3478 
Q 1206 4903 2538 4903 
Q 3888 4903 3659 3700 
Q 3503 2844 2894 2531 
Q 3713 2250 3553 1416 
Q 3272 -69 1759 -66 
Q 1097 -63 872 216 
z
M 1019 966 
Q 1259 422 1875 425 
Q 2775 425 2966 1406 
Q 3138 2288 1675 2219 
L 1778 2750 
Q 2909 2731 3106 3750 
Q 3241 4438 2509 4434 
Q 1691 4434 1503 3459 
L 1019 966 
z
" transform="scale(0.015625)"/>
       <path id="DejaVuSerif-20" transform="scale(0.015625)"/>
       <path id="DejaVuSans-5b" d="M 550 4863 
L 1875 4863 
L 1875 4416 
L 1125 4416 
L 1125 -397 
L 1875 -397 
L 1875 -844 
L 550 -844 
L 550 4863 
z
" transform="scale(0.015625)"/>
       <path id="DejaVuSans-Oblique-64" d="M 2675 525 
Q 2444 222 2128 65 
Q 1813 -91 1428 -91 
Q 903 -91 598 267 
Q 294 625 294 1247 
Q 294 1766 478 2236 
Q 663 2706 1013 3078 
Q 1244 3325 1534 3454 
Q 1825 3584 2144 3584 
Q 2481 3584 2739 3421 
Q 2997 3259 3138 2956 
L 3513 4863 
L 4091 4863 
L 3144 0 
L 2566 0 
L 2675 525 
z
M 891 1350 
Q 891 897 1095 644 
Q 1300 391 1663 391 
Q 1931 391 2161 520 
Q 2391 650 2566 903 
Q 2750 1166 2856 1509 
Q 2963 1853 2963 2188 
Q 2963 2622 2758 2865 
Q 2553 3109 2194 3109 
Q 1922 3109 1687 2981 
Q 1453 2853 1288 2613 
Q 1106 2353 998 2009 
Q 891 1666 891 1350 
z
" transform="scale(0.015625)"/>
       <path id="DejaVuSans-Oblique-65" d="M 3078 2063 
Q 3088 2113 3092 2166 
Q 3097 2219 3097 2272 
Q 3097 2653 2873 2875 
Q 2650 3097 2266 3097 
Q 1838 3097 1509 2826 
Q 1181 2556 1013 2059 
L 3078 2063 
z
M 3578 1613 
L 903 1613 
Q 884 1494 878 1425 
Q 872 1356 872 1306 
Q 872 872 1139 634 
Q 1406 397 1894 397 
Q 2269 397 2603 481 
Q 2938 566 3225 728 
L 3116 159 
Q 2806 34 2476 -28 
Q 2147 -91 1806 -91 
Q 1078 -91 686 257 
Q 294 606 294 1247 
Q 294 1794 489 2264 
Q 684 2734 1063 3103 
Q 1306 3334 1642 3459 
Q 1978 3584 2356 3584 
Q 2950 3584 3301 3228 
Q 3653 2872 3653 2272 
Q 3653 2128 3634 1964 
Q 3616 1800 3578 1613 
z
" transform="scale(0.015625)"/>
       <path id="DejaVuSans-Oblique-67" d="M 3816 3500 
L 3219 434 
Q 3047 -456 2561 -893 
Q 2075 -1331 1253 -1331 
Q 950 -1331 690 -1286 
Q 431 -1241 206 -1147 
L 313 -588 
Q 525 -725 762 -790 
Q 1000 -856 1269 -856 
Q 1816 -856 2167 -557 
Q 2519 -259 2631 300 
L 2681 563 
Q 2441 288 2122 144 
Q 1803 0 1434 0 
Q 903 0 598 351 
Q 294 703 294 1319 
Q 294 1803 478 2267 
Q 663 2731 997 3091 
Q 1219 3328 1514 3456 
Q 1809 3584 2131 3584 
Q 2484 3584 2746 3420 
Q 3009 3256 3138 2956 
L 3238 3500 
L 3816 3500 
z
M 2950 2216 
Q 2950 2641 2750 2872 
Q 2550 3103 2181 3103 
Q 1953 3103 1747 3012 
Q 1541 2922 1394 2759 
Q 1156 2491 1023 2127 
Q 891 1763 891 1375 
Q 891 944 1092 712 
Q 1294 481 1672 481 
Q 2219 481 2584 976 
Q 2950 1472 2950 2216 
z
" transform="scale(0.015625)"/>
       <path id="DejaVuSans-5d" d="M 1947 4863 
L 1947 -844 
L 622 -844 
L 622 -397 
L 1369 -397 
L 1369 4416 
L 622 4416 
L 622 4863 
L 1947 4863 
z
" transform="scale(0.015625)"/>
      </defs>
      <use xlink:href="#DejaVuSans-Oblique-3b2" transform="translate(0 0.390625)"/>
      <use xlink:href="#DejaVuSerif-20" transform="translate(63.818359 0.390625)"/>
      <use xlink:href="#DejaVuSans-5b" transform="translate(95.605469 0.390625)"/>
      <use xlink:href="#DejaVuSans-Oblique-64" transform="translate(134.619141 0.390625)"/>
      <use xlink:href="#DejaVuSans-Oblique-65" transform="translate(198.095703 0.390625)"/>
      <use xlink:href="#DejaVuSans-Oblique-67" transform="translate(259.619141 0.390625)"/>
      <use xlink:href="#DejaVuSans-5d" transform="translate(323.095703 0.390625)"/>
     </g>
    </g>
   </g>
   <g id="line2d_18">
    <path d="M 68.277912 57.04884 
L 70.423293 57.160391 
L 72.486159 57.493273 
L 74.46651 58.041239 
L 76.446862 58.829385 
L 78.509728 59.905416 
L 81.975343 62.047952 
L 100.788682 73.839661 
L 107.224824 77.483494 
L 113.248394 80.658397 
L 119.93208 83.92102 
L 126.368222 86.83097 
L 130.328925 88.437021 
L 132.226762 88.92796 
L 134.042084 89.162427 
L 135.774892 89.166333 
L 137.507699 88.953386 
L 139.323022 88.507547 
L 141.138344 87.834685 
L 143.036181 86.892027 
L 145.016532 85.662471 
L 147.079398 84.108278 
L 149.307294 82.147114 
L 152.937938 78.573376 
L 165.397649 66.318597 
L 171.008645 61.187435 
L 176.372097 56.590984 
L 182.065608 52.039319 
L 187.42906 48.034844 
L 192.462453 44.554822 
L 197.90842 41.054178 
L 203.519416 37.710618 
L 209.708014 34.286456 
L 215.731583 31.202859 
L 222.085211 28.199404 
L 228.851412 25.249694 
L 235.947671 22.395134 
L 243.373989 19.648404 
L 250.552763 17.189264 
L 258.391655 14.744022 
L 267.220722 12.228945 
L 269.036044 11.851572 
L 270.768851 11.713225 
L 272.501659 11.79586 
L 274.234466 12.097031 
L 276.049789 12.637564 
L 277.865111 13.409764 
L 279.762948 14.457288 
L 281.825814 15.852503 
L 284.053709 17.638395 
L 286.281605 19.708933 
L 288.922073 22.494007 
L 303.032078 37.887006 
L 309.303191 44.325087 
L 314.171555 49.001298 
L 319.369977 53.685869 
L 324.650915 58.141786 
L 330.096881 62.438244 
L 335.542848 66.464816 
L 340.576241 69.907275 
L 346.022208 73.356787 
L 352.210806 77.006273 
L 358.564434 80.485674 
L 364.588003 83.53641 
L 371.10666 86.592908 
L 378.120405 89.626513 
L 385.464208 92.560247 
L 392.642982 95.199361 
L 401.389535 98.154862 
L 409.393455 100.610686 
L 414.014276 101.948182 
L 414.014276 101.948182 
" clip-path="url(#p0f586fba85)" style="fill: none; stroke: #0000ff; stroke-linecap: round"/>
   </g>
   <g id="line2d_19">
    <path d="M 68.277912 57.04884 
L 70.423293 57.160269 
L 72.486159 57.492478 
L 74.46651 58.037795 
L 76.446862 58.818935 
L 78.509728 59.884628 
L 81.975343 61.997876 
L 96.497921 70.943459 
L 102.851548 74.501824 
L 108.38003 77.358465 
L 114.486113 80.27949 
L 120.757226 83.023642 
L 126.86331 85.448164 
L 131.731674 87.170134 
L 133.629511 87.579824 
L 135.444833 87.746696 
L 137.260155 87.689771 
L 138.992963 87.42163 
L 140.808285 86.918758 
L 142.706122 86.163377 
L 144.603959 85.178191 
L 146.58431 83.897547 
L 148.729691 82.237029 
L 151.040101 80.154792 
L 154.835775 76.337787 
L 164.985076 66.145975 
L 170.266013 61.206724 
L 174.969348 57.095251 
L 179.837712 53.143187 
L 184.95362 49.268938 
L 189.73947 45.922074 
L 194.525319 42.852373 
L 199.641227 39.84059 
L 205.004679 36.937427 
L 210.69819 34.109634 
L 216.639244 31.403461 
L 222.745328 28.863822 
L 229.098956 26.467912 
L 236.195215 24.030309 
L 244.199136 21.525486 
L 251.790483 19.369113 
L 260.454521 17.145326 
L 269.613646 15.046403 
L 271.428969 14.855707 
L 273.244291 14.885976 
L 275.059613 15.149852 
L 276.874935 15.635712 
L 278.772772 16.377044 
L 280.753123 17.394228 
L 282.81599 18.716165 
L 284.96137 20.365836 
L 287.189266 22.366154 
L 289.582191 24.827885 
L 295.028157 30.899041 
L 303.444651 40.165732 
L 308.725588 45.678125 
L 313.511438 50.352228 
L 318.214772 54.638786 
L 322.918107 58.636928 
L 327.786471 62.480917 
L 333.149923 66.424037 
L 337.688229 69.496206 
L 342.886651 72.718972 
L 348.085074 75.682536 
L 353.943614 78.751242 
L 359.719639 81.527902 
L 365.743208 84.176145 
L 372.261865 86.798301 
L 378.698007 89.155861 
L 385.629238 91.450584 
L 393.798187 93.914183 
L 402.297196 96.257654 
L 410.71369 98.346655 
L 413.106614 98.901189 
L 413.106614 98.901189 
" clip-path="url(#p0f586fba85)" style="fill: none; stroke: #008000; stroke-linecap: round"/>
   </g>
   <g id="line2d_20">
    <path d="M 68.277912 57.04884 
L 70.670837 57.157693 
L 72.733703 57.46582 
L 74.63154 57.96714 
L 76.446862 58.67887 
L 78.179669 59.591916 
L 80.160021 60.915869 
L 89.401661 67.224885 
L 96.250377 71.638992 
L 102.35646 75.31352 
L 108.132486 78.526974 
L 113.743481 81.404268 
L 119.602021 84.15919 
L 125.873134 86.860968 
L 129.256235 88.141277 
L 130.989042 88.532481 
L 132.72185 88.697637 
L 134.454657 88.635534 
L 136.187465 88.347851 
L 137.920273 87.839529 
L 139.65308 87.10213 
L 141.468402 86.083348 
L 143.366239 84.760346 
L 145.346591 83.109204 
L 147.491971 81.018426 
L 149.802381 78.417074 
L 157.971331 68.923307 
L 162.839695 63.698373 
L 167.378001 59.146951 
L 171.833792 54.993544 
L 176.207068 51.217156 
L 180.662859 47.661994 
L 185.11865 44.391965 
L 189.821984 41.216547 
L 194.855378 38.088697 
L 199.806256 35.274307 
L 205.087194 32.529317 
L 210.615675 29.901866 
L 216.3917 27.404149 
L 222.662813 24.939514 
L 228.933926 22.687179 
L 235.782642 20.466515 
L 243.043931 18.34531 
L 251.295395 16.162536 
L 259.299316 14.269969 
L 260.949609 14.029354 
L 262.682416 14.009751 
L 264.415224 14.221708 
L 266.148031 14.66374 
L 267.880839 15.342874 
L 269.696161 16.300787 
L 271.593998 17.564203 
L 273.574349 19.157105 
L 275.637215 21.103984 
L 277.865111 23.521624 
L 280.175521 26.3619 
L 291.480027 40.92493 
L 295.935818 46.115677 
L 300.22658 50.76993 
L 304.434827 55.004002 
L 308.643074 58.921602 
L 312.933835 62.610827 
L 317.307111 66.077834 
L 321.845417 69.389687 
L 326.466237 72.490349 
L 331.169572 75.381536 
L 336.367994 78.300171 
L 341.813961 81.101552 
L 347.672501 83.858553 
L 353.366011 86.300246 
L 359.55461 88.710112 
L 366.403325 91.124597 
L 373.41707 93.361017 
L 381.58602 95.713865 
L 389.589941 97.773858 
L 397.263803 99.53707 
L 397.263803 99.53707 
" clip-path="url(#p0f586fba85)" style="fill: none; stroke: #ff0000; stroke-linecap: round"/>
   </g>
   <g id="patch_3">
    <path d="M 50.991094 106.46 
L 50.991094 7.2 
" style="fill: none; stroke: #000000; stroke-linejoin: miter; stroke-linecap: square"/>
   </g>
   <g id="patch_4">
    <path d="M 50.991094 106.46 
L 431.301094 106.46 
" style="fill: none; stroke: #000000; stroke-linejoin: miter; stroke-linecap: square"/>
   </g>
   <g id="legend_1">
    <g id="line2d_21">
     <path d="M 182.58 53.579375 
L 191.58 53.579375 
L 200.58 53.579375 
" style="fill: none; stroke: #000000; stroke-linecap: round"/>
    </g>
    <g id="text_5">
     <!-- Experiment -->
     <g style="fill: #262626" transform="translate(207.78 56.729375) scale(0.09 -0.09)">
      <defs>
       <path id="DejaVuSerif-45" d="M 353 0 
L 353 331 
L 947 331 
L 947 4331 
L 353 4331 
L 353 4666 
L 4109 4666 
L 4109 3628 
L 3725 3628 
L 3725 4281 
L 1581 4281 
L 1581 2719 
L 3109 2719 
L 3109 3303 
L 3494 3303 
L 3494 1753 
L 3109 1753 
L 3109 2338 
L 1581 2338 
L 1581 384 
L 3775 384 
L 3775 1038 
L 4159 1038 
L 4159 0 
L 353 0 
z
" transform="scale(0.015625)"/>
       <path id="DejaVuSerif-78" d="M 1863 2028 
L 2559 2988 
L 2113 2988 
L 2113 3322 
L 3391 3322 
L 3391 2988 
L 2950 2988 
L 2059 1759 
L 3097 331 
L 3531 331 
L 3531 0 
L 1997 0 
L 1997 331 
L 2419 331 
L 1697 1325 
L 972 331 
L 1403 331 
L 1403 0 
L 141 0 
L 141 331 
L 581 331 
L 1497 1594 
L 488 2988 
L 78 2988 
L 78 3322 
L 1563 3322 
L 1563 2988 
L 1166 2988 
L 1863 2028 
z
" transform="scale(0.015625)"/>
       <path id="DejaVuSerif-70" d="M 1313 1825 
L 1313 1497 
Q 1313 897 1542 583 
Q 1772 269 2209 269 
Q 2650 269 2876 622 
Q 3103 975 3103 1663 
Q 3103 2353 2876 2703 
Q 2650 3053 2209 3053 
Q 1772 3053 1542 2737 
Q 1313 2422 1313 1825 
z
M 738 2988 
L 184 2988 
L 184 3322 
L 1313 3322 
L 1313 2803 
Q 1481 3116 1742 3264 
Q 2003 3413 2388 3413 
Q 3000 3413 3387 2928 
Q 3775 2444 3775 1663 
Q 3775 881 3387 395 
Q 3000 -91 2388 -91 
Q 2003 -91 1742 57 
Q 1481 206 1313 519 
L 1313 -997 
L 1856 -997 
L 1856 -1331 
L 184 -1331 
L 184 -997 
L 738 -997 
L 738 2988 
z
" transform="scale(0.015625)"/>
       <path id="DejaVuSerif-65" d="M 3469 1600 
L 991 1600 
L 991 1575 
Q 991 903 1244 561 
Q 1497 219 1991 219 
Q 2369 219 2611 417 
Q 2853 616 2950 1006 
L 3413 1006 
Q 3275 459 2904 184 
Q 2534 -91 1931 -91 
Q 1203 -91 761 389 
Q 319 869 319 1663 
Q 319 2450 753 2931 
Q 1188 3413 1894 3413 
Q 2647 3413 3050 2948 
Q 3453 2484 3469 1600 
z
M 2791 1931 
Q 2772 2513 2545 2808 
Q 2319 3103 1894 3103 
Q 1497 3103 1269 2806 
Q 1041 2509 991 1931 
L 2791 1931 
z
" transform="scale(0.015625)"/>
       <path id="DejaVuSerif-72" d="M 3059 3328 
L 3059 2497 
L 2728 2497 
Q 2713 2744 2591 2866 
Q 2469 2988 2234 2988 
Q 1809 2988 1582 2694 
Q 1356 2400 1356 1850 
L 1356 331 
L 2022 331 
L 2022 0 
L 263 0 
L 263 331 
L 781 331 
L 781 2994 
L 231 2994 
L 231 3322 
L 1356 3322 
L 1356 2731 
Q 1525 3078 1790 3245 
Q 2056 3413 2438 3413 
Q 2578 3413 2733 3391 
Q 2888 3369 3059 3328 
z
" transform="scale(0.015625)"/>
       <path id="DejaVuSerif-69" d="M 622 4353 
Q 622 4497 726 4603 
Q 831 4709 978 4709 
Q 1122 4709 1226 4603 
Q 1331 4497 1331 4353 
Q 1331 4206 1228 4103 
Q 1125 4000 978 4000 
Q 831 4000 726 4103 
Q 622 4206 622 4353 
z
M 1356 331 
L 1900 331 
L 1900 0 
L 231 0 
L 231 331 
L 781 331 
L 781 2988 
L 231 2988 
L 231 3322 
L 1356 3322 
L 1356 331 
z
" transform="scale(0.015625)"/>
       <path id="DejaVuSerif-6d" d="M 3316 2675 
Q 3481 3041 3739 3227 
Q 3997 3413 4341 3413 
Q 4863 3413 5119 3089 
Q 5375 2766 5375 2113 
L 5375 331 
L 5894 331 
L 5894 0 
L 4300 0 
L 4300 331 
L 4800 331 
L 4800 2047 
Q 4800 2556 4650 2772 
Q 4500 2988 4153 2988 
Q 3769 2988 3567 2697 
Q 3366 2406 3366 1850 
L 3366 331 
L 3866 331 
L 3866 0 
L 2291 0 
L 2291 331 
L 2791 331 
L 2791 2069 
Q 2791 2566 2641 2777 
Q 2491 2988 2144 2988 
Q 1759 2988 1557 2697 
Q 1356 2406 1356 1850 
L 1356 331 
L 1856 331 
L 1856 0 
L 263 0 
L 263 331 
L 781 331 
L 781 2994 
L 231 2994 
L 231 3322 
L 1356 3322 
L 1356 2731 
Q 1516 3063 1762 3238 
Q 2009 3413 2322 3413 
Q 2709 3413 2968 3220 
Q 3228 3028 3316 2675 
z
" transform="scale(0.015625)"/>
       <path id="DejaVuSerif-6e" d="M 263 0 
L 263 331 
L 781 331 
L 781 2988 
L 231 2988 
L 231 3322 
L 1356 3322 
L 1356 2731 
Q 1516 3069 1770 3241 
Q 2025 3413 2363 3413 
Q 2913 3413 3172 3097 
Q 3431 2781 3431 2113 
L 3431 331 
L 3944 331 
L 3944 0 
L 2356 0 
L 2356 331 
L 2853 331 
L 2853 1931 
Q 2853 2541 2703 2767 
Q 2553 2994 2175 2994 
Q 1775 2994 1565 2701 
Q 1356 2409 1356 1850 
L 1356 331 
L 1856 331 
L 1856 0 
L 263 0 
z
" transform="scale(0.015625)"/>
       <path id="DejaVuSerif-74" d="M 691 2988 
L 184 2988 
L 184 3322 
L 691 3322 
L 691 4353 
L 1269 4353 
L 1269 3322 
L 2350 3322 
L 2350 2988 
L 1269 2988 
L 1269 878 
Q 1269 456 1350 337 
Q 1431 219 1650 219 
Q 1875 219 1978 351 
Q 2081 484 2088 781 
L 2522 781 
Q 2497 328 2275 118 
Q 2053 -91 1600 -91 
Q 1103 -91 897 129 
Q 691 350 691 878 
L 691 2988 
z
" transform="scale(0.015625)"/>
      </defs>
      <use xlink:href="#DejaVuSerif-45"/>
      <use xlink:href="#DejaVuSerif-78" x="72.998047"/>
      <use xlink:href="#DejaVuSerif-70" x="129.394531"/>
      <use xlink:href="#DejaVuSerif-65" x="193.408203"/>
      <use xlink:href="#DejaVuSerif-72" x="252.587891"/>
      <use xlink:href="#DejaVuSerif-69" x="300.390625"/>
      <use xlink:href="#DejaVuSerif-6d" x="332.373047"/>
      <use xlink:href="#DejaVuSerif-65" x="427.197266"/>
      <use xlink:href="#DejaVuSerif-6e" x="486.376953"/>
      <use xlink:href="#DejaVuSerif-74" x="550.78125"/>
     </g>
    </g>
    <g id="line2d_22">
     <path d="M 182.58 66.789688 
L 191.58 66.789688 
L 200.58 66.789688 
" style="fill: none; stroke: #0000ff; stroke-linecap: round"/>
    </g>
    <g id="text_6">
     <!-- Reference model -->
     <g style="fill: #262626" transform="translate(207.78 69.939688) scale(0.09 -0.09)">
      <defs>
       <path id="DejaVuSerif-52" d="M 3066 2316 
Q 3284 2256 3442 2114 
Q 3600 1972 3725 1716 
L 4403 331 
L 4972 331 
L 4972 0 
L 3872 0 
L 3144 1484 
Q 2934 1916 2759 2042 
Q 2584 2169 2278 2169 
L 1581 2169 
L 1581 331 
L 2241 331 
L 2241 0 
L 353 0 
L 353 331 
L 947 331 
L 947 4331 
L 353 4331 
L 353 4666 
L 2719 4666 
Q 3400 4666 3770 4341 
Q 4141 4016 4141 3419 
Q 4141 2938 3870 2661 
Q 3600 2384 3066 2316 
z
M 1581 2503 
L 2503 2503 
Q 2975 2503 3200 2726 
Q 3425 2950 3425 3419 
Q 3425 3888 3200 4109 
Q 2975 4331 2503 4331 
L 1581 4331 
L 1581 2503 
z
" transform="scale(0.015625)"/>
       <path id="DejaVuSerif-66" d="M 2753 4078 
L 2450 4078 
Q 2447 4313 2317 4434 
Q 2188 4556 1941 4556 
Q 1619 4556 1487 4379 
Q 1356 4203 1356 3750 
L 1356 3322 
L 2284 3322 
L 2284 2988 
L 1356 2988 
L 1356 331 
L 2094 331 
L 2094 0 
L 231 0 
L 231 331 
L 781 331 
L 781 2988 
L 231 2988 
L 231 3322 
L 781 3322 
L 781 3738 
Q 781 4294 1070 4578 
Q 1359 4863 1919 4863 
Q 2128 4863 2337 4825 
Q 2547 4788 2753 4709 
L 2753 4078 
z
" transform="scale(0.015625)"/>
       <path id="DejaVuSerif-63" d="M 3291 997 
Q 3169 466 2822 187 
Q 2475 -91 1925 -91 
Q 1200 -91 759 389 
Q 319 869 319 1663 
Q 319 2459 759 2936 
Q 1200 3413 1925 3413 
Q 2241 3413 2553 3339 
Q 2866 3266 3181 3116 
L 3181 2266 
L 2847 2266 
Q 2781 2703 2561 2903 
Q 2341 3103 1931 3103 
Q 1466 3103 1228 2742 
Q 991 2381 991 1663 
Q 991 944 1227 581 
Q 1463 219 1931 219 
Q 2303 219 2525 412 
Q 2747 606 2828 997 
L 3291 997 
z
" transform="scale(0.015625)"/>
       <path id="DejaVuSerif-6f" d="M 1925 219 
Q 2388 219 2623 584 
Q 2859 950 2859 1663 
Q 2859 2375 2623 2739 
Q 2388 3103 1925 3103 
Q 1463 3103 1227 2739 
Q 991 2375 991 1663 
Q 991 950 1228 584 
Q 1466 219 1925 219 
z
M 1925 -91 
Q 1200 -91 759 389 
Q 319 869 319 1663 
Q 319 2456 758 2934 
Q 1197 3413 1925 3413 
Q 2653 3413 3092 2934 
Q 3531 2456 3531 1663 
Q 3531 869 3092 389 
Q 2653 -91 1925 -91 
z
" transform="scale(0.015625)"/>
       <path id="DejaVuSerif-64" d="M 3359 331 
L 3909 331 
L 3909 0 
L 2784 0 
L 2784 519 
Q 2616 206 2355 57 
Q 2094 -91 1709 -91 
Q 1097 -91 708 395 
Q 319 881 319 1663 
Q 319 2444 706 2928 
Q 1094 3413 1709 3413 
Q 2094 3413 2355 3264 
Q 2616 3116 2784 2803 
L 2784 4531 
L 2241 4531 
L 2241 4863 
L 3359 4863 
L 3359 331 
z
M 2784 1497 
L 2784 1825 
Q 2784 2422 2554 2737 
Q 2325 3053 1888 3053 
Q 1444 3053 1217 2703 
Q 991 2353 991 1663 
Q 991 975 1217 622 
Q 1444 269 1888 269 
Q 2325 269 2554 583 
Q 2784 897 2784 1497 
z
" transform="scale(0.015625)"/>
       <path id="DejaVuSerif-6c" d="M 1313 331 
L 1856 331 
L 1856 0 
L 184 0 
L 184 331 
L 738 331 
L 738 4531 
L 184 4531 
L 184 4863 
L 1313 4863 
L 1313 331 
z
" transform="scale(0.015625)"/>
      </defs>
      <use xlink:href="#DejaVuSerif-52"/>
      <use xlink:href="#DejaVuSerif-65" x="75.292969"/>
      <use xlink:href="#DejaVuSerif-66" x="134.472656"/>
      <use xlink:href="#DejaVuSerif-65" x="171.484375"/>
      <use xlink:href="#DejaVuSerif-72" x="230.664062"/>
      <use xlink:href="#DejaVuSerif-65" x="278.466797"/>
      <use xlink:href="#DejaVuSerif-6e" x="337.646484"/>
      <use xlink:href="#DejaVuSerif-63" x="402.050781"/>
      <use xlink:href="#DejaVuSerif-65" x="458.056641"/>
      <use xlink:href="#DejaVuSerif-20" x="517.236328"/>
      <use xlink:href="#DejaVuSerif-6d" x="549.023438"/>
      <use xlink:href="#DejaVuSerif-6f" x="643.847656"/>
      <use xlink:href="#DejaVuSerif-64" x="704.052734"/>
      <use xlink:href="#DejaVuSerif-65" x="768.066406"/>
      <use xlink:href="#DejaVuSerif-6c" x="827.246094"/>
     </g>
    </g>
    <g id="line2d_23">
     <path d="M 182.58 80 
L 191.58 80 
L 200.58 80 
" style="fill: none; stroke: #008000; stroke-linecap: round"/>
    </g>
    <g id="text_7">
     <!-- Physics informed ID -->
     <g style="fill: #262626" transform="translate(207.78 83.15) scale(0.09 -0.09)">
      <defs>
       <path id="DejaVuSerif-50" d="M 1581 2375 
L 2406 2375 
Q 2872 2375 3115 2626 
Q 3359 2878 3359 3353 
Q 3359 3831 3115 4081 
Q 2872 4331 2406 4331 
L 1581 4331 
L 1581 2375 
z
M 353 0 
L 353 331 
L 947 331 
L 947 4331 
L 353 4331 
L 353 4666 
L 2559 4666 
Q 3259 4666 3668 4311 
Q 4078 3956 4078 3353 
Q 4078 2753 3668 2397 
Q 3259 2041 2559 2041 
L 1581 2041 
L 1581 331 
L 2303 331 
L 2303 0 
L 353 0 
z
" transform="scale(0.015625)"/>
       <path id="DejaVuSerif-68" d="M 263 0 
L 263 331 
L 781 331 
L 781 4531 
L 231 4531 
L 231 4863 
L 1356 4863 
L 1356 2731 
Q 1516 3069 1770 3241 
Q 2025 3413 2363 3413 
Q 2913 3413 3172 3097 
Q 3431 2781 3431 2113 
L 3431 331 
L 3944 331 
L 3944 0 
L 2356 0 
L 2356 331 
L 2853 331 
L 2853 1931 
Q 2853 2541 2704 2764 
Q 2556 2988 2175 2988 
Q 1775 2988 1565 2697 
Q 1356 2406 1356 1850 
L 1356 331 
L 1856 331 
L 1856 0 
L 263 0 
z
" transform="scale(0.015625)"/>
       <path id="DejaVuSerif-79" d="M 1381 -609 
L 1600 -56 
L 359 2988 
L -19 2988 
L -19 3322 
L 1509 3322 
L 1509 2988 
L 978 2988 
L 1913 703 
L 2847 2988 
L 2350 2988 
L 2350 3322 
L 3597 3322 
L 3597 2988 
L 3225 2988 
L 1703 -750 
Q 1547 -1138 1356 -1280 
Q 1166 -1422 819 -1422 
Q 672 -1422 517 -1397 
Q 363 -1372 206 -1325 
L 206 -691 
L 500 -691 
Q 519 -903 608 -995 
Q 697 -1088 884 -1088 
Q 1056 -1088 1161 -992 
Q 1266 -897 1381 -609 
z
" transform="scale(0.015625)"/>
       <path id="DejaVuSerif-73" d="M 359 184 
L 359 959 
L 691 959 
Q 703 588 923 403 
Q 1144 219 1575 219 
Q 1963 219 2166 364 
Q 2369 509 2369 788 
Q 2369 1006 2220 1140 
Q 2072 1275 1594 1428 
L 1178 1569 
Q 750 1706 558 1912 
Q 366 2119 366 2438 
Q 366 2894 700 3153 
Q 1034 3413 1625 3413 
Q 1888 3413 2178 3344 
Q 2469 3275 2778 3144 
L 2778 2419 
L 2447 2419 
Q 2434 2741 2221 2922 
Q 2009 3103 1644 3103 
Q 1281 3103 1095 2975 
Q 909 2847 909 2591 
Q 909 2381 1050 2254 
Q 1191 2128 1613 1997 
L 2069 1856 
Q 2541 1709 2748 1489 
Q 2956 1269 2956 922 
Q 2956 450 2595 179 
Q 2234 -91 1600 -91 
Q 1278 -91 972 -22 
Q 666 47 359 184 
z
" transform="scale(0.015625)"/>
       <path id="DejaVuSerif-49" d="M 1581 331 
L 2175 331 
L 2175 0 
L 353 0 
L 353 331 
L 947 331 
L 947 4331 
L 353 4331 
L 353 4666 
L 2175 4666 
L 2175 4331 
L 1581 4331 
L 1581 331 
z
" transform="scale(0.015625)"/>
       <path id="DejaVuSerif-44" d="M 1581 331 
L 2163 331 
Q 3072 331 3558 850 
Q 4044 1369 4044 2338 
Q 4044 3306 3559 3818 
Q 3075 4331 2163 4331 
L 1581 4331 
L 1581 331 
z
M 353 0 
L 353 331 
L 947 331 
L 947 4331 
L 353 4331 
L 353 4666 
L 2209 4666 
Q 3416 4666 4089 4050 
Q 4763 3434 4763 2338 
Q 4763 1238 4088 619 
Q 3413 0 2209 0 
L 353 0 
z
" transform="scale(0.015625)"/>
      </defs>
      <use xlink:href="#DejaVuSerif-50"/>
      <use xlink:href="#DejaVuSerif-68" x="67.285156"/>
      <use xlink:href="#DejaVuSerif-79" x="131.689453"/>
      <use xlink:href="#DejaVuSerif-73" x="188.183594"/>
      <use xlink:href="#DejaVuSerif-69" x="239.501953"/>
      <use xlink:href="#DejaVuSerif-63" x="271.484375"/>
      <use xlink:href="#DejaVuSerif-73" x="327.490234"/>
      <use xlink:href="#DejaVuSerif-20" x="378.808594"/>
      <use xlink:href="#DejaVuSerif-69" x="410.595703"/>
      <use xlink:href="#DejaVuSerif-6e" x="442.578125"/>
      <use xlink:href="#DejaVuSerif-66" x="506.982422"/>
      <use xlink:href="#DejaVuSerif-6f" x="543.994141"/>
      <use xlink:href="#DejaVuSerif-72" x="604.199219"/>
      <use xlink:href="#DejaVuSerif-6d" x="652.001953"/>
      <use xlink:href="#DejaVuSerif-65" x="746.826172"/>
      <use xlink:href="#DejaVuSerif-64" x="806.005859"/>
      <use xlink:href="#DejaVuSerif-20" x="870.019531"/>
      <use xlink:href="#DejaVuSerif-49" x="901.806641"/>
      <use xlink:href="#DejaVuSerif-44" x="941.308594"/>
     </g>
    </g>
    <g id="line2d_24">
     <path d="M 182.58 93.338281 
L 191.58 93.338281 
L 200.58 93.338281 
" style="fill: none; stroke: #ff0000; stroke-linecap: round"/>
    </g>
    <g id="text_8">
     <!-- Abkowitz ID -->
     <g style="fill: #262626" transform="translate(207.78 96.488281) scale(0.09 -0.09)">
      <defs>
       <path id="DejaVuSerif-41" d="M 1281 1691 
L 2994 1691 
L 2138 3909 
L 1281 1691 
z
M -38 0 
L -38 331 
L 372 331 
L 2034 4666 
L 2559 4666 
L 4225 331 
L 4684 331 
L 4684 0 
L 2988 0 
L 2988 331 
L 3506 331 
L 3116 1356 
L 1153 1356 
L 763 331 
L 1275 331 
L 1275 0 
L -38 0 
z
" transform="scale(0.015625)"/>
       <path id="DejaVuSerif-62" d="M 738 331 
L 738 4531 
L 184 4531 
L 184 4863 
L 1313 4863 
L 1313 2803 
Q 1481 3116 1742 3264 
Q 2003 3413 2388 3413 
Q 3000 3413 3387 2928 
Q 3775 2444 3775 1663 
Q 3775 881 3387 395 
Q 3000 -91 2388 -91 
Q 2003 -91 1742 57 
Q 1481 206 1313 519 
L 1313 0 
L 184 0 
L 184 331 
L 738 331 
z
M 1313 1497 
Q 1313 897 1542 583 
Q 1772 269 2209 269 
Q 2650 269 2876 622 
Q 3103 975 3103 1663 
Q 3103 2353 2876 2703 
Q 2650 3053 2209 3053 
Q 1772 3053 1542 2737 
Q 1313 2422 1313 1825 
L 1313 1497 
z
" transform="scale(0.015625)"/>
       <path id="DejaVuSerif-6b" d="M 1831 0 
L 219 0 
L 219 331 
L 738 331 
L 738 4531 
L 184 4531 
L 184 4863 
L 1313 4863 
L 1313 1697 
L 2713 2988 
L 2234 2988 
L 2234 3322 
L 3738 3322 
L 3738 2988 
L 3169 2988 
L 2181 2075 
L 3444 331 
L 3922 331 
L 3922 0 
L 2284 0 
L 2284 331 
L 2759 331 
L 1766 1697 
L 1313 1275 
L 1313 331 
L 1831 331 
L 1831 0 
z
" transform="scale(0.015625)"/>
       <path id="DejaVuSerif-77" d="M 3072 3322 
L 3922 728 
L 4672 2988 
L 4191 2988 
L 4191 3322 
L 5394 3322 
L 5394 2988 
L 5025 2988 
L 4038 0 
L 3559 0 
L 2741 2484 
L 1919 0 
L 1459 0 
L 475 2988 
L 103 2988 
L 103 3322 
L 1606 3322 
L 1606 2988 
L 1069 2988 
L 1813 728 
L 2669 3322 
L 3072 3322 
z
" transform="scale(0.015625)"/>
       <path id="DejaVuSerif-7a" d="M 256 0 
L 256 269 
L 2338 2988 
L 691 2988 
L 691 2413 
L 359 2413 
L 359 3322 
L 3078 3322 
L 3078 3053 
L 997 331 
L 2803 331 
L 2803 934 
L 3138 934 
L 3138 0 
L 256 0 
z
" transform="scale(0.015625)"/>
      </defs>
      <use xlink:href="#DejaVuSerif-41"/>
      <use xlink:href="#DejaVuSerif-62" x="72.216797"/>
      <use xlink:href="#DejaVuSerif-6b" x="136.230469"/>
      <use xlink:href="#DejaVuSerif-6f" x="196.826172"/>
      <use xlink:href="#DejaVuSerif-77" x="257.03125"/>
      <use xlink:href="#DejaVuSerif-69" x="342.626953"/>
      <use xlink:href="#DejaVuSerif-74" x="374.609375"/>
      <use xlink:href="#DejaVuSerif-7a" x="414.794922"/>
      <use xlink:href="#DejaVuSerif-20" x="467.480469"/>
      <use xlink:href="#DejaVuSerif-49" x="499.267578"/>
      <use xlink:href="#DejaVuSerif-44" x="538.769531"/>
     </g>
    </g>
   </g>
  </g>
  <g id="axes_2">
   <g id="patch_5">
    <path d="M 50.991094 205.72 
L 431.301094 205.72 
L 431.301094 106.46 
L 50.991094 106.46 
z
" style="fill: #ffffff"/>
   </g>
   <g id="line2d_25">
    <path d="M 68.277912 156.814424 
L 72.29404 156.864903 
L 75.162703 157.111205 
L 77.867442 157.561853 
L 80.244334 158.156057 
L 82.703188 159.020416 
L 85.571851 160.258299 
L 88.850323 161.949992 
L 93.686069 164.774809 
L 98.521815 168.038967 
L 105.242682 172.876503 
L 112.86513 178.867655 
L 133.601464 195.475554 
L 136.306204 197.20583 
L 138.928981 198.614017 
L 141.63372 199.723799 
L 143.764727 200.375598 
L 145.813772 200.77215 
L 147.944779 200.944448 
L 149.993824 200.882292 
L 152.616601 200.568235 
L 155.403302 199.960065 
L 158.517851 199.034536 
L 162.12417 197.708598 
L 167.123839 195.551732 
L 172.123509 193.018476 
L 178.024758 189.758851 
L 184.827587 185.580392 
L 194.417118 179.445602 
L 203.350954 173.430828 
L 227.857531 155.748272 
L 233.26701 151.668701 
L 271.543169 123.160067 
L 274.493794 121.148182 
L 279.247578 118.223381 
L 282.034279 116.857321 
L 284.493133 115.901631 
L 286.62414 115.304072 
L 289.001032 114.855332 
L 291.214 114.653334 
L 293.181083 114.677248 
L 295.885823 114.94945 
L 299.328218 115.59158 
L 302.032957 116.335119 
L 306.458894 117.820749 
L 311.868373 119.957821 
L 314.90096 121.36349 
L 320.556324 124.225121 
L 327.031305 127.746942 
L 340.964811 135.939282 
L 349.980609 141.547857 
L 363.996076 150.842633 
L 380.880206 162.603741 
L 413.992772 186.035566 
L 413.992772 186.035566 
" clip-path="url(#pa85d910a1b)" style="fill: none; stroke: #000000; stroke-linecap: round"/>
   </g>
   <g id="line2d_26">
    <path d="M 68.277912 157.069337 
L 70.081071 162.497091 
L 73.277582 171.890988 
L 75.244665 177.700638 
L 76.801939 182.28213 
L 77.457633 183.990515 
L 78.605098 187.324181 
L 79.260793 189.318671 
L 79.506678 189.379571 
L 83.68673 189.359906 
L 126.224903 189.361174 
L 126.388826 188.964053 
L 127.04452 186.936575 
L 129.995145 178.25699 
L 132.863808 169.813394 
L 145.567887 132.613994 
L 147.043199 128.250729 
L 147.371046 127.280763 
L 148.354588 124.428591 
L 149.256168 124.51106 
L 156.550767 124.513598 
L 163.763406 124.512329 
L 270.149818 124.51106 
L 270.313742 124.93102 
L 270.641589 125.911137 
L 285.066865 168.205241 
L 285.148827 168.205241 
L 288.755146 178.848232 
L 289.492802 181.001317 
L 290.476344 183.944839 
L 290.804191 184.892603 
L 291.459886 186.739917 
L 292.525389 189.379571 
L 300.967454 189.359271 
L 413.992772 189.359271 
L 413.992772 189.359271 
" clip-path="url(#pa85d910a1b)" style="fill: none; stroke-dasharray: 5.55,2.4; stroke-dashoffset: 0; stroke: #808080; stroke-width: 1.5"/>
   </g>
   <g id="matplotlib.axis_3">
    <g id="xtick_6">
     <g id="line2d_27">
      <path d="M 68.277912 205.72 
L 68.277912 106.46 
" clip-path="url(#pa85d910a1b)" style="fill: none; stroke: #b0b0b0; stroke-width: 0.8; stroke-linecap: round"/>
     </g>
     <g id="line2d_28"/>
    </g>
    <g id="xtick_7">
     <g id="line2d_29">
      <path d="M 150.792557 205.72 
L 150.792557 106.46 
" clip-path="url(#pa85d910a1b)" style="fill: none; stroke: #b0b0b0; stroke-width: 0.8; stroke-linecap: round"/>
     </g>
     <g id="line2d_30"/>
    </g>
    <g id="xtick_8">
     <g id="line2d_31">
      <path d="M 233.307202 205.72 
L 233.307202 106.46 
" clip-path="url(#pa85d910a1b)" style="fill: none; stroke: #b0b0b0; stroke-width: 0.8; stroke-linecap: round"/>
     </g>
     <g id="line2d_32"/>
    </g>
    <g id="xtick_9">
     <g id="line2d_33">
      <path d="M 315.821848 205.72 
L 315.821848 106.46 
" clip-path="url(#pa85d910a1b)" style="fill: none; stroke: #b0b0b0; stroke-width: 0.8; stroke-linecap: round"/>
     </g>
     <g id="line2d_34"/>
    </g>
    <g id="xtick_10">
     <g id="line2d_35">
      <path d="M 398.336493 205.72 
L 398.336493 106.46 
" clip-path="url(#pa85d910a1b)" style="fill: none; stroke: #b0b0b0; stroke-width: 0.8; stroke-linecap: round"/>
     </g>
     <g id="line2d_36"/>
    </g>
   </g>
   <g id="matplotlib.axis_4">
    <g id="ytick_4">
     <g id="line2d_37">
      <path d="M 50.991094 189.360005 
L 431.301094 189.360005 
" clip-path="url(#pa85d910a1b)" style="fill: none; stroke: #b0b0b0; stroke-width: 0.8; stroke-linecap: round"/>
     </g>
     <g id="line2d_38"/>
     <g id="text_9">
      <!-- −20 -->
      <g style="fill: #262626" transform="translate(28.496875 192.779302) scale(0.09 -0.09)">
       <defs>
        <path id="DejaVuSerif-32" d="M 819 3553 
L 469 3553 
L 469 4384 
Q 803 4563 1142 4656 
Q 1481 4750 1806 4750 
Q 2534 4750 2956 4397 
Q 3378 4044 3378 3438 
Q 3378 2753 2422 1800 
Q 2347 1728 2309 1691 
L 1131 513 
L 3078 513 
L 3078 1088 
L 3444 1088 
L 3444 0 
L 434 0 
L 434 341 
L 1850 1753 
Q 2319 2222 2519 2614 
Q 2719 3006 2719 3438 
Q 2719 3909 2473 4175 
Q 2228 4441 1797 4441 
Q 1350 4441 1106 4219 
Q 863 3997 819 3553 
z
" transform="scale(0.015625)"/>
       </defs>
       <use xlink:href="#DejaVuSerif-2212"/>
       <use xlink:href="#DejaVuSerif-32" x="83.789062"/>
       <use xlink:href="#DejaVuSerif-30" x="147.412109"/>
      </g>
     </g>
    </g>
    <g id="ytick_5">
     <g id="line2d_39">
      <path d="M 50.991094 156.936117 
L 431.301094 156.936117 
" clip-path="url(#pa85d910a1b)" style="fill: none; stroke: #b0b0b0; stroke-width: 0.8; stroke-linecap: round"/>
     </g>
     <g id="line2d_40"/>
     <g id="text_10">
      <!-- 0 -->
      <g style="fill: #262626" transform="translate(41.764844 160.355414) scale(0.09 -0.09)">
       <use xlink:href="#DejaVuSerif-30"/>
      </g>
     </g>
    </g>
    <g id="ytick_6">
     <g id="line2d_41">
      <path d="M 50.991094 124.51223 
L 431.301094 124.51223 
" clip-path="url(#pa85d910a1b)" style="fill: none; stroke: #b0b0b0; stroke-width: 0.8; stroke-linecap: round"/>
     </g>
     <g id="line2d_42"/>
     <g id="text_11">
      <!-- 20 -->
      <g style="fill: #262626" transform="translate(36.038594 127.931527) scale(0.09 -0.09)">
       <use xlink:href="#DejaVuSerif-32"/>
       <use xlink:href="#DejaVuSerif-30" x="63.623047"/>
      </g>
     </g>
    </g>
    <g id="text_12">
     <!-- $\psi$ $[deg]$ -->
     <g style="fill: #262626" transform="translate(22.606875 172.515) rotate(-90) scale(0.09 -0.09)">
      <defs>
       <path id="DejaVuSans-Oblique-3c8" d="M 1591 -78 
Q 891 38 616 341 
Q 278 713 425 1472 
L 819 3500 
L 1400 3500 
L 1009 1494 
Q 900 922 1119 684 
Q 1313 478 1691 434 
L 2284 3500 
L 2856 3500 
L 2263 438 
Q 2681 481 2928 688 
Q 3247 950 3353 1497 
L 3741 3500 
L 4322 3500 
L 3928 1475 
Q 3775 688 3300 344 
Q 2872 34 2163 -75 
L 1919 -1331 
L 1347 -1331 
L 1591 -78 
z
" transform="scale(0.015625)"/>
      </defs>
      <use xlink:href="#DejaVuSans-Oblique-3c8" transform="translate(0 0.015625)"/>
      <use xlink:href="#DejaVuSerif-20" transform="translate(65.966797 0.015625)"/>
      <use xlink:href="#DejaVuSans-5b" transform="translate(97.753906 0.015625)"/>
      <use xlink:href="#DejaVuSans-Oblique-64" transform="translate(136.767578 0.015625)"/>
      <use xlink:href="#DejaVuSans-Oblique-65" transform="translate(200.244141 0.015625)"/>
      <use xlink:href="#DejaVuSans-Oblique-67" transform="translate(261.767578 0.015625)"/>
      <use xlink:href="#DejaVuSans-5d" transform="translate(325.244141 0.015625)"/>
     </g>
    </g>
   </g>
   <g id="line2d_43">
    <path d="M 68.277912 156.936117 
L 73.311305 157.044037 
L 76.199318 157.337454 
L 78.674757 157.808443 
L 81.150197 158.511022 
L 83.955695 159.550277 
L 87.173766 160.989221 
L 90.886925 162.90341 
L 95.177686 165.374768 
L 100.293594 168.586081 
L 106.317163 172.6386 
L 113.413423 177.690185 
L 121.664887 183.845306 
L 137.012611 195.404307 
L 139.735595 197.0112 
L 142.211034 198.21451 
L 144.521444 199.090983 
L 146.666825 199.674499 
L 148.729691 200.014773 
L 150.792557 200.131682 
L 153.020453 200.02425 
L 155.495892 199.671747 
L 158.218875 199.055801 
L 161.354432 198.110192 
L 164.820047 196.828821 
L 168.863265 195.089297 
L 173.484085 192.850067 
L 178.765022 190.034269 
L 184.623562 186.653667 
L 191.059704 182.676412 
L 198.403508 177.874247 
L 206.407428 172.369796 
L 214.906437 166.249859 
L 224.478135 159.078089 
L 234.957495 150.943384 
L 246.427031 141.754513 
L 260.61955 130.08033 
L 273.491835 119.516259 
L 276.462362 117.448811 
L 279.102831 115.880308 
L 281.495755 114.711758 
L 283.806165 113.830365 
L 286.034061 113.223046 
L 288.179442 112.872332 
L 290.324822 112.747922 
L 292.717747 112.837357 
L 295.358216 113.161373 
L 298.328743 113.752757 
L 301.711843 114.662072 
L 305.425002 115.896717 
L 309.550735 117.506677 
L 314.336584 119.62241 
L 319.700036 122.23998 
L 325.64109 125.393286 
L 331.912204 128.972691 
L 338.678404 133.095053 
L 346.682325 138.240327 
L 354.93379 143.804611 
L 363.432798 149.80967 
L 372.921982 156.788843 
L 383.483857 164.830833 
L 395.035907 173.914793 
L 407.825677 184.252896 
L 414.014276 189.334443 
L 414.014276 189.334443 
" clip-path="url(#pa85d910a1b)" style="fill: none; stroke: #0000ff; stroke-linecap: round"/>
   </g>
   <g id="line2d_44">
    <path d="M 68.277912 156.936117 
L 73.311305 157.043832 
L 76.199318 157.336151 
L 78.674757 157.803998 
L 81.150197 158.500663 
L 83.955695 159.529855 
L 87.173766 160.953412 
L 90.969439 162.883278 
L 95.42523 165.406087 
L 100.871197 168.755909 
L 107.554883 173.140412 
L 115.393774 178.551491 
L 125.130503 185.554042 
L 137.012611 194.102818 
L 139.818109 195.776972 
L 142.376063 197.052406 
L 144.768988 197.997753 
L 146.996884 198.636826 
L 149.142264 199.021404 
L 151.20513 199.169329 
L 153.267997 199.097188 
L 155.578407 198.787763 
L 158.136361 198.218159 
L 161.024373 197.344261 
L 164.324959 196.107666 
L 168.203147 194.40848 
L 172.658938 192.207686 
L 178.104905 189.253886 
L 184.210989 185.682687 
L 191.059704 181.409273 
L 199.393683 175.940983 
L 208.882867 169.446426 
L 219.114683 162.169966 
L 231.409366 153.137454 
L 245.106797 142.794302 
L 262.92996 129.026141 
L 274.564525 120.095428 
L 277.535052 118.147327 
L 280.175521 116.673965 
L 282.568446 115.583735 
L 284.878856 114.774392 
L 287.106751 114.234396 
L 289.252132 113.948411 
L 291.397513 113.8933 
L 293.707923 114.06216 
L 296.265877 114.473173 
L 299.153889 115.164248 
L 302.454475 116.1908 
L 306.167634 117.58883 
L 310.375881 119.416665 
L 315.32676 121.81699 
L 321.02027 124.832234 
L 327.538927 128.546902 
L 334.552672 132.802603 
L 342.969166 138.189384 
L 352.540865 144.579994 
L 362.525137 151.51758 
L 373.664614 159.528732 
L 389.424911 171.196771 
L 403.61743 181.975745 
L 413.106614 189.298103 
L 413.106614 189.298103 
" clip-path="url(#pa85d910a1b)" style="fill: none; stroke: #008000; stroke-linecap: round"/>
   </g>
   <g id="line2d_45">
    <path d="M 68.277912 156.936117 
L 73.228791 157.045803 
L 76.116803 157.340601 
L 78.757272 157.836686 
L 81.315226 158.546301 
L 84.120724 159.557741 
L 87.25628 160.926198 
L 90.80441 162.719286 
L 94.847628 165.018402 
L 99.385933 167.859573 
L 104.584356 171.380572 
L 110.52541 175.679417 
L 117.209097 180.794355 
L 124.717929 186.826512 
L 135.527348 195.56682 
L 138.332846 197.446529 
L 140.72577 198.784474 
L 142.953666 199.780975 
L 145.099047 200.500232 
L 147.161913 200.95972 
L 149.142264 201.178502 
L 151.20513 201.184117 
L 153.433026 200.963746 
L 155.99098 200.472569 
L 158.796478 199.70021 
L 162.014549 198.575076 
L 165.645193 197.060405 
L 169.688411 195.127411 
L 174.226716 192.706196 
L 179.26011 189.763329 
L 184.788591 186.269941 
L 190.81216 182.198679 
L 197.330817 177.521046 
L 204.427077 172.153864 
L 212.183453 166.005659 
L 220.682462 158.980557 
L 230.089131 150.912431 
L 240.568491 141.62819 
L 252.285571 130.944015 
L 266.395575 118.055822 
L 269.201073 115.899298 
L 271.676512 114.272592 
L 273.904408 113.069709 
L 276.049789 112.163666 
L 278.112655 111.530734 
L 280.093006 111.147097 
L 282.155872 110.979024 
L 284.301253 111.029416 
L 286.776693 111.318707 
L 289.499676 111.865277 
L 292.635232 112.730001 
L 296.100847 113.920948 
L 299.979036 115.49021 
L 304.269797 117.466103 
L 309.055647 119.921231 
L 314.254069 122.844878 
L 319.865065 126.26257 
L 325.888634 130.196432 
L 332.407291 134.722887 
L 339.503551 139.924119 
L 347.094898 145.769186 
L 355.346363 152.408522 
L 364.422974 160.001898 
L 374.407246 168.649157 
L 385.876782 178.887996 
L 397.263803 189.306774 
L 397.263803 189.306774 
" clip-path="url(#pa85d910a1b)" style="fill: none; stroke: #ff0000; stroke-linecap: round"/>
   </g>
   <g id="patch_6">
    <path d="M 50.991094 205.72 
L 50.991094 106.46 
" style="fill: none; stroke: #000000; stroke-linejoin: miter; stroke-linecap: square"/>
   </g>
   <g id="patch_7">
    <path d="M 50.991094 205.72 
L 431.301094 205.72 
" style="fill: none; stroke: #000000; stroke-linejoin: miter; stroke-linecap: square"/>
   </g>
  </g>
  <g id="axes_3">
   <g id="patch_8">
    <path d="M 50.991094 304.98 
L 431.301094 304.98 
L 431.301094 205.72 
L 50.991094 205.72 
z
" style="fill: #ffffff"/>
   </g>
   <g id="line2d_46">
    <path d="M 68.277912 254.997785 
L 69.015568 255.106587 
L 69.99911 255.511591 
L 70.818728 256.108484 
L 72.376002 257.635825 
L 73.605429 259.113628 
L 75.080741 261.199036 
L 77.047824 264.319437 
L 77.949404 265.740976 
L 79.014907 267.466264 
L 80.654143 270.56754 
L 81.965532 272.970133 
L 83.276921 275.068555 
L 84.752233 277.159378 
L 89.096208 282.471969 
L 89.669941 282.923652 
L 90.98133 283.25646 
L 91.800948 283.969854 
L 92.620566 284.955131 
L 93.686069 286.244986 
L 95.407267 287.997769 
L 96.390808 288.579872 
L 98.439853 289.463751 
L 99.341433 289.903071 
L 99.751242 290.099354 
L 100.324975 290.408536 
L 101.47244 290.898356 
L 101.718325 290.967571 
L 102.37402 290.720526 
L 102.86579 290.562229 
L 103.439523 290.623131 
L 104.423064 291.336252 
L 105.324644 292.123618 
L 106.636033 292.978369 
L 107.373689 293.318771 
L 108.111345 293.624915 
L 109.750581 293.9836 
L 112.619244 294.505988 
L 113.520824 294.788092 
L 114.012595 294.650761 
L 114.504366 294.143253 
L 115.16006 293.549555 
L 115.487907 293.409105 
L 115.979678 293.463966 
L 116.635372 293.911025 
L 117.782837 294.931882 
L 118.766379 295.530621 
L 119.749921 295.647594 
L 123.274278 295.901073 
L 124.585667 296.169638 
L 125.897055 296.310814 
L 126.224903 296.237867 
L 126.55275 295.95459 
L 127.864138 294.841734 
L 129.913183 294.233512 
L 130.732801 293.575007 
L 131.880267 292.270399 
L 133.683426 289.492449 
L 138.519172 279.858423 
L 140.732141 274.469633 
L 142.781186 270.055544 
L 145.567887 262.885884 
L 149.665976 252.219502 
L 150.567556 250.424256 
L 154.747608 243.824969 
L 156.796653 241.10223 
L 159.501392 238.227688 
L 161.058666 236.82199 
L 163.107711 235.252627 
L 163.927329 235.107622 
L 164.664985 234.683842 
L 165.894412 233.548434 
L 167.041877 232.408741 
L 170.320349 230.489882 
L 170.730158 230.255117 
L 171.7137 229.58842 
L 172.369394 229.303483 
L 173.926668 228.566032 
L 174.91021 228.048432 
L 175.320019 227.971645 
L 176.71337 228.20988 
L 177.451026 227.842376 
L 180.729498 225.684964 
L 183.024428 225.142308 
L 184.581702 224.781139 
L 185.975053 224.433604 
L 187.450365 224.331431 
L 188.188021 224.794615 
L 188.761754 225.087587 
L 189.253525 225.11087 
L 189.909219 224.815175 
L 191.630417 223.582822 
L 192.368073 223.371262 
L 195.564583 222.85827 
L 196.875972 222.661501 
L 198.351284 222.253124 
L 199.252864 222.103252 
L 199.580711 222.157054 
L 200.974061 222.953561 
L 201.547794 222.941125 
L 202.28545 222.509727 
L 203.268992 221.771194 
L 204.08861 221.217421 
L 204.662342 221.027612 
L 206.629425 220.878722 
L 207.449043 220.897326 
L 209.252203 220.743311 
L 210.645554 220.57035 
L 211.465172 220.442402 
L 211.793019 220.509382 
L 212.284789 220.905961 
L 212.858522 221.380451 
L 213.268331 221.517902 
L 213.67814 221.482778 
L 214.333834 221.144835 
L 215.071491 220.555531 
L 215.727185 220.253164 
L 218.104077 219.841192 
L 221.136664 219.57919 
L 221.792358 219.563471 
L 222.939823 219.428411 
L 224.005326 219.275619 
L 224.415135 219.571126 
L 225.398677 220.417726 
L 225.808486 220.478387 
L 226.218295 220.374973 
L 227.037913 219.790431 
L 228.431264 218.711771 
L 229.414805 218.598577 
L 233.430933 218.958095 
L 234.004666 218.974839 
L 234.496437 218.928506 
L 235.398016 218.836546 
L 236.053711 218.840859 
L 236.381558 218.911464 
L 237.037252 219.545584 
L 237.610985 220.038288 
L 238.020794 220.180458 
L 238.430603 220.136537 
L 239.496106 219.587565 
L 240.479648 219.041526 
L 241.545151 218.707057 
L 242.610654 218.627936 
L 243.430272 218.570296 
L 244.905585 218.548127 
L 245.643241 218.593516 
L 246.462859 218.64388 
L 247.364439 218.611917 
L 248.184057 218.620791 
L 248.757789 218.812355 
L 249.413484 219.428757 
L 249.987216 219.871933 
L 250.560949 219.940041 
L 250.970758 219.796556 
L 252.200185 219.158738 
L 253.839421 218.558631 
L 259.166937 218.975036 
L 260.64225 219.052188 
L 260.970097 219.241767 
L 262.0356 220.139267 
L 262.527371 220.302011 
L 263.592875 220.122272 
L 265.969767 219.056478 
L 266.625461 219.112421 
L 267.93685 219.433145 
L 272.198863 220.146005 
L 272.936519 220.624794 
L 273.42829 221.414149 
L 274.739679 223.508256 
L 275.887144 224.405115 
L 276.952647 225.186129 
L 277.854227 226.299943 
L 279.165616 228.423783 
L 284.001362 237.663162 
L 285.886483 241.883994 
L 287.033948 244.488136 
L 291.623809 254.395403 
L 294.000701 259.752645 
L 295.885823 262.773844 
L 297.197211 264.817892 
L 297.688982 265.232996 
L 298.672524 265.90509 
L 299.574103 267.033811 
L 303.262384 271.505055 
L 304.163964 272.139382 
L 306.131047 273.354274 
L 307.524398 274.499576 
L 309.491481 275.718563 
L 309.90129 275.778622 
L 310.966793 275.722468 
L 311.458564 275.893282 
L 312.19622 276.397615 
L 315.720577 279.387686 
L 320.802209 281.448694 
L 322.441445 281.598724 
L 323.015177 281.52437 
L 323.58891 281.666294 
L 327.605038 283.800847 
L 328.178771 283.93243 
L 329.08035 284.048302 
L 330.555663 284.085054 
L 332.768631 284.383914 
L 333.670211 284.571719 
L 334.325905 284.518001 
L 335.637294 283.843955 
L 336.129065 283.939549 
L 338.505957 285.146833 
L 339.407537 285.418481 
L 341.210696 285.847859 
L 343.423665 285.989654 
L 346.210366 286.740198 
L 346.538213 286.615024 
L 347.685678 285.803552 
L 348.095487 285.792249 
L 349.160991 286.284242 
L 350.636303 287.14891 
L 351.455921 287.414141 
L 352.931233 287.648104 
L 355.226164 287.899791 
L 358.668559 288.328657 
L 359.16033 287.916212 
L 359.652101 287.539122 
L 360.225833 287.392621 
L 360.881528 287.588113 
L 363.422343 289.110011 
L 364.405885 289.2409 
L 364.897656 289.26098 
L 365.799236 289.370359 
L 366.946701 289.3382 
L 367.438471 289.33566 
L 368.012204 289.397774 
L 369.815364 289.343407 
L 370.880867 289.44816 
L 371.208714 289.253293 
L 372.274218 288.632442 
L 372.765988 288.727769 
L 373.585606 289.30518 
L 374.815033 290.176845 
L 375.306804 290.361338 
L 376.290346 290.392716 
L 379.404894 290.143725 
L 380.634321 290.157832 
L 381.863748 290.355424 
L 383.175137 290.206507 
L 384.404563 289.166476 
L 385.14222 289.07911 
L 386.207723 289.415608 
L 386.699494 289.757616 
L 387.355188 290.190257 
L 388.666577 290.579499 
L 389.158348 290.599755 
L 390.797584 290.296716 
L 391.617202 290.338097 
L 392.518781 290.421342 
L 394.403903 290.511131 
L 395.387444 290.361638 
L 396.862757 289.363377 
L 397.354527 289.354557 
L 398.010222 289.619544 
L 399.649458 290.548653 
L 400.469076 290.689127 
L 401.370655 290.620138 
L 402.436159 290.526934 
L 403.4197 290.633725 
L 404.239318 290.707705 
L 405.550707 290.63404 
L 407.353867 290.366055 
L 407.763676 290.064853 
L 408.41937 289.540852 
L 409.075064 289.302224 
L 409.730759 289.331251 
L 410.304491 289.565794 
L 412.51746 290.377858 
L 413.41904 290.648461 
L 413.992772 290.796468 
L 413.992772 290.796468 
" clip-path="url(#p8ffe0b6a4f)" style="fill: none; stroke: #000000; stroke-linecap: round"/>
   </g>
   <g id="matplotlib.axis_5">
    <g id="xtick_11">
     <g id="line2d_47">
      <path d="M 68.277912 304.98 
L 68.277912 205.72 
" clip-path="url(#p8ffe0b6a4f)" style="fill: none; stroke: #b0b0b0; stroke-width: 0.8; stroke-linecap: round"/>
     </g>
     <g id="line2d_48"/>
     <g id="text_13">
      <!-- 0 -->
      <g style="fill: #262626" transform="translate(65.414787 315.318594) scale(0.09 -0.09)">
       <use xlink:href="#DejaVuSerif-30"/>
      </g>
     </g>
    </g>
    <g id="xtick_12">
     <g id="line2d_49">
      <path d="M 150.792557 304.98 
L 150.792557 205.72 
" clip-path="url(#p8ffe0b6a4f)" style="fill: none; stroke: #b0b0b0; stroke-width: 0.8; stroke-linecap: round"/>
     </g>
     <g id="line2d_50"/>
     <g id="text_14">
      <!-- 10 -->
      <g style="fill: #262626" transform="translate(145.066307 315.318594) scale(0.09 -0.09)">
       <use xlink:href="#DejaVuSerif-31"/>
       <use xlink:href="#DejaVuSerif-30" x="63.623047"/>
      </g>
     </g>
    </g>
    <g id="xtick_13">
     <g id="line2d_51">
      <path d="M 233.307202 304.98 
L 233.307202 205.72 
" clip-path="url(#p8ffe0b6a4f)" style="fill: none; stroke: #b0b0b0; stroke-width: 0.8; stroke-linecap: round"/>
     </g>
     <g id="line2d_52"/>
     <g id="text_15">
      <!-- 20 -->
      <g style="fill: #262626" transform="translate(227.580952 315.318594) scale(0.09 -0.09)">
       <use xlink:href="#DejaVuSerif-32"/>
       <use xlink:href="#DejaVuSerif-30" x="63.623047"/>
      </g>
     </g>
    </g>
    <g id="xtick_14">
     <g id="line2d_53">
      <path d="M 315.821848 304.98 
L 315.821848 205.72 
" clip-path="url(#p8ffe0b6a4f)" style="fill: none; stroke: #b0b0b0; stroke-width: 0.8; stroke-linecap: round"/>
     </g>
     <g id="line2d_54"/>
     <g id="text_16">
      <!-- 30 -->
      <g style="fill: #262626" transform="translate(310.095598 315.318594) scale(0.09 -0.09)">
       <defs>
        <path id="DejaVuSerif-33" d="M 622 4469 
Q 988 4606 1323 4678 
Q 1659 4750 1953 4750 
Q 2638 4750 3022 4454 
Q 3406 4159 3406 3634 
Q 3406 3213 3140 2930 
Q 2875 2647 2388 2547 
Q 2963 2466 3280 2130 
Q 3597 1794 3597 1259 
Q 3597 606 3158 257 
Q 2719 -91 1894 -91 
Q 1528 -91 1179 -12 
Q 831 66 488 225 
L 488 1131 
L 838 1131 
Q 869 681 1141 450 
Q 1413 219 1906 219 
Q 2384 219 2661 495 
Q 2938 772 2938 1253 
Q 2938 1803 2653 2086 
Q 2369 2369 1819 2369 
L 1522 2369 
L 1522 2688 
L 1678 2688 
Q 2225 2688 2498 2914 
Q 2772 3141 2772 3597 
Q 2772 4006 2547 4223 
Q 2322 4441 1900 4441 
Q 1478 4441 1245 4241 
Q 1013 4041 972 3647 
L 622 3647 
L 622 4469 
z
" transform="scale(0.015625)"/>
       </defs>
       <use xlink:href="#DejaVuSerif-33"/>
       <use xlink:href="#DejaVuSerif-30" x="63.623047"/>
      </g>
     </g>
    </g>
    <g id="xtick_15">
     <g id="line2d_55">
      <path d="M 398.336493 304.98 
L 398.336493 205.72 
" clip-path="url(#p8ffe0b6a4f)" style="fill: none; stroke: #b0b0b0; stroke-width: 0.8; stroke-linecap: round"/>
     </g>
     <g id="line2d_56"/>
     <g id="text_17">
      <!-- 40 -->
      <g style="fill: #262626" transform="translate(392.610243 315.318594) scale(0.09 -0.09)">
       <defs>
        <path id="DejaVuSerif-34" d="M 2234 1581 
L 2234 4063 
L 641 1581 
L 2234 1581 
z
M 3609 0 
L 1484 0 
L 1484 331 
L 2234 331 
L 2234 1247 
L 197 1247 
L 197 1588 
L 2241 4750 
L 2859 4750 
L 2859 1581 
L 3750 1581 
L 3750 1247 
L 2859 1247 
L 2859 331 
L 3609 331 
L 3609 0 
z
" transform="scale(0.015625)"/>
       </defs>
       <use xlink:href="#DejaVuSerif-34"/>
       <use xlink:href="#DejaVuSerif-30" x="63.623047"/>
      </g>
     </g>
    </g>
    <g id="text_18">
     <!-- Time [s] -->
     <g style="fill: #262626" transform="translate(222.523828 328.028906) scale(0.09 -0.09)">
      <defs>
       <path id="DejaVuSerif-54" d="M 1222 0 
L 1222 331 
L 1819 331 
L 1819 4294 
L 447 4294 
L 447 3566 
L 63 3566 
L 63 4666 
L 4206 4666 
L 4206 3566 
L 3822 3566 
L 3822 4294 
L 2450 4294 
L 2450 331 
L 3047 331 
L 3047 0 
L 1222 0 
z
" transform="scale(0.015625)"/>
       <path id="DejaVuSerif-5b" d="M 550 4863 
L 2003 4863 
L 2003 4531 
L 1147 4531 
L 1147 -513 
L 2003 -513 
L 2003 -844 
L 550 -844 
L 550 4863 
z
" transform="scale(0.015625)"/>
       <path id="DejaVuSerif-5d" d="M 1947 4863 
L 1947 -844 
L 494 -844 
L 494 -513 
L 1350 -513 
L 1350 4531 
L 494 4531 
L 494 4863 
L 1947 4863 
z
" transform="scale(0.015625)"/>
      </defs>
      <use xlink:href="#DejaVuSerif-54"/>
      <use xlink:href="#DejaVuSerif-69" x="66.699219"/>
      <use xlink:href="#DejaVuSerif-6d" x="98.681641"/>
      <use xlink:href="#DejaVuSerif-65" x="193.505859"/>
      <use xlink:href="#DejaVuSerif-20" x="252.685547"/>
      <use xlink:href="#DejaVuSerif-5b" x="284.472656"/>
      <use xlink:href="#DejaVuSerif-73" x="323.486328"/>
      <use xlink:href="#DejaVuSerif-5d" x="374.804688"/>
     </g>
    </g>
   </g>
   <g id="matplotlib.axis_6">
    <g id="ytick_7">
     <g id="line2d_57">
      <path d="M 50.991094 282.92539 
L 431.301094 282.92539 
" clip-path="url(#p8ffe0b6a4f)" style="fill: none; stroke: #b0b0b0; stroke-width: 0.8; stroke-linecap: round"/>
     </g>
     <g id="line2d_58"/>
     <g id="text_19">
      <!-- −0.05 -->
      <g style="fill: #262626" transform="translate(19.910312 286.344687) scale(0.09 -0.09)">
       <defs>
        <path id="DejaVuSerif-2e" d="M 603 325 
Q 603 500 722 622 
Q 841 744 1019 744 
Q 1191 744 1312 622 
Q 1434 500 1434 325 
Q 1434 153 1312 31 
Q 1191 -91 1019 -91 
Q 841 -91 722 29 
Q 603 150 603 325 
z
" transform="scale(0.015625)"/>
        <path id="DejaVuSerif-35" d="M 3219 4666 
L 3219 4153 
L 1081 4153 
L 1081 2816 
Q 1244 2928 1461 2984 
Q 1678 3041 1947 3041 
Q 2703 3041 3140 2622 
Q 3578 2203 3578 1478 
Q 3578 738 3136 323 
Q 2694 -91 1894 -91 
Q 1572 -91 1234 -12 
Q 897 66 544 225 
L 544 1131 
L 897 1131 
Q 925 688 1179 453 
Q 1434 219 1894 219 
Q 2388 219 2653 544 
Q 2919 869 2919 1478 
Q 2919 2084 2655 2407 
Q 2391 2731 1894 2731 
Q 1613 2731 1398 2631 
Q 1184 2531 1019 2322 
L 750 2322 
L 750 4666 
L 3219 4666 
z
" transform="scale(0.015625)"/>
       </defs>
       <use xlink:href="#DejaVuSerif-2212"/>
       <use xlink:href="#DejaVuSerif-30" x="83.789062"/>
       <use xlink:href="#DejaVuSerif-2e" x="147.412109"/>
       <use xlink:href="#DejaVuSerif-30" x="179.199219"/>
       <use xlink:href="#DejaVuSerif-35" x="242.822266"/>
      </g>
     </g>
    </g>
    <g id="ytick_8">
     <g id="line2d_59">
      <path d="M 50.991094 255.601751 
L 431.301094 255.601751 
" clip-path="url(#p8ffe0b6a4f)" style="fill: none; stroke: #b0b0b0; stroke-width: 0.8; stroke-linecap: round"/>
     </g>
     <g id="line2d_60"/>
     <g id="text_20">
      <!-- 0.00 -->
      <g style="fill: #262626" transform="translate(27.452031 259.021048) scale(0.09 -0.09)">
       <use xlink:href="#DejaVuSerif-30"/>
       <use xlink:href="#DejaVuSerif-2e" x="63.623047"/>
       <use xlink:href="#DejaVuSerif-30" x="95.410156"/>
       <use xlink:href="#DejaVuSerif-30" x="159.033203"/>
      </g>
     </g>
    </g>
    <g id="ytick_9">
     <g id="line2d_61">
      <path d="M 50.991094 228.278113 
L 431.301094 228.278113 
" clip-path="url(#p8ffe0b6a4f)" style="fill: none; stroke: #b0b0b0; stroke-width: 0.8; stroke-linecap: round"/>
     </g>
     <g id="line2d_62"/>
     <g id="text_21">
      <!-- 0.05 -->
      <g style="fill: #262626" transform="translate(27.452031 231.69741) scale(0.09 -0.09)">
       <use xlink:href="#DejaVuSerif-30"/>
       <use xlink:href="#DejaVuSerif-2e" x="63.623047"/>
       <use xlink:href="#DejaVuSerif-30" x="95.410156"/>
       <use xlink:href="#DejaVuSerif-35" x="159.033203"/>
      </g>
     </g>
    </g>
    <g id="text_22">
     <!-- $r$ $[rad/s]$ -->
     <g style="fill: #262626" transform="translate(14.038594 273.485) rotate(-90) scale(0.09 -0.09)">
      <defs>
       <path id="DejaVuSans-Oblique-72" d="M 2853 2969 
Q 2766 3016 2653 3041 
Q 2541 3066 2413 3066 
Q 1953 3066 1609 2717 
Q 1266 2369 1153 1784 
L 800 0 
L 225 0 
L 909 3500 
L 1484 3500 
L 1375 2956 
Q 1603 3259 1920 3421 
Q 2238 3584 2597 3584 
Q 2691 3584 2781 3573 
Q 2872 3563 2963 3538 
L 2853 2969 
z
" transform="scale(0.015625)"/>
       <path id="DejaVuSans-Oblique-61" d="M 3438 1997 
L 3047 0 
L 2472 0 
L 2578 531 
Q 2325 219 2001 64 
Q 1678 -91 1281 -91 
Q 834 -91 548 182 
Q 263 456 263 884 
Q 263 1497 752 1853 
Q 1241 2209 2100 2209 
L 2900 2209 
L 2931 2363 
Q 2938 2388 2941 2417 
Q 2944 2447 2944 2509 
Q 2944 2788 2717 2942 
Q 2491 3097 2081 3097 
Q 1800 3097 1504 3025 
Q 1209 2953 897 2809 
L 997 3341 
Q 1322 3463 1633 3523 
Q 1944 3584 2234 3584 
Q 2853 3584 3176 3315 
Q 3500 3047 3500 2534 
Q 3500 2431 3484 2292 
Q 3469 2153 3438 1997 
z
M 2816 1759 
L 2241 1759 
Q 1534 1759 1195 1570 
Q 856 1381 856 984 
Q 856 709 1029 553 
Q 1203 397 1509 397 
Q 1978 397 2328 733 
Q 2678 1069 2791 1631 
L 2816 1759 
z
" transform="scale(0.015625)"/>
       <path id="DejaVuSans-2f" d="M 1625 4666 
L 2156 4666 
L 531 -594 
L 0 -594 
L 1625 4666 
z
" transform="scale(0.015625)"/>
       <path id="DejaVuSans-Oblique-73" d="M 3200 3397 
L 3091 2853 
Q 2863 2978 2609 3040 
Q 2356 3103 2088 3103 
Q 1634 3103 1373 2948 
Q 1113 2794 1113 2528 
Q 1113 2219 1719 2053 
Q 1766 2041 1788 2034 
L 1972 1978 
Q 2547 1819 2739 1644 
Q 2931 1469 2931 1166 
Q 2931 609 2489 259 
Q 2047 -91 1331 -91 
Q 1053 -91 747 -37 
Q 441 16 72 128 
L 184 722 
Q 500 559 806 475 
Q 1113 391 1394 391 
Q 1816 391 2080 572 
Q 2344 753 2344 1031 
Q 2344 1331 1650 1516 
L 1591 1531 
L 1394 1581 
Q 956 1697 753 1886 
Q 550 2075 550 2369 
Q 550 2928 970 3256 
Q 1391 3584 2113 3584 
Q 2397 3584 2667 3537 
Q 2938 3491 3200 3397 
z
" transform="scale(0.015625)"/>
      </defs>
      <use xlink:href="#DejaVuSans-Oblique-72" transform="translate(0 0.015625)"/>
      <use xlink:href="#DejaVuSerif-20" transform="translate(41.113281 0.015625)"/>
      <use xlink:href="#DejaVuSans-5b" transform="translate(72.900391 0.015625)"/>
      <use xlink:href="#DejaVuSans-Oblique-72" transform="translate(111.914062 0.015625)"/>
      <use xlink:href="#DejaVuSans-Oblique-61" transform="translate(153.027344 0.015625)"/>
      <use xlink:href="#DejaVuSans-Oblique-64" transform="translate(214.306641 0.015625)"/>
      <use xlink:href="#DejaVuSans-2f" transform="translate(277.783203 0.015625)"/>
      <use xlink:href="#DejaVuSans-Oblique-73" transform="translate(311.474609 0.015625)"/>
      <use xlink:href="#DejaVuSans-5d" transform="translate(363.574219 0.015625)"/>
     </g>
    </g>
   </g>
   <g id="line2d_63">
    <path d="M 68.277912 255.601751 
L 69.185573 255.710263 
L 70.175749 256.066996 
L 71.165925 256.65448 
L 72.32113 257.601921 
L 73.558849 258.922819 
L 74.961598 260.767097 
L 76.529376 263.225611 
L 78.509728 266.797021 
L 80.985167 271.250048 
L 82.717975 273.86141 
L 84.533297 276.173457 
L 86.431134 278.256729 
L 88.494 280.195335 
L 91.051954 282.25345 
L 93.692423 284.007518 
L 95.920318 285.227374 
L 99.468448 286.867956 
L 102.35646 287.962182 
L 106.729737 289.34294 
L 110.937984 290.440271 
L 116.053892 291.536588 
L 125.955649 293.235266 
L 129.421264 293.648828 
L 130.328925 293.486748 
L 131.236586 293.115831 
L 132.309277 292.424763 
L 133.464482 291.39528 
L 134.784716 289.887503 
L 136.187465 287.931079 
L 137.837758 285.22986 
L 139.900624 281.399033 
L 142.128519 276.771967 
L 145.016532 270.211015 
L 148.069574 262.670872 
L 151.865248 253.302346 
L 153.51554 249.99243 
L 155.330863 246.859834 
L 157.2287 244.070524 
L 158.961507 241.884543 
L 161.106888 239.513725 
L 163.499813 237.256 
L 165.727708 235.481545 
L 168.285662 233.731576 
L 170.926131 232.184814 
L 174.391746 230.444988 
L 177.114729 229.297755 
L 182.560696 227.268989 
L 187.26403 225.743051 
L 191.142219 224.71537 
L 196.258127 223.501313 
L 204.014503 221.891246 
L 214.08129 220.056024 
L 224.148077 218.605088 
L 233.719776 217.448928 
L 245.106797 216.280208 
L 253.440776 215.650237 
L 265.157856 215.011041 
L 268.045868 214.976459 
L 269.036044 215.308066 
L 270.02622 215.88018 
L 271.09891 216.765828 
L 272.33663 218.072565 
L 273.656864 219.78344 
L 275.389672 222.433869 
L 277.204994 225.630521 
L 279.597918 230.399041 
L 282.403416 236.509362 
L 285.786517 244.439766 
L 290.324822 255.145336 
L 292.05763 258.414489 
L 293.790437 261.223842 
L 295.688274 263.873269 
L 297.668626 266.243141 
L 299.896521 268.559862 
L 302.289446 270.718807 
L 305.094944 272.928756 
L 307.817927 274.783204 
L 310.54091 276.368677 
L 313.428923 277.787362 
L 317.142082 279.360204 
L 321.927931 281.128499 
L 327.043839 282.78575 
L 335.212789 285.177792 
L 339.503551 286.189489 
L 345.52712 287.348695 
L 364.422974 290.759799 
L 371.354204 291.73768 
L 389.589941 293.826041 
L 408.568309 295.313463 
L 414.014276 295.653117 
L 414.014276 295.653117 
" clip-path="url(#p8ffe0b6a4f)" style="fill: none; stroke: #0000ff; stroke-linecap: round"/>
   </g>
   <g id="line2d_64">
    <path d="M 68.277912 255.601751 
L 69.185573 255.710218 
L 70.175749 256.066592 
L 71.165925 256.653091 
L 72.32113 257.598199 
L 73.558849 258.912715 
L 74.961598 260.749138 
L 76.611891 263.31531 
L 78.592243 266.867424 
L 80.985167 271.105031 
L 82.717975 273.680172 
L 84.533297 275.973283 
L 86.348619 277.918031 
L 88.411485 279.781677 
L 90.639381 281.488356 
L 93.197335 283.121224 
L 95.342716 284.270175 
L 98.230728 285.523611 
L 100.953711 286.520455 
L 104.254297 287.48956 
L 109.617749 288.750963 
L 114.403599 289.672946 
L 120.262138 290.52963 
L 126.450737 291.213918 
L 131.071557 291.4783 
L 132.061733 291.228714 
L 133.134423 290.707402 
L 134.207113 289.913746 
L 135.362319 288.780361 
L 136.765067 287.062752 
L 138.250331 284.887372 
L 139.983139 281.928836 
L 142.046005 277.947978 
L 144.603959 272.512457 
L 147.326942 266.138052 
L 151.452674 255.824771 
L 153.350511 251.292547 
L 155.000804 247.945319 
L 156.651097 245.086277 
L 158.548934 242.251601 
L 160.446771 239.804137 
L 162.344608 237.710275 
L 164.242444 235.916234 
L 166.30531 234.270132 
L 168.863265 232.528893 
L 171.421219 231.053853 
L 174.061687 229.783448 
L 177.032214 228.615384 
L 182.478181 226.770446 
L 186.768943 225.512859 
L 190.564616 224.601848 
L 195.185436 223.736134 
L 203.684445 222.429987 
L 214.08129 221.059171 
L 222.415269 220.158353 
L 232.234512 219.382465 
L 246.179487 218.415903 
L 254.348437 218.074484 
L 269.531132 217.679093 
L 270.521307 217.996579 
L 271.593998 218.624165 
L 272.831718 219.650965 
L 273.986923 220.899653 
L 275.472186 222.858838 
L 277.204994 225.560589 
L 279.102831 228.949614 
L 281.330726 233.379468 
L 284.053709 239.329209 
L 287.354295 247.096945 
L 291.810086 257.697761 
L 293.460379 260.881974 
L 295.193186 263.758966 
L 297.008509 266.346932 
L 298.98886 268.783339 
L 301.051726 270.974792 
L 303.444651 273.188061 
L 305.755061 275.023932 
L 308.2305 276.694455 
L 310.788454 278.151117 
L 313.758982 279.571412 
L 317.224597 280.981211 
L 321.1853 282.355712 
L 325.228517 283.54524 
L 333.645011 285.712821 
L 337.193141 286.444112 
L 352.788409 288.709055 
L 361.617476 289.828929 
L 374.819819 291.146361 
L 384.96912 291.738255 
L 396.356141 292.458469 
L 404.277547 292.95452 
L 413.0241 293.17761 
L 413.106614 293.179362 
L 413.106614 293.179362 
" clip-path="url(#p8ffe0b6a4f)" style="fill: none; stroke: #008000; stroke-linecap: round"/>
   </g>
   <g id="line2d_65">
    <path d="M 68.277912 255.601751 
L 69.185573 255.722001 
L 70.093234 256.061557 
L 71.08341 256.670146 
L 72.238615 257.65213 
L 73.558849 259.081202 
L 75.044113 261.027386 
L 77.024464 264.032971 
L 79.829962 268.755273 
L 81.810314 271.851761 
L 83.87318 274.653392 
L 86.018561 277.18513 
L 88.081427 279.287078 
L 90.474352 281.408775 
L 93.032306 283.380488 
L 95.755289 285.202621 
L 98.643301 286.868006 
L 101.696343 288.3742 
L 105.326988 289.914058 
L 109.122661 291.288583 
L 114.321084 292.900233 
L 119.271963 294.205788 
L 125.955649 295.719848 
L 128.678632 296.17096 
L 129.668808 296.054606 
L 130.658984 295.694284 
L 131.649159 295.097051 
L 132.72185 294.17538 
L 133.877055 292.878297 
L 135.197289 291.047226 
L 136.682553 288.585751 
L 138.250331 285.558821 
L 140.230683 281.225096 
L 142.706122 275.234654 
L 146.501796 265.371841 
L 151.287645 253.040147 
L 152.937938 249.461478 
L 154.670746 246.297959 
L 156.403553 243.583863 
L 158.30139 241.030033 
L 160.281741 238.732407 
L 162.509637 236.500164 
L 164.820047 234.495979 
L 167.460516 232.510541 
L 170.266013 230.68226 
L 173.649114 228.753847 
L 177.197244 226.984158 
L 181.240461 225.224765 
L 185.696252 223.526417 
L 191.224733 221.636029 
L 196.753215 219.979112 
L 203.436901 218.229133 
L 211.028248 216.529333 
L 218.372052 215.110219 
L 226.458487 213.787096 
L 235.04001 212.621651 
L 245.51937 211.416852 
L 254.92604 210.55423 
L 260.124462 210.272607 
L 261.114638 210.52248 
L 262.104814 211.004863 
L 263.177504 211.798101 
L 264.332709 212.954614 
L 265.487914 214.42166 
L 266.808148 216.456302 
L 268.375927 219.312971 
L 270.108734 222.952095 
L 272.1716 227.827359 
L 275.059613 235.267254 
L 283.393592 257.141057 
L 285.043885 260.427073 
L 286.776693 263.371977 
L 288.592015 266.002793 
L 290.489852 268.367194 
L 292.552718 270.589184 
L 294.863128 272.749314 
L 297.338567 274.747104 
L 300.06155 276.66817 
L 303.279622 278.661169 
L 306.910266 280.649189 
L 310.953484 282.603437 
L 315.574304 284.582311 
L 321.102785 286.700293 
L 326.466237 288.501714 
L 332.077233 290.155655 
L 340.411212 292.30811 
L 347.755015 293.973647 
L 354.76876 295.342327 
L 363.020225 296.721076 
L 372.426894 298.061099 
L 379.770698 298.908737 
L 390.497602 299.939227 
L 397.263803 300.468182 
L 397.263803 300.468182 
" clip-path="url(#p8ffe0b6a4f)" style="fill: none; stroke: #ff0000; stroke-linecap: round"/>
   </g>
   <g id="patch_9">
    <path d="M 50.991094 304.98 
L 50.991094 205.72 
" style="fill: none; stroke: #000000; stroke-linejoin: miter; stroke-linecap: square"/>
   </g>
   <g id="patch_10">
    <path d="M 50.991094 304.98 
L 431.301094 304.98 
" style="fill: none; stroke: #000000; stroke-linejoin: miter; stroke-linecap: square"/>
   </g>
  </g>
 </g>
 <defs>
  <clipPath id="p0f586fba85">
   <rect x="50.991094" y="7.2" width="380.31" height="99.26"/>
  </clipPath>
  <clipPath id="pa85d910a1b">
   <rect x="50.991094" y="106.46" width="380.31" height="99.26"/>
  </clipPath>
  <clipPath id="p8ffe0b6a4f">
   <rect x="50.991094" y="205.72" width="380.31" height="99.26"/>
  </clipPath>
 </defs>
</svg>
