<?xml version="1.0" encoding="utf-8" standalone="no"?>
<!DOCTYPE svg PUBLIC "-//W3C//DTD SVG 1.1//EN"
  "http://www.w3.org/Graphics/SVG/1.1/DTD/svg11.dtd">
<svg xmlns:xlink="http://www.w3.org/1999/xlink" width="396pt" height="273.6pt" viewBox="0 0 396 273.6" xmlns="http://www.w3.org/2000/svg" version="1.1">
 <metadata>
  <rdf:RDF xmlns:dc="http://purl.org/dc/elements/1.1/" xmlns:cc="http://creativecommons.org/ns#" xmlns:rdf="http://www.w3.org/1999/02/22-rdf-syntax-ns#">
   <cc:Work>
    <dc:type rdf:resource="http://purl.org/dc/dcmitype/StillImage"/>
    <dc:date>2024-02-12T14:03:12.415005</dc:date>
    <dc:format>image/svg+xml</dc:format>
    <dc:creator>
     <cc:Agent>
      <dc:title>Matplotlib v3.8.2, https://matplotlib.org/</dc:title>
     </cc:Agent>
    </dc:creator>
   </cc:Work>
  </rdf:RDF>
 </metadata>
 <defs>
  <style type="text/css">*{stroke-linejoin: round; stroke-linecap: butt}</style>
 </defs>
 <g id="figure_1">
  <g id="patch_1">
   <path d="M 0 273.6 
L 396 273.6 
L 396 0 
L 0 0 
z
" style="fill: #ffffff"/>
  </g>
  <g id="axes_1">
   <g id="patch_2">
    <path d="M 38.204771 65.517456 
L 389.294403 65.517456 
L 389.294403 14.013848 
L 38.204771 14.013848 
z
" style="fill: #ffffff"/>
   </g>
   <g id="matplotlib.axis_1">
    <g id="xtick_1">
     <g id="line2d_1">
      <path d="M 54.163391 65.517456 
L 54.163391 14.013848 
" clip-path="url(#p8be62774c6)" style="fill: none; stroke: #b0b0b0; stroke-width: 0.8; stroke-linecap: round"/>
     </g>
     <g id="line2d_2"/>
    </g>
    <g id="xtick_2">
     <g id="line2d_3">
      <path d="M 100.644697 65.517456 
L 100.644697 14.013848 
" clip-path="url(#p8be62774c6)" style="fill: none; stroke: #b0b0b0; stroke-width: 0.8; stroke-linecap: round"/>
     </g>
     <g id="line2d_4"/>
    </g>
    <g id="xtick_3">
     <g id="line2d_5">
      <path d="M 147.126004 65.517456 
L 147.126004 14.013848 
" clip-path="url(#p8be62774c6)" style="fill: none; stroke: #b0b0b0; stroke-width: 0.8; stroke-linecap: round"/>
     </g>
     <g id="line2d_6"/>
    </g>
    <g id="xtick_4">
     <g id="line2d_7">
      <path d="M 193.60731 65.517456 
L 193.60731 14.013848 
" clip-path="url(#p8be62774c6)" style="fill: none; stroke: #b0b0b0; stroke-width: 0.8; stroke-linecap: round"/>
     </g>
     <g id="line2d_8"/>
    </g>
    <g id="xtick_5">
     <g id="line2d_9">
      <path d="M 240.088617 65.517456 
L 240.088617 14.013848 
" clip-path="url(#p8be62774c6)" style="fill: none; stroke: #b0b0b0; stroke-width: 0.8; stroke-linecap: round"/>
     </g>
     <g id="line2d_10"/>
    </g>
    <g id="xtick_6">
     <g id="line2d_11">
      <path d="M 286.569923 65.517456 
L 286.569923 14.013848 
" clip-path="url(#p8be62774c6)" style="fill: none; stroke: #b0b0b0; stroke-width: 0.8; stroke-linecap: round"/>
     </g>
     <g id="line2d_12"/>
    </g>
    <g id="xtick_7">
     <g id="line2d_13">
      <path d="M 333.05123 65.517456 
L 333.05123 14.013848 
" clip-path="url(#p8be62774c6)" style="fill: none; stroke: #b0b0b0; stroke-width: 0.8; stroke-linecap: round"/>
     </g>
     <g id="line2d_14"/>
    </g>
    <g id="xtick_8">
     <g id="line2d_15">
      <path d="M 379.532536 65.517456 
L 379.532536 14.013848 
" clip-path="url(#p8be62774c6)" style="fill: none; stroke: #b0b0b0; stroke-width: 0.8; stroke-linecap: round"/>
     </g>
     <g id="line2d_16"/>
    </g>
   </g>
   <g id="matplotlib.axis_2">
    <g id="ytick_1">
     <g id="line2d_17">
      <path d="M 38.204771 62.787294 
L 389.294403 62.787294 
" clip-path="url(#p8be62774c6)" style="fill: none; stroke: #b0b0b0; stroke-width: 0.8; stroke-linecap: round"/>
     </g>
     <g id="line2d_18"/>
     <g id="text_1">
      <!-- −50 -->
      <g style="fill: #262626" transform="translate(15.710552 66.206591) scale(0.09 -0.09)">
       <defs>
        <path id="DejaVuSerif-2212" d="M 678 2259 
L 4684 2259 
L 4684 1753 
L 678 1753 
L 678 2259 
z
" transform="scale(0.015625)"/>
        <path id="DejaVuSerif-35" d="M 3219 4666 
L 3219 4153 
L 1081 4153 
L 1081 2816 
Q 1244 2928 1461 2984 
Q 1678 3041 1947 3041 
Q 2703 3041 3140 2622 
Q 3578 2203 3578 1478 
Q 3578 738 3136 323 
Q 2694 -91 1894 -91 
Q 1572 -91 1234 -12 
Q 897 66 544 225 
L 544 1131 
L 897 1131 
Q 925 688 1179 453 
Q 1434 219 1894 219 
Q 2388 219 2653 544 
Q 2919 869 2919 1478 
Q 2919 2084 2655 2407 
Q 2391 2731 1894 2731 
Q 1613 2731 1398 2631 
Q 1184 2531 1019 2322 
L 750 2322 
L 750 4666 
L 3219 4666 
z
" transform="scale(0.015625)"/>
        <path id="DejaVuSerif-30" d="M 2034 219 
Q 2513 219 2750 744 
Q 2988 1269 2988 2328 
Q 2988 3391 2750 3916 
Q 2513 4441 2034 4441 
Q 1556 4441 1318 3916 
Q 1081 3391 1081 2328 
Q 1081 1269 1318 744 
Q 1556 219 2034 219 
z
M 2034 -91 
Q 1275 -91 848 546 
Q 422 1184 422 2328 
Q 422 3475 848 4112 
Q 1275 4750 2034 4750 
Q 2797 4750 3222 4112 
Q 3647 3475 3647 2328 
Q 3647 1184 3222 546 
Q 2797 -91 2034 -91 
z
" transform="scale(0.015625)"/>
       </defs>
       <use xlink:href="#DejaVuSerif-2212"/>
       <use xlink:href="#DejaVuSerif-35" x="83.789062"/>
       <use xlink:href="#DejaVuSerif-30" x="147.412109"/>
      </g>
     </g>
    </g>
    <g id="ytick_2">
     <g id="line2d_19">
      <path d="M 38.204771 41.805306 
L 389.294403 41.805306 
" clip-path="url(#p8be62774c6)" style="fill: none; stroke: #b0b0b0; stroke-width: 0.8; stroke-linecap: round"/>
     </g>
     <g id="line2d_20"/>
     <g id="text_2">
      <!-- 0 -->
      <g style="fill: #262626" transform="translate(28.978521 45.224603) scale(0.09 -0.09)">
       <use xlink:href="#DejaVuSerif-30"/>
      </g>
     </g>
    </g>
    <g id="ytick_3">
     <g id="line2d_21">
      <path d="M 38.204771 20.823318 
L 389.294403 20.823318 
" clip-path="url(#p8be62774c6)" style="fill: none; stroke: #b0b0b0; stroke-width: 0.8; stroke-linecap: round"/>
     </g>
     <g id="line2d_22"/>
     <g id="text_3">
      <!-- 50 -->
      <g style="fill: #262626" transform="translate(23.252271 24.242615) scale(0.09 -0.09)">
       <use xlink:href="#DejaVuSerif-35"/>
       <use xlink:href="#DejaVuSerif-30" x="63.623047"/>
      </g>
     </g>
    </g>
    <g id="text_4">
     <!-- $N_H(v)$ -->
     <g style="fill: #262626" transform="translate(9.838834 51.825652) rotate(-90) scale(0.09 -0.09)">
      <defs>
       <path id="DejaVuSans-Oblique-4e" d="M 1081 4666 
L 1931 4666 
L 3219 666 
L 4000 4666 
L 4616 4666 
L 3706 0 
L 2853 0 
L 1569 4025 
L 788 0 
L 172 0 
L 1081 4666 
z
" transform="scale(0.015625)"/>
       <path id="DejaVuSans-Oblique-48" d="M 1081 4666 
L 1716 4666 
L 1344 2753 
L 3634 2753 
L 4006 4666 
L 4641 4666 
L 3731 0 
L 3097 0 
L 3531 2222 
L 1241 2222 
L 806 0 
L 172 0 
L 1081 4666 
z
" transform="scale(0.015625)"/>
       <path id="DejaVuSans-28" d="M 1984 4856 
Q 1566 4138 1362 3434 
Q 1159 2731 1159 2009 
Q 1159 1288 1364 580 
Q 1569 -128 1984 -844 
L 1484 -844 
Q 1016 -109 783 600 
Q 550 1309 550 2009 
Q 550 2706 781 3412 
Q 1013 4119 1484 4856 
L 1984 4856 
z
" transform="scale(0.015625)"/>
       <path id="DejaVuSans-Oblique-76" d="M 459 3500 
L 1069 3500 
L 1581 525 
L 3256 3500 
L 3866 3500 
L 1875 0 
L 1100 0 
L 459 3500 
z
" transform="scale(0.015625)"/>
       <path id="DejaVuSans-29" d="M 513 4856 
L 1013 4856 
Q 1481 4119 1714 3412 
Q 1947 2706 1947 2009 
Q 1947 1309 1714 600 
Q 1481 -109 1013 -844 
L 513 -844 
Q 928 -128 1133 580 
Q 1338 1288 1338 2009 
Q 1338 2731 1133 3434 
Q 928 4138 513 4856 
z
" transform="scale(0.015625)"/>
      </defs>
      <use xlink:href="#DejaVuSans-Oblique-4e" transform="translate(0 0.125)"/>
      <use xlink:href="#DejaVuSans-Oblique-48" transform="translate(74.804688 -16.28125) scale(0.7)"/>
      <use xlink:href="#DejaVuSans-28" transform="translate(130.175781 0.125)"/>
      <use xlink:href="#DejaVuSans-Oblique-76" transform="translate(169.189453 0.125)"/>
      <use xlink:href="#DejaVuSans-29" transform="translate(228.369141 0.125)"/>
     </g>
    </g>
   </g>
   <g id="line2d_23">
    <path d="M 54.163391 41.79442 
L 55.871676 41.862831 
L 57.072093 42.150861 
L 58.734209 42.809394 
L 61.642912 44.156771 
L 63.674387 45.136358 
L 66.02905 46.175856 
L 68.660734 47.5121 
L 71.153907 49.161957 
L 72.723683 49.751269 
L 73.323892 49.833356 
L 74.431969 49.844126 
L 75.216857 50.10428 
L 76.094085 50.591225 
L 78.356409 51.810845 
L 79.972355 52.39971 
L 80.618733 52.241486 
L 81.172772 52.1817 
L 81.72681 52.339341 
L 82.604038 52.804734 
L 83.850625 53.32123 
L 84.912532 53.519914 
L 87.267196 53.746755 
L 88.098254 53.56017 
L 88.883142 53.651134 
L 90.868447 53.998196 
L 91.745675 53.908798 
L 92.853752 53.551862 
L 94.007999 52.960412 
L 95.162246 52.02068 
L 95.947134 51.763433 
L 96.870531 51.409418 
L 98.255628 50.651038 
L 100.194763 49.073079 
L 102.503257 47.201916 
L 104.811751 45.855047 
L 111.644894 41.326735 
L 114.692106 39.850233 
L 117.185279 38.724978 
L 119.124414 37.60023 
L 121.294399 36.742505 
L 124.110762 36.044848 
L 126.511596 35.105293 
L 128.450731 34.619684 
L 129.835827 34.452884 
L 130.713055 34.08753 
L 132.051981 33.510242 
L 133.944946 33.067778 
L 135.283873 32.914338 
L 136.207271 33.022355 
L 136.761309 32.895603 
L 140.778089 31.731261 
L 142.394035 31.669085 
L 143.225093 31.797912 
L 143.963811 31.674658 
L 145.764436 30.994073 
L 146.826343 30.764056 
L 148.25761 30.630996 
L 149.227177 30.700353 
L 150.196745 30.995982 
L 150.935463 30.904596 
L 153.797996 30.120403 
L 155.783301 29.965955 
L 156.614358 30.276945 
L 157.214567 30.341535 
L 157.907115 30.213016 
L 160.261779 29.694775 
L 161.000497 29.663524 
L 162.893462 29.786453 
L 164.140049 30.198934 
L 164.878767 30.088177 
L 167.325771 29.406906 
L 168.249169 29.364425 
L 169.311076 29.489706 
L 169.680435 29.632853 
L 171.111701 30.491818 
L 171.804249 30.570151 
L 173.327856 30.709213 
L 175.036141 31.035117 
L 176.652087 31.747769 
L 178.221863 32.913615 
L 179.32994 33.366124 
L 180.253338 33.892618 
L 183.716079 36.34764 
L 184.777986 36.968017 
L 187.13265 38.079619 
L 189.902843 39.78785 
L 193.734943 41.752864 
L 202.553391 45.41673 
L 204.584866 45.904901 
L 205.600603 46.103556 
L 207.124209 46.650859 
L 208.278456 47.016115 
L 211.510348 47.779558 
L 212.202896 47.851382 
L 213.495653 48.269545 
L 215.157768 48.765957 
L 217.974131 49.27951 
L 219.174548 49.246772 
L 220.051776 49.514492 
L 222.637289 50.353228 
L 224.022386 50.51919 
L 224.991953 50.524854 
L 226.10003 50.38327 
L 226.977258 50.617168 
L 229.101073 51.275709 
L 231.732756 51.528697 
L 233.025513 51.241571 
L 233.625721 51.357229 
L 236.626763 52.106147 
L 238.519729 52.172972 
L 240.089505 51.820758 
L 240.828223 52.031742 
L 241.84396 52.328744 
L 244.891172 52.613392 
L 245.7684 52.405085 
L 246.553288 52.203051 
L 247.476686 52.282851 
L 249.369651 52.836924 
L 250.108369 52.954249 
L 252.324523 52.897858 
L 254.171318 52.364042 
L 255.694925 52.397473 
L 257.772569 51.946514 
L 259.019156 51.53301 
L 259.619365 51.140593 
L 260.773612 50.541156 
L 263.359125 49.567864 
L 267.699094 46.588354 
L 271.346514 45.022085 
L 274.993935 42.944123 
L 279.841773 40.9227 
L 282.796645 39.773019 
L 285.613008 38.589153 
L 286.859595 38.223195 
L 288.66022 37.957869 
L 293.600397 36.442576 
L 295.124004 36.272702 
L 296.41676 35.818907 
L 298.171216 35.225892 
L 299.648652 34.922736 
L 300.941409 34.843779 
L 301.957146 34.857008 
L 302.834374 34.668099 
L 305.512227 33.74565 
L 307.820721 33.515351 
L 308.651779 33.635877 
L 309.713686 33.555938 
L 311.698991 32.746666 
L 314.330674 32.539728 
L 315.531091 32.735684 
L 316.500659 32.493609 
L 318.532134 31.936514 
L 321.209987 31.817194 
L 322.087214 32.105072 
L 322.595083 32.082684 
L 323.610821 31.77229 
L 324.672728 31.471545 
L 325.873145 31.34378 
L 327.212071 31.230622 
L 328.227809 31.250669 
L 329.428226 31.633326 
L 330.074604 31.534697 
L 331.50587 31.093926 
L 332.290758 30.934845 
L 333.860534 30.925573 
L 335.66116 31.23172 
L 336.353708 31.413089 
L 337.046256 31.302546 
L 338.939221 30.776918 
L 339.770279 30.778369 
L 340.739847 31.008616 
L 342.217283 31.622424 
L 343.18685 32.164077 
L 343.971738 32.337008 
L 345.587684 32.521526 
L 346.834271 32.862609 
L 348.265537 33.672813 
L 349.050425 34.296573 
L 350.158503 35.1869 
L 351.774448 36.029798 
L 354.544641 37.401584 
L 363.178409 41.782626 
L 365.486903 42.662568 
L 369.965382 44.427396 
L 371.442818 44.892247 
L 373.335783 45.618145 
L 373.335783 45.618145 
" clip-path="url(#p8be62774c6)" style="fill: none; stroke: #0000ff; stroke-linecap: round"/>
   </g>
   <g id="line2d_24">
    <path d="M 54.163391 41.795904 
L 55.964016 41.867069 
L 57.256773 42.157336 
L 60.165475 43.151951 
L 61.873761 43.946943 
L 63.443537 44.60013 
L 67.922016 46.281213 
L 69.307112 47.170717 
L 70.507529 47.90182 
L 71.707946 48.349239 
L 73.231552 48.741775 
L 74.801328 48.831217 
L 75.678556 49.18036 
L 78.818108 50.623398 
L 80.018525 50.952387 
L 81.542131 50.843356 
L 82.280849 51.148639 
L 83.758285 51.729793 
L 86.159119 52.11404 
L 87.174856 52.146151 
L 88.236764 51.956316 
L 89.021652 52.06375 
L 90.637597 52.329363 
L 91.699505 52.267478 
L 92.853752 51.950981 
L 94.054169 51.402607 
L 95.300755 50.575278 
L 98.163288 49.500111 
L 99.409875 48.646455 
L 102.641767 46.403542 
L 104.534732 45.466203 
L 112.291272 41.094479 
L 114.784446 40.084791 
L 116.81592 39.328606 
L 118.247187 38.553184 
L 119.447604 38.054225 
L 121.663758 37.38534 
L 123.048854 37.191939 
L 124.433951 36.701615 
L 126.927124 35.904013 
L 128.54307 35.596219 
L 129.697317 35.488355 
L 130.620715 35.179759 
L 132.42134 34.545096 
L 135.053024 34.101128 
L 136.807479 34.097177 
L 139.577672 33.30218 
L 140.824259 33.100098 
L 142.486375 33.074319 
L 143.178923 33.162387 
L 144.009981 33.042819 
L 145.533587 32.535367 
L 146.595494 32.296263 
L 148.950158 32.1356 
L 150.750783 32.428739 
L 155.136922 31.586138 
L 156.01415 31.647366 
L 157.029887 31.906259 
L 157.722436 31.834867 
L 160.908157 31.316892 
L 163.124312 31.512819 
L 164.047709 31.773095 
L 164.694088 31.728138 
L 167.87981 31.058934 
L 169.034057 31.123472 
L 169.726605 31.319172 
L 171.204041 32.054884 
L 173.420195 32.231616 
L 174.620612 32.400998 
L 175.959539 32.792391 
L 176.744427 33.18677 
L 177.944844 33.999102 
L 179.191431 34.468414 
L 180.068658 34.859639 
L 184.916496 37.678424 
L 187.3635 38.718651 
L 191.05709 40.647013 
L 193.227075 41.562666 
L 197.751723 43.216213 
L 199.367669 43.775063 
L 201.999352 44.759819 
L 204.030827 45.288254 
L 206.293151 45.723875 
L 208.971004 46.485094 
L 211.279498 46.974256 
L 212.295236 47.045707 
L 214.003521 47.548799 
L 215.250108 47.833899 
L 218.020301 48.256319 
L 219.082208 48.220255 
L 220.097946 48.478599 
L 222.36027 49.156399 
L 224.668764 49.387594 
L 226.746409 49.349622 
L 230.393829 50.154758 
L 231.686586 50.213802 
L 233.256362 49.970813 
L 234.08742 50.188758 
L 235.703366 50.597606 
L 237.319312 50.740242 
L 238.796748 50.679929 
L 239.766315 50.441935 
L 240.366524 50.49552 
L 241.197582 50.767458 
L 242.120979 50.928277 
L 245.306701 51.109855 
L 247.107327 50.806244 
L 248.123064 51.03285 
L 250.200709 51.434284 
L 252.463033 51.335766 
L 253.75579 50.933696 
L 254.586847 50.959958 
L 255.787264 50.938853 
L 258.280438 50.44023 
L 259.619365 49.868332 
L 260.819781 49.337182 
L 263.220615 48.585916 
L 264.513372 47.770504 
L 267.283565 46.103037 
L 268.114623 45.813684 
L 269.915248 45.2408 
L 272.454592 44.023367 
L 275.270954 42.679852 
L 278.271997 41.57115 
L 286.998104 38.703088 
L 288.290861 38.579774 
L 289.629788 38.163326 
L 291.661262 37.571897 
L 293.508058 37.177501 
L 295.354853 36.973818 
L 296.55527 36.588463 
L 298.679084 35.999306 
L 300.710559 35.764708 
L 301.910976 35.80809 
L 302.926714 35.608244 
L 305.281378 34.883219 
L 306.712644 34.67367 
L 307.682211 34.618163 
L 309.159648 34.790809 
L 309.713686 34.680204 
L 311.745161 33.976447 
L 314.007485 33.792544 
L 314.469184 33.8356 
L 315.392582 33.979656 
L 316.17747 33.853319 
L 319.086172 33.264642 
L 320.05574 33.163531 
L 321.117647 33.149629 
L 322.502743 33.420862 
L 323.610821 33.139641 
L 324.765068 32.863461 
L 326.796542 32.70059 
L 328.135469 32.663544 
L 329.751415 32.995731 
L 330.813322 32.767562 
L 332.937137 32.354786 
L 333.860534 32.408319 
L 335.70733 32.690156 
L 336.307538 32.827025 
L 336.953916 32.760004 
L 339.30858 32.262274 
L 340.370488 32.373564 
L 342.124943 32.957912 
L 343.37153 33.528034 
L 344.248758 33.634106 
L 345.910873 33.843102 
L 346.926611 34.118755 
L 347.988518 34.626486 
L 349.235105 35.467604 
L 350.250842 36.137779 
L 352.005298 36.910092 
L 355.745058 38.506837 
L 362.162672 41.452026 
L 370.057722 44.088833 
L 371.304308 44.426324 
L 373.335783 45.098512 
L 373.335783 45.098512 
" clip-path="url(#p8be62774c6)" style="fill: none; stroke: #008000; stroke-linecap: round"/>
   </g>
   <g id="line2d_25">
    <path d="M 54.163391 41.803939 
L 58.180171 41.901845 
L 69.584131 42.613289 
L 72.585174 42.797053 
L 88.282933 43.280604 
L 93.68481 43.2375 
L 108.043643 42.036558 
L 113.21467 41.647091 
L 129.050939 40.901067 
L 132.051981 40.764036 
L 141.424467 40.529208 
L 149.550366 40.427853 
L 151.397162 40.418973 
L 156.10649 40.334088 
L 158.045625 40.34528 
L 162.662613 40.286164 
L 166.033014 40.283114 
L 169.357246 40.260161 
L 176.236558 40.509621 
L 180.391847 40.824611 
L 186.532442 41.292083 
L 201.491483 42.21024 
L 209.986742 42.521969 
L 225.176633 42.893613 
L 227.531297 42.934974 
L 232.009775 43.014562 
L 234.22593 43.029596 
L 238.658238 43.101606 
L 241.012902 43.098774 
L 244.475643 43.164852 
L 256.202793 43.122857 
L 260.127233 42.938873 
L 284.274081 41.470532 
L 291.799772 41.184408 
L 301.495447 40.937936 
L 304.45032 40.825418 
L 308.05157 40.771776 
L 310.498574 40.720034 
L 313.361107 40.641662 
L 324.118689 40.521977 
L 328.643338 40.504227 
L 330.351623 40.507174 
L 335.70733 40.480547 
L 337.369445 40.469537 
L 340.093468 40.425159 
L 343.18685 40.595054 
L 352.282317 41.109357 
L 373.335783 42.283927 
L 373.335783 42.283927 
" clip-path="url(#p8be62774c6)" style="fill: none; stroke: #ff0000; stroke-linecap: round"/>
   </g>
   <g id="patch_3">
    <path d="M 38.204771 65.517456 
L 38.204771 14.013848 
" style="fill: none; stroke: #000000; stroke-linejoin: miter; stroke-linecap: square"/>
   </g>
   <g id="patch_4">
    <path d="M 38.204771 65.517456 
L 389.294403 65.517456 
" style="fill: none; stroke: #000000; stroke-linejoin: miter; stroke-linecap: square"/>
   </g>
   <g id="legend_1">
    <g id="line2d_26">
     <path d="M 45.464353 10.35136 
L 54.464353 10.35136 
L 63.464353 10.35136 
" style="fill: none; stroke: #0000ff; stroke-linecap: round"/>
    </g>
    <g id="text_5">
     <!-- Reference model -->
     <g style="fill: #262626" transform="translate(70.664353 13.50136) scale(0.09 -0.09)">
      <defs>
       <path id="DejaVuSerif-52" d="M 3066 2316 
Q 3284 2256 3442 2114 
Q 3600 1972 3725 1716 
L 4403 331 
L 4972 331 
L 4972 0 
L 3872 0 
L 3144 1484 
Q 2934 1916 2759 2042 
Q 2584 2169 2278 2169 
L 1581 2169 
L 1581 331 
L 2241 331 
L 2241 0 
L 353 0 
L 353 331 
L 947 331 
L 947 4331 
L 353 4331 
L 353 4666 
L 2719 4666 
Q 3400 4666 3770 4341 
Q 4141 4016 4141 3419 
Q 4141 2938 3870 2661 
Q 3600 2384 3066 2316 
z
M 1581 2503 
L 2503 2503 
Q 2975 2503 3200 2726 
Q 3425 2950 3425 3419 
Q 3425 3888 3200 4109 
Q 2975 4331 2503 4331 
L 1581 4331 
L 1581 2503 
z
" transform="scale(0.015625)"/>
       <path id="DejaVuSerif-65" d="M 3469 1600 
L 991 1600 
L 991 1575 
Q 991 903 1244 561 
Q 1497 219 1991 219 
Q 2369 219 2611 417 
Q 2853 616 2950 1006 
L 3413 1006 
Q 3275 459 2904 184 
Q 2534 -91 1931 -91 
Q 1203 -91 761 389 
Q 319 869 319 1663 
Q 319 2450 753 2931 
Q 1188 3413 1894 3413 
Q 2647 3413 3050 2948 
Q 3453 2484 3469 1600 
z
M 2791 1931 
Q 2772 2513 2545 2808 
Q 2319 3103 1894 3103 
Q 1497 3103 1269 2806 
Q 1041 2509 991 1931 
L 2791 1931 
z
" transform="scale(0.015625)"/>
       <path id="DejaVuSerif-66" d="M 2753 4078 
L 2450 4078 
Q 2447 4313 2317 4434 
Q 2188 4556 1941 4556 
Q 1619 4556 1487 4379 
Q 1356 4203 1356 3750 
L 1356 3322 
L 2284 3322 
L 2284 2988 
L 1356 2988 
L 1356 331 
L 2094 331 
L 2094 0 
L 231 0 
L 231 331 
L 781 331 
L 781 2988 
L 231 2988 
L 231 3322 
L 781 3322 
L 781 3738 
Q 781 4294 1070 4578 
Q 1359 4863 1919 4863 
Q 2128 4863 2337 4825 
Q 2547 4788 2753 4709 
L 2753 4078 
z
" transform="scale(0.015625)"/>
       <path id="DejaVuSerif-72" d="M 3059 3328 
L 3059 2497 
L 2728 2497 
Q 2713 2744 2591 2866 
Q 2469 2988 2234 2988 
Q 1809 2988 1582 2694 
Q 1356 2400 1356 1850 
L 1356 331 
L 2022 331 
L 2022 0 
L 263 0 
L 263 331 
L 781 331 
L 781 2994 
L 231 2994 
L 231 3322 
L 1356 3322 
L 1356 2731 
Q 1525 3078 1790 3245 
Q 2056 3413 2438 3413 
Q 2578 3413 2733 3391 
Q 2888 3369 3059 3328 
z
" transform="scale(0.015625)"/>
       <path id="DejaVuSerif-6e" d="M 263 0 
L 263 331 
L 781 331 
L 781 2988 
L 231 2988 
L 231 3322 
L 1356 3322 
L 1356 2731 
Q 1516 3069 1770 3241 
Q 2025 3413 2363 3413 
Q 2913 3413 3172 3097 
Q 3431 2781 3431 2113 
L 3431 331 
L 3944 331 
L 3944 0 
L 2356 0 
L 2356 331 
L 2853 331 
L 2853 1931 
Q 2853 2541 2703 2767 
Q 2553 2994 2175 2994 
Q 1775 2994 1565 2701 
Q 1356 2409 1356 1850 
L 1356 331 
L 1856 331 
L 1856 0 
L 263 0 
z
" transform="scale(0.015625)"/>
       <path id="DejaVuSerif-63" d="M 3291 997 
Q 3169 466 2822 187 
Q 2475 -91 1925 -91 
Q 1200 -91 759 389 
Q 319 869 319 1663 
Q 319 2459 759 2936 
Q 1200 3413 1925 3413 
Q 2241 3413 2553 3339 
Q 2866 3266 3181 3116 
L 3181 2266 
L 2847 2266 
Q 2781 2703 2561 2903 
Q 2341 3103 1931 3103 
Q 1466 3103 1228 2742 
Q 991 2381 991 1663 
Q 991 944 1227 581 
Q 1463 219 1931 219 
Q 2303 219 2525 412 
Q 2747 606 2828 997 
L 3291 997 
z
" transform="scale(0.015625)"/>
       <path id="DejaVuSerif-20" transform="scale(0.015625)"/>
       <path id="DejaVuSerif-6d" d="M 3316 2675 
Q 3481 3041 3739 3227 
Q 3997 3413 4341 3413 
Q 4863 3413 5119 3089 
Q 5375 2766 5375 2113 
L 5375 331 
L 5894 331 
L 5894 0 
L 4300 0 
L 4300 331 
L 4800 331 
L 4800 2047 
Q 4800 2556 4650 2772 
Q 4500 2988 4153 2988 
Q 3769 2988 3567 2697 
Q 3366 2406 3366 1850 
L 3366 331 
L 3866 331 
L 3866 0 
L 2291 0 
L 2291 331 
L 2791 331 
L 2791 2069 
Q 2791 2566 2641 2777 
Q 2491 2988 2144 2988 
Q 1759 2988 1557 2697 
Q 1356 2406 1356 1850 
L 1356 331 
L 1856 331 
L 1856 0 
L 263 0 
L 263 331 
L 781 331 
L 781 2994 
L 231 2994 
L 231 3322 
L 1356 3322 
L 1356 2731 
Q 1516 3063 1762 3238 
Q 2009 3413 2322 3413 
Q 2709 3413 2968 3220 
Q 3228 3028 3316 2675 
z
" transform="scale(0.015625)"/>
       <path id="DejaVuSerif-6f" d="M 1925 219 
Q 2388 219 2623 584 
Q 2859 950 2859 1663 
Q 2859 2375 2623 2739 
Q 2388 3103 1925 3103 
Q 1463 3103 1227 2739 
Q 991 2375 991 1663 
Q 991 950 1228 584 
Q 1466 219 1925 219 
z
M 1925 -91 
Q 1200 -91 759 389 
Q 319 869 319 1663 
Q 319 2456 758 2934 
Q 1197 3413 1925 3413 
Q 2653 3413 3092 2934 
Q 3531 2456 3531 1663 
Q 3531 869 3092 389 
Q 2653 -91 1925 -91 
z
" transform="scale(0.015625)"/>
       <path id="DejaVuSerif-64" d="M 3359 331 
L 3909 331 
L 3909 0 
L 2784 0 
L 2784 519 
Q 2616 206 2355 57 
Q 2094 -91 1709 -91 
Q 1097 -91 708 395 
Q 319 881 319 1663 
Q 319 2444 706 2928 
Q 1094 3413 1709 3413 
Q 2094 3413 2355 3264 
Q 2616 3116 2784 2803 
L 2784 4531 
L 2241 4531 
L 2241 4863 
L 3359 4863 
L 3359 331 
z
M 2784 1497 
L 2784 1825 
Q 2784 2422 2554 2737 
Q 2325 3053 1888 3053 
Q 1444 3053 1217 2703 
Q 991 2353 991 1663 
Q 991 975 1217 622 
Q 1444 269 1888 269 
Q 2325 269 2554 583 
Q 2784 897 2784 1497 
z
" transform="scale(0.015625)"/>
       <path id="DejaVuSerif-6c" d="M 1313 331 
L 1856 331 
L 1856 0 
L 184 0 
L 184 331 
L 738 331 
L 738 4531 
L 184 4531 
L 184 4863 
L 1313 4863 
L 1313 331 
z
" transform="scale(0.015625)"/>
      </defs>
      <use xlink:href="#DejaVuSerif-52"/>
      <use xlink:href="#DejaVuSerif-65" x="75.292969"/>
      <use xlink:href="#DejaVuSerif-66" x="134.472656"/>
      <use xlink:href="#DejaVuSerif-65" x="171.484375"/>
      <use xlink:href="#DejaVuSerif-72" x="230.664062"/>
      <use xlink:href="#DejaVuSerif-65" x="278.466797"/>
      <use xlink:href="#DejaVuSerif-6e" x="337.646484"/>
      <use xlink:href="#DejaVuSerif-63" x="402.050781"/>
      <use xlink:href="#DejaVuSerif-65" x="458.056641"/>
      <use xlink:href="#DejaVuSerif-20" x="517.236328"/>
      <use xlink:href="#DejaVuSerif-6d" x="549.023438"/>
      <use xlink:href="#DejaVuSerif-6f" x="643.847656"/>
      <use xlink:href="#DejaVuSerif-64" x="704.052734"/>
      <use xlink:href="#DejaVuSerif-65" x="768.066406"/>
      <use xlink:href="#DejaVuSerif-6c" x="827.246094"/>
     </g>
    </g>
    <g id="line2d_27">
     <path d="M 165.998259 10.35136 
L 174.998259 10.35136 
L 183.998259 10.35136 
" style="fill: none; stroke: #008000; stroke-linecap: round"/>
    </g>
    <g id="text_6">
     <!-- Physics informed ID -->
     <g style="fill: #262626" transform="translate(191.198259 13.50136) scale(0.09 -0.09)">
      <defs>
       <path id="DejaVuSerif-50" d="M 1581 2375 
L 2406 2375 
Q 2872 2375 3115 2626 
Q 3359 2878 3359 3353 
Q 3359 3831 3115 4081 
Q 2872 4331 2406 4331 
L 1581 4331 
L 1581 2375 
z
M 353 0 
L 353 331 
L 947 331 
L 947 4331 
L 353 4331 
L 353 4666 
L 2559 4666 
Q 3259 4666 3668 4311 
Q 4078 3956 4078 3353 
Q 4078 2753 3668 2397 
Q 3259 2041 2559 2041 
L 1581 2041 
L 1581 331 
L 2303 331 
L 2303 0 
L 353 0 
z
" transform="scale(0.015625)"/>
       <path id="DejaVuSerif-68" d="M 263 0 
L 263 331 
L 781 331 
L 781 4531 
L 231 4531 
L 231 4863 
L 1356 4863 
L 1356 2731 
Q 1516 3069 1770 3241 
Q 2025 3413 2363 3413 
Q 2913 3413 3172 3097 
Q 3431 2781 3431 2113 
L 3431 331 
L 3944 331 
L 3944 0 
L 2356 0 
L 2356 331 
L 2853 331 
L 2853 1931 
Q 2853 2541 2704 2764 
Q 2556 2988 2175 2988 
Q 1775 2988 1565 2697 
Q 1356 2406 1356 1850 
L 1356 331 
L 1856 331 
L 1856 0 
L 263 0 
z
" transform="scale(0.015625)"/>
       <path id="DejaVuSerif-79" d="M 1381 -609 
L 1600 -56 
L 359 2988 
L -19 2988 
L -19 3322 
L 1509 3322 
L 1509 2988 
L 978 2988 
L 1913 703 
L 2847 2988 
L 2350 2988 
L 2350 3322 
L 3597 3322 
L 3597 2988 
L 3225 2988 
L 1703 -750 
Q 1547 -1138 1356 -1280 
Q 1166 -1422 819 -1422 
Q 672 -1422 517 -1397 
Q 363 -1372 206 -1325 
L 206 -691 
L 500 -691 
Q 519 -903 608 -995 
Q 697 -1088 884 -1088 
Q 1056 -1088 1161 -992 
Q 1266 -897 1381 -609 
z
" transform="scale(0.015625)"/>
       <path id="DejaVuSerif-73" d="M 359 184 
L 359 959 
L 691 959 
Q 703 588 923 403 
Q 1144 219 1575 219 
Q 1963 219 2166 364 
Q 2369 509 2369 788 
Q 2369 1006 2220 1140 
Q 2072 1275 1594 1428 
L 1178 1569 
Q 750 1706 558 1912 
Q 366 2119 366 2438 
Q 366 2894 700 3153 
Q 1034 3413 1625 3413 
Q 1888 3413 2178 3344 
Q 2469 3275 2778 3144 
L 2778 2419 
L 2447 2419 
Q 2434 2741 2221 2922 
Q 2009 3103 1644 3103 
Q 1281 3103 1095 2975 
Q 909 2847 909 2591 
Q 909 2381 1050 2254 
Q 1191 2128 1613 1997 
L 2069 1856 
Q 2541 1709 2748 1489 
Q 2956 1269 2956 922 
Q 2956 450 2595 179 
Q 2234 -91 1600 -91 
Q 1278 -91 972 -22 
Q 666 47 359 184 
z
" transform="scale(0.015625)"/>
       <path id="DejaVuSerif-69" d="M 622 4353 
Q 622 4497 726 4603 
Q 831 4709 978 4709 
Q 1122 4709 1226 4603 
Q 1331 4497 1331 4353 
Q 1331 4206 1228 4103 
Q 1125 4000 978 4000 
Q 831 4000 726 4103 
Q 622 4206 622 4353 
z
M 1356 331 
L 1900 331 
L 1900 0 
L 231 0 
L 231 331 
L 781 331 
L 781 2988 
L 231 2988 
L 231 3322 
L 1356 3322 
L 1356 331 
z
" transform="scale(0.015625)"/>
       <path id="DejaVuSerif-49" d="M 1581 331 
L 2175 331 
L 2175 0 
L 353 0 
L 353 331 
L 947 331 
L 947 4331 
L 353 4331 
L 353 4666 
L 2175 4666 
L 2175 4331 
L 1581 4331 
L 1581 331 
z
" transform="scale(0.015625)"/>
       <path id="DejaVuSerif-44" d="M 1581 331 
L 2163 331 
Q 3072 331 3558 850 
Q 4044 1369 4044 2338 
Q 4044 3306 3559 3818 
Q 3075 4331 2163 4331 
L 1581 4331 
L 1581 331 
z
M 353 0 
L 353 331 
L 947 331 
L 947 4331 
L 353 4331 
L 353 4666 
L 2209 4666 
Q 3416 4666 4089 4050 
Q 4763 3434 4763 2338 
Q 4763 1238 4088 619 
Q 3413 0 2209 0 
L 353 0 
z
" transform="scale(0.015625)"/>
      </defs>
      <use xlink:href="#DejaVuSerif-50"/>
      <use xlink:href="#DejaVuSerif-68" x="67.285156"/>
      <use xlink:href="#DejaVuSerif-79" x="131.689453"/>
      <use xlink:href="#DejaVuSerif-73" x="188.183594"/>
      <use xlink:href="#DejaVuSerif-69" x="239.501953"/>
      <use xlink:href="#DejaVuSerif-63" x="271.484375"/>
      <use xlink:href="#DejaVuSerif-73" x="327.490234"/>
      <use xlink:href="#DejaVuSerif-20" x="378.808594"/>
      <use xlink:href="#DejaVuSerif-69" x="410.595703"/>
      <use xlink:href="#DejaVuSerif-6e" x="442.578125"/>
      <use xlink:href="#DejaVuSerif-66" x="506.982422"/>
      <use xlink:href="#DejaVuSerif-6f" x="543.994141"/>
      <use xlink:href="#DejaVuSerif-72" x="604.199219"/>
      <use xlink:href="#DejaVuSerif-6d" x="652.001953"/>
      <use xlink:href="#DejaVuSerif-65" x="746.826172"/>
      <use xlink:href="#DejaVuSerif-64" x="806.005859"/>
      <use xlink:href="#DejaVuSerif-20" x="870.019531"/>
      <use xlink:href="#DejaVuSerif-49" x="901.806641"/>
      <use xlink:href="#DejaVuSerif-44" x="941.308594"/>
     </g>
    </g>
    <g id="line2d_28">
     <path d="M 301.130446 10.35136 
L 310.130446 10.35136 
L 319.130446 10.35136 
" style="fill: none; stroke: #ff0000; stroke-linecap: round"/>
    </g>
    <g id="text_7">
     <!-- Abkowitz ID -->
     <g style="fill: #262626" transform="translate(326.330446 13.50136) scale(0.09 -0.09)">
      <defs>
       <path id="DejaVuSerif-41" d="M 1281 1691 
L 2994 1691 
L 2138 3909 
L 1281 1691 
z
M -38 0 
L -38 331 
L 372 331 
L 2034 4666 
L 2559 4666 
L 4225 331 
L 4684 331 
L 4684 0 
L 2988 0 
L 2988 331 
L 3506 331 
L 3116 1356 
L 1153 1356 
L 763 331 
L 1275 331 
L 1275 0 
L -38 0 
z
" transform="scale(0.015625)"/>
       <path id="DejaVuSerif-62" d="M 738 331 
L 738 4531 
L 184 4531 
L 184 4863 
L 1313 4863 
L 1313 2803 
Q 1481 3116 1742 3264 
Q 2003 3413 2388 3413 
Q 3000 3413 3387 2928 
Q 3775 2444 3775 1663 
Q 3775 881 3387 395 
Q 3000 -91 2388 -91 
Q 2003 -91 1742 57 
Q 1481 206 1313 519 
L 1313 0 
L 184 0 
L 184 331 
L 738 331 
z
M 1313 1497 
Q 1313 897 1542 583 
Q 1772 269 2209 269 
Q 2650 269 2876 622 
Q 3103 975 3103 1663 
Q 3103 2353 2876 2703 
Q 2650 3053 2209 3053 
Q 1772 3053 1542 2737 
Q 1313 2422 1313 1825 
L 1313 1497 
z
" transform="scale(0.015625)"/>
       <path id="DejaVuSerif-6b" d="M 1831 0 
L 219 0 
L 219 331 
L 738 331 
L 738 4531 
L 184 4531 
L 184 4863 
L 1313 4863 
L 1313 1697 
L 2713 2988 
L 2234 2988 
L 2234 3322 
L 3738 3322 
L 3738 2988 
L 3169 2988 
L 2181 2075 
L 3444 331 
L 3922 331 
L 3922 0 
L 2284 0 
L 2284 331 
L 2759 331 
L 1766 1697 
L 1313 1275 
L 1313 331 
L 1831 331 
L 1831 0 
z
" transform="scale(0.015625)"/>
       <path id="DejaVuSerif-77" d="M 3072 3322 
L 3922 728 
L 4672 2988 
L 4191 2988 
L 4191 3322 
L 5394 3322 
L 5394 2988 
L 5025 2988 
L 4038 0 
L 3559 0 
L 2741 2484 
L 1919 0 
L 1459 0 
L 475 2988 
L 103 2988 
L 103 3322 
L 1606 3322 
L 1606 2988 
L 1069 2988 
L 1813 728 
L 2669 3322 
L 3072 3322 
z
" transform="scale(0.015625)"/>
       <path id="DejaVuSerif-74" d="M 691 2988 
L 184 2988 
L 184 3322 
L 691 3322 
L 691 4353 
L 1269 4353 
L 1269 3322 
L 2350 3322 
L 2350 2988 
L 1269 2988 
L 1269 878 
Q 1269 456 1350 337 
Q 1431 219 1650 219 
Q 1875 219 1978 351 
Q 2081 484 2088 781 
L 2522 781 
Q 2497 328 2275 118 
Q 2053 -91 1600 -91 
Q 1103 -91 897 129 
Q 691 350 691 878 
L 691 2988 
z
" transform="scale(0.015625)"/>
       <path id="DejaVuSerif-7a" d="M 256 0 
L 256 269 
L 2338 2988 
L 691 2988 
L 691 2413 
L 359 2413 
L 359 3322 
L 3078 3322 
L 3078 3053 
L 997 331 
L 2803 331 
L 2803 934 
L 3138 934 
L 3138 0 
L 256 0 
z
" transform="scale(0.015625)"/>
      </defs>
      <use xlink:href="#DejaVuSerif-41"/>
      <use xlink:href="#DejaVuSerif-62" x="72.216797"/>
      <use xlink:href="#DejaVuSerif-6b" x="136.230469"/>
      <use xlink:href="#DejaVuSerif-6f" x="196.826172"/>
      <use xlink:href="#DejaVuSerif-77" x="257.03125"/>
      <use xlink:href="#DejaVuSerif-69" x="342.626953"/>
      <use xlink:href="#DejaVuSerif-74" x="374.609375"/>
      <use xlink:href="#DejaVuSerif-7a" x="414.794922"/>
      <use xlink:href="#DejaVuSerif-20" x="467.480469"/>
      <use xlink:href="#DejaVuSerif-49" x="499.267578"/>
      <use xlink:href="#DejaVuSerif-44" x="538.769531"/>
     </g>
    </g>
   </g>
  </g>
  <g id="axes_2">
   <g id="patch_5">
    <path d="M 38.204771 125.571349 
L 389.294403 125.571349 
L 389.294403 74.067741 
L 38.204771 74.067741 
z
" style="fill: #ffffff"/>
   </g>
   <g id="matplotlib.axis_3">
    <g id="xtick_9">
     <g id="line2d_29">
      <path d="M 54.163391 125.571349 
L 54.163391 74.067741 
" clip-path="url(#pd7d43ace30)" style="fill: none; stroke: #b0b0b0; stroke-width: 0.8; stroke-linecap: round"/>
     </g>
     <g id="line2d_30"/>
    </g>
    <g id="xtick_10">
     <g id="line2d_31">
      <path d="M 100.644697 125.571349 
L 100.644697 74.067741 
" clip-path="url(#pd7d43ace30)" style="fill: none; stroke: #b0b0b0; stroke-width: 0.8; stroke-linecap: round"/>
     </g>
     <g id="line2d_32"/>
    </g>
    <g id="xtick_11">
     <g id="line2d_33">
      <path d="M 147.126004 125.571349 
L 147.126004 74.067741 
" clip-path="url(#pd7d43ace30)" style="fill: none; stroke: #b0b0b0; stroke-width: 0.8; stroke-linecap: round"/>
     </g>
     <g id="line2d_34"/>
    </g>
    <g id="xtick_12">
     <g id="line2d_35">
      <path d="M 193.60731 125.571349 
L 193.60731 74.067741 
" clip-path="url(#pd7d43ace30)" style="fill: none; stroke: #b0b0b0; stroke-width: 0.8; stroke-linecap: round"/>
     </g>
     <g id="line2d_36"/>
    </g>
    <g id="xtick_13">
     <g id="line2d_37">
      <path d="M 240.088617 125.571349 
L 240.088617 74.067741 
" clip-path="url(#pd7d43ace30)" style="fill: none; stroke: #b0b0b0; stroke-width: 0.8; stroke-linecap: round"/>
     </g>
     <g id="line2d_38"/>
    </g>
    <g id="xtick_14">
     <g id="line2d_39">
      <path d="M 286.569923 125.571349 
L 286.569923 74.067741 
" clip-path="url(#pd7d43ace30)" style="fill: none; stroke: #b0b0b0; stroke-width: 0.8; stroke-linecap: round"/>
     </g>
     <g id="line2d_40"/>
    </g>
    <g id="xtick_15">
     <g id="line2d_41">
      <path d="M 333.05123 125.571349 
L 333.05123 74.067741 
" clip-path="url(#pd7d43ace30)" style="fill: none; stroke: #b0b0b0; stroke-width: 0.8; stroke-linecap: round"/>
     </g>
     <g id="line2d_42"/>
    </g>
    <g id="xtick_16">
     <g id="line2d_43">
      <path d="M 379.532536 125.571349 
L 379.532536 74.067741 
" clip-path="url(#pd7d43ace30)" style="fill: none; stroke: #b0b0b0; stroke-width: 0.8; stroke-linecap: round"/>
     </g>
     <g id="line2d_44"/>
    </g>
   </g>
   <g id="matplotlib.axis_4">
    <g id="ytick_4">
     <g id="line2d_45">
      <path d="M 38.204771 122.841187 
L 389.294403 122.841187 
" clip-path="url(#pd7d43ace30)" style="fill: none; stroke: #b0b0b0; stroke-width: 0.8; stroke-linecap: round"/>
     </g>
     <g id="line2d_46"/>
     <g id="text_8">
      <!-- −50 -->
      <g style="fill: #262626" transform="translate(15.710552 126.260484) scale(0.09 -0.09)">
       <use xlink:href="#DejaVuSerif-2212"/>
       <use xlink:href="#DejaVuSerif-35" x="83.789062"/>
       <use xlink:href="#DejaVuSerif-30" x="147.412109"/>
      </g>
     </g>
    </g>
    <g id="ytick_5">
     <g id="line2d_47">
      <path d="M 38.204771 101.859199 
L 389.294403 101.859199 
" clip-path="url(#pd7d43ace30)" style="fill: none; stroke: #b0b0b0; stroke-width: 0.8; stroke-linecap: round"/>
     </g>
     <g id="line2d_48"/>
     <g id="text_9">
      <!-- 0 -->
      <g style="fill: #262626" transform="translate(28.978521 105.278496) scale(0.09 -0.09)">
       <use xlink:href="#DejaVuSerif-30"/>
      </g>
     </g>
    </g>
    <g id="ytick_6">
     <g id="line2d_49">
      <path d="M 38.204771 80.877211 
L 389.294403 80.877211 
" clip-path="url(#pd7d43ace30)" style="fill: none; stroke: #b0b0b0; stroke-width: 0.8; stroke-linecap: round"/>
     </g>
     <g id="line2d_50"/>
     <g id="text_10">
      <!-- 50 -->
      <g style="fill: #262626" transform="translate(23.252271 84.296508) scale(0.09 -0.09)">
       <use xlink:href="#DejaVuSerif-35"/>
       <use xlink:href="#DejaVuSerif-30" x="63.623047"/>
      </g>
     </g>
    </g>
    <g id="text_11">
     <!-- $N_H(r)$ -->
     <g style="fill: #262626" transform="translate(9.838834 111.069545) rotate(-90) scale(0.09 -0.09)">
      <defs>
       <path id="DejaVuSans-Oblique-72" d="M 2853 2969 
Q 2766 3016 2653 3041 
Q 2541 3066 2413 3066 
Q 1953 3066 1609 2717 
Q 1266 2369 1153 1784 
L 800 0 
L 225 0 
L 909 3500 
L 1484 3500 
L 1375 2956 
Q 1603 3259 1920 3421 
Q 2238 3584 2597 3584 
Q 2691 3584 2781 3573 
Q 2872 3563 2963 3538 
L 2853 2969 
z
" transform="scale(0.015625)"/>
      </defs>
      <use xlink:href="#DejaVuSans-Oblique-4e" transform="translate(0 0.125)"/>
      <use xlink:href="#DejaVuSans-Oblique-48" transform="translate(74.804688 -16.28125) scale(0.7)"/>
      <use xlink:href="#DejaVuSans-28" transform="translate(130.175781 0.125)"/>
      <use xlink:href="#DejaVuSans-Oblique-72" transform="translate(169.189453 0.125)"/>
      <use xlink:href="#DejaVuSans-29" transform="translate(210.302734 0.125)"/>
     </g>
    </g>
   </g>
   <g id="line2d_51">
    <path d="M 54.163391 102.073142 
L 54.902109 101.964967 
L 55.640827 101.650787 
L 56.887414 100.81607 
L 58.22634 99.615194 
L 61.181213 96.563758 
L 62.658649 94.914026 
L 64.320765 93.396234 
L 65.659691 92.435344 
L 66.30607 92.157133 
L 66.998618 92.183096 
L 67.506487 91.954865 
L 68.429884 91.223585 
L 69.722641 90.289837 
L 70.876888 89.923633 
L 72.077305 89.601104 
L 72.908363 89.379691 
L 73.185382 89.45136 
L 73.83176 89.744036 
L 74.247289 89.692176 
L 74.893668 89.394078 
L 75.955575 88.871672 
L 77.525351 88.456173 
L 79.972355 88.333983 
L 80.895752 89.053371 
L 81.265111 89.011266 
L 82.188509 88.470866 
L 82.788718 88.213762 
L 84.081474 88.081115 
L 85.74359 88.027226 
L 86.759327 88.022597 
L 87.174856 88.38207 
L 87.821235 88.830931 
L 88.606123 88.983675 
L 89.57569 89.312272 
L 90.129729 89.660399 
L 91.006956 90.390242 
L 93.63864 93.574781 
L 95.439265 96.234132 
L 96.408833 97.51206 
L 100.702632 103.722112 
L 105.36579 107.453774 
L 106.981736 108.302238 
L 107.628114 108.509878 
L 108.505342 108.596237 
L 109.15172 108.917936 
L 110.352137 109.614973 
L 114.415087 110.892359 
L 115.707843 110.736205 
L 116.585071 111.119966 
L 117.462299 111.516569 
L 118.524206 111.750816 
L 121.386739 111.991398 
L 122.494816 111.59727 
L 123.141194 111.876467 
L 124.110762 112.261102 
L 125.680538 112.502261 
L 128.173711 112.642841 
L 129.050939 112.202518 
L 129.466468 112.23017 
L 130.112846 112.496176 
L 130.897734 112.873708 
L 131.774962 113.019858 
L 132.60602 113.049531 
L 133.852607 113.10477 
L 135.145363 113.091417 
L 136.068761 112.631684 
L 136.57663 112.769326 
L 137.638537 113.080586 
L 139.947031 113.344289 
L 141.932336 113.344669 
L 142.486375 112.936489 
L 142.901904 112.767877 
L 143.317432 112.813347 
L 145.256567 113.482569 
L 146.503154 113.447378 
L 148.1191 113.402522 
L 148.857818 113.3489 
L 150.058235 112.717159 
L 150.658444 112.870176 
L 151.99737 113.247435 
L 155.737131 113.281764 
L 156.937548 112.661083 
L 157.814775 112.895435 
L 158.599663 113.13331 
L 159.569231 113.177152 
L 161.693045 113.052641 
L 162.662613 112.940932 
L 163.95537 112.356395 
L 164.647918 112.532505 
L 165.986844 112.82745 
L 168.110659 112.741374 
L 169.218736 112.531937 
L 169.634265 112.253715 
L 170.650002 111.221991 
L 171.61957 110.864273 
L 172.312118 110.486336 
L 173.004666 109.936366 
L 175.959539 106.92775 
L 182.007793 100.04476 
L 183.34672 99.019787 
L 184.270118 98.653018 
L 187.31733 96.850265 
L 188.148388 96.562741 
L 189.579654 95.973617 
L 190.226032 95.810459 
L 191.426449 95.80853 
L 192.026658 95.512508 
L 193.365584 94.808593 
L 194.381322 94.518732 
L 195.489399 94.210596 
L 196.551306 94.047131 
L 197.290024 94.050353 
L 197.936403 94.142434 
L 198.628951 93.975219 
L 201.214464 93.247461 
L 204.261676 93.222418 
L 204.861885 93.456904 
L 205.277414 93.364262 
L 206.84719 92.881937 
L 208.370796 92.679422 
L 209.894402 92.552325 
L 210.8178 92.438401 
L 211.187159 92.667422 
L 211.787367 92.898888 
L 212.526085 92.723309 
L 213.541823 92.315031 
L 215.203938 92.090029 
L 216.589035 92.022323 
L 217.743282 91.961169 
L 218.943699 92.397001 
L 219.543907 92.187545 
L 220.882834 91.725243 
L 224.945783 91.854992 
L 225.499822 92.096839 
L 225.961521 92.016571 
L 227.808316 91.486155 
L 229.747451 91.512462 
L 230.670849 91.450496 
L 231.501907 91.481326 
L 232.148285 91.912816 
L 232.609984 92.056334 
L 233.394872 91.948262 
L 234.17976 91.641542 
L 235.426346 91.504527 
L 236.672933 91.475074 
L 237.550161 91.491143 
L 238.519729 91.596716 
L 239.443126 92.063277 
L 239.904825 92.014907 
L 241.659281 91.572282 
L 245.306701 91.689296 
L 246.183929 92.135476 
L 246.876477 92.093278 
L 249.000292 91.562141 
L 252.232183 91.781169 
L 252.832392 92.244564 
L 253.4326 92.543965 
L 255.325566 93.066164 
L 256.433643 93.874861 
L 258.834477 96.060176 
L 259.434685 96.771047 
L 260.496592 97.936302 
L 262.481897 99.944763 
L 265.25209 103.100634 
L 266.036978 103.749518 
L 268.991851 105.521485 
L 270.007588 106.103039 
L 273.00863 107.263069 
L 274.116707 107.26913 
L 274.993935 107.623049 
L 275.824993 108.005178 
L 278.271997 108.764573 
L 279.564753 109.08738 
L 279.980282 109.046377 
L 280.81134 108.919266 
L 281.365379 109.13513 
L 282.288776 109.516054 
L 283.396854 109.772275 
L 286.674915 110.076983 
L 287.967672 109.781346 
L 289.352768 110.153812 
L 290.137656 110.297696 
L 291.938282 110.555027 
L 292.815509 110.641935 
L 293.554228 110.62124 
L 294.292946 110.35218 
L 294.939324 110.312666 
L 295.493363 110.46476 
L 297.016969 110.970364 
L 299.740992 111.159637 
L 300.710559 111.073286 
L 301.264598 110.842864 
L 301.680127 110.845175 
L 303.065223 111.195008 
L 303.665432 111.438573 
L 304.681169 111.572526 
L 306.158605 111.535288 
L 307.774551 111.392043 
L 308.23625 111.181882 
L 309.390497 111.21457 
L 311.421972 111.968935 
L 312.11452 111.947879 
L 314.469184 111.623408 
L 314.930883 111.370473 
L 315.531091 111.355275 
L 316.592999 111.728314 
L 317.377887 111.896155 
L 318.070435 111.967412 
L 319.455531 111.866746 
L 320.332759 111.940146 
L 321.117647 111.760595 
L 321.902535 111.336329 
L 322.318064 111.333696 
L 324.211029 111.865141 
L 324.949747 111.877036 
L 328.181639 111.81309 
L 329.105037 111.33329 
L 331.367361 111.809386 
L 331.967569 111.888331 
L 335.014781 111.648056 
L 335.56882 111.331192 
L 336.030519 111.155184 
L 336.446048 111.176794 
L 337.000086 111.355863 
L 337.877314 111.620817 
L 338.754542 111.491449 
L 339.44709 111.224594 
L 341.016866 110.270996 
L 341.847924 109.651576 
L 343.32536 108.150669 
L 344.618117 107.223002 
L 346.326402 105.48867 
L 351.12807 100.267097 
L 352.513167 99.221118 
L 355.791228 97.495673 
L 357.083985 97.067478 
L 358.284402 96.480472 
L 359.06929 96.198933 
L 362.439691 95.189771 
L 363.824788 95.108996 
L 365.117544 94.609127 
L 365.717753 94.393191 
L 366.872 94.128562 
L 368.164756 93.924273 
L 368.995814 93.784763 
L 369.549853 93.887709 
L 370.150061 94.117612 
L 370.61176 94.095693 
L 373.335783 93.335216 
L 373.335783 93.335216 
" clip-path="url(#pd7d43ace30)" style="fill: none; stroke: #0000ff; stroke-linecap: round"/>
   </g>
   <g id="line2d_52">
    <path d="M 54.163391 102.072344 
L 54.902109 101.964573 
L 55.640827 101.651564 
L 56.887414 100.81996 
L 58.22634 99.623563 
L 61.181213 96.583508 
L 62.658649 94.939929 
L 64.320765 93.427798 
L 65.659691 92.470492 
L 66.30607 92.193319 
L 66.998618 92.219184 
L 67.506487 91.991805 
L 68.429884 91.263252 
L 69.722641 90.332987 
L 70.876888 89.968148 
L 72.077305 89.646822 
L 72.908363 89.426235 
L 73.185382 89.497637 
L 73.83176 89.789222 
L 74.247289 89.737555 
L 74.893668 89.440569 
L 75.955575 88.920111 
L 77.525351 88.506162 
L 79.972355 88.384428 
L 80.895752 89.101133 
L 81.265111 89.059185 
L 82.188509 88.5208 
L 82.788718 88.264654 
L 84.081474 88.132503 
L 85.74359 88.078815 
L 86.759327 88.074203 
L 87.174856 88.432335 
L 87.821235 88.879522 
L 88.606123 89.031696 
L 89.57569 89.359068 
L 90.129729 89.705896 
L 91.006956 90.433017 
L 93.63864 93.605679 
L 95.439265 96.255111 
L 96.408833 97.528273 
L 100.702632 103.715164 
L 105.36579 107.432908 
L 106.981736 108.278207 
L 107.628114 108.485073 
L 108.505342 108.57111 
L 109.15172 108.891609 
L 110.352137 109.586047 
L 114.415087 110.858669 
L 115.707843 110.703097 
L 116.585071 111.085426 
L 117.462299 111.48055 
L 118.524206 111.713924 
L 121.386739 111.953609 
L 122.494816 111.56095 
L 123.141194 111.839106 
L 124.110762 112.222306 
L 125.680538 112.462566 
L 128.173711 112.602622 
L 129.050939 112.163941 
L 129.466468 112.191489 
L 130.112846 112.456504 
L 130.897734 112.832627 
L 131.774962 112.978233 
L 132.60602 113.007795 
L 133.852607 113.062828 
L 135.145363 113.049525 
L 136.068761 112.591507 
L 136.57663 112.728635 
L 137.638537 113.038734 
L 139.947031 113.301453 
L 141.932336 113.301832 
L 142.486375 112.895174 
L 142.901904 112.727191 
L 143.317432 112.772492 
L 145.256567 113.439218 
L 146.503154 113.404158 
L 148.1191 113.359469 
L 148.857818 113.306047 
L 150.104405 112.680467 
L 150.612274 112.810755 
L 151.858861 113.193515 
L 154.167355 113.331353 
L 155.92181 113.124861 
L 156.660528 112.645404 
L 157.029887 112.633652 
L 157.722436 112.82848 
L 159.246042 113.141058 
L 162.570273 112.944318 
L 162.985802 112.666398 
L 163.539841 112.376173 
L 164.047709 112.325834 
L 164.601748 112.476839 
L 165.848335 112.798857 
L 168.849377 112.612478 
L 169.588095 112.265121 
L 170.788512 111.115952 
L 171.388721 110.906226 
L 171.988929 110.661387 
L 172.866157 110.029275 
L 174.297423 108.689421 
L 176.790597 105.858034 
L 177.852504 104.594044 
L 180.391847 101.680693 
L 181.361415 100.587871 
L 183.20821 99.083557 
L 185.055006 98.157489 
L 186.947971 96.98106 
L 189.025615 96.202597 
L 190.133693 95.832216 
L 191.564959 95.774521 
L 192.673036 95.173918 
L 193.919623 94.664995 
L 195.674078 94.188027 
L 197.197684 94.052183 
L 197.890233 94.173799 
L 198.536611 94.037016 
L 200.706595 93.343049 
L 204.076997 93.15879 
L 204.908055 93.488945 
L 205.600603 93.289452 
L 207.539738 92.709768 
L 209.017174 92.671072 
L 209.802062 92.595519 
L 211.094819 92.636034 
L 211.648857 92.913582 
L 212.110556 92.894243 
L 212.710765 92.674424 
L 213.541823 92.350628 
L 215.203938 92.126464 
L 216.589035 92.059012 
L 217.743282 91.998085 
L 218.943699 92.432292 
L 219.543907 92.223617 
L 220.882834 91.763039 
L 224.945783 91.892304 
L 225.499822 92.13325 
L 225.961521 92.05328 
L 227.808316 91.524843 
L 229.747451 91.551052 
L 230.670849 91.489317 
L 231.501907 91.520032 
L 232.148285 91.949913 
L 232.609984 92.092895 
L 233.394872 91.985226 
L 234.17976 91.67965 
L 235.426346 91.543146 
L 236.672933 91.513803 
L 237.550161 91.529812 
L 238.519729 91.634991 
L 239.443126 92.099812 
L 239.904825 92.051623 
L 241.659281 91.610648 
L 245.306701 91.727226 
L 246.183929 92.171742 
L 246.876477 92.129702 
L 249.000292 91.600545 
L 252.232183 91.818757 
L 252.832392 92.280423 
L 253.4326 92.578708 
L 255.325566 93.098958 
L 256.433643 93.904639 
L 258.834477 96.081805 
L 259.434685 96.790024 
L 260.496592 97.950933 
L 262.481897 99.951903 
L 265.25209 103.096003 
L 266.036978 103.742468 
L 268.991851 105.507826 
L 270.007588 106.087211 
L 273.00863 107.242915 
L 274.116707 107.248953 
L 275.040105 107.629457 
L 276.009673 108.041619 
L 277.394769 108.458583 
L 279.333904 109.023308 
L 279.980282 109.019572 
L 280.81134 108.892935 
L 281.365379 109.107994 
L 282.288776 109.487497 
L 283.396854 109.742762 
L 286.674915 110.046334 
L 287.967672 109.751799 
L 289.352768 110.122876 
L 290.137656 110.266223 
L 291.938282 110.522595 
L 292.815509 110.609178 
L 293.554228 110.58856 
L 294.339116 110.310178 
L 295.124004 110.319018 
L 296.047401 110.642949 
L 297.063139 110.941401 
L 298.909934 111.134129 
L 300.156521 111.168347 
L 300.52588 111.140478 
L 301.403107 110.78974 
L 302.557355 110.947197 
L 303.434582 111.323689 
L 304.080961 111.468959 
L 305.142868 111.503902 
L 307.636042 111.440203 
L 308.37476 111.144567 
L 309.667516 111.320737 
L 310.544744 111.772966 
L 311.560481 111.93703 
L 312.622389 111.881092 
L 314.515354 111.549787 
L 314.884713 111.347862 
L 315.438752 111.288869 
L 317.931925 111.921482 
L 318.347454 111.890838 
L 319.455531 111.829421 
L 320.332759 111.902548 
L 321.117647 111.723666 
L 321.902535 111.300983 
L 322.318064 111.298359 
L 324.211029 111.827823 
L 324.949747 111.839673 
L 328.181639 111.775965 
L 329.105037 111.297955 
L 331.367361 111.772275 
L 331.967569 111.850926 
L 335.014781 111.611547 
L 335.56882 111.295864 
L 336.030519 111.120513 
L 336.446048 111.142043 
L 337.000086 111.320444 
L 337.877314 111.58441 
L 338.754542 111.455524 
L 339.44709 111.189664 
L 341.016866 110.239623 
L 341.847924 109.622513 
L 343.32536 108.127204 
L 344.664287 107.160218 
L 345.910873 105.932106 
L 350.019993 101.386183 
L 350.943391 100.431993 
L 352.513167 99.230957 
L 355.791228 97.511947 
L 357.083985 97.085349 
L 358.330572 96.47702 
L 359.669498 96.03605 
L 361.839483 95.342385 
L 362.85522 95.281147 
L 363.316919 95.312178 
L 364.748185 94.818199 
L 366.364131 94.222067 
L 367.980077 93.978715 
L 369.503683 93.894923 
L 370.288571 94.161911 
L 370.75027 94.081266 
L 371.996857 93.616818 
L 373.335783 93.367007 
L 373.335783 93.367007 
" clip-path="url(#pd7d43ace30)" style="fill: none; stroke: #008000; stroke-linecap: round"/>
   </g>
   <g id="line2d_53">
    <path d="M 54.163391 102.25204 
L 54.67126 102.149802 
L 55.271468 101.820161 
L 55.917846 101.172457 
L 56.979754 99.809252 
L 58.134001 97.904858 
L 60.996533 92.565364 
L 62.24312 89.882689 
L 63.443537 87.73517 
L 65.613522 84.609809 
L 66.21373 84.027427 
L 67.137128 84.016005 
L 67.644996 83.506248 
L 69.722641 80.615626 
L 70.646039 80.052736 
L 73.046872 78.974438 
L 73.323892 79.215342 
L 73.785591 79.604277 
L 74.15495 79.582097 
L 75.032177 78.827356 
L 76.509614 77.613671 
L 77.617691 77.235174 
L 78.402579 77.11753 
L 78.864278 77.017345 
L 79.325976 76.895472 
L 79.602996 76.808858 
L 79.880015 76.896593 
L 81.034262 78.371391 
L 81.403621 78.158545 
L 82.650208 76.870296 
L 83.712115 76.571331 
L 86.020609 76.432445 
L 86.620818 76.415852 
L 86.805497 76.501179 
L 87.082517 76.929316 
L 87.636555 77.781648 
L 88.005914 78.03433 
L 88.559953 78.203137 
L 89.160161 78.485402 
L 90.175899 79.518457 
L 91.053126 80.89773 
L 92.161204 83.245732 
L 93.50013 86.29889 
L 93.961829 87.647404 
L 94.885227 90.316625 
L 97.747759 97.571047 
L 100.333273 104.625208 
L 101.025821 105.773538 
L 104.950261 111.674924 
L 107.351095 114.02404 
L 107.674284 114.070177 
L 108.274492 114.100649 
L 108.736191 114.388661 
L 109.3364 115.084604 
L 109.844268 115.620268 
L 110.629156 116.287458 
L 111.921913 117.140152 
L 112.568291 117.583183 
L 113.21467 117.904656 
L 114.368917 118.451928 
L 114.645936 118.317965 
L 115.153805 118.027824 
L 115.476994 118.043936 
L 115.984862 118.340893 
L 117.369959 119.551936 
L 118.570376 120.032429 
L 119.632283 120.336452 
L 121.386739 120.463866 
L 122.402476 119.724769 
L 122.725665 119.871274 
L 124.387781 121.088968 
L 125.172669 121.318216 
L 128.127541 121.704919 
L 129.189449 120.809243 
L 129.604978 120.979121 
L 130.343696 121.646872 
L 130.851564 122.053276 
L 131.359433 122.27244 
L 133.575587 122.471864 
L 134.360475 122.567028 
L 134.914514 122.669346 
L 135.191533 122.431713 
L 135.884082 121.676286 
L 136.34578 121.690934 
L 137.407688 122.377921 
L 138.469595 122.696436 
L 139.162143 122.833391 
L 139.762352 122.908435 
L 140.27022 122.923286 
L 140.731919 122.887482 
L 141.978506 122.904626 
L 142.948073 121.876171 
L 143.363602 122.007199 
L 143.825301 122.443532 
L 144.610189 123.049655 
L 145.118058 123.178712 
L 146.734004 123.106749 
L 147.980591 123.064128 
L 148.626969 123.033156 
L 148.950158 122.857811 
L 149.919726 121.797988 
L 150.289085 121.852615 
L 150.843123 122.212069 
L 151.90503 122.758067 
L 153.982675 123.014171 
L 155.82947 122.737046 
L 156.891378 121.681525 
L 157.491586 121.947626 
L 158.692003 122.581648 
L 161.092837 122.460001 
L 161.877725 122.378112 
L 162.616443 122.255769 
L 163.77069 121.171352 
L 164.186219 121.187127 
L 164.878767 121.6052 
L 165.525146 121.967223 
L 165.986844 121.999018 
L 167.233431 121.919503 
L 169.218736 121.456398 
L 169.541925 121.119723 
L 170.049794 119.999586 
L 170.465323 119.264397 
L 171.111701 118.685269 
L 172.081269 117.979242 
L 173.189346 116.3834 
L 175.174651 112.76125 
L 176.836767 109.113998 
L 177.713994 107.171902 
L 180.022488 102.411007 
L 181.453755 99.365739 
L 183.25438 96.706418 
L 184.408627 95.815912 
L 186.994141 92.841264 
L 187.640519 92.511807 
L 188.056048 92.215244 
L 190.041353 90.77457 
L 190.318372 90.774644 
L 190.918581 90.923666 
L 191.472619 90.721999 
L 192.580696 89.635045 
L 193.411754 88.879568 
L 195.12004 87.969757 
L 197.197684 87.47035 
L 197.751723 87.69498 
L 198.074912 87.651416 
L 198.628951 87.382695 
L 201.029785 86.076469 
L 204.030827 85.78353 
L 204.908055 86.432266 
L 205.323584 86.228699 
L 207.770587 84.96704 
L 209.155684 84.929155 
L 210.8178 84.560801 
L 211.094819 84.860294 
L 211.602688 85.358981 
L 212.018216 85.360198 
L 212.526085 85.083948 
L 213.357143 84.440189 
L 214.60373 83.983355 
L 215.850317 83.849975 
L 216.496695 83.802867 
L 217.143073 83.70373 
L 217.650942 83.617099 
L 218.020301 84.009165 
L 218.43583 84.443776 
L 218.805189 84.529265 
L 219.128378 84.382213 
L 219.636247 84.022128 
L 220.836664 83.259303 
L 222.36027 83.101223 
L 224.484085 83.142062 
L 224.714934 83.231173 
L 225.499822 83.933629 
L 225.823011 83.865064 
L 226.1462 83.656228 
L 227.254277 82.905799 
L 229.516602 82.820163 
L 229.932131 82.862776 
L 231.409567 82.728899 
L 231.778926 83.149978 
L 232.240625 83.6856 
L 232.748493 83.860303 
L 233.441042 83.6157 
L 234.549119 82.909958 
L 235.287837 82.825676 
L 235.749536 82.875895 
L 236.580594 82.790897 
L 238.519729 83.015305 
L 239.350786 83.833609 
L 239.673976 83.870886 
L 240.228014 83.562731 
L 240.920562 83.109182 
L 241.382261 82.964253 
L 242.628848 82.961015 
L 243.321396 82.834485 
L 244.244794 82.883813 
L 244.937342 83.024989 
L 245.491381 83.418455 
L 246.045419 83.929963 
L 246.414778 84.039024 
L 246.784137 83.965422 
L 249.184971 82.961701 
L 249.83135 82.943996 
L 250.477728 83.006964 
L 250.893257 83.063076 
L 251.262616 83.142309 
L 252.186014 83.320347 
L 252.463033 83.632301 
L 253.294091 84.660021 
L 253.848129 84.922841 
L 255.002376 85.421615 
L 255.741094 86.243841 
L 258.649797 90.875284 
L 259.480855 92.623516 
L 260.265743 94.233814 
L 263.128276 99.821282 
L 264.328692 102.308001 
L 265.852299 105.110151 
L 266.406337 105.670056 
L 267.699094 106.990892 
L 268.807171 108.334729 
L 269.638229 109.311773 
L 271.069495 110.445066 
L 273.14714 111.747782 
L 274.024368 111.742696 
L 274.716916 112.194101 
L 275.224785 112.671585 
L 275.778823 113.116264 
L 278.595186 114.708338 
L 279.056885 114.934381 
L 279.610923 115.143073 
L 279.841773 115.125808 
L 280.94985 114.880017 
L 283.073664 116.299884 
L 285.243649 116.741716 
L 286.120877 116.821343 
L 286.721085 116.92202 
L 287.044274 116.631689 
L 287.505973 116.350581 
L 287.921502 116.397816 
L 288.337031 116.567507 
L 289.999147 117.324694 
L 290.645525 117.516197 
L 291.430413 117.651931 
L 291.707432 117.703045 
L 292.261471 117.954244 
L 293.000189 117.9844 
L 293.600397 117.904277 
L 294.246776 117.469225 
L 294.846984 117.368704 
L 295.354853 117.563685 
L 296.047401 118.048234 
L 296.878459 118.534978 
L 298.125046 118.803279 
L 298.586745 118.93002 
L 298.909934 118.95351 
L 299.971841 118.94959 
L 300.47971 118.994362 
L 300.895239 118.608315 
L 301.356938 118.321943 
L 301.772467 118.38519 
L 302.187995 118.441871 
L 302.603524 118.634606 
L 302.972883 118.907413 
L 303.665432 119.448773 
L 304.21947 119.571575 
L 304.588829 119.684857 
L 304.912018 119.642311 
L 306.804984 119.673821 
L 307.405192 119.711531 
L 307.959231 119.142937 
L 308.23625 118.977439 
L 309.251987 118.97504 
L 309.621346 119.249476 
L 310.683254 120.195122 
L 311.514312 120.436191 
L 313.684296 120.199683 
L 314.423014 119.850366 
L 314.930883 119.323728 
L 315.484921 119.264246 
L 316.731508 120.007136 
L 317.100867 120.12468 
L 317.701076 120.351523 
L 318.255114 120.368297 
L 319.270852 120.165711 
L 320.563608 120.292043 
L 321.209987 119.912376 
L 321.625516 119.401451 
L 322.133384 119.199364 
L 322.410404 119.320196 
L 323.195292 119.916 
L 323.74933 120.204831 
L 324.303369 120.218714 
L 324.811238 120.254577 
L 325.642295 120.28013 
L 326.565693 120.143012 
L 327.350581 120.173752 
L 327.71994 120.262406 
L 328.089299 120.233697 
L 328.458658 119.755035 
L 328.874187 119.308571 
L 329.151206 119.269251 
L 329.751415 119.494378 
L 331.321191 120.091064 
L 331.69055 120.267971 
L 331.967569 120.274614 
L 334.045214 119.993012 
L 334.645422 119.910627 
L 334.968611 119.867048 
L 335.38414 119.443807 
L 335.938179 118.968004 
L 336.261368 118.908877 
L 336.907747 119.229749 
L 337.738804 119.766495 
L 338.339013 119.768665 
L 338.708372 119.574518 
L 339.677939 118.842624 
L 340.231978 118.311263 
L 341.432395 116.835852 
L 341.940264 115.968277 
L 343.094511 113.737243 
L 343.787059 112.853211 
L 344.848966 111.343295 
L 345.680024 109.833581 
L 351.03573 99.083386 
L 352.328487 97.209987 
L 355.14485 94.230153 
L 355.745058 93.864891 
L 356.668456 93.400774 
L 357.822703 92.359465 
L 358.79227 91.636799 
L 360.454386 90.590293 
L 361.239274 90.111532 
L 361.793313 89.869573 
L 362.532031 89.626273 
L 363.409259 89.74998 
L 365.025204 88.637481 
L 365.579243 88.213296 
L 366.317961 87.808328 
L 366.77966 87.674613 
L 367.195189 87.573502 
L 367.887737 87.356504 
L 368.349436 87.181406 
L 368.903475 87.034971 
L 369.457513 87.143794 
L 370.288571 87.672587 
L 370.61176 87.603909 
L 371.165799 87.169534 
L 371.996857 86.667945 
L 373.335783 86.207527 
L 373.335783 86.207527 
" clip-path="url(#pd7d43ace30)" style="fill: none; stroke: #ff0000; stroke-linecap: round"/>
   </g>
   <g id="patch_6">
    <path d="M 38.204771 125.571349 
L 38.204771 74.067741 
" style="fill: none; stroke: #000000; stroke-linejoin: miter; stroke-linecap: square"/>
   </g>
   <g id="patch_7">
    <path d="M 38.204771 125.571349 
L 389.294403 125.571349 
" style="fill: none; stroke: #000000; stroke-linejoin: miter; stroke-linecap: square"/>
   </g>
  </g>
  <g id="axes_3">
   <g id="patch_8">
    <path d="M 38.204771 185.625242 
L 389.294403 185.625242 
L 389.294403 134.121634 
L 38.204771 134.121634 
z
" style="fill: #ffffff"/>
   </g>
   <g id="matplotlib.axis_5">
    <g id="xtick_17">
     <g id="line2d_54">
      <path d="M 54.163391 185.625242 
L 54.163391 134.121634 
" clip-path="url(#pf32d422a83)" style="fill: none; stroke: #b0b0b0; stroke-width: 0.8; stroke-linecap: round"/>
     </g>
     <g id="line2d_55"/>
    </g>
    <g id="xtick_18">
     <g id="line2d_56">
      <path d="M 100.644697 185.625242 
L 100.644697 134.121634 
" clip-path="url(#pf32d422a83)" style="fill: none; stroke: #b0b0b0; stroke-width: 0.8; stroke-linecap: round"/>
     </g>
     <g id="line2d_57"/>
    </g>
    <g id="xtick_19">
     <g id="line2d_58">
      <path d="M 147.126004 185.625242 
L 147.126004 134.121634 
" clip-path="url(#pf32d422a83)" style="fill: none; stroke: #b0b0b0; stroke-width: 0.8; stroke-linecap: round"/>
     </g>
     <g id="line2d_59"/>
    </g>
    <g id="xtick_20">
     <g id="line2d_60">
      <path d="M 193.60731 185.625242 
L 193.60731 134.121634 
" clip-path="url(#pf32d422a83)" style="fill: none; stroke: #b0b0b0; stroke-width: 0.8; stroke-linecap: round"/>
     </g>
     <g id="line2d_61"/>
    </g>
    <g id="xtick_21">
     <g id="line2d_62">
      <path d="M 240.088617 185.625242 
L 240.088617 134.121634 
" clip-path="url(#pf32d422a83)" style="fill: none; stroke: #b0b0b0; stroke-width: 0.8; stroke-linecap: round"/>
     </g>
     <g id="line2d_63"/>
    </g>
    <g id="xtick_22">
     <g id="line2d_64">
      <path d="M 286.569923 185.625242 
L 286.569923 134.121634 
" clip-path="url(#pf32d422a83)" style="fill: none; stroke: #b0b0b0; stroke-width: 0.8; stroke-linecap: round"/>
     </g>
     <g id="line2d_65"/>
    </g>
    <g id="xtick_23">
     <g id="line2d_66">
      <path d="M 333.05123 185.625242 
L 333.05123 134.121634 
" clip-path="url(#pf32d422a83)" style="fill: none; stroke: #b0b0b0; stroke-width: 0.8; stroke-linecap: round"/>
     </g>
     <g id="line2d_67"/>
    </g>
    <g id="xtick_24">
     <g id="line2d_68">
      <path d="M 379.532536 185.625242 
L 379.532536 134.121634 
" clip-path="url(#pf32d422a83)" style="fill: none; stroke: #b0b0b0; stroke-width: 0.8; stroke-linecap: round"/>
     </g>
     <g id="line2d_69"/>
    </g>
   </g>
   <g id="matplotlib.axis_6">
    <g id="ytick_7">
     <g id="line2d_70">
      <path d="M 38.204771 182.89508 
L 389.294403 182.89508 
" clip-path="url(#pf32d422a83)" style="fill: none; stroke: #b0b0b0; stroke-width: 0.8; stroke-linecap: round"/>
     </g>
     <g id="line2d_71"/>
     <g id="text_12">
      <!-- −50 -->
      <g style="fill: #262626" transform="translate(15.710552 186.314377) scale(0.09 -0.09)">
       <use xlink:href="#DejaVuSerif-2212"/>
       <use xlink:href="#DejaVuSerif-35" x="83.789062"/>
       <use xlink:href="#DejaVuSerif-30" x="147.412109"/>
      </g>
     </g>
    </g>
    <g id="ytick_8">
     <g id="line2d_72">
      <path d="M 38.204771 161.913092 
L 389.294403 161.913092 
" clip-path="url(#pf32d422a83)" style="fill: none; stroke: #b0b0b0; stroke-width: 0.8; stroke-linecap: round"/>
     </g>
     <g id="line2d_73"/>
     <g id="text_13">
      <!-- 0 -->
      <g style="fill: #262626" transform="translate(28.978521 165.332389) scale(0.09 -0.09)">
       <use xlink:href="#DejaVuSerif-30"/>
      </g>
     </g>
    </g>
    <g id="ytick_9">
     <g id="line2d_74">
      <path d="M 38.204771 140.931104 
L 389.294403 140.931104 
" clip-path="url(#pf32d422a83)" style="fill: none; stroke: #b0b0b0; stroke-width: 0.8; stroke-linecap: round"/>
     </g>
     <g id="line2d_75"/>
     <g id="text_14">
      <!-- 50 -->
      <g style="fill: #262626" transform="translate(23.252271 144.350401) scale(0.09 -0.09)">
       <use xlink:href="#DejaVuSerif-35"/>
       <use xlink:href="#DejaVuSerif-30" x="63.623047"/>
      </g>
     </g>
    </g>
    <g id="text_15">
     <!-- $Y_H(v)$ -->
     <g style="fill: #262626" transform="translate(9.838834 171.303438) rotate(-90) scale(0.09 -0.09)">
      <defs>
       <path id="DejaVuSans-Oblique-59" d="M 403 4666 
L 1081 4666 
L 1953 2747 
L 3616 4666 
L 4325 4666 
L 2209 2222 
L 1778 0 
L 1147 0 
L 1575 2222 
L 403 4666 
z
" transform="scale(0.015625)"/>
      </defs>
      <use xlink:href="#DejaVuSans-Oblique-59" transform="translate(0 0.125)"/>
      <use xlink:href="#DejaVuSans-Oblique-48" transform="translate(61.083984 -16.28125) scale(0.7)"/>
      <use xlink:href="#DejaVuSans-28" transform="translate(116.455078 0.125)"/>
      <use xlink:href="#DejaVuSans-Oblique-76" transform="translate(155.46875 0.125)"/>
      <use xlink:href="#DejaVuSans-29" transform="translate(214.648438 0.125)"/>
     </g>
    </g>
   </g>
   <g id="line2d_76">
    <path d="M 54.163391 161.907686 
L 56.425715 161.993947 
L 58.36485 162.333626 
L 63.074178 163.437933 
L 69.353282 165.017201 
L 70.830718 165.498077 
L 73.139212 165.90264 
L 75.032177 165.994521 
L 76.509614 166.400197 
L 79.141297 167.047477 
L 80.157034 167.1602 
L 81.588301 167.116866 
L 85.420401 167.766267 
L 87.359536 167.827296 
L 88.559953 167.76641 
L 92.022694 167.896334 
L 93.5463 167.614568 
L 94.146508 167.389592 
L 95.346925 166.946728 
L 97.840099 166.436965 
L 99.363705 165.867193 
L 102.457087 164.605554 
L 105.827489 163.586124 
L 111.598724 161.687643 
L 115.199975 160.84774 
L 117.277619 160.3541 
L 119.447604 159.756302 
L 121.940777 159.363794 
L 123.418213 159.197863 
L 128.312221 158.345267 
L 130.112846 158.216857 
L 133.760267 157.593109 
L 135.607062 157.530066 
L 136.6228 157.510981 
L 140.962768 156.8993 
L 142.578714 156.90757 
L 143.686792 156.920366 
L 148.903988 156.348944 
L 151.212482 156.457682 
L 154.398204 156.072397 
L 156.198829 156.113577 
L 157.214567 156.219985 
L 158.368814 156.095944 
L 160.815818 155.881054 
L 163.170482 156.005904 
L 164.186219 156.148814 
L 165.248126 156.033741 
L 167.048752 155.778985 
L 168.941717 155.766282 
L 169.818945 155.91587 
L 171.065531 156.288254 
L 172.265948 156.342771 
L 175.036141 156.56443 
L 176.882936 157.019106 
L 178.129523 157.474143 
L 181.315245 158.380264 
L 183.946928 159.283064 
L 185.285855 159.609946 
L 187.08648 160.047633 
L 191.14943 161.272153 
L 194.750681 162.100291 
L 204.030827 163.915711 
L 206.75485 164.250833 
L 209.848232 164.72884 
L 211.787367 164.881538 
L 213.172464 165.066225 
L 217.189243 165.580641 
L 218.482 165.596118 
L 219.636247 165.66785 
L 224.253235 166.253257 
L 225.222803 166.213271 
L 226.28471 166.187217 
L 231.732756 166.741896 
L 233.302532 166.611507 
L 235.195497 166.918435 
L 236.996122 167.041139 
L 239.073767 166.960517 
L 240.089505 166.886939 
L 241.289921 167.080523 
L 242.675018 167.195101 
L 244.983512 167.275488 
L 245.90691 167.150811 
L 246.784137 167.074879 
L 248.030724 167.203314 
L 250.016029 167.445632 
L 252.232183 167.437524 
L 254.448338 167.168016 
L 256.018114 167.142233 
L 258.649797 166.810821 
L 259.804044 166.492629 
L 261.23531 166.17988 
L 263.312955 165.783423 
L 268.622491 164.136416 
L 270.792476 163.668324 
L 277.07158 162.022035 
L 286.536406 160.163822 
L 287.829162 160.102757 
L 289.352768 159.876026 
L 292.399981 159.365207 
L 294.477625 159.221155 
L 296.047401 159.015418 
L 299.002274 158.545767 
L 301.310768 158.478137 
L 302.511185 158.415945 
L 304.542659 158.019375 
L 305.789246 157.890384 
L 308.05157 157.824241 
L 309.529007 157.85118 
L 313.176427 157.318379 
L 314.653864 157.360027 
L 315.623431 157.403266 
L 317.147037 157.178066 
L 318.347454 157.021678 
L 321.487006 157.008995 
L 322.595083 157.08467 
L 328.089299 156.65201 
L 330.351623 156.77742 
L 334.045214 156.51638 
L 335.70733 156.672079 
L 336.492218 156.75205 
L 337.461785 156.609062 
L 338.754542 156.444815 
L 340.231978 156.468679 
L 342.263453 156.872106 
L 343.32536 157.147643 
L 344.895136 157.247768 
L 346.649592 157.433784 
L 348.080858 157.815164 
L 349.558294 158.415874 
L 350.758711 158.795569 
L 363.455429 161.949037 
L 366.364131 162.532848 
L 369.919212 163.210067 
L 372.043027 163.558959 
L 373.335783 163.806614 
L 373.335783 163.806614 
" clip-path="url(#pf32d422a83)" style="fill: none; stroke: #0000ff; stroke-linecap: round"/>
   </g>
   <g id="line2d_77">
    <path d="M 54.163391 161.907083 
L 56.333375 161.991285 
L 58.134001 162.326939 
L 62.19695 163.380666 
L 64.736294 164.003608 
L 68.476054 164.988702 
L 71.153907 165.974032 
L 73.093042 166.346617 
L 75.263027 166.505048 
L 80.064695 167.754974 
L 81.542131 167.689406 
L 82.557868 167.971055 
L 83.989134 168.289603 
L 85.8821 168.471178 
L 87.221026 168.513724 
L 88.375273 168.405572 
L 90.129729 168.597491 
L 91.514825 168.614785 
L 92.761412 168.417216 
L 94.100339 168.024027 
L 95.346925 167.508174 
L 97.747759 166.97076 
L 99.040516 166.461917 
L 103.149635 164.714632 
L 104.673241 164.201573 
L 112.014253 161.540394 
L 114.784446 160.813493 
L 117.185279 160.212723 
L 119.493774 159.505436 
L 121.663758 159.088245 
L 123.279704 158.92228 
L 128.58924 157.944763 
L 129.881997 157.847057 
L 131.082414 157.55031 
L 132.836869 157.219249 
L 135.560892 157.037093 
L 136.6228 157.019975 
L 140.870429 156.347141 
L 142.440205 156.32501 
L 143.409772 156.384675 
L 144.42551 156.233145 
L 146.780174 155.82097 
L 149.227177 155.783054 
L 150.381424 155.9474 
L 151.581841 155.78252 
L 154.028845 155.443748 
L 156.10649 155.443454 
L 157.029887 155.586506 
L 157.953285 155.507212 
L 160.861988 155.208765 
L 163.262821 155.370143 
L 164.278559 155.505315 
L 165.155787 155.394763 
L 167.60279 155.051015 
L 169.449586 155.129197 
L 170.095964 155.370322 
L 171.111701 155.667941 
L 172.173609 155.718699 
L 174.435933 155.879617 
L 176.282728 156.225375 
L 176.975276 156.520675 
L 178.175693 156.991792 
L 181.315245 157.986217 
L 183.669909 158.882503 
L 185.055006 159.306705 
L 187.13265 159.856478 
L 190.918581 161.129661 
L 193.550264 161.839473 
L 201.953182 163.791926 
L 204.307846 164.160913 
L 206.246981 164.407459 
L 209.248024 164.947048 
L 211.787367 165.212635 
L 213.080124 165.400088 
L 215.804147 165.829487 
L 218.204981 166.024197 
L 219.359228 166.042209 
L 221.113683 166.413163 
L 222.49878 166.620759 
L 225.268973 166.686343 
L 226.1462 166.651942 
L 227.438957 166.86573 
L 230.30149 167.240045 
L 231.778926 167.272645 
L 233.117852 167.123411 
L 234.17976 167.289265 
L 236.765273 167.607123 
L 238.889088 167.562766 
L 239.997165 167.434437 
L 241.059072 167.61136 
L 242.351829 167.759843 
L 245.58372 167.806028 
L 246.784137 167.650618 
L 247.984554 167.783652 
L 249.78518 168.051048 
L 252.370693 168.027539 
L 254.032809 167.738908 
L 256.295133 167.698055 
L 259.296175 167.192656 
L 260.681272 166.752667 
L 263.820824 166.01797 
L 268.068453 164.482781 
L 270.469287 163.959975 
L 273.14714 163.090706 
L 274.901595 162.564311 
L 280.672831 161.276947 
L 282.704305 160.81499 
L 286.028537 160.05305 
L 287.275124 159.926934 
L 288.66022 159.789271 
L 293.877417 158.950276 
L 295.447193 158.810827 
L 300.018011 158.084191 
L 301.126088 158.083109 
L 302.141826 158.065564 
L 303.342243 157.848589 
L 305.512227 157.464087 
L 308.05157 157.368175 
L 309.482837 157.405735 
L 310.590914 157.115016 
L 311.745161 156.909586 
L 314.330674 156.798406 
L 315.715771 156.89099 
L 320.332759 156.370271 
L 321.348496 156.431638 
L 322.364234 156.565168 
L 323.518481 156.39369 
L 324.995917 156.181835 
L 327.535261 156.072574 
L 328.458658 156.142431 
L 329.474396 156.29853 
L 330.674812 156.158249 
L 333.306496 155.873786 
L 335.753499 156.099526 
L 336.584557 156.171172 
L 337.461785 156.017458 
L 338.708372 155.836771 
L 340.324318 155.877821 
L 342.171113 156.2749 
L 343.4177 156.630315 
L 345.495345 156.779929 
L 347.11129 157.046712 
L 348.450217 157.488798 
L 349.373615 157.933903 
L 350.435522 158.349235 
L 353.067205 159.069105 
L 357.591854 160.38987 
L 363.086069 161.883359 
L 366.456471 162.624687 
L 369.780702 163.33741 
L 371.766007 163.684604 
L 373.335783 164.017815 
L 373.335783 164.017815 
" clip-path="url(#pf32d422a83)" style="fill: none; stroke: #008000; stroke-linecap: round"/>
   </g>
   <g id="line2d_78">
    <path d="M 54.163391 161.899254 
L 55.733167 161.962805 
L 56.795074 162.244431 
L 58.087831 162.841843 
L 61.319723 164.668913 
L 62.935668 165.734902 
L 68.383714 168.907287 
L 70.738378 171.036613 
L 72.723683 172.014367 
L 73.277722 172.12163 
L 74.478139 172.143497 
L 75.124517 172.411271 
L 76.094085 173.082158 
L 78.171729 174.520453 
L 79.880015 175.380274 
L 80.341714 175.289244 
L 81.218942 175.110177 
L 81.86532 175.38181 
L 84.358494 176.700069 
L 85.374231 176.886149 
L 87.128686 177.156359 
L 87.913574 176.878855 
L 88.606123 176.90453 
L 89.48335 177.160482 
L 90.683767 177.405511 
L 91.283976 177.375021 
L 92.115034 177.201391 
L 92.992261 176.778768 
L 93.869489 176.247909 
L 95.439265 174.759554 
L 97.47074 173.753285 
L 98.486477 172.9429 
L 99.640724 171.730236 
L 102.595597 168.710524 
L 104.350052 167.461537 
L 111.783403 161.211028 
L 113.907218 159.901411 
L 115.153805 159.207527 
L 116.538901 158.446061 
L 117.646978 157.612928 
L 118.939735 156.671548 
L 120.78653 155.695547 
L 121.617588 155.413371 
L 123.002685 155.138506 
L 123.833742 154.742996 
L 126.880955 153.243314 
L 128.54307 152.774338 
L 129.558808 152.662325 
L 130.528375 152.219335 
L 132.051981 151.368024 
L 133.714097 150.865947 
L 135.237703 150.599156 
L 136.253441 150.745791 
L 136.807479 150.567996 
L 139.300653 149.482191 
L 141.285958 149.01577 
L 142.163185 148.945998 
L 143.225093 149.191232 
L 143.871471 149.07179 
L 145.579757 148.246715 
L 146.549324 147.926315 
L 148.21144 147.71103 
L 149.134838 147.753515 
L 150.335254 148.174118 
L 150.889293 148.06906 
L 151.858861 147.672608 
L 153.567146 147.103317 
L 155.460111 146.842183 
L 155.92181 146.916114 
L 156.937548 147.334597 
L 157.537756 147.289374 
L 161.139007 146.484113 
L 162.708783 146.543529 
L 164.417068 147.141445 
L 165.063447 146.94549 
L 166.633223 146.301158 
L 168.064489 146.092132 
L 169.034057 146.191192 
L 169.634265 146.401858 
L 171.250211 147.57092 
L 172.404458 147.664219 
L 174.389763 148.006472 
L 175.4055 148.378255 
L 176.513577 148.990487 
L 178.591222 150.827756 
L 180.345678 151.939459 
L 184.593307 155.657589 
L 187.3635 157.370045 
L 190.595391 159.869662 
L 192.118997 160.892707 
L 194.427492 162.223305 
L 202.276371 166.389047 
L 203.984657 167.028417 
L 206.339321 167.70283 
L 208.186116 168.505232 
L 210.72546 169.461985 
L 211.187159 169.520939 
L 212.295236 169.6261 
L 213.634162 170.194268 
L 214.742239 170.637459 
L 216.450525 171.116133 
L 217.974131 171.414645 
L 219.082208 171.354841 
L 219.913266 171.641809 
L 222.40644 172.742785 
L 224.945783 173.012062 
L 225.961521 172.808935 
L 226.561729 172.944095 
L 227.762146 173.45273 
L 228.962563 173.920417 
L 231.040208 174.301998 
L 231.686586 174.289013 
L 233.164022 173.917629 
L 233.671891 174.072702 
L 235.841875 174.886166 
L 237.688671 175.087254 
L 238.750578 174.99632 
L 239.812485 174.619213 
L 240.412694 174.716771 
L 242.582678 175.414398 
L 244.660323 175.681331 
L 245.537551 175.509926 
L 246.368608 175.159042 
L 247.107327 175.160991 
L 247.938384 175.413924 
L 249.78518 176.048454 
L 252.001334 176.092527 
L 252.463033 175.94036 
L 253.61728 175.371791 
L 254.494508 175.370785 
L 255.417905 175.414699 
L 256.248963 175.247356 
L 258.280438 174.622279 
L 259.480855 173.906082 
L 260.265743 173.297336 
L 261.096801 172.892899 
L 263.128276 171.963133 
L 264.005503 171.190676 
L 267.422075 168.144829 
L 268.483982 167.665221 
L 270.007588 166.911672 
L 271.900553 165.584408 
L 275.455634 163.087301 
L 277.487109 161.972425 
L 280.719 160.429776 
L 282.011757 159.792581 
L 286.721085 157.384705 
L 287.505973 157.325301 
L 288.337031 157.150198 
L 289.675958 156.529022 
L 291.892112 155.589675 
L 293.046359 155.214367 
L 294.200606 155.057027 
L 295.354853 154.801938 
L 296.232081 154.398465 
L 298.171216 153.549038 
L 299.510142 153.186688 
L 300.849069 153.046832 
L 301.864806 153.092536 
L 302.788204 152.860271 
L 303.896281 152.254016 
L 304.912018 151.823803 
L 307.405192 151.285868 
L 309.529007 151.515369 
L 310.313895 151.04387 
L 311.144953 150.574478 
L 312.02218 150.335275 
L 313.591956 150.11814 
L 314.653864 150.25811 
L 315.254072 150.383169 
L 315.715771 150.347477 
L 317.147037 149.792323 
L 317.978095 149.452029 
L 318.762983 149.343882 
L 320.148079 149.175854 
L 320.748288 149.137144 
L 321.256157 149.24232 
L 322.133384 149.591991 
L 322.595083 149.553248 
L 323.472311 149.223578 
L 324.718898 148.764864 
L 325.642295 148.624787 
L 326.888882 148.49627 
L 328.043129 148.435403 
L 328.504828 148.651399 
L 329.151206 148.946322 
L 329.705245 148.955546 
L 330.674812 148.660017 
L 332.890967 148.010346 
L 333.491175 148.031457 
L 334.737762 148.121521 
L 335.153291 148.191848 
L 336.538387 148.697429 
L 337.184766 148.492162 
L 338.385183 147.957904 
L 339.077731 147.878595 
L 339.908789 147.910649 
L 340.601337 148.127823 
L 342.124943 148.891185 
L 343.27919 149.695283 
L 343.971738 149.876555 
L 345.356835 150.063596 
L 346.788101 150.518693 
L 347.896178 151.27038 
L 348.958086 152.258031 
L 350.066163 153.430218 
L 351.589769 154.461046 
L 354.082943 156.020033 
L 356.714626 157.78776 
L 359.715668 159.835238 
L 362.578201 161.608498 
L 370.65793 165.465266 
L 372.366216 166.280124 
L 373.335783 166.760149 
L 373.335783 166.760149 
" clip-path="url(#pf32d422a83)" style="fill: none; stroke: #ff0000; stroke-linecap: round"/>
   </g>
   <g id="patch_9">
    <path d="M 38.204771 185.625242 
L 38.204771 134.121634 
" style="fill: none; stroke: #000000; stroke-linejoin: miter; stroke-linecap: square"/>
   </g>
   <g id="patch_10">
    <path d="M 38.204771 185.625242 
L 389.294403 185.625242 
" style="fill: none; stroke: #000000; stroke-linejoin: miter; stroke-linecap: square"/>
   </g>
  </g>
  <g id="axes_4">
   <g id="patch_11">
    <path d="M 38.204771 245.679135 
L 389.294403 245.679135 
L 389.294403 194.175528 
L 38.204771 194.175528 
z
" style="fill: #ffffff"/>
   </g>
   <g id="matplotlib.axis_7">
    <g id="xtick_25">
     <g id="line2d_79">
      <path d="M 54.163391 245.679135 
L 54.163391 194.175528 
" clip-path="url(#p2317cd9772)" style="fill: none; stroke: #b0b0b0; stroke-width: 0.8; stroke-linecap: round"/>
     </g>
     <g id="line2d_80"/>
     <g id="text_16">
      <!-- 0 -->
      <g style="fill: #262626" transform="translate(51.300266 256.017729) scale(0.09 -0.09)">
       <use xlink:href="#DejaVuSerif-30"/>
      </g>
     </g>
    </g>
    <g id="xtick_26">
     <g id="line2d_81">
      <path d="M 100.644697 245.679135 
L 100.644697 194.175528 
" clip-path="url(#p2317cd9772)" style="fill: none; stroke: #b0b0b0; stroke-width: 0.8; stroke-linecap: round"/>
     </g>
     <g id="line2d_82"/>
     <g id="text_17">
      <!-- 10 -->
      <g style="fill: #262626" transform="translate(94.918447 256.017729) scale(0.09 -0.09)">
       <defs>
        <path id="DejaVuSerif-31" d="M 909 0 
L 909 331 
L 1722 331 
L 1722 4213 
L 781 3603 
L 781 4013 
L 1919 4750 
L 2350 4750 
L 2350 331 
L 3163 331 
L 3163 0 
L 909 0 
z
" transform="scale(0.015625)"/>
       </defs>
       <use xlink:href="#DejaVuSerif-31"/>
       <use xlink:href="#DejaVuSerif-30" x="63.623047"/>
      </g>
     </g>
    </g>
    <g id="xtick_27">
     <g id="line2d_83">
      <path d="M 147.126004 245.679135 
L 147.126004 194.175528 
" clip-path="url(#p2317cd9772)" style="fill: none; stroke: #b0b0b0; stroke-width: 0.8; stroke-linecap: round"/>
     </g>
     <g id="line2d_84"/>
     <g id="text_18">
      <!-- 20 -->
      <g style="fill: #262626" transform="translate(141.399754 256.017729) scale(0.09 -0.09)">
       <defs>
        <path id="DejaVuSerif-32" d="M 819 3553 
L 469 3553 
L 469 4384 
Q 803 4563 1142 4656 
Q 1481 4750 1806 4750 
Q 2534 4750 2956 4397 
Q 3378 4044 3378 3438 
Q 3378 2753 2422 1800 
Q 2347 1728 2309 1691 
L 1131 513 
L 3078 513 
L 3078 1088 
L 3444 1088 
L 3444 0 
L 434 0 
L 434 341 
L 1850 1753 
Q 2319 2222 2519 2614 
Q 2719 3006 2719 3438 
Q 2719 3909 2473 4175 
Q 2228 4441 1797 4441 
Q 1350 4441 1106 4219 
Q 863 3997 819 3553 
z
" transform="scale(0.015625)"/>
       </defs>
       <use xlink:href="#DejaVuSerif-32"/>
       <use xlink:href="#DejaVuSerif-30" x="63.623047"/>
      </g>
     </g>
    </g>
    <g id="xtick_28">
     <g id="line2d_85">
      <path d="M 193.60731 245.679135 
L 193.60731 194.175528 
" clip-path="url(#p2317cd9772)" style="fill: none; stroke: #b0b0b0; stroke-width: 0.8; stroke-linecap: round"/>
     </g>
     <g id="line2d_86"/>
     <g id="text_19">
      <!-- 30 -->
      <g style="fill: #262626" transform="translate(187.88106 256.017729) scale(0.09 -0.09)">
       <defs>
        <path id="DejaVuSerif-33" d="M 622 4469 
Q 988 4606 1323 4678 
Q 1659 4750 1953 4750 
Q 2638 4750 3022 4454 
Q 3406 4159 3406 3634 
Q 3406 3213 3140 2930 
Q 2875 2647 2388 2547 
Q 2963 2466 3280 2130 
Q 3597 1794 3597 1259 
Q 3597 606 3158 257 
Q 2719 -91 1894 -91 
Q 1528 -91 1179 -12 
Q 831 66 488 225 
L 488 1131 
L 838 1131 
Q 869 681 1141 450 
Q 1413 219 1906 219 
Q 2384 219 2661 495 
Q 2938 772 2938 1253 
Q 2938 1803 2653 2086 
Q 2369 2369 1819 2369 
L 1522 2369 
L 1522 2688 
L 1678 2688 
Q 2225 2688 2498 2914 
Q 2772 3141 2772 3597 
Q 2772 4006 2547 4223 
Q 2322 4441 1900 4441 
Q 1478 4441 1245 4241 
Q 1013 4041 972 3647 
L 622 3647 
L 622 4469 
z
" transform="scale(0.015625)"/>
       </defs>
       <use xlink:href="#DejaVuSerif-33"/>
       <use xlink:href="#DejaVuSerif-30" x="63.623047"/>
      </g>
     </g>
    </g>
    <g id="xtick_29">
     <g id="line2d_87">
      <path d="M 240.088617 245.679135 
L 240.088617 194.175528 
" clip-path="url(#p2317cd9772)" style="fill: none; stroke: #b0b0b0; stroke-width: 0.8; stroke-linecap: round"/>
     </g>
     <g id="line2d_88"/>
     <g id="text_20">
      <!-- 40 -->
      <g style="fill: #262626" transform="translate(234.362367 256.017729) scale(0.09 -0.09)">
       <defs>
        <path id="DejaVuSerif-34" d="M 2234 1581 
L 2234 4063 
L 641 1581 
L 2234 1581 
z
M 3609 0 
L 1484 0 
L 1484 331 
L 2234 331 
L 2234 1247 
L 197 1247 
L 197 1588 
L 2241 4750 
L 2859 4750 
L 2859 1581 
L 3750 1581 
L 3750 1247 
L 2859 1247 
L 2859 331 
L 3609 331 
L 3609 0 
z
" transform="scale(0.015625)"/>
       </defs>
       <use xlink:href="#DejaVuSerif-34"/>
       <use xlink:href="#DejaVuSerif-30" x="63.623047"/>
      </g>
     </g>
    </g>
    <g id="xtick_30">
     <g id="line2d_89">
      <path d="M 286.569923 245.679135 
L 286.569923 194.175528 
" clip-path="url(#p2317cd9772)" style="fill: none; stroke: #b0b0b0; stroke-width: 0.8; stroke-linecap: round"/>
     </g>
     <g id="line2d_90"/>
     <g id="text_21">
      <!-- 50 -->
      <g style="fill: #262626" transform="translate(280.843673 256.017729) scale(0.09 -0.09)">
       <use xlink:href="#DejaVuSerif-35"/>
       <use xlink:href="#DejaVuSerif-30" x="63.623047"/>
      </g>
     </g>
    </g>
    <g id="xtick_31">
     <g id="line2d_91">
      <path d="M 333.05123 245.679135 
L 333.05123 194.175528 
" clip-path="url(#p2317cd9772)" style="fill: none; stroke: #b0b0b0; stroke-width: 0.8; stroke-linecap: round"/>
     </g>
     <g id="line2d_92"/>
     <g id="text_22">
      <!-- 60 -->
      <g style="fill: #262626" transform="translate(327.32498 256.017729) scale(0.09 -0.09)">
       <defs>
        <path id="DejaVuSerif-36" d="M 2094 219 
Q 2534 219 2771 542 
Q 3009 866 3009 1472 
Q 3009 2078 2771 2401 
Q 2534 2725 2094 2725 
Q 1647 2725 1412 2412 
Q 1178 2100 1178 1509 
Q 1178 888 1415 553 
Q 1653 219 2094 219 
z
M 1075 2569 
Q 1288 2803 1556 2918 
Q 1825 3034 2163 3034 
Q 2859 3034 3264 2615 
Q 3669 2197 3669 1472 
Q 3669 763 3233 336 
Q 2797 -91 2069 -91 
Q 1278 -91 853 498 
Q 428 1088 428 2181 
Q 428 3406 931 4078 
Q 1434 4750 2350 4750 
Q 2597 4750 2869 4703 
Q 3141 4656 3425 4563 
L 3425 3794 
L 3072 3794 
Q 3034 4109 2831 4275 
Q 2628 4441 2284 4441 
Q 1678 4441 1381 3981 
Q 1084 3522 1075 2569 
z
" transform="scale(0.015625)"/>
       </defs>
       <use xlink:href="#DejaVuSerif-36"/>
       <use xlink:href="#DejaVuSerif-30" x="63.623047"/>
      </g>
     </g>
    </g>
    <g id="xtick_32">
     <g id="line2d_93">
      <path d="M 379.532536 245.679135 
L 379.532536 194.175528 
" clip-path="url(#p2317cd9772)" style="fill: none; stroke: #b0b0b0; stroke-width: 0.8; stroke-linecap: round"/>
     </g>
     <g id="line2d_94"/>
     <g id="text_23">
      <!-- 70 -->
      <g style="fill: #262626" transform="translate(373.806286 256.017729) scale(0.09 -0.09)">
       <defs>
        <path id="DejaVuSerif-37" d="M 3609 4347 
L 1784 0 
L 1319 0 
L 3059 4153 
L 903 4153 
L 903 3578 
L 538 3578 
L 538 4666 
L 3609 4666 
L 3609 4347 
z
" transform="scale(0.015625)"/>
       </defs>
       <use xlink:href="#DejaVuSerif-37"/>
       <use xlink:href="#DejaVuSerif-30" x="63.623047"/>
      </g>
     </g>
    </g>
    <g id="text_24">
     <!-- Time [s] -->
     <g style="fill: #262626" transform="translate(195.127321 268.728041) scale(0.09 -0.09)">
      <defs>
       <path id="DejaVuSerif-54" d="M 1222 0 
L 1222 331 
L 1819 331 
L 1819 4294 
L 447 4294 
L 447 3566 
L 63 3566 
L 63 4666 
L 4206 4666 
L 4206 3566 
L 3822 3566 
L 3822 4294 
L 2450 4294 
L 2450 331 
L 3047 331 
L 3047 0 
L 1222 0 
z
" transform="scale(0.015625)"/>
       <path id="DejaVuSerif-5b" d="M 550 4863 
L 2003 4863 
L 2003 4531 
L 1147 4531 
L 1147 -513 
L 2003 -513 
L 2003 -844 
L 550 -844 
L 550 4863 
z
" transform="scale(0.015625)"/>
       <path id="DejaVuSerif-5d" d="M 1947 4863 
L 1947 -844 
L 494 -844 
L 494 -513 
L 1350 -513 
L 1350 4531 
L 494 4531 
L 494 4863 
L 1947 4863 
z
" transform="scale(0.015625)"/>
      </defs>
      <use xlink:href="#DejaVuSerif-54"/>
      <use xlink:href="#DejaVuSerif-69" x="66.699219"/>
      <use xlink:href="#DejaVuSerif-6d" x="98.681641"/>
      <use xlink:href="#DejaVuSerif-65" x="193.505859"/>
      <use xlink:href="#DejaVuSerif-20" x="252.685547"/>
      <use xlink:href="#DejaVuSerif-5b" x="284.472656"/>
      <use xlink:href="#DejaVuSerif-73" x="323.486328"/>
      <use xlink:href="#DejaVuSerif-5d" x="374.804688"/>
     </g>
    </g>
   </g>
   <g id="matplotlib.axis_8">
    <g id="ytick_10">
     <g id="line2d_95">
      <path d="M 38.204771 242.948973 
L 389.294403 242.948973 
" clip-path="url(#p2317cd9772)" style="fill: none; stroke: #b0b0b0; stroke-width: 0.8; stroke-linecap: round"/>
     </g>
     <g id="line2d_96"/>
     <g id="text_25">
      <!-- −50 -->
      <g style="fill: #262626" transform="translate(15.710552 246.36827) scale(0.09 -0.09)">
       <use xlink:href="#DejaVuSerif-2212"/>
       <use xlink:href="#DejaVuSerif-35" x="83.789062"/>
       <use xlink:href="#DejaVuSerif-30" x="147.412109"/>
      </g>
     </g>
    </g>
    <g id="ytick_11">
     <g id="line2d_97">
      <path d="M 38.204771 221.966985 
L 389.294403 221.966985 
" clip-path="url(#p2317cd9772)" style="fill: none; stroke: #b0b0b0; stroke-width: 0.8; stroke-linecap: round"/>
     </g>
     <g id="line2d_98"/>
     <g id="text_26">
      <!-- 0 -->
      <g style="fill: #262626" transform="translate(28.978521 225.386282) scale(0.09 -0.09)">
       <use xlink:href="#DejaVuSerif-30"/>
      </g>
     </g>
    </g>
    <g id="ytick_12">
     <g id="line2d_99">
      <path d="M 38.204771 200.984997 
L 389.294403 200.984997 
" clip-path="url(#p2317cd9772)" style="fill: none; stroke: #b0b0b0; stroke-width: 0.8; stroke-linecap: round"/>
     </g>
     <g id="line2d_100"/>
     <g id="text_27">
      <!-- 50 -->
      <g style="fill: #262626" transform="translate(23.252271 204.404294) scale(0.09 -0.09)">
       <use xlink:href="#DejaVuSerif-35"/>
       <use xlink:href="#DejaVuSerif-30" x="63.623047"/>
      </g>
     </g>
    </g>
    <g id="text_28">
     <!-- $Y_H(r)$ -->
     <g style="fill: #262626" transform="translate(9.838834 230.547331) rotate(-90) scale(0.09 -0.09)">
      <use xlink:href="#DejaVuSans-Oblique-59" transform="translate(0 0.125)"/>
      <use xlink:href="#DejaVuSans-Oblique-48" transform="translate(61.083984 -16.28125) scale(0.7)"/>
      <use xlink:href="#DejaVuSans-28" transform="translate(116.455078 0.125)"/>
      <use xlink:href="#DejaVuSans-Oblique-72" transform="translate(155.46875 0.125)"/>
      <use xlink:href="#DejaVuSans-29" transform="translate(196.582031 0.125)"/>
     </g>
    </g>
   </g>
   <g id="line2d_101">
    <path d="M 54.163391 221.966985 
L 373.335783 221.966985 
L 373.335783 221.966985 
" clip-path="url(#p2317cd9772)" style="fill: none; stroke: #0000ff; stroke-linecap: round"/>
   </g>
   <g id="line2d_102">
    <path d="M 54.163391 221.966985 
L 373.335783 221.966985 
L 373.335783 221.966985 
" clip-path="url(#p2317cd9772)" style="fill: none; stroke: #008000; stroke-linecap: round"/>
   </g>
   <g id="line2d_103">
    <path d="M 54.163391 221.966985 
L 373.335783 221.966985 
L 373.335783 221.966985 
" clip-path="url(#p2317cd9772)" style="fill: none; stroke: #ff0000; stroke-linecap: round"/>
   </g>
   <g id="patch_12">
    <path d="M 38.204771 245.679135 
L 38.204771 194.175528 
" style="fill: none; stroke: #000000; stroke-linejoin: miter; stroke-linecap: square"/>
   </g>
   <g id="patch_13">
    <path d="M 38.204771 245.679135 
L 389.294403 245.679135 
" style="fill: none; stroke: #000000; stroke-linejoin: miter; stroke-linecap: square"/>
   </g>
  </g>
 </g>
 <defs>
  <clipPath id="p8be62774c6">
   <rect x="38.204771" y="14.013848" width="351.089632" height="51.503607"/>
  </clipPath>
  <clipPath id="pd7d43ace30">
   <rect x="38.204771" y="74.067741" width="351.089632" height="51.503607"/>
  </clipPath>
  <clipPath id="pf32d422a83">
   <rect x="38.204771" y="134.121634" width="351.089632" height="51.503607"/>
  </clipPath>
  <clipPath id="p2317cd9772">
   <rect x="38.204771" y="194.175528" width="351.089632" height="51.503607"/>
  </clipPath>
 </defs>
</svg>
