<?xml version="1.0" encoding="utf-8" standalone="no"?>
<!DOCTYPE svg PUBLIC "-//W3C//DTD SVG 1.1//EN"
  "http://www.w3.org/Graphics/SVG/1.1/DTD/svg11.dtd">
<svg xmlns:xlink="http://www.w3.org/1999/xlink" width="388.971094pt" height="266.540625pt" viewBox="0 0 388.971094 266.540625" xmlns="http://www.w3.org/2000/svg" version="1.1">
 <metadata>
  <rdf:RDF xmlns:dc="http://purl.org/dc/elements/1.1/" xmlns:cc="http://creativecommons.org/ns#" xmlns:rdf="http://www.w3.org/1999/02/22-rdf-syntax-ns#">
   <cc:Work>
    <dc:type rdf:resource="http://purl.org/dc/dcmitype/StillImage"/>
    <dc:date>2024-02-12T14:02:39.401951</dc:date>
    <dc:format>image/svg+xml</dc:format>
    <dc:creator>
     <cc:Agent>
      <dc:title>Matplotlib v3.8.2, https://matplotlib.org/</dc:title>
     </cc:Agent>
    </dc:creator>
   </cc:Work>
  </rdf:RDF>
 </metadata>
 <defs>
  <style type="text/css">*{stroke-linejoin: round; stroke-linecap: butt}</style>
 </defs>
 <g id="figure_1">
  <g id="patch_1">
   <path d="M -0 266.540625 
L 388.971094 266.540625 
L 388.971094 0 
L -0 0 
z
" style="fill: #ffffff"/>
  </g>
  <g id="axes_1">
   <g id="patch_2">
    <path d="M 50.991094 82.94 
L 381.771094 82.94 
L 381.771094 7.2 
L 50.991094 7.2 
z
" style="fill: #ffffff"/>
   </g>
   <g id="line2d_1">
    <path d="M 66.026548 45.217396 
L 68.165171 45.270338 
L 69.59092 45.537624 
L 71.087956 46.056945 
L 73.725591 47.280861 
L 75.436489 48.160685 
L 79.85631 50.748117 
L 84.276131 52.97703 
L 86.200892 54.231165 
L 88.553377 55.937985 
L 91.690024 58.183391 
L 94.256371 59.468071 
L 98.034605 60.917407 
L 99.888078 61.790664 
L 102.810863 63.506445 
L 105.591073 65.045487 
L 107.088109 65.666816 
L 110.010894 66.774059 
L 112.006942 67.419636 
L 115.286164 68.487333 
L 118.707961 69.59204 
L 120.204997 69.679671 
L 121.630745 69.568389 
L 123.484218 69.291608 
L 125.337692 68.830378 
L 127.904039 67.804081 
L 129.686225 66.78317 
L 132.822872 64.638389 
L 134.605058 63.096022 
L 136.957543 60.634148 
L 138.882304 58.689799 
L 154.422964 44.4906 
L 157.131886 42.627451 
L 158.771497 41.553563 
L 164.617067 37.471128 
L 165.828953 36.597674 
L 168.537875 35.048175 
L 170.605211 33.999276 
L 172.815121 33.180947 
L 174.169583 32.653658 
L 185.718147 27.314721 
L 187.928057 26.561368 
L 190.280542 25.892351 
L 192.062728 25.428301 
L 194.272638 24.524757 
L 195.840962 23.929698 
L 203.326142 21.586025 
L 204.751891 21.315788 
L 206.320214 20.92242 
L 210.526173 19.674768 
L 214.019257 18.945594 
L 216.300455 18.554483 
L 226.066833 16.490068 
L 227.706444 16.323097 
L 229.631205 16.027116 
L 234.550037 15.358545 
L 236.97381 15.081344 
L 242.81938 14.466532 
L 244.815428 14.754971 
L 246.241176 15.226672 
L 248.165937 16.144785 
L 250.732285 17.36964 
L 253.36992 18.47763 
L 254.795668 19.270883 
L 255.936267 20.109886 
L 257.718453 21.719739 
L 260.498663 24.659852 
L 264.633334 29.696676 
L 265.987795 30.912621 
L 269.979891 34.266947 
L 275.183874 39.766961 
L 277.607646 41.941992 
L 281.95618 45.400051 
L 284.950252 47.521881 
L 287.944324 49.546385 
L 294.003756 53.445285 
L 296.997828 54.966806 
L 299.421601 56.076352 
L 304.483008 58.226829 
L 308.261242 60.115301 
L 310.471153 61.034518 
L 311.968189 61.430601 
L 313.750374 62.008893 
L 316.316722 62.964509 
L 319.310794 64.040294 
L 320.879118 64.508677 
L 323.30289 65.334083 
L 326.296962 66.441563 
L 341.124748 70.223188 
L 343.619808 70.732591 
L 346.400018 71.294562 
L 348.609929 71.718646 
L 349.96439 71.935896 
L 360.372355 73.567712 
L 362.796128 73.831209 
L 366.716936 74.287622 
L 366.716936 74.287622 
" clip-path="url(#pd99128e8c2)" style="fill: none; stroke: #000000; stroke-linecap: round"/>
   </g>
   <g id="matplotlib.axis_1">
    <g id="xtick_1">
     <g id="line2d_2">
      <path d="M 66.026548 82.94 
L 66.026548 7.2 
" clip-path="url(#pd99128e8c2)" style="fill: none; stroke: #b0b0b0; stroke-width: 0.8; stroke-linecap: round"/>
     </g>
     <g id="line2d_3"/>
    </g>
    <g id="xtick_2">
     <g id="line2d_4">
      <path d="M 137.794828 82.94 
L 137.794828 7.2 
" clip-path="url(#pd99128e8c2)" style="fill: none; stroke: #b0b0b0; stroke-width: 0.8; stroke-linecap: round"/>
     </g>
     <g id="line2d_5"/>
    </g>
    <g id="xtick_3">
     <g id="line2d_6">
      <path d="M 209.563107 82.94 
L 209.563107 7.2 
" clip-path="url(#pd99128e8c2)" style="fill: none; stroke: #b0b0b0; stroke-width: 0.8; stroke-linecap: round"/>
     </g>
     <g id="line2d_7"/>
    </g>
    <g id="xtick_4">
     <g id="line2d_8">
      <path d="M 281.331387 82.94 
L 281.331387 7.2 
" clip-path="url(#pd99128e8c2)" style="fill: none; stroke: #b0b0b0; stroke-width: 0.8; stroke-linecap: round"/>
     </g>
     <g id="line2d_9"/>
    </g>
    <g id="xtick_5">
     <g id="line2d_10">
      <path d="M 353.099666 82.94 
L 353.099666 7.2 
" clip-path="url(#pd99128e8c2)" style="fill: none; stroke: #b0b0b0; stroke-width: 0.8; stroke-linecap: round"/>
     </g>
     <g id="line2d_11"/>
    </g>
   </g>
   <g id="matplotlib.axis_2">
    <g id="ytick_1">
     <g id="line2d_12">
      <path d="M 50.991094 68.801184 
L 381.771094 68.801184 
" clip-path="url(#pd99128e8c2)" style="fill: none; stroke: #b0b0b0; stroke-width: 0.8; stroke-linecap: round"/>
     </g>
     <g id="line2d_13"/>
     <g id="text_1">
      <!-- −10 -->
      <g style="fill: #262626" transform="translate(28.496875 72.220481) scale(0.09 -0.09)">
       <defs>
        <path id="DejaVuSerif-2212" d="M 678 2259 
L 4684 2259 
L 4684 1753 
L 678 1753 
L 678 2259 
z
" transform="scale(0.015625)"/>
        <path id="DejaVuSerif-31" d="M 909 0 
L 909 331 
L 1722 331 
L 1722 4213 
L 781 3603 
L 781 4013 
L 1919 4750 
L 2350 4750 
L 2350 331 
L 3163 331 
L 3163 0 
L 909 0 
z
" transform="scale(0.015625)"/>
        <path id="DejaVuSerif-30" d="M 2034 219 
Q 2513 219 2750 744 
Q 2988 1269 2988 2328 
Q 2988 3391 2750 3916 
Q 2513 4441 2034 4441 
Q 1556 4441 1318 3916 
Q 1081 3391 1081 2328 
Q 1081 1269 1318 744 
Q 1556 219 2034 219 
z
M 2034 -91 
Q 1275 -91 848 546 
Q 422 1184 422 2328 
Q 422 3475 848 4112 
Q 1275 4750 2034 4750 
Q 2797 4750 3222 4112 
Q 3647 3475 3647 2328 
Q 3647 1184 3222 546 
Q 2797 -91 2034 -91 
z
" transform="scale(0.015625)"/>
       </defs>
       <use xlink:href="#DejaVuSerif-2212"/>
       <use xlink:href="#DejaVuSerif-31" x="83.789062"/>
       <use xlink:href="#DejaVuSerif-30" x="147.412109"/>
      </g>
     </g>
    </g>
    <g id="ytick_2">
     <g id="line2d_14">
      <path d="M 50.991094 45.236985 
L 381.771094 45.236985 
" clip-path="url(#pd99128e8c2)" style="fill: none; stroke: #b0b0b0; stroke-width: 0.8; stroke-linecap: round"/>
     </g>
     <g id="line2d_15"/>
     <g id="text_2">
      <!-- 0 -->
      <g style="fill: #262626" transform="translate(41.764844 48.656282) scale(0.09 -0.09)">
       <use xlink:href="#DejaVuSerif-30"/>
      </g>
     </g>
    </g>
    <g id="ytick_3">
     <g id="line2d_16">
      <path d="M 50.991094 21.672786 
L 381.771094 21.672786 
" clip-path="url(#pd99128e8c2)" style="fill: none; stroke: #b0b0b0; stroke-width: 0.8; stroke-linecap: round"/>
     </g>
     <g id="line2d_17"/>
     <g id="text_3">
      <!-- 10 -->
      <g style="fill: #262626" transform="translate(36.038594 25.092082) scale(0.09 -0.09)">
       <use xlink:href="#DejaVuSerif-31"/>
       <use xlink:href="#DejaVuSerif-30" x="63.623047"/>
      </g>
     </g>
    </g>
    <g id="text_4">
     <!-- $\beta$ $[deg]$ -->
     <g style="fill: #262626" transform="translate(22.606875 61.405) rotate(-90) scale(0.09 -0.09)">
      <defs>
       <path id="DejaVuSans-Oblique-3b2" d="M 872 216 
L 572 -1331 
L -6 -1331 
L 928 3478 
Q 1206 4903 2538 4903 
Q 3888 4903 3659 3700 
Q 3503 2844 2894 2531 
Q 3713 2250 3553 1416 
Q 3272 -69 1759 -66 
Q 1097 -63 872 216 
z
M 1019 966 
Q 1259 422 1875 425 
Q 2775 425 2966 1406 
Q 3138 2288 1675 2219 
L 1778 2750 
Q 2909 2731 3106 3750 
Q 3241 4438 2509 4434 
Q 1691 4434 1503 3459 
L 1019 966 
z
" transform="scale(0.015625)"/>
       <path id="DejaVuSerif-20" transform="scale(0.015625)"/>
       <path id="DejaVuSans-5b" d="M 550 4863 
L 1875 4863 
L 1875 4416 
L 1125 4416 
L 1125 -397 
L 1875 -397 
L 1875 -844 
L 550 -844 
L 550 4863 
z
" transform="scale(0.015625)"/>
       <path id="DejaVuSans-Oblique-64" d="M 2675 525 
Q 2444 222 2128 65 
Q 1813 -91 1428 -91 
Q 903 -91 598 267 
Q 294 625 294 1247 
Q 294 1766 478 2236 
Q 663 2706 1013 3078 
Q 1244 3325 1534 3454 
Q 1825 3584 2144 3584 
Q 2481 3584 2739 3421 
Q 2997 3259 3138 2956 
L 3513 4863 
L 4091 4863 
L 3144 0 
L 2566 0 
L 2675 525 
z
M 891 1350 
Q 891 897 1095 644 
Q 1300 391 1663 391 
Q 1931 391 2161 520 
Q 2391 650 2566 903 
Q 2750 1166 2856 1509 
Q 2963 1853 2963 2188 
Q 2963 2622 2758 2865 
Q 2553 3109 2194 3109 
Q 1922 3109 1687 2981 
Q 1453 2853 1288 2613 
Q 1106 2353 998 2009 
Q 891 1666 891 1350 
z
" transform="scale(0.015625)"/>
       <path id="DejaVuSans-Oblique-65" d="M 3078 2063 
Q 3088 2113 3092 2166 
Q 3097 2219 3097 2272 
Q 3097 2653 2873 2875 
Q 2650 3097 2266 3097 
Q 1838 3097 1509 2826 
Q 1181 2556 1013 2059 
L 3078 2063 
z
M 3578 1613 
L 903 1613 
Q 884 1494 878 1425 
Q 872 1356 872 1306 
Q 872 872 1139 634 
Q 1406 397 1894 397 
Q 2269 397 2603 481 
Q 2938 566 3225 728 
L 3116 159 
Q 2806 34 2476 -28 
Q 2147 -91 1806 -91 
Q 1078 -91 686 257 
Q 294 606 294 1247 
Q 294 1794 489 2264 
Q 684 2734 1063 3103 
Q 1306 3334 1642 3459 
Q 1978 3584 2356 3584 
Q 2950 3584 3301 3228 
Q 3653 2872 3653 2272 
Q 3653 2128 3634 1964 
Q 3616 1800 3578 1613 
z
" transform="scale(0.015625)"/>
       <path id="DejaVuSans-Oblique-67" d="M 3816 3500 
L 3219 434 
Q 3047 -456 2561 -893 
Q 2075 -1331 1253 -1331 
Q 950 -1331 690 -1286 
Q 431 -1241 206 -1147 
L 313 -588 
Q 525 -725 762 -790 
Q 1000 -856 1269 -856 
Q 1816 -856 2167 -557 
Q 2519 -259 2631 300 
L 2681 563 
Q 2441 288 2122 144 
Q 1803 0 1434 0 
Q 903 0 598 351 
Q 294 703 294 1319 
Q 294 1803 478 2267 
Q 663 2731 997 3091 
Q 1219 3328 1514 3456 
Q 1809 3584 2131 3584 
Q 2484 3584 2746 3420 
Q 3009 3256 3138 2956 
L 3238 3500 
L 3816 3500 
z
M 2950 2216 
Q 2950 2641 2750 2872 
Q 2550 3103 2181 3103 
Q 1953 3103 1747 3012 
Q 1541 2922 1394 2759 
Q 1156 2491 1023 2127 
Q 891 1763 891 1375 
Q 891 944 1092 712 
Q 1294 481 1672 481 
Q 2219 481 2584 976 
Q 2950 1472 2950 2216 
z
" transform="scale(0.015625)"/>
       <path id="DejaVuSans-5d" d="M 1947 4863 
L 1947 -844 
L 622 -844 
L 622 -397 
L 1369 -397 
L 1369 4416 
L 622 4416 
L 622 4863 
L 1947 4863 
z
" transform="scale(0.015625)"/>
      </defs>
      <use xlink:href="#DejaVuSans-Oblique-3b2" transform="translate(0 0.390625)"/>
      <use xlink:href="#DejaVuSerif-20" transform="translate(63.818359 0.390625)"/>
      <use xlink:href="#DejaVuSans-5b" transform="translate(95.605469 0.390625)"/>
      <use xlink:href="#DejaVuSans-Oblique-64" transform="translate(134.619141 0.390625)"/>
      <use xlink:href="#DejaVuSans-Oblique-65" transform="translate(198.095703 0.390625)"/>
      <use xlink:href="#DejaVuSans-Oblique-67" transform="translate(259.619141 0.390625)"/>
      <use xlink:href="#DejaVuSans-5d" transform="translate(323.095703 0.390625)"/>
     </g>
    </g>
   </g>
   <g id="line2d_18">
    <path d="M 66.026548 45.236985 
L 68.107828 45.343381 
L 70.11734 45.66411 
L 72.055084 46.197839 
L 73.992827 46.966017 
L 76.217644 48.102549 
L 84.470996 52.722343 
L 91.934897 56.811962 
L 98.106969 59.958283 
L 104.35081 62.899058 
L 110.809955 65.682298 
L 117.125563 68.179893 
L 120.355136 69.284915 
L 122.149343 69.638768 
L 123.94355 69.76354 
L 125.665989 69.66271 
L 127.460196 69.333212 
L 129.254402 68.781911 
L 131.120378 67.973401 
L 133.058121 66.894695 
L 135.067633 65.51719 
L 137.364218 63.661321 
L 154.660373 48.955036 
L 159.82769 45.043532 
L 165.425615 41.123541 
L 170.592931 37.775811 
L 175.688479 34.749721 
L 181.0711 31.808196 
L 186.812563 28.924894 
L 192.76933 26.17277 
L 199.01317 23.539808 
L 205.615852 20.999162 
L 212.649143 18.528742 
L 220.256581 16.097325 
L 227.576945 13.975938 
L 235.758529 11.842056 
L 240.567004 10.758634 
L 242.289443 10.642727 
L 244.011881 10.746644 
L 245.806088 11.084103 
L 247.600295 11.648732 
L 249.466271 12.475342 
L 251.475782 13.618995 
L 253.628831 15.110646 
L 255.853647 16.933905 
L 258.724379 19.636429 
L 269.704925 30.150864 
L 275.733461 35.590652 
L 280.470167 39.563243 
L 285.493947 43.488151 
L 290.445958 47.08671 
L 295.972116 50.821225 
L 300.995895 53.954744 
L 306.163211 56.903311 
L 312.04821 59.997225 
L 318.076746 62.9207 
L 324.105281 65.601412 
L 330.492658 68.202057 
L 337.597718 70.843866 
L 345.205155 73.422305 
L 352.95613 75.796859 
L 360.420031 77.877196 
L 366.735639 79.497273 
L 366.735639 79.497273 
" clip-path="url(#pd99128e8c2)" style="fill: none; stroke: #0000ff; stroke-linecap: round"/>
   </g>
   <g id="line2d_19">
    <path d="M 66.026548 45.236985 
L 68.179597 45.350877 
L 70.189109 45.678493 
L 72.126852 46.218261 
L 74.136364 47.020567 
L 76.576485 48.271376 
L 93.872641 57.486439 
L 99.614103 60.164207 
L 105.857943 62.818876 
L 112.101784 65.213752 
L 118.202087 67.307067 
L 121.718733 68.334439 
L 123.584708 68.613106 
L 125.378915 68.655133 
L 127.173122 68.476193 
L 128.967329 68.070926 
L 130.833305 67.423773 
L 132.69928 66.55151 
L 134.708792 65.356321 
L 136.86184 63.803167 
L 139.230193 61.807547 
L 152.579093 50.14778 
L 157.459336 46.292406 
L 162.052506 42.953439 
L 167.076286 39.576759 
L 171.741224 36.70462 
L 176.406162 34.096627 
L 181.50171 31.508174 
L 186.884331 29.024688 
L 192.697562 26.592469 
L 198.726097 24.312975 
L 204.826401 22.245524 
L 211.716156 20.145715 
L 219.610666 17.980975 
L 227.289872 16.099116 
L 235.973834 14.204291 
L 241.858833 13.099208 
L 243.65304 13.03539 
L 245.375479 13.183672 
L 247.241454 13.576409 
L 249.107429 14.202512 
L 251.045173 15.089094 
L 253.054685 16.259085 
L 255.135965 17.730051 
L 257.289013 19.522342 
L 260.087976 22.181028 
L 271.570901 33.296511 
L 276.451144 37.69322 
L 281.044314 41.530733 
L 285.709252 45.138293 
L 290.37419 48.46072 
L 295.469738 51.806947 
L 299.991139 54.531115 
L 305.086687 57.306146 
L 310.182235 59.830416 
L 316.067234 62.482947 
L 321.808696 64.823333 
L 328.052537 67.123274 
L 334.58345 69.292364 
L 341.2579 71.267146 
L 349.295947 73.40337 
L 357.692836 75.416688 
L 365.946188 77.172276 
L 365.946188 77.172276 
" clip-path="url(#pd99128e8c2)" style="fill: none; stroke: #008000; stroke-linecap: round"/>
   </g>
   <g id="line2d_20">
    <path d="M 66.026548 45.236985 
L 68.394902 45.346445 
L 70.476182 45.668303 
L 72.270389 46.162488 
L 74.064596 46.889873 
L 75.787034 47.835789 
L 84.255691 52.918147 
L 91.00191 56.721748 
L 96.886908 59.787439 
L 102.556603 62.487691 
L 108.226297 64.939899 
L 114.183064 67.273945 
L 118.91977 68.924703 
L 120.642209 69.270464 
L 122.364648 69.39088 
L 124.087086 69.284907 
L 125.809525 68.955365 
L 127.531964 68.404502 
L 129.326171 67.584785 
L 131.192146 66.477724 
L 133.12989 65.065282 
L 135.139401 63.326211 
L 137.507755 60.941997 
L 143.10568 55.209866 
L 147.842387 50.704484 
L 152.220252 46.837942 
L 156.526349 43.331267 
L 160.832445 40.113751 
L 165.138542 37.172678 
L 169.588176 34.406243 
L 174.39665 31.684365 
L 179.205125 29.211085 
L 184.300673 26.843151 
L 189.683294 24.579761 
L 195.424756 22.41014 
L 201.812133 20.243516 
L 208.19951 18.30227 
L 215.232801 16.40162 
L 223.414385 14.438694 
L 231.452432 12.736276 
L 233.677249 12.406382 
L 235.399688 12.413478 
L 237.122127 12.650039 
L 238.772797 13.09544 
L 240.495236 13.788589 
L 242.289443 14.750382 
L 244.227186 16.053249 
L 246.236698 17.682544 
L 248.389746 19.72715 
L 250.614563 22.151558 
L 258.867915 31.556308 
L 263.389317 36.253439 
L 267.480109 40.181957 
L 271.499132 43.73758 
L 275.589924 47.058233 
L 279.752485 50.150192 
L 284.058581 53.069819 
L 288.508215 55.819518 
L 293.101384 58.398062 
L 297.838091 60.801133 
L 303.148944 63.247214 
L 308.818638 65.608836 
L 314.488332 67.736454 
L 320.660404 69.810901 
L 327.47839 71.860988 
L 334.726987 73.804608 
L 342.334424 75.620259 
L 350.372471 77.310488 
L 352.166678 77.657482 
L 352.166678 77.657482 
" clip-path="url(#pd99128e8c2)" style="fill: none; stroke: #ff0000; stroke-linecap: round"/>
   </g>
   <g id="patch_3">
    <path d="M 50.991094 82.94 
L 50.991094 7.2 
" style="fill: none; stroke: #000000; stroke-linejoin: miter; stroke-linecap: square"/>
   </g>
   <g id="patch_4">
    <path d="M 50.991094 82.94 
L 381.771094 82.94 
" style="fill: none; stroke: #000000; stroke-linejoin: miter; stroke-linecap: square"/>
   </g>
   <g id="legend_1">
    <g id="line2d_21">
     <path d="M 157.815 30.059375 
L 166.815 30.059375 
L 175.815 30.059375 
" style="fill: none; stroke: #000000; stroke-linecap: round"/>
    </g>
    <g id="text_5">
     <!-- Experiment -->
     <g style="fill: #262626" transform="translate(183.015 33.209375) scale(0.09 -0.09)">
      <defs>
       <path id="DejaVuSerif-45" d="M 353 0 
L 353 331 
L 947 331 
L 947 4331 
L 353 4331 
L 353 4666 
L 4109 4666 
L 4109 3628 
L 3725 3628 
L 3725 4281 
L 1581 4281 
L 1581 2719 
L 3109 2719 
L 3109 3303 
L 3494 3303 
L 3494 1753 
L 3109 1753 
L 3109 2338 
L 1581 2338 
L 1581 384 
L 3775 384 
L 3775 1038 
L 4159 1038 
L 4159 0 
L 353 0 
z
" transform="scale(0.015625)"/>
       <path id="DejaVuSerif-78" d="M 1863 2028 
L 2559 2988 
L 2113 2988 
L 2113 3322 
L 3391 3322 
L 3391 2988 
L 2950 2988 
L 2059 1759 
L 3097 331 
L 3531 331 
L 3531 0 
L 1997 0 
L 1997 331 
L 2419 331 
L 1697 1325 
L 972 331 
L 1403 331 
L 1403 0 
L 141 0 
L 141 331 
L 581 331 
L 1497 1594 
L 488 2988 
L 78 2988 
L 78 3322 
L 1563 3322 
L 1563 2988 
L 1166 2988 
L 1863 2028 
z
" transform="scale(0.015625)"/>
       <path id="DejaVuSerif-70" d="M 1313 1825 
L 1313 1497 
Q 1313 897 1542 583 
Q 1772 269 2209 269 
Q 2650 269 2876 622 
Q 3103 975 3103 1663 
Q 3103 2353 2876 2703 
Q 2650 3053 2209 3053 
Q 1772 3053 1542 2737 
Q 1313 2422 1313 1825 
z
M 738 2988 
L 184 2988 
L 184 3322 
L 1313 3322 
L 1313 2803 
Q 1481 3116 1742 3264 
Q 2003 3413 2388 3413 
Q 3000 3413 3387 2928 
Q 3775 2444 3775 1663 
Q 3775 881 3387 395 
Q 3000 -91 2388 -91 
Q 2003 -91 1742 57 
Q 1481 206 1313 519 
L 1313 -997 
L 1856 -997 
L 1856 -1331 
L 184 -1331 
L 184 -997 
L 738 -997 
L 738 2988 
z
" transform="scale(0.015625)"/>
       <path id="DejaVuSerif-65" d="M 3469 1600 
L 991 1600 
L 991 1575 
Q 991 903 1244 561 
Q 1497 219 1991 219 
Q 2369 219 2611 417 
Q 2853 616 2950 1006 
L 3413 1006 
Q 3275 459 2904 184 
Q 2534 -91 1931 -91 
Q 1203 -91 761 389 
Q 319 869 319 1663 
Q 319 2450 753 2931 
Q 1188 3413 1894 3413 
Q 2647 3413 3050 2948 
Q 3453 2484 3469 1600 
z
M 2791 1931 
Q 2772 2513 2545 2808 
Q 2319 3103 1894 3103 
Q 1497 3103 1269 2806 
Q 1041 2509 991 1931 
L 2791 1931 
z
" transform="scale(0.015625)"/>
       <path id="DejaVuSerif-72" d="M 3059 3328 
L 3059 2497 
L 2728 2497 
Q 2713 2744 2591 2866 
Q 2469 2988 2234 2988 
Q 1809 2988 1582 2694 
Q 1356 2400 1356 1850 
L 1356 331 
L 2022 331 
L 2022 0 
L 263 0 
L 263 331 
L 781 331 
L 781 2994 
L 231 2994 
L 231 3322 
L 1356 3322 
L 1356 2731 
Q 1525 3078 1790 3245 
Q 2056 3413 2438 3413 
Q 2578 3413 2733 3391 
Q 2888 3369 3059 3328 
z
" transform="scale(0.015625)"/>
       <path id="DejaVuSerif-69" d="M 622 4353 
Q 622 4497 726 4603 
Q 831 4709 978 4709 
Q 1122 4709 1226 4603 
Q 1331 4497 1331 4353 
Q 1331 4206 1228 4103 
Q 1125 4000 978 4000 
Q 831 4000 726 4103 
Q 622 4206 622 4353 
z
M 1356 331 
L 1900 331 
L 1900 0 
L 231 0 
L 231 331 
L 781 331 
L 781 2988 
L 231 2988 
L 231 3322 
L 1356 3322 
L 1356 331 
z
" transform="scale(0.015625)"/>
       <path id="DejaVuSerif-6d" d="M 3316 2675 
Q 3481 3041 3739 3227 
Q 3997 3413 4341 3413 
Q 4863 3413 5119 3089 
Q 5375 2766 5375 2113 
L 5375 331 
L 5894 331 
L 5894 0 
L 4300 0 
L 4300 331 
L 4800 331 
L 4800 2047 
Q 4800 2556 4650 2772 
Q 4500 2988 4153 2988 
Q 3769 2988 3567 2697 
Q 3366 2406 3366 1850 
L 3366 331 
L 3866 331 
L 3866 0 
L 2291 0 
L 2291 331 
L 2791 331 
L 2791 2069 
Q 2791 2566 2641 2777 
Q 2491 2988 2144 2988 
Q 1759 2988 1557 2697 
Q 1356 2406 1356 1850 
L 1356 331 
L 1856 331 
L 1856 0 
L 263 0 
L 263 331 
L 781 331 
L 781 2994 
L 231 2994 
L 231 3322 
L 1356 3322 
L 1356 2731 
Q 1516 3063 1762 3238 
Q 2009 3413 2322 3413 
Q 2709 3413 2968 3220 
Q 3228 3028 3316 2675 
z
" transform="scale(0.015625)"/>
       <path id="DejaVuSerif-6e" d="M 263 0 
L 263 331 
L 781 331 
L 781 2988 
L 231 2988 
L 231 3322 
L 1356 3322 
L 1356 2731 
Q 1516 3069 1770 3241 
Q 2025 3413 2363 3413 
Q 2913 3413 3172 3097 
Q 3431 2781 3431 2113 
L 3431 331 
L 3944 331 
L 3944 0 
L 2356 0 
L 2356 331 
L 2853 331 
L 2853 1931 
Q 2853 2541 2703 2767 
Q 2553 2994 2175 2994 
Q 1775 2994 1565 2701 
Q 1356 2409 1356 1850 
L 1356 331 
L 1856 331 
L 1856 0 
L 263 0 
z
" transform="scale(0.015625)"/>
       <path id="DejaVuSerif-74" d="M 691 2988 
L 184 2988 
L 184 3322 
L 691 3322 
L 691 4353 
L 1269 4353 
L 1269 3322 
L 2350 3322 
L 2350 2988 
L 1269 2988 
L 1269 878 
Q 1269 456 1350 337 
Q 1431 219 1650 219 
Q 1875 219 1978 351 
Q 2081 484 2088 781 
L 2522 781 
Q 2497 328 2275 118 
Q 2053 -91 1600 -91 
Q 1103 -91 897 129 
Q 691 350 691 878 
L 691 2988 
z
" transform="scale(0.015625)"/>
      </defs>
      <use xlink:href="#DejaVuSerif-45"/>
      <use xlink:href="#DejaVuSerif-78" x="72.998047"/>
      <use xlink:href="#DejaVuSerif-70" x="129.394531"/>
      <use xlink:href="#DejaVuSerif-65" x="193.408203"/>
      <use xlink:href="#DejaVuSerif-72" x="252.587891"/>
      <use xlink:href="#DejaVuSerif-69" x="300.390625"/>
      <use xlink:href="#DejaVuSerif-6d" x="332.373047"/>
      <use xlink:href="#DejaVuSerif-65" x="427.197266"/>
      <use xlink:href="#DejaVuSerif-6e" x="486.376953"/>
      <use xlink:href="#DejaVuSerif-74" x="550.78125"/>
     </g>
    </g>
    <g id="line2d_22">
     <path d="M 157.815 43.269687 
L 166.815 43.269687 
L 175.815 43.269687 
" style="fill: none; stroke: #0000ff; stroke-linecap: round"/>
    </g>
    <g id="text_6">
     <!-- Reference model -->
     <g style="fill: #262626" transform="translate(183.015 46.419687) scale(0.09 -0.09)">
      <defs>
       <path id="DejaVuSerif-52" d="M 3066 2316 
Q 3284 2256 3442 2114 
Q 3600 1972 3725 1716 
L 4403 331 
L 4972 331 
L 4972 0 
L 3872 0 
L 3144 1484 
Q 2934 1916 2759 2042 
Q 2584 2169 2278 2169 
L 1581 2169 
L 1581 331 
L 2241 331 
L 2241 0 
L 353 0 
L 353 331 
L 947 331 
L 947 4331 
L 353 4331 
L 353 4666 
L 2719 4666 
Q 3400 4666 3770 4341 
Q 4141 4016 4141 3419 
Q 4141 2938 3870 2661 
Q 3600 2384 3066 2316 
z
M 1581 2503 
L 2503 2503 
Q 2975 2503 3200 2726 
Q 3425 2950 3425 3419 
Q 3425 3888 3200 4109 
Q 2975 4331 2503 4331 
L 1581 4331 
L 1581 2503 
z
" transform="scale(0.015625)"/>
       <path id="DejaVuSerif-66" d="M 2753 4078 
L 2450 4078 
Q 2447 4313 2317 4434 
Q 2188 4556 1941 4556 
Q 1619 4556 1487 4379 
Q 1356 4203 1356 3750 
L 1356 3322 
L 2284 3322 
L 2284 2988 
L 1356 2988 
L 1356 331 
L 2094 331 
L 2094 0 
L 231 0 
L 231 331 
L 781 331 
L 781 2988 
L 231 2988 
L 231 3322 
L 781 3322 
L 781 3738 
Q 781 4294 1070 4578 
Q 1359 4863 1919 4863 
Q 2128 4863 2337 4825 
Q 2547 4788 2753 4709 
L 2753 4078 
z
" transform="scale(0.015625)"/>
       <path id="DejaVuSerif-63" d="M 3291 997 
Q 3169 466 2822 187 
Q 2475 -91 1925 -91 
Q 1200 -91 759 389 
Q 319 869 319 1663 
Q 319 2459 759 2936 
Q 1200 3413 1925 3413 
Q 2241 3413 2553 3339 
Q 2866 3266 3181 3116 
L 3181 2266 
L 2847 2266 
Q 2781 2703 2561 2903 
Q 2341 3103 1931 3103 
Q 1466 3103 1228 2742 
Q 991 2381 991 1663 
Q 991 944 1227 581 
Q 1463 219 1931 219 
Q 2303 219 2525 412 
Q 2747 606 2828 997 
L 3291 997 
z
" transform="scale(0.015625)"/>
       <path id="DejaVuSerif-6f" d="M 1925 219 
Q 2388 219 2623 584 
Q 2859 950 2859 1663 
Q 2859 2375 2623 2739 
Q 2388 3103 1925 3103 
Q 1463 3103 1227 2739 
Q 991 2375 991 1663 
Q 991 950 1228 584 
Q 1466 219 1925 219 
z
M 1925 -91 
Q 1200 -91 759 389 
Q 319 869 319 1663 
Q 319 2456 758 2934 
Q 1197 3413 1925 3413 
Q 2653 3413 3092 2934 
Q 3531 2456 3531 1663 
Q 3531 869 3092 389 
Q 2653 -91 1925 -91 
z
" transform="scale(0.015625)"/>
       <path id="DejaVuSerif-64" d="M 3359 331 
L 3909 331 
L 3909 0 
L 2784 0 
L 2784 519 
Q 2616 206 2355 57 
Q 2094 -91 1709 -91 
Q 1097 -91 708 395 
Q 319 881 319 1663 
Q 319 2444 706 2928 
Q 1094 3413 1709 3413 
Q 2094 3413 2355 3264 
Q 2616 3116 2784 2803 
L 2784 4531 
L 2241 4531 
L 2241 4863 
L 3359 4863 
L 3359 331 
z
M 2784 1497 
L 2784 1825 
Q 2784 2422 2554 2737 
Q 2325 3053 1888 3053 
Q 1444 3053 1217 2703 
Q 991 2353 991 1663 
Q 991 975 1217 622 
Q 1444 269 1888 269 
Q 2325 269 2554 583 
Q 2784 897 2784 1497 
z
" transform="scale(0.015625)"/>
       <path id="DejaVuSerif-6c" d="M 1313 331 
L 1856 331 
L 1856 0 
L 184 0 
L 184 331 
L 738 331 
L 738 4531 
L 184 4531 
L 184 4863 
L 1313 4863 
L 1313 331 
z
" transform="scale(0.015625)"/>
      </defs>
      <use xlink:href="#DejaVuSerif-52"/>
      <use xlink:href="#DejaVuSerif-65" x="75.292969"/>
      <use xlink:href="#DejaVuSerif-66" x="134.472656"/>
      <use xlink:href="#DejaVuSerif-65" x="171.484375"/>
      <use xlink:href="#DejaVuSerif-72" x="230.664062"/>
      <use xlink:href="#DejaVuSerif-65" x="278.466797"/>
      <use xlink:href="#DejaVuSerif-6e" x="337.646484"/>
      <use xlink:href="#DejaVuSerif-63" x="402.050781"/>
      <use xlink:href="#DejaVuSerif-65" x="458.056641"/>
      <use xlink:href="#DejaVuSerif-20" x="517.236328"/>
      <use xlink:href="#DejaVuSerif-6d" x="549.023438"/>
      <use xlink:href="#DejaVuSerif-6f" x="643.847656"/>
      <use xlink:href="#DejaVuSerif-64" x="704.052734"/>
      <use xlink:href="#DejaVuSerif-65" x="768.066406"/>
      <use xlink:href="#DejaVuSerif-6c" x="827.246094"/>
     </g>
    </g>
    <g id="line2d_23">
     <path d="M 157.815 56.48 
L 166.815 56.48 
L 175.815 56.48 
" style="fill: none; stroke: #008000; stroke-linecap: round"/>
    </g>
    <g id="text_7">
     <!-- Physics informed ID -->
     <g style="fill: #262626" transform="translate(183.015 59.63) scale(0.09 -0.09)">
      <defs>
       <path id="DejaVuSerif-50" d="M 1581 2375 
L 2406 2375 
Q 2872 2375 3115 2626 
Q 3359 2878 3359 3353 
Q 3359 3831 3115 4081 
Q 2872 4331 2406 4331 
L 1581 4331 
L 1581 2375 
z
M 353 0 
L 353 331 
L 947 331 
L 947 4331 
L 353 4331 
L 353 4666 
L 2559 4666 
Q 3259 4666 3668 4311 
Q 4078 3956 4078 3353 
Q 4078 2753 3668 2397 
Q 3259 2041 2559 2041 
L 1581 2041 
L 1581 331 
L 2303 331 
L 2303 0 
L 353 0 
z
" transform="scale(0.015625)"/>
       <path id="DejaVuSerif-68" d="M 263 0 
L 263 331 
L 781 331 
L 781 4531 
L 231 4531 
L 231 4863 
L 1356 4863 
L 1356 2731 
Q 1516 3069 1770 3241 
Q 2025 3413 2363 3413 
Q 2913 3413 3172 3097 
Q 3431 2781 3431 2113 
L 3431 331 
L 3944 331 
L 3944 0 
L 2356 0 
L 2356 331 
L 2853 331 
L 2853 1931 
Q 2853 2541 2704 2764 
Q 2556 2988 2175 2988 
Q 1775 2988 1565 2697 
Q 1356 2406 1356 1850 
L 1356 331 
L 1856 331 
L 1856 0 
L 263 0 
z
" transform="scale(0.015625)"/>
       <path id="DejaVuSerif-79" d="M 1381 -609 
L 1600 -56 
L 359 2988 
L -19 2988 
L -19 3322 
L 1509 3322 
L 1509 2988 
L 978 2988 
L 1913 703 
L 2847 2988 
L 2350 2988 
L 2350 3322 
L 3597 3322 
L 3597 2988 
L 3225 2988 
L 1703 -750 
Q 1547 -1138 1356 -1280 
Q 1166 -1422 819 -1422 
Q 672 -1422 517 -1397 
Q 363 -1372 206 -1325 
L 206 -691 
L 500 -691 
Q 519 -903 608 -995 
Q 697 -1088 884 -1088 
Q 1056 -1088 1161 -992 
Q 1266 -897 1381 -609 
z
" transform="scale(0.015625)"/>
       <path id="DejaVuSerif-73" d="M 359 184 
L 359 959 
L 691 959 
Q 703 588 923 403 
Q 1144 219 1575 219 
Q 1963 219 2166 364 
Q 2369 509 2369 788 
Q 2369 1006 2220 1140 
Q 2072 1275 1594 1428 
L 1178 1569 
Q 750 1706 558 1912 
Q 366 2119 366 2438 
Q 366 2894 700 3153 
Q 1034 3413 1625 3413 
Q 1888 3413 2178 3344 
Q 2469 3275 2778 3144 
L 2778 2419 
L 2447 2419 
Q 2434 2741 2221 2922 
Q 2009 3103 1644 3103 
Q 1281 3103 1095 2975 
Q 909 2847 909 2591 
Q 909 2381 1050 2254 
Q 1191 2128 1613 1997 
L 2069 1856 
Q 2541 1709 2748 1489 
Q 2956 1269 2956 922 
Q 2956 450 2595 179 
Q 2234 -91 1600 -91 
Q 1278 -91 972 -22 
Q 666 47 359 184 
z
" transform="scale(0.015625)"/>
       <path id="DejaVuSerif-49" d="M 1581 331 
L 2175 331 
L 2175 0 
L 353 0 
L 353 331 
L 947 331 
L 947 4331 
L 353 4331 
L 353 4666 
L 2175 4666 
L 2175 4331 
L 1581 4331 
L 1581 331 
z
" transform="scale(0.015625)"/>
       <path id="DejaVuSerif-44" d="M 1581 331 
L 2163 331 
Q 3072 331 3558 850 
Q 4044 1369 4044 2338 
Q 4044 3306 3559 3818 
Q 3075 4331 2163 4331 
L 1581 4331 
L 1581 331 
z
M 353 0 
L 353 331 
L 947 331 
L 947 4331 
L 353 4331 
L 353 4666 
L 2209 4666 
Q 3416 4666 4089 4050 
Q 4763 3434 4763 2338 
Q 4763 1238 4088 619 
Q 3413 0 2209 0 
L 353 0 
z
" transform="scale(0.015625)"/>
      </defs>
      <use xlink:href="#DejaVuSerif-50"/>
      <use xlink:href="#DejaVuSerif-68" x="67.285156"/>
      <use xlink:href="#DejaVuSerif-79" x="131.689453"/>
      <use xlink:href="#DejaVuSerif-73" x="188.183594"/>
      <use xlink:href="#DejaVuSerif-69" x="239.501953"/>
      <use xlink:href="#DejaVuSerif-63" x="271.484375"/>
      <use xlink:href="#DejaVuSerif-73" x="327.490234"/>
      <use xlink:href="#DejaVuSerif-20" x="378.808594"/>
      <use xlink:href="#DejaVuSerif-69" x="410.595703"/>
      <use xlink:href="#DejaVuSerif-6e" x="442.578125"/>
      <use xlink:href="#DejaVuSerif-66" x="506.982422"/>
      <use xlink:href="#DejaVuSerif-6f" x="543.994141"/>
      <use xlink:href="#DejaVuSerif-72" x="604.199219"/>
      <use xlink:href="#DejaVuSerif-6d" x="652.001953"/>
      <use xlink:href="#DejaVuSerif-65" x="746.826172"/>
      <use xlink:href="#DejaVuSerif-64" x="806.005859"/>
      <use xlink:href="#DejaVuSerif-20" x="870.019531"/>
      <use xlink:href="#DejaVuSerif-49" x="901.806641"/>
      <use xlink:href="#DejaVuSerif-44" x="941.308594"/>
     </g>
    </g>
    <g id="line2d_24">
     <path d="M 157.815 69.818281 
L 166.815 69.818281 
L 175.815 69.818281 
" style="fill: none; stroke: #ff0000; stroke-linecap: round"/>
    </g>
    <g id="text_8">
     <!-- Abkowitz ID -->
     <g style="fill: #262626" transform="translate(183.015 72.968281) scale(0.09 -0.09)">
      <defs>
       <path id="DejaVuSerif-41" d="M 1281 1691 
L 2994 1691 
L 2138 3909 
L 1281 1691 
z
M -38 0 
L -38 331 
L 372 331 
L 2034 4666 
L 2559 4666 
L 4225 331 
L 4684 331 
L 4684 0 
L 2988 0 
L 2988 331 
L 3506 331 
L 3116 1356 
L 1153 1356 
L 763 331 
L 1275 331 
L 1275 0 
L -38 0 
z
" transform="scale(0.015625)"/>
       <path id="DejaVuSerif-62" d="M 738 331 
L 738 4531 
L 184 4531 
L 184 4863 
L 1313 4863 
L 1313 2803 
Q 1481 3116 1742 3264 
Q 2003 3413 2388 3413 
Q 3000 3413 3387 2928 
Q 3775 2444 3775 1663 
Q 3775 881 3387 395 
Q 3000 -91 2388 -91 
Q 2003 -91 1742 57 
Q 1481 206 1313 519 
L 1313 0 
L 184 0 
L 184 331 
L 738 331 
z
M 1313 1497 
Q 1313 897 1542 583 
Q 1772 269 2209 269 
Q 2650 269 2876 622 
Q 3103 975 3103 1663 
Q 3103 2353 2876 2703 
Q 2650 3053 2209 3053 
Q 1772 3053 1542 2737 
Q 1313 2422 1313 1825 
L 1313 1497 
z
" transform="scale(0.015625)"/>
       <path id="DejaVuSerif-6b" d="M 1831 0 
L 219 0 
L 219 331 
L 738 331 
L 738 4531 
L 184 4531 
L 184 4863 
L 1313 4863 
L 1313 1697 
L 2713 2988 
L 2234 2988 
L 2234 3322 
L 3738 3322 
L 3738 2988 
L 3169 2988 
L 2181 2075 
L 3444 331 
L 3922 331 
L 3922 0 
L 2284 0 
L 2284 331 
L 2759 331 
L 1766 1697 
L 1313 1275 
L 1313 331 
L 1831 331 
L 1831 0 
z
" transform="scale(0.015625)"/>
       <path id="DejaVuSerif-77" d="M 3072 3322 
L 3922 728 
L 4672 2988 
L 4191 2988 
L 4191 3322 
L 5394 3322 
L 5394 2988 
L 5025 2988 
L 4038 0 
L 3559 0 
L 2741 2484 
L 1919 0 
L 1459 0 
L 475 2988 
L 103 2988 
L 103 3322 
L 1606 3322 
L 1606 2988 
L 1069 2988 
L 1813 728 
L 2669 3322 
L 3072 3322 
z
" transform="scale(0.015625)"/>
       <path id="DejaVuSerif-7a" d="M 256 0 
L 256 269 
L 2338 2988 
L 691 2988 
L 691 2413 
L 359 2413 
L 359 3322 
L 3078 3322 
L 3078 3053 
L 997 331 
L 2803 331 
L 2803 934 
L 3138 934 
L 3138 0 
L 256 0 
z
" transform="scale(0.015625)"/>
      </defs>
      <use xlink:href="#DejaVuSerif-41"/>
      <use xlink:href="#DejaVuSerif-62" x="72.216797"/>
      <use xlink:href="#DejaVuSerif-6b" x="136.230469"/>
      <use xlink:href="#DejaVuSerif-6f" x="196.826172"/>
      <use xlink:href="#DejaVuSerif-77" x="257.03125"/>
      <use xlink:href="#DejaVuSerif-69" x="342.626953"/>
      <use xlink:href="#DejaVuSerif-74" x="374.609375"/>
      <use xlink:href="#DejaVuSerif-7a" x="414.794922"/>
      <use xlink:href="#DejaVuSerif-20" x="467.480469"/>
      <use xlink:href="#DejaVuSerif-49" x="499.267578"/>
      <use xlink:href="#DejaVuSerif-44" x="538.769531"/>
     </g>
    </g>
   </g>
  </g>
  <g id="axes_2">
   <g id="patch_5">
    <path d="M 50.991094 158.68 
L 381.771094 158.68 
L 381.771094 82.94 
L 50.991094 82.94 
z
" style="fill: #ffffff"/>
   </g>
   <g id="line2d_25">
    <path d="M 66.026548 121.362769 
L 69.947357 121.421569 
L 72.798854 121.684325 
L 75.436489 122.144928 
L 77.6464 122.740933 
L 80.497897 123.758596 
L 83.420682 125.042811 
L 87.62664 127.156045 
L 91.690024 129.538241 
L 97.963318 133.475269 
L 103.951462 137.590246 
L 113.575265 144.398406 
L 121.48817 150.005039 
L 124.410955 151.766111 
L 126.906015 153.017703 
L 129.044638 153.84127 
L 131.325836 154.520782 
L 133.393172 154.89587 
L 135.460507 155.038492 
L 137.59913 154.951964 
L 139.880328 154.667851 
L 142.58925 154.097715 
L 145.797185 153.187384 
L 149.931856 151.758013 
L 153.211078 150.402892 
L 157.417036 148.481981 
L 163.476468 145.439229 
L 174.24087 139.499445 
L 184.007248 133.726951 
L 204.609316 120.69486 
L 210.953898 116.496887 
L 239.682733 97.70036 
L 245.457015 94.107649 
L 249.876835 91.749707 
L 252.371895 90.713152 
L 254.795668 89.946484 
L 257.005579 89.490598 
L 259.358064 89.219759 
L 261.496687 89.202952 
L 264.134322 89.437461 
L 267.627406 90.045343 
L 270.550191 90.815355 
L 274.827437 92.164633 
L 280.173994 94.159971 
L 286.090851 96.79139 
L 292.007708 99.655472 
L 302.629535 105.12672 
L 313.180075 110.942935 
L 324.443489 117.536725 
L 344.97427 130.131647 
L 361.156517 140.215961 
L 366.289212 143.386578 
L 366.716936 143.65986 
L 366.716936 143.65986 
" clip-path="url(#pf2b024f558)" style="fill: none; stroke: #000000; stroke-linecap: round"/>
   </g>
   <g id="line2d_26">
    <path d="M 66.026548 121.55728 
L 67.808734 126.238153 
L 70.517657 133.25317 
L 75.436489 145.775837 
L 75.650352 146.212461 
L 116.426763 146.197455 
L 116.640625 145.660147 
L 117.424787 143.617892 
L 127.832752 116.90303 
L 128.403051 115.430515 
L 129.329788 113.06636 
L 130.541674 109.938839 
L 131.111974 108.418887 
L 131.539698 107.347659 
L 132.751585 104.231272 
L 133.749609 101.59459 
L 134.319908 100.17629 
L 134.961495 98.486432 
L 135.175357 97.924437 
L 135.674369 96.650871 
L 137.31398 96.716704 
L 153.923952 96.714767 
L 241.607493 96.713799 
L 241.750068 97.034248 
L 242.035218 97.782123 
L 259.714501 143.143028 
L 259.928363 143.699214 
L 260.498663 145.141717 
L 260.712525 145.746309 
L 260.926387 146.151469 
L 261.211537 146.21004 
L 366.716936 146.196002 
L 366.716936 146.196002 
" clip-path="url(#pf2b024f558)" style="fill: none; stroke-dasharray: 5.55,2.4; stroke-dashoffset: 0; stroke: #808080; stroke-width: 1.5"/>
   </g>
   <g id="matplotlib.axis_3">
    <g id="xtick_6">
     <g id="line2d_27">
      <path d="M 66.026548 158.68 
L 66.026548 82.94 
" clip-path="url(#pf2b024f558)" style="fill: none; stroke: #b0b0b0; stroke-width: 0.8; stroke-linecap: round"/>
     </g>
     <g id="line2d_28"/>
    </g>
    <g id="xtick_7">
     <g id="line2d_29">
      <path d="M 137.794828 158.68 
L 137.794828 82.94 
" clip-path="url(#pf2b024f558)" style="fill: none; stroke: #b0b0b0; stroke-width: 0.8; stroke-linecap: round"/>
     </g>
     <g id="line2d_30"/>
    </g>
    <g id="xtick_8">
     <g id="line2d_31">
      <path d="M 209.563107 158.68 
L 209.563107 82.94 
" clip-path="url(#pf2b024f558)" style="fill: none; stroke: #b0b0b0; stroke-width: 0.8; stroke-linecap: round"/>
     </g>
     <g id="line2d_32"/>
    </g>
    <g id="xtick_9">
     <g id="line2d_33">
      <path d="M 281.331387 158.68 
L 281.331387 82.94 
" clip-path="url(#pf2b024f558)" style="fill: none; stroke: #b0b0b0; stroke-width: 0.8; stroke-linecap: round"/>
     </g>
     <g id="line2d_34"/>
    </g>
    <g id="xtick_10">
     <g id="line2d_35">
      <path d="M 353.099666 158.68 
L 353.099666 82.94 
" clip-path="url(#pf2b024f558)" style="fill: none; stroke: #b0b0b0; stroke-width: 0.8; stroke-linecap: round"/>
     </g>
     <g id="line2d_36"/>
    </g>
   </g>
   <g id="matplotlib.axis_4">
    <g id="ytick_4">
     <g id="line2d_37">
      <path d="M 50.991094 146.196562 
L 381.771094 146.196562 
" clip-path="url(#pf2b024f558)" style="fill: none; stroke: #b0b0b0; stroke-width: 0.8; stroke-linecap: round"/>
     </g>
     <g id="line2d_38"/>
     <g id="text_9">
      <!-- −20 -->
      <g style="fill: #262626" transform="translate(28.496875 149.615859) scale(0.09 -0.09)">
       <defs>
        <path id="DejaVuSerif-32" d="M 819 3553 
L 469 3553 
L 469 4384 
Q 803 4563 1142 4656 
Q 1481 4750 1806 4750 
Q 2534 4750 2956 4397 
Q 3378 4044 3378 3438 
Q 3378 2753 2422 1800 
Q 2347 1728 2309 1691 
L 1131 513 
L 3078 513 
L 3078 1088 
L 3444 1088 
L 3444 0 
L 434 0 
L 434 341 
L 1850 1753 
Q 2319 2222 2519 2614 
Q 2719 3006 2719 3438 
Q 2719 3909 2473 4175 
Q 2228 4441 1797 4441 
Q 1350 4441 1106 4219 
Q 863 3997 819 3553 
z
" transform="scale(0.015625)"/>
       </defs>
       <use xlink:href="#DejaVuSerif-2212"/>
       <use xlink:href="#DejaVuSerif-32" x="83.789062"/>
       <use xlink:href="#DejaVuSerif-30" x="147.412109"/>
      </g>
     </g>
    </g>
    <g id="ytick_5">
     <g id="line2d_39">
      <path d="M 50.991094 121.455627 
L 381.771094 121.455627 
" clip-path="url(#pf2b024f558)" style="fill: none; stroke: #b0b0b0; stroke-width: 0.8; stroke-linecap: round"/>
     </g>
     <g id="line2d_40"/>
     <g id="text_10">
      <!-- 0 -->
      <g style="fill: #262626" transform="translate(41.764844 124.874924) scale(0.09 -0.09)">
       <use xlink:href="#DejaVuSerif-30"/>
      </g>
     </g>
    </g>
    <g id="ytick_6">
     <g id="line2d_41">
      <path d="M 50.991094 96.714691 
L 381.771094 96.714691 
" clip-path="url(#pf2b024f558)" style="fill: none; stroke: #b0b0b0; stroke-width: 0.8; stroke-linecap: round"/>
     </g>
     <g id="line2d_42"/>
     <g id="text_11">
      <!-- 20 -->
      <g style="fill: #262626" transform="translate(36.038594 100.133988) scale(0.09 -0.09)">
       <use xlink:href="#DejaVuSerif-32"/>
       <use xlink:href="#DejaVuSerif-30" x="63.623047"/>
      </g>
     </g>
    </g>
    <g id="text_12">
     <!-- $\psi$ $[deg]$ -->
     <g style="fill: #262626" transform="translate(22.606875 137.235) rotate(-90) scale(0.09 -0.09)">
      <defs>
       <path id="DejaVuSans-Oblique-3c8" d="M 1591 -78 
Q 891 38 616 341 
Q 278 713 425 1472 
L 819 3500 
L 1400 3500 
L 1009 1494 
Q 900 922 1119 684 
Q 1313 478 1691 434 
L 2284 3500 
L 2856 3500 
L 2263 438 
Q 2681 481 2928 688 
Q 3247 950 3353 1497 
L 3741 3500 
L 4322 3500 
L 3928 1475 
Q 3775 688 3300 344 
Q 2872 34 2163 -75 
L 1919 -1331 
L 1347 -1331 
L 1591 -78 
z
" transform="scale(0.015625)"/>
      </defs>
      <use xlink:href="#DejaVuSans-Oblique-3c8" transform="translate(0 0.015625)"/>
      <use xlink:href="#DejaVuSerif-20" transform="translate(65.966797 0.015625)"/>
      <use xlink:href="#DejaVuSans-5b" transform="translate(97.753906 0.015625)"/>
      <use xlink:href="#DejaVuSans-Oblique-64" transform="translate(136.767578 0.015625)"/>
      <use xlink:href="#DejaVuSans-Oblique-65" transform="translate(200.244141 0.015625)"/>
      <use xlink:href="#DejaVuSans-Oblique-67" transform="translate(261.767578 0.015625)"/>
      <use xlink:href="#DejaVuSans-5d" transform="translate(325.244141 0.015625)"/>
     </g>
    </g>
   </g>
   <g id="line2d_43">
    <path d="M 66.026548 121.455627 
L 70.835023 121.563833 
L 73.562218 121.85171 
L 76.002339 122.33232 
L 78.585997 123.079192 
L 81.600265 124.191898 
L 85.116911 125.736252 
L 89.279471 127.818959 
L 94.30325 130.591762 
L 100.331786 134.183138 
L 107.508614 138.725853 
L 115.833734 144.261279 
L 124.876537 150.271272 
L 127.6755 151.792571 
L 130.115622 152.870235 
L 132.412207 153.642084 
L 134.565255 154.132384 
L 136.646535 154.37833 
L 138.727815 154.397549 
L 141.0244 154.192588 
L 143.679827 153.723549 
L 146.694094 152.95725 
L 150.138972 151.845051 
L 154.157995 150.306175 
L 158.822934 148.274164 
L 164.277323 145.644709 
L 170.23409 142.520336 
L 177.195613 138.606135 
L 184.874819 134.026552 
L 193.056403 128.8859 
L 202.386279 122.753422 
L 212.720911 115.687593 
L 224.203836 107.561345 
L 238.772797 96.968568 
L 244.298954 93.043473 
L 247.241454 91.244083 
L 249.753344 89.960837 
L 252.121697 88.999519 
L 254.346514 88.33506 
L 256.499562 87.924484 
L 258.65261 87.747594 
L 260.949195 87.787235 
L 263.604622 88.063699 
L 266.618889 88.610652 
L 269.991999 89.45286 
L 273.795717 90.635479 
L 278.173582 92.23808 
L 283.26913 94.347239 
L 288.938824 96.939048 
L 295.110896 100.006877 
L 301.785346 103.580086 
L 309.751625 108.106468 
L 317.789673 112.92591 
L 326.473634 118.401211 
L 336.592962 125.058391 
L 347.429972 132.461143 
L 359.558811 141.015525 
L 366.735639 146.177057 
L 366.735639 146.177057 
" clip-path="url(#pf2b024f558)" style="fill: none; stroke: #0000ff; stroke-linecap: round"/>
   </g>
   <g id="line2d_44">
    <path d="M 66.026548 121.455627 
L 70.835023 121.563597 
L 73.562218 121.850146 
L 76.002339 122.32732 
L 78.585997 123.067156 
L 81.600265 124.168768 
L 85.188679 125.725005 
L 89.494776 127.844243 
L 94.877397 130.756008 
L 101.623615 134.672983 
L 109.73343 139.647975 
L 120.211599 146.348976 
L 125.378915 149.570676 
L 128.249647 151.093007 
L 130.761536 152.176957 
L 133.058121 152.931477 
L 135.21117 153.408901 
L 137.29245 153.648454 
L 139.37373 153.661564 
L 141.598547 153.44446 
L 144.110436 152.972227 
L 146.981168 152.202504 
L 150.354277 151.058099 
L 154.3733 149.447752 
L 159.110007 147.299978 
L 164.779701 144.481438 
L 171.167078 141.05118 
L 179.061588 136.546329 
L 188.247928 131.045514 
L 198.295487 124.764821 
L 210.567863 116.81612 
L 224.347373 107.62132 
L 247.241454 92.289448 
L 249.89688 90.928786 
L 252.337002 89.927339 
L 254.561818 89.247452 
L 256.714867 88.816421 
L 258.796147 88.622855 
L 260.949195 88.647056 
L 263.389317 88.903383 
L 266.18828 89.430674 
L 269.346084 90.257931 
L 272.934498 91.431815 
L 277.168826 93.060006 
L 282.192606 95.240114 
L 288.005837 98.012846 
L 294.680287 101.449414 
L 302.072419 105.517455 
L 311.186991 110.789613 
L 320.660404 116.521646 
L 331.569182 123.387879 
L 346.568753 133.140531 
L 360.491799 142.452603 
L 365.946188 146.149328 
L 365.946188 146.149328 
" clip-path="url(#pf2b024f558)" style="fill: none; stroke: #008000; stroke-linecap: round"/>
   </g>
   <g id="line2d_45">
    <path d="M 66.026548 121.455627 
L 70.763255 121.565649 
L 73.562218 121.863458 
L 76.145876 122.366273 
L 78.801302 123.11785 
L 81.81557 124.208887 
L 85.260447 125.70043 
L 89.207703 127.660458 
L 93.729104 130.162528 
L 98.968189 133.323368 
L 104.996724 137.227056 
L 111.886479 141.961156 
L 119.852758 147.714818 
L 124.015318 150.611478 
L 126.814281 152.289074 
L 129.110866 153.419372 
L 131.335683 154.268066 
L 133.416963 154.828261 
L 135.426475 155.14511 
L 137.435986 155.236769 
L 139.589035 155.110421 
L 142.029156 154.733729 
L 144.756351 154.08662 
L 147.914155 153.106031 
L 151.502569 151.756908 
L 155.665129 149.947108 
L 160.330067 147.669196 
L 165.497384 144.895528 
L 171.238846 141.559545 
L 177.482686 137.67153 
L 184.372441 133.116238 
L 191.979879 127.813942 
L 200.376767 121.684013 
L 209.85018 114.485153 
L 220.471886 106.127727 
L 232.81603 96.119962 
L 237.768041 92.206446 
L 240.567004 90.278323 
L 243.007125 88.863794 
L 245.160174 87.864759 
L 247.241454 87.138814 
L 249.250966 86.666721 
L 251.260478 86.422993 
L 253.341758 86.398188 
L 255.710111 86.599155 
L 258.437306 87.064478 
L 261.523342 87.82339 
L 265.039987 88.922144 
L 269.059011 90.417923 
L 273.508644 92.316562 
L 278.388887 94.641824 
L 283.771508 97.458551 
L 289.584739 100.75581 
L 295.972116 104.640823 
L 302.933639 109.139732 
L 310.39754 114.231535 
L 318.650892 120.135549 
L 327.837232 126.98524 
L 338.171864 134.975869 
L 350.157167 144.529643 
L 352.166678 146.155945 
L 352.166678 146.155945 
" clip-path="url(#pf2b024f558)" style="fill: none; stroke: #ff0000; stroke-linecap: round"/>
   </g>
   <g id="patch_6">
    <path d="M 50.991094 158.68 
L 50.991094 82.94 
" style="fill: none; stroke: #000000; stroke-linejoin: miter; stroke-linecap: square"/>
   </g>
   <g id="patch_7">
    <path d="M 50.991094 158.68 
L 381.771094 158.68 
" style="fill: none; stroke: #000000; stroke-linejoin: miter; stroke-linecap: square"/>
   </g>
  </g>
  <g id="axes_3">
   <g id="patch_8">
    <path d="M 50.991094 234.42 
L 381.771094 234.42 
L 381.771094 158.68 
L 50.991094 158.68 
z
" style="fill: #ffffff"/>
   </g>
   <g id="line2d_46">
    <path d="M 66.026548 196.281244 
L 66.739423 196.383062 
L 67.666159 196.746822 
L 68.521608 197.354982 
L 69.947357 198.643975 
L 71.230531 200.106041 
L 73.155291 202.649952 
L 76.149364 207.042366 
L 78.715711 211.128396 
L 81.923646 215.044175 
L 83.064245 216.246479 
L 84.489993 217.542757 
L 85.060293 217.625831 
L 85.488017 217.700507 
L 86.129604 218.084415 
L 86.842478 218.743904 
L 88.339515 220.324434 
L 90.192988 221.782932 
L 92.260323 222.580379 
L 93.18706 222.963776 
L 95.39697 223.656352 
L 96.038557 223.422145 
L 96.608857 223.465041 
L 97.535593 224.074014 
L 98.676192 224.929115 
L 99.317779 225.238179 
L 101.955414 226.015488 
L 102.882151 226.097975 
L 104.521762 226.419103 
L 105.020774 226.588836 
L 105.66236 226.628467 
L 106.018798 226.353379 
L 106.731672 225.748588 
L 107.088109 225.590869 
L 107.515834 225.63273 
L 108.157421 226.037555 
L 109.654457 227.10125 
L 110.367331 227.272922 
L 111.436642 227.347519 
L 112.505954 227.355448 
L 114.074277 227.504954 
L 115.642601 227.770165 
L 116.49805 227.71368 
L 117.210924 227.074589 
L 117.781224 226.716427 
L 118.280236 226.596262 
L 119.705985 226.17925 
L 120.561434 225.538534 
L 121.630745 224.352711 
L 122.985206 222.480523 
L 124.83868 219.34722 
L 127.405027 214.591759 
L 128.759488 211.672199 
L 131.183261 206.992251 
L 137.59913 192.791428 
L 141.377364 187.582611 
L 142.8744 185.829211 
L 144.300149 184.426304 
L 145.868472 183.060467 
L 148.43482 181.226272 
L 149.646706 180.920857 
L 150.288293 180.47866 
L 152.783353 178.484709 
L 155.278413 177.301644 
L 156.419012 176.717882 
L 157.417036 176.309568 
L 158.98536 175.657772 
L 159.413084 175.718879 
L 160.125959 175.852357 
L 160.696258 175.715231 
L 161.622995 175.143727 
L 163.262606 174.106911 
L 163.97548 173.881575 
L 165.044791 173.628391 
L 168.9656 172.904378 
L 169.749762 172.911188 
L 170.961648 173.488284 
L 171.603235 173.357656 
L 172.387397 172.860103 
L 173.171559 172.368297 
L 174.454732 172.047241 
L 176.023056 171.856033 
L 177.591379 171.691106 
L 179.088415 171.303022 
L 180.300302 171.26371 
L 181.227038 171.791717 
L 181.797338 171.845649 
L 182.153775 171.736098 
L 184.577548 170.373133 
L 185.932009 170.23776 
L 189.638955 170.035385 
L 190.850842 169.964986 
L 191.349854 170.336762 
L 191.991441 170.714862 
L 192.490453 170.707733 
L 193.13204 170.386737 
L 193.844914 169.924064 
L 194.629076 169.703803 
L 197.480573 169.359068 
L 200.545932 169.140155 
L 201.472669 169.023568 
L 201.900394 169.311749 
L 202.613268 169.868776 
L 203.11228 169.940586 
L 203.753867 169.679563 
L 204.609316 169.009979 
L 205.179616 168.641362 
L 205.749915 168.520812 
L 206.676652 168.522364 
L 208.6727 168.740083 
L 209.456861 168.776753 
L 212.379646 168.839069 
L 213.66282 169.714003 
L 214.090545 169.655229 
L 214.874706 169.307312 
L 215.801443 168.844945 
L 216.870754 168.571447 
L 220.934138 168.5358 
L 222.003449 168.519269 
L 222.858899 168.582806 
L 224.427222 169.545008 
L 224.997522 169.382423 
L 226.850995 168.573341 
L 228.134169 168.471773 
L 229.060905 168.598023 
L 230.700516 168.760181 
L 232.054977 168.794209 
L 233.409439 168.871279 
L 233.765876 169.123028 
L 234.407463 169.619999 
L 235.04905 169.802714 
L 235.833211 169.702398 
L 237.900547 168.866769 
L 238.470846 168.883817 
L 240.680757 169.250969 
L 241.750068 169.347705 
L 243.603541 169.793376 
L 244.102553 170.133758 
L 244.958003 171.464942 
L 245.528302 172.18145 
L 246.169889 172.692197 
L 247.8095 173.801458 
L 248.878811 175.130881 
L 251.160009 178.714243 
L 255.223393 186.11641 
L 256.363992 188.393536 
L 260.56995 196.422229 
L 262.209561 199.682094 
L 263.278873 201.203848 
L 265.417496 204.005906 
L 266.843244 205.061167 
L 269.694741 208.270359 
L 270.621478 209.031712 
L 271.476927 209.490977 
L 272.688814 210.121016 
L 274.756149 211.54496 
L 276.11061 212.139961 
L 277.465072 212.190859 
L 278.320521 212.717049 
L 279.960132 214.097912 
L 281.314593 214.918494 
L 282.882916 215.501969 
L 283.595791 215.839164 
L 284.522527 216.202628 
L 286.589863 216.671809 
L 288.086899 216.630557 
L 291.722558 218.305498 
L 293.290881 218.457185 
L 294.930492 218.592048 
L 295.714654 218.654405 
L 296.498816 218.793931 
L 297.354265 218.834518 
L 298.851301 218.321617 
L 299.350313 218.571234 
L 300.205762 218.979242 
L 301.203786 219.328857 
L 302.130523 219.596896 
L 302.77211 219.791559 
L 303.413697 219.821286 
L 305.55232 219.973291 
L 307.976092 220.446791 
L 309.330554 219.769541 
L 309.900853 219.941893 
L 310.613727 220.328634 
L 311.754326 220.873145 
L 313.393937 221.183219 
L 314.320674 221.232011 
L 317.457321 221.611872 
L 318.526632 221.746095 
L 318.954357 221.45227 
L 319.667231 221.025794 
L 320.166243 221.030939 
L 320.52268 221.149181 
L 322.803878 222.325634 
L 323.516753 222.412533 
L 324.586064 222.487848 
L 325.085076 222.515416 
L 328.506873 222.504206 
L 329.362322 222.513097 
L 330.360346 221.946069 
L 330.930646 222.054089 
L 333.069268 223.26528 
L 334.209867 223.284421 
L 335.493041 223.164289 
L 336.205916 223.11225 
L 336.847502 223.070082 
L 337.774239 223.125335 
L 338.415826 223.225313 
L 339.699 223.270235 
L 340.198012 222.900436 
L 340.910886 222.384707 
L 341.409898 222.277755 
L 341.766335 222.311672 
L 343.049509 222.857759 
L 343.833671 223.20689 
L 344.68912 223.431747 
L 345.188132 223.431487 
L 347.398042 223.2691 
L 349.465378 223.354752 
L 350.320827 223.359611 
L 350.891126 223.012019 
L 351.461426 222.640808 
L 351.960438 222.485227 
L 352.45945 222.546486 
L 353.671336 223.17567 
L 354.312923 223.427719 
L 355.23966 223.488211 
L 357.378283 223.458763 
L 358.590169 223.521851 
L 359.588193 223.453984 
L 360.22978 223.432479 
L 361.441666 222.926112 
L 362.083253 222.558125 
L 362.582265 222.454331 
L 363.223852 222.540268 
L 363.722864 222.764684 
L 364.507026 223.063443 
L 366.716936 223.597305 
L 366.716936 223.597305 
" clip-path="url(#p140e5d32f9)" style="fill: none; stroke: #000000; stroke-linecap: round"/>
   </g>
   <g id="matplotlib.axis_5">
    <g id="xtick_11">
     <g id="line2d_47">
      <path d="M 66.026548 234.42 
L 66.026548 158.68 
" clip-path="url(#p140e5d32f9)" style="fill: none; stroke: #b0b0b0; stroke-width: 0.8; stroke-linecap: round"/>
     </g>
     <g id="line2d_48"/>
     <g id="text_13">
      <!-- 0 -->
      <g style="fill: #262626" transform="translate(63.163423 244.758594) scale(0.09 -0.09)">
       <use xlink:href="#DejaVuSerif-30"/>
      </g>
     </g>
    </g>
    <g id="xtick_12">
     <g id="line2d_49">
      <path d="M 137.794828 234.42 
L 137.794828 158.68 
" clip-path="url(#p140e5d32f9)" style="fill: none; stroke: #b0b0b0; stroke-width: 0.8; stroke-linecap: round"/>
     </g>
     <g id="line2d_50"/>
     <g id="text_14">
      <!-- 10 -->
      <g style="fill: #262626" transform="translate(132.068578 244.758594) scale(0.09 -0.09)">
       <use xlink:href="#DejaVuSerif-31"/>
       <use xlink:href="#DejaVuSerif-30" x="63.623047"/>
      </g>
     </g>
    </g>
    <g id="xtick_13">
     <g id="line2d_51">
      <path d="M 209.563107 234.42 
L 209.563107 158.68 
" clip-path="url(#p140e5d32f9)" style="fill: none; stroke: #b0b0b0; stroke-width: 0.8; stroke-linecap: round"/>
     </g>
     <g id="line2d_52"/>
     <g id="text_15">
      <!-- 20 -->
      <g style="fill: #262626" transform="translate(203.836857 244.758594) scale(0.09 -0.09)">
       <use xlink:href="#DejaVuSerif-32"/>
       <use xlink:href="#DejaVuSerif-30" x="63.623047"/>
      </g>
     </g>
    </g>
    <g id="xtick_14">
     <g id="line2d_53">
      <path d="M 281.331387 234.42 
L 281.331387 158.68 
" clip-path="url(#p140e5d32f9)" style="fill: none; stroke: #b0b0b0; stroke-width: 0.8; stroke-linecap: round"/>
     </g>
     <g id="line2d_54"/>
     <g id="text_16">
      <!-- 30 -->
      <g style="fill: #262626" transform="translate(275.605137 244.758594) scale(0.09 -0.09)">
       <defs>
        <path id="DejaVuSerif-33" d="M 622 4469 
Q 988 4606 1323 4678 
Q 1659 4750 1953 4750 
Q 2638 4750 3022 4454 
Q 3406 4159 3406 3634 
Q 3406 3213 3140 2930 
Q 2875 2647 2388 2547 
Q 2963 2466 3280 2130 
Q 3597 1794 3597 1259 
Q 3597 606 3158 257 
Q 2719 -91 1894 -91 
Q 1528 -91 1179 -12 
Q 831 66 488 225 
L 488 1131 
L 838 1131 
Q 869 681 1141 450 
Q 1413 219 1906 219 
Q 2384 219 2661 495 
Q 2938 772 2938 1253 
Q 2938 1803 2653 2086 
Q 2369 2369 1819 2369 
L 1522 2369 
L 1522 2688 
L 1678 2688 
Q 2225 2688 2498 2914 
Q 2772 3141 2772 3597 
Q 2772 4006 2547 4223 
Q 2322 4441 1900 4441 
Q 1478 4441 1245 4241 
Q 1013 4041 972 3647 
L 622 3647 
L 622 4469 
z
" transform="scale(0.015625)"/>
       </defs>
       <use xlink:href="#DejaVuSerif-33"/>
       <use xlink:href="#DejaVuSerif-30" x="63.623047"/>
      </g>
     </g>
    </g>
    <g id="xtick_15">
     <g id="line2d_55">
      <path d="M 353.099666 234.42 
L 353.099666 158.68 
" clip-path="url(#p140e5d32f9)" style="fill: none; stroke: #b0b0b0; stroke-width: 0.8; stroke-linecap: round"/>
     </g>
     <g id="line2d_56"/>
     <g id="text_17">
      <!-- 40 -->
      <g style="fill: #262626" transform="translate(347.373416 244.758594) scale(0.09 -0.09)">
       <defs>
        <path id="DejaVuSerif-34" d="M 2234 1581 
L 2234 4063 
L 641 1581 
L 2234 1581 
z
M 3609 0 
L 1484 0 
L 1484 331 
L 2234 331 
L 2234 1247 
L 197 1247 
L 197 1588 
L 2241 4750 
L 2859 4750 
L 2859 1581 
L 3750 1581 
L 3750 1247 
L 2859 1247 
L 2859 331 
L 3609 331 
L 3609 0 
z
" transform="scale(0.015625)"/>
       </defs>
       <use xlink:href="#DejaVuSerif-34"/>
       <use xlink:href="#DejaVuSerif-30" x="63.623047"/>
      </g>
     </g>
    </g>
    <g id="text_18">
     <!-- Time [s] -->
     <g style="fill: #262626" transform="translate(197.758828 257.468906) scale(0.09 -0.09)">
      <defs>
       <path id="DejaVuSerif-54" d="M 1222 0 
L 1222 331 
L 1819 331 
L 1819 4294 
L 447 4294 
L 447 3566 
L 63 3566 
L 63 4666 
L 4206 4666 
L 4206 3566 
L 3822 3566 
L 3822 4294 
L 2450 4294 
L 2450 331 
L 3047 331 
L 3047 0 
L 1222 0 
z
" transform="scale(0.015625)"/>
       <path id="DejaVuSerif-5b" d="M 550 4863 
L 2003 4863 
L 2003 4531 
L 1147 4531 
L 1147 -513 
L 2003 -513 
L 2003 -844 
L 550 -844 
L 550 4863 
z
" transform="scale(0.015625)"/>
       <path id="DejaVuSerif-5d" d="M 1947 4863 
L 1947 -844 
L 494 -844 
L 494 -513 
L 1350 -513 
L 1350 4531 
L 494 4531 
L 494 4863 
L 1947 4863 
z
" transform="scale(0.015625)"/>
      </defs>
      <use xlink:href="#DejaVuSerif-54"/>
      <use xlink:href="#DejaVuSerif-69" x="66.699219"/>
      <use xlink:href="#DejaVuSerif-6d" x="98.681641"/>
      <use xlink:href="#DejaVuSerif-65" x="193.505859"/>
      <use xlink:href="#DejaVuSerif-20" x="252.685547"/>
      <use xlink:href="#DejaVuSerif-5b" x="284.472656"/>
      <use xlink:href="#DejaVuSerif-73" x="323.486328"/>
      <use xlink:href="#DejaVuSerif-5d" x="374.804688"/>
     </g>
    </g>
   </g>
   <g id="matplotlib.axis_6">
    <g id="ytick_7">
     <g id="line2d_57">
      <path d="M 50.991094 217.591306 
L 381.771094 217.591306 
" clip-path="url(#p140e5d32f9)" style="fill: none; stroke: #b0b0b0; stroke-width: 0.8; stroke-linecap: round"/>
     </g>
     <g id="line2d_58"/>
     <g id="text_19">
      <!-- −0.05 -->
      <g style="fill: #262626" transform="translate(19.910312 221.010603) scale(0.09 -0.09)">
       <defs>
        <path id="DejaVuSerif-2e" d="M 603 325 
Q 603 500 722 622 
Q 841 744 1019 744 
Q 1191 744 1312 622 
Q 1434 500 1434 325 
Q 1434 153 1312 31 
Q 1191 -91 1019 -91 
Q 841 -91 722 29 
Q 603 150 603 325 
z
" transform="scale(0.015625)"/>
        <path id="DejaVuSerif-35" d="M 3219 4666 
L 3219 4153 
L 1081 4153 
L 1081 2816 
Q 1244 2928 1461 2984 
Q 1678 3041 1947 3041 
Q 2703 3041 3140 2622 
Q 3578 2203 3578 1478 
Q 3578 738 3136 323 
Q 2694 -91 1894 -91 
Q 1572 -91 1234 -12 
Q 897 66 544 225 
L 544 1131 
L 897 1131 
Q 925 688 1179 453 
Q 1434 219 1894 219 
Q 2388 219 2653 544 
Q 2919 869 2919 1478 
Q 2919 2084 2655 2407 
Q 2391 2731 1894 2731 
Q 1613 2731 1398 2631 
Q 1184 2531 1019 2322 
L 750 2322 
L 750 4666 
L 3219 4666 
z
" transform="scale(0.015625)"/>
       </defs>
       <use xlink:href="#DejaVuSerif-2212"/>
       <use xlink:href="#DejaVuSerif-30" x="83.789062"/>
       <use xlink:href="#DejaVuSerif-2e" x="147.412109"/>
       <use xlink:href="#DejaVuSerif-30" x="179.199219"/>
       <use xlink:href="#DejaVuSerif-35" x="242.822266"/>
      </g>
     </g>
    </g>
    <g id="ytick_8">
     <g id="line2d_59">
      <path d="M 50.991094 196.742098 
L 381.771094 196.742098 
" clip-path="url(#p140e5d32f9)" style="fill: none; stroke: #b0b0b0; stroke-width: 0.8; stroke-linecap: round"/>
     </g>
     <g id="line2d_60"/>
     <g id="text_20">
      <!-- 0.00 -->
      <g style="fill: #262626" transform="translate(27.452031 200.161395) scale(0.09 -0.09)">
       <use xlink:href="#DejaVuSerif-30"/>
       <use xlink:href="#DejaVuSerif-2e" x="63.623047"/>
       <use xlink:href="#DejaVuSerif-30" x="95.410156"/>
       <use xlink:href="#DejaVuSerif-30" x="159.033203"/>
      </g>
     </g>
    </g>
    <g id="ytick_9">
     <g id="line2d_61">
      <path d="M 50.991094 175.89289 
L 381.771094 175.89289 
" clip-path="url(#p140e5d32f9)" style="fill: none; stroke: #b0b0b0; stroke-width: 0.8; stroke-linecap: round"/>
     </g>
     <g id="line2d_62"/>
     <g id="text_21">
      <!-- 0.05 -->
      <g style="fill: #262626" transform="translate(27.452031 179.312187) scale(0.09 -0.09)">
       <use xlink:href="#DejaVuSerif-30"/>
       <use xlink:href="#DejaVuSerif-2e" x="63.623047"/>
       <use xlink:href="#DejaVuSerif-30" x="95.410156"/>
       <use xlink:href="#DejaVuSerif-35" x="159.033203"/>
      </g>
     </g>
    </g>
    <g id="text_22">
     <!-- $r$ $[rad/s]$ -->
     <g style="fill: #262626" transform="translate(14.038594 214.685) rotate(-90) scale(0.09 -0.09)">
      <defs>
       <path id="DejaVuSans-Oblique-72" d="M 2853 2969 
Q 2766 3016 2653 3041 
Q 2541 3066 2413 3066 
Q 1953 3066 1609 2717 
Q 1266 2369 1153 1784 
L 800 0 
L 225 0 
L 909 3500 
L 1484 3500 
L 1375 2956 
Q 1603 3259 1920 3421 
Q 2238 3584 2597 3584 
Q 2691 3584 2781 3573 
Q 2872 3563 2963 3538 
L 2853 2969 
z
" transform="scale(0.015625)"/>
       <path id="DejaVuSans-Oblique-61" d="M 3438 1997 
L 3047 0 
L 2472 0 
L 2578 531 
Q 2325 219 2001 64 
Q 1678 -91 1281 -91 
Q 834 -91 548 182 
Q 263 456 263 884 
Q 263 1497 752 1853 
Q 1241 2209 2100 2209 
L 2900 2209 
L 2931 2363 
Q 2938 2388 2941 2417 
Q 2944 2447 2944 2509 
Q 2944 2788 2717 2942 
Q 2491 3097 2081 3097 
Q 1800 3097 1504 3025 
Q 1209 2953 897 2809 
L 997 3341 
Q 1322 3463 1633 3523 
Q 1944 3584 2234 3584 
Q 2853 3584 3176 3315 
Q 3500 3047 3500 2534 
Q 3500 2431 3484 2292 
Q 3469 2153 3438 1997 
z
M 2816 1759 
L 2241 1759 
Q 1534 1759 1195 1570 
Q 856 1381 856 984 
Q 856 709 1029 553 
Q 1203 397 1509 397 
Q 1978 397 2328 733 
Q 2678 1069 2791 1631 
L 2816 1759 
z
" transform="scale(0.015625)"/>
       <path id="DejaVuSans-2f" d="M 1625 4666 
L 2156 4666 
L 531 -594 
L 0 -594 
L 1625 4666 
z
" transform="scale(0.015625)"/>
       <path id="DejaVuSans-Oblique-73" d="M 3200 3397 
L 3091 2853 
Q 2863 2978 2609 3040 
Q 2356 3103 2088 3103 
Q 1634 3103 1373 2948 
Q 1113 2794 1113 2528 
Q 1113 2219 1719 2053 
Q 1766 2041 1788 2034 
L 1972 1978 
Q 2547 1819 2739 1644 
Q 2931 1469 2931 1166 
Q 2931 609 2489 259 
Q 2047 -91 1331 -91 
Q 1053 -91 747 -37 
Q 441 16 72 128 
L 184 722 
Q 500 559 806 475 
Q 1113 391 1394 391 
Q 1816 391 2080 572 
Q 2344 753 2344 1031 
Q 2344 1331 1650 1516 
L 1591 1531 
L 1394 1581 
Q 956 1697 753 1886 
Q 550 2075 550 2369 
Q 550 2928 970 3256 
Q 1391 3584 2113 3584 
Q 2397 3584 2667 3537 
Q 2938 3491 3200 3397 
z
" transform="scale(0.015625)"/>
      </defs>
      <use xlink:href="#DejaVuSans-Oblique-72" transform="translate(0 0.015625)"/>
      <use xlink:href="#DejaVuSerif-20" transform="translate(41.113281 0.015625)"/>
      <use xlink:href="#DejaVuSans-5b" transform="translate(72.900391 0.015625)"/>
      <use xlink:href="#DejaVuSans-Oblique-72" transform="translate(111.914062 0.015625)"/>
      <use xlink:href="#DejaVuSans-Oblique-61" transform="translate(153.027344 0.015625)"/>
      <use xlink:href="#DejaVuSans-Oblique-64" transform="translate(214.306641 0.015625)"/>
      <use xlink:href="#DejaVuSans-2f" transform="translate(277.783203 0.015625)"/>
      <use xlink:href="#DejaVuSans-Oblique-73" transform="translate(311.474609 0.015625)"/>
      <use xlink:href="#DejaVuSans-5d" transform="translate(363.574219 0.015625)"/>
     </g>
    </g>
   </g>
   <g id="line2d_63">
    <path d="M 66.026548 196.742098 
L 66.959536 196.857801 
L 67.964292 197.225854 
L 69.040816 197.87939 
L 70.189109 198.844443 
L 71.480938 200.241134 
L 72.916303 202.139983 
L 74.71051 204.928004 
L 77.294168 208.98653 
L 78.944839 211.100923 
L 80.739046 213.020151 
L 82.676789 214.770883 
L 84.758069 216.352961 
L 86.767581 217.649489 
L 89.064166 218.889459 
L 91.791361 220.065846 
L 94.518555 221.07395 
L 98.106969 222.133106 
L 102.413066 223.174553 
L 107.508614 224.150589 
L 117.125563 225.576517 
L 119.422148 225.755412 
L 120.355136 225.541817 
L 121.359892 225.065625 
L 122.436416 224.301683 
L 123.656477 223.138876 
L 125.020074 221.505786 
L 126.598976 219.239201 
L 128.608488 215.927103 
L 130.761536 211.926858 
L 133.488731 206.375589 
L 136.933608 198.752286 
L 138.799584 194.851385 
L 140.378486 192.114269 
L 142.029156 189.679154 
L 143.823363 187.442015 
L 145.904643 185.266063 
L 147.842387 183.54217 
L 149.923667 181.965814 
L 152.220252 180.509056 
L 154.660373 179.186132 
L 157.746409 177.78544 
L 160.545372 176.720685 
L 165.927993 174.970471 
L 170.521163 173.706698 
L 175.616711 172.589944 
L 182.937076 171.216667 
L 192.554025 169.658539 
L 201.883901 168.478647 
L 211.716156 167.45535 
L 222.194324 166.563051 
L 231.380664 166.03372 
L 239.705785 165.730594 
L 240.638772 165.996141 
L 241.643528 166.522648 
L 242.720052 167.352674 
L 243.940113 168.565649 
L 245.30371 170.240879 
L 246.954381 172.61211 
L 248.748588 175.584287 
L 251.188709 180.071152 
L 254.131209 185.964928 
L 259.800903 197.507774 
L 261.451573 200.051313 
L 263.174012 202.299167 
L 264.968219 204.287819 
L 267.049499 206.258073 
L 269.274316 208.063419 
L 271.929742 209.91715 
L 274.585168 211.496652 
L 277.240595 212.820039 
L 280.254862 214.063284 
L 284.202118 215.449083 
L 289.297666 216.993066 
L 296.905103 219.003428 
L 301.354737 219.974907 
L 307.598577 221.037151 
L 323.818208 223.599023 
L 330.42089 224.398538 
L 346.927594 226.014711 
L 363.506067 227.12706 
L 366.735639 227.303154 
L 366.735639 227.303154 
" clip-path="url(#p140e5d32f9)" style="fill: none; stroke: #0000ff; stroke-linecap: round"/>
   </g>
   <g id="line2d_64">
    <path d="M 66.026548 196.742098 
L 66.959536 196.857745 
L 67.964292 197.225358 
L 69.040816 197.877588 
L 70.189109 198.838208 
L 71.480938 200.229492 
L 72.988071 202.210496 
L 74.782278 204.987142 
L 77.294168 208.871561 
L 78.944839 210.959774 
L 80.667277 212.785721 
L 82.461484 214.367638 
L 84.542764 215.901874 
L 86.624044 217.162353 
L 89.351239 218.526603 
L 92.22197 219.62513 
L 95.020933 220.496533 
L 98.322274 221.292494 
L 104.566114 222.49617 
L 109.159284 223.146429 
L 115.618429 223.842284 
L 120.570441 224.125013 
L 121.503428 223.927128 
L 122.508184 223.489853 
L 123.584708 222.756881 
L 124.733001 221.700459 
L 126.096598 220.136542 
L 127.603732 218.052242 
L 129.397939 215.169419 
L 131.694524 211.031464 
L 134.062877 206.295983 
L 137.364218 199.144919 
L 140.234949 193.045849 
L 141.813851 190.320968 
L 143.464522 187.930324 
L 145.330497 185.626659 
L 147.124704 183.755026 
L 149.062448 182.05611 
L 151.071959 180.605326 
L 153.512081 179.136433 
L 156.023971 177.87963 
L 158.679397 176.802289 
L 161.980738 175.730577 
L 167.865737 174.074636 
L 172.028297 173.155442 
L 176.549699 172.406187 
L 185.305429 171.244969 
L 195.998902 170.061359 
L 203.032194 169.488208 
L 222.266093 168.299131 
L 232.672493 167.970247 
L 241.14115 167.818848 
L 242.074138 168.108107 
L 243.078894 168.665772 
L 244.298954 169.623579 
L 245.519015 170.896613 
L 247.026149 172.799934 
L 248.748588 175.357812 
L 250.829868 178.874842 
L 253.269989 183.472924 
L 256.356025 189.792787 
L 260.662122 198.730487 
L 262.241024 201.324911 
L 263.963463 203.719953 
L 265.75767 205.826805 
L 267.695414 207.767702 
L 269.991999 209.719735 
L 272.216815 211.328364 
L 274.585168 212.757977 
L 277.02529 213.981062 
L 279.967789 215.19611 
L 283.69974 216.477272 
L 287.790532 217.639549 
L 293.101384 218.88562 
L 299.201688 220.166825 
L 303.29248 220.733507 
L 313.411808 221.995727 
L 322.095769 222.947618 
L 333.363389 223.907136 
L 346.712289 224.57593 
L 363.147225 225.358514 
L 365.946188 225.415564 
L 365.946188 225.415564 
" clip-path="url(#p140e5d32f9)" style="fill: none; stroke: #008000; stroke-linecap: round"/>
   </g>
   <g id="line2d_65">
    <path d="M 66.026548 196.742098 
L 66.887768 196.850435 
L 67.820755 197.191943 
L 68.825511 197.798242 
L 69.973804 198.753846 
L 71.337401 200.189881 
L 73.05984 202.378383 
L 75.356425 205.699566 
L 77.65301 208.957166 
L 79.590753 211.279386 
L 81.672033 213.416476 
L 83.753313 215.227341 
L 86.121667 216.991835 
L 88.705325 218.637982 
L 91.432519 220.114344 
L 94.375019 221.455049 
L 97.819896 222.774045 
L 101.623615 223.993723 
L 106.790931 225.380826 
L 111.886479 226.515644 
L 117.986783 227.66662 
L 118.991539 227.675667 
L 119.924526 227.470846 
L 120.929282 227.009992 
L 121.934038 226.298084 
L 123.08233 225.185838 
L 124.374159 223.59533 
L 125.809525 221.452729 
L 127.316659 218.809524 
L 129.326171 214.815939 
L 131.909829 209.149254 
L 139.158425 192.95913 
L 140.593791 190.518681 
L 142.244461 188.132238 
L 143.9669 186.022371 
L 145.904643 184.006263 
L 148.057692 182.108188 
L 150.354277 180.386255 
L 152.937935 178.733642 
L 155.808666 177.167487 
L 159.325312 175.510462 
L 163.057262 174.009139 
L 167.363359 172.52109 
L 172.817748 170.865143 
L 178.272137 169.438268 
L 184.874819 167.957504 
L 192.33872 166.543703 
L 199.587316 165.395226 
L 206.835913 164.431713 
L 216.883472 163.339115 
L 226.787494 162.479693 
L 232.744261 162.139653 
L 233.677249 162.321829 
L 234.682005 162.751575 
L 235.686761 163.429598 
L 236.835053 164.495047 
L 238.055114 165.965019 
L 239.418711 167.976889 
L 240.997614 170.729575 
L 242.863589 174.469058 
L 245.447247 180.226032 
L 250.183953 191.461299 
L 252.552307 196.796665 
L 254.05944 199.591401 
L 255.638343 202.064041 
L 257.289013 204.248195 
L 259.08322 206.262038 
L 261.092732 208.178207 
L 263.317549 209.988867 
L 265.75767 211.678549 
L 268.556633 213.345282 
L 271.929742 215.085986 
L 275.733461 216.789045 
L 280.039558 218.467862 
L 285.35041 220.289981 
L 290.589495 221.846301 
L 296.187421 223.278927 
L 304.1537 225.05121 
L 311.474064 226.446799 
L 319.081502 227.65691 
L 327.334854 228.757317 
L 335.588206 229.658126 
L 346.28168 230.573656 
L 352.166678 230.977273 
L 352.166678 230.977273 
" clip-path="url(#p140e5d32f9)" style="fill: none; stroke: #ff0000; stroke-linecap: round"/>
   </g>
   <g id="patch_9">
    <path d="M 50.991094 234.42 
L 50.991094 158.68 
" style="fill: none; stroke: #000000; stroke-linejoin: miter; stroke-linecap: square"/>
   </g>
   <g id="patch_10">
    <path d="M 50.991094 234.42 
L 381.771094 234.42 
" style="fill: none; stroke: #000000; stroke-linejoin: miter; stroke-linecap: square"/>
   </g>
  </g>
 </g>
 <defs>
  <clipPath id="pd99128e8c2">
   <rect x="50.991094" y="7.2" width="330.78" height="75.74"/>
  </clipPath>
  <clipPath id="pf2b024f558">
   <rect x="50.991094" y="82.94" width="330.78" height="75.74"/>
  </clipPath>
  <clipPath id="p140e5d32f9">
   <rect x="50.991094" y="158.68" width="330.78" height="75.74"/>
  </clipPath>
 </defs>
</svg>
