<?xml version="1.0" encoding="utf-8" standalone="no"?>
<!DOCTYPE svg PUBLIC "-//W3C//DTD SVG 1.1//EN"
  "http://www.w3.org/Graphics/SVG/1.1/DTD/svg11.dtd">
<svg xmlns:xlink="http://www.w3.org/1999/xlink" width="518.4pt" height="345.6pt" viewBox="0 0 518.4 345.6" xmlns="http://www.w3.org/2000/svg" version="1.1">
 <metadata>
  <rdf:RDF xmlns:dc="http://purl.org/dc/elements/1.1/" xmlns:cc="http://creativecommons.org/ns#" xmlns:rdf="http://www.w3.org/1999/02/22-rdf-syntax-ns#">
   <cc:Work>
    <dc:type rdf:resource="http://purl.org/dc/dcmitype/StillImage"/>
    <dc:date>2024-01-31T16:32:22.820722</dc:date>
    <dc:format>image/svg+xml</dc:format>
    <dc:creator>
     <cc:Agent>
      <dc:title>Matplotlib v3.8.2, https://matplotlib.org/</dc:title>
     </cc:Agent>
    </dc:creator>
   </cc:Work>
  </rdf:RDF>
 </metadata>
 <defs>
  <style type="text/css">*{stroke-linejoin: round; stroke-linecap: butt}</style>
 </defs>
 <g id="figure_1">
  <g id="patch_1">
   <path d="M 0 345.6 
L 518.4 345.6 
L 518.4 0 
L 0 0 
z
" style="fill: #ffffff"/>
  </g>
  <g id="axes_1">
   <g id="patch_2">
    <path d="M 44.361334 87.668469 
L 515.39976 87.668469 
L 515.39976 18.322931 
L 44.361334 18.322931 
z
" style="fill: #ffffff"/>
   </g>
   <g id="matplotlib.axis_1">
    <g id="xtick_1">
     <g id="line2d_1">
      <path d="M 65.772171 87.668469 
L 65.772171 18.322931 
" clip-path="url(#p6d06507376)" style="fill: none; stroke: #b0b0b0; stroke-width: 0.8; stroke-linecap: round"/>
     </g>
     <g id="line2d_2"/>
    </g>
    <g id="xtick_2">
     <g id="line2d_3">
      <path d="M 128.133687 87.668469 
L 128.133687 18.322931 
" clip-path="url(#p6d06507376)" style="fill: none; stroke: #b0b0b0; stroke-width: 0.8; stroke-linecap: round"/>
     </g>
     <g id="line2d_4"/>
    </g>
    <g id="xtick_3">
     <g id="line2d_5">
      <path d="M 190.495202 87.668469 
L 190.495202 18.322931 
" clip-path="url(#p6d06507376)" style="fill: none; stroke: #b0b0b0; stroke-width: 0.8; stroke-linecap: round"/>
     </g>
     <g id="line2d_6"/>
    </g>
    <g id="xtick_4">
     <g id="line2d_7">
      <path d="M 252.856717 87.668469 
L 252.856717 18.322931 
" clip-path="url(#p6d06507376)" style="fill: none; stroke: #b0b0b0; stroke-width: 0.8; stroke-linecap: round"/>
     </g>
     <g id="line2d_8"/>
    </g>
    <g id="xtick_5">
     <g id="line2d_9">
      <path d="M 315.218233 87.668469 
L 315.218233 18.322931 
" clip-path="url(#p6d06507376)" style="fill: none; stroke: #b0b0b0; stroke-width: 0.8; stroke-linecap: round"/>
     </g>
     <g id="line2d_10"/>
    </g>
    <g id="xtick_6">
     <g id="line2d_11">
      <path d="M 377.579748 87.668469 
L 377.579748 18.322931 
" clip-path="url(#p6d06507376)" style="fill: none; stroke: #b0b0b0; stroke-width: 0.8; stroke-linecap: round"/>
     </g>
     <g id="line2d_12"/>
    </g>
    <g id="xtick_7">
     <g id="line2d_13">
      <path d="M 439.941263 87.668469 
L 439.941263 18.322931 
" clip-path="url(#p6d06507376)" style="fill: none; stroke: #b0b0b0; stroke-width: 0.8; stroke-linecap: round"/>
     </g>
     <g id="line2d_14"/>
    </g>
    <g id="xtick_8">
     <g id="line2d_15">
      <path d="M 502.302779 87.668469 
L 502.302779 18.322931 
" clip-path="url(#p6d06507376)" style="fill: none; stroke: #b0b0b0; stroke-width: 0.8; stroke-linecap: round"/>
     </g>
     <g id="line2d_16"/>
    </g>
   </g>
   <g id="matplotlib.axis_2">
    <g id="ytick_1">
     <g id="line2d_17">
      <path d="M 44.361334 81.241339 
L 515.39976 81.241339 
" clip-path="url(#p6d06507376)" style="fill: none; stroke: #b0b0b0; stroke-width: 0.8; stroke-linecap: round"/>
     </g>
     <g id="line2d_18"/>
     <g id="text_1">
      <!-- −50 -->
      <g style="fill: #262626" transform="translate(17.646178 85.420479) scale(0.11 -0.11)">
       <defs>
        <path id="DejaVuSerif-2212" d="M 678 2259 
L 4684 2259 
L 4684 1753 
L 678 1753 
L 678 2259 
z
" transform="scale(0.015625)"/>
        <path id="DejaVuSerif-35" d="M 3219 4666 
L 3219 4153 
L 1081 4153 
L 1081 2816 
Q 1244 2928 1461 2984 
Q 1678 3041 1947 3041 
Q 2703 3041 3140 2622 
Q 3578 2203 3578 1478 
Q 3578 738 3136 323 
Q 2694 -91 1894 -91 
Q 1572 -91 1234 -12 
Q 897 66 544 225 
L 544 1131 
L 897 1131 
Q 925 688 1179 453 
Q 1434 219 1894 219 
Q 2388 219 2653 544 
Q 2919 869 2919 1478 
Q 2919 2084 2655 2407 
Q 2391 2731 1894 2731 
Q 1613 2731 1398 2631 
Q 1184 2531 1019 2322 
L 750 2322 
L 750 4666 
L 3219 4666 
z
" transform="scale(0.015625)"/>
        <path id="DejaVuSerif-30" d="M 2034 219 
Q 2513 219 2750 744 
Q 2988 1269 2988 2328 
Q 2988 3391 2750 3916 
Q 2513 4441 2034 4441 
Q 1556 4441 1318 3916 
Q 1081 3391 1081 2328 
Q 1081 1269 1318 744 
Q 1556 219 2034 219 
z
M 2034 -91 
Q 1275 -91 848 546 
Q 422 1184 422 2328 
Q 422 3475 848 4112 
Q 1275 4750 2034 4750 
Q 2797 4750 3222 4112 
Q 3647 3475 3647 2328 
Q 3647 1184 3222 546 
Q 2797 -91 2034 -91 
z
" transform="scale(0.015625)"/>
       </defs>
       <use xlink:href="#DejaVuSerif-2212"/>
       <use xlink:href="#DejaVuSerif-35" x="83.789062"/>
       <use xlink:href="#DejaVuSerif-30" x="147.412109"/>
      </g>
     </g>
    </g>
    <g id="ytick_2">
     <g id="line2d_19">
      <path d="M 44.361334 55.796507 
L 515.39976 55.796507 
" clip-path="url(#p6d06507376)" style="fill: none; stroke: #b0b0b0; stroke-width: 0.8; stroke-linecap: round"/>
     </g>
     <g id="line2d_20"/>
     <g id="text_2">
      <!-- 0 -->
      <g style="fill: #262626" transform="translate(33.862584 59.975648) scale(0.11 -0.11)">
       <use xlink:href="#DejaVuSerif-30"/>
      </g>
     </g>
    </g>
    <g id="ytick_3">
     <g id="line2d_21">
      <path d="M 44.361334 30.351675 
L 515.39976 30.351675 
" clip-path="url(#p6d06507376)" style="fill: none; stroke: #b0b0b0; stroke-width: 0.8; stroke-linecap: round"/>
     </g>
     <g id="line2d_22"/>
     <g id="text_3">
      <!-- 50 -->
      <g style="fill: #262626" transform="translate(26.863834 34.530816) scale(0.11 -0.11)">
       <use xlink:href="#DejaVuSerif-35"/>
       <use xlink:href="#DejaVuSerif-30" x="63.623047"/>
      </g>
     </g>
    </g>
    <g id="text_4">
     <!-- $N_H(v)$ -->
     <g style="fill: #262626" transform="translate(11.358521 67.7357) rotate(-90) scale(0.11 -0.11)">
      <defs>
       <path id="DejaVuSans-Oblique-4e" d="M 1081 4666 
L 1931 4666 
L 3219 666 
L 4000 4666 
L 4616 4666 
L 3706 0 
L 2853 0 
L 1569 4025 
L 788 0 
L 172 0 
L 1081 4666 
z
" transform="scale(0.015625)"/>
       <path id="DejaVuSans-Oblique-48" d="M 1081 4666 
L 1716 4666 
L 1344 2753 
L 3634 2753 
L 4006 4666 
L 4641 4666 
L 3731 0 
L 3097 0 
L 3531 2222 
L 1241 2222 
L 806 0 
L 172 0 
L 1081 4666 
z
" transform="scale(0.015625)"/>
       <path id="DejaVuSans-28" d="M 1984 4856 
Q 1566 4138 1362 3434 
Q 1159 2731 1159 2009 
Q 1159 1288 1364 580 
Q 1569 -128 1984 -844 
L 1484 -844 
Q 1016 -109 783 600 
Q 550 1309 550 2009 
Q 550 2706 781 3412 
Q 1013 4119 1484 4856 
L 1984 4856 
z
" transform="scale(0.015625)"/>
       <path id="DejaVuSans-Oblique-76" d="M 459 3500 
L 1069 3500 
L 1581 525 
L 3256 3500 
L 3866 3500 
L 1875 0 
L 1100 0 
L 459 3500 
z
" transform="scale(0.015625)"/>
       <path id="DejaVuSans-29" d="M 513 4856 
L 1013 4856 
Q 1481 4119 1714 3412 
Q 1947 2706 1947 2009 
Q 1947 1309 1714 600 
Q 1481 -109 1013 -844 
L 513 -844 
Q 928 -128 1133 580 
Q 1338 1288 1338 2009 
Q 1338 2731 1133 3434 
Q 928 4138 513 4856 
z
" transform="scale(0.015625)"/>
      </defs>
      <use xlink:href="#DejaVuSans-Oblique-4e" transform="translate(0 0.125)"/>
      <use xlink:href="#DejaVuSans-Oblique-48" transform="translate(74.804688 -16.28125) scale(0.7)"/>
      <use xlink:href="#DejaVuSans-28" transform="translate(130.175781 0.125)"/>
      <use xlink:href="#DejaVuSans-Oblique-76" transform="translate(169.189453 0.125)"/>
      <use xlink:href="#DejaVuSans-29" transform="translate(228.369141 0.125)"/>
     </g>
    </g>
   </g>
   <g id="line2d_23">
    <path d="M 65.772171 55.85688 
L 67.940201 56.025862 
L 70.294061 56.437354 
L 72.585978 57.059205 
L 74.877894 57.91245 
L 80.51477 60.281538 
L 89.930212 64.432842 
L 95.071538 66.461221 
L 98.973991 67.924298 
L 104.363092 69.626361 
L 108.203601 70.581419 
L 111.36273 71.176315 
L 113.097153 71.240836 
L 114.769633 71.082888 
L 116.504056 70.692259 
L 118.548198 69.985457 
L 120.964002 68.907757 
L 123.132031 67.678048 
L 125.423948 66.108777 
L 131.060824 62.095174 
L 135.644657 59.210773 
L 139.113504 57.274629 
L 142.830126 55.464425 
L 148.033396 53.206092 
L 152.617229 51.396342 
L 156.891344 49.985817 
L 164.944024 47.527828 
L 171.200337 45.820076 
L 181.730765 43.407438 
L 191.641756 41.60679 
L 196.845026 40.817343 
L 201.119141 40.276038 
L 209.109877 39.528883 
L 217.781994 39.146605 
L 219.88808 39.376761 
L 222.73749 39.967365 
L 225.277181 40.716883 
L 227.383267 41.570026 
L 229.675184 42.750189 
L 232.46265 44.430501 
L 235.559834 46.586759 
L 238.409244 48.475674 
L 241.878091 50.482501 
L 246.090262 52.694411 
L 249.559109 54.270016 
L 254.204886 56.114277 
L 259.841762 58.111141 
L 264.425595 59.534809 
L 272.72605 61.779786 
L 280.840674 63.739623 
L 291.618877 66.078852 
L 304.379278 68.214663 
L 310.263928 68.996088 
L 327.2365 70.563963 
L 330.209798 70.608623 
L 332.873376 70.460712 
L 335.103349 70.087366 
L 337.45721 69.46283 
L 339.873014 68.584249 
L 342.66048 67.32676 
L 345.138228 65.953868 
L 353.252851 61.204115 
L 358.518065 58.631795 
L 362.1108 57.14167 
L 367.004351 55.372567 
L 374.561482 52.892704 
L 380.136414 51.375482 
L 388.127151 49.370425 
L 394.073745 47.999486 
L 411.108261 44.604666 
L 420.275928 43.201957 
L 431.363849 41.949462 
L 445.487011 41.01762 
L 447.345321 41.093581 
L 449.265576 41.413674 
L 451.929155 42.104961 
L 454.716621 43.018708 
L 456.946594 43.988165 
L 459.362398 45.300933 
L 469.397276 51.056214 
L 473.609447 53.042621 
L 477.5119 54.65355 
L 482.591283 56.468807 
L 488.290103 58.317495 
L 493.245598 59.676525 
L 493.988922 59.862537 
L 493.988922 59.862537 
" clip-path="url(#p6d06507376)" style="fill: none; stroke: #0000ff; stroke-linecap: round"/>
   </g>
   <g id="line2d_24">
    <path d="M 65.772171 55.85241 
L 68.064088 56.02365 
L 70.479892 56.428658 
L 72.895696 57.058167 
L 75.559275 57.999699 
L 81.567813 60.322211 
L 87.576351 62.680994 
L 91.850466 63.988689 
L 98.850103 66.016064 
L 104.177261 67.16679 
L 108.265545 67.796245 
L 111.920223 68.162827 
L 114.026308 68.121418 
L 116.132394 67.855528 
L 118.486254 67.327071 
L 121.27372 66.476364 
L 123.565637 65.534944 
L 125.919497 64.315842 
L 134.839389 59.355782 
L 139.175448 57.132588 
L 143.139844 55.358469 
L 148.343114 53.295841 
L 152.493342 51.836424 
L 156.457738 50.701188 
L 163.147657 49.000861 
L 170.333125 47.462917 
L 178.014143 46.177228 
L 183.031583 45.51547 
L 191.20815 44.615941 
L 207.932947 43.545073 
L 218.587262 43.437296 
L 221.746391 43.76167 
L 225.153294 44.29169 
L 227.692985 44.901078 
L 230.542395 45.827172 
L 233.205974 46.90434 
L 236.303159 48.425694 
L 241.010879 50.656261 
L 248.382179 53.923251 
L 253.151843 55.720141 
L 258.540945 57.521054 
L 263.372553 58.926754 
L 268.823598 60.238665 
L 275.203798 61.598273 
L 283.380366 63.065123 
L 292.857751 64.466369 
L 307.166744 65.939937 
L 312.122239 66.236896 
L 329.590361 66.993736 
L 333.740588 66.817236 
L 336.651942 66.450046 
L 339.625239 65.846967 
L 342.846311 64.960521 
L 345.386002 64.029054 
L 348.545131 62.616404 
L 352.881189 60.754566 
L 361.553306 57.238094 
L 366.632689 55.522523 
L 373.880101 53.321972 
L 378.340047 52.22482 
L 385.339685 50.70313 
L 393.949858 49.099362 
L 405.781103 47.372699 
L 414.205446 46.402333 
L 422.382013 45.704119 
L 438.549317 44.820358 
L 447.221434 44.713202 
L 449.761125 44.975939 
L 453.787466 45.640847 
L 456.451044 46.274909 
L 458.928792 47.097288 
L 462.211808 48.436474 
L 471.689193 52.502361 
L 477.078294 54.58713 
L 482.219621 56.29994 
L 487.918441 58.008818 
L 492.750049 59.20448 
L 493.988922 59.475771 
L 493.988922 59.475771 
" clip-path="url(#p6d06507376)" style="fill: none; stroke: #008000; stroke-linecap: round"/>
   </g>
   <g id="line2d_25">
    <path d="M 65.772171 55.802142 
L 73.143471 55.931558 
L 110.557461 57.034413 
L 117.309324 56.988088 
L 125.176173 56.69673 
L 148.652833 55.532607 
L 161.784896 55.143702 
L 181.359103 54.780574 
L 208.180722 54.560978 
L 225.09135 54.63554 
L 233.391805 54.908648 
L 259.036494 55.985996 
L 275.141854 56.380149 
L 300.167106 56.756712 
L 328.970924 56.925886 
L 339.625239 56.809648 
L 348.545131 56.483989 
L 366.075196 55.786944 
L 384.348585 55.303083 
L 409.931331 54.89305 
L 435.947682 54.700391 
L 451.371662 54.730332 
L 460.787103 54.99355 
L 488.599821 56.037916 
L 493.988922 56.167397 
L 493.988922 56.167397 
" clip-path="url(#p6d06507376)" style="fill: none; stroke: #ff0000; stroke-linecap: round"/>
   </g>
   <g id="patch_3">
    <path d="M 44.361334 87.668469 
L 44.361334 18.322931 
" style="fill: none; stroke: #000000; stroke-linejoin: miter; stroke-linecap: square"/>
   </g>
   <g id="patch_4">
    <path d="M 44.361334 87.668469 
L 515.39976 87.668469 
" style="fill: none; stroke: #000000; stroke-linejoin: miter; stroke-linecap: square"/>
   </g>
   <g id="legend_1">
    <g id="line2d_26">
     <path d="M 74.198594 11.927551 
L 85.198594 11.927551 
L 96.198594 11.927551 
" style="fill: none; stroke: #0000ff; stroke-linecap: round"/>
    </g>
    <g id="text_5">
     <!-- Reference model -->
     <g style="fill: #262626" transform="translate(104.998594 15.777551) scale(0.11 -0.11)">
      <defs>
       <path id="DejaVuSerif-52" d="M 3066 2316 
Q 3284 2256 3442 2114 
Q 3600 1972 3725 1716 
L 4403 331 
L 4972 331 
L 4972 0 
L 3872 0 
L 3144 1484 
Q 2934 1916 2759 2042 
Q 2584 2169 2278 2169 
L 1581 2169 
L 1581 331 
L 2241 331 
L 2241 0 
L 353 0 
L 353 331 
L 947 331 
L 947 4331 
L 353 4331 
L 353 4666 
L 2719 4666 
Q 3400 4666 3770 4341 
Q 4141 4016 4141 3419 
Q 4141 2938 3870 2661 
Q 3600 2384 3066 2316 
z
M 1581 2503 
L 2503 2503 
Q 2975 2503 3200 2726 
Q 3425 2950 3425 3419 
Q 3425 3888 3200 4109 
Q 2975 4331 2503 4331 
L 1581 4331 
L 1581 2503 
z
" transform="scale(0.015625)"/>
       <path id="DejaVuSerif-65" d="M 3469 1600 
L 991 1600 
L 991 1575 
Q 991 903 1244 561 
Q 1497 219 1991 219 
Q 2369 219 2611 417 
Q 2853 616 2950 1006 
L 3413 1006 
Q 3275 459 2904 184 
Q 2534 -91 1931 -91 
Q 1203 -91 761 389 
Q 319 869 319 1663 
Q 319 2450 753 2931 
Q 1188 3413 1894 3413 
Q 2647 3413 3050 2948 
Q 3453 2484 3469 1600 
z
M 2791 1931 
Q 2772 2513 2545 2808 
Q 2319 3103 1894 3103 
Q 1497 3103 1269 2806 
Q 1041 2509 991 1931 
L 2791 1931 
z
" transform="scale(0.015625)"/>
       <path id="DejaVuSerif-66" d="M 2753 4078 
L 2450 4078 
Q 2447 4313 2317 4434 
Q 2188 4556 1941 4556 
Q 1619 4556 1487 4379 
Q 1356 4203 1356 3750 
L 1356 3322 
L 2284 3322 
L 2284 2988 
L 1356 2988 
L 1356 331 
L 2094 331 
L 2094 0 
L 231 0 
L 231 331 
L 781 331 
L 781 2988 
L 231 2988 
L 231 3322 
L 781 3322 
L 781 3738 
Q 781 4294 1070 4578 
Q 1359 4863 1919 4863 
Q 2128 4863 2337 4825 
Q 2547 4788 2753 4709 
L 2753 4078 
z
" transform="scale(0.015625)"/>
       <path id="DejaVuSerif-72" d="M 3059 3328 
L 3059 2497 
L 2728 2497 
Q 2713 2744 2591 2866 
Q 2469 2988 2234 2988 
Q 1809 2988 1582 2694 
Q 1356 2400 1356 1850 
L 1356 331 
L 2022 331 
L 2022 0 
L 263 0 
L 263 331 
L 781 331 
L 781 2994 
L 231 2994 
L 231 3322 
L 1356 3322 
L 1356 2731 
Q 1525 3078 1790 3245 
Q 2056 3413 2438 3413 
Q 2578 3413 2733 3391 
Q 2888 3369 3059 3328 
z
" transform="scale(0.015625)"/>
       <path id="DejaVuSerif-6e" d="M 263 0 
L 263 331 
L 781 331 
L 781 2988 
L 231 2988 
L 231 3322 
L 1356 3322 
L 1356 2731 
Q 1516 3069 1770 3241 
Q 2025 3413 2363 3413 
Q 2913 3413 3172 3097 
Q 3431 2781 3431 2113 
L 3431 331 
L 3944 331 
L 3944 0 
L 2356 0 
L 2356 331 
L 2853 331 
L 2853 1931 
Q 2853 2541 2703 2767 
Q 2553 2994 2175 2994 
Q 1775 2994 1565 2701 
Q 1356 2409 1356 1850 
L 1356 331 
L 1856 331 
L 1856 0 
L 263 0 
z
" transform="scale(0.015625)"/>
       <path id="DejaVuSerif-63" d="M 3291 997 
Q 3169 466 2822 187 
Q 2475 -91 1925 -91 
Q 1200 -91 759 389 
Q 319 869 319 1663 
Q 319 2459 759 2936 
Q 1200 3413 1925 3413 
Q 2241 3413 2553 3339 
Q 2866 3266 3181 3116 
L 3181 2266 
L 2847 2266 
Q 2781 2703 2561 2903 
Q 2341 3103 1931 3103 
Q 1466 3103 1228 2742 
Q 991 2381 991 1663 
Q 991 944 1227 581 
Q 1463 219 1931 219 
Q 2303 219 2525 412 
Q 2747 606 2828 997 
L 3291 997 
z
" transform="scale(0.015625)"/>
       <path id="DejaVuSerif-20" transform="scale(0.015625)"/>
       <path id="DejaVuSerif-6d" d="M 3316 2675 
Q 3481 3041 3739 3227 
Q 3997 3413 4341 3413 
Q 4863 3413 5119 3089 
Q 5375 2766 5375 2113 
L 5375 331 
L 5894 331 
L 5894 0 
L 4300 0 
L 4300 331 
L 4800 331 
L 4800 2047 
Q 4800 2556 4650 2772 
Q 4500 2988 4153 2988 
Q 3769 2988 3567 2697 
Q 3366 2406 3366 1850 
L 3366 331 
L 3866 331 
L 3866 0 
L 2291 0 
L 2291 331 
L 2791 331 
L 2791 2069 
Q 2791 2566 2641 2777 
Q 2491 2988 2144 2988 
Q 1759 2988 1557 2697 
Q 1356 2406 1356 1850 
L 1356 331 
L 1856 331 
L 1856 0 
L 263 0 
L 263 331 
L 781 331 
L 781 2994 
L 231 2994 
L 231 3322 
L 1356 3322 
L 1356 2731 
Q 1516 3063 1762 3238 
Q 2009 3413 2322 3413 
Q 2709 3413 2968 3220 
Q 3228 3028 3316 2675 
z
" transform="scale(0.015625)"/>
       <path id="DejaVuSerif-6f" d="M 1925 219 
Q 2388 219 2623 584 
Q 2859 950 2859 1663 
Q 2859 2375 2623 2739 
Q 2388 3103 1925 3103 
Q 1463 3103 1227 2739 
Q 991 2375 991 1663 
Q 991 950 1228 584 
Q 1466 219 1925 219 
z
M 1925 -91 
Q 1200 -91 759 389 
Q 319 869 319 1663 
Q 319 2456 758 2934 
Q 1197 3413 1925 3413 
Q 2653 3413 3092 2934 
Q 3531 2456 3531 1663 
Q 3531 869 3092 389 
Q 2653 -91 1925 -91 
z
" transform="scale(0.015625)"/>
       <path id="DejaVuSerif-64" d="M 3359 331 
L 3909 331 
L 3909 0 
L 2784 0 
L 2784 519 
Q 2616 206 2355 57 
Q 2094 -91 1709 -91 
Q 1097 -91 708 395 
Q 319 881 319 1663 
Q 319 2444 706 2928 
Q 1094 3413 1709 3413 
Q 2094 3413 2355 3264 
Q 2616 3116 2784 2803 
L 2784 4531 
L 2241 4531 
L 2241 4863 
L 3359 4863 
L 3359 331 
z
M 2784 1497 
L 2784 1825 
Q 2784 2422 2554 2737 
Q 2325 3053 1888 3053 
Q 1444 3053 1217 2703 
Q 991 2353 991 1663 
Q 991 975 1217 622 
Q 1444 269 1888 269 
Q 2325 269 2554 583 
Q 2784 897 2784 1497 
z
" transform="scale(0.015625)"/>
       <path id="DejaVuSerif-6c" d="M 1313 331 
L 1856 331 
L 1856 0 
L 184 0 
L 184 331 
L 738 331 
L 738 4531 
L 184 4531 
L 184 4863 
L 1313 4863 
L 1313 331 
z
" transform="scale(0.015625)"/>
      </defs>
      <use xlink:href="#DejaVuSerif-52"/>
      <use xlink:href="#DejaVuSerif-65" x="75.292969"/>
      <use xlink:href="#DejaVuSerif-66" x="134.472656"/>
      <use xlink:href="#DejaVuSerif-65" x="171.484375"/>
      <use xlink:href="#DejaVuSerif-72" x="230.664062"/>
      <use xlink:href="#DejaVuSerif-65" x="278.466797"/>
      <use xlink:href="#DejaVuSerif-6e" x="337.646484"/>
      <use xlink:href="#DejaVuSerif-63" x="402.050781"/>
      <use xlink:href="#DejaVuSerif-65" x="458.056641"/>
      <use xlink:href="#DejaVuSerif-20" x="517.236328"/>
      <use xlink:href="#DejaVuSerif-6d" x="549.023438"/>
      <use xlink:href="#DejaVuSerif-6f" x="643.847656"/>
      <use xlink:href="#DejaVuSerif-64" x="704.052734"/>
      <use xlink:href="#DejaVuSerif-65" x="768.066406"/>
      <use xlink:href="#DejaVuSerif-6c" x="827.246094"/>
     </g>
    </g>
    <g id="line2d_27">
     <path d="M 221.517812 11.927551 
L 232.517812 11.927551 
L 243.517812 11.927551 
" style="fill: none; stroke: #008000; stroke-linecap: round"/>
    </g>
    <g id="text_6">
     <!-- Physics informed ID -->
     <g style="fill: #262626" transform="translate(252.317812 15.777551) scale(0.11 -0.11)">
      <defs>
       <path id="DejaVuSerif-50" d="M 1581 2375 
L 2406 2375 
Q 2872 2375 3115 2626 
Q 3359 2878 3359 3353 
Q 3359 3831 3115 4081 
Q 2872 4331 2406 4331 
L 1581 4331 
L 1581 2375 
z
M 353 0 
L 353 331 
L 947 331 
L 947 4331 
L 353 4331 
L 353 4666 
L 2559 4666 
Q 3259 4666 3668 4311 
Q 4078 3956 4078 3353 
Q 4078 2753 3668 2397 
Q 3259 2041 2559 2041 
L 1581 2041 
L 1581 331 
L 2303 331 
L 2303 0 
L 353 0 
z
" transform="scale(0.015625)"/>
       <path id="DejaVuSerif-68" d="M 263 0 
L 263 331 
L 781 331 
L 781 4531 
L 231 4531 
L 231 4863 
L 1356 4863 
L 1356 2731 
Q 1516 3069 1770 3241 
Q 2025 3413 2363 3413 
Q 2913 3413 3172 3097 
Q 3431 2781 3431 2113 
L 3431 331 
L 3944 331 
L 3944 0 
L 2356 0 
L 2356 331 
L 2853 331 
L 2853 1931 
Q 2853 2541 2704 2764 
Q 2556 2988 2175 2988 
Q 1775 2988 1565 2697 
Q 1356 2406 1356 1850 
L 1356 331 
L 1856 331 
L 1856 0 
L 263 0 
z
" transform="scale(0.015625)"/>
       <path id="DejaVuSerif-79" d="M 1381 -609 
L 1600 -56 
L 359 2988 
L -19 2988 
L -19 3322 
L 1509 3322 
L 1509 2988 
L 978 2988 
L 1913 703 
L 2847 2988 
L 2350 2988 
L 2350 3322 
L 3597 3322 
L 3597 2988 
L 3225 2988 
L 1703 -750 
Q 1547 -1138 1356 -1280 
Q 1166 -1422 819 -1422 
Q 672 -1422 517 -1397 
Q 363 -1372 206 -1325 
L 206 -691 
L 500 -691 
Q 519 -903 608 -995 
Q 697 -1088 884 -1088 
Q 1056 -1088 1161 -992 
Q 1266 -897 1381 -609 
z
" transform="scale(0.015625)"/>
       <path id="DejaVuSerif-73" d="M 359 184 
L 359 959 
L 691 959 
Q 703 588 923 403 
Q 1144 219 1575 219 
Q 1963 219 2166 364 
Q 2369 509 2369 788 
Q 2369 1006 2220 1140 
Q 2072 1275 1594 1428 
L 1178 1569 
Q 750 1706 558 1912 
Q 366 2119 366 2438 
Q 366 2894 700 3153 
Q 1034 3413 1625 3413 
Q 1888 3413 2178 3344 
Q 2469 3275 2778 3144 
L 2778 2419 
L 2447 2419 
Q 2434 2741 2221 2922 
Q 2009 3103 1644 3103 
Q 1281 3103 1095 2975 
Q 909 2847 909 2591 
Q 909 2381 1050 2254 
Q 1191 2128 1613 1997 
L 2069 1856 
Q 2541 1709 2748 1489 
Q 2956 1269 2956 922 
Q 2956 450 2595 179 
Q 2234 -91 1600 -91 
Q 1278 -91 972 -22 
Q 666 47 359 184 
z
" transform="scale(0.015625)"/>
       <path id="DejaVuSerif-69" d="M 622 4353 
Q 622 4497 726 4603 
Q 831 4709 978 4709 
Q 1122 4709 1226 4603 
Q 1331 4497 1331 4353 
Q 1331 4206 1228 4103 
Q 1125 4000 978 4000 
Q 831 4000 726 4103 
Q 622 4206 622 4353 
z
M 1356 331 
L 1900 331 
L 1900 0 
L 231 0 
L 231 331 
L 781 331 
L 781 2988 
L 231 2988 
L 231 3322 
L 1356 3322 
L 1356 331 
z
" transform="scale(0.015625)"/>
       <path id="DejaVuSerif-49" d="M 1581 331 
L 2175 331 
L 2175 0 
L 353 0 
L 353 331 
L 947 331 
L 947 4331 
L 353 4331 
L 353 4666 
L 2175 4666 
L 2175 4331 
L 1581 4331 
L 1581 331 
z
" transform="scale(0.015625)"/>
       <path id="DejaVuSerif-44" d="M 1581 331 
L 2163 331 
Q 3072 331 3558 850 
Q 4044 1369 4044 2338 
Q 4044 3306 3559 3818 
Q 3075 4331 2163 4331 
L 1581 4331 
L 1581 331 
z
M 353 0 
L 353 331 
L 947 331 
L 947 4331 
L 353 4331 
L 353 4666 
L 2209 4666 
Q 3416 4666 4089 4050 
Q 4763 3434 4763 2338 
Q 4763 1238 4088 619 
Q 3413 0 2209 0 
L 353 0 
z
" transform="scale(0.015625)"/>
      </defs>
      <use xlink:href="#DejaVuSerif-50"/>
      <use xlink:href="#DejaVuSerif-68" x="67.285156"/>
      <use xlink:href="#DejaVuSerif-79" x="131.689453"/>
      <use xlink:href="#DejaVuSerif-73" x="188.183594"/>
      <use xlink:href="#DejaVuSerif-69" x="239.501953"/>
      <use xlink:href="#DejaVuSerif-63" x="271.484375"/>
      <use xlink:href="#DejaVuSerif-73" x="327.490234"/>
      <use xlink:href="#DejaVuSerif-20" x="378.808594"/>
      <use xlink:href="#DejaVuSerif-69" x="410.595703"/>
      <use xlink:href="#DejaVuSerif-6e" x="442.578125"/>
      <use xlink:href="#DejaVuSerif-66" x="506.982422"/>
      <use xlink:href="#DejaVuSerif-6f" x="543.994141"/>
      <use xlink:href="#DejaVuSerif-72" x="604.199219"/>
      <use xlink:href="#DejaVuSerif-6d" x="652.001953"/>
      <use xlink:href="#DejaVuSerif-65" x="746.826172"/>
      <use xlink:href="#DejaVuSerif-64" x="806.005859"/>
      <use xlink:href="#DejaVuSerif-20" x="870.019531"/>
      <use xlink:href="#DejaVuSerif-49" x="901.806641"/>
      <use xlink:href="#DejaVuSerif-44" x="941.308594"/>
     </g>
    </g>
    <g id="line2d_28">
     <path d="M 386.679375 11.927551 
L 397.679375 11.927551 
L 408.679375 11.927551 
" style="fill: none; stroke: #ff0000; stroke-linecap: round"/>
    </g>
    <g id="text_7">
     <!-- Abkowitz ID -->
     <g style="fill: #262626" transform="translate(417.479375 15.777551) scale(0.11 -0.11)">
      <defs>
       <path id="DejaVuSerif-41" d="M 1281 1691 
L 2994 1691 
L 2138 3909 
L 1281 1691 
z
M -38 0 
L -38 331 
L 372 331 
L 2034 4666 
L 2559 4666 
L 4225 331 
L 4684 331 
L 4684 0 
L 2988 0 
L 2988 331 
L 3506 331 
L 3116 1356 
L 1153 1356 
L 763 331 
L 1275 331 
L 1275 0 
L -38 0 
z
" transform="scale(0.015625)"/>
       <path id="DejaVuSerif-62" d="M 738 331 
L 738 4531 
L 184 4531 
L 184 4863 
L 1313 4863 
L 1313 2803 
Q 1481 3116 1742 3264 
Q 2003 3413 2388 3413 
Q 3000 3413 3387 2928 
Q 3775 2444 3775 1663 
Q 3775 881 3387 395 
Q 3000 -91 2388 -91 
Q 2003 -91 1742 57 
Q 1481 206 1313 519 
L 1313 0 
L 184 0 
L 184 331 
L 738 331 
z
M 1313 1497 
Q 1313 897 1542 583 
Q 1772 269 2209 269 
Q 2650 269 2876 622 
Q 3103 975 3103 1663 
Q 3103 2353 2876 2703 
Q 2650 3053 2209 3053 
Q 1772 3053 1542 2737 
Q 1313 2422 1313 1825 
L 1313 1497 
z
" transform="scale(0.015625)"/>
       <path id="DejaVuSerif-6b" d="M 1831 0 
L 219 0 
L 219 331 
L 738 331 
L 738 4531 
L 184 4531 
L 184 4863 
L 1313 4863 
L 1313 1697 
L 2713 2988 
L 2234 2988 
L 2234 3322 
L 3738 3322 
L 3738 2988 
L 3169 2988 
L 2181 2075 
L 3444 331 
L 3922 331 
L 3922 0 
L 2284 0 
L 2284 331 
L 2759 331 
L 1766 1697 
L 1313 1275 
L 1313 331 
L 1831 331 
L 1831 0 
z
" transform="scale(0.015625)"/>
       <path id="DejaVuSerif-77" d="M 3072 3322 
L 3922 728 
L 4672 2988 
L 4191 2988 
L 4191 3322 
L 5394 3322 
L 5394 2988 
L 5025 2988 
L 4038 0 
L 3559 0 
L 2741 2484 
L 1919 0 
L 1459 0 
L 475 2988 
L 103 2988 
L 103 3322 
L 1606 3322 
L 1606 2988 
L 1069 2988 
L 1813 728 
L 2669 3322 
L 3072 3322 
z
" transform="scale(0.015625)"/>
       <path id="DejaVuSerif-74" d="M 691 2988 
L 184 2988 
L 184 3322 
L 691 3322 
L 691 4353 
L 1269 4353 
L 1269 3322 
L 2350 3322 
L 2350 2988 
L 1269 2988 
L 1269 878 
Q 1269 456 1350 337 
Q 1431 219 1650 219 
Q 1875 219 1978 351 
Q 2081 484 2088 781 
L 2522 781 
Q 2497 328 2275 118 
Q 2053 -91 1600 -91 
Q 1103 -91 897 129 
Q 691 350 691 878 
L 691 2988 
z
" transform="scale(0.015625)"/>
       <path id="DejaVuSerif-7a" d="M 256 0 
L 256 269 
L 2338 2988 
L 691 2988 
L 691 2413 
L 359 2413 
L 359 3322 
L 3078 3322 
L 3078 3053 
L 997 331 
L 2803 331 
L 2803 934 
L 3138 934 
L 3138 0 
L 256 0 
z
" transform="scale(0.015625)"/>
      </defs>
      <use xlink:href="#DejaVuSerif-41"/>
      <use xlink:href="#DejaVuSerif-62" x="72.216797"/>
      <use xlink:href="#DejaVuSerif-6b" x="136.230469"/>
      <use xlink:href="#DejaVuSerif-6f" x="196.826172"/>
      <use xlink:href="#DejaVuSerif-77" x="257.03125"/>
      <use xlink:href="#DejaVuSerif-69" x="342.626953"/>
      <use xlink:href="#DejaVuSerif-74" x="374.609375"/>
      <use xlink:href="#DejaVuSerif-7a" x="414.794922"/>
      <use xlink:href="#DejaVuSerif-20" x="467.480469"/>
      <use xlink:href="#DejaVuSerif-49" x="499.267578"/>
      <use xlink:href="#DejaVuSerif-44" x="538.769531"/>
     </g>
    </g>
   </g>
  </g>
  <g id="axes_2">
   <g id="patch_5">
    <path d="M 44.361334 163.048275 
L 515.39976 163.048275 
L 515.39976 93.702737 
L 44.361334 93.702737 
z
" style="fill: #ffffff"/>
   </g>
   <g id="matplotlib.axis_3">
    <g id="xtick_9">
     <g id="line2d_29">
      <path d="M 65.772171 163.048275 
L 65.772171 93.702737 
" clip-path="url(#pf0229630dd)" style="fill: none; stroke: #b0b0b0; stroke-width: 0.8; stroke-linecap: round"/>
     </g>
     <g id="line2d_30"/>
    </g>
    <g id="xtick_10">
     <g id="line2d_31">
      <path d="M 128.133687 163.048275 
L 128.133687 93.702737 
" clip-path="url(#pf0229630dd)" style="fill: none; stroke: #b0b0b0; stroke-width: 0.8; stroke-linecap: round"/>
     </g>
     <g id="line2d_32"/>
    </g>
    <g id="xtick_11">
     <g id="line2d_33">
      <path d="M 190.495202 163.048275 
L 190.495202 93.702737 
" clip-path="url(#pf0229630dd)" style="fill: none; stroke: #b0b0b0; stroke-width: 0.8; stroke-linecap: round"/>
     </g>
     <g id="line2d_34"/>
    </g>
    <g id="xtick_12">
     <g id="line2d_35">
      <path d="M 252.856717 163.048275 
L 252.856717 93.702737 
" clip-path="url(#pf0229630dd)" style="fill: none; stroke: #b0b0b0; stroke-width: 0.8; stroke-linecap: round"/>
     </g>
     <g id="line2d_36"/>
    </g>
    <g id="xtick_13">
     <g id="line2d_37">
      <path d="M 315.218233 163.048275 
L 315.218233 93.702737 
" clip-path="url(#pf0229630dd)" style="fill: none; stroke: #b0b0b0; stroke-width: 0.8; stroke-linecap: round"/>
     </g>
     <g id="line2d_38"/>
    </g>
    <g id="xtick_14">
     <g id="line2d_39">
      <path d="M 377.579748 163.048275 
L 377.579748 93.702737 
" clip-path="url(#pf0229630dd)" style="fill: none; stroke: #b0b0b0; stroke-width: 0.8; stroke-linecap: round"/>
     </g>
     <g id="line2d_40"/>
    </g>
    <g id="xtick_15">
     <g id="line2d_41">
      <path d="M 439.941263 163.048275 
L 439.941263 93.702737 
" clip-path="url(#pf0229630dd)" style="fill: none; stroke: #b0b0b0; stroke-width: 0.8; stroke-linecap: round"/>
     </g>
     <g id="line2d_42"/>
    </g>
    <g id="xtick_16">
     <g id="line2d_43">
      <path d="M 502.302779 163.048275 
L 502.302779 93.702737 
" clip-path="url(#pf0229630dd)" style="fill: none; stroke: #b0b0b0; stroke-width: 0.8; stroke-linecap: round"/>
     </g>
     <g id="line2d_44"/>
    </g>
   </g>
   <g id="matplotlib.axis_4">
    <g id="ytick_4">
     <g id="line2d_45">
      <path d="M 44.361334 156.621144 
L 515.39976 156.621144 
" clip-path="url(#pf0229630dd)" style="fill: none; stroke: #b0b0b0; stroke-width: 0.8; stroke-linecap: round"/>
     </g>
     <g id="line2d_46"/>
     <g id="text_8">
      <!-- −50 -->
      <g style="fill: #262626" transform="translate(17.646178 160.800285) scale(0.11 -0.11)">
       <use xlink:href="#DejaVuSerif-2212"/>
       <use xlink:href="#DejaVuSerif-35" x="83.789062"/>
       <use xlink:href="#DejaVuSerif-30" x="147.412109"/>
      </g>
     </g>
    </g>
    <g id="ytick_5">
     <g id="line2d_47">
      <path d="M 44.361334 131.176312 
L 515.39976 131.176312 
" clip-path="url(#pf0229630dd)" style="fill: none; stroke: #b0b0b0; stroke-width: 0.8; stroke-linecap: round"/>
     </g>
     <g id="line2d_48"/>
     <g id="text_9">
      <!-- 0 -->
      <g style="fill: #262626" transform="translate(33.862584 135.355453) scale(0.11 -0.11)">
       <use xlink:href="#DejaVuSerif-30"/>
      </g>
     </g>
    </g>
    <g id="ytick_6">
     <g id="line2d_49">
      <path d="M 44.361334 105.731481 
L 515.39976 105.731481 
" clip-path="url(#pf0229630dd)" style="fill: none; stroke: #b0b0b0; stroke-width: 0.8; stroke-linecap: round"/>
     </g>
     <g id="line2d_50"/>
     <g id="text_10">
      <!-- 50 -->
      <g style="fill: #262626" transform="translate(26.863834 109.910621) scale(0.11 -0.11)">
       <use xlink:href="#DejaVuSerif-35"/>
       <use xlink:href="#DejaVuSerif-30" x="63.623047"/>
      </g>
     </g>
    </g>
    <g id="text_11">
     <!-- $N_H(r)$ -->
     <g style="fill: #262626" transform="translate(11.358521 142.125506) rotate(-90) scale(0.11 -0.11)">
      <defs>
       <path id="DejaVuSans-Oblique-72" d="M 2853 2969 
Q 2766 3016 2653 3041 
Q 2541 3066 2413 3066 
Q 1953 3066 1609 2717 
Q 1266 2369 1153 1784 
L 800 0 
L 225 0 
L 909 3500 
L 1484 3500 
L 1375 2956 
Q 1603 3259 1920 3421 
Q 2238 3584 2597 3584 
Q 2691 3584 2781 3573 
Q 2872 3563 2963 3538 
L 2853 2969 
z
" transform="scale(0.015625)"/>
      </defs>
      <use xlink:href="#DejaVuSans-Oblique-4e" transform="translate(0 0.125)"/>
      <use xlink:href="#DejaVuSans-Oblique-48" transform="translate(74.804688 -16.28125) scale(0.7)"/>
      <use xlink:href="#DejaVuSans-28" transform="translate(130.175781 0.125)"/>
      <use xlink:href="#DejaVuSans-Oblique-72" transform="translate(169.189453 0.125)"/>
      <use xlink:href="#DejaVuSans-29" transform="translate(210.302734 0.125)"/>
     </g>
    </g>
   </g>
   <g id="line2d_51">
    <path d="M 65.772171 131.304568 
L 66.887158 131.017882 
L 68.126032 130.467129 
L 69.550737 129.584689 
L 71.223216 128.286015 
L 72.833752 126.762322 
L 74.382345 124.979079 
L 76.550374 122.538112 
L 78.594516 120.551027 
L 80.143108 119.364946 
L 83.426124 117.00228 
L 85.222491 115.717212 
L 86.647196 114.97232 
L 88.257732 114.348714 
L 90.301874 113.826359 
L 91.41686 113.430875 
L 94.885707 111.923157 
L 96.434299 111.58575 
L 97.859004 111.491993 
L 99.46954 111.63558 
L 100.336752 111.611598 
L 101.389795 111.300622 
L 103.310049 110.744397 
L 105.478079 110.423053 
L 107.088615 110.381863 
L 108.51332 110.576291 
L 110.185799 110.779706 
L 111.053011 111.016132 
L 111.920223 111.486899 
L 112.911322 112.297056 
L 114.026308 113.516783 
L 115.574901 115.574307 
L 117.866817 119.011593 
L 120.09679 122.254729 
L 127.406146 132.422859 
L 129.140569 134.255929 
L 131.122768 135.985009 
L 133.104966 137.413253 
L 134.963277 138.490635 
L 141.095702 141.501401 
L 143.387619 142.392542 
L 145.617592 142.978393 
L 147.166184 143.440985 
L 150.263369 144.525493 
L 152.183623 144.918267 
L 153.794159 145.035564 
L 156.086076 145.14135 
L 161.599065 146.236918 
L 163.457375 146.298628 
L 165.005968 146.367184 
L 166.368729 146.748295 
L 168.103152 147.170934 
L 170.023407 147.375546 
L 172.005605 147.382177 
L 174.545297 147.321714 
L 179.005242 148.035716 
L 180.925497 148.05554 
L 183.960738 148.009435 
L 186.438486 148.509074 
L 188.234853 148.524422 
L 190.464826 148.313484 
L 193.128405 147.971283 
L 194.924772 148.296012 
L 196.968914 148.54226 
L 198.57945 148.522674 
L 200.313873 148.273492 
L 202.172184 148.004264 
L 203.411058 148.163885 
L 205.331312 148.343109 
L 207.31351 148.249192 
L 209.233765 147.946751 
L 211.401794 147.57418 
L 212.826499 147.712451 
L 214.437035 147.805374 
L 216.667008 147.657372 
L 218.153657 147.352191 
L 219.144756 146.936221 
L 221.56056 145.465454 
L 222.799434 144.535968 
L 224.286082 143.097263 
L 226.516055 140.574619 
L 231.657382 134.647489 
L 236.303159 129.807153 
L 237.851751 128.581995 
L 241.568373 126.105668 
L 243.488627 125.154765 
L 245.904431 124.183368 
L 249.497165 122.896305 
L 252.222688 121.721064 
L 254.204886 121.120438 
L 256.744577 120.658564 
L 258.29317 120.244369 
L 260.832861 119.559232 
L 262.629228 119.322565 
L 264.983089 119.221648 
L 267.027231 119.121046 
L 272.849938 118.147666 
L 274.956023 118.097448 
L 276.194897 118.009285 
L 281.707886 117.067194 
L 283.752028 117.067567 
L 285.362564 117.025877 
L 290.132228 116.237142 
L 292.609976 116.318905 
L 294.344399 116.298985 
L 295.769104 115.965379 
L 297.255753 115.75129 
L 299.485726 115.704905 
L 301.653755 115.859411 
L 303.945672 116.124667 
L 305.494264 115.883407 
L 307.166744 115.695697 
L 309.706435 115.680504 
L 311.564746 115.897638 
L 312.989451 116.017461 
L 314.414156 115.819323 
L 316.33441 115.622704 
L 318.50244 115.60481 
L 320.112976 115.842284 
L 322.157117 116.151958 
L 323.457935 116.005172 
L 326.183458 115.649684 
L 327.793994 115.721229 
L 329.528417 116.012371 
L 332.439771 116.791844 
L 333.554757 117.290589 
L 334.669744 118.051581 
L 336.156392 119.361361 
L 338.262478 121.541171 
L 342.846311 126.463792 
L 348.3593 132.091412 
L 350.093723 133.418967 
L 352.881189 135.258751 
L 354.801444 136.281256 
L 357.155304 137.268212 
L 365.517703 140.182949 
L 367.809619 140.685227 
L 369.296268 141.120604 
L 371.402354 141.715499 
L 373.508439 142.080312 
L 375.428694 142.194249 
L 378.463935 142.353338 
L 383.41943 143.191018 
L 385.277741 143.230186 
L 387.074108 143.298177 
L 388.808531 143.69704 
L 390.914617 144.119528 
L 393.020703 144.316977 
L 397.542592 144.564626 
L 400.206171 145.077917 
L 402.3742 145.158087 
L 406.40054 145.216597 
L 410.117162 145.978157 
L 411.665754 145.909105 
L 415.072657 145.681382 
L 418.293729 146.05914 
L 420.833421 146.019547 
L 422.443957 145.791489 
L 423.682831 145.706784 
L 424.983648 145.910965 
L 426.594184 146.09981 
L 429.257763 146.126542 
L 431.797454 145.918141 
L 433.469934 145.778475 
L 438.611261 146.083137 
L 440.655403 145.811586 
L 442.637601 145.589182 
L 444.372024 145.776968 
L 445.610898 145.769249 
L 446.540053 145.566771 
L 447.531153 145.106259 
L 448.770026 144.254232 
L 450.380562 142.824183 
L 457.937693 135.288789 
L 462.335695 130.79609 
L 464.070119 129.263397 
L 465.990373 127.89335 
L 467.972571 126.723368 
L 471.627249 124.97368 
L 474.414715 123.825193 
L 476.830519 123.013492 
L 480.671028 121.842617 
L 483.582382 120.849486 
L 485.440693 120.477028 
L 487.23706 120.353399 
L 488.847596 120.208331 
L 492.502274 119.342883 
L 493.988922 118.893104 
L 493.988922 118.893104 
" clip-path="url(#pf0229630dd)" style="fill: none; stroke: #0000ff; stroke-linecap: round"/>
   </g>
   <g id="line2d_52">
    <path d="M 65.772171 131.269403 
L 67.072989 131.01167 
L 68.559638 130.484069 
L 70.294061 129.619289 
L 72.090428 128.47691 
L 73.577077 127.282548 
L 79.523671 122.062781 
L 86.647196 117.259572 
L 88.319676 116.56243 
L 92.098241 115.182586 
L 94.328214 114.070492 
L 95.752919 113.600658 
L 97.177624 113.353991 
L 98.416498 113.342793 
L 100.398696 113.392078 
L 101.451739 113.013137 
L 103.248106 112.388828 
L 105.292248 111.981631 
L 106.902784 111.859658 
L 108.141657 111.981658 
L 111.300786 112.63793 
L 112.167998 113.247739 
L 113.097153 114.173767 
L 114.336027 115.757414 
L 116.689887 119.267105 
L 119.353466 123.177518 
L 122.326763 126.874676 
L 124.742567 129.543835 
L 127.096428 131.8181 
L 129.140569 133.440471 
L 131.618317 135.078083 
L 134.034121 136.403845 
L 136.326038 137.405302 
L 138.432123 138.361254 
L 141.405421 139.689525 
L 143.759281 140.535859 
L 149.210326 142.266506 
L 151.192524 142.814373 
L 153.050835 143.092373 
L 154.97109 143.120185 
L 156.086076 143.238542 
L 161.846839 144.451613 
L 163.519319 144.509318 
L 165.005968 144.595276 
L 166.306785 144.993739 
L 168.041209 145.470644 
L 169.837576 145.701298 
L 171.819774 145.748229 
L 174.60724 145.708627 
L 178.695524 146.510156 
L 180.553835 146.600518 
L 182.597977 146.449111 
L 183.527132 146.468176 
L 184.642119 146.783668 
L 186.00488 147.108885 
L 187.553472 147.205942 
L 189.597614 147.097951 
L 191.332037 146.806085 
L 192.756742 146.590626 
L 193.747841 146.742145 
L 196.597251 147.277693 
L 198.207787 147.330093 
L 199.818323 147.141867 
L 202.358015 146.768287 
L 204.340213 147.102477 
L 205.764918 147.181071 
L 207.685172 147.052174 
L 209.48154 146.711764 
L 211.277907 146.366599 
L 212.392893 146.471616 
L 214.313148 146.653826 
L 216.357289 146.542316 
L 217.843938 146.267769 
L 218.896981 145.854047 
L 220.011967 145.107712 
L 223.109152 142.72686 
L 224.967463 140.712984 
L 229.737127 135.433233 
L 231.905156 133.549536 
L 235.497891 130.727058 
L 237.356201 129.538356 
L 241.320598 127.434285 
L 243.426683 126.542528 
L 246.21415 125.582846 
L 249.06356 124.688269 
L 252.904068 123.152231 
L 254.762379 122.673016 
L 258.602888 121.812982 
L 261.018692 121.180503 
L 262.938947 120.947876 
L 265.16892 120.874001 
L 266.965287 120.782685 
L 273.469375 119.693518 
L 277.000165 119.39017 
L 279.849575 118.767769 
L 282.017604 118.536294 
L 284.061746 118.559366 
L 285.30062 118.506449 
L 286.849212 118.090592 
L 288.583636 117.727946 
L 290.380003 117.597681 
L 294.963836 117.484373 
L 296.822147 117.050668 
L 298.494627 116.946604 
L 300.972374 117.015687 
L 302.58291 117.286022 
L 303.759841 117.407247 
L 304.936771 117.230702 
L 307.1048 116.896895 
L 309.520604 116.848104 
L 311.255027 117.03616 
L 312.989451 117.214548 
L 314.290268 117.003201 
L 316.086636 116.762799 
L 318.316609 116.696319 
L 319.741313 116.891095 
L 322.281005 117.311885 
L 323.581822 117.121955 
L 326.05957 116.736237 
L 327.546219 116.778335 
L 329.218699 117.049624 
L 331.448671 117.682315 
L 332.997264 118.246717 
L 334.050307 118.911876 
L 335.28918 119.987316 
L 337.333322 122.096348 
L 341.545493 126.463874 
L 344.952397 129.358902 
L 347.677919 131.390845 
L 349.288455 132.385748 
L 352.695358 134.154525 
L 354.987275 135.151128 
L 357.712797 136.085571 
L 361.429419 137.264298 
L 365.455759 138.57191 
L 367.809619 139.079046 
L 369.296268 139.508339 
L 371.402354 140.101127 
L 373.508439 140.469397 
L 375.428694 140.583655 
L 378.401991 140.729277 
L 383.667205 141.62488 
L 385.401628 141.645889 
L 387.012164 141.71034 
L 388.560757 142.073545 
L 390.666842 142.552456 
L 392.896815 142.80437 
L 395.250675 142.793994 
L 396.489549 142.861174 
L 398.162029 143.256602 
L 399.772565 143.606004 
L 401.69282 143.740596 
L 404.04668 143.694137 
L 405.71916 143.68508 
L 406.958033 143.996801 
L 409.188006 144.610537 
L 410.550768 144.697905 
L 412.285191 144.551753 
L 414.577108 144.319927 
L 415.939869 144.543986 
L 417.922067 144.795594 
L 419.656491 144.825281 
L 421.576745 144.696382 
L 423.620887 144.450285 
L 424.67393 144.624905 
L 426.532241 144.908648 
L 428.948045 144.967782 
L 431.363849 144.804941 
L 433.593822 144.603035 
L 438.115711 144.99322 
L 439.974022 144.787101 
L 442.761488 144.427117 
L 445.920617 144.581409 
L 446.725885 144.31657 
L 447.716984 143.7462 
L 448.955857 142.751902 
L 450.752225 140.968823 
L 452.610535 139.173542 
L 460.167666 132.495252 
L 463.326794 130.231882 
L 465.370936 129.057581 
L 468.096459 127.755102 
L 473.857222 125.502536 
L 477.016351 124.505007 
L 480.237423 123.586725 
L 483.582382 122.437296 
L 485.440693 122.058654 
L 487.175116 121.933298 
L 488.847596 121.785087 
L 492.378386 120.932354 
L 493.988922 120.424982 
L 493.988922 120.424982 
" clip-path="url(#pf0229630dd)" style="fill: none; stroke: #008000; stroke-linecap: round"/>
   </g>
   <g id="line2d_53">
    <path d="M 65.772171 131.342221 
L 66.76327 131.026216 
L 67.878257 130.423777 
L 69.117131 129.492817 
L 70.603779 128.083376 
L 72.090428 126.36623 
L 73.391246 124.5318 
L 75.187613 121.52359 
L 78.037023 116.982856 
L 79.585615 114.879281 
L 81.567813 112.641714 
L 82.744743 111.093947 
L 85.160547 107.886789 
L 86.399421 106.646186 
L 87.824126 105.512893 
L 89.186887 104.715659 
L 91.169086 103.620115 
L 92.531847 102.319916 
L 94.080439 100.956773 
L 95.319313 100.147227 
L 96.496243 99.660863 
L 97.549286 99.455585 
L 98.478441 99.489951 
L 100.212865 99.638961 
L 100.832302 99.33512 
L 103.805599 97.555429 
L 105.416135 97.039649 
L 106.593065 96.859694 
L 107.584164 96.925322 
L 108.699151 97.254533 
L 109.69025 97.46177 
L 110.37163 97.607303 
L 110.991067 97.96431 
L 111.672448 98.642993 
L 112.477716 99.811469 
L 113.406871 101.605532 
L 114.583802 104.393903 
L 116.999606 110.843542 
L 119.229579 116.651411 
L 121.955101 122.729866 
L 124.247018 127.343349 
L 126.476991 131.325918 
L 128.087527 133.790387 
L 129.760006 135.985574 
L 131.866092 138.390352 
L 133.84829 140.322012 
L 135.706601 141.822448 
L 138.308236 143.858739 
L 140.847927 145.912703 
L 143.139844 147.488339 
L 144.874268 148.362212 
L 147.042297 149.413207 
L 150.139481 151.404869 
L 151.688074 152.047218 
L 152.988891 152.358146 
L 154.227765 152.418807 
L 155.714414 152.503861 
L 156.519682 152.822453 
L 159.245204 154.063106 
L 161.041571 154.607838 
L 162.652107 154.877851 
L 165.191799 155.109139 
L 166.306785 155.738894 
L 167.73149 156.473261 
L 169.032308 156.85366 
L 170.642844 157.081985 
L 171.943661 157.06502 
L 174.359465 156.919302 
L 175.474452 157.381808 
L 177.332763 158.074384 
L 178.943299 158.470411 
L 180.368004 158.589903 
L 181.730765 158.468598 
L 183.341301 158.306032 
L 183.960738 158.531273 
L 186.066824 159.501768 
L 187.243754 159.652241 
L 188.606515 159.598043 
L 190.278995 159.313285 
L 191.7037 158.800777 
L 192.632855 158.566091 
L 193.252292 158.658653 
L 194.615053 159.192901 
L 196.163646 159.694469 
L 197.464463 159.890441 
L 198.57945 159.836022 
L 199.818323 159.54338 
L 202.172184 158.854293 
L 202.915508 159.035623 
L 204.835763 159.564186 
L 206.074636 159.600865 
L 207.623229 159.396602 
L 208.98599 158.987317 
L 211.33985 158.166556 
L 212.145118 158.28905 
L 214.127317 158.671796 
L 215.428134 158.6036 
L 216.790895 158.37721 
L 217.843938 157.990555 
L 218.71115 157.428099 
L 219.454474 156.640552 
L 222.365828 152.944563 
L 223.542758 150.925306 
L 225.524956 146.998583 
L 229.055747 139.95292 
L 230.604339 137.365794 
L 233.329861 133.338937 
L 235.807609 129.98966 
L 237.418145 128.195448 
L 240.948936 124.83814 
L 242.559472 123.535643 
L 245.099163 121.821062 
L 246.833587 120.92514 
L 248.444123 120.075183 
L 250.116602 118.803053 
L 252.0988 117.385976 
L 253.833224 116.418056 
L 255.257929 115.889251 
L 257.487902 115.129657 
L 261.390354 113.293257 
L 263.124778 112.960933 
L 264.797258 112.855048 
L 266.841399 112.731815 
L 268.142217 112.228531 
L 270.743852 111.29466 
L 273.283544 110.782284 
L 274.646305 110.72562 
L 275.885179 110.661617 
L 276.814334 110.307209 
L 279.477913 109.227163 
L 281.27428 108.79924 
L 282.698985 108.679044 
L 285.486451 108.586894 
L 286.9731 107.858531 
L 288.273917 107.356987 
L 289.636679 107.084567 
L 290.99944 107.051734 
L 294.468287 107.07367 
L 295.521329 106.553485 
L 296.574372 106.137794 
L 297.689359 105.942628 
L 299.485726 105.888167 
L 301.096262 106.035735 
L 302.211248 106.359026 
L 303.512066 106.714341 
L 304.193446 106.632188 
L 305.370377 106.232199 
L 306.60925 105.877235 
L 308.033955 105.737407 
L 309.830323 105.746964 
L 311.13114 106.015917 
L 312.80362 106.381256 
L 313.546944 106.244689 
L 316.210523 105.549803 
L 317.944946 105.425762 
L 318.997989 105.569696 
L 320.174919 105.961601 
L 321.909343 106.544642 
L 322.590723 106.494389 
L 323.643766 106.182063 
L 325.749852 105.557141 
L 326.740951 105.516938 
L 327.979825 105.679239 
L 329.094811 106.025169 
L 330.705347 106.801594 
L 332.625602 107.893458 
L 333.43087 108.627637 
L 334.298081 109.723324 
L 335.536955 111.711675 
L 337.581097 115.501997 
L 341.173831 122.188206 
L 343.961297 126.488532 
L 346.253214 129.713852 
L 348.545131 132.565842 
L 350.341498 134.343229 
L 353.56257 137.204824 
L 355.606712 138.670853 
L 357.774741 139.948542 
L 360.686095 141.537537 
L 364.46466 143.81866 
L 366.199083 144.658361 
L 369.296268 145.998009 
L 370.968748 146.866393 
L 372.579284 147.464042 
L 374.18982 147.820162 
L 375.800356 147.913415 
L 377.968385 148.029258 
L 379.764752 148.660573 
L 382.304444 149.490537 
L 383.91498 149.786957 
L 385.029966 149.805016 
L 386.76439 149.845412 
L 387.755489 150.170796 
L 391.286279 151.570163 
L 392.834871 151.842836 
L 394.507351 151.86623 
L 396.241775 151.882648 
L 397.294817 152.246746 
L 400.144227 153.345959 
L 401.630876 153.505476 
L 403.55113 153.483934 
L 405.533329 153.36405 
L 406.338597 153.647793 
L 407.453583 154.266502 
L 408.56857 154.850011 
L 409.683556 155.153991 
L 410.674655 155.199833 
L 411.975473 155.018413 
L 414.639051 154.544143 
L 415.630151 154.828152 
L 417.30263 155.269271 
L 418.665392 155.43342 
L 420.895364 155.358704 
L 421.948407 155.086062 
L 423.311168 154.761145 
L 423.930605 154.823152 
L 425.231423 155.28461 
L 426.346409 155.551894 
L 428.018889 155.69225 
L 429.567482 155.644087 
L 431.363849 155.39351 
L 433.346047 154.997095 
L 434.461033 155.237357 
L 437.248499 155.780284 
L 438.735148 155.651211 
L 440.035966 155.342646 
L 442.45177 154.701693 
L 443.257038 154.820304 
L 444.929517 155.145092 
L 445.734785 155.049077 
L 446.354222 154.788376 
L 447.097547 154.19806 
L 447.964758 153.200119 
L 449.079745 151.551229 
L 450.690281 148.704388 
L 452.424704 145.699924 
L 456.017439 139.74385 
L 458.309355 136.135202 
L 460.787103 132.693513 
L 463.388738 129.423041 
L 465.123161 127.634765 
L 467.415078 125.605775 
L 469.397276 124.16136 
L 475.15804 120.274871 
L 476.954407 119.332271 
L 479.927704 117.879366 
L 483.396551 115.722397 
L 484.821256 115.142252 
L 486.06013 114.838551 
L 487.484835 114.72466 
L 488.537877 114.576944 
L 489.59092 114.158056 
L 493.988922 112.060894 
L 493.988922 112.060894 
" clip-path="url(#pf0229630dd)" style="fill: none; stroke: #ff0000; stroke-linecap: round"/>
   </g>
   <g id="patch_6">
    <path d="M 44.361334 163.048275 
L 44.361334 93.702737 
" style="fill: none; stroke: #000000; stroke-linejoin: miter; stroke-linecap: square"/>
   </g>
   <g id="patch_7">
    <path d="M 44.361334 163.048275 
L 515.39976 163.048275 
" style="fill: none; stroke: #000000; stroke-linejoin: miter; stroke-linecap: square"/>
   </g>
  </g>
  <g id="axes_3">
   <g id="patch_8">
    <path d="M 44.361334 238.42808 
L 515.39976 238.42808 
L 515.39976 169.082542 
L 44.361334 169.082542 
z
" style="fill: #ffffff"/>
   </g>
   <g id="matplotlib.axis_5">
    <g id="xtick_17">
     <g id="line2d_54">
      <path d="M 65.772171 238.42808 
L 65.772171 169.082542 
" clip-path="url(#p9dc63e70a6)" style="fill: none; stroke: #b0b0b0; stroke-width: 0.8; stroke-linecap: round"/>
     </g>
     <g id="line2d_55"/>
    </g>
    <g id="xtick_18">
     <g id="line2d_56">
      <path d="M 128.133687 238.42808 
L 128.133687 169.082542 
" clip-path="url(#p9dc63e70a6)" style="fill: none; stroke: #b0b0b0; stroke-width: 0.8; stroke-linecap: round"/>
     </g>
     <g id="line2d_57"/>
    </g>
    <g id="xtick_19">
     <g id="line2d_58">
      <path d="M 190.495202 238.42808 
L 190.495202 169.082542 
" clip-path="url(#p9dc63e70a6)" style="fill: none; stroke: #b0b0b0; stroke-width: 0.8; stroke-linecap: round"/>
     </g>
     <g id="line2d_59"/>
    </g>
    <g id="xtick_20">
     <g id="line2d_60">
      <path d="M 252.856717 238.42808 
L 252.856717 169.082542 
" clip-path="url(#p9dc63e70a6)" style="fill: none; stroke: #b0b0b0; stroke-width: 0.8; stroke-linecap: round"/>
     </g>
     <g id="line2d_61"/>
    </g>
    <g id="xtick_21">
     <g id="line2d_62">
      <path d="M 315.218233 238.42808 
L 315.218233 169.082542 
" clip-path="url(#p9dc63e70a6)" style="fill: none; stroke: #b0b0b0; stroke-width: 0.8; stroke-linecap: round"/>
     </g>
     <g id="line2d_63"/>
    </g>
    <g id="xtick_22">
     <g id="line2d_64">
      <path d="M 377.579748 238.42808 
L 377.579748 169.082542 
" clip-path="url(#p9dc63e70a6)" style="fill: none; stroke: #b0b0b0; stroke-width: 0.8; stroke-linecap: round"/>
     </g>
     <g id="line2d_65"/>
    </g>
    <g id="xtick_23">
     <g id="line2d_66">
      <path d="M 439.941263 238.42808 
L 439.941263 169.082542 
" clip-path="url(#p9dc63e70a6)" style="fill: none; stroke: #b0b0b0; stroke-width: 0.8; stroke-linecap: round"/>
     </g>
     <g id="line2d_67"/>
    </g>
    <g id="xtick_24">
     <g id="line2d_68">
      <path d="M 502.302779 238.42808 
L 502.302779 169.082542 
" clip-path="url(#p9dc63e70a6)" style="fill: none; stroke: #b0b0b0; stroke-width: 0.8; stroke-linecap: round"/>
     </g>
     <g id="line2d_69"/>
    </g>
   </g>
   <g id="matplotlib.axis_6">
    <g id="ytick_7">
     <g id="line2d_70">
      <path d="M 44.361334 232.000949 
L 515.39976 232.000949 
" clip-path="url(#p9dc63e70a6)" style="fill: none; stroke: #b0b0b0; stroke-width: 0.8; stroke-linecap: round"/>
     </g>
     <g id="line2d_71"/>
     <g id="text_12">
      <!-- −50 -->
      <g style="fill: #262626" transform="translate(17.646178 236.18009) scale(0.11 -0.11)">
       <use xlink:href="#DejaVuSerif-2212"/>
       <use xlink:href="#DejaVuSerif-35" x="83.789062"/>
       <use xlink:href="#DejaVuSerif-30" x="147.412109"/>
      </g>
     </g>
    </g>
    <g id="ytick_8">
     <g id="line2d_72">
      <path d="M 44.361334 206.556117 
L 515.39976 206.556117 
" clip-path="url(#p9dc63e70a6)" style="fill: none; stroke: #b0b0b0; stroke-width: 0.8; stroke-linecap: round"/>
     </g>
     <g id="line2d_73"/>
     <g id="text_13">
      <!-- 0 -->
      <g style="fill: #262626" transform="translate(33.862584 210.735258) scale(0.11 -0.11)">
       <use xlink:href="#DejaVuSerif-30"/>
      </g>
     </g>
    </g>
    <g id="ytick_9">
     <g id="line2d_74">
      <path d="M 44.361334 181.111286 
L 515.39976 181.111286 
" clip-path="url(#p9dc63e70a6)" style="fill: none; stroke: #b0b0b0; stroke-width: 0.8; stroke-linecap: round"/>
     </g>
     <g id="line2d_75"/>
     <g id="text_14">
      <!-- 50 -->
      <g style="fill: #262626" transform="translate(26.863834 185.290426) scale(0.11 -0.11)">
       <use xlink:href="#DejaVuSerif-35"/>
       <use xlink:href="#DejaVuSerif-30" x="63.623047"/>
      </g>
     </g>
    </g>
    <g id="text_15">
     <!-- $Y_H(v)$ -->
     <g style="fill: #262626" transform="translate(11.358521 217.725311) rotate(-90) scale(0.11 -0.11)">
      <defs>
       <path id="DejaVuSans-Oblique-59" d="M 403 4666 
L 1081 4666 
L 1953 2747 
L 3616 4666 
L 4325 4666 
L 2209 2222 
L 1778 0 
L 1147 0 
L 1575 2222 
L 403 4666 
z
" transform="scale(0.015625)"/>
      </defs>
      <use xlink:href="#DejaVuSans-Oblique-59" transform="translate(0 0.125)"/>
      <use xlink:href="#DejaVuSans-Oblique-48" transform="translate(61.083984 -16.28125) scale(0.7)"/>
      <use xlink:href="#DejaVuSans-28" transform="translate(116.455078 0.125)"/>
      <use xlink:href="#DejaVuSans-Oblique-76" transform="translate(155.46875 0.125)"/>
      <use xlink:href="#DejaVuSans-29" transform="translate(214.648438 0.125)"/>
     </g>
    </g>
   </g>
   <g id="line2d_76">
    <path d="M 65.772171 206.599292 
L 68.373806 206.762108 
L 71.161273 207.163475 
L 73.824851 207.770285 
L 79.585615 209.467327 
L 85.718041 211.51996 
L 89.496606 212.623639 
L 104.115317 216.422772 
L 108.699151 217.24016 
L 111.796335 217.617297 
L 113.778534 217.61023 
L 115.760732 217.382328 
L 117.928761 216.904511 
L 120.716227 216.047096 
L 123.193975 215.045085 
L 125.857554 213.712951 
L 130.379443 211.38794 
L 135.52077 209.051374 
L 139.485166 207.475659 
L 143.883168 205.978977 
L 150.820862 203.888892 
L 155.156921 202.795022 
L 166.059011 200.40054 
L 171.881718 199.291292 
L 184.580175 197.261129 
L 190.278995 196.504017 
L 206.322411 195.006923 
L 215.180359 194.57204 
L 218.091713 194.606392 
L 220.445573 194.829245 
L 223.666645 195.361919 
L 226.330224 196.011839 
L 228.807972 196.851632 
L 232.029044 198.201654 
L 235.435947 199.891722 
L 238.657019 201.42153 
L 242.931134 203.166683 
L 247.39108 204.780415 
L 251.789082 206.116523 
L 257.921508 207.740844 
L 263.99199 209.141744 
L 272.973825 210.884727 
L 282.45121 212.503653 
L 294.654118 214.306011 
L 303.883728 215.41382 
L 311.564746 216.119843 
L 329.280642 217.20182 
L 332.811433 217.095006 
L 335.413068 216.770591 
L 338.13859 216.207726 
L 341.111888 215.355827 
L 343.961297 214.331907 
L 347.244313 212.892058 
L 350.898991 211.313101 
L 356.288092 209.335287 
L 360.562207 207.958403 
L 365.579646 206.607016 
L 374.127876 204.570964 
L 380.260302 203.368952 
L 390.604898 201.518734 
L 398.471748 200.290007 
L 404.418342 199.429378 
L 420.64759 197.484609 
L 433.346047 196.498958 
L 441.460671 196.067541 
L 447.345321 195.993761 
L 449.575294 196.274514 
L 453.044141 196.965569 
L 455.893551 197.729518 
L 458.433243 198.645805 
L 462.397639 200.354017 
L 466.362035 202.023463 
L 471.007812 203.727952 
L 475.901364 205.284552 
L 480.609085 206.542999 
L 488.228159 208.346184 
L 493.988922 209.465482 
L 493.988922 209.465482 
" clip-path="url(#p9dc63e70a6)" style="fill: none; stroke: #0000ff; stroke-linecap: round"/>
   </g>
   <g id="line2d_77">
    <path d="M 65.772171 206.591329 
L 68.683525 206.751363 
L 71.718766 207.139285 
L 74.630119 207.731292 
L 82.063363 209.569944 
L 88.505507 211.204545 
L 100.274808 213.622482 
L 106.035572 214.513471 
L 111.176898 215.060878 
L 113.592702 215.088132 
L 115.946563 214.88997 
L 118.610142 214.429527 
L 121.707326 213.672855 
L 124.494792 212.748455 
L 138.741842 207.53092 
L 143.511506 206.182389 
L 150.573087 204.448403 
L 155.280808 203.498351 
L 165.563461 201.743678 
L 172.25338 200.784836 
L 184.889893 199.328371 
L 190.836488 198.794244 
L 208.366553 197.755542 
L 218.587262 197.598726 
L 221.684447 197.862122 
L 225.339125 198.367046 
L 228.188535 198.979575 
L 231.657382 199.975076 
L 235.064285 201.183287 
L 239.276456 202.676789 
L 245.780544 204.668341 
L 250.488264 205.892016 
L 256.992352 207.331488 
L 263.868102 208.629916 
L 272.787994 209.99841 
L 282.513154 211.269324 
L 294.839949 212.605636 
L 304.503165 213.422837 
L 311.812521 213.876773 
L 330.08591 214.590274 
L 333.864476 214.443352 
L 337.023604 214.080111 
L 340.30662 213.479921 
L 343.775466 212.631073 
L 347.18237 211.550278 
L 351.828147 210.070845 
L 359.633052 207.921184 
L 365.022153 206.712735 
L 373.880101 204.987333 
L 380.322245 203.975286 
L 390.542955 202.553257 
L 399.462847 201.499222 
L 406.152765 200.819346 
L 415.754038 199.956727 
L 422.691732 199.482266 
L 439.10681 198.684695 
L 447.469209 198.596131 
L 450.318619 198.875532 
L 454.716621 199.551976 
L 457.627975 200.219834 
L 461.220709 201.300834 
L 469.830882 203.947829 
L 475.715533 205.476991 
L 481.104634 206.646907 
L 488.847596 208.115932 
L 493.988922 208.907026 
L 493.988922 208.907026 
" clip-path="url(#p9dc63e70a6)" style="fill: none; stroke: #008000; stroke-linecap: round"/>
   </g>
   <g id="line2d_78">
    <path d="M 65.772171 206.62905 
L 67.754369 206.805771 
L 69.860455 207.21826 
L 72.028484 207.872355 
L 74.072626 208.721616 
L 80.452827 211.907975 
L 88.939113 216.345286 
L 99.96509 220.984586 
L 104.548923 222.493382 
L 108.079714 223.39146 
L 111.36273 224.019852 
L 113.097153 224.079875 
L 114.707689 223.918571 
L 116.380169 223.529226 
L 118.300423 222.845525 
L 120.654283 221.765557 
L 122.698425 220.57053 
L 124.742567 219.111879 
L 127.530033 216.811075 
L 131.308599 213.857857 
L 136.511869 210.05248 
L 139.794885 207.917502 
L 143.387619 205.849331 
L 148.343114 203.280474 
L 152.307511 201.416516 
L 155.776358 200.049631 
L 163.271544 197.377875 
L 170.395069 195.159315 
L 178.261918 193.136844 
L 182.474089 192.23354 
L 191.393981 190.578376 
L 196.41142 189.827172 
L 200.561648 189.2963 
L 209.171821 188.539389 
L 218.029769 188.229383 
L 220.073911 188.490666 
L 223.109152 189.144673 
L 225.524956 189.885872 
L 227.569098 190.744619 
L 229.861015 191.964002 
L 232.400706 193.550582 
L 235.002341 195.457461 
L 238.409244 197.967654 
L 242.373641 200.558054 
L 246.771643 203.222215 
L 250.24049 205.057755 
L 254.886267 207.246204 
L 260.089537 209.442358 
L 264.177821 210.952062 
L 270.558021 212.99249 
L 276.256841 214.635625 
L 282.884816 216.355562 
L 292.795807 218.608507 
L 306.795082 220.98433 
L 310.821422 221.454472 
L 328.475374 222.974757 
L 331.696446 222.911791 
L 333.864476 222.670912 
L 336.094448 222.200411 
L 338.386365 221.49375 
L 340.926057 220.463893 
L 343.279917 219.300536 
L 345.633777 217.877961 
L 354.058119 212.496052 
L 359.323333 209.540222 
L 363.039955 207.753525 
L 368.057394 205.609919 
L 374.437595 203.110455 
L 378.835597 201.684642 
L 385.339685 199.75244 
L 394.073745 197.432649 
L 408.134964 194.349116 
L 412.409078 193.567408 
L 422.196182 192.122884 
L 437.620162 190.55917 
L 442.389826 190.341034 
L 446.787828 190.235324 
L 448.584195 190.470331 
L 450.938056 191.025404 
L 454.283015 192.05656 
L 456.451044 192.962966 
L 458.55713 194.088687 
L 461.592371 195.996321 
L 468.096459 200.149753 
L 472.742236 202.784364 
L 476.830519 204.859731 
L 480.980747 206.691717 
L 486.989285 209.117227 
L 491.387287 210.631109 
L 493.988922 211.41768 
L 493.988922 211.41768 
" clip-path="url(#p9dc63e70a6)" style="fill: none; stroke: #ff0000; stroke-linecap: round"/>
   </g>
   <g id="patch_9">
    <path d="M 44.361334 238.42808 
L 44.361334 169.082542 
" style="fill: none; stroke: #000000; stroke-linejoin: miter; stroke-linecap: square"/>
   </g>
   <g id="patch_10">
    <path d="M 44.361334 238.42808 
L 515.39976 238.42808 
" style="fill: none; stroke: #000000; stroke-linejoin: miter; stroke-linecap: square"/>
   </g>
  </g>
  <g id="axes_4">
   <g id="patch_11">
    <path d="M 44.361334 313.807885 
L 515.39976 313.807885 
L 515.39976 244.462347 
L 44.361334 244.462347 
z
" style="fill: #ffffff"/>
   </g>
   <g id="matplotlib.axis_7">
    <g id="xtick_25">
     <g id="line2d_79">
      <path d="M 65.772171 313.807885 
L 65.772171 244.462347 
" clip-path="url(#p32c5562b15)" style="fill: none; stroke: #b0b0b0; stroke-width: 0.8; stroke-linecap: round"/>
     </g>
     <g id="line2d_80"/>
     <g id="text_16">
      <!-- 0 -->
      <g style="fill: #262626" transform="translate(62.272796 325.666166) scale(0.11 -0.11)">
       <use xlink:href="#DejaVuSerif-30"/>
      </g>
     </g>
    </g>
    <g id="xtick_26">
     <g id="line2d_81">
      <path d="M 128.133687 313.807885 
L 128.133687 244.462347 
" clip-path="url(#p32c5562b15)" style="fill: none; stroke: #b0b0b0; stroke-width: 0.8; stroke-linecap: round"/>
     </g>
     <g id="line2d_82"/>
     <g id="text_17">
      <!-- 10 -->
      <g style="fill: #262626" transform="translate(121.134937 325.666166) scale(0.11 -0.11)">
       <defs>
        <path id="DejaVuSerif-31" d="M 909 0 
L 909 331 
L 1722 331 
L 1722 4213 
L 781 3603 
L 781 4013 
L 1919 4750 
L 2350 4750 
L 2350 331 
L 3163 331 
L 3163 0 
L 909 0 
z
" transform="scale(0.015625)"/>
       </defs>
       <use xlink:href="#DejaVuSerif-31"/>
       <use xlink:href="#DejaVuSerif-30" x="63.623047"/>
      </g>
     </g>
    </g>
    <g id="xtick_27">
     <g id="line2d_83">
      <path d="M 190.495202 313.807885 
L 190.495202 244.462347 
" clip-path="url(#p32c5562b15)" style="fill: none; stroke: #b0b0b0; stroke-width: 0.8; stroke-linecap: round"/>
     </g>
     <g id="line2d_84"/>
     <g id="text_18">
      <!-- 20 -->
      <g style="fill: #262626" transform="translate(183.496452 325.666166) scale(0.11 -0.11)">
       <defs>
        <path id="DejaVuSerif-32" d="M 819 3553 
L 469 3553 
L 469 4384 
Q 803 4563 1142 4656 
Q 1481 4750 1806 4750 
Q 2534 4750 2956 4397 
Q 3378 4044 3378 3438 
Q 3378 2753 2422 1800 
Q 2347 1728 2309 1691 
L 1131 513 
L 3078 513 
L 3078 1088 
L 3444 1088 
L 3444 0 
L 434 0 
L 434 341 
L 1850 1753 
Q 2319 2222 2519 2614 
Q 2719 3006 2719 3438 
Q 2719 3909 2473 4175 
Q 2228 4441 1797 4441 
Q 1350 4441 1106 4219 
Q 863 3997 819 3553 
z
" transform="scale(0.015625)"/>
       </defs>
       <use xlink:href="#DejaVuSerif-32"/>
       <use xlink:href="#DejaVuSerif-30" x="63.623047"/>
      </g>
     </g>
    </g>
    <g id="xtick_28">
     <g id="line2d_85">
      <path d="M 252.856717 313.807885 
L 252.856717 244.462347 
" clip-path="url(#p32c5562b15)" style="fill: none; stroke: #b0b0b0; stroke-width: 0.8; stroke-linecap: round"/>
     </g>
     <g id="line2d_86"/>
     <g id="text_19">
      <!-- 30 -->
      <g style="fill: #262626" transform="translate(245.857967 325.666166) scale(0.11 -0.11)">
       <defs>
        <path id="DejaVuSerif-33" d="M 622 4469 
Q 988 4606 1323 4678 
Q 1659 4750 1953 4750 
Q 2638 4750 3022 4454 
Q 3406 4159 3406 3634 
Q 3406 3213 3140 2930 
Q 2875 2647 2388 2547 
Q 2963 2466 3280 2130 
Q 3597 1794 3597 1259 
Q 3597 606 3158 257 
Q 2719 -91 1894 -91 
Q 1528 -91 1179 -12 
Q 831 66 488 225 
L 488 1131 
L 838 1131 
Q 869 681 1141 450 
Q 1413 219 1906 219 
Q 2384 219 2661 495 
Q 2938 772 2938 1253 
Q 2938 1803 2653 2086 
Q 2369 2369 1819 2369 
L 1522 2369 
L 1522 2688 
L 1678 2688 
Q 2225 2688 2498 2914 
Q 2772 3141 2772 3597 
Q 2772 4006 2547 4223 
Q 2322 4441 1900 4441 
Q 1478 4441 1245 4241 
Q 1013 4041 972 3647 
L 622 3647 
L 622 4469 
z
" transform="scale(0.015625)"/>
       </defs>
       <use xlink:href="#DejaVuSerif-33"/>
       <use xlink:href="#DejaVuSerif-30" x="63.623047"/>
      </g>
     </g>
    </g>
    <g id="xtick_29">
     <g id="line2d_87">
      <path d="M 315.218233 313.807885 
L 315.218233 244.462347 
" clip-path="url(#p32c5562b15)" style="fill: none; stroke: #b0b0b0; stroke-width: 0.8; stroke-linecap: round"/>
     </g>
     <g id="line2d_88"/>
     <g id="text_20">
      <!-- 40 -->
      <g style="fill: #262626" transform="translate(308.219483 325.666166) scale(0.11 -0.11)">
       <defs>
        <path id="DejaVuSerif-34" d="M 2234 1581 
L 2234 4063 
L 641 1581 
L 2234 1581 
z
M 3609 0 
L 1484 0 
L 1484 331 
L 2234 331 
L 2234 1247 
L 197 1247 
L 197 1588 
L 2241 4750 
L 2859 4750 
L 2859 1581 
L 3750 1581 
L 3750 1247 
L 2859 1247 
L 2859 331 
L 3609 331 
L 3609 0 
z
" transform="scale(0.015625)"/>
       </defs>
       <use xlink:href="#DejaVuSerif-34"/>
       <use xlink:href="#DejaVuSerif-30" x="63.623047"/>
      </g>
     </g>
    </g>
    <g id="xtick_30">
     <g id="line2d_89">
      <path d="M 377.579748 313.807885 
L 377.579748 244.462347 
" clip-path="url(#p32c5562b15)" style="fill: none; stroke: #b0b0b0; stroke-width: 0.8; stroke-linecap: round"/>
     </g>
     <g id="line2d_90"/>
     <g id="text_21">
      <!-- 50 -->
      <g style="fill: #262626" transform="translate(370.580998 325.666166) scale(0.11 -0.11)">
       <use xlink:href="#DejaVuSerif-35"/>
       <use xlink:href="#DejaVuSerif-30" x="63.623047"/>
      </g>
     </g>
    </g>
    <g id="xtick_31">
     <g id="line2d_91">
      <path d="M 439.941263 313.807885 
L 439.941263 244.462347 
" clip-path="url(#p32c5562b15)" style="fill: none; stroke: #b0b0b0; stroke-width: 0.8; stroke-linecap: round"/>
     </g>
     <g id="line2d_92"/>
     <g id="text_22">
      <!-- 60 -->
      <g style="fill: #262626" transform="translate(432.942513 325.666166) scale(0.11 -0.11)">
       <defs>
        <path id="DejaVuSerif-36" d="M 2094 219 
Q 2534 219 2771 542 
Q 3009 866 3009 1472 
Q 3009 2078 2771 2401 
Q 2534 2725 2094 2725 
Q 1647 2725 1412 2412 
Q 1178 2100 1178 1509 
Q 1178 888 1415 553 
Q 1653 219 2094 219 
z
M 1075 2569 
Q 1288 2803 1556 2918 
Q 1825 3034 2163 3034 
Q 2859 3034 3264 2615 
Q 3669 2197 3669 1472 
Q 3669 763 3233 336 
Q 2797 -91 2069 -91 
Q 1278 -91 853 498 
Q 428 1088 428 2181 
Q 428 3406 931 4078 
Q 1434 4750 2350 4750 
Q 2597 4750 2869 4703 
Q 3141 4656 3425 4563 
L 3425 3794 
L 3072 3794 
Q 3034 4109 2831 4275 
Q 2628 4441 2284 4441 
Q 1678 4441 1381 3981 
Q 1084 3522 1075 2569 
z
" transform="scale(0.015625)"/>
       </defs>
       <use xlink:href="#DejaVuSerif-36"/>
       <use xlink:href="#DejaVuSerif-30" x="63.623047"/>
      </g>
     </g>
    </g>
    <g id="xtick_32">
     <g id="line2d_93">
      <path d="M 502.302779 313.807885 
L 502.302779 244.462347 
" clip-path="url(#p32c5562b15)" style="fill: none; stroke: #b0b0b0; stroke-width: 0.8; stroke-linecap: round"/>
     </g>
     <g id="line2d_94"/>
     <g id="text_23">
      <!-- 70 -->
      <g style="fill: #262626" transform="translate(495.304029 325.666166) scale(0.11 -0.11)">
       <defs>
        <path id="DejaVuSerif-37" d="M 3609 4347 
L 1784 0 
L 1319 0 
L 3059 4153 
L 903 4153 
L 903 3578 
L 538 3578 
L 538 4666 
L 3609 4666 
L 3609 4347 
z
" transform="scale(0.015625)"/>
       </defs>
       <use xlink:href="#DejaVuSerif-37"/>
       <use xlink:href="#DejaVuSerif-30" x="63.623047"/>
      </g>
     </g>
    </g>
    <g id="text_24">
     <!-- Time [s] -->
     <g style="fill: #262626" transform="translate(257.12 340.312104) scale(0.11 -0.11)">
      <defs>
       <path id="DejaVuSerif-54" d="M 1222 0 
L 1222 331 
L 1819 331 
L 1819 4294 
L 447 4294 
L 447 3566 
L 63 3566 
L 63 4666 
L 4206 4666 
L 4206 3566 
L 3822 3566 
L 3822 4294 
L 2450 4294 
L 2450 331 
L 3047 331 
L 3047 0 
L 1222 0 
z
" transform="scale(0.015625)"/>
       <path id="DejaVuSerif-5b" d="M 550 4863 
L 2003 4863 
L 2003 4531 
L 1147 4531 
L 1147 -513 
L 2003 -513 
L 2003 -844 
L 550 -844 
L 550 4863 
z
" transform="scale(0.015625)"/>
       <path id="DejaVuSerif-5d" d="M 1947 4863 
L 1947 -844 
L 494 -844 
L 494 -513 
L 1350 -513 
L 1350 4531 
L 494 4531 
L 494 4863 
L 1947 4863 
z
" transform="scale(0.015625)"/>
      </defs>
      <use xlink:href="#DejaVuSerif-54"/>
      <use xlink:href="#DejaVuSerif-69" x="66.699219"/>
      <use xlink:href="#DejaVuSerif-6d" x="98.681641"/>
      <use xlink:href="#DejaVuSerif-65" x="193.505859"/>
      <use xlink:href="#DejaVuSerif-20" x="252.685547"/>
      <use xlink:href="#DejaVuSerif-5b" x="284.472656"/>
      <use xlink:href="#DejaVuSerif-73" x="323.486328"/>
      <use xlink:href="#DejaVuSerif-5d" x="374.804688"/>
     </g>
    </g>
   </g>
   <g id="matplotlib.axis_8">
    <g id="ytick_10">
     <g id="line2d_95">
      <path d="M 44.361334 307.380754 
L 515.39976 307.380754 
" clip-path="url(#p32c5562b15)" style="fill: none; stroke: #b0b0b0; stroke-width: 0.8; stroke-linecap: round"/>
     </g>
     <g id="line2d_96"/>
     <g id="text_25">
      <!-- −50 -->
      <g style="fill: #262626" transform="translate(17.646178 311.559895) scale(0.11 -0.11)">
       <use xlink:href="#DejaVuSerif-2212"/>
       <use xlink:href="#DejaVuSerif-35" x="83.789062"/>
       <use xlink:href="#DejaVuSerif-30" x="147.412109"/>
      </g>
     </g>
    </g>
    <g id="ytick_11">
     <g id="line2d_97">
      <path d="M 44.361334 281.935923 
L 515.39976 281.935923 
" clip-path="url(#p32c5562b15)" style="fill: none; stroke: #b0b0b0; stroke-width: 0.8; stroke-linecap: round"/>
     </g>
     <g id="line2d_98"/>
     <g id="text_26">
      <!-- 0 -->
      <g style="fill: #262626" transform="translate(33.862584 286.115063) scale(0.11 -0.11)">
       <use xlink:href="#DejaVuSerif-30"/>
      </g>
     </g>
    </g>
    <g id="ytick_12">
     <g id="line2d_99">
      <path d="M 44.361334 256.491091 
L 515.39976 256.491091 
" clip-path="url(#p32c5562b15)" style="fill: none; stroke: #b0b0b0; stroke-width: 0.8; stroke-linecap: round"/>
     </g>
     <g id="line2d_100"/>
     <g id="text_27">
      <!-- 50 -->
      <g style="fill: #262626" transform="translate(26.863834 260.670232) scale(0.11 -0.11)">
       <use xlink:href="#DejaVuSerif-35"/>
       <use xlink:href="#DejaVuSerif-30" x="63.623047"/>
      </g>
     </g>
    </g>
    <g id="text_28">
     <!-- $Y_H(r)$ -->
     <g style="fill: #262626" transform="translate(11.358521 292.115116) rotate(-90) scale(0.11 -0.11)">
      <use xlink:href="#DejaVuSans-Oblique-59" transform="translate(0 0.125)"/>
      <use xlink:href="#DejaVuSans-Oblique-48" transform="translate(61.083984 -16.28125) scale(0.7)"/>
      <use xlink:href="#DejaVuSans-28" transform="translate(116.455078 0.125)"/>
      <use xlink:href="#DejaVuSans-Oblique-72" transform="translate(155.46875 0.125)"/>
      <use xlink:href="#DejaVuSans-29" transform="translate(196.582031 0.125)"/>
     </g>
    </g>
   </g>
   <g id="line2d_101">
    <path d="M 65.772171 281.923733 
L 69.674624 282.093883 
L 78.966178 282.596547 
L 84.726941 282.484999 
L 99.96509 282.05357 
L 105.601966 281.868055 
L 110.619405 281.861711 
L 113.159097 282.037314 
L 118.672085 282.500823 
L 121.521495 282.451836 
L 124.556736 282.165633 
L 130.3175 281.575972 
L 134.777446 281.416089 
L 142.582351 281.403478 
L 211.154019 281.988671 
L 220.38363 281.876184 
L 228.622141 281.483382 
L 232.029044 281.664438 
L 241.506429 282.328537 
L 248.196348 282.396165 
L 259.779818 282.302405 
L 284.433408 282.106338 
L 294.901892 281.993561 
L 300.7246 281.936685 
L 315.405255 281.884089 
L 321.661568 281.914599 
L 335.351124 282.141414 
L 339.81107 282.369092 
L 343.094086 282.293111 
L 347.244313 281.948324 
L 351.456484 281.659572 
L 356.721698 281.518153 
L 367.066295 281.518211 
L 408.382738 281.866166 
L 413.524065 281.867694 
L 419.966209 281.917188 
L 447.964758 281.851519 
L 454.902452 281.504409 
L 458.123524 281.610442 
L 463.264851 282.052388 
L 467.477022 282.277274 
L 474.104997 282.372192 
L 485.936242 282.287445 
L 493.988922 282.203687 
L 493.988922 282.203687 
" clip-path="url(#p32c5562b15)" style="fill: none; stroke: #0000ff; stroke-linecap: round"/>
   </g>
   <g id="line2d_102">
    <path d="M 65.772171 281.935923 
L 493.988922 281.935923 
L 493.988922 281.935923 
" clip-path="url(#p32c5562b15)" style="fill: none; stroke: #008000; stroke-linecap: round"/>
   </g>
   <g id="line2d_103">
    <path d="M 65.772171 281.935923 
L 493.988922 281.935923 
L 493.988922 281.935923 
" clip-path="url(#p32c5562b15)" style="fill: none; stroke: #ff0000; stroke-linecap: round"/>
   </g>
   <g id="patch_12">
    <path d="M 44.361334 313.807885 
L 44.361334 244.462347 
" style="fill: none; stroke: #000000; stroke-linejoin: miter; stroke-linecap: square"/>
   </g>
   <g id="patch_13">
    <path d="M 44.361334 313.807885 
L 515.39976 313.807885 
" style="fill: none; stroke: #000000; stroke-linejoin: miter; stroke-linecap: square"/>
   </g>
  </g>
 </g>
 <defs>
  <clipPath id="p6d06507376">
   <rect x="44.361334" y="18.322931" width="471.038426" height="69.345538"/>
  </clipPath>
  <clipPath id="pf0229630dd">
   <rect x="44.361334" y="93.702737" width="471.038426" height="69.345538"/>
  </clipPath>
  <clipPath id="p9dc63e70a6">
   <rect x="44.361334" y="169.082542" width="471.038426" height="69.345538"/>
  </clipPath>
  <clipPath id="p32c5562b15">
   <rect x="44.361334" y="244.462347" width="471.038426" height="69.345538"/>
  </clipPath>
 </defs>
</svg>
