<?xml version="1.0" encoding="utf-8" standalone="no"?>
<!DOCTYPE svg PUBLIC "-//W3C//DTD SVG 1.1//EN"
  "http://www.w3.org/Graphics/SVG/1.1/DTD/svg11.dtd">
<svg xmlns:xlink="http://www.w3.org/1999/xlink" width="221.23975pt" height="245.546375pt" viewBox="0 0 221.23975 245.546375" xmlns="http://www.w3.org/2000/svg" version="1.1">
 <metadata>
  <rdf:RDF xmlns:dc="http://purl.org/dc/elements/1.1/" xmlns:cc="http://creativecommons.org/ns#" xmlns:rdf="http://www.w3.org/1999/02/22-rdf-syntax-ns#">
   <cc:Work>
    <dc:type rdf:resource="http://purl.org/dc/dcmitype/StillImage"/>
    <dc:date>2024-08-15T08:23:39.817079</dc:date>
    <dc:format>image/svg+xml</dc:format>
    <dc:creator>
     <cc:Agent>
      <dc:title>Matplotlib v3.8.2, https://matplotlib.org/</dc:title>
     </cc:Agent>
    </dc:creator>
   </cc:Work>
  </rdf:RDF>
 </metadata>
 <defs>
  <style type="text/css">*{stroke-linejoin: round; stroke-linecap: butt}</style>
 </defs>
 <g id="figure_1">
  <g id="patch_1">
   <path d="M 0 245.546375 
L 221.23975 245.546375 
L 221.23975 0 
L 0 0 
z
" style="fill: #ffffff"/>
  </g>
  <g id="axes_1">
   <g id="patch_2">
    <path d="M 47.465469 91.651706 
L 214.03975 91.651706 
L 214.03975 28.829059 
L 47.465469 28.829059 
z
" style="fill: #ffffff"/>
   </g>
   <g id="line2d_1">
    <path d="M 55.037027 60.320065 
L 55.961171 60.461022 
L 56.84504 60.815582 
L 57.728966 61.40569 
L 61.144263 64.29549 
L 70.46542 72.350924 
L 74.965433 75.682461 
L 77.376101 77.217443 
L 79.384933 78.235699 
L 81.434042 79.016036 
L 82.559029 79.269471 
L 83.40278 79.213983 
L 84.286698 78.93858 
L 85.210906 78.419813 
L 86.175059 77.624203 
L 87.179503 76.496733 
L 89.710718 73.107081 
L 93.125834 68.114427 
L 97.10352 62.396307 
L 100.438296 58.007287 
L 103.170357 54.755257 
L 105.621276 52.179862 
L 108.313175 49.680092 
L 111.206032 47.289585 
L 113.938109 45.315164 
L 117.714844 42.890482 
L 122.013894 40.345999 
L 124.86657 38.901957 
L 128.442423 37.339232 
L 133.424512 35.416025 
L 136.598544 34.404918 
L 138.607451 33.984155 
L 140.375259 33.842553 
L 142.26364 33.915402 
L 143.147618 34.161738 
L 144.07165 34.659877 
L 145.076097 35.462778 
L 146.161022 36.628193 
L 147.285888 38.178711 
L 150.138555 42.807956 
L 156.928698 53.904451 
L 159.941981 58.178331 
L 162.915179 62.038563 
L 165.446422 64.963047 
L 168.178555 67.767374 
L 170.87047 70.245373 
L 173.401644 72.279608 
L 176.415008 74.387978 
L 181.236449 77.475233 
L 184.6917 79.439268 
L 188.066646 81.099535 
L 191.521992 82.559305 
L 196.5443 84.430291 
L 199.316495 85.256982 
L 201.245063 85.602344 
L 203.294201 85.731475 
L 204.539693 85.639027 
L 204.700486 85.597799 
L 204.700486 85.597799 
" clip-path="url(#pf3c6acb93c)" style="fill: none; stroke: #000000; stroke-width: 0.6; stroke-linecap: round"/>
   </g>
   <g id="matplotlib.axis_1">
    <g id="xtick_1">
     <g id="line2d_2">
      <path d="M 55.037027 91.651706 
L 55.037027 28.829059 
" clip-path="url(#pf3c6acb93c)" style="fill: none; stroke: #b0b0b0; stroke-width: 0.1; stroke-linecap: round"/>
     </g>
     <g id="line2d_3"/>
    </g>
    <g id="xtick_2">
     <g id="line2d_4">
      <path d="M 95.215102 91.651706 
L 95.215102 28.829059 
" clip-path="url(#pf3c6acb93c)" style="fill: none; stroke: #b0b0b0; stroke-width: 0.1; stroke-linecap: round"/>
     </g>
     <g id="line2d_5"/>
    </g>
    <g id="xtick_3">
     <g id="line2d_6">
      <path d="M 135.393177 91.651706 
L 135.393177 28.829059 
" clip-path="url(#pf3c6acb93c)" style="fill: none; stroke: #b0b0b0; stroke-width: 0.1; stroke-linecap: round"/>
     </g>
     <g id="line2d_7"/>
    </g>
    <g id="xtick_4">
     <g id="line2d_8">
      <path d="M 175.571252 91.651706 
L 175.571252 28.829059 
" clip-path="url(#pf3c6acb93c)" style="fill: none; stroke: #b0b0b0; stroke-width: 0.1; stroke-linecap: round"/>
     </g>
     <g id="line2d_9"/>
    </g>
   </g>
   <g id="matplotlib.axis_2">
    <g id="ytick_1">
     <g id="line2d_10">
      <path d="M 47.465469 81.637792 
L 214.03975 81.637792 
" clip-path="url(#pf3c6acb93c)" style="fill: none; stroke: #b0b0b0; stroke-width: 0.1; stroke-linecap: round"/>
     </g>
     <g id="line2d_11"/>
     <g id="text_1">
      <!-- −5 -->
      <g style="fill: #262626" transform="translate(33.645938 84.297245) scale(0.07 -0.07)">
       <defs>
        <path id="DejaVuSerif-2212" d="M 678 2259 
L 4684 2259 
L 4684 1753 
L 678 1753 
L 678 2259 
z
" transform="scale(0.015625)"/>
        <path id="DejaVuSerif-35" d="M 3219 4666 
L 3219 4153 
L 1081 4153 
L 1081 2816 
Q 1244 2928 1461 2984 
Q 1678 3041 1947 3041 
Q 2703 3041 3140 2622 
Q 3578 2203 3578 1478 
Q 3578 738 3136 323 
Q 2694 -91 1894 -91 
Q 1572 -91 1234 -12 
Q 897 66 544 225 
L 544 1131 
L 897 1131 
Q 925 688 1179 453 
Q 1434 219 1894 219 
Q 2388 219 2653 544 
Q 2919 869 2919 1478 
Q 2919 2084 2655 2407 
Q 2391 2731 1894 2731 
Q 1613 2731 1398 2631 
Q 1184 2531 1019 2322 
L 750 2322 
L 750 4666 
L 3219 4666 
z
" transform="scale(0.015625)"/>
       </defs>
       <use xlink:href="#DejaVuSerif-2212"/>
       <use xlink:href="#DejaVuSerif-35" x="83.789062"/>
      </g>
     </g>
    </g>
    <g id="ytick_2">
     <g id="line2d_12">
      <path d="M 47.465469 60.37367 
L 214.03975 60.37367 
" clip-path="url(#pf3c6acb93c)" style="fill: none; stroke: #b0b0b0; stroke-width: 0.1; stroke-linecap: round"/>
     </g>
     <g id="line2d_13"/>
     <g id="text_2">
      <!-- 0 -->
      <g style="fill: #262626" transform="translate(39.511719 63.033123) scale(0.07 -0.07)">
       <defs>
        <path id="DejaVuSerif-30" d="M 2034 219 
Q 2513 219 2750 744 
Q 2988 1269 2988 2328 
Q 2988 3391 2750 3916 
Q 2513 4441 2034 4441 
Q 1556 4441 1318 3916 
Q 1081 3391 1081 2328 
Q 1081 1269 1318 744 
Q 1556 219 2034 219 
z
M 2034 -91 
Q 1275 -91 848 546 
Q 422 1184 422 2328 
Q 422 3475 848 4112 
Q 1275 4750 2034 4750 
Q 2797 4750 3222 4112 
Q 3647 3475 3647 2328 
Q 3647 1184 3222 546 
Q 2797 -91 2034 -91 
z
" transform="scale(0.015625)"/>
       </defs>
       <use xlink:href="#DejaVuSerif-30"/>
      </g>
     </g>
    </g>
    <g id="ytick_3">
     <g id="line2d_14">
      <path d="M 47.465469 39.109548 
L 214.03975 39.109548 
" clip-path="url(#pf3c6acb93c)" style="fill: none; stroke: #b0b0b0; stroke-width: 0.1; stroke-linecap: round"/>
     </g>
     <g id="line2d_15"/>
     <g id="text_3">
      <!-- 5 -->
      <g style="fill: #262626" transform="translate(39.511719 41.769001) scale(0.07 -0.07)">
       <use xlink:href="#DejaVuSerif-35"/>
      </g>
     </g>
    </g>
    <g id="text_4">
     <!-- $\beta$ $[deg]$ -->
     <g style="fill: #262626" transform="translate(12.59 72.945382) rotate(-90) scale(0.07 -0.07)">
      <defs>
       <path id="DejaVuSans-Oblique-3b2" d="M 872 216 
L 572 -1331 
L -6 -1331 
L 928 3478 
Q 1206 4903 2538 4903 
Q 3888 4903 3659 3700 
Q 3503 2844 2894 2531 
Q 3713 2250 3553 1416 
Q 3272 -69 1759 -66 
Q 1097 -63 872 216 
z
M 1019 966 
Q 1259 422 1875 425 
Q 2775 425 2966 1406 
Q 3138 2288 1675 2219 
L 1778 2750 
Q 2909 2731 3106 3750 
Q 3241 4438 2509 4434 
Q 1691 4434 1503 3459 
L 1019 966 
z
" transform="scale(0.015625)"/>
       <path id="DejaVuSerif-20" transform="scale(0.015625)"/>
       <path id="DejaVuSans-5b" d="M 550 4863 
L 1875 4863 
L 1875 4416 
L 1125 4416 
L 1125 -397 
L 1875 -397 
L 1875 -844 
L 550 -844 
L 550 4863 
z
" transform="scale(0.015625)"/>
       <path id="DejaVuSans-Oblique-64" d="M 2675 525 
Q 2444 222 2128 65 
Q 1813 -91 1428 -91 
Q 903 -91 598 267 
Q 294 625 294 1247 
Q 294 1766 478 2236 
Q 663 2706 1013 3078 
Q 1244 3325 1534 3454 
Q 1825 3584 2144 3584 
Q 2481 3584 2739 3421 
Q 2997 3259 3138 2956 
L 3513 4863 
L 4091 4863 
L 3144 0 
L 2566 0 
L 2675 525 
z
M 891 1350 
Q 891 897 1095 644 
Q 1300 391 1663 391 
Q 1931 391 2161 520 
Q 2391 650 2566 903 
Q 2750 1166 2856 1509 
Q 2963 1853 2963 2188 
Q 2963 2622 2758 2865 
Q 2553 3109 2194 3109 
Q 1922 3109 1687 2981 
Q 1453 2853 1288 2613 
Q 1106 2353 998 2009 
Q 891 1666 891 1350 
z
" transform="scale(0.015625)"/>
       <path id="DejaVuSans-Oblique-65" d="M 3078 2063 
Q 3088 2113 3092 2166 
Q 3097 2219 3097 2272 
Q 3097 2653 2873 2875 
Q 2650 3097 2266 3097 
Q 1838 3097 1509 2826 
Q 1181 2556 1013 2059 
L 3078 2063 
z
M 3578 1613 
L 903 1613 
Q 884 1494 878 1425 
Q 872 1356 872 1306 
Q 872 872 1139 634 
Q 1406 397 1894 397 
Q 2269 397 2603 481 
Q 2938 566 3225 728 
L 3116 159 
Q 2806 34 2476 -28 
Q 2147 -91 1806 -91 
Q 1078 -91 686 257 
Q 294 606 294 1247 
Q 294 1794 489 2264 
Q 684 2734 1063 3103 
Q 1306 3334 1642 3459 
Q 1978 3584 2356 3584 
Q 2950 3584 3301 3228 
Q 3653 2872 3653 2272 
Q 3653 2128 3634 1964 
Q 3616 1800 3578 1613 
z
" transform="scale(0.015625)"/>
       <path id="DejaVuSans-Oblique-67" d="M 3816 3500 
L 3219 434 
Q 3047 -456 2561 -893 
Q 2075 -1331 1253 -1331 
Q 950 -1331 690 -1286 
Q 431 -1241 206 -1147 
L 313 -588 
Q 525 -725 762 -790 
Q 1000 -856 1269 -856 
Q 1816 -856 2167 -557 
Q 2519 -259 2631 300 
L 2681 563 
Q 2441 288 2122 144 
Q 1803 0 1434 0 
Q 903 0 598 351 
Q 294 703 294 1319 
Q 294 1803 478 2267 
Q 663 2731 997 3091 
Q 1219 3328 1514 3456 
Q 1809 3584 2131 3584 
Q 2484 3584 2746 3420 
Q 3009 3256 3138 2956 
L 3238 3500 
L 3816 3500 
z
M 2950 2216 
Q 2950 2641 2750 2872 
Q 2550 3103 2181 3103 
Q 1953 3103 1747 3012 
Q 1541 2922 1394 2759 
Q 1156 2491 1023 2127 
Q 891 1763 891 1375 
Q 891 944 1092 712 
Q 1294 481 1672 481 
Q 2219 481 2584 976 
Q 2950 1472 2950 2216 
z
" transform="scale(0.015625)"/>
       <path id="DejaVuSans-5d" d="M 1947 4863 
L 1947 -844 
L 622 -844 
L 622 -397 
L 1369 -397 
L 1369 4416 
L 622 4416 
L 622 4863 
L 1947 4863 
z
" transform="scale(0.015625)"/>
      </defs>
      <use xlink:href="#DejaVuSans-Oblique-3b2" transform="translate(0 0.390625)"/>
      <use xlink:href="#DejaVuSerif-20" transform="translate(63.818359 0.390625)"/>
      <use xlink:href="#DejaVuSans-5b" transform="translate(95.605469 0.390625)"/>
      <use xlink:href="#DejaVuSans-Oblique-64" transform="translate(134.619141 0.390625)"/>
      <use xlink:href="#DejaVuSans-Oblique-65" transform="translate(198.095703 0.390625)"/>
      <use xlink:href="#DejaVuSans-Oblique-67" transform="translate(259.619141 0.390625)"/>
      <use xlink:href="#DejaVuSans-5d" transform="translate(323.095703 0.390625)"/>
     </g>
    </g>
   </g>
   <g id="line2d_16">
    <path d="M 55.037027 60.37367 
L 55.920945 60.482459 
L 56.764684 60.803317 
L 57.608424 61.356999 
L 59.57715 63.088487 
L 65.965463 69.067559 
L 69.983271 72.58654 
L 73.9609 75.735051 
L 77.295681 78.106778 
L 80.911707 80.407161 
L 83.121502 81.615929 
L 83.965241 81.789773 
L 84.768803 81.728424 
L 85.572364 81.434499 
L 86.375926 80.900206 
L 87.259843 80.027811 
L 88.304473 78.656941 
L 91.880322 73.523011 
L 97.304362 65.735714 
L 100.558786 61.430838 
L 103.732854 57.58205 
L 106.906922 54.084297 
L 110.000634 50.994644 
L 113.335414 47.972944 
L 116.589838 45.324845 
L 120.004975 42.850244 
L 123.580823 40.537939 
L 127.39774 38.340178 
L 131.335192 36.330657 
L 135.393177 34.501806 
L 139.692231 32.800817 
L 142.866299 31.730031 
L 143.710039 31.700678 
L 144.5136 31.895729 
L 145.317162 32.320086 
L 146.160901 33.017592 
L 147.084997 34.088589 
L 148.209983 35.776563 
L 153.272421 43.990901 
L 157.491119 50.642993 
L 160.785721 55.419 
L 163.839255 59.481975 
L 166.892788 63.196564 
L 169.906144 66.529375 
L 173.160568 69.811277 
L 176.575704 72.916933 
L 179.950663 75.662244 
L 183.325621 78.111911 
L 186.660401 80.281985 
L 190.316606 82.416856 
L 194.093345 84.368216 
L 198.151331 86.229632 
L 202.450385 87.963155 
L 204.740535 88.796131 
L 204.740535 88.796131 
" clip-path="url(#pf3c6acb93c)" style="fill: none; stroke: #0000ff; stroke-width: 0.6; stroke-linecap: round"/>
   </g>
   <g id="line2d_17">
    <path d="M 55.037027 60.37367 
L 55.920945 60.482338 
L 56.764684 60.802369 
L 57.608424 61.353729 
L 59.657506 63.142552 
L 69.059175 71.482118 
L 72.594846 74.182801 
L 76.009982 76.505816 
L 79.545653 78.63331 
L 83.242036 80.571249 
L 84.166131 80.884454 
L 85.009871 80.933691 
L 85.813433 80.753734 
L 86.616994 80.340955 
L 87.460734 79.651578 
L 88.384829 78.59158 
L 90.192843 76.011823 
L 98.951663 63.34018 
L 102.005197 59.468369 
L 104.85784 56.193833 
L 107.750662 53.198379 
L 110.884551 50.274478 
L 113.938085 47.733694 
L 116.991619 45.470875 
L 120.286221 43.327153 
L 123.701357 41.373473 
L 127.277206 39.580935 
L 131.134301 37.90225 
L 135.272643 36.344725 
L 139.852944 34.865559 
L 144.272532 33.650076 
L 145.15645 33.602478 
L 146.000189 33.790609 
L 146.843929 34.223749 
L 147.687668 34.910658 
L 148.611764 35.958074 
L 149.73675 37.616284 
L 154.11616 44.847447 
L 158.334858 51.568744 
L 161.388392 56.025554 
L 164.441926 60.086933 
L 167.294569 63.518476 
L 170.227568 66.69623 
L 173.281102 69.676732 
L 176.374814 72.370981 
L 179.267635 74.602739 
L 182.401525 76.743873 
L 185.736305 78.750346 
L 189.352332 80.663965 
L 193.088893 82.397096 
L 197.026345 83.992324 
L 201.325399 85.486591 
L 206.146768 86.89869 
L 206.468192 86.984649 
L 206.468192 86.984649 
" clip-path="url(#pf3c6acb93c)" style="fill: none; stroke: #008000; stroke-width: 0.6; stroke-linecap: round"/>
   </g>
   <g id="line2d_18">
    <path d="M 55.037027 60.37367 
L 56.001301 60.485931 
L 56.885218 60.808845 
L 57.769136 61.370371 
L 59.657506 62.969526 
L 63.152998 66.289573 
L 67.371696 70.196184 
L 70.465408 72.753931 
L 73.358229 74.855064 
L 76.291229 76.704121 
L 79.304584 78.332481 
L 82.197406 79.648695 
L 83.081323 79.812167 
L 83.925063 79.735879 
L 84.768803 79.423925 
L 85.572364 78.89715 
L 86.456282 78.042674 
L 87.460734 76.746615 
L 89.308925 73.87302 
L 97.786499 60.189796 
L 100.317718 56.762828 
L 102.76858 53.812127 
L 105.219443 51.208686 
L 107.670305 48.925333 
L 110.161346 46.902893 
L 112.732743 45.098191 
L 115.464852 43.451854 
L 118.397852 41.945096 
L 121.531741 40.58592 
L 124.866522 39.383307 
L 128.44237 38.331321 
L 132.500356 37.374203 
L 136.919944 36.563663 
L 139.611875 36.2397 
L 140.495793 36.414848 
L 141.339532 36.809713 
L 142.22345 37.469579 
L 143.147546 38.43748 
L 144.151998 39.830676 
L 145.799299 42.630136 
L 154.437585 57.840286 
L 156.928626 61.512014 
L 159.33931 64.675765 
L 161.749995 67.475123 
L 164.200857 69.980502 
L 166.691898 72.208065 
L 169.263295 74.212888 
L 171.834691 75.940272 
L 174.687335 77.575232 
L 177.70069 79.043229 
L 180.955115 80.376284 
L 184.249717 81.505088 
L 187.905922 82.518359 
L 192.245154 83.479413 
L 196.865632 84.27732 
L 197.347769 84.34851 
L 197.347769 84.34851 
" clip-path="url(#pf3c6acb93c)" style="fill: none; stroke: #ff0000; stroke-width: 0.6; stroke-linecap: round"/>
   </g>
   <g id="patch_3">
    <path d="M 47.465469 91.651706 
L 47.465469 28.829059 
" style="fill: none; stroke: #000000; stroke-linejoin: miter; stroke-linecap: square"/>
   </g>
   <g id="patch_4">
    <path d="M 47.465469 91.651706 
L 214.03975 91.651706 
" style="fill: none; stroke: #000000; stroke-linejoin: miter; stroke-linecap: square"/>
   </g>
   <g id="legend_1">
    <g id="line2d_19">
     <path d="M 79.99386 12.868906 
L 86.99386 12.868906 
L 93.99386 12.868906 
" style="fill: none; stroke: #000000; stroke-width: 0.6; stroke-linecap: round"/>
    </g>
    <g id="text_5">
     <!-- Model test -->
     <g style="fill: #262626" transform="translate(99.59386 15.318906) scale(0.07 -0.07)">
      <defs>
       <path id="DejaVuSerif-4d" d="M 353 0 
L 353 331 
L 947 331 
L 947 4331 
L 319 4331 
L 319 4666 
L 1678 4666 
L 3316 1344 
L 4953 4666 
L 6228 4666 
L 6228 4331 
L 5606 4331 
L 5606 331 
L 6203 331 
L 6203 0 
L 4378 0 
L 4378 331 
L 4972 331 
L 4972 3938 
L 3372 684 
L 2931 684 
L 1331 3938 
L 1331 331 
L 1925 331 
L 1925 0 
L 353 0 
z
" transform="scale(0.015625)"/>
       <path id="DejaVuSerif-6f" d="M 1925 219 
Q 2388 219 2623 584 
Q 2859 950 2859 1663 
Q 2859 2375 2623 2739 
Q 2388 3103 1925 3103 
Q 1463 3103 1227 2739 
Q 991 2375 991 1663 
Q 991 950 1228 584 
Q 1466 219 1925 219 
z
M 1925 -91 
Q 1200 -91 759 389 
Q 319 869 319 1663 
Q 319 2456 758 2934 
Q 1197 3413 1925 3413 
Q 2653 3413 3092 2934 
Q 3531 2456 3531 1663 
Q 3531 869 3092 389 
Q 2653 -91 1925 -91 
z
" transform="scale(0.015625)"/>
       <path id="DejaVuSerif-64" d="M 3359 331 
L 3909 331 
L 3909 0 
L 2784 0 
L 2784 519 
Q 2616 206 2355 57 
Q 2094 -91 1709 -91 
Q 1097 -91 708 395 
Q 319 881 319 1663 
Q 319 2444 706 2928 
Q 1094 3413 1709 3413 
Q 2094 3413 2355 3264 
Q 2616 3116 2784 2803 
L 2784 4531 
L 2241 4531 
L 2241 4863 
L 3359 4863 
L 3359 331 
z
M 2784 1497 
L 2784 1825 
Q 2784 2422 2554 2737 
Q 2325 3053 1888 3053 
Q 1444 3053 1217 2703 
Q 991 2353 991 1663 
Q 991 975 1217 622 
Q 1444 269 1888 269 
Q 2325 269 2554 583 
Q 2784 897 2784 1497 
z
" transform="scale(0.015625)"/>
       <path id="DejaVuSerif-65" d="M 3469 1600 
L 991 1600 
L 991 1575 
Q 991 903 1244 561 
Q 1497 219 1991 219 
Q 2369 219 2611 417 
Q 2853 616 2950 1006 
L 3413 1006 
Q 3275 459 2904 184 
Q 2534 -91 1931 -91 
Q 1203 -91 761 389 
Q 319 869 319 1663 
Q 319 2450 753 2931 
Q 1188 3413 1894 3413 
Q 2647 3413 3050 2948 
Q 3453 2484 3469 1600 
z
M 2791 1931 
Q 2772 2513 2545 2808 
Q 2319 3103 1894 3103 
Q 1497 3103 1269 2806 
Q 1041 2509 991 1931 
L 2791 1931 
z
" transform="scale(0.015625)"/>
       <path id="DejaVuSerif-6c" d="M 1313 331 
L 1856 331 
L 1856 0 
L 184 0 
L 184 331 
L 738 331 
L 738 4531 
L 184 4531 
L 184 4863 
L 1313 4863 
L 1313 331 
z
" transform="scale(0.015625)"/>
       <path id="DejaVuSerif-74" d="M 691 2988 
L 184 2988 
L 184 3322 
L 691 3322 
L 691 4353 
L 1269 4353 
L 1269 3322 
L 2350 3322 
L 2350 2988 
L 1269 2988 
L 1269 878 
Q 1269 456 1350 337 
Q 1431 219 1650 219 
Q 1875 219 1978 351 
Q 2081 484 2088 781 
L 2522 781 
Q 2497 328 2275 118 
Q 2053 -91 1600 -91 
Q 1103 -91 897 129 
Q 691 350 691 878 
L 691 2988 
z
" transform="scale(0.015625)"/>
       <path id="DejaVuSerif-73" d="M 359 184 
L 359 959 
L 691 959 
Q 703 588 923 403 
Q 1144 219 1575 219 
Q 1963 219 2166 364 
Q 2369 509 2369 788 
Q 2369 1006 2220 1140 
Q 2072 1275 1594 1428 
L 1178 1569 
Q 750 1706 558 1912 
Q 366 2119 366 2438 
Q 366 2894 700 3153 
Q 1034 3413 1625 3413 
Q 1888 3413 2178 3344 
Q 2469 3275 2778 3144 
L 2778 2419 
L 2447 2419 
Q 2434 2741 2221 2922 
Q 2009 3103 1644 3103 
Q 1281 3103 1095 2975 
Q 909 2847 909 2591 
Q 909 2381 1050 2254 
Q 1191 2128 1613 1997 
L 2069 1856 
Q 2541 1709 2748 1489 
Q 2956 1269 2956 922 
Q 2956 450 2595 179 
Q 2234 -91 1600 -91 
Q 1278 -91 972 -22 
Q 666 47 359 184 
z
" transform="scale(0.015625)"/>
      </defs>
      <use xlink:href="#DejaVuSerif-4d"/>
      <use xlink:href="#DejaVuSerif-6f" x="102.392578"/>
      <use xlink:href="#DejaVuSerif-64" x="162.597656"/>
      <use xlink:href="#DejaVuSerif-65" x="226.611328"/>
      <use xlink:href="#DejaVuSerif-6c" x="285.791016"/>
      <use xlink:href="#DejaVuSerif-20" x="317.773438"/>
      <use xlink:href="#DejaVuSerif-74" x="349.560547"/>
      <use xlink:href="#DejaVuSerif-65" x="389.746094"/>
      <use xlink:href="#DejaVuSerif-73" x="448.925781"/>
      <use xlink:href="#DejaVuSerif-74" x="500.244141"/>
     </g>
    </g>
    <g id="line2d_20">
     <path d="M 79.99386 23.143594 
L 86.99386 23.143594 
L 93.99386 23.143594 
" style="fill: none; stroke: #0000ff; stroke-width: 0.6; stroke-linecap: round"/>
    </g>
    <g id="text_6">
     <!-- Reference -->
     <g style="fill: #262626" transform="translate(99.59386 25.593594) scale(0.07 -0.07)">
      <defs>
       <path id="DejaVuSerif-52" d="M 3066 2316 
Q 3284 2256 3442 2114 
Q 3600 1972 3725 1716 
L 4403 331 
L 4972 331 
L 4972 0 
L 3872 0 
L 3144 1484 
Q 2934 1916 2759 2042 
Q 2584 2169 2278 2169 
L 1581 2169 
L 1581 331 
L 2241 331 
L 2241 0 
L 353 0 
L 353 331 
L 947 331 
L 947 4331 
L 353 4331 
L 353 4666 
L 2719 4666 
Q 3400 4666 3770 4341 
Q 4141 4016 4141 3419 
Q 4141 2938 3870 2661 
Q 3600 2384 3066 2316 
z
M 1581 2503 
L 2503 2503 
Q 2975 2503 3200 2726 
Q 3425 2950 3425 3419 
Q 3425 3888 3200 4109 
Q 2975 4331 2503 4331 
L 1581 4331 
L 1581 2503 
z
" transform="scale(0.015625)"/>
       <path id="DejaVuSerif-66" d="M 2753 4078 
L 2450 4078 
Q 2447 4313 2317 4434 
Q 2188 4556 1941 4556 
Q 1619 4556 1487 4379 
Q 1356 4203 1356 3750 
L 1356 3322 
L 2284 3322 
L 2284 2988 
L 1356 2988 
L 1356 331 
L 2094 331 
L 2094 0 
L 231 0 
L 231 331 
L 781 331 
L 781 2988 
L 231 2988 
L 231 3322 
L 781 3322 
L 781 3738 
Q 781 4294 1070 4578 
Q 1359 4863 1919 4863 
Q 2128 4863 2337 4825 
Q 2547 4788 2753 4709 
L 2753 4078 
z
" transform="scale(0.015625)"/>
       <path id="DejaVuSerif-72" d="M 3059 3328 
L 3059 2497 
L 2728 2497 
Q 2713 2744 2591 2866 
Q 2469 2988 2234 2988 
Q 1809 2988 1582 2694 
Q 1356 2400 1356 1850 
L 1356 331 
L 2022 331 
L 2022 0 
L 263 0 
L 263 331 
L 781 331 
L 781 2994 
L 231 2994 
L 231 3322 
L 1356 3322 
L 1356 2731 
Q 1525 3078 1790 3245 
Q 2056 3413 2438 3413 
Q 2578 3413 2733 3391 
Q 2888 3369 3059 3328 
z
" transform="scale(0.015625)"/>
       <path id="DejaVuSerif-6e" d="M 263 0 
L 263 331 
L 781 331 
L 781 2988 
L 231 2988 
L 231 3322 
L 1356 3322 
L 1356 2731 
Q 1516 3069 1770 3241 
Q 2025 3413 2363 3413 
Q 2913 3413 3172 3097 
Q 3431 2781 3431 2113 
L 3431 331 
L 3944 331 
L 3944 0 
L 2356 0 
L 2356 331 
L 2853 331 
L 2853 1931 
Q 2853 2541 2703 2767 
Q 2553 2994 2175 2994 
Q 1775 2994 1565 2701 
Q 1356 2409 1356 1850 
L 1356 331 
L 1856 331 
L 1856 0 
L 263 0 
z
" transform="scale(0.015625)"/>
       <path id="DejaVuSerif-63" d="M 3291 997 
Q 3169 466 2822 187 
Q 2475 -91 1925 -91 
Q 1200 -91 759 389 
Q 319 869 319 1663 
Q 319 2459 759 2936 
Q 1200 3413 1925 3413 
Q 2241 3413 2553 3339 
Q 2866 3266 3181 3116 
L 3181 2266 
L 2847 2266 
Q 2781 2703 2561 2903 
Q 2341 3103 1931 3103 
Q 1466 3103 1228 2742 
Q 991 2381 991 1663 
Q 991 944 1227 581 
Q 1463 219 1931 219 
Q 2303 219 2525 412 
Q 2747 606 2828 997 
L 3291 997 
z
" transform="scale(0.015625)"/>
      </defs>
      <use xlink:href="#DejaVuSerif-52"/>
      <use xlink:href="#DejaVuSerif-65" x="75.292969"/>
      <use xlink:href="#DejaVuSerif-66" x="134.472656"/>
      <use xlink:href="#DejaVuSerif-65" x="171.484375"/>
      <use xlink:href="#DejaVuSerif-72" x="230.664062"/>
      <use xlink:href="#DejaVuSerif-65" x="278.466797"/>
      <use xlink:href="#DejaVuSerif-6e" x="337.646484"/>
      <use xlink:href="#DejaVuSerif-63" x="402.050781"/>
      <use xlink:href="#DejaVuSerif-65" x="458.056641"/>
     </g>
    </g>
    <g id="line2d_21">
     <path d="M 151.424485 12.868906 
L 158.424485 12.868906 
L 165.424485 12.868906 
" style="fill: none; stroke: #008000; stroke-width: 0.6; stroke-linecap: round"/>
    </g>
    <g id="text_7">
     <!-- PI -->
     <g style="fill: #262626" transform="translate(171.024485 15.318906) scale(0.07 -0.07)">
      <defs>
       <path id="DejaVuSerif-50" d="M 1581 2375 
L 2406 2375 
Q 2872 2375 3115 2626 
Q 3359 2878 3359 3353 
Q 3359 3831 3115 4081 
Q 2872 4331 2406 4331 
L 1581 4331 
L 1581 2375 
z
M 353 0 
L 353 331 
L 947 331 
L 947 4331 
L 353 4331 
L 353 4666 
L 2559 4666 
Q 3259 4666 3668 4311 
Q 4078 3956 4078 3353 
Q 4078 2753 3668 2397 
Q 3259 2041 2559 2041 
L 1581 2041 
L 1581 331 
L 2303 331 
L 2303 0 
L 353 0 
z
" transform="scale(0.015625)"/>
       <path id="DejaVuSerif-49" d="M 1581 331 
L 2175 331 
L 2175 0 
L 353 0 
L 353 331 
L 947 331 
L 947 4331 
L 353 4331 
L 353 4666 
L 2175 4666 
L 2175 4331 
L 1581 4331 
L 1581 331 
z
" transform="scale(0.015625)"/>
      </defs>
      <use xlink:href="#DejaVuSerif-50"/>
      <use xlink:href="#DejaVuSerif-49" x="67.285156"/>
     </g>
    </g>
    <g id="line2d_22">
     <path d="M 151.424485 23.143594 
L 158.424485 23.143594 
L 165.424485 23.143594 
" style="fill: none; stroke: #ff0000; stroke-width: 0.6; stroke-linecap: round"/>
    </g>
    <g id="text_8">
     <!-- PU -->
     <g style="fill: #262626" transform="translate(171.024485 25.593594) scale(0.07 -0.07)">
      <defs>
       <path id="DejaVuSerif-55" d="M 897 4331 
L 300 4331 
L 300 4666 
L 2125 4666 
L 2125 4331 
L 1528 4331 
L 1528 1919 
Q 1528 1025 1820 672 
Q 2113 319 2828 319 
Q 3544 319 3836 672 
Q 4128 1025 4128 1919 
L 4128 4331 
L 3531 4331 
L 3531 4666 
L 5106 4666 
L 5106 4331 
L 4513 4331 
L 4513 1856 
Q 4513 791 4103 350 
Q 3694 -91 2713 -91 
Q 1731 -91 1314 353 
Q 897 797 897 1856 
L 897 4331 
z
" transform="scale(0.015625)"/>
      </defs>
      <use xlink:href="#DejaVuSerif-50"/>
      <use xlink:href="#DejaVuSerif-55" x="65.535156"/>
     </g>
    </g>
   </g>
  </g>
  <g id="axes_2">
   <g id="patch_5">
    <path d="M 47.465469 154.474353 
L 214.03975 154.474353 
L 214.03975 91.651706 
L 47.465469 91.651706 
z
" style="fill: #ffffff"/>
   </g>
   <g id="line2d_23">
    <path d="M 55.037027 123.397236 
L 57.166477 123.644747 
L 58.612928 124.042042 
L 60.139651 124.702938 
L 61.867384 125.705614 
L 63.836029 127.115472 
L 66.20654 129.099208 
L 69.099357 131.82087 
L 72.47438 135.308992 
L 76.210865 139.500722 
L 84.809105 149.329063 
L 86.175059 150.408276 
L 87.34022 151.063988 
L 88.465198 151.447035 
L 89.630394 151.610832 
L 90.875934 151.561536 
L 92.282123 151.274314 
L 93.84906 150.721084 
L 95.657133 149.840856 
L 97.746329 148.567559 
L 100.117056 146.851593 
L 102.808795 144.617265 
L 106.063235 141.613428 
L 110.402475 137.283346 
L 116.107709 131.274756 
L 120.848851 125.969564 
L 126.192434 119.629195 
L 136.518224 106.961145 
L 143.06721 98.989785 
L 144.875207 97.130969 
L 146.281444 95.992368 
L 147.48679 95.290206 
L 148.611856 94.884266 
L 149.777045 94.693918 
L 151.062627 94.714971 
L 152.468863 94.964421 
L 154.116192 95.49128 
L 156.044865 96.353717 
L 158.214432 97.575423 
L 160.54466 99.14587 
L 163.116069 101.15306 
L 166.08944 103.768315 
L 169.785606 107.334887 
L 175.410544 113.107535 
L 180.754264 118.890563 
L 186.539875 125.496849 
L 194.776384 135.273871 
L 204.700486 147.133799 
L 204.700486 147.133799 
" clip-path="url(#pb3ebd18f5b)" style="fill: none; stroke: #000000; stroke-width: 0.6; stroke-linecap: round"/>
   </g>
   <g id="line2d_24">
    <path d="M 55.037027 123.70347 
L 55.639754 128.886706 
L 57.728966 145.885387 
L 58.010237 145.761619 
L 59.697696 145.758966 
L 62.269117 145.761619 
L 67.291404 145.761619 
L 81.675131 145.761619 
L 81.835912 144.384255 
L 83.40278 131.286042 
L 87.139357 100.481016 
L 87.179503 100.517263 
L 87.500932 100.570306 
L 90.112519 100.575611 
L 92.603543 100.575611 
L 141.942256 100.573843 
L 142.183288 102.556786 
L 146.602913 139.611222 
L 147.406522 145.885387 
L 147.446628 145.857097 
L 147.727854 145.768691 
L 149.535856 145.75985 
L 203.695909 145.760735 
L 203.816471 144.729922 
L 204.700486 137.355989 
L 204.700486 137.355989 
" clip-path="url(#pb3ebd18f5b)" style="fill: none; stroke-dasharray: 2.22,0.96; stroke-dashoffset: 0; stroke: #808080; stroke-width: 0.6"/>
   </g>
   <g id="matplotlib.axis_3">
    <g id="xtick_5">
     <g id="line2d_25">
      <path d="M 55.037027 154.474353 
L 55.037027 91.651706 
" clip-path="url(#pb3ebd18f5b)" style="fill: none; stroke: #b0b0b0; stroke-width: 0.1; stroke-linecap: round"/>
     </g>
     <g id="line2d_26"/>
    </g>
    <g id="xtick_6">
     <g id="line2d_27">
      <path d="M 95.215102 154.474353 
L 95.215102 91.651706 
" clip-path="url(#pb3ebd18f5b)" style="fill: none; stroke: #b0b0b0; stroke-width: 0.1; stroke-linecap: round"/>
     </g>
     <g id="line2d_28"/>
    </g>
    <g id="xtick_7">
     <g id="line2d_29">
      <path d="M 135.393177 154.474353 
L 135.393177 91.651706 
" clip-path="url(#pb3ebd18f5b)" style="fill: none; stroke: #b0b0b0; stroke-width: 0.1; stroke-linecap: round"/>
     </g>
     <g id="line2d_30"/>
    </g>
    <g id="xtick_8">
     <g id="line2d_31">
      <path d="M 175.571252 154.474353 
L 175.571252 91.651706 
" clip-path="url(#pb3ebd18f5b)" style="fill: none; stroke: #b0b0b0; stroke-width: 0.1; stroke-linecap: round"/>
     </g>
     <g id="line2d_32"/>
    </g>
   </g>
   <g id="matplotlib.axis_4">
    <g id="ytick_4">
     <g id="line2d_33">
      <path d="M 47.465469 145.760362 
L 214.03975 145.760362 
" clip-path="url(#pb3ebd18f5b)" style="fill: none; stroke: #b0b0b0; stroke-width: 0.1; stroke-linecap: round"/>
     </g>
     <g id="line2d_34"/>
     <g id="text_9">
      <!-- −10 -->
      <g style="fill: #262626" transform="translate(29.192187 148.419815) scale(0.07 -0.07)">
       <defs>
        <path id="DejaVuSerif-31" d="M 909 0 
L 909 331 
L 1722 331 
L 1722 4213 
L 781 3603 
L 781 4013 
L 1919 4750 
L 2350 4750 
L 2350 331 
L 3163 331 
L 3163 0 
L 909 0 
z
" transform="scale(0.015625)"/>
       </defs>
       <use xlink:href="#DejaVuSerif-2212"/>
       <use xlink:href="#DejaVuSerif-31" x="83.789062"/>
       <use xlink:href="#DejaVuSerif-30" x="147.412109"/>
      </g>
     </g>
    </g>
    <g id="ytick_5">
     <g id="line2d_35">
      <path d="M 47.465469 123.167731 
L 214.03975 123.167731 
" clip-path="url(#pb3ebd18f5b)" style="fill: none; stroke: #b0b0b0; stroke-width: 0.1; stroke-linecap: round"/>
     </g>
     <g id="line2d_36"/>
     <g id="text_10">
      <!-- 0 -->
      <g style="fill: #262626" transform="translate(39.511719 125.827184) scale(0.07 -0.07)">
       <use xlink:href="#DejaVuSerif-30"/>
      </g>
     </g>
    </g>
    <g id="ytick_6">
     <g id="line2d_37">
      <path d="M 47.465469 100.575099 
L 214.03975 100.575099 
" clip-path="url(#pb3ebd18f5b)" style="fill: none; stroke: #b0b0b0; stroke-width: 0.1; stroke-linecap: round"/>
     </g>
     <g id="line2d_38"/>
     <g id="text_11">
      <!-- 10 -->
      <g style="fill: #262626" transform="translate(35.057969 103.234553) scale(0.07 -0.07)">
       <use xlink:href="#DejaVuSerif-31"/>
       <use xlink:href="#DejaVuSerif-30" x="63.623047"/>
      </g>
     </g>
    </g>
    <g id="text_12">
     <!-- $\psi$ $[deg]$ -->
     <g style="fill: #262626" transform="translate(12.59 135.83803) rotate(-90) scale(0.07 -0.07)">
      <defs>
       <path id="DejaVuSans-Oblique-3c8" d="M 1591 -78 
Q 891 38 616 341 
Q 278 713 425 1472 
L 819 3500 
L 1400 3500 
L 1009 1494 
Q 900 922 1119 684 
Q 1313 478 1691 434 
L 2284 3500 
L 2856 3500 
L 2263 438 
Q 2681 481 2928 688 
Q 3247 950 3353 1497 
L 3741 3500 
L 4322 3500 
L 3928 1475 
Q 3775 688 3300 344 
Q 2872 34 2163 -75 
L 1919 -1331 
L 1347 -1331 
L 1591 -78 
z
" transform="scale(0.015625)"/>
      </defs>
      <use xlink:href="#DejaVuSans-Oblique-3c8" transform="translate(0 0.015625)"/>
      <use xlink:href="#DejaVuSerif-20" transform="translate(65.966797 0.015625)"/>
      <use xlink:href="#DejaVuSans-5b" transform="translate(97.753906 0.015625)"/>
      <use xlink:href="#DejaVuSans-Oblique-64" transform="translate(136.767578 0.015625)"/>
      <use xlink:href="#DejaVuSans-Oblique-65" transform="translate(200.244141 0.015625)"/>
      <use xlink:href="#DejaVuSans-Oblique-67" transform="translate(261.767578 0.015625)"/>
      <use xlink:href="#DejaVuSans-5d" transform="translate(325.244141 0.015625)"/>
     </g>
    </g>
   </g>
   <g id="line2d_39">
    <path d="M 55.037027 123.167731 
L 57.206643 123.274203 
L 58.452163 123.562027 
L 59.858396 124.130244 
L 61.505697 125.05077 
L 63.474423 126.422048 
L 65.885107 128.390456 
L 68.858285 131.120715 
L 72.554668 134.835784 
L 77.014434 139.646346 
L 82.759899 146.182542 
L 85.090227 148.719692 
L 86.456282 149.889544 
L 87.581268 150.579399 
L 88.625898 150.960787 
L 89.750884 151.125744 
L 90.996404 151.071974 
L 92.362459 150.785761 
L 93.929404 150.22477 
L 95.777595 149.315422 
L 97.947211 147.986538 
L 100.518608 146.137621 
L 103.572142 143.656788 
L 107.188169 140.422257 
L 111.406866 136.338895 
L 116.067523 131.50929 
L 121.692454 125.347327 
L 128.080768 118.00527 
L 135.031575 109.653679 
L 145.960011 96.450233 
L 147.165353 95.509638 
L 148.250161 94.939817 
L 149.334969 94.622449 
L 150.540312 94.507429 
L 151.866188 94.610534 
L 153.352777 94.952176 
L 155.040256 95.570567 
L 157.008982 96.53525 
L 159.33931 97.937566 
L 162.071419 99.85294 
L 165.245487 102.361531 
L 168.901692 105.542551 
L 172.999856 109.405617 
L 177.539978 113.999388 
L 182.843484 119.699287 
L 188.830017 126.46357 
L 195.579934 134.437839 
L 203.253946 143.863334 
L 204.740535 145.723905 
L 204.740535 145.723905 
" clip-path="url(#pb3ebd18f5b)" style="fill: none; stroke: #0000ff; stroke-width: 0.6; stroke-linecap: round"/>
   </g>
   <g id="line2d_40">
    <path d="M 55.037027 123.167731 
L 57.206643 123.273931 
L 58.492341 123.573279 
L 59.898574 124.143684 
L 61.545875 125.05963 
L 63.554779 126.443231 
L 66.04582 128.443458 
L 69.260066 131.327746 
L 73.318051 135.280094 
L 78.460845 140.614017 
L 86.536638 149.040687 
L 87.782158 149.890041 
L 88.826788 150.348506 
L 89.871418 150.563808 
L 91.036582 150.568371 
L 92.322281 150.343801 
L 93.80887 149.847896 
L 95.536527 149.025646 
L 97.585609 147.793779 
L 100.076649 146.024965 
L 103.170361 143.541212 
L 106.9471 140.21641 
L 111.527401 135.885997 
L 116.871085 130.513876 
L 123.86207 123.160312 
L 131.857507 114.419447 
L 140.97793 104.115813 
L 146.803751 97.587605 
L 148.169805 96.452684 
L 149.294791 95.793392 
L 150.339421 95.433308 
L 151.424229 95.290058 
L 152.66975 95.356495 
L 154.075982 95.665957 
L 155.683105 96.255446 
L 157.571475 97.196693 
L 159.781269 98.556042 
L 162.513378 100.514543 
L 165.727624 103.100619 
L 169.705253 106.599497 
L 174.36591 111.003345 
L 179.910485 116.56202 
L 187.022004 124.014088 
L 194.495126 132.164159 
L 203.856617 142.743351 
L 206.468192 145.743326 
L 206.468192 145.743326 
" clip-path="url(#pb3ebd18f5b)" style="fill: none; stroke: #008000; stroke-width: 0.6; stroke-linecap: round"/>
   </g>
   <g id="line2d_41">
    <path d="M 55.037027 123.167731 
L 57.206643 123.276947 
L 58.492341 123.576098 
L 59.898574 124.146968 
L 61.505697 125.053012 
L 63.394067 126.387519 
L 65.644039 128.262491 
L 68.416326 130.876184 
L 71.951997 134.532526 
L 76.612653 139.69191 
L 85.331296 149.434035 
L 86.536638 150.285899 
L 87.581268 150.768694 
L 88.625898 151.007282 
L 89.710706 151.03078 
L 90.916048 150.831871 
L 92.282103 150.371617 
L 93.849048 149.596706 
L 95.697239 148.422397 
L 97.866855 146.768481 
L 100.518608 144.457445 
L 103.773032 141.313216 
L 107.911374 136.993155 
L 113.335414 130.99038 
L 120.406755 122.810862 
L 130.411096 110.871966 
L 141.821669 97.276868 
L 143.147546 96.157373 
L 144.272532 95.491973 
L 145.317162 95.13328 
L 146.40197 94.996531 
L 147.567134 95.074348 
L 148.852832 95.38352 
L 150.339421 95.977458 
L 152.067078 96.919173 
L 154.11616 98.304284 
L 156.567023 100.24233 
L 159.5402 102.88953 
L 163.156227 106.421058 
L 167.656172 111.141071 
L 173.522171 117.634974 
L 181.075649 126.340435 
L 192.124619 139.451512 
L 197.347769 145.723109 
L 197.347769 145.723109 
" clip-path="url(#pb3ebd18f5b)" style="fill: none; stroke: #ff0000; stroke-width: 0.6; stroke-linecap: round"/>
   </g>
   <g id="patch_6">
    <path d="M 47.465469 154.474353 
L 47.465469 91.651706 
" style="fill: none; stroke: #000000; stroke-linejoin: miter; stroke-linecap: square"/>
   </g>
   <g id="patch_7">
    <path d="M 47.465469 154.474353 
L 214.03975 154.474353 
" style="fill: none; stroke: #000000; stroke-linejoin: miter; stroke-linecap: square"/>
   </g>
  </g>
  <g id="axes_3">
   <g id="patch_8">
    <path d="M 47.465469 217.297 
L 214.03975 217.297 
L 214.03975 154.474353 
L 47.465469 154.474353 
z
" style="fill: #ffffff"/>
   </g>
   <g id="line2d_42">
    <path d="M 55.037027 187.396964 
L 55.55935 187.792168 
L 56.162041 188.535043 
L 56.885243 189.806344 
L 57.728966 191.786321 
L 59.336222 195.719422 
L 60.862856 198.889362 
L 62.349557 201.472913 
L 63.755705 203.486793 
L 65.202116 205.16962 
L 66.688713 206.562014 
L 68.536892 207.968111 
L 71.068119 209.590816 
L 74.282357 211.399923 
L 76.452021 212.402428 
L 78.018886 212.885742 
L 79.264418 213.045519 
L 80.349311 212.961091 
L 81.313528 212.674205 
L 82.07694 212.236005 
L 82.599243 211.621115 
L 83.242048 210.49049 
L 84.005508 208.664727 
L 84.929611 205.841587 
L 86.054497 201.643623 
L 87.541118 195.140266 
L 88.987525 189.277842 
L 90.313498 184.784929 
L 91.59914 181.181635 
L 92.884786 178.226547 
L 94.250869 175.650485 
L 95.697291 173.398534 
L 97.34456 171.245117 
L 99.232922 169.142414 
L 101.201672 167.27175 
L 102.969511 165.883898 
L 104.817674 164.724314 
L 106.70604 163.801671 
L 108.634603 163.110894 
L 110.96504 162.532107 
L 116.027353 161.336783 
L 119.241716 160.26926 
L 122.777282 159.142023 
L 125.027254 158.651306 
L 127.518263 158.334496 
L 131.576268 158.091069 
L 135.232473 157.794782 
L 137.763692 157.679539 
L 139.12975 157.834467 
L 140.294906 158.187676 
L 141.419929 158.777375 
L 142.303818 159.467924 
L 142.866303 160.23363 
L 143.549419 161.555742 
L 144.393078 163.71599 
L 145.39755 166.936221 
L 146.643042 171.732113 
L 149.736794 184.182964 
L 151.022573 188.103208 
L 152.227795 191.08798 
L 153.473408 193.58467 
L 154.799196 195.736384 
L 156.366149 197.839195 
L 158.575947 200.406927 
L 161.14734 203.048849 
L 163.317036 204.960398 
L 165.285818 206.397149 
L 167.133933 207.48551 
L 168.942003 208.296343 
L 170.669555 208.831665 
L 173.200746 209.353634 
L 176.736449 210.142278 
L 184.852392 212.11396 
L 188.227451 212.632938 
L 193.651511 213.169043 
L 198.6335 213.528405 
L 200.280765 213.406005 
L 201.566475 213.098202 
L 202.691493 212.598735 
L 203.776273 211.870987 
L 204.298777 211.308372 
L 204.700486 210.694765 
L 204.700486 210.694765 
" clip-path="url(#pae36473d9e)" style="fill: none; stroke: #000000; stroke-width: 0.6; stroke-linecap: round"/>
   </g>
   <g id="matplotlib.axis_5">
    <g id="xtick_9">
     <g id="line2d_43">
      <path d="M 55.037027 217.297 
L 55.037027 154.474353 
" clip-path="url(#pae36473d9e)" style="fill: none; stroke: #b0b0b0; stroke-width: 0.1; stroke-linecap: round"/>
     </g>
     <g id="line2d_44"/>
     <g id="text_13">
      <!-- 0 -->
      <g style="fill: #262626" transform="translate(52.810152 226.115906) scale(0.07 -0.07)">
       <use xlink:href="#DejaVuSerif-30"/>
      </g>
     </g>
    </g>
    <g id="xtick_10">
     <g id="line2d_45">
      <path d="M 95.215102 217.297 
L 95.215102 154.474353 
" clip-path="url(#pae36473d9e)" style="fill: none; stroke: #b0b0b0; stroke-width: 0.1; stroke-linecap: round"/>
     </g>
     <g id="line2d_46"/>
     <g id="text_14">
      <!-- 10 -->
      <g style="fill: #262626" transform="translate(90.761352 226.115906) scale(0.07 -0.07)">
       <use xlink:href="#DejaVuSerif-31"/>
       <use xlink:href="#DejaVuSerif-30" x="63.623047"/>
      </g>
     </g>
    </g>
    <g id="xtick_11">
     <g id="line2d_47">
      <path d="M 135.393177 217.297 
L 135.393177 154.474353 
" clip-path="url(#pae36473d9e)" style="fill: none; stroke: #b0b0b0; stroke-width: 0.1; stroke-linecap: round"/>
     </g>
     <g id="line2d_48"/>
     <g id="text_15">
      <!-- 20 -->
      <g style="fill: #262626" transform="translate(130.939427 226.115906) scale(0.07 -0.07)">
       <defs>
        <path id="DejaVuSerif-32" d="M 819 3553 
L 469 3553 
L 469 4384 
Q 803 4563 1142 4656 
Q 1481 4750 1806 4750 
Q 2534 4750 2956 4397 
Q 3378 4044 3378 3438 
Q 3378 2753 2422 1800 
Q 2347 1728 2309 1691 
L 1131 513 
L 3078 513 
L 3078 1088 
L 3444 1088 
L 3444 0 
L 434 0 
L 434 341 
L 1850 1753 
Q 2319 2222 2519 2614 
Q 2719 3006 2719 3438 
Q 2719 3909 2473 4175 
Q 2228 4441 1797 4441 
Q 1350 4441 1106 4219 
Q 863 3997 819 3553 
z
" transform="scale(0.015625)"/>
       </defs>
       <use xlink:href="#DejaVuSerif-32"/>
       <use xlink:href="#DejaVuSerif-30" x="63.623047"/>
      </g>
     </g>
    </g>
    <g id="xtick_12">
     <g id="line2d_49">
      <path d="M 175.571252 217.297 
L 175.571252 154.474353 
" clip-path="url(#pae36473d9e)" style="fill: none; stroke: #b0b0b0; stroke-width: 0.1; stroke-linecap: round"/>
     </g>
     <g id="line2d_50"/>
     <g id="text_16">
      <!-- 30 -->
      <g style="fill: #262626" transform="translate(171.117502 226.115906) scale(0.07 -0.07)">
       <defs>
        <path id="DejaVuSerif-33" d="M 622 4469 
Q 988 4606 1323 4678 
Q 1659 4750 1953 4750 
Q 2638 4750 3022 4454 
Q 3406 4159 3406 3634 
Q 3406 3213 3140 2930 
Q 2875 2647 2388 2547 
Q 2963 2466 3280 2130 
Q 3597 1794 3597 1259 
Q 3597 606 3158 257 
Q 2719 -91 1894 -91 
Q 1528 -91 1179 -12 
Q 831 66 488 225 
L 488 1131 
L 838 1131 
Q 869 681 1141 450 
Q 1413 219 1906 219 
Q 2384 219 2661 495 
Q 2938 772 2938 1253 
Q 2938 1803 2653 2086 
Q 2369 2369 1819 2369 
L 1522 2369 
L 1522 2688 
L 1678 2688 
Q 2225 2688 2498 2914 
Q 2772 3141 2772 3597 
Q 2772 4006 2547 4223 
Q 2322 4441 1900 4441 
Q 1478 4441 1245 4241 
Q 1013 4041 972 3647 
L 622 3647 
L 622 4469 
z
" transform="scale(0.015625)"/>
       </defs>
       <use xlink:href="#DejaVuSerif-33"/>
       <use xlink:href="#DejaVuSerif-30" x="63.623047"/>
      </g>
     </g>
    </g>
    <g id="text_17">
     <!-- Time [s] -->
     <g style="fill: #262626" transform="translate(116.268625 236.890594) scale(0.07 -0.07)">
      <defs>
       <path id="DejaVuSerif-54" d="M 1222 0 
L 1222 331 
L 1819 331 
L 1819 4294 
L 447 4294 
L 447 3566 
L 63 3566 
L 63 4666 
L 4206 4666 
L 4206 3566 
L 3822 3566 
L 3822 4294 
L 2450 4294 
L 2450 331 
L 3047 331 
L 3047 0 
L 1222 0 
z
" transform="scale(0.015625)"/>
       <path id="DejaVuSerif-69" d="M 622 4353 
Q 622 4497 726 4603 
Q 831 4709 978 4709 
Q 1122 4709 1226 4603 
Q 1331 4497 1331 4353 
Q 1331 4206 1228 4103 
Q 1125 4000 978 4000 
Q 831 4000 726 4103 
Q 622 4206 622 4353 
z
M 1356 331 
L 1900 331 
L 1900 0 
L 231 0 
L 231 331 
L 781 331 
L 781 2988 
L 231 2988 
L 231 3322 
L 1356 3322 
L 1356 331 
z
" transform="scale(0.015625)"/>
       <path id="DejaVuSerif-6d" d="M 3316 2675 
Q 3481 3041 3739 3227 
Q 3997 3413 4341 3413 
Q 4863 3413 5119 3089 
Q 5375 2766 5375 2113 
L 5375 331 
L 5894 331 
L 5894 0 
L 4300 0 
L 4300 331 
L 4800 331 
L 4800 2047 
Q 4800 2556 4650 2772 
Q 4500 2988 4153 2988 
Q 3769 2988 3567 2697 
Q 3366 2406 3366 1850 
L 3366 331 
L 3866 331 
L 3866 0 
L 2291 0 
L 2291 331 
L 2791 331 
L 2791 2069 
Q 2791 2566 2641 2777 
Q 2491 2988 2144 2988 
Q 1759 2988 1557 2697 
Q 1356 2406 1356 1850 
L 1356 331 
L 1856 331 
L 1856 0 
L 263 0 
L 263 331 
L 781 331 
L 781 2994 
L 231 2994 
L 231 3322 
L 1356 3322 
L 1356 2731 
Q 1516 3063 1762 3238 
Q 2009 3413 2322 3413 
Q 2709 3413 2968 3220 
Q 3228 3028 3316 2675 
z
" transform="scale(0.015625)"/>
       <path id="DejaVuSerif-5b" d="M 550 4863 
L 2003 4863 
L 2003 4531 
L 1147 4531 
L 1147 -513 
L 2003 -513 
L 2003 -844 
L 550 -844 
L 550 4863 
z
" transform="scale(0.015625)"/>
       <path id="DejaVuSerif-5d" d="M 1947 4863 
L 1947 -844 
L 494 -844 
L 494 -513 
L 1350 -513 
L 1350 4531 
L 494 4531 
L 494 4863 
L 1947 4863 
z
" transform="scale(0.015625)"/>
      </defs>
      <use xlink:href="#DejaVuSerif-54"/>
      <use xlink:href="#DejaVuSerif-69" x="66.699219"/>
      <use xlink:href="#DejaVuSerif-6d" x="98.681641"/>
      <use xlink:href="#DejaVuSerif-65" x="193.505859"/>
      <use xlink:href="#DejaVuSerif-20" x="252.685547"/>
      <use xlink:href="#DejaVuSerif-5b" x="284.472656"/>
      <use xlink:href="#DejaVuSerif-73" x="323.486328"/>
      <use xlink:href="#DejaVuSerif-5d" x="374.804688"/>
     </g>
    </g>
   </g>
   <g id="matplotlib.axis_6">
    <g id="ytick_7">
     <g id="line2d_51">
      <path d="M 47.465469 204.210633 
L 214.03975 204.210633 
" clip-path="url(#pae36473d9e)" style="fill: none; stroke: #b0b0b0; stroke-width: 0.1; stroke-linecap: round"/>
     </g>
     <g id="line2d_52"/>
     <g id="text_18">
      <!-- −0.025 -->
      <g style="fill: #262626" transform="translate(18.06 206.870086) scale(0.07 -0.07)">
       <defs>
        <path id="DejaVuSerif-2e" d="M 603 325 
Q 603 500 722 622 
Q 841 744 1019 744 
Q 1191 744 1312 622 
Q 1434 500 1434 325 
Q 1434 153 1312 31 
Q 1191 -91 1019 -91 
Q 841 -91 722 29 
Q 603 150 603 325 
z
" transform="scale(0.015625)"/>
       </defs>
       <use xlink:href="#DejaVuSerif-2212"/>
       <use xlink:href="#DejaVuSerif-30" x="83.789062"/>
       <use xlink:href="#DejaVuSerif-2e" x="147.412109"/>
       <use xlink:href="#DejaVuSerif-30" x="179.199219"/>
       <use xlink:href="#DejaVuSerif-32" x="242.822266"/>
       <use xlink:href="#DejaVuSerif-35" x="306.445312"/>
      </g>
     </g>
    </g>
    <g id="ytick_8">
     <g id="line2d_53">
      <path d="M 47.465469 185.931825 
L 214.03975 185.931825 
" clip-path="url(#pae36473d9e)" style="fill: none; stroke: #b0b0b0; stroke-width: 0.1; stroke-linecap: round"/>
     </g>
     <g id="line2d_54"/>
     <g id="text_19">
      <!-- 0.000 -->
      <g style="fill: #262626" transform="translate(23.925781 188.591278) scale(0.07 -0.07)">
       <use xlink:href="#DejaVuSerif-30"/>
       <use xlink:href="#DejaVuSerif-2e" x="63.623047"/>
       <use xlink:href="#DejaVuSerif-30" x="95.410156"/>
       <use xlink:href="#DejaVuSerif-30" x="159.033203"/>
       <use xlink:href="#DejaVuSerif-30" x="222.65625"/>
      </g>
     </g>
    </g>
    <g id="ytick_9">
     <g id="line2d_55">
      <path d="M 47.465469 167.653016 
L 214.03975 167.653016 
" clip-path="url(#pae36473d9e)" style="fill: none; stroke: #b0b0b0; stroke-width: 0.1; stroke-linecap: round"/>
     </g>
     <g id="line2d_56"/>
     <g id="text_20">
      <!-- 0.025 -->
      <g style="fill: #262626" transform="translate(23.925781 170.312469) scale(0.07 -0.07)">
       <use xlink:href="#DejaVuSerif-30"/>
       <use xlink:href="#DejaVuSerif-2e" x="63.623047"/>
       <use xlink:href="#DejaVuSerif-30" x="95.410156"/>
       <use xlink:href="#DejaVuSerif-32" x="159.033203"/>
       <use xlink:href="#DejaVuSerif-35" x="222.65625"/>
      </g>
     </g>
    </g>
    <g id="text_21">
     <!-- $r$ $[rad/s]$ -->
     <g style="fill: #262626" transform="translate(12.604219 199.990677) rotate(-90) scale(0.07 -0.07)">
      <defs>
       <path id="DejaVuSans-Oblique-72" d="M 2853 2969 
Q 2766 3016 2653 3041 
Q 2541 3066 2413 3066 
Q 1953 3066 1609 2717 
Q 1266 2369 1153 1784 
L 800 0 
L 225 0 
L 909 3500 
L 1484 3500 
L 1375 2956 
Q 1603 3259 1920 3421 
Q 2238 3584 2597 3584 
Q 2691 3584 2781 3573 
Q 2872 3563 2963 3538 
L 2853 2969 
z
" transform="scale(0.015625)"/>
       <path id="DejaVuSans-Oblique-61" d="M 3438 1997 
L 3047 0 
L 2472 0 
L 2578 531 
Q 2325 219 2001 64 
Q 1678 -91 1281 -91 
Q 834 -91 548 182 
Q 263 456 263 884 
Q 263 1497 752 1853 
Q 1241 2209 2100 2209 
L 2900 2209 
L 2931 2363 
Q 2938 2388 2941 2417 
Q 2944 2447 2944 2509 
Q 2944 2788 2717 2942 
Q 2491 3097 2081 3097 
Q 1800 3097 1504 3025 
Q 1209 2953 897 2809 
L 997 3341 
Q 1322 3463 1633 3523 
Q 1944 3584 2234 3584 
Q 2853 3584 3176 3315 
Q 3500 3047 3500 2534 
Q 3500 2431 3484 2292 
Q 3469 2153 3438 1997 
z
M 2816 1759 
L 2241 1759 
Q 1534 1759 1195 1570 
Q 856 1381 856 984 
Q 856 709 1029 553 
Q 1203 397 1509 397 
Q 1978 397 2328 733 
Q 2678 1069 2791 1631 
L 2816 1759 
z
" transform="scale(0.015625)"/>
       <path id="DejaVuSans-2f" d="M 1625 4666 
L 2156 4666 
L 531 -594 
L 0 -594 
L 1625 4666 
z
" transform="scale(0.015625)"/>
       <path id="DejaVuSans-Oblique-73" d="M 3200 3397 
L 3091 2853 
Q 2863 2978 2609 3040 
Q 2356 3103 2088 3103 
Q 1634 3103 1373 2948 
Q 1113 2794 1113 2528 
Q 1113 2219 1719 2053 
Q 1766 2041 1788 2034 
L 1972 1978 
Q 2547 1819 2739 1644 
Q 2931 1469 2931 1166 
Q 2931 609 2489 259 
Q 2047 -91 1331 -91 
Q 1053 -91 747 -37 
Q 441 16 72 128 
L 184 722 
Q 500 559 806 475 
Q 1113 391 1394 391 
Q 1816 391 2080 572 
Q 2344 753 2344 1031 
Q 2344 1331 1650 1516 
L 1591 1531 
L 1394 1581 
Q 956 1697 753 1886 
Q 550 2075 550 2369 
Q 550 2928 970 3256 
Q 1391 3584 2113 3584 
Q 2397 3584 2667 3537 
Q 2938 3491 3200 3397 
z
" transform="scale(0.015625)"/>
      </defs>
      <use xlink:href="#DejaVuSans-Oblique-72" transform="translate(0 0.015625)"/>
      <use xlink:href="#DejaVuSerif-20" transform="translate(41.113281 0.015625)"/>
      <use xlink:href="#DejaVuSans-5b" transform="translate(72.900391 0.015625)"/>
      <use xlink:href="#DejaVuSans-Oblique-72" transform="translate(111.914062 0.015625)"/>
      <use xlink:href="#DejaVuSans-Oblique-61" transform="translate(153.027344 0.015625)"/>
      <use xlink:href="#DejaVuSans-Oblique-64" transform="translate(214.306641 0.015625)"/>
      <use xlink:href="#DejaVuSans-2f" transform="translate(277.783203 0.015625)"/>
      <use xlink:href="#DejaVuSans-Oblique-73" transform="translate(311.474609 0.015625)"/>
      <use xlink:href="#DejaVuSans-5d" transform="translate(363.574219 0.015625)"/>
     </g>
    </g>
   </g>
   <g id="line2d_57">
    <path d="M 55.037027 185.931825 
L 55.438808 186.054287 
L 55.880767 186.457186 
L 56.403082 187.271387 
L 57.005753 188.637365 
L 57.809314 191.110745 
L 58.9343 194.547318 
L 60.139643 197.51285 
L 61.425341 200.05878 
L 62.630683 201.97787 
L 63.95656 203.708512 
L 65.523505 205.325428 
L 67.010093 206.539015 
L 69.260066 208.028495 
L 70.746654 208.775995 
L 73.920722 210.142571 
L 76.05016 210.836273 
L 79.103694 211.566241 
L 82.840255 212.25106 
L 83.282214 211.895461 
L 83.804529 211.14306 
L 84.4072 209.850183 
L 85.130405 207.752334 
L 86.014323 204.467233 
L 87.058953 199.68803 
L 89.509815 187.949874 
L 90.634802 184.088676 
L 91.840144 180.733524 
L 93.085664 177.896967 
L 94.331185 175.584882 
L 95.697239 173.495003 
L 97.264184 171.536647 
L 98.670417 170.088033 
L 100.880211 168.274971 
L 102.76858 167.017207 
L 104.85784 165.87416 
L 108.031908 164.431548 
L 112.210428 162.904448 
L 115.946989 161.747602 
L 120.92907 160.615394 
L 125.790617 159.679143 
L 132.781602 158.472309 
L 141.821669 157.377599 
L 142.705587 157.408168 
L 143.107368 157.720234 
L 143.589505 158.370698 
L 144.192176 159.597674 
L 144.915381 161.626283 
L 145.799299 164.834874 
L 146.843929 169.524409 
L 149.616216 182.654322 
L 150.741202 186.4021 
L 151.906366 189.556571 
L 153.151887 192.313551 
L 154.477763 194.756267 
L 155.924174 196.942154 
L 157.370584 198.753506 
L 158.977707 200.393189 
L 160.986611 202.088877 
L 162.874981 203.401643 
L 165.165131 204.743072 
L 168.379377 206.27085 
L 174.807869 208.741486 
L 178.865855 209.990996 
L 187.423785 211.915066 
L 192.606756 212.800603 
L 194.937085 213.175325 
L 197.387947 213.530042 
L 200.120056 213.932991 
L 201.92807 214.123105 
L 204.057508 214.34085 
L 204.740535 214.441425 
L 204.740535 214.441425 
" clip-path="url(#pae36473d9e)" style="fill: none; stroke: #0000ff; stroke-width: 0.6; stroke-linecap: round"/>
   </g>
   <g id="line2d_58">
    <path d="M 55.037027 185.931825 
L 55.438808 186.054207 
L 55.880767 186.456491 
L 56.403082 187.268516 
L 57.005753 188.628925 
L 57.809314 191.088057 
L 58.894122 194.380547 
L 60.099464 197.312852 
L 61.385163 199.806611 
L 62.550327 201.595591 
L 63.836025 203.221032 
L 65.081546 204.445726 
L 66.809203 205.805559 
L 68.496682 206.80443 
L 70.465408 207.722232 
L 72.675202 208.567223 
L 75.527845 209.409946 
L 78.380489 210.029839 
L 83.282214 210.741323 
L 83.683995 210.626069 
L 84.125953 210.246958 
L 84.688446 209.395847 
L 85.331296 207.936324 
L 86.134857 205.487143 
L 87.058953 201.897684 
L 88.143761 196.756559 
L 89.991952 187.772194 
L 91.116938 183.669935 
L 92.241925 180.364959 
L 93.447267 177.472628 
L 94.732965 174.993201 
L 96.09902 172.873333 
L 97.545431 171.084835 
L 99.152554 169.496651 
L 100.759677 168.236121 
L 102.648046 167.095847 
L 105.179265 165.866558 
L 107.389059 165.066238 
L 112.491674 163.51577 
L 116.188057 162.676646 
L 121.129961 161.948369 
L 132.861959 160.616502 
L 144.352888 159.736682 
L 144.754669 160.010794 
L 145.236806 160.630998 
L 145.839477 161.803212 
L 146.562682 163.745265 
L 147.406422 166.692678 
L 148.410874 171.037353 
L 151.584942 185.635909 
L 152.709928 189.191487 
L 153.875092 192.16349 
L 155.120612 194.752668 
L 156.446489 196.997574 
L 157.892899 199.004341 
L 159.33931 200.634962 
L 160.785721 201.939219 
L 162.794625 203.402198 
L 164.803528 204.594564 
L 166.973144 205.619131 
L 169.544541 206.580505 
L 173.682883 207.86368 
L 178.022115 208.888861 
L 183.124731 209.675092 
L 196.062071 211.346593 
L 199.356673 211.637847 
L 201.486111 211.749621 
L 204.620001 211.961659 
L 206.468192 212.096254 
L 206.468192 212.096254 
" clip-path="url(#pae36473d9e)" style="fill: none; stroke: #008000; stroke-width: 0.6; stroke-linecap: round"/>
   </g>
   <g id="line2d_59">
    <path d="M 55.037027 185.931825 
L 55.39863 186.0355 
L 55.840589 186.428439 
L 56.362903 187.238997 
L 57.005753 188.68538 
L 57.809314 191.088862 
L 59.095013 194.908937 
L 60.420889 198.150297 
L 61.706587 200.734538 
L 63.032464 202.905881 
L 64.438697 204.787914 
L 65.885107 206.344184 
L 67.371696 207.639206 
L 68.978819 208.751612 
L 70.907367 209.800996 
L 72.91627 210.627667 
L 75.487667 211.43452 
L 78.420667 212.080651 
L 81.675091 212.57808 
L 82.197406 212.54187 
L 82.599187 212.24264 
L 83.081323 211.577742 
L 83.643817 210.412338 
L 84.367022 208.343893 
L 85.25094 205.069384 
L 86.335748 200.105093 
L 89.389281 185.513725 
L 90.634802 181.101894 
L 91.880322 177.496402 
L 93.125842 174.55897 
L 94.411541 172.07158 
L 95.737417 169.980578 
L 97.14365 168.182242 
L 98.710595 166.547403 
L 100.317718 165.199204 
L 102.085553 164.014321 
L 104.014101 162.985515 
L 106.183717 162.086423 
L 108.795292 161.251659 
L 111.848825 160.514663 
L 115.665742 159.834936 
L 119.964796 159.281543 
L 125.10759 158.845317 
L 132.580712 158.466894 
L 139.049382 158.331409 
L 139.451163 158.541131 
L 139.893122 159.031513 
L 140.415437 159.961087 
L 141.058286 161.573192 
L 141.861847 164.225676 
L 142.866299 168.393267 
L 144.11182 174.576417 
L 145.598408 181.970786 
L 146.843929 186.976754 
L 148.089449 191.067635 
L 149.334969 194.413645 
L 150.58049 197.153663 
L 151.906366 199.542591 
L 153.272421 201.54902 
L 154.678653 203.227595 
L 156.245598 204.749217 
L 157.973256 206.112962 
L 159.901803 207.348224 
L 162.031241 208.450583 
L 164.361569 209.401125 
L 167.133857 210.283682 
L 170.066856 210.977998 
L 174.044486 211.665772 
L 178.865855 212.285092 
L 184.370251 212.757043 
L 191.079989 213.080403 
L 197.347769 213.232312 
L 197.347769 213.232312 
" clip-path="url(#pae36473d9e)" style="fill: none; stroke: #ff0000; stroke-width: 0.6; stroke-linecap: round"/>
   </g>
   <g id="patch_9">
    <path d="M 47.465469 217.297 
L 47.465469 154.474353 
" style="fill: none; stroke: #000000; stroke-linejoin: miter; stroke-linecap: square"/>
   </g>
   <g id="patch_10">
    <path d="M 47.465469 217.297 
L 214.03975 217.297 
" style="fill: none; stroke: #000000; stroke-linejoin: miter; stroke-linecap: square"/>
   </g>
  </g>
 </g>
 <defs>
  <clipPath id="pf3c6acb93c">
   <rect x="47.465469" y="28.829059" width="166.574282" height="62.822647"/>
  </clipPath>
  <clipPath id="pb3ebd18f5b">
   <rect x="47.465469" y="91.651706" width="166.574282" height="62.822647"/>
  </clipPath>
  <clipPath id="pae36473d9e">
   <rect x="47.465469" y="154.474353" width="166.574282" height="62.822647"/>
  </clipPath>
 </defs>
</svg>
