<?xml version="1.0" encoding="utf-8" standalone="no"?>
<!DOCTYPE svg PUBLIC "-//W3C//DTD SVG 1.1//EN"
  "http://www.w3.org/Graphics/SVG/1.1/DTD/svg11.dtd">
<svg xmlns:xlink="http://www.w3.org/1999/xlink" width="432.741094pt" height="337.100625pt" viewBox="0 0 432.741094 337.100625" xmlns="http://www.w3.org/2000/svg" version="1.1">
 <metadata>
  <rdf:RDF xmlns:dc="http://purl.org/dc/elements/1.1/" xmlns:cc="http://creativecommons.org/ns#" xmlns:rdf="http://www.w3.org/1999/02/22-rdf-syntax-ns#">
   <cc:Work>
    <dc:type rdf:resource="http://purl.org/dc/dcmitype/StillImage"/>
    <dc:date>2024-02-12T13:57:21.656902</dc:date>
    <dc:format>image/svg+xml</dc:format>
    <dc:creator>
     <cc:Agent>
      <dc:title>Matplotlib v3.8.2, https://matplotlib.org/</dc:title>
     </cc:Agent>
    </dc:creator>
   </cc:Work>
  </rdf:RDF>
 </metadata>
 <defs>
  <style type="text/css">*{stroke-linejoin: round; stroke-linecap: butt}</style>
 </defs>
 <g id="figure_1">
  <g id="patch_1">
   <path d="M 0 337.100625 
L 432.741094 337.100625 
L 432.741094 0 
L 0 0 
z
" style="fill: #ffffff"/>
  </g>
  <g id="axes_1">
   <g id="patch_2">
    <path d="M 50.991094 106.46 
L 425.541094 106.46 
L 425.541094 7.2 
L 50.991094 7.2 
z
" style="fill: #ffffff"/>
   </g>
   <g id="line2d_1">
    <path d="M 68.016094 56.505195 
L 69.096493 56.722993 
L 70.176892 56.807081 
L 71.077225 56.985875 
L 71.887524 57.375961 
L 72.787857 58.084854 
L 75.488855 60.36275 
L 77.289521 62.046623 
L 78.36992 62.78028 
L 79.450319 63.221439 
L 80.800818 63.531211 
L 82.961617 63.722549 
L 84.582216 63.901877 
L 85.302482 64.322578 
L 87.643347 66.129469 
L 90.164278 68.236253 
L 95.476241 73.054903 
L 97.276907 73.894244 
L 98.627406 74.332761 
L 99.617772 74.705384 
L 101.328404 75.292348 
L 104.299502 76.404146 
L 106.460301 77.38216 
L 109.611465 79.162023 
L 114.293195 82.095286 
L 116.183894 82.981535 
L 118.074593 83.708219 
L 125.457321 85.842063 
L 127.618119 86.895601 
L 129.418785 87.715905 
L 130.769284 87.905788 
L 131.75965 87.960068 
L 132.930082 87.776703 
L 133.650349 87.523859 
L 134.730748 86.832585 
L 136.621446 85.253691 
L 138.692212 83.493213 
L 140.762977 81.153396 
L 142.113476 79.784849 
L 143.193875 79.045812 
L 144.724441 78.075856 
L 146.61514 76.763206 
L 149.226104 74.678691 
L 151.747036 72.09187 
L 153.277602 70.181728 
L 159.579931 62.260764 
L 161.650696 60.245961 
L 163.721461 58.983289 
L 166.152359 57.475615 
L 168.673291 55.713296 
L 172.634755 51.794711 
L 173.985254 50.441598 
L 175.605853 48.849755 
L 177.136419 47.28034 
L 178.847051 45.6419 
L 180.107516 44.82332 
L 183.708847 42.85912 
L 185.959679 41.713416 
L 188.660677 40.378686 
L 198.744404 33.865051 
L 201.175302 32.826244 
L 205.766999 31.340123 
L 207.567664 30.717289 
L 212.249394 28.97174 
L 214.140093 27.906119 
L 216.480958 26.657691 
L 218.101557 25.736243 
L 219.181956 25.215769 
L 221.612855 24.475942 
L 223.773653 24.077654 
L 227.465017 22.871487 
L 228.90555 22.451857 
L 233.947413 21.027573 
L 236.018178 20.125362 
L 237.45871 19.621653 
L 238.809209 19.351842 
L 241.150074 19.017554 
L 244.841439 17.956788 
L 246.011871 17.85963 
L 249.883302 17.418095 
L 250.963701 17.129513 
L 252.494267 16.678216 
L 254.114865 16.261695 
L 257.446097 15.647989 
L 259.696928 15.204963 
L 262.397926 14.974201 
L 264.198592 14.715137 
L 265.819191 14.760086 
L 266.89959 14.990753 
L 268.160056 15.515604 
L 269.150422 16.14216 
L 269.960721 16.83841 
L 273.021852 19.867463 
L 274.552418 21.350304 
L 279.684315 27.158134 
L 280.94478 28.215718 
L 282.745446 29.655478 
L 285.176344 31.80968 
L 286.346777 33.204989 
L 287.877342 35.382811 
L 292.919205 43.114643 
L 294.629838 45.202991 
L 296.61057 47.160301 
L 297.961069 48.243418 
L 300.932167 50.259694 
L 303.273032 51.873207 
L 305.793963 53.998945 
L 307.234496 55.602443 
L 311.736159 60.730179 
L 314.617224 63.500902 
L 315.787656 64.330339 
L 318.398621 65.971338 
L 325.961416 70.265155 
L 333.074044 75.542224 
L 334.60461 76.426531 
L 336.585342 77.327588 
L 338.926207 78.183245 
L 345.138503 80.435922 
L 348.379701 82.104376 
L 351.530865 83.615289 
L 353.511597 84.495618 
L 354.862096 85.150626 
L 356.302628 85.796664 
L 359.453793 86.860972 
L 360.894325 87.263145 
L 365.035856 88.358464 
L 368.18702 89.500631 
L 370.978052 90.830212 
L 374.219249 91.957736 
L 376.290015 92.37525 
L 377.730547 92.556002 
L 380.521578 92.930241 
L 382.592344 93.315633 
L 385.203308 94.165141 
L 386.643841 94.488172 
L 387.99434 94.631574 
L 388.984706 94.879573 
L 393.21627 96.148818 
L 394.476735 96.379477 
L 397.3578 96.680056 
L 405.190695 97.457256 
L 406.45116 97.24939 
L 406.631227 97.194625 
L 406.631227 97.194625 
" clip-path="url(#pc0cfea4cdc)" style="fill: none; stroke: #000000; stroke-linecap: round"/>
   </g>
   <g id="matplotlib.axis_1">
    <g id="xtick_1">
     <g id="line2d_2">
      <path d="M 68.016094 106.46 
L 68.016094 7.2 
" clip-path="url(#pc0cfea4cdc)" style="fill: none; stroke: #b0b0b0; stroke-width: 0.8; stroke-linecap: round"/>
     </g>
     <g id="line2d_3"/>
    </g>
    <g id="xtick_2">
     <g id="line2d_4">
      <path d="M 113.295349 106.46 
L 113.295349 7.2 
" clip-path="url(#pc0cfea4cdc)" style="fill: none; stroke: #b0b0b0; stroke-width: 0.8; stroke-linecap: round"/>
     </g>
     <g id="line2d_5"/>
    </g>
    <g id="xtick_3">
     <g id="line2d_6">
      <path d="M 158.574604 106.46 
L 158.574604 7.2 
" clip-path="url(#pc0cfea4cdc)" style="fill: none; stroke: #b0b0b0; stroke-width: 0.8; stroke-linecap: round"/>
     </g>
     <g id="line2d_7"/>
    </g>
    <g id="xtick_4">
     <g id="line2d_8">
      <path d="M 203.85386 106.46 
L 203.85386 7.2 
" clip-path="url(#pc0cfea4cdc)" style="fill: none; stroke: #b0b0b0; stroke-width: 0.8; stroke-linecap: round"/>
     </g>
     <g id="line2d_9"/>
    </g>
    <g id="xtick_5">
     <g id="line2d_10">
      <path d="M 249.133115 106.46 
L 249.133115 7.2 
" clip-path="url(#pc0cfea4cdc)" style="fill: none; stroke: #b0b0b0; stroke-width: 0.8; stroke-linecap: round"/>
     </g>
     <g id="line2d_11"/>
    </g>
    <g id="xtick_6">
     <g id="line2d_12">
      <path d="M 294.41237 106.46 
L 294.41237 7.2 
" clip-path="url(#pc0cfea4cdc)" style="fill: none; stroke: #b0b0b0; stroke-width: 0.8; stroke-linecap: round"/>
     </g>
     <g id="line2d_13"/>
    </g>
    <g id="xtick_7">
     <g id="line2d_14">
      <path d="M 339.691626 106.46 
L 339.691626 7.2 
" clip-path="url(#pc0cfea4cdc)" style="fill: none; stroke: #b0b0b0; stroke-width: 0.8; stroke-linecap: round"/>
     </g>
     <g id="line2d_15"/>
    </g>
    <g id="xtick_8">
     <g id="line2d_16">
      <path d="M 384.970881 106.46 
L 384.970881 7.2 
" clip-path="url(#pc0cfea4cdc)" style="fill: none; stroke: #b0b0b0; stroke-width: 0.8; stroke-linecap: round"/>
     </g>
     <g id="line2d_17"/>
    </g>
   </g>
   <g id="matplotlib.axis_2">
    <g id="ytick_1">
     <g id="line2d_18">
      <path d="M 50.991094 90.616432 
L 425.541094 90.616432 
" clip-path="url(#pc0cfea4cdc)" style="fill: none; stroke: #b0b0b0; stroke-width: 0.8; stroke-linecap: round"/>
     </g>
     <g id="line2d_19"/>
     <g id="text_1">
      <!-- −5 -->
      <g style="fill: #262626" transform="translate(34.223125 94.035729) scale(0.09 -0.09)">
       <defs>
        <path id="DejaVuSerif-2212" d="M 678 2259 
L 4684 2259 
L 4684 1753 
L 678 1753 
L 678 2259 
z
" transform="scale(0.015625)"/>
        <path id="DejaVuSerif-35" d="M 3219 4666 
L 3219 4153 
L 1081 4153 
L 1081 2816 
Q 1244 2928 1461 2984 
Q 1678 3041 1947 3041 
Q 2703 3041 3140 2622 
Q 3578 2203 3578 1478 
Q 3578 738 3136 323 
Q 2694 -91 1894 -91 
Q 1572 -91 1234 -12 
Q 897 66 544 225 
L 544 1131 
L 897 1131 
Q 925 688 1179 453 
Q 1434 219 1894 219 
Q 2388 219 2653 544 
Q 2919 869 2919 1478 
Q 2919 2084 2655 2407 
Q 2391 2731 1894 2731 
Q 1613 2731 1398 2631 
Q 1184 2531 1019 2322 
L 750 2322 
L 750 4666 
L 3219 4666 
z
" transform="scale(0.015625)"/>
       </defs>
       <use xlink:href="#DejaVuSerif-2212"/>
       <use xlink:href="#DejaVuSerif-35" x="83.789062"/>
      </g>
     </g>
    </g>
    <g id="ytick_2">
     <g id="line2d_20">
      <path d="M 50.991094 57.084755 
L 425.541094 57.084755 
" clip-path="url(#pc0cfea4cdc)" style="fill: none; stroke: #b0b0b0; stroke-width: 0.8; stroke-linecap: round"/>
     </g>
     <g id="line2d_21"/>
     <g id="text_2">
      <!-- 0 -->
      <g style="fill: #262626" transform="translate(41.764844 60.504052) scale(0.09 -0.09)">
       <defs>
        <path id="DejaVuSerif-30" d="M 2034 219 
Q 2513 219 2750 744 
Q 2988 1269 2988 2328 
Q 2988 3391 2750 3916 
Q 2513 4441 2034 4441 
Q 1556 4441 1318 3916 
Q 1081 3391 1081 2328 
Q 1081 1269 1318 744 
Q 1556 219 2034 219 
z
M 2034 -91 
Q 1275 -91 848 546 
Q 422 1184 422 2328 
Q 422 3475 848 4112 
Q 1275 4750 2034 4750 
Q 2797 4750 3222 4112 
Q 3647 3475 3647 2328 
Q 3647 1184 3222 546 
Q 2797 -91 2034 -91 
z
" transform="scale(0.015625)"/>
       </defs>
       <use xlink:href="#DejaVuSerif-30"/>
      </g>
     </g>
    </g>
    <g id="ytick_3">
     <g id="line2d_22">
      <path d="M 50.991094 23.553078 
L 425.541094 23.553078 
" clip-path="url(#pc0cfea4cdc)" style="fill: none; stroke: #b0b0b0; stroke-width: 0.8; stroke-linecap: round"/>
     </g>
     <g id="line2d_23"/>
     <g id="text_3">
      <!-- 5 -->
      <g style="fill: #262626" transform="translate(41.764844 26.972375) scale(0.09 -0.09)">
       <use xlink:href="#DejaVuSerif-35"/>
      </g>
     </g>
    </g>
    <g id="text_4">
     <!-- $\beta$ $[deg]$ -->
     <g style="fill: #262626" transform="translate(28.333125 73.165) rotate(-90) scale(0.09 -0.09)">
      <defs>
       <path id="DejaVuSans-Oblique-3b2" d="M 872 216 
L 572 -1331 
L -6 -1331 
L 928 3478 
Q 1206 4903 2538 4903 
Q 3888 4903 3659 3700 
Q 3503 2844 2894 2531 
Q 3713 2250 3553 1416 
Q 3272 -69 1759 -66 
Q 1097 -63 872 216 
z
M 1019 966 
Q 1259 422 1875 425 
Q 2775 425 2966 1406 
Q 3138 2288 1675 2219 
L 1778 2750 
Q 2909 2731 3106 3750 
Q 3241 4438 2509 4434 
Q 1691 4434 1503 3459 
L 1019 966 
z
" transform="scale(0.015625)"/>
       <path id="DejaVuSerif-20" transform="scale(0.015625)"/>
       <path id="DejaVuSans-5b" d="M 550 4863 
L 1875 4863 
L 1875 4416 
L 1125 4416 
L 1125 -397 
L 1875 -397 
L 1875 -844 
L 550 -844 
L 550 4863 
z
" transform="scale(0.015625)"/>
       <path id="DejaVuSans-Oblique-64" d="M 2675 525 
Q 2444 222 2128 65 
Q 1813 -91 1428 -91 
Q 903 -91 598 267 
Q 294 625 294 1247 
Q 294 1766 478 2236 
Q 663 2706 1013 3078 
Q 1244 3325 1534 3454 
Q 1825 3584 2144 3584 
Q 2481 3584 2739 3421 
Q 2997 3259 3138 2956 
L 3513 4863 
L 4091 4863 
L 3144 0 
L 2566 0 
L 2675 525 
z
M 891 1350 
Q 891 897 1095 644 
Q 1300 391 1663 391 
Q 1931 391 2161 520 
Q 2391 650 2566 903 
Q 2750 1166 2856 1509 
Q 2963 1853 2963 2188 
Q 2963 2622 2758 2865 
Q 2553 3109 2194 3109 
Q 1922 3109 1687 2981 
Q 1453 2853 1288 2613 
Q 1106 2353 998 2009 
Q 891 1666 891 1350 
z
" transform="scale(0.015625)"/>
       <path id="DejaVuSans-Oblique-65" d="M 3078 2063 
Q 3088 2113 3092 2166 
Q 3097 2219 3097 2272 
Q 3097 2653 2873 2875 
Q 2650 3097 2266 3097 
Q 1838 3097 1509 2826 
Q 1181 2556 1013 2059 
L 3078 2063 
z
M 3578 1613 
L 903 1613 
Q 884 1494 878 1425 
Q 872 1356 872 1306 
Q 872 872 1139 634 
Q 1406 397 1894 397 
Q 2269 397 2603 481 
Q 2938 566 3225 728 
L 3116 159 
Q 2806 34 2476 -28 
Q 2147 -91 1806 -91 
Q 1078 -91 686 257 
Q 294 606 294 1247 
Q 294 1794 489 2264 
Q 684 2734 1063 3103 
Q 1306 3334 1642 3459 
Q 1978 3584 2356 3584 
Q 2950 3584 3301 3228 
Q 3653 2872 3653 2272 
Q 3653 2128 3634 1964 
Q 3616 1800 3578 1613 
z
" transform="scale(0.015625)"/>
       <path id="DejaVuSans-Oblique-67" d="M 3816 3500 
L 3219 434 
Q 3047 -456 2561 -893 
Q 2075 -1331 1253 -1331 
Q 950 -1331 690 -1286 
Q 431 -1241 206 -1147 
L 313 -588 
Q 525 -725 762 -790 
Q 1000 -856 1269 -856 
Q 1816 -856 2167 -557 
Q 2519 -259 2631 300 
L 2681 563 
Q 2441 288 2122 144 
Q 1803 0 1434 0 
Q 903 0 598 351 
Q 294 703 294 1319 
Q 294 1803 478 2267 
Q 663 2731 997 3091 
Q 1219 3328 1514 3456 
Q 1809 3584 2131 3584 
Q 2484 3584 2746 3420 
Q 3009 3256 3138 2956 
L 3238 3500 
L 3816 3500 
z
M 2950 2216 
Q 2950 2641 2750 2872 
Q 2550 3103 2181 3103 
Q 1953 3103 1747 3012 
Q 1541 2922 1394 2759 
Q 1156 2491 1023 2127 
Q 891 1763 891 1375 
Q 891 944 1092 712 
Q 1294 481 1672 481 
Q 2219 481 2584 976 
Q 2950 1472 2950 2216 
z
" transform="scale(0.015625)"/>
       <path id="DejaVuSans-5d" d="M 1947 4863 
L 1947 -844 
L 622 -844 
L 622 -397 
L 1369 -397 
L 1369 4416 
L 622 4416 
L 622 4863 
L 1947 4863 
z
" transform="scale(0.015625)"/>
      </defs>
      <use xlink:href="#DejaVuSans-Oblique-3b2" transform="translate(0 0.390625)"/>
      <use xlink:href="#DejaVuSerif-20" transform="translate(63.818359 0.390625)"/>
      <use xlink:href="#DejaVuSans-5b" transform="translate(95.605469 0.390625)"/>
      <use xlink:href="#DejaVuSans-Oblique-64" transform="translate(134.619141 0.390625)"/>
      <use xlink:href="#DejaVuSans-Oblique-65" transform="translate(198.095703 0.390625)"/>
      <use xlink:href="#DejaVuSans-Oblique-67" transform="translate(259.619141 0.390625)"/>
      <use xlink:href="#DejaVuSans-5d" transform="translate(323.095703 0.390625)"/>
     </g>
    </g>
   </g>
   <g id="line2d_24">
    <path d="M 68.016094 57.084755 
L 69.646147 57.197601 
L 71.2762 57.549343 
L 72.725136 58.08006 
L 74.264631 58.880677 
L 78.883115 61.73395 
L 88.029525 67.709152 
L 96.904259 73.35599 
L 103.786705 77.42039 
L 110.125801 80.893062 
L 116.28378 84.018714 
L 122.713434 87.019831 
L 128.871413 89.641659 
L 131.588168 90.642105 
L 133.127663 90.935232 
L 134.576599 90.990976 
L 135.934977 90.831138 
L 137.383913 90.435304 
L 138.832849 89.800816 
L 140.281785 88.913117 
L 141.82128 87.699037 
L 144.175801 85.48729 
L 149.69987 79.991194 
L 163.917557 65.73896 
L 169.532184 60.506189 
L 174.512902 56.141133 
L 180.12753 51.54665 
L 185.379924 47.545198 
L 190.632317 43.80931 
L 195.884711 40.332603 
L 201.589897 36.811746 
L 207.204525 33.627853 
L 213.362503 30.426535 
L 219.158248 27.676322 
L 225.316227 24.975856 
L 232.198674 22.231999 
L 238.718886 19.876337 
L 246.325801 17.354229 
L 253.027131 15.347538 
L 260.99628 13.202189 
L 266.882583 11.807076 
L 268.422078 11.712849 
L 269.871014 11.847134 
L 271.31995 12.211067 
L 272.768886 12.808623 
L 274.217822 13.642618 
L 275.757317 14.791361 
L 277.38737 16.316166 
L 280.104126 19.283248 
L 286.624338 26.680128 
L 297.038567 38.39817 
L 301.928727 43.612496 
L 307.090562 48.825359 
L 312.342955 53.791457 
L 317.142557 58.051024 
L 322.576067 62.550861 
L 327.466227 66.315616 
L 332.628062 70.048795 
L 337.971014 73.640504 
L 344.038434 77.420558 
L 349.290828 80.429611 
L 354.814897 83.321744 
L 360.610642 86.108462 
L 367.40253 89.118594 
L 374.013301 91.797256 
L 380.714631 94.279297 
L 388.04987 96.744261 
L 395.294551 98.930835 
L 402.086439 100.782156 
L 406.704924 101.948182 
L 406.704924 101.948182 
" clip-path="url(#pc0cfea4cdc)" style="fill: none; stroke: #0000ff; stroke-linecap: round"/>
   </g>
   <g id="line2d_25">
    <path d="M 68.016094 57.084755 
L 69.646147 57.197516 
L 71.2762 57.548644 
L 72.725136 58.077907 
L 74.264631 58.875526 
L 79.154791 61.877994 
L 97.357051 73.254253 
L 102.971679 76.413223 
L 109.129658 79.598063 
L 115.106519 82.446359 
L 120.902264 84.957106 
L 127.150801 87.420099 
L 132.493753 89.308631 
L 134.123807 89.638536 
L 135.572743 89.713017 
L 137.021679 89.570651 
L 138.470615 89.192048 
L 139.919551 88.58258 
L 141.368487 87.738771 
L 142.907982 86.577276 
L 144.538035 85.059182 
L 149.69987 79.856006 
L 164.460908 64.815502 
L 169.80386 59.810191 
L 174.603461 55.603541 
L 179.49362 51.622309 
L 184.112104 48.130149 
L 189.092822 44.634495 
L 194.435775 41.172265 
L 199.325934 38.250616 
L 204.668886 35.311293 
L 209.830721 32.712115 
L 215.264232 30.224241 
L 221.150535 27.784543 
L 227.308514 25.466967 
L 233.919285 23.221269 
L 240.620615 21.178682 
L 247.955854 19.161415 
L 255.291094 17.398892 
L 263.984711 15.540184 
L 269.50878 14.533753 
L 271.048275 14.52114 
L 272.497211 14.728796 
L 273.946147 15.157883 
L 275.395083 15.820267 
L 276.934578 16.778943 
L 278.474072 17.998891 
L 280.104126 19.582025 
L 283.273674 23.142327 
L 302.562636 44.925058 
L 307.543354 49.992705 
L 312.614631 54.817624 
L 317.323674 58.958609 
L 322.032716 62.819753 
L 326.922876 66.52653 
L 332.175269 70.209443 
L 337.246546 73.474429 
L 342.498939 76.610901 
L 347.389099 79.266227 
L 352.913168 82.01822 
L 358.346679 84.462876 
L 363.870748 86.741533 
L 370.028727 89.039362 
L 376.548939 91.218896 
L 382.888035 93.124782 
L 390.766626 95.255936 
L 398.735775 97.159898 
L 406.252131 98.759763 
L 408.516094 99.207791 
L 408.516094 99.207791 
" clip-path="url(#pc0cfea4cdc)" style="fill: none; stroke: #008000; stroke-linecap: round"/>
   </g>
   <g id="line2d_26">
    <path d="M 68.016094 57.084755 
L 69.827264 57.193234 
L 71.457317 57.505386 
L 72.996812 58.024755 
L 74.536307 58.785928 
L 78.249205 60.942916 
L 84.135509 64.655031 
L 93.644152 70.632351 
L 99.168221 73.827375 
L 104.330057 76.557477 
L 109.491892 79.036541 
L 114.563168 81.22551 
L 119.815562 83.251701 
L 125.339631 85.143167 
L 130.320349 86.631238 
L 131.950402 86.883174 
L 133.489897 86.900366 
L 134.938833 86.696089 
L 136.387769 86.270587 
L 137.746147 85.658042 
L 139.195083 84.762586 
L 140.644019 83.613161 
L 142.274072 82.026389 
L 146.439764 77.549808 
L 161.200801 61.407531 
L 165.728727 56.937763 
L 169.984977 53.051165 
L 174.150668 49.548613 
L 178.31636 46.338879 
L 182.482051 43.411361 
L 186.738301 40.695944 
L 191.08511 38.1904 
L 195.431918 35.937646 
L 200.140961 33.746248 
L 204.940562 31.758899 
L 210.283514 29.796618 
L 215.535908 28.108289 
L 221.331652 26.484059 
L 227.670748 24.95699 
L 234.281519 23.594982 
L 241.5262 22.338663 
L 248.861439 21.298804 
L 257.555057 20.303989 
L 260.99628 20.047969 
L 262.626333 20.212342 
L 264.165828 20.588519 
L 265.705322 21.193235 
L 267.244817 22.043785 
L 268.784312 23.153623 
L 270.323807 24.540919 
L 271.95386 26.324111 
L 276.391227 31.676497 
L 287.711041 45.467149 
L 292.329525 50.671683 
L 296.495216 55.038574 
L 300.570349 58.994398 
L 304.554924 62.556678 
L 308.539498 65.823575 
L 312.614631 68.877224 
L 316.780322 71.719101 
L 320.946014 74.295055 
L 325.292822 76.718885 
L 329.820748 78.983683 
L 334.348674 81.001593 
L 339.41995 83.010162 
L 344.762902 84.884193 
L 350.286971 86.58352 
L 355.992158 88.104845 
L 362.150136 89.512537 
L 368.851466 90.8134 
L 376.096147 91.992475 
L 384.42753 93.117661 
L 391.309977 93.88966 
L 391.309977 93.88966 
" clip-path="url(#pc0cfea4cdc)" style="fill: none; stroke: #ff0000; stroke-linecap: round"/>
   </g>
   <g id="patch_3">
    <path d="M 50.991094 106.46 
L 50.991094 7.2 
" style="fill: none; stroke: #000000; stroke-linejoin: miter; stroke-linecap: square"/>
   </g>
   <g id="patch_4">
    <path d="M 50.991094 106.46 
L 425.541094 106.46 
" style="fill: none; stroke: #000000; stroke-linejoin: miter; stroke-linecap: square"/>
   </g>
   <g id="legend_1">
    <g id="line2d_27">
     <path d="M 179.7 53.579375 
L 188.7 53.579375 
L 197.7 53.579375 
" style="fill: none; stroke: #000000; stroke-linecap: round"/>
    </g>
    <g id="text_5">
     <!-- Experiment -->
     <g style="fill: #262626" transform="translate(204.9 56.729375) scale(0.09 -0.09)">
      <defs>
       <path id="DejaVuSerif-45" d="M 353 0 
L 353 331 
L 947 331 
L 947 4331 
L 353 4331 
L 353 4666 
L 4109 4666 
L 4109 3628 
L 3725 3628 
L 3725 4281 
L 1581 4281 
L 1581 2719 
L 3109 2719 
L 3109 3303 
L 3494 3303 
L 3494 1753 
L 3109 1753 
L 3109 2338 
L 1581 2338 
L 1581 384 
L 3775 384 
L 3775 1038 
L 4159 1038 
L 4159 0 
L 353 0 
z
" transform="scale(0.015625)"/>
       <path id="DejaVuSerif-78" d="M 1863 2028 
L 2559 2988 
L 2113 2988 
L 2113 3322 
L 3391 3322 
L 3391 2988 
L 2950 2988 
L 2059 1759 
L 3097 331 
L 3531 331 
L 3531 0 
L 1997 0 
L 1997 331 
L 2419 331 
L 1697 1325 
L 972 331 
L 1403 331 
L 1403 0 
L 141 0 
L 141 331 
L 581 331 
L 1497 1594 
L 488 2988 
L 78 2988 
L 78 3322 
L 1563 3322 
L 1563 2988 
L 1166 2988 
L 1863 2028 
z
" transform="scale(0.015625)"/>
       <path id="DejaVuSerif-70" d="M 1313 1825 
L 1313 1497 
Q 1313 897 1542 583 
Q 1772 269 2209 269 
Q 2650 269 2876 622 
Q 3103 975 3103 1663 
Q 3103 2353 2876 2703 
Q 2650 3053 2209 3053 
Q 1772 3053 1542 2737 
Q 1313 2422 1313 1825 
z
M 738 2988 
L 184 2988 
L 184 3322 
L 1313 3322 
L 1313 2803 
Q 1481 3116 1742 3264 
Q 2003 3413 2388 3413 
Q 3000 3413 3387 2928 
Q 3775 2444 3775 1663 
Q 3775 881 3387 395 
Q 3000 -91 2388 -91 
Q 2003 -91 1742 57 
Q 1481 206 1313 519 
L 1313 -997 
L 1856 -997 
L 1856 -1331 
L 184 -1331 
L 184 -997 
L 738 -997 
L 738 2988 
z
" transform="scale(0.015625)"/>
       <path id="DejaVuSerif-65" d="M 3469 1600 
L 991 1600 
L 991 1575 
Q 991 903 1244 561 
Q 1497 219 1991 219 
Q 2369 219 2611 417 
Q 2853 616 2950 1006 
L 3413 1006 
Q 3275 459 2904 184 
Q 2534 -91 1931 -91 
Q 1203 -91 761 389 
Q 319 869 319 1663 
Q 319 2450 753 2931 
Q 1188 3413 1894 3413 
Q 2647 3413 3050 2948 
Q 3453 2484 3469 1600 
z
M 2791 1931 
Q 2772 2513 2545 2808 
Q 2319 3103 1894 3103 
Q 1497 3103 1269 2806 
Q 1041 2509 991 1931 
L 2791 1931 
z
" transform="scale(0.015625)"/>
       <path id="DejaVuSerif-72" d="M 3059 3328 
L 3059 2497 
L 2728 2497 
Q 2713 2744 2591 2866 
Q 2469 2988 2234 2988 
Q 1809 2988 1582 2694 
Q 1356 2400 1356 1850 
L 1356 331 
L 2022 331 
L 2022 0 
L 263 0 
L 263 331 
L 781 331 
L 781 2994 
L 231 2994 
L 231 3322 
L 1356 3322 
L 1356 2731 
Q 1525 3078 1790 3245 
Q 2056 3413 2438 3413 
Q 2578 3413 2733 3391 
Q 2888 3369 3059 3328 
z
" transform="scale(0.015625)"/>
       <path id="DejaVuSerif-69" d="M 622 4353 
Q 622 4497 726 4603 
Q 831 4709 978 4709 
Q 1122 4709 1226 4603 
Q 1331 4497 1331 4353 
Q 1331 4206 1228 4103 
Q 1125 4000 978 4000 
Q 831 4000 726 4103 
Q 622 4206 622 4353 
z
M 1356 331 
L 1900 331 
L 1900 0 
L 231 0 
L 231 331 
L 781 331 
L 781 2988 
L 231 2988 
L 231 3322 
L 1356 3322 
L 1356 331 
z
" transform="scale(0.015625)"/>
       <path id="DejaVuSerif-6d" d="M 3316 2675 
Q 3481 3041 3739 3227 
Q 3997 3413 4341 3413 
Q 4863 3413 5119 3089 
Q 5375 2766 5375 2113 
L 5375 331 
L 5894 331 
L 5894 0 
L 4300 0 
L 4300 331 
L 4800 331 
L 4800 2047 
Q 4800 2556 4650 2772 
Q 4500 2988 4153 2988 
Q 3769 2988 3567 2697 
Q 3366 2406 3366 1850 
L 3366 331 
L 3866 331 
L 3866 0 
L 2291 0 
L 2291 331 
L 2791 331 
L 2791 2069 
Q 2791 2566 2641 2777 
Q 2491 2988 2144 2988 
Q 1759 2988 1557 2697 
Q 1356 2406 1356 1850 
L 1356 331 
L 1856 331 
L 1856 0 
L 263 0 
L 263 331 
L 781 331 
L 781 2994 
L 231 2994 
L 231 3322 
L 1356 3322 
L 1356 2731 
Q 1516 3063 1762 3238 
Q 2009 3413 2322 3413 
Q 2709 3413 2968 3220 
Q 3228 3028 3316 2675 
z
" transform="scale(0.015625)"/>
       <path id="DejaVuSerif-6e" d="M 263 0 
L 263 331 
L 781 331 
L 781 2988 
L 231 2988 
L 231 3322 
L 1356 3322 
L 1356 2731 
Q 1516 3069 1770 3241 
Q 2025 3413 2363 3413 
Q 2913 3413 3172 3097 
Q 3431 2781 3431 2113 
L 3431 331 
L 3944 331 
L 3944 0 
L 2356 0 
L 2356 331 
L 2853 331 
L 2853 1931 
Q 2853 2541 2703 2767 
Q 2553 2994 2175 2994 
Q 1775 2994 1565 2701 
Q 1356 2409 1356 1850 
L 1356 331 
L 1856 331 
L 1856 0 
L 263 0 
z
" transform="scale(0.015625)"/>
       <path id="DejaVuSerif-74" d="M 691 2988 
L 184 2988 
L 184 3322 
L 691 3322 
L 691 4353 
L 1269 4353 
L 1269 3322 
L 2350 3322 
L 2350 2988 
L 1269 2988 
L 1269 878 
Q 1269 456 1350 337 
Q 1431 219 1650 219 
Q 1875 219 1978 351 
Q 2081 484 2088 781 
L 2522 781 
Q 2497 328 2275 118 
Q 2053 -91 1600 -91 
Q 1103 -91 897 129 
Q 691 350 691 878 
L 691 2988 
z
" transform="scale(0.015625)"/>
      </defs>
      <use xlink:href="#DejaVuSerif-45"/>
      <use xlink:href="#DejaVuSerif-78" x="72.998047"/>
      <use xlink:href="#DejaVuSerif-70" x="129.394531"/>
      <use xlink:href="#DejaVuSerif-65" x="193.408203"/>
      <use xlink:href="#DejaVuSerif-72" x="252.587891"/>
      <use xlink:href="#DejaVuSerif-69" x="300.390625"/>
      <use xlink:href="#DejaVuSerif-6d" x="332.373047"/>
      <use xlink:href="#DejaVuSerif-65" x="427.197266"/>
      <use xlink:href="#DejaVuSerif-6e" x="486.376953"/>
      <use xlink:href="#DejaVuSerif-74" x="550.78125"/>
     </g>
    </g>
    <g id="line2d_28">
     <path d="M 179.7 66.789688 
L 188.7 66.789688 
L 197.7 66.789688 
" style="fill: none; stroke: #0000ff; stroke-linecap: round"/>
    </g>
    <g id="text_6">
     <!-- Reference model -->
     <g style="fill: #262626" transform="translate(204.9 69.939688) scale(0.09 -0.09)">
      <defs>
       <path id="DejaVuSerif-52" d="M 3066 2316 
Q 3284 2256 3442 2114 
Q 3600 1972 3725 1716 
L 4403 331 
L 4972 331 
L 4972 0 
L 3872 0 
L 3144 1484 
Q 2934 1916 2759 2042 
Q 2584 2169 2278 2169 
L 1581 2169 
L 1581 331 
L 2241 331 
L 2241 0 
L 353 0 
L 353 331 
L 947 331 
L 947 4331 
L 353 4331 
L 353 4666 
L 2719 4666 
Q 3400 4666 3770 4341 
Q 4141 4016 4141 3419 
Q 4141 2938 3870 2661 
Q 3600 2384 3066 2316 
z
M 1581 2503 
L 2503 2503 
Q 2975 2503 3200 2726 
Q 3425 2950 3425 3419 
Q 3425 3888 3200 4109 
Q 2975 4331 2503 4331 
L 1581 4331 
L 1581 2503 
z
" transform="scale(0.015625)"/>
       <path id="DejaVuSerif-66" d="M 2753 4078 
L 2450 4078 
Q 2447 4313 2317 4434 
Q 2188 4556 1941 4556 
Q 1619 4556 1487 4379 
Q 1356 4203 1356 3750 
L 1356 3322 
L 2284 3322 
L 2284 2988 
L 1356 2988 
L 1356 331 
L 2094 331 
L 2094 0 
L 231 0 
L 231 331 
L 781 331 
L 781 2988 
L 231 2988 
L 231 3322 
L 781 3322 
L 781 3738 
Q 781 4294 1070 4578 
Q 1359 4863 1919 4863 
Q 2128 4863 2337 4825 
Q 2547 4788 2753 4709 
L 2753 4078 
z
" transform="scale(0.015625)"/>
       <path id="DejaVuSerif-63" d="M 3291 997 
Q 3169 466 2822 187 
Q 2475 -91 1925 -91 
Q 1200 -91 759 389 
Q 319 869 319 1663 
Q 319 2459 759 2936 
Q 1200 3413 1925 3413 
Q 2241 3413 2553 3339 
Q 2866 3266 3181 3116 
L 3181 2266 
L 2847 2266 
Q 2781 2703 2561 2903 
Q 2341 3103 1931 3103 
Q 1466 3103 1228 2742 
Q 991 2381 991 1663 
Q 991 944 1227 581 
Q 1463 219 1931 219 
Q 2303 219 2525 412 
Q 2747 606 2828 997 
L 3291 997 
z
" transform="scale(0.015625)"/>
       <path id="DejaVuSerif-6f" d="M 1925 219 
Q 2388 219 2623 584 
Q 2859 950 2859 1663 
Q 2859 2375 2623 2739 
Q 2388 3103 1925 3103 
Q 1463 3103 1227 2739 
Q 991 2375 991 1663 
Q 991 950 1228 584 
Q 1466 219 1925 219 
z
M 1925 -91 
Q 1200 -91 759 389 
Q 319 869 319 1663 
Q 319 2456 758 2934 
Q 1197 3413 1925 3413 
Q 2653 3413 3092 2934 
Q 3531 2456 3531 1663 
Q 3531 869 3092 389 
Q 2653 -91 1925 -91 
z
" transform="scale(0.015625)"/>
       <path id="DejaVuSerif-64" d="M 3359 331 
L 3909 331 
L 3909 0 
L 2784 0 
L 2784 519 
Q 2616 206 2355 57 
Q 2094 -91 1709 -91 
Q 1097 -91 708 395 
Q 319 881 319 1663 
Q 319 2444 706 2928 
Q 1094 3413 1709 3413 
Q 2094 3413 2355 3264 
Q 2616 3116 2784 2803 
L 2784 4531 
L 2241 4531 
L 2241 4863 
L 3359 4863 
L 3359 331 
z
M 2784 1497 
L 2784 1825 
Q 2784 2422 2554 2737 
Q 2325 3053 1888 3053 
Q 1444 3053 1217 2703 
Q 991 2353 991 1663 
Q 991 975 1217 622 
Q 1444 269 1888 269 
Q 2325 269 2554 583 
Q 2784 897 2784 1497 
z
" transform="scale(0.015625)"/>
       <path id="DejaVuSerif-6c" d="M 1313 331 
L 1856 331 
L 1856 0 
L 184 0 
L 184 331 
L 738 331 
L 738 4531 
L 184 4531 
L 184 4863 
L 1313 4863 
L 1313 331 
z
" transform="scale(0.015625)"/>
      </defs>
      <use xlink:href="#DejaVuSerif-52"/>
      <use xlink:href="#DejaVuSerif-65" x="75.292969"/>
      <use xlink:href="#DejaVuSerif-66" x="134.472656"/>
      <use xlink:href="#DejaVuSerif-65" x="171.484375"/>
      <use xlink:href="#DejaVuSerif-72" x="230.664062"/>
      <use xlink:href="#DejaVuSerif-65" x="278.466797"/>
      <use xlink:href="#DejaVuSerif-6e" x="337.646484"/>
      <use xlink:href="#DejaVuSerif-63" x="402.050781"/>
      <use xlink:href="#DejaVuSerif-65" x="458.056641"/>
      <use xlink:href="#DejaVuSerif-20" x="517.236328"/>
      <use xlink:href="#DejaVuSerif-6d" x="549.023438"/>
      <use xlink:href="#DejaVuSerif-6f" x="643.847656"/>
      <use xlink:href="#DejaVuSerif-64" x="704.052734"/>
      <use xlink:href="#DejaVuSerif-65" x="768.066406"/>
      <use xlink:href="#DejaVuSerif-6c" x="827.246094"/>
     </g>
    </g>
    <g id="line2d_29">
     <path d="M 179.7 80 
L 188.7 80 
L 197.7 80 
" style="fill: none; stroke: #008000; stroke-linecap: round"/>
    </g>
    <g id="text_7">
     <!-- Physics informed ID -->
     <g style="fill: #262626" transform="translate(204.9 83.15) scale(0.09 -0.09)">
      <defs>
       <path id="DejaVuSerif-50" d="M 1581 2375 
L 2406 2375 
Q 2872 2375 3115 2626 
Q 3359 2878 3359 3353 
Q 3359 3831 3115 4081 
Q 2872 4331 2406 4331 
L 1581 4331 
L 1581 2375 
z
M 353 0 
L 353 331 
L 947 331 
L 947 4331 
L 353 4331 
L 353 4666 
L 2559 4666 
Q 3259 4666 3668 4311 
Q 4078 3956 4078 3353 
Q 4078 2753 3668 2397 
Q 3259 2041 2559 2041 
L 1581 2041 
L 1581 331 
L 2303 331 
L 2303 0 
L 353 0 
z
" transform="scale(0.015625)"/>
       <path id="DejaVuSerif-68" d="M 263 0 
L 263 331 
L 781 331 
L 781 4531 
L 231 4531 
L 231 4863 
L 1356 4863 
L 1356 2731 
Q 1516 3069 1770 3241 
Q 2025 3413 2363 3413 
Q 2913 3413 3172 3097 
Q 3431 2781 3431 2113 
L 3431 331 
L 3944 331 
L 3944 0 
L 2356 0 
L 2356 331 
L 2853 331 
L 2853 1931 
Q 2853 2541 2704 2764 
Q 2556 2988 2175 2988 
Q 1775 2988 1565 2697 
Q 1356 2406 1356 1850 
L 1356 331 
L 1856 331 
L 1856 0 
L 263 0 
z
" transform="scale(0.015625)"/>
       <path id="DejaVuSerif-79" d="M 1381 -609 
L 1600 -56 
L 359 2988 
L -19 2988 
L -19 3322 
L 1509 3322 
L 1509 2988 
L 978 2988 
L 1913 703 
L 2847 2988 
L 2350 2988 
L 2350 3322 
L 3597 3322 
L 3597 2988 
L 3225 2988 
L 1703 -750 
Q 1547 -1138 1356 -1280 
Q 1166 -1422 819 -1422 
Q 672 -1422 517 -1397 
Q 363 -1372 206 -1325 
L 206 -691 
L 500 -691 
Q 519 -903 608 -995 
Q 697 -1088 884 -1088 
Q 1056 -1088 1161 -992 
Q 1266 -897 1381 -609 
z
" transform="scale(0.015625)"/>
       <path id="DejaVuSerif-73" d="M 359 184 
L 359 959 
L 691 959 
Q 703 588 923 403 
Q 1144 219 1575 219 
Q 1963 219 2166 364 
Q 2369 509 2369 788 
Q 2369 1006 2220 1140 
Q 2072 1275 1594 1428 
L 1178 1569 
Q 750 1706 558 1912 
Q 366 2119 366 2438 
Q 366 2894 700 3153 
Q 1034 3413 1625 3413 
Q 1888 3413 2178 3344 
Q 2469 3275 2778 3144 
L 2778 2419 
L 2447 2419 
Q 2434 2741 2221 2922 
Q 2009 3103 1644 3103 
Q 1281 3103 1095 2975 
Q 909 2847 909 2591 
Q 909 2381 1050 2254 
Q 1191 2128 1613 1997 
L 2069 1856 
Q 2541 1709 2748 1489 
Q 2956 1269 2956 922 
Q 2956 450 2595 179 
Q 2234 -91 1600 -91 
Q 1278 -91 972 -22 
Q 666 47 359 184 
z
" transform="scale(0.015625)"/>
       <path id="DejaVuSerif-49" d="M 1581 331 
L 2175 331 
L 2175 0 
L 353 0 
L 353 331 
L 947 331 
L 947 4331 
L 353 4331 
L 353 4666 
L 2175 4666 
L 2175 4331 
L 1581 4331 
L 1581 331 
z
" transform="scale(0.015625)"/>
       <path id="DejaVuSerif-44" d="M 1581 331 
L 2163 331 
Q 3072 331 3558 850 
Q 4044 1369 4044 2338 
Q 4044 3306 3559 3818 
Q 3075 4331 2163 4331 
L 1581 4331 
L 1581 331 
z
M 353 0 
L 353 331 
L 947 331 
L 947 4331 
L 353 4331 
L 353 4666 
L 2209 4666 
Q 3416 4666 4089 4050 
Q 4763 3434 4763 2338 
Q 4763 1238 4088 619 
Q 3413 0 2209 0 
L 353 0 
z
" transform="scale(0.015625)"/>
      </defs>
      <use xlink:href="#DejaVuSerif-50"/>
      <use xlink:href="#DejaVuSerif-68" x="67.285156"/>
      <use xlink:href="#DejaVuSerif-79" x="131.689453"/>
      <use xlink:href="#DejaVuSerif-73" x="188.183594"/>
      <use xlink:href="#DejaVuSerif-69" x="239.501953"/>
      <use xlink:href="#DejaVuSerif-63" x="271.484375"/>
      <use xlink:href="#DejaVuSerif-73" x="327.490234"/>
      <use xlink:href="#DejaVuSerif-20" x="378.808594"/>
      <use xlink:href="#DejaVuSerif-69" x="410.595703"/>
      <use xlink:href="#DejaVuSerif-6e" x="442.578125"/>
      <use xlink:href="#DejaVuSerif-66" x="506.982422"/>
      <use xlink:href="#DejaVuSerif-6f" x="543.994141"/>
      <use xlink:href="#DejaVuSerif-72" x="604.199219"/>
      <use xlink:href="#DejaVuSerif-6d" x="652.001953"/>
      <use xlink:href="#DejaVuSerif-65" x="746.826172"/>
      <use xlink:href="#DejaVuSerif-64" x="806.005859"/>
      <use xlink:href="#DejaVuSerif-20" x="870.019531"/>
      <use xlink:href="#DejaVuSerif-49" x="901.806641"/>
      <use xlink:href="#DejaVuSerif-44" x="941.308594"/>
     </g>
    </g>
    <g id="line2d_30">
     <path d="M 179.7 93.338281 
L 188.7 93.338281 
L 197.7 93.338281 
" style="fill: none; stroke: #ff0000; stroke-linecap: round"/>
    </g>
    <g id="text_8">
     <!-- Abkowitz ID -->
     <g style="fill: #262626" transform="translate(204.9 96.488281) scale(0.09 -0.09)">
      <defs>
       <path id="DejaVuSerif-41" d="M 1281 1691 
L 2994 1691 
L 2138 3909 
L 1281 1691 
z
M -38 0 
L -38 331 
L 372 331 
L 2034 4666 
L 2559 4666 
L 4225 331 
L 4684 331 
L 4684 0 
L 2988 0 
L 2988 331 
L 3506 331 
L 3116 1356 
L 1153 1356 
L 763 331 
L 1275 331 
L 1275 0 
L -38 0 
z
" transform="scale(0.015625)"/>
       <path id="DejaVuSerif-62" d="M 738 331 
L 738 4531 
L 184 4531 
L 184 4863 
L 1313 4863 
L 1313 2803 
Q 1481 3116 1742 3264 
Q 2003 3413 2388 3413 
Q 3000 3413 3387 2928 
Q 3775 2444 3775 1663 
Q 3775 881 3387 395 
Q 3000 -91 2388 -91 
Q 2003 -91 1742 57 
Q 1481 206 1313 519 
L 1313 0 
L 184 0 
L 184 331 
L 738 331 
z
M 1313 1497 
Q 1313 897 1542 583 
Q 1772 269 2209 269 
Q 2650 269 2876 622 
Q 3103 975 3103 1663 
Q 3103 2353 2876 2703 
Q 2650 3053 2209 3053 
Q 1772 3053 1542 2737 
Q 1313 2422 1313 1825 
L 1313 1497 
z
" transform="scale(0.015625)"/>
       <path id="DejaVuSerif-6b" d="M 1831 0 
L 219 0 
L 219 331 
L 738 331 
L 738 4531 
L 184 4531 
L 184 4863 
L 1313 4863 
L 1313 1697 
L 2713 2988 
L 2234 2988 
L 2234 3322 
L 3738 3322 
L 3738 2988 
L 3169 2988 
L 2181 2075 
L 3444 331 
L 3922 331 
L 3922 0 
L 2284 0 
L 2284 331 
L 2759 331 
L 1766 1697 
L 1313 1275 
L 1313 331 
L 1831 331 
L 1831 0 
z
" transform="scale(0.015625)"/>
       <path id="DejaVuSerif-77" d="M 3072 3322 
L 3922 728 
L 4672 2988 
L 4191 2988 
L 4191 3322 
L 5394 3322 
L 5394 2988 
L 5025 2988 
L 4038 0 
L 3559 0 
L 2741 2484 
L 1919 0 
L 1459 0 
L 475 2988 
L 103 2988 
L 103 3322 
L 1606 3322 
L 1606 2988 
L 1069 2988 
L 1813 728 
L 2669 3322 
L 3072 3322 
z
" transform="scale(0.015625)"/>
       <path id="DejaVuSerif-7a" d="M 256 0 
L 256 269 
L 2338 2988 
L 691 2988 
L 691 2413 
L 359 2413 
L 359 3322 
L 3078 3322 
L 3078 3053 
L 997 331 
L 2803 331 
L 2803 934 
L 3138 934 
L 3138 0 
L 256 0 
z
" transform="scale(0.015625)"/>
      </defs>
      <use xlink:href="#DejaVuSerif-41"/>
      <use xlink:href="#DejaVuSerif-62" x="72.216797"/>
      <use xlink:href="#DejaVuSerif-6b" x="136.230469"/>
      <use xlink:href="#DejaVuSerif-6f" x="196.826172"/>
      <use xlink:href="#DejaVuSerif-77" x="257.03125"/>
      <use xlink:href="#DejaVuSerif-69" x="342.626953"/>
      <use xlink:href="#DejaVuSerif-74" x="374.609375"/>
      <use xlink:href="#DejaVuSerif-7a" x="414.794922"/>
      <use xlink:href="#DejaVuSerif-20" x="467.480469"/>
      <use xlink:href="#DejaVuSerif-49" x="499.267578"/>
      <use xlink:href="#DejaVuSerif-44" x="538.769531"/>
     </g>
    </g>
   </g>
  </g>
  <g id="axes_2">
   <g id="patch_5">
    <path d="M 50.991094 205.72 
L 425.541094 205.72 
L 425.541094 106.46 
L 50.991094 106.46 
z
" style="fill: #ffffff"/>
   </g>
   <g id="line2d_31">
    <path d="M 68.016094 156.612899 
L 71.347325 156.761292 
L 73.68819 157.097481 
L 76.119088 157.671844 
L 79.000153 158.577208 
L 82.78155 160.011562 
L 85.392515 161.253136 
L 90.164278 163.874016 
L 94.395842 166.513398 
L 101.508471 171.238963 
L 106.370267 174.775467 
L 114.743362 181.200212 
L 120.865624 186.257136 
L 133.830415 196.992398 
L 136.081247 198.440269 
L 138.152012 199.517787 
L 139.862644 200.199838 
L 141.843376 200.741449 
L 143.914141 201.055182 
L 146.164973 201.206137 
L 149.316138 201.017457 
L 151.476936 200.680112 
L 154.538067 199.970716 
L 158.499531 198.755932 
L 162.731095 197.131255 
L 165.432093 195.847408 
L 169.663657 193.691531 
L 175.335753 190.403199 
L 178.666984 188.287726 
L 183.348714 185.178914 
L 189.110844 181.158518 
L 200.365003 173.022836 
L 209.188263 166.413748 
L 217.92149 159.403007 
L 226.834784 151.981882 
L 234.847745 145.111628 
L 252.134134 130.325313 
L 255.285298 127.650941 
L 265.098925 119.041602 
L 267.709889 116.932539 
L 270.771021 114.829148 
L 273.381986 113.288197 
L 275.092618 112.536967 
L 277.07335 111.923355 
L 279.054082 111.548261 
L 281.48498 111.330875 
L 283.825845 111.368849 
L 286.076677 111.59482 
L 289.317875 112.212482 
L 291.568706 112.77952 
L 294.989971 113.797952 
L 302.192632 116.55265 
L 307.414562 119.160467 
L 312.726525 122.20625 
L 319.659087 126.521775 
L 327.041815 131.64705 
L 348.739834 147.489046 
L 364.675723 160.21874 
L 373.859116 167.844926 
L 401.139197 190.754288 
L 406.631227 195.327231 
L 406.631227 195.327231 
" clip-path="url(#p2a0af5eb1a)" style="fill: none; stroke: #000000; stroke-linecap: round"/>
   </g>
   <g id="line2d_32">
    <path d="M 68.016094 157.142187 
L 68.73636 161.642216 
L 70.086859 169.558804 
L 73.95829 192.159477 
L 74.138356 192.114798 
L 74.588523 191.980761 
L 81.791184 191.979364 
L 128.068286 191.979364 
L 128.248352 191.074611 
L 128.878585 187.18194 
L 131.48955 171.764838 
L 135.991214 145.232399 
L 139.052345 127.138736 
L 140.312811 120.466183 
L 140.672944 120.586258 
L 142.113476 120.615579 
L 263.838459 120.612786 
L 264.018525 121.552445 
L 264.468692 124.290439 
L 265.369024 129.639372 
L 276.173017 192.174836 
L 276.713217 192.0031 
L 278.423849 191.975176 
L 403.029896 191.977968 
L 403.209963 191.088574 
L 403.660129 188.276579 
L 404.560462 182.910891 
L 406.631227 171.237065 
L 406.631227 171.237065 
" clip-path="url(#p2a0af5eb1a)" style="fill: none; stroke-dasharray: 5.55,2.4; stroke-dashoffset: 0; stroke: #808080; stroke-width: 1.5"/>
   </g>
   <g id="matplotlib.axis_3">
    <g id="xtick_9">
     <g id="line2d_33">
      <path d="M 68.016094 205.72 
L 68.016094 106.46 
" clip-path="url(#p2a0af5eb1a)" style="fill: none; stroke: #b0b0b0; stroke-width: 0.8; stroke-linecap: round"/>
     </g>
     <g id="line2d_34"/>
    </g>
    <g id="xtick_10">
     <g id="line2d_35">
      <path d="M 113.295349 205.72 
L 113.295349 106.46 
" clip-path="url(#p2a0af5eb1a)" style="fill: none; stroke: #b0b0b0; stroke-width: 0.8; stroke-linecap: round"/>
     </g>
     <g id="line2d_36"/>
    </g>
    <g id="xtick_11">
     <g id="line2d_37">
      <path d="M 158.574604 205.72 
L 158.574604 106.46 
" clip-path="url(#p2a0af5eb1a)" style="fill: none; stroke: #b0b0b0; stroke-width: 0.8; stroke-linecap: round"/>
     </g>
     <g id="line2d_38"/>
    </g>
    <g id="xtick_12">
     <g id="line2d_39">
      <path d="M 203.85386 205.72 
L 203.85386 106.46 
" clip-path="url(#p2a0af5eb1a)" style="fill: none; stroke: #b0b0b0; stroke-width: 0.8; stroke-linecap: round"/>
     </g>
     <g id="line2d_40"/>
    </g>
    <g id="xtick_13">
     <g id="line2d_41">
      <path d="M 249.133115 205.72 
L 249.133115 106.46 
" clip-path="url(#p2a0af5eb1a)" style="fill: none; stroke: #b0b0b0; stroke-width: 0.8; stroke-linecap: round"/>
     </g>
     <g id="line2d_42"/>
    </g>
    <g id="xtick_14">
     <g id="line2d_43">
      <path d="M 294.41237 205.72 
L 294.41237 106.46 
" clip-path="url(#p2a0af5eb1a)" style="fill: none; stroke: #b0b0b0; stroke-width: 0.8; stroke-linecap: round"/>
     </g>
     <g id="line2d_44"/>
    </g>
    <g id="xtick_15">
     <g id="line2d_45">
      <path d="M 339.691626 205.72 
L 339.691626 106.46 
" clip-path="url(#p2a0af5eb1a)" style="fill: none; stroke: #b0b0b0; stroke-width: 0.8; stroke-linecap: round"/>
     </g>
     <g id="line2d_46"/>
    </g>
    <g id="xtick_16">
     <g id="line2d_47">
      <path d="M 384.970881 205.72 
L 384.970881 106.46 
" clip-path="url(#p2a0af5eb1a)" style="fill: none; stroke: #b0b0b0; stroke-width: 0.8; stroke-linecap: round"/>
     </g>
     <g id="line2d_48"/>
    </g>
   </g>
   <g id="matplotlib.axis_4">
    <g id="ytick_4">
     <g id="line2d_49">
      <path d="M 50.991094 191.977379 
L 425.541094 191.977379 
" clip-path="url(#p2a0af5eb1a)" style="fill: none; stroke: #b0b0b0; stroke-width: 0.8; stroke-linecap: round"/>
     </g>
     <g id="line2d_50"/>
     <g id="text_9">
      <!-- −10 -->
      <g style="fill: #262626" transform="translate(28.496875 195.396676) scale(0.09 -0.09)">
       <defs>
        <path id="DejaVuSerif-31" d="M 909 0 
L 909 331 
L 1722 331 
L 1722 4213 
L 781 3603 
L 781 4013 
L 1919 4750 
L 2350 4750 
L 2350 331 
L 3163 331 
L 3163 0 
L 909 0 
z
" transform="scale(0.015625)"/>
       </defs>
       <use xlink:href="#DejaVuSerif-2212"/>
       <use xlink:href="#DejaVuSerif-31" x="83.789062"/>
       <use xlink:href="#DejaVuSerif-30" x="147.412109"/>
      </g>
     </g>
    </g>
    <g id="ytick_5">
     <g id="line2d_51">
      <path d="M 50.991094 156.296075 
L 425.541094 156.296075 
" clip-path="url(#p2a0af5eb1a)" style="fill: none; stroke: #b0b0b0; stroke-width: 0.8; stroke-linecap: round"/>
     </g>
     <g id="line2d_52"/>
     <g id="text_10">
      <!-- 0 -->
      <g style="fill: #262626" transform="translate(41.764844 159.715372) scale(0.09 -0.09)">
       <use xlink:href="#DejaVuSerif-30"/>
      </g>
     </g>
    </g>
    <g id="ytick_6">
     <g id="line2d_53">
      <path d="M 50.991094 120.614771 
L 425.541094 120.614771 
" clip-path="url(#p2a0af5eb1a)" style="fill: none; stroke: #b0b0b0; stroke-width: 0.8; stroke-linecap: round"/>
     </g>
     <g id="line2d_54"/>
     <g id="text_11">
      <!-- 10 -->
      <g style="fill: #262626" transform="translate(36.038594 124.034068) scale(0.09 -0.09)">
       <use xlink:href="#DejaVuSerif-31"/>
       <use xlink:href="#DejaVuSerif-30" x="63.623047"/>
      </g>
     </g>
    </g>
    <g id="text_12">
     <!-- $\psi$ $[deg]$ -->
     <g style="fill: #262626" transform="translate(22.606875 172.515) rotate(-90) scale(0.09 -0.09)">
      <defs>
       <path id="DejaVuSans-Oblique-3c8" d="M 1591 -78 
Q 891 38 616 341 
Q 278 713 425 1472 
L 819 3500 
L 1400 3500 
L 1009 1494 
Q 900 922 1119 684 
Q 1313 478 1691 434 
L 2284 3500 
L 2856 3500 
L 2263 438 
Q 2681 481 2928 688 
Q 3247 950 3353 1497 
L 3741 3500 
L 4322 3500 
L 3928 1475 
Q 3775 688 3300 344 
Q 2872 34 2163 -75 
L 1919 -1331 
L 1347 -1331 
L 1591 -78 
z
" transform="scale(0.015625)"/>
      </defs>
      <use xlink:href="#DejaVuSans-Oblique-3c8" transform="translate(0 0.015625)"/>
      <use xlink:href="#DejaVuSerif-20" transform="translate(65.966797 0.015625)"/>
      <use xlink:href="#DejaVuSans-5b" transform="translate(97.753906 0.015625)"/>
      <use xlink:href="#DejaVuSans-Oblique-64" transform="translate(136.767578 0.015625)"/>
      <use xlink:href="#DejaVuSans-Oblique-65" transform="translate(200.244141 0.015625)"/>
      <use xlink:href="#DejaVuSans-Oblique-67" transform="translate(261.767578 0.015625)"/>
      <use xlink:href="#DejaVuSans-5d" transform="translate(325.244141 0.015625)"/>
     </g>
    </g>
   </g>
   <g id="line2d_55">
    <path d="M 68.016094 156.296075 
L 72.272344 156.405373 
L 74.626865 156.691814 
L 76.981386 157.213933 
L 79.607583 158.033896 
L 82.505455 159.174054 
L 85.765562 160.694925 
L 89.569019 162.721317 
L 93.915828 165.294957 
L 99.077663 168.61714 
L 105.054525 172.72998 
L 112.02753 177.810745 
L 119.996679 183.900613 
L 129.324205 191.316898 
L 135.301067 196.009735 
L 137.836705 197.689447 
L 140.01011 198.862857 
L 141.911838 199.642222 
L 143.723009 200.145907 
L 145.624737 200.444959 
L 147.707583 200.545197 
L 149.971546 200.428095 
L 152.507184 200.064172 
L 155.223939 199.44695 
L 158.302929 198.512583 
L 161.744152 197.227401 
L 165.638168 195.526749 
L 169.984977 193.381336 
L 174.965695 190.667089 
L 180.580322 187.353741 
L 186.919418 183.349435 
L 193.801865 178.735158 
L 201.227663 173.485038 
L 209.377929 167.441606 
L 218.796014 160.176731 
L 228.666892 152.286645 
L 239.805588 143.095475 
L 250.67261 133.845166 
L 264.799737 121.516765 
L 270.686041 116.458669 
L 273.221679 114.587767 
L 275.395083 113.250797 
L 277.296812 112.327554 
L 279.107982 111.689232 
L 281.009711 111.255991 
L 283.092557 111.015682 
L 285.356519 110.986541 
L 287.801599 111.180598 
L 290.518354 111.625421 
L 293.506785 112.345858 
L 296.85745 113.391034 
L 300.570349 114.791904 
L 304.736041 116.608371 
L 309.445083 118.914433 
L 314.697477 121.739972 
L 320.58378 125.167556 
L 327.013434 129.171303 
L 333.805322 133.656286 
L 341.23112 138.831933 
L 349.109711 144.599623 
L 358.980588 152.112098 
L 368.851466 159.899807 
L 378.903461 168.117245 
L 390.132716 177.589764 
L 403.89761 189.499806 
L 406.704924 191.962867 
L 406.704924 191.962867 
" clip-path="url(#p2a0af5eb1a)" style="fill: none; stroke: #0000ff; stroke-linecap: round"/>
   </g>
   <g id="line2d_56">
    <path d="M 68.016094 156.296075 
L 72.272344 156.405226 
L 74.626865 156.690974 
L 76.981386 157.211125 
L 79.607583 158.026427 
L 82.596014 159.196086 
L 85.946679 160.75129 
L 89.931253 162.85625 
L 94.549737 165.556885 
L 99.983248 168.99343 
L 106.775136 173.567666 
L 114.563168 179.084592 
L 124.524604 186.427796 
L 137.927264 196.337758 
L 140.281785 197.673409 
L 142.274072 198.558455 
L 144.085243 199.133544 
L 145.896413 199.476279 
L 147.8887 199.619728 
L 150.062104 199.542775 
L 152.416626 199.23092 
L 155.042822 198.650616 
L 157.940695 197.775214 
L 161.200801 196.55197 
L 164.9137 194.916967 
L 169.16995 192.797771 
L 174.150668 190.059509 
L 180.036971 186.562669 
L 187.009977 182.148361 
L 194.888567 176.890254 
L 203.672743 170.744927 
L 213.634179 163.490419 
L 226.221812 154.042492 
L 239.08112 144.098543 
L 253.479924 132.675989 
L 269.418221 119.801634 
L 273.312237 116.78596 
L 275.847876 115.102623 
L 278.02128 113.928866 
L 279.923009 113.14756 
L 281.734179 112.643603 
L 283.635908 112.349604 
L 285.718753 112.258809 
L 287.982716 112.389625 
L 290.427796 112.754333 
L 293.144551 113.384382 
L 296.223541 114.333403 
L 299.664764 115.633758 
L 303.55878 117.34635 
L 308.086705 119.589616 
L 313.157982 122.352015 
L 319.225402 125.915849 
L 326.288966 130.335158 
L 334.076998 135.473106 
L 342.498939 141.296594 
L 352.732051 148.669999 
L 365.229126 157.975157 
L 380.080721 169.3577 
L 394.207849 180.457265 
L 408.516094 191.935634 
L 408.516094 191.935634 
" clip-path="url(#p2a0af5eb1a)" style="fill: none; stroke: #008000; stroke-linecap: round"/>
   </g>
   <g id="line2d_57">
    <path d="M 68.016094 156.296075 
L 72.091227 156.400765 
L 74.445748 156.685236 
L 76.800269 157.207277 
L 79.335908 158.001319 
L 82.23378 159.150402 
L 85.493886 160.691116 
L 89.206785 162.698219 
L 93.553594 165.31001 
L 98.715429 168.68331 
L 104.782849 172.923298 
L 112.208647 178.396236 
L 121.173939 185.290761 
L 135.844418 196.632052 
L 138.017822 197.903119 
L 140.01011 198.814441 
L 141.82128 199.401267 
L 143.63245 199.747422 
L 145.534179 199.880232 
L 147.617025 199.794787 
L 149.880987 199.471011 
L 152.326067 198.896027 
L 155.133381 197.998882 
L 158.21237 196.775888 
L 161.744152 195.126937 
L 165.728727 193.014874 
L 170.347211 190.311757 
L 175.599604 186.975217 
L 181.848142 182.733947 
L 189.092822 177.539812 
L 197.695881 171.088715 
L 207.838434 163.199512 
L 220.154392 153.327942 
L 235.911572 140.392625 
L 260.181253 120.129291 
L 264.256386 116.860871 
L 266.701466 115.176329 
L 268.784312 113.996251 
L 270.686041 113.167727 
L 272.497211 112.626086 
L 274.308381 112.320547 
L 276.300668 112.21917 
L 278.383514 112.336609 
L 280.738035 112.700036 
L 283.273674 113.319454 
L 286.171546 114.265299 
L 289.431652 115.575568 
L 293.053993 117.276286 
L 297.219684 119.482829 
L 301.928727 122.236591 
L 307.362237 125.675538 
L 313.610775 129.899153 
L 320.855455 135.073746 
L 329.277397 141.367893 
L 339.41995 149.235913 
L 351.464232 158.868855 
L 366.496945 171.191528 
L 387.415961 188.653649 
L 391.309977 191.928204 
L 391.309977 191.928204 
" clip-path="url(#p2a0af5eb1a)" style="fill: none; stroke: #ff0000; stroke-linecap: round"/>
   </g>
   <g id="patch_6">
    <path d="M 50.991094 205.72 
L 50.991094 106.46 
" style="fill: none; stroke: #000000; stroke-linejoin: miter; stroke-linecap: square"/>
   </g>
   <g id="patch_7">
    <path d="M 50.991094 205.72 
L 425.541094 205.72 
" style="fill: none; stroke: #000000; stroke-linejoin: miter; stroke-linecap: square"/>
   </g>
  </g>
  <g id="axes_3">
   <g id="patch_8">
    <path d="M 50.991094 304.98 
L 425.541094 304.98 
L 425.541094 205.72 
L 50.991094 205.72 
z
" style="fill: #ffffff"/>
   </g>
   <g id="line2d_58">
    <path d="M 68.016094 256.213581 
L 68.73636 256.279171 
L 69.366593 256.581505 
L 70.086859 257.334526 
L 71.167258 258.97146 
L 72.157624 260.831531 
L 73.778223 264.50984 
L 75.308789 267.963832 
L 76.749321 270.458702 
L 78.459953 272.971621 
L 79.270253 273.995514 
L 80.800818 275.623846 
L 82.691517 277.057819 
L 83.501816 278.155953 
L 86.382881 282.40253 
L 87.373247 283.556134 
L 88.093513 283.92185 
L 89.173912 284.412963 
L 89.894179 284.96286 
L 90.794511 285.84369 
L 92.865277 287.74602 
L 95.296175 289.041106 
L 96.376574 289.095137 
L 97.456973 288.787212 
L 98.17724 288.977973 
L 99.257639 289.894714 
L 100.428071 291.02996 
L 101.148338 291.478769 
L 102.04867 291.852829 
L 102.949003 292.347287 
L 103.759302 292.70402 
L 104.569602 292.990266 
L 106.190201 293.434306 
L 107.090533 293.888041 
L 109.431399 295.168136 
L 111.68223 295.621865 
L 112.582563 294.952174 
L 113.122763 294.654681 
L 113.572929 294.642828 
L 114.113129 294.783792 
L 115.193528 295.570141 
L 117.084227 297.357716 
L 117.894526 297.51588 
L 119.605158 297.761126 
L 120.235391 297.798903 
L 121.765957 298.164526 
L 122.756323 298.499421 
L 123.386556 298.64288 
L 124.647021 298.842791 
L 125.817454 298.617323 
L 126.897853 299.130713 
L 127.257986 299.199295 
L 129.328751 298.485291 
L 129.778918 298.250038 
L 131.21945 297.112474 
L 132.299849 295.687952 
L 133.110149 294.20331 
L 134.190548 291.50297 
L 135.63108 287.299622 
L 139.232411 275.354821 
L 141.753343 266.319987 
L 143.283909 261.744285 
L 144.004175 260.070588 
L 144.994541 258.328932 
L 145.624774 257.033253 
L 146.34504 255.073151 
L 147.155339 252.937232 
L 147.875605 251.71342 
L 149.316138 249.439251 
L 150.306504 247.640976 
L 151.837069 244.867948 
L 152.647369 243.748013 
L 153.547701 242.613471 
L 155.1683 240.32471 
L 155.798533 239.874142 
L 156.518799 239.474833 
L 157.058999 238.981183 
L 157.779265 237.933812 
L 158.409498 236.948416 
L 159.399864 236.071696 
L 160.750363 234.984374 
L 161.290563 234.658176 
L 161.830762 234.476083 
L 162.370962 234.078907 
L 162.911162 233.430815 
L 164.981927 230.54555 
L 167.052692 229.498515 
L 167.502859 229.430153 
L 167.953025 229.231483 
L 168.583258 228.665658 
L 169.933757 227.126484 
L 171.194223 226.270722 
L 172.904855 225.085646 
L 173.535088 224.87011 
L 173.985254 224.644325 
L 174.70552 224.572025 
L 175.335753 224.479589 
L 176.056019 224.143442 
L 178.486918 222.27274 
L 180.377616 221.583184 
L 181.007849 221.245883 
L 182.448382 220.915068 
L 183.348714 220.468283 
L 185.329446 220.056592 
L 186.409845 219.512412 
L 188.120478 218.982074 
L 188.750711 218.781197 
L 189.56101 218.866877 
L 190.371309 219.478641 
L 190.821476 219.620662 
L 191.271642 219.466314 
L 192.802208 218.568073 
L 193.342407 218.248835 
L 194.332773 217.707924 
L 195.683272 217.59496 
L 196.223472 217.553717 
L 197.213838 217.438548 
L 199.104537 217.635998 
L 202.075635 216.806188 
L 202.615834 216.554286 
L 203.246067 216.588755 
L 203.8763 216.708051 
L 204.6866 216.830063 
L 205.046733 217.05057 
L 206.307198 217.813202 
L 206.667332 217.776228 
L 207.117498 217.544817 
L 209.278296 215.835707 
L 210.178629 215.39597 
L 213.23976 214.95319 
L 214.950392 214.151876 
L 216.210858 213.692258 
L 217.651391 213.502593 
L 218.551723 213.49719 
L 219.271989 213.367319 
L 220.352389 213.18754 
L 220.802555 213.540208 
L 221.522821 214.357468 
L 221.882954 214.520682 
L 222.243087 214.482789 
L 222.603221 214.187209 
L 223.14342 213.510806 
L 223.863686 212.694912 
L 224.403886 212.27648 
L 225.844418 211.695825 
L 226.564684 211.855996 
L 227.374984 211.999871 
L 228.36535 212.112797 
L 229.085616 212.167943 
L 229.985949 211.913765 
L 230.616182 211.774107 
L 231.786614 211.387078 
L 232.236781 211.278343 
L 234.217513 211.417081 
L 235.117845 211.287292 
L 235.928145 211.412298 
L 237.098577 212.544698 
L 237.72881 212.81384 
L 238.088943 212.833786 
L 238.53911 212.649923 
L 239.979642 211.729583 
L 240.609875 211.641162 
L 241.150074 211.595864 
L 242.230474 211.429238 
L 243.130806 211.386265 
L 243.761039 211.426577 
L 244.481305 211.490808 
L 244.751405 211.566785 
L 245.201572 211.824362 
L 245.741771 211.845663 
L 249.073002 210.911638 
L 251.323834 211.193283 
L 251.683967 211.478747 
L 252.8544 212.647905 
L 253.484633 212.709518 
L 253.934799 212.464647 
L 254.565032 212.073773 
L 255.105231 211.641124 
L 255.735464 211.262696 
L 257.80623 210.704372 
L 258.976662 210.632114 
L 259.967028 210.652524 
L 261.227494 210.758346 
L 261.94776 210.731075 
L 263.298259 210.63551 
L 264.108559 210.623609 
L 265.459058 211.427537 
L 266.269357 212.337669 
L 267.079657 213.7045 
L 268.970355 218.436335 
L 272.571686 226.709399 
L 273.742119 230.299515 
L 275.092618 235.415038 
L 276.80325 241.842771 
L 278.333815 246.66515 
L 279.594281 250.026372 
L 280.854747 252.728149 
L 283.645778 258.429429 
L 285.986644 262.562588 
L 287.607242 265.616075 
L 288.417542 266.692366 
L 288.957741 267.097224 
L 289.678008 267.585064 
L 290.218207 268.252843 
L 291.748773 270.288514 
L 293.819538 271.651752 
L 294.629838 272.692302 
L 295.710237 274.21275 
L 296.34047 274.729568 
L 296.880669 274.900267 
L 298.231168 274.958264 
L 298.861401 274.964662 
L 299.491634 275.223675 
L 300.121867 275.772476 
L 300.932167 276.827374 
L 301.652433 278.010657 
L 302.372699 279.068517 
L 303.273032 279.923048 
L 307.864728 283.408665 
L 308.584995 283.999017 
L 309.84546 284.636032 
L 310.295627 284.80006 
L 311.466059 285.586113 
L 313.176691 286.549624 
L 313.536825 286.642565 
L 315.517556 286.407966 
L 316.237823 286.902278 
L 317.588322 287.880253 
L 318.128521 288.246121 
L 320.469386 289.970533 
L 321.099619 290.176048 
L 322.089985 290.443463 
L 323.350451 290.887133 
L 324.520884 291.078905 
L 325.151117 291.343573 
L 326.861749 292.227424 
L 328.302281 292.547039 
L 328.932514 292.492959 
L 329.472714 292.043573 
L 330.373046 291.345802 
L 330.913246 291.189085 
L 331.453446 291.328298 
L 332.623878 291.953572 
L 333.434177 292.428856 
L 334.87471 292.79838 
L 336.315242 292.948419 
L 337.305608 293.063873 
L 338.836174 292.83939 
L 339.736506 293.150986 
L 341.267072 293.722397 
L 342.167405 293.819333 
L 343.067737 294.068733 
L 344.77837 294.198331 
L 346.038835 293.443686 
L 346.489002 293.497037 
L 347.029201 293.737975 
L 349.4601 295.475325 
L 350.360432 295.724749 
L 353.061431 295.866299 
L 354.231863 295.860663 
L 356.212595 296.272217 
L 356.932861 296.126659 
L 357.653127 296.282836 
L 358.913593 296.688381 
L 360.174059 296.839182 
L 362.064758 296.19143 
L 362.604957 296.447446 
L 364.765756 297.769586 
L 365.305956 297.980267 
L 365.666089 297.783691 
L 366.026222 297.472326 
L 366.476388 297.401955 
L 367.016588 297.564146 
L 368.637187 298.112007 
L 369.537519 298.181973 
L 370.888018 298.194418 
L 372.86875 298.062039 
L 375.479715 298.219341 
L 375.929882 297.878352 
L 376.740181 297.182124 
L 377.460447 297.000495 
L 378.000647 297.093457 
L 379.261113 297.844925 
L 379.711279 297.968995 
L 380.251479 298.110015 
L 382.322244 299.000674 
L 383.132543 298.926842 
L 383.762776 298.865958 
L 384.753142 298.745152 
L 386.013608 298.823194 
L 387.094007 299.08945 
L 389.344839 299.008228 
L 389.885039 298.671174 
L 390.245172 298.348871 
L 390.605305 298.32136 
L 391.145504 298.386156 
L 391.595671 298.17275 
L 391.955804 297.832829 
L 392.40597 297.471689 
L 392.766103 297.413212 
L 393.306303 297.599928 
L 395.737201 298.70632 
L 396.457467 298.87065 
L 396.997667 298.844313 
L 397.717933 298.840081 
L 398.798332 299.054611 
L 401.139197 298.827594 
L 403.299996 299.153002 
L 403.840196 298.695841 
L 404.290362 297.956894 
L 404.830562 297.369414 
L 405.280728 297.242276 
L 405.910961 297.053626 
L 406.45116 296.621656 
L 406.631227 296.362178 
L 406.631227 296.362178 
" clip-path="url(#pb377d7ed5d)" style="fill: none; stroke: #000000; stroke-linecap: round"/>
   </g>
   <g id="matplotlib.axis_5">
    <g id="xtick_17">
     <g id="line2d_59">
      <path d="M 68.016094 304.98 
L 68.016094 205.72 
" clip-path="url(#pb377d7ed5d)" style="fill: none; stroke: #b0b0b0; stroke-width: 0.8; stroke-linecap: round"/>
     </g>
     <g id="line2d_60"/>
     <g id="text_13">
      <!-- 0 -->
      <g style="fill: #262626" transform="translate(65.152969 315.318594) scale(0.09 -0.09)">
       <use xlink:href="#DejaVuSerif-30"/>
      </g>
     </g>
    </g>
    <g id="xtick_18">
     <g id="line2d_61">
      <path d="M 113.295349 304.98 
L 113.295349 205.72 
" clip-path="url(#pb377d7ed5d)" style="fill: none; stroke: #b0b0b0; stroke-width: 0.8; stroke-linecap: round"/>
     </g>
     <g id="line2d_62"/>
     <g id="text_14">
      <!-- 5 -->
      <g style="fill: #262626" transform="translate(110.432224 315.318594) scale(0.09 -0.09)">
       <use xlink:href="#DejaVuSerif-35"/>
      </g>
     </g>
    </g>
    <g id="xtick_19">
     <g id="line2d_63">
      <path d="M 158.574604 304.98 
L 158.574604 205.72 
" clip-path="url(#pb377d7ed5d)" style="fill: none; stroke: #b0b0b0; stroke-width: 0.8; stroke-linecap: round"/>
     </g>
     <g id="line2d_64"/>
     <g id="text_15">
      <!-- 10 -->
      <g style="fill: #262626" transform="translate(152.848354 315.318594) scale(0.09 -0.09)">
       <use xlink:href="#DejaVuSerif-31"/>
       <use xlink:href="#DejaVuSerif-30" x="63.623047"/>
      </g>
     </g>
    </g>
    <g id="xtick_20">
     <g id="line2d_65">
      <path d="M 203.85386 304.98 
L 203.85386 205.72 
" clip-path="url(#pb377d7ed5d)" style="fill: none; stroke: #b0b0b0; stroke-width: 0.8; stroke-linecap: round"/>
     </g>
     <g id="line2d_66"/>
     <g id="text_16">
      <!-- 15 -->
      <g style="fill: #262626" transform="translate(198.12761 315.318594) scale(0.09 -0.09)">
       <use xlink:href="#DejaVuSerif-31"/>
       <use xlink:href="#DejaVuSerif-35" x="63.623047"/>
      </g>
     </g>
    </g>
    <g id="xtick_21">
     <g id="line2d_67">
      <path d="M 249.133115 304.98 
L 249.133115 205.72 
" clip-path="url(#pb377d7ed5d)" style="fill: none; stroke: #b0b0b0; stroke-width: 0.8; stroke-linecap: round"/>
     </g>
     <g id="line2d_68"/>
     <g id="text_17">
      <!-- 20 -->
      <g style="fill: #262626" transform="translate(243.406865 315.318594) scale(0.09 -0.09)">
       <defs>
        <path id="DejaVuSerif-32" d="M 819 3553 
L 469 3553 
L 469 4384 
Q 803 4563 1142 4656 
Q 1481 4750 1806 4750 
Q 2534 4750 2956 4397 
Q 3378 4044 3378 3438 
Q 3378 2753 2422 1800 
Q 2347 1728 2309 1691 
L 1131 513 
L 3078 513 
L 3078 1088 
L 3444 1088 
L 3444 0 
L 434 0 
L 434 341 
L 1850 1753 
Q 2319 2222 2519 2614 
Q 2719 3006 2719 3438 
Q 2719 3909 2473 4175 
Q 2228 4441 1797 4441 
Q 1350 4441 1106 4219 
Q 863 3997 819 3553 
z
" transform="scale(0.015625)"/>
       </defs>
       <use xlink:href="#DejaVuSerif-32"/>
       <use xlink:href="#DejaVuSerif-30" x="63.623047"/>
      </g>
     </g>
    </g>
    <g id="xtick_22">
     <g id="line2d_69">
      <path d="M 294.41237 304.98 
L 294.41237 205.72 
" clip-path="url(#pb377d7ed5d)" style="fill: none; stroke: #b0b0b0; stroke-width: 0.8; stroke-linecap: round"/>
     </g>
     <g id="line2d_70"/>
     <g id="text_18">
      <!-- 25 -->
      <g style="fill: #262626" transform="translate(288.68612 315.318594) scale(0.09 -0.09)">
       <use xlink:href="#DejaVuSerif-32"/>
       <use xlink:href="#DejaVuSerif-35" x="63.623047"/>
      </g>
     </g>
    </g>
    <g id="xtick_23">
     <g id="line2d_71">
      <path d="M 339.691626 304.98 
L 339.691626 205.72 
" clip-path="url(#pb377d7ed5d)" style="fill: none; stroke: #b0b0b0; stroke-width: 0.8; stroke-linecap: round"/>
     </g>
     <g id="line2d_72"/>
     <g id="text_19">
      <!-- 30 -->
      <g style="fill: #262626" transform="translate(333.965376 315.318594) scale(0.09 -0.09)">
       <defs>
        <path id="DejaVuSerif-33" d="M 622 4469 
Q 988 4606 1323 4678 
Q 1659 4750 1953 4750 
Q 2638 4750 3022 4454 
Q 3406 4159 3406 3634 
Q 3406 3213 3140 2930 
Q 2875 2647 2388 2547 
Q 2963 2466 3280 2130 
Q 3597 1794 3597 1259 
Q 3597 606 3158 257 
Q 2719 -91 1894 -91 
Q 1528 -91 1179 -12 
Q 831 66 488 225 
L 488 1131 
L 838 1131 
Q 869 681 1141 450 
Q 1413 219 1906 219 
Q 2384 219 2661 495 
Q 2938 772 2938 1253 
Q 2938 1803 2653 2086 
Q 2369 2369 1819 2369 
L 1522 2369 
L 1522 2688 
L 1678 2688 
Q 2225 2688 2498 2914 
Q 2772 3141 2772 3597 
Q 2772 4006 2547 4223 
Q 2322 4441 1900 4441 
Q 1478 4441 1245 4241 
Q 1013 4041 972 3647 
L 622 3647 
L 622 4469 
z
" transform="scale(0.015625)"/>
       </defs>
       <use xlink:href="#DejaVuSerif-33"/>
       <use xlink:href="#DejaVuSerif-30" x="63.623047"/>
      </g>
     </g>
    </g>
    <g id="xtick_24">
     <g id="line2d_73">
      <path d="M 384.970881 304.98 
L 384.970881 205.72 
" clip-path="url(#pb377d7ed5d)" style="fill: none; stroke: #b0b0b0; stroke-width: 0.8; stroke-linecap: round"/>
     </g>
     <g id="line2d_74"/>
     <g id="text_20">
      <!-- 35 -->
      <g style="fill: #262626" transform="translate(379.244631 315.318594) scale(0.09 -0.09)">
       <use xlink:href="#DejaVuSerif-33"/>
       <use xlink:href="#DejaVuSerif-35" x="63.623047"/>
      </g>
     </g>
    </g>
    <g id="text_21">
     <!-- Time [s] -->
     <g style="fill: #262626" transform="translate(219.643828 328.028906) scale(0.09 -0.09)">
      <defs>
       <path id="DejaVuSerif-54" d="M 1222 0 
L 1222 331 
L 1819 331 
L 1819 4294 
L 447 4294 
L 447 3566 
L 63 3566 
L 63 4666 
L 4206 4666 
L 4206 3566 
L 3822 3566 
L 3822 4294 
L 2450 4294 
L 2450 331 
L 3047 331 
L 3047 0 
L 1222 0 
z
" transform="scale(0.015625)"/>
       <path id="DejaVuSerif-5b" d="M 550 4863 
L 2003 4863 
L 2003 4531 
L 1147 4531 
L 1147 -513 
L 2003 -513 
L 2003 -844 
L 550 -844 
L 550 4863 
z
" transform="scale(0.015625)"/>
       <path id="DejaVuSerif-5d" d="M 1947 4863 
L 1947 -844 
L 494 -844 
L 494 -513 
L 1350 -513 
L 1350 4531 
L 494 4531 
L 494 4863 
L 1947 4863 
z
" transform="scale(0.015625)"/>
      </defs>
      <use xlink:href="#DejaVuSerif-54"/>
      <use xlink:href="#DejaVuSerif-69" x="66.699219"/>
      <use xlink:href="#DejaVuSerif-6d" x="98.681641"/>
      <use xlink:href="#DejaVuSerif-65" x="193.505859"/>
      <use xlink:href="#DejaVuSerif-20" x="252.685547"/>
      <use xlink:href="#DejaVuSerif-5b" x="284.472656"/>
      <use xlink:href="#DejaVuSerif-73" x="323.486328"/>
      <use xlink:href="#DejaVuSerif-5d" x="374.804688"/>
     </g>
    </g>
   </g>
   <g id="matplotlib.axis_6">
    <g id="ytick_7">
     <g id="line2d_75">
      <path d="M 50.991094 301.666526 
L 425.541094 301.666526 
" clip-path="url(#pb377d7ed5d)" style="fill: none; stroke: #b0b0b0; stroke-width: 0.8; stroke-linecap: round"/>
     </g>
     <g id="line2d_76"/>
     <g id="text_22">
      <!-- −0.04 -->
      <g style="fill: #262626" transform="translate(19.910312 305.085823) scale(0.09 -0.09)">
       <defs>
        <path id="DejaVuSerif-2e" d="M 603 325 
Q 603 500 722 622 
Q 841 744 1019 744 
Q 1191 744 1312 622 
Q 1434 500 1434 325 
Q 1434 153 1312 31 
Q 1191 -91 1019 -91 
Q 841 -91 722 29 
Q 603 150 603 325 
z
" transform="scale(0.015625)"/>
        <path id="DejaVuSerif-34" d="M 2234 1581 
L 2234 4063 
L 641 1581 
L 2234 1581 
z
M 3609 0 
L 1484 0 
L 1484 331 
L 2234 331 
L 2234 1247 
L 197 1247 
L 197 1588 
L 2241 4750 
L 2859 4750 
L 2859 1581 
L 3750 1581 
L 3750 1247 
L 2859 1247 
L 2859 331 
L 3609 331 
L 3609 0 
z
" transform="scale(0.015625)"/>
       </defs>
       <use xlink:href="#DejaVuSerif-2212"/>
       <use xlink:href="#DejaVuSerif-30" x="83.789062"/>
       <use xlink:href="#DejaVuSerif-2e" x="147.412109"/>
       <use xlink:href="#DejaVuSerif-30" x="179.199219"/>
       <use xlink:href="#DejaVuSerif-34" x="242.822266"/>
      </g>
     </g>
    </g>
    <g id="ytick_8">
     <g id="line2d_77">
      <path d="M 50.991094 278.576497 
L 425.541094 278.576497 
" clip-path="url(#pb377d7ed5d)" style="fill: none; stroke: #b0b0b0; stroke-width: 0.8; stroke-linecap: round"/>
     </g>
     <g id="line2d_78"/>
     <g id="text_23">
      <!-- −0.02 -->
      <g style="fill: #262626" transform="translate(19.910312 281.995794) scale(0.09 -0.09)">
       <use xlink:href="#DejaVuSerif-2212"/>
       <use xlink:href="#DejaVuSerif-30" x="83.789062"/>
       <use xlink:href="#DejaVuSerif-2e" x="147.412109"/>
       <use xlink:href="#DejaVuSerif-30" x="179.199219"/>
       <use xlink:href="#DejaVuSerif-32" x="242.822266"/>
      </g>
     </g>
    </g>
    <g id="ytick_9">
     <g id="line2d_79">
      <path d="M 50.991094 255.486468 
L 425.541094 255.486468 
" clip-path="url(#pb377d7ed5d)" style="fill: none; stroke: #b0b0b0; stroke-width: 0.8; stroke-linecap: round"/>
     </g>
     <g id="line2d_80"/>
     <g id="text_24">
      <!-- 0.00 -->
      <g style="fill: #262626" transform="translate(27.452031 258.905764) scale(0.09 -0.09)">
       <use xlink:href="#DejaVuSerif-30"/>
       <use xlink:href="#DejaVuSerif-2e" x="63.623047"/>
       <use xlink:href="#DejaVuSerif-30" x="95.410156"/>
       <use xlink:href="#DejaVuSerif-30" x="159.033203"/>
      </g>
     </g>
    </g>
    <g id="ytick_10">
     <g id="line2d_81">
      <path d="M 50.991094 232.396438 
L 425.541094 232.396438 
" clip-path="url(#pb377d7ed5d)" style="fill: none; stroke: #b0b0b0; stroke-width: 0.8; stroke-linecap: round"/>
     </g>
     <g id="line2d_82"/>
     <g id="text_25">
      <!-- 0.02 -->
      <g style="fill: #262626" transform="translate(27.452031 235.815735) scale(0.09 -0.09)">
       <use xlink:href="#DejaVuSerif-30"/>
       <use xlink:href="#DejaVuSerif-2e" x="63.623047"/>
       <use xlink:href="#DejaVuSerif-30" x="95.410156"/>
       <use xlink:href="#DejaVuSerif-32" x="159.033203"/>
      </g>
     </g>
    </g>
    <g id="ytick_11">
     <g id="line2d_83">
      <path d="M 50.991094 209.306409 
L 425.541094 209.306409 
" clip-path="url(#pb377d7ed5d)" style="fill: none; stroke: #b0b0b0; stroke-width: 0.8; stroke-linecap: round"/>
     </g>
     <g id="line2d_84"/>
     <g id="text_26">
      <!-- 0.04 -->
      <g style="fill: #262626" transform="translate(27.452031 212.725706) scale(0.09 -0.09)">
       <use xlink:href="#DejaVuSerif-30"/>
       <use xlink:href="#DejaVuSerif-2e" x="63.623047"/>
       <use xlink:href="#DejaVuSerif-30" x="95.410156"/>
       <use xlink:href="#DejaVuSerif-34" x="159.033203"/>
      </g>
     </g>
    </g>
    <g id="text_27">
     <!-- $r$ $[rad/s]$ -->
     <g style="fill: #262626" transform="translate(14.038594 273.485) rotate(-90) scale(0.09 -0.09)">
      <defs>
       <path id="DejaVuSans-Oblique-72" d="M 2853 2969 
Q 2766 3016 2653 3041 
Q 2541 3066 2413 3066 
Q 1953 3066 1609 2717 
Q 1266 2369 1153 1784 
L 800 0 
L 225 0 
L 909 3500 
L 1484 3500 
L 1375 2956 
Q 1603 3259 1920 3421 
Q 2238 3584 2597 3584 
Q 2691 3584 2781 3573 
Q 2872 3563 2963 3538 
L 2853 2969 
z
" transform="scale(0.015625)"/>
       <path id="DejaVuSans-Oblique-61" d="M 3438 1997 
L 3047 0 
L 2472 0 
L 2578 531 
Q 2325 219 2001 64 
Q 1678 -91 1281 -91 
Q 834 -91 548 182 
Q 263 456 263 884 
Q 263 1497 752 1853 
Q 1241 2209 2100 2209 
L 2900 2209 
L 2931 2363 
Q 2938 2388 2941 2417 
Q 2944 2447 2944 2509 
Q 2944 2788 2717 2942 
Q 2491 3097 2081 3097 
Q 1800 3097 1504 3025 
Q 1209 2953 897 2809 
L 997 3341 
Q 1322 3463 1633 3523 
Q 1944 3584 2234 3584 
Q 2853 3584 3176 3315 
Q 3500 3047 3500 2534 
Q 3500 2431 3484 2292 
Q 3469 2153 3438 1997 
z
M 2816 1759 
L 2241 1759 
Q 1534 1759 1195 1570 
Q 856 1381 856 984 
Q 856 709 1029 553 
Q 1203 397 1509 397 
Q 1978 397 2328 733 
Q 2678 1069 2791 1631 
L 2816 1759 
z
" transform="scale(0.015625)"/>
       <path id="DejaVuSans-2f" d="M 1625 4666 
L 2156 4666 
L 531 -594 
L 0 -594 
L 1625 4666 
z
" transform="scale(0.015625)"/>
       <path id="DejaVuSans-Oblique-73" d="M 3200 3397 
L 3091 2853 
Q 2863 2978 2609 3040 
Q 2356 3103 2088 3103 
Q 1634 3103 1373 2948 
Q 1113 2794 1113 2528 
Q 1113 2219 1719 2053 
Q 1766 2041 1788 2034 
L 1972 1978 
Q 2547 1819 2739 1644 
Q 2931 1469 2931 1166 
Q 2931 609 2489 259 
Q 2047 -91 1331 -91 
Q 1053 -91 747 -37 
Q 441 16 72 128 
L 184 722 
Q 500 559 806 475 
Q 1113 391 1394 391 
Q 1816 391 2080 572 
Q 2344 753 2344 1031 
Q 2344 1331 1650 1516 
L 1591 1531 
L 1394 1581 
Q 956 1697 753 1886 
Q 550 2075 550 2369 
Q 550 2928 970 3256 
Q 1391 3584 2113 3584 
Q 2397 3584 2667 3537 
Q 2938 3491 3200 3397 
z
" transform="scale(0.015625)"/>
      </defs>
      <use xlink:href="#DejaVuSans-Oblique-72" transform="translate(0 0.015625)"/>
      <use xlink:href="#DejaVuSerif-20" transform="translate(41.113281 0.015625)"/>
      <use xlink:href="#DejaVuSans-5b" transform="translate(72.900391 0.015625)"/>
      <use xlink:href="#DejaVuSans-Oblique-72" transform="translate(111.914062 0.015625)"/>
      <use xlink:href="#DejaVuSans-Oblique-61" transform="translate(153.027344 0.015625)"/>
      <use xlink:href="#DejaVuSans-Oblique-64" transform="translate(214.306641 0.015625)"/>
      <use xlink:href="#DejaVuSans-2f" transform="translate(277.783203 0.015625)"/>
      <use xlink:href="#DejaVuSans-Oblique-73" transform="translate(311.474609 0.015625)"/>
      <use xlink:href="#DejaVuSans-5d" transform="translate(363.574219 0.015625)"/>
     </g>
    </g>
   </g>
   <g id="line2d_85">
    <path d="M 68.016094 255.486468 
L 68.740562 255.607149 
L 69.555588 256.021381 
L 70.370615 256.71143 
L 71.2762 257.792901 
L 72.181785 259.18473 
L 73.268487 261.25227 
L 74.717424 264.532629 
L 76.438035 268.133034 
L 78.249205 271.418529 
L 80.060376 274.247184 
L 81.871546 276.708796 
L 84.04495 279.287477 
L 85.85612 281.13001 
L 88.120083 283.144816 
L 91.017955 285.32079 
L 93.553594 286.907603 
L 96.179791 288.289253 
L 99.439897 289.69042 
L 104.873408 291.673609 
L 107.590163 292.504152 
L 111.846413 293.639761 
L 115.559312 294.498138 
L 122.260642 295.808525 
L 126.245216 296.380011 
L 130.8637 296.940508 
L 131.678727 296.662492 
L 132.403195 296.163197 
L 133.218221 295.356084 
L 134.214365 294.025216 
L 135.210509 292.326348 
L 136.387769 289.85997 
L 137.836705 286.253597 
L 139.285642 282.040526 
L 141.006253 276.319263 
L 145.081386 262.267991 
L 146.801998 257.557174 
L 148.52261 253.494525 
L 150.243221 249.948525 
L 152.054392 246.704671 
L 153.95612 243.700389 
L 156.038966 240.838655 
L 158.031253 238.45214 
L 160.023541 236.361808 
L 162.740296 233.893044 
L 165.909844 231.485809 
L 168.988833 229.496611 
L 171.977264 227.833796 
L 174.784578 226.539199 
L 180.218088 224.3647 
L 184.112104 223.054449 
L 189.726732 221.372691 
L 194.616892 220.065863 
L 198.692025 219.014695 
L 202.676599 218.095634 
L 207.295083 217.17834 
L 212.004126 216.34057 
L 217.528195 215.545724 
L 232.923142 213.411248 
L 243.880721 212.094357 
L 249.314232 211.481209 
L 257.917291 210.854906 
L 266.520349 210.311125 
L 267.154259 210.560503 
L 267.969285 211.152374 
L 268.87487 212.101661 
L 269.871014 213.526997 
L 270.957716 215.509634 
L 272.134977 218.094931 
L 273.583913 221.867489 
L 275.123408 226.513521 
L 276.934578 232.730148 
L 280.285243 244.583326 
L 282.005854 249.50898 
L 283.726466 253.746362 
L 285.447078 257.421785 
L 287.348807 260.94648 
L 289.341094 264.170839 
L 291.242822 266.849304 
L 293.416227 269.537642 
L 295.861307 272.159297 
L 298.396945 274.54511 
L 300.751466 276.434177 
L 303.830455 278.603813 
L 306.818886 280.411109 
L 310.169551 282.120732 
L 314.335243 284.009691 
L 317.685908 285.295338 
L 322.757184 287.036391 
L 326.560642 288.13976 
L 343.042291 292.470403 
L 348.56636 293.604852 
L 356.263833 294.736887 
L 386.963168 298.940367 
L 390.49495 299.207861 
L 395.113434 299.618335 
L 398.464099 299.8772 
L 402.629791 300.154654 
L 406.704924 300.468182 
L 406.704924 300.468182 
" clip-path="url(#pb377d7ed5d)" style="fill: none; stroke: #0000ff; stroke-linecap: round"/>
   </g>
   <g id="line2d_86">
    <path d="M 68.016094 255.486468 
L 68.740562 255.607115 
L 69.555588 256.021042 
L 70.370615 256.710217 
L 71.366759 257.912842 
L 72.272344 259.332869 
L 73.359046 261.427782 
L 77.796413 270.563029 
L 79.517025 273.320999 
L 81.418753 275.953842 
L 83.501599 278.430841 
L 85.312769 280.302028 
L 87.305057 282.027489 
L 90.021812 284.064974 
L 92.195216 285.408642 
L 94.640296 286.65547 
L 98.805987 288.497424 
L 101.341626 289.379096 
L 104.782849 290.315224 
L 111.936971 292.006382 
L 116.28378 292.762464 
L 121.807849 293.484908 
L 132.131519 294.569915 
L 132.765429 294.420824 
L 133.580455 294.003272 
L 134.486041 293.201927 
L 135.391626 292.093529 
L 136.387769 290.545649 
L 137.474471 288.437214 
L 138.742291 285.486641 
L 140.281785 281.298723 
L 141.911838 276.179232 
L 143.723009 269.740363 
L 145.44362 263.600368 
L 147.073674 258.605535 
L 148.703727 254.298361 
L 150.424338 250.355038 
L 152.235509 246.764071 
L 154.137237 243.489689 
L 156.220083 240.375282 
L 158.21237 237.811688 
L 160.385775 235.402337 
L 162.378062 233.512721 
L 164.642025 231.68062 
L 167.268221 229.84834 
L 170.075535 228.163044 
L 172.701732 226.837603 
L 175.509046 225.676767 
L 180.761439 223.851367 
L 184.293221 222.9027 
L 189.092822 221.756443 
L 199.959844 219.575687 
L 207.113966 218.414682 
L 212.819152 217.744347 
L 224.048408 216.73234 
L 239.624471 215.388132 
L 242.794019 215.090378 
L 246.597477 214.789668 
L 262.445216 214.091395 
L 268.784312 213.806488 
L 269.50878 214.050579 
L 270.233248 214.505425 
L 271.048275 215.265796 
L 271.95386 216.427031 
L 273.040562 218.215466 
L 274.217822 220.61357 
L 275.485642 223.723897 
L 277.025136 228.089712 
L 278.745748 233.658549 
L 280.647477 240.618406 
L 282.186971 246.034127 
L 283.817025 250.972759 
L 285.537636 255.458058 
L 287.167689 259.159146 
L 288.97886 262.738351 
L 290.880588 265.989979 
L 292.872876 268.930625 
L 294.955721 271.60811 
L 297.129126 274.031434 
L 299.483647 276.273315 
L 301.657051 278.039361 
L 304.554924 280.083674 
L 307.090562 281.56888 
L 310.984578 283.551054 
L 313.248541 284.491936 
L 317.233115 285.883719 
L 321.308248 287.121043 
L 327.647344 288.656721 
L 336.612636 290.509612 
L 343.947876 291.877742 
L 352.098142 292.907393 
L 354.996014 293.181856 
L 359.161705 293.577031 
L 363.870748 294.042536 
L 372.654924 294.672362 
L 383.612503 295.398112 
L 403.173142 296.629677 
L 408.244418 296.87843 
L 408.516094 296.893099 
L 408.516094 296.893099 
" clip-path="url(#pb377d7ed5d)" style="fill: none; stroke: #008000; stroke-linecap: round"/>
   </g>
   <g id="line2d_87">
    <path d="M 68.016094 255.486468 
L 68.650003 255.58951 
L 69.374471 255.947381 
L 70.189498 256.6363 
L 71.004525 257.608433 
L 72.000668 259.151261 
L 73.08737 261.218105 
L 74.717424 264.890665 
L 76.528594 268.701079 
L 78.339764 272.002642 
L 80.241493 275.01693 
L 82.143221 277.628922 
L 84.135509 279.991735 
L 86.218354 282.13017 
L 88.482317 284.124979 
L 90.836838 285.882633 
L 93.19136 287.378542 
L 95.908115 288.831834 
L 98.896546 290.166629 
L 102.247211 291.426081 
L 105.688434 292.485571 
L 109.763567 293.499602 
L 114.925402 294.540179 
L 119.815562 295.318388 
L 125.701865 296.021515 
L 130.048674 296.37239 
L 130.773142 296.156224 
L 131.49761 295.708427 
L 132.312636 294.927694 
L 133.218221 293.718543 
L 134.214365 291.980696 
L 135.391626 289.463453 
L 136.750003 285.970719 
L 138.198939 281.60693 
L 140.01011 275.420736 
L 144.990828 257.782616 
L 146.711439 252.996762 
L 148.432051 248.838551 
L 150.243221 245.047495 
L 152.054392 241.762527 
L 153.95612 238.766794 
L 155.948408 236.040288 
L 157.940695 233.679577 
L 160.114099 231.443456 
L 162.378062 229.43452 
L 164.823142 227.57501 
L 167.449338 225.853267 
L 170.256652 224.281857 
L 173.335642 222.818973 
L 176.867424 221.395659 
L 181.033115 220.019196 
L 185.379924 218.818035 
L 189.998408 217.77157 
L 195.884711 216.687867 
L 202.133248 215.775223 
L 210.011838 214.856941 
L 218.796014 214.077317 
L 226.584046 213.572774 
L 237.088833 213.064234 
L 246.235243 212.812542 
L 260.000136 212.617615 
L 260.724604 212.878874 
L 261.449072 213.384476 
L 262.264099 214.23866 
L 263.169684 215.501917 
L 264.165828 217.27198 
L 265.343088 219.841979 
L 266.701466 223.377458 
L 268.240961 228.045534 
L 269.961572 233.992375 
L 274.942291 251.848513 
L 276.662902 256.680631 
L 278.383514 260.872059 
L 280.194684 264.692521 
L 282.005854 268.012363 
L 283.907583 271.042308 
L 285.89987 273.788785 
L 287.892158 276.178468 
L 289.975003 278.342303 
L 292.238966 280.374648 
L 294.774604 282.358407 
L 297.400801 284.134367 
L 300.208115 285.76097 
L 303.196546 287.235241 
L 306.728328 288.728656 
L 310.531785 290.093914 
L 314.788035 291.379982 
L 319.768753 292.644408 
L 324.84003 293.689635 
L 330.726333 294.669634 
L 337.246546 295.535658 
L 345.48737 296.411035 
L 354.452663 297.135175 
L 365.229126 297.763192 
L 375.28112 298.138551 
L 391.309977 298.525063 
L 391.309977 298.525063 
" clip-path="url(#pb377d7ed5d)" style="fill: none; stroke: #ff0000; stroke-linecap: round"/>
   </g>
   <g id="patch_9">
    <path d="M 50.991094 304.98 
L 50.991094 205.72 
" style="fill: none; stroke: #000000; stroke-linejoin: miter; stroke-linecap: square"/>
   </g>
   <g id="patch_10">
    <path d="M 50.991094 304.98 
L 425.541094 304.98 
" style="fill: none; stroke: #000000; stroke-linejoin: miter; stroke-linecap: square"/>
   </g>
  </g>
 </g>
 <defs>
  <clipPath id="pc0cfea4cdc">
   <rect x="50.991094" y="7.2" width="374.55" height="99.26"/>
  </clipPath>
  <clipPath id="p2a0af5eb1a">
   <rect x="50.991094" y="106.46" width="374.55" height="99.26"/>
  </clipPath>
  <clipPath id="pb377d7ed5d">
   <rect x="50.991094" y="205.72" width="374.55" height="99.26"/>
  </clipPath>
 </defs>
</svg>
