<?xml version="1.0" encoding="utf-8" standalone="no"?>
<!DOCTYPE svg PUBLIC "-//W3C//DTD SVG 1.1//EN"
  "http://www.w3.org/Graphics/SVG/1.1/DTD/svg11.dtd">
<svg xmlns:xlink="http://www.w3.org/1999/xlink" width="388.61928pt" height="218.623104pt" viewBox="0 0 388.61928 218.623104" xmlns="http://www.w3.org/2000/svg" version="1.1">
 <metadata>
  <rdf:RDF xmlns:dc="http://purl.org/dc/elements/1.1/" xmlns:cc="http://creativecommons.org/ns#" xmlns:rdf="http://www.w3.org/1999/02/22-rdf-syntax-ns#">
   <cc:Work>
    <dc:type rdf:resource="http://purl.org/dc/dcmitype/StillImage"/>
    <dc:date>2024-03-06T12:55:27.583022</dc:date>
    <dc:format>image/svg+xml</dc:format>
    <dc:creator>
     <cc:Agent>
      <dc:title>Matplotlib v3.8.2, https://matplotlib.org/</dc:title>
     </cc:Agent>
    </dc:creator>
   </cc:Work>
  </rdf:RDF>
 </metadata>
 <defs>
  <style type="text/css">*{stroke-linejoin: round; stroke-linecap: butt}</style>
 </defs>
 <g id="figure_1">
  <g id="patch_1">
   <path d="M 0 218.623104 
L 388.61928 218.623104 
L 388.61928 0 
L 0 0 
z
" style="fill: #ffffff"/>
  </g>
  <g id="axes_1">
   <g id="patch_2">
    <path d="M 37.236959 53.547434 
L 385.61904 53.547434 
L 385.61904 16.852393 
L 37.236959 16.852393 
z
" style="fill: #ffffff"/>
   </g>
   <g id="matplotlib.axis_1">
    <g id="xtick_1">
     <g id="line2d_1">
      <path d="M 53.072508 53.547434 
L 53.072508 16.852393 
" clip-path="url(#p605ddf602e)" style="fill: none; stroke: #b0b0b0; stroke-width: 0.1; stroke-linecap: round"/>
     </g>
     <g id="line2d_2"/>
    </g>
    <g id="xtick_2">
     <g id="line2d_3">
      <path d="M 99.195358 53.547434 
L 99.195358 16.852393 
" clip-path="url(#p605ddf602e)" style="fill: none; stroke: #b0b0b0; stroke-width: 0.1; stroke-linecap: round"/>
     </g>
     <g id="line2d_4"/>
    </g>
    <g id="xtick_3">
     <g id="line2d_5">
      <path d="M 145.318207 53.547434 
L 145.318207 16.852393 
" clip-path="url(#p605ddf602e)" style="fill: none; stroke: #b0b0b0; stroke-width: 0.1; stroke-linecap: round"/>
     </g>
     <g id="line2d_6"/>
    </g>
    <g id="xtick_4">
     <g id="line2d_7">
      <path d="M 191.441057 53.547434 
L 191.441057 16.852393 
" clip-path="url(#p605ddf602e)" style="fill: none; stroke: #b0b0b0; stroke-width: 0.1; stroke-linecap: round"/>
     </g>
     <g id="line2d_8"/>
    </g>
    <g id="xtick_5">
     <g id="line2d_9">
      <path d="M 237.563906 53.547434 
L 237.563906 16.852393 
" clip-path="url(#p605ddf602e)" style="fill: none; stroke: #b0b0b0; stroke-width: 0.1; stroke-linecap: round"/>
     </g>
     <g id="line2d_10"/>
    </g>
    <g id="xtick_6">
     <g id="line2d_11">
      <path d="M 283.686756 53.547434 
L 283.686756 16.852393 
" clip-path="url(#p605ddf602e)" style="fill: none; stroke: #b0b0b0; stroke-width: 0.1; stroke-linecap: round"/>
     </g>
     <g id="line2d_12"/>
    </g>
    <g id="xtick_7">
     <g id="line2d_13">
      <path d="M 329.809606 53.547434 
L 329.809606 16.852393 
" clip-path="url(#p605ddf602e)" style="fill: none; stroke: #b0b0b0; stroke-width: 0.1; stroke-linecap: round"/>
     </g>
     <g id="line2d_14"/>
    </g>
    <g id="xtick_8">
     <g id="line2d_15">
      <path d="M 375.932455 53.547434 
L 375.932455 16.852393 
" clip-path="url(#p605ddf602e)" style="fill: none; stroke: #b0b0b0; stroke-width: 0.1; stroke-linecap: round"/>
     </g>
     <g id="line2d_16"/>
    </g>
   </g>
   <g id="matplotlib.axis_2">
    <g id="ytick_1">
     <g id="line2d_17">
      <path d="M 37.236959 51.602261 
L 385.61904 51.602261 
" clip-path="url(#p605ddf602e)" style="fill: none; stroke: #b0b0b0; stroke-width: 0.1; stroke-linecap: round"/>
     </g>
     <g id="line2d_18"/>
     <g id="text_1">
      <!-- −50 -->
      <g style="fill: #262626" transform="translate(14.74274 55.021558) scale(0.09 -0.09)">
       <defs>
        <path id="DejaVuSerif-2212" d="M 678 2259 
L 4684 2259 
L 4684 1753 
L 678 1753 
L 678 2259 
z
" transform="scale(0.015625)"/>
        <path id="DejaVuSerif-35" d="M 3219 4666 
L 3219 4153 
L 1081 4153 
L 1081 2816 
Q 1244 2928 1461 2984 
Q 1678 3041 1947 3041 
Q 2703 3041 3140 2622 
Q 3578 2203 3578 1478 
Q 3578 738 3136 323 
Q 2694 -91 1894 -91 
Q 1572 -91 1234 -12 
Q 897 66 544 225 
L 544 1131 
L 897 1131 
Q 925 688 1179 453 
Q 1434 219 1894 219 
Q 2388 219 2653 544 
Q 2919 869 2919 1478 
Q 2919 2084 2655 2407 
Q 2391 2731 1894 2731 
Q 1613 2731 1398 2631 
Q 1184 2531 1019 2322 
L 750 2322 
L 750 4666 
L 3219 4666 
z
" transform="scale(0.015625)"/>
        <path id="DejaVuSerif-30" d="M 2034 219 
Q 2513 219 2750 744 
Q 2988 1269 2988 2328 
Q 2988 3391 2750 3916 
Q 2513 4441 2034 4441 
Q 1556 4441 1318 3916 
Q 1081 3391 1081 2328 
Q 1081 1269 1318 744 
Q 1556 219 2034 219 
z
M 2034 -91 
Q 1275 -91 848 546 
Q 422 1184 422 2328 
Q 422 3475 848 4112 
Q 1275 4750 2034 4750 
Q 2797 4750 3222 4112 
Q 3647 3475 3647 2328 
Q 3647 1184 3222 546 
Q 2797 -91 2034 -91 
z
" transform="scale(0.015625)"/>
       </defs>
       <use xlink:href="#DejaVuSerif-2212"/>
       <use xlink:href="#DejaVuSerif-35" x="83.789062"/>
       <use xlink:href="#DejaVuSerif-30" x="147.412109"/>
      </g>
     </g>
    </g>
    <g id="ytick_2">
     <g id="line2d_19">
      <path d="M 37.236959 36.653116 
L 385.61904 36.653116 
" clip-path="url(#p605ddf602e)" style="fill: none; stroke: #b0b0b0; stroke-width: 0.1; stroke-linecap: round"/>
     </g>
     <g id="line2d_20"/>
     <g id="text_2">
      <!-- 0 -->
      <g style="fill: #262626" transform="translate(28.010709 40.072413) scale(0.09 -0.09)">
       <use xlink:href="#DejaVuSerif-30"/>
      </g>
     </g>
    </g>
    <g id="ytick_3">
     <g id="line2d_21">
      <path d="M 37.236959 21.703971 
L 385.61904 21.703971 
" clip-path="url(#p605ddf602e)" style="fill: none; stroke: #b0b0b0; stroke-width: 0.1; stroke-linecap: round"/>
     </g>
     <g id="line2d_22"/>
     <g id="text_3">
      <!-- 50 -->
      <g style="fill: #262626" transform="translate(22.284459 25.123268) scale(0.09 -0.09)">
       <use xlink:href="#DejaVuSerif-35"/>
       <use xlink:href="#DejaVuSerif-30" x="63.623047"/>
      </g>
     </g>
    </g>
    <g id="text_4">
     <!-- $N_H(v)$ -->
     <g style="fill: #262626" transform="translate(9.07899 45.919914) rotate(-90) scale(0.08 -0.08)">
      <defs>
       <path id="DejaVuSans-Oblique-4e" d="M 1081 4666 
L 1931 4666 
L 3219 666 
L 4000 4666 
L 4616 4666 
L 3706 0 
L 2853 0 
L 1569 4025 
L 788 0 
L 172 0 
L 1081 4666 
z
" transform="scale(0.015625)"/>
       <path id="DejaVuSans-Oblique-48" d="M 1081 4666 
L 1716 4666 
L 1344 2753 
L 3634 2753 
L 4006 4666 
L 4641 4666 
L 3731 0 
L 3097 0 
L 3531 2222 
L 1241 2222 
L 806 0 
L 172 0 
L 1081 4666 
z
" transform="scale(0.015625)"/>
       <path id="DejaVuSans-28" d="M 1984 4856 
Q 1566 4138 1362 3434 
Q 1159 2731 1159 2009 
Q 1159 1288 1364 580 
Q 1569 -128 1984 -844 
L 1484 -844 
Q 1016 -109 783 600 
Q 550 1309 550 2009 
Q 550 2706 781 3412 
Q 1013 4119 1484 4856 
L 1984 4856 
z
" transform="scale(0.015625)"/>
       <path id="DejaVuSans-Oblique-76" d="M 459 3500 
L 1069 3500 
L 1581 525 
L 3256 3500 
L 3866 3500 
L 1875 0 
L 1100 0 
L 459 3500 
z
" transform="scale(0.015625)"/>
       <path id="DejaVuSans-29" d="M 513 4856 
L 1013 4856 
Q 1481 4119 1714 3412 
Q 1947 2706 1947 2009 
Q 1947 1309 1714 600 
Q 1481 -109 1013 -844 
L 513 -844 
Q 928 -128 1133 580 
Q 1338 1288 1338 2009 
Q 1338 2731 1133 3434 
Q 928 4138 513 4856 
z
" transform="scale(0.015625)"/>
      </defs>
      <use xlink:href="#DejaVuSans-Oblique-4e" transform="translate(0 0.125)"/>
      <use xlink:href="#DejaVuSans-Oblique-48" transform="translate(74.804688 -16.28125) scale(0.7)"/>
      <use xlink:href="#DejaVuSans-28" transform="translate(130.175781 0.125)"/>
      <use xlink:href="#DejaVuSans-Oblique-76" transform="translate(169.189453 0.125)"/>
      <use xlink:href="#DejaVuSans-29" transform="translate(228.369141 0.125)"/>
     </g>
    </g>
   </g>
   <g id="line2d_23">
    <path d="M 53.072508 36.64536 
L 54.996689 36.720803 
L 56.462731 37.027945 
L 59.990396 38.122724 
L 62.326901 38.97191 
L 66.816656 40.387631 
L 70.344321 42.01495 
L 72.039432 42.374534 
L 73.459661 42.427367 
L 74.559193 42.792743 
L 76.987325 43.750399 
L 78.544995 44.197302 
L 79.094761 44.141228 
L 79.965224 44.056142 
L 80.835687 44.301291 
L 82.210102 44.789382 
L 83.538703 44.996543 
L 85.188 45.213578 
L 85.829394 45.183241 
L 86.928926 45.026601 
L 88.349154 45.234029 
L 89.952638 45.316623 
L 91.097984 45.130553 
L 92.793096 44.478882 
L 93.755186 43.931317 
L 94.808904 43.690823 
L 96.32076 43.181018 
L 97.466106 42.605291 
L 99.66517 41.211312 
L 100.718888 40.624224 
L 105.712595 38.401828 
L 107.407706 37.488081 
L 109.469328 36.568279 
L 112.12653 35.606331 
L 116.616285 33.990778 
L 117.853259 33.558863 
L 120.14395 33.003149 
L 121.518365 32.826794 
L 123.305104 32.294413 
L 126.37463 31.554279 
L 127.245093 31.527003 
L 128.298811 31.384551 
L 129.810667 30.889072 
L 131.139268 30.594801 
L 133.704843 30.339242 
L 134.666933 30.381086 
L 135.766465 30.107186 
L 138.240411 29.561028 
L 140.164592 29.361384 
L 142.363656 29.391369 
L 145.478996 28.747366 
L 147.311549 28.717322 
L 148.64015 28.947088 
L 149.693868 28.751985 
L 151.709676 28.352916 
L 153.90874 28.217873 
L 155.787107 28.436265 
L 158.994075 28.001263 
L 161.284766 28.194434 
L 162.29267 28.382672 
L 163.071505 28.274326 
L 165.820335 27.790472 
L 167.515447 27.909369 
L 168.202654 28.256119 
L 169.027303 28.574505 
L 169.989393 28.651601 
L 172.096829 28.822378 
L 173.883569 29.205164 
L 174.708217 29.543719 
L 175.945191 30.231819 
L 177.273792 30.640409 
L 178.32751 31.086898 
L 182.03843 32.964675 
L 183.137961 33.337515 
L 184.604004 33.814643 
L 191.01794 36.437987 
L 195.69095 37.849607 
L 197.615131 38.434681 
L 199.860008 39.114592 
L 201.967444 39.546507 
L 203.845811 39.833067 
L 206.961151 40.569025 
L 209.297656 40.907773 
L 210.259747 41.033371 
L 214.337177 41.843082 
L 216.16973 41.93516 
L 217.040193 41.991381 
L 218.872746 42.500475 
L 219.972278 42.717006 
L 222.354597 42.899808 
L 224.003895 42.807301 
L 228.86016 43.618827 
L 229.409926 43.549125 
L 230.738527 43.383768 
L 231.746431 43.60193 
L 233.808054 43.967492 
L 235.778048 44.064176 
L 236.419442 43.932203 
L 237.47316 43.779483 
L 238.389436 43.965416 
L 239.39734 44.160687 
L 242.512681 44.345571 
L 243.10826 44.233621 
L 244.070351 44.058992 
L 244.895 44.118107 
L 248.422664 44.603828 
L 249.797079 44.530879 
L 251.079866 44.188572 
L 251.904515 44.199906 
L 252.958233 44.207612 
L 254.744972 43.929588 
L 256.485898 43.530512 
L 258.272637 42.836948 
L 260.792397 42.115247 
L 265.144711 40.011662 
L 267.710285 39.295016 
L 270.092604 38.305038 
L 271.970971 37.536044 
L 277.972582 35.800953 
L 279.530253 35.347561 
L 282.783034 34.34903 
L 284.203263 34.092387 
L 285.623491 33.943915 
L 291.121151 32.820765 
L 292.587193 32.627639 
L 296.298113 31.790732 
L 297.809969 31.679702 
L 299.092756 31.691176 
L 300.054847 31.497073 
L 301.749958 31.017264 
L 304.498788 30.70898 
L 306.606224 30.789122 
L 309.217612 30.136138 
L 311.325048 30.069766 
L 312.470394 30.186641 
L 313.478298 29.997821 
L 315.952245 29.607955 
L 317.09759 29.503575 
L 318.059681 29.536835 
L 319.067585 29.752637 
L 319.938048 29.640795 
L 322.137111 29.229707 
L 325.069196 29.146798 
L 326.122914 29.399561 
L 326.810122 29.344578 
L 329.833834 28.852782 
L 332.124525 29.032998 
L 333.13243 29.248602 
L 333.865451 29.146245 
L 335.194052 28.819757 
L 336.705908 28.812138 
L 337.667998 29.013179 
L 338.721716 29.309757 
L 339.95869 29.805594 
L 340.874966 29.911896 
L 342.295195 30.044952 
L 343.532168 30.29754 
L 344.906583 30.858918 
L 345.82286 31.395674 
L 347.014019 32.035021 
L 349.854476 33.047264 
L 353.061444 34.245945 
L 356.72655 35.652844 
L 360.07096 36.726445 
L 362.453279 37.405805 
L 365.797688 38.399113 
L 369.783491 39.36967 
L 369.783491 39.36967 
" clip-path="url(#p605ddf602e)" style="fill: none; stroke: #0000ff; stroke-width: 0.75; stroke-linecap: round"/>
   </g>
   <g id="line2d_24">
    <path d="M 53.072508 36.646417 
L 55.13413 36.728092 
L 56.737614 37.044433 
L 60.540162 38.115617 
L 62.601784 38.726128 
L 67.183166 40.038814 
L 69.748741 41.131314 
L 71.810363 41.592619 
L 74.28431 41.860752 
L 78.544995 43.169142 
L 79.186389 43.10278 
L 79.965224 43.04722 
L 80.881501 43.276287 
L 82.347543 43.708339 
L 84.042655 43.901163 
L 85.921022 44.00159 
L 86.928926 43.885419 
L 88.624037 44.095307 
L 90.135894 44.124107 
L 91.281239 43.927285 
L 92.838909 43.384697 
L 93.892627 42.901504 
L 96.870526 42.075401 
L 98.703079 41.149617 
L 101.360281 39.872587 
L 103.14702 39.223243 
L 111.210254 36.003902 
L 116.707913 34.319133 
L 118.403025 33.836612 
L 120.098136 33.502021 
L 121.518365 33.348265 
L 123.625801 32.809102 
L 125.687423 32.377609 
L 127.061838 32.228619 
L 128.207183 32.120335 
L 129.260901 31.831239 
L 130.818572 31.46723 
L 133.292518 31.16354 
L 135.399954 31.086939 
L 138.561108 30.49199 
L 140.485289 30.390117 
L 141.676448 30.487967 
L 142.546911 30.34078 
L 145.387368 29.831898 
L 147.219921 29.779846 
L 148.685964 29.993908 
L 149.785496 29.809372 
L 152.305256 29.430445 
L 154.183623 29.427595 
L 155.145713 29.600291 
L 156.016176 29.519506 
L 158.719192 29.178517 
L 160.964069 29.25701 
L 162.384298 29.509505 
L 163.48383 29.325179 
L 164.904059 29.071807 
L 166.828239 29.024594 
L 167.79033 29.200929 
L 169.118931 29.691075 
L 170.081021 29.744975 
L 172.784037 29.982225 
L 174.479148 30.397637 
L 176.724026 31.331417 
L 178.32751 31.845491 
L 182.175871 33.518956 
L 183.367031 33.840971 
L 185.062142 34.379306 
L 189.139573 35.903187 
L 192.621424 36.896952 
L 200.272333 38.867019 
L 202.700465 39.205283 
L 204.258136 39.498609 
L 208.198125 40.260181 
L 209.068587 40.333493 
L 210.030678 40.394301 
L 215.253454 41.251442 
L 216.078103 41.219177 
L 217.086007 41.272399 
L 218.643677 41.647905 
L 220.292975 41.918951 
L 222.217156 42.055331 
L 223.041804 41.947725 
L 223.820639 41.943773 
L 225.286682 42.229173 
L 227.119235 42.518447 
L 229.45574 42.601083 
L 230.6469 42.461536 
L 231.60899 42.626118 
L 233.441543 42.94193 
L 234.953399 43.025004 
L 236.327814 42.96408 
L 237.289904 42.803801 
L 238.114553 42.90076 
L 239.580596 43.153006 
L 242.879191 43.255342 
L 244.391048 43.057088 
L 245.765462 43.269585 
L 247.781271 43.516904 
L 249.751265 43.469451 
L 251.354749 43.147374 
L 253.966137 43.059531 
L 257.035664 42.361483 
L 258.318451 41.984496 
L 260.609142 41.448975 
L 265.740291 39.437564 
L 267.801913 38.905922 
L 270.64237 37.852619 
L 272.108413 37.37909 
L 277.651886 35.981369 
L 279.759322 35.456607 
L 282.553965 34.717351 
L 284.157449 34.442449 
L 285.669305 34.304268 
L 290.75464 33.351818 
L 292.129055 33.255966 
L 294.053236 32.831222 
L 296.160672 32.468491 
L 297.947411 32.369164 
L 299.230198 32.355269 
L 300.146474 32.173142 
L 301.933214 31.763339 
L 304.865299 31.566623 
L 306.239713 31.648775 
L 306.881107 31.507469 
L 308.484591 31.094705 
L 310.683655 30.946397 
L 312.149697 31.071797 
L 312.882718 31.013105 
L 314.119692 30.760304 
L 315.265037 30.589818 
L 317.968053 30.486162 
L 319.434095 30.670054 
L 320.762696 30.396714 
L 321.770601 30.267576 
L 324.840127 30.128936 
L 325.618962 30.324405 
L 326.443611 30.385472 
L 328.092909 30.105131 
L 329.009185 29.967817 
L 330.429414 29.944699 
L 332.811733 30.237259 
L 333.453126 30.239857 
L 334.781727 29.952952 
L 335.743818 29.860326 
L 337.118233 29.942164 
L 338.813344 30.349568 
L 340.187759 30.777295 
L 341.470546 30.865784 
L 343.119844 31.068878 
L 344.219376 31.38042 
L 345.868673 32.137661 
L 347.014019 32.664399 
L 350.404242 33.713893 
L 360.43747 36.791283 
L 362.544906 37.329558 
L 366.026757 38.204384 
L 368.729773 38.744738 
L 369.783491 38.999444 
L 369.783491 38.999444 
" clip-path="url(#p605ddf602e)" style="fill: none; stroke: #008000; stroke-width: 0.75; stroke-linecap: round"/>
   </g>
   <g id="line2d_25">
    <path d="M 53.072508 36.652143 
L 57.88296 36.753193 
L 68.878278 37.262278 
L 72.49757 37.368412 
L 75.2464 37.461202 
L 79.598713 37.581082 
L 82.118474 37.671104 
L 86.104277 37.715839 
L 89.082176 37.740487 
L 92.24333 37.675998 
L 123.305104 36.105973 
L 133.567401 35.857942 
L 136.453672 35.808462 
L 145.112485 35.664318 
L 161.605463 35.603381 
L 163.987782 35.571045 
L 168.019399 35.586276 
L 170.401718 35.650663 
L 175.212169 35.801564 
L 180.389132 36.09315 
L 189.414456 36.556739 
L 201.92163 37.015742 
L 211.771603 37.25074 
L 222.721108 37.429654 
L 225.515751 37.470782 
L 229.822251 37.506874 
L 232.433639 37.546814 
L 236.694325 37.557878 
L 239.03083 37.59039 
L 248.193595 37.651939 
L 255.386366 37.553941 
L 261.204722 37.312184 
L 266.977264 37.016459 
L 290.479757 36.174995 
L 331.94127 35.689215 
L 334.644286 35.683656 
L 337.897068 35.699724 
L 346.18937 36.0233 
L 350.312615 36.221573 
L 367.309544 36.908546 
L 369.783491 36.994122 
L 369.783491 36.994122 
" clip-path="url(#p605ddf602e)" style="fill: none; stroke: #ff0000; stroke-width: 0.75; stroke-linecap: round"/>
   </g>
   <g id="patch_3">
    <path d="M 37.236959 53.547434 
L 37.236959 16.852393 
" style="fill: none; stroke: #000000; stroke-linejoin: miter; stroke-linecap: square"/>
   </g>
   <g id="patch_4">
    <path d="M 37.236959 53.547434 
L 385.61904 53.547434 
" style="fill: none; stroke: #000000; stroke-linejoin: miter; stroke-linecap: square"/>
   </g>
   <g id="legend_1">
    <g id="line2d_26">
     <path d="M 120.804328 10.293467 
L 129.804327 10.293467 
L 138.804327 10.293467 
" style="fill: none; stroke: #0000ff; stroke-width: 0.75; stroke-linecap: round"/>
    </g>
    <g id="text_5">
     <!-- Reference -->
     <g style="fill: #262626" transform="translate(146.004328 13.443467) scale(0.09 -0.09)">
      <defs>
       <path id="DejaVuSerif-52" d="M 3066 2316 
Q 3284 2256 3442 2114 
Q 3600 1972 3725 1716 
L 4403 331 
L 4972 331 
L 4972 0 
L 3872 0 
L 3144 1484 
Q 2934 1916 2759 2042 
Q 2584 2169 2278 2169 
L 1581 2169 
L 1581 331 
L 2241 331 
L 2241 0 
L 353 0 
L 353 331 
L 947 331 
L 947 4331 
L 353 4331 
L 353 4666 
L 2719 4666 
Q 3400 4666 3770 4341 
Q 4141 4016 4141 3419 
Q 4141 2938 3870 2661 
Q 3600 2384 3066 2316 
z
M 1581 2503 
L 2503 2503 
Q 2975 2503 3200 2726 
Q 3425 2950 3425 3419 
Q 3425 3888 3200 4109 
Q 2975 4331 2503 4331 
L 1581 4331 
L 1581 2503 
z
" transform="scale(0.015625)"/>
       <path id="DejaVuSerif-65" d="M 3469 1600 
L 991 1600 
L 991 1575 
Q 991 903 1244 561 
Q 1497 219 1991 219 
Q 2369 219 2611 417 
Q 2853 616 2950 1006 
L 3413 1006 
Q 3275 459 2904 184 
Q 2534 -91 1931 -91 
Q 1203 -91 761 389 
Q 319 869 319 1663 
Q 319 2450 753 2931 
Q 1188 3413 1894 3413 
Q 2647 3413 3050 2948 
Q 3453 2484 3469 1600 
z
M 2791 1931 
Q 2772 2513 2545 2808 
Q 2319 3103 1894 3103 
Q 1497 3103 1269 2806 
Q 1041 2509 991 1931 
L 2791 1931 
z
" transform="scale(0.015625)"/>
       <path id="DejaVuSerif-66" d="M 2753 4078 
L 2450 4078 
Q 2447 4313 2317 4434 
Q 2188 4556 1941 4556 
Q 1619 4556 1487 4379 
Q 1356 4203 1356 3750 
L 1356 3322 
L 2284 3322 
L 2284 2988 
L 1356 2988 
L 1356 331 
L 2094 331 
L 2094 0 
L 231 0 
L 231 331 
L 781 331 
L 781 2988 
L 231 2988 
L 231 3322 
L 781 3322 
L 781 3738 
Q 781 4294 1070 4578 
Q 1359 4863 1919 4863 
Q 2128 4863 2337 4825 
Q 2547 4788 2753 4709 
L 2753 4078 
z
" transform="scale(0.015625)"/>
       <path id="DejaVuSerif-72" d="M 3059 3328 
L 3059 2497 
L 2728 2497 
Q 2713 2744 2591 2866 
Q 2469 2988 2234 2988 
Q 1809 2988 1582 2694 
Q 1356 2400 1356 1850 
L 1356 331 
L 2022 331 
L 2022 0 
L 263 0 
L 263 331 
L 781 331 
L 781 2994 
L 231 2994 
L 231 3322 
L 1356 3322 
L 1356 2731 
Q 1525 3078 1790 3245 
Q 2056 3413 2438 3413 
Q 2578 3413 2733 3391 
Q 2888 3369 3059 3328 
z
" transform="scale(0.015625)"/>
       <path id="DejaVuSerif-6e" d="M 263 0 
L 263 331 
L 781 331 
L 781 2988 
L 231 2988 
L 231 3322 
L 1356 3322 
L 1356 2731 
Q 1516 3069 1770 3241 
Q 2025 3413 2363 3413 
Q 2913 3413 3172 3097 
Q 3431 2781 3431 2113 
L 3431 331 
L 3944 331 
L 3944 0 
L 2356 0 
L 2356 331 
L 2853 331 
L 2853 1931 
Q 2853 2541 2703 2767 
Q 2553 2994 2175 2994 
Q 1775 2994 1565 2701 
Q 1356 2409 1356 1850 
L 1356 331 
L 1856 331 
L 1856 0 
L 263 0 
z
" transform="scale(0.015625)"/>
       <path id="DejaVuSerif-63" d="M 3291 997 
Q 3169 466 2822 187 
Q 2475 -91 1925 -91 
Q 1200 -91 759 389 
Q 319 869 319 1663 
Q 319 2459 759 2936 
Q 1200 3413 1925 3413 
Q 2241 3413 2553 3339 
Q 2866 3266 3181 3116 
L 3181 2266 
L 2847 2266 
Q 2781 2703 2561 2903 
Q 2341 3103 1931 3103 
Q 1466 3103 1228 2742 
Q 991 2381 991 1663 
Q 991 944 1227 581 
Q 1463 219 1931 219 
Q 2303 219 2525 412 
Q 2747 606 2828 997 
L 3291 997 
z
" transform="scale(0.015625)"/>
      </defs>
      <use xlink:href="#DejaVuSerif-52"/>
      <use xlink:href="#DejaVuSerif-65" x="75.292969"/>
      <use xlink:href="#DejaVuSerif-66" x="134.472656"/>
      <use xlink:href="#DejaVuSerif-65" x="171.484375"/>
      <use xlink:href="#DejaVuSerif-72" x="230.664062"/>
      <use xlink:href="#DejaVuSerif-65" x="278.466797"/>
      <use xlink:href="#DejaVuSerif-6e" x="337.646484"/>
      <use xlink:href="#DejaVuSerif-63" x="402.050781"/>
      <use xlink:href="#DejaVuSerif-65" x="458.056641"/>
     </g>
    </g>
    <g id="line2d_27">
     <path d="M 210.558234 10.293467 
L 219.558234 10.293467 
L 228.558234 10.293467 
" style="fill: none; stroke: #008000; stroke-width: 0.75; stroke-linecap: round"/>
    </g>
    <g id="text_6">
     <!-- PI -->
     <g style="fill: #262626" transform="translate(235.758234 13.443467) scale(0.09 -0.09)">
      <defs>
       <path id="DejaVuSerif-50" d="M 1581 2375 
L 2406 2375 
Q 2872 2375 3115 2626 
Q 3359 2878 3359 3353 
Q 3359 3831 3115 4081 
Q 2872 4331 2406 4331 
L 1581 4331 
L 1581 2375 
z
M 353 0 
L 353 331 
L 947 331 
L 947 4331 
L 353 4331 
L 353 4666 
L 2559 4666 
Q 3259 4666 3668 4311 
Q 4078 3956 4078 3353 
Q 4078 2753 3668 2397 
Q 3259 2041 2559 2041 
L 1581 2041 
L 1581 331 
L 2303 331 
L 2303 0 
L 353 0 
z
" transform="scale(0.015625)"/>
       <path id="DejaVuSerif-49" d="M 1581 331 
L 2175 331 
L 2175 0 
L 353 0 
L 353 331 
L 947 331 
L 947 4331 
L 353 4331 
L 353 4666 
L 2175 4666 
L 2175 4331 
L 1581 4331 
L 1581 331 
z
" transform="scale(0.015625)"/>
      </defs>
      <use xlink:href="#DejaVuSerif-50"/>
      <use xlink:href="#DejaVuSerif-49" x="67.285156"/>
     </g>
    </g>
    <g id="line2d_28">
     <path d="M 263.368546 10.293467 
L 272.368546 10.293467 
L 281.368546 10.293467 
" style="fill: none; stroke: #ff0000; stroke-width: 0.75; stroke-linecap: round"/>
    </g>
    <g id="text_7">
     <!-- PU -->
     <g style="fill: #262626" transform="translate(288.568546 13.443467) scale(0.09 -0.09)">
      <defs>
       <path id="DejaVuSerif-55" d="M 897 4331 
L 300 4331 
L 300 4666 
L 2125 4666 
L 2125 4331 
L 1528 4331 
L 1528 1919 
Q 1528 1025 1820 672 
Q 2113 319 2828 319 
Q 3544 319 3836 672 
Q 4128 1025 4128 1919 
L 4128 4331 
L 3531 4331 
L 3531 4666 
L 5106 4666 
L 5106 4331 
L 4513 4331 
L 4513 1856 
Q 4513 791 4103 350 
Q 3694 -91 2713 -91 
Q 1731 -91 1314 353 
Q 897 797 897 1856 
L 897 4331 
z
" transform="scale(0.015625)"/>
      </defs>
      <use xlink:href="#DejaVuSerif-50"/>
      <use xlink:href="#DejaVuSerif-55" x="65.535156"/>
     </g>
    </g>
   </g>
  </g>
  <g id="axes_2">
   <g id="patch_5">
    <path d="M 37.236959 99.588306 
L 385.61904 99.588306 
L 385.61904 62.893266 
L 37.236959 62.893266 
z
" style="fill: #ffffff"/>
   </g>
   <g id="matplotlib.axis_3">
    <g id="xtick_9">
     <g id="line2d_29">
      <path d="M 53.072508 99.588306 
L 53.072508 62.893266 
" clip-path="url(#pba0469690f)" style="fill: none; stroke: #b0b0b0; stroke-width: 0.1; stroke-linecap: round"/>
     </g>
     <g id="line2d_30"/>
    </g>
    <g id="xtick_10">
     <g id="line2d_31">
      <path d="M 99.195358 99.588306 
L 99.195358 62.893266 
" clip-path="url(#pba0469690f)" style="fill: none; stroke: #b0b0b0; stroke-width: 0.1; stroke-linecap: round"/>
     </g>
     <g id="line2d_32"/>
    </g>
    <g id="xtick_11">
     <g id="line2d_33">
      <path d="M 145.318207 99.588306 
L 145.318207 62.893266 
" clip-path="url(#pba0469690f)" style="fill: none; stroke: #b0b0b0; stroke-width: 0.1; stroke-linecap: round"/>
     </g>
     <g id="line2d_34"/>
    </g>
    <g id="xtick_12">
     <g id="line2d_35">
      <path d="M 191.441057 99.588306 
L 191.441057 62.893266 
" clip-path="url(#pba0469690f)" style="fill: none; stroke: #b0b0b0; stroke-width: 0.1; stroke-linecap: round"/>
     </g>
     <g id="line2d_36"/>
    </g>
    <g id="xtick_13">
     <g id="line2d_37">
      <path d="M 237.563906 99.588306 
L 237.563906 62.893266 
" clip-path="url(#pba0469690f)" style="fill: none; stroke: #b0b0b0; stroke-width: 0.1; stroke-linecap: round"/>
     </g>
     <g id="line2d_38"/>
    </g>
    <g id="xtick_14">
     <g id="line2d_39">
      <path d="M 283.686756 99.588306 
L 283.686756 62.893266 
" clip-path="url(#pba0469690f)" style="fill: none; stroke: #b0b0b0; stroke-width: 0.1; stroke-linecap: round"/>
     </g>
     <g id="line2d_40"/>
    </g>
    <g id="xtick_15">
     <g id="line2d_41">
      <path d="M 329.809606 99.588306 
L 329.809606 62.893266 
" clip-path="url(#pba0469690f)" style="fill: none; stroke: #b0b0b0; stroke-width: 0.1; stroke-linecap: round"/>
     </g>
     <g id="line2d_42"/>
    </g>
    <g id="xtick_16">
     <g id="line2d_43">
      <path d="M 375.932455 99.588306 
L 375.932455 62.893266 
" clip-path="url(#pba0469690f)" style="fill: none; stroke: #b0b0b0; stroke-width: 0.1; stroke-linecap: round"/>
     </g>
     <g id="line2d_44"/>
    </g>
   </g>
   <g id="matplotlib.axis_4">
    <g id="ytick_4">
     <g id="line2d_45">
      <path d="M 37.236959 97.643134 
L 385.61904 97.643134 
" clip-path="url(#pba0469690f)" style="fill: none; stroke: #b0b0b0; stroke-width: 0.1; stroke-linecap: round"/>
     </g>
     <g id="line2d_46"/>
     <g id="text_8">
      <!-- −50 -->
      <g style="fill: #262626" transform="translate(14.74274 101.062431) scale(0.09 -0.09)">
       <use xlink:href="#DejaVuSerif-2212"/>
       <use xlink:href="#DejaVuSerif-35" x="83.789062"/>
       <use xlink:href="#DejaVuSerif-30" x="147.412109"/>
      </g>
     </g>
    </g>
    <g id="ytick_5">
     <g id="line2d_47">
      <path d="M 37.236959 82.693989 
L 385.61904 82.693989 
" clip-path="url(#pba0469690f)" style="fill: none; stroke: #b0b0b0; stroke-width: 0.1; stroke-linecap: round"/>
     </g>
     <g id="line2d_48"/>
     <g id="text_9">
      <!-- 0 -->
      <g style="fill: #262626" transform="translate(28.010709 86.113286) scale(0.09 -0.09)">
       <use xlink:href="#DejaVuSerif-30"/>
      </g>
     </g>
    </g>
    <g id="ytick_6">
     <g id="line2d_49">
      <path d="M 37.236959 67.744844 
L 385.61904 67.744844 
" clip-path="url(#pba0469690f)" style="fill: none; stroke: #b0b0b0; stroke-width: 0.1; stroke-linecap: round"/>
     </g>
     <g id="line2d_50"/>
     <g id="text_10">
      <!-- 50 -->
      <g style="fill: #262626" transform="translate(22.284459 71.164141) scale(0.09 -0.09)">
       <use xlink:href="#DejaVuSerif-35"/>
       <use xlink:href="#DejaVuSerif-30" x="63.623047"/>
      </g>
     </g>
    </g>
    <g id="text_11">
     <!-- $N_H(r)$ -->
     <g style="fill: #262626" transform="translate(9.07899 91.240786) rotate(-90) scale(0.08 -0.08)">
      <defs>
       <path id="DejaVuSans-Oblique-72" d="M 2853 2969 
Q 2766 3016 2653 3041 
Q 2541 3066 2413 3066 
Q 1953 3066 1609 2717 
Q 1266 2369 1153 1784 
L 800 0 
L 225 0 
L 909 3500 
L 1484 3500 
L 1375 2956 
Q 1603 3259 1920 3421 
Q 2238 3584 2597 3584 
Q 2691 3584 2781 3573 
Q 2872 3563 2963 3538 
L 2853 2969 
z
" transform="scale(0.015625)"/>
      </defs>
      <use xlink:href="#DejaVuSans-Oblique-4e" transform="translate(0 0.125)"/>
      <use xlink:href="#DejaVuSans-Oblique-48" transform="translate(74.804688 -16.28125) scale(0.7)"/>
      <use xlink:href="#DejaVuSans-28" transform="translate(130.175781 0.125)"/>
      <use xlink:href="#DejaVuSans-Oblique-72" transform="translate(169.189453 0.125)"/>
      <use xlink:href="#DejaVuSans-29" transform="translate(210.302734 0.125)"/>
     </g>
    </g>
   </g>
   <g id="line2d_51">
    <path d="M 53.072508 82.846418 
L 53.942971 82.739667 
L 54.905061 82.386817 
L 56.32529 81.618399 
L 58.982492 79.784893 
L 60.448534 78.565557 
L 62.052018 77.367482 
L 63.563874 76.422956 
L 64.984103 75.778178 
L 66.450145 75.572719 
L 68.695023 74.400653 
L 69.97781 74.135626 
L 71.810363 73.814296 
L 73.230592 73.963181 
L 74.742448 73.429756 
L 75.521283 73.234899 
L 77.445464 73.061211 
L 78.865692 73.187683 
L 79.5529 73.566729 
L 80.102666 73.497715 
L 81.568708 72.961748 
L 82.622426 72.878647 
L 83.996841 72.861871 
L 85.554511 72.897323 
L 86.608229 73.441585 
L 88.53241 73.878404 
L 89.815197 74.669836 
L 92.747282 77.409051 
L 93.709372 78.423879 
L 95.541925 80.179906 
L 99.06959 83.903642 
L 102.368185 85.967118 
L 104.475621 86.917156 
L 106.079105 87.435248 
L 106.949568 87.482026 
L 107.774217 87.797521 
L 108.41561 88.069851 
L 109.97328 88.518606 
L 112.813738 89.132262 
L 113.409317 88.996474 
L 113.959083 88.98095 
L 114.87536 89.239681 
L 116.341402 89.644916 
L 118.95279 89.943682 
L 119.960695 89.836014 
L 120.73953 89.623041 
L 121.380923 89.777115 
L 122.984407 90.188985 
L 125.549982 90.376508 
L 126.6037 90.332622 
L 127.56579 90.04949 
L 128.252997 90.205582 
L 129.489971 90.587895 
L 131.27671 90.665843 
L 133.567401 90.626007 
L 134.117167 90.392408 
L 134.621119 90.389053 
L 136.087162 90.717627 
L 137.690646 90.84558 
L 139.06506 90.854062 
L 140.531103 90.690052 
L 141.080869 90.472057 
L 141.584821 90.51177 
L 143.783884 90.984183 
L 145.158299 90.931987 
L 146.395273 90.920286 
L 147.174108 90.819269 
L 148.04457 90.433081 
L 148.685964 90.502225 
L 151.068283 90.884054 
L 153.862926 90.832283 
L 155.0999 90.394839 
L 156.06199 90.598151 
L 157.161522 90.754417 
L 159.727096 90.67318 
L 161.009883 90.447683 
L 161.651277 90.205094 
L 162.475926 90.241857 
L 164.125223 90.507816 
L 167.56126 90.167413 
L 169.118931 89.222802 
L 170.355904 88.820627 
L 171.226367 88.298839 
L 172.509154 87.40738 
L 174.341707 85.95749 
L 176.220074 84.336868 
L 178.32751 82.566331 
L 179.381228 81.726482 
L 181.305408 80.661633 
L 182.221685 80.388959 
L 185.428653 79.08264 
L 186.299116 78.829832 
L 188.177482 78.392985 
L 189.047945 78.425861 
L 189.735153 78.226234 
L 191.476078 77.606456 
L 195.232812 77.161388 
L 195.965833 77.17098 
L 199.493498 76.535389 
L 201.967444 76.521923 
L 202.700465 76.703759 
L 203.570928 76.521109 
L 205.495109 76.139532 
L 207.465103 76.073009 
L 208.702077 76.054581 
L 209.435098 76.308277 
L 210.076491 76.224512 
L 212.046486 75.772775 
L 213.420901 75.706839 
L 214.978571 75.633357 
L 215.436709 75.656502 
L 216.352986 75.965889 
L 216.902752 75.876558 
L 218.964374 75.443214 
L 221.988086 75.44071 
L 222.354597 75.485069 
L 223.270874 75.735055 
L 224.095522 75.511161 
L 225.103427 75.326795 
L 226.752724 75.298627 
L 228.631091 75.267064 
L 229.135043 75.337362 
L 229.913878 75.676814 
L 230.555272 75.695332 
L 231.196666 75.539959 
L 232.112942 75.336915 
L 233.029219 75.324434 
L 235.090841 75.306832 
L 235.91549 75.341878 
L 237.152463 75.714205 
L 238.206181 75.460201 
L 239.076644 75.361528 
L 240.313617 75.338918 
L 241.642218 75.326832 
L 242.970819 75.560588 
L 243.566399 75.759636 
L 244.207792 75.750886 
L 247.04825 75.343308 
L 249.613824 75.513643 
L 251.446377 76.151889 
L 252.729164 76.449497 
L 254.470089 77.455013 
L 256.211015 78.593091 
L 257.127291 79.377837 
L 258.54752 80.391162 
L 259.876121 81.408934 
L 262.25844 83.369535 
L 263.266344 84.022194 
L 268.764003 86.137047 
L 270.733998 86.49888 
L 271.467019 86.576567 
L 275.498636 87.624864 
L 276.735609 87.843888 
L 277.285375 87.786727 
L 277.972582 87.724111 
L 278.65979 87.9289 
L 279.484439 88.160287 
L 282.004199 88.455664 
L 284.065821 88.464922 
L 284.707215 88.310417 
L 285.531864 88.422212 
L 287.776741 88.774811 
L 290.846268 88.844013 
L 291.533475 88.721537 
L 292.403938 88.787608 
L 295.519278 89.310488 
L 297.5809 89.314463 
L 298.359735 89.081825 
L 299.413453 89.157831 
L 301.429262 89.589256 
L 302.391352 89.604252 
L 303.536698 89.588513 
L 304.590416 89.545771 
L 305.415065 89.335617 
L 306.697852 89.505768 
L 307.385059 89.759204 
L 308.392963 89.901171 
L 310.27133 89.83233 
L 311.416676 89.624139 
L 311.874814 89.465034 
L 312.607835 89.519118 
L 313.295043 89.693549 
L 314.990154 89.890963 
L 318.151308 89.641568 
L 318.746888 89.446209 
L 319.205026 89.455461 
L 320.854324 89.841702 
L 322.137111 89.835854 
L 325.11501 89.709939 
L 325.802217 89.443971 
L 326.443611 89.516071 
L 327.314074 89.634699 
L 329.696393 89.814334 
L 331.895456 89.627827 
L 332.90336 89.304169 
L 333.773823 89.474131 
L 334.964983 89.655116 
L 335.972887 89.443351 
L 338.492647 88.278852 
L 340.645897 86.865009 
L 341.653801 86.289726 
L 343.028216 85.243007 
L 348.480062 81.128431 
L 349.762849 80.535589 
L 352.099354 79.624223 
L 354.115162 79.100973 
L 355.535391 78.682759 
L 359.429566 77.998845 
L 360.07096 77.962067 
L 362.728162 77.263399 
L 364.14839 77.082084 
L 366.118385 77.050381 
L 366.943034 77.188452 
L 367.950938 76.910882 
L 369.142097 76.693528 
L 369.783491 76.620863 
L 369.783491 76.620863 
" clip-path="url(#pba0469690f)" style="fill: none; stroke: #0000ff; stroke-width: 0.75; stroke-linecap: round"/>
   </g>
   <g id="line2d_52">
    <path d="M 53.072508 82.84585 
L 53.942971 82.739497 
L 54.905061 82.387963 
L 56.32529 81.62241 
L 59.028305 79.762059 
L 60.219465 78.775655 
L 61.822949 77.543843 
L 63.609688 76.42208 
L 65.029917 75.800751 
L 66.129448 75.740903 
L 66.999911 75.279929 
L 68.42014 74.513846 
L 69.748741 74.211476 
L 71.764549 73.836714 
L 73.09315 74.038748 
L 75.796166 73.228394 
L 78.590809 73.044181 
L 79.781969 73.608669 
L 80.377549 73.419165 
L 81.660336 72.984876 
L 85.188 72.857527 
L 85.646139 72.995136 
L 86.608229 73.476093 
L 88.53241 73.911283 
L 89.815197 74.699763 
L 92.747282 77.428762 
L 93.709372 78.439805 
L 95.541925 80.189283 
L 99.06959 83.899131 
L 102.368185 85.95491 
L 104.475621 86.901405 
L 106.079105 87.417564 
L 106.949568 87.464168 
L 107.774217 87.778487 
L 108.41561 88.049801 
L 110.019094 88.508414 
L 112.996993 89.081281 
L 113.959083 88.957502 
L 114.87536 89.215268 
L 116.341402 89.618992 
L 118.95279 89.916643 
L 119.960695 89.809377 
L 120.73953 89.597198 
L 121.380923 89.750698 
L 122.984407 90.161031 
L 125.549982 90.347855 
L 126.6037 90.304132 
L 127.56579 90.022057 
L 128.252997 90.177566 
L 129.489971 90.558454 
L 131.27671 90.63611 
L 133.567401 90.596423 
L 134.117167 90.363695 
L 134.621119 90.360353 
L 136.087162 90.687702 
L 137.690646 90.815177 
L 139.06506 90.823628 
L 140.531103 90.66023 
L 141.080869 90.443047 
L 141.584821 90.482612 
L 143.783884 90.953264 
L 145.158299 90.901262 
L 146.395273 90.889605 
L 147.174108 90.788964 
L 148.04457 90.404217 
L 148.685964 90.473103 
L 151.068283 90.853508 
L 153.862926 90.80193 
L 155.0999 90.366118 
L 156.06199 90.568672 
L 157.161522 90.724354 
L 159.727096 90.64342 
L 161.009883 90.418764 
L 161.651277 90.17708 
L 162.475926 90.213706 
L 164.125223 90.478673 
L 167.56126 90.13954 
L 169.118931 89.198452 
L 170.355904 88.797776 
L 171.226367 88.277935 
L 172.509154 87.389801 
L 174.341707 85.945318 
L 176.220074 84.330741 
L 178.32751 82.566808 
L 179.381228 81.730091 
L 181.305408 80.669213 
L 182.221685 80.397556 
L 185.428653 79.096109 
L 186.299116 78.844244 
L 188.177482 78.409026 
L 189.047945 78.441779 
L 189.735153 78.242897 
L 191.476078 77.62543 
L 195.232812 77.182022 
L 195.965833 77.191579 
L 199.493498 76.558359 
L 201.967444 76.544942 
L 202.700465 76.7261 
L 203.570928 76.544132 
L 205.495109 76.163978 
L 207.510917 76.093847 
L 208.839518 76.145809 
L 209.435098 76.332093 
L 210.076491 76.24864 
L 212.046486 75.798589 
L 213.420901 75.732898 
L 214.978571 75.659691 
L 215.436709 75.682749 
L 216.352986 75.990983 
L 216.902752 75.901984 
L 219.010188 75.47185 
L 221.163438 75.466479 
L 222.904363 75.733871 
L 223.408315 75.737986 
L 224.049709 75.555354 
L 224.828544 75.367163 
L 229.043416 75.32759 
L 230.509458 75.727631 
L 231.425735 75.493775 
L 232.662708 75.327882 
L 233.808054 75.335668 
L 234.999213 75.331741 
L 236.190373 75.496271 
L 236.923394 75.740668 
L 237.518974 75.673374 
L 238.618505 75.406595 
L 239.305713 75.392369 
L 242.604308 75.436084 
L 244.29942 75.761964 
L 246.498484 75.389746 
L 249.384755 75.510882 
L 249.888707 75.674004 
L 250.850797 76.088967 
L 253.095675 76.657552 
L 256.348456 78.711122 
L 262.85402 83.790908 
L 263.678669 84.167154 
L 265.557035 84.944628 
L 267.389589 85.74519 
L 270.092604 86.520193 
L 271.008881 86.486342 
L 271.696088 86.62386 
L 276.552354 87.80294 
L 277.193747 87.786441 
L 278.110024 87.727454 
L 280.583971 88.314933 
L 283.607683 88.527453 
L 283.974194 88.475394 
L 284.798843 88.294096 
L 285.898374 88.485643 
L 287.135348 88.674911 
L 290.15906 88.926179 
L 290.983709 88.774309 
L 291.762544 88.690157 
L 292.587193 88.815656 
L 293.86998 89.136967 
L 297.535086 89.306669 
L 298.497177 89.0571 
L 299.642522 89.187122 
L 301.704145 89.585381 
L 304.086464 89.611522 
L 304.498788 89.55347 
L 305.644134 89.320226 
L 306.697852 89.480363 
L 307.385059 89.732853 
L 308.392963 89.874291 
L 310.27133 89.805707 
L 311.416676 89.598292 
L 311.874814 89.43978 
L 312.607835 89.493662 
L 313.295043 89.667443 
L 314.990154 89.864121 
L 318.151308 89.615656 
L 318.746888 89.421025 
L 319.205026 89.430243 
L 320.854324 89.815043 
L 322.137111 89.809217 
L 325.11501 89.683772 
L 325.802217 89.418796 
L 326.443611 89.490627 
L 327.314074 89.608813 
L 329.696393 89.787778 
L 331.895456 89.601967 
L 332.90336 89.279515 
L 333.773823 89.448843 
L 334.964983 89.629153 
L 335.972887 89.418179 
L 338.492647 88.258022 
L 340.645897 86.849453 
L 341.653801 86.276315 
L 343.028216 85.2335 
L 348.480062 81.13427 
L 349.762849 80.54364 
L 352.099354 79.635672 
L 354.115162 79.114374 
L 355.535391 78.697719 
L 359.429566 78.016356 
L 360.07096 77.979716 
L 362.773975 77.274336 
L 363.461183 77.202308 
L 366.026757 77.035683 
L 366.713964 77.207428 
L 367.26373 77.137104 
L 368.958842 76.743847 
L 369.783491 76.643513 
L 369.783491 76.643513 
" clip-path="url(#pba0469690f)" style="fill: none; stroke: #008000; stroke-width: 0.75; stroke-linecap: round"/>
   </g>
   <g id="line2d_53">
    <path d="M 53.072508 82.973878 
L 53.668088 82.876446 
L 54.309481 82.583102 
L 55.179944 81.895309 
L 56.187848 80.879701 
L 57.837146 78.786768 
L 58.799236 77.590189 
L 59.761327 76.224276 
L 61.59388 73.488253 
L 63.792943 70.954297 
L 65.029917 69.989295 
L 65.992007 69.956912 
L 66.450145 69.617967 
L 68.557581 67.533552 
L 70.390134 66.839728 
L 71.443852 66.443802 
L 71.856177 66.404453 
L 72.864081 66.83119 
L 73.276405 66.639007 
L 74.513379 65.798025 
L 76.575001 65.136327 
L 78.590809 64.908752 
L 79.736155 65.959509 
L 80.148479 65.770229 
L 81.614522 64.808798 
L 82.805681 64.670968 
L 83.951027 64.647742 
L 85.142186 64.561222 
L 85.508697 64.660264 
L 86.74567 65.755921 
L 87.845202 66.069744 
L 88.440782 66.433801 
L 89.036362 67.011518 
L 89.586128 67.62432 
L 91.097984 69.971108 
L 92.884723 73.295604 
L 93.709372 74.853246 
L 95.35867 77.712936 
L 99.023776 84.85698 
L 101.039584 87.239424 
L 102.963765 89.237309 
L 104.70469 90.598554 
L 106.216547 91.389672 
L 106.720499 91.402899 
L 107.316079 91.681952 
L 107.820031 92.116761 
L 108.369797 92.532889 
L 109.469328 93.172538 
L 110.110722 93.44582 
L 110.56886 93.685941 
L 111.347695 94.000575 
L 112.951179 94.480037 
L 114.004897 94.251973 
L 114.554663 94.528124 
L 116.387216 95.470374 
L 119.273487 96.027159 
L 119.777439 95.949352 
L 120.831157 95.427497 
L 121.197668 95.580075 
L 123.030221 96.466018 
L 126.420444 96.858457 
L 126.878582 96.493616 
L 127.336721 96.235229 
L 127.749045 96.243741 
L 128.482066 96.648028 
L 129.215088 97.103625 
L 129.948109 97.277698 
L 130.772758 97.32895 
L 131.780662 97.373674 
L 133.338332 97.462197 
L 134.437864 96.793376 
L 134.758561 96.908144 
L 135.445768 97.256464 
L 136.453672 97.511346 
L 140.072965 97.754444 
L 140.347847 97.570546 
L 141.035055 96.985402 
L 141.447379 96.997293 
L 141.859704 97.218929 
L 142.959236 97.82687 
L 144.425278 97.893128 
L 145.249927 97.812903 
L 147.128294 97.654978 
L 148.090384 96.899881 
L 148.502709 96.952978 
L 149.098288 97.234274 
L 149.739682 97.502884 
L 151.159911 97.744683 
L 151.984559 97.765775 
L 154.091995 97.437494 
L 154.916644 96.825233 
L 155.283155 96.884664 
L 156.153618 97.255797 
L 156.795011 97.458219 
L 159.818724 97.33701 
L 160.826628 97.116113 
L 161.559649 96.523378 
L 162.063601 96.433035 
L 162.567553 96.587973 
L 163.575458 97.020456 
L 164.171037 97.035634 
L 164.949872 96.99475 
L 166.141032 96.930501 
L 167.103122 96.719497 
L 167.607074 96.358411 
L 168.75242 94.881391 
L 169.348 94.595152 
L 170.172649 94.102023 
L 170.90567 93.371772 
L 172.829851 90.909578 
L 174.708217 88.031072 
L 175.57868 86.615539 
L 179.930994 80.320264 
L 181.259595 78.979352 
L 182.130057 78.539416 
L 184.924701 76.245668 
L 186.71144 75.365155 
L 187.581903 74.928995 
L 188.177482 74.796519 
L 188.86469 74.891635 
L 189.322828 74.759011 
L 190.697243 73.784462 
L 191.567706 73.319262 
L 193.491886 72.620674 
L 194.957929 72.424992 
L 195.69095 72.60199 
L 196.240716 72.45624 
L 197.935827 71.685978 
L 198.668849 71.475316 
L 201.646747 71.184641 
L 202.150699 71.488147 
L 202.654652 71.702683 
L 203.204418 71.497806 
L 205.128598 70.712595 
L 205.907433 70.678862 
L 206.961151 70.615844 
L 207.923242 70.449579 
L 208.564635 70.389504 
L 209.618353 70.96077 
L 210.168119 70.77005 
L 211.405092 70.140228 
L 213.05439 69.90165 
L 214.520433 69.798614 
L 215.482523 69.810196 
L 216.123917 70.303134 
L 216.627869 70.304477 
L 217.544145 69.824779 
L 218.231353 69.501252 
L 219.010188 69.383108 
L 220.842741 69.321724 
L 221.621576 69.401483 
L 222.308783 69.421983 
L 223.133432 69.926452 
L 223.683198 69.755131 
L 224.645288 69.238198 
L 225.240868 69.142547 
L 229.08923 69.146288 
L 230.05132 69.84838 
L 230.41783 69.858742 
L 230.830155 69.777055 
L 232.479453 69.12539 
L 234.495261 69.121525 
L 236.052931 69.306363 
L 236.969208 69.884448 
L 237.518974 69.75453 
L 238.343622 69.348827 
L 239.076644 69.23018 
L 239.947106 69.236503 
L 241.825473 69.172951 
L 242.695936 69.362732 
L 243.978723 70.001441 
L 245.215696 69.60236 
L 246.544297 69.232197 
L 248.101968 69.267795 
L 249.109872 69.412587 
L 249.659638 69.54378 
L 250.071962 69.97118 
L 250.713356 70.462971 
L 251.217308 70.627255 
L 252.454281 71.04012 
L 252.912419 71.387057 
L 255.615435 74.364303 
L 263.266344 85.132829 
L 266.244243 87.485143 
L 267.160519 88.188563 
L 268.672376 88.970869 
L 270.367487 89.739359 
L 271.283764 89.751374 
L 272.337482 90.331785 
L 273.253758 90.825711 
L 276.781423 92.158419 
L 277.056306 92.135361 
L 277.926769 91.917134 
L 278.476535 92.176074 
L 279.163742 92.582987 
L 280.21746 92.982618 
L 282.508151 93.289788 
L 284.065821 93.290533 
L 284.569773 93.02396 
L 285.119539 93.069427 
L 287.181162 93.727196 
L 289.151156 94.113473 
L 289.655108 94.179364 
L 290.617199 94.156854 
L 291.304406 93.815745 
L 291.991613 93.753164 
L 292.449752 93.900186 
L 294.144863 94.629973 
L 295.610906 94.856524 
L 296.02323 94.871747 
L 297.122762 94.908414 
L 297.489273 94.902367 
L 298.726246 94.460757 
L 299.825778 94.749108 
L 300.833682 95.275967 
L 301.795772 95.383347 
L 302.208097 95.364552 
L 302.666235 95.33559 
L 303.353442 95.34281 
L 304.452974 95.361331 
L 305.506692 94.894051 
L 306.331341 94.933072 
L 306.926921 95.390623 
L 307.705756 95.779664 
L 308.163894 95.888669 
L 308.71366 95.92595 
L 311.095979 95.703917 
L 312.195511 95.060673 
L 312.470394 95.144465 
L 313.753181 95.645182 
L 314.211319 95.81207 
L 314.94434 95.917972 
L 316.272941 95.767682 
L 316.776894 95.861521 
L 317.326659 95.847119 
L 318.059681 95.556429 
L 318.517819 95.172455 
L 319.159213 95.088918 
L 320.991766 95.798188 
L 321.40409 95.76955 
L 322.503622 95.809792 
L 324.244547 95.746087 
L 325.023382 95.677031 
L 325.71059 95.108847 
L 326.122914 95.134015 
L 326.810122 95.343391 
L 327.680584 95.509161 
L 328.184536 95.730306 
L 328.596861 95.828748 
L 331.391504 95.555183 
L 331.758015 95.500178 
L 332.216153 95.15529 
L 332.811733 94.843552 
L 333.13243 94.873797 
L 333.682196 95.096293 
L 334.735914 95.471308 
L 335.148238 95.439372 
L 335.972887 95.087117 
L 338.355206 93.131034 
L 340.508456 90.485429 
L 341.88287 89.011873 
L 348.021923 80.306965 
L 349.075641 79.276343 
L 350.954008 77.763224 
L 351.732843 77.258483 
L 352.465864 76.954266 
L 353.702838 76.389409 
L 354.939811 75.601024 
L 357.871896 74.284335 
L 359.200497 74.004584 
L 359.933518 74.066471 
L 361.674444 73.174741 
L 362.132582 72.958869 
L 363.415369 72.575804 
L 363.965135 72.430594 
L 365.70606 72.13294 
L 365.980943 72.235788 
L 366.713964 72.581893 
L 367.126289 72.518777 
L 367.584427 72.258494 
L 368.225821 71.955381 
L 369.783491 71.542561 
L 369.783491 71.542561 
" clip-path="url(#pba0469690f)" style="fill: none; stroke: #ff0000; stroke-width: 0.75; stroke-linecap: round"/>
   </g>
   <g id="patch_6">
    <path d="M 37.236959 99.588306 
L 37.236959 62.893266 
" style="fill: none; stroke: #000000; stroke-linejoin: miter; stroke-linecap: square"/>
   </g>
   <g id="patch_7">
    <path d="M 37.236959 99.588306 
L 385.61904 99.588306 
" style="fill: none; stroke: #000000; stroke-linejoin: miter; stroke-linecap: square"/>
   </g>
  </g>
  <g id="axes_3">
   <g id="patch_8">
    <path d="M 37.236959 145.629179 
L 385.61904 145.629179 
L 385.61904 108.934138 
L 37.236959 108.934138 
z
" style="fill: #ffffff"/>
   </g>
   <g id="matplotlib.axis_5">
    <g id="xtick_17">
     <g id="line2d_54">
      <path d="M 53.072508 145.629179 
L 53.072508 108.934138 
" clip-path="url(#p56ee55b599)" style="fill: none; stroke: #b0b0b0; stroke-width: 0.1; stroke-linecap: round"/>
     </g>
     <g id="line2d_55"/>
    </g>
    <g id="xtick_18">
     <g id="line2d_56">
      <path d="M 99.195358 145.629179 
L 99.195358 108.934138 
" clip-path="url(#p56ee55b599)" style="fill: none; stroke: #b0b0b0; stroke-width: 0.1; stroke-linecap: round"/>
     </g>
     <g id="line2d_57"/>
    </g>
    <g id="xtick_19">
     <g id="line2d_58">
      <path d="M 145.318207 145.629179 
L 145.318207 108.934138 
" clip-path="url(#p56ee55b599)" style="fill: none; stroke: #b0b0b0; stroke-width: 0.1; stroke-linecap: round"/>
     </g>
     <g id="line2d_59"/>
    </g>
    <g id="xtick_20">
     <g id="line2d_60">
      <path d="M 191.441057 145.629179 
L 191.441057 108.934138 
" clip-path="url(#p56ee55b599)" style="fill: none; stroke: #b0b0b0; stroke-width: 0.1; stroke-linecap: round"/>
     </g>
     <g id="line2d_61"/>
    </g>
    <g id="xtick_21">
     <g id="line2d_62">
      <path d="M 237.563906 145.629179 
L 237.563906 108.934138 
" clip-path="url(#p56ee55b599)" style="fill: none; stroke: #b0b0b0; stroke-width: 0.1; stroke-linecap: round"/>
     </g>
     <g id="line2d_63"/>
    </g>
    <g id="xtick_22">
     <g id="line2d_64">
      <path d="M 283.686756 145.629179 
L 283.686756 108.934138 
" clip-path="url(#p56ee55b599)" style="fill: none; stroke: #b0b0b0; stroke-width: 0.1; stroke-linecap: round"/>
     </g>
     <g id="line2d_65"/>
    </g>
    <g id="xtick_23">
     <g id="line2d_66">
      <path d="M 329.809606 145.629179 
L 329.809606 108.934138 
" clip-path="url(#p56ee55b599)" style="fill: none; stroke: #b0b0b0; stroke-width: 0.1; stroke-linecap: round"/>
     </g>
     <g id="line2d_67"/>
    </g>
    <g id="xtick_24">
     <g id="line2d_68">
      <path d="M 375.932455 145.629179 
L 375.932455 108.934138 
" clip-path="url(#p56ee55b599)" style="fill: none; stroke: #b0b0b0; stroke-width: 0.1; stroke-linecap: round"/>
     </g>
     <g id="line2d_69"/>
    </g>
   </g>
   <g id="matplotlib.axis_6">
    <g id="ytick_7">
     <g id="line2d_70">
      <path d="M 37.236959 143.684006 
L 385.61904 143.684006 
" clip-path="url(#p56ee55b599)" style="fill: none; stroke: #b0b0b0; stroke-width: 0.1; stroke-linecap: round"/>
     </g>
     <g id="line2d_71"/>
     <g id="text_12">
      <!-- −50 -->
      <g style="fill: #262626" transform="translate(14.74274 147.103303) scale(0.09 -0.09)">
       <use xlink:href="#DejaVuSerif-2212"/>
       <use xlink:href="#DejaVuSerif-35" x="83.789062"/>
       <use xlink:href="#DejaVuSerif-30" x="147.412109"/>
      </g>
     </g>
    </g>
    <g id="ytick_8">
     <g id="line2d_72">
      <path d="M 37.236959 128.734861 
L 385.61904 128.734861 
" clip-path="url(#p56ee55b599)" style="fill: none; stroke: #b0b0b0; stroke-width: 0.1; stroke-linecap: round"/>
     </g>
     <g id="line2d_73"/>
     <g id="text_13">
      <!-- 0 -->
      <g style="fill: #262626" transform="translate(28.010709 132.154158) scale(0.09 -0.09)">
       <use xlink:href="#DejaVuSerif-30"/>
      </g>
     </g>
    </g>
    <g id="ytick_9">
     <g id="line2d_74">
      <path d="M 37.236959 113.785716 
L 385.61904 113.785716 
" clip-path="url(#p56ee55b599)" style="fill: none; stroke: #b0b0b0; stroke-width: 0.1; stroke-linecap: round"/>
     </g>
     <g id="line2d_75"/>
     <g id="text_14">
      <!-- 50 -->
      <g style="fill: #262626" transform="translate(22.284459 117.205013) scale(0.09 -0.09)">
       <use xlink:href="#DejaVuSerif-35"/>
       <use xlink:href="#DejaVuSerif-30" x="63.623047"/>
      </g>
     </g>
    </g>
    <g id="text_15">
     <!-- $Y_H(v)$ -->
     <g style="fill: #262626" transform="translate(9.07899 137.441659) rotate(-90) scale(0.08 -0.08)">
      <defs>
       <path id="DejaVuSans-Oblique-59" d="M 403 4666 
L 1081 4666 
L 1953 2747 
L 3616 4666 
L 4325 4666 
L 2209 2222 
L 1778 0 
L 1147 0 
L 1575 2222 
L 403 4666 
z
" transform="scale(0.015625)"/>
      </defs>
      <use xlink:href="#DejaVuSans-Oblique-59" transform="translate(0 0.125)"/>
      <use xlink:href="#DejaVuSans-Oblique-48" transform="translate(61.083984 -16.28125) scale(0.7)"/>
      <use xlink:href="#DejaVuSans-28" transform="translate(116.455078 0.125)"/>
      <use xlink:href="#DejaVuSans-Oblique-76" transform="translate(155.46875 0.125)"/>
      <use xlink:href="#DejaVuSans-29" transform="translate(214.648438 0.125)"/>
     </g>
    </g>
   </g>
   <g id="line2d_76">
    <path d="M 53.072508 128.73101 
L 55.638082 128.822405 
L 58.890864 129.264483 
L 67.137353 130.66982 
L 70.481762 131.415634 
L 72.405943 131.566579 
L 73.780357 131.642778 
L 75.704538 132.029472 
L 78.132671 132.43544 
L 79.094761 132.453587 
L 80.240107 132.437369 
L 81.935219 132.734071 
L 83.355447 132.870455 
L 86.883112 132.893301 
L 88.440782 133.002709 
L 90.273335 133.023521 
L 92.105888 132.803086 
L 92.884723 132.590277 
L 94.030069 132.310433 
L 96.870526 131.852557 
L 99.298659 131.128253 
L 100.947957 130.661722 
L 104.475621 129.892853 
L 111.439323 128.323822 
L 121.518365 126.834644 
L 133.246704 125.579476 
L 136.362045 125.404728 
L 139.019247 125.170388 
L 141.355752 125.194733 
L 142.821794 125.069317 
L 145.112485 124.822976 
L 147.586432 124.832026 
L 148.731778 124.904099 
L 154.595948 124.641239 
L 155.649666 124.664624 
L 160.276862 124.443901 
L 161.513835 124.56965 
L 162.659181 124.613301 
L 167.332191 124.377264 
L 168.019399 124.514226 
L 169.164744 124.736342 
L 171.043111 124.796997 
L 173.608686 124.994942 
L 175.028914 125.307892 
L 176.311701 125.612945 
L 179.381228 126.255071 
L 183.00052 127.070486 
L 185.474467 127.524376 
L 189.139573 128.303668 
L 194.453977 129.165908 
L 201.509306 130.137689 
L 209.160215 130.849343 
L 210.488816 130.936748 
L 215.528337 131.382036 
L 217.452518 131.430772 
L 220.980182 131.801834 
L 225.928075 132.017205 
L 228.539464 132.182135 
L 229.913878 132.102658 
L 231.059224 132.103859 
L 234.220378 132.383132 
L 236.419442 132.349782 
L 237.748043 132.289425 
L 242.970819 132.519285 
L 244.345234 132.414723 
L 246.910808 132.652089 
L 248.331037 132.684582 
L 250.484287 132.529124 
L 251.629632 132.473257 
L 254.24102 132.388825 
L 257.173105 131.987919 
L 258.639148 131.765771 
L 261.06728 131.377524 
L 265.602849 130.351212 
L 268.12261 129.96666 
L 274.857242 128.724132 
L 284.065821 127.46465 
L 286.127444 127.32609 
L 291.258592 126.826604 
L 293.228587 126.650123 
L 296.114858 126.331297 
L 303.903208 125.795045 
L 304.911112 125.813828 
L 306.422969 125.845731 
L 311.141793 125.451239 
L 313.340857 125.44606 
L 315.814803 125.235877 
L 320.350372 125.197029 
L 322.228739 125.044614 
L 325.298265 125.043718 
L 326.397797 125.132836 
L 328.184536 124.956667 
L 329.604765 124.866657 
L 331.803829 124.907796 
L 334.09452 124.969737 
L 335.606376 124.834014 
L 337.255674 124.891933 
L 342.386823 125.459296 
L 344.356817 125.732566 
L 346.280998 126.270662 
L 347.792854 126.588827 
L 364.240018 129.374259 
L 369.783491 130.083949 
L 369.783491 130.083949 
" clip-path="url(#p56ee55b599)" style="fill: none; stroke: #0000ff; stroke-width: 0.75; stroke-linecap: round"/>
   </g>
   <g id="line2d_77">
    <path d="M 53.072508 128.73058 
L 55.500641 128.817187 
L 58.020401 129.196731 
L 60.723417 129.710057 
L 63.334805 130.185846 
L 67.320608 130.939684 
L 70.252693 131.680534 
L 72.360129 131.883234 
L 73.780357 131.967123 
L 75.521283 132.353548 
L 77.857788 132.801005 
L 78.95732 132.882144 
L 80.240107 132.850341 
L 81.751963 133.146782 
L 83.26382 133.326196 
L 86.150091 133.402366 
L 87.203809 133.370359 
L 90.777287 133.45967 
L 92.380771 133.198613 
L 94.579835 132.64653 
L 96.229133 132.359346 
L 97.924244 131.866286 
L 101.131212 130.837823 
L 103.971669 130.158667 
L 111.76002 128.223439 
L 116.616285 127.265226 
L 118.494652 126.919157 
L 120.418833 126.713093 
L 121.930689 126.563235 
L 126.878582 125.907551 
L 128.482066 125.800301 
L 132.422055 125.283503 
L 134.39205 125.281684 
L 135.491582 125.163396 
L 138.469481 124.802443 
L 140.760172 124.765092 
L 141.81389 124.787413 
L 143.37156 124.57039 
L 144.975044 124.394376 
L 147.540618 124.389087 
L 148.731778 124.476821 
L 151.205724 124.192737 
L 153.725485 124.069769 
L 154.458506 124.165672 
L 155.603852 124.214293 
L 160.093607 123.965448 
L 161.422208 124.089528 
L 162.430112 124.16719 
L 163.941968 123.981702 
L 166.141032 123.840156 
L 167.79033 123.97209 
L 169.302186 124.300267 
L 174.341707 124.701461 
L 184.008424 127.042526 
L 186.11586 127.556915 
L 189.506083 128.329444 
L 194.957929 129.295738 
L 202.883721 130.380809 
L 205.357667 130.714177 
L 209.206029 131.084493 
L 210.397188 131.169805 
L 214.108108 131.582061 
L 216.215544 131.649027 
L 217.269262 131.708418 
L 222.171342 132.187173 
L 225.424123 132.318264 
L 228.035512 132.54093 
L 229.638995 132.512169 
L 230.875969 132.459514 
L 235.640607 132.821475 
L 236.419442 132.752986 
L 237.702229 132.681922 
L 242.421053 132.981577 
L 243.520585 132.858656 
L 244.528489 132.833443 
L 246.590111 133.053526 
L 248.147781 133.12744 
L 250.16359 133.011568 
L 251.263122 132.887591 
L 255.844504 132.632886 
L 257.906126 132.198247 
L 262.212626 131.332138 
L 265.831918 130.502098 
L 268.534934 130.010839 
L 273.528641 128.941645 
L 283.790938 127.336927 
L 287.226975 126.998952 
L 290.15906 126.659103 
L 294.373932 126.248073 
L 296.98532 126.009867 
L 298.542991 126.017206 
L 300.100661 125.879786 
L 302.48298 125.565056 
L 305.323437 125.512287 
L 306.835293 125.45496 
L 309.034357 125.146769 
L 311.508303 125.124054 
L 312.699463 125.148315 
L 317.189218 124.785739 
L 318.380377 124.857066 
L 319.479909 124.907447 
L 325.252451 124.623409 
L 326.397797 124.731071 
L 328.092909 124.549975 
L 329.284068 124.452226 
L 330.750111 124.460455 
L 332.445222 124.584274 
L 333.315685 124.643886 
L 334.552658 124.482516 
L 336.110328 124.390437 
L 338.217764 124.579279 
L 339.225669 124.817272 
L 340.416828 124.997187 
L 344.540072 125.442262 
L 346.235184 125.980385 
L 347.472157 126.284987 
L 360.941422 128.894164 
L 369.783491 130.234424 
L 369.783491 130.234424 
" clip-path="url(#p56ee55b599)" style="fill: none; stroke: #008000; stroke-width: 0.75; stroke-linecap: round"/>
   </g>
   <g id="line2d_78">
    <path d="M 53.072508 128.725002 
L 54.859247 128.799629 
L 56.09622 129.089584 
L 58.799236 130.056634 
L 59.990396 130.603095 
L 62.143646 131.611048 
L 67.183166 133.718051 
L 69.611299 135.273161 
L 71.53548 135.944347 
L 72.176874 135.998001 
L 73.322219 136.04267 
L 74.192682 136.354527 
L 78.178485 138.223156 
L 78.819878 138.311409 
L 80.194293 138.199719 
L 80.973128 138.532711 
L 82.393357 139.131106 
L 83.859399 139.374338 
L 85.325442 139.644235 
L 85.737766 139.609405 
L 86.837298 139.380552 
L 87.570319 139.473689 
L 89.448686 139.779584 
L 90.685659 139.63758 
L 91.64775 139.310082 
L 92.60984 138.83839 
L 93.755186 137.987245 
L 94.625649 137.731937 
L 95.679367 137.336955 
L 96.91634 136.685958 
L 98.611451 135.424626 
L 101.22284 133.535829 
L 103.009579 132.602998 
L 109.423515 128.650635 
L 111.897461 127.499702 
L 116.249775 125.564303 
L 117.532562 124.926193 
L 119.731626 124.140569 
L 122.068131 123.680905 
L 125.229285 122.55786 
L 127.016024 122.223051 
L 128.023928 122.110615 
L 128.894391 121.807336 
L 130.68113 121.133278 
L 132.513683 120.772442 
L 133.659029 120.699784 
L 134.621119 120.76972 
L 135.491582 120.50998 
L 137.553204 119.878153 
L 140.027151 119.470986 
L 140.576917 119.540478 
L 141.401565 119.671498 
L 142.180401 119.559218 
L 145.662251 118.669131 
L 147.357363 118.661075 
L 148.502709 118.946184 
L 149.144102 118.848643 
L 152.030373 118.141214 
L 153.404788 118.007981 
L 154.137809 118.082777 
L 155.145713 118.354264 
L 155.832921 118.2794 
L 158.994075 117.736227 
L 161.193139 117.941685 
L 162.109415 118.214622 
L 162.750809 118.167478 
L 165.911963 117.46572 
L 167.011495 117.528327 
L 167.698702 117.709891 
L 169.164744 118.499411 
L 169.897766 118.560619 
L 172.051015 118.772662 
L 173.42543 119.106462 
L 174.387521 119.472965 
L 175.028914 119.962469 
L 175.899377 120.548916 
L 177.090536 121.024333 
L 178.098441 121.508716 
L 182.908892 124.442021 
L 184.787259 125.226601 
L 189.689339 127.883454 
L 193.858397 129.606504 
L 196.149088 130.409 
L 198.302338 131.289504 
L 200.501402 132.054522 
L 203.066976 132.564502 
L 204.349763 132.953761 
L 207.144407 133.762845 
L 209.022773 134.153836 
L 209.93905 134.22093 
L 211.13021 134.57331 
L 212.642066 135.003201 
L 215.574151 135.507551 
L 216.994379 135.509873 
L 218.185539 135.909379 
L 219.697395 136.397079 
L 221.850645 136.650459 
L 222.583666 136.632429 
L 223.683198 136.504192 
L 224.599475 136.731191 
L 226.157145 137.197898 
L 227.623187 137.438162 
L 229.272485 137.54164 
L 230.601086 137.282645 
L 231.196666 137.398281 
L 233.533171 138.005882 
L 236.007117 138.12518 
L 237.610601 137.812097 
L 238.297809 137.997264 
L 239.351527 138.271668 
L 241.779659 138.543549 
L 242.833377 138.46637 
L 244.207792 138.148934 
L 245.169883 138.294314 
L 247.552202 138.833732 
L 250.026148 138.64517 
L 250.942425 138.329882 
L 251.812887 138.318797 
L 253.049861 138.328518 
L 255.294738 137.882567 
L 256.623339 137.397515 
L 257.768685 136.764422 
L 258.822403 136.444345 
L 260.563328 135.819402 
L 261.754488 135.022558 
L 263.128903 134.18303 
L 264.090993 133.518213 
L 264.961456 133.067017 
L 268.672376 131.597999 
L 272.520737 129.632149 
L 275.132125 128.606168 
L 284.111635 125.481733 
L 285.348609 125.363161 
L 286.631396 124.949967 
L 288.418135 124.374219 
L 290.937895 123.873503 
L 292.174869 123.723809 
L 293.549283 123.279646 
L 295.839975 122.62242 
L 297.809969 122.412428 
L 298.955315 122.441571 
L 299.871592 122.254243 
L 302.070655 121.513595 
L 304.223905 121.16193 
L 304.911112 121.257571 
L 305.873203 121.370048 
L 306.422969 121.339237 
L 307.201804 121.013203 
L 308.301336 120.589222 
L 309.813192 120.377471 
L 311.187607 120.334756 
L 312.653649 120.484318 
L 314.028064 120.099115 
L 314.94434 119.840673 
L 317.876425 119.636 
L 319.663165 119.889027 
L 320.487813 119.631251 
L 321.449904 119.385621 
L 322.457808 119.267274 
L 324.656872 119.13031 
L 325.069196 119.192483 
L 326.031286 119.506852 
L 326.718494 119.464975 
L 329.833834 118.818717 
L 332.032898 119.008025 
L 333.040802 119.319822 
L 333.682196 119.249541 
L 336.018701 118.727598 
L 337.026605 118.832251 
L 338.675903 119.373672 
L 340.096131 120.066935 
L 341.195663 120.185267 
L 342.890775 120.457336 
L 343.990307 120.855855 
L 345.410535 121.702336 
L 346.922391 122.816387 
L 349.029827 123.773642 
L 355.947715 127.095337 
L 358.696545 128.364395 
L 366.484895 131.11983 
L 367.905124 131.530801 
L 369.783491 132.188269 
L 369.783491 132.188269 
" clip-path="url(#p56ee55b599)" style="fill: none; stroke: #ff0000; stroke-width: 0.75; stroke-linecap: round"/>
   </g>
   <g id="patch_9">
    <path d="M 37.236959 145.629179 
L 37.236959 108.934138 
" style="fill: none; stroke: #000000; stroke-linejoin: miter; stroke-linecap: square"/>
   </g>
   <g id="patch_10">
    <path d="M 37.236959 145.629179 
L 385.61904 145.629179 
" style="fill: none; stroke: #000000; stroke-linejoin: miter; stroke-linecap: square"/>
   </g>
  </g>
  <g id="axes_4">
   <g id="patch_11">
    <path d="M 37.236959 191.670051 
L 385.61904 191.670051 
L 385.61904 154.975011 
L 37.236959 154.975011 
z
" style="fill: #ffffff"/>
   </g>
   <g id="matplotlib.axis_7">
    <g id="xtick_25">
     <g id="line2d_79">
      <path d="M 53.072508 191.670051 
L 53.072508 154.975011 
" clip-path="url(#p1f5902fa8b)" style="fill: none; stroke: #b0b0b0; stroke-width: 0.1; stroke-linecap: round"/>
     </g>
     <g id="line2d_80"/>
     <g id="text_16">
      <!-- 0 -->
      <g style="fill: #262626" transform="translate(50.209383 202.008645) scale(0.09 -0.09)">
       <use xlink:href="#DejaVuSerif-30"/>
      </g>
     </g>
    </g>
    <g id="xtick_26">
     <g id="line2d_81">
      <path d="M 99.195358 191.670051 
L 99.195358 154.975011 
" clip-path="url(#p1f5902fa8b)" style="fill: none; stroke: #b0b0b0; stroke-width: 0.1; stroke-linecap: round"/>
     </g>
     <g id="line2d_82"/>
     <g id="text_17">
      <!-- 10 -->
      <g style="fill: #262626" transform="translate(93.469108 202.008645) scale(0.09 -0.09)">
       <defs>
        <path id="DejaVuSerif-31" d="M 909 0 
L 909 331 
L 1722 331 
L 1722 4213 
L 781 3603 
L 781 4013 
L 1919 4750 
L 2350 4750 
L 2350 331 
L 3163 331 
L 3163 0 
L 909 0 
z
" transform="scale(0.015625)"/>
       </defs>
       <use xlink:href="#DejaVuSerif-31"/>
       <use xlink:href="#DejaVuSerif-30" x="63.623047"/>
      </g>
     </g>
    </g>
    <g id="xtick_27">
     <g id="line2d_83">
      <path d="M 145.318207 191.670051 
L 145.318207 154.975011 
" clip-path="url(#p1f5902fa8b)" style="fill: none; stroke: #b0b0b0; stroke-width: 0.1; stroke-linecap: round"/>
     </g>
     <g id="line2d_84"/>
     <g id="text_18">
      <!-- 20 -->
      <g style="fill: #262626" transform="translate(139.591957 202.008645) scale(0.09 -0.09)">
       <defs>
        <path id="DejaVuSerif-32" d="M 819 3553 
L 469 3553 
L 469 4384 
Q 803 4563 1142 4656 
Q 1481 4750 1806 4750 
Q 2534 4750 2956 4397 
Q 3378 4044 3378 3438 
Q 3378 2753 2422 1800 
Q 2347 1728 2309 1691 
L 1131 513 
L 3078 513 
L 3078 1088 
L 3444 1088 
L 3444 0 
L 434 0 
L 434 341 
L 1850 1753 
Q 2319 2222 2519 2614 
Q 2719 3006 2719 3438 
Q 2719 3909 2473 4175 
Q 2228 4441 1797 4441 
Q 1350 4441 1106 4219 
Q 863 3997 819 3553 
z
" transform="scale(0.015625)"/>
       </defs>
       <use xlink:href="#DejaVuSerif-32"/>
       <use xlink:href="#DejaVuSerif-30" x="63.623047"/>
      </g>
     </g>
    </g>
    <g id="xtick_28">
     <g id="line2d_85">
      <path d="M 191.441057 191.670051 
L 191.441057 154.975011 
" clip-path="url(#p1f5902fa8b)" style="fill: none; stroke: #b0b0b0; stroke-width: 0.1; stroke-linecap: round"/>
     </g>
     <g id="line2d_86"/>
     <g id="text_19">
      <!-- 30 -->
      <g style="fill: #262626" transform="translate(185.714807 202.008645) scale(0.09 -0.09)">
       <defs>
        <path id="DejaVuSerif-33" d="M 622 4469 
Q 988 4606 1323 4678 
Q 1659 4750 1953 4750 
Q 2638 4750 3022 4454 
Q 3406 4159 3406 3634 
Q 3406 3213 3140 2930 
Q 2875 2647 2388 2547 
Q 2963 2466 3280 2130 
Q 3597 1794 3597 1259 
Q 3597 606 3158 257 
Q 2719 -91 1894 -91 
Q 1528 -91 1179 -12 
Q 831 66 488 225 
L 488 1131 
L 838 1131 
Q 869 681 1141 450 
Q 1413 219 1906 219 
Q 2384 219 2661 495 
Q 2938 772 2938 1253 
Q 2938 1803 2653 2086 
Q 2369 2369 1819 2369 
L 1522 2369 
L 1522 2688 
L 1678 2688 
Q 2225 2688 2498 2914 
Q 2772 3141 2772 3597 
Q 2772 4006 2547 4223 
Q 2322 4441 1900 4441 
Q 1478 4441 1245 4241 
Q 1013 4041 972 3647 
L 622 3647 
L 622 4469 
z
" transform="scale(0.015625)"/>
       </defs>
       <use xlink:href="#DejaVuSerif-33"/>
       <use xlink:href="#DejaVuSerif-30" x="63.623047"/>
      </g>
     </g>
    </g>
    <g id="xtick_29">
     <g id="line2d_87">
      <path d="M 237.563906 191.670051 
L 237.563906 154.975011 
" clip-path="url(#p1f5902fa8b)" style="fill: none; stroke: #b0b0b0; stroke-width: 0.1; stroke-linecap: round"/>
     </g>
     <g id="line2d_88"/>
     <g id="text_20">
      <!-- 40 -->
      <g style="fill: #262626" transform="translate(231.837656 202.008645) scale(0.09 -0.09)">
       <defs>
        <path id="DejaVuSerif-34" d="M 2234 1581 
L 2234 4063 
L 641 1581 
L 2234 1581 
z
M 3609 0 
L 1484 0 
L 1484 331 
L 2234 331 
L 2234 1247 
L 197 1247 
L 197 1588 
L 2241 4750 
L 2859 4750 
L 2859 1581 
L 3750 1581 
L 3750 1247 
L 2859 1247 
L 2859 331 
L 3609 331 
L 3609 0 
z
" transform="scale(0.015625)"/>
       </defs>
       <use xlink:href="#DejaVuSerif-34"/>
       <use xlink:href="#DejaVuSerif-30" x="63.623047"/>
      </g>
     </g>
    </g>
    <g id="xtick_30">
     <g id="line2d_89">
      <path d="M 283.686756 191.670051 
L 283.686756 154.975011 
" clip-path="url(#p1f5902fa8b)" style="fill: none; stroke: #b0b0b0; stroke-width: 0.1; stroke-linecap: round"/>
     </g>
     <g id="line2d_90"/>
     <g id="text_21">
      <!-- 50 -->
      <g style="fill: #262626" transform="translate(277.960506 202.008645) scale(0.09 -0.09)">
       <use xlink:href="#DejaVuSerif-35"/>
       <use xlink:href="#DejaVuSerif-30" x="63.623047"/>
      </g>
     </g>
    </g>
    <g id="xtick_31">
     <g id="line2d_91">
      <path d="M 329.809606 191.670051 
L 329.809606 154.975011 
" clip-path="url(#p1f5902fa8b)" style="fill: none; stroke: #b0b0b0; stroke-width: 0.1; stroke-linecap: round"/>
     </g>
     <g id="line2d_92"/>
     <g id="text_22">
      <!-- 60 -->
      <g style="fill: #262626" transform="translate(324.083356 202.008645) scale(0.09 -0.09)">
       <defs>
        <path id="DejaVuSerif-36" d="M 2094 219 
Q 2534 219 2771 542 
Q 3009 866 3009 1472 
Q 3009 2078 2771 2401 
Q 2534 2725 2094 2725 
Q 1647 2725 1412 2412 
Q 1178 2100 1178 1509 
Q 1178 888 1415 553 
Q 1653 219 2094 219 
z
M 1075 2569 
Q 1288 2803 1556 2918 
Q 1825 3034 2163 3034 
Q 2859 3034 3264 2615 
Q 3669 2197 3669 1472 
Q 3669 763 3233 336 
Q 2797 -91 2069 -91 
Q 1278 -91 853 498 
Q 428 1088 428 2181 
Q 428 3406 931 4078 
Q 1434 4750 2350 4750 
Q 2597 4750 2869 4703 
Q 3141 4656 3425 4563 
L 3425 3794 
L 3072 3794 
Q 3034 4109 2831 4275 
Q 2628 4441 2284 4441 
Q 1678 4441 1381 3981 
Q 1084 3522 1075 2569 
z
" transform="scale(0.015625)"/>
       </defs>
       <use xlink:href="#DejaVuSerif-36"/>
       <use xlink:href="#DejaVuSerif-30" x="63.623047"/>
      </g>
     </g>
    </g>
    <g id="xtick_32">
     <g id="line2d_93">
      <path d="M 375.932455 191.670051 
L 375.932455 154.975011 
" clip-path="url(#p1f5902fa8b)" style="fill: none; stroke: #b0b0b0; stroke-width: 0.1; stroke-linecap: round"/>
     </g>
     <g id="line2d_94"/>
     <g id="text_23">
      <!-- 70 -->
      <g style="fill: #262626" transform="translate(370.206205 202.008645) scale(0.09 -0.09)">
       <defs>
        <path id="DejaVuSerif-37" d="M 3609 4347 
L 1784 0 
L 1319 0 
L 3059 4153 
L 903 4153 
L 903 3578 
L 538 3578 
L 538 4666 
L 3609 4666 
L 3609 4347 
z
" transform="scale(0.015625)"/>
       </defs>
       <use xlink:href="#DejaVuSerif-37"/>
       <use xlink:href="#DejaVuSerif-30" x="63.623047"/>
      </g>
     </g>
    </g>
    <g id="text_24">
     <!-- Time [s] -->
     <g style="fill: #262626" transform="translate(194.874874 213.959114) scale(0.08 -0.08)">
      <defs>
       <path id="DejaVuSerif-54" d="M 1222 0 
L 1222 331 
L 1819 331 
L 1819 4294 
L 447 4294 
L 447 3566 
L 63 3566 
L 63 4666 
L 4206 4666 
L 4206 3566 
L 3822 3566 
L 3822 4294 
L 2450 4294 
L 2450 331 
L 3047 331 
L 3047 0 
L 1222 0 
z
" transform="scale(0.015625)"/>
       <path id="DejaVuSerif-69" d="M 622 4353 
Q 622 4497 726 4603 
Q 831 4709 978 4709 
Q 1122 4709 1226 4603 
Q 1331 4497 1331 4353 
Q 1331 4206 1228 4103 
Q 1125 4000 978 4000 
Q 831 4000 726 4103 
Q 622 4206 622 4353 
z
M 1356 331 
L 1900 331 
L 1900 0 
L 231 0 
L 231 331 
L 781 331 
L 781 2988 
L 231 2988 
L 231 3322 
L 1356 3322 
L 1356 331 
z
" transform="scale(0.015625)"/>
       <path id="DejaVuSerif-6d" d="M 3316 2675 
Q 3481 3041 3739 3227 
Q 3997 3413 4341 3413 
Q 4863 3413 5119 3089 
Q 5375 2766 5375 2113 
L 5375 331 
L 5894 331 
L 5894 0 
L 4300 0 
L 4300 331 
L 4800 331 
L 4800 2047 
Q 4800 2556 4650 2772 
Q 4500 2988 4153 2988 
Q 3769 2988 3567 2697 
Q 3366 2406 3366 1850 
L 3366 331 
L 3866 331 
L 3866 0 
L 2291 0 
L 2291 331 
L 2791 331 
L 2791 2069 
Q 2791 2566 2641 2777 
Q 2491 2988 2144 2988 
Q 1759 2988 1557 2697 
Q 1356 2406 1356 1850 
L 1356 331 
L 1856 331 
L 1856 0 
L 263 0 
L 263 331 
L 781 331 
L 781 2994 
L 231 2994 
L 231 3322 
L 1356 3322 
L 1356 2731 
Q 1516 3063 1762 3238 
Q 2009 3413 2322 3413 
Q 2709 3413 2968 3220 
Q 3228 3028 3316 2675 
z
" transform="scale(0.015625)"/>
       <path id="DejaVuSerif-20" transform="scale(0.015625)"/>
       <path id="DejaVuSerif-5b" d="M 550 4863 
L 2003 4863 
L 2003 4531 
L 1147 4531 
L 1147 -513 
L 2003 -513 
L 2003 -844 
L 550 -844 
L 550 4863 
z
" transform="scale(0.015625)"/>
       <path id="DejaVuSerif-73" d="M 359 184 
L 359 959 
L 691 959 
Q 703 588 923 403 
Q 1144 219 1575 219 
Q 1963 219 2166 364 
Q 2369 509 2369 788 
Q 2369 1006 2220 1140 
Q 2072 1275 1594 1428 
L 1178 1569 
Q 750 1706 558 1912 
Q 366 2119 366 2438 
Q 366 2894 700 3153 
Q 1034 3413 1625 3413 
Q 1888 3413 2178 3344 
Q 2469 3275 2778 3144 
L 2778 2419 
L 2447 2419 
Q 2434 2741 2221 2922 
Q 2009 3103 1644 3103 
Q 1281 3103 1095 2975 
Q 909 2847 909 2591 
Q 909 2381 1050 2254 
Q 1191 2128 1613 1997 
L 2069 1856 
Q 2541 1709 2748 1489 
Q 2956 1269 2956 922 
Q 2956 450 2595 179 
Q 2234 -91 1600 -91 
Q 1278 -91 972 -22 
Q 666 47 359 184 
z
" transform="scale(0.015625)"/>
       <path id="DejaVuSerif-5d" d="M 1947 4863 
L 1947 -844 
L 494 -844 
L 494 -513 
L 1350 -513 
L 1350 4531 
L 494 4531 
L 494 4863 
L 1947 4863 
z
" transform="scale(0.015625)"/>
      </defs>
      <use xlink:href="#DejaVuSerif-54"/>
      <use xlink:href="#DejaVuSerif-69" x="66.699219"/>
      <use xlink:href="#DejaVuSerif-6d" x="98.681641"/>
      <use xlink:href="#DejaVuSerif-65" x="193.505859"/>
      <use xlink:href="#DejaVuSerif-20" x="252.685547"/>
      <use xlink:href="#DejaVuSerif-5b" x="284.472656"/>
      <use xlink:href="#DejaVuSerif-73" x="323.486328"/>
      <use xlink:href="#DejaVuSerif-5d" x="374.804688"/>
     </g>
    </g>
   </g>
   <g id="matplotlib.axis_8">
    <g id="ytick_10">
     <g id="line2d_95">
      <path d="M 37.236959 189.724879 
L 385.61904 189.724879 
" clip-path="url(#p1f5902fa8b)" style="fill: none; stroke: #b0b0b0; stroke-width: 0.1; stroke-linecap: round"/>
     </g>
     <g id="line2d_96"/>
     <g id="text_25">
      <!-- −50 -->
      <g style="fill: #262626" transform="translate(14.74274 193.144176) scale(0.09 -0.09)">
       <use xlink:href="#DejaVuSerif-2212"/>
       <use xlink:href="#DejaVuSerif-35" x="83.789062"/>
       <use xlink:href="#DejaVuSerif-30" x="147.412109"/>
      </g>
     </g>
    </g>
    <g id="ytick_11">
     <g id="line2d_97">
      <path d="M 37.236959 174.775734 
L 385.61904 174.775734 
" clip-path="url(#p1f5902fa8b)" style="fill: none; stroke: #b0b0b0; stroke-width: 0.1; stroke-linecap: round"/>
     </g>
     <g id="line2d_98"/>
     <g id="text_26">
      <!-- 0 -->
      <g style="fill: #262626" transform="translate(28.010709 178.195031) scale(0.09 -0.09)">
       <use xlink:href="#DejaVuSerif-30"/>
      </g>
     </g>
    </g>
    <g id="ytick_12">
     <g id="line2d_99">
      <path d="M 37.236959 159.826589 
L 385.61904 159.826589 
" clip-path="url(#p1f5902fa8b)" style="fill: none; stroke: #b0b0b0; stroke-width: 0.1; stroke-linecap: round"/>
     </g>
     <g id="line2d_100"/>
     <g id="text_27">
      <!-- 50 -->
      <g style="fill: #262626" transform="translate(22.284459 163.245886) scale(0.09 -0.09)">
       <use xlink:href="#DejaVuSerif-35"/>
       <use xlink:href="#DejaVuSerif-30" x="63.623047"/>
      </g>
     </g>
    </g>
    <g id="text_28">
     <!-- $Y_H(r)$ -->
     <g style="fill: #262626" transform="translate(9.07899 182.762531) rotate(-90) scale(0.08 -0.08)">
      <use xlink:href="#DejaVuSans-Oblique-59" transform="translate(0 0.125)"/>
      <use xlink:href="#DejaVuSans-Oblique-48" transform="translate(61.083984 -16.28125) scale(0.7)"/>
      <use xlink:href="#DejaVuSans-28" transform="translate(116.455078 0.125)"/>
      <use xlink:href="#DejaVuSans-Oblique-72" transform="translate(155.46875 0.125)"/>
      <use xlink:href="#DejaVuSans-29" transform="translate(196.582031 0.125)"/>
     </g>
    </g>
   </g>
   <g id="line2d_101">
    <path d="M 53.072508 174.775734 
L 369.783491 174.775734 
L 369.783491 174.775734 
" clip-path="url(#p1f5902fa8b)" style="fill: none; stroke: #0000ff; stroke-width: 0.75; stroke-linecap: round"/>
   </g>
   <g id="line2d_102">
    <path d="M 53.072508 174.775734 
L 369.783491 174.775734 
L 369.783491 174.775734 
" clip-path="url(#p1f5902fa8b)" style="fill: none; stroke: #008000; stroke-width: 0.75; stroke-linecap: round"/>
   </g>
   <g id="line2d_103">
    <path d="M 53.072508 174.775734 
L 369.783491 174.775734 
L 369.783491 174.775734 
" clip-path="url(#p1f5902fa8b)" style="fill: none; stroke: #ff0000; stroke-width: 0.75; stroke-linecap: round"/>
   </g>
   <g id="patch_12">
    <path d="M 37.236959 191.670052 
L 37.236959 154.975011 
" style="fill: none; stroke: #000000; stroke-linejoin: miter; stroke-linecap: square"/>
   </g>
   <g id="patch_13">
    <path d="M 37.236959 191.670051 
L 385.61904 191.670051 
" style="fill: none; stroke: #000000; stroke-linejoin: miter; stroke-linecap: square"/>
   </g>
  </g>
 </g>
 <defs>
  <clipPath id="p605ddf602e">
   <rect x="37.236959" y="16.852393" width="348.382081" height="36.695041"/>
  </clipPath>
  <clipPath id="pba0469690f">
   <rect x="37.236959" y="62.893266" width="348.382081" height="36.695041"/>
  </clipPath>
  <clipPath id="p56ee55b599">
   <rect x="37.236959" y="108.934138" width="348.382081" height="36.695041"/>
  </clipPath>
  <clipPath id="p1f5902fa8b">
   <rect x="37.236959" y="154.975011" width="348.382081" height="36.695041"/>
  </clipPath>
 </defs>
</svg>
