<?xml version="1.0" encoding="utf-8" standalone="no"?>
<!DOCTYPE svg PUBLIC "-//W3C//DTD SVG 1.1//EN"
  "http://www.w3.org/Graphics/SVG/1.1/DTD/svg11.dtd">
<svg xmlns:xlink="http://www.w3.org/1999/xlink" width="388.61928pt" height="218.623104pt" viewBox="0 0 388.61928 218.623104" xmlns="http://www.w3.org/2000/svg" version="1.1">
 <metadata>
  <rdf:RDF xmlns:dc="http://purl.org/dc/elements/1.1/" xmlns:cc="http://creativecommons.org/ns#" xmlns:rdf="http://www.w3.org/1999/02/22-rdf-syntax-ns#">
   <cc:Work>
    <dc:type rdf:resource="http://purl.org/dc/dcmitype/StillImage"/>
    <dc:date>2024-06-06T10:52:15.432158</dc:date>
    <dc:format>image/svg+xml</dc:format>
    <dc:creator>
     <cc:Agent>
      <dc:title>Matplotlib v3.8.2, https://matplotlib.org/</dc:title>
     </cc:Agent>
    </dc:creator>
   </cc:Work>
  </rdf:RDF>
 </metadata>
 <defs>
  <style type="text/css">*{stroke-linejoin: round; stroke-linecap: butt}</style>
 </defs>
 <g id="figure_1">
  <g id="patch_1">
   <path d="M 0 218.623104 
L 388.61928 218.623104 
L 388.61928 0 
L 0 0 
z
" style="fill: #ffffff"/>
  </g>
  <g id="axes_1">
   <g id="patch_2">
    <path d="M 55.9075 90.654387 
L 377.81928 90.654387 
L 377.81928 10.8 
L 55.9075 10.8 
z
" style="fill: #ffffff"/>
   </g>
   <g id="matplotlib.axis_1">
    <g id="xtick_1">
     <g id="line2d_1">
      <path d="M 70.539854 90.654387 
L 70.539854 10.8 
" clip-path="url(#p9c701c665d)" style="fill: none; stroke: #b0b0b0; stroke-width: 0.1; stroke-linecap: round"/>
     </g>
     <g id="line2d_2"/>
    </g>
    <g id="xtick_2">
     <g id="line2d_3">
      <path d="M 112.454356 90.654387 
L 112.454356 10.8 
" clip-path="url(#p9c701c665d)" style="fill: none; stroke: #b0b0b0; stroke-width: 0.1; stroke-linecap: round"/>
     </g>
     <g id="line2d_4"/>
    </g>
    <g id="xtick_3">
     <g id="line2d_5">
      <path d="M 154.368858 90.654387 
L 154.368858 10.8 
" clip-path="url(#p9c701c665d)" style="fill: none; stroke: #b0b0b0; stroke-width: 0.1; stroke-linecap: round"/>
     </g>
     <g id="line2d_6"/>
    </g>
    <g id="xtick_4">
     <g id="line2d_7">
      <path d="M 196.283361 90.654387 
L 196.283361 10.8 
" clip-path="url(#p9c701c665d)" style="fill: none; stroke: #b0b0b0; stroke-width: 0.1; stroke-linecap: round"/>
     </g>
     <g id="line2d_8"/>
    </g>
    <g id="xtick_5">
     <g id="line2d_9">
      <path d="M 238.197863 90.654387 
L 238.197863 10.8 
" clip-path="url(#p9c701c665d)" style="fill: none; stroke: #b0b0b0; stroke-width: 0.1; stroke-linecap: round"/>
     </g>
     <g id="line2d_10"/>
    </g>
    <g id="xtick_6">
     <g id="line2d_11">
      <path d="M 280.112366 90.654387 
L 280.112366 10.8 
" clip-path="url(#p9c701c665d)" style="fill: none; stroke: #b0b0b0; stroke-width: 0.1; stroke-linecap: round"/>
     </g>
     <g id="line2d_12"/>
    </g>
    <g id="xtick_7">
     <g id="line2d_13">
      <path d="M 322.026868 90.654387 
L 322.026868 10.8 
" clip-path="url(#p9c701c665d)" style="fill: none; stroke: #b0b0b0; stroke-width: 0.1; stroke-linecap: round"/>
     </g>
     <g id="line2d_14"/>
    </g>
    <g id="xtick_8">
     <g id="line2d_15">
      <path d="M 363.941371 90.654387 
L 363.941371 10.8 
" clip-path="url(#p9c701c665d)" style="fill: none; stroke: #b0b0b0; stroke-width: 0.1; stroke-linecap: round"/>
     </g>
     <g id="line2d_16"/>
    </g>
   </g>
   <g id="matplotlib.axis_2">
    <g id="ytick_1">
     <g id="line2d_17">
      <path d="M 55.9075 73.070618 
L 377.81928 73.070618 
" clip-path="url(#p9c701c665d)" style="fill: none; stroke: #b0b0b0; stroke-width: 0.1; stroke-linecap: round"/>
     </g>
     <g id="line2d_18"/>
     <g id="text_1">
      <!-- −0.02 -->
      <g style="fill: #262626" transform="translate(24.826719 76.489915) scale(0.09 -0.09)">
       <defs>
        <path id="DejaVuSerif-2212" d="M 678 2259 
L 4684 2259 
L 4684 1753 
L 678 1753 
L 678 2259 
z
" transform="scale(0.015625)"/>
        <path id="DejaVuSerif-30" d="M 2034 219 
Q 2513 219 2750 744 
Q 2988 1269 2988 2328 
Q 2988 3391 2750 3916 
Q 2513 4441 2034 4441 
Q 1556 4441 1318 3916 
Q 1081 3391 1081 2328 
Q 1081 1269 1318 744 
Q 1556 219 2034 219 
z
M 2034 -91 
Q 1275 -91 848 546 
Q 422 1184 422 2328 
Q 422 3475 848 4112 
Q 1275 4750 2034 4750 
Q 2797 4750 3222 4112 
Q 3647 3475 3647 2328 
Q 3647 1184 3222 546 
Q 2797 -91 2034 -91 
z
" transform="scale(0.015625)"/>
        <path id="DejaVuSerif-2e" d="M 603 325 
Q 603 500 722 622 
Q 841 744 1019 744 
Q 1191 744 1312 622 
Q 1434 500 1434 325 
Q 1434 153 1312 31 
Q 1191 -91 1019 -91 
Q 841 -91 722 29 
Q 603 150 603 325 
z
" transform="scale(0.015625)"/>
        <path id="DejaVuSerif-32" d="M 819 3553 
L 469 3553 
L 469 4384 
Q 803 4563 1142 4656 
Q 1481 4750 1806 4750 
Q 2534 4750 2956 4397 
Q 3378 4044 3378 3438 
Q 3378 2753 2422 1800 
Q 2347 1728 2309 1691 
L 1131 513 
L 3078 513 
L 3078 1088 
L 3444 1088 
L 3444 0 
L 434 0 
L 434 341 
L 1850 1753 
Q 2319 2222 2519 2614 
Q 2719 3006 2719 3438 
Q 2719 3909 2473 4175 
Q 2228 4441 1797 4441 
Q 1350 4441 1106 4219 
Q 863 3997 819 3553 
z
" transform="scale(0.015625)"/>
       </defs>
       <use xlink:href="#DejaVuSerif-2212"/>
       <use xlink:href="#DejaVuSerif-30" x="83.789062"/>
       <use xlink:href="#DejaVuSerif-2e" x="147.412109"/>
       <use xlink:href="#DejaVuSerif-30" x="179.199219"/>
       <use xlink:href="#DejaVuSerif-32" x="242.822266"/>
      </g>
     </g>
    </g>
    <g id="ytick_2">
     <g id="line2d_19">
      <path d="M 55.9075 52.223058 
L 377.81928 52.223058 
" clip-path="url(#p9c701c665d)" style="fill: none; stroke: #b0b0b0; stroke-width: 0.1; stroke-linecap: round"/>
     </g>
     <g id="line2d_20"/>
     <g id="text_2">
      <!-- 0.00 -->
      <g style="fill: #262626" transform="translate(32.368438 55.642355) scale(0.09 -0.09)">
       <use xlink:href="#DejaVuSerif-30"/>
       <use xlink:href="#DejaVuSerif-2e" x="63.623047"/>
       <use xlink:href="#DejaVuSerif-30" x="95.410156"/>
       <use xlink:href="#DejaVuSerif-30" x="159.033203"/>
      </g>
     </g>
    </g>
    <g id="ytick_3">
     <g id="line2d_21">
      <path d="M 55.9075 31.375498 
L 377.81928 31.375498 
" clip-path="url(#p9c701c665d)" style="fill: none; stroke: #b0b0b0; stroke-width: 0.1; stroke-linecap: round"/>
     </g>
     <g id="line2d_22"/>
     <g id="text_3">
      <!-- 0.02 -->
      <g style="fill: #262626" transform="translate(32.368438 34.794795) scale(0.09 -0.09)">
       <use xlink:href="#DejaVuSerif-30"/>
       <use xlink:href="#DejaVuSerif-2e" x="63.623047"/>
       <use xlink:href="#DejaVuSerif-30" x="95.410156"/>
       <use xlink:href="#DejaVuSerif-32" x="159.033203"/>
      </g>
     </g>
    </g>
    <g id="text_4">
     <!-- $\dot{r}$ [rad/s2] -->
     <g style="fill: #262626" transform="translate(19.162969 69.567194) rotate(-90) scale(0.08 -0.08)">
      <defs>
       <path id="DejaVuSans-307" d="M -1894 4863 
L -1319 4863 
L -1319 4134 
L -1894 4134 
L -1894 4863 
z
M -1600 3584 
L -1600 3584 
z
" transform="scale(0.015625)"/>
       <path id="DejaVuSans-Oblique-72" d="M 2853 2969 
Q 2766 3016 2653 3041 
Q 2541 3066 2413 3066 
Q 1953 3066 1609 2717 
Q 1266 2369 1153 1784 
L 800 0 
L 225 0 
L 909 3500 
L 1484 3500 
L 1375 2956 
Q 1603 3259 1920 3421 
Q 2238 3584 2597 3584 
Q 2691 3584 2781 3573 
Q 2872 3563 2963 3538 
L 2853 2969 
z
" transform="scale(0.015625)"/>
       <path id="DejaVuSerif-20" transform="scale(0.015625)"/>
       <path id="DejaVuSerif-5b" d="M 550 4863 
L 2003 4863 
L 2003 4531 
L 1147 4531 
L 1147 -513 
L 2003 -513 
L 2003 -844 
L 550 -844 
L 550 4863 
z
" transform="scale(0.015625)"/>
       <path id="DejaVuSerif-72" d="M 3059 3328 
L 3059 2497 
L 2728 2497 
Q 2713 2744 2591 2866 
Q 2469 2988 2234 2988 
Q 1809 2988 1582 2694 
Q 1356 2400 1356 1850 
L 1356 331 
L 2022 331 
L 2022 0 
L 263 0 
L 263 331 
L 781 331 
L 781 2994 
L 231 2994 
L 231 3322 
L 1356 3322 
L 1356 2731 
Q 1525 3078 1790 3245 
Q 2056 3413 2438 3413 
Q 2578 3413 2733 3391 
Q 2888 3369 3059 3328 
z
" transform="scale(0.015625)"/>
       <path id="DejaVuSerif-61" d="M 2547 1044 
L 2547 1747 
L 1806 1747 
Q 1378 1747 1168 1562 
Q 959 1378 959 997 
Q 959 650 1171 447 
Q 1384 244 1747 244 
Q 2106 244 2326 466 
Q 2547 688 2547 1044 
z
M 3122 2075 
L 3122 331 
L 3634 331 
L 3634 0 
L 2547 0 
L 2547 359 
Q 2356 128 2106 18 
Q 1856 -91 1522 -91 
Q 969 -91 644 203 
Q 319 497 319 997 
Q 319 1513 691 1797 
Q 1063 2081 1741 2081 
L 2547 2081 
L 2547 2309 
Q 2547 2688 2317 2895 
Q 2088 3103 1672 3103 
Q 1328 3103 1125 2947 
Q 922 2791 872 2484 
L 575 2484 
L 575 3156 
Q 875 3284 1158 3348 
Q 1441 3413 1709 3413 
Q 2400 3413 2761 3070 
Q 3122 2728 3122 2075 
z
" transform="scale(0.015625)"/>
       <path id="DejaVuSerif-64" d="M 3359 331 
L 3909 331 
L 3909 0 
L 2784 0 
L 2784 519 
Q 2616 206 2355 57 
Q 2094 -91 1709 -91 
Q 1097 -91 708 395 
Q 319 881 319 1663 
Q 319 2444 706 2928 
Q 1094 3413 1709 3413 
Q 2094 3413 2355 3264 
Q 2616 3116 2784 2803 
L 2784 4531 
L 2241 4531 
L 2241 4863 
L 3359 4863 
L 3359 331 
z
M 2784 1497 
L 2784 1825 
Q 2784 2422 2554 2737 
Q 2325 3053 1888 3053 
Q 1444 3053 1217 2703 
Q 991 2353 991 1663 
Q 991 975 1217 622 
Q 1444 269 1888 269 
Q 2325 269 2554 583 
Q 2784 897 2784 1497 
z
" transform="scale(0.015625)"/>
       <path id="DejaVuSerif-2f" d="M 1656 4666 
L 2156 4666 
L 500 -594 
L 0 -594 
L 1656 4666 
z
" transform="scale(0.015625)"/>
       <path id="DejaVuSerif-73" d="M 359 184 
L 359 959 
L 691 959 
Q 703 588 923 403 
Q 1144 219 1575 219 
Q 1963 219 2166 364 
Q 2369 509 2369 788 
Q 2369 1006 2220 1140 
Q 2072 1275 1594 1428 
L 1178 1569 
Q 750 1706 558 1912 
Q 366 2119 366 2438 
Q 366 2894 700 3153 
Q 1034 3413 1625 3413 
Q 1888 3413 2178 3344 
Q 2469 3275 2778 3144 
L 2778 2419 
L 2447 2419 
Q 2434 2741 2221 2922 
Q 2009 3103 1644 3103 
Q 1281 3103 1095 2975 
Q 909 2847 909 2591 
Q 909 2381 1050 2254 
Q 1191 2128 1613 1997 
L 2069 1856 
Q 2541 1709 2748 1489 
Q 2956 1269 2956 922 
Q 2956 450 2595 179 
Q 2234 -91 1600 -91 
Q 1278 -91 972 -22 
Q 666 47 359 184 
z
" transform="scale(0.015625)"/>
       <path id="DejaVuSerif-5d" d="M 1947 4863 
L 1947 -844 
L 494 -844 
L 494 -513 
L 1350 -513 
L 1350 4531 
L 494 4531 
L 494 4863 
L 1947 4863 
z
" transform="scale(0.015625)"/>
      </defs>
      <use xlink:href="#DejaVuSans-307" transform="translate(50.87207 13.015625)"/>
      <use xlink:href="#DejaVuSans-Oblique-72" transform="translate(0 0.515625)"/>
      <use xlink:href="#DejaVuSerif-20" transform="translate(41.113281 0.515625)"/>
      <use xlink:href="#DejaVuSerif-5b" transform="translate(72.900391 0.515625)"/>
      <use xlink:href="#DejaVuSerif-72" transform="translate(111.914062 0.515625)"/>
      <use xlink:href="#DejaVuSerif-61" transform="translate(159.716797 0.515625)"/>
      <use xlink:href="#DejaVuSerif-64" transform="translate(219.335938 0.515625)"/>
      <use xlink:href="#DejaVuSerif-2f" transform="translate(283.349609 0.515625)"/>
      <use xlink:href="#DejaVuSerif-73" transform="translate(317.041016 0.515625)"/>
      <use xlink:href="#DejaVuSerif-32" transform="translate(368.359375 0.515625)"/>
      <use xlink:href="#DejaVuSerif-5d" transform="translate(431.982422 0.515625)"/>
     </g>
    </g>
   </g>
   <g id="line2d_23">
    <path d="M 70.539854 52.223058 
L 70.917038 52.298349 
L 72.006819 52.710565 
L 72.59361 52.996355 
L 73.306194 53.358131 
L 73.851078 53.646318 
L 74.689347 54.061553 
L 75.359984 54.430369 
L 77.749173 65.754474 
L 80.976531 80.676161 
L 81.060427 80.491558 
L 85.754793 69.363857 
L 86.509233 67.815415 
L 87.850493 65.285156 
L 88.982193 63.451274 
L 90.239619 61.672883 
L 93.257489 58.549648 
L 93.508976 58.324253 
L 94.01208 57.919097 
L 96.31726 56.22498 
L 96.568726 56.069974 
L 96.90403 55.902439 
L 98.119642 55.062641 
L 98.371134 54.873427 
L 99.3351 54.248302 
L 99.67042 54.015997 
L 100.299192 53.642618 
L 100.802087 53.331333 
L 103.107376 51.496369 
L 103.442717 51.225551 
L 104.825975 49.965945 
L 105.706155 44.093733 
L 106.544357 39.392049 
L 107.466551 34.976371 
L 108.388616 31.312016 
L 109.143119 28.805614 
L 110.02326 26.347267 
L 111.113054 23.743577 
L 112.20284 21.698819 
L 114.759608 17.603203 
L 115.388329 16.605271 
L 116.058945 15.394681 
L 117.567888 21.331868 
L 120.459984 31.108477 
L 121.29827 33.424702 
L 122.09465 35.400635 
L 123.3103 38.064441 
L 125.699318 41.776354 
L 126.328019 42.501067 
L 126.956732 43.118476 
L 127.627393 43.78521 
L 128.298025 44.337551 
L 129.052528 44.960216 
L 130.100349 45.745529 
L 130.645212 46.153416 
L 133.41157 47.594355 
L 133.998356 47.848354 
L 134.710919 48.168346 
L 135.046336 48.292241 
L 137.728759 49.018757 
L 138.35751 49.11432 
L 139.028159 49.281971 
L 139.866504 49.427048 
L 143.345336 49.916823 
L 143.932143 49.967298 
L 144.225511 50.033253 
L 145.692586 50.209788 
L 146.195501 50.254223 
L 147.285278 50.427209 
L 147.914197 50.484149 
L 148.542709 50.55735 
L 149.087677 50.631028 
L 149.925884 50.701501 
L 153.362889 51.122353 
L 154.033505 51.192255 
L 154.368821 51.279863 
L 155.165209 51.402593 
L 156.590281 51.590984 
L 157.051366 51.640823 
L 157.722031 51.707709 
L 158.015395 51.719875 
L 158.308784 51.770493 
L 165.18285 52.401 
L 165.72763 52.512692 
L 168.745478 53.048415 
L 169.374196 53.174466 
L 170.422075 53.370465 
L 171.050818 53.548203 
L 171.386105 53.620486 
L 171.972899 53.779883 
L 172.517922 53.952948 
L 174.445846 54.86027 
L 175.032784 55.187056 
L 175.367991 55.389926 
L 176.877039 56.273324 
L 177.463728 56.660425 
L 177.882878 56.914804 
L 177.966749 56.979698 
L 179.056509 62.529028 
L 180.649214 68.895869 
L 181.864818 72.5829 
L 182.577281 74.357511 
L 183.876698 76.998979 
L 186.433465 80.664399 
L 186.852631 81.149171 
L 187.607118 82.002311 
L 189.199776 84.061535 
L 192.427206 74.083449 
L 194.606739 68.744235 
L 197.121643 64.142725 
L 199.301281 61.506122 
L 199.971804 60.886941 
L 200.600513 60.325008 
L 201.396955 59.696631 
L 202.02574 59.246116 
L 202.528685 58.924942 
L 206.007555 56.868223 
L 206.63631 56.560909 
L 207.306842 56.281542 
L 207.600272 56.141496 
L 210.282767 55.395674 
L 210.953441 55.349176 
L 211.288702 55.323626 
L 213.677833 55.093642 
L 213.971239 55.114019 
L 214.767694 55.064211 
L 215.270576 55.037415 
L 216.989066 54.865039 
L 217.995052 54.790685 
L 218.288445 54.758728 
L 218.87524 54.723126 
L 219.210644 54.697676 
L 221.096755 54.525373 
L 221.390098 54.514689 
L 222.479938 54.368911 
L 223.024855 54.302164 
L 223.318198 54.278033 
L 223.611654 54.269474 
L 224.491796 54.177379 
L 226.042662 53.94279 
L 226.713306 53.901904 
L 227.383884 53.773886 
L 227.761224 53.721126 
L 232.078421 53.092684 
L 232.329896 53.079371 
L 232.958496 52.977431 
L 233.210046 52.971463 
L 233.713091 52.920459 
L 234.467477 52.804995 
L 234.718926 52.782653 
L 234.970396 52.796435 
L 235.221892 52.731761 
L 235.808762 52.700724 
L 236.35365 52.688809 
L 236.730889 52.651603 
L 237.024199 52.604825 
L 238.156003 52.593185 
L 238.449329 52.572464 
L 238.7008 52.538962 
L 239.245684 52.538268 
L 239.580992 52.507131 
L 240.209739 52.506884 
L 240.461305 52.484685 
L 241.131849 52.486951 
L 241.718694 52.418955 
L 242.347416 52.368824 
L 242.640813 52.330595 
L 243.227625 52.280484 
L 243.772446 52.25959 
L 246.49688 51.760907 
L 246.832234 51.684778 
L 248.38305 51.139923 
L 250.017774 50.483128 
L 250.604539 50.144372 
L 250.939847 49.987936 
L 251.233307 49.82069 
L 252.658316 48.953613 
L 252.993662 48.774978 
L 253.580507 48.350344 
L 254.502638 43.725465 
L 255.634263 39.035547 
L 256.724036 35.249648 
L 257.729967 32.474447 
L 259.867699 28.060528 
L 262.885476 24.145706 
L 263.975249 22.909078 
L 264.81353 21.77508 
L 264.855466 21.910012 
L 267.999045 31.243212 
L 270.723526 37.548993 
L 272.190466 40.166272 
L 272.861182 41.164645 
L 273.573657 42.113108 
L 274.495919 43.153102 
L 277.304061 45.453209 
L 280.279965 47.231732 
L 280.866785 47.533383 
L 281.66319 47.95741 
L 282.291958 48.264753 
L 282.836838 48.510118 
L 284.010368 48.922974 
L 284.597226 49.13791 
L 287.279721 49.541778 
L 287.740814 49.542312 
L 288.327566 49.552819 
L 289.165949 49.592124 
L 294.111805 49.943039 
L 294.572819 49.987831 
L 295.033958 50.012069 
L 296.123681 50.067238 
L 296.836219 50.123011 
L 297.842158 50.192601 
L 298.428966 50.216717 
L 299.183464 50.294083 
L 299.728412 50.329936 
L 301.027719 50.444502 
L 305.554427 50.90797 
L 306.14123 51.023035 
L 306.853776 51.11237 
L 307.398745 51.218025 
L 309.117168 51.490081 
L 310.039321 51.587228 
L 310.751859 51.686037 
L 311.506341 51.733927 
L 311.967346 51.775035 
L 314.146925 51.960024 
L 317.290542 52.182592 
L 318.003038 52.2707 
L 318.296436 52.283164 
L 318.883243 52.31017 
L 319.176674 52.340833 
L 320.182685 52.44272 
L 320.9371 52.505308 
L 323.493834 52.923407 
L 323.787244 52.989137 
L 324.457914 53.201764 
L 327.894924 54.68916 
L 328.900901 55.348513 
L 329.571495 55.776596 
L 330.661235 56.58618 
L 330.786982 56.654095 
L 332.212055 63.423349 
L 333.25993 67.365043 
L 334.517373 71.153414 
L 335.397565 73.353932 
L 336.31968 75.2858 
L 337.409453 77.1354 
L 339.044102 79.327003 
L 339.924386 80.281849 
L 340.636962 81.080995 
L 342.020031 82.813497 
L 344.912157 74.21725 
L 347.427023 68.229479 
L 348.223503 66.672789 
L 349.774214 64.044829 
L 352.372918 61.045937 
L 354.342983 59.664656 
L 355.977556 58.761938 
L 356.522458 58.533286 
L 357.737982 57.996098 
L 358.282963 57.813146 
L 358.660093 57.709155 
L 360.252844 57.306275 
L 361.426513 57.139368 
L 362.055172 57.043578 
L 362.642008 57.075228 
L 363.186926 57.017454 
L 363.186926 57.017454 
" clip-path="url(#p9c701c665d)" style="fill: none; stroke: #2a2eec; stroke-width: 0.4; stroke-linecap: round"/>
   </g>
   <g id="line2d_24">
    <path d="M 70.539854 52.223058 
L 70.917038 52.355215 
L 73.976813 54.590701 
L 74.982741 55.509585 
L 75.359984 55.878324 
L 77.120422 65.044941 
L 79.341849 74.833233 
L 80.976531 81.796553 
L 81.018462 81.694956 
L 82.904623 76.622344 
L 83.659055 74.648153 
L 86.17393 68.639012 
L 89.736654 62.211562 
L 90.323511 61.560838 
L 90.994081 60.787401 
L 91.287478 60.50863 
L 91.70664 60.010252 
L 91.958198 59.8038 
L 92.209618 59.623951 
L 92.796404 59.258569 
L 93.047946 59.073156 
L 93.592788 58.543625 
L 95.05985 57.749562 
L 95.353197 57.474692 
L 98.580656 55.556318 
L 98.832172 55.430336 
L 100.257194 54.945105 
L 100.550595 54.843349 
L 101.724202 54.139574 
L 103.987689 51.971053 
L 104.658254 51.122436 
L 104.825975 50.912087 
L 105.747985 44.340633 
L 106.586326 39.332507 
L 107.424574 34.980353 
L 108.47255 30.475276 
L 109.604157 26.625094 
L 110.98729 22.869637 
L 111.699882 21.318561 
L 113.921431 17.978564 
L 116.058945 15.622038 
L 117.52599 22.352382 
L 119.454078 29.781614 
L 120.66954 33.575216 
L 122.807301 38.738171 
L 124.148615 40.97116 
L 124.651455 41.694751 
L 125.699318 42.907343 
L 126.202275 43.30096 
L 127.669308 44.240582 
L 127.920803 44.400305 
L 128.381833 44.762645 
L 128.968636 45.319888 
L 131.609238 47.339904 
L 131.986548 47.517408 
L 133.034343 47.871755 
L 133.663061 48.107387 
L 134.249843 48.29787 
L 134.501409 48.470349 
L 134.836684 48.630978 
L 135.674953 48.92823 
L 136.387495 49.144978 
L 138.231771 49.658797 
L 138.525168 49.769912 
L 139.489231 50.017934 
L 141.501115 50.112462 
L 142.004068 50.171577 
L 145.650613 50.672413 
L 146.279343 50.692959 
L 147.914197 50.935625 
L 148.500786 51.006964 
L 149.003785 51.069466 
L 149.590567 51.072016 
L 150.219365 51.059183 
L 150.806092 51.093442 
L 151.895878 51.206384 
L 156.548459 52.338056 
L 157.219003 52.284403 
L 157.889635 52.279484 
L 158.308784 52.233654 
L 160.111103 52.075136 
L 160.404564 52.064489 
L 160.823713 52.083717 
L 161.536209 52.022656 
L 163.045257 52.041746 
L 163.715759 52.11296 
L 164.889361 52.372571 
L 165.601895 52.666561 
L 166.230663 53.112639 
L 166.98509 53.622241 
L 167.236636 53.669356 
L 167.991047 53.69636 
L 168.284494 53.689599 
L 168.997024 53.907166 
L 169.625742 54.119456 
L 169.877212 54.126052 
L 170.589792 54.115522 
L 171.176519 54.002799 
L 171.511835 53.995657 
L 171.931039 54.023674 
L 173.020766 54.257001 
L 173.733363 54.592153 
L 174.068637 54.822481 
L 175.954857 56.012217 
L 176.58357 56.472648 
L 177.212246 56.933181 
L 177.547541 57.21187 
L 178.008646 57.761813 
L 179.307958 64.590878 
L 180.439662 69.425386 
L 181.697081 73.725272 
L 182.954499 77.132392 
L 185.176043 81.311378 
L 186.60109 82.832536 
L 187.690846 83.754973 
L 188.990229 84.698448 
L 189.199776 84.83355 
L 191.588916 75.99321 
L 192.972065 71.906461 
L 194.145692 69.165866 
L 197.289267 63.941819 
L 198.127565 63.001825 
L 200.642436 60.73753 
L 201.019662 60.410661 
L 207.600272 56.231825 
L 209.402588 55.755502 
L 209.737904 55.706306 
L 210.157024 55.657704 
L 210.659998 55.630709 
L 211.540202 55.651413 
L 212.965287 55.787203 
L 213.216799 55.819434 
L 213.510167 55.860377 
L 215.396341 55.814049 
L 215.68975 55.789069 
L 217.114814 55.555273 
L 217.408232 55.52472 
L 217.953125 55.487044 
L 218.330398 55.440788 
L 219.755633 55.289216 
L 220.006948 55.261017 
L 220.25844 55.217783 
L 220.7196 55.143015 
L 221.348242 55.106153 
L 221.641614 55.037674 
L 223.360146 54.770312 
L 223.946945 54.70948 
L 224.198386 54.675662 
L 224.491796 54.678928 
L 226.042662 54.464363 
L 226.671342 54.444937 
L 231.617236 53.522335 
L 231.91068 53.484558 
L 232.958496 53.28149 
L 233.168178 53.266276 
L 233.419631 53.237399 
L 233.964528 53.171391 
L 234.677087 53.167305 
L 234.970396 53.178053 
L 235.221892 53.116739 
L 235.808762 53.105289 
L 236.35365 53.12228 
L 236.730889 53.103448 
L 237.024199 53.070353 
L 237.862505 53.081812 
L 239.455269 53.133845 
L 239.790573 53.130185 
L 240.083978 53.076488 
L 241.341418 53.078172 
L 241.886394 53.080382 
L 242.179695 53.065827 
L 242.682665 53.016074 
L 245.239479 52.85935 
L 245.49097 52.860706 
L 245.784338 52.776571 
L 246.538812 52.662611 
L 247.041794 52.557026 
L 250.939847 51.612913 
L 251.233307 51.468419 
L 252.574492 50.75804 
L 253.580507 49.990906 
L 254.71211 43.803591 
L 255.969642 38.13674 
L 257.646184 32.405661 
L 259.951478 26.996222 
L 261.334706 24.915496 
L 262.173005 24.00536 
L 264.184796 22.483416 
L 264.771666 22.084336 
L 264.81353 22.060451 
L 266.448242 28.008189 
L 267.454194 31.218898 
L 268.795467 34.888165 
L 270.13671 37.82981 
L 271.980931 41.089587 
L 273.741319 43.237492 
L 274.370033 43.849162 
L 274.998746 44.384272 
L 275.543651 44.799206 
L 276.381942 45.364576 
L 276.926931 45.635877 
L 277.890864 46.199826 
L 279.399794 46.981485 
L 279.735127 47.183835 
L 284.597226 50.311458 
L 285.309789 50.358385 
L 285.896525 50.400171 
L 287.153998 50.245486 
L 287.363575 50.164554 
L 287.824613 50.000261 
L 288.285706 50.0021 
L 288.704856 49.909948 
L 289.165949 49.800691 
L 291.932205 49.946378 
L 292.56099 49.992991 
L 292.854324 50.052517 
L 293.3992 50.237393 
L 293.776569 50.281932 
L 295.075835 50.402801 
L 297.674546 50.562392 
L 298.303272 50.594051 
L 298.890029 50.640893 
L 299.47695 50.757181 
L 301.279173 50.875147 
L 302.788107 50.755025 
L 304.967666 50.608907 
L 309.242974 51.975935 
L 309.871625 51.96707 
L 315.152835 52.463106 
L 315.488151 52.50569 
L 316.997132 52.809054 
L 317.877299 53.004342 
L 321.523869 53.008701 
L 322.110659 52.875994 
L 323.954902 53.108361 
L 324.206385 53.122867 
L 324.835119 53.123946 
L 325.67338 53.291964 
L 326.176337 53.446664 
L 327.391899 53.93459 
L 328.146365 54.385703 
L 328.691245 54.790072 
L 330.786982 56.846536 
L 332.421736 65.554164 
L 333.637202 69.980911 
L 335.062241 74.244821 
L 337.283735 79.513508 
L 337.95435 80.549895 
L 338.499243 81.261882 
L 339.547126 82.213794 
L 340.133908 82.550717 
L 341.139839 83.251726 
L 342.020031 83.736208 
L 342.061971 83.575002 
L 343.570876 78.180907 
L 345.07979 73.522807 
L 347.38528 68.136372 
L 348.349188 66.404177 
L 349.732363 64.16879 
L 351.660371 61.979589 
L 352.414845 61.346679 
L 353.085498 60.943576 
L 353.83998 60.469907 
L 354.804047 59.820184 
L 355.516531 59.353367 
L 355.851834 59.119734 
L 357.779943 57.789854 
L 359.833766 56.827355 
L 360.462412 56.692128 
L 361.216932 56.479475 
L 361.803706 56.398829 
L 362.139072 56.366392 
L 362.767748 56.374638 
L 363.186926 56.379007 
L 363.186926 56.379007 
" clip-path="url(#p9c701c665d)" style="fill: none; stroke: #fa7c17; stroke-width: 0.4; stroke-linecap: round"/>
   </g>
   <g id="line2d_25">
    <path d="M 70.539854 52.223058 
L 70.833213 52.255332 
L 72.845101 53.766637 
L 73.222378 53.968752 
L 73.557664 54.218882 
L 74.89897 55.821446 
L 75.401919 56.957557 
L 77.120422 67.610289 
L 79.174208 76.407226 
L 80.054387 80.322618 
L 80.976531 84.102715 
L 82.653103 79.251075 
L 85.67101 70.258264 
L 86.676899 68.333561 
L 87.05423 67.556001 
L 87.515198 66.422348 
L 89.778619 61.135917 
L 89.946218 61.193049 
L 90.071974 61.165514 
L 90.365376 61.075242 
L 90.910256 60.487199 
L 91.161751 60.534048 
L 91.329438 60.022034 
L 91.70664 58.970445 
L 91.874293 58.851866 
L 92.167737 59.140644 
L 92.419262 59.145828 
L 92.964096 59.510357 
L 93.089831 59.353702 
L 93.718532 58.134904 
L 93.760501 58.164446 
L 94.640659 58.587357 
L 94.934052 58.734713 
L 95.101748 58.69951 
L 95.395128 58.225432 
L 96.02385 57.480733 
L 96.694474 57.256696 
L 97.029794 57.398487 
L 97.448926 57.066177 
L 98.203388 55.521335 
L 98.496781 55.636105 
L 98.790195 55.894117 
L 99.041694 55.879892 
L 99.377094 55.938494 
L 100.089532 56.47958 
L 100.341019 56.719834 
L 100.802087 57.086555 
L 101.347013 56.546651 
L 102.269086 55.793421 
L 102.520569 55.666541 
L 102.813974 55.50536 
L 103.065466 55.280201 
L 103.610404 54.488944 
L 103.903751 54.234117 
L 104.448623 53.386125 
L 104.867781 52.200629 
L 105.706155 45.455191 
L 106.502455 40.267742 
L 107.8018 32.961327 
L 108.849671 28.516371 
L 109.478447 26.2085 
L 110.149096 24.008705 
L 110.777755 21.787728 
L 111.741768 19.008492 
L 113.544091 15.894875 
L 114.592 14.826566 
L 114.885355 14.442863 
L 116.058945 14.591697 
L 117.442266 22.696696 
L 118.573852 28.007238 
L 119.70551 32.367907 
L 121.004885 36.330179 
L 122.974884 41.397347 
L 123.435935 41.977805 
L 124.567601 43.885948 
L 125.070609 45.227863 
L 125.447848 45.452941 
L 126.03463 45.392591 
L 126.328019 45.058848 
L 126.705295 44.457991 
L 126.914847 44.42097 
L 127.501637 44.636221 
L 127.920803 44.222941 
L 127.962701 44.277661 
L 128.256098 44.61858 
L 128.633404 44.552844 
L 129.262088 45.91866 
L 129.387802 46.072914 
L 129.932683 47.370944 
L 129.974601 47.351979 
L 130.142305 47.311055 
L 130.435632 47.839237 
L 130.81287 48.624377 
L 132.028387 48.488218 
L 132.992433 48.208569 
L 133.41157 47.817331 
L 133.663061 47.76954 
L 134.040279 47.686292 
L 134.333701 47.737374 
L 134.836684 48.82577 
L 135.213889 49.122889 
L 135.716859 49.19859 
L 136.345576 49.276368 
L 136.848559 49.674509 
L 137.141969 49.863069 
L 137.4354 50.002284 
L 137.896426 50.219136 
L 138.231771 50.396017 
L 138.399416 50.476808 
L 139.237769 51.312763 
L 139.782675 51.51331 
L 140.285602 51.316227 
L 140.620969 51.076386 
L 141.87832 50.612433 
L 143.345336 50.549872 
L 144.099768 50.903901 
L 144.435193 51.011142 
L 145.860248 51.040824 
L 146.40507 50.848226 
L 146.656603 50.824118 
L 147.830196 51.373562 
L 148.165495 51.449119 
L 149.003785 51.780664 
L 149.88404 51.504734 
L 150.135452 51.414654 
L 150.931832 51.003464 
L 151.225329 50.854423 
L 151.51863 50.942394 
L 152.273117 51.421099 
L 153.823945 52.379412 
L 154.326973 52.716798 
L 155.081447 53.489994 
L 155.374819 53.690815 
L 155.919674 53.682121 
L 156.506465 53.860977 
L 157.260942 53.29922 
L 157.931566 52.947 
L 158.18304 52.778674 
L 158.518373 52.757517 
L 159.147082 52.483733 
L 159.985343 52.112947 
L 160.404564 51.948719 
L 160.697927 52.044402 
L 161.075171 52.081214 
L 161.41047 51.933 
L 161.661986 51.867726 
L 161.955342 51.856295 
L 162.45832 51.640516 
L 162.961306 51.161278 
L 163.380497 51.12583 
L 163.757678 51.24367 
L 164.009161 51.204783 
L 164.637916 50.898058 
L 165.015138 51.231233 
L 165.601895 51.901757 
L 166.021048 53.05698 
L 166.230663 53.508637 
L 166.98509 55.770645 
L 167.152799 55.813098 
L 167.320398 55.873223 
L 167.613808 56.049412 
L 167.739547 55.781588 
L 168.158705 54.312501 
L 168.326329 54.448521 
L 168.829446 55.169234 
L 169.206609 55.604856 
L 169.625742 56.157044 
L 169.793404 56.326036 
L 170.044832 56.014796 
L 170.422075 55.486649 
L 170.84122 55.304886 
L 171.218472 54.166771 
L 171.511835 53.659154 
L 171.847156 53.450636 
L 172.22439 53.626374 
L 172.392044 53.506839 
L 172.895014 53.100263 
L 173.062693 53.295055 
L 173.314289 53.53341 
L 173.565722 53.668722 
L 173.859123 54.026089 
L 174.36203 55.160383 
L 174.571611 55.456777 
L 175.619486 56.018415 
L 176.499741 56.550075 
L 176.918836 56.928646 
L 177.29607 57.037946 
L 177.505714 57.237219 
L 177.757163 57.466366 
L 177.924771 57.53107 
L 177.966749 57.570576 
L 179.517568 66.283854 
L 180.816922 71.888782 
L 181.529481 74.55419 
L 182.619195 78.217817 
L 184.128117 82.251373 
L 185.134074 84.526581 
L 185.595221 85.157108 
L 186.140005 85.72997 
L 186.810646 86.372008 
L 187.942325 87.019489 
L 188.990229 86.833411 
L 189.199776 86.640416 
L 190.83443 78.559337 
L 191.840436 74.139824 
L 192.678798 71.207292 
L 194.061926 68.641198 
L 194.816345 67.681611 
L 195.445042 66.54881 
L 195.947995 65.812709 
L 197.037759 63.933122 
L 197.624583 63.336149 
L 197.876074 63.087119 
L 198.295224 62.773465 
L 201.77424 59.767536 
L 202.612438 59.615909 
L 202.989706 59.393397 
L 203.241189 59.366319 
L 203.450703 59.40385 
L 204.037573 59.023484 
L 204.917732 58.272995 
L 205.504539 57.718055 
L 205.797911 57.455309 
L 206.720064 56.648682 
L 208.145119 55.890803 
L 208.438521 55.818502 
L 208.983472 55.733332 
L 209.276936 55.749449 
L 209.989386 55.575323 
L 210.743822 55.639096 
L 211.03722 55.741106 
L 211.288702 55.832581 
L 212.75571 56.219863 
L 212.965287 56.32756 
L 213.300586 56.520772 
L 213.719748 56.667692 
L 215.522088 56.875522 
L 217.827365 56.167708 
L 218.078873 56.104018 
L 218.330398 56.136835 
L 218.623778 56.338489 
L 218.87524 56.565336 
L 219.168667 56.460171 
L 219.881213 55.869037 
L 220.635662 55.652474 
L 220.887178 55.637149 
L 221.473948 55.755177 
L 222.647554 55.43873 
L 222.899011 55.369394 
L 223.443938 55.210681 
L 223.779237 55.155062 
L 224.198386 55.114601 
L 224.449881 55.175738 
L 224.701368 55.116182 
L 225.120518 54.911227 
L 225.413877 54.869498 
L 225.66541 54.902777 
L 225.958799 54.993299 
L 228.138404 54.966028 
L 228.38984 54.94331 
L 228.59943 54.823159 
L 228.892835 54.653647 
L 230.317912 54.229925 
L 230.569449 54.15356 
L 231.533428 53.860695 
L 231.868757 53.696021 
L 232.120214 53.672661 
L 233.210046 53.427183 
L 233.503414 53.52949 
L 233.754909 53.534045 
L 234.090276 53.438328 
L 234.593174 53.523084 
L 235.09619 53.53479 
L 235.473517 53.391569 
L 235.808762 53.374699 
L 236.311677 53.424309 
L 237.066117 53.400744 
L 237.652958 53.475774 
L 238.365618 53.425486 
L 238.7008 53.51144 
L 240.042055 53.515588 
L 240.503119 53.578784 
L 241.299478 53.682115 
L 241.550969 53.720957 
L 242.095912 53.781069 
L 242.766532 53.687547 
L 243.101902 53.722454 
L 243.562878 53.812705 
L 244.191604 54.149647 
L 244.443078 54.318293 
L 244.736484 54.192315 
L 244.987971 54.064129 
L 245.113777 53.986153 
L 245.365235 53.750396 
L 246.077752 53.633025 
L 246.538812 53.507107 
L 247.125619 53.342529 
L 247.963913 53.152859 
L 248.341135 53.010652 
L 248.844147 53.124737 
L 249.263326 53.266959 
L 249.808122 53.274275 
L 250.185369 53.426799 
L 250.814103 53.628788 
L 251.317052 53.435792 
L 251.610504 53.460888 
L 252.239251 53.575405 
L 252.490717 53.619287 
L 253.370938 53.931467 
L 253.580507 53.67907 
L 254.292978 48.324298 
L 255.131318 42.722369 
L 256.263026 37.204892 
L 257.562313 32.359116 
L 258.316795 30.640371 
L 259.029434 27.945092 
L 260.705972 23.647182 
L 261.628028 22.180499 
L 262.214852 21.512636 
L 262.927407 21.110634 
L 263.178886 20.907804 
L 263.388463 20.823852 
L 263.807675 20.948817 
L 264.310678 21.075818 
L 264.81353 21.465037 
L 265.819483 26.539107 
L 267.076909 31.379145 
L 268.040997 34.128355 
L 268.334395 35.075061 
L 269.046895 37.09841 
L 269.340314 37.482682 
L 269.507955 37.620739 
L 269.843262 38.313811 
L 271.561774 41.880241 
L 272.14861 43.081874 
L 272.567734 43.754104 
L 272.819209 43.964996 
L 273.070734 44.118938 
L 273.447964 44.394351 
L 274.07661 44.8967 
L 274.998746 45.791562 
L 275.292181 45.933481 
L 275.878947 46.830212 
L 276.172453 46.823841 
L 276.968719 46.556587 
L 277.597466 46.909274 
L 277.890864 46.884387 
L 278.142346 46.787898 
L 278.729137 46.833083 
L 279.106393 46.750518 
L 279.399794 46.714788 
L 279.651348 46.682852 
L 280.489609 47.467658 
L 281.537446 48.5552 
L 281.872829 48.781641 
L 282.962535 50.106104 
L 283.675082 51.471622 
L 283.842786 51.450041 
L 283.968492 51.507142 
L 284.219941 52.316532 
L 284.513376 52.960569 
L 284.639099 52.79043 
L 284.932496 52.301857 
L 285.142123 52.38528 
L 285.393576 52.429682 
L 285.812705 52.266548 
L 285.938444 52.176723 
L 286.483332 51.342775 
L 287.279721 51.453241 
L 287.866515 50.232806 
L 287.992259 50.336487 
L 288.369548 50.727652 
L 288.495275 50.668961 
L 288.704856 50.089557 
L 289.040117 49.327054 
L 289.207758 49.313234 
L 289.501198 49.68742 
L 289.836681 50.063519 
L 290.004163 49.90746 
L 290.255684 49.699219 
L 290.590958 49.87052 
L 290.800526 49.776233 
L 291.01009 49.702889 
L 291.722628 49.922505 
L 292.644806 49.676489 
L 292.812464 49.880928 
L 293.3992 50.917989 
L 293.650771 50.873918 
L 294.069853 51.030261 
L 294.363284 51.0122 
L 294.572819 50.995033 
L 294.908206 50.982905 
L 296.794296 50.873935 
L 297.171522 50.996455 
L 297.423009 50.964191 
L 297.884073 50.903669 
L 298.554709 50.939702 
L 299.267314 51.182065 
L 300.189429 51.517401 
L 301.404899 51.820565 
L 302.033604 52.027142 
L 303.081471 50.635969 
L 303.458702 50.165557 
L 303.961676 49.706574 
L 304.464646 48.957207 
L 304.925705 49.235376 
L 305.763999 50.510763 
L 306.308913 50.892285 
L 306.811858 51.266132 
L 307.189118 51.647824 
L 307.733968 52.244854 
L 308.320792 52.990178 
L 308.781898 53.092512 
L 309.703996 52.450726 
L 310.123196 52.012133 
L 310.458491 52.186923 
L 311.003312 52.364669 
L 311.59017 52.481331 
L 311.967346 52.474806 
L 314.104985 52.344816 
L 314.524118 52.459065 
L 315.152835 52.737033 
L 315.488151 52.881804 
L 316.871338 53.471567 
L 317.080915 53.778832 
L 317.500064 54.213371 
L 317.835372 54.243197 
L 318.044949 54.155686 
L 318.380277 54.083658 
L 319.344336 53.981329 
L 319.637704 54.122049 
L 319.889241 54.559392 
L 320.140716 55.018689 
L 320.224507 54.973063 
L 320.517913 54.689674 
L 321.859202 53.216647 
L 322.655603 52.176347 
L 322.7813 52.207508 
L 324.164546 53.53783 
L 324.206385 53.492192 
L 324.877059 52.515486 
L 325.254302 52.066098 
L 325.421914 52.231931 
L 325.924871 52.798564 
L 326.344028 52.408177 
L 326.595603 52.163224 
L 326.930811 52.46838 
L 327.349989 52.789572 
L 328.020629 53.163932 
L 328.355987 53.311605 
L 329.026657 53.658433 
L 329.236125 53.886341 
L 329.906749 54.721973 
L 330.074415 54.881213 
L 330.703191 55.808373 
L 330.828935 56.308685 
L 331.834879 64.127248 
L 332.337794 68.073626 
L 333.092356 70.296961 
L 333.804869 71.060749 
L 333.930549 71.113643 
L 334.140193 71.737609 
L 335.774808 77.913669 
L 336.613082 81.746203 
L 336.990325 82.715145 
L 337.828606 84.359517 
L 338.20582 85.192817 
L 338.792615 85.618458 
L 339.337499 86.503588 
L 339.421341 86.47797 
L 340.091956 85.874963 
L 340.636962 86.348106 
L 340.930321 86.597756 
L 341.098 86.454487 
L 342.020031 85.043434 
L 342.648845 81.998437 
L 343.109808 80.033805 
L 343.65471 78.13062 
L 344.870318 73.423039 
L 346.127715 70.633479 
L 346.714527 69.217216 
L 347.594673 67.811292 
L 347.930022 67.321915 
L 348.432959 66.524664 
L 348.894022 65.891032 
L 349.983854 63.651151 
L 350.361022 63.26638 
L 351.492722 61.657769 
L 351.953794 60.960294 
L 353.169297 61.10426 
L 353.420814 61.0979 
L 353.714203 61.161962 
L 353.83998 61.08925 
L 354.342983 60.824844 
L 354.594458 60.634246 
L 355.09752 60.30982 
L 355.432731 60.213222 
L 355.851834 59.89397 
L 358.995539 56.794977 
L 360.043284 56.671595 
L 360.588164 56.318252 
L 360.881574 56.145599 
L 361.719915 55.798969 
L 362.642008 55.831341 
L 363.186926 55.984982 
L 363.186926 55.984982 
" clip-path="url(#p9c701c665d)" style="fill: none; stroke: #328c06; stroke-width: 0.4; stroke-linecap: round"/>
   </g>
   <g id="patch_3">
    <path d="M 55.9075 90.654387 
L 55.9075 10.8 
" style="fill: none; stroke: #000000; stroke-linejoin: miter; stroke-linecap: square"/>
   </g>
   <g id="patch_4">
    <path d="M 55.9075 90.654387 
L 377.81928 90.654387 
" style="fill: none; stroke: #000000; stroke-linejoin: miter; stroke-linecap: square"/>
   </g>
   <g id="legend_1">
    <g id="line2d_26">
     <path d="M 300.631624 22.588594 
L 309.631624 22.588594 
L 318.631624 22.588594 
" style="fill: none; stroke: #2a2eec; stroke-width: 0.4; stroke-linecap: round"/>
    </g>
    <g id="text_5">
     <!-- SNR:0.1 -->
     <g style="fill: #262626" transform="translate(325.831624 25.738594) scale(0.09 -0.09)">
      <defs>
       <path id="DejaVuSerif-53" d="M 594 225 
L 594 1288 
L 953 1284 
Q 969 753 1261 498 
Q 1553 244 2150 244 
Q 2706 244 2998 464 
Q 3291 684 3291 1106 
Q 3291 1444 3114 1625 
Q 2938 1806 2369 1978 
L 1753 2163 
Q 1084 2366 811 2669 
Q 538 2972 538 3500 
Q 538 4094 959 4422 
Q 1381 4750 2144 4750 
Q 2469 4750 2856 4679 
Q 3244 4609 3681 4475 
L 3681 3481 
L 3328 3481 
Q 3275 3975 2998 4195 
Q 2722 4416 2156 4416 
Q 1663 4416 1405 4214 
Q 1147 4013 1147 3628 
Q 1147 3294 1340 3103 
Q 1534 2913 2163 2725 
L 2741 2553 
Q 3375 2363 3645 2067 
Q 3916 1772 3916 1275 
Q 3916 597 3481 253 
Q 3047 -91 2188 -91 
Q 1803 -91 1404 -12 
Q 1006 66 594 225 
z
" transform="scale(0.015625)"/>
       <path id="DejaVuSerif-4e" d="M 313 0 
L 313 331 
L 941 331 
L 941 4331 
L 313 4331 
L 313 4666 
L 1509 4666 
L 4306 984 
L 4306 4331 
L 3681 4331 
L 3681 4666 
L 5319 4666 
L 5319 4331 
L 4691 4331 
L 4691 -91 
L 4313 -91 
L 1325 3841 
L 1325 331 
L 1953 331 
L 1953 0 
L 313 0 
z
" transform="scale(0.015625)"/>
       <path id="DejaVuSerif-52" d="M 3066 2316 
Q 3284 2256 3442 2114 
Q 3600 1972 3725 1716 
L 4403 331 
L 4972 331 
L 4972 0 
L 3872 0 
L 3144 1484 
Q 2934 1916 2759 2042 
Q 2584 2169 2278 2169 
L 1581 2169 
L 1581 331 
L 2241 331 
L 2241 0 
L 353 0 
L 353 331 
L 947 331 
L 947 4331 
L 353 4331 
L 353 4666 
L 2719 4666 
Q 3400 4666 3770 4341 
Q 4141 4016 4141 3419 
Q 4141 2938 3870 2661 
Q 3600 2384 3066 2316 
z
M 1581 2503 
L 2503 2503 
Q 2975 2503 3200 2726 
Q 3425 2950 3425 3419 
Q 3425 3888 3200 4109 
Q 2975 4331 2503 4331 
L 1581 4331 
L 1581 2503 
z
" transform="scale(0.015625)"/>
       <path id="DejaVuSerif-3a" d="M 666 325 
Q 666 500 786 622 
Q 906 744 1081 744 
Q 1256 744 1376 622 
Q 1497 500 1497 325 
Q 1497 150 1378 29 
Q 1259 -91 1081 -91 
Q 903 -91 784 29 
Q 666 150 666 325 
z
M 666 2363 
Q 666 2538 786 2658 
Q 906 2778 1081 2778 
Q 1259 2778 1378 2659 
Q 1497 2541 1497 2363 
Q 1497 2184 1378 2065 
Q 1259 1947 1081 1947 
Q 906 1947 786 2067 
Q 666 2188 666 2363 
z
" transform="scale(0.015625)"/>
       <path id="DejaVuSerif-31" d="M 909 0 
L 909 331 
L 1722 331 
L 1722 4213 
L 781 3603 
L 781 4013 
L 1919 4750 
L 2350 4750 
L 2350 331 
L 3163 331 
L 3163 0 
L 909 0 
z
" transform="scale(0.015625)"/>
      </defs>
      <use xlink:href="#DejaVuSerif-53"/>
      <use xlink:href="#DejaVuSerif-4e" x="68.505859"/>
      <use xlink:href="#DejaVuSerif-52" x="156.005859"/>
      <use xlink:href="#DejaVuSerif-3a" x="231.298828"/>
      <use xlink:href="#DejaVuSerif-30" x="264.990234"/>
      <use xlink:href="#DejaVuSerif-2e" x="328.613281"/>
      <use xlink:href="#DejaVuSerif-31" x="360.400391"/>
     </g>
    </g>
    <g id="line2d_27">
     <path d="M 300.631624 35.798906 
L 309.631624 35.798906 
L 318.631624 35.798906 
" style="fill: none; stroke: #fa7c17; stroke-width: 0.4; stroke-linecap: round"/>
    </g>
    <g id="text_6">
     <!-- SNR:1.0 -->
     <g style="fill: #262626" transform="translate(325.831624 38.948906) scale(0.09 -0.09)">
      <use xlink:href="#DejaVuSerif-53"/>
      <use xlink:href="#DejaVuSerif-4e" x="68.505859"/>
      <use xlink:href="#DejaVuSerif-52" x="156.005859"/>
      <use xlink:href="#DejaVuSerif-3a" x="231.298828"/>
      <use xlink:href="#DejaVuSerif-31" x="264.990234"/>
      <use xlink:href="#DejaVuSerif-2e" x="328.613281"/>
      <use xlink:href="#DejaVuSerif-30" x="360.400391"/>
     </g>
    </g>
    <g id="line2d_28">
     <path d="M 300.631624 49.009219 
L 309.631624 49.009219 
L 318.631624 49.009219 
" style="fill: none; stroke: #328c06; stroke-width: 0.4; stroke-linecap: round"/>
    </g>
    <g id="text_7">
     <!-- SNR:10.0 -->
     <g style="fill: #262626" transform="translate(325.831624 52.159219) scale(0.09 -0.09)">
      <use xlink:href="#DejaVuSerif-53"/>
      <use xlink:href="#DejaVuSerif-4e" x="68.505859"/>
      <use xlink:href="#DejaVuSerif-52" x="156.005859"/>
      <use xlink:href="#DejaVuSerif-3a" x="231.298828"/>
      <use xlink:href="#DejaVuSerif-31" x="264.990234"/>
      <use xlink:href="#DejaVuSerif-30" x="328.613281"/>
      <use xlink:href="#DejaVuSerif-2e" x="392.236328"/>
      <use xlink:href="#DejaVuSerif-30" x="424.023438"/>
     </g>
    </g>
   </g>
  </g>
  <g id="axes_2">
   <g id="patch_5">
    <path d="M 55.9075 183.523104 
L 377.81928 183.523104 
L 377.81928 103.668717 
L 55.9075 103.668717 
z
" style="fill: #ffffff"/>
   </g>
   <g id="matplotlib.axis_3">
    <g id="xtick_9">
     <g id="line2d_29">
      <path d="M 70.539854 183.523104 
L 70.539854 103.668717 
" clip-path="url(#p96ee969e00)" style="fill: none; stroke: #b0b0b0; stroke-width: 0.1; stroke-linecap: round"/>
     </g>
     <g id="line2d_30"/>
     <g id="text_8">
      <!-- 0 -->
      <g style="fill: #262626" transform="translate(67.676729 193.861698) scale(0.09 -0.09)">
       <use xlink:href="#DejaVuSerif-30"/>
      </g>
     </g>
    </g>
    <g id="xtick_10">
     <g id="line2d_31">
      <path d="M 112.454356 183.523104 
L 112.454356 103.668717 
" clip-path="url(#p96ee969e00)" style="fill: none; stroke: #b0b0b0; stroke-width: 0.1; stroke-linecap: round"/>
     </g>
     <g id="line2d_32"/>
     <g id="text_9">
      <!-- 10 -->
      <g style="fill: #262626" transform="translate(106.728106 193.861698) scale(0.09 -0.09)">
       <use xlink:href="#DejaVuSerif-31"/>
       <use xlink:href="#DejaVuSerif-30" x="63.623047"/>
      </g>
     </g>
    </g>
    <g id="xtick_11">
     <g id="line2d_33">
      <path d="M 154.368858 183.523104 
L 154.368858 103.668717 
" clip-path="url(#p96ee969e00)" style="fill: none; stroke: #b0b0b0; stroke-width: 0.1; stroke-linecap: round"/>
     </g>
     <g id="line2d_34"/>
     <g id="text_10">
      <!-- 20 -->
      <g style="fill: #262626" transform="translate(148.642608 193.861698) scale(0.09 -0.09)">
       <use xlink:href="#DejaVuSerif-32"/>
       <use xlink:href="#DejaVuSerif-30" x="63.623047"/>
      </g>
     </g>
    </g>
    <g id="xtick_12">
     <g id="line2d_35">
      <path d="M 196.283361 183.523104 
L 196.283361 103.668717 
" clip-path="url(#p96ee969e00)" style="fill: none; stroke: #b0b0b0; stroke-width: 0.1; stroke-linecap: round"/>
     </g>
     <g id="line2d_36"/>
     <g id="text_11">
      <!-- 30 -->
      <g style="fill: #262626" transform="translate(190.557111 193.861698) scale(0.09 -0.09)">
       <defs>
        <path id="DejaVuSerif-33" d="M 622 4469 
Q 988 4606 1323 4678 
Q 1659 4750 1953 4750 
Q 2638 4750 3022 4454 
Q 3406 4159 3406 3634 
Q 3406 3213 3140 2930 
Q 2875 2647 2388 2547 
Q 2963 2466 3280 2130 
Q 3597 1794 3597 1259 
Q 3597 606 3158 257 
Q 2719 -91 1894 -91 
Q 1528 -91 1179 -12 
Q 831 66 488 225 
L 488 1131 
L 838 1131 
Q 869 681 1141 450 
Q 1413 219 1906 219 
Q 2384 219 2661 495 
Q 2938 772 2938 1253 
Q 2938 1803 2653 2086 
Q 2369 2369 1819 2369 
L 1522 2369 
L 1522 2688 
L 1678 2688 
Q 2225 2688 2498 2914 
Q 2772 3141 2772 3597 
Q 2772 4006 2547 4223 
Q 2322 4441 1900 4441 
Q 1478 4441 1245 4241 
Q 1013 4041 972 3647 
L 622 3647 
L 622 4469 
z
" transform="scale(0.015625)"/>
       </defs>
       <use xlink:href="#DejaVuSerif-33"/>
       <use xlink:href="#DejaVuSerif-30" x="63.623047"/>
      </g>
     </g>
    </g>
    <g id="xtick_13">
     <g id="line2d_37">
      <path d="M 238.197863 183.523104 
L 238.197863 103.668717 
" clip-path="url(#p96ee969e00)" style="fill: none; stroke: #b0b0b0; stroke-width: 0.1; stroke-linecap: round"/>
     </g>
     <g id="line2d_38"/>
     <g id="text_12">
      <!-- 40 -->
      <g style="fill: #262626" transform="translate(232.471613 193.861698) scale(0.09 -0.09)">
       <defs>
        <path id="DejaVuSerif-34" d="M 2234 1581 
L 2234 4063 
L 641 1581 
L 2234 1581 
z
M 3609 0 
L 1484 0 
L 1484 331 
L 2234 331 
L 2234 1247 
L 197 1247 
L 197 1588 
L 2241 4750 
L 2859 4750 
L 2859 1581 
L 3750 1581 
L 3750 1247 
L 2859 1247 
L 2859 331 
L 3609 331 
L 3609 0 
z
" transform="scale(0.015625)"/>
       </defs>
       <use xlink:href="#DejaVuSerif-34"/>
       <use xlink:href="#DejaVuSerif-30" x="63.623047"/>
      </g>
     </g>
    </g>
    <g id="xtick_14">
     <g id="line2d_39">
      <path d="M 280.112366 183.523104 
L 280.112366 103.668717 
" clip-path="url(#p96ee969e00)" style="fill: none; stroke: #b0b0b0; stroke-width: 0.1; stroke-linecap: round"/>
     </g>
     <g id="line2d_40"/>
     <g id="text_13">
      <!-- 50 -->
      <g style="fill: #262626" transform="translate(274.386116 193.861698) scale(0.09 -0.09)">
       <defs>
        <path id="DejaVuSerif-35" d="M 3219 4666 
L 3219 4153 
L 1081 4153 
L 1081 2816 
Q 1244 2928 1461 2984 
Q 1678 3041 1947 3041 
Q 2703 3041 3140 2622 
Q 3578 2203 3578 1478 
Q 3578 738 3136 323 
Q 2694 -91 1894 -91 
Q 1572 -91 1234 -12 
Q 897 66 544 225 
L 544 1131 
L 897 1131 
Q 925 688 1179 453 
Q 1434 219 1894 219 
Q 2388 219 2653 544 
Q 2919 869 2919 1478 
Q 2919 2084 2655 2407 
Q 2391 2731 1894 2731 
Q 1613 2731 1398 2631 
Q 1184 2531 1019 2322 
L 750 2322 
L 750 4666 
L 3219 4666 
z
" transform="scale(0.015625)"/>
       </defs>
       <use xlink:href="#DejaVuSerif-35"/>
       <use xlink:href="#DejaVuSerif-30" x="63.623047"/>
      </g>
     </g>
    </g>
    <g id="xtick_15">
     <g id="line2d_41">
      <path d="M 322.026868 183.523104 
L 322.026868 103.668717 
" clip-path="url(#p96ee969e00)" style="fill: none; stroke: #b0b0b0; stroke-width: 0.1; stroke-linecap: round"/>
     </g>
     <g id="line2d_42"/>
     <g id="text_14">
      <!-- 60 -->
      <g style="fill: #262626" transform="translate(316.300618 193.861698) scale(0.09 -0.09)">
       <defs>
        <path id="DejaVuSerif-36" d="M 2094 219 
Q 2534 219 2771 542 
Q 3009 866 3009 1472 
Q 3009 2078 2771 2401 
Q 2534 2725 2094 2725 
Q 1647 2725 1412 2412 
Q 1178 2100 1178 1509 
Q 1178 888 1415 553 
Q 1653 219 2094 219 
z
M 1075 2569 
Q 1288 2803 1556 2918 
Q 1825 3034 2163 3034 
Q 2859 3034 3264 2615 
Q 3669 2197 3669 1472 
Q 3669 763 3233 336 
Q 2797 -91 2069 -91 
Q 1278 -91 853 498 
Q 428 1088 428 2181 
Q 428 3406 931 4078 
Q 1434 4750 2350 4750 
Q 2597 4750 2869 4703 
Q 3141 4656 3425 4563 
L 3425 3794 
L 3072 3794 
Q 3034 4109 2831 4275 
Q 2628 4441 2284 4441 
Q 1678 4441 1381 3981 
Q 1084 3522 1075 2569 
z
" transform="scale(0.015625)"/>
       </defs>
       <use xlink:href="#DejaVuSerif-36"/>
       <use xlink:href="#DejaVuSerif-30" x="63.623047"/>
      </g>
     </g>
    </g>
    <g id="xtick_16">
     <g id="line2d_43">
      <path d="M 363.941371 183.523104 
L 363.941371 103.668717 
" clip-path="url(#p96ee969e00)" style="fill: none; stroke: #b0b0b0; stroke-width: 0.1; stroke-linecap: round"/>
     </g>
     <g id="line2d_44"/>
     <g id="text_15">
      <!-- 70 -->
      <g style="fill: #262626" transform="translate(358.215121 193.861698) scale(0.09 -0.09)">
       <defs>
        <path id="DejaVuSerif-37" d="M 3609 4347 
L 1784 0 
L 1319 0 
L 3059 4153 
L 903 4153 
L 903 3578 
L 538 3578 
L 538 4666 
L 3609 4666 
L 3609 4347 
z
" transform="scale(0.015625)"/>
       </defs>
       <use xlink:href="#DejaVuSerif-37"/>
       <use xlink:href="#DejaVuSerif-30" x="63.623047"/>
      </g>
     </g>
    </g>
    <g id="text_16">
     <!-- Time [s] -->
     <g style="fill: #262626" transform="translate(200.310265 205.812166) scale(0.08 -0.08)">
      <defs>
       <path id="DejaVuSerif-54" d="M 1222 0 
L 1222 331 
L 1819 331 
L 1819 4294 
L 447 4294 
L 447 3566 
L 63 3566 
L 63 4666 
L 4206 4666 
L 4206 3566 
L 3822 3566 
L 3822 4294 
L 2450 4294 
L 2450 331 
L 3047 331 
L 3047 0 
L 1222 0 
z
" transform="scale(0.015625)"/>
       <path id="DejaVuSerif-69" d="M 622 4353 
Q 622 4497 726 4603 
Q 831 4709 978 4709 
Q 1122 4709 1226 4603 
Q 1331 4497 1331 4353 
Q 1331 4206 1228 4103 
Q 1125 4000 978 4000 
Q 831 4000 726 4103 
Q 622 4206 622 4353 
z
M 1356 331 
L 1900 331 
L 1900 0 
L 231 0 
L 231 331 
L 781 331 
L 781 2988 
L 231 2988 
L 231 3322 
L 1356 3322 
L 1356 331 
z
" transform="scale(0.015625)"/>
       <path id="DejaVuSerif-6d" d="M 3316 2675 
Q 3481 3041 3739 3227 
Q 3997 3413 4341 3413 
Q 4863 3413 5119 3089 
Q 5375 2766 5375 2113 
L 5375 331 
L 5894 331 
L 5894 0 
L 4300 0 
L 4300 331 
L 4800 331 
L 4800 2047 
Q 4800 2556 4650 2772 
Q 4500 2988 4153 2988 
Q 3769 2988 3567 2697 
Q 3366 2406 3366 1850 
L 3366 331 
L 3866 331 
L 3866 0 
L 2291 0 
L 2291 331 
L 2791 331 
L 2791 2069 
Q 2791 2566 2641 2777 
Q 2491 2988 2144 2988 
Q 1759 2988 1557 2697 
Q 1356 2406 1356 1850 
L 1356 331 
L 1856 331 
L 1856 0 
L 263 0 
L 263 331 
L 781 331 
L 781 2994 
L 231 2994 
L 231 3322 
L 1356 3322 
L 1356 2731 
Q 1516 3063 1762 3238 
Q 2009 3413 2322 3413 
Q 2709 3413 2968 3220 
Q 3228 3028 3316 2675 
z
" transform="scale(0.015625)"/>
       <path id="DejaVuSerif-65" d="M 3469 1600 
L 991 1600 
L 991 1575 
Q 991 903 1244 561 
Q 1497 219 1991 219 
Q 2369 219 2611 417 
Q 2853 616 2950 1006 
L 3413 1006 
Q 3275 459 2904 184 
Q 2534 -91 1931 -91 
Q 1203 -91 761 389 
Q 319 869 319 1663 
Q 319 2450 753 2931 
Q 1188 3413 1894 3413 
Q 2647 3413 3050 2948 
Q 3453 2484 3469 1600 
z
M 2791 1931 
Q 2772 2513 2545 2808 
Q 2319 3103 1894 3103 
Q 1497 3103 1269 2806 
Q 1041 2509 991 1931 
L 2791 1931 
z
" transform="scale(0.015625)"/>
      </defs>
      <use xlink:href="#DejaVuSerif-54"/>
      <use xlink:href="#DejaVuSerif-69" x="66.699219"/>
      <use xlink:href="#DejaVuSerif-6d" x="98.681641"/>
      <use xlink:href="#DejaVuSerif-65" x="193.505859"/>
      <use xlink:href="#DejaVuSerif-20" x="252.685547"/>
      <use xlink:href="#DejaVuSerif-5b" x="284.472656"/>
      <use xlink:href="#DejaVuSerif-73" x="323.486328"/>
      <use xlink:href="#DejaVuSerif-5d" x="374.804688"/>
     </g>
    </g>
   </g>
   <g id="matplotlib.axis_4">
    <g id="ytick_4">
     <g id="line2d_45">
      <path d="M 55.9075 181.292574 
L 377.81928 181.292574 
" clip-path="url(#p96ee969e00)" style="fill: none; stroke: #b0b0b0; stroke-width: 0.1; stroke-linecap: round"/>
     </g>
     <g id="line2d_46"/>
     <g id="text_17">
      <!-- −0.05 -->
      <g style="fill: #262626" transform="translate(24.826719 184.711871) scale(0.09 -0.09)">
       <use xlink:href="#DejaVuSerif-2212"/>
       <use xlink:href="#DejaVuSerif-30" x="83.789062"/>
       <use xlink:href="#DejaVuSerif-2e" x="147.412109"/>
       <use xlink:href="#DejaVuSerif-30" x="179.199219"/>
       <use xlink:href="#DejaVuSerif-35" x="242.822266"/>
      </g>
     </g>
    </g>
    <g id="ytick_5">
     <g id="line2d_47">
      <path d="M 55.9075 143.078457 
L 377.81928 143.078457 
" clip-path="url(#p96ee969e00)" style="fill: none; stroke: #b0b0b0; stroke-width: 0.1; stroke-linecap: round"/>
     </g>
     <g id="line2d_48"/>
     <g id="text_18">
      <!-- 0.00 -->
      <g style="fill: #262626" transform="translate(32.368438 146.497754) scale(0.09 -0.09)">
       <use xlink:href="#DejaVuSerif-30"/>
       <use xlink:href="#DejaVuSerif-2e" x="63.623047"/>
       <use xlink:href="#DejaVuSerif-30" x="95.410156"/>
       <use xlink:href="#DejaVuSerif-30" x="159.033203"/>
      </g>
     </g>
    </g>
    <g id="ytick_6">
     <g id="line2d_49">
      <path d="M 55.9075 104.86434 
L 377.81928 104.86434 
" clip-path="url(#p96ee969e00)" style="fill: none; stroke: #b0b0b0; stroke-width: 0.1; stroke-linecap: round"/>
     </g>
     <g id="line2d_50"/>
     <g id="text_19">
      <!-- 0.05 -->
      <g style="fill: #262626" transform="translate(32.368438 108.283637) scale(0.09 -0.09)">
       <use xlink:href="#DejaVuSerif-30"/>
       <use xlink:href="#DejaVuSerif-2e" x="63.623047"/>
       <use xlink:href="#DejaVuSerif-30" x="95.410156"/>
       <use xlink:href="#DejaVuSerif-35" x="159.033203"/>
      </g>
     </g>
    </g>
    <g id="text_20">
     <!-- $\dot{v}$ [m/s2] -->
     <g style="fill: #262626" transform="translate(19.162969 160.11591) rotate(-90) scale(0.08 -0.08)">
      <defs>
       <path id="DejaVuSans-Oblique-76" d="M 459 3500 
L 1069 3500 
L 1581 525 
L 3256 3500 
L 3866 3500 
L 1875 0 
L 1100 0 
L 459 3500 
z
" transform="scale(0.015625)"/>
      </defs>
      <use xlink:href="#DejaVuSans-307" transform="translate(62.388672 12.015625)"/>
      <use xlink:href="#DejaVuSans-Oblique-76" transform="translate(0 0.828125)"/>
      <use xlink:href="#DejaVuSerif-20" transform="translate(59.179688 0.828125)"/>
      <use xlink:href="#DejaVuSerif-5b" transform="translate(90.966797 0.828125)"/>
      <use xlink:href="#DejaVuSerif-6d" transform="translate(129.980469 0.828125)"/>
      <use xlink:href="#DejaVuSerif-2f" transform="translate(224.804688 0.828125)"/>
      <use xlink:href="#DejaVuSerif-73" transform="translate(258.496094 0.828125)"/>
      <use xlink:href="#DejaVuSerif-32" transform="translate(309.814453 0.828125)"/>
      <use xlink:href="#DejaVuSerif-5d" transform="translate(373.4375 0.828125)"/>
     </g>
    </g>
   </g>
   <g id="line2d_51">
    <path d="M 70.539854 143.078457 
L 74.563629 141.53687 
L 75.401919 141.428526 
L 77.497628 135.206983 
L 78.922721 130.287659 
L 80.180135 125.101575 
L 81.144202 121.17236 
L 82.695026 120.505426 
L 84.539335 119.969879 
L 85.754793 119.83082 
L 86.760733 119.952878 
L 87.850493 120.360655 
L 89.233697 121.182079 
L 90.491115 122.130426 
L 92.377276 123.477777 
L 94.640659 124.887097 
L 96.862123 126.424829 
L 99.209357 128.489954 
L 104.490563 133.493867 
L 104.825975 133.766738 
L 106.87969 143.089896 
L 109.059218 151.989513 
L 111.280708 160.183015 
L 115.681722 176.005002 
L 116.184709 177.629722 
L 117.358315 177.98831 
L 118.448101 178.069436 
L 119.53784 177.929689 
L 120.543809 177.576911 
L 121.591667 176.967571 
L 122.639597 176.11189 
L 123.980882 174.721151 
L 125.699318 172.62283 
L 129.471627 168.001191 
L 135.130068 161.829685 
L 136.471324 160.763605 
L 138.273782 159.668232 
L 146.153629 155.41336 
L 148.375219 154.496973 
L 155.458585 151.728464 
L 159.272885 150.101073 
L 161.242824 149.520478 
L 169.038901 147.472178 
L 171.595706 146.606676 
L 173.272261 145.81246 
L 174.906906 144.771125 
L 178.008646 142.38732 
L 179.60136 136.796911 
L 181.361765 131.441823 
L 184.840656 121.861457 
L 188.445303 111.689191 
L 189.325512 109.302398 
L 190.33146 109.286458 
L 191.421321 109.49641 
L 192.636791 109.949487 
L 193.936316 110.687353 
L 195.193563 111.635916 
L 196.995895 113.351508 
L 199.343078 115.903455 
L 204.41472 121.531209 
L 206.845769 123.902416 
L 208.815776 125.540379 
L 210.827693 126.90982 
L 212.881466 128.036092 
L 216.569968 129.764856 
L 219.210644 130.817514 
L 226.168376 133.181074 
L 229.814971 134.588319 
L 239.706744 137.972456 
L 241.802456 138.446525 
L 243.898177 138.691229 
L 246.49688 139.00182 
L 248.00584 139.395348 
L 249.472831 140.037358 
L 251.023642 140.975207 
L 253.580507 142.776371 
L 255.299031 148.699759 
L 257.227052 154.561715 
L 259.574302 160.919158 
L 265.023095 174.869259 
L 266.112876 174.783738 
L 267.370315 174.439022 
L 268.879338 173.774283 
L 270.513932 172.768461 
L 271.897136 171.66926 
L 273.699422 169.916561 
L 278.519602 165.124843 
L 284.932496 159.767438 
L 286.776734 158.680708 
L 292.351384 156.132347 
L 296.375163 154.594032 
L 314.943284 148.751689 
L 322.404074 147.079711 
L 325.883023 146.186481 
L 327.475699 145.418061 
L 329.152363 144.332822 
L 330.828935 143.009229 
L 332.547366 137.354649 
L 334.936535 130.245342 
L 336.948372 124.934285 
L 341.768607 112.121971 
L 342.145771 111.334794 
L 343.109808 111.320243 
L 344.493 111.602757 
L 345.666627 112.100088 
L 347.217472 112.973409 
L 348.642548 114.035345 
L 350.109614 115.439446 
L 355.390795 120.777306 
L 356.857774 121.824357 
L 358.492448 122.715973 
L 360.043284 123.310417 
L 362.474376 123.944466 
L 363.186926 124.127259 
L 363.186926 124.127259 
" clip-path="url(#p96ee969e00)" style="fill: none; stroke: #2a2eec; stroke-width: 0.4; stroke-linecap: round"/>
   </g>
   <g id="line2d_52">
    <path d="M 70.539854 143.078457 
L 71.294277 143.320504 
L 71.922994 143.245986 
L 72.551767 142.985164 
L 73.599587 142.243552 
L 75.108497 141.180951 
L 75.401919 140.980847 
L 78.042512 132.784745 
L 79.38383 128.485795 
L 80.389728 124.633878 
L 81.144202 121.854979 
L 82.317791 121.102876 
L 83.449617 120.208513 
L 84.916473 119.018642 
L 85.67101 118.632372 
L 86.341625 118.592547 
L 86.844562 118.896825 
L 87.724762 119.738625 
L 90.784521 123.579672 
L 91.245681 124.105664 
L 91.958198 124.082033 
L 92.58684 124.273883 
L 93.131733 124.302743 
L 93.844271 124.097708 
L 94.263479 124.34131 
L 94.975988 124.762689 
L 96.31726 125.472486 
L 96.90403 126.270271 
L 97.616576 127.075774 
L 98.748263 128.355331 
L 101.263142 131.035133 
L 102.269086 131.734629 
L 104.280978 133.0455 
L 104.825975 133.287438 
L 110.90349 159.389121 
L 112.663975 165.959465 
L 114.675795 172.604101 
L 115.681722 176.161745 
L 116.184709 177.646599 
L 119.454078 178.335189 
L 120.166599 178.174839 
L 121.172526 177.643845 
L 122.052781 176.899315 
L 123.058679 175.589132 
L 124.148615 174.070923 
L 124.944865 172.894 
L 125.783126 171.651881 
L 126.831026 170.394287 
L 127.501637 169.748199 
L 128.004653 169.415059 
L 129.094397 168.833159 
L 129.681225 168.435203 
L 129.974601 168.176808 
L 130.561429 167.594851 
L 130.938635 167.158931 
L 132.44754 164.9338 
L 133.830723 162.878565 
L 135.507286 160.83065 
L 136.345576 160.231034 
L 137.058123 160.022458 
L 138.818549 159.515443 
L 140.034115 159.052044 
L 140.956247 158.642948 
L 141.87832 158.043859 
L 143.010091 157.133834 
L 144.770408 155.865531 
L 145.734429 155.326932 
L 147.285278 154.832997 
L 149.003785 154.291854 
L 150.638476 153.615132 
L 151.728207 153.225578 
L 153.069492 152.874896 
L 156.129234 151.675875 
L 156.883741 151.171671 
L 158.224959 150.283936 
L 159.650056 149.618449 
L 160.949473 149.388562 
L 162.164943 149.432352 
L 162.751776 149.42594 
L 164.344456 148.911797 
L 165.72763 148.167106 
L 166.440206 148.370543 
L 166.943176 148.466416 
L 167.739547 148.188066 
L 168.829446 146.853106 
L 169.332386 146.749678 
L 170.128741 146.531794 
L 170.54784 146.416922 
L 171.805296 146.513739 
L 173.775219 146.042336 
L 174.655457 145.435243 
L 175.158468 144.901337 
L 177.212246 142.565603 
L 178.008646 141.842261 
L 178.972617 138.61938 
L 180.271987 135.139305 
L 182.577281 129.30638 
L 183.66705 125.761825 
L 187.020252 114.48999 
L 188.738713 110.002063 
L 189.283689 108.82992 
L 191.588916 109.594168 
L 193.265487 110.03399 
L 194.145692 110.589807 
L 195.067882 111.476552 
L 196.115653 112.801037 
L 197.750335 114.631667 
L 201.564542 118.373343 
L 203.366987 120.029545 
L 204.708138 121.503638 
L 206.803905 123.799624 
L 208.815776 125.729962 
L 210.408511 126.875015 
L 211.624019 127.475706 
L 214.264632 128.473352 
L 219.168667 131.051796 
L 220.132688 131.173034 
L 223.024855 131.710672 
L 224.324125 132.293997 
L 226.461815 133.478445 
L 227.761224 134.093245 
L 228.892835 134.409735 
L 230.653291 134.768134 
L 231.91068 135.094806 
L 232.958496 135.495552 
L 235.179981 136.464829 
L 241.928225 138.721564 
L 243.059929 138.903548 
L 247.377152 139.137353 
L 248.25731 139.390428 
L 249.472831 139.935019 
L 251.400923 141.144713 
L 252.742145 142.163946 
L 253.580507 142.856815 
L 254.502638 146.028037 
L 256.053433 150.542818 
L 259.574302 160.620949 
L 262.759745 170.313832 
L 264.56206 174.680876 
L 264.855466 175.298394 
L 264.897389 175.280783 
L 268.16672 173.990869 
L 269.13077 173.684041 
L 271.100702 172.555966 
L 271.980931 171.675601 
L 274.118571 168.929262 
L 275.459881 167.211345 
L 276.298171 166.477833 
L 277.765128 165.631665 
L 278.687235 165.378041 
L 279.651348 165.094391 
L 280.489609 164.43405 
L 281.244049 163.52303 
L 282.585393 161.382439 
L 283.255953 160.486588 
L 284.178035 159.534523 
L 284.555257 159.527211 
L 285.309789 159.162585 
L 286.064225 158.96168 
L 286.567237 158.571328 
L 287.489285 158.262644 
L 287.824613 158.063662 
L 288.620972 157.880053 
L 289.165949 157.452023 
L 289.626941 157.413752 
L 290.004163 157.292436 
L 291.596948 156.533419 
L 293.902254 155.498611 
L 294.866296 154.965359 
L 296.333316 154.416272 
L 297.967906 154.148714 
L 299.854046 153.766003 
L 301.404899 153.114848 
L 303.458702 152.027342 
L 304.967666 151.699095 
L 305.97358 151.532204 
L 308.614206 150.866717 
L 309.242974 150.72904 
L 312.512222 149.153057 
L 314.39837 148.83389 
L 316.326521 148.542864 
L 317.290542 148.39861 
L 317.751581 148.254858 
L 319.679702 147.650581 
L 320.434054 147.421747 
L 321.188532 147.026307 
L 322.110659 146.587788 
L 323.619556 146.271794 
L 324.70943 146.451178 
L 325.547636 146.576681 
L 326.846994 146.220688 
L 328.020629 145.517522 
L 328.942757 144.741556 
L 330.661235 142.628746 
L 330.828935 142.414301 
L 331.373777 140.974474 
L 332.04438 139.268531 
L 333.762887 134.279892 
L 334.559267 131.93249 
L 337.535188 123.422657 
L 339.79858 116.457405 
L 341.349471 112.696123 
L 342.145771 110.772054 
L 343.026013 110.988136 
L 343.822355 111.363632 
L 344.828316 111.776529 
L 345.876161 112.40778 
L 346.672566 112.660507 
L 348.474919 113.629799 
L 349.271236 114.527709 
L 351.241264 117.026671 
L 352.456759 118.367478 
L 354.342983 119.764127 
L 356.271 121.244584 
L 359.624202 123.62773 
L 360.504365 123.985933 
L 361.719915 124.225979 
L 363.186926 124.47592 
L 363.186926 124.47592 
" clip-path="url(#p96ee969e00)" style="fill: none; stroke: #fa7c17; stroke-width: 0.4; stroke-linecap: round"/>
   </g>
   <g id="line2d_53">
    <path d="M 70.539854 143.078457 
L 70.833213 143.214131 
L 71.46196 143.66106 
L 72.13263 143.750246 
L 72.928943 143.272733 
L 75.108497 140.822724 
L 75.234286 140.898291 
L 75.359984 140.97719 
L 76.030603 139.270403 
L 76.910808 136.892359 
L 77.246178 135.537064 
L 78.294007 132.778285 
L 78.964648 130.262894 
L 80.725153 122.551575 
L 81.186167 120.674697 
L 82.108227 118.911233 
L 82.778872 118.424438 
L 83.19813 118.428812 
L 83.784803 118.350298 
L 84.832682 118.639557 
L 85.629062 118.660317 
L 85.922438 118.824687 
L 86.17393 118.908175 
L 86.341625 118.909221 
L 86.760733 119.967702 
L 87.263707 121.326728 
L 88.730689 123.823186 
L 88.856433 123.365448 
L 89.401329 121.641846 
L 89.569088 121.219295 
L 89.610982 121.239988 
L 89.862406 122.041673 
L 90.113889 122.791231 
L 90.281568 122.877492 
L 90.700696 123.698634 
L 90.910256 124.913809 
L 91.161751 125.942203 
L 91.245681 125.636209 
L 91.790523 122.594983 
L 91.916221 122.590069 
L 92.796404 123.6005 
L 92.964096 123.712077 
L 93.089831 123.526096 
L 93.299428 122.72679 
L 93.592788 121.352491 
L 93.634744 121.363131 
L 93.886231 121.81529 
L 94.137685 122.877691 
L 94.724475 125.582857 
L 95.269385 125.982306 
L 95.604709 125.479585 
L 95.856209 125.288825 
L 96.149598 125.382288 
L 96.31726 125.599597 
L 96.568726 126.469839 
L 97.113673 128.683126 
L 97.323183 128.882201 
L 98.119642 128.251381 
L 98.161465 128.332577 
L 98.496781 128.764979 
L 98.748263 128.798857 
L 98.957899 128.876195 
L 99.586574 129.287412 
L 100.089532 129.547956 
L 100.760164 130.089489 
L 101.137466 130.828007 
L 101.55656 130.431682 
L 102.017607 130.721999 
L 102.772098 131.829568 
L 103.526534 133.50337 
L 104.029499 133.831311 
L 104.532523 133.963746 
L 104.825975 134.061693 
L 105.664169 136.846061 
L 106.96351 141.019306 
L 108.221042 146.58953 
L 110.232871 158.528418 
L 111.490335 162.926495 
L 111.993255 165.131713 
L 112.454314 166.799518 
L 113.041126 168.71912 
L 113.795662 170.941501 
L 114.340513 172.236675 
L 115.053022 173.60005 
L 116.142816 177.101819 
L 116.603854 177.474645 
L 117.232572 178.379812 
L 118.112822 179.428634 
L 118.699558 179.893359 
L 119.789407 179.676363 
L 120.082737 179.336014 
L 121.130675 177.950944 
L 121.96891 177.007889 
L 122.807301 175.108934 
L 123.100606 174.079791 
L 123.352102 173.609235 
L 123.519739 173.583286 
L 123.645574 173.599633 
L 124.064665 173.153341 
L 124.274237 173.332758 
L 124.483781 173.499821 
L 124.69342 173.242664 
L 124.902909 172.614634 
L 125.280164 171.600387 
L 125.657378 171.337795 
L 125.866947 171.184872 
L 126.202275 170.913964 
L 126.369933 170.919187 
L 126.621412 171.093873 
L 126.789078 170.794396 
L 127.124411 170.146408 
L 127.459756 170.099868 
L 127.711277 169.861668 
L 127.962701 170.199334 
L 128.256098 170.61323 
L 128.381833 170.535012 
L 128.633404 170.336085 
L 128.801079 170.571416 
L 128.968636 170.714701 
L 129.094397 170.467291 
L 129.471627 169.51788 
L 129.639289 169.825271 
L 129.765029 169.954548 
L 129.890764 169.695667 
L 130.393746 168.09481 
L 130.435632 168.132281 
L 130.645212 168.291867 
L 130.771019 168.056759 
L 131.693125 165.547752 
L 132.15413 164.602577 
L 132.866694 163.080843 
L 133.076274 162.962682 
L 133.243979 162.949233 
L 133.705 162.614976 
L 134.208 162.570665 
L 134.291824 162.562469 
L 134.627124 162.033698 
L 134.752863 161.818019 
L 135.674953 160.119848 
L 136.177956 159.78431 
L 136.219845 159.745077 
L 136.261764 159.819928 
L 137.3516 160.641162 
L 137.728759 160.616824 
L 138.022236 160.650135 
L 138.18984 160.386245 
L 138.650899 159.602934 
L 138.944355 158.939136 
L 139.40539 157.888101 
L 139.740701 157.574761 
L 140.243659 157.823994 
L 140.620969 157.788352 
L 141.207696 157.81924 
L 141.836477 157.467146 
L 142.171742 157.359737 
L 142.800443 156.846762 
L 143.051909 156.665596 
L 143.764531 156.534638 
L 144.267442 156.195151 
L 144.854237 156.000937 
L 145.44109 155.449425 
L 146.153629 155.486506 
L 147.662521 155.244808 
L 148.416949 154.989629 
L 149.045717 153.953003 
L 149.213375 153.85668 
L 149.506768 153.632398 
L 150.973771 152.35425 
L 151.351044 152.132831 
L 152.608424 152.983672 
L 153.320946 152.820598 
L 154.368821 152.246298 
L 154.99753 152.432752 
L 155.458585 152.659702 
L 155.877806 152.59428 
L 156.17114 152.558557 
L 156.464567 152.32035 
L 157.763891 150.127889 
L 158.350728 149.669786 
L 159.691954 148.864295 
L 160.530303 148.997998 
L 160.781748 148.851265 
L 161.829598 149.381493 
L 162.206904 149.921269 
L 162.542128 150.336221 
L 162.667892 150.336583 
L 163.003233 149.818418 
L 163.296668 149.660247 
L 163.590032 149.640705 
L 163.883442 149.53201 
L 164.218716 148.729397 
L 165.098917 146.396849 
L 165.308506 145.90511 
L 165.601895 144.826521 
L 165.72763 145.254769 
L 166.314441 147.727425 
L 166.649762 149.76086 
L 166.98509 151.061119 
L 167.110838 151.06678 
L 167.320398 151.052612 
L 167.65581 152.111769 
L 167.739547 151.871343 
L 167.991047 149.247883 
L 168.326329 147.041916 
L 168.913187 144.922915 
L 169.038901 145.051462 
L 169.751493 146.14525 
L 169.877212 146.151909 
L 170.00296 145.879638 
L 170.422075 144.612385 
L 170.464053 144.657681 
L 170.84122 145.535952 
L 171.176519 146.312829 
L 171.428061 146.462259 
L 171.889112 146.203249 
L 172.308257 145.468608 
L 172.475911 145.481927 
L 173.146551 146.019811 
L 173.942889 145.797924 
L 174.487845 145.370107 
L 174.82314 145.463986 
L 174.990769 145.182984 
L 175.40996 144.0735 
L 175.745242 143.763046 
L 176.080583 143.596519 
L 176.541614 143.010536 
L 177.044575 142.257367 
L 177.212246 142.283416 
L 177.631395 142.375263 
L 177.966749 142.139082 
L 178.385864 140.817 
L 178.888788 139.498586 
L 179.182223 138.881691 
L 179.810949 137.38493 
L 181.236013 133.705544 
L 181.571354 132.953258 
L 182.03243 131.442903 
L 184.08622 122.44253 
L 184.798854 119.505049 
L 185.595221 116.971326 
L 186.60109 114.624689 
L 189.409345 109.565267 
L 189.912327 109.301189 
L 190.49913 108.912123 
L 191.29551 108.175251 
L 191.798522 107.717531 
L 192.888362 107.337788 
L 193.47506 107.994473 
L 194.103761 109.155476 
L 194.732537 110.280736 
L 194.900132 110.69806 
L 195.528967 113.429869 
L 196.450973 115.281745 
L 196.828212 115.578789 
L 197.289267 115.583272 
L 199.468809 115.411499 
L 199.720296 115.724746 
L 200.810253 117.026696 
L 201.145405 116.965804 
L 201.438799 116.928715 
L 201.941777 117.310694 
L 202.738169 118.6537 
L 203.11545 119.146618 
L 203.283033 119.30664 
L 203.576468 119.836335 
L 204.205156 120.949009 
L 204.41472 121.331678 
L 205.169177 122.922202 
L 205.839847 123.71533 
L 209.989386 126.285283 
L 210.282767 126.513861 
L 210.576219 126.709386 
L 210.995393 126.957878 
L 211.330692 127.154969 
L 211.70786 127.293402 
L 212.378501 127.40202 
L 213.510167 128.094339 
L 213.971239 128.390046 
L 214.558021 128.949013 
L 215.186785 129.722327 
L 215.522088 129.97513 
L 215.941338 129.999071 
L 216.192758 130.005548 
L 216.695707 130.211297 
L 217.198677 130.272629 
L 217.911257 130.276192 
L 218.204683 130.27916 
L 218.791528 130.652414 
L 219.294402 131.10818 
L 219.503937 131.028784 
L 219.923161 130.867328 
L 221.222511 131.293638 
L 221.683507 131.394098 
L 222.270352 131.437091 
L 224.15648 132.531606 
L 224.449881 132.638273 
L 224.701368 132.679039 
L 225.204338 133.280565 
L 225.497794 133.451324 
L 225.874991 133.353673 
L 226.042662 133.373 
L 227.342037 134.159968 
L 228.180369 134.267695 
L 228.473674 134.299751 
L 228.809073 134.268096 
L 229.018562 134.345042 
L 229.270079 134.432147 
L 229.647401 134.298249 
L 230.359835 134.49857 
L 230.737057 134.519225 
L 231.030454 134.59303 
L 232.916632 135.71017 
L 233.293892 136.064821 
L 233.67108 136.310864 
L 234.090276 136.606004 
L 235.054225 136.878322 
L 235.347631 136.909722 
L 235.850609 136.998975 
L 236.730889 136.998469 
L 237.191865 137.039953 
L 237.485283 136.982404 
L 237.90442 137.230084 
L 238.28165 137.354456 
L 238.7008 137.521488 
L 240.335461 138.29966 
L 240.670806 138.428002 
L 241.718694 139.083613 
L 242.682665 139.379431 
L 243.017968 139.223486 
L 243.562878 138.891491 
L 243.814356 138.837994 
L 244.233518 138.590463 
L 245.407233 138.76953 
L 245.742474 138.77807 
L 246.916067 139.153163 
L 247.628626 139.25787 
L 247.963913 139.605431 
L 248.508797 140.087039 
L 250.772252 141.549974 
L 251.610504 141.123605 
L 252.239251 141.279288 
L 253.161316 141.544288 
L 253.580507 142.36722 
L 253.999643 144.212973 
L 254.376941 145.183563 
L 254.796124 146.231431 
L 255.634263 148.412747 
L 256.514526 151.222312 
L 258.274897 156.961669 
L 258.442568 157.076008 
L 258.777888 158.46884 
L 260.49637 165.137929 
L 260.999336 166.574492 
L 262.508241 170.204174 
L 263.053151 171.328375 
L 263.472409 171.859337 
L 263.76568 172.258371 
L 264.981268 174.698076 
L 265.148935 174.802677 
L 265.609889 175.221695 
L 266.196726 175.653923 
L 266.657802 175.771858 
L 267.747541 175.523695 
L 268.208597 175.283098 
L 268.711571 175.300016 
L 269.13077 174.500881 
L 269.507955 173.903022 
L 269.6756 173.67336 
L 270.262416 172.825103 
L 270.471988 172.662297 
L 271.729402 171.067335 
L 271.897136 170.823694 
L 272.441999 169.9995 
L 273.028773 169.420459 
L 273.280264 169.130782 
L 273.699422 168.713401 
L 274.118571 168.678621 
L 274.70537 167.937333 
L 274.914951 167.748505 
L 275.376061 166.923138 
L 275.878947 166.511752 
L 276.088536 166.428958 
L 276.84303 166.537153 
L 277.387885 165.744372 
L 277.513621 165.759262 
L 277.93277 165.430351 
L 278.226201 165.437136 
L 278.561483 165.429008 
L 279.190259 166.004115 
L 279.651348 166.466081 
L 280.657233 165.297911 
L 280.992516 164.615222 
L 282.333813 160.198778 
L 282.878677 157.991428 
L 283.00445 157.950129 
L 283.172095 157.953968 
L 283.716967 157.107181 
L 284.010368 155.984957 
L 284.136099 156.501538 
L 284.555257 159.167734 
L 284.681009 159.09899 
L 284.974402 158.764932 
L 285.100145 159.000352 
L 285.854728 161.3347 
L 285.938444 161.172493 
L 286.189931 159.79751 
L 286.483332 158.546799 
L 286.609076 158.592038 
L 286.818648 159.068742 
L 287.070249 159.863785 
L 287.11205 159.852494 
L 287.237798 159.735835 
L 287.405519 158.981003 
L 287.698849 157.61984 
L 287.824613 157.633451 
L 288.076092 158.413006 
L 288.369548 159.208813 
L 288.453335 159.128679 
L 288.620972 158.396049 
L 289.040117 156.390367 
L 289.207758 156.282277 
L 289.375471 156.488573 
L 289.836681 157.50646 
L 290.088055 157.133513 
L 290.38139 156.931291 
L 290.842504 156.445311 
L 291.471175 155.688862 
L 291.764614 155.690189 
L 292.309432 155.401966 
L 292.602825 155.426526 
L 293.063955 155.836225 
L 293.273482 156.11645 
L 293.483033 156.388401 
L 293.650771 156.226563 
L 294.572819 155.067917 
L 295.033958 154.930755 
L 295.285487 154.635443 
L 295.662642 154.374308 
L 296.081749 154.27145 
L 297.171522 154.23079 
L 297.967906 154.094494 
L 299.518789 153.859765 
L 299.854046 153.769454 
L 300.398947 153.521827 
L 300.650459 153.524051 
L 301.530639 152.840588 
L 301.907911 152.423338 
L 302.033604 152.383291 
L 303.54264 151.205031 
L 304.003599 151.200269 
L 304.380812 151.127945 
L 304.590402 151.420714 
L 305.763999 151.703355 
L 306.099324 151.40985 
L 306.434648 150.797238 
L 306.686118 150.351294 
L 306.728037 150.38524 
L 307.063391 150.540382 
L 307.440579 150.555313 
L 307.943549 150.193349 
L 308.153193 150.00272 
L 308.195045 150.046768 
L 308.781898 150.73093 
L 309.033419 151.221912 
L 309.117168 151.159684 
L 309.913543 150.547679 
L 310.165014 150.429076 
L 310.751859 149.739505 
L 312.428418 148.635943 
L 313.518174 148.616362 
L 313.93744 148.636062 
L 314.608005 148.700645 
L 315.027083 148.65351 
L 315.530104 148.792225 
L 316.536039 148.193896 
L 316.787513 148.311601 
L 317.458141 148.626399 
L 317.835372 148.273881 
L 318.464098 147.818851 
L 319.3024 147.769031 
L 319.511965 147.713357 
L 319.805362 148.048487 
L 320.140716 148.362909 
L 320.434054 147.939756 
L 320.517913 147.900695 
L 320.9371 147.151021 
L 321.188532 146.904199 
L 321.775411 145.824488 
L 322.152733 145.699047 
L 322.48789 145.536299 
L 322.823311 145.1314 
L 323.284266 145.281055 
L 323.619556 144.481128 
L 323.661509 144.511681 
L 323.871131 145.208837 
L 324.080645 145.694443 
L 324.248295 145.576807 
L 324.415945 145.565057 
L 324.625509 145.841809 
L 325.421914 147.644948 
L 325.463857 147.587266 
L 326.176337 146.84412 
L 326.386002 147.008393 
L 326.595603 147.112297 
L 327.685305 146.0871 
L 328.146365 145.989184 
L 328.81698 145.920691 
L 328.942757 145.658551 
L 329.781047 141.906198 
L 330.409785 139.366065 
L 330.828935 138.987546 
L 330.996781 138.823966 
L 331.122294 139.175166 
L 331.751054 141.594552 
L 331.918712 141.345815 
L 332.379717 140.780731 
L 332.715117 140.690181 
L 333.134199 139.678839 
L 333.721027 135.618655 
L 334.223955 132.457957 
L 334.685031 131.259471 
L 335.397565 127.658558 
L 335.649098 127.798943 
L 336.026278 127.986389 
L 336.193932 127.613323 
L 336.948372 124.987067 
L 337.660923 122.575699 
L 339.211751 115.009156 
L 339.672861 115.00966 
L 339.924386 115.46933 
L 340.175831 115.868494 
L 341.0141 115.089236 
L 341.265583 114.016155 
L 342.187706 110.29373 
L 342.271527 110.324888 
L 342.564941 110.487553 
L 342.732674 110.140027 
L 342.942222 109.714652 
L 342.984069 109.731341 
L 343.193713 110.148361 
L 343.44515 110.503728 
L 343.612824 110.317307 
L 344.073855 109.729365 
L 344.493 109.441476 
L 344.70256 109.594882 
L 344.912157 110.0733 
L 345.54085 111.792241 
L 345.876161 112.028583 
L 346.253409 111.763822 
L 346.630639 112.078686 
L 347.259365 112.694387 
L 347.468963 112.754316 
L 347.762339 113.069394 
L 347.971979 113.121516 
L 348.349188 112.969511 
L 349.313188 115.503201 
L 349.522727 115.905862 
L 349.983854 116.313982 
L 351.031675 117.699946 
L 351.367062 117.841553 
L 351.828092 118.497147 
L 352.456759 118.317837 
L 353.001648 117.82903 
L 353.295049 117.619928 
L 353.588455 117.437412 
L 353.83998 117.554066 
L 354.175254 117.737354 
L 354.468664 117.95085 
L 355.265027 119.390713 
L 355.684222 119.95423 
L 357.27694 122.247995 
L 357.821803 122.908983 
L 358.618166 123.864363 
L 359.330725 124.694761 
L 360.127105 125.001213 
L 360.588164 124.980908 
L 361.133074 124.702467 
L 362.055172 123.979854 
L 362.348636 123.662513 
L 362.851627 123.611063 
L 363.186926 123.632397 
L 363.186926 123.632397 
" clip-path="url(#p96ee969e00)" style="fill: none; stroke: #328c06; stroke-width: 0.4; stroke-linecap: round"/>
   </g>
   <g id="patch_6">
    <path d="M 55.9075 183.523104 
L 55.9075 103.668717 
" style="fill: none; stroke: #000000; stroke-linejoin: miter; stroke-linecap: square"/>
   </g>
   <g id="patch_7">
    <path d="M 55.9075 183.523104 
L 377.81928 183.523104 
" style="fill: none; stroke: #000000; stroke-linejoin: miter; stroke-linecap: square"/>
   </g>
  </g>
 </g>
 <defs>
  <clipPath id="p9c701c665d">
   <rect x="55.9075" y="10.8" width="321.91178" height="79.854387"/>
  </clipPath>
  <clipPath id="p96ee969e00">
   <rect x="55.9075" y="103.668717" width="321.91178" height="79.854387"/>
  </clipPath>
 </defs>
</svg>
