<?xml version="1.0" encoding="utf-8" standalone="no"?>
<!DOCTYPE svg PUBLIC "-//W3C//DTD SVG 1.1//EN"
  "http://www.w3.org/Graphics/SVG/1.1/DTD/svg11.dtd">
<svg xmlns:xlink="http://www.w3.org/1999/xlink" width="388.61928pt" height="218.623104pt" viewBox="0 0 388.61928 218.623104" xmlns="http://www.w3.org/2000/svg" version="1.1">
 <metadata>
  <rdf:RDF xmlns:dc="http://purl.org/dc/elements/1.1/" xmlns:cc="http://creativecommons.org/ns#" xmlns:rdf="http://www.w3.org/1999/02/22-rdf-syntax-ns#">
   <cc:Work>
    <dc:type rdf:resource="http://purl.org/dc/dcmitype/StillImage"/>
    <dc:date>2024-06-06T10:57:16.016757</dc:date>
    <dc:format>image/svg+xml</dc:format>
    <dc:creator>
     <cc:Agent>
      <dc:title>Matplotlib v3.8.2, https://matplotlib.org/</dc:title>
     </cc:Agent>
    </dc:creator>
   </cc:Work>
  </rdf:RDF>
 </metadata>
 <defs>
  <style type="text/css">*{stroke-linejoin: round; stroke-linecap: butt}</style>
 </defs>
 <g id="figure_1">
  <g id="patch_1">
   <path d="M 0 218.623104 
L 388.61928 218.623104 
L 388.61928 0 
L 0 0 
z
" style="fill: #ffffff"/>
  </g>
  <g id="axes_1">
   <g id="patch_2">
    <path d="M 55.9075 96.414802 
L 377.81928 96.414802 
L 377.81928 22.270877 
L 55.9075 22.270877 
z
" style="fill: #ffffff"/>
   </g>
   <g id="matplotlib.axis_1">
    <g id="xtick_1">
     <g id="line2d_1">
      <path d="M 70.539854 96.414802 
L 70.539854 22.270877 
" clip-path="url(#pc35498610d)" style="fill: none; stroke: #b0b0b0; stroke-width: 0.1; stroke-linecap: round"/>
     </g>
     <g id="line2d_2"/>
    </g>
    <g id="xtick_2">
     <g id="line2d_3">
      <path d="M 112.454356 96.414802 
L 112.454356 22.270877 
" clip-path="url(#pc35498610d)" style="fill: none; stroke: #b0b0b0; stroke-width: 0.1; stroke-linecap: round"/>
     </g>
     <g id="line2d_4"/>
    </g>
    <g id="xtick_3">
     <g id="line2d_5">
      <path d="M 154.368858 96.414802 
L 154.368858 22.270877 
" clip-path="url(#pc35498610d)" style="fill: none; stroke: #b0b0b0; stroke-width: 0.1; stroke-linecap: round"/>
     </g>
     <g id="line2d_6"/>
    </g>
    <g id="xtick_4">
     <g id="line2d_7">
      <path d="M 196.283361 96.414802 
L 196.283361 22.270877 
" clip-path="url(#pc35498610d)" style="fill: none; stroke: #b0b0b0; stroke-width: 0.1; stroke-linecap: round"/>
     </g>
     <g id="line2d_8"/>
    </g>
    <g id="xtick_5">
     <g id="line2d_9">
      <path d="M 238.197863 96.414802 
L 238.197863 22.270877 
" clip-path="url(#pc35498610d)" style="fill: none; stroke: #b0b0b0; stroke-width: 0.1; stroke-linecap: round"/>
     </g>
     <g id="line2d_10"/>
    </g>
    <g id="xtick_6">
     <g id="line2d_11">
      <path d="M 280.112366 96.414802 
L 280.112366 22.270877 
" clip-path="url(#pc35498610d)" style="fill: none; stroke: #b0b0b0; stroke-width: 0.1; stroke-linecap: round"/>
     </g>
     <g id="line2d_12"/>
    </g>
    <g id="xtick_7">
     <g id="line2d_13">
      <path d="M 322.026868 96.414802 
L 322.026868 22.270877 
" clip-path="url(#pc35498610d)" style="fill: none; stroke: #b0b0b0; stroke-width: 0.1; stroke-linecap: round"/>
     </g>
     <g id="line2d_14"/>
    </g>
    <g id="xtick_8">
     <g id="line2d_15">
      <path d="M 363.941371 96.414802 
L 363.941371 22.270877 
" clip-path="url(#pc35498610d)" style="fill: none; stroke: #b0b0b0; stroke-width: 0.1; stroke-linecap: round"/>
     </g>
     <g id="line2d_16"/>
    </g>
   </g>
   <g id="matplotlib.axis_2">
    <g id="ytick_1">
     <g id="line2d_17">
      <path d="M 55.9075 80.088465 
L 377.81928 80.088465 
" clip-path="url(#pc35498610d)" style="fill: none; stroke: #b0b0b0; stroke-width: 0.1; stroke-linecap: round"/>
     </g>
     <g id="line2d_18"/>
     <g id="text_1">
      <!-- −0.02 -->
      <g style="fill: #262626" transform="translate(24.826719 83.507762) scale(0.09 -0.09)">
       <defs>
        <path id="DejaVuSerif-2212" d="M 678 2259 
L 4684 2259 
L 4684 1753 
L 678 1753 
L 678 2259 
z
" transform="scale(0.015625)"/>
        <path id="DejaVuSerif-30" d="M 2034 219 
Q 2513 219 2750 744 
Q 2988 1269 2988 2328 
Q 2988 3391 2750 3916 
Q 2513 4441 2034 4441 
Q 1556 4441 1318 3916 
Q 1081 3391 1081 2328 
Q 1081 1269 1318 744 
Q 1556 219 2034 219 
z
M 2034 -91 
Q 1275 -91 848 546 
Q 422 1184 422 2328 
Q 422 3475 848 4112 
Q 1275 4750 2034 4750 
Q 2797 4750 3222 4112 
Q 3647 3475 3647 2328 
Q 3647 1184 3222 546 
Q 2797 -91 2034 -91 
z
" transform="scale(0.015625)"/>
        <path id="DejaVuSerif-2e" d="M 603 325 
Q 603 500 722 622 
Q 841 744 1019 744 
Q 1191 744 1312 622 
Q 1434 500 1434 325 
Q 1434 153 1312 31 
Q 1191 -91 1019 -91 
Q 841 -91 722 29 
Q 603 150 603 325 
z
" transform="scale(0.015625)"/>
        <path id="DejaVuSerif-32" d="M 819 3553 
L 469 3553 
L 469 4384 
Q 803 4563 1142 4656 
Q 1481 4750 1806 4750 
Q 2534 4750 2956 4397 
Q 3378 4044 3378 3438 
Q 3378 2753 2422 1800 
Q 2347 1728 2309 1691 
L 1131 513 
L 3078 513 
L 3078 1088 
L 3444 1088 
L 3444 0 
L 434 0 
L 434 341 
L 1850 1753 
Q 2319 2222 2519 2614 
Q 2719 3006 2719 3438 
Q 2719 3909 2473 4175 
Q 2228 4441 1797 4441 
Q 1350 4441 1106 4219 
Q 863 3997 819 3553 
z
" transform="scale(0.015625)"/>
       </defs>
       <use xlink:href="#DejaVuSerif-2212"/>
       <use xlink:href="#DejaVuSerif-30" x="83.789062"/>
       <use xlink:href="#DejaVuSerif-2e" x="147.412109"/>
       <use xlink:href="#DejaVuSerif-30" x="179.199219"/>
       <use xlink:href="#DejaVuSerif-32" x="242.822266"/>
      </g>
     </g>
    </g>
    <g id="ytick_2">
     <g id="line2d_19">
      <path d="M 55.9075 60.731734 
L 377.81928 60.731734 
" clip-path="url(#pc35498610d)" style="fill: none; stroke: #b0b0b0; stroke-width: 0.1; stroke-linecap: round"/>
     </g>
     <g id="line2d_20"/>
     <g id="text_2">
      <!-- 0.00 -->
      <g style="fill: #262626" transform="translate(32.368438 64.15103) scale(0.09 -0.09)">
       <use xlink:href="#DejaVuSerif-30"/>
       <use xlink:href="#DejaVuSerif-2e" x="63.623047"/>
       <use xlink:href="#DejaVuSerif-30" x="95.410156"/>
       <use xlink:href="#DejaVuSerif-30" x="159.033203"/>
      </g>
     </g>
    </g>
    <g id="ytick_3">
     <g id="line2d_21">
      <path d="M 55.9075 41.375002 
L 377.81928 41.375002 
" clip-path="url(#pc35498610d)" style="fill: none; stroke: #b0b0b0; stroke-width: 0.1; stroke-linecap: round"/>
     </g>
     <g id="line2d_22"/>
     <g id="text_3">
      <!-- 0.02 -->
      <g style="fill: #262626" transform="translate(32.368438 44.794299) scale(0.09 -0.09)">
       <use xlink:href="#DejaVuSerif-30"/>
       <use xlink:href="#DejaVuSerif-2e" x="63.623047"/>
       <use xlink:href="#DejaVuSerif-30" x="95.410156"/>
       <use xlink:href="#DejaVuSerif-32" x="159.033203"/>
      </g>
     </g>
    </g>
    <g id="text_4">
     <!-- $\dot{r}$ [rad/s2] -->
     <g style="fill: #262626" transform="translate(19.162969 78.18284) rotate(-90) scale(0.08 -0.08)">
      <defs>
       <path id="DejaVuSans-307" d="M -1894 4863 
L -1319 4863 
L -1319 4134 
L -1894 4134 
L -1894 4863 
z
M -1600 3584 
L -1600 3584 
z
" transform="scale(0.015625)"/>
       <path id="DejaVuSans-Oblique-72" d="M 2853 2969 
Q 2766 3016 2653 3041 
Q 2541 3066 2413 3066 
Q 1953 3066 1609 2717 
Q 1266 2369 1153 1784 
L 800 0 
L 225 0 
L 909 3500 
L 1484 3500 
L 1375 2956 
Q 1603 3259 1920 3421 
Q 2238 3584 2597 3584 
Q 2691 3584 2781 3573 
Q 2872 3563 2963 3538 
L 2853 2969 
z
" transform="scale(0.015625)"/>
       <path id="DejaVuSerif-20" transform="scale(0.015625)"/>
       <path id="DejaVuSerif-5b" d="M 550 4863 
L 2003 4863 
L 2003 4531 
L 1147 4531 
L 1147 -513 
L 2003 -513 
L 2003 -844 
L 550 -844 
L 550 4863 
z
" transform="scale(0.015625)"/>
       <path id="DejaVuSerif-72" d="M 3059 3328 
L 3059 2497 
L 2728 2497 
Q 2713 2744 2591 2866 
Q 2469 2988 2234 2988 
Q 1809 2988 1582 2694 
Q 1356 2400 1356 1850 
L 1356 331 
L 2022 331 
L 2022 0 
L 263 0 
L 263 331 
L 781 331 
L 781 2994 
L 231 2994 
L 231 3322 
L 1356 3322 
L 1356 2731 
Q 1525 3078 1790 3245 
Q 2056 3413 2438 3413 
Q 2578 3413 2733 3391 
Q 2888 3369 3059 3328 
z
" transform="scale(0.015625)"/>
       <path id="DejaVuSerif-61" d="M 2547 1044 
L 2547 1747 
L 1806 1747 
Q 1378 1747 1168 1562 
Q 959 1378 959 997 
Q 959 650 1171 447 
Q 1384 244 1747 244 
Q 2106 244 2326 466 
Q 2547 688 2547 1044 
z
M 3122 2075 
L 3122 331 
L 3634 331 
L 3634 0 
L 2547 0 
L 2547 359 
Q 2356 128 2106 18 
Q 1856 -91 1522 -91 
Q 969 -91 644 203 
Q 319 497 319 997 
Q 319 1513 691 1797 
Q 1063 2081 1741 2081 
L 2547 2081 
L 2547 2309 
Q 2547 2688 2317 2895 
Q 2088 3103 1672 3103 
Q 1328 3103 1125 2947 
Q 922 2791 872 2484 
L 575 2484 
L 575 3156 
Q 875 3284 1158 3348 
Q 1441 3413 1709 3413 
Q 2400 3413 2761 3070 
Q 3122 2728 3122 2075 
z
" transform="scale(0.015625)"/>
       <path id="DejaVuSerif-64" d="M 3359 331 
L 3909 331 
L 3909 0 
L 2784 0 
L 2784 519 
Q 2616 206 2355 57 
Q 2094 -91 1709 -91 
Q 1097 -91 708 395 
Q 319 881 319 1663 
Q 319 2444 706 2928 
Q 1094 3413 1709 3413 
Q 2094 3413 2355 3264 
Q 2616 3116 2784 2803 
L 2784 4531 
L 2241 4531 
L 2241 4863 
L 3359 4863 
L 3359 331 
z
M 2784 1497 
L 2784 1825 
Q 2784 2422 2554 2737 
Q 2325 3053 1888 3053 
Q 1444 3053 1217 2703 
Q 991 2353 991 1663 
Q 991 975 1217 622 
Q 1444 269 1888 269 
Q 2325 269 2554 583 
Q 2784 897 2784 1497 
z
" transform="scale(0.015625)"/>
       <path id="DejaVuSerif-2f" d="M 1656 4666 
L 2156 4666 
L 500 -594 
L 0 -594 
L 1656 4666 
z
" transform="scale(0.015625)"/>
       <path id="DejaVuSerif-73" d="M 359 184 
L 359 959 
L 691 959 
Q 703 588 923 403 
Q 1144 219 1575 219 
Q 1963 219 2166 364 
Q 2369 509 2369 788 
Q 2369 1006 2220 1140 
Q 2072 1275 1594 1428 
L 1178 1569 
Q 750 1706 558 1912 
Q 366 2119 366 2438 
Q 366 2894 700 3153 
Q 1034 3413 1625 3413 
Q 1888 3413 2178 3344 
Q 2469 3275 2778 3144 
L 2778 2419 
L 2447 2419 
Q 2434 2741 2221 2922 
Q 2009 3103 1644 3103 
Q 1281 3103 1095 2975 
Q 909 2847 909 2591 
Q 909 2381 1050 2254 
Q 1191 2128 1613 1997 
L 2069 1856 
Q 2541 1709 2748 1489 
Q 2956 1269 2956 922 
Q 2956 450 2595 179 
Q 2234 -91 1600 -91 
Q 1278 -91 972 -22 
Q 666 47 359 184 
z
" transform="scale(0.015625)"/>
       <path id="DejaVuSerif-5d" d="M 1947 4863 
L 1947 -844 
L 494 -844 
L 494 -513 
L 1350 -513 
L 1350 4531 
L 494 4531 
L 494 4863 
L 1947 4863 
z
" transform="scale(0.015625)"/>
      </defs>
      <use xlink:href="#DejaVuSans-307" transform="translate(50.87207 13.015625)"/>
      <use xlink:href="#DejaVuSans-Oblique-72" transform="translate(0 0.515625)"/>
      <use xlink:href="#DejaVuSerif-20" transform="translate(41.113281 0.515625)"/>
      <use xlink:href="#DejaVuSerif-5b" transform="translate(72.900391 0.515625)"/>
      <use xlink:href="#DejaVuSerif-72" transform="translate(111.914062 0.515625)"/>
      <use xlink:href="#DejaVuSerif-61" transform="translate(159.716797 0.515625)"/>
      <use xlink:href="#DejaVuSerif-64" transform="translate(219.335938 0.515625)"/>
      <use xlink:href="#DejaVuSerif-2f" transform="translate(283.349609 0.515625)"/>
      <use xlink:href="#DejaVuSerif-73" transform="translate(317.041016 0.515625)"/>
      <use xlink:href="#DejaVuSerif-32" transform="translate(368.359375 0.515625)"/>
      <use xlink:href="#DejaVuSerif-5d" transform="translate(431.982422 0.515625)"/>
     </g>
    </g>
   </g>
   <g id="line2d_23">
    <path d="M 70.539854 60.731734 
L 70.958965 60.82078 
L 72.635562 61.476398 
L 73.306194 61.785636 
L 73.851078 62.053215 
L 74.982741 62.603541 
L 75.359984 62.781198 
L 77.749173 73.295506 
L 80.976531 87.150129 
L 81.060427 86.978727 
L 85.754793 76.646778 
L 86.509233 75.209066 
L 87.892437 72.788901 
L 90.197726 69.54228 
L 90.784521 68.900295 
L 91.37137 68.240235 
L 92.712617 67.032079 
L 93.550974 66.352684 
L 94.556817 65.629785 
L 94.850223 65.43073 
L 95.898111 64.745485 
L 96.149598 64.545008 
L 96.610674 64.26625 
L 97.658482 63.641709 
L 97.952001 63.431861 
L 102.269086 60.688448 
L 102.813974 60.266567 
L 103.484606 59.768391 
L 104.197161 59.140303 
L 104.490563 58.888131 
L 104.825975 58.636028 
L 105.706155 53.183744 
L 106.544357 48.818282 
L 107.466551 44.718374 
L 108.388616 41.31606 
L 109.143119 38.988893 
L 110.02326 36.706345 
L 111.113054 34.288848 
L 112.20284 32.390312 
L 114.759608 28.587577 
L 115.388329 27.661008 
L 116.058945 26.536989 
L 117.567888 32.049602 
L 120.459984 41.127076 
L 121.29827 43.277666 
L 122.09465 45.112298 
L 123.3103 47.585613 
L 125.741299 51.087899 
L 126.411852 51.763887 
L 127.082471 52.429372 
L 127.627393 52.897284 
L 128.298025 53.410127 
L 129.094397 54.012918 
L 131.651156 55.633329 
L 131.986548 55.819793 
L 133.41157 56.434033 
L 134.040279 56.693448 
L 134.710919 56.966978 
L 135.088154 57.094085 
L 136.345576 57.42898 
L 137.812739 57.754062 
L 138.35751 57.845304 
L 139.070069 58.002604 
L 139.656877 58.079654 
L 140.914282 58.253631 
L 141.584923 58.352631 
L 143.974129 58.631981 
L 144.560865 58.722916 
L 145.10572 58.794698 
L 146.153629 58.905228 
L 146.782329 58.986909 
L 147.36922 59.078354 
L 148.123577 59.148598 
L 148.794192 59.194043 
L 149.464803 59.267389 
L 149.967861 59.322516 
L 150.76422 59.38453 
L 151.770134 59.483119 
L 152.482698 59.573214 
L 153.195215 59.678848 
L 154.285004 59.836641 
L 154.913701 59.915243 
L 155.542418 60.02044 
L 156.087336 60.095965 
L 156.841789 60.154448 
L 157.512396 60.245501 
L 157.805806 60.284431 
L 158.518373 60.320321 
L 159.733957 60.407595 
L 160.404564 60.455011 
L 160.865552 60.502532 
L 166.021048 61.045831 
L 166.398275 61.102824 
L 171.889112 62.157886 
L 173.523761 62.727443 
L 174.110577 63.018871 
L 174.781171 63.33541 
L 175.577555 63.755093 
L 176.164366 64.095879 
L 177.170356 64.688018 
L 177.966749 65.148221 
L 179.056509 70.300714 
L 180.649214 76.212256 
L 181.864818 79.635624 
L 182.577281 81.283331 
L 183.876698 83.735905 
L 186.433465 87.139208 
L 186.936423 87.660652 
L 187.607118 88.381444 
L 189.199776 90.293411 
L 192.427206 81.028867 
L 194.606739 76.071465 
L 197.121643 71.799014 
L 199.343078 69.322731 
L 199.678423 68.994473 
L 200.642436 68.229908 
L 201.019662 67.924923 
L 205.085377 65.498791 
L 205.378787 65.341083 
L 206.803905 64.697447 
L 207.097256 64.576585 
L 207.432568 64.46735 
L 208.103192 64.2051 
L 208.438521 64.089762 
L 208.983472 63.947865 
L 209.318725 63.863543 
L 210.282767 63.677472 
L 210.995393 63.617878 
L 211.288702 63.610577 
L 215.396341 63.30724 
L 215.68975 63.300602 
L 217.114814 63.166202 
L 217.450197 63.157296 
L 218.456091 63.06279 
L 218.749513 63.06715 
L 219.336409 63.006749 
L 219.881213 62.934242 
L 221.096755 62.869408 
L 221.390098 62.859488 
L 222.521802 62.71206 
L 226.880914 62.227149 
L 234.928494 61.252838 
L 235.179981 61.219341 
L 235.682951 61.150879 
L 236.395494 61.150275 
L 236.688912 61.113827 
L 236.940399 61.099599 
L 237.485283 61.073259 
L 237.778723 61.076619 
L 238.365618 61.030475 
L 238.7008 61.025047 
L 239.245684 61.024403 
L 239.580992 60.995492 
L 240.209739 60.995263 
L 240.503119 60.968749 
L 241.718694 60.913622 
L 242.347416 60.867076 
L 242.640813 60.83158 
L 243.269459 60.790855 
L 243.856367 60.747452 
L 244.191604 60.724959 
L 244.736484 60.638751 
L 245.113777 60.584876 
L 246.329235 60.337535 
L 246.622687 60.242667 
L 247.963913 59.869565 
L 249.598558 59.300022 
L 250.101544 59.054364 
L 250.688364 58.790561 
L 250.897911 58.697501 
L 251.275259 58.480646 
L 253.580507 57.135961 
L 254.502638 52.841811 
L 255.634263 48.487274 
L 256.724036 44.972108 
L 257.729967 42.395365 
L 259.867699 38.297089 
L 262.927407 34.623451 
L 263.598115 33.924952 
L 264.81353 32.461119 
L 267.076909 38.874562 
L 269.6756 45.09548 
L 271.477936 48.440682 
L 274.118571 51.943232 
L 277.723231 54.69985 
L 278.351952 55.090275 
L 278.896787 55.379983 
L 279.651348 55.760062 
L 280.279965 56.097342 
L 280.908737 56.404554 
L 281.537446 56.733147 
L 285.561259 58.048364 
L 286.148021 58.131399 
L 286.818648 58.219989 
L 287.615028 58.247376 
L 305.97358 59.582715 
L 306.560425 59.672441 
L 307.314869 59.776871 
L 307.985502 59.873947 
L 311.464393 60.286372 
L 311.841602 60.316638 
L 312.554258 60.40927 
L 313.140969 60.427066 
L 313.811567 60.46098 
L 314.440331 60.520665 
L 315.110971 60.543257 
L 315.613886 60.583045 
L 316.200731 60.637689 
L 316.787513 60.666542 
L 317.500064 60.742835 
L 320.475986 60.962785 
L 321.565763 61.060212 
L 322.110659 61.106292 
L 322.865116 61.256979 
L 323.912996 61.48009 
L 324.499769 61.656079 
L 325.757242 62.044716 
L 326.469764 62.315434 
L 328.649322 63.44883 
L 330.828935 65.046136 
L 332.128297 70.812791 
L 333.385644 75.155364 
L 335.439543 80.445051 
L 336.696885 82.812941 
L 337.283735 83.711258 
L 340.804553 87.700296 
L 341.433262 88.386299 
L 342.020031 89.134622 
L 342.061971 89.014018 
L 344.115832 83.241161 
L 347.133617 76.137599 
L 349.85819 71.615704 
L 352.750228 68.643065 
L 353.420814 68.212024 
L 355.18124 67.181461 
L 358.53437 65.824335 
L 358.827801 65.74489 
L 359.37264 65.617744 
L 363.186926 65.183278 
L 363.186926 65.183278 
" clip-path="url(#pc35498610d)" style="fill: none; stroke: #2a2eec; stroke-width: 0.4; stroke-linecap: round"/>
   </g>
   <g id="line2d_24">
    <path d="M 70.539854 60.731734 
L 70.917038 60.85444 
L 73.976813 62.930064 
L 74.982741 63.783238 
L 75.359984 64.125608 
L 77.120422 72.636712 
L 79.341849 81.725034 
L 80.976531 88.1904 
L 81.018462 88.096069 
L 82.904623 83.386204 
L 83.659055 81.553189 
L 86.17393 75.973767 
L 89.736654 70.005951 
L 90.323511 69.40176 
L 90.994081 68.683632 
L 91.287478 68.424796 
L 91.70664 67.962058 
L 91.958198 67.77037 
L 92.209618 67.603382 
L 92.796404 67.264128 
L 93.047946 67.091975 
L 93.592788 66.600311 
L 98.538708 63.824747 
L 98.790195 63.735078 
L 99.3351 63.523206 
L 99.67042 63.410637 
L 100.299192 63.259763 
L 100.592531 63.145326 
L 101.053582 62.901098 
L 101.849995 62.397858 
L 104.071414 60.380239 
L 104.825975 59.514511 
L 105.747985 53.412989 
L 106.586326 48.762998 
L 107.424574 44.72207 
L 108.47255 40.539156 
L 109.604157 36.964304 
L 110.98729 33.477403 
L 111.699882 32.037246 
L 113.963253 28.894753 
L 115.220676 27.602677 
L 115.681722 27.14716 
L 116.058945 26.748087 
L 117.52599 32.997138 
L 119.454078 39.895098 
L 120.66954 43.417417 
L 122.807301 48.211163 
L 124.148615 50.284469 
L 124.651455 50.956315 
L 125.741299 52.125252 
L 126.286163 52.497721 
L 126.914847 52.812886 
L 128.339961 53.77296 
L 129.723081 54.962658 
L 130.687119 55.727765 
L 132.489467 56.539047 
L 133.285822 56.782905 
L 134.501409 57.247384 
L 134.836684 57.396526 
L 135.674953 57.672522 
L 136.429401 57.886867 
L 138.944355 58.547218 
L 139.698757 58.695132 
L 140.830478 58.759755 
L 141.417328 58.750851 
L 142.507033 58.860794 
L 143.219643 58.93568 
L 143.806375 59.061543 
L 150.051656 59.66231 
L 150.512691 59.672408 
L 151.141425 59.665044 
L 151.812057 59.780229 
L 152.398894 59.915111 
L 153.614381 60.232356 
L 154.536487 60.470362 
L 155.710102 60.761288 
L 156.296888 60.791395 
L 156.757947 60.79464 
L 158.015395 60.73188 
L 158.308784 60.741572 
L 160.111103 60.59439 
L 160.404564 60.584504 
L 160.823713 60.602357 
L 162.29072 60.583217 
L 162.919363 60.53017 
L 165.643834 61.180286 
L 166.1468 61.504917 
L 167.194654 62.074387 
L 167.530071 62.184167 
L 167.907327 62.133974 
L 168.284494 62.093401 
L 169.038901 62.30161 
L 170.128741 62.495725 
L 170.631644 62.488115 
L 172.14057 62.427433 
L 172.895014 62.579361 
L 173.481809 62.786443 
L 175.912883 64.230243 
L 176.541614 64.640341 
L 177.254156 65.123654 
L 177.547541 65.363791 
L 178.008646 65.874407 
L 179.307958 72.215119 
L 180.439662 76.703907 
L 181.697081 80.696304 
L 182.954499 83.859778 
L 185.176043 87.73992 
L 186.60109 89.152299 
L 187.690846 90.008771 
L 189.199776 91.010219 
L 189.241687 90.859377 
L 192.385362 80.443286 
L 193.978021 76.782096 
L 194.648662 75.574258 
L 196.450973 72.719296 
L 197.540758 71.301017 
L 198.253301 70.610785 
L 198.882073 70.030703 
L 199.426978 69.611494 
L 202.905819 67.166404 
L 203.492647 66.842457 
L 203.911746 66.589035 
L 205.085377 65.807334 
L 205.588397 65.529164 
L 208.145119 64.292772 
L 208.438521 64.192278 
L 208.983472 64.080539 
L 209.318725 64.023666 
L 210.24084 63.906474 
L 215.396341 64.065929 
L 215.68975 64.042736 
L 217.114814 63.825659 
L 217.450197 63.802045 
L 219.713543 63.59567 
L 220.048901 63.561872 
L 220.342252 63.485276 
L 222.857239 63.181652 
L 223.150502 63.171651 
L 225.120518 62.880269 
L 225.707371 62.844 
L 226.210483 62.841355 
L 228.096426 62.627901 
L 228.38984 62.587326 
L 228.683217 62.48833 
L 234.844691 61.582346 
L 235.221892 61.561507 
L 235.808762 61.550876 
L 236.35365 61.566651 
L 236.730889 61.549166 
L 237.14995 61.541913 
L 238.156003 61.554071 
L 238.449329 61.550031 
L 238.74271 61.528914 
L 240.880371 61.534733 
L 241.425221 61.518618 
L 242.137848 61.530884 
L 242.431257 61.523508 
L 244.778453 61.413102 
L 245.281406 61.304119 
L 245.910115 61.251941 
L 246.538812 61.139854 
L 247.041794 61.041819 
L 250.939847 60.165221 
L 251.233307 60.031059 
L 252.616469 59.340815 
L 253.245203 58.928181 
L 253.580507 58.659205 
L 254.71211 52.91435 
L 255.969642 47.652742 
L 257.646184 42.331497 
L 259.9934 37.244578 
L 261.125071 35.585382 
L 262.382502 34.33003 
L 263.346695 33.618731 
L 264.017205 33.247339 
L 264.771666 32.74826 
L 264.81353 32.726083 
L 266.448242 38.248492 
L 267.454194 41.2296 
L 268.795467 44.636475 
L 270.13671 47.367761 
L 271.980931 50.394427 
L 273.741319 52.388734 
L 274.370033 52.956663 
L 274.998746 53.453507 
L 275.585608 53.871536 
L 276.340002 54.352866 
L 276.926931 54.615608 
L 277.93277 55.16239 
L 281.411694 57.146089 
L 282.082301 57.541205 
L 282.794856 57.984055 
L 283.842786 58.561257 
L 284.094235 58.704718 
L 284.555257 58.951531 
L 285.938444 59.030916 
L 286.567237 58.902378 
L 287.363575 58.820435 
L 287.824613 58.667891 
L 288.327566 58.671223 
L 288.662916 58.607025 
L 289.082032 58.498671 
L 289.417335 58.531245 
L 293.063955 58.781243 
L 294.698684 59.035758 
L 296.333316 59.093369 
L 297.29727 59.179987 
L 298.387055 59.215601 
L 301.865959 59.510479 
L 305.009614 59.246372 
L 306.18314 59.670212 
L 306.769981 59.81353 
L 307.566369 60.08688 
L 309.662052 60.515056 
L 310.332714 60.519731 
L 310.877615 60.624292 
L 314.775622 60.903349 
L 315.362471 61.005866 
L 315.739638 61.063571 
L 316.913261 61.244107 
L 317.667743 61.41685 
L 318.925191 61.430542 
L 319.386221 61.463248 
L 319.931093 61.553352 
L 320.266421 61.587654 
L 321.188532 61.477899 
L 321.859202 61.409319 
L 322.697437 61.313957 
L 324.751256 61.564169 
L 325.589559 61.690709 
L 327.852942 62.575695 
L 330.493606 64.699894 
L 330.828935 65.245935 
L 332.379717 72.94778 
L 333.427579 76.56549 
L 335.858612 83.20354 
L 336.864552 85.40425 
L 338.499243 87.693964 
L 339.547126 88.577804 
L 340.133908 88.890633 
L 341.181762 89.559793 
L 341.894326 89.908453 
L 342.020031 89.991349 
L 343.612824 84.703074 
L 345.41514 79.679459 
L 347.510873 75.271869 
L 348.977851 72.976929 
L 350.696505 70.738149 
L 351.367062 70.062998 
L 351.995729 69.484105 
L 352.666336 69.076763 
L 353.295049 68.69051 
L 353.965677 68.310015 
L 354.636322 67.883847 
L 355.768059 67.206561 
L 356.396752 66.790721 
L 357.025461 66.394296 
L 357.654149 65.951833 
L 360.252844 64.906548 
L 363.061174 64.609275 
L 363.186926 64.590487 
L 363.186926 64.590487 
" clip-path="url(#pc35498610d)" style="fill: none; stroke: #fa7c17; stroke-width: 0.4; stroke-linecap: round"/>
   </g>
   <g id="line2d_25">
    <path d="M 70.539854 60.731734 
L 70.833213 60.7617 
L 72.845101 62.16493 
L 73.348134 62.394311 
L 73.934899 62.884064 
L 74.773239 63.873683 
L 75.359984 64.86696 
L 77.078478 74.857292 
L 79.509687 84.64531 
L 80.976531 90.331647 
L 82.653103 85.826952 
L 85.67101 77.477225 
L 86.676899 75.690159 
L 87.05423 74.968204 
L 87.515198 73.915619 
L 89.778619 69.007226 
L 89.946218 69.060272 
L 90.071974 69.034706 
L 90.365376 68.950889 
L 90.910256 68.404898 
L 91.161751 68.448397 
L 91.329438 67.972998 
L 91.70664 66.996608 
L 91.874293 66.88651 
L 92.167737 67.154637 
L 92.461088 67.191891 
L 92.880254 67.481107 
L 93.005998 67.472003 
L 93.215562 67.087866 
L 93.550974 66.29906 
L 93.718532 66.220818 
L 94.053856 66.311386 
L 94.263479 66.420494 
L 95.017923 66.785179 
L 95.143637 66.702328 
L 96.02385 65.613427 
L 96.694474 65.405411 
L 97.029794 65.537063 
L 97.448926 65.228517 
L 98.203388 63.794148 
L 98.538708 63.95484 
L 98.790195 64.140271 
L 99.083605 64.125167 
L 99.377094 64.181475 
L 100.089532 64.683868 
L 100.341019 64.906941 
L 100.802087 65.247438 
L 101.347013 64.746143 
L 102.269086 64.046777 
L 102.520569 63.92897 
L 102.855897 63.75939 
L 103.065466 63.570257 
L 103.610404 62.835584 
L 103.903751 62.59898 
L 104.448623 61.811629 
L 104.867781 60.710909 
L 105.706155 54.447843 
L 106.502455 49.631354 
L 107.8018 42.847427 
L 108.849671 38.720334 
L 109.478447 36.577501 
L 110.190931 34.37041 
L 110.945438 31.978062 
L 111.741768 29.892372 
L 113.544091 27.001413 
L 114.592 26.0095 
L 114.885355 25.653236 
L 116.058945 25.791426 
L 117.442266 33.31683 
L 118.573852 38.247609 
L 119.70551 42.296443 
L 121.004885 45.975369 
L 122.974884 50.68018 
L 123.435935 51.219128 
L 124.567601 52.990818 
L 125.070609 54.236772 
L 125.447848 54.445754 
L 126.03463 54.389719 
L 126.328019 54.079843 
L 126.705295 53.521954 
L 126.914847 53.48758 
L 127.501637 53.687439 
L 127.920803 53.303712 
L 127.962701 53.354519 
L 128.256098 53.671059 
L 128.633404 53.610024 
L 129.262088 54.878169 
L 129.387802 55.021392 
L 129.974601 56.20899 
L 130.142305 56.170993 
L 130.477538 56.775659 
L 130.771019 57.382589 
L 131.399686 57.389517 
L 132.740958 57.177197 
L 133.076274 56.904085 
L 133.495449 56.595602 
L 133.788783 56.584676 
L 134.291824 56.474578 
L 134.962427 57.716042 
L 135.297722 57.887617 
L 135.633026 57.935115 
L 136.303779 57.955224 
L 136.890536 58.377368 
L 137.183875 58.577036 
L 137.561089 58.704343 
L 138.399416 59.11036 
L 139.279617 59.906825 
L 139.740701 60.103223 
L 140.201811 59.905217 
L 140.453198 59.786736 
L 140.956247 59.479518 
L 141.459175 59.28329 
L 141.794508 59.255091 
L 142.71666 59.114637 
L 143.051909 59.192912 
L 143.303447 59.166849 
L 144.05792 59.481966 
L 144.476998 59.610133 
L 145.231468 59.647923 
L 146.488894 59.416727 
L 146.656603 59.432834 
L 147.830196 59.942986 
L 148.165495 60.013139 
L 149.003785 60.320975 
L 149.88404 60.064778 
L 150.135452 59.981139 
L 150.973771 59.562055 
L 151.267169 59.459106 
L 151.476779 59.52391 
L 152.315073 60.014532 
L 153.320946 60.627349 
L 153.949722 60.92037 
L 154.243081 61.103857 
L 155.249046 62.063833 
L 155.458585 62.082168 
L 156.422644 62.249722 
L 156.548459 62.215935 
L 157.051366 61.857145 
L 157.722031 61.533856 
L 157.931566 61.403906 
L 158.224959 61.258408 
L 158.476438 61.251647 
L 159.356651 60.880458 
L 160.572268 60.550476 
L 161.200889 60.579336 
L 162.164943 60.395685 
L 162.332559 60.336003 
L 163.003233 59.732912 
L 163.380497 59.71297 
L 163.799634 59.828892 
L 164.051142 59.759562 
L 164.595959 59.497506 
L 164.805586 59.625511 
L 165.643834 60.572681 
L 165.937236 61.368153 
L 166.314441 62.185461 
L 166.775522 63.555364 
L 167.068915 64.089907 
L 167.320398 64.120872 
L 167.613808 64.284461 
L 167.739547 64.03579 
L 168.158705 62.671759 
L 168.368306 62.841615 
L 168.745478 63.304064 
L 169.080824 63.7449 
L 169.541866 64.220408 
L 169.793404 64.541304 
L 170.044832 64.252321 
L 170.422075 63.761942 
L 170.84122 63.593177 
L 171.218472 62.53645 
L 171.511835 62.065133 
L 171.847156 61.871527 
L 172.22439 62.034697 
L 172.433971 61.880727 
L 172.853171 61.542472 
L 173.020766 61.660602 
L 173.314289 61.948381 
L 173.565722 62.074017 
L 173.859123 62.405828 
L 174.36203 63.459008 
L 174.613584 63.759935 
L 175.158468 63.995309 
L 176.499741 64.749321 
L 176.960784 65.125697 
L 177.254156 65.206387 
L 177.421801 65.285261 
L 177.924771 65.660164 
L 177.966749 65.696846 
L 179.517568 73.787029 
L 180.816922 78.991143 
L 181.529481 81.465946 
L 182.619195 84.867583 
L 184.170141 88.712433 
L 185.38559 91.10045 
L 186.056176 91.760721 
L 187.355568 92.806327 
L 188.068068 93.025127 
L 188.612965 92.960413 
L 188.990229 92.867068 
L 189.199776 92.687874 
L 190.83443 85.18468 
L 191.840436 81.081211 
L 192.678798 78.358387 
L 194.061926 75.975797 
L 194.816345 75.084831 
L 195.445042 74.033038 
L 195.947995 73.349576 
L 197.079699 71.553482 
L 198.085693 70.667431 
L 198.588629 70.35063 
L 201.690323 67.78437 
L 202.02574 67.729436 
L 202.612438 67.595914 
L 203.031546 67.369193 
L 203.241189 67.364173 
L 203.450703 67.399021 
L 204.037573 67.045854 
L 204.917732 66.349034 
L 205.504539 65.833778 
L 205.797911 65.589822 
L 206.720064 64.840877 
L 208.187054 64.142093 
L 208.690003 64.061806 
L 209.151138 64.042854 
L 209.779776 63.846677 
L 210.24084 63.821575 
L 212.043201 64.281479 
L 212.420432 64.335794 
L 213.049154 64.617055 
L 213.594004 64.867376 
L 214.264632 64.903816 
L 214.935277 65.086535 
L 215.647836 65.023177 
L 216.192758 64.780016 
L 216.737605 64.647576 
L 218.372258 64.378526 
L 218.623778 64.552866 
L 218.87524 64.763491 
L 219.210644 64.624869 
L 219.671616 64.228289 
L 220.384175 63.968135 
L 221.222511 63.923924 
L 221.557768 63.976758 
L 222.270352 63.728783 
L 222.857239 63.673994 
L 223.402082 63.506913 
L 224.952868 63.361287 
L 225.330044 63.193931 
L 226.042662 63.310782 
L 226.378007 63.296058 
L 226.629406 63.304298 
L 228.138404 63.278551 
L 228.38984 63.257458 
L 228.59943 63.145899 
L 228.892835 62.988509 
L 230.359835 62.562793 
L 230.653291 62.504338 
L 231.323877 62.312618 
L 231.617236 62.186278 
L 231.868757 62.099364 
L 232.162179 62.065546 
L 232.958496 61.828499 
L 233.126158 61.792776 
L 233.587293 61.968741 
L 233.796828 61.922831 
L 234.090276 61.860099 
L 234.802852 61.942727 
L 235.138138 61.920981 
L 235.473517 61.816684 
L 235.808762 61.80102 
L 236.35365 61.840303 
L 236.688912 61.819433 
L 236.940399 61.822932 
L 237.4015 61.840065 
L 238.239811 61.837795 
L 238.449329 61.895665 
L 238.74271 61.931309 
L 239.371419 62.003806 
L 240.54508 62.000633 
L 240.922365 62.038871 
L 243.982002 62.302479 
L 244.191604 62.52055 
L 244.443078 62.677136 
L 244.736484 62.560167 
L 244.987971 62.441148 
L 245.113777 62.368748 
L 245.365235 62.149851 
L 246.077752 62.040873 
L 246.622687 61.890981 
L 248.676455 61.563035 
L 248.927938 61.625535 
L 249.179417 61.720059 
L 249.724301 61.68004 
L 250.562713 61.993562 
L 250.772252 62.051259 
L 251.610504 61.881045 
L 252.239251 61.987373 
L 252.532657 62.046912 
L 253.454759 62.243632 
L 253.580507 62.083624 
L 254.292978 57.111778 
L 255.131318 51.910448 
L 256.263026 46.787531 
L 257.562313 42.288281 
L 258.316795 40.692445 
L 259.071235 38.083647 
L 260.747815 34.145448 
L 261.292838 33.328773 
L 262.256796 32.188188 
L 262.759745 31.894258 
L 263.178886 31.655862 
L 263.388463 31.577915 
L 263.849497 31.697139 
L 264.394394 31.871788 
L 264.81353 32.173248 
L 265.819483 36.884467 
L 267.076909 41.378388 
L 268.040997 43.930999 
L 268.334395 44.810006 
L 269.046895 46.688663 
L 269.382207 47.057885 
L 269.591809 47.321913 
L 271.100702 50.329775 
L 272.861182 53.07091 
L 273.070734 53.207147 
L 273.447964 53.462865 
L 274.07661 53.92929 
L 274.998746 54.76016 
L 275.292181 54.89193 
L 275.878947 55.724535 
L 276.214275 55.700474 
L 276.926931 55.443645 
L 277.723231 55.837093 
L 277.93277 55.742579 
L 278.226201 55.713015 
L 278.561483 55.821263 
L 279.022559 55.647376 
L 279.860866 55.739171 
L 280.950668 56.783381 
L 281.495523 57.305264 
L 281.998481 57.654131 
L 282.375736 57.933466 
L 282.627261 58.17262 
L 283.800804 60.029234 
L 283.968492 60.067013 
L 284.261847 60.946885 
L 284.513376 61.416504 
L 284.639099 61.258532 
L 284.932496 60.804897 
L 285.18397 60.903206 
L 285.393576 60.923581 
L 285.812705 60.772113 
L 285.938444 60.688712 
L 286.483332 59.9144 
L 287.279721 60.016967 
L 287.866515 58.883806 
L 287.992259 58.980073 
L 288.411454 59.34644 
L 288.537135 59.216086 
L 289.123946 58.014083 
L 289.2916 58.101983 
L 289.87842 58.712927 
L 290.38139 58.474756 
L 290.758675 58.500381 
L 291.01009 58.391785 
L 291.764614 58.581388 
L 292.686654 58.386644 
L 292.812464 58.557092 
L 293.3992 59.519991 
L 293.650771 59.479072 
L 294.111805 59.636864 
L 294.321437 59.631209 
L 294.572819 59.591525 
L 294.908206 59.580265 
L 296.794296 59.479088 
L 297.213445 59.602235 
L 297.674546 59.530121 
L 298.890029 59.605165 
L 299.518789 59.890426 
L 300.650459 60.186451 
L 300.943953 60.256242 
L 301.404899 60.358023 
L 302.033604 60.549827 
L 303.081471 59.258139 
L 303.500658 58.795974 
L 304.003599 58.325914 
L 304.464646 57.699427 
L 304.925705 57.957703 
L 305.763999 59.141886 
L 306.308913 59.496125 
L 306.811858 59.843238 
L 307.189118 60.197635 
L 307.733968 60.751971 
L 308.320792 61.443996 
L 308.781898 61.539012 
L 309.703996 60.94312 
L 310.123196 60.535892 
L 310.458491 60.698183 
L 311.045235 60.863727 
L 312.596046 60.904105 
L 313.476347 60.868334 
L 314.817532 61.103167 
L 316.242608 61.670455 
L 316.661783 61.784453 
L 316.955192 61.99054 
L 317.458141 62.566401 
L 317.919234 62.602119 
L 318.296436 62.46917 
L 319.553896 62.429915 
L 319.805362 62.743829 
L 320.182685 63.335837 
L 320.224507 63.285083 
L 320.517913 63.02196 
L 321.859202 61.65427 
L 322.655603 60.688363 
L 322.7813 60.717295 
L 324.206385 61.910111 
L 324.877059 61.00325 
L 325.254302 60.585998 
L 325.421914 60.739972 
L 325.924871 61.266085 
L 326.386002 60.8362 
L 326.595603 60.676178 
L 326.930811 60.959512 
L 327.391899 61.286781 
L 327.852942 61.535017 
L 329.319996 62.385237 
L 330.661235 63.972249 
L 330.828935 64.525194 
L 331.834879 71.784643 
L 332.337794 75.448812 
L 333.092356 77.513155 
L 333.804869 78.222324 
L 333.930549 78.271435 
L 334.140193 78.85078 
L 335.774808 84.585185 
L 336.613082 88.143651 
L 336.990325 89.043302 
L 337.828606 90.570084 
L 338.20582 91.343794 
L 338.792615 91.738998 
L 339.337499 92.56083 
L 339.463305 92.493345 
L 340.091956 91.977159 
L 340.636962 92.416467 
L 340.930321 92.648264 
L 341.098 92.515241 
L 342.020031 91.205094 
L 342.648845 88.377847 
L 343.109808 86.553708 
L 343.65471 84.786622 
L 344.870318 80.415684 
L 346.127715 77.825608 
L 346.714527 76.510623 
L 347.594673 75.205238 
L 347.971979 74.669615 
L 348.474919 73.967716 
L 348.852099 73.51185 
L 349.983854 71.342593 
L 350.361022 70.985338 
L 351.492722 69.491759 
L 351.953794 68.844162 
L 353.169297 68.977832 
L 353.420814 68.971928 
L 353.714203 69.031408 
L 353.83998 68.963895 
L 354.342983 68.718398 
L 354.594458 68.54143 
L 355.09752 68.240204 
L 355.432731 68.150513 
L 355.851834 67.854092 
L 359.037332 64.975894 
L 360.085249 64.845073 
L 361.761783 64.048875 
L 362.432419 63.993765 
L 362.893458 64.166573 
L 363.186926 64.224639 
L 363.186926 64.224639 
" clip-path="url(#pc35498610d)" style="fill: none; stroke: #328c06; stroke-width: 0.4; stroke-linecap: round"/>
   </g>
   <g id="patch_3">
    <path d="M 55.9075 96.414802 
L 55.9075 22.270877 
" style="fill: none; stroke: #000000; stroke-linejoin: miter; stroke-linecap: square"/>
   </g>
   <g id="patch_4">
    <path d="M 55.9075 96.414802 
L 377.81928 96.414802 
" style="fill: none; stroke: #000000; stroke-linejoin: miter; stroke-linecap: square"/>
   </g>
   <g id="legend_1">
    <g id="line2d_26">
     <path d="M 100.958156 19.230686 
L 109.958156 19.230686 
L 118.958156 19.230686 
" style="fill: none; stroke: #2a2eec; stroke-width: 0.4; stroke-linecap: round"/>
    </g>
    <g id="text_5">
     <!-- SNR:0.1 -->
     <g style="fill: #262626" transform="translate(126.158156 22.380686) scale(0.09 -0.09)">
      <defs>
       <path id="DejaVuSerif-53" d="M 594 225 
L 594 1288 
L 953 1284 
Q 969 753 1261 498 
Q 1553 244 2150 244 
Q 2706 244 2998 464 
Q 3291 684 3291 1106 
Q 3291 1444 3114 1625 
Q 2938 1806 2369 1978 
L 1753 2163 
Q 1084 2366 811 2669 
Q 538 2972 538 3500 
Q 538 4094 959 4422 
Q 1381 4750 2144 4750 
Q 2469 4750 2856 4679 
Q 3244 4609 3681 4475 
L 3681 3481 
L 3328 3481 
Q 3275 3975 2998 4195 
Q 2722 4416 2156 4416 
Q 1663 4416 1405 4214 
Q 1147 4013 1147 3628 
Q 1147 3294 1340 3103 
Q 1534 2913 2163 2725 
L 2741 2553 
Q 3375 2363 3645 2067 
Q 3916 1772 3916 1275 
Q 3916 597 3481 253 
Q 3047 -91 2188 -91 
Q 1803 -91 1404 -12 
Q 1006 66 594 225 
z
" transform="scale(0.015625)"/>
       <path id="DejaVuSerif-4e" d="M 313 0 
L 313 331 
L 941 331 
L 941 4331 
L 313 4331 
L 313 4666 
L 1509 4666 
L 4306 984 
L 4306 4331 
L 3681 4331 
L 3681 4666 
L 5319 4666 
L 5319 4331 
L 4691 4331 
L 4691 -91 
L 4313 -91 
L 1325 3841 
L 1325 331 
L 1953 331 
L 1953 0 
L 313 0 
z
" transform="scale(0.015625)"/>
       <path id="DejaVuSerif-52" d="M 3066 2316 
Q 3284 2256 3442 2114 
Q 3600 1972 3725 1716 
L 4403 331 
L 4972 331 
L 4972 0 
L 3872 0 
L 3144 1484 
Q 2934 1916 2759 2042 
Q 2584 2169 2278 2169 
L 1581 2169 
L 1581 331 
L 2241 331 
L 2241 0 
L 353 0 
L 353 331 
L 947 331 
L 947 4331 
L 353 4331 
L 353 4666 
L 2719 4666 
Q 3400 4666 3770 4341 
Q 4141 4016 4141 3419 
Q 4141 2938 3870 2661 
Q 3600 2384 3066 2316 
z
M 1581 2503 
L 2503 2503 
Q 2975 2503 3200 2726 
Q 3425 2950 3425 3419 
Q 3425 3888 3200 4109 
Q 2975 4331 2503 4331 
L 1581 4331 
L 1581 2503 
z
" transform="scale(0.015625)"/>
       <path id="DejaVuSerif-3a" d="M 666 325 
Q 666 500 786 622 
Q 906 744 1081 744 
Q 1256 744 1376 622 
Q 1497 500 1497 325 
Q 1497 150 1378 29 
Q 1259 -91 1081 -91 
Q 903 -91 784 29 
Q 666 150 666 325 
z
M 666 2363 
Q 666 2538 786 2658 
Q 906 2778 1081 2778 
Q 1259 2778 1378 2659 
Q 1497 2541 1497 2363 
Q 1497 2184 1378 2065 
Q 1259 1947 1081 1947 
Q 906 1947 786 2067 
Q 666 2188 666 2363 
z
" transform="scale(0.015625)"/>
       <path id="DejaVuSerif-31" d="M 909 0 
L 909 331 
L 1722 331 
L 1722 4213 
L 781 3603 
L 781 4013 
L 1919 4750 
L 2350 4750 
L 2350 331 
L 3163 331 
L 3163 0 
L 909 0 
z
" transform="scale(0.015625)"/>
      </defs>
      <use xlink:href="#DejaVuSerif-53"/>
      <use xlink:href="#DejaVuSerif-4e" x="68.505859"/>
      <use xlink:href="#DejaVuSerif-52" x="156.005859"/>
      <use xlink:href="#DejaVuSerif-3a" x="231.298828"/>
      <use xlink:href="#DejaVuSerif-30" x="264.990234"/>
      <use xlink:href="#DejaVuSerif-2e" x="328.613281"/>
      <use xlink:href="#DejaVuSerif-31" x="360.400391"/>
     </g>
    </g>
    <g id="line2d_27">
     <path d="M 182.319562 19.230686 
L 191.319562 19.230686 
L 200.319562 19.230686 
" style="fill: none; stroke: #fa7c17; stroke-width: 0.4; stroke-linecap: round"/>
    </g>
    <g id="text_6">
     <!-- SNR:1.0 -->
     <g style="fill: #262626" transform="translate(207.519562 22.380686) scale(0.09 -0.09)">
      <use xlink:href="#DejaVuSerif-53"/>
      <use xlink:href="#DejaVuSerif-4e" x="68.505859"/>
      <use xlink:href="#DejaVuSerif-52" x="156.005859"/>
      <use xlink:href="#DejaVuSerif-3a" x="231.298828"/>
      <use xlink:href="#DejaVuSerif-31" x="264.990234"/>
      <use xlink:href="#DejaVuSerif-2e" x="328.613281"/>
      <use xlink:href="#DejaVuSerif-30" x="360.400391"/>
     </g>
    </g>
    <g id="line2d_28">
     <path d="M 263.680968 19.230686 
L 272.680968 19.230686 
L 281.680968 19.230686 
" style="fill: none; stroke: #328c06; stroke-width: 0.4; stroke-linecap: round"/>
    </g>
    <g id="text_7">
     <!-- SNR:10.0 -->
     <g style="fill: #262626" transform="translate(288.880968 22.380686) scale(0.09 -0.09)">
      <use xlink:href="#DejaVuSerif-53"/>
      <use xlink:href="#DejaVuSerif-4e" x="68.505859"/>
      <use xlink:href="#DejaVuSerif-52" x="156.005859"/>
      <use xlink:href="#DejaVuSerif-3a" x="231.298828"/>
      <use xlink:href="#DejaVuSerif-31" x="264.990234"/>
      <use xlink:href="#DejaVuSerif-30" x="328.613281"/>
      <use xlink:href="#DejaVuSerif-2e" x="392.236328"/>
      <use xlink:href="#DejaVuSerif-30" x="424.023438"/>
     </g>
    </g>
   </g>
  </g>
  <g id="axes_2">
   <g id="patch_5">
    <path d="M 55.9075 183.523104 
L 377.81928 183.523104 
L 377.81928 109.379179 
L 55.9075 109.379179 
z
" style="fill: #ffffff"/>
   </g>
   <g id="matplotlib.axis_3">
    <g id="xtick_9">
     <g id="line2d_29">
      <path d="M 70.539854 183.523104 
L 70.539854 109.379179 
" clip-path="url(#p6e6cebf58f)" style="fill: none; stroke: #b0b0b0; stroke-width: 0.1; stroke-linecap: round"/>
     </g>
     <g id="line2d_30"/>
     <g id="text_8">
      <!-- 0 -->
      <g style="fill: #262626" transform="translate(67.676729 193.861698) scale(0.09 -0.09)">
       <use xlink:href="#DejaVuSerif-30"/>
      </g>
     </g>
    </g>
    <g id="xtick_10">
     <g id="line2d_31">
      <path d="M 112.454356 183.523104 
L 112.454356 109.379179 
" clip-path="url(#p6e6cebf58f)" style="fill: none; stroke: #b0b0b0; stroke-width: 0.1; stroke-linecap: round"/>
     </g>
     <g id="line2d_32"/>
     <g id="text_9">
      <!-- 10 -->
      <g style="fill: #262626" transform="translate(106.728106 193.861698) scale(0.09 -0.09)">
       <use xlink:href="#DejaVuSerif-31"/>
       <use xlink:href="#DejaVuSerif-30" x="63.623047"/>
      </g>
     </g>
    </g>
    <g id="xtick_11">
     <g id="line2d_33">
      <path d="M 154.368858 183.523104 
L 154.368858 109.379179 
" clip-path="url(#p6e6cebf58f)" style="fill: none; stroke: #b0b0b0; stroke-width: 0.1; stroke-linecap: round"/>
     </g>
     <g id="line2d_34"/>
     <g id="text_10">
      <!-- 20 -->
      <g style="fill: #262626" transform="translate(148.642608 193.861698) scale(0.09 -0.09)">
       <use xlink:href="#DejaVuSerif-32"/>
       <use xlink:href="#DejaVuSerif-30" x="63.623047"/>
      </g>
     </g>
    </g>
    <g id="xtick_12">
     <g id="line2d_35">
      <path d="M 196.283361 183.523104 
L 196.283361 109.379179 
" clip-path="url(#p6e6cebf58f)" style="fill: none; stroke: #b0b0b0; stroke-width: 0.1; stroke-linecap: round"/>
     </g>
     <g id="line2d_36"/>
     <g id="text_11">
      <!-- 30 -->
      <g style="fill: #262626" transform="translate(190.557111 193.861698) scale(0.09 -0.09)">
       <defs>
        <path id="DejaVuSerif-33" d="M 622 4469 
Q 988 4606 1323 4678 
Q 1659 4750 1953 4750 
Q 2638 4750 3022 4454 
Q 3406 4159 3406 3634 
Q 3406 3213 3140 2930 
Q 2875 2647 2388 2547 
Q 2963 2466 3280 2130 
Q 3597 1794 3597 1259 
Q 3597 606 3158 257 
Q 2719 -91 1894 -91 
Q 1528 -91 1179 -12 
Q 831 66 488 225 
L 488 1131 
L 838 1131 
Q 869 681 1141 450 
Q 1413 219 1906 219 
Q 2384 219 2661 495 
Q 2938 772 2938 1253 
Q 2938 1803 2653 2086 
Q 2369 2369 1819 2369 
L 1522 2369 
L 1522 2688 
L 1678 2688 
Q 2225 2688 2498 2914 
Q 2772 3141 2772 3597 
Q 2772 4006 2547 4223 
Q 2322 4441 1900 4441 
Q 1478 4441 1245 4241 
Q 1013 4041 972 3647 
L 622 3647 
L 622 4469 
z
" transform="scale(0.015625)"/>
       </defs>
       <use xlink:href="#DejaVuSerif-33"/>
       <use xlink:href="#DejaVuSerif-30" x="63.623047"/>
      </g>
     </g>
    </g>
    <g id="xtick_13">
     <g id="line2d_37">
      <path d="M 238.197863 183.523104 
L 238.197863 109.379179 
" clip-path="url(#p6e6cebf58f)" style="fill: none; stroke: #b0b0b0; stroke-width: 0.1; stroke-linecap: round"/>
     </g>
     <g id="line2d_38"/>
     <g id="text_12">
      <!-- 40 -->
      <g style="fill: #262626" transform="translate(232.471613 193.861698) scale(0.09 -0.09)">
       <defs>
        <path id="DejaVuSerif-34" d="M 2234 1581 
L 2234 4063 
L 641 1581 
L 2234 1581 
z
M 3609 0 
L 1484 0 
L 1484 331 
L 2234 331 
L 2234 1247 
L 197 1247 
L 197 1588 
L 2241 4750 
L 2859 4750 
L 2859 1581 
L 3750 1581 
L 3750 1247 
L 2859 1247 
L 2859 331 
L 3609 331 
L 3609 0 
z
" transform="scale(0.015625)"/>
       </defs>
       <use xlink:href="#DejaVuSerif-34"/>
       <use xlink:href="#DejaVuSerif-30" x="63.623047"/>
      </g>
     </g>
    </g>
    <g id="xtick_14">
     <g id="line2d_39">
      <path d="M 280.112366 183.523104 
L 280.112366 109.379179 
" clip-path="url(#p6e6cebf58f)" style="fill: none; stroke: #b0b0b0; stroke-width: 0.1; stroke-linecap: round"/>
     </g>
     <g id="line2d_40"/>
     <g id="text_13">
      <!-- 50 -->
      <g style="fill: #262626" transform="translate(274.386116 193.861698) scale(0.09 -0.09)">
       <defs>
        <path id="DejaVuSerif-35" d="M 3219 4666 
L 3219 4153 
L 1081 4153 
L 1081 2816 
Q 1244 2928 1461 2984 
Q 1678 3041 1947 3041 
Q 2703 3041 3140 2622 
Q 3578 2203 3578 1478 
Q 3578 738 3136 323 
Q 2694 -91 1894 -91 
Q 1572 -91 1234 -12 
Q 897 66 544 225 
L 544 1131 
L 897 1131 
Q 925 688 1179 453 
Q 1434 219 1894 219 
Q 2388 219 2653 544 
Q 2919 869 2919 1478 
Q 2919 2084 2655 2407 
Q 2391 2731 1894 2731 
Q 1613 2731 1398 2631 
Q 1184 2531 1019 2322 
L 750 2322 
L 750 4666 
L 3219 4666 
z
" transform="scale(0.015625)"/>
       </defs>
       <use xlink:href="#DejaVuSerif-35"/>
       <use xlink:href="#DejaVuSerif-30" x="63.623047"/>
      </g>
     </g>
    </g>
    <g id="xtick_15">
     <g id="line2d_41">
      <path d="M 322.026868 183.523104 
L 322.026868 109.379179 
" clip-path="url(#p6e6cebf58f)" style="fill: none; stroke: #b0b0b0; stroke-width: 0.1; stroke-linecap: round"/>
     </g>
     <g id="line2d_42"/>
     <g id="text_14">
      <!-- 60 -->
      <g style="fill: #262626" transform="translate(316.300618 193.861698) scale(0.09 -0.09)">
       <defs>
        <path id="DejaVuSerif-36" d="M 2094 219 
Q 2534 219 2771 542 
Q 3009 866 3009 1472 
Q 3009 2078 2771 2401 
Q 2534 2725 2094 2725 
Q 1647 2725 1412 2412 
Q 1178 2100 1178 1509 
Q 1178 888 1415 553 
Q 1653 219 2094 219 
z
M 1075 2569 
Q 1288 2803 1556 2918 
Q 1825 3034 2163 3034 
Q 2859 3034 3264 2615 
Q 3669 2197 3669 1472 
Q 3669 763 3233 336 
Q 2797 -91 2069 -91 
Q 1278 -91 853 498 
Q 428 1088 428 2181 
Q 428 3406 931 4078 
Q 1434 4750 2350 4750 
Q 2597 4750 2869 4703 
Q 3141 4656 3425 4563 
L 3425 3794 
L 3072 3794 
Q 3034 4109 2831 4275 
Q 2628 4441 2284 4441 
Q 1678 4441 1381 3981 
Q 1084 3522 1075 2569 
z
" transform="scale(0.015625)"/>
       </defs>
       <use xlink:href="#DejaVuSerif-36"/>
       <use xlink:href="#DejaVuSerif-30" x="63.623047"/>
      </g>
     </g>
    </g>
    <g id="xtick_16">
     <g id="line2d_43">
      <path d="M 363.941371 183.523104 
L 363.941371 109.379179 
" clip-path="url(#p6e6cebf58f)" style="fill: none; stroke: #b0b0b0; stroke-width: 0.1; stroke-linecap: round"/>
     </g>
     <g id="line2d_44"/>
     <g id="text_15">
      <!-- 70 -->
      <g style="fill: #262626" transform="translate(358.215121 193.861698) scale(0.09 -0.09)">
       <defs>
        <path id="DejaVuSerif-37" d="M 3609 4347 
L 1784 0 
L 1319 0 
L 3059 4153 
L 903 4153 
L 903 3578 
L 538 3578 
L 538 4666 
L 3609 4666 
L 3609 4347 
z
" transform="scale(0.015625)"/>
       </defs>
       <use xlink:href="#DejaVuSerif-37"/>
       <use xlink:href="#DejaVuSerif-30" x="63.623047"/>
      </g>
     </g>
    </g>
    <g id="text_16">
     <!-- Time [s] -->
     <g style="fill: #262626" transform="translate(200.310265 205.812167) scale(0.08 -0.08)">
      <defs>
       <path id="DejaVuSerif-54" d="M 1222 0 
L 1222 331 
L 1819 331 
L 1819 4294 
L 447 4294 
L 447 3566 
L 63 3566 
L 63 4666 
L 4206 4666 
L 4206 3566 
L 3822 3566 
L 3822 4294 
L 2450 4294 
L 2450 331 
L 3047 331 
L 3047 0 
L 1222 0 
z
" transform="scale(0.015625)"/>
       <path id="DejaVuSerif-69" d="M 622 4353 
Q 622 4497 726 4603 
Q 831 4709 978 4709 
Q 1122 4709 1226 4603 
Q 1331 4497 1331 4353 
Q 1331 4206 1228 4103 
Q 1125 4000 978 4000 
Q 831 4000 726 4103 
Q 622 4206 622 4353 
z
M 1356 331 
L 1900 331 
L 1900 0 
L 231 0 
L 231 331 
L 781 331 
L 781 2988 
L 231 2988 
L 231 3322 
L 1356 3322 
L 1356 331 
z
" transform="scale(0.015625)"/>
       <path id="DejaVuSerif-6d" d="M 3316 2675 
Q 3481 3041 3739 3227 
Q 3997 3413 4341 3413 
Q 4863 3413 5119 3089 
Q 5375 2766 5375 2113 
L 5375 331 
L 5894 331 
L 5894 0 
L 4300 0 
L 4300 331 
L 4800 331 
L 4800 2047 
Q 4800 2556 4650 2772 
Q 4500 2988 4153 2988 
Q 3769 2988 3567 2697 
Q 3366 2406 3366 1850 
L 3366 331 
L 3866 331 
L 3866 0 
L 2291 0 
L 2291 331 
L 2791 331 
L 2791 2069 
Q 2791 2566 2641 2777 
Q 2491 2988 2144 2988 
Q 1759 2988 1557 2697 
Q 1356 2406 1356 1850 
L 1356 331 
L 1856 331 
L 1856 0 
L 263 0 
L 263 331 
L 781 331 
L 781 2994 
L 231 2994 
L 231 3322 
L 1356 3322 
L 1356 2731 
Q 1516 3063 1762 3238 
Q 2009 3413 2322 3413 
Q 2709 3413 2968 3220 
Q 3228 3028 3316 2675 
z
" transform="scale(0.015625)"/>
       <path id="DejaVuSerif-65" d="M 3469 1600 
L 991 1600 
L 991 1575 
Q 991 903 1244 561 
Q 1497 219 1991 219 
Q 2369 219 2611 417 
Q 2853 616 2950 1006 
L 3413 1006 
Q 3275 459 2904 184 
Q 2534 -91 1931 -91 
Q 1203 -91 761 389 
Q 319 869 319 1663 
Q 319 2450 753 2931 
Q 1188 3413 1894 3413 
Q 2647 3413 3050 2948 
Q 3453 2484 3469 1600 
z
M 2791 1931 
Q 2772 2513 2545 2808 
Q 2319 3103 1894 3103 
Q 1497 3103 1269 2806 
Q 1041 2509 991 1931 
L 2791 1931 
z
" transform="scale(0.015625)"/>
      </defs>
      <use xlink:href="#DejaVuSerif-54"/>
      <use xlink:href="#DejaVuSerif-69" x="66.699219"/>
      <use xlink:href="#DejaVuSerif-6d" x="98.681641"/>
      <use xlink:href="#DejaVuSerif-65" x="193.505859"/>
      <use xlink:href="#DejaVuSerif-20" x="252.685547"/>
      <use xlink:href="#DejaVuSerif-5b" x="284.472656"/>
      <use xlink:href="#DejaVuSerif-73" x="323.486328"/>
      <use xlink:href="#DejaVuSerif-5d" x="374.804688"/>
     </g>
    </g>
   </g>
   <g id="matplotlib.axis_4">
    <g id="ytick_4">
     <g id="line2d_45">
      <path d="M 55.9075 181.452081 
L 377.81928 181.452081 
" clip-path="url(#p6e6cebf58f)" style="fill: none; stroke: #b0b0b0; stroke-width: 0.1; stroke-linecap: round"/>
     </g>
     <g id="line2d_46"/>
     <g id="text_17">
      <!-- −0.05 -->
      <g style="fill: #262626" transform="translate(24.826719 184.871378) scale(0.09 -0.09)">
       <use xlink:href="#DejaVuSerif-2212"/>
       <use xlink:href="#DejaVuSerif-30" x="83.789062"/>
       <use xlink:href="#DejaVuSerif-2e" x="147.412109"/>
       <use xlink:href="#DejaVuSerif-30" x="179.199219"/>
       <use xlink:href="#DejaVuSerif-35" x="242.822266"/>
      </g>
     </g>
    </g>
    <g id="ytick_5">
     <g id="line2d_47">
      <path d="M 55.9075 145.970692 
L 377.81928 145.970692 
" clip-path="url(#p6e6cebf58f)" style="fill: none; stroke: #b0b0b0; stroke-width: 0.1; stroke-linecap: round"/>
     </g>
     <g id="line2d_48"/>
     <g id="text_18">
      <!-- 0.00 -->
      <g style="fill: #262626" transform="translate(32.368438 149.389989) scale(0.09 -0.09)">
       <use xlink:href="#DejaVuSerif-30"/>
       <use xlink:href="#DejaVuSerif-2e" x="63.623047"/>
       <use xlink:href="#DejaVuSerif-30" x="95.410156"/>
       <use xlink:href="#DejaVuSerif-30" x="159.033203"/>
      </g>
     </g>
    </g>
    <g id="ytick_6">
     <g id="line2d_49">
      <path d="M 55.9075 110.489302 
L 377.81928 110.489302 
" clip-path="url(#p6e6cebf58f)" style="fill: none; stroke: #b0b0b0; stroke-width: 0.1; stroke-linecap: round"/>
     </g>
     <g id="line2d_50"/>
     <g id="text_19">
      <!-- 0.05 -->
      <g style="fill: #262626" transform="translate(32.368438 113.908599) scale(0.09 -0.09)">
       <use xlink:href="#DejaVuSerif-30"/>
       <use xlink:href="#DejaVuSerif-2e" x="63.623047"/>
       <use xlink:href="#DejaVuSerif-30" x="95.410156"/>
       <use xlink:href="#DejaVuSerif-35" x="159.033203"/>
      </g>
     </g>
    </g>
    <g id="text_20">
     <!-- $\dot{v}$ [m/s2] -->
     <g style="fill: #262626" transform="translate(19.162969 162.971142) rotate(-90) scale(0.08 -0.08)">
      <defs>
       <path id="DejaVuSans-Oblique-76" d="M 459 3500 
L 1069 3500 
L 1581 525 
L 3256 3500 
L 3866 3500 
L 1875 0 
L 1100 0 
L 459 3500 
z
" transform="scale(0.015625)"/>
      </defs>
      <use xlink:href="#DejaVuSans-307" transform="translate(62.388672 12.015625)"/>
      <use xlink:href="#DejaVuSans-Oblique-76" transform="translate(0 0.828125)"/>
      <use xlink:href="#DejaVuSerif-20" transform="translate(59.179688 0.828125)"/>
      <use xlink:href="#DejaVuSerif-5b" transform="translate(90.966797 0.828125)"/>
      <use xlink:href="#DejaVuSerif-6d" transform="translate(129.980469 0.828125)"/>
      <use xlink:href="#DejaVuSerif-2f" transform="translate(224.804688 0.828125)"/>
      <use xlink:href="#DejaVuSerif-73" transform="translate(258.496094 0.828125)"/>
      <use xlink:href="#DejaVuSerif-32" transform="translate(309.814453 0.828125)"/>
      <use xlink:href="#DejaVuSerif-5d" transform="translate(373.4375 0.828125)"/>
     </g>
    </g>
   </g>
   <g id="line2d_51">
    <path d="M 70.539854 145.970692 
L 74.605548 144.535085 
L 75.401919 144.438749 
L 77.539529 138.537716 
L 78.964648 133.947458 
L 80.180135 129.279354 
L 81.144202 125.63112 
L 82.736936 124.998125 
L 84.664999 124.491553 
L 85.880515 124.388222 
L 86.802655 124.509332 
L 87.934422 124.9172 
L 89.401329 125.743103 
L 90.826427 126.769246 
L 92.000037 127.534933 
L 93.634744 128.473771 
L 96.484922 130.222517 
L 98.664447 131.946389 
L 100.969795 134.05373 
L 103.819935 136.546652 
L 104.867781 137.511321 
L 106.921608 146.148717 
L 109.143119 154.547046 
L 111.40646 162.261035 
L 115.597893 176.225962 
L 116.184709 178.051163 
L 117.40023 178.390905 
L 118.532215 178.456007 
L 119.579771 178.320169 
L 120.585728 177.98394 
L 121.675492 177.381836 
L 122.807301 176.494245 
L 124.274237 175.039501 
L 125.992698 173.053973 
L 129.345867 169.245218 
L 134.082231 164.297787 
L 135.926436 162.763706 
L 137.309648 161.887136 
L 139.40539 160.814316 
L 143.512986 158.725236 
L 146.153629 157.423514 
L 148.458863 156.543798 
L 154.99753 154.190956 
L 160.278816 152.194995 
L 165.601895 150.935144 
L 168.158705 150.333563 
L 170.883177 149.492234 
L 172.392044 148.920517 
L 174.068637 148.068299 
L 175.870969 146.864568 
L 178.008646 145.328979 
L 179.60136 140.138345 
L 181.361765 135.166204 
L 184.88257 126.164562 
L 188.403434 116.944048 
L 189.325512 114.60999 
L 190.373429 114.598842 
L 191.505108 114.812726 
L 192.804537 115.285499 
L 194.103761 115.999955 
L 195.528967 117.04797 
L 197.163507 118.529392 
L 199.762219 121.186681 
L 203.324972 124.896591 
L 206.217064 127.624936 
L 208.354712 129.35506 
L 210.324761 130.663681 
L 212.462309 131.804905 
L 215.564107 133.190663 
L 218.791528 134.451345 
L 221.054794 135.094934 
L 224.072643 136.007856 
L 238.617 140.926428 
L 241.006097 141.52906 
L 243.059929 141.826888 
L 247.041794 142.290979 
L 248.467021 142.712219 
L 249.933874 143.384055 
L 251.903952 144.581351 
L 253.622358 145.833759 
L 255.299031 151.190009 
L 257.227052 156.632772 
L 259.574302 162.535587 
L 265.023095 175.488104 
L 266.154816 175.401504 
L 267.454194 175.059793 
L 269.046895 174.386998 
L 270.681544 173.426013 
L 272.190466 172.271095 
L 274.07661 170.527822 
L 277.597466 167.196611 
L 279.902747 165.357732 
L 285.016325 161.415125 
L 286.986353 160.365023 
L 292.393294 158.075064 
L 295.914167 156.802638 
L 299.895982 155.700893 
L 303.416829 154.570879 
L 307.105314 153.461084 
L 316.745582 150.846998 
L 325.883023 148.856458 
L 327.559524 148.09845 
L 329.278119 147.049145 
L 330.828935 145.906414 
L 332.547366 140.656198 
L 334.936535 134.055285 
L 336.990325 129.022972 
L 341.684728 117.459774 
L 342.145771 116.497048 
L 343.151752 116.488523 
L 344.618751 116.784957 
L 345.960037 117.339083 
L 347.259365 118.043892 
L 348.72636 119.071636 
L 350.319187 120.512199 
L 355.09752 125.037862 
L 356.648247 126.111536 
L 358.240986 126.953059 
L 359.833766 127.554252 
L 361.971368 128.094291 
L 363.186926 128.374712 
L 363.186926 128.374712 
" clip-path="url(#p6e6cebf58f)" style="fill: none; stroke: #2a2eec; stroke-width: 0.4; stroke-linecap: round"/>
   </g>
   <g id="line2d_52">
    <path d="M 70.539854 145.970692 
L 71.294277 146.195429 
L 71.964997 146.116888 
L 72.59361 145.861168 
L 73.725326 145.102511 
L 75.108497 144.208878 
L 75.401919 144.023084 
L 78.042512 136.413093 
L 79.425678 132.286972 
L 80.431659 128.678176 
L 81.144202 126.264925 
L 82.359718 125.540204 
L 83.659055 124.562493 
L 85.251831 123.440261 
L 85.880515 123.240871 
L 86.425421 123.265644 
L 86.886476 123.549737 
L 87.808583 124.393693 
L 91.329438 128.336979 
L 91.832392 128.286216 
L 93.047946 128.560428 
L 93.425193 128.370547 
L 93.718532 128.318865 
L 94.179604 128.513175 
L 95.05985 129.000233 
L 96.401072 129.710253 
L 100.047688 133.694275 
L 101.388881 134.855864 
L 102.730158 135.749035 
L 103.94567 136.514863 
L 104.825975 136.879838 
L 110.90349 161.114965 
L 112.663975 167.215457 
L 114.717727 173.508524 
L 115.723641 176.833001 
L 116.184709 178.066834 
L 119.495963 178.702873 
L 120.250416 178.524148 
L 121.29827 177.980151 
L 122.178525 177.239069 
L 123.184444 175.978461 
L 126.705295 171.477183 
L 127.54356 170.697327 
L 128.046505 170.407226 
L 129.052528 169.917141 
L 131.064378 168.172524 
L 132.573275 166.072205 
L 133.914552 164.251324 
L 135.46543 162.489074 
L 136.303779 161.914745 
L 137.058123 161.703012 
L 138.860526 161.213491 
L 140.034115 160.801993 
L 140.998136 160.402137 
L 142.004068 159.785109 
L 145.902095 157.28298 
L 147.872119 156.74917 
L 149.045717 156.363145 
L 150.889972 155.647264 
L 151.812057 155.378619 
L 153.195215 155.025348 
L 156.925601 153.455581 
L 158.266849 152.639438 
L 159.650056 152.043003 
L 160.949473 151.829555 
L 162.206904 151.876491 
L 162.793615 151.854219 
L 164.470233 151.315806 
L 165.72763 150.695447 
L 166.482166 150.901054 
L 167.068915 150.937191 
L 167.907327 150.44764 
L 168.326329 149.910005 
L 168.997024 149.415601 
L 170.84122 149.125296 
L 171.469984 149.181852 
L 173.146551 148.951916 
L 173.98485 148.606068 
L 174.94885 147.914529 
L 177.086531 145.594625 
L 178.050523 144.675736 
L 179.056509 141.601871 
L 180.271987 138.599276 
L 182.577281 133.183469 
L 183.66705 129.892389 
L 187.020252 119.426613 
L 188.738713 115.259622 
L 189.283689 114.1713 
L 191.630868 114.888619 
L 193.349367 115.328283 
L 194.187653 115.837046 
L 195.067882 116.628668 
L 196.157605 117.906179 
L 197.7923 119.597927 
L 201.77424 123.192535 
L 203.786007 124.984282 
L 208.438521 129.554174 
L 209.737904 130.508678 
L 210.995393 131.227906 
L 212.504227 131.755903 
L 214.59999 132.580058 
L 217.953125 134.354434 
L 219.545897 134.856482 
L 221.390098 135.071327 
L 223.024855 135.415828 
L 224.366107 135.976823 
L 226.252197 136.951341 
L 227.9707 137.697221 
L 229.898754 138.125603 
L 232.581316 138.775885 
L 234.341704 139.525943 
L 235.808762 140.042732 
L 240.000279 141.353125 
L 242.221635 141.98853 
L 243.311454 142.097065 
L 246.413051 142.225926 
L 247.922066 142.440756 
L 249.430912 143.030307 
L 251.400923 144.175231 
L 252.826016 145.181733 
L 253.580507 145.764899 
L 254.502638 148.709344 
L 256.053433 152.901269 
L 259.574302 162.258704 
L 262.759745 171.258439 
L 264.603987 175.407767 
L 264.897389 175.870199 
L 268.208597 174.664345 
L 269.13077 174.387642 
L 271.100702 173.340237 
L 272.022888 172.475931 
L 273.489891 170.720478 
L 275.292181 168.541261 
L 276.256202 167.722974 
L 277.765128 166.911099 
L 278.729137 166.66825 
L 279.651348 166.412245 
L 280.531461 165.759718 
L 281.285943 164.896697 
L 284.010368 161.284306 
L 284.261847 161.26771 
L 284.555257 161.24318 
L 285.309789 160.904629 
L 286.064225 160.718091 
L 286.567237 160.355653 
L 287.489285 160.069043 
L 287.824613 159.884291 
L 288.620972 159.713812 
L 289.207758 159.303328 
L 291.01009 158.724825 
L 291.764614 158.394614 
L 293.315396 157.805847 
L 293.776569 157.581383 
L 295.117733 156.899787 
L 296.123681 156.544799 
L 297.716415 156.279622 
L 299.770221 155.919956 
L 301.321087 155.333285 
L 303.752158 154.194533 
L 304.967666 153.974859 
L 306.015583 153.808425 
L 308.236989 153.260807 
L 309.368638 153.011563 
L 312.177044 151.715866 
L 313.0153 151.51375 
L 314.985215 151.246695 
L 316.368373 151.033969 
L 320.643644 149.898587 
L 322.068758 149.241299 
L 323.158514 149.031034 
L 324.499769 149.062772 
L 325.883023 149.150651 
L 327.433843 148.590638 
L 328.565505 147.849289 
L 329.152363 147.245388 
L 330.577477 145.606683 
L 330.828935 145.35403 
L 331.373777 144.017166 
L 332.04438 142.433217 
L 333.762887 137.80132 
L 334.559267 135.621784 
L 337.535188 127.720497 
L 339.79858 121.253336 
L 341.391331 117.656389 
L 342.187706 115.979878 
L 343.277504 116.332148 
L 343.780499 116.512254 
L 344.828316 116.907194 
L 345.876161 117.493304 
L 346.672566 117.727958 
L 348.516897 118.664676 
L 349.271236 119.461634 
L 351.283153 121.830261 
L 352.456759 123.026818 
L 354.426783 124.378533 
L 359.791801 127.990982 
L 360.797846 128.304552 
L 363.186926 128.69844 
L 363.186926 128.69844 
" clip-path="url(#p6e6cebf58f)" style="fill: none; stroke: #fa7c17; stroke-width: 0.4; stroke-linecap: round"/>
   </g>
   <g id="line2d_53">
    <path d="M 70.539854 145.970692 
L 70.875174 146.133138 
L 71.42002 146.506184 
L 72.342152 146.529072 
L 72.719374 146.323344 
L 73.054753 146.010539 
L 74.354023 144.541647 
L 74.85701 143.927789 
L 75.024697 143.867607 
L 75.192326 143.906694 
L 75.359984 144.019688 
L 76.072564 142.341274 
L 76.826966 140.512659 
L 77.078478 139.484735 
L 77.371964 138.71338 
L 77.791008 137.73703 
L 79.300001 132.801611 
L 79.802904 130.777506 
L 81.060427 125.414877 
L 82.150204 123.496354 
L 82.862763 123.106447 
L 83.156085 123.095433 
L 83.784803 123.010866 
L 84.832682 123.279441 
L 85.67101 123.30592 
L 86.257805 123.503056 
L 86.341625 123.52982 
L 86.802655 124.648749 
L 87.221784 125.702116 
L 88.311598 127.361857 
L 88.521129 127.808575 
L 88.730689 128.092383 
L 88.856433 127.667379 
L 89.401329 126.067033 
L 89.569088 125.674699 
L 89.610982 125.693912 
L 89.862406 126.438268 
L 90.113889 127.134224 
L 90.281568 127.214317 
L 90.700696 127.976738 
L 90.910256 129.105015 
L 91.161751 130.059867 
L 91.245681 129.775755 
L 91.790523 126.95201 
L 91.916221 126.947447 
L 92.796404 127.885622 
L 92.964096 127.98922 
L 93.089831 127.816538 
L 93.299428 127.074391 
L 93.592788 125.79837 
L 93.634744 125.808249 
L 93.886231 126.228074 
L 94.137685 127.214502 
L 94.724475 129.726219 
L 95.269385 130.097102 
L 95.604709 129.630332 
L 95.856209 129.453213 
L 96.149598 129.539992 
L 96.31726 129.741761 
L 96.568726 130.549771 
L 97.113673 132.604785 
L 97.323183 132.789623 
L 98.119642 132.203914 
L 98.161465 132.279304 
L 98.496781 132.680784 
L 98.748263 132.71224 
L 98.957899 132.784046 
L 99.628485 133.177288 
L 99.92192 133.313349 
L 100.760164 133.910577 
L 101.137466 134.596283 
L 101.55656 134.2283 
L 102.017607 134.497855 
L 102.772098 135.526221 
L 103.526534 137.080328 
L 104.029499 137.384818 
L 104.532523 137.507782 
L 104.867781 137.746955 
L 105.957587 140.970808 
L 107.005429 144.217479 
L 108.262839 149.472922 
L 109.10115 153.959299 
L 110.442414 160.843223 
L 111.657926 164.996651 
L 113.250765 170.406784 
L 114.298544 172.977203 
L 114.801526 173.568411 
L 114.927278 173.892687 
L 116.142816 177.561011 
L 116.603854 177.907176 
L 117.232572 178.747614 
L 118.112822 179.721433 
L 118.699558 180.152926 
L 119.789407 179.951447 
L 120.082737 179.635437 
L 121.130675 178.349414 
L 121.96891 177.473798 
L 123.352102 174.318185 
L 123.519739 174.294092 
L 123.645574 174.30927 
L 124.064665 173.894892 
L 124.274237 174.061479 
L 124.483781 174.216596 
L 124.69342 173.977828 
L 124.902909 173.394709 
L 125.280164 172.452992 
L 125.657378 172.209178 
L 125.866947 172.067191 
L 126.202275 171.815656 
L 126.369933 171.820505 
L 126.621412 171.982699 
L 126.789078 171.704638 
L 127.124411 171.102988 
L 127.459756 171.059776 
L 127.711277 170.83861 
L 127.962701 171.152129 
L 128.256098 171.536427 
L 128.381833 171.463802 
L 128.633404 171.279101 
L 128.801079 171.497603 
L 128.968636 171.630642 
L 129.094397 171.400925 
L 129.471627 170.519407 
L 129.639289 170.804816 
L 129.765029 170.924848 
L 129.890764 170.68448 
L 130.393746 169.198102 
L 130.435632 169.232893 
L 130.645212 169.381067 
L 130.771019 169.162772 
L 131.693125 166.833186 
L 132.15413 165.955602 
L 132.866694 164.542688 
L 133.076274 164.432977 
L 133.243979 164.42049 
L 133.705 164.110136 
L 134.417572 163.832764 
L 135.088154 162.612451 
L 135.46543 161.935176 
L 136.219845 161.445466 
L 136.261764 161.514964 
L 137.393422 162.264714 
L 137.68697 162.241392 
L 138.064092 162.253398 
L 138.315579 161.765067 
L 138.650899 161.313487 
L 138.944355 160.697158 
L 139.40539 159.721284 
L 139.740701 159.430351 
L 140.243659 159.661761 
L 140.620969 159.628668 
L 141.249724 159.628749 
L 141.752602 159.336889 
L 142.255605 159.182459 
L 142.71666 158.858097 
L 143.051909 158.586201 
L 143.806375 158.427957 
L 144.309499 158.141837 
L 144.812348 158.014689 
L 145.44109 157.457 
L 146.321245 157.4826 
L 146.656603 157.390089 
L 146.950017 157.354673 
L 147.159552 157.332416 
L 148.039857 157.190185 
L 148.375219 157.084944 
L 149.506768 155.76991 
L 151.015711 154.546157 
L 151.351044 154.377579 
L 152.608424 155.167575 
L 153.320946 155.016163 
L 154.368821 154.482931 
L 154.99753 154.656052 
L 155.458585 154.866772 
L 155.877806 154.806029 
L 156.213067 154.754517 
L 156.506465 154.479621 
L 157.219003 153.168347 
L 158.308784 152.116816 
L 159.733957 151.35205 
L 160.530303 151.466921 
L 160.781748 151.330681 
L 161.829598 151.822992 
L 162.206904 152.324168 
L 162.542128 152.709446 
L 162.667892 152.709782 
L 163.003233 152.228671 
L 163.296668 152.081811 
L 163.631917 152.056877 
L 163.92544 151.893803 
L 164.637916 150.098098 
L 165.015138 149.180506 
L 165.308506 148.595208 
L 165.601895 147.59375 
L 165.72763 147.991373 
L 166.314441 150.287208 
L 166.649762 152.17523 
L 166.98509 153.382506 
L 167.110838 153.387763 
L 167.320398 153.374608 
L 167.65581 154.358023 
L 167.739547 154.134791 
L 167.991047 151.698936 
L 168.326329 149.65072 
L 168.913187 147.683251 
L 169.038901 147.802606 
L 169.751493 148.818176 
L 169.919252 148.772743 
L 170.128741 148.133708 
L 170.422075 147.394927 
L 170.631644 147.759546 
L 171.428061 149.112515 
L 171.889112 148.872027 
L 172.308257 148.189921 
L 172.517922 148.241614 
L 173.104624 148.711415 
L 174.068637 148.382865 
L 174.487845 148.098464 
L 174.82314 148.185629 
L 174.990769 147.924722 
L 175.40996 146.894579 
L 175.745242 146.606325 
L 176.080583 146.451707 
L 176.541614 145.907628 
L 177.044575 145.208319 
L 177.212246 145.232505 
L 177.715211 145.312663 
L 178.008646 144.932553 
L 178.553468 143.380517 
L 179.014615 142.459006 
L 179.727112 140.876014 
L 180.397731 139.218628 
L 181.026449 137.574847 
L 181.571354 136.569555 
L 182.03243 135.167207 
L 184.08622 126.810459 
L 184.798854 124.083041 
L 185.595221 121.730506 
L 186.642992 119.478647 
L 189.115977 115.073447 
L 189.283689 114.864523 
L 189.702746 114.739056 
L 190.876369 113.97993 
L 192.133859 112.968314 
L 192.469175 112.868559 
L 192.594851 112.820066 
L 192.888362 112.785872 
L 193.47506 113.395597 
L 194.103761 114.473575 
L 194.732537 115.518367 
L 194.900132 115.905847 
L 195.528967 118.442302 
L 196.450973 120.161749 
L 196.828212 120.437551 
L 197.289267 120.441714 
L 199.468809 120.282224 
L 199.720296 120.573071 
L 200.810253 121.781917 
L 201.145405 121.725379 
L 201.438799 121.690943 
L 201.941777 122.045605 
L 202.738169 123.292572 
L 203.11545 123.750241 
L 203.283033 123.89882 
L 203.576468 124.390636 
L 204.205156 125.423741 
L 204.41472 125.779045 
L 205.169177 127.255829 
L 205.839847 127.99224 
L 209.989386 130.378413 
L 210.282767 130.590645 
L 210.618062 130.807591 
L 210.995393 131.00291 
L 211.330692 131.185907 
L 211.70786 131.314441 
L 212.378501 131.415291 
L 213.552144 132.095984 
L 215.22875 133.619925 
L 215.522088 133.804396 
L 215.983232 133.815086 
L 216.234639 133.858836 
L 216.779557 134.046688 
L 217.617964 134.129724 
L 217.953125 134.068882 
L 218.246527 134.105072 
L 218.87524 134.526613 
L 219.294402 134.856421 
L 219.503937 134.782702 
L 219.923161 134.632792 
L 221.222511 135.028616 
L 221.683507 135.121892 
L 222.270352 135.16181 
L 224.198386 136.210171 
L 224.491796 136.269462 
L 224.701368 136.314946 
L 225.246274 136.915167 
L 225.539654 137.032875 
L 226.252197 137.117495 
L 226.964747 137.538666 
L 227.342037 137.689972 
L 228.222161 137.780411 
L 228.892835 137.794489 
L 229.437707 137.85762 
L 229.689169 137.835904 
L 230.108398 137.975637 
L 230.988523 138.072454 
L 232.874675 139.076226 
L 233.293892 139.458608 
L 233.713091 139.727205 
L 234.174017 139.996529 
L 234.970396 140.236809 
L 235.305821 140.22629 
L 235.850609 140.32596 
L 236.730889 140.32549 
L 237.191865 140.364006 
L 237.485283 140.310573 
L 237.90442 140.540541 
L 238.323598 140.661214 
L 238.658956 140.787639 
L 239.664825 141.238637 
L 240.000279 141.403571 
L 240.377443 141.536789 
L 240.712771 141.682335 
L 241.592905 142.205579 
L 242.598832 142.532595 
L 242.93419 142.44899 
L 243.688613 142.083821 
L 243.898177 141.956961 
L 244.191604 141.796004 
L 245.574761 141.940661 
L 245.784338 141.994195 
L 246.580722 142.279748 
L 247.209448 142.327692 
L 247.58667 142.396237 
L 248.00584 142.792733 
L 248.467021 143.164711 
L 250.730291 144.578112 
L 251.568577 144.156623 
L 252.029616 144.250086 
L 252.993662 144.418588 
L 253.11943 144.487464 
L 253.580507 145.310316 
L 253.999643 147.024077 
L 254.376941 147.92526 
L 254.796124 148.898193 
L 255.634263 150.923522 
L 256.514526 153.532172 
L 258.274897 158.861102 
L 258.442568 158.967264 
L 258.777888 160.260494 
L 260.49637 166.45267 
L 260.999336 167.786503 
L 262.550273 171.257453 
L 263.220851 172.442469 
L 263.891474 173.31702 
L 264.981268 175.329162 
L 265.148935 175.426283 
L 265.651829 175.854266 
L 266.112876 176.167446 
L 266.532088 176.323715 
L 267.370315 176.282047 
L 267.873298 175.996827 
L 268.208597 175.872349 
L 268.711571 175.888057 
L 269.13077 175.146068 
L 269.507955 174.590963 
L 269.6756 174.377724 
L 270.262416 173.590127 
L 270.513932 173.384192 
L 270.974962 172.840814 
L 271.142616 172.725701 
L 272.986837 170.450158 
L 273.238475 170.210653 
L 273.699422 169.772456 
L 274.118571 169.740164 
L 274.70537 169.051886 
L 274.914951 168.876561 
L 275.376061 168.110217 
L 275.878947 167.728249 
L 276.088536 167.651377 
L 276.84303 167.751834 
L 277.387885 167.015746 
L 277.513621 167.029571 
L 277.93277 166.724181 
L 278.268086 166.720437 
L 278.60341 166.750661 
L 279.315961 167.411941 
L 279.609371 167.711747 
L 279.902747 167.40896 
L 281.03451 165.847596 
L 282.291958 162.065133 
L 282.878677 159.817222 
L 283.00445 159.778877 
L 283.172095 159.782441 
L 283.716967 158.996208 
L 284.010368 157.954235 
L 284.136099 158.433875 
L 284.555257 160.90941 
L 284.681009 160.845581 
L 284.974402 160.535413 
L 285.016325 160.574119 
L 285.351653 161.399269 
L 285.603132 162.15794 
L 285.854728 162.921414 
L 285.938444 162.770806 
L 286.189931 161.49415 
L 286.483332 160.332878 
L 286.609076 160.374882 
L 286.818648 160.817497 
L 287.11205 161.545202 
L 287.237798 161.436885 
L 287.405519 160.736032 
L 287.698849 159.472207 
L 287.824613 159.484844 
L 288.076092 160.208653 
L 288.369548 160.947551 
L 288.453335 160.873147 
L 288.620972 160.192908 
L 289.040117 158.330654 
L 289.207758 158.230294 
L 289.375471 158.421838 
L 289.836681 159.366935 
L 290.088055 159.020658 
L 290.38139 158.832896 
L 290.884355 158.323616 
L 291.429252 157.655063 
L 291.722628 157.697384 
L 292.602825 157.435738 
L 293.063955 157.816139 
L 293.273482 158.076326 
L 293.483033 158.328829 
L 293.650771 158.178565 
L 294.572819 157.102774 
L 295.033958 156.975421 
L 295.327301 156.657832 
L 295.872215 156.391651 
L 296.626638 156.341946 
L 297.171522 156.325511 
L 298.009829 156.190214 
L 299.47695 155.983283 
L 299.895982 155.872048 
L 300.357016 155.652555 
L 300.650459 155.669312 
L 301.530639 155.034723 
L 301.907911 154.647311 
L 302.033604 154.610129 
L 303.584445 153.524632 
L 304.422798 153.559578 
L 304.590402 153.716386 
L 305.763999 153.978815 
L 306.099324 153.706299 
L 306.434648 153.137495 
L 306.686118 152.723442 
L 306.728037 152.75496 
L 307.105314 152.910271 
L 307.482536 152.89286 
L 307.943549 152.576792 
L 308.153193 152.399794 
L 308.195045 152.440692 
L 308.781898 153.075929 
L 309.033419 153.531801 
L 309.117168 153.474022 
L 309.955487 152.904302 
L 310.206979 152.738726 
L 310.83565 152.103034 
L 312.177044 151.235046 
L 312.512222 151.14149 
L 313.099079 151.25258 
L 313.643955 151.09979 
L 315.236664 151.233348 
L 315.572014 151.248597 
L 315.949236 150.98909 
L 316.200731 150.923612 
L 316.57797 150.72302 
L 316.913261 150.896062 
L 317.41626 151.146795 
L 317.877299 150.758475 
L 318.338375 150.388956 
L 318.967093 150.367915 
L 319.386221 150.28533 
L 319.553896 150.302979 
L 320.140716 150.877247 
L 320.182685 150.796008 
L 320.9371 149.752023 
L 321.188532 149.522852 
L 321.775411 148.520352 
L 322.152733 148.403881 
L 322.48789 148.252772 
L 322.823311 147.876826 
L 323.284266 148.01578 
L 323.619556 147.273057 
L 323.661509 147.301424 
L 323.871131 147.948726 
L 324.080645 148.399606 
L 324.248295 148.290383 
L 324.415945 148.279473 
L 324.625509 148.536434 
L 325.421914 150.210629 
L 325.463857 150.157071 
L 326.176337 149.467069 
L 326.386002 149.619594 
L 326.595603 149.716068 
L 327.685305 148.764184 
L 328.146365 148.67327 
L 328.81698 148.609675 
L 328.942757 148.36628 
L 329.781047 144.882262 
L 330.409785 142.523776 
L 330.828935 142.172326 
L 330.996781 142.020443 
L 331.122294 142.346529 
L 331.751054 144.592902 
L 331.960647 144.299523 
L 332.421736 143.839522 
L 332.673097 143.825779 
L 333.134199 142.814184 
L 333.721027 139.044347 
L 334.223955 136.109674 
L 334.685031 134.996892 
L 335.397565 131.653484 
L 335.649098 131.78383 
L 336.026278 131.957872 
L 336.193932 131.611484 
L 336.948372 129.173034 
L 337.660923 126.934106 
L 339.211751 119.908653 
L 339.714751 119.954266 
L 340.008165 120.500943 
L 340.175831 120.706538 
L 341.0141 119.983006 
L 341.265583 118.986662 
L 342.229746 115.540009 
L 342.271527 115.559361 
L 342.564941 115.710394 
L 342.732674 115.38772 
L 342.984069 115.00826 
L 343.193713 115.395458 
L 343.44515 115.725412 
L 343.612824 115.552322 
L 344.073855 115.006425 
L 344.493 114.739123 
L 344.70256 114.881559 
L 344.912157 115.325764 
L 345.54085 116.921782 
L 345.876161 117.141224 
L 346.253409 116.895396 
L 346.630639 117.187743 
L 347.259365 117.759415 
L 347.468963 117.815059 
L 347.762339 118.107605 
L 347.971979 118.156 
L 348.349188 118.014865 
L 349.313188 120.367368 
L 349.522727 120.741235 
L 350.025722 121.177813 
L 350.361022 121.765294 
L 350.65444 122.059527 
L 351.073639 122.413527 
L 351.283153 122.470938 
L 351.534623 122.806728 
L 351.911867 123.137838 
L 352.414845 123.027268 
L 353.001648 122.526875 
L 353.33701 122.289441 
L 353.588455 122.163262 
L 353.83998 122.271574 
L 354.217206 122.458292 
L 354.510587 122.700847 
L 356.061461 124.975423 
L 356.857774 126.066991 
L 357.947538 127.366822 
L 359.666096 129.085825 
L 360.001361 129.166819 
L 360.588164 129.167316 
L 361.175009 128.883279 
L 362.013274 128.302162 
L 362.348636 127.9432 
L 362.851627 127.895429 
L 363.186926 127.915237 
L 363.186926 127.915237 
" clip-path="url(#p6e6cebf58f)" style="fill: none; stroke: #328c06; stroke-width: 0.4; stroke-linecap: round"/>
   </g>
   <g id="patch_6">
    <path d="M 55.9075 183.523104 
L 55.9075 109.379179 
" style="fill: none; stroke: #000000; stroke-linejoin: miter; stroke-linecap: square"/>
   </g>
   <g id="patch_7">
    <path d="M 55.9075 183.523104 
L 377.81928 183.523104 
" style="fill: none; stroke: #000000; stroke-linejoin: miter; stroke-linecap: square"/>
   </g>
  </g>
 </g>
 <defs>
  <clipPath id="pc35498610d">
   <rect x="55.9075" y="22.270877" width="321.91178" height="74.143925"/>
  </clipPath>
  <clipPath id="p6e6cebf58f">
   <rect x="55.9075" y="109.379179" width="321.91178" height="74.143925"/>
  </clipPath>
 </defs>
</svg>
