<?xml version="1.0" encoding="utf-8" standalone="no"?>
<!DOCTYPE svg PUBLIC "-//W3C//DTD SVG 1.1//EN"
  "http://www.w3.org/Graphics/SVG/1.1/DTD/svg11.dtd">
<svg xmlns:xlink="http://www.w3.org/1999/xlink" width="396pt" height="273.6pt" viewBox="0 0 396 273.6" xmlns="http://www.w3.org/2000/svg" version="1.1">
 <metadata>
  <rdf:RDF xmlns:dc="http://purl.org/dc/elements/1.1/" xmlns:cc="http://creativecommons.org/ns#" xmlns:rdf="http://www.w3.org/1999/02/22-rdf-syntax-ns#">
   <cc:Work>
    <dc:type rdf:resource="http://purl.org/dc/dcmitype/StillImage"/>
    <dc:date>2024-02-12T14:06:44.154950</dc:date>
    <dc:format>image/svg+xml</dc:format>
    <dc:creator>
     <cc:Agent>
      <dc:title>Matplotlib v3.8.2, https://matplotlib.org/</dc:title>
     </cc:Agent>
    </dc:creator>
   </cc:Work>
  </rdf:RDF>
 </metadata>
 <defs>
  <style type="text/css">*{stroke-linejoin: round; stroke-linecap: butt}</style>
 </defs>
 <g id="figure_1">
  <g id="patch_1">
   <path d="M 0 273.6 
L 396 273.6 
L 396 0 
L 0 0 
z
" style="fill: #ffffff"/>
  </g>
  <g id="axes_1">
   <g id="patch_2">
    <path d="M 47.441021 81.70469 
L 392.99976 81.70469 
L 392.99976 5.717947 
L 47.441021 5.717947 
z
" style="fill: #ffffff"/>
   </g>
   <g id="matplotlib.axis_1">
    <g id="xtick_1">
     <g id="line2d_1">
      <path d="M 61.822841 81.70469 
L 61.822841 5.717947 
" clip-path="url(#p829073a1ec)" style="fill: none; stroke: #b0b0b0; stroke-width: 0.8; stroke-linecap: round"/>
     </g>
     <g id="line2d_2"/>
    </g>
    <g id="xtick_2">
     <g id="line2d_3">
      <path d="M 102.275897 81.70469 
L 102.275897 5.717947 
" clip-path="url(#p829073a1ec)" style="fill: none; stroke: #b0b0b0; stroke-width: 0.8; stroke-linecap: round"/>
     </g>
     <g id="line2d_4"/>
    </g>
    <g id="xtick_3">
     <g id="line2d_5">
      <path d="M 142.728954 81.70469 
L 142.728954 5.717947 
" clip-path="url(#p829073a1ec)" style="fill: none; stroke: #b0b0b0; stroke-width: 0.8; stroke-linecap: round"/>
     </g>
     <g id="line2d_6"/>
    </g>
    <g id="xtick_4">
     <g id="line2d_7">
      <path d="M 183.18201 81.70469 
L 183.18201 5.717947 
" clip-path="url(#p829073a1ec)" style="fill: none; stroke: #b0b0b0; stroke-width: 0.8; stroke-linecap: round"/>
     </g>
     <g id="line2d_8"/>
    </g>
    <g id="xtick_5">
     <g id="line2d_9">
      <path d="M 223.635067 81.70469 
L 223.635067 5.717947 
" clip-path="url(#p829073a1ec)" style="fill: none; stroke: #b0b0b0; stroke-width: 0.8; stroke-linecap: round"/>
     </g>
     <g id="line2d_10"/>
    </g>
    <g id="xtick_6">
     <g id="line2d_11">
      <path d="M 264.088123 81.70469 
L 264.088123 5.717947 
" clip-path="url(#p829073a1ec)" style="fill: none; stroke: #b0b0b0; stroke-width: 0.8; stroke-linecap: round"/>
     </g>
     <g id="line2d_12"/>
    </g>
    <g id="xtick_7">
     <g id="line2d_13">
      <path d="M 304.54118 81.70469 
L 304.54118 5.717947 
" clip-path="url(#p829073a1ec)" style="fill: none; stroke: #b0b0b0; stroke-width: 0.8; stroke-linecap: round"/>
     </g>
     <g id="line2d_14"/>
    </g>
    <g id="xtick_8">
     <g id="line2d_15">
      <path d="M 344.994237 81.70469 
L 344.994237 5.717947 
" clip-path="url(#p829073a1ec)" style="fill: none; stroke: #b0b0b0; stroke-width: 0.8; stroke-linecap: round"/>
     </g>
     <g id="line2d_16"/>
    </g>
    <g id="xtick_9">
     <g id="line2d_17">
      <path d="M 385.447293 81.70469 
L 385.447293 5.717947 
" clip-path="url(#p829073a1ec)" style="fill: none; stroke: #b0b0b0; stroke-width: 0.8; stroke-linecap: round"/>
     </g>
     <g id="line2d_18"/>
    </g>
   </g>
   <g id="matplotlib.axis_2">
    <g id="ytick_1">
     <g id="line2d_19">
      <path d="M 47.441021 72.894293 
L 392.99976 72.894293 
" clip-path="url(#p829073a1ec)" style="fill: none; stroke: #b0b0b0; stroke-width: 0.8; stroke-linecap: round"/>
     </g>
     <g id="line2d_20"/>
     <g id="text_1">
      <!-- −0.50 -->
      <g style="fill: #262626" transform="translate(16.36024 76.31359) scale(0.09 -0.09)">
       <defs>
        <path id="DejaVuSerif-2212" d="M 678 2259 
L 4684 2259 
L 4684 1753 
L 678 1753 
L 678 2259 
z
" transform="scale(0.015625)"/>
        <path id="DejaVuSerif-30" d="M 2034 219 
Q 2513 219 2750 744 
Q 2988 1269 2988 2328 
Q 2988 3391 2750 3916 
Q 2513 4441 2034 4441 
Q 1556 4441 1318 3916 
Q 1081 3391 1081 2328 
Q 1081 1269 1318 744 
Q 1556 219 2034 219 
z
M 2034 -91 
Q 1275 -91 848 546 
Q 422 1184 422 2328 
Q 422 3475 848 4112 
Q 1275 4750 2034 4750 
Q 2797 4750 3222 4112 
Q 3647 3475 3647 2328 
Q 3647 1184 3222 546 
Q 2797 -91 2034 -91 
z
" transform="scale(0.015625)"/>
        <path id="DejaVuSerif-2e" d="M 603 325 
Q 603 500 722 622 
Q 841 744 1019 744 
Q 1191 744 1312 622 
Q 1434 500 1434 325 
Q 1434 153 1312 31 
Q 1191 -91 1019 -91 
Q 841 -91 722 29 
Q 603 150 603 325 
z
" transform="scale(0.015625)"/>
        <path id="DejaVuSerif-35" d="M 3219 4666 
L 3219 4153 
L 1081 4153 
L 1081 2816 
Q 1244 2928 1461 2984 
Q 1678 3041 1947 3041 
Q 2703 3041 3140 2622 
Q 3578 2203 3578 1478 
Q 3578 738 3136 323 
Q 2694 -91 1894 -91 
Q 1572 -91 1234 -12 
Q 897 66 544 225 
L 544 1131 
L 897 1131 
Q 925 688 1179 453 
Q 1434 219 1894 219 
Q 2388 219 2653 544 
Q 2919 869 2919 1478 
Q 2919 2084 2655 2407 
Q 2391 2731 1894 2731 
Q 1613 2731 1398 2631 
Q 1184 2531 1019 2322 
L 750 2322 
L 750 4666 
L 3219 4666 
z
" transform="scale(0.015625)"/>
       </defs>
       <use xlink:href="#DejaVuSerif-2212"/>
       <use xlink:href="#DejaVuSerif-30" x="83.789062"/>
       <use xlink:href="#DejaVuSerif-2e" x="147.412109"/>
       <use xlink:href="#DejaVuSerif-35" x="179.199219"/>
       <use xlink:href="#DejaVuSerif-30" x="242.822266"/>
      </g>
     </g>
    </g>
    <g id="ytick_2">
     <g id="line2d_21">
      <path d="M 47.441021 50.733286 
L 392.99976 50.733286 
" clip-path="url(#p829073a1ec)" style="fill: none; stroke: #b0b0b0; stroke-width: 0.8; stroke-linecap: round"/>
     </g>
     <g id="line2d_22"/>
     <g id="text_2">
      <!-- −0.25 -->
      <g style="fill: #262626" transform="translate(16.36024 54.152582) scale(0.09 -0.09)">
       <defs>
        <path id="DejaVuSerif-32" d="M 819 3553 
L 469 3553 
L 469 4384 
Q 803 4563 1142 4656 
Q 1481 4750 1806 4750 
Q 2534 4750 2956 4397 
Q 3378 4044 3378 3438 
Q 3378 2753 2422 1800 
Q 2347 1728 2309 1691 
L 1131 513 
L 3078 513 
L 3078 1088 
L 3444 1088 
L 3444 0 
L 434 0 
L 434 341 
L 1850 1753 
Q 2319 2222 2519 2614 
Q 2719 3006 2719 3438 
Q 2719 3909 2473 4175 
Q 2228 4441 1797 4441 
Q 1350 4441 1106 4219 
Q 863 3997 819 3553 
z
" transform="scale(0.015625)"/>
       </defs>
       <use xlink:href="#DejaVuSerif-2212"/>
       <use xlink:href="#DejaVuSerif-30" x="83.789062"/>
       <use xlink:href="#DejaVuSerif-2e" x="147.412109"/>
       <use xlink:href="#DejaVuSerif-32" x="179.199219"/>
       <use xlink:href="#DejaVuSerif-35" x="242.822266"/>
      </g>
     </g>
    </g>
    <g id="ytick_3">
     <g id="line2d_23">
      <path d="M 47.441021 28.572278 
L 392.99976 28.572278 
" clip-path="url(#p829073a1ec)" style="fill: none; stroke: #b0b0b0; stroke-width: 0.8; stroke-linecap: round"/>
     </g>
     <g id="line2d_24"/>
     <g id="text_3">
      <!-- 0.00 -->
      <g style="fill: #262626" transform="translate(23.901959 31.991575) scale(0.09 -0.09)">
       <use xlink:href="#DejaVuSerif-30"/>
       <use xlink:href="#DejaVuSerif-2e" x="63.623047"/>
       <use xlink:href="#DejaVuSerif-30" x="95.410156"/>
       <use xlink:href="#DejaVuSerif-30" x="159.033203"/>
      </g>
     </g>
    </g>
    <g id="ytick_4">
     <g id="line2d_25">
      <path d="M 47.441021 6.411271 
L 392.99976 6.411271 
" clip-path="url(#p829073a1ec)" style="fill: none; stroke: #b0b0b0; stroke-width: 0.8; stroke-linecap: round"/>
     </g>
     <g id="line2d_26"/>
     <g id="text_4">
      <!-- 0.25 -->
      <g style="fill: #262626" transform="translate(23.901959 9.830568) scale(0.09 -0.09)">
       <use xlink:href="#DejaVuSerif-30"/>
       <use xlink:href="#DejaVuSerif-2e" x="63.623047"/>
       <use xlink:href="#DejaVuSerif-32" x="95.410156"/>
       <use xlink:href="#DejaVuSerif-35" x="159.033203"/>
      </g>
     </g>
    </g>
    <g id="text_5">
     <!-- $1000 \cdot {X'}_{(\bullet)}$ -->
     <g style="fill: #262626" transform="translate(10.02024 67.336318) rotate(-90) scale(0.09 -0.09)">
      <defs>
       <path id="DejaVuSans-31" d="M 794 531 
L 1825 531 
L 1825 4091 
L 703 3866 
L 703 4441 
L 1819 4666 
L 2450 4666 
L 2450 531 
L 3481 531 
L 3481 0 
L 794 0 
L 794 531 
z
" transform="scale(0.015625)"/>
       <path id="DejaVuSans-30" d="M 2034 4250 
Q 1547 4250 1301 3770 
Q 1056 3291 1056 2328 
Q 1056 1369 1301 889 
Q 1547 409 2034 409 
Q 2525 409 2770 889 
Q 3016 1369 3016 2328 
Q 3016 3291 2770 3770 
Q 2525 4250 2034 4250 
z
M 2034 4750 
Q 2819 4750 3233 4129 
Q 3647 3509 3647 2328 
Q 3647 1150 3233 529 
Q 2819 -91 2034 -91 
Q 1250 -91 836 529 
Q 422 1150 422 2328 
Q 422 3509 836 4129 
Q 1250 4750 2034 4750 
z
" transform="scale(0.015625)"/>
       <path id="DejaVuSans-22c5" d="M 684 2619 
L 1344 2619 
L 1344 1825 
L 684 1825 
L 684 2619 
z
" transform="scale(0.015625)"/>
       <path id="DejaVuSans-Oblique-58" d="M 878 4666 
L 1516 4666 
L 2316 2981 
L 3763 4666 
L 4500 4666 
L 2578 2438 
L 3738 0 
L 3103 0 
L 2163 1966 
L 459 0 
L -275 0 
L 1906 2509 
L 878 4666 
z
" transform="scale(0.015625)"/>
       <path id="Cmsy10-30" d="M 225 347 
Q 184 359 184 409 
L 966 3316 
Q 1003 3434 1093 3506 
Q 1184 3578 1300 3578 
Q 1450 3578 1564 3479 
Q 1678 3381 1678 3231 
Q 1678 3166 1644 3084 
L 488 319 
Q 466 275 428 275 
Q 394 275 320 306 
Q 247 338 225 347 
z
" transform="scale(0.015625)"/>
       <path id="DejaVuSans-28" d="M 1984 4856 
Q 1566 4138 1362 3434 
Q 1159 2731 1159 2009 
Q 1159 1288 1364 580 
Q 1569 -128 1984 -844 
L 1484 -844 
Q 1016 -109 783 600 
Q 550 1309 550 2009 
Q 550 2706 781 3412 
Q 1013 4119 1484 4856 
L 1984 4856 
z
" transform="scale(0.015625)"/>
       <path id="DejaVuSans-2219" d="M 1075 2006 
Q 1075 2394 1345 2661 
Q 1616 2928 2009 2928 
Q 2397 2928 2664 2661 
Q 2931 2394 2931 2006 
Q 2931 1616 2662 1347 
Q 2394 1078 2003 1078 
Q 1613 1078 1344 1347 
Q 1075 1616 1075 2006 
z
" transform="scale(0.015625)"/>
       <path id="DejaVuSans-29" d="M 513 4856 
L 1013 4856 
Q 1481 4119 1714 3412 
Q 1947 2706 1947 2009 
Q 1947 1309 1714 600 
Q 1481 -109 1013 -844 
L 513 -844 
Q 928 -128 1133 580 
Q 1338 1288 1338 2009 
Q 1338 2731 1133 3434 
Q 928 4138 513 4856 
z
" transform="scale(0.015625)"/>
      </defs>
      <use xlink:href="#DejaVuSans-31" transform="translate(0 0.584375)"/>
      <use xlink:href="#DejaVuSans-30" transform="translate(63.623047 0.584375)"/>
      <use xlink:href="#DejaVuSans-30" transform="translate(127.246094 0.584375)"/>
      <use xlink:href="#DejaVuSans-30" transform="translate(190.869141 0.584375)"/>
      <use xlink:href="#DejaVuSans-22c5" transform="translate(273.974609 0.584375)"/>
      <use xlink:href="#DejaVuSans-Oblique-58" transform="translate(325.244141 0.584375)"/>
      <use xlink:href="#Cmsy10-30" transform="translate(400.766771 38.865625) scale(0.7)"/>
      <use xlink:href="#DejaVuSans-28" transform="translate(423.701341 -15.821875) scale(0.7)"/>
      <use xlink:href="#DejaVuSans-2219" transform="translate(451.010911 -15.821875) scale(0.7)"/>
      <use xlink:href="#DejaVuSans-29" transform="translate(494.829271 -15.821875) scale(0.7)"/>
     </g>
    </g>
   </g>
   <g id="line2d_27">
    <defs>
     <path id="meb183366e5" d="M -3 3 
L 3 -3 
M -3 -3 
L 3 3 
" style="stroke: #ff0000"/>
    </defs>
    <g clip-path="url(#p829073a1ec)">
     <use xlink:href="#meb183366e5" x="63.148237" y="64.874971" style="fill: #ff0000; stroke: #ff0000"/>
     <use xlink:href="#meb183366e5" x="140.303256" y="50.491337" style="fill: #ff0000; stroke: #ff0000"/>
     <use xlink:href="#meb183366e5" x="377.292545" y="5.717947" style="fill: #ff0000; stroke: #ff0000"/>
    </g>
   </g>
   <g id="line2d_28">
    <defs>
     <path id="m683caab8d5" d="M -3 3 
L 3 -3 
M -3 -3 
L 3 3 
" style="stroke: #008000"/>
    </defs>
    <g clip-path="url(#p829073a1ec)">
     <use xlink:href="#m683caab8d5" x="63.148237" y="81.127167" style="fill: #008000; stroke: #008000"/>
     <use xlink:href="#m683caab8d5" x="140.303256" y="79.373925" style="fill: #008000; stroke: #008000"/>
     <use xlink:href="#m683caab8d5" x="377.292545" y="73.783672" style="fill: #008000; stroke: #008000"/>
    </g>
   </g>
   <g id="line2d_29">
    <defs>
     <path id="mcea564c8df" d="M -3 3 
L 3 -3 
M -3 -3 
L 3 3 
" style="stroke: #0000ff"/>
    </defs>
    <g clip-path="url(#p829073a1ec)">
     <use xlink:href="#mcea564c8df" x="63.148237" y="42.348439" style="fill: #0000ff; stroke: #0000ff"/>
     <use xlink:href="#mcea564c8df" x="140.303256" y="43.919789" style="fill: #0000ff; stroke: #0000ff"/>
     <use xlink:href="#mcea564c8df" x="377.292545" y="48.358709" style="fill: #0000ff; stroke: #0000ff"/>
    </g>
   </g>
   <g id="line2d_30">
    <path d="M 63.148237 59.58573 
L 140.303256 46.101428 
L 377.292545 4.502596 
" clip-path="url(#p829073a1ec)" style="fill: none; stroke: #ff0000; stroke-width: 1.5; stroke-linecap: round"/>
   </g>
   <g id="line2d_31">
    <path d="M 63.148237 77.749797 
L 140.303256 77.749797 
L 377.292545 77.749797 
" clip-path="url(#p829073a1ec)" style="fill: none; stroke: #008000; stroke-width: 1.5; stroke-linecap: round"/>
   </g>
   <g id="line2d_32">
    <path d="M 63.148237 41.973734 
L 140.303256 43.418167 
L 377.292545 47.674427 
" clip-path="url(#p829073a1ec)" style="fill: none; stroke: #0000ff; stroke-width: 1.5; stroke-linecap: round"/>
   </g>
   <g id="patch_3">
    <path d="M 47.441021 81.70469 
L 47.441021 5.717947 
" style="fill: none; stroke: #000000; stroke-linejoin: miter; stroke-linecap: square"/>
   </g>
   <g id="patch_4">
    <path d="M 47.441021 81.70469 
L 392.99976 81.70469 
" style="fill: none; stroke: #000000; stroke-linejoin: miter; stroke-linecap: square"/>
   </g>
   <g id="legend_1">
    <g id="line2d_33">
     <path d="M 55.541021 17.506541 
L 64.541021 17.506541 
L 73.541021 17.506541 
" style="fill: none; stroke: #ff0000; stroke-width: 1.5; stroke-linecap: round"/>
    </g>
    <g id="text_6">
     <!-- D -->
     <g style="fill: #262626" transform="translate(80.741021 20.656541) scale(0.09 -0.09)">
      <defs>
       <path id="DejaVuSerif-44" d="M 1581 331 
L 2163 331 
Q 3072 331 3558 850 
Q 4044 1369 4044 2338 
Q 4044 3306 3559 3818 
Q 3075 4331 2163 4331 
L 1581 4331 
L 1581 331 
z
M 353 0 
L 353 331 
L 947 331 
L 947 4331 
L 353 4331 
L 353 4666 
L 2209 4666 
Q 3416 4666 4089 4050 
Q 4763 3434 4763 2338 
Q 4763 1238 4088 619 
Q 3413 0 2209 0 
L 353 0 
z
" transform="scale(0.015625)"/>
      </defs>
      <use xlink:href="#DejaVuSerif-44"/>
     </g>
    </g>
    <g id="line2d_34">
     <path d="M 55.541021 30.716853 
L 64.541021 30.716853 
L 73.541021 30.716853 
" style="fill: none; stroke: #008000; stroke-width: 1.5; stroke-linecap: round"/>
    </g>
    <g id="text_7">
     <!-- H -->
     <g style="fill: #262626" transform="translate(80.741021 33.866853) scale(0.09 -0.09)">
      <defs>
       <path id="DejaVuSerif-48" d="M 353 0 
L 353 331 
L 947 331 
L 947 4331 
L 353 4331 
L 353 4666 
L 2175 4666 
L 2175 4331 
L 1581 4331 
L 1581 2719 
L 4000 2719 
L 4000 4331 
L 3406 4331 
L 3406 4666 
L 5228 4666 
L 5228 4331 
L 4634 4331 
L 4634 331 
L 5228 331 
L 5228 0 
L 3406 0 
L 3406 331 
L 4000 331 
L 4000 2338 
L 1581 2338 
L 1581 331 
L 2175 331 
L 2175 0 
L 353 0 
z
" transform="scale(0.015625)"/>
      </defs>
      <use xlink:href="#DejaVuSerif-48"/>
     </g>
    </g>
    <g id="line2d_35">
     <path d="M 55.541021 43.927166 
L 64.541021 43.927166 
L 73.541021 43.927166 
" style="fill: none; stroke: #0000ff; stroke-width: 1.5; stroke-linecap: round"/>
    </g>
    <g id="text_8">
     <!-- R -->
     <g style="fill: #262626" transform="translate(80.741021 47.077166) scale(0.09 -0.09)">
      <defs>
       <path id="DejaVuSerif-52" d="M 3066 2316 
Q 3284 2256 3442 2114 
Q 3600 1972 3725 1716 
L 4403 331 
L 4972 331 
L 4972 0 
L 3872 0 
L 3144 1484 
Q 2934 1916 2759 2042 
Q 2584 2169 2278 2169 
L 1581 2169 
L 1581 331 
L 2241 331 
L 2241 0 
L 353 0 
L 353 331 
L 947 331 
L 947 4331 
L 353 4331 
L 353 4666 
L 2719 4666 
Q 3400 4666 3770 4341 
Q 4141 4016 4141 3419 
Q 4141 2938 3870 2661 
Q 3600 2384 3066 2316 
z
M 1581 2503 
L 2503 2503 
Q 2975 2503 3200 2726 
Q 3425 2950 3425 3419 
Q 3425 3888 3200 4109 
Q 2975 4331 2503 4331 
L 1581 4331 
L 1581 2503 
z
" transform="scale(0.015625)"/>
      </defs>
      <use xlink:href="#DejaVuSerif-52"/>
     </g>
    </g>
   </g>
  </g>
  <g id="axes_2">
   <g id="patch_5">
    <path d="M 47.441021 163.691912 
L 392.99976 163.691912 
L 392.99976 87.70517 
L 47.441021 87.70517 
z
" style="fill: #ffffff"/>
   </g>
   <g id="matplotlib.axis_3">
    <g id="xtick_10">
     <g id="line2d_36">
      <path d="M 61.822841 163.691912 
L 61.822841 87.70517 
" clip-path="url(#p3e8db93b63)" style="fill: none; stroke: #b0b0b0; stroke-width: 0.8; stroke-linecap: round"/>
     </g>
     <g id="line2d_37"/>
    </g>
    <g id="xtick_11">
     <g id="line2d_38">
      <path d="M 102.275897 163.691912 
L 102.275897 87.70517 
" clip-path="url(#p3e8db93b63)" style="fill: none; stroke: #b0b0b0; stroke-width: 0.8; stroke-linecap: round"/>
     </g>
     <g id="line2d_39"/>
    </g>
    <g id="xtick_12">
     <g id="line2d_40">
      <path d="M 142.728954 163.691912 
L 142.728954 87.70517 
" clip-path="url(#p3e8db93b63)" style="fill: none; stroke: #b0b0b0; stroke-width: 0.8; stroke-linecap: round"/>
     </g>
     <g id="line2d_41"/>
    </g>
    <g id="xtick_13">
     <g id="line2d_42">
      <path d="M 183.18201 163.691912 
L 183.18201 87.70517 
" clip-path="url(#p3e8db93b63)" style="fill: none; stroke: #b0b0b0; stroke-width: 0.8; stroke-linecap: round"/>
     </g>
     <g id="line2d_43"/>
    </g>
    <g id="xtick_14">
     <g id="line2d_44">
      <path d="M 223.635067 163.691912 
L 223.635067 87.70517 
" clip-path="url(#p3e8db93b63)" style="fill: none; stroke: #b0b0b0; stroke-width: 0.8; stroke-linecap: round"/>
     </g>
     <g id="line2d_45"/>
    </g>
    <g id="xtick_15">
     <g id="line2d_46">
      <path d="M 264.088123 163.691912 
L 264.088123 87.70517 
" clip-path="url(#p3e8db93b63)" style="fill: none; stroke: #b0b0b0; stroke-width: 0.8; stroke-linecap: round"/>
     </g>
     <g id="line2d_47"/>
    </g>
    <g id="xtick_16">
     <g id="line2d_48">
      <path d="M 304.54118 163.691912 
L 304.54118 87.70517 
" clip-path="url(#p3e8db93b63)" style="fill: none; stroke: #b0b0b0; stroke-width: 0.8; stroke-linecap: round"/>
     </g>
     <g id="line2d_49"/>
    </g>
    <g id="xtick_17">
     <g id="line2d_50">
      <path d="M 344.994237 163.691912 
L 344.994237 87.70517 
" clip-path="url(#p3e8db93b63)" style="fill: none; stroke: #b0b0b0; stroke-width: 0.8; stroke-linecap: round"/>
     </g>
     <g id="line2d_51"/>
    </g>
    <g id="xtick_18">
     <g id="line2d_52">
      <path d="M 385.447293 163.691912 
L 385.447293 87.70517 
" clip-path="url(#p3e8db93b63)" style="fill: none; stroke: #b0b0b0; stroke-width: 0.8; stroke-linecap: round"/>
     </g>
     <g id="line2d_53"/>
    </g>
   </g>
   <g id="matplotlib.axis_4">
    <g id="ytick_5">
     <g id="line2d_54">
      <path d="M 47.441021 156.730272 
L 392.99976 156.730272 
" clip-path="url(#p3e8db93b63)" style="fill: none; stroke: #b0b0b0; stroke-width: 0.8; stroke-linecap: round"/>
     </g>
     <g id="line2d_55"/>
     <g id="text_9">
      <!-- −1 -->
      <g style="fill: #262626" transform="translate(30.673052 160.149569) scale(0.09 -0.09)">
       <defs>
        <path id="DejaVuSerif-31" d="M 909 0 
L 909 331 
L 1722 331 
L 1722 4213 
L 781 3603 
L 781 4013 
L 1919 4750 
L 2350 4750 
L 2350 331 
L 3163 331 
L 3163 0 
L 909 0 
z
" transform="scale(0.015625)"/>
       </defs>
       <use xlink:href="#DejaVuSerif-2212"/>
       <use xlink:href="#DejaVuSerif-31" x="83.789062"/>
      </g>
     </g>
    </g>
    <g id="ytick_6">
     <g id="line2d_56">
      <path d="M 47.441021 135.26598 
L 392.99976 135.26598 
" clip-path="url(#p3e8db93b63)" style="fill: none; stroke: #b0b0b0; stroke-width: 0.8; stroke-linecap: round"/>
     </g>
     <g id="line2d_57"/>
     <g id="text_10">
      <!-- 0 -->
      <g style="fill: #262626" transform="translate(38.214771 138.685277) scale(0.09 -0.09)">
       <use xlink:href="#DejaVuSerif-30"/>
      </g>
     </g>
    </g>
    <g id="ytick_7">
     <g id="line2d_58">
      <path d="M 47.441021 113.801689 
L 392.99976 113.801689 
" clip-path="url(#p3e8db93b63)" style="fill: none; stroke: #b0b0b0; stroke-width: 0.8; stroke-linecap: round"/>
     </g>
     <g id="line2d_59"/>
     <g id="text_11">
      <!-- 1 -->
      <g style="fill: #262626" transform="translate(38.214771 117.220985) scale(0.09 -0.09)">
       <use xlink:href="#DejaVuSerif-31"/>
      </g>
     </g>
    </g>
    <g id="ytick_8">
     <g id="line2d_60">
      <path d="M 47.441021 92.337397 
L 392.99976 92.337397 
" clip-path="url(#p3e8db93b63)" style="fill: none; stroke: #b0b0b0; stroke-width: 0.8; stroke-linecap: round"/>
     </g>
     <g id="line2d_61"/>
     <g id="text_12">
      <!-- 2 -->
      <g style="fill: #262626" transform="translate(38.214771 95.756694) scale(0.09 -0.09)">
       <use xlink:href="#DejaVuSerif-32"/>
      </g>
     </g>
    </g>
    <g id="text_13">
     <!-- $1000 \cdot {Y'}_{(\bullet)}$ -->
     <g style="fill: #262626" transform="translate(24.333052 149.008541) rotate(-90) scale(0.09 -0.09)">
      <defs>
       <path id="DejaVuSans-Oblique-59" d="M 403 4666 
L 1081 4666 
L 1953 2747 
L 3616 4666 
L 4325 4666 
L 2209 2222 
L 1778 0 
L 1147 0 
L 1575 2222 
L 403 4666 
z
" transform="scale(0.015625)"/>
      </defs>
      <use xlink:href="#DejaVuSans-31" transform="translate(0 0.584375)"/>
      <use xlink:href="#DejaVuSans-30" transform="translate(63.623047 0.584375)"/>
      <use xlink:href="#DejaVuSans-30" transform="translate(127.246094 0.584375)"/>
      <use xlink:href="#DejaVuSans-30" transform="translate(190.869141 0.584375)"/>
      <use xlink:href="#DejaVuSans-22c5" transform="translate(273.974609 0.584375)"/>
      <use xlink:href="#DejaVuSans-Oblique-59" transform="translate(325.244141 0.584375)"/>
      <use xlink:href="#Cmsy10-30" transform="translate(393.344896 38.865625) scale(0.7)"/>
      <use xlink:href="#DejaVuSans-28" transform="translate(416.279466 -15.821875) scale(0.7)"/>
      <use xlink:href="#DejaVuSans-2219" transform="translate(443.589036 -15.821875) scale(0.7)"/>
      <use xlink:href="#DejaVuSans-29" transform="translate(487.407396 -15.821875) scale(0.7)"/>
     </g>
    </g>
   </g>
   <g id="line2d_62">
    <g clip-path="url(#p3e8db93b63)">
     <use xlink:href="#meb183366e5" x="63.148237" y="151.549156" style="fill: #ff0000; stroke: #ff0000"/>
     <use xlink:href="#meb183366e5" x="140.303256" y="152.421995" style="fill: #ff0000; stroke: #ff0000"/>
     <use xlink:href="#meb183366e5" x="377.292545" y="155.131067" style="fill: #ff0000; stroke: #ff0000"/>
    </g>
   </g>
   <g id="line2d_63">
    <g clip-path="url(#p3e8db93b63)">
     <use xlink:href="#m683caab8d5" x="63.148237" y="137.360881" style="fill: #008000; stroke: #008000"/>
     <use xlink:href="#m683caab8d5" x="140.303256" y="137.356069" style="fill: #008000; stroke: #008000"/>
     <use xlink:href="#m683caab8d5" x="377.292545" y="137.440062" style="fill: #008000; stroke: #008000"/>
    </g>
   </g>
   <g id="line2d_64">
    <g clip-path="url(#p3e8db93b63)">
     <use xlink:href="#mcea564c8df" x="63.148237" y="149.454255" style="fill: #0000ff; stroke: #0000ff"/>
     <use xlink:href="#mcea564c8df" x="140.303256" y="150.331905" style="fill: #0000ff; stroke: #0000ff"/>
     <use xlink:href="#mcea564c8df" x="377.292545" y="152.956985" style="fill: #0000ff; stroke: #0000ff"/>
    </g>
   </g>
   <g id="line2d_65">
    <path d="M 63.148237 151.295287 
L 140.303256 152.355605 
L 377.292545 155.151757 
" clip-path="url(#p3e8db93b63)" style="fill: none; stroke: #ff0000; stroke-width: 1.5; stroke-linecap: round"/>
   </g>
   <g id="line2d_66">
    <path d="M 63.148237 137.088001 
L 140.303256 137.208526 
L 377.292545 137.526359 
" clip-path="url(#p3e8db93b63)" style="fill: none; stroke: #008000; stroke-width: 1.5; stroke-linecap: round"/>
   </g>
   <g id="line2d_67">
    <path d="M 63.148237 149.473266 
L 140.303256 150.41306 
L 377.292545 152.891379 
" clip-path="url(#p3e8db93b63)" style="fill: none; stroke: #0000ff; stroke-width: 1.5; stroke-linecap: round"/>
   </g>
   <g id="patch_6">
    <path d="M 47.441021 163.691912 
L 47.441021 87.70517 
" style="fill: none; stroke: #000000; stroke-linejoin: miter; stroke-linecap: square"/>
   </g>
   <g id="patch_7">
    <path d="M 47.441021 163.691912 
L 392.99976 163.691912 
" style="fill: none; stroke: #000000; stroke-linejoin: miter; stroke-linecap: square"/>
   </g>
  </g>
  <g id="axes_3">
   <g id="patch_8">
    <path d="M 47.441021 245.679135 
L 392.99976 245.679135 
L 392.99976 169.692392 
L 47.441021 169.692392 
z
" style="fill: #ffffff"/>
   </g>
   <g id="matplotlib.axis_5">
    <g id="xtick_19">
     <g id="line2d_68">
      <path d="M 61.822841 245.679135 
L 61.822841 169.692392 
" clip-path="url(#pa1f05b3004)" style="fill: none; stroke: #b0b0b0; stroke-width: 0.8; stroke-linecap: round"/>
     </g>
     <g id="line2d_69"/>
     <g id="text_14">
      <!-- 0.4 -->
      <g style="fill: #262626" transform="translate(54.666434 256.017729) scale(0.09 -0.09)">
       <defs>
        <path id="DejaVuSerif-34" d="M 2234 1581 
L 2234 4063 
L 641 1581 
L 2234 1581 
z
M 3609 0 
L 1484 0 
L 1484 331 
L 2234 331 
L 2234 1247 
L 197 1247 
L 197 1588 
L 2241 4750 
L 2859 4750 
L 2859 1581 
L 3750 1581 
L 3750 1247 
L 2859 1247 
L 2859 331 
L 3609 331 
L 3609 0 
z
" transform="scale(0.015625)"/>
       </defs>
       <use xlink:href="#DejaVuSerif-30"/>
       <use xlink:href="#DejaVuSerif-2e" x="63.623047"/>
       <use xlink:href="#DejaVuSerif-34" x="95.410156"/>
      </g>
     </g>
    </g>
    <g id="xtick_20">
     <g id="line2d_70">
      <path d="M 102.275897 245.679135 
L 102.275897 169.692392 
" clip-path="url(#pa1f05b3004)" style="fill: none; stroke: #b0b0b0; stroke-width: 0.8; stroke-linecap: round"/>
     </g>
     <g id="line2d_71"/>
     <g id="text_15">
      <!-- 0.5 -->
      <g style="fill: #262626" transform="translate(95.119491 256.017729) scale(0.09 -0.09)">
       <use xlink:href="#DejaVuSerif-30"/>
       <use xlink:href="#DejaVuSerif-2e" x="63.623047"/>
       <use xlink:href="#DejaVuSerif-35" x="95.410156"/>
      </g>
     </g>
    </g>
    <g id="xtick_21">
     <g id="line2d_72">
      <path d="M 142.728954 245.679135 
L 142.728954 169.692392 
" clip-path="url(#pa1f05b3004)" style="fill: none; stroke: #b0b0b0; stroke-width: 0.8; stroke-linecap: round"/>
     </g>
     <g id="line2d_73"/>
     <g id="text_16">
      <!-- 0.6 -->
      <g style="fill: #262626" transform="translate(135.572548 256.017729) scale(0.09 -0.09)">
       <defs>
        <path id="DejaVuSerif-36" d="M 2094 219 
Q 2534 219 2771 542 
Q 3009 866 3009 1472 
Q 3009 2078 2771 2401 
Q 2534 2725 2094 2725 
Q 1647 2725 1412 2412 
Q 1178 2100 1178 1509 
Q 1178 888 1415 553 
Q 1653 219 2094 219 
z
M 1075 2569 
Q 1288 2803 1556 2918 
Q 1825 3034 2163 3034 
Q 2859 3034 3264 2615 
Q 3669 2197 3669 1472 
Q 3669 763 3233 336 
Q 2797 -91 2069 -91 
Q 1278 -91 853 498 
Q 428 1088 428 2181 
Q 428 3406 931 4078 
Q 1434 4750 2350 4750 
Q 2597 4750 2869 4703 
Q 3141 4656 3425 4563 
L 3425 3794 
L 3072 3794 
Q 3034 4109 2831 4275 
Q 2628 4441 2284 4441 
Q 1678 4441 1381 3981 
Q 1084 3522 1075 2569 
z
" transform="scale(0.015625)"/>
       </defs>
       <use xlink:href="#DejaVuSerif-30"/>
       <use xlink:href="#DejaVuSerif-2e" x="63.623047"/>
       <use xlink:href="#DejaVuSerif-36" x="95.410156"/>
      </g>
     </g>
    </g>
    <g id="xtick_22">
     <g id="line2d_74">
      <path d="M 183.18201 245.679135 
L 183.18201 169.692392 
" clip-path="url(#pa1f05b3004)" style="fill: none; stroke: #b0b0b0; stroke-width: 0.8; stroke-linecap: round"/>
     </g>
     <g id="line2d_75"/>
     <g id="text_17">
      <!-- 0.7 -->
      <g style="fill: #262626" transform="translate(176.025604 256.017729) scale(0.09 -0.09)">
       <defs>
        <path id="DejaVuSerif-37" d="M 3609 4347 
L 1784 0 
L 1319 0 
L 3059 4153 
L 903 4153 
L 903 3578 
L 538 3578 
L 538 4666 
L 3609 4666 
L 3609 4347 
z
" transform="scale(0.015625)"/>
       </defs>
       <use xlink:href="#DejaVuSerif-30"/>
       <use xlink:href="#DejaVuSerif-2e" x="63.623047"/>
       <use xlink:href="#DejaVuSerif-37" x="95.410156"/>
      </g>
     </g>
    </g>
    <g id="xtick_23">
     <g id="line2d_76">
      <path d="M 223.635067 245.679135 
L 223.635067 169.692392 
" clip-path="url(#pa1f05b3004)" style="fill: none; stroke: #b0b0b0; stroke-width: 0.8; stroke-linecap: round"/>
     </g>
     <g id="line2d_77"/>
     <g id="text_18">
      <!-- 0.8 -->
      <g style="fill: #262626" transform="translate(216.478661 256.017729) scale(0.09 -0.09)">
       <defs>
        <path id="DejaVuSerif-38" d="M 2981 1275 
Q 2981 1775 2732 2051 
Q 2484 2328 2034 2328 
Q 1584 2328 1336 2051 
Q 1088 1775 1088 1275 
Q 1088 772 1336 495 
Q 1584 219 2034 219 
Q 2484 219 2732 495 
Q 2981 772 2981 1275 
z
M 2853 3541 
Q 2853 3966 2637 4203 
Q 2422 4441 2034 4441 
Q 1650 4441 1433 4203 
Q 1216 3966 1216 3541 
Q 1216 3113 1433 2875 
Q 1650 2638 2034 2638 
Q 2422 2638 2637 2875 
Q 2853 3113 2853 3541 
z
M 2516 2484 
Q 3047 2413 3344 2092 
Q 3641 1772 3641 1275 
Q 3641 619 3225 264 
Q 2809 -91 2034 -91 
Q 1263 -91 845 264 
Q 428 619 428 1275 
Q 428 1772 725 2092 
Q 1022 2413 1556 2484 
Q 1084 2569 832 2842 
Q 581 3116 581 3541 
Q 581 4103 968 4426 
Q 1356 4750 2034 4750 
Q 2713 4750 3100 4426 
Q 3488 4103 3488 3541 
Q 3488 3116 3236 2842 
Q 2984 2569 2516 2484 
z
" transform="scale(0.015625)"/>
       </defs>
       <use xlink:href="#DejaVuSerif-30"/>
       <use xlink:href="#DejaVuSerif-2e" x="63.623047"/>
       <use xlink:href="#DejaVuSerif-38" x="95.410156"/>
      </g>
     </g>
    </g>
    <g id="xtick_24">
     <g id="line2d_78">
      <path d="M 264.088123 245.679135 
L 264.088123 169.692392 
" clip-path="url(#pa1f05b3004)" style="fill: none; stroke: #b0b0b0; stroke-width: 0.8; stroke-linecap: round"/>
     </g>
     <g id="line2d_79"/>
     <g id="text_19">
      <!-- 0.9 -->
      <g style="fill: #262626" transform="translate(256.931717 256.017729) scale(0.09 -0.09)">
       <defs>
        <path id="DejaVuSerif-39" d="M 2994 2091 
Q 2784 1856 2512 1740 
Q 2241 1625 1900 1625 
Q 1206 1625 804 2044 
Q 403 2463 403 3188 
Q 403 3897 839 4323 
Q 1275 4750 2003 4750 
Q 2794 4750 3217 4161 
Q 3641 3572 3641 2478 
Q 3641 1253 3137 581 
Q 2634 -91 1722 -91 
Q 1475 -91 1203 -44 
Q 931 3 647 97 
L 647 872 
L 997 872 
Q 1038 556 1241 387 
Q 1444 219 1784 219 
Q 2391 219 2687 676 
Q 2984 1134 2994 2091 
z
M 1978 4441 
Q 1534 4441 1298 4117 
Q 1063 3794 1063 3188 
Q 1063 2581 1298 2256 
Q 1534 1931 1978 1931 
Q 2422 1931 2658 2245 
Q 2894 2559 2894 3150 
Q 2894 3772 2656 4106 
Q 2419 4441 1978 4441 
z
" transform="scale(0.015625)"/>
       </defs>
       <use xlink:href="#DejaVuSerif-30"/>
       <use xlink:href="#DejaVuSerif-2e" x="63.623047"/>
       <use xlink:href="#DejaVuSerif-39" x="95.410156"/>
      </g>
     </g>
    </g>
    <g id="xtick_25">
     <g id="line2d_80">
      <path d="M 304.54118 245.679135 
L 304.54118 169.692392 
" clip-path="url(#pa1f05b3004)" style="fill: none; stroke: #b0b0b0; stroke-width: 0.8; stroke-linecap: round"/>
     </g>
     <g id="line2d_81"/>
     <g id="text_20">
      <!-- 1.0 -->
      <g style="fill: #262626" transform="translate(297.384774 256.017729) scale(0.09 -0.09)">
       <use xlink:href="#DejaVuSerif-31"/>
       <use xlink:href="#DejaVuSerif-2e" x="63.623047"/>
       <use xlink:href="#DejaVuSerif-30" x="95.410156"/>
      </g>
     </g>
    </g>
    <g id="xtick_26">
     <g id="line2d_82">
      <path d="M 344.994237 245.679135 
L 344.994237 169.692392 
" clip-path="url(#pa1f05b3004)" style="fill: none; stroke: #b0b0b0; stroke-width: 0.8; stroke-linecap: round"/>
     </g>
     <g id="line2d_83"/>
     <g id="text_21">
      <!-- 1.1 -->
      <g style="fill: #262626" transform="translate(337.83783 256.017729) scale(0.09 -0.09)">
       <use xlink:href="#DejaVuSerif-31"/>
       <use xlink:href="#DejaVuSerif-2e" x="63.623047"/>
       <use xlink:href="#DejaVuSerif-31" x="95.410156"/>
      </g>
     </g>
    </g>
    <g id="xtick_27">
     <g id="line2d_84">
      <path d="M 385.447293 245.679135 
L 385.447293 169.692392 
" clip-path="url(#pa1f05b3004)" style="fill: none; stroke: #b0b0b0; stroke-width: 0.8; stroke-linecap: round"/>
     </g>
     <g id="line2d_85"/>
     <g id="text_22">
      <!-- 1.2 -->
      <g style="fill: #262626" transform="translate(378.290887 256.017729) scale(0.09 -0.09)">
       <use xlink:href="#DejaVuSerif-31"/>
       <use xlink:href="#DejaVuSerif-2e" x="63.623047"/>
       <use xlink:href="#DejaVuSerif-32" x="95.410156"/>
      </g>
     </g>
    </g>
    <g id="text_23">
     <!-- $1000 \cdot T'$ -->
     <g style="fill: #262626" transform="translate(201.500391 268.728041) scale(0.09 -0.09)">
      <defs>
       <path id="DejaVuSans-Oblique-54" d="M 378 4666 
L 4325 4666 
L 4225 4134 
L 2559 4134 
L 1759 0 
L 1125 0 
L 1925 4134 
L 275 4134 
L 378 4666 
z
" transform="scale(0.015625)"/>
      </defs>
      <use xlink:href="#DejaVuSans-31" transform="translate(0 0.584375)"/>
      <use xlink:href="#DejaVuSans-30" transform="translate(63.623047 0.584375)"/>
      <use xlink:href="#DejaVuSans-30" transform="translate(127.246094 0.584375)"/>
      <use xlink:href="#DejaVuSans-30" transform="translate(190.869141 0.584375)"/>
      <use xlink:href="#DejaVuSans-22c5" transform="translate(273.974609 0.584375)"/>
      <use xlink:href="#DejaVuSans-Oblique-54" transform="translate(325.244141 0.584375)"/>
      <use xlink:href="#Cmsy10-30" transform="translate(393.344896 38.865625) scale(0.7)"/>
     </g>
    </g>
   </g>
   <g id="matplotlib.axis_6">
    <g id="ytick_9">
     <g id="line2d_86">
      <path d="M 47.441021 223.69088 
L 392.99976 223.69088 
" clip-path="url(#pa1f05b3004)" style="fill: none; stroke: #b0b0b0; stroke-width: 0.8; stroke-linecap: round"/>
     </g>
     <g id="line2d_87"/>
     <g id="text_24">
      <!-- 0.0 -->
      <g style="fill: #262626" transform="translate(29.628209 227.110177) scale(0.09 -0.09)">
       <use xlink:href="#DejaVuSerif-30"/>
       <use xlink:href="#DejaVuSerif-2e" x="63.623047"/>
       <use xlink:href="#DejaVuSerif-30" x="95.410156"/>
      </g>
     </g>
    </g>
    <g id="ytick_10">
     <g id="line2d_88">
      <path d="M 47.441021 188.251642 
L 392.99976 188.251642 
" clip-path="url(#pa1f05b3004)" style="fill: none; stroke: #b0b0b0; stroke-width: 0.8; stroke-linecap: round"/>
     </g>
     <g id="line2d_89"/>
     <g id="text_25">
      <!-- 0.5 -->
      <g style="fill: #262626" transform="translate(29.628209 191.670939) scale(0.09 -0.09)">
       <use xlink:href="#DejaVuSerif-30"/>
       <use xlink:href="#DejaVuSerif-2e" x="63.623047"/>
       <use xlink:href="#DejaVuSerif-35" x="95.410156"/>
      </g>
     </g>
    </g>
    <g id="text_26">
     <!-- $1000 \cdot {N'}_{(\bullet)}$ -->
     <g style="fill: #262626" transform="translate(23.288209 231.625764) rotate(-90) scale(0.09 -0.09)">
      <defs>
       <path id="DejaVuSans-Oblique-4e" d="M 1081 4666 
L 1931 4666 
L 3219 666 
L 4000 4666 
L 4616 4666 
L 3706 0 
L 2853 0 
L 1569 4025 
L 788 0 
L 172 0 
L 1081 4666 
z
" transform="scale(0.015625)"/>
      </defs>
      <use xlink:href="#DejaVuSans-31" transform="translate(0 0.584375)"/>
      <use xlink:href="#DejaVuSans-30" transform="translate(63.623047 0.584375)"/>
      <use xlink:href="#DejaVuSans-30" transform="translate(127.246094 0.584375)"/>
      <use xlink:href="#DejaVuSans-30" transform="translate(190.869141 0.584375)"/>
      <use xlink:href="#DejaVuSans-22c5" transform="translate(273.974609 0.584375)"/>
      <use xlink:href="#DejaVuSans-Oblique-4e" transform="translate(325.244141 0.584375)"/>
      <use xlink:href="#Cmsy10-30" transform="translate(407.065599 38.865625) scale(0.7)"/>
      <use xlink:href="#DejaVuSans-28" transform="translate(430.000169 -15.821875) scale(0.7)"/>
      <use xlink:href="#DejaVuSans-2219" transform="translate(457.30974 -15.821875) scale(0.7)"/>
      <use xlink:href="#DejaVuSans-29" transform="translate(501.128099 -15.821875) scale(0.7)"/>
     </g>
    </g>
   </g>
   <g id="line2d_90">
    <g clip-path="url(#pa1f05b3004)">
     <use xlink:href="#meb183366e5" x="63.148237" y="197.81857" style="fill: #ff0000; stroke: #ff0000"/>
     <use xlink:href="#meb183366e5" x="140.303256" y="196.415955" style="fill: #ff0000; stroke: #ff0000"/>
     <use xlink:href="#meb183366e5" x="377.292545" y="192.068385" style="fill: #ff0000; stroke: #ff0000"/>
    </g>
   </g>
   <g id="line2d_91">
    <g clip-path="url(#pa1f05b3004)">
     <use xlink:href="#m683caab8d5" x="63.148237" y="220.464726" style="fill: #008000; stroke: #008000"/>
     <use xlink:href="#m683caab8d5" x="140.303256" y="220.468837" style="fill: #008000; stroke: #008000"/>
     <use xlink:href="#m683caab8d5" x="377.292545" y="220.323858" style="fill: #008000; stroke: #008000"/>
    </g>
   </g>
   <g id="line2d_92">
    <g clip-path="url(#pa1f05b3004)">
     <use xlink:href="#mcea564c8df" x="63.148237" y="201.044724" style="fill: #0000ff; stroke: #0000ff"/>
     <use xlink:href="#mcea564c8df" x="140.303256" y="199.637997" style="fill: #0000ff; stroke: #0000ff"/>
     <use xlink:href="#mcea564c8df" x="377.292545" y="195.435408" style="fill: #0000ff; stroke: #0000ff"/>
    </g>
   </g>
   <g id="line2d_93">
    <path d="M 63.148237 197.905293 
L 140.303256 196.19961 
L 377.292545 191.701572 
" clip-path="url(#pa1f05b3004)" style="fill: none; stroke: #ff0000; stroke-width: 1.5; stroke-linecap: round"/>
   </g>
   <g id="line2d_94">
    <path d="M 63.148237 220.826733 
L 140.303256 220.637274 
L 377.292545 220.137652 
" clip-path="url(#pa1f05b3004)" style="fill: none; stroke: #008000; stroke-width: 1.5; stroke-linecap: round"/>
   </g>
   <g id="line2d_95">
    <path d="M 63.148237 200.769439 
L 140.303256 199.253216 
L 377.292545 195.254799 
" clip-path="url(#pa1f05b3004)" style="fill: none; stroke: #0000ff; stroke-width: 1.5; stroke-linecap: round"/>
   </g>
   <g id="patch_9">
    <path d="M 47.441021 245.679135 
L 47.441021 169.692392 
" style="fill: none; stroke: #000000; stroke-linejoin: miter; stroke-linecap: square"/>
   </g>
   <g id="patch_10">
    <path d="M 47.441021 245.679135 
L 392.99976 245.679135 
" style="fill: none; stroke: #000000; stroke-linejoin: miter; stroke-linecap: square"/>
   </g>
  </g>
 </g>
 <defs>
  <clipPath id="p829073a1ec">
   <rect x="47.441021" y="5.717947" width="345.558739" height="75.986743"/>
  </clipPath>
  <clipPath id="p3e8db93b63">
   <rect x="47.441021" y="87.70517" width="345.558739" height="75.986743"/>
  </clipPath>
  <clipPath id="pa1f05b3004">
   <rect x="47.441021" y="169.692392" width="345.558739" height="75.986743"/>
  </clipPath>
 </defs>
</svg>
