<?xml version="1.0" encoding="utf-8" standalone="no"?>
<!DOCTYPE svg PUBLIC "-//W3C//DTD SVG 1.1//EN"
  "http://www.w3.org/Graphics/SVG/1.1/DTD/svg11.dtd">
<svg xmlns:xlink="http://www.w3.org/1999/xlink" width="518.4pt" height="345.6pt" viewBox="0 0 518.4 345.6" xmlns="http://www.w3.org/2000/svg" version="1.1">
 <metadata>
  <rdf:RDF xmlns:dc="http://purl.org/dc/elements/1.1/" xmlns:cc="http://creativecommons.org/ns#" xmlns:rdf="http://www.w3.org/1999/02/22-rdf-syntax-ns#">
   <cc:Work>
    <dc:type rdf:resource="http://purl.org/dc/dcmitype/StillImage"/>
    <dc:date>2024-02-05T07:19:27.544018</dc:date>
    <dc:format>image/svg+xml</dc:format>
    <dc:creator>
     <cc:Agent>
      <dc:title>Matplotlib v3.8.2, https://matplotlib.org/</dc:title>
     </cc:Agent>
    </dc:creator>
   </cc:Work>
  </rdf:RDF>
 </metadata>
 <defs>
  <style type="text/css">*{stroke-linejoin: round; stroke-linecap: butt}</style>
 </defs>
 <g id="figure_1">
  <g id="patch_1">
   <path d="M 0 345.6 
L 518.4 345.6 
L 518.4 0 
L 0 0 
z
" style="fill: #ffffff"/>
  </g>
  <g id="axes_1">
   <g id="patch_2">
    <path d="M 47.857271 102.602468 
L 515.39976 102.602468 
L 515.39976 3.00024 
L 47.857271 3.00024 
z
" style="fill: #ffffff"/>
   </g>
   <g id="matplotlib.axis_1">
    <g id="xtick_1">
     <g id="line2d_1">
      <path d="M 57.746169 102.602468 
L 57.746169 3.00024 
" clip-path="url(#p7624f0f32b)" style="fill: none; stroke: #b0b0b0; stroke-width: 0.8; stroke-linecap: round"/>
     </g>
     <g id="line2d_2"/>
    </g>
    <g id="xtick_2">
     <g id="line2d_3">
      <path d="M 110.932695 102.602468 
L 110.932695 3.00024 
" clip-path="url(#p7624f0f32b)" style="fill: none; stroke: #b0b0b0; stroke-width: 0.8; stroke-linecap: round"/>
     </g>
     <g id="line2d_4"/>
    </g>
    <g id="xtick_3">
     <g id="line2d_5">
      <path d="M 164.119221 102.602468 
L 164.119221 3.00024 
" clip-path="url(#p7624f0f32b)" style="fill: none; stroke: #b0b0b0; stroke-width: 0.8; stroke-linecap: round"/>
     </g>
     <g id="line2d_6"/>
    </g>
    <g id="xtick_4">
     <g id="line2d_7">
      <path d="M 217.305747 102.602468 
L 217.305747 3.00024 
" clip-path="url(#p7624f0f32b)" style="fill: none; stroke: #b0b0b0; stroke-width: 0.8; stroke-linecap: round"/>
     </g>
     <g id="line2d_8"/>
    </g>
    <g id="xtick_5">
     <g id="line2d_9">
      <path d="M 270.492273 102.602468 
L 270.492273 3.00024 
" clip-path="url(#p7624f0f32b)" style="fill: none; stroke: #b0b0b0; stroke-width: 0.8; stroke-linecap: round"/>
     </g>
     <g id="line2d_10"/>
    </g>
    <g id="xtick_6">
     <g id="line2d_11">
      <path d="M 323.678798 102.602468 
L 323.678798 3.00024 
" clip-path="url(#p7624f0f32b)" style="fill: none; stroke: #b0b0b0; stroke-width: 0.8; stroke-linecap: round"/>
     </g>
     <g id="line2d_12"/>
    </g>
    <g id="xtick_7">
     <g id="line2d_13">
      <path d="M 376.865324 102.602468 
L 376.865324 3.00024 
" clip-path="url(#p7624f0f32b)" style="fill: none; stroke: #b0b0b0; stroke-width: 0.8; stroke-linecap: round"/>
     </g>
     <g id="line2d_14"/>
    </g>
    <g id="xtick_8">
     <g id="line2d_15">
      <path d="M 430.05185 102.602468 
L 430.05185 3.00024 
" clip-path="url(#p7624f0f32b)" style="fill: none; stroke: #b0b0b0; stroke-width: 0.8; stroke-linecap: round"/>
     </g>
     <g id="line2d_16"/>
    </g>
    <g id="xtick_9">
     <g id="line2d_17">
      <path d="M 483.238376 102.602468 
L 483.238376 3.00024 
" clip-path="url(#p7624f0f32b)" style="fill: none; stroke: #b0b0b0; stroke-width: 0.8; stroke-linecap: round"/>
     </g>
     <g id="line2d_18"/>
    </g>
   </g>
   <g id="matplotlib.axis_2">
    <g id="ytick_1">
     <g id="line2d_19">
      <path d="M 47.857271 82.911569 
L 515.39976 82.911569 
" clip-path="url(#p7624f0f32b)" style="fill: none; stroke: #b0b0b0; stroke-width: 0.8; stroke-linecap: round"/>
     </g>
     <g id="line2d_20"/>
     <g id="text_1">
      <!-- −5.0 -->
      <g style="fill: #262626" transform="translate(17.646178 87.09071) scale(0.11 -0.11)">
       <defs>
        <path id="DejaVuSerif-2212" d="M 678 2259 
L 4684 2259 
L 4684 1753 
L 678 1753 
L 678 2259 
z
" transform="scale(0.015625)"/>
        <path id="DejaVuSerif-35" d="M 3219 4666 
L 3219 4153 
L 1081 4153 
L 1081 2816 
Q 1244 2928 1461 2984 
Q 1678 3041 1947 3041 
Q 2703 3041 3140 2622 
Q 3578 2203 3578 1478 
Q 3578 738 3136 323 
Q 2694 -91 1894 -91 
Q 1572 -91 1234 -12 
Q 897 66 544 225 
L 544 1131 
L 897 1131 
Q 925 688 1179 453 
Q 1434 219 1894 219 
Q 2388 219 2653 544 
Q 2919 869 2919 1478 
Q 2919 2084 2655 2407 
Q 2391 2731 1894 2731 
Q 1613 2731 1398 2631 
Q 1184 2531 1019 2322 
L 750 2322 
L 750 4666 
L 3219 4666 
z
" transform="scale(0.015625)"/>
        <path id="DejaVuSerif-2e" d="M 603 325 
Q 603 500 722 622 
Q 841 744 1019 744 
Q 1191 744 1312 622 
Q 1434 500 1434 325 
Q 1434 153 1312 31 
Q 1191 -91 1019 -91 
Q 841 -91 722 29 
Q 603 150 603 325 
z
" transform="scale(0.015625)"/>
        <path id="DejaVuSerif-30" d="M 2034 219 
Q 2513 219 2750 744 
Q 2988 1269 2988 2328 
Q 2988 3391 2750 3916 
Q 2513 4441 2034 4441 
Q 1556 4441 1318 3916 
Q 1081 3391 1081 2328 
Q 1081 1269 1318 744 
Q 1556 219 2034 219 
z
M 2034 -91 
Q 1275 -91 848 546 
Q 422 1184 422 2328 
Q 422 3475 848 4112 
Q 1275 4750 2034 4750 
Q 2797 4750 3222 4112 
Q 3647 3475 3647 2328 
Q 3647 1184 3222 546 
Q 2797 -91 2034 -91 
z
" transform="scale(0.015625)"/>
       </defs>
       <use xlink:href="#DejaVuSerif-2212"/>
       <use xlink:href="#DejaVuSerif-35" x="83.789062"/>
       <use xlink:href="#DejaVuSerif-2e" x="147.412109"/>
       <use xlink:href="#DejaVuSerif-30" x="179.199219"/>
      </g>
     </g>
    </g>
    <g id="ytick_2">
     <g id="line2d_21">
      <path d="M 47.857271 57.934454 
L 515.39976 57.934454 
" clip-path="url(#p7624f0f32b)" style="fill: none; stroke: #b0b0b0; stroke-width: 0.8; stroke-linecap: round"/>
     </g>
     <g id="line2d_22"/>
     <g id="text_2">
      <!-- −2.5 -->
      <g style="fill: #262626" transform="translate(17.646178 62.113594) scale(0.11 -0.11)">
       <defs>
        <path id="DejaVuSerif-32" d="M 819 3553 
L 469 3553 
L 469 4384 
Q 803 4563 1142 4656 
Q 1481 4750 1806 4750 
Q 2534 4750 2956 4397 
Q 3378 4044 3378 3438 
Q 3378 2753 2422 1800 
Q 2347 1728 2309 1691 
L 1131 513 
L 3078 513 
L 3078 1088 
L 3444 1088 
L 3444 0 
L 434 0 
L 434 341 
L 1850 1753 
Q 2319 2222 2519 2614 
Q 2719 3006 2719 3438 
Q 2719 3909 2473 4175 
Q 2228 4441 1797 4441 
Q 1350 4441 1106 4219 
Q 863 3997 819 3553 
z
" transform="scale(0.015625)"/>
       </defs>
       <use xlink:href="#DejaVuSerif-2212"/>
       <use xlink:href="#DejaVuSerif-32" x="83.789062"/>
       <use xlink:href="#DejaVuSerif-2e" x="147.412109"/>
       <use xlink:href="#DejaVuSerif-35" x="179.199219"/>
      </g>
     </g>
    </g>
    <g id="ytick_3">
     <g id="line2d_23">
      <path d="M 47.857271 32.957339 
L 515.39976 32.957339 
" clip-path="url(#p7624f0f32b)" style="fill: none; stroke: #b0b0b0; stroke-width: 0.8; stroke-linecap: round"/>
     </g>
     <g id="line2d_24"/>
     <g id="text_3">
      <!-- 0.0 -->
      <g style="fill: #262626" transform="translate(26.863834 37.136479) scale(0.11 -0.11)">
       <use xlink:href="#DejaVuSerif-30"/>
       <use xlink:href="#DejaVuSerif-2e" x="63.623047"/>
       <use xlink:href="#DejaVuSerif-30" x="95.410156"/>
      </g>
     </g>
    </g>
    <g id="ytick_4">
     <g id="line2d_25">
      <path d="M 47.857271 7.980223 
L 515.39976 7.980223 
" clip-path="url(#p7624f0f32b)" style="fill: none; stroke: #b0b0b0; stroke-width: 0.8; stroke-linecap: round"/>
     </g>
     <g id="line2d_26"/>
     <g id="text_4">
      <!-- 2.5 -->
      <g style="fill: #262626" transform="translate(26.863834 12.159364) scale(0.11 -0.11)">
       <use xlink:href="#DejaVuSerif-32"/>
       <use xlink:href="#DejaVuSerif-2e" x="63.623047"/>
       <use xlink:href="#DejaVuSerif-35" x="95.410156"/>
      </g>
     </g>
    </g>
    <g id="text_5">
     <!-- $X$ $[N]$ -->
     <g style="fill: #262626" transform="translate(11.358521 66.771354) rotate(-90) scale(0.11 -0.11)">
      <defs>
       <path id="DejaVuSans-Oblique-58" d="M 878 4666 
L 1516 4666 
L 2316 2981 
L 3763 4666 
L 4500 4666 
L 2578 2438 
L 3738 0 
L 3103 0 
L 2163 1966 
L 459 0 
L -275 0 
L 1906 2509 
L 878 4666 
z
" transform="scale(0.015625)"/>
       <path id="DejaVuSerif-20" transform="scale(0.015625)"/>
       <path id="DejaVuSans-5b" d="M 550 4863 
L 1875 4863 
L 1875 4416 
L 1125 4416 
L 1125 -397 
L 1875 -397 
L 1875 -844 
L 550 -844 
L 550 4863 
z
" transform="scale(0.015625)"/>
       <path id="DejaVuSans-Oblique-4e" d="M 1081 4666 
L 1931 4666 
L 3219 666 
L 4000 4666 
L 4616 4666 
L 3706 0 
L 2853 0 
L 1569 4025 
L 788 0 
L 172 0 
L 1081 4666 
z
" transform="scale(0.015625)"/>
       <path id="DejaVuSans-5d" d="M 1947 4863 
L 1947 -844 
L 622 -844 
L 622 -397 
L 1369 -397 
L 1369 4416 
L 622 4416 
L 622 4863 
L 1947 4863 
z
" transform="scale(0.015625)"/>
      </defs>
      <use xlink:href="#DejaVuSans-Oblique-58" transform="translate(0 0.015625)"/>
      <use xlink:href="#DejaVuSerif-20" transform="translate(68.505859 0.015625)"/>
      <use xlink:href="#DejaVuSans-5b" transform="translate(100.292969 0.015625)"/>
      <use xlink:href="#DejaVuSans-Oblique-4e" transform="translate(139.306641 0.015625)"/>
      <use xlink:href="#DejaVuSans-5d" transform="translate(214.111328 0.015625)"/>
     </g>
    </g>
   </g>
   <g id="line2d_27">
    <defs>
     <path id="m62b9920af2" d="M -3 3 
L 3 -3 
M -3 -3 
L 3 3 
" style="stroke: #ff0000"/>
    </defs>
    <g clip-path="url(#p7624f0f32b)">
     <use xlink:href="#m62b9920af2" x="69.109203" y="27.211329" style="fill: #ff0000; stroke: #ff0000"/>
     <use xlink:href="#m62b9920af2" x="239.124653" y="27.045687" style="fill: #ff0000; stroke: #ff0000"/>
     <use xlink:href="#m62b9920af2" x="494.147829" y="32.806582" style="fill: #ff0000; stroke: #ff0000"/>
    </g>
   </g>
   <g id="line2d_28">
    <defs>
     <path id="mb901fe045c" d="M -3 3 
L 3 -3 
M -3 -3 
L 3 3 
" style="stroke: #008000"/>
    </defs>
    <g clip-path="url(#p7624f0f32b)">
     <use xlink:href="#mb901fe045c" x="69.109203" y="102.602468" style="fill: #008000; stroke: #008000"/>
     <use xlink:href="#mb901fe045c" x="239.124653" y="99.98078" style="fill: #008000; stroke: #008000"/>
     <use xlink:href="#mb901fe045c" x="494.147829" y="99.252868" style="fill: #008000; stroke: #008000"/>
    </g>
   </g>
   <g id="line2d_29">
    <defs>
     <path id="mcc9cb67be2" d="M -3 3 
L 3 -3 
M -3 -3 
L 3 3 
" style="stroke: #0000ff"/>
    </defs>
    <g clip-path="url(#p7624f0f32b)">
     <use xlink:href="#mcc9cb67be2" x="69.109203" y="38.972093" style="fill: #0000ff; stroke: #0000ff"/>
     <use xlink:href="#mcc9cb67be2" x="239.124653" y="41.506297" style="fill: #0000ff; stroke: #0000ff"/>
     <use xlink:href="#mcc9cb67be2" x="494.147829" y="44.133695" style="fill: #0000ff; stroke: #0000ff"/>
    </g>
   </g>
   <g id="line2d_30">
    <path d="M 69.109203 20.774877 
L 239.124653 22.501648 
L 494.147829 27.654265 
" clip-path="url(#p7624f0f32b)" style="fill: none; stroke: #ff0000; stroke-width: 1.5; stroke-linecap: round"/>
   </g>
   <g id="line2d_31">
    <path d="M 69.109203 101.329098 
L 239.124653 99.618192 
L 494.147829 97.968391 
" clip-path="url(#p7624f0f32b)" style="fill: none; stroke: #008000; stroke-width: 1.5; stroke-linecap: round"/>
   </g>
   <g id="line2d_32">
    <path d="M 69.109203 37.976218 
L 239.124653 41.496053 
L 494.147829 44.239396 
" clip-path="url(#p7624f0f32b)" style="fill: none; stroke: #0000ff; stroke-width: 1.5; stroke-linecap: round"/>
   </g>
   <g id="patch_3">
    <path d="M 47.857271 102.602468 
L 47.857271 3.00024 
" style="fill: none; stroke: #000000; stroke-linejoin: miter; stroke-linecap: square"/>
   </g>
   <g id="patch_4">
    <path d="M 47.857271 102.602468 
L 515.39976 102.602468 
" style="fill: none; stroke: #000000; stroke-linejoin: miter; stroke-linecap: square"/>
   </g>
   <g id="legend_1">
    <g id="line2d_33">
     <path d="M 57.757271 54.272937 
L 68.757271 54.272937 
L 79.757271 54.272937 
" style="fill: none; stroke: #ff0000; stroke-width: 1.5; stroke-linecap: round"/>
    </g>
    <g id="text_6">
     <!-- D -->
     <g style="fill: #262626" transform="translate(88.557271 58.122937) scale(0.11 -0.11)">
      <defs>
       <path id="DejaVuSerif-44" d="M 1581 331 
L 2163 331 
Q 3072 331 3558 850 
Q 4044 1369 4044 2338 
Q 4044 3306 3559 3818 
Q 3075 4331 2163 4331 
L 1581 4331 
L 1581 331 
z
M 353 0 
L 353 331 
L 947 331 
L 947 4331 
L 353 4331 
L 353 4666 
L 2209 4666 
Q 3416 4666 4089 4050 
Q 4763 3434 4763 2338 
Q 4763 1238 4088 619 
Q 3413 0 2209 0 
L 353 0 
z
" transform="scale(0.015625)"/>
      </defs>
      <use xlink:href="#DejaVuSerif-44"/>
     </g>
    </g>
    <g id="line2d_34">
     <path d="M 57.757271 70.418875 
L 68.757271 70.418875 
L 79.757271 70.418875 
" style="fill: none; stroke: #008000; stroke-width: 1.5; stroke-linecap: round"/>
    </g>
    <g id="text_7">
     <!-- H -->
     <g style="fill: #262626" transform="translate(88.557271 74.268875) scale(0.11 -0.11)">
      <defs>
       <path id="DejaVuSerif-48" d="M 353 0 
L 353 331 
L 947 331 
L 947 4331 
L 353 4331 
L 353 4666 
L 2175 4666 
L 2175 4331 
L 1581 4331 
L 1581 2719 
L 4000 2719 
L 4000 4331 
L 3406 4331 
L 3406 4666 
L 5228 4666 
L 5228 4331 
L 4634 4331 
L 4634 331 
L 5228 331 
L 5228 0 
L 3406 0 
L 3406 331 
L 4000 331 
L 4000 2338 
L 1581 2338 
L 1581 331 
L 2175 331 
L 2175 0 
L 353 0 
z
" transform="scale(0.015625)"/>
      </defs>
      <use xlink:href="#DejaVuSerif-48"/>
     </g>
    </g>
    <g id="line2d_35">
     <path d="M 57.757271 86.564812 
L 68.757271 86.564812 
L 79.757271 86.564812 
" style="fill: none; stroke: #0000ff; stroke-width: 1.5; stroke-linecap: round"/>
    </g>
    <g id="text_8">
     <!-- R -->
     <g style="fill: #262626" transform="translate(88.557271 90.414812) scale(0.11 -0.11)">
      <defs>
       <path id="DejaVuSerif-52" d="M 3066 2316 
Q 3284 2256 3442 2114 
Q 3600 1972 3725 1716 
L 4403 331 
L 4972 331 
L 4972 0 
L 3872 0 
L 3144 1484 
Q 2934 1916 2759 2042 
Q 2584 2169 2278 2169 
L 1581 2169 
L 1581 331 
L 2241 331 
L 2241 0 
L 353 0 
L 353 331 
L 947 331 
L 947 4331 
L 353 4331 
L 353 4666 
L 2719 4666 
Q 3400 4666 3770 4341 
Q 4141 4016 4141 3419 
Q 4141 2938 3870 2661 
Q 3600 2384 3066 2316 
z
M 1581 2503 
L 2503 2503 
Q 2975 2503 3200 2726 
Q 3425 2950 3425 3419 
Q 3425 3888 3200 4109 
Q 2975 4331 2503 4331 
L 1581 4331 
L 1581 2503 
z
" transform="scale(0.015625)"/>
      </defs>
      <use xlink:href="#DejaVuSerif-52"/>
     </g>
    </g>
   </g>
  </g>
  <g id="axes_2">
   <g id="patch_5">
    <path d="M 47.857271 208.205177 
L 515.39976 208.205177 
L 515.39976 108.602948 
L 47.857271 108.602948 
z
" style="fill: #ffffff"/>
   </g>
   <g id="matplotlib.axis_3">
    <g id="xtick_10">
     <g id="line2d_36">
      <path d="M 57.746169 208.205177 
L 57.746169 108.602948 
" clip-path="url(#p3b3ea0a09e)" style="fill: none; stroke: #b0b0b0; stroke-width: 0.8; stroke-linecap: round"/>
     </g>
     <g id="line2d_37"/>
    </g>
    <g id="xtick_11">
     <g id="line2d_38">
      <path d="M 110.932695 208.205177 
L 110.932695 108.602948 
" clip-path="url(#p3b3ea0a09e)" style="fill: none; stroke: #b0b0b0; stroke-width: 0.8; stroke-linecap: round"/>
     </g>
     <g id="line2d_39"/>
    </g>
    <g id="xtick_12">
     <g id="line2d_40">
      <path d="M 164.119221 208.205177 
L 164.119221 108.602948 
" clip-path="url(#p3b3ea0a09e)" style="fill: none; stroke: #b0b0b0; stroke-width: 0.8; stroke-linecap: round"/>
     </g>
     <g id="line2d_41"/>
    </g>
    <g id="xtick_13">
     <g id="line2d_42">
      <path d="M 217.305747 208.205177 
L 217.305747 108.602948 
" clip-path="url(#p3b3ea0a09e)" style="fill: none; stroke: #b0b0b0; stroke-width: 0.8; stroke-linecap: round"/>
     </g>
     <g id="line2d_43"/>
    </g>
    <g id="xtick_14">
     <g id="line2d_44">
      <path d="M 270.492273 208.205177 
L 270.492273 108.602948 
" clip-path="url(#p3b3ea0a09e)" style="fill: none; stroke: #b0b0b0; stroke-width: 0.8; stroke-linecap: round"/>
     </g>
     <g id="line2d_45"/>
    </g>
    <g id="xtick_15">
     <g id="line2d_46">
      <path d="M 323.678798 208.205177 
L 323.678798 108.602948 
" clip-path="url(#p3b3ea0a09e)" style="fill: none; stroke: #b0b0b0; stroke-width: 0.8; stroke-linecap: round"/>
     </g>
     <g id="line2d_47"/>
    </g>
    <g id="xtick_16">
     <g id="line2d_48">
      <path d="M 376.865324 208.205177 
L 376.865324 108.602948 
" clip-path="url(#p3b3ea0a09e)" style="fill: none; stroke: #b0b0b0; stroke-width: 0.8; stroke-linecap: round"/>
     </g>
     <g id="line2d_49"/>
    </g>
    <g id="xtick_17">
     <g id="line2d_50">
      <path d="M 430.05185 208.205177 
L 430.05185 108.602948 
" clip-path="url(#p3b3ea0a09e)" style="fill: none; stroke: #b0b0b0; stroke-width: 0.8; stroke-linecap: round"/>
     </g>
     <g id="line2d_51"/>
    </g>
    <g id="xtick_18">
     <g id="line2d_52">
      <path d="M 483.238376 208.205177 
L 483.238376 108.602948 
" clip-path="url(#p3b3ea0a09e)" style="fill: none; stroke: #b0b0b0; stroke-width: 0.8; stroke-linecap: round"/>
     </g>
     <g id="line2d_53"/>
    </g>
   </g>
   <g id="matplotlib.axis_4">
    <g id="ytick_5">
     <g id="line2d_54">
      <path d="M 47.857271 170.944912 
L 515.39976 170.944912 
" clip-path="url(#p3b3ea0a09e)" style="fill: none; stroke: #b0b0b0; stroke-width: 0.8; stroke-linecap: round"/>
     </g>
     <g id="line2d_55"/>
     <g id="text_9">
      <!-- 0 -->
      <g style="fill: #262626" transform="translate(37.358521 175.124052) scale(0.11 -0.11)">
       <use xlink:href="#DejaVuSerif-30"/>
      </g>
     </g>
    </g>
    <g id="ytick_6">
     <g id="line2d_56">
      <path d="M 47.857271 122.561182 
L 515.39976 122.561182 
" clip-path="url(#p3b3ea0a09e)" style="fill: none; stroke: #b0b0b0; stroke-width: 0.8; stroke-linecap: round"/>
     </g>
     <g id="line2d_57"/>
     <g id="text_10">
      <!-- 20 -->
      <g style="fill: #262626" transform="translate(30.359771 126.740323) scale(0.11 -0.11)">
       <use xlink:href="#DejaVuSerif-32"/>
       <use xlink:href="#DejaVuSerif-30" x="63.623047"/>
      </g>
     </g>
    </g>
    <g id="text_11">
     <!-- $Y$ $[N]$ -->
     <g style="fill: #262626" transform="translate(24.072115 171.934062) rotate(-90) scale(0.11 -0.11)">
      <defs>
       <path id="DejaVuSans-Oblique-59" d="M 403 4666 
L 1081 4666 
L 1953 2747 
L 3616 4666 
L 4325 4666 
L 2209 2222 
L 1778 0 
L 1147 0 
L 1575 2222 
L 403 4666 
z
" transform="scale(0.015625)"/>
      </defs>
      <use xlink:href="#DejaVuSans-Oblique-59" transform="translate(0 0.015625)"/>
      <use xlink:href="#DejaVuSerif-20" transform="translate(61.083984 0.015625)"/>
      <use xlink:href="#DejaVuSans-5b" transform="translate(92.871094 0.015625)"/>
      <use xlink:href="#DejaVuSans-Oblique-4e" transform="translate(131.884766 0.015625)"/>
      <use xlink:href="#DejaVuSans-5d" transform="translate(206.689453 0.015625)"/>
     </g>
    </g>
   </g>
   <g id="line2d_58">
    <g clip-path="url(#p3b3ea0a09e)">
     <use xlink:href="#m62b9920af2" x="69.109203" y="200.764071" style="fill: #ff0000; stroke: #ff0000"/>
     <use xlink:href="#m62b9920af2" x="239.124653" y="193.385103" style="fill: #ff0000; stroke: #ff0000"/>
     <use xlink:href="#m62b9920af2" x="494.147829" y="181.850109" style="fill: #ff0000; stroke: #ff0000"/>
    </g>
   </g>
   <g id="line2d_59">
    <g clip-path="url(#p3b3ea0a09e)">
     <use xlink:href="#mb901fe045c" x="69.109203" y="175.76741" style="fill: #008000; stroke: #008000"/>
     <use xlink:href="#mb901fe045c" x="239.124653" y="175.306242" style="fill: #008000; stroke: #008000"/>
     <use xlink:href="#mb901fe045c" x="494.147829" y="173.482741" style="fill: #008000; stroke: #008000"/>
    </g>
   </g>
   <g id="line2d_60">
    <g clip-path="url(#p3b3ea0a09e)">
     <use xlink:href="#mcc9cb67be2" x="69.109203" y="195.941573" style="fill: #0000ff; stroke: #0000ff"/>
     <use xlink:href="#mcc9cb67be2" x="239.124653" y="189.023773" style="fill: #0000ff; stroke: #0000ff"/>
     <use xlink:href="#mcc9cb67be2" x="494.147829" y="179.31228" style="fill: #0000ff; stroke: #0000ff"/>
    </g>
   </g>
   <g id="line2d_61">
    <path d="M 69.109203 200.002364 
L 239.124653 191.227156 
L 494.147829 180.244307 
" clip-path="url(#p3b3ea0a09e)" style="fill: none; stroke: #ff0000; stroke-width: 1.5; stroke-linecap: round"/>
   </g>
   <g id="line2d_62">
    <path d="M 69.109203 174.247817 
L 239.124653 173.250356 
L 494.147829 172.001956 
" clip-path="url(#p3b3ea0a09e)" style="fill: none; stroke: #008000; stroke-width: 1.5; stroke-linecap: round"/>
   </g>
   <g id="line2d_63">
    <path d="M 69.109203 196.699459 
L 239.124653 188.921712 
L 494.147829 179.187262 
" clip-path="url(#p3b3ea0a09e)" style="fill: none; stroke: #0000ff; stroke-width: 1.5; stroke-linecap: round"/>
   </g>
   <g id="patch_6">
    <path d="M 47.857271 208.205177 
L 47.857271 108.602948 
" style="fill: none; stroke: #000000; stroke-linejoin: miter; stroke-linecap: square"/>
   </g>
   <g id="patch_7">
    <path d="M 47.857271 208.205177 
L 515.39976 208.205177 
" style="fill: none; stroke: #000000; stroke-linejoin: miter; stroke-linecap: square"/>
   </g>
  </g>
  <g id="axes_3">
   <g id="patch_8">
    <path d="M 47.857271 313.807885 
L 515.39976 313.807885 
L 515.39976 214.205657 
L 47.857271 214.205657 
z
" style="fill: #ffffff"/>
   </g>
   <g id="matplotlib.axis_5">
    <g id="xtick_19">
     <g id="line2d_64">
      <path d="M 57.746169 313.807885 
L 57.746169 214.205657 
" clip-path="url(#p37f841a579)" style="fill: none; stroke: #b0b0b0; stroke-width: 0.8; stroke-linecap: round"/>
     </g>
     <g id="line2d_65"/>
     <g id="text_12">
      <!-- −0.065 -->
      <g style="fill: #262626" transform="translate(37.391873 325.666166) scale(0.11 -0.11)">
       <defs>
        <path id="DejaVuSerif-36" d="M 2094 219 
Q 2534 219 2771 542 
Q 3009 866 3009 1472 
Q 3009 2078 2771 2401 
Q 2534 2725 2094 2725 
Q 1647 2725 1412 2412 
Q 1178 2100 1178 1509 
Q 1178 888 1415 553 
Q 1653 219 2094 219 
z
M 1075 2569 
Q 1288 2803 1556 2918 
Q 1825 3034 2163 3034 
Q 2859 3034 3264 2615 
Q 3669 2197 3669 1472 
Q 3669 763 3233 336 
Q 2797 -91 2069 -91 
Q 1278 -91 853 498 
Q 428 1088 428 2181 
Q 428 3406 931 4078 
Q 1434 4750 2350 4750 
Q 2597 4750 2869 4703 
Q 3141 4656 3425 4563 
L 3425 3794 
L 3072 3794 
Q 3034 4109 2831 4275 
Q 2628 4441 2284 4441 
Q 1678 4441 1381 3981 
Q 1084 3522 1075 2569 
z
" transform="scale(0.015625)"/>
       </defs>
       <use xlink:href="#DejaVuSerif-2212"/>
       <use xlink:href="#DejaVuSerif-30" x="83.789062"/>
       <use xlink:href="#DejaVuSerif-2e" x="147.412109"/>
       <use xlink:href="#DejaVuSerif-30" x="179.199219"/>
       <use xlink:href="#DejaVuSerif-36" x="242.822266"/>
       <use xlink:href="#DejaVuSerif-35" x="306.445312"/>
      </g>
     </g>
    </g>
    <g id="xtick_20">
     <g id="line2d_66">
      <path d="M 110.932695 313.807885 
L 110.932695 214.205657 
" clip-path="url(#p37f841a579)" style="fill: none; stroke: #b0b0b0; stroke-width: 0.8; stroke-linecap: round"/>
     </g>
     <g id="line2d_67"/>
     <g id="text_13">
      <!-- −0.060 -->
      <g style="fill: #262626" transform="translate(90.578398 325.666166) scale(0.11 -0.11)">
       <use xlink:href="#DejaVuSerif-2212"/>
       <use xlink:href="#DejaVuSerif-30" x="83.789062"/>
       <use xlink:href="#DejaVuSerif-2e" x="147.412109"/>
       <use xlink:href="#DejaVuSerif-30" x="179.199219"/>
       <use xlink:href="#DejaVuSerif-36" x="242.822266"/>
       <use xlink:href="#DejaVuSerif-30" x="306.445312"/>
      </g>
     </g>
    </g>
    <g id="xtick_21">
     <g id="line2d_68">
      <path d="M 164.119221 313.807885 
L 164.119221 214.205657 
" clip-path="url(#p37f841a579)" style="fill: none; stroke: #b0b0b0; stroke-width: 0.8; stroke-linecap: round"/>
     </g>
     <g id="line2d_69"/>
     <g id="text_14">
      <!-- −0.055 -->
      <g style="fill: #262626" transform="translate(143.764924 325.666166) scale(0.11 -0.11)">
       <use xlink:href="#DejaVuSerif-2212"/>
       <use xlink:href="#DejaVuSerif-30" x="83.789062"/>
       <use xlink:href="#DejaVuSerif-2e" x="147.412109"/>
       <use xlink:href="#DejaVuSerif-30" x="179.199219"/>
       <use xlink:href="#DejaVuSerif-35" x="242.822266"/>
       <use xlink:href="#DejaVuSerif-35" x="306.445312"/>
      </g>
     </g>
    </g>
    <g id="xtick_22">
     <g id="line2d_70">
      <path d="M 217.305747 313.807885 
L 217.305747 214.205657 
" clip-path="url(#p37f841a579)" style="fill: none; stroke: #b0b0b0; stroke-width: 0.8; stroke-linecap: round"/>
     </g>
     <g id="line2d_71"/>
     <g id="text_15">
      <!-- −0.050 -->
      <g style="fill: #262626" transform="translate(196.95145 325.666166) scale(0.11 -0.11)">
       <use xlink:href="#DejaVuSerif-2212"/>
       <use xlink:href="#DejaVuSerif-30" x="83.789062"/>
       <use xlink:href="#DejaVuSerif-2e" x="147.412109"/>
       <use xlink:href="#DejaVuSerif-30" x="179.199219"/>
       <use xlink:href="#DejaVuSerif-35" x="242.822266"/>
       <use xlink:href="#DejaVuSerif-30" x="306.445312"/>
      </g>
     </g>
    </g>
    <g id="xtick_23">
     <g id="line2d_72">
      <path d="M 270.492273 313.807885 
L 270.492273 214.205657 
" clip-path="url(#p37f841a579)" style="fill: none; stroke: #b0b0b0; stroke-width: 0.8; stroke-linecap: round"/>
     </g>
     <g id="line2d_73"/>
     <g id="text_16">
      <!-- −0.045 -->
      <g style="fill: #262626" transform="translate(250.137976 325.666166) scale(0.11 -0.11)">
       <defs>
        <path id="DejaVuSerif-34" d="M 2234 1581 
L 2234 4063 
L 641 1581 
L 2234 1581 
z
M 3609 0 
L 1484 0 
L 1484 331 
L 2234 331 
L 2234 1247 
L 197 1247 
L 197 1588 
L 2241 4750 
L 2859 4750 
L 2859 1581 
L 3750 1581 
L 3750 1247 
L 2859 1247 
L 2859 331 
L 3609 331 
L 3609 0 
z
" transform="scale(0.015625)"/>
       </defs>
       <use xlink:href="#DejaVuSerif-2212"/>
       <use xlink:href="#DejaVuSerif-30" x="83.789062"/>
       <use xlink:href="#DejaVuSerif-2e" x="147.412109"/>
       <use xlink:href="#DejaVuSerif-30" x="179.199219"/>
       <use xlink:href="#DejaVuSerif-34" x="242.822266"/>
       <use xlink:href="#DejaVuSerif-35" x="306.445312"/>
      </g>
     </g>
    </g>
    <g id="xtick_24">
     <g id="line2d_74">
      <path d="M 323.678798 313.807885 
L 323.678798 214.205657 
" clip-path="url(#p37f841a579)" style="fill: none; stroke: #b0b0b0; stroke-width: 0.8; stroke-linecap: round"/>
     </g>
     <g id="line2d_75"/>
     <g id="text_17">
      <!-- −0.040 -->
      <g style="fill: #262626" transform="translate(303.324501 325.666166) scale(0.11 -0.11)">
       <use xlink:href="#DejaVuSerif-2212"/>
       <use xlink:href="#DejaVuSerif-30" x="83.789062"/>
       <use xlink:href="#DejaVuSerif-2e" x="147.412109"/>
       <use xlink:href="#DejaVuSerif-30" x="179.199219"/>
       <use xlink:href="#DejaVuSerif-34" x="242.822266"/>
       <use xlink:href="#DejaVuSerif-30" x="306.445312"/>
      </g>
     </g>
    </g>
    <g id="xtick_25">
     <g id="line2d_76">
      <path d="M 376.865324 313.807885 
L 376.865324 214.205657 
" clip-path="url(#p37f841a579)" style="fill: none; stroke: #b0b0b0; stroke-width: 0.8; stroke-linecap: round"/>
     </g>
     <g id="line2d_77"/>
     <g id="text_18">
      <!-- −0.035 -->
      <g style="fill: #262626" transform="translate(356.511027 325.666166) scale(0.11 -0.11)">
       <defs>
        <path id="DejaVuSerif-33" d="M 622 4469 
Q 988 4606 1323 4678 
Q 1659 4750 1953 4750 
Q 2638 4750 3022 4454 
Q 3406 4159 3406 3634 
Q 3406 3213 3140 2930 
Q 2875 2647 2388 2547 
Q 2963 2466 3280 2130 
Q 3597 1794 3597 1259 
Q 3597 606 3158 257 
Q 2719 -91 1894 -91 
Q 1528 -91 1179 -12 
Q 831 66 488 225 
L 488 1131 
L 838 1131 
Q 869 681 1141 450 
Q 1413 219 1906 219 
Q 2384 219 2661 495 
Q 2938 772 2938 1253 
Q 2938 1803 2653 2086 
Q 2369 2369 1819 2369 
L 1522 2369 
L 1522 2688 
L 1678 2688 
Q 2225 2688 2498 2914 
Q 2772 3141 2772 3597 
Q 2772 4006 2547 4223 
Q 2322 4441 1900 4441 
Q 1478 4441 1245 4241 
Q 1013 4041 972 3647 
L 622 3647 
L 622 4469 
z
" transform="scale(0.015625)"/>
       </defs>
       <use xlink:href="#DejaVuSerif-2212"/>
       <use xlink:href="#DejaVuSerif-30" x="83.789062"/>
       <use xlink:href="#DejaVuSerif-2e" x="147.412109"/>
       <use xlink:href="#DejaVuSerif-30" x="179.199219"/>
       <use xlink:href="#DejaVuSerif-33" x="242.822266"/>
       <use xlink:href="#DejaVuSerif-35" x="306.445312"/>
      </g>
     </g>
    </g>
    <g id="xtick_26">
     <g id="line2d_78">
      <path d="M 430.05185 313.807885 
L 430.05185 214.205657 
" clip-path="url(#p37f841a579)" style="fill: none; stroke: #b0b0b0; stroke-width: 0.8; stroke-linecap: round"/>
     </g>
     <g id="line2d_79"/>
     <g id="text_19">
      <!-- −0.030 -->
      <g style="fill: #262626" transform="translate(409.697553 325.666166) scale(0.11 -0.11)">
       <use xlink:href="#DejaVuSerif-2212"/>
       <use xlink:href="#DejaVuSerif-30" x="83.789062"/>
       <use xlink:href="#DejaVuSerif-2e" x="147.412109"/>
       <use xlink:href="#DejaVuSerif-30" x="179.199219"/>
       <use xlink:href="#DejaVuSerif-33" x="242.822266"/>
       <use xlink:href="#DejaVuSerif-30" x="306.445312"/>
      </g>
     </g>
    </g>
    <g id="xtick_27">
     <g id="line2d_80">
      <path d="M 483.238376 313.807885 
L 483.238376 214.205657 
" clip-path="url(#p37f841a579)" style="fill: none; stroke: #b0b0b0; stroke-width: 0.8; stroke-linecap: round"/>
     </g>
     <g id="line2d_81"/>
     <g id="text_20">
      <!-- −0.025 -->
      <g style="fill: #262626" transform="translate(462.884079 325.666166) scale(0.11 -0.11)">
       <use xlink:href="#DejaVuSerif-2212"/>
       <use xlink:href="#DejaVuSerif-30" x="83.789062"/>
       <use xlink:href="#DejaVuSerif-2e" x="147.412109"/>
       <use xlink:href="#DejaVuSerif-30" x="179.199219"/>
       <use xlink:href="#DejaVuSerif-32" x="242.822266"/>
       <use xlink:href="#DejaVuSerif-35" x="306.445312"/>
      </g>
     </g>
    </g>
    <g id="text_21">
     <!-- $r$ $[rad/s]$ -->
     <g style="fill: #262626" transform="translate(259.463516 340.312104) scale(0.11 -0.11)">
      <defs>
       <path id="DejaVuSans-Oblique-72" d="M 2853 2969 
Q 2766 3016 2653 3041 
Q 2541 3066 2413 3066 
Q 1953 3066 1609 2717 
Q 1266 2369 1153 1784 
L 800 0 
L 225 0 
L 909 3500 
L 1484 3500 
L 1375 2956 
Q 1603 3259 1920 3421 
Q 2238 3584 2597 3584 
Q 2691 3584 2781 3573 
Q 2872 3563 2963 3538 
L 2853 2969 
z
" transform="scale(0.015625)"/>
       <path id="DejaVuSans-Oblique-61" d="M 3438 1997 
L 3047 0 
L 2472 0 
L 2578 531 
Q 2325 219 2001 64 
Q 1678 -91 1281 -91 
Q 834 -91 548 182 
Q 263 456 263 884 
Q 263 1497 752 1853 
Q 1241 2209 2100 2209 
L 2900 2209 
L 2931 2363 
Q 2938 2388 2941 2417 
Q 2944 2447 2944 2509 
Q 2944 2788 2717 2942 
Q 2491 3097 2081 3097 
Q 1800 3097 1504 3025 
Q 1209 2953 897 2809 
L 997 3341 
Q 1322 3463 1633 3523 
Q 1944 3584 2234 3584 
Q 2853 3584 3176 3315 
Q 3500 3047 3500 2534 
Q 3500 2431 3484 2292 
Q 3469 2153 3438 1997 
z
M 2816 1759 
L 2241 1759 
Q 1534 1759 1195 1570 
Q 856 1381 856 984 
Q 856 709 1029 553 
Q 1203 397 1509 397 
Q 1978 397 2328 733 
Q 2678 1069 2791 1631 
L 2816 1759 
z
" transform="scale(0.015625)"/>
       <path id="DejaVuSans-Oblique-64" d="M 2675 525 
Q 2444 222 2128 65 
Q 1813 -91 1428 -91 
Q 903 -91 598 267 
Q 294 625 294 1247 
Q 294 1766 478 2236 
Q 663 2706 1013 3078 
Q 1244 3325 1534 3454 
Q 1825 3584 2144 3584 
Q 2481 3584 2739 3421 
Q 2997 3259 3138 2956 
L 3513 4863 
L 4091 4863 
L 3144 0 
L 2566 0 
L 2675 525 
z
M 891 1350 
Q 891 897 1095 644 
Q 1300 391 1663 391 
Q 1931 391 2161 520 
Q 2391 650 2566 903 
Q 2750 1166 2856 1509 
Q 2963 1853 2963 2188 
Q 2963 2622 2758 2865 
Q 2553 3109 2194 3109 
Q 1922 3109 1687 2981 
Q 1453 2853 1288 2613 
Q 1106 2353 998 2009 
Q 891 1666 891 1350 
z
" transform="scale(0.015625)"/>
       <path id="DejaVuSans-2f" d="M 1625 4666 
L 2156 4666 
L 531 -594 
L 0 -594 
L 1625 4666 
z
" transform="scale(0.015625)"/>
       <path id="DejaVuSans-Oblique-73" d="M 3200 3397 
L 3091 2853 
Q 2863 2978 2609 3040 
Q 2356 3103 2088 3103 
Q 1634 3103 1373 2948 
Q 1113 2794 1113 2528 
Q 1113 2219 1719 2053 
Q 1766 2041 1788 2034 
L 1972 1978 
Q 2547 1819 2739 1644 
Q 2931 1469 2931 1166 
Q 2931 609 2489 259 
Q 2047 -91 1331 -91 
Q 1053 -91 747 -37 
Q 441 16 72 128 
L 184 722 
Q 500 559 806 475 
Q 1113 391 1394 391 
Q 1816 391 2080 572 
Q 2344 753 2344 1031 
Q 2344 1331 1650 1516 
L 1591 1531 
L 1394 1581 
Q 956 1697 753 1886 
Q 550 2075 550 2369 
Q 550 2928 970 3256 
Q 1391 3584 2113 3584 
Q 2397 3584 2667 3537 
Q 2938 3491 3200 3397 
z
" transform="scale(0.015625)"/>
      </defs>
      <use xlink:href="#DejaVuSans-Oblique-72" transform="translate(0 0.015625)"/>
      <use xlink:href="#DejaVuSerif-20" transform="translate(41.113281 0.015625)"/>
      <use xlink:href="#DejaVuSans-5b" transform="translate(72.900391 0.015625)"/>
      <use xlink:href="#DejaVuSans-Oblique-72" transform="translate(111.914062 0.015625)"/>
      <use xlink:href="#DejaVuSans-Oblique-61" transform="translate(153.027344 0.015625)"/>
      <use xlink:href="#DejaVuSans-Oblique-64" transform="translate(214.306641 0.015625)"/>
      <use xlink:href="#DejaVuSans-2f" transform="translate(277.783203 0.015625)"/>
      <use xlink:href="#DejaVuSans-Oblique-73" transform="translate(311.474609 0.015625)"/>
      <use xlink:href="#DejaVuSans-5d" transform="translate(363.574219 0.015625)"/>
     </g>
    </g>
   </g>
   <g id="matplotlib.axis_6">
    <g id="ytick_7">
     <g id="line2d_82">
      <path d="M 47.857271 284.986026 
L 515.39976 284.986026 
" clip-path="url(#p37f841a579)" style="fill: none; stroke: #b0b0b0; stroke-width: 0.8; stroke-linecap: round"/>
     </g>
     <g id="line2d_83"/>
     <g id="text_22">
      <!-- 0 -->
      <g style="fill: #262626" transform="translate(37.358521 289.165166) scale(0.11 -0.11)">
       <use xlink:href="#DejaVuSerif-30"/>
      </g>
     </g>
    </g>
    <g id="ytick_8">
     <g id="line2d_84">
      <path d="M 47.857271 253.124685 
L 515.39976 253.124685 
" clip-path="url(#p37f841a579)" style="fill: none; stroke: #b0b0b0; stroke-width: 0.8; stroke-linecap: round"/>
     </g>
     <g id="line2d_85"/>
     <g id="text_23">
      <!-- 20 -->
      <g style="fill: #262626" transform="translate(30.359771 257.303826) scale(0.11 -0.11)">
       <use xlink:href="#DejaVuSerif-32"/>
       <use xlink:href="#DejaVuSerif-30" x="63.623047"/>
      </g>
     </g>
    </g>
    <g id="ytick_9">
     <g id="line2d_86">
      <path d="M 47.857271 221.263344 
L 515.39976 221.263344 
" clip-path="url(#p37f841a579)" style="fill: none; stroke: #b0b0b0; stroke-width: 0.8; stroke-linecap: round"/>
     </g>
     <g id="line2d_87"/>
     <g id="text_24">
      <!-- 40 -->
      <g style="fill: #262626" transform="translate(30.359771 225.442485) scale(0.11 -0.11)">
       <use xlink:href="#DejaVuSerif-34"/>
       <use xlink:href="#DejaVuSerif-30" x="63.623047"/>
      </g>
     </g>
    </g>
    <g id="text_25">
     <!-- $N$ $[Nm]$ -->
     <g style="fill: #262626" transform="translate(24.072115 283.641771) rotate(-90) scale(0.11 -0.11)">
      <defs>
       <path id="DejaVuSans-Oblique-6d" d="M 5747 2113 
L 5338 0 
L 4763 0 
L 5166 2094 
Q 5191 2228 5203 2325 
Q 5216 2422 5216 2491 
Q 5216 2772 5059 2928 
Q 4903 3084 4622 3084 
Q 4203 3084 3875 2770 
Q 3547 2456 3450 1953 
L 3066 0 
L 2491 0 
L 2900 2094 
Q 2925 2209 2937 2307 
Q 2950 2406 2950 2484 
Q 2950 2769 2794 2926 
Q 2638 3084 2363 3084 
Q 1938 3084 1609 2770 
Q 1281 2456 1184 1953 
L 800 0 
L 225 0 
L 909 3500 
L 1484 3500 
L 1375 2956 
Q 1609 3263 1923 3423 
Q 2238 3584 2597 3584 
Q 2978 3584 3223 3384 
Q 3469 3184 3519 2828 
Q 3781 3197 4126 3390 
Q 4472 3584 4856 3584 
Q 5306 3584 5551 3325 
Q 5797 3066 5797 2591 
Q 5797 2488 5784 2364 
Q 5772 2241 5747 2113 
z
" transform="scale(0.015625)"/>
      </defs>
      <use xlink:href="#DejaVuSans-Oblique-4e" transform="translate(0 0.015625)"/>
      <use xlink:href="#DejaVuSerif-20" transform="translate(74.804688 0.015625)"/>
      <use xlink:href="#DejaVuSans-5b" transform="translate(106.591797 0.015625)"/>
      <use xlink:href="#DejaVuSans-Oblique-4e" transform="translate(145.605469 0.015625)"/>
      <use xlink:href="#DejaVuSans-Oblique-6d" transform="translate(220.410156 0.015625)"/>
      <use xlink:href="#DejaVuSans-5d" transform="translate(317.822266 0.015625)"/>
     </g>
    </g>
   </g>
   <g id="line2d_88">
    <g clip-path="url(#p37f841a579)">
     <use xlink:href="#m62b9920af2" x="69.109203" y="214.205657" style="fill: #ff0000; stroke: #ff0000"/>
     <use xlink:href="#m62b9920af2" x="239.124653" y="235.654494" style="fill: #ff0000; stroke: #ff0000"/>
     <use xlink:href="#m62b9920af2" x="494.147829" y="263.586586" style="fill: #ff0000; stroke: #ff0000"/>
    </g>
   </g>
   <g id="line2d_89">
    <g clip-path="url(#p37f841a579)">
     <use xlink:href="#mb901fe045c" x="69.109203" y="253.987228" style="fill: #008000; stroke: #008000"/>
     <use xlink:href="#mb901fe045c" x="239.124653" y="264.432043" style="fill: #008000; stroke: #008000"/>
     <use xlink:href="#mb901fe045c" x="494.147829" y="276.89678" style="fill: #008000; stroke: #008000"/>
    </g>
   </g>
   <g id="line2d_90">
    <g clip-path="url(#p37f841a579)">
     <use xlink:href="#mcc9cb67be2" x="69.109203" y="245.204454" style="fill: #0000ff; stroke: #0000ff"/>
     <use xlink:href="#mcc9cb67be2" x="239.124653" y="256.208476" style="fill: #0000ff; stroke: #0000ff"/>
     <use xlink:href="#mcc9cb67be2" x="494.147829" y="271.675832" style="fill: #0000ff; stroke: #0000ff"/>
    </g>
   </g>
   <g id="line2d_91">
    <path d="M 69.109203 214.219457 
L 239.124653 234.341525 
L 494.147829 261.017822 
" clip-path="url(#p37f841a579)" style="fill: none; stroke: #ff0000; stroke-width: 1.5; stroke-linecap: round"/>
   </g>
   <g id="line2d_92">
    <path d="M 69.109203 255.770765 
L 239.124653 263.344541 
L 494.147829 274.315685 
" clip-path="url(#p37f841a579)" style="fill: none; stroke: #008000; stroke-width: 1.5; stroke-linecap: round"/>
   </g>
   <g id="line2d_93">
    <path d="M 69.109203 243.434718 
L 239.124653 255.983009 
L 494.147829 271.688163 
" clip-path="url(#p37f841a579)" style="fill: none; stroke: #0000ff; stroke-width: 1.5; stroke-linecap: round"/>
   </g>
   <g id="patch_9">
    <path d="M 47.857271 313.807885 
L 47.857271 214.205657 
" style="fill: none; stroke: #000000; stroke-linejoin: miter; stroke-linecap: square"/>
   </g>
   <g id="patch_10">
    <path d="M 47.857271 313.807885 
L 515.39976 313.807885 
" style="fill: none; stroke: #000000; stroke-linejoin: miter; stroke-linecap: square"/>
   </g>
  </g>
 </g>
 <defs>
  <clipPath id="p7624f0f32b">
   <rect x="47.857271" y="3.00024" width="467.542489" height="99.602228"/>
  </clipPath>
  <clipPath id="p3b3ea0a09e">
   <rect x="47.857271" y="108.602948" width="467.542489" height="99.602228"/>
  </clipPath>
  <clipPath id="p37f841a579">
   <rect x="47.857271" y="214.205657" width="467.542489" height="99.602228"/>
  </clipPath>
 </defs>
</svg>
