<?xml version="1.0" encoding="utf-8" standalone="no"?>
<!DOCTYPE svg PUBLIC "-//W3C//DTD SVG 1.1//EN"
  "http://www.w3.org/Graphics/SVG/1.1/DTD/svg11.dtd">
<svg xmlns:xlink="http://www.w3.org/1999/xlink" width="194.30964pt" height="109.311552pt" viewBox="0 0 194.30964 109.311552" xmlns="http://www.w3.org/2000/svg" version="1.1">
 <metadata>
  <rdf:RDF xmlns:dc="http://purl.org/dc/elements/1.1/" xmlns:cc="http://creativecommons.org/ns#" xmlns:rdf="http://www.w3.org/1999/02/22-rdf-syntax-ns#">
   <cc:Work>
    <dc:type rdf:resource="http://purl.org/dc/dcmitype/StillImage"/>
    <dc:date>2024-02-16T10:20:54.510332</dc:date>
    <dc:format>image/svg+xml</dc:format>
    <dc:creator>
     <cc:Agent>
      <dc:title>Matplotlib v3.8.2, https://matplotlib.org/</dc:title>
     </cc:Agent>
    </dc:creator>
   </cc:Work>
  </rdf:RDF>
 </metadata>
 <defs>
  <style type="text/css">*{stroke-linejoin: round; stroke-linecap: butt}</style>
 </defs>
 <g id="figure_1">
  <g id="patch_1">
   <path d="M 0 109.311552 
L 194.30964 109.311552 
L 194.30964 0 
L 0 0 
z
" style="fill: #ffffff"/>
  </g>
  <g id="axes_1">
   <g id="patch_2">
    <path d="M 38.24649 24.465187 
L 182.690901 24.465187 
L 182.690901 3.00024 
L 38.24649 3.00024 
z
" style="fill: #ffffff"/>
   </g>
   <g id="matplotlib.axis_1">
    <g id="xtick_1">
     <g id="line2d_1">
      <path d="M 44.812145 24.465187 
L 44.812145 3.00024 
" clip-path="url(#p735110577b)" style="fill: none; stroke: #b0b0b0; stroke-width: 0.1; stroke-linecap: round"/>
     </g>
     <g id="line2d_2"/>
    </g>
    <g id="xtick_2">
     <g id="line2d_3">
      <path d="M 72.169041 24.465187 
L 72.169041 3.00024 
" clip-path="url(#p735110577b)" style="fill: none; stroke: #b0b0b0; stroke-width: 0.1; stroke-linecap: round"/>
     </g>
     <g id="line2d_4"/>
    </g>
    <g id="xtick_3">
     <g id="line2d_5">
      <path d="M 99.525937 24.465187 
L 99.525937 3.00024 
" clip-path="url(#p735110577b)" style="fill: none; stroke: #b0b0b0; stroke-width: 0.1; stroke-linecap: round"/>
     </g>
     <g id="line2d_6"/>
    </g>
    <g id="xtick_4">
     <g id="line2d_7">
      <path d="M 126.882833 24.465187 
L 126.882833 3.00024 
" clip-path="url(#p735110577b)" style="fill: none; stroke: #b0b0b0; stroke-width: 0.1; stroke-linecap: round"/>
     </g>
     <g id="line2d_8"/>
    </g>
    <g id="xtick_5">
     <g id="line2d_9">
      <path d="M 154.239729 24.465187 
L 154.239729 3.00024 
" clip-path="url(#p735110577b)" style="fill: none; stroke: #b0b0b0; stroke-width: 0.1; stroke-linecap: round"/>
     </g>
     <g id="line2d_10"/>
    </g>
    <g id="xtick_6">
     <g id="line2d_11">
      <path d="M 181.596625 24.465187 
L 181.596625 3.00024 
" clip-path="url(#p735110577b)" style="fill: none; stroke: #b0b0b0; stroke-width: 0.1; stroke-linecap: round"/>
     </g>
     <g id="line2d_12"/>
    </g>
   </g>
   <g id="matplotlib.axis_2">
    <g id="ytick_1">
     <g id="line2d_13">
      <path d="M 38.24649 21.976402 
L 182.690901 21.976402 
" clip-path="url(#p735110577b)" style="fill: none; stroke: #b0b0b0; stroke-width: 0.1; stroke-linecap: round"/>
     </g>
     <g id="line2d_14"/>
     <g id="text_1">
      <!-- −0.5 -->
      <g style="fill: #262626" transform="translate(15.32024 25.015777) scale(0.08 -0.08)">
       <defs>
        <path id="DejaVuSerif-2212" d="M 678 2259 
L 4684 2259 
L 4684 1753 
L 678 1753 
L 678 2259 
z
" transform="scale(0.015625)"/>
        <path id="DejaVuSerif-30" d="M 2034 219 
Q 2513 219 2750 744 
Q 2988 1269 2988 2328 
Q 2988 3391 2750 3916 
Q 2513 4441 2034 4441 
Q 1556 4441 1318 3916 
Q 1081 3391 1081 2328 
Q 1081 1269 1318 744 
Q 1556 219 2034 219 
z
M 2034 -91 
Q 1275 -91 848 546 
Q 422 1184 422 2328 
Q 422 3475 848 4112 
Q 1275 4750 2034 4750 
Q 2797 4750 3222 4112 
Q 3647 3475 3647 2328 
Q 3647 1184 3222 546 
Q 2797 -91 2034 -91 
z
" transform="scale(0.015625)"/>
        <path id="DejaVuSerif-2e" d="M 603 325 
Q 603 500 722 622 
Q 841 744 1019 744 
Q 1191 744 1312 622 
Q 1434 500 1434 325 
Q 1434 153 1312 31 
Q 1191 -91 1019 -91 
Q 841 -91 722 29 
Q 603 150 603 325 
z
" transform="scale(0.015625)"/>
        <path id="DejaVuSerif-35" d="M 3219 4666 
L 3219 4153 
L 1081 4153 
L 1081 2816 
Q 1244 2928 1461 2984 
Q 1678 3041 1947 3041 
Q 2703 3041 3140 2622 
Q 3578 2203 3578 1478 
Q 3578 738 3136 323 
Q 2694 -91 1894 -91 
Q 1572 -91 1234 -12 
Q 897 66 544 225 
L 544 1131 
L 897 1131 
Q 925 688 1179 453 
Q 1434 219 1894 219 
Q 2388 219 2653 544 
Q 2919 869 2919 1478 
Q 2919 2084 2655 2407 
Q 2391 2731 1894 2731 
Q 1613 2731 1398 2631 
Q 1184 2531 1019 2322 
L 750 2322 
L 750 4666 
L 3219 4666 
z
" transform="scale(0.015625)"/>
       </defs>
       <use xlink:href="#DejaVuSerif-2212"/>
       <use xlink:href="#DejaVuSerif-30" x="83.789062"/>
       <use xlink:href="#DejaVuSerif-2e" x="147.412109"/>
       <use xlink:href="#DejaVuSerif-35" x="179.199219"/>
      </g>
     </g>
    </g>
    <g id="ytick_2">
     <g id="line2d_15">
      <path d="M 38.24649 9.456195 
L 182.690901 9.456195 
" clip-path="url(#p735110577b)" style="fill: none; stroke: #b0b0b0; stroke-width: 0.1; stroke-linecap: round"/>
     </g>
     <g id="line2d_16"/>
     <g id="text_2">
      <!-- 0.0 -->
      <g style="fill: #262626" transform="translate(22.02399 12.49557) scale(0.08 -0.08)">
       <use xlink:href="#DejaVuSerif-30"/>
       <use xlink:href="#DejaVuSerif-2e" x="63.623047"/>
       <use xlink:href="#DejaVuSerif-30" x="95.410156"/>
      </g>
     </g>
    </g>
    <g id="text_3">
     <!-- ${X'}_{(\bullet)}$ -->
     <g style="fill: #262626" transform="translate(9.24024 21.732714) rotate(-90) scale(0.08 -0.08)">
      <defs>
       <path id="DejaVuSans-Oblique-58" d="M 878 4666 
L 1516 4666 
L 2316 2981 
L 3763 4666 
L 4500 4666 
L 2578 2438 
L 3738 0 
L 3103 0 
L 2163 1966 
L 459 0 
L -275 0 
L 1906 2509 
L 878 4666 
z
" transform="scale(0.015625)"/>
       <path id="Cmsy10-30" d="M 225 347 
Q 184 359 184 409 
L 966 3316 
Q 1003 3434 1093 3506 
Q 1184 3578 1300 3578 
Q 1450 3578 1564 3479 
Q 1678 3381 1678 3231 
Q 1678 3166 1644 3084 
L 488 319 
Q 466 275 428 275 
Q 394 275 320 306 
Q 247 338 225 347 
z
" transform="scale(0.015625)"/>
       <path id="DejaVuSans-28" d="M 1984 4856 
Q 1566 4138 1362 3434 
Q 1159 2731 1159 2009 
Q 1159 1288 1364 580 
Q 1569 -128 1984 -844 
L 1484 -844 
Q 1016 -109 783 600 
Q 550 1309 550 2009 
Q 550 2706 781 3412 
Q 1013 4119 1484 4856 
L 1984 4856 
z
" transform="scale(0.015625)"/>
       <path id="DejaVuSans-2219" d="M 1075 2006 
Q 1075 2394 1345 2661 
Q 1616 2928 2009 2928 
Q 2397 2928 2664 2661 
Q 2931 2394 2931 2006 
Q 2931 1616 2662 1347 
Q 2394 1078 2003 1078 
Q 1613 1078 1344 1347 
Q 1075 1616 1075 2006 
z
" transform="scale(0.015625)"/>
       <path id="DejaVuSans-29" d="M 513 4856 
L 1013 4856 
Q 1481 4119 1714 3412 
Q 1947 2706 1947 2009 
Q 1947 1309 1714 600 
Q 1481 -109 1013 -844 
L 513 -844 
Q 928 -128 1133 580 
Q 1338 1288 1338 2009 
Q 1338 2731 1133 3434 
Q 928 4138 513 4856 
z
" transform="scale(0.015625)"/>
      </defs>
      <use xlink:href="#DejaVuSans-Oblique-58" transform="translate(0 0.584375)"/>
      <use xlink:href="#Cmsy10-30" transform="translate(75.52263 38.865625) scale(0.7)"/>
      <use xlink:href="#DejaVuSans-28" transform="translate(98.457201 -15.821875) scale(0.7)"/>
      <use xlink:href="#DejaVuSans-2219" transform="translate(125.766771 -15.821875) scale(0.7)"/>
      <use xlink:href="#DejaVuSans-29" transform="translate(169.58513 -15.821875) scale(0.7)"/>
     </g>
    </g>
   </g>
   <g id="line2d_17">
    <defs>
     <path id="ma6b3094122" d="M -2 2 
L 2 -2 
M -2 -2 
L 2 2 
" style="stroke: #ff0000"/>
    </defs>
    <g clip-path="url(#p735110577b)">
     <use xlink:href="#ma6b3094122" x="44.812145" y="14.194267" style="fill: #ff0000; stroke: #ff0000"/>
     <use xlink:href="#ma6b3094122" x="99.525937" y="11.514815" style="fill: #ff0000; stroke: #ff0000"/>
     <use xlink:href="#ma6b3094122" x="143.296971" y="10.199184" style="fill: #ff0000; stroke: #ff0000"/>
     <use xlink:href="#ma6b3094122" x="176.125246" y="9.682938" style="fill: #ff0000; stroke: #ff0000"/>
    </g>
   </g>
   <g id="line2d_18">
    <defs>
     <path id="m6ca1a6317e" d="M -2 2 
L 2 -2 
M -2 -2 
L 2 2 
" style="stroke: #008000"/>
    </defs>
    <g clip-path="url(#p735110577b)">
     <use xlink:href="#m6ca1a6317e" x="44.812145" y="23.162331" style="fill: #008000; stroke: #008000"/>
     <use xlink:href="#m6ca1a6317e" x="99.525937" y="23.298742" style="fill: #008000; stroke: #008000"/>
     <use xlink:href="#m6ca1a6317e" x="143.296971" y="23.383104" style="fill: #008000; stroke: #008000"/>
     <use xlink:href="#m6ca1a6317e" x="176.125246" y="23.362166" style="fill: #008000; stroke: #008000"/>
    </g>
   </g>
   <g id="line2d_19">
    <defs>
     <path id="md8fa012b57" d="M -2 2 
L 2 -2 
M -2 -2 
L 2 2 
" style="stroke: #0000ff"/>
    </defs>
    <g clip-path="url(#p735110577b)">
     <use xlink:href="#md8fa012b57" x="44.812145" y="17.18029" style="fill: #0000ff; stroke: #0000ff"/>
     <use xlink:href="#md8fa012b57" x="99.525937" y="14.233754" style="fill: #0000ff; stroke: #0000ff"/>
     <use xlink:href="#md8fa012b57" x="143.296971" y="12.756644" style="fill: #0000ff; stroke: #0000ff"/>
     <use xlink:href="#md8fa012b57" x="176.125246" y="12.226833" style="fill: #0000ff; stroke: #0000ff"/>
    </g>
   </g>
   <g id="line2d_20">
    <path d="M 44.812145 13.215908 
L 99.525937 10.536756 
L 143.296971 9.307009 
L 176.125246 8.829358 
" clip-path="url(#p735110577b)" style="fill: none; stroke: #ff0000; stroke-width: 0.75; stroke-linecap: round"/>
   </g>
   <g id="line2d_21">
    <path d="M 44.812145 23.347998 
L 99.525937 23.347998 
L 143.296971 23.347998 
L 176.125246 23.347998 
" clip-path="url(#p735110577b)" style="fill: none; stroke: #008000; stroke-width: 0.75; stroke-linecap: round"/>
   </g>
   <g id="line2d_22">
    <path d="M 44.812145 16.870743 
L 99.525937 14.05423 
L 143.296971 12.743419 
L 176.125246 12.229497 
" clip-path="url(#p735110577b)" style="fill: none; stroke: #0000ff; stroke-width: 0.75; stroke-linecap: round"/>
   </g>
   <g id="patch_3">
    <path d="M 38.24649 24.465187 
L 38.24649 3.00024 
" style="fill: none; stroke: #000000; stroke-linejoin: miter; stroke-linecap: square"/>
   </g>
   <g id="patch_4">
    <path d="M 38.24649 24.465187 
L 182.690901 24.465187 
" style="fill: none; stroke: #000000; stroke-linejoin: miter; stroke-linecap: square"/>
   </g>
  </g>
  <g id="axes_2">
   <g id="patch_5">
    <path d="M 38.24649 55.843385 
L 182.690901 55.843385 
L 182.690901 34.378438 
L 38.24649 34.378438 
z
" style="fill: #ffffff"/>
   </g>
   <g id="matplotlib.axis_3">
    <g id="xtick_7">
     <g id="line2d_23">
      <path d="M 44.812145 55.843385 
L 44.812145 34.378438 
" clip-path="url(#p3609a707fd)" style="fill: none; stroke: #b0b0b0; stroke-width: 0.1; stroke-linecap: round"/>
     </g>
     <g id="line2d_24"/>
    </g>
    <g id="xtick_8">
     <g id="line2d_25">
      <path d="M 72.169041 55.843385 
L 72.169041 34.378438 
" clip-path="url(#p3609a707fd)" style="fill: none; stroke: #b0b0b0; stroke-width: 0.1; stroke-linecap: round"/>
     </g>
     <g id="line2d_26"/>
    </g>
    <g id="xtick_9">
     <g id="line2d_27">
      <path d="M 99.525937 55.843385 
L 99.525937 34.378438 
" clip-path="url(#p3609a707fd)" style="fill: none; stroke: #b0b0b0; stroke-width: 0.1; stroke-linecap: round"/>
     </g>
     <g id="line2d_28"/>
    </g>
    <g id="xtick_10">
     <g id="line2d_29">
      <path d="M 126.882833 55.843385 
L 126.882833 34.378438 
" clip-path="url(#p3609a707fd)" style="fill: none; stroke: #b0b0b0; stroke-width: 0.1; stroke-linecap: round"/>
     </g>
     <g id="line2d_30"/>
    </g>
    <g id="xtick_11">
     <g id="line2d_31">
      <path d="M 154.239729 55.843385 
L 154.239729 34.378438 
" clip-path="url(#p3609a707fd)" style="fill: none; stroke: #b0b0b0; stroke-width: 0.1; stroke-linecap: round"/>
     </g>
     <g id="line2d_32"/>
    </g>
    <g id="xtick_12">
     <g id="line2d_33">
      <path d="M 181.596625 55.843385 
L 181.596625 34.378438 
" clip-path="url(#p3609a707fd)" style="fill: none; stroke: #b0b0b0; stroke-width: 0.1; stroke-linecap: round"/>
     </g>
     <g id="line2d_34"/>
    </g>
   </g>
   <g id="matplotlib.axis_4">
    <g id="ytick_3">
     <g id="line2d_35">
      <path d="M 38.24649 47.813548 
L 182.690901 47.813548 
" clip-path="url(#p3609a707fd)" style="fill: none; stroke: #b0b0b0; stroke-width: 0.1; stroke-linecap: round"/>
     </g>
     <g id="line2d_36"/>
     <g id="text_4">
      <!-- 0 -->
      <g style="fill: #262626" transform="translate(29.65649 50.852923) scale(0.08 -0.08)">
       <use xlink:href="#DejaVuSerif-30"/>
      </g>
     </g>
    </g>
    <g id="ytick_4">
     <g id="line2d_37">
      <path d="M 38.24649 35.686962 
L 182.690901 35.686962 
" clip-path="url(#p3609a707fd)" style="fill: none; stroke: #b0b0b0; stroke-width: 0.1; stroke-linecap: round"/>
     </g>
     <g id="line2d_38"/>
     <g id="text_5">
      <!-- 2 -->
      <g style="fill: #262626" transform="translate(29.65649 38.726337) scale(0.08 -0.08)">
       <defs>
        <path id="DejaVuSerif-32" d="M 819 3553 
L 469 3553 
L 469 4384 
Q 803 4563 1142 4656 
Q 1481 4750 1806 4750 
Q 2534 4750 2956 4397 
Q 3378 4044 3378 3438 
Q 3378 2753 2422 1800 
Q 2347 1728 2309 1691 
L 1131 513 
L 3078 513 
L 3078 1088 
L 3444 1088 
L 3444 0 
L 434 0 
L 434 341 
L 1850 1753 
Q 2319 2222 2519 2614 
Q 2719 3006 2719 3438 
Q 2719 3909 2473 4175 
Q 2228 4441 1797 4441 
Q 1350 4441 1106 4219 
Q 863 3997 819 3553 
z
" transform="scale(0.015625)"/>
       </defs>
       <use xlink:href="#DejaVuSerif-32"/>
      </g>
     </g>
    </g>
    <g id="text_6">
     <!-- ${Y'}_{(\bullet)}$ -->
     <g style="fill: #262626" transform="translate(9.24024 52.830911) rotate(-90) scale(0.08 -0.08)">
      <defs>
       <path id="DejaVuSans-Oblique-59" d="M 403 4666 
L 1081 4666 
L 1953 2747 
L 3616 4666 
L 4325 4666 
L 2209 2222 
L 1778 0 
L 1147 0 
L 1575 2222 
L 403 4666 
z
" transform="scale(0.015625)"/>
      </defs>
      <use xlink:href="#DejaVuSans-Oblique-59" transform="translate(0 0.584375)"/>
      <use xlink:href="#Cmsy10-30" transform="translate(68.100755 38.865625) scale(0.7)"/>
      <use xlink:href="#DejaVuSans-28" transform="translate(91.035326 -15.821875) scale(0.7)"/>
      <use xlink:href="#DejaVuSans-2219" transform="translate(118.344896 -15.821875) scale(0.7)"/>
      <use xlink:href="#DejaVuSans-29" transform="translate(162.163255 -15.821875) scale(0.7)"/>
     </g>
    </g>
   </g>
   <g id="line2d_39">
    <g clip-path="url(#p3609a707fd)">
     <use xlink:href="#ma6b3094122" x="44.812145" y="55.843385" style="fill: #ff0000; stroke: #ff0000"/>
     <use xlink:href="#ma6b3094122" x="99.525937" y="52.904092" style="fill: #ff0000; stroke: #ff0000"/>
     <use xlink:href="#ma6b3094122" x="143.296971" y="50.774719" style="fill: #ff0000; stroke: #ff0000"/>
     <use xlink:href="#ma6b3094122" x="176.125246" y="49.274098" style="fill: #ff0000; stroke: #ff0000"/>
    </g>
   </g>
   <g id="line2d_40">
    <g clip-path="url(#p3609a707fd)">
     <use xlink:href="#m6ca1a6317e" x="44.812145" y="48.708166" style="fill: #008000; stroke: #008000"/>
     <use xlink:href="#m6ca1a6317e" x="99.525937" y="48.40507" style="fill: #008000; stroke: #008000"/>
     <use xlink:href="#m6ca1a6317e" x="143.296971" y="48.173038" style="fill: #008000; stroke: #008000"/>
     <use xlink:href="#m6ca1a6317e" x="176.125246" y="47.988685" style="fill: #008000; stroke: #008000"/>
    </g>
   </g>
   <g id="line2d_41">
    <g clip-path="url(#p3609a707fd)">
     <use xlink:href="#md8fa012b57" x="44.812145" y="54.948768" style="fill: #0000ff; stroke: #0000ff"/>
     <use xlink:href="#md8fa012b57" x="99.525937" y="52.312571" style="fill: #0000ff; stroke: #0000ff"/>
     <use xlink:href="#md8fa012b57" x="143.296971" y="50.415229" style="fill: #0000ff; stroke: #0000ff"/>
     <use xlink:href="#md8fa012b57" x="176.125246" y="49.098962" style="fill: #0000ff; stroke: #0000ff"/>
    </g>
   </g>
   <g id="line2d_42">
    <path d="M 44.812145 55.758082 
L 99.525937 52.920176 
L 143.296971 50.793521 
L 176.125246 49.280877 
" clip-path="url(#p3609a707fd)" style="fill: none; stroke: #ff0000; stroke-width: 0.75; stroke-linecap: round"/>
   </g>
   <g id="line2d_43">
    <path d="M 44.812145 48.716588 
L 99.525937 48.394009 
L 143.296971 48.152276 
L 176.125246 47.980337 
" clip-path="url(#p3609a707fd)" style="fill: none; stroke: #008000; stroke-width: 0.75; stroke-linecap: round"/>
   </g>
   <g id="line2d_44">
    <path d="M 44.812145 54.855042 
L 99.525937 52.339716 
L 143.296971 50.454793 
L 176.125246 49.114088 
" clip-path="url(#p3609a707fd)" style="fill: none; stroke: #0000ff; stroke-width: 0.75; stroke-linecap: round"/>
   </g>
   <g id="patch_6">
    <path d="M 38.24649 55.843385 
L 38.24649 34.378438 
" style="fill: none; stroke: #000000; stroke-linejoin: miter; stroke-linecap: square"/>
   </g>
   <g id="patch_7">
    <path d="M 38.24649 55.843385 
L 182.690901 55.843385 
" style="fill: none; stroke: #000000; stroke-linejoin: miter; stroke-linecap: square"/>
   </g>
  </g>
  <g id="axes_3">
   <g id="patch_8">
    <path d="M 38.24649 83.308812 
L 182.690901 83.308812 
L 182.690901 61.843865 
L 38.24649 61.843865 
z
" style="fill: #ffffff"/>
   </g>
   <g id="matplotlib.axis_5">
    <g id="xtick_13">
     <g id="line2d_45">
      <path d="M 44.812145 83.308812 
L 44.812145 61.843865 
" clip-path="url(#p33f2ba09a0)" style="fill: none; stroke: #b0b0b0; stroke-width: 0.1; stroke-linecap: round"/>
     </g>
     <g id="line2d_46"/>
     <g id="text_7">
      <!-- −15.0 -->
      <g style="fill: #262626" transform="translate(32.55402 92.887562) scale(0.08 -0.08)">
       <defs>
        <path id="DejaVuSerif-31" d="M 909 0 
L 909 331 
L 1722 331 
L 1722 4213 
L 781 3603 
L 781 4013 
L 1919 4750 
L 2350 4750 
L 2350 331 
L 3163 331 
L 3163 0 
L 909 0 
z
" transform="scale(0.015625)"/>
       </defs>
       <use xlink:href="#DejaVuSerif-2212"/>
       <use xlink:href="#DejaVuSerif-31" x="83.789062"/>
       <use xlink:href="#DejaVuSerif-35" x="147.412109"/>
       <use xlink:href="#DejaVuSerif-2e" x="211.035156"/>
       <use xlink:href="#DejaVuSerif-30" x="242.822266"/>
      </g>
     </g>
    </g>
    <g id="xtick_14">
     <g id="line2d_47">
      <path d="M 72.169041 83.308812 
L 72.169041 61.843865 
" clip-path="url(#p33f2ba09a0)" style="fill: none; stroke: #b0b0b0; stroke-width: 0.1; stroke-linecap: round"/>
     </g>
     <g id="line2d_48"/>
     <g id="text_8">
      <!-- −12.5 -->
      <g style="fill: #262626" transform="translate(59.910916 92.887562) scale(0.08 -0.08)">
       <use xlink:href="#DejaVuSerif-2212"/>
       <use xlink:href="#DejaVuSerif-31" x="83.789062"/>
       <use xlink:href="#DejaVuSerif-32" x="147.412109"/>
       <use xlink:href="#DejaVuSerif-2e" x="211.035156"/>
       <use xlink:href="#DejaVuSerif-35" x="242.822266"/>
      </g>
     </g>
    </g>
    <g id="xtick_15">
     <g id="line2d_49">
      <path d="M 99.525937 83.308812 
L 99.525937 61.843865 
" clip-path="url(#p33f2ba09a0)" style="fill: none; stroke: #b0b0b0; stroke-width: 0.1; stroke-linecap: round"/>
     </g>
     <g id="line2d_50"/>
     <g id="text_9">
      <!-- −10.0 -->
      <g style="fill: #262626" transform="translate(87.267812 92.887562) scale(0.08 -0.08)">
       <use xlink:href="#DejaVuSerif-2212"/>
       <use xlink:href="#DejaVuSerif-31" x="83.789062"/>
       <use xlink:href="#DejaVuSerif-30" x="147.412109"/>
       <use xlink:href="#DejaVuSerif-2e" x="211.035156"/>
       <use xlink:href="#DejaVuSerif-30" x="242.822266"/>
      </g>
     </g>
    </g>
    <g id="xtick_16">
     <g id="line2d_51">
      <path d="M 126.882833 83.308812 
L 126.882833 61.843865 
" clip-path="url(#p33f2ba09a0)" style="fill: none; stroke: #b0b0b0; stroke-width: 0.1; stroke-linecap: round"/>
     </g>
     <g id="line2d_52"/>
     <g id="text_10">
      <!-- −7.5 -->
      <g style="fill: #262626" transform="translate(117.169708 92.887562) scale(0.08 -0.08)">
       <defs>
        <path id="DejaVuSerif-37" d="M 3609 4347 
L 1784 0 
L 1319 0 
L 3059 4153 
L 903 4153 
L 903 3578 
L 538 3578 
L 538 4666 
L 3609 4666 
L 3609 4347 
z
" transform="scale(0.015625)"/>
       </defs>
       <use xlink:href="#DejaVuSerif-2212"/>
       <use xlink:href="#DejaVuSerif-37" x="83.789062"/>
       <use xlink:href="#DejaVuSerif-2e" x="147.412109"/>
       <use xlink:href="#DejaVuSerif-35" x="179.199219"/>
      </g>
     </g>
    </g>
    <g id="xtick_17">
     <g id="line2d_53">
      <path d="M 154.239729 83.308812 
L 154.239729 61.843865 
" clip-path="url(#p33f2ba09a0)" style="fill: none; stroke: #b0b0b0; stroke-width: 0.1; stroke-linecap: round"/>
     </g>
     <g id="line2d_54"/>
     <g id="text_11">
      <!-- −5.0 -->
      <g style="fill: #262626" transform="translate(144.526604 92.887562) scale(0.08 -0.08)">
       <use xlink:href="#DejaVuSerif-2212"/>
       <use xlink:href="#DejaVuSerif-35" x="83.789062"/>
       <use xlink:href="#DejaVuSerif-2e" x="147.412109"/>
       <use xlink:href="#DejaVuSerif-30" x="179.199219"/>
      </g>
     </g>
    </g>
    <g id="xtick_18">
     <g id="line2d_55">
      <path d="M 181.596625 83.308812 
L 181.596625 61.843865 
" clip-path="url(#p33f2ba09a0)" style="fill: none; stroke: #b0b0b0; stroke-width: 0.1; stroke-linecap: round"/>
     </g>
     <g id="line2d_56"/>
     <g id="text_12">
      <!-- −2.5 -->
      <g style="fill: #262626" transform="translate(171.8835 92.887562) scale(0.08 -0.08)">
       <use xlink:href="#DejaVuSerif-2212"/>
       <use xlink:href="#DejaVuSerif-32" x="83.789062"/>
       <use xlink:href="#DejaVuSerif-2e" x="147.412109"/>
       <use xlink:href="#DejaVuSerif-35" x="179.199219"/>
      </g>
     </g>
    </g>
    <g id="text_13">
     <!-- $\delta$ $[deg]$ -->
     <g style="fill: #262626" transform="translate(96.068695 104.631312) scale(0.08 -0.08)">
      <defs>
       <path id="DejaVuSans-Oblique-3b4" d="M 3472 4053 
Q 3197 4272 2450 4272 
Q 1659 4272 1588 3906 
Q 1531 3619 2328 3469 
Q 2953 3353 3253 3003 
Q 3616 2581 3447 1716 
Q 3284 888 2763 400 
Q 2238 -91 1488 -91 
Q 741 -91 406 400 
Q 72 888 241 1747 
Q 363 2384 891 2900 
Q 1097 3100 1353 3213 
Q 913 3459 1000 3900 
Q 1166 4750 2544 4750 
Q 3234 4750 3566 4531 
L 3472 4053 
z
M 1753 3056 
Q 1525 2966 1306 2738 
Q 969 2384 847 1747 
Q 722 1113 919 756 
Q 1119 397 1584 397 
Q 2044 397 2381 759 
Q 2722 1122 2838 1716 
Q 2956 2338 2731 2638 
Q 2491 2959 2103 2994 
Q 1906 3013 1753 3056 
z
" transform="scale(0.015625)"/>
       <path id="DejaVuSerif-20" transform="scale(0.015625)"/>
       <path id="DejaVuSans-5b" d="M 550 4863 
L 1875 4863 
L 1875 4416 
L 1125 4416 
L 1125 -397 
L 1875 -397 
L 1875 -844 
L 550 -844 
L 550 4863 
z
" transform="scale(0.015625)"/>
       <path id="DejaVuSans-Oblique-64" d="M 2675 525 
Q 2444 222 2128 65 
Q 1813 -91 1428 -91 
Q 903 -91 598 267 
Q 294 625 294 1247 
Q 294 1766 478 2236 
Q 663 2706 1013 3078 
Q 1244 3325 1534 3454 
Q 1825 3584 2144 3584 
Q 2481 3584 2739 3421 
Q 2997 3259 3138 2956 
L 3513 4863 
L 4091 4863 
L 3144 0 
L 2566 0 
L 2675 525 
z
M 891 1350 
Q 891 897 1095 644 
Q 1300 391 1663 391 
Q 1931 391 2161 520 
Q 2391 650 2566 903 
Q 2750 1166 2856 1509 
Q 2963 1853 2963 2188 
Q 2963 2622 2758 2865 
Q 2553 3109 2194 3109 
Q 1922 3109 1687 2981 
Q 1453 2853 1288 2613 
Q 1106 2353 998 2009 
Q 891 1666 891 1350 
z
" transform="scale(0.015625)"/>
       <path id="DejaVuSans-Oblique-65" d="M 3078 2063 
Q 3088 2113 3092 2166 
Q 3097 2219 3097 2272 
Q 3097 2653 2873 2875 
Q 2650 3097 2266 3097 
Q 1838 3097 1509 2826 
Q 1181 2556 1013 2059 
L 3078 2063 
z
M 3578 1613 
L 903 1613 
Q 884 1494 878 1425 
Q 872 1356 872 1306 
Q 872 872 1139 634 
Q 1406 397 1894 397 
Q 2269 397 2603 481 
Q 2938 566 3225 728 
L 3116 159 
Q 2806 34 2476 -28 
Q 2147 -91 1806 -91 
Q 1078 -91 686 257 
Q 294 606 294 1247 
Q 294 1794 489 2264 
Q 684 2734 1063 3103 
Q 1306 3334 1642 3459 
Q 1978 3584 2356 3584 
Q 2950 3584 3301 3228 
Q 3653 2872 3653 2272 
Q 3653 2128 3634 1964 
Q 3616 1800 3578 1613 
z
" transform="scale(0.015625)"/>
       <path id="DejaVuSans-Oblique-67" d="M 3816 3500 
L 3219 434 
Q 3047 -456 2561 -893 
Q 2075 -1331 1253 -1331 
Q 950 -1331 690 -1286 
Q 431 -1241 206 -1147 
L 313 -588 
Q 525 -725 762 -790 
Q 1000 -856 1269 -856 
Q 1816 -856 2167 -557 
Q 2519 -259 2631 300 
L 2681 563 
Q 2441 288 2122 144 
Q 1803 0 1434 0 
Q 903 0 598 351 
Q 294 703 294 1319 
Q 294 1803 478 2267 
Q 663 2731 997 3091 
Q 1219 3328 1514 3456 
Q 1809 3584 2131 3584 
Q 2484 3584 2746 3420 
Q 3009 3256 3138 2956 
L 3238 3500 
L 3816 3500 
z
M 2950 2216 
Q 2950 2641 2750 2872 
Q 2550 3103 2181 3103 
Q 1953 3103 1747 3012 
Q 1541 2922 1394 2759 
Q 1156 2491 1023 2127 
Q 891 1763 891 1375 
Q 891 944 1092 712 
Q 1294 481 1672 481 
Q 2219 481 2584 976 
Q 2950 1472 2950 2216 
z
" transform="scale(0.015625)"/>
       <path id="DejaVuSans-5d" d="M 1947 4863 
L 1947 -844 
L 622 -844 
L 622 -397 
L 1369 -397 
L 1369 4416 
L 622 4416 
L 622 4863 
L 1947 4863 
z
" transform="scale(0.015625)"/>
      </defs>
      <use xlink:href="#DejaVuSans-Oblique-3b4" transform="translate(0 0.015625)"/>
      <use xlink:href="#DejaVuSerif-20" transform="translate(61.181641 0.015625)"/>
      <use xlink:href="#DejaVuSans-5b" transform="translate(92.96875 0.015625)"/>
      <use xlink:href="#DejaVuSans-Oblique-64" transform="translate(131.982422 0.015625)"/>
      <use xlink:href="#DejaVuSans-Oblique-65" transform="translate(195.458984 0.015625)"/>
      <use xlink:href="#DejaVuSans-Oblique-67" transform="translate(256.982422 0.015625)"/>
      <use xlink:href="#DejaVuSans-5d" transform="translate(320.458984 0.015625)"/>
     </g>
    </g>
   </g>
   <g id="matplotlib.axis_6">
    <g id="ytick_5">
     <g id="line2d_57">
      <path d="M 38.24649 77.097508 
L 182.690901 77.097508 
" clip-path="url(#p33f2ba09a0)" style="fill: none; stroke: #b0b0b0; stroke-width: 0.1; stroke-linecap: round"/>
     </g>
     <g id="line2d_58"/>
     <g id="text_14">
      <!-- 0.0 -->
      <g style="fill: #262626" transform="translate(22.02399 80.136883) scale(0.08 -0.08)">
       <use xlink:href="#DejaVuSerif-30"/>
       <use xlink:href="#DejaVuSerif-2e" x="63.623047"/>
       <use xlink:href="#DejaVuSerif-30" x="95.410156"/>
      </g>
     </g>
    </g>
    <g id="ytick_6">
     <g id="line2d_59">
      <path d="M 38.24649 67.086534 
L 182.690901 67.086534 
" clip-path="url(#p33f2ba09a0)" style="fill: none; stroke: #b0b0b0; stroke-width: 0.1; stroke-linecap: round"/>
     </g>
     <g id="line2d_60"/>
     <g id="text_15">
      <!-- 0.5 -->
      <g style="fill: #262626" transform="translate(22.02399 70.125909) scale(0.08 -0.08)">
       <use xlink:href="#DejaVuSerif-30"/>
       <use xlink:href="#DejaVuSerif-2e" x="63.623047"/>
       <use xlink:href="#DejaVuSerif-35" x="95.410156"/>
      </g>
     </g>
    </g>
    <g id="text_16">
     <!-- ${N'}_{(\bullet)}$ -->
     <g style="fill: #262626" transform="translate(9.24024 80.816338) rotate(-90) scale(0.08 -0.08)">
      <defs>
       <path id="DejaVuSans-Oblique-4e" d="M 1081 4666 
L 1931 4666 
L 3219 666 
L 4000 4666 
L 4616 4666 
L 3706 0 
L 2853 0 
L 1569 4025 
L 788 0 
L 172 0 
L 1081 4666 
z
" transform="scale(0.015625)"/>
      </defs>
      <use xlink:href="#DejaVuSans-Oblique-4e" transform="translate(0 0.584375)"/>
      <use xlink:href="#Cmsy10-30" transform="translate(81.821458 38.865625) scale(0.7)"/>
      <use xlink:href="#DejaVuSans-28" transform="translate(104.756029 -15.821875) scale(0.7)"/>
      <use xlink:href="#DejaVuSans-2219" transform="translate(132.065599 -15.821875) scale(0.7)"/>
      <use xlink:href="#DejaVuSans-29" transform="translate(175.883958 -15.821875) scale(0.7)"/>
     </g>
    </g>
   </g>
   <g id="line2d_61">
    <g clip-path="url(#p33f2ba09a0)">
     <use xlink:href="#ma6b3094122" x="44.812145" y="64.301065" style="fill: #ff0000; stroke: #ff0000"/>
     <use xlink:href="#ma6b3094122" x="99.525937" y="69.001168" style="fill: #ff0000; stroke: #ff0000"/>
     <use xlink:href="#ma6b3094122" x="143.296971" y="72.395397" style="fill: #ff0000; stroke: #ff0000"/>
     <use xlink:href="#ma6b3094122" x="176.125246" y="74.779587" style="fill: #ff0000; stroke: #ff0000"/>
    </g>
   </g>
   <g id="line2d_62">
    <g clip-path="url(#p33f2ba09a0)">
     <use xlink:href="#m6ca1a6317e" x="44.812145" y="75.69526" style="fill: #008000; stroke: #008000"/>
     <use xlink:href="#m6ca1a6317e" x="99.525937" y="76.186116" style="fill: #008000; stroke: #008000"/>
     <use xlink:href="#m6ca1a6317e" x="143.296971" y="76.548355" style="fill: #008000; stroke: #008000"/>
     <use xlink:href="#m6ca1a6317e" x="176.125246" y="76.830547" style="fill: #008000; stroke: #008000"/>
    </g>
   </g>
   <g id="line2d_63">
    <g clip-path="url(#p33f2ba09a0)">
     <use xlink:href="#md8fa012b57" x="44.812145" y="65.703313" style="fill: #0000ff; stroke: #0000ff"/>
     <use xlink:href="#md8fa012b57" x="99.525937" y="69.91256" style="fill: #0000ff; stroke: #0000ff"/>
     <use xlink:href="#md8fa012b57" x="143.296971" y="72.944551" style="fill: #0000ff; stroke: #0000ff"/>
     <use xlink:href="#md8fa012b57" x="176.125246" y="75.046548" style="fill: #0000ff; stroke: #0000ff"/>
    </g>
   </g>
   <g id="line2d_64">
    <path d="M 44.812145 64.317513 
L 99.525937 68.882718 
L 143.296971 72.303768 
L 176.125246 74.737087 
" clip-path="url(#p33f2ba09a0)" style="fill: none; stroke: #ff0000; stroke-width: 0.75; stroke-linecap: round"/>
   </g>
   <g id="line2d_65">
    <path d="M 44.812145 75.677964 
L 99.525937 76.185047 
L 143.296971 76.565041 
L 176.125246 76.835323 
" clip-path="url(#p33f2ba09a0)" style="fill: none; stroke: #008000; stroke-width: 0.75; stroke-linecap: round"/>
   </g>
   <g id="line2d_66">
    <path d="M 44.812145 65.737057 
L 99.525937 69.79518 
L 143.296971 72.836235 
L 176.125246 74.999272 
" clip-path="url(#p33f2ba09a0)" style="fill: none; stroke: #0000ff; stroke-width: 0.75; stroke-linecap: round"/>
   </g>
   <g id="patch_9">
    <path d="M 38.24649 83.308812 
L 38.24649 61.843865 
" style="fill: none; stroke: #000000; stroke-linejoin: miter; stroke-linecap: square"/>
   </g>
   <g id="patch_10">
    <path d="M 38.24649 83.308812 
L 182.690901 83.308812 
" style="fill: none; stroke: #000000; stroke-linejoin: miter; stroke-linecap: square"/>
   </g>
  </g>
 </g>
 <defs>
  <clipPath id="p735110577b">
   <rect x="38.24649" y="3.00024" width="144.444411" height="21.464947"/>
  </clipPath>
  <clipPath id="p3609a707fd">
   <rect x="38.24649" y="34.378438" width="144.444411" height="21.464947"/>
  </clipPath>
  <clipPath id="p33f2ba09a0">
   <rect x="38.24649" y="61.843865" width="144.444411" height="21.464947"/>
  </clipPath>
 </defs>
</svg>
