<?xml version="1.0" encoding="utf-8" standalone="no"?>
<!DOCTYPE svg PUBLIC "-//W3C//DTD SVG 1.1//EN"
  "http://www.w3.org/Graphics/SVG/1.1/DTD/svg11.dtd">
<svg xmlns:xlink="http://www.w3.org/1999/xlink" width="194.30964pt" height="109.311552pt" viewBox="0 0 194.30964 109.311552" xmlns="http://www.w3.org/2000/svg" version="1.1">
 <metadata>
  <rdf:RDF xmlns:dc="http://purl.org/dc/elements/1.1/" xmlns:cc="http://creativecommons.org/ns#" xmlns:rdf="http://www.w3.org/1999/02/22-rdf-syntax-ns#">
   <cc:Work>
    <dc:type rdf:resource="http://purl.org/dc/dcmitype/StillImage"/>
    <dc:date>2024-05-28T10:56:50.198097</dc:date>
    <dc:format>image/svg+xml</dc:format>
    <dc:creator>
     <cc:Agent>
      <dc:title>Matplotlib v3.8.2, https://matplotlib.org/</dc:title>
     </cc:Agent>
    </dc:creator>
   </cc:Work>
  </rdf:RDF>
 </metadata>
 <defs>
  <style type="text/css">*{stroke-linejoin: round; stroke-linecap: butt}</style>
 </defs>
 <g id="figure_1">
  <g id="patch_1">
   <path d="M 0 109.311552 
L 194.30964 109.311552 
L 194.30964 0 
L 0 0 
z
" style="fill: #ffffff"/>
  </g>
  <g id="axes_1">
   <g id="patch_2">
    <path d="M 38.24649 24.471364 
L 188.226367 24.471364 
L 188.226367 3.00024 
L 38.24649 3.00024 
z
" style="fill: #ffffff"/>
   </g>
   <g id="matplotlib.axis_1">
    <g id="xtick_1">
     <g id="line2d_1">
      <path d="M 44.488507 24.471364 
L 44.488507 3.00024 
" clip-path="url(#p64496171bb)" style="fill: none; stroke: #b0b0b0; stroke-width: 0.1; stroke-linecap: round"/>
     </g>
     <g id="line2d_2"/>
    </g>
    <g id="xtick_2">
     <g id="line2d_3">
      <path d="M 79.603489 24.471364 
L 79.603489 3.00024 
" clip-path="url(#p64496171bb)" style="fill: none; stroke: #b0b0b0; stroke-width: 0.1; stroke-linecap: round"/>
     </g>
     <g id="line2d_4"/>
    </g>
    <g id="xtick_3">
     <g id="line2d_5">
      <path d="M 114.718471 24.471364 
L 114.718471 3.00024 
" clip-path="url(#p64496171bb)" style="fill: none; stroke: #b0b0b0; stroke-width: 0.1; stroke-linecap: round"/>
     </g>
     <g id="line2d_6"/>
    </g>
    <g id="xtick_4">
     <g id="line2d_7">
      <path d="M 149.833453 24.471364 
L 149.833453 3.00024 
" clip-path="url(#p64496171bb)" style="fill: none; stroke: #b0b0b0; stroke-width: 0.1; stroke-linecap: round"/>
     </g>
     <g id="line2d_8"/>
    </g>
    <g id="xtick_5">
     <g id="line2d_9">
      <path d="M 184.948435 24.471364 
L 184.948435 3.00024 
" clip-path="url(#p64496171bb)" style="fill: none; stroke: #b0b0b0; stroke-width: 0.1; stroke-linecap: round"/>
     </g>
     <g id="line2d_10"/>
    </g>
   </g>
   <g id="matplotlib.axis_2">
    <g id="ytick_1">
     <g id="line2d_11">
      <path d="M 38.24649 21.981863 
L 188.226367 21.981863 
" clip-path="url(#p64496171bb)" style="fill: none; stroke: #b0b0b0; stroke-width: 0.1; stroke-linecap: round"/>
     </g>
     <g id="line2d_12"/>
     <g id="text_1">
      <!-- −0.5 -->
      <g style="fill: #262626" transform="translate(15.32024 25.021238) scale(0.08 -0.08)">
       <defs>
        <path id="DejaVuSerif-2212" d="M 678 2259 
L 4684 2259 
L 4684 1753 
L 678 1753 
L 678 2259 
z
" transform="scale(0.015625)"/>
        <path id="DejaVuSerif-30" d="M 2034 219 
Q 2513 219 2750 744 
Q 2988 1269 2988 2328 
Q 2988 3391 2750 3916 
Q 2513 4441 2034 4441 
Q 1556 4441 1318 3916 
Q 1081 3391 1081 2328 
Q 1081 1269 1318 744 
Q 1556 219 2034 219 
z
M 2034 -91 
Q 1275 -91 848 546 
Q 422 1184 422 2328 
Q 422 3475 848 4112 
Q 1275 4750 2034 4750 
Q 2797 4750 3222 4112 
Q 3647 3475 3647 2328 
Q 3647 1184 3222 546 
Q 2797 -91 2034 -91 
z
" transform="scale(0.015625)"/>
        <path id="DejaVuSerif-2e" d="M 603 325 
Q 603 500 722 622 
Q 841 744 1019 744 
Q 1191 744 1312 622 
Q 1434 500 1434 325 
Q 1434 153 1312 31 
Q 1191 -91 1019 -91 
Q 841 -91 722 29 
Q 603 150 603 325 
z
" transform="scale(0.015625)"/>
        <path id="DejaVuSerif-35" d="M 3219 4666 
L 3219 4153 
L 1081 4153 
L 1081 2816 
Q 1244 2928 1461 2984 
Q 1678 3041 1947 3041 
Q 2703 3041 3140 2622 
Q 3578 2203 3578 1478 
Q 3578 738 3136 323 
Q 2694 -91 1894 -91 
Q 1572 -91 1234 -12 
Q 897 66 544 225 
L 544 1131 
L 897 1131 
Q 925 688 1179 453 
Q 1434 219 1894 219 
Q 2388 219 2653 544 
Q 2919 869 2919 1478 
Q 2919 2084 2655 2407 
Q 2391 2731 1894 2731 
Q 1613 2731 1398 2631 
Q 1184 2531 1019 2322 
L 750 2322 
L 750 4666 
L 3219 4666 
z
" transform="scale(0.015625)"/>
       </defs>
       <use xlink:href="#DejaVuSerif-2212"/>
       <use xlink:href="#DejaVuSerif-30" x="83.789062"/>
       <use xlink:href="#DejaVuSerif-2e" x="147.412109"/>
       <use xlink:href="#DejaVuSerif-35" x="179.199219"/>
      </g>
     </g>
    </g>
    <g id="ytick_2">
     <g id="line2d_13">
      <path d="M 38.24649 9.458053 
L 188.226367 9.458053 
" clip-path="url(#p64496171bb)" style="fill: none; stroke: #b0b0b0; stroke-width: 0.1; stroke-linecap: round"/>
     </g>
     <g id="line2d_14"/>
     <g id="text_2">
      <!-- 0.0 -->
      <g style="fill: #262626" transform="translate(22.02399 12.497428) scale(0.08 -0.08)">
       <use xlink:href="#DejaVuSerif-30"/>
       <use xlink:href="#DejaVuSerif-2e" x="63.623047"/>
       <use xlink:href="#DejaVuSerif-30" x="95.410156"/>
      </g>
     </g>
    </g>
    <g id="text_3">
     <!-- ${X'}_{(\bullet)}$ -->
     <g style="fill: #262626" transform="translate(9.24024 21.735802) rotate(-90) scale(0.08 -0.08)">
      <defs>
       <path id="DejaVuSans-Oblique-58" d="M 878 4666 
L 1516 4666 
L 2316 2981 
L 3763 4666 
L 4500 4666 
L 2578 2438 
L 3738 0 
L 3103 0 
L 2163 1966 
L 459 0 
L -275 0 
L 1906 2509 
L 878 4666 
z
" transform="scale(0.015625)"/>
       <path id="Cmsy10-30" d="M 225 347 
Q 184 359 184 409 
L 966 3316 
Q 1003 3434 1093 3506 
Q 1184 3578 1300 3578 
Q 1450 3578 1564 3479 
Q 1678 3381 1678 3231 
Q 1678 3166 1644 3084 
L 488 319 
Q 466 275 428 275 
Q 394 275 320 306 
Q 247 338 225 347 
z
" transform="scale(0.015625)"/>
       <path id="DejaVuSans-28" d="M 1984 4856 
Q 1566 4138 1362 3434 
Q 1159 2731 1159 2009 
Q 1159 1288 1364 580 
Q 1569 -128 1984 -844 
L 1484 -844 
Q 1016 -109 783 600 
Q 550 1309 550 2009 
Q 550 2706 781 3412 
Q 1013 4119 1484 4856 
L 1984 4856 
z
" transform="scale(0.015625)"/>
       <path id="DejaVuSans-2219" d="M 1075 2006 
Q 1075 2394 1345 2661 
Q 1616 2928 2009 2928 
Q 2397 2928 2664 2661 
Q 2931 2394 2931 2006 
Q 2931 1616 2662 1347 
Q 2394 1078 2003 1078 
Q 1613 1078 1344 1347 
Q 1075 1616 1075 2006 
z
" transform="scale(0.015625)"/>
       <path id="DejaVuSans-29" d="M 513 4856 
L 1013 4856 
Q 1481 4119 1714 3412 
Q 1947 2706 1947 2009 
Q 1947 1309 1714 600 
Q 1481 -109 1013 -844 
L 513 -844 
Q 928 -128 1133 580 
Q 1338 1288 1338 2009 
Q 1338 2731 1133 3434 
Q 928 4138 513 4856 
z
" transform="scale(0.015625)"/>
      </defs>
      <use xlink:href="#DejaVuSans-Oblique-58" transform="translate(0 0.584375)"/>
      <use xlink:href="#Cmsy10-30" transform="translate(75.52263 38.865625) scale(0.7)"/>
      <use xlink:href="#DejaVuSans-28" transform="translate(98.457201 -15.821875) scale(0.7)"/>
      <use xlink:href="#DejaVuSans-2219" transform="translate(125.766771 -15.821875) scale(0.7)"/>
      <use xlink:href="#DejaVuSans-29" transform="translate(169.58513 -15.821875) scale(0.7)"/>
     </g>
    </g>
   </g>
   <g id="line2d_15">
    <path d="M 45.063757 19.71589 
L 78.550684 15.651592 
L 181.4091 3.00024 
" clip-path="url(#p64496171bb)" style="fill: none; stroke: #ff0000; stroke-width: 0.5; stroke-linecap: round"/>
   </g>
   <g id="line2d_16">
    <path d="M 45.063757 24.308177 
L 78.550684 23.812774 
L 181.4091 22.233169 
" clip-path="url(#p64496171bb)" style="fill: none; stroke: #008000; stroke-width: 0.5; stroke-linecap: round"/>
   </g>
   <g id="line2d_17">
    <path d="M 45.063757 13.350701 
L 78.550684 13.794709 
L 181.4091 15.048988 
" clip-path="url(#p64496171bb)" style="fill: none; stroke: #0000ff; stroke-width: 0.5; stroke-linecap: round"/>
   </g>
   <g id="line2d_18">
    <defs>
     <path id="mbd0301ca3c" d="M -2 0 
L 2 0 
M 0 2 
L 0 -2 
" style="stroke: #ff0000"/>
    </defs>
    <g clip-path="url(#p64496171bb)">
     <use xlink:href="#mbd0301ca3c" x="45.063757" y="18.221341" style="fill: #ff0000; stroke: #ff0000"/>
     <use xlink:href="#mbd0301ca3c" x="78.550684" y="14.411161" style="fill: #ff0000; stroke: #ff0000"/>
     <use xlink:href="#mbd0301ca3c" x="181.4091" y="2.656826" style="fill: #ff0000; stroke: #ff0000"/>
    </g>
   </g>
   <g id="line2d_19">
    <defs>
     <path id="m418ad6622d" d="M -2 0 
L 2 0 
M 0 2 
L 0 -2 
" style="stroke: #008000"/>
    </defs>
    <g clip-path="url(#p64496171bb)">
     <use xlink:href="#m418ad6622d" x="45.063757" y="23.353854" style="fill: #008000; stroke: #008000"/>
     <use xlink:href="#m418ad6622d" x="78.550684" y="23.353854" style="fill: #008000; stroke: #008000"/>
     <use xlink:href="#m418ad6622d" x="181.4091" y="23.353854" style="fill: #008000; stroke: #008000"/>
    </g>
   </g>
   <g id="line2d_20">
    <defs>
     <path id="mf4fd6597d0" d="M -2 0 
L 2 0 
M 0 2 
L 0 -2 
" style="stroke: #0000ff"/>
    </defs>
    <g clip-path="url(#p64496171bb)">
     <use xlink:href="#mf4fd6597d0" x="45.063757" y="13.244823" style="fill: #0000ff; stroke: #0000ff"/>
     <use xlink:href="#mf4fd6597d0" x="78.550684" y="13.652968" style="fill: #0000ff; stroke: #0000ff"/>
     <use xlink:href="#mf4fd6597d0" x="181.4091" y="14.855634" style="fill: #0000ff; stroke: #0000ff"/>
    </g>
   </g>
   <g id="patch_3">
    <path d="M 38.24649 24.471364 
L 38.24649 3.00024 
" style="fill: none; stroke: #000000; stroke-linejoin: miter; stroke-linecap: square"/>
   </g>
   <g id="patch_4">
    <path d="M 38.24649 24.471364 
L 188.226367 24.471364 
" style="fill: none; stroke: #000000; stroke-linejoin: miter; stroke-linecap: square"/>
   </g>
  </g>
  <g id="axes_2">
   <g id="patch_5">
    <path d="M 38.24649 55.854708 
L 188.226367 55.854708 
L 188.226367 34.383583 
L 38.24649 34.383583 
z
" style="fill: #ffffff"/>
   </g>
   <g id="matplotlib.axis_3">
    <g id="xtick_6">
     <g id="line2d_21">
      <path d="M 44.488507 55.854708 
L 44.488507 34.383583 
" clip-path="url(#p9b24442da7)" style="fill: none; stroke: #b0b0b0; stroke-width: 0.1; stroke-linecap: round"/>
     </g>
     <g id="line2d_22"/>
    </g>
    <g id="xtick_7">
     <g id="line2d_23">
      <path d="M 79.603489 55.854708 
L 79.603489 34.383583 
" clip-path="url(#p9b24442da7)" style="fill: none; stroke: #b0b0b0; stroke-width: 0.1; stroke-linecap: round"/>
     </g>
     <g id="line2d_24"/>
    </g>
    <g id="xtick_8">
     <g id="line2d_25">
      <path d="M 114.718471 55.854708 
L 114.718471 34.383583 
" clip-path="url(#p9b24442da7)" style="fill: none; stroke: #b0b0b0; stroke-width: 0.1; stroke-linecap: round"/>
     </g>
     <g id="line2d_26"/>
    </g>
    <g id="xtick_9">
     <g id="line2d_27">
      <path d="M 149.833453 55.854708 
L 149.833453 34.383583 
" clip-path="url(#p9b24442da7)" style="fill: none; stroke: #b0b0b0; stroke-width: 0.1; stroke-linecap: round"/>
     </g>
     <g id="line2d_28"/>
    </g>
    <g id="xtick_10">
     <g id="line2d_29">
      <path d="M 184.948435 55.854708 
L 184.948435 34.383583 
" clip-path="url(#p9b24442da7)" style="fill: none; stroke: #b0b0b0; stroke-width: 0.1; stroke-linecap: round"/>
     </g>
     <g id="line2d_30"/>
    </g>
   </g>
   <g id="matplotlib.axis_4">
    <g id="ytick_3">
     <g id="line2d_31">
      <path d="M 38.24649 47.82256 
L 188.226367 47.82256 
" clip-path="url(#p9b24442da7)" style="fill: none; stroke: #b0b0b0; stroke-width: 0.1; stroke-linecap: round"/>
     </g>
     <g id="line2d_32"/>
     <g id="text_4">
      <!-- 0 -->
      <g style="fill: #262626" transform="translate(29.65649 50.861935) scale(0.08 -0.08)">
       <use xlink:href="#DejaVuSerif-30"/>
      </g>
     </g>
    </g>
    <g id="ytick_4">
     <g id="line2d_33">
      <path d="M 38.24649 35.692484 
L 188.226367 35.692484 
" clip-path="url(#p9b24442da7)" style="fill: none; stroke: #b0b0b0; stroke-width: 0.1; stroke-linecap: round"/>
     </g>
     <g id="line2d_34"/>
     <g id="text_5">
      <!-- 2 -->
      <g style="fill: #262626" transform="translate(29.65649 38.731859) scale(0.08 -0.08)">
       <defs>
        <path id="DejaVuSerif-32" d="M 819 3553 
L 469 3553 
L 469 4384 
Q 803 4563 1142 4656 
Q 1481 4750 1806 4750 
Q 2534 4750 2956 4397 
Q 3378 4044 3378 3438 
Q 3378 2753 2422 1800 
Q 2347 1728 2309 1691 
L 1131 513 
L 3078 513 
L 3078 1088 
L 3444 1088 
L 3444 0 
L 434 0 
L 434 341 
L 1850 1753 
Q 2319 2222 2519 2614 
Q 2719 3006 2719 3438 
Q 2719 3909 2473 4175 
Q 2228 4441 1797 4441 
Q 1350 4441 1106 4219 
Q 863 3997 819 3553 
z
" transform="scale(0.015625)"/>
       </defs>
       <use xlink:href="#DejaVuSerif-32"/>
      </g>
     </g>
    </g>
    <g id="text_6">
     <!-- ${Y'}_{(\bullet)}$ -->
     <g style="fill: #262626" transform="translate(9.24024 52.839145) rotate(-90) scale(0.08 -0.08)">
      <defs>
       <path id="DejaVuSans-Oblique-59" d="M 403 4666 
L 1081 4666 
L 1953 2747 
L 3616 4666 
L 4325 4666 
L 2209 2222 
L 1778 0 
L 1147 0 
L 1575 2222 
L 403 4666 
z
" transform="scale(0.015625)"/>
      </defs>
      <use xlink:href="#DejaVuSans-Oblique-59" transform="translate(0 0.584375)"/>
      <use xlink:href="#Cmsy10-30" transform="translate(68.100755 38.865625) scale(0.7)"/>
      <use xlink:href="#DejaVuSans-28" transform="translate(91.035326 -15.821875) scale(0.7)"/>
      <use xlink:href="#DejaVuSans-2219" transform="translate(118.344896 -15.821875) scale(0.7)"/>
      <use xlink:href="#DejaVuSans-29" transform="translate(162.163255 -15.821875) scale(0.7)"/>
     </g>
    </g>
   </g>
   <g id="line2d_35">
    <path d="M 45.063757 52.423601 
L 78.550684 52.670234 
L 181.4091 53.43572 
" clip-path="url(#p9b24442da7)" style="fill: none; stroke: #ff0000; stroke-width: 0.5; stroke-linecap: round"/>
   </g>
   <g id="line2d_36">
    <path d="M 45.063757 48.414504 
L 78.550684 48.413144 
L 181.4091 48.436878 
" clip-path="url(#p9b24442da7)" style="fill: none; stroke: #008000; stroke-width: 0.5; stroke-linecap: round"/>
   </g>
   <g id="line2d_37">
    <path d="M 45.063757 51.831657 
L 78.550684 52.07965 
L 181.4091 52.821403 
" clip-path="url(#p9b24442da7)" style="fill: none; stroke: #0000ff; stroke-width: 0.5; stroke-linecap: round"/>
   </g>
   <g id="line2d_38">
    <g clip-path="url(#p9b24442da7)">
     <use xlink:href="#mbd0301ca3c" x="45.063757" y="52.351867" style="fill: #ff0000; stroke: #ff0000"/>
     <use xlink:href="#mbd0301ca3c" x="78.550684" y="52.651474" style="fill: #ff0000; stroke: #ff0000"/>
     <use xlink:href="#mbd0301ca3c" x="181.4091" y="53.441567" style="fill: #ff0000; stroke: #ff0000"/>
    </g>
   </g>
   <g id="line2d_39">
    <g clip-path="url(#p9b24442da7)">
     <use xlink:href="#m418ad6622d" x="45.063757" y="48.337398" style="fill: #008000; stroke: #008000"/>
     <use xlink:href="#m418ad6622d" x="78.550684" y="48.371454" style="fill: #008000; stroke: #008000"/>
     <use xlink:href="#m418ad6622d" x="181.4091" y="48.461262" style="fill: #008000; stroke: #008000"/>
    </g>
   </g>
   <g id="line2d_40">
    <g clip-path="url(#p9b24442da7)">
     <use xlink:href="#mf4fd6597d0" x="45.063757" y="51.837029" style="fill: #0000ff; stroke: #0000ff"/>
     <use xlink:href="#mf4fd6597d0" x="78.550684" y="52.102581" style="fill: #0000ff; stroke: #0000ff"/>
     <use xlink:href="#mf4fd6597d0" x="181.4091" y="52.802865" style="fill: #0000ff; stroke: #0000ff"/>
    </g>
   </g>
   <g id="patch_6">
    <path d="M 38.24649 55.854708 
L 38.24649 34.383583 
" style="fill: none; stroke: #000000; stroke-linejoin: miter; stroke-linecap: square"/>
   </g>
   <g id="patch_7">
    <path d="M 38.24649 55.854708 
L 188.226367 55.854708 
" style="fill: none; stroke: #000000; stroke-linejoin: miter; stroke-linecap: square"/>
   </g>
  </g>
  <g id="axes_3">
   <g id="patch_8">
    <path d="M 38.24649 83.326312 
L 188.226367 83.326312 
L 188.226367 61.855188 
L 38.24649 61.855188 
z
" style="fill: #ffffff"/>
   </g>
   <g id="matplotlib.axis_5">
    <g id="xtick_11">
     <g id="line2d_41">
      <path d="M 44.488507 83.326312 
L 44.488507 61.855188 
" clip-path="url(#p23cc115031)" style="fill: none; stroke: #b0b0b0; stroke-width: 0.1; stroke-linecap: round"/>
     </g>
     <g id="line2d_42"/>
     <g id="text_7">
      <!-- 0.4 -->
      <g style="fill: #262626" transform="translate(38.127257 92.905062) scale(0.08 -0.08)">
       <defs>
        <path id="DejaVuSerif-34" d="M 2234 1581 
L 2234 4063 
L 641 1581 
L 2234 1581 
z
M 3609 0 
L 1484 0 
L 1484 331 
L 2234 331 
L 2234 1247 
L 197 1247 
L 197 1588 
L 2241 4750 
L 2859 4750 
L 2859 1581 
L 3750 1581 
L 3750 1247 
L 2859 1247 
L 2859 331 
L 3609 331 
L 3609 0 
z
" transform="scale(0.015625)"/>
       </defs>
       <use xlink:href="#DejaVuSerif-30"/>
       <use xlink:href="#DejaVuSerif-2e" x="63.623047"/>
       <use xlink:href="#DejaVuSerif-34" x="95.410156"/>
      </g>
     </g>
    </g>
    <g id="xtick_12">
     <g id="line2d_43">
      <path d="M 79.603489 83.326312 
L 79.603489 61.855188 
" clip-path="url(#p23cc115031)" style="fill: none; stroke: #b0b0b0; stroke-width: 0.1; stroke-linecap: round"/>
     </g>
     <g id="line2d_44"/>
     <g id="text_8">
      <!-- 0.6 -->
      <g style="fill: #262626" transform="translate(73.242239 92.905062) scale(0.08 -0.08)">
       <defs>
        <path id="DejaVuSerif-36" d="M 2094 219 
Q 2534 219 2771 542 
Q 3009 866 3009 1472 
Q 3009 2078 2771 2401 
Q 2534 2725 2094 2725 
Q 1647 2725 1412 2412 
Q 1178 2100 1178 1509 
Q 1178 888 1415 553 
Q 1653 219 2094 219 
z
M 1075 2569 
Q 1288 2803 1556 2918 
Q 1825 3034 2163 3034 
Q 2859 3034 3264 2615 
Q 3669 2197 3669 1472 
Q 3669 763 3233 336 
Q 2797 -91 2069 -91 
Q 1278 -91 853 498 
Q 428 1088 428 2181 
Q 428 3406 931 4078 
Q 1434 4750 2350 4750 
Q 2597 4750 2869 4703 
Q 3141 4656 3425 4563 
L 3425 3794 
L 3072 3794 
Q 3034 4109 2831 4275 
Q 2628 4441 2284 4441 
Q 1678 4441 1381 3981 
Q 1084 3522 1075 2569 
z
" transform="scale(0.015625)"/>
       </defs>
       <use xlink:href="#DejaVuSerif-30"/>
       <use xlink:href="#DejaVuSerif-2e" x="63.623047"/>
       <use xlink:href="#DejaVuSerif-36" x="95.410156"/>
      </g>
     </g>
    </g>
    <g id="xtick_13">
     <g id="line2d_45">
      <path d="M 114.718471 83.326312 
L 114.718471 61.855188 
" clip-path="url(#p23cc115031)" style="fill: none; stroke: #b0b0b0; stroke-width: 0.1; stroke-linecap: round"/>
     </g>
     <g id="line2d_46"/>
     <g id="text_9">
      <!-- 0.8 -->
      <g style="fill: #262626" transform="translate(108.357221 92.905062) scale(0.08 -0.08)">
       <defs>
        <path id="DejaVuSerif-38" d="M 2981 1275 
Q 2981 1775 2732 2051 
Q 2484 2328 2034 2328 
Q 1584 2328 1336 2051 
Q 1088 1775 1088 1275 
Q 1088 772 1336 495 
Q 1584 219 2034 219 
Q 2484 219 2732 495 
Q 2981 772 2981 1275 
z
M 2853 3541 
Q 2853 3966 2637 4203 
Q 2422 4441 2034 4441 
Q 1650 4441 1433 4203 
Q 1216 3966 1216 3541 
Q 1216 3113 1433 2875 
Q 1650 2638 2034 2638 
Q 2422 2638 2637 2875 
Q 2853 3113 2853 3541 
z
M 2516 2484 
Q 3047 2413 3344 2092 
Q 3641 1772 3641 1275 
Q 3641 619 3225 264 
Q 2809 -91 2034 -91 
Q 1263 -91 845 264 
Q 428 619 428 1275 
Q 428 1772 725 2092 
Q 1022 2413 1556 2484 
Q 1084 2569 832 2842 
Q 581 3116 581 3541 
Q 581 4103 968 4426 
Q 1356 4750 2034 4750 
Q 2713 4750 3100 4426 
Q 3488 4103 3488 3541 
Q 3488 3116 3236 2842 
Q 2984 2569 2516 2484 
z
" transform="scale(0.015625)"/>
       </defs>
       <use xlink:href="#DejaVuSerif-30"/>
       <use xlink:href="#DejaVuSerif-2e" x="63.623047"/>
       <use xlink:href="#DejaVuSerif-38" x="95.410156"/>
      </g>
     </g>
    </g>
    <g id="xtick_14">
     <g id="line2d_47">
      <path d="M 149.833453 83.326312 
L 149.833453 61.855188 
" clip-path="url(#p23cc115031)" style="fill: none; stroke: #b0b0b0; stroke-width: 0.1; stroke-linecap: round"/>
     </g>
     <g id="line2d_48"/>
     <g id="text_10">
      <!-- 1.0 -->
      <g style="fill: #262626" transform="translate(143.472203 92.905062) scale(0.08 -0.08)">
       <defs>
        <path id="DejaVuSerif-31" d="M 909 0 
L 909 331 
L 1722 331 
L 1722 4213 
L 781 3603 
L 781 4013 
L 1919 4750 
L 2350 4750 
L 2350 331 
L 3163 331 
L 3163 0 
L 909 0 
z
" transform="scale(0.015625)"/>
       </defs>
       <use xlink:href="#DejaVuSerif-31"/>
       <use xlink:href="#DejaVuSerif-2e" x="63.623047"/>
       <use xlink:href="#DejaVuSerif-30" x="95.410156"/>
      </g>
     </g>
    </g>
    <g id="xtick_15">
     <g id="line2d_49">
      <path d="M 184.948435 83.326312 
L 184.948435 61.855188 
" clip-path="url(#p23cc115031)" style="fill: none; stroke: #b0b0b0; stroke-width: 0.1; stroke-linecap: round"/>
     </g>
     <g id="line2d_50"/>
     <g id="text_11">
      <!-- 1.2 -->
      <g style="fill: #262626" transform="translate(178.587185 92.905062) scale(0.08 -0.08)">
       <use xlink:href="#DejaVuSerif-31"/>
       <use xlink:href="#DejaVuSerif-2e" x="63.623047"/>
       <use xlink:href="#DejaVuSerif-32" x="95.410156"/>
      </g>
     </g>
    </g>
    <g id="text_12">
     <!-- $1000 \cdot T'$ -->
     <g style="fill: #262626" transform="translate(96.596429 104.647562) scale(0.08 -0.08)">
      <defs>
       <path id="DejaVuSans-31" d="M 794 531 
L 1825 531 
L 1825 4091 
L 703 3866 
L 703 4441 
L 1819 4666 
L 2450 4666 
L 2450 531 
L 3481 531 
L 3481 0 
L 794 0 
L 794 531 
z
" transform="scale(0.015625)"/>
       <path id="DejaVuSans-30" d="M 2034 4250 
Q 1547 4250 1301 3770 
Q 1056 3291 1056 2328 
Q 1056 1369 1301 889 
Q 1547 409 2034 409 
Q 2525 409 2770 889 
Q 3016 1369 3016 2328 
Q 3016 3291 2770 3770 
Q 2525 4250 2034 4250 
z
M 2034 4750 
Q 2819 4750 3233 4129 
Q 3647 3509 3647 2328 
Q 3647 1150 3233 529 
Q 2819 -91 2034 -91 
Q 1250 -91 836 529 
Q 422 1150 422 2328 
Q 422 3509 836 4129 
Q 1250 4750 2034 4750 
z
" transform="scale(0.015625)"/>
       <path id="DejaVuSans-22c5" d="M 684 2619 
L 1344 2619 
L 1344 1825 
L 684 1825 
L 684 2619 
z
" transform="scale(0.015625)"/>
       <path id="DejaVuSans-Oblique-54" d="M 378 4666 
L 4325 4666 
L 4225 4134 
L 2559 4134 
L 1759 0 
L 1125 0 
L 1925 4134 
L 275 4134 
L 378 4666 
z
" transform="scale(0.015625)"/>
      </defs>
      <use xlink:href="#DejaVuSans-31" transform="translate(0 0.584375)"/>
      <use xlink:href="#DejaVuSans-30" transform="translate(63.623047 0.584375)"/>
      <use xlink:href="#DejaVuSans-30" transform="translate(127.246094 0.584375)"/>
      <use xlink:href="#DejaVuSans-30" transform="translate(190.869141 0.584375)"/>
      <use xlink:href="#DejaVuSans-22c5" transform="translate(273.974609 0.584375)"/>
      <use xlink:href="#DejaVuSans-Oblique-54" transform="translate(325.244141 0.584375)"/>
      <use xlink:href="#Cmsy10-30" transform="translate(393.344896 38.865625) scale(0.7)"/>
     </g>
    </g>
   </g>
   <g id="matplotlib.axis_6">
    <g id="ytick_5">
     <g id="line2d_51">
      <path d="M 38.24649 77.113221 
L 188.226367 77.113221 
" clip-path="url(#p23cc115031)" style="fill: none; stroke: #b0b0b0; stroke-width: 0.1; stroke-linecap: round"/>
     </g>
     <g id="line2d_52"/>
     <g id="text_13">
      <!-- 0.0 -->
      <g style="fill: #262626" transform="translate(22.02399 80.152596) scale(0.08 -0.08)">
       <use xlink:href="#DejaVuSerif-30"/>
       <use xlink:href="#DejaVuSerif-2e" x="63.623047"/>
       <use xlink:href="#DejaVuSerif-30" x="95.410156"/>
      </g>
     </g>
    </g>
    <g id="ytick_6">
     <g id="line2d_53">
      <path d="M 38.24649 67.099365 
L 188.226367 67.099365 
" clip-path="url(#p23cc115031)" style="fill: none; stroke: #b0b0b0; stroke-width: 0.1; stroke-linecap: round"/>
     </g>
     <g id="line2d_54"/>
     <g id="text_14">
      <!-- 0.5 -->
      <g style="fill: #262626" transform="translate(22.02399 70.13874) scale(0.08 -0.08)">
       <use xlink:href="#DejaVuSerif-30"/>
       <use xlink:href="#DejaVuSerif-2e" x="63.623047"/>
       <use xlink:href="#DejaVuSerif-35" x="95.410156"/>
      </g>
     </g>
    </g>
    <g id="text_15">
     <!-- ${N'}_{(\bullet)}$ -->
     <g style="fill: #262626" transform="translate(9.24024 80.83075) rotate(-90) scale(0.08 -0.08)">
      <defs>
       <path id="DejaVuSans-Oblique-4e" d="M 1081 4666 
L 1931 4666 
L 3219 666 
L 4000 4666 
L 4616 4666 
L 3706 0 
L 2853 0 
L 1569 4025 
L 788 0 
L 172 0 
L 1081 4666 
z
" transform="scale(0.015625)"/>
      </defs>
      <use xlink:href="#DejaVuSans-Oblique-4e" transform="translate(0 0.584375)"/>
      <use xlink:href="#Cmsy10-30" transform="translate(81.821458 38.865625) scale(0.7)"/>
      <use xlink:href="#DejaVuSans-28" transform="translate(104.756029 -15.821875) scale(0.7)"/>
      <use xlink:href="#DejaVuSans-2219" transform="translate(132.065599 -15.821875) scale(0.7)"/>
      <use xlink:href="#DejaVuSans-29" transform="translate(175.883958 -15.821875) scale(0.7)"/>
     </g>
    </g>
   </g>
   <g id="line2d_55">
    <path d="M 45.063757 69.802635 
L 78.550684 69.406307 
L 181.4091 68.17784 
" clip-path="url(#p23cc115031)" style="fill: none; stroke: #ff0000; stroke-width: 0.5; stroke-linecap: round"/>
   </g>
   <g id="line2d_56">
    <path d="M 45.063757 76.201626 
L 78.550684 76.202787 
L 181.4091 76.161821 
" clip-path="url(#p23cc115031)" style="fill: none; stroke: #008000; stroke-width: 0.5; stroke-linecap: round"/>
   </g>
   <g id="line2d_57">
    <path d="M 45.063757 70.714231 
L 78.550684 70.31674 
L 181.4091 69.129239 
" clip-path="url(#p23cc115031)" style="fill: none; stroke: #0000ff; stroke-width: 0.5; stroke-linecap: round"/>
   </g>
   <g id="line2d_58">
    <g clip-path="url(#p23cc115031)">
     <use xlink:href="#mbd0301ca3c" x="45.063757" y="69.82714" style="fill: #ff0000; stroke: #ff0000"/>
     <use xlink:href="#mbd0301ca3c" x="78.550684" y="69.345175" style="fill: #ff0000; stroke: #ff0000"/>
     <use xlink:href="#mbd0301ca3c" x="181.4091" y="68.074191" style="fill: #ff0000; stroke: #ff0000"/>
    </g>
   </g>
   <g id="line2d_59">
    <g clip-path="url(#p23cc115031)">
     <use xlink:href="#m418ad6622d" x="45.063757" y="76.303916" style="fill: #008000; stroke: #008000"/>
     <use xlink:href="#m418ad6622d" x="78.550684" y="76.250381" style="fill: #008000; stroke: #008000"/>
     <use xlink:href="#m418ad6622d" x="181.4091" y="76.109206" style="fill: #008000; stroke: #008000"/>
    </g>
   </g>
   <g id="line2d_60">
    <g clip-path="url(#p23cc115031)">
     <use xlink:href="#mf4fd6597d0" x="45.063757" y="70.636445" style="fill: #0000ff; stroke: #0000ff"/>
     <use xlink:href="#mf4fd6597d0" x="78.550684" y="70.208015" style="fill: #0000ff; stroke: #0000ff"/>
     <use xlink:href="#mf4fd6597d0" x="181.4091" y="69.078206" style="fill: #0000ff; stroke: #0000ff"/>
    </g>
   </g>
   <g id="patch_9">
    <path d="M 38.24649 83.326312 
L 38.24649 61.855188 
" style="fill: none; stroke: #000000; stroke-linejoin: miter; stroke-linecap: square"/>
   </g>
   <g id="patch_10">
    <path d="M 38.24649 83.326312 
L 188.226367 83.326312 
" style="fill: none; stroke: #000000; stroke-linejoin: miter; stroke-linecap: square"/>
   </g>
  </g>
 </g>
 <defs>
  <clipPath id="p64496171bb">
   <rect x="38.24649" y="3.00024" width="149.979877" height="21.471124"/>
  </clipPath>
  <clipPath id="p9b24442da7">
   <rect x="38.24649" y="34.383583" width="149.979877" height="21.471124"/>
  </clipPath>
  <clipPath id="p23cc115031">
   <rect x="38.24649" y="61.855188" width="149.979877" height="21.471124"/>
  </clipPath>
 </defs>
</svg>
