<?xml version="1.0" encoding="utf-8" standalone="no"?>
<!DOCTYPE svg PUBLIC "-//W3C//DTD SVG 1.1//EN"
  "http://www.w3.org/Graphics/SVG/1.1/DTD/svg11.dtd">
<svg xmlns:xlink="http://www.w3.org/1999/xlink" width="198pt" height="136.8pt" viewBox="0 0 198 136.8" xmlns="http://www.w3.org/2000/svg" version="1.1">
 <metadata>
  <rdf:RDF xmlns:dc="http://purl.org/dc/elements/1.1/" xmlns:cc="http://creativecommons.org/ns#" xmlns:rdf="http://www.w3.org/1999/02/22-rdf-syntax-ns#">
   <cc:Work>
    <dc:type rdf:resource="http://purl.org/dc/dcmitype/StillImage"/>
    <dc:date>2024-02-12T14:45:27.542423</dc:date>
    <dc:format>image/svg+xml</dc:format>
    <dc:creator>
     <cc:Agent>
      <dc:title>Matplotlib v3.8.2, https://matplotlib.org/</dc:title>
     </cc:Agent>
    </dc:creator>
   </cc:Work>
  </rdf:RDF>
 </metadata>
 <defs>
  <style type="text/css">*{stroke-linejoin: round; stroke-linecap: butt}</style>
 </defs>
 <g id="figure_1">
  <g id="patch_1">
   <path d="M 0 136.8 
L 198 136.8 
L 198 0 
L 0 0 
z
" style="fill: #ffffff"/>
  </g>
  <g id="axes_1">
   <g id="patch_2">
    <path d="M 38.24649 41.771145 
L 194.99976 41.771145 
L 194.99976 14.792871 
L 38.24649 14.792871 
z
" style="fill: #ffffff"/>
   </g>
   <g id="matplotlib.axis_1">
    <g id="xtick_1">
     <g id="line2d_1">
      <path d="M 68.172114 41.771145 
L 68.172114 14.792871 
" clip-path="url(#p0cfb01182c)" style="fill: none; stroke: #b0b0b0; stroke-width: 0.8; stroke-linecap: round"/>
     </g>
     <g id="line2d_2"/>
    </g>
    <g id="xtick_2">
     <g id="line2d_3">
      <path d="M 102.372828 41.771145 
L 102.372828 14.792871 
" clip-path="url(#p0cfb01182c)" style="fill: none; stroke: #b0b0b0; stroke-width: 0.8; stroke-linecap: round"/>
     </g>
     <g id="line2d_4"/>
    </g>
    <g id="xtick_3">
     <g id="line2d_5">
      <path d="M 136.573541 41.771145 
L 136.573541 14.792871 
" clip-path="url(#p0cfb01182c)" style="fill: none; stroke: #b0b0b0; stroke-width: 0.8; stroke-linecap: round"/>
     </g>
     <g id="line2d_6"/>
    </g>
    <g id="xtick_4">
     <g id="line2d_7">
      <path d="M 170.774255 41.771145 
L 170.774255 14.792871 
" clip-path="url(#p0cfb01182c)" style="fill: none; stroke: #b0b0b0; stroke-width: 0.8; stroke-linecap: round"/>
     </g>
     <g id="line2d_8"/>
    </g>
   </g>
   <g id="matplotlib.axis_2">
    <g id="ytick_1">
     <g id="line2d_9">
      <path d="M 38.24649 38.643108 
L 194.99976 38.643108 
" clip-path="url(#p0cfb01182c)" style="fill: none; stroke: #b0b0b0; stroke-width: 0.8; stroke-linecap: round"/>
     </g>
     <g id="line2d_10"/>
     <g id="text_1">
      <!-- −0.5 -->
      <g style="fill: #262626" transform="translate(15.32024 41.682483) scale(0.08 -0.08)">
       <defs>
        <path id="DejaVuSerif-2212" d="M 678 2259 
L 4684 2259 
L 4684 1753 
L 678 1753 
L 678 2259 
z
" transform="scale(0.015625)"/>
        <path id="DejaVuSerif-30" d="M 2034 219 
Q 2513 219 2750 744 
Q 2988 1269 2988 2328 
Q 2988 3391 2750 3916 
Q 2513 4441 2034 4441 
Q 1556 4441 1318 3916 
Q 1081 3391 1081 2328 
Q 1081 1269 1318 744 
Q 1556 219 2034 219 
z
M 2034 -91 
Q 1275 -91 848 546 
Q 422 1184 422 2328 
Q 422 3475 848 4112 
Q 1275 4750 2034 4750 
Q 2797 4750 3222 4112 
Q 3647 3475 3647 2328 
Q 3647 1184 3222 546 
Q 2797 -91 2034 -91 
z
" transform="scale(0.015625)"/>
        <path id="DejaVuSerif-2e" d="M 603 325 
Q 603 500 722 622 
Q 841 744 1019 744 
Q 1191 744 1312 622 
Q 1434 500 1434 325 
Q 1434 153 1312 31 
Q 1191 -91 1019 -91 
Q 841 -91 722 29 
Q 603 150 603 325 
z
" transform="scale(0.015625)"/>
        <path id="DejaVuSerif-35" d="M 3219 4666 
L 3219 4153 
L 1081 4153 
L 1081 2816 
Q 1244 2928 1461 2984 
Q 1678 3041 1947 3041 
Q 2703 3041 3140 2622 
Q 3578 2203 3578 1478 
Q 3578 738 3136 323 
Q 2694 -91 1894 -91 
Q 1572 -91 1234 -12 
Q 897 66 544 225 
L 544 1131 
L 897 1131 
Q 925 688 1179 453 
Q 1434 219 1894 219 
Q 2388 219 2653 544 
Q 2919 869 2919 1478 
Q 2919 2084 2655 2407 
Q 2391 2731 1894 2731 
Q 1613 2731 1398 2631 
Q 1184 2531 1019 2322 
L 750 2322 
L 750 4666 
L 3219 4666 
z
" transform="scale(0.015625)"/>
       </defs>
       <use xlink:href="#DejaVuSerif-2212"/>
       <use xlink:href="#DejaVuSerif-30" x="83.789062"/>
       <use xlink:href="#DejaVuSerif-2e" x="147.412109"/>
       <use xlink:href="#DejaVuSerif-35" x="179.199219"/>
      </g>
     </g>
    </g>
    <g id="ytick_2">
     <g id="line2d_11">
      <path d="M 38.24649 22.907055 
L 194.99976 22.907055 
" clip-path="url(#p0cfb01182c)" style="fill: none; stroke: #b0b0b0; stroke-width: 0.8; stroke-linecap: round"/>
     </g>
     <g id="line2d_12"/>
     <g id="text_2">
      <!-- 0.0 -->
      <g style="fill: #262626" transform="translate(22.02399 25.94643) scale(0.08 -0.08)">
       <use xlink:href="#DejaVuSerif-30"/>
       <use xlink:href="#DejaVuSerif-2e" x="63.623047"/>
       <use xlink:href="#DejaVuSerif-30" x="95.410156"/>
      </g>
     </g>
    </g>
    <g id="text_3">
     <!-- ${X'}_{(\bullet)}$ -->
     <g style="fill: #262626" transform="translate(9.24024 36.282008) rotate(-90) scale(0.08 -0.08)">
      <defs>
       <path id="DejaVuSans-Oblique-58" d="M 878 4666 
L 1516 4666 
L 2316 2981 
L 3763 4666 
L 4500 4666 
L 2578 2438 
L 3738 0 
L 3103 0 
L 2163 1966 
L 459 0 
L -275 0 
L 1906 2509 
L 878 4666 
z
" transform="scale(0.015625)"/>
       <path id="Cmsy10-30" d="M 225 347 
Q 184 359 184 409 
L 966 3316 
Q 1003 3434 1093 3506 
Q 1184 3578 1300 3578 
Q 1450 3578 1564 3479 
Q 1678 3381 1678 3231 
Q 1678 3166 1644 3084 
L 488 319 
Q 466 275 428 275 
Q 394 275 320 306 
Q 247 338 225 347 
z
" transform="scale(0.015625)"/>
       <path id="DejaVuSans-28" d="M 1984 4856 
Q 1566 4138 1362 3434 
Q 1159 2731 1159 2009 
Q 1159 1288 1364 580 
Q 1569 -128 1984 -844 
L 1484 -844 
Q 1016 -109 783 600 
Q 550 1309 550 2009 
Q 550 2706 781 3412 
Q 1013 4119 1484 4856 
L 1984 4856 
z
" transform="scale(0.015625)"/>
       <path id="DejaVuSans-2219" d="M 1075 2006 
Q 1075 2394 1345 2661 
Q 1616 2928 2009 2928 
Q 2397 2928 2664 2661 
Q 2931 2394 2931 2006 
Q 2931 1616 2662 1347 
Q 2394 1078 2003 1078 
Q 1613 1078 1344 1347 
Q 1075 1616 1075 2006 
z
" transform="scale(0.015625)"/>
       <path id="DejaVuSans-29" d="M 513 4856 
L 1013 4856 
Q 1481 4119 1714 3412 
Q 1947 2706 1947 2009 
Q 1947 1309 1714 600 
Q 1481 -109 1013 -844 
L 513 -844 
Q 928 -128 1133 580 
Q 1338 1288 1338 2009 
Q 1338 2731 1133 3434 
Q 928 4138 513 4856 
z
" transform="scale(0.015625)"/>
      </defs>
      <use xlink:href="#DejaVuSans-Oblique-58" transform="translate(0 0.584375)"/>
      <use xlink:href="#Cmsy10-30" transform="translate(75.52263 38.865625) scale(0.7)"/>
      <use xlink:href="#DejaVuSans-28" transform="translate(98.457201 -15.821875) scale(0.7)"/>
      <use xlink:href="#DejaVuSans-2219" transform="translate(125.766771 -15.821875) scale(0.7)"/>
      <use xlink:href="#DejaVuSans-29" transform="translate(169.58513 -15.821875) scale(0.7)"/>
     </g>
    </g>
   </g>
   <g id="line2d_13">
    <defs>
     <path id="m3c05189503" d="M -2 2 
L 2 -2 
M -2 -2 
L 2 2 
" style="stroke: #ff0000"/>
    </defs>
    <g clip-path="url(#p0cfb01182c)">
     <use xlink:href="#m3c05189503" x="45.371639" y="21.35069" style="fill: #ff0000; stroke: #ff0000"/>
     <use xlink:href="#m3c05189503" x="102.372828" y="21.305824" style="fill: #ff0000; stroke: #ff0000"/>
     <use xlink:href="#m3c05189503" x="187.874611" y="22.866221" style="fill: #ff0000; stroke: #ff0000"/>
    </g>
   </g>
   <g id="line2d_14">
    <defs>
     <path id="mb8ee513d1f" d="M -2 2 
L 2 -2 
M -2 -2 
L 2 2 
" style="stroke: #008000"/>
    </defs>
    <g clip-path="url(#p0cfb01182c)">
     <use xlink:href="#mb8ee513d1f" x="45.371639" y="41.771145" style="fill: #008000; stroke: #008000"/>
     <use xlink:href="#mb8ee513d1f" x="102.372828" y="41.061034" style="fill: #008000; stroke: #008000"/>
     <use xlink:href="#mb8ee513d1f" x="187.874611" y="40.863871" style="fill: #008000; stroke: #008000"/>
    </g>
   </g>
   <g id="line2d_15">
    <defs>
     <path id="ma385bacd0c" d="M -2 2 
L 2 -2 
M -2 -2 
L 2 2 
" style="stroke: #0000ff"/>
    </defs>
    <g clip-path="url(#p0cfb01182c)">
     <use xlink:href="#ma385bacd0c" x="45.371639" y="24.536212" style="fill: #0000ff; stroke: #0000ff"/>
     <use xlink:href="#ma385bacd0c" x="102.372828" y="25.222627" style="fill: #0000ff; stroke: #0000ff"/>
     <use xlink:href="#ma385bacd0c" x="187.874611" y="25.934285" style="fill: #0000ff; stroke: #0000ff"/>
    </g>
   </g>
   <g id="line2d_16">
    <path d="M 45.371639 19.607312 
L 102.372828 20.075025 
L 187.874611 21.470664 
" clip-path="url(#p0cfb01182c)" style="fill: none; stroke: #ff0000; stroke-width: 0.75; stroke-linecap: round"/>
   </g>
   <g id="line2d_17">
    <path d="M 45.371639 41.426239 
L 102.372828 40.962823 
L 187.874611 40.515958 
" clip-path="url(#p0cfb01182c)" style="fill: none; stroke: #008000; stroke-width: 0.75; stroke-linecap: round"/>
   </g>
   <g id="line2d_18">
    <path d="M 45.371639 24.266469 
L 102.372828 25.219852 
L 187.874611 25.962915 
" clip-path="url(#p0cfb01182c)" style="fill: none; stroke: #0000ff; stroke-width: 0.75; stroke-linecap: round"/>
   </g>
   <g id="patch_3">
    <path d="M 38.24649 41.771145 
L 38.24649 14.792871 
" style="fill: none; stroke: #000000; stroke-linejoin: miter; stroke-linecap: square"/>
   </g>
   <g id="patch_4">
    <path d="M 38.24649 41.771145 
L 194.99976 41.771145 
" style="fill: none; stroke: #000000; stroke-linejoin: miter; stroke-linecap: square"/>
   </g>
   <g id="legend_1">
    <g id="line2d_19">
     <path d="M 57.31625 9.084657 
L 65.31625 9.084657 
L 73.31625 9.084657 
" style="fill: none; stroke: #ff0000; stroke-width: 0.75; stroke-linecap: round"/>
    </g>
    <g id="text_4">
     <!-- D -->
     <g style="fill: #262626" transform="translate(79.71625 11.884657) scale(0.08 -0.08)">
      <defs>
       <path id="DejaVuSerif-44" d="M 1581 331 
L 2163 331 
Q 3072 331 3558 850 
Q 4044 1369 4044 2338 
Q 4044 3306 3559 3818 
Q 3075 4331 2163 4331 
L 1581 4331 
L 1581 331 
z
M 353 0 
L 353 331 
L 947 331 
L 947 4331 
L 353 4331 
L 353 4666 
L 2209 4666 
Q 3416 4666 4089 4050 
Q 4763 3434 4763 2338 
Q 4763 1238 4088 619 
Q 3413 0 2209 0 
L 353 0 
z
" transform="scale(0.015625)"/>
      </defs>
      <use xlink:href="#DejaVuSerif-44"/>
     </g>
    </g>
    <g id="line2d_20">
     <path d="M 102.13 9.084657 
L 110.13 9.084657 
L 118.13 9.084657 
" style="fill: none; stroke: #008000; stroke-width: 0.75; stroke-linecap: round"/>
    </g>
    <g id="text_5">
     <!-- H -->
     <g style="fill: #262626" transform="translate(124.53 11.884657) scale(0.08 -0.08)">
      <defs>
       <path id="DejaVuSerif-48" d="M 353 0 
L 353 331 
L 947 331 
L 947 4331 
L 353 4331 
L 353 4666 
L 2175 4666 
L 2175 4331 
L 1581 4331 
L 1581 2719 
L 4000 2719 
L 4000 4331 
L 3406 4331 
L 3406 4666 
L 5228 4666 
L 5228 4331 
L 4634 4331 
L 4634 331 
L 5228 331 
L 5228 0 
L 3406 0 
L 3406 331 
L 4000 331 
L 4000 2338 
L 1581 2338 
L 1581 331 
L 2175 331 
L 2175 0 
L 353 0 
z
" transform="scale(0.015625)"/>
      </defs>
      <use xlink:href="#DejaVuSerif-48"/>
     </g>
    </g>
    <g id="line2d_21">
     <path d="M 147.50625 9.084657 
L 155.50625 9.084657 
L 163.50625 9.084657 
" style="fill: none; stroke: #0000ff; stroke-width: 0.75; stroke-linecap: round"/>
    </g>
    <g id="text_6">
     <!-- R -->
     <g style="fill: #262626" transform="translate(169.90625 11.884657) scale(0.08 -0.08)">
      <defs>
       <path id="DejaVuSerif-52" d="M 3066 2316 
Q 3284 2256 3442 2114 
Q 3600 1972 3725 1716 
L 4403 331 
L 4972 331 
L 4972 0 
L 3872 0 
L 3144 1484 
Q 2934 1916 2759 2042 
Q 2584 2169 2278 2169 
L 1581 2169 
L 1581 331 
L 2241 331 
L 2241 0 
L 353 0 
L 353 331 
L 947 331 
L 947 4331 
L 353 4331 
L 353 4666 
L 2719 4666 
Q 3400 4666 3770 4341 
Q 4141 4016 4141 3419 
Q 4141 2938 3870 2661 
Q 3600 2384 3066 2316 
z
M 1581 2503 
L 2503 2503 
Q 2975 2503 3200 2726 
Q 3425 2950 3425 3419 
Q 3425 3888 3200 4109 
Q 2975 4331 2503 4331 
L 1581 4331 
L 1581 2503 
z
" transform="scale(0.015625)"/>
      </defs>
      <use xlink:href="#DejaVuSerif-52"/>
     </g>
    </g>
   </g>
  </g>
  <g id="axes_2">
   <g id="patch_5">
    <path d="M 38.24649 77.836007 
L 194.99976 77.836007 
L 194.99976 50.857733 
L 38.24649 50.857733 
z
" style="fill: #ffffff"/>
   </g>
   <g id="matplotlib.axis_3">
    <g id="xtick_5">
     <g id="line2d_22">
      <path d="M 68.172114 77.836007 
L 68.172114 50.857733 
" clip-path="url(#p106978f5aa)" style="fill: none; stroke: #b0b0b0; stroke-width: 0.8; stroke-linecap: round"/>
     </g>
     <g id="line2d_23"/>
    </g>
    <g id="xtick_6">
     <g id="line2d_24">
      <path d="M 102.372828 77.836007 
L 102.372828 50.857733 
" clip-path="url(#p106978f5aa)" style="fill: none; stroke: #b0b0b0; stroke-width: 0.8; stroke-linecap: round"/>
     </g>
     <g id="line2d_25"/>
    </g>
    <g id="xtick_7">
     <g id="line2d_26">
      <path d="M 136.573541 77.836007 
L 136.573541 50.857733 
" clip-path="url(#p106978f5aa)" style="fill: none; stroke: #b0b0b0; stroke-width: 0.8; stroke-linecap: round"/>
     </g>
     <g id="line2d_27"/>
    </g>
    <g id="xtick_8">
     <g id="line2d_28">
      <path d="M 170.774255 77.836007 
L 170.774255 50.857733 
" clip-path="url(#p106978f5aa)" style="fill: none; stroke: #b0b0b0; stroke-width: 0.8; stroke-linecap: round"/>
     </g>
     <g id="line2d_29"/>
    </g>
   </g>
   <g id="matplotlib.axis_4">
    <g id="ytick_3">
     <g id="line2d_30">
      <path d="M 38.24649 67.743686 
L 194.99976 67.743686 
" clip-path="url(#p106978f5aa)" style="fill: none; stroke: #b0b0b0; stroke-width: 0.8; stroke-linecap: round"/>
     </g>
     <g id="line2d_31"/>
     <g id="text_7">
      <!-- 0 -->
      <g style="fill: #262626" transform="translate(29.65649 70.783061) scale(0.08 -0.08)">
       <use xlink:href="#DejaVuSerif-30"/>
      </g>
     </g>
    </g>
    <g id="ytick_4">
     <g id="line2d_32">
      <path d="M 38.24649 52.502356 
L 194.99976 52.502356 
" clip-path="url(#p106978f5aa)" style="fill: none; stroke: #b0b0b0; stroke-width: 0.8; stroke-linecap: round"/>
     </g>
     <g id="line2d_33"/>
     <g id="text_8">
      <!-- 2 -->
      <g style="fill: #262626" transform="translate(29.65649 55.541731) scale(0.08 -0.08)">
       <defs>
        <path id="DejaVuSerif-32" d="M 819 3553 
L 469 3553 
L 469 4384 
Q 803 4563 1142 4656 
Q 1481 4750 1806 4750 
Q 2534 4750 2956 4397 
Q 3378 4044 3378 3438 
Q 3378 2753 2422 1800 
Q 2347 1728 2309 1691 
L 1131 513 
L 3078 513 
L 3078 1088 
L 3444 1088 
L 3444 0 
L 434 0 
L 434 341 
L 1850 1753 
Q 2319 2222 2519 2614 
Q 2719 3006 2719 3438 
Q 2719 3909 2473 4175 
Q 2228 4441 1797 4441 
Q 1350 4441 1106 4219 
Q 863 3997 819 3553 
z
" transform="scale(0.015625)"/>
       </defs>
       <use xlink:href="#DejaVuSerif-32"/>
      </g>
     </g>
    </g>
    <g id="text_9">
     <!-- ${Y'}_{(\bullet)}$ -->
     <g style="fill: #262626" transform="translate(9.24024 72.06687) rotate(-90) scale(0.08 -0.08)">
      <defs>
       <path id="DejaVuSans-Oblique-59" d="M 403 4666 
L 1081 4666 
L 1953 2747 
L 3616 4666 
L 4325 4666 
L 2209 2222 
L 1778 0 
L 1147 0 
L 1575 2222 
L 403 4666 
z
" transform="scale(0.015625)"/>
      </defs>
      <use xlink:href="#DejaVuSans-Oblique-59" transform="translate(0 0.584375)"/>
      <use xlink:href="#Cmsy10-30" transform="translate(68.100755 38.865625) scale(0.7)"/>
      <use xlink:href="#DejaVuSans-28" transform="translate(91.035326 -15.821875) scale(0.7)"/>
      <use xlink:href="#DejaVuSans-2219" transform="translate(118.344896 -15.821875) scale(0.7)"/>
      <use xlink:href="#DejaVuSans-29" transform="translate(162.163255 -15.821875) scale(0.7)"/>
     </g>
    </g>
   </g>
   <g id="line2d_34">
    <g clip-path="url(#p106978f5aa)">
     <use xlink:href="#m3c05189503" x="45.371639" y="75.820508" style="fill: #ff0000; stroke: #ff0000"/>
     <use xlink:href="#m3c05189503" x="102.372828" y="73.82184" style="fill: #ff0000; stroke: #ff0000"/>
     <use xlink:href="#m3c05189503" x="187.874611" y="70.69747" style="fill: #ff0000; stroke: #ff0000"/>
    </g>
   </g>
   <g id="line2d_35">
    <g clip-path="url(#p106978f5aa)">
     <use xlink:href="#mb8ee513d1f" x="45.371639" y="69.049909" style="fill: #008000; stroke: #008000"/>
     <use xlink:href="#mb8ee513d1f" x="102.372828" y="68.924997" style="fill: #008000; stroke: #008000"/>
     <use xlink:href="#mb8ee513d1f" x="187.874611" y="68.431083" style="fill: #008000; stroke: #008000"/>
    </g>
   </g>
   <g id="line2d_36">
    <g clip-path="url(#p106978f5aa)">
     <use xlink:href="#ma385bacd0c" x="45.371639" y="74.514285" style="fill: #0000ff; stroke: #0000ff"/>
     <use xlink:href="#ma385bacd0c" x="102.372828" y="72.640529" style="fill: #0000ff; stroke: #0000ff"/>
     <use xlink:href="#ma385bacd0c" x="187.874611" y="70.010073" style="fill: #0000ff; stroke: #0000ff"/>
    </g>
   </g>
   <g id="line2d_37">
    <path d="M 45.371639 75.614192 
L 102.372828 73.237338 
L 187.874611 70.262522 
" clip-path="url(#p106978f5aa)" style="fill: none; stroke: #ff0000; stroke-width: 0.75; stroke-linecap: round"/>
   </g>
   <g id="line2d_38">
    <path d="M 45.371639 68.638312 
L 102.372828 68.368139 
L 187.874611 68.029997 
" clip-path="url(#p106978f5aa)" style="fill: none; stroke: #008000; stroke-width: 0.75; stroke-linecap: round"/>
   </g>
   <g id="line2d_39">
    <path d="M 45.371639 74.719566 
L 102.372828 72.612885 
L 187.874611 69.97621 
" clip-path="url(#p106978f5aa)" style="fill: none; stroke: #0000ff; stroke-width: 0.75; stroke-linecap: round"/>
   </g>
   <g id="patch_6">
    <path d="M 38.24649 77.836007 
L 38.24649 50.857733 
" style="fill: none; stroke: #000000; stroke-linejoin: miter; stroke-linecap: square"/>
   </g>
   <g id="patch_7">
    <path d="M 38.24649 77.836007 
L 194.99976 77.836007 
" style="fill: none; stroke: #000000; stroke-linejoin: miter; stroke-linecap: square"/>
   </g>
  </g>
  <g id="axes_3">
   <g id="patch_8">
    <path d="M 38.24649 110.81476 
L 194.99976 110.81476 
L 194.99976 83.836487 
L 38.24649 83.836487 
z
" style="fill: #ffffff"/>
   </g>
   <g id="matplotlib.axis_5">
    <g id="xtick_9">
     <g id="line2d_40">
      <path d="M 68.172114 110.81476 
L 68.172114 83.836487 
" clip-path="url(#p93c2bc79f7)" style="fill: none; stroke: #b0b0b0; stroke-width: 0.8; stroke-linecap: round"/>
     </g>
     <g id="line2d_41"/>
     <g id="text_10">
      <!-- −0.30 -->
      <g style="fill: #262626" transform="translate(55.913989 120.39351) scale(0.08 -0.08)">
       <defs>
        <path id="DejaVuSerif-33" d="M 622 4469 
Q 988 4606 1323 4678 
Q 1659 4750 1953 4750 
Q 2638 4750 3022 4454 
Q 3406 4159 3406 3634 
Q 3406 3213 3140 2930 
Q 2875 2647 2388 2547 
Q 2963 2466 3280 2130 
Q 3597 1794 3597 1259 
Q 3597 606 3158 257 
Q 2719 -91 1894 -91 
Q 1528 -91 1179 -12 
Q 831 66 488 225 
L 488 1131 
L 838 1131 
Q 869 681 1141 450 
Q 1413 219 1906 219 
Q 2384 219 2661 495 
Q 2938 772 2938 1253 
Q 2938 1803 2653 2086 
Q 2369 2369 1819 2369 
L 1522 2369 
L 1522 2688 
L 1678 2688 
Q 2225 2688 2498 2914 
Q 2772 3141 2772 3597 
Q 2772 4006 2547 4223 
Q 2322 4441 1900 4441 
Q 1478 4441 1245 4241 
Q 1013 4041 972 3647 
L 622 3647 
L 622 4469 
z
" transform="scale(0.015625)"/>
       </defs>
       <use xlink:href="#DejaVuSerif-2212"/>
       <use xlink:href="#DejaVuSerif-30" x="83.789062"/>
       <use xlink:href="#DejaVuSerif-2e" x="147.412109"/>
       <use xlink:href="#DejaVuSerif-33" x="179.199219"/>
       <use xlink:href="#DejaVuSerif-30" x="242.822266"/>
      </g>
     </g>
    </g>
    <g id="xtick_10">
     <g id="line2d_42">
      <path d="M 102.372828 110.81476 
L 102.372828 83.836487 
" clip-path="url(#p93c2bc79f7)" style="fill: none; stroke: #b0b0b0; stroke-width: 0.8; stroke-linecap: round"/>
     </g>
     <g id="line2d_43"/>
     <g id="text_11">
      <!-- −0.25 -->
      <g style="fill: #262626" transform="translate(90.114703 120.39351) scale(0.08 -0.08)">
       <use xlink:href="#DejaVuSerif-2212"/>
       <use xlink:href="#DejaVuSerif-30" x="83.789062"/>
       <use xlink:href="#DejaVuSerif-2e" x="147.412109"/>
       <use xlink:href="#DejaVuSerif-32" x="179.199219"/>
       <use xlink:href="#DejaVuSerif-35" x="242.822266"/>
      </g>
     </g>
    </g>
    <g id="xtick_11">
     <g id="line2d_44">
      <path d="M 136.573541 110.81476 
L 136.573541 83.836487 
" clip-path="url(#p93c2bc79f7)" style="fill: none; stroke: #b0b0b0; stroke-width: 0.8; stroke-linecap: round"/>
     </g>
     <g id="line2d_45"/>
     <g id="text_12">
      <!-- −0.20 -->
      <g style="fill: #262626" transform="translate(124.315416 120.39351) scale(0.08 -0.08)">
       <use xlink:href="#DejaVuSerif-2212"/>
       <use xlink:href="#DejaVuSerif-30" x="83.789062"/>
       <use xlink:href="#DejaVuSerif-2e" x="147.412109"/>
       <use xlink:href="#DejaVuSerif-32" x="179.199219"/>
       <use xlink:href="#DejaVuSerif-30" x="242.822266"/>
      </g>
     </g>
    </g>
    <g id="xtick_12">
     <g id="line2d_46">
      <path d="M 170.774255 110.81476 
L 170.774255 83.836487 
" clip-path="url(#p93c2bc79f7)" style="fill: none; stroke: #b0b0b0; stroke-width: 0.8; stroke-linecap: round"/>
     </g>
     <g id="line2d_47"/>
     <g id="text_13">
      <!-- −0.15 -->
      <g style="fill: #262626" transform="translate(158.51613 120.39351) scale(0.08 -0.08)">
       <defs>
        <path id="DejaVuSerif-31" d="M 909 0 
L 909 331 
L 1722 331 
L 1722 4213 
L 781 3603 
L 781 4013 
L 1919 4750 
L 2350 4750 
L 2350 331 
L 3163 331 
L 3163 0 
L 909 0 
z
" transform="scale(0.015625)"/>
       </defs>
       <use xlink:href="#DejaVuSerif-2212"/>
       <use xlink:href="#DejaVuSerif-30" x="83.789062"/>
       <use xlink:href="#DejaVuSerif-2e" x="147.412109"/>
       <use xlink:href="#DejaVuSerif-31" x="179.199219"/>
       <use xlink:href="#DejaVuSerif-35" x="242.822266"/>
      </g>
     </g>
    </g>
    <g id="text_14">
     <!-- $r'$ -->
     <g style="fill: #262626" transform="translate(113.903125 132.13601) scale(0.08 -0.08)">
      <defs>
       <path id="DejaVuSans-Oblique-72" d="M 2853 2969 
Q 2766 3016 2653 3041 
Q 2541 3066 2413 3066 
Q 1953 3066 1609 2717 
Q 1266 2369 1153 1784 
L 800 0 
L 225 0 
L 909 3500 
L 1484 3500 
L 1375 2956 
Q 1603 3259 1920 3421 
Q 2238 3584 2597 3584 
Q 2691 3584 2781 3573 
Q 2872 3563 2963 3538 
L 2853 2969 
z
" transform="scale(0.015625)"/>
      </defs>
      <use xlink:href="#DejaVuSans-Oblique-72" transform="translate(0 0.584375)"/>
      <use xlink:href="#Cmsy10-30" transform="translate(45.763177 38.865625) scale(0.7)"/>
     </g>
    </g>
   </g>
   <g id="matplotlib.axis_6">
    <g id="ytick_5">
     <g id="line2d_48">
      <path d="M 38.24649 103.008067 
L 194.99976 103.008067 
" clip-path="url(#p93c2bc79f7)" style="fill: none; stroke: #b0b0b0; stroke-width: 0.8; stroke-linecap: round"/>
     </g>
     <g id="line2d_49"/>
     <g id="text_15">
      <!-- 0.0 -->
      <g style="fill: #262626" transform="translate(22.02399 106.047442) scale(0.08 -0.08)">
       <use xlink:href="#DejaVuSerif-30"/>
       <use xlink:href="#DejaVuSerif-2e" x="63.623047"/>
       <use xlink:href="#DejaVuSerif-30" x="95.410156"/>
      </g>
     </g>
    </g>
    <g id="ytick_6">
     <g id="line2d_50">
      <path d="M 38.24649 90.425748 
L 194.99976 90.425748 
" clip-path="url(#p93c2bc79f7)" style="fill: none; stroke: #b0b0b0; stroke-width: 0.8; stroke-linecap: round"/>
     </g>
     <g id="line2d_51"/>
     <g id="text_16">
      <!-- 0.5 -->
      <g style="fill: #262626" transform="translate(22.02399 93.465123) scale(0.08 -0.08)">
       <use xlink:href="#DejaVuSerif-30"/>
       <use xlink:href="#DejaVuSerif-2e" x="63.623047"/>
       <use xlink:href="#DejaVuSerif-35" x="95.410156"/>
      </g>
     </g>
    </g>
    <g id="text_17">
     <!-- ${N'}_{(\bullet)}$ -->
     <g style="fill: #262626" transform="translate(9.24024 105.565623) rotate(-90) scale(0.08 -0.08)">
      <defs>
       <path id="DejaVuSans-Oblique-4e" d="M 1081 4666 
L 1931 4666 
L 3219 666 
L 4000 4666 
L 4616 4666 
L 3706 0 
L 2853 0 
L 1569 4025 
L 788 0 
L 172 0 
L 1081 4666 
z
" transform="scale(0.015625)"/>
      </defs>
      <use xlink:href="#DejaVuSans-Oblique-4e" transform="translate(0 0.584375)"/>
      <use xlink:href="#Cmsy10-30" transform="translate(81.821458 38.865625) scale(0.7)"/>
      <use xlink:href="#DejaVuSans-28" transform="translate(104.756029 -15.821875) scale(0.7)"/>
      <use xlink:href="#DejaVuSans-2219" transform="translate(132.065599 -15.821875) scale(0.7)"/>
      <use xlink:href="#DejaVuSans-29" transform="translate(175.883958 -15.821875) scale(0.7)"/>
     </g>
    </g>
   </g>
   <g id="line2d_52">
    <g clip-path="url(#p93c2bc79f7)">
     <use xlink:href="#m3c05189503" x="45.371639" y="83.836487" style="fill: #ff0000; stroke: #ff0000"/>
     <use xlink:href="#m3c05189503" x="102.372828" y="89.646122" style="fill: #ff0000; stroke: #ff0000"/>
     <use xlink:href="#m3c05189503" x="187.874611" y="97.211812" style="fill: #ff0000; stroke: #ff0000"/>
    </g>
   </g>
   <g id="line2d_53">
    <g clip-path="url(#p93c2bc79f7)">
     <use xlink:href="#mb8ee513d1f" x="45.371639" y="94.611729" style="fill: #008000; stroke: #008000"/>
     <use xlink:href="#mb8ee513d1f" x="102.372828" y="97.440813" style="fill: #008000; stroke: #008000"/>
     <use xlink:href="#mb8ee513d1f" x="187.874611" y="100.817013" style="fill: #008000; stroke: #008000"/>
    </g>
   </g>
   <g id="line2d_54">
    <g clip-path="url(#p93c2bc79f7)">
     <use xlink:href="#ma385bacd0c" x="45.371639" y="92.232825" style="fill: #0000ff; stroke: #0000ff"/>
     <use xlink:href="#ma385bacd0c" x="102.372828" y="95.213376" style="fill: #0000ff; stroke: #0000ff"/>
     <use xlink:href="#ma385bacd0c" x="187.874611" y="99.402866" style="fill: #0000ff; stroke: #0000ff"/>
    </g>
   </g>
   <g id="line2d_55">
    <path d="M 45.371639 83.840225 
L 102.372828 89.290491 
L 187.874611 96.516036 
" clip-path="url(#p93c2bc79f7)" style="fill: none; stroke: #ff0000; stroke-width: 0.75; stroke-linecap: round"/>
   </g>
   <g id="line2d_56">
    <path d="M 45.371639 95.094818 
L 102.372828 97.146252 
L 187.874611 100.117897 
" clip-path="url(#p93c2bc79f7)" style="fill: none; stroke: #008000; stroke-width: 0.75; stroke-linecap: round"/>
   </g>
   <g id="line2d_57">
    <path d="M 45.371639 91.753474 
L 102.372828 95.152306 
L 187.874611 99.406206 
" clip-path="url(#p93c2bc79f7)" style="fill: none; stroke: #0000ff; stroke-width: 0.75; stroke-linecap: round"/>
   </g>
   <g id="patch_9">
    <path d="M 38.24649 110.81476 
L 38.24649 83.836487 
" style="fill: none; stroke: #000000; stroke-linejoin: miter; stroke-linecap: square"/>
   </g>
   <g id="patch_10">
    <path d="M 38.24649 110.81476 
L 194.99976 110.81476 
" style="fill: none; stroke: #000000; stroke-linejoin: miter; stroke-linecap: square"/>
   </g>
  </g>
 </g>
 <defs>
  <clipPath id="p0cfb01182c">
   <rect x="38.24649" y="14.792871" width="156.75327" height="26.978273"/>
  </clipPath>
  <clipPath id="p106978f5aa">
   <rect x="38.24649" y="50.857733" width="156.75327" height="26.978273"/>
  </clipPath>
  <clipPath id="p93c2bc79f7">
   <rect x="38.24649" y="83.836487" width="156.75327" height="26.978273"/>
  </clipPath>
 </defs>
</svg>
