<?xml version="1.0" encoding="utf-8" standalone="no"?>
<!DOCTYPE svg PUBLIC "-//W3C//DTD SVG 1.1//EN"
  "http://www.w3.org/Graphics/SVG/1.1/DTD/svg11.dtd">
<svg xmlns:xlink="http://www.w3.org/1999/xlink" width="396pt" height="273.6pt" viewBox="0 0 396 273.6" xmlns="http://www.w3.org/2000/svg" version="1.1">
 <metadata>
  <rdf:RDF xmlns:dc="http://purl.org/dc/elements/1.1/" xmlns:cc="http://creativecommons.org/ns#" xmlns:rdf="http://www.w3.org/1999/02/22-rdf-syntax-ns#">
   <cc:Work>
    <dc:type rdf:resource="http://purl.org/dc/dcmitype/StillImage"/>
    <dc:date>2024-02-12T14:06:43.866709</dc:date>
    <dc:format>image/svg+xml</dc:format>
    <dc:creator>
     <cc:Agent>
      <dc:title>Matplotlib v3.8.2, https://matplotlib.org/</dc:title>
     </cc:Agent>
    </dc:creator>
   </cc:Work>
  </rdf:RDF>
 </metadata>
 <defs>
  <style type="text/css">*{stroke-linejoin: round; stroke-linecap: butt}</style>
 </defs>
 <g id="figure_1">
  <g id="patch_1">
   <path d="M 0 273.6 
L 396 273.6 
L 396 0 
L 0 0 
z
" style="fill: #ffffff"/>
  </g>
  <g id="axes_1">
   <g id="patch_2">
    <path d="M 47.441021 81.698167 
L 392.99976 81.698167 
L 392.99976 5.718007 
L 47.441021 5.718007 
z
" style="fill: #ffffff"/>
   </g>
   <g id="matplotlib.axis_1">
    <g id="xtick_1">
     <g id="line2d_1">
      <path d="M 89.326929 81.698167 
L 89.326929 5.718007 
" clip-path="url(#p94c03eb2e3)" style="fill: none; stroke: #b0b0b0; stroke-width: 0.8; stroke-linecap: round"/>
     </g>
     <g id="line2d_2"/>
    </g>
    <g id="xtick_2">
     <g id="line2d_3">
      <path d="M 141.684314 81.698167 
L 141.684314 5.718007 
" clip-path="url(#p94c03eb2e3)" style="fill: none; stroke: #b0b0b0; stroke-width: 0.8; stroke-linecap: round"/>
     </g>
     <g id="line2d_4"/>
    </g>
    <g id="xtick_3">
     <g id="line2d_5">
      <path d="M 194.041698 81.698167 
L 194.041698 5.718007 
" clip-path="url(#p94c03eb2e3)" style="fill: none; stroke: #b0b0b0; stroke-width: 0.8; stroke-linecap: round"/>
     </g>
     <g id="line2d_6"/>
    </g>
    <g id="xtick_4">
     <g id="line2d_7">
      <path d="M 246.399083 81.698167 
L 246.399083 5.718007 
" clip-path="url(#p94c03eb2e3)" style="fill: none; stroke: #b0b0b0; stroke-width: 0.8; stroke-linecap: round"/>
     </g>
     <g id="line2d_8"/>
    </g>
    <g id="xtick_5">
     <g id="line2d_9">
      <path d="M 298.756468 81.698167 
L 298.756468 5.718007 
" clip-path="url(#p94c03eb2e3)" style="fill: none; stroke: #b0b0b0; stroke-width: 0.8; stroke-linecap: round"/>
     </g>
     <g id="line2d_10"/>
    </g>
    <g id="xtick_6">
     <g id="line2d_11">
      <path d="M 351.113852 81.698167 
L 351.113852 5.718007 
" clip-path="url(#p94c03eb2e3)" style="fill: none; stroke: #b0b0b0; stroke-width: 0.8; stroke-linecap: round"/>
     </g>
     <g id="line2d_12"/>
    </g>
   </g>
   <g id="matplotlib.axis_2">
    <g id="ytick_1">
     <g id="line2d_13">
      <path d="M 47.441021 72.888533 
L 392.99976 72.888533 
" clip-path="url(#p94c03eb2e3)" style="fill: none; stroke: #b0b0b0; stroke-width: 0.8; stroke-linecap: round"/>
     </g>
     <g id="line2d_14"/>
     <g id="text_1">
      <!-- −0.50 -->
      <g style="fill: #262626" transform="translate(16.36024 76.30783) scale(0.09 -0.09)">
       <defs>
        <path id="DejaVuSerif-2212" d="M 678 2259 
L 4684 2259 
L 4684 1753 
L 678 1753 
L 678 2259 
z
" transform="scale(0.015625)"/>
        <path id="DejaVuSerif-30" d="M 2034 219 
Q 2513 219 2750 744 
Q 2988 1269 2988 2328 
Q 2988 3391 2750 3916 
Q 2513 4441 2034 4441 
Q 1556 4441 1318 3916 
Q 1081 3391 1081 2328 
Q 1081 1269 1318 744 
Q 1556 219 2034 219 
z
M 2034 -91 
Q 1275 -91 848 546 
Q 422 1184 422 2328 
Q 422 3475 848 4112 
Q 1275 4750 2034 4750 
Q 2797 4750 3222 4112 
Q 3647 3475 3647 2328 
Q 3647 1184 3222 546 
Q 2797 -91 2034 -91 
z
" transform="scale(0.015625)"/>
        <path id="DejaVuSerif-2e" d="M 603 325 
Q 603 500 722 622 
Q 841 744 1019 744 
Q 1191 744 1312 622 
Q 1434 500 1434 325 
Q 1434 153 1312 31 
Q 1191 -91 1019 -91 
Q 841 -91 722 29 
Q 603 150 603 325 
z
" transform="scale(0.015625)"/>
        <path id="DejaVuSerif-35" d="M 3219 4666 
L 3219 4153 
L 1081 4153 
L 1081 2816 
Q 1244 2928 1461 2984 
Q 1678 3041 1947 3041 
Q 2703 3041 3140 2622 
Q 3578 2203 3578 1478 
Q 3578 738 3136 323 
Q 2694 -91 1894 -91 
Q 1572 -91 1234 -12 
Q 897 66 544 225 
L 544 1131 
L 897 1131 
Q 925 688 1179 453 
Q 1434 219 1894 219 
Q 2388 219 2653 544 
Q 2919 869 2919 1478 
Q 2919 2084 2655 2407 
Q 2391 2731 1894 2731 
Q 1613 2731 1398 2631 
Q 1184 2531 1019 2322 
L 750 2322 
L 750 4666 
L 3219 4666 
z
" transform="scale(0.015625)"/>
       </defs>
       <use xlink:href="#DejaVuSerif-2212"/>
       <use xlink:href="#DejaVuSerif-30" x="83.789062"/>
       <use xlink:href="#DejaVuSerif-2e" x="147.412109"/>
       <use xlink:href="#DejaVuSerif-35" x="179.199219"/>
       <use xlink:href="#DejaVuSerif-30" x="242.822266"/>
      </g>
     </g>
    </g>
    <g id="ytick_2">
     <g id="line2d_15">
      <path d="M 47.441021 50.729446 
L 392.99976 50.729446 
" clip-path="url(#p94c03eb2e3)" style="fill: none; stroke: #b0b0b0; stroke-width: 0.8; stroke-linecap: round"/>
     </g>
     <g id="line2d_16"/>
     <g id="text_2">
      <!-- −0.25 -->
      <g style="fill: #262626" transform="translate(16.36024 54.148743) scale(0.09 -0.09)">
       <defs>
        <path id="DejaVuSerif-32" d="M 819 3553 
L 469 3553 
L 469 4384 
Q 803 4563 1142 4656 
Q 1481 4750 1806 4750 
Q 2534 4750 2956 4397 
Q 3378 4044 3378 3438 
Q 3378 2753 2422 1800 
Q 2347 1728 2309 1691 
L 1131 513 
L 3078 513 
L 3078 1088 
L 3444 1088 
L 3444 0 
L 434 0 
L 434 341 
L 1850 1753 
Q 2319 2222 2519 2614 
Q 2719 3006 2719 3438 
Q 2719 3909 2473 4175 
Q 2228 4441 1797 4441 
Q 1350 4441 1106 4219 
Q 863 3997 819 3553 
z
" transform="scale(0.015625)"/>
       </defs>
       <use xlink:href="#DejaVuSerif-2212"/>
       <use xlink:href="#DejaVuSerif-30" x="83.789062"/>
       <use xlink:href="#DejaVuSerif-2e" x="147.412109"/>
       <use xlink:href="#DejaVuSerif-32" x="179.199219"/>
       <use xlink:href="#DejaVuSerif-35" x="242.822266"/>
      </g>
     </g>
    </g>
    <g id="ytick_3">
     <g id="line2d_17">
      <path d="M 47.441021 28.570358 
L 392.99976 28.570358 
" clip-path="url(#p94c03eb2e3)" style="fill: none; stroke: #b0b0b0; stroke-width: 0.8; stroke-linecap: round"/>
     </g>
     <g id="line2d_18"/>
     <g id="text_3">
      <!-- 0.00 -->
      <g style="fill: #262626" transform="translate(23.901959 31.989655) scale(0.09 -0.09)">
       <use xlink:href="#DejaVuSerif-30"/>
       <use xlink:href="#DejaVuSerif-2e" x="63.623047"/>
       <use xlink:href="#DejaVuSerif-30" x="95.410156"/>
       <use xlink:href="#DejaVuSerif-30" x="159.033203"/>
      </g>
     </g>
    </g>
    <g id="ytick_4">
     <g id="line2d_19">
      <path d="M 47.441021 6.411271 
L 392.99976 6.411271 
" clip-path="url(#p94c03eb2e3)" style="fill: none; stroke: #b0b0b0; stroke-width: 0.8; stroke-linecap: round"/>
     </g>
     <g id="line2d_20"/>
     <g id="text_4">
      <!-- 0.25 -->
      <g style="fill: #262626" transform="translate(23.901959 9.830568) scale(0.09 -0.09)">
       <use xlink:href="#DejaVuSerif-30"/>
       <use xlink:href="#DejaVuSerif-2e" x="63.623047"/>
       <use xlink:href="#DejaVuSerif-32" x="95.410156"/>
       <use xlink:href="#DejaVuSerif-35" x="159.033203"/>
      </g>
     </g>
    </g>
    <g id="text_5">
     <!-- $1000 \cdot {X'}_{(\bullet)}$ -->
     <g style="fill: #262626" transform="translate(10.02024 67.333087) rotate(-90) scale(0.09 -0.09)">
      <defs>
       <path id="DejaVuSans-31" d="M 794 531 
L 1825 531 
L 1825 4091 
L 703 3866 
L 703 4441 
L 1819 4666 
L 2450 4666 
L 2450 531 
L 3481 531 
L 3481 0 
L 794 0 
L 794 531 
z
" transform="scale(0.015625)"/>
       <path id="DejaVuSans-30" d="M 2034 4250 
Q 1547 4250 1301 3770 
Q 1056 3291 1056 2328 
Q 1056 1369 1301 889 
Q 1547 409 2034 409 
Q 2525 409 2770 889 
Q 3016 1369 3016 2328 
Q 3016 3291 2770 3770 
Q 2525 4250 2034 4250 
z
M 2034 4750 
Q 2819 4750 3233 4129 
Q 3647 3509 3647 2328 
Q 3647 1150 3233 529 
Q 2819 -91 2034 -91 
Q 1250 -91 836 529 
Q 422 1150 422 2328 
Q 422 3509 836 4129 
Q 1250 4750 2034 4750 
z
" transform="scale(0.015625)"/>
       <path id="DejaVuSans-22c5" d="M 684 2619 
L 1344 2619 
L 1344 1825 
L 684 1825 
L 684 2619 
z
" transform="scale(0.015625)"/>
       <path id="DejaVuSans-Oblique-58" d="M 878 4666 
L 1516 4666 
L 2316 2981 
L 3763 4666 
L 4500 4666 
L 2578 2438 
L 3738 0 
L 3103 0 
L 2163 1966 
L 459 0 
L -275 0 
L 1906 2509 
L 878 4666 
z
" transform="scale(0.015625)"/>
       <path id="Cmsy10-30" d="M 225 347 
Q 184 359 184 409 
L 966 3316 
Q 1003 3434 1093 3506 
Q 1184 3578 1300 3578 
Q 1450 3578 1564 3479 
Q 1678 3381 1678 3231 
Q 1678 3166 1644 3084 
L 488 319 
Q 466 275 428 275 
Q 394 275 320 306 
Q 247 338 225 347 
z
" transform="scale(0.015625)"/>
       <path id="DejaVuSans-28" d="M 1984 4856 
Q 1566 4138 1362 3434 
Q 1159 2731 1159 2009 
Q 1159 1288 1364 580 
Q 1569 -128 1984 -844 
L 1484 -844 
Q 1016 -109 783 600 
Q 550 1309 550 2009 
Q 550 2706 781 3412 
Q 1013 4119 1484 4856 
L 1984 4856 
z
" transform="scale(0.015625)"/>
       <path id="DejaVuSans-2219" d="M 1075 2006 
Q 1075 2394 1345 2661 
Q 1616 2928 2009 2928 
Q 2397 2928 2664 2661 
Q 2931 2394 2931 2006 
Q 2931 1616 2662 1347 
Q 2394 1078 2003 1078 
Q 1613 1078 1344 1347 
Q 1075 1616 1075 2006 
z
" transform="scale(0.015625)"/>
       <path id="DejaVuSans-29" d="M 513 4856 
L 1013 4856 
Q 1481 4119 1714 3412 
Q 1947 2706 1947 2009 
Q 1947 1309 1714 600 
Q 1481 -109 1013 -844 
L 513 -844 
Q 928 -128 1133 580 
Q 1338 1288 1338 2009 
Q 1338 2731 1133 3434 
Q 928 4138 513 4856 
z
" transform="scale(0.015625)"/>
      </defs>
      <use xlink:href="#DejaVuSans-31" transform="translate(0 0.584375)"/>
      <use xlink:href="#DejaVuSans-30" transform="translate(63.623047 0.584375)"/>
      <use xlink:href="#DejaVuSans-30" transform="translate(127.246094 0.584375)"/>
      <use xlink:href="#DejaVuSans-30" transform="translate(190.869141 0.584375)"/>
      <use xlink:href="#DejaVuSans-22c5" transform="translate(273.974609 0.584375)"/>
      <use xlink:href="#DejaVuSans-Oblique-58" transform="translate(325.244141 0.584375)"/>
      <use xlink:href="#Cmsy10-30" transform="translate(400.766771 38.865625) scale(0.7)"/>
      <use xlink:href="#DejaVuSans-28" transform="translate(423.701341 -15.821875) scale(0.7)"/>
      <use xlink:href="#DejaVuSans-2219" transform="translate(451.010911 -15.821875) scale(0.7)"/>
      <use xlink:href="#DejaVuSans-29" transform="translate(494.829271 -15.821875) scale(0.7)"/>
     </g>
    </g>
   </g>
   <g id="line2d_21">
    <defs>
     <path id="m25704e8b11" d="M -3 3 
L 3 -3 
M -3 -3 
L 3 3 
" style="stroke: #ff0000"/>
    </defs>
    <g clip-path="url(#p94c03eb2e3)">
     <use xlink:href="#m25704e8b11" x="63.148237" y="45.341864" style="fill: #ff0000; stroke: #ff0000"/>
     <use xlink:href="#m25704e8b11" x="194.041698" y="35.857319" style="fill: #ff0000; stroke: #ff0000"/>
     <use xlink:href="#m25704e8b11" x="298.756468" y="31.20034" style="fill: #ff0000; stroke: #ff0000"/>
     <use xlink:href="#m25704e8b11" x="377.292545" y="29.372968" style="fill: #ff0000; stroke: #ff0000"/>
    </g>
   </g>
   <g id="line2d_22">
    <defs>
     <path id="m427381ef75" d="M -3 3 
L 3 -3 
M -3 -3 
L 3 3 
" style="stroke: #008000"/>
    </defs>
    <g clip-path="url(#p94c03eb2e3)">
     <use xlink:href="#m427381ef75" x="63.148237" y="77.086406" style="fill: #008000; stroke: #008000"/>
     <use xlink:href="#m427381ef75" x="194.041698" y="77.569266" style="fill: #008000; stroke: #008000"/>
     <use xlink:href="#m427381ef75" x="298.756468" y="77.867885" style="fill: #008000; stroke: #008000"/>
     <use xlink:href="#m427381ef75" x="377.292545" y="77.793767" style="fill: #008000; stroke: #008000"/>
    </g>
   </g>
   <g id="line2d_23">
    <defs>
     <path id="m35bfcbadb8" d="M -3 3 
L 3 -3 
M -3 -3 
L 3 3 
" style="stroke: #0000ff"/>
    </defs>
    <g clip-path="url(#p94c03eb2e3)">
     <use xlink:href="#m35bfcbadb8" x="63.148237" y="55.911582" style="fill: #0000ff; stroke: #0000ff"/>
     <use xlink:href="#m35bfcbadb8" x="194.041698" y="45.481636" style="fill: #0000ff; stroke: #0000ff"/>
     <use xlink:href="#m35bfcbadb8" x="298.756468" y="40.253063" style="fill: #0000ff; stroke: #0000ff"/>
     <use xlink:href="#m35bfcbadb8" x="377.292545" y="38.377674" style="fill: #0000ff; stroke: #0000ff"/>
    </g>
   </g>
   <g id="line2d_24">
    <path d="M 63.148237 41.878734 
L 194.041698 32.395254 
L 298.756468 28.04228 
L 377.292545 26.351522 
" clip-path="url(#p94c03eb2e3)" style="fill: none; stroke: #ff0000; stroke-width: 1.5; stroke-linecap: round"/>
   </g>
   <g id="line2d_25">
    <path d="M 63.148237 77.743617 
L 194.041698 77.743617 
L 298.756468 77.743617 
L 377.292545 77.743617 
" clip-path="url(#p94c03eb2e3)" style="fill: none; stroke: #008000; stroke-width: 1.5; stroke-linecap: round"/>
   </g>
   <g id="line2d_26">
    <path d="M 63.148237 54.815869 
L 194.041698 44.84617 
L 298.756468 40.206248 
L 377.292545 38.387104 
" clip-path="url(#p94c03eb2e3)" style="fill: none; stroke: #0000ff; stroke-width: 1.5; stroke-linecap: round"/>
   </g>
   <g id="patch_3">
    <path d="M 47.441021 81.698167 
L 47.441021 5.718007 
" style="fill: none; stroke: #000000; stroke-linejoin: miter; stroke-linecap: square"/>
   </g>
   <g id="patch_4">
    <path d="M 47.441021 81.698167 
L 392.99976 81.698167 
" style="fill: none; stroke: #000000; stroke-linejoin: miter; stroke-linecap: square"/>
   </g>
   <g id="legend_1">
    <g id="line2d_27">
     <path d="M 203.69625 42.155823 
L 212.69625 42.155823 
L 221.69625 42.155823 
" style="fill: none; stroke: #ff0000; stroke-width: 1.5; stroke-linecap: round"/>
    </g>
    <g id="text_6">
     <!-- D -->
     <g style="fill: #262626" transform="translate(228.89625 45.305823) scale(0.09 -0.09)">
      <defs>
       <path id="DejaVuSerif-44" d="M 1581 331 
L 2163 331 
Q 3072 331 3558 850 
Q 4044 1369 4044 2338 
Q 4044 3306 3559 3818 
Q 3075 4331 2163 4331 
L 1581 4331 
L 1581 331 
z
M 353 0 
L 353 331 
L 947 331 
L 947 4331 
L 353 4331 
L 353 4666 
L 2209 4666 
Q 3416 4666 4089 4050 
Q 4763 3434 4763 2338 
Q 4763 1238 4088 619 
Q 3413 0 2209 0 
L 353 0 
z
" transform="scale(0.015625)"/>
      </defs>
      <use xlink:href="#DejaVuSerif-44"/>
     </g>
    </g>
    <g id="line2d_28">
     <path d="M 203.69625 55.366136 
L 212.69625 55.366136 
L 221.69625 55.366136 
" style="fill: none; stroke: #008000; stroke-width: 1.5; stroke-linecap: round"/>
    </g>
    <g id="text_7">
     <!-- H -->
     <g style="fill: #262626" transform="translate(228.89625 58.516136) scale(0.09 -0.09)">
      <defs>
       <path id="DejaVuSerif-48" d="M 353 0 
L 353 331 
L 947 331 
L 947 4331 
L 353 4331 
L 353 4666 
L 2175 4666 
L 2175 4331 
L 1581 4331 
L 1581 2719 
L 4000 2719 
L 4000 4331 
L 3406 4331 
L 3406 4666 
L 5228 4666 
L 5228 4331 
L 4634 4331 
L 4634 331 
L 5228 331 
L 5228 0 
L 3406 0 
L 3406 331 
L 4000 331 
L 4000 2338 
L 1581 2338 
L 1581 331 
L 2175 331 
L 2175 0 
L 353 0 
z
" transform="scale(0.015625)"/>
      </defs>
      <use xlink:href="#DejaVuSerif-48"/>
     </g>
    </g>
    <g id="line2d_29">
     <path d="M 203.69625 68.576448 
L 212.69625 68.576448 
L 221.69625 68.576448 
" style="fill: none; stroke: #0000ff; stroke-width: 1.5; stroke-linecap: round"/>
    </g>
    <g id="text_8">
     <!-- R -->
     <g style="fill: #262626" transform="translate(228.89625 71.726448) scale(0.09 -0.09)">
      <defs>
       <path id="DejaVuSerif-52" d="M 3066 2316 
Q 3284 2256 3442 2114 
Q 3600 1972 3725 1716 
L 4403 331 
L 4972 331 
L 4972 0 
L 3872 0 
L 3144 1484 
Q 2934 1916 2759 2042 
Q 2584 2169 2278 2169 
L 1581 2169 
L 1581 331 
L 2241 331 
L 2241 0 
L 353 0 
L 353 331 
L 947 331 
L 947 4331 
L 353 4331 
L 353 4666 
L 2719 4666 
Q 3400 4666 3770 4341 
Q 4141 4016 4141 3419 
Q 4141 2938 3870 2661 
Q 3600 2384 3066 2316 
z
M 1581 2503 
L 2503 2503 
Q 2975 2503 3200 2726 
Q 3425 2950 3425 3419 
Q 3425 3888 3200 4109 
Q 2975 4331 2503 4331 
L 1581 4331 
L 1581 2503 
z
" transform="scale(0.015625)"/>
      </defs>
      <use xlink:href="#DejaVuSerif-52"/>
     </g>
    </g>
   </g>
  </g>
  <g id="axes_2">
   <g id="patch_5">
    <path d="M 47.441021 163.678807 
L 392.99976 163.678807 
L 392.99976 87.698647 
L 47.441021 87.698647 
z
" style="fill: #ffffff"/>
   </g>
   <g id="matplotlib.axis_3">
    <g id="xtick_7">
     <g id="line2d_30">
      <path d="M 89.326929 163.678807 
L 89.326929 87.698647 
" clip-path="url(#p219b915f7c)" style="fill: none; stroke: #b0b0b0; stroke-width: 0.8; stroke-linecap: round"/>
     </g>
     <g id="line2d_31"/>
    </g>
    <g id="xtick_8">
     <g id="line2d_32">
      <path d="M 141.684314 163.678807 
L 141.684314 87.698647 
" clip-path="url(#p219b915f7c)" style="fill: none; stroke: #b0b0b0; stroke-width: 0.8; stroke-linecap: round"/>
     </g>
     <g id="line2d_33"/>
    </g>
    <g id="xtick_9">
     <g id="line2d_34">
      <path d="M 194.041698 163.678807 
L 194.041698 87.698647 
" clip-path="url(#p219b915f7c)" style="fill: none; stroke: #b0b0b0; stroke-width: 0.8; stroke-linecap: round"/>
     </g>
     <g id="line2d_35"/>
    </g>
    <g id="xtick_10">
     <g id="line2d_36">
      <path d="M 246.399083 163.678807 
L 246.399083 87.698647 
" clip-path="url(#p219b915f7c)" style="fill: none; stroke: #b0b0b0; stroke-width: 0.8; stroke-linecap: round"/>
     </g>
     <g id="line2d_37"/>
    </g>
    <g id="xtick_11">
     <g id="line2d_38">
      <path d="M 298.756468 163.678807 
L 298.756468 87.698647 
" clip-path="url(#p219b915f7c)" style="fill: none; stroke: #b0b0b0; stroke-width: 0.8; stroke-linecap: round"/>
     </g>
     <g id="line2d_39"/>
    </g>
    <g id="xtick_12">
     <g id="line2d_40">
      <path d="M 351.113852 163.678807 
L 351.113852 87.698647 
" clip-path="url(#p219b915f7c)" style="fill: none; stroke: #b0b0b0; stroke-width: 0.8; stroke-linecap: round"/>
     </g>
     <g id="line2d_41"/>
    </g>
   </g>
   <g id="matplotlib.axis_4">
    <g id="ytick_5">
     <g id="line2d_42">
      <path d="M 47.441021 156.71777 
L 392.99976 156.71777 
" clip-path="url(#p219b915f7c)" style="fill: none; stroke: #b0b0b0; stroke-width: 0.8; stroke-linecap: round"/>
     </g>
     <g id="line2d_43"/>
     <g id="text_9">
      <!-- −1 -->
      <g style="fill: #262626" transform="translate(30.673052 160.137067) scale(0.09 -0.09)">
       <defs>
        <path id="DejaVuSerif-31" d="M 909 0 
L 909 331 
L 1722 331 
L 1722 4213 
L 781 3603 
L 781 4013 
L 1919 4750 
L 2350 4750 
L 2350 331 
L 3163 331 
L 3163 0 
L 909 0 
z
" transform="scale(0.015625)"/>
       </defs>
       <use xlink:href="#DejaVuSerif-2212"/>
       <use xlink:href="#DejaVuSerif-31" x="83.789062"/>
      </g>
     </g>
    </g>
    <g id="ytick_6">
     <g id="line2d_44">
      <path d="M 47.441021 135.255338 
L 392.99976 135.255338 
" clip-path="url(#p219b915f7c)" style="fill: none; stroke: #b0b0b0; stroke-width: 0.8; stroke-linecap: round"/>
     </g>
     <g id="line2d_45"/>
     <g id="text_10">
      <!-- 0 -->
      <g style="fill: #262626" transform="translate(38.214771 138.674635) scale(0.09 -0.09)">
       <use xlink:href="#DejaVuSerif-30"/>
      </g>
     </g>
    </g>
    <g id="ytick_7">
     <g id="line2d_46">
      <path d="M 47.441021 113.792905 
L 392.99976 113.792905 
" clip-path="url(#p219b915f7c)" style="fill: none; stroke: #b0b0b0; stroke-width: 0.8; stroke-linecap: round"/>
     </g>
     <g id="line2d_47"/>
     <g id="text_11">
      <!-- 1 -->
      <g style="fill: #262626" transform="translate(38.214771 117.212202) scale(0.09 -0.09)">
       <use xlink:href="#DejaVuSerif-31"/>
      </g>
     </g>
    </g>
    <g id="ytick_8">
     <g id="line2d_48">
      <path d="M 47.441021 92.330473 
L 392.99976 92.330473 
" clip-path="url(#p219b915f7c)" style="fill: none; stroke: #b0b0b0; stroke-width: 0.8; stroke-linecap: round"/>
     </g>
     <g id="line2d_49"/>
     <g id="text_12">
      <!-- 2 -->
      <g style="fill: #262626" transform="translate(38.214771 95.74977) scale(0.09 -0.09)">
       <use xlink:href="#DejaVuSerif-32"/>
      </g>
     </g>
    </g>
    <g id="text_13">
     <!-- $1000 \cdot {Y'}_{(\bullet)}$ -->
     <g style="fill: #262626" transform="translate(24.333052 148.998727) rotate(-90) scale(0.09 -0.09)">
      <defs>
       <path id="DejaVuSans-Oblique-59" d="M 403 4666 
L 1081 4666 
L 1953 2747 
L 3616 4666 
L 4325 4666 
L 2209 2222 
L 1778 0 
L 1147 0 
L 1575 2222 
L 403 4666 
z
" transform="scale(0.015625)"/>
      </defs>
      <use xlink:href="#DejaVuSans-31" transform="translate(0 0.584375)"/>
      <use xlink:href="#DejaVuSans-30" transform="translate(63.623047 0.584375)"/>
      <use xlink:href="#DejaVuSans-30" transform="translate(127.246094 0.584375)"/>
      <use xlink:href="#DejaVuSans-30" transform="translate(190.869141 0.584375)"/>
      <use xlink:href="#DejaVuSans-22c5" transform="translate(273.974609 0.584375)"/>
      <use xlink:href="#DejaVuSans-Oblique-59" transform="translate(325.244141 0.584375)"/>
      <use xlink:href="#Cmsy10-30" transform="translate(393.344896 38.865625) scale(0.7)"/>
      <use xlink:href="#DejaVuSans-28" transform="translate(416.279466 -15.821875) scale(0.7)"/>
      <use xlink:href="#DejaVuSans-2219" transform="translate(443.589036 -15.821875) scale(0.7)"/>
      <use xlink:href="#DejaVuSans-29" transform="translate(487.407396 -15.821875) scale(0.7)"/>
     </g>
    </g>
   </g>
   <g id="line2d_50">
    <g clip-path="url(#p219b915f7c)">
     <use xlink:href="#m25704e8b11" x="63.148237" y="163.678807" style="fill: #ff0000; stroke: #ff0000"/>
     <use xlink:href="#m25704e8b11" x="194.041698" y="153.274499" style="fill: #ff0000; stroke: #ff0000"/>
     <use xlink:href="#m25704e8b11" x="298.756468" y="145.737087" style="fill: #ff0000; stroke: #ff0000"/>
     <use xlink:href="#m25704e8b11" x="377.292545" y="140.425293" style="fill: #ff0000; stroke: #ff0000"/>
    </g>
   </g>
   <g id="line2d_51">
    <g clip-path="url(#p219b915f7c)">
     <use xlink:href="#m427381ef75" x="63.148237" y="138.422044" style="fill: #008000; stroke: #008000"/>
     <use xlink:href="#m427381ef75" x="194.041698" y="137.349164" style="fill: #008000; stroke: #008000"/>
     <use xlink:href="#m427381ef75" x="298.756468" y="136.527833" style="fill: #008000; stroke: #008000"/>
     <use xlink:href="#m427381ef75" x="377.292545" y="135.875273" style="fill: #008000; stroke: #008000"/>
    </g>
   </g>
   <g id="line2d_52">
    <g clip-path="url(#p219b915f7c)">
     <use xlink:href="#m35bfcbadb8" x="63.148237" y="160.512101" style="fill: #0000ff; stroke: #0000ff"/>
     <use xlink:href="#m35bfcbadb8" x="194.041698" y="151.180673" style="fill: #0000ff; stroke: #0000ff"/>
     <use xlink:href="#m35bfcbadb8" x="298.756468" y="144.464591" style="fill: #0000ff; stroke: #0000ff"/>
     <use xlink:href="#m35bfcbadb8" x="377.292545" y="139.805358" style="fill: #0000ff; stroke: #0000ff"/>
    </g>
   </g>
   <g id="line2d_53">
    <path d="M 63.148237 163.376857 
L 194.041698 153.331432 
L 298.756468 145.803641 
L 377.292545 140.449287 
" clip-path="url(#p219b915f7c)" style="fill: none; stroke: #ff0000; stroke-width: 1.5; stroke-linecap: round"/>
   </g>
   <g id="line2d_54">
    <path d="M 63.148237 138.451858 
L 194.041698 137.310013 
L 298.756468 136.454343 
L 377.292545 135.845724 
" clip-path="url(#p219b915f7c)" style="fill: none; stroke: #008000; stroke-width: 1.5; stroke-linecap: round"/>
   </g>
   <g id="line2d_55">
    <path d="M 63.148237 160.180338 
L 194.041698 151.276757 
L 298.756468 144.604635 
L 377.292545 139.858901 
" clip-path="url(#p219b915f7c)" style="fill: none; stroke: #0000ff; stroke-width: 1.5; stroke-linecap: round"/>
   </g>
   <g id="patch_6">
    <path d="M 47.441021 163.678807 
L 47.441021 87.698647 
" style="fill: none; stroke: #000000; stroke-linejoin: miter; stroke-linecap: square"/>
   </g>
   <g id="patch_7">
    <path d="M 47.441021 163.678807 
L 392.99976 163.678807 
" style="fill: none; stroke: #000000; stroke-linejoin: miter; stroke-linecap: square"/>
   </g>
  </g>
  <g id="axes_3">
   <g id="patch_8">
    <path d="M 47.441021 245.659447 
L 392.99976 245.659447 
L 392.99976 169.679287 
L 47.441021 169.679287 
z
" style="fill: #ffffff"/>
   </g>
   <g id="matplotlib.axis_5">
    <g id="xtick_13">
     <g id="line2d_56">
      <path d="M 89.326929 245.659447 
L 89.326929 169.679287 
" clip-path="url(#pbf05352bef)" style="fill: none; stroke: #b0b0b0; stroke-width: 0.8; stroke-linecap: round"/>
     </g>
     <g id="line2d_57"/>
     <g id="text_14">
      <!-- −14 -->
      <g style="fill: #262626" transform="translate(79.82982 255.998041) scale(0.09 -0.09)">
       <defs>
        <path id="DejaVuSerif-34" d="M 2234 1581 
L 2234 4063 
L 641 1581 
L 2234 1581 
z
M 3609 0 
L 1484 0 
L 1484 331 
L 2234 331 
L 2234 1247 
L 197 1247 
L 197 1588 
L 2241 4750 
L 2859 4750 
L 2859 1581 
L 3750 1581 
L 3750 1247 
L 2859 1247 
L 2859 331 
L 3609 331 
L 3609 0 
z
" transform="scale(0.015625)"/>
       </defs>
       <use xlink:href="#DejaVuSerif-2212"/>
       <use xlink:href="#DejaVuSerif-31" x="83.789062"/>
       <use xlink:href="#DejaVuSerif-34" x="147.412109"/>
      </g>
     </g>
    </g>
    <g id="xtick_14">
     <g id="line2d_58">
      <path d="M 141.684314 245.659447 
L 141.684314 169.679287 
" clip-path="url(#pbf05352bef)" style="fill: none; stroke: #b0b0b0; stroke-width: 0.8; stroke-linecap: round"/>
     </g>
     <g id="line2d_59"/>
     <g id="text_15">
      <!-- −12 -->
      <g style="fill: #262626" transform="translate(132.187204 255.998041) scale(0.09 -0.09)">
       <use xlink:href="#DejaVuSerif-2212"/>
       <use xlink:href="#DejaVuSerif-31" x="83.789062"/>
       <use xlink:href="#DejaVuSerif-32" x="147.412109"/>
      </g>
     </g>
    </g>
    <g id="xtick_15">
     <g id="line2d_60">
      <path d="M 194.041698 245.659447 
L 194.041698 169.679287 
" clip-path="url(#pbf05352bef)" style="fill: none; stroke: #b0b0b0; stroke-width: 0.8; stroke-linecap: round"/>
     </g>
     <g id="line2d_61"/>
     <g id="text_16">
      <!-- −10 -->
      <g style="fill: #262626" transform="translate(184.544589 255.998041) scale(0.09 -0.09)">
       <use xlink:href="#DejaVuSerif-2212"/>
       <use xlink:href="#DejaVuSerif-31" x="83.789062"/>
       <use xlink:href="#DejaVuSerif-30" x="147.412109"/>
      </g>
     </g>
    </g>
    <g id="xtick_16">
     <g id="line2d_62">
      <path d="M 246.399083 245.659447 
L 246.399083 169.679287 
" clip-path="url(#pbf05352bef)" style="fill: none; stroke: #b0b0b0; stroke-width: 0.8; stroke-linecap: round"/>
     </g>
     <g id="line2d_63"/>
     <g id="text_17">
      <!-- −8 -->
      <g style="fill: #262626" transform="translate(239.765099 255.998041) scale(0.09 -0.09)">
       <defs>
        <path id="DejaVuSerif-38" d="M 2981 1275 
Q 2981 1775 2732 2051 
Q 2484 2328 2034 2328 
Q 1584 2328 1336 2051 
Q 1088 1775 1088 1275 
Q 1088 772 1336 495 
Q 1584 219 2034 219 
Q 2484 219 2732 495 
Q 2981 772 2981 1275 
z
M 2853 3541 
Q 2853 3966 2637 4203 
Q 2422 4441 2034 4441 
Q 1650 4441 1433 4203 
Q 1216 3966 1216 3541 
Q 1216 3113 1433 2875 
Q 1650 2638 2034 2638 
Q 2422 2638 2637 2875 
Q 2853 3113 2853 3541 
z
M 2516 2484 
Q 3047 2413 3344 2092 
Q 3641 1772 3641 1275 
Q 3641 619 3225 264 
Q 2809 -91 2034 -91 
Q 1263 -91 845 264 
Q 428 619 428 1275 
Q 428 1772 725 2092 
Q 1022 2413 1556 2484 
Q 1084 2569 832 2842 
Q 581 3116 581 3541 
Q 581 4103 968 4426 
Q 1356 4750 2034 4750 
Q 2713 4750 3100 4426 
Q 3488 4103 3488 3541 
Q 3488 3116 3236 2842 
Q 2984 2569 2516 2484 
z
" transform="scale(0.015625)"/>
       </defs>
       <use xlink:href="#DejaVuSerif-2212"/>
       <use xlink:href="#DejaVuSerif-38" x="83.789062"/>
      </g>
     </g>
    </g>
    <g id="xtick_17">
     <g id="line2d_64">
      <path d="M 298.756468 245.659447 
L 298.756468 169.679287 
" clip-path="url(#pbf05352bef)" style="fill: none; stroke: #b0b0b0; stroke-width: 0.8; stroke-linecap: round"/>
     </g>
     <g id="line2d_65"/>
     <g id="text_18">
      <!-- −6 -->
      <g style="fill: #262626" transform="translate(292.122483 255.998041) scale(0.09 -0.09)">
       <defs>
        <path id="DejaVuSerif-36" d="M 2094 219 
Q 2534 219 2771 542 
Q 3009 866 3009 1472 
Q 3009 2078 2771 2401 
Q 2534 2725 2094 2725 
Q 1647 2725 1412 2412 
Q 1178 2100 1178 1509 
Q 1178 888 1415 553 
Q 1653 219 2094 219 
z
M 1075 2569 
Q 1288 2803 1556 2918 
Q 1825 3034 2163 3034 
Q 2859 3034 3264 2615 
Q 3669 2197 3669 1472 
Q 3669 763 3233 336 
Q 2797 -91 2069 -91 
Q 1278 -91 853 498 
Q 428 1088 428 2181 
Q 428 3406 931 4078 
Q 1434 4750 2350 4750 
Q 2597 4750 2869 4703 
Q 3141 4656 3425 4563 
L 3425 3794 
L 3072 3794 
Q 3034 4109 2831 4275 
Q 2628 4441 2284 4441 
Q 1678 4441 1381 3981 
Q 1084 3522 1075 2569 
z
" transform="scale(0.015625)"/>
       </defs>
       <use xlink:href="#DejaVuSerif-2212"/>
       <use xlink:href="#DejaVuSerif-36" x="83.789062"/>
      </g>
     </g>
    </g>
    <g id="xtick_18">
     <g id="line2d_66">
      <path d="M 351.113852 245.659447 
L 351.113852 169.679287 
" clip-path="url(#pbf05352bef)" style="fill: none; stroke: #b0b0b0; stroke-width: 0.8; stroke-linecap: round"/>
     </g>
     <g id="line2d_67"/>
     <g id="text_19">
      <!-- −4 -->
      <g style="fill: #262626" transform="translate(344.479868 255.998041) scale(0.09 -0.09)">
       <use xlink:href="#DejaVuSerif-2212"/>
       <use xlink:href="#DejaVuSerif-34" x="83.789062"/>
      </g>
     </g>
    </g>
    <g id="text_20">
     <!-- $\delta$ $[deg]$ -->
     <g style="fill: #262626" transform="translate(204.020391 268.70976) scale(0.09 -0.09)">
      <defs>
       <path id="DejaVuSans-Oblique-3b4" d="M 3472 4053 
Q 3197 4272 2450 4272 
Q 1659 4272 1588 3906 
Q 1531 3619 2328 3469 
Q 2953 3353 3253 3003 
Q 3616 2581 3447 1716 
Q 3284 888 2763 400 
Q 2238 -91 1488 -91 
Q 741 -91 406 400 
Q 72 888 241 1747 
Q 363 2384 891 2900 
Q 1097 3100 1353 3213 
Q 913 3459 1000 3900 
Q 1166 4750 2544 4750 
Q 3234 4750 3566 4531 
L 3472 4053 
z
M 1753 3056 
Q 1525 2966 1306 2738 
Q 969 2384 847 1747 
Q 722 1113 919 756 
Q 1119 397 1584 397 
Q 2044 397 2381 759 
Q 2722 1122 2838 1716 
Q 2956 2338 2731 2638 
Q 2491 2959 2103 2994 
Q 1906 3013 1753 3056 
z
" transform="scale(0.015625)"/>
       <path id="DejaVuSerif-20" transform="scale(0.015625)"/>
       <path id="DejaVuSans-5b" d="M 550 4863 
L 1875 4863 
L 1875 4416 
L 1125 4416 
L 1125 -397 
L 1875 -397 
L 1875 -844 
L 550 -844 
L 550 4863 
z
" transform="scale(0.015625)"/>
       <path id="DejaVuSans-Oblique-64" d="M 2675 525 
Q 2444 222 2128 65 
Q 1813 -91 1428 -91 
Q 903 -91 598 267 
Q 294 625 294 1247 
Q 294 1766 478 2236 
Q 663 2706 1013 3078 
Q 1244 3325 1534 3454 
Q 1825 3584 2144 3584 
Q 2481 3584 2739 3421 
Q 2997 3259 3138 2956 
L 3513 4863 
L 4091 4863 
L 3144 0 
L 2566 0 
L 2675 525 
z
M 891 1350 
Q 891 897 1095 644 
Q 1300 391 1663 391 
Q 1931 391 2161 520 
Q 2391 650 2566 903 
Q 2750 1166 2856 1509 
Q 2963 1853 2963 2188 
Q 2963 2622 2758 2865 
Q 2553 3109 2194 3109 
Q 1922 3109 1687 2981 
Q 1453 2853 1288 2613 
Q 1106 2353 998 2009 
Q 891 1666 891 1350 
z
" transform="scale(0.015625)"/>
       <path id="DejaVuSans-Oblique-65" d="M 3078 2063 
Q 3088 2113 3092 2166 
Q 3097 2219 3097 2272 
Q 3097 2653 2873 2875 
Q 2650 3097 2266 3097 
Q 1838 3097 1509 2826 
Q 1181 2556 1013 2059 
L 3078 2063 
z
M 3578 1613 
L 903 1613 
Q 884 1494 878 1425 
Q 872 1356 872 1306 
Q 872 872 1139 634 
Q 1406 397 1894 397 
Q 2269 397 2603 481 
Q 2938 566 3225 728 
L 3116 159 
Q 2806 34 2476 -28 
Q 2147 -91 1806 -91 
Q 1078 -91 686 257 
Q 294 606 294 1247 
Q 294 1794 489 2264 
Q 684 2734 1063 3103 
Q 1306 3334 1642 3459 
Q 1978 3584 2356 3584 
Q 2950 3584 3301 3228 
Q 3653 2872 3653 2272 
Q 3653 2128 3634 1964 
Q 3616 1800 3578 1613 
z
" transform="scale(0.015625)"/>
       <path id="DejaVuSans-Oblique-67" d="M 3816 3500 
L 3219 434 
Q 3047 -456 2561 -893 
Q 2075 -1331 1253 -1331 
Q 950 -1331 690 -1286 
Q 431 -1241 206 -1147 
L 313 -588 
Q 525 -725 762 -790 
Q 1000 -856 1269 -856 
Q 1816 -856 2167 -557 
Q 2519 -259 2631 300 
L 2681 563 
Q 2441 288 2122 144 
Q 1803 0 1434 0 
Q 903 0 598 351 
Q 294 703 294 1319 
Q 294 1803 478 2267 
Q 663 2731 997 3091 
Q 1219 3328 1514 3456 
Q 1809 3584 2131 3584 
Q 2484 3584 2746 3420 
Q 3009 3256 3138 2956 
L 3238 3500 
L 3816 3500 
z
M 2950 2216 
Q 2950 2641 2750 2872 
Q 2550 3103 2181 3103 
Q 1953 3103 1747 3012 
Q 1541 2922 1394 2759 
Q 1156 2491 1023 2127 
Q 891 1763 891 1375 
Q 891 944 1092 712 
Q 1294 481 1672 481 
Q 2219 481 2584 976 
Q 2950 1472 2950 2216 
z
" transform="scale(0.015625)"/>
       <path id="DejaVuSans-5d" d="M 1947 4863 
L 1947 -844 
L 622 -844 
L 622 -397 
L 1369 -397 
L 1369 4416 
L 622 4416 
L 622 4863 
L 1947 4863 
z
" transform="scale(0.015625)"/>
      </defs>
      <use xlink:href="#DejaVuSans-Oblique-3b4" transform="translate(0 0.015625)"/>
      <use xlink:href="#DejaVuSerif-20" transform="translate(61.181641 0.015625)"/>
      <use xlink:href="#DejaVuSans-5b" transform="translate(92.96875 0.015625)"/>
      <use xlink:href="#DejaVuSans-Oblique-64" transform="translate(131.982422 0.015625)"/>
      <use xlink:href="#DejaVuSans-Oblique-65" transform="translate(195.458984 0.015625)"/>
      <use xlink:href="#DejaVuSans-Oblique-67" transform="translate(256.982422 0.015625)"/>
      <use xlink:href="#DejaVuSans-5d" transform="translate(320.458984 0.015625)"/>
     </g>
    </g>
   </g>
   <g id="matplotlib.axis_6">
    <g id="ytick_9">
     <g id="line2d_68">
      <path d="M 47.441021 223.673097 
L 392.99976 223.673097 
" clip-path="url(#pbf05352bef)" style="fill: none; stroke: #b0b0b0; stroke-width: 0.8; stroke-linecap: round"/>
     </g>
     <g id="line2d_69"/>
     <g id="text_21">
      <!-- 0.0 -->
      <g style="fill: #262626" transform="translate(29.628209 227.092394) scale(0.09 -0.09)">
       <use xlink:href="#DejaVuSerif-30"/>
       <use xlink:href="#DejaVuSerif-2e" x="63.623047"/>
       <use xlink:href="#DejaVuSerif-30" x="95.410156"/>
      </g>
     </g>
    </g>
    <g id="ytick_10">
     <g id="line2d_70">
      <path d="M 47.441021 188.236929 
L 392.99976 188.236929 
" clip-path="url(#pbf05352bef)" style="fill: none; stroke: #b0b0b0; stroke-width: 0.8; stroke-linecap: round"/>
     </g>
     <g id="line2d_71"/>
     <g id="text_22">
      <!-- 0.5 -->
      <g style="fill: #262626" transform="translate(29.628209 191.656226) scale(0.09 -0.09)">
       <use xlink:href="#DejaVuSerif-30"/>
       <use xlink:href="#DejaVuSerif-2e" x="63.623047"/>
       <use xlink:href="#DejaVuSerif-35" x="95.410156"/>
      </g>
     </g>
    </g>
    <g id="text_23">
     <!-- $1000 \cdot {N'}_{(\bullet)}$ -->
     <g style="fill: #262626" transform="translate(23.288209 231.609367) rotate(-90) scale(0.09 -0.09)">
      <defs>
       <path id="DejaVuSans-Oblique-4e" d="M 1081 4666 
L 1931 4666 
L 3219 666 
L 4000 4666 
L 4616 4666 
L 3706 0 
L 2853 0 
L 1569 4025 
L 788 0 
L 172 0 
L 1081 4666 
z
" transform="scale(0.015625)"/>
      </defs>
      <use xlink:href="#DejaVuSans-31" transform="translate(0 0.584375)"/>
      <use xlink:href="#DejaVuSans-30" transform="translate(63.623047 0.584375)"/>
      <use xlink:href="#DejaVuSans-30" transform="translate(127.246094 0.584375)"/>
      <use xlink:href="#DejaVuSans-30" transform="translate(190.869141 0.584375)"/>
      <use xlink:href="#DejaVuSans-22c5" transform="translate(273.974609 0.584375)"/>
      <use xlink:href="#DejaVuSans-Oblique-4e" transform="translate(325.244141 0.584375)"/>
      <use xlink:href="#Cmsy10-30" transform="translate(407.065599 38.865625) scale(0.7)"/>
      <use xlink:href="#DejaVuSans-28" transform="translate(430.000169 -15.821875) scale(0.7)"/>
      <use xlink:href="#DejaVuSans-2219" transform="translate(457.30974 -15.821875) scale(0.7)"/>
      <use xlink:href="#DejaVuSans-29" transform="translate(501.128099 -15.821875) scale(0.7)"/>
     </g>
    </g>
   </g>
   <g id="line2d_72">
    <g clip-path="url(#pbf05352bef)">
     <use xlink:href="#m25704e8b11" x="63.148237" y="178.377118" style="fill: #ff0000; stroke: #ff0000"/>
     <use xlink:href="#m25704e8b11" x="194.041698" y="195.014221" style="fill: #ff0000; stroke: #ff0000"/>
     <use xlink:href="#m25704e8b11" x="298.756468" y="207.028884" style="fill: #ff0000; stroke: #ff0000"/>
     <use xlink:href="#m25704e8b11" x="377.292545" y="215.468275" style="fill: #ff0000; stroke: #ff0000"/>
    </g>
   </g>
   <g id="line2d_73">
    <g clip-path="url(#pbf05352bef)">
     <use xlink:href="#m427381ef75" x="63.148237" y="218.709515" style="fill: #008000; stroke: #008000"/>
     <use xlink:href="#m427381ef75" x="194.041698" y="220.447012" style="fill: #008000; stroke: #008000"/>
     <use xlink:href="#m427381ef75" x="298.756468" y="221.729242" style="fill: #008000; stroke: #008000"/>
     <use xlink:href="#m427381ef75" x="377.292545" y="222.728124" style="fill: #008000; stroke: #008000"/>
    </g>
   </g>
   <g id="line2d_74">
    <g clip-path="url(#pbf05352bef)">
     <use xlink:href="#m35bfcbadb8" x="63.148237" y="183.3407" style="fill: #0000ff; stroke: #0000ff"/>
     <use xlink:href="#m35bfcbadb8" x="194.041698" y="198.240306" style="fill: #0000ff; stroke: #0000ff"/>
     <use xlink:href="#m35bfcbadb8" x="298.756468" y="208.972739" style="fill: #0000ff; stroke: #0000ff"/>
     <use xlink:href="#m35bfcbadb8" x="377.292545" y="216.413248" style="fill: #0000ff; stroke: #0000ff"/>
    </g>
   </g>
   <g id="line2d_75">
    <path d="M 63.148237 178.43534 
L 194.041698 194.59494 
L 298.756468 206.704542 
L 377.292545 215.317837 
" clip-path="url(#pbf05352bef)" style="fill: none; stroke: #ff0000; stroke-width: 1.5; stroke-linecap: round"/>
   </g>
   <g id="line2d_76">
    <path d="M 63.148237 218.648292 
L 194.041698 220.443227 
L 298.756468 221.788307 
L 377.292545 222.745033 
" clip-path="url(#pbf05352bef)" style="fill: none; stroke: #008000; stroke-width: 1.5; stroke-linecap: round"/>
   </g>
   <g id="line2d_77">
    <path d="M 63.148237 183.460145 
L 194.041698 197.82481 
L 298.756468 208.589332 
L 377.292545 216.245901 
" clip-path="url(#pbf05352bef)" style="fill: none; stroke: #0000ff; stroke-width: 1.5; stroke-linecap: round"/>
   </g>
   <g id="patch_9">
    <path d="M 47.441021 245.659447 
L 47.441021 169.679287 
" style="fill: none; stroke: #000000; stroke-linejoin: miter; stroke-linecap: square"/>
   </g>
   <g id="patch_10">
    <path d="M 47.441021 245.659447 
L 392.99976 245.659447 
" style="fill: none; stroke: #000000; stroke-linejoin: miter; stroke-linecap: square"/>
   </g>
  </g>
 </g>
 <defs>
  <clipPath id="p94c03eb2e3">
   <rect x="47.441021" y="5.718007" width="345.558739" height="75.98016"/>
  </clipPath>
  <clipPath id="p219b915f7c">
   <rect x="47.441021" y="87.698647" width="345.558739" height="75.98016"/>
  </clipPath>
  <clipPath id="pbf05352bef">
   <rect x="47.441021" y="169.679287" width="345.558739" height="75.98016"/>
  </clipPath>
 </defs>
</svg>
